<?xml version="1.0" encoding="UTF-8"?>
<!DOCTYPE svg PUBLIC "-//W3C//DTD SVG 1.1//EN" "http://www.w3.org/Graphics/SVG/1.1/DTD/svg11.dtd">
<!-- Creator: CorelDRAW -->
<svg xmlns="http://www.w3.org/2000/svg" xml:space="preserve" width="23.9804in" height="13.9241in" version="1.1" style="shape-rendering:geometricPrecision; text-rendering:geometricPrecision; image-rendering:optimizeQuality; fill-rule:evenodd; clip-rule:evenodd"
viewBox="0 0 2380.31 1382.12"
 xmlns:xlink="http://www.w3.org/1999/xlink"
 xmlns:xodm="http://www.corel.com/coreldraw/odm/2003">
 <defs>
  <style type="text/css">
   <![CDATA[
    .fil0 {fill:#5E01D1}
    .fil1 {fill:white}
   ]]>
  </style>
 </defs>
 <g id="Layer_x0020_1">
  <metadata id="CorelCorpID_0Corel-Layer"/>
  <g id="_105553191712672">
   <rect class="fil0" y="-0" width="2380.31" height="1382.12"/>
   <g>
    <path class="fil1" d="M1054.48 515.76c-0.38,1.64 -0.73,1.69 -0.73,3.67l0 204.6c0,8.58 35.67,4.34 41.78,4.38 8.01,0.05 12.32,1.66 13.2,-9.54 0.35,-4.45 -0.4,-6.97 -0.68,-10.28 -0.3,-3.68 0.1,-7.97 -0.01,-11.72l-0.76 -21.98c0,-10.96 -0.05,-22.61 2.37,-32.83 1.64,-6.92 4.18,-14.84 13.03,-14.84 22.68,0 18.33,10.78 18.33,40.33 0,19.56 0,39.11 0,58.67 8.85,4.25 33.83,2.22 42.53,2.2 5.53,-0.01 9.05,-1.47 13.93,-1.47 0,-12.09 0.75,-22.55 0.73,-35.2 -0.01,-6.94 0.76,-10.91 0.74,-17.6 -0.12,-32.18 1.22,-71.19 -22.52,-88.95 -13.84,-10.36 -37.3,-14.44 -53.72,-4.89 -2.41,1.4 -4.77,2.87 -7.21,4.52 -1.99,1.35 -5.2,3.64 -7.48,4.25l0 -74.07c-7.63,0 -49.5,-0.83 -53.53,0.73z"/>
    <path class="fil1" d="M932.02 655.83c0,-15.93 9.91,-30.07 24.93,-30.07 10.68,0 15.88,1.53 23.3,8.97 14.05,14.07 8.89,46 -19.67,46.73 -6.71,0.17 -15.19,-2.38 -20.3,-6.76 -1.76,-1.51 -4.49,-5.29 -5.61,-7.59 -1.24,-2.58 -2.65,-7.77 -2.65,-11.28zm-16.87 66.19l2.97 -0.2 -0.04 2.94c37.08,19.62 60.11,-2.97 68.2,-5.13 0,7.89 0.43,4.34 1.47,8.8 10.75,0 21.52,0.05 32.28,-0.01 13.02,-0.07 20.09,5.01 21.23,-10.29 1.52,-20.49 -0.7,-44.58 -0.7,-64.5 0,-21.59 1.77,-42.86 0.74,-64.54 -0.71,-15 -6.88,-10.94 -19.81,-10.99 -11,-0.04 -22,-0 -33,-0 -0.77,1.62 -2.15,7.12 -2.2,9.53 -6.91,-1.61 -5.09,-3.78 -12.25,-6.82 -17.67,-7.5 -30.05,-7.49 -47.36,-1.46 -17.31,6.03 -31.69,20.09 -39.89,36.38 -9.07,18.01 -12.57,40.29 -5.64,63.84 4.5,15.3 20.67,39.91 34.01,42.45z"/>
    <path class="fil1" d="M712.02 583.96c0,2.27 0.65,2.85 1.59,4.28 3.47,5.29 11.03,24.6 14.06,31.4 6.53,14.65 45.22,105.88 45.22,108.78 0,2.46 -9.02,21.31 -10.75,25.18l-10.52 26.15c4.19,4.82 9.65,3.93 17.62,3.69 3.82,-0.11 5,-0.79 9.49,-0.77l15.94 0.34c1.01,-0.04 3.15,-0.26 4.6,-0.32 3.09,-0.13 5.64,-0.47 7.79,-1.76 4.08,-2.45 6.06,-6.42 7.94,-11.13l33.66 -82.2c11.26,-25.12 22.88,-55.78 34.24,-81.63 1.95,-4.43 3.71,-8.61 5.39,-13.67 1.14,-3.42 5.5,-14.21 1.19,-14.21l-52.8 0c-2.48,0 -3.33,4.32 -5.02,8.91 -1.44,3.9 -2.53,6.67 -4.09,10.58 -3.35,8.37 -23.79,58.16 -23.89,62.65l-31.63 -76.9c-0.78,-1.88 -1.59,-3.02 -2.1,-5.23 -10.29,0 -22.71,0.71 -31.73,-0.53 -5.8,-0.8 -9.72,0.59 -15.18,0.55 -6.75,-0.05 -11.02,-1.18 -11.02,5.85z"/>
    <path class="fil1" d="M1276.68 627.23c14.21,0 18.58,-1.49 27.7,8.23 3.07,3.27 6.76,12.03 6.76,18.17 0,8.57 -3.54,14.64 -7.62,19.51 -12.66,15.12 -42.78,8.76 -46.9,-15.63 -1.14,-6.75 1.72,-14.98 4.95,-19.72 2.26,-3.32 10.23,-10.56 15.1,-10.56zm-72.6 25.67c0,29.01 13.31,54.74 38.15,68.92 30.16,17.21 73.48,12.77 98.07,-11.9 44.84,-44.98 22.94,-120.15 -38.86,-133.11 -2.67,-0.56 -5.71,-1.32 -7.98,-1.55 -9.06,-0.94 -18.37,-0.8 -27.21,1.21 -35.65,8.08 -62.16,37.23 -62.16,76.44z"/>
    <path class="fil1" d="M1421.88 655.83c0,-8.72 -0.1,-14.6 7.29,-22.04 10.69,-10.77 46.24,-11.75 46.24,22.04 0,22.32 -30.27,35.02 -46.84,16.77 -0.6,-0.66 -1.16,-1.27 -1.69,-1.98 -2.48,-3.38 -5.01,-9.92 -5.01,-14.79zm-52.8 -11.73c0,31.17 2.49,49.7 28.5,70.5 6.71,5.36 11.2,7.4 18.43,10.9 5.26,2.55 16.85,5.88 22.83,6.51 15.3,1.61 27.74,-0.67 41.61,-5.88 9.22,-3.46 16.42,-9.4 23.68,-15.18 2.34,-1.86 2.49,-2.97 4.46,-5.08 27.61,-29.53 25.6,-80.21 -2.55,-107.81 -1.92,-1.88 -3.14,-2.57 -5.15,-4.38 -1.85,-1.66 -3.43,-2.57 -5.47,-4.07 -3.63,-2.67 -7.88,-4.87 -12.19,-6.88 -8.45,-3.94 -19.54,-7.27 -31.31,-7.56 -7.04,-0.18 -6.78,-1.23 -17.08,0.49 -5.77,0.97 -10.61,2.06 -15.19,3.88 -7.52,3 -12.23,5.36 -18.54,10.06 -15.97,11.92 -32.05,33.44 -32.05,54.48z"/>
    <path class="fil1" d="M1550.21 649.96l61.6 0c3.94,0 6.65,-10.89 8.16,-14.57l44.39 -107.41c4.39,-8.7 3.92,-5.04 3.92,-12.95l-60.87 0c-4.5,0 -7.73,10.16 -9.32,14.14l-31.54 76.26c-4.42,11.13 -16.34,34.88 -16.34,44.53z"/>
    <path class="fil1" d="M1290.61 823.76c0,-5.44 3.28,-12.52 7.43,-15.31 11.75,-7.91 21.91,8.27 21.91,12.37 0,20.07 -29.33,20.19 -29.33,2.93zm-33.73 -8.07c0,16.62 -1.02,26.61 10.81,38.32 23.21,22.98 40.4,9.04 48.8,8.24 1.43,-0.14 23.17,7.77 32.82,1.87 3.84,-2.35 3.7,-4.32 3.65,-10.29l-0.01 -41.81c-0.01,-12.07 1.35,-12.99 -0.07,-26.33 -1.05,-9.87 -8.21,-7.4 -24.13,-7.4 -6.95,0 -8.21,1.7 -11,5.87 -1.67,-1.12 -2,-1.85 -3.68,-2.92 -5.99,-3.78 -9.33,-3.89 -15.94,-4.66 -13.02,-1.52 -27.76,7.08 -34.62,18.6 -3.67,6.17 -6.63,10.65 -6.63,20.5z"/>
    <path class="fil1" d="M1395.48 784.16c-1.39,-5.98 -9.03,-5.08 -17.18,-6.3 -3.8,-0.57 -6.91,-0.05 -10.39,0.74 -3.57,0.8 -6.16,2.26 -6.16,6.3l0 79.93c42.84,1.55 33.73,7.51 33.73,-52.8 2.78,-0.74 3.42,-2.51 7.33,-5.13 3.88,0.9 8.41,3.37 9.36,6.78l-0.56 25.48c0,9.84 2.11,21.57 2.2,25.67l32.27 0c3.7,-15.86 5.39,-69.26 -9.73,-81.94 -12.4,-10.39 -28.91,-6.74 -40.87,1.27z"/>
    <path class="fil1" d="M1199.68 784.16c-3.58,-7.47 -0.25,-5.87 -23.47,-5.87 -7.95,0 -11,3.02 -11,11 0,17.69 -1.37,60.22 2.2,75.53 7.43,0 26.16,1.48 30.24,-1.29 4.44,-3.01 1.29,-19.05 1.29,-28.78 0,-12.56 -0.36,-24.34 8.98,-27.07 3.19,-0.93 3.59,-0.28 7.44,3.32 2.05,1.91 2.5,2.31 2.68,9.06 0.3,11.71 -0.76,22.56 -0.76,35.96 0,8.72 4.78,8.85 12.51,9.5 3.72,0.31 18.29,-0.75 21.23,-1.43l1.47 -43.27c0,-26.98 -7,-44 -35.2,-44 -6.07,0 -9.81,3.7 -12.95,5.38 -1.84,0.99 -3,1.16 -4.65,1.95z"/>
    <path class="fil1" d="M1566.35 803.23c5,0 4.85,-0.61 8.95,2.79 1.91,1.58 2.17,1.9 2.79,4.55l-21.27 0c0.41,-4.89 4.75,-7.33 9.53,-7.33zm38.87 -6.71l-3.44 -0.2 0.5 -2.37c-3.49,-7.95 -12.18,-13.71 -21.69,-15.97 -17.33,-4.11 -30.9,-0.63 -43.49,9.2 -14.98,11.7 -19.16,40.01 -11.36,55.91 6.25,12.75 19.07,21.38 33.66,23.53 5.47,0.81 12.76,0.96 18.39,0.11 7.03,-1.05 9.16,-1.9 14.47,-4.59 3.78,-1.92 8.3,-5.17 10.93,-8.14 3.76,-4.24 4.24,-7.2 5.68,-13.39 -6.04,-1.41 -8.72,-2 -14.14,-4.19 -4.33,-1.74 -8.85,-4.33 -14.19,-2.15 -4.58,1.87 -6.89,5.66 -12.73,5.66 -5.34,-0 -10.59,-3.23 -11,-8.11 8.31,0 16.63,0.04 24.94,-0 19.11,-0.1 34.19,6.08 30.17,-16.97 -2.79,-16.03 -2.52,-9.71 -6.71,-18.33z"/>
    <path class="fil1" d="M1064.75 778.29c-15.4,0 -11,3.3 -11,26.4 4.1,2.75 0.3,2.2 11,2.2l0 52.8c0,3.47 2.98,5.87 5.87,5.87 7.38,0 21.35,-0.12 27.13,-1.47 1.74,-7.48 0.73,-46.55 0.73,-57.2l19.07 0c0.52,-6.24 4.82,-17.02 -0.73,-28.6l-17.6 0c0.92,-11.01 12.82,-8.23 19.8,-6.6 1.13,-2.35 3.07,-15.42 2.68,-18.76 -1.65,-14.02 -8.62,-12.04 -21.74,-12.04 -13.42,0 -18.87,3.33 -25.49,10.44 -5.61,6.03 -9.71,15.49 -9.71,26.96z"/>
    <path class="fil1" d="M1451.21 819.36c0,13.77 3.42,24.23 11.74,33.73 18,20.57 57.93,16.11 57.93,2.2 0,-34.6 -0.28,-19.07 -21.27,-19.07 -4.33,0 -22.66,-8.9 -9,-24.4 12.62,-14.31 30.26,8.98 30.26,-7.14 0,-27.71 -0.69,-27.87 -30.07,-27.87 -18.52,0 -39.6,21.1 -39.6,42.53z"/>
    <path class="fil1" d="M1531.88 688.09c0,17.57 -2.08,20.96 10.81,33.93 7.84,7.9 14.71,8.61 25.86,8.61 12.64,0 17.58,-4.8 24.02,-11.18 5.34,-5.3 11.48,-14.31 10.95,-24.6 -0.97,-18.94 -19,-36.09 -34.97,-36.09 -10.85,0 -17.21,1.42 -25.49,9.71 -3.91,3.91 -11.18,12.48 -11.18,19.62z"/>
    <path class="fil1" d="M1126.6 782.69l-0.02 77 -0.28 5.13c26.53,0 33.17,10.41 33.04,-24.2 -0.04,-10.41 -0.74,-18.58 -0.74,-29.34 0,-10.27 0,-20.53 0,-30.8l-17 -2.86c-1.83,-0.18 -7.19,0.51 -9.11,0.95 -2.82,0.64 -4.91,1.87 -5.9,4.11z"/>
    <path class="fil1" d="M1126.59 859.69l0.02 -77c-1.26,1.47 -0.17,-0.56 -0.76,1.64 -2.41,8.86 -2.62,62.43 -0.7,71.41 0.03,0.16 0.32,1.48 0.42,1.81l1.02 2.14z"/>
    <polygon class="fil1" points="918.08,724.76 918.12,721.82 915.15,722.01 915.15,724.76 "/>
    <polygon class="fil1" points="1605.21,796.52 1605.21,793.69 1602.28,793.95 1601.77,796.32 "/>
   </g>
  </g>
 </g>
</svg>
