<?xml version="1.0" encoding="UTF-8"?>
<!DOCTYPE svg PUBLIC "-//W3C//DTD SVG 1.1//EN" "http://www.w3.org/Graphics/SVG/1.1/DTD/svg11.dtd">
<!-- Creator: CorelDRAW -->
<svg xmlns="http://www.w3.org/2000/svg" xml:space="preserve" width="23.9804in" height="13.9241in" version="1.1" style="shape-rendering:geometricPrecision; text-rendering:geometricPrecision; image-rendering:optimizeQuality; fill-rule:evenodd; clip-rule:evenodd"
viewBox="0 0 2078.17 1206.68"
 xmlns:xlink="http://www.w3.org/1999/xlink"
 xmlns:xodm="http://www.corel.com/coreldraw/odm/2003">
 <defs>
  <style type="text/css">
   <![CDATA[
    .fil1 {fill:black}
    .fil0 {fill:#F9BE2C}
   ]]>
  </style>
 </defs>
 <g id="Layer_x0020_1">
  <metadata id="CorelCorpID_0Corel-Layer"/>
  <rect class="fil0" y="-0" width="2078.17" height="1206.68"/>
  <g id="_105553190814688">
   <path class="fil1" d="M714.06 544.64l-70.13 0c-0.47,5.68 -4.65,13.4 -6.52,17.97 -4.47,10.9 -22.28,47.92 -22.42,54.38l65.68 -27.83 -79.03 117.99 6.57 -33.5c0.82,-4.03 2.01,-7.12 2.33,-11.03 -5.55,0.12 -51.85,19.6 -59,23.38 0.44,-5.33 2.74,-11.46 3.98,-17.17 1.52,-6.98 2.58,-11.31 4.26,-18.01l16.7 -70.13c2.17,-8.67 7.35,-27.84 7.35,-36.07l-67.9 0c0,-12.25 11.13,-36.11 11.13,-51.2l199.25 0c-0.13,5.63 -10.4,43.3 -12.24,51.2zm-144.38 15.58c-0.93,5.34 -1.94,12.92 -4.78,16.49 -0.23,2.93 -6.96,30.74 -7.79,32.29 0.23,0.6 0.35,0.66 0.39,2.16 0.1,3.76 -1.64,7.78 -3.55,11.39 -1.76,11.48 -5.12,23.34 -7.51,33.39 -0.51,4.89 -1.35,11.12 -3.81,14.23 -1.02,4.85 -2.54,8.76 -3.78,14.27 -1.18,5.21 -2.89,10.73 -2.9,16.03l1.12 3.41c6.72,-0.57 46.6,-19.15 56.5,-22.9l-1.47 5.02 -19.42 80.15c2.52,-0.91 0.9,-0.23 2.65,-1.81l24.73 -34.26c19.41,-29.34 42.93,-60.27 62.12,-89.27 8.02,-12.13 48.22,-68.26 52.98,-77.25 -4.4,0.37 -49.27,19.5 -57.41,22.74 -5.4,2.15 -14.93,7.19 -20.51,7.32 1.3,-2.71 2.2,-6.26 3.2,-9.05 2.74,-7.67 9.58,-21.79 10.16,-28.8l72.35 0c2.58,-5.38 17.81,-67.08 17.81,-74.58l-143.6 0.57 -14.47 -0.58 -63.45 0.01c-2.81,12.08 -6.55,23.27 -9.37,36.26 -2.3,10.6 -7.59,28.14 -8.44,38.32l67.9 0 0.33 4.45z"/>
   <path class="fil1" d="M592.1 686.01l1.47 -5.02c-9.9,3.75 -49.78,22.33 -56.5,22.9l-1.12 -3.41c-14.33,0.32 -15.25,4.97 -47.87,3.35 -26.46,-1.32 -71.54,-18.31 -80.57,-47.44 -2.29,-7.38 -2.91,-13.33 -2.91,-22.69 4.44,2.98 7.34,7.11 11.4,10.87 12.35,11.44 27.26,19.18 44.25,23.65 16.06,4.23 45.37,7.63 61.92,5.12 7.87,-1.19 11.87,-2.42 20.47,-3.15 2.46,-3.11 3.29,-9.34 3.81,-14.23 -5.26,2.03 -40.37,7.29 -48.24,6.66 -15.36,-1.24 -32.86,-4.56 -45.27,-9.35 -14.08,-5.43 -23.88,-11.28 -33.59,-20.95 -9.54,-9.5 -14.74,-21.01 -14.74,-39.81 6.46,4.32 8.51,10.54 27.17,21.81 15.03,9.08 38.49,15.52 57.39,16.07 20.91,0.61 47.67,0.41 64.78,-7.83 1.91,-3.61 3.65,-7.63 3.55,-11.39 -0.04,-1.5 -0.16,-1.55 -0.39,-2.16 -10.87,1.68 -20.96,10.21 -46.71,10.25 -36.94,0.05 -61.94,-4.82 -88.76,-27.08 -12.09,-10.03 -17.02,-24.57 -17.02,-40.86 3.31,0.88 4.54,2.7 7.33,4.91 16,12.69 12.29,15.43 41.22,25.57 23.55,8.25 44.27,10.26 70.27,7.07 15.87,-1.95 27.56,-7.69 41.48,-12.16 2.84,-3.57 3.85,-11.16 4.78,-16.49 -17.77,3.63 -38.59,29.24 -105.42,12.71 -27.13,-6.71 -67.09,-31.19 -58.29,-68.12 2.05,-8.58 9.51,-19.62 15.35,-24.73 12.2,-10.68 20.06,-14.65 36.07,-20.71 25,-9.46 61.62,-8.64 84.03,-1.45 12.45,4 34.94,13.78 41.3,23.25l14.47 0.58c-2.23,-6.02 -2.6,-7.3 -10.48,-13.46 -5.02,-3.92 -8.11,-6.25 -13.54,-9.83 -8.61,-5.69 -21.73,-10.62 -33.23,-13.52 -45.27,-11.39 -110.18,-1.62 -137.56,39.57 -12.01,18.07 -8.97,33.65 -8.86,61.27 0.03,8.32 -1.15,13.92 -1.14,23.35 0.02,15.58 0.08,31.19 -0.01,46.77 -0.04,6.15 1.65,37.84 3.41,43.34 1.39,4.31 5.45,11.42 8.19,15.19 33.04,45.45 112.58,51.66 157.99,29.79 18.24,-8.78 25.58,-16.27 30.16,-18.2z"/>
   <path class="fil1" d="M974.53 575.8l0 72.35c0,4.75 4.27,3.34 14.47,3.34 5.37,0 3.34,-9.8 3.34,-20.04 -0,-8.16 0,-16.33 0,-24.49 4.69,3.44 12.57,21.38 17.34,29.42 7.53,12.71 6.53,15.11 20.51,15.11 2.56,0 3.34,-0.77 3.34,-3.34l0 -72.35c0,-4.54 -3.49,-3.34 -12.24,-3.34 -5.4,0 -3.34,10.5 -3.34,21.15 0,8.53 0,17.07 0,25.6 -8.41,-6.16 -23.94,-46.75 -28.94,-46.75 -10.2,0 -14.47,-1.41 -14.47,3.34z"/>
   <path class="fil1" d="M1433.14 608.09l-15.58 0 0 -21.15c20.98,0 21.15,-1.05 21.15,15.58 0,2.6 -2.97,5.57 -5.57,5.57zm-31.17 -32.28l0 72.35c0,4.85 4.72,3.34 15.58,3.34l0 -28.94c16.42,0 9.06,-1.72 17.43,14.85 1.44,2.85 2.57,4.9 3.67,7.46 3.29,7.68 0.91,6.63 15.63,6.63 7.3,0 -0.88,-13.05 -2.37,-16.56 -1.41,-3.32 -2.64,-4.71 -4.32,-7.92 -1.53,-2.93 -2.89,-5.99 -4.44,-8.92 6.59,-3.49 8.34,-3.61 11.03,-11.24 2.25,-6.38 2.32,-12.09 0.01,-18.72 -6.51,-18.69 -28.02,-15.68 -48.89,-15.68 -2.56,0 -3.34,0.77 -3.34,3.34z"/>
   <path class="fil1" d="M1627.94 651.5l16.7 0 0 -33.39 25.6 0 0 30.06c0,4.85 4.72,3.34 15.58,3.34l0 -79.03c-19.98,0 -15.58,-5.68 -15.58,31.17l-25.6 0 0 -31.17 -16.7 0 0 79.03z"/>
   <path class="fil1" d="M1321.83 608.09c0,63.33 59,41.25 59,30.05l0 -26.72c0,-5.65 -10.22,-3.34 -25.6,-3.34 -4.75,0 -3.34,4.27 -3.34,14.47l13.36 0c0,9.87 2.07,14.47 -11.13,14.47 -6.47,0 -9.94,-2.54 -12.25,-6.67 -3.33,-5.95 -8.78,-43.42 11.14,-43.42 15.81,0 8.2,13.36 16.7,13.36l11.13 0c-0.87,-39.09 -59,-37 -59,7.79z"/>
   <path class="fil1" d="M1125.92 575.8l0 72.35c0,2.56 0.77,3.34 3.34,3.34l42.3 0c4.75,0 3.34,-4.27 3.34,-14.47l-31.17 0 0 -18.92 26.72 0c0,-18.3 4.79,-14.47 -26.72,-14.47l0 -16.7 31.17 0c0,-19.34 7.54,-14.47 -45.64,-14.47 -2.57,0 -3.34,0.77 -3.34,3.34z"/>
   <path class="fil1" d="M869.9 613.65c0,-36.5 28.94,-31.82 28.94,-7.79 0,9.49 0.98,23.66 -8.08,28.66 -7.49,4.14 -13.19,2.46 -17.21,-5.6 -1.91,-3.83 -3.65,-9.91 -3.65,-15.27zm12.24 -40.07c-7.31,1.68 -6.19,-0.54 -12.73,3.96 -12.59,8.66 -16.49,20.98 -14.3,37.53 1.09,8.25 0.25,18.05 7.8,26.71 11.47,13.14 36.75,12.77 46.14,-4.55 16.33,-30.09 -1.3,-69.56 -26.92,-63.65z"/>
   <path class="fil1" d="M1257.27 651.5l48.98 0 0 -14.47 -32.28 0 0 -18.92 26.72 0c0,-6.35 1.11,-7.7 1.11,-14.47l-27.83 0 0 -16.7 32.28 0 0 -14.47 -48.98 0 0 79.03z"/>
   <path class="fil1" d="M1503.27 596.95l4.31 11.27c1.27,3.54 3.12,9.03 4.59,12.1l-15.58 0c1.96,-8.42 4.72,-14.96 6.68,-23.38zm-32.28 54.54c25.09,0 12.51,0.75 21.15,-15.58l24.49 0c4.04,17.36 2.67,15.58 17.81,15.58 5.59,0 1,-7.55 -2.65,-18.5 -2.52,-7.55 -4.94,-13.67 -7.23,-20.6l-10.84 -31.46c-3.04,-9.7 -1.85,-8.47 -14.91,-8.47 -3.87,0 -3.75,4.43 -4.85,8.51 -1.12,4.14 -1.82,6.61 -3.07,10.29 -3.95,11.71 -19.71,51.15 -19.91,60.23z"/>
   <path class="fil1" d="M1578.97 610.31l-10.02 0 0 -23.38 11.13 0c8.3,0 12.24,4.12 12.24,12.24 0,7.93 -5.5,11.13 -13.36,11.13zm-25.6 -34.51l0 72.35c0,4.85 4.72,3.34 15.58,3.34l0 -26.72c20.49,0 40.07,-2.16 40.07,-26.72 0,-27.91 -30.01,-25.6 -52.32,-25.6 -2.56,0 -3.34,0.77 -3.34,3.34z"/>
   <path class="fil1" d="M778.62 605.86c0,57.79 38.65,48.45 50.29,38.04 3.82,-3.41 8.55,-13.29 8.71,-20.23l-16.7 0c-1.57,18.88 -26.72,20.58 -26.72,-11.13 0,-12.29 2.4,-25.6 14.47,-25.6 16.02,0 7.93,15.58 16.7,15.58l8.9 0c8.4,0 -1.9,-30.58 -25.51,-29.88 -17.46,0.52 -30.15,14.51 -30.15,33.22z"/>
   <path class="fil1" d="M1050.22 575.8l0 11.13 21.15 0 0 61.22c0,4.54 3.49,3.34 12.24,3.34 2.57,0 3.34,-0.77 3.34,-3.34l0 -61.22 22.26 0c0,-10.2 1.41,-14.47 -3.34,-14.47l-52.32 0c-2.56,0 -3.34,0.77 -3.34,3.34z"/>
   <path class="fil1" d="M1192.71 575.8l0 72.35c0,2.56 0.77,3.34 3.34,3.34l43.41 0 0 -14.47 -31.17 0 0 -64.56c-10.87,0 -15.58,-1.51 -15.58,3.34z"/>
   <path class="fil1" d="M936.68 651.5c10.87,0 15.58,1.51 15.58,-3.34l0 -72.35c0,-4.85 -4.72,-3.34 -15.58,-3.34l0 79.03z"/>
  </g>
 </g>
</svg>
