<?xml version="1.0" encoding="UTF-8"?>
<!DOCTYPE svg PUBLIC "-//W3C//DTD SVG 1.1//EN" "http://www.w3.org/Graphics/SVG/1.1/DTD/svg11.dtd">
<!-- Creator: CorelDRAW -->
<svg xmlns="http://www.w3.org/2000/svg" xml:space="preserve" width="1.55378in" height="1.20362in" version="1.1" style="shape-rendering:geometricPrecision; text-rendering:geometricPrecision; image-rendering:optimizeQuality; fill-rule:evenodd; clip-rule:evenodd"
viewBox="0 0 34.34 26.6"
 xmlns:xlink="http://www.w3.org/1999/xlink"
 xmlns:xodm="http://www.corel.com/coreldraw/odm/2003">
 <defs>
  <style type="text/css">
   <![CDATA[
    .fil2 {fill:#D6991F}
    .fil5 {fill:#E0FEFB}
    .fil0 {fill:#F0B400}
    .fil6 {fill:#F5F9F9}
    .fil1 {fill:#FFD13C}
    .fil4 {fill:#FFE17E}
    .fil3 {fill:#FFFFCE}
   ]]>
  </style>
 </defs>
 <g id="Layer_x0020_1">
  <metadata id="CorelCorpID_0Corel-Layer"/>
  <g id="_105553188126272">
   <path class="fil0" d="M17.15 14.63c2.05,0.14 2.91,2.47 1.69,4.4 0.26,0.18 9.01,0.06 10.2,0.07 0.2,0 0.51,0.05 0.67,-0.08 -0.47,-0.87 -0.83,-1.69 -0.33,-2.92 0.32,-0.78 0.99,-1.41 1.98,-1.48 0.33,0.03 0.58,0.06 0.86,0.19 0.31,0.15 0.45,0.33 0.71,0.45l1.34 -7.76c0.03,-0.19 0.06,-0.36 0.07,-0.51l0 -0.2c-0.01,-0.19 -0.07,-0.36 -0.19,-0.55 -0.22,-0.34 -0.47,-0.47 -1,-0.36l-2.05 0.74c-0.9,0.35 -2.53,0.7 -2.91,1.3 -0.38,0.61 0.08,2.18 -1.22,3.27 -0.53,0.44 -1.08,0.74 -2.07,0.62 -1.31,-0.17 -2.39,-1.66 -2.22,-3.51 0.08,-0.94 0.72,-1.48 0.15,-2.36l-2.72 -3.08c-0.52,-0.47 -0.9,-1 -1.36,-1.54 -0.42,-0.49 -0.92,-1.29 -1.56,-1.31l-0.02 14.63z"/>
   <path class="fil1" d="M1.41 15.29c0.37,-0.26 0.58,-0.5 1.1,-0.61 0.25,-0.17 0.29,-0.14 0.8,-0.01 0.72,0.17 1.22,0.55 1.58,1.29 0.74,1.49 -0.02,2.5 -0.3,3.15l10.93 -0.04c-0.5,-0.8 -0.88,-1.8 -0.37,-2.99 0.32,-0.75 1.01,-1.43 2,-1.46l0.02 -14.63c-0.27,0 -0.31,0.01 -0.49,0.13 -0.42,0.3 -1.61,1.9 -2.05,2.3 -0.53,0.49 -1.2,1.34 -1.7,1.92 -0.46,0.53 -0.96,0.94 -1.37,1.53 -0.91,1.28 1.09,2.4 -0.45,4.8 -0.32,0.5 -1.07,1.06 -1.72,1.12 -1.63,0.15 -2.87,-1.1 -3.01,-2.67 -0.1,-1.18 0,-1.39 -1.12,-1.82l-3.09 -1.09c-0.33,-0.12 -0.73,-0.28 -1.04,-0.36 -0.42,-0.11 -0.66,0 -0.92,0.33 -0.12,0.15 -0.19,0.3 -0.21,0.47l0 0.47c0.01,0.1 0.03,0.21 0.05,0.32 0.15,0.9 0.3,1.67 0.46,2.59 0.1,0.6 0.89,4.79 0.9,5.25z"/>
   <path class="fil0" d="M2.94 19.87c-0.43,-0.01 -0.65,-0.12 -1,-0.24 0,1.74 -0.21,4.51 0.47,5.62 0.99,1.61 1.93,1.33 4.16,1.33 3.53,0 7.06,0 10.59,0l-0.01 -6.71c-0.41,-0.02 -0.65,-0.07 -0.98,-0.27 -0.3,-0.17 -0.46,-0.42 -0.66,-0.53l-10.93 0.04c-0.55,0.36 -0.68,0.7 -1.64,0.76z"/>
   <path class="fil2" d="M17.16 19.87l0.01 6.71c3.53,0 7.06,0 10.6,0 2.21,0 3.17,0.25 4.16,-1.33 0.71,-1.13 0.47,-3.71 0.47,-5.62l-0.99 0.25c-0.79,-0.07 -1.32,-0.42 -1.69,-0.85 -0.16,0.12 -0.47,0.08 -0.67,0.08 -1.19,-0.01 -9.94,0.11 -10.2,-0.07 -0.14,0.11 -0.17,0.19 -0.31,0.3 -0.09,0.08 -0.25,0.2 -0.37,0.27 -0.32,0.19 -0.61,0.24 -1,0.27z"/>
   <path class="fil3" d="M29.71 19.03c0.37,0.43 0.9,0.78 1.69,0.85 0,-1.08 0.12,-4.43 -0.04,-5.25 -0.99,0.07 -1.67,0.7 -1.98,1.48 -0.5,1.23 -0.14,2.05 0.33,2.92z"/>
   <path class="fil3" d="M1.41 15.29c-1.01,1.03 -1.19,3.14 0.54,4.34 0.35,0.12 0.56,0.22 1,0.24l0 -5.21 -0.44 0.02c-0.52,0.11 -0.73,0.34 -1.1,0.61z"/>
   <path class="fil4" d="M17.16 19.87c0.39,-0.03 0.69,-0.08 1,-0.27 0.13,-0.07 0.28,-0.19 0.37,-0.27 0.13,-0.11 0.16,-0.19 0.31,-0.3 1.22,-1.93 0.36,-4.26 -1.69,-4.4l0.01 5.24z"/>
   <path class="fil4" d="M2.94 19.87c0.96,-0.05 1.09,-0.4 1.64,-0.76 0.29,-0.65 1.04,-1.66 0.3,-3.15 -0.36,-0.74 -0.86,-1.12 -1.58,-1.29 -0.51,-0.12 -0.55,-0.16 -0.8,0.01l0.44 -0.02 0 5.21z"/>
   <path class="fil3" d="M15.52 19.07c0.2,0.12 0.36,0.36 0.66,0.53 0.33,0.19 0.57,0.24 0.98,0.27l-0.01 -5.24c-0.99,0.03 -1.69,0.71 -2,1.46 -0.5,1.19 -0.13,2.18 0.37,2.99z"/>
   <path class="fil4" d="M31.4 19.88l0.99 -0.25c0.65,-0.46 1.05,-0.91 1.24,-1.93 0.21,-1.14 -0.31,-1.87 -0.7,-2.44 -0.26,-0.12 -0.39,-0.3 -0.71,-0.45 -0.28,-0.13 -0.54,-0.16 -0.86,-0.19 0.16,0.82 0.04,4.17 0.04,5.25z"/>
   <path class="fil5" d="M19.9 22.08c-0.46,0.18 -0.67,0.89 -0.29,1.34 0.23,0.27 1.23,0.31 1.63,0.17 0.46,-0.17 0.61,-0.91 0.23,-1.32 -0.28,-0.3 -1.16,-0.34 -1.57,-0.18z"/>
   <path class="fil6" d="M13.13 22.09c-0.46,0.19 -0.67,0.88 -0.29,1.33 0.25,0.29 1.2,0.32 1.63,0.18 0.46,-0.15 0.62,-0.93 0.23,-1.34 -0.25,-0.26 -1.2,-0.32 -1.57,-0.17z"/>
   <path class="fil6" d="M6.36 22.09c-0.48,0.18 -0.65,0.94 -0.25,1.35 0.25,0.26 1.25,0.3 1.63,0.13 0.48,-0.21 0.52,-0.96 0.19,-1.32 -0.25,-0.27 -1.2,-0.3 -1.58,-0.16z"/>
   <path class="fil5" d="M26.64 22.11c-0.64,0.29 -0.51,1.04 -0.26,1.31 0.25,0.28 1.23,0.32 1.63,0.16 0.48,-0.18 0.56,-0.97 0.2,-1.35 -0.25,-0.27 -1.23,-0.28 -1.57,-0.13z"/>
  </g>
 </g>
</svg>
