<?xml version="1.0" encoding="UTF-8"?>
<!DOCTYPE svg PUBLIC "-//W3C//DTD SVG 1.1//EN" "http://www.w3.org/Graphics/SVG/1.1/DTD/svg11.dtd">
<!-- Creator: CorelDRAW X7 -->
<svg xmlns="http://www.w3.org/2000/svg" xml:space="preserve" width="10.4797in" height="2.875in" version="1.1" style="shape-rendering:geometricPrecision; text-rendering:geometricPrecision; image-rendering:optimizeQuality; fill-rule:evenodd; clip-rule:evenodd"
viewBox="0 0 10480 2875"
 xmlns:xlink="http://www.w3.org/1999/xlink">
 <defs>
  <style type="text/css">
   <![CDATA[
    .fil0 {fill:black}
   ]]>
  </style>
 </defs>
 <g id="Layer_x0020_1">
  <metadata id="CorelCorpID_0Corel-Layer"/>
  <g id="_312604512">
   <path class="fil0" d="M4739 2274c26,56 93,133 148,163 72,39 441,97 507,7 -84,0 -276,-7 -331,-70 114,1 192,38 192,-110 -35,9 -37,12 -69,30l-14 5c-90,-7 -130,-72 -76,-138 35,-45 126,-48 200,-47 408,6 319,274 390,303 19,-40 25,-93 36,-137 192,220 81,394 5,526 370,-266 112,-810 -305,-1028 -153,-89 -400,-195 -584,-195 23,84 318,121 417,305l-347 -55c80,38 109,71 151,91l-182 59c-59,-132 -125,-177 -275,-177 292,215 -225,558 -438,270 46,-7 193,1 286,-92 -114,3 -240,5 -345,-29 -78,-25 -192,-105 -144,-213 26,26 129,158 199,160 67,2 16,11 41,-13 -115,-163 -151,-286 141,-372l200 -31 -65 52c58,41 281,-16 339,-33 323,-91 465,-332 524,-279 32,29 40,144 40,413 274,-549 73,-722 -23,-931l18 -3c16,17 -5,4 34,29 32,21 200,25 416,308 0,-279 -244,-326 -352,-461 71,-16 205,-34 310,-95 -144,-3 -295,-12 -441,-16 91,-59 444,-116 594,-151 -460,-48 -740,4 -861,55 -2,-2 -2,-6 -3,-7l-11 -43c-106,7 -233,36 -312,91l-9 -19c63,-42 102,-67 188,-87 -16,-13 -60,-22 -83,-28 54,-85 256,-173 285,-281 -246,5 -517,280 -680,405 -86,-27 -106,-40 -209,-28 -39,6 -65,17 -91,45 -24,25 -40,57 -47,92 38,49 93,-102 208,-21 -19,66 4,10 -57,62 -81,69 -42,82 -207,125l-7 1c0,22 5,16 -19,16l-11 40c-8,10 -24,26 -38,38 -96,30 -224,45 -272,142 0,170 48,155 180,152l9 0c67,-62 104,-144 240,-136 78,5 276,51 335,14 142,-42 88,-106 138,-178 68,27 93,99 125,162l0 11c46,-24 4,-137 -9,-176l33 32 40 33c2,-55 -24,-102 -39,-144 258,94 183,248 8,333 -54,4 -100,34 -159,49 -59,14 -121,20 -181,24 -237,16 -632,-140 -286,115 -45,20 -115,26 -168,44 -573,188 -500,901 -364,956l1 -27c11,-58 15,-106 47,-144 140,482 -10,532 -34,671 186,-49 251,-293 295,-452 15,8 230,209 392,186 -47,-15 -63,-32 -89,-77 474,124 606,326 704,510 0,-201 -17,-288 -163,-430 -39,-37 -89,-69 -137,-112 36,-23 69,-21 121,-59zm-534 -1554c69,-35 102,-73 208,-97 -13,18 -5,10 -22,26 -78,78 -103,96 -182,82l-4 -11z"/>
   <path class="fil0" d="M9933 1172l-193 -12 2 784 183 0 0 -459c40,26 134,178 172,229 60,81 125,167 178,244l8 -7 139 0 41 7 -6 -41 0 -723 6 -41 -27 4 -153 0 -11 -4 -4 471c-37,-29 -134,-175 -172,-228 -46,-64 -109,-165 -163,-224z"/>
   <path class="fil0" d="M8325 1490l-12 -4 -5 184 238 0c-43,155 -366,177 -390,-87 -10,-111 44,-197 115,-233 132,-66 212,1 276,59 51,-28 69,-54 111,-73l14 -3 27 -16c-9,-34 2,-9 -13,-39l-14 -14 -14 -5c-387,-305 -846,82 -648,486 180,369 796,257 751,-251l-436 -4z"/>
   <path class="fil0" d="M9191 1330c273,-58 358,386 89,447 -297,67 -382,-385 -89,-447zm429 337c70,-251 -92,-450 -277,-504 -531,-156 -735,639 -229,783 250,72 455,-100 506,-279z"/>
   <path class="fil0" d="M189 1629c112,-4 185,-20 189,97 -64,57 -85,48 -190,45l1 -142zm1 -291c74,-2 118,-15 145,51 -21,74 -64,60 -150,59l5 -110zm145 603c122,1 197,-68 225,-164 38,-133 -34,-183 -96,-249 30,-70 94,-119 43,-238 -26,-59 -98,-118 -183,-121l-324 -6 3 778 332 0z"/>
   <path class="fil0" d="M5984 1771l-5 -433c182,-6 303,30 301,218 -1,191 -116,220 -296,215zm154 168c187,2 332,-184 333,-383 0,-111 -42,-201 -90,-266 -34,-45 -141,-121 -235,-122l-354 -5 3 778 343 -2z"/>
   <path class="fil0" d="M6731 1337c108,-1 236,-19 233,107 -3,122 -122,101 -238,100l5 -207zm-5 601l3 -214c105,-1 89,-10 154,107 30,53 46,67 62,119 38,1 78,2 117,3 114,0 86,-3 99,-28 -34,-29 -130,-201 -146,-250 88,-33 162,-146 134,-292 -21,-105 -116,-211 -232,-211 -121,-7 -251,-6 -372,-7l-5 774 186 -1z"/>
   <path class="fil0" d="M2733 1181l0 750 -6 27 42 -7 111 0 36 7c9,-263 -17,-223 76,-302 22,35 189,286 221,295 70,20 178,-8 178,-8l23 -12 -6 -9 -149 -203c-44,-65 -114,-155 -143,-223 80,-65 186,-229 250,-268l14 -6 14 -14 14 -14c11,-20 7,-14 14,-41l-70 4c-174,0 -175,-15 -260,96l-168 184 -6 -284 -10 4 -153 0 -28 -4 6 28z"/>
   <path class="fil0" d="M1649 1415l69 208 -152 -1 83 -207zm-125 -232l-269 734 -2 14c42,36 138,21 198,19 13,-50 23,-118 68,-148l251 0c43,29 57,100 67,148 33,1 67,2 100,2 7,0 48,-1 54,-2 41,-8 20,2 44,-19l-2 -14 -269 -734 -15 -30 -8 4 -194 0 -8 -4 -15 30z"/>
   <path class="fil0" d="M7585 1414l83 208 -153 0 70 -208zm-179 521l40 -133 292 3 59 143c29,3 86,7 113,5 66,-3 79,18 68,-36l-1 -13 -265 -723 1 -11c-53,-22 -162,-16 -236,-8l1 5 -277 783c36,1 75,2 111,2 54,0 61,7 94,-17z"/>
   <path class="fil0" d="M2630 1704l-14 4 -8 14c-31,31 -72,49 -118,56 -149,25 -291,-62 -284,-237 9,-222 303,-280 405,-152l5 14 14 1c12,-18 6,1 12,-31l3 -156c-134,-69 -268,-112 -429,-20 -106,61 -201,180 -201,359 1,180 92,287 195,350 181,110 288,44 435,-14 0,-33 1,-68 0,-101l-15 -87z"/>
   <path class="fil0" d="M1170 1786c-89,-2 -250,20 -328,-16l4 -606 -189 3 0 784 515 0 -2 -165z"/>
   <polygon class="fil0" points="10463,1958 10463,1972 10480,1961 "/>
   <polygon class="fil0" points="2727,1958 2713,1958 "/>
   <polygon class="fil0" points="1241,1958 1227,1958 "/>
  </g>
 </g>
</svg>
