<?xml version="1.0" encoding="UTF-8"?>
<!DOCTYPE svg PUBLIC "-//W3C//DTD SVG 1.0//EN" "http://www.w3.org/TR/2001/REC-SVG-20010904/DTD/svg10.dtd">
<!-- Creator: CorelDRAW X7 -->
<svg xmlns="http://www.w3.org/2000/svg" xml:space="preserve" width="7.13334in" height="2.18333in" version="1.0" style="shape-rendering:geometricPrecision; text-rendering:geometricPrecision; image-rendering:optimizeQuality; fill-rule:evenodd; clip-rule:evenodd"
viewBox="0 0 7133 2183"
 xmlns:xlink="http://www.w3.org/1999/xlink">
 <defs>
  <style type="text/css">
   <![CDATA[
    .fil0 {fill:black}
   ]]>
  </style>
 </defs>
 <g id="Layer_x0020_1">
  <metadata id="CorelCorpID_0Corel-Layer"/>
  <g id="_293450744">
   <path class="fil0" d="M1567 533l0 384c0,13 93,54 93,140 0,58 -2,81 -46,130l-141 153c-11,15 -24,23 -35,38 -11,12 -21,32 -41,32 -19,0 -27,-12 -27,-30 0,-11 114,-127 127,-143 7,-7 8,-10 15,-18 45,-46 98,-90 98,-149 0,-79 -100,-142 -172,-92 -20,14 -56,59 -76,78 -9,9 -10,12 -18,21 -7,8 -12,13 -20,20 -8,9 -10,11 -17,20l-316 344c-17,16 -21,23 -30,47 -43,115 -24,224 20,331 12,28 66,132 92,151 14,-9 180,-178 196,-194 67,-67 130,-130 197,-197 66,-66 129,-129 195,-195 33,-33 64,-65 98,-98 31,-30 58,-80 58,-139l0 -640c0,-71 -52,-127 -130,-127 -68,0 -120,64 -120,133z"/>
   <path class="fil0" d="M0 513l0 674c0,44 31,96 62,127 34,33 64,64 97,97l387 387c16,16 180,183 194,192 25,-17 75,-110 90,-143 51,-115 78,-287 -11,-393 -35,-41 -157,-163 -184,-199 -13,-16 -24,-24 -35,-38l-127 -140c-8,-7 -14,-12 -20,-20 -16,-17 -60,-69 -75,-78 -92,-64 -215,46 -160,146 15,25 229,248 229,255 0,15 -14,30 -27,30 -24,0 -55,-47 -79,-71 -7,-7 -12,-11 -18,-19 -7,-8 -9,-11 -17,-19 -33,-33 -79,-89 -109,-118 -53,-54 -58,-141 -14,-203 32,-44 64,-47 64,-60l0 -400c0,-61 -54,-120 -130,-120 -59,0 -117,56 -117,113z"/>
   <path class="fil0" d="M2523 807l-200 0 0 -217 204 0c148,0 146,217 -4,217zm-50 -357l-150 0 0 -213 160 0c47,0 94,52 92,109 -1,56 -43,104 -102,104zm-300 503l380 0c34,0 71,-15 94,-26 27,-14 50,-31 71,-53 77,-80 90,-202 33,-302 -14,-24 -57,-71 -84,-79 3,-14 26,-32 37,-59 30,-67 24,-140 -5,-206 -36,-78 -132,-141 -219,-141l-307 0 0 866z"/>
   <path class="fil0" d="M4823 953l150 0 0 -356 310 0 0 356 150 0 0 -866 -140 0c-7,0 -10,2 -10,10l0 350 -310 0 0 -350c0,-8 -2,-10 -10,-10l-140 0 0 866z"/>
   <path class="fil0" d="M3907 670c0,-88 69,-163 143,-163 54,0 88,2 131,45 55,56 61,150 18,213 -4,6 -6,7 -9,11 -46,58 -126,72 -192,43 -53,-24 -91,-86 -91,-149zm316 -223c-10,-8 -16,-16 -26,-24 -165,-132 -440,-2 -440,247 0,74 32,158 82,208 14,14 23,21 39,34 11,9 33,22 45,28 110,49 231,31 307,-57 0,28 1,48 3,70l137 0 0 -866 -147 0 0 360z"/>
   <path class="fil0" d="M6373 670c0,-88 69,-163 144,-163 54,0 87,2 131,45 76,78 56,219 -46,267 -43,20 -94,19 -137,0 -53,-24 -92,-86 -92,-149zm317 -223c-16,-11 -14,-19 -58,-46 -109,-65 -283,-23 -361,104 -15,25 -23,42 -33,73 -33,101 -6,227 68,300 57,56 117,89 204,89 85,0 147,-38 187,-84 0,28 1,48 3,70l137 0 0 -866 -147 0 0 360z"/>
   <path class="fil0" d="M3793 1640c0,-141 170,-212 273,-116 51,48 59,122 33,185 -62,148 -306,108 -306,-69zm10 -227l0 -56 -150 0 0 826 150 0 0 -316c16,10 30,31 75,49 71,28 151,28 221,-7 61,-31 112,-84 139,-148 104,-246 -137,-494 -358,-398 -56,25 -51,33 -77,50z"/>
   <path class="fil0" d="M2143 1487c0,92 31,192 81,259l52 62c124,118 311,164 476,98 16,-6 31,-16 45,-19l0 -187c-26,17 -58,58 -126,75 -104,26 -216,-2 -288,-74 -44,-44 -86,-116 -86,-184 0,-87 4,-128 55,-202 9,-12 21,-28 32,-38 101,-92 263,-111 374,-28 7,6 12,9 19,14 8,6 12,12 20,17l0 -187c-18,-4 -33,-14 -50,-20 -17,-6 -35,-12 -56,-17l-95 -13c-15,0 -16,3 -33,4 -95,2 -173,41 -236,84 -28,19 -23,20 -40,33 -87,69 -144,206 -144,323z"/>
   <path class="fil0" d="M3040 1637c0,-84 73,-157 143,-157 57,0 90,3 135,49 82,86 46,271 -128,271 -42,0 -87,-28 -107,-50 -23,-27 -43,-63 -43,-113zm-150 3c0,262 314,396 473,213 0,28 2,48 4,70l136 0 0 -566 -146 0 0 60c-11,-8 -16,-16 -26,-24 -33,-26 -67,-41 -113,-48 -180,-29 -328,122 -328,295z"/>
   <path class="fil0" d="M5177 1637c0,-43 20,-85 42,-108 96,-100 278,-44 278,114 0,83 -71,157 -154,157 -51,0 -94,-17 -123,-50 -24,-27 -43,-63 -43,-113zm-150 3c0,110 65,221 162,268 108,53 235,32 311,-55 0,28 1,48 3,70l137 0 0 -566 -147 0 0 60c-10,-8 -16,-16 -26,-24 -8,-7 -22,-16 -32,-22 -20,-12 -52,-21 -80,-26 -181,-29 -328,122 -328,295z"/>
   <path class="fil0" d="M1517 210l46 47 -572 571c-20,20 -65,69 -84,82 -13,-8 -61,-68 -75,-82l-222 -255c-13,4 -57,47 -72,58l-140 120c-14,12 -59,56 -71,59 0,12 -2,25 2,34 6,11 41,42 54,63 16,-5 84,-69 107,-87l107 -90c9,6 13,11 20,20 7,9 11,12 19,21l264 302c16,-10 388,-386 416,-414 16,-16 31,-28 48,-45 25,-25 264,-267 279,-277l46 44 71 -244 -121 35c-22,7 -40,13 -61,19l-61 19z"/>
   <path class="fil0" d="M5867 827c-60,0 -86,-4 -131,-49 -85,-85 -40,-265 121,-265 137,0 198,171 112,263 -22,23 -59,51 -102,51zm-317 -157c0,64 21,122 54,169 12,18 20,27 35,42 132,133 385,116 485,-83 57,-112 30,-248 -60,-339 -117,-118 -315,-110 -425,0 -55,56 -89,128 -89,211z"/>
   <path class="fil0" d="M2867 743c0,37 8,72 20,97 13,30 26,46 49,68 88,85 328,88 400,-56 12,-24 24,-54 24,-89l0 -376 -147 0 0 340c0,155 -196,134 -196,20l0 -360 -150 0 0 356z"/>
   <path class="fil0" d="M4730 1160l0 197 -110 0 0 120 110 0 0 446 150 0 0 -446 110 0 0 -120 -110 0 0 -197c0,-8 -2,-10 -10,-10l-130 0c-8,0 -10,2 -10,10z"/>
   <path class="fil0" d="M937 843l182 -181c11,-10 61,-49 61,-62l0 -420 -243 0 0 663z"/>
   <path class="fil0" d="M6983 953l150 0 0 -856c0,-8 -2,-10 -10,-10l-140 0 0 866z"/>
   <path class="fil0" d="M4517 953l150 0 0 -856c0,-8 -3,-10 -10,-10l-140 0 0 866z"/>
   <path class="fil0" d="M5790 1923l150 0 0 -856c0,-8 -2,-10 -10,-10l-140 0 0 866z"/>
   <path class="fil0" d="M1240 10l0 520c0,22 21,-6 28,-12l186 -187c7,-7 29,-24 29,-34l0 -297 -233 0c-8,0 -10,2 -10,10z"/>
   <path class="fil0" d="M877 1437l0 -324c0,-31 3,-23 -12,-41l-127 -146c-10,-11 -15,-18 -26,-28l-26 -31c-14,-15 -38,-47 -53,-57l0 323c0,60 2,46 33,78l156 170c15,20 27,27 39,42 9,11 2,10 16,14z"/>
   <path class="fil0" d="M937 1440c19,-13 33,-36 50,-53 6,-4 9,-8 14,-13l165 -182c16,-16 14,-8 14,-39l0 -320 -239 238c-8,12 -4,136 -4,156 0,71 0,142 0,213z"/>
   <polygon class="fil0" points="3497,953 3647,953 3647,387 3497,387 "/>
   <polygon class="fil0" points="4373,1923 4523,1923 4523,1357 4373,1357 "/>
   <path class="fil0" d="M1240 1107c13,-4 56,-55 68,-69l26 -27c6,-7 7,-10 13,-17 35,-37 75,-84 136,-84l0 -380c-16,11 -201,201 -231,229 -15,14 -12,10 -12,38l0 310z"/>
   <path class="fil0" d="M633 557c0,10 50,59 59,71l151 173c11,11 18,28 34,32l0 -406c0,-16 6,-50 -10,-50l-234 0 0 180z"/>
   <path class="fil0" d="M327 777c11,-3 7,-4 16,-11 50,-40 123,-109 168,-145 11,-8 59,-44 59,-54l0 -44 -243 0 0 254z"/>
   <path class="fil0" d="M400 933c33,9 148,162 170,170l0 -316c-12,3 -12,7 -21,15 -25,22 -137,114 -149,131z"/>
   <path class="fil0" d="M3577 117c-57,0 -93,41 -93,86 0,102 165,121 175,3 4,-45 -38,-89 -82,-89z"/>
   <path class="fil0" d="M4453 1087c-56,0 -92,41 -92,86 0,25 13,46 26,60 79,79 202,-39 126,-119 -12,-13 -36,-27 -60,-27z"/>
  </g>
 </g>
</svg>
