<?xml version="1.0" encoding="UTF-8"?>
<!DOCTYPE svg PUBLIC "-//W3C//DTD SVG 1.0//EN" "http://www.w3.org/TR/2001/REC-SVG-20010904/DTD/svg10.dtd">
<!-- Creator: CorelDRAW X7 -->
<svg xmlns="http://www.w3.org/2000/svg" xml:space="preserve" width="9.22354in" height="2.73858in" version="1.0" style="shape-rendering:geometricPrecision; text-rendering:geometricPrecision; image-rendering:optimizeQuality; fill-rule:evenodd; clip-rule:evenodd"
viewBox="0 0 9224 2739"
 xmlns:xlink="http://www.w3.org/1999/xlink">
 <defs>
  <style type="text/css">
   <![CDATA[
    .fil0 {fill:black}
   ]]>
  </style>
 </defs>
 <g id="Layer_x0020_1">
  <metadata id="CorelCorpID_0Corel-Layer"/>
  <g id="_351857888">
   <path class="fil0" d="M875 744c35,-49 119,-90 180,-118 39,-18 64,-30 108,-41 34,-9 82,-14 121,-25 33,66 53,167 83,230 10,-11 4,-2 12,-17l35 -96c12,-33 34,-82 39,-119 86,1 182,32 248,60 78,32 121,69 190,108l-109 221c35,1 87,-30 117,-46 47,-24 76,-35 113,-54 60,94 48,49 118,189 22,44 69,173 68,239 -33,3 -211,61 -232,85 64,29 159,53 232,82 -2,80 -35,193 -63,254 -56,124 -66,111 -114,194 -38,-9 -121,-57 -171,-80 -28,-12 -29,-16 -52,-22 3,33 80,183 101,221 -111,75 -255,175 -446,170 -9,-39 -24,-80 -39,-120 -13,-34 -24,-84 -45,-111 -24,37 -61,174 -83,231 -143,0 -339,-105 -411,-177 8,-31 38,-85 53,-116 12,-23 44,-86 47,-105 -57,3 -162,82 -232,98 -71,-102 -165,-258 -165,-427 6,-28 149,-66 177,-74 27,-9 35,-9 54,-28 -32,-20 -187,-63 -231,-84 9,-129 82,-299 171,-396 77,27 179,93 229,97 -25,-45 -91,-169 -103,-223zm1296 1349l-67 -73c19,-33 27,-37 50,-63 103,-118 193,-371 193,-551l131 0 0 130c32,-17 285,-157 307,-186 -101,-60 -211,-127 -307,-177l0 130 -131 0c0,-115 -48,-256 -84,-335 -59,-133 -106,-166 -166,-252 16,-26 43,-51 68,-70 35,26 55,64 99,84l85 -346 -346 90c26,39 60,59 84,93 -10,33 -41,58 -66,75 -42,-28 -77,-61 -124,-90 -139,-88 -302,-138 -480,-144 -6,-160 -4,-97 136,-113 -33,-53 -150,-273 -184,-295 -23,19 -174,268 -173,299l127 5 0 105c-188,0 -467,125 -596,251 -15,-33 -54,-53 -75,-83 15,-47 62,-54 74,-100l-328 -81 31 171c14,49 24,132 46,167 32,-19 62,-60 95,-85l91 85c-111,127 -231,334 -233,569l-130 0 3 -126c-23,5 -21,4 -46,17l-188 111c-68,41 -55,20 -67,54 17,20 259,163 298,177l0 -130 122 0c25,144 23,218 74,335 77,178 114,185 150,252 -22,29 -54,62 -88,86l-90 -85c-19,28 -88,286 -96,344 18,-1 312,-67 347,-94 -23,-30 -62,-58 -84,-93 17,-23 62,-67 84,-84 40,27 74,67 123,100 124,81 238,131 386,155 101,17 99,-14 96,117l-130 0c11,35 153,280 177,300 33,-24 150,-244 184,-298l-136 -5 -1 -99c114,-3 261,-41 349,-80 154,-66 148,-87 256,-160 32,10 43,36 84,63 -16,36 -69,73 -90,100 23,17 322,93 347,92 -10,-52 -29,-113 -45,-170 -17,-62 -23,-119 -44,-171 -30,10 -30,19 -52,41 -21,22 -26,30 -50,41z"/>
   <path class="fil0" d="M7752 1459c-7,42 -135,288 -170,356 -71,134 -101,107 -163,-13 -34,-67 -157,-299 -162,-344l495 1zm-472 -181c-6,-28 85,-195 99,-224 69,-144 66,-177 159,-170 23,35 192,365 189,397l-447 -3zm447 -418c-108,-219 -311,-178 -397,-79 -49,57 -75,137 -111,206 -36,69 -69,136 -102,205 -20,42 -19,84 -66,90 -55,7 -82,-4 -111,41 -24,38 -21,79 12,108 32,28 68,24 119,29 17,103 116,272 164,368 55,113 100,250 273,249 172,-2 208,-136 270,-261l168 -357c44,-3 84,5 114,-14 70,-42 49,-138 -14,-157 -33,-10 -77,-4 -114,-9l-205 -419z"/>
   <path class="fil0" d="M4687 1480l523 -2 0 487c0,156 174,141 174,9l0 -1137c0,-104 -17,-138 -124,-129 -58,73 -50,38 -50,185l-1 410 -522 -1c-44,-230 82,-666 -128,-590 -82,29 -53,215 -53,312l0 726c0,100 -28,280 49,317 52,25 103,-8 119,-39 24,-44 14,-484 13,-548z"/>
   <path class="fil0" d="M9044 1898c-57,4 -449,8 -480,-2 -68,-22 -18,-109 -104,-138 -119,-40 -179,132 -21,272 54,49 117,47 205,47 109,0 399,18 474,-20 49,-24 93,-77 103,-140 20,-120 -90,-220 -168,-323 -149,-194 -352,-436 -488,-621 -18,-25 -44,-42 -38,-86 41,-7 451,-8 478,0 60,19 35,117 101,140 128,45 174,-158 22,-273 -62,-46 -107,-50 -204,-50 -108,1 -400,-20 -474,23 -129,75 -136,220 -43,329l434 553c51,69 201,234 203,289z"/>
   <path class="fil0" d="M6088 1602c7,-54 124,-450 144,-473 15,21 131,421 139,472l-283 1zm-55 175l391 2c56,137 51,283 136,295 199,28 43,-300 -15,-516l-196 -680c-32,-114 -29,-178 -126,-172 -88,6 -91,107 -113,178l-199 676c-59,195 -209,529 -25,516 89,-6 103,-164 147,-299z"/>
   <path class="fil0" d="M4107 828c25,-55 -9,-106 -48,-118 -32,-10 -144,-6 -184,-6 -327,0 -318,-4 -468,271 -215,397 -234,382 -24,792 131,256 139,310 418,310 98,0 286,34 308,-68 28,-134 -152,-109 -253,-109 -185,0 -190,32 -262,-110 -228,-449 -240,-354 -13,-762 95,-172 8,-145 406,-146 66,0 98,-3 120,-54z"/>
  </g>
 </g>
</svg>
