<?xml version="1.0" encoding="UTF-8"?>
<!DOCTYPE svg PUBLIC "-//W3C//DTD SVG 1.1//EN" "http://www.w3.org/Graphics/SVG/1.1/DTD/svg11.dtd">
<!-- Creator: CorelDRAW 2019 (64-Bit) -->
<svg xmlns="http://www.w3.org/2000/svg" xml:space="preserve" width="12.4519in" height="3.26667in" version="1.1" style="shape-rendering:geometricPrecision; text-rendering:geometricPrecision; image-rendering:optimizeQuality; fill-rule:evenodd; clip-rule:evenodd"
viewBox="0 0 3695.94 969.61"
 xmlns:xlink="http://www.w3.org/1999/xlink">
 <defs>
  <style type="text/css">
   <![CDATA[
    .fil3 {fill:none}
    .fil1 {fill:#2B2B2B}
    .fil0 {fill:#F9BE2C}
    .fil2 {fill:#FABF2C}
   ]]>
  </style>
   <clipPath id="id0">
    <path d="M-0 0l3695.94 0 0 969.61 -3695.94 0 0 -969.61z"/>
   </clipPath>
 </defs>
 <g id="Layer_x0020_1">
  <metadata id="CorelCorpID_0Corel-Layer"/>
  <g>
  </g>
  <g style="clip-path:url(#id0)">
   <g>
    <path class="fil0" d="M812.68 445.17l0 0zm0 0c-14.39,27.2 -36.42,56.7 -53.59,82.45l-163.41 244.72c-5.76,7.5 -2.19,2.82 -5.61,6.76 0.4,-17.97 8.22,-47.28 11.34,-62.87 4.65,-23.23 8.42,-43.55 13.4,-64.93 -15.34,1.28 -67.05,26.06 -82.56,32.86l-82.34 33.09 69.25 -289.41c5.21,-20.57 21.45,-84.04 21.45,-102.22l-189.63 0c2.52,-30.23 29.94,-107.73 32.98,-144.29l556.53 0c-8.89,18.52 -26.14,121.45 -37.1,144.29l-193.76 0c-4.38,18.78 -11.8,32.72 -19.47,50.61 -7.36,17.18 -14.8,33.39 -21.16,48.92 -7.13,17.41 -13.87,31.74 -21.32,48.76 -5.58,12.74 -17.38,36.2 -20.5,49.58 25.68,-5.98 164.88,-73.52 185.51,-78.33zm-310.36 -78.33l-11.22 45.35c-6.59,28.62 -17.65,60.31 -21.76,90.7 -2.17,13.82 -3.52,26.62 -11.19,36.29 -0.5,24.27 -15.2,69.67 -20.3,95.63l-8.58 37.1c-5.91,12.4 -18.62,68.51 -21.15,86.57 2.34,11.22 -2.12,3.87 4.7,9.5l155.97 -66.32 -3.48 11.48c-1.38,17.07 -8.78,39.33 -13.18,56.88l-40.39 169.85c15.63,-11.45 123.58,-175.33 149.04,-209.62l196.48 -281.73c17.3,-25.55 33.44,-48.34 50.24,-73.43l-161.36 65.37c-14.51,5.78 -43.14,20.04 -57.13,21.2 6.39,-27.41 34.99,-81.8 37.1,-107.18l202 0c4.71,-9.82 49.16,-192.38 49.47,-206.12l-399.88 1.51 -37.1 -1.53 -177.27 0.02c-6.18,12.87 -49.07,187.96 -49.47,206.12l189.63 0 -1.17 12.37z"/>
    <path class="fil1" d="M565.31 713.13l3.48 -11.48 -155.97 66.32c-6.82,-5.63 -2.36,1.72 -4.7,-9.5 -38.41,0.9 -48.95,13.69 -127.38,8.4 -68.43,-4.61 -163.48,-37.61 -202.57,-86.01 -25.28,-31.29 -36.39,-56.03 -36.39,-112.02 32.35,21.66 48.94,66.66 154.83,96.64 39.86,11.28 63.32,14.73 113.13,14.67 19.26,-0.02 42.94,1.24 61.65,-0.19 19.62,-1.51 36.24,-8.06 57.88,-8.06l8.58 -37.1c-18.53,1.49 -42.52,9.22 -62.86,11.66 -25.19,3.01 -45.05,5.88 -73.62,4.97 -40.65,-1.28 -95.41,-13.47 -126.54,-26 -40.6,-16.34 -64.9,-30.55 -92.94,-59.59 -27.24,-28.2 -40.1,-58.06 -40.1,-112.43 41.07,47.25 101.05,85.67 176.11,100.09 65.59,12.6 190.09,15.43 240.25,-14.33 7.67,-9.67 9.02,-22.47 11.19,-36.29 -37.94,10.23 -63.76,28.92 -130.6,29 -96.3,0.11 -182.17,-13.4 -249.71,-76.25 -35.93,-33.43 -47.25,-68.29 -47.25,-117.65 41.91,28.06 53.54,72.22 192.8,104.02 58.85,13.43 139.26,9.26 198.36,-9.67 19.07,-6.11 38.52,-15.55 58.16,-20.14l11.22 -45.35c-13.3,4.13 -61.89,37.9 -131.84,48.38 -161.88,24.25 -356.93,-71.01 -324.46,-200.76 20.44,-81.66 125.11,-133.81 218.66,-144.14 90.98,-10.05 148.38,1.48 223.76,39.49 15.57,7.85 43.63,26.93 52.15,38.52l37.1 1.53c-3.48,-15.4 -9.64,-19.37 -27.85,-35.5 -137.75,-122.04 -428.07,-96.52 -514.68,48 -22.36,37.3 -22.29,49.06 -22.25,105.54 0.05,81.79 -8.69,342.04 9.51,382.13 56.57,124.6 226.97,165.27 364.49,144.41 34.53,-5.24 68.28,-15.72 97.37,-30.43 34.79,-17.59 32.78,-13.57 61.68,-37.26 7.1,-5.83 12.57,-9.06 19.34,-13.61z"/>
    <path class="fil0" d="M1628.93 618.31l45.35 0 0 -127.8c27.5,31.64 62.52,127.8 82.45,127.8l32.98 0 0 -214.37 -41.22 0 0 131.92c-8.83,-6.47 -71,-118.18 -74.2,-131.92l-45.35 0 0 214.37z"/>
    <path class="fil0" d="M2890.41 502.89l-32.98 0 0 -61.84c39.31,0 61.84,-5.9 61.84,32.98 0,19.25 -9.61,28.86 -28.86,28.86zm-74.2 115.43l41.22 0 0 -78.33 32.98 0c6.88,29.55 26.77,51.65 32.98,78.33l45.35 0c-1.59,-19.16 -31.89,-73.06 -41.22,-90.69 53.71,-14.34 50.32,-123.67 -28.86,-123.67l-82.45 0 0 214.37z"/>
    <polygon class="fil0" points="3442.82,618.31 3488.16,618.31 3488.16,527.62 3562.37,527.62 3562.37,618.31 3603.59,618.31 3603.59,403.95 3562.37,403.95 3562.37,490.52 3488.16,490.52 3488.16,403.95 3442.82,403.95 "/>
    <path class="fil0" d="M2593.59 502.89c0,172.28 160.78,109.32 160.78,82.45l0 -82.45 -78.33 0 0 37.1 37.1 0c0,33.42 4.59,41.22 -32.98,41.22 -48.5,0 -41.22,-64.1 -41.22,-90.69 0,-27.47 14.19,-49.47 41.22,-49.47 40.78,0 22.97,37.1 45.35,37.1l28.86 0c0,-100.73 -160.78,-106.96 -160.78,24.74z"/>
    <path class="fil0" d="M1381.58 581.21c-65.27,0 -56.89,-140.16 -4.12,-140.16 51.75,0 49.94,108.14 23.03,130.21 -1.88,1.54 -18.52,9.95 -18.9,9.95zm-86.57 -86.57c0,57.44 4.44,123.67 86.57,123.67 88.48,0 97.15,-136.3 55.54,-187.46 -41.89,-51.51 -142.12,-30 -142.12,63.79z"/>
    <polygon class="fil0" points="2412.2,618.31 2548.24,618.31 2548.24,581.21 2457.55,581.21 2457.55,527.62 2531.75,527.62 2535.87,490.52 2457.55,490.52 2457.55,441.05 2548.24,441.05 2548.24,403.95 2412.2,403.95 "/>
    <path class="fil0" d="M3096.53 465.78c0.57,0.82 1.33,1.17 1.53,2.59l23.2 67.5 -45.35 0c5.33,-22.87 15.11,-46.45 20.61,-70.08zm-90.7 152.53l45.35 0c2.19,-9.4 8.81,-33.8 12.37,-41.22l70.08 0c3.32,14.26 6.67,29.35 12.37,41.22l45.35 0c-6.78,-14.14 -12.26,-34.66 -18.05,-52.04l-56.16 -162.33 -41.22 0c-2.5,30.09 -58.57,164.96 -70.08,214.37z"/>
    <polygon class="fil0" points="2049.42,618.31 2181.34,618.31 2181.34,581.21 2094.77,581.21 2094.77,527.62 2168.97,527.62 2168.97,490.52 2094.77,490.52 2094.77,441.05 2181.34,441.05 2181.34,403.95 2049.42,403.95 "/>
    <path class="fil0" d="M3310.9 507.01l-32.98 0 0 -65.96c42.57,0 65.96,-5.58 65.96,37.1 0,19.73 -13.95,28.86 -32.98,28.86zm-74.2 111.31l41.22 0 0 -74.2c40.67,0 111.31,5.4 111.31,-70.08 0,-85.33 -93.46,-70.08 -152.53,-70.08l0 214.37z"/>
    <path class="fil0" d="M1084.76 486.4c0,40.63 -4.84,73.19 21.66,106.13 30.27,37.63 94.5,32.2 119.39,1.94 9.49,-11.54 18.2,-32.06 19.72,-50.36l-45.35 0c-1.26,56.35 -74.2,49.5 -74.2,-16.49 0,-28.05 -4.4,-86.57 41.22,-86.57 32.38,0 28.11,22.49 37.1,41.22l41.22 0c-9.62,-115.62 -160.78,-95.49 -160.78,4.12z"/>
    <polygon class="fil2" points="1839.18,441.05 1896.89,441.05 1896.89,618.31 1938.12,618.31 1938.12,441.05 1999.95,441.05 1999.95,403.95 1839.18,403.95 "/>
    <polygon class="fil0" points="2234.93,618.31 2362.73,618.31 2362.73,581.21 2276.16,581.21 2276.16,403.95 2234.93,403.95 "/>
    <polygon class="fil2" points="1521.75,618.31 1562.97,618.31 1562.97,403.95 1521.75,403.95 "/>
   </g>
  </g>
  <polygon class="fil3" points="-0,0 3695.94,0 3695.94,969.61 -0,969.61 "/>
 </g>
</svg>
