<?xml version="1.0" encoding="UTF-8"?>
<!DOCTYPE svg PUBLIC "-//W3C//DTD SVG 1.1//EN" "http://www.w3.org/Graphics/SVG/1.1/DTD/svg11.dtd">
<!-- Creator: CorelDRAW 2019 (64-Bit) -->
<svg xmlns="http://www.w3.org/2000/svg" xml:space="preserve" width="5.5701in" height="3.47275in" version="1.1" style="shape-rendering:geometricPrecision; text-rendering:geometricPrecision; image-rendering:optimizeQuality; fill-rule:evenodd; clip-rule:evenodd"
viewBox="0 0 5570.1 3472.75"
 xmlns:xlink="http://www.w3.org/1999/xlink"
 xmlns:xodm="http://www.corel.com/coreldraw/odm/2003">
 <defs>
  <style type="text/css">
   <![CDATA[
    .fil0 {fill:black}
    .fil5 {fill:#000006}
    .fil17 {fill:#000009}
    .fil48 {fill:#000637}
    .fil50 {fill:#001823}
    .fil10 {fill:#004243}
    .fil37 {fill:#004B4D}
    .fil24 {fill:#007C55}
    .fil72 {fill:#022B36}
    .fil58 {fill:#060719}
    .fil59 {fill:#099A5B}
    .fil34 {fill:#0B6048}
    .fil23 {fill:#148C55}
    .fil11 {fill:#189059}
    .fil74 {fill:#327262}
    .fil56 {fill:#362E2A}
    .fil31 {fill:#390000}
    .fil20 {fill:#440000}
    .fil64 {fill:#465E42}
    .fil7 {fill:#4BBA68}
    .fil60 {fill:#57BA62}
    .fil77 {fill:#596552}
    .fil39 {fill:#66C468}
    .fil65 {fill:#68B568}
    .fil49 {fill:#6DBC66}
    .fil12 {fill:#6FC46A}
    .fil75 {fill:#74BA6C}
    .fil66 {fill:#7BC166}
    .fil4 {fill:#810906}
    .fil38 {fill:#820000}
    .fil41 {fill:#820906}
    .fil36 {fill:#82402E}
    .fil52 {fill:#910100}
    .fil28 {fill:#92BC68}
    .fil16 {fill:#93C168}
    .fil62 {fill:#94C267}
    .fil63 {fill:#97A165}
    .fil54 {fill:#9DB566}
    .fil68 {fill:#9E7164}
    .fil61 {fill:#A1A961}
    .fil69 {fill:#A38265}
    .fil78 {fill:#A4A4A6}
    .fil76 {fill:#A59867}
    .fil25 {fill:#A8BB67}
    .fil67 {fill:#A97B64}
    .fil27 {fill:#A99468}
    .fil22 {fill:#AA0300}
    .fil26 {fill:#AA9469}
    .fil47 {fill:#AC0000}
    .fil73 {fill:#B1C379}
    .fil13 {fill:#B46C41}
    .fil44 {fill:#B4B86A}
    .fil51 {fill:#B8B065}
    .fil32 {fill:#BB0000}
    .fil57 {fill:#C67353}
    .fil19 {fill:#C8885F}
    .fil55 {fill:#C8915B}
    .fil2 {fill:#CAB164}
    .fil30 {fill:#CAB264}
    .fil1 {fill:#CEAA63}
    .fil14 {fill:#D10000}
    .fil71 {fill:#D25C3B}
    .fil15 {fill:#D2A962}
    .fil3 {fill:#D43810}
    .fil9 {fill:#D53810}
    .fil35 {fill:#D70000}
    .fil70 {fill:#D89C59}
    .fil6 {fill:#DC9657}
    .fil8 {fill:#DE693A}
    .fil18 {fill:#E40900}
    .fil53 {fill:#E63006}
    .fil43 {fill:#E74E1F}
    .fil40 {fill:#E88F4D}
    .fil42 {fill:#EB904F}
    .fil45 {fill:#EC0D00}
    .fil29 {fill:#ED7E41}
    .fil21 {fill:#EE7635}
    .fil46 {fill:#F1480C}
    .fil33 {fill:#F16523}
   ]]>
  </style>
 </defs>
 <g id="Layer_x0020_1">
  <metadata id="CorelCorpID_0Corel-Layer"/>
  <g id="_2126402111952">
   <g>
    <path class="fil0" d="M1821.96 3357.37c63.28,-1.86 52.11,6.52 68.86,-47.46 8.37,-24.19 15.82,-56.76 24.19,-91.19 20.47,-77.23 25.13,-155.4 62.35,-182.38 1.86,86.54 57.69,235.42 77.23,321.03 70.72,-1.86 58.62,-10.24 74.44,-67.93 11.17,-41.87 19.54,-71.65 30.71,-110.73 15.82,-53.97 58.62,-178.66 63.28,-232.63 -53.97,4.65 -50.25,12.09 -63.28,53.04l-51.18 192.62c-13.96,50.25 -7.44,64.2 -40.94,88.4 0,-66.07 -23.26,-116.32 -36.29,-169.35 -14.89,-59.56 -27.92,-108.87 -40.94,-164.7 -95.85,7.44 -63.28,133.99 -130.28,307.07 -0.93,2.79 -2.79,6.51 -3.72,9.3 -0.93,2.79 -3.72,7.44 -3.72,9.31 -0.93,1.86 -2.79,5.58 -4.65,8.37l-79.09 -294.98c-15.82,-40.94 -3.72,-27.91 -28.85,-35.36 -46.53,-13.03 -24.19,10.24 -25.13,17.68 -1.86,10.24 96.78,345.22 107.01,389.89z"/>
    <path class="fil0" d="M4342.74 3254.08c0,-281.02 -26.98,-256.82 141.44,-256.82 77.24,0 52.11,122.83 52.11,256.82 0,85.61 -193.55,84.68 -193.55,0zm-52.11 -269.85l0 488.52 52.11 0 0 -141.44c103.29,54.9 244.72,27.92 244.72,-89.33 0,-163.77 33.5,-295.91 -141.44,-295.91 -72.58,0 -42.8,21.4 -108.87,12.09 -13.03,-1.86 -46.53,-30.7 -46.53,26.06z"/>
    <path class="fil0" d="M4031.95 3318.29c-48.39,0 -24.19,-8.38 -77.23,-12.1 -12.1,-50.25 -52.11,-308.93 39.08,-308.93l141.44 0c0,212.16 33.5,321.03 -103.29,321.03zm-142.37 -256.83c0,196.34 -40.01,334.06 211.23,285.67 97.7,-18.61 86.54,147.95 86.54,-362.9 0,-55.83 -54.9,-38.15 -181.45,-38.15 -63.28,0 -116.32,52.11 -116.32,115.38z"/>
    <path class="fil0" d="M-0 2881.87l0 475.5 271.71 0 0 -39.08 -219.6 0 0 -205.65 193.55 0 0 -38.15 -193.55 0 0 -179.59c214.95,0 213.09,17.68 219.6,-52.11 -52.11,0 -104.22,0.93 -156.33,0 -56.76,-0.93 -115.39,-14.89 -115.39,39.08z"/>
    <path class="fil0" d="M1137.1 3048.44c0,-74.44 193.55,-74.44 193.55,0l0 90.26 -193.55 0 0 -90.26zm-51.18 13.03c0,300.56 -20.47,295.91 257.76,295.91 36.29,0 31.64,-10.24 39.08,-39.08 -247.52,0 -245.66,12.09 -245.66,-141.44l245.66 0c0,-127.48 24.19,-230.77 -155.4,-230.77 -80.02,0 -141.44,36.29 -141.44,115.38z"/>
    <path class="fil0" d="M3476.43 2946.08c0,415.01 -36.29,411.29 206.57,411.29 119.11,0 116.32,-97.7 116.32,-167.49l-51.18 0c0,80.96 12.09,128.41 -116.32,128.41 -47.46,0 -72.58,-10.24 -103.29,-25.13 -13.96,-56.76 -48.39,-398.26 38.15,-398.26 187.04,0 181.45,-15.82 181.45,115.39l51.18 0c0,-161.91 -51.18,-167.49 -193.55,-167.49 -77.23,0 -129.34,26.98 -129.34,103.29z"/>
    <path class="fil0" d="M5260.24 3318.29c-120.04,0 -91.19,-53.04 -91.19,-269.85 0,-70.72 95.85,-51.18 194.48,-51.18 0,212.16 33.5,321.03 -103.29,321.03zm-142.37 -281.95c0,272.64 -32.57,321.03 167.49,321.03 71.65,0 12.1,-10.24 58.63,-13.96 36.29,-3.72 17.68,9.31 57.69,13.96l0 -411.29c-72.58,0 -283.81,-24.19 -283.81,90.26z"/>
    <path class="fil0" d="M2326.3 3228.96c0,-256.82 -17.68,-231.7 155.39,-231.7 83.75,0 51.18,241.94 38.15,295.91 -70.72,33.5 -108.87,33.5 -180.52,0 -6.52,-28.85 -13.03,-29.78 -13.03,-64.2zm-52.11 -103.29c0,222.39 24.19,231.7 194.48,231.7 134.93,0 103.29,-154.46 103.29,-308.93 0,-97.7 -91.19,-102.35 -155.4,-102.35 -116.32,0 -142.37,67 -142.37,179.59z"/>
    <path class="fil0" d="M697.89 3357.37c72.58,-6.51 52.11,-23.26 51.18,-180.52 0,-187.04 -19.54,-179.59 142.37,-179.59 85.61,0 52.11,270.78 52.11,360.11 73.51,-6.51 51.18,-13.03 51.18,-256.82 0,-221.46 -209.37,-140.51 -226.12,-138.65 -54.9,4.65 1.86,-10.24 -70.72,-15.82l0 411.29z"/>
    <path class="fil0" d="M439.21 3151.73c0,39.08 -87.47,137.72 -103.29,205.64 65.14,-1.86 48.39,-5.58 80.96,-61.41 20.47,-36.29 38.15,-62.34 48.39,-106.08l26.06 0c10.24,43.74 26.06,55.83 46.53,94.91 26.06,49.32 19.54,67 82.82,72.58 -6.51,-72.58 -96.77,-153.54 -99.56,-207.5 -2.8,-45.59 83.74,-146.09 99.56,-203.78 -66.07,1.86 -60.48,11.17 -82.82,59.55 -19.54,40.94 -36.29,63.28 -46.53,107.01 -29.78,-20.47 -48.39,-55.83 -65.13,-89.33 -28.85,-59.56 -13.96,-75.37 -90.26,-77.23 14.89,55.83 103.29,162.84 103.29,205.65z"/>
    <path class="fil0" d="M1499.07 2907.93l0 38.15 -52.11 0 0 51.18 52.11 0c0,250.31 -34.43,360.11 168.42,360.11l0 -39.08c-47.46,-0.93 -71.65,-10.24 -104.22,-25.13 -22.33,-98.63 -12.1,-178.66 -12.1,-295.91 124.69,0 93.06,5.58 116.32,-25.12 -22.33,-32.57 9.31,-26.06 -116.32,-26.06l0 -77.24c-37.22,2.8 -52.11,0 -52.11,39.08z"/>
    <path class="fil0" d="M4872.21 2907.93l0 38.15c-66.07,1.86 -37.22,-12.1 -64.2,26.06 26.98,37.22 -1.86,24.19 64.2,25.12 0,266.13 -35.36,360.11 168.43,360.11l0 -39.08c-151.68,-2.8 -116.32,-53.97 -116.32,-321.03l103.29 0 0 -51.18 -103.29 0 0 -77.24c-37.22,2.8 -52.11,0 -52.11,39.08z"/>
    <path class="fil0" d="M5517.99 3318.29c0,39.08 15.82,36.29 52.11,39.08l0 -552.73 -52.11 0 0 513.65z"/>
    <path class="fil0" d="M2920.91 3318.29c0,39.08 14.89,36.29 51.18,39.08l0 -552.73 -51.18 0 0 513.65z"/>
    <path class="fil0" d="M2675.25 2984.23l0 373.14 51.18 0c0,-112.59 -12.09,-239.14 13.03,-347.08 55.83,-13.03 89.33,-1.86 116.32,-38.15 -36.29,-53.04 -71.65,-26.06 -129.34,12.09 -17.68,-67 -51.18,-40.94 -51.18,0z"/>
    <path class="fil0" d="M3011.17 3151.73l80.02 112.59c58.62,88.4 42.8,91.19 113.52,93.05l-141.44 -205.64 110.73 -162.84c12.1,-23.26 31.64,-35.36 -8.37,-39.08 -40.94,-3.72 -133.99,163.77 -154.46,201.93z"/>
    <path class="fil0" d="M4691.69 3357.37c36.29,-2.79 51.18,0 51.18,-39.08l0 -334.06c0,-38.15 -14.89,-35.36 -51.18,-38.15l0 411.29z"/>
    <path class="fil0" d="M4691.69 2868.84c0,36.29 5.58,24.2 25.12,39.08 22.33,-15.82 26.06,-1.86 26.06,-39.08l0 -64.2 -51.18 0 0 64.2z"/>
   </g>
   <g>
    <path class="fil0" d="M3980.57 2393.83c3.88,24.93 36.23,64.39 54.78,90.51 17.65,24.85 37.76,63.17 62.06,86.54l1159.26 0.21c-10.74,-42.44 -125.06,-204.44 -153.67,-246.77l-154.68 -234.47c-4.14,16.74 -6.24,9.42 -17.92,31.38 -22.13,41.61 -67.83,155.77 -92.21,192.88 -22.94,-2.59 -17.44,-2.2 -48.66,-30.44 -47.52,-42.99 -282.54,-238.56 -298.41,-243.11 -44.22,8.21 -159.08,99.13 -204.19,130.25 -56.64,39.07 -273.65,182.64 -306.37,223.02z"/>
    <path class="fil0" d="M2541.67 1812.45c-5.26,30.43 -33.68,86.12 -45.33,109.87l-136.33 283.9 -286.97 -230.17c-40.53,9.92 -374.79,252.26 -427.69,290.08 -10.65,7.61 -20.63,13.25 -31.57,21.16 -22.28,16.1 -35.88,28.44 -66.94,41.27 -16.2,19.54 -101.82,62.98 -128.12,77.75 -24.92,14 -39.01,22.52 -63.24,36.46 -20.87,12 -51.5,21.27 -56.76,39.69 56.61,32.32 409.4,18.25 500.54,7.63 137.74,-16.05 294.17,-63.28 408.9,-122.26 235.76,-121.19 393.67,-326.63 475.48,-586.41l-140.33 0c10.11,9.09 11.71,18.64 -1.65,31.03z"/>
    <path class="fil1" d="M2962.52 208.45l0.45 10.31 175.83 699.95c1.67,0.27 4.06,-0.44 4.88,1.4 1.06,2.41 8.88,2.1 10.19,2.25 8.57,1 17.76,1.3 22.54,0.3 -40.26,3 -12.98,3.55 -22.4,-8.58 32.95,-72.41 163.84,-296.89 215.56,-393.04l164.55 -296.27c16.37,-26.52 47.88,-76.32 43.12,-105.4l-614.72 89.08z"/>
    <path class="fil2" d="M3176.41 922.66c84.03,-22.63 184.63,-50.81 265.86,-77.17 39.29,-12.74 243.72,-77.39 275.26,-75.41 -34.32,-213.42 -81.54,-403.77 -117.7,-617.16 -6.49,-38.28 0,-25.52 -22.59,-33.55 4.76,29.08 -26.75,78.87 -43.12,105.4l-164.55 296.27c-51.72,96.15 -182.61,320.63 -215.56,393.04 9.42,12.13 -17.85,11.58 22.4,8.58z"/>
    <path class="fil1" d="M807.43 455.26l-1.52 9.7 147.49 589.21 11.87 4.27 149.03 17.52 -0.8 -65.57 -148.25 38.93c2.49,-24.11 7.35,-24.46 19.05,-44.54l248.92 -452.11c22.67,-40.65 77.46,-128.04 88.89,-168.96l-514.68 71.56z"/>
    <path class="fil3" d="M2933.29 1728.05c19.52,-11.28 16.6,13.14 15.98,-11.14 21.34,66.9 120.88,251.1 122.36,307.79 4.98,17.74 2.26,3.31 11.45,24.78l24.31 -0.48 402.71 -311.42 4.61 -2.4 2.13 -6.63 -8.48 -4.89c-50.65,-9.43 -179.91,-74.7 -230.59,-96.55 -40.2,-17.33 -72.2,-32.39 -112.71,-49.02 -30.97,-12.72 -77.16,-41.69 -109.54,-36.85 -15.61,10.43 -111.58,153.13 -122.22,186.82z"/>
    <path class="fil4" d="M3314.11 2305.55c44.37,-12.35 221.39,-125.25 267.47,-152.55 42.46,-25.15 86.88,-50.45 130.67,-76.24 38.25,-22.52 93.9,-65.67 141.2,-70.72 -12.24,-10 -29.06,-20.43 -44.46,-31.12 -23.31,-12.39 -9.72,-17.17 -32.34,-39.83l-261.95 -199.91 -4.61 2.4c-33.1,97.37 -67.67,188.07 -99.05,277.33 -15.43,43.86 -32.35,88.33 -49.28,137.89 -13.79,40.39 -44.18,109.52 -47.66,152.75z"/>
    <path class="fil5" d="M3855.75 2211.67c5.91,26.16 41.69,69.89 57.85,93.85 15.48,22.95 47.54,79.87 66.97,88.31 32.72,-40.38 249.72,-183.95 306.37,-223.02 45.11,-31.12 159.97,-122.04 204.19,-130.25l0 -8.84c-89.46,2.54 -300.84,-25.94 -344.07,-13.16 -3.62,1.07 -5.63,13.09 -11.33,4.24 -1.06,-1.64 -3.65,1.72 -5.58,2.31 -18.08,5.34 -25.98,25.36 -55.3,32.47 -22.31,5.42 -65.58,3.56 -88.25,-0.83 -39.74,-7.7 -91.51,-28.12 -124.59,-50.61 -16.76,49.73 -7.2,149.67 -6.26,205.52z"/>
    <path class="fil6" d="M2789.4 641.35c36.51,29.02 118.61,189.86 156.65,219.59 -4.57,-22.31 -0.38,-12.65 -14.07,-29.61 63.63,13.58 154.41,86.85 206.82,87.39l-175.83 -699.95c-18.14,5.79 -41.9,71.72 -50.94,90.5l-142.01 291.24c8.38,22.17 1.38,3.46 7.72,16.31 0.74,1.5 1.7,3.24 2.42,4.7l9.25 19.85z"/>
    <path class="fil7" d="M4181.76 611.91c-5.29,18.52 -3.25,12.42 64.15,25.4l172.64 36.42c49.83,10.61 65.43,-11.93 106.12,-1.9l227.25 -4.53c31,-1.62 27.25,-5.25 33,-10.54l-60.17 -5.98c-16.18,-61.04 -33.24,-134.57 -44.51,-191.26 -11.91,-59.92 -42.26,-135.02 -41.64,-194.35l-9.25 2.86c-11.22,29.32 -83.15,70.61 -108.35,88.8 -43.91,31.7 -77.54,57.63 -114.94,85.6 -29.84,22.32 -208.8,147.48 -224.3,169.48z"/>
    <path class="fil8" d="M3210.65 1307.7c-36.1,48.37 -142,195.72 -155.15,233.52 32.38,-4.83 78.57,24.13 109.54,36.85 40.5,16.63 72.51,31.7 112.71,49.02 50.69,21.85 179.94,87.12 230.59,96.55 -4.27,-66.74 -18.62,-140.54 -28.91,-204.14 -5.5,-33.97 -11.32,-64.97 -15.13,-98.44 -3.2,-28.14 -3.35,-71.01 -20.98,-87.46 -61.04,-6.3 -68.32,-34.84 -105.57,-49.54 -46.74,-4.03 -75.07,16.66 -127.11,23.63z"/>
    <path class="fil9" d="M901.92 1969.23c3.01,18.41 -7.28,6.48 15.28,14.86 15.52,-5.35 108.75,-80.83 125.65,-93.91 18.99,-14.7 39.07,-30.82 59.64,-46.93 23.04,-18.04 41.02,-42.18 71,-37.44 -6.91,-22.98 -21.89,-42.28 -34.04,-69.84 -4.96,-11.26 -22.5,-60.21 -24.5,-63.35l-22.5 -24.13c-22.68,-21.83 -384.15,-171.11 -393.24,-173.5l-0.26 2.57 202.97 491.67z"/>
    <path class="fil10" d="M2319.73 1056.06c-1.91,46.64 26.18,165.38 35.62,212.77 12.5,62.71 32.81,150.86 38.48,209.74l313.74 -120.33 -0.42 176.63c11.35,-17.21 7.56,-13.62 8.06,-39.85 0.29,-15.04 -0.48,-31.84 -0.51,-47.17 -0.05,-28.64 1.63,-59.14 -1.38,-86.77 -1.31,-1.97 -2.34,-4.52 -3.16,-6.36l-9.3 -23.06c-0.09,-0.24 -6,-16.95 -6.4,-17.74 -14.11,-28.13 -259.41,-265.9 -295.54,-302.82 -21.91,-22.39 -99,-86.88 -96.77,-103.73 0,44.34 24.47,113.76 17.57,148.69z"/>
    <path class="fil11" d="M2275.64 908.07c-42.69,52.58 -107.13,93.03 -158.99,156.79 -2.68,30.22 30.21,74.02 51.9,96.38 40.2,41.45 33.3,60.33 -5.87,93.58 -85.68,72.73 -92.44,85.43 -227.51,78.91 18.15,22.07 58.89,26.57 113.94,41.47 42.32,11.46 79.22,24.15 116.89,35.62 39.83,12.13 199.87,66.4 227.95,63.76l-0.12 4c-5.67,-58.89 -25.98,-147.04 -38.48,-209.74 -9.44,-47.39 -37.53,-166.13 -35.62,-212.77 -20.18,-21.38 -28.27,-130.82 -28.11,-162.96l-12.24 -30.64c4.31,28.56 9.48,24.71 -3.74,45.6z"/>
    <path class="fil12" d="M4245.13 146.48l-78.74 465.19 -1.39 5.49 16.76 -5.25c15.51,-21.99 194.46,-147.16 224.3,-169.48 37.39,-27.97 71.03,-53.9 114.94,-85.6 25.2,-18.19 97.13,-59.48 108.35,-88.8l-13.84 -5c-5.65,-2.09 -3.11,-1.23 -9.61,-3.65 -7.22,-2.69 -16.58,-6.19 -24.81,-9.22l-317.08 -118.26 0.22 -21.61 -15.67 29.77c-0.67,-1.15 -2.04,4.44 -3.43,6.43z"/>
    <path class="fil5" d="M1548.71 1966.61l-1.45 3.19 -0.42 358.77c31.06,-12.83 44.65,-25.17 66.94,-41.27 10.94,-7.91 20.93,-13.55 31.57,-21.16 52.9,-37.82 387.16,-280.16 427.69,-290.08l-4.39 -6.24c-23.79,13.47 -7.5,0.5 -10.09,-3.95 -53.44,0.16 -122.18,-4.33 -176.81,-9.02 -35.91,-3.08 -150.59,-1.34 -172.56,-5.74 -40.26,-1.66 -97.35,17.12 -160.47,15.51z"/>
    <path class="fil13" d="M3508.35 1723.65l8.48 4.89c52.15,-21.16 100.41,-33.05 155.5,-52.39 40.54,-14.24 122.8,-51.89 158.71,-41.51 -7.12,-29.18 -16.19,-45.87 -28.29,-72 -19.48,-42.07 -19.26,-31.34 -21.37,-80.61l2.46 -30.95c-27.92,-10.3 -131.86,-81.8 -173.42,-103.79 -37.02,-19.58 -41.25,-1.12 -78.5,-10l-88.6 -3.69c17.63,16.45 17.77,59.32 20.98,87.46 3.81,33.47 9.64,64.47 15.13,98.44 10.29,63.6 24.64,137.4 28.91,204.14z"/>
    <path class="fil14" d="M2423.31 2492.87l550.99 -144.02 -2.38 -0.09 2.93 -13.49 -11.53 1.06c-2.56,-5.81 -115.51,-117.48 -123.39,-125 -33.88,-32.3 -108,-100.11 -126.28,-127.48l-19.67 4.48c-8.39,3.34 -9.88,6.99 -18.44,19.44l-117.17 176.75c-29.27,42.22 -126.48,181.74 -135.05,208.33z"/>
    <path class="fil15" d="M3176.41 922.66c-4.78,1.01 -13.96,0.7 -22.54,-0.3 -1.31,-0.15 -9.13,0.16 -10.19,-2.25 -0.81,-1.84 -3.21,-1.13 -4.88,-1.4 6.13,16.27 16.38,21.54 27.17,32.36 7.98,8.01 5.22,6.48 13.08,13.7 17.91,16.44 -1.83,4.57 21.19,15.47l-1.44 -23.85c63.39,19.93 39.87,80.97 251.55,74.49 106.19,-3.25 211.5,-14.16 325.2,-12.12 -3.78,-2.15 -5.69,-5.08 -16.43,-7.74 -20.17,-4.99 -3.46,-1.16 -10.4,-0 -27.67,-17.2 -18.32,-90.4 -20.13,-123.65 -1.99,-36.5 -10.99,-90.38 -5.61,-119.52l-5.45 2.24c-31.54,-1.98 -235.97,62.67 -275.26,75.41 -81.23,26.35 -181.83,54.54 -265.86,77.17z"/>
    <path class="fil16" d="M3885.94 305l-24.74 44.2c-5.49,30.69 2.08,6.28 -15.72,31.1 12.77,13.59 277.77,210.8 297.19,218.3 14.5,17.33 -3.3,5.13 23.72,13.05l78.74 -465.19 -0.27 -17.38c-30,6.65 -140.85,72.39 -177.83,93.79 -57.31,33.17 -114.19,69.94 -169.83,97.37 -0.48,-8.96 -11.22,-15.22 -11.26,-15.26z"/>
    <path class="fil17" d="M4494.88 2023.53c-10.92,5.81 -5.78,0.07 -3.75,8.19l0 8.84c15.87,4.55 250.89,200.12 298.41,243.11 31.21,28.24 25.72,27.85 48.66,30.44 24.38,-37.11 70.08,-151.28 92.21,-192.88 11.67,-21.96 13.78,-14.64 17.92,-31.38 -10.91,-17.96 -93.59,-152.52 -111.39,-163.8 -41.2,-15.07 -130.22,29.03 -170.04,43.35 -47.88,17.2 -121.54,48 -172.02,54.13z"/>
    <path class="fil18" d="M380.12 1750.14c-7.27,19.16 5.81,41.6 12.82,58.46 3.99,9.6 7.42,19.34 11.41,28.58 9.74,22.53 4.47,17.59 19.67,28.41 -0.16,-2.21 -0.67,-9.66 -0.48,-10.82 1.99,-12.8 0.84,-6.14 3.34,-11.76l362.3 366.51c26.15,9.83 12.9,2.94 19.31,-1.04 -14.49,-70.43 -185.81,-508.26 -178.85,-525.68 -11.85,-21.33 6.61,-12.5 -22.8,-17.26 -40.88,11 -72.88,15.27 -117.32,22 -36.35,5.5 -82.36,9.27 -113.17,20.53l3.78 42.08z"/>
    <path class="fil6" d="M599.18 874.31l7.39 10.49c59.09,24.01 116.57,55.62 173.39,83.01 55.83,26.91 114.24,56.54 173.44,86.36l-147.49 -589.21c-22.48,15.36 -39.17,68.57 -54.89,99.67 -27.57,54.51 -128.09,276.75 -151.85,309.69z"/>
    <path class="fil19" d="M2670.27 447.06c16.81,52.56 116.8,158.08 119.13,194.28l-9.25 -19.85c-0.72,-1.46 -1.68,-3.2 -2.42,-4.7 -6.33,-12.85 0.67,5.86 -7.72,-16.31l142.01 -291.24c9.04,-18.78 32.81,-84.71 50.94,-90.5l-0.45 -10.31 -12.27 -6.43c-29.97,-7.65 -54.67,-23.67 -80.17,-36.72 -29.48,-15.09 -48.94,-24.44 -74.65,-37.62 -38.31,-19.64 -116.39,-63.45 -152.26,-70.61l40.69 389.89 -13.58 0.11z"/>
    <path class="fil20" d="M3314.11 2305.55l-8.51 7.8c-0.92,34.35 31.61,224.63 36.8,211.48 0.39,-0.98 1.77,3.14 2.89,4.54 4.83,-23.27 -23.28,-175.07 -32.92,-206.24 50.51,6.72 176.76,44.12 235.13,61.21 67.17,19.67 45.76,10.88 59.97,31.01 16.28,-10.19 6.22,-1.9 18.81,-17.73 4.64,-5.83 5.88,-9.05 10.57,-16.23l138.87 -207.04c15.52,-23.95 8.35,-17.62 30.82,-27.84 13.42,25.4 28.77,53.22 49.21,65.15 -0.94,-55.85 -10.5,-155.78 6.26,-205.52l-8.56 -0.12c-47.3,5.05 -102.95,48.2 -141.2,70.72 -43.79,25.79 -88.21,51.09 -130.67,76.24 -46.08,27.3 -223.1,140.2 -267.47,152.55z"/>
    <path class="fil21" d="M592.96 886.58l-130.74 209.83c-22.48,37.94 -46.07,72.55 -67.33,105.75 -16.87,26.34 -48.48,83.91 -69.68,100.21 -2.02,-41.08 11.23,-85.05 3.24,-123.74 -5.01,7.25 -3.8,3.19 -7.42,16.5 -2.51,9.23 -3.11,16.65 -4.02,26.23 -1.28,13.53 -0.17,23.53 -3.61,35.54l0 96.56 363.11 -164.5c20.99,-8.7 35.89,-16.47 59.27,-26.62l41.67 -17.05c1.22,-0.17 3.28,-0.31 4.44,-0.35l8.7 1.37c0.85,0.11 2.99,0.63 4.34,1.3l-8.3 39.4 8.52 -10.47c20.16,-37.56 8.16,-34.4 -1.2,-48.85 -8.84,-20.42 -78.62,-103.81 -92.7,-120.85 -20.54,-24.85 -85.67,-98.39 -94.69,-122.04l-7.39 -10.49 -1.2 -0.23 -5.02 12.5z"/>
    <path class="fil20" d="M1091.14 2198.26c-0.15,20.94 1.57,41.16 4.83,62.5 0.47,3.1 4.74,27.81 4.95,28.54 8.39,28.65 -2.77,9.76 13.32,26.64l-14.83 -103.86c41.26,3.51 378.7,109.44 438.93,118.91l-3.62 -357.76c-72.37,0.4 -72.61,14.02 -124.28,43.51 -37.48,21.4 -67.8,38.86 -105.89,61.82 -43.34,26.13 -183.2,114.63 -213.41,119.69z"/>
    <path class="fil22" d="M3107.38 2048.99c-22.95,7.94 -4.7,-3.19 -8.2,13 8.99,17.59 11.16,17.16 20.69,29.4l152.33 188.34c12.06,13.56 18.16,15.48 17.73,34.49l15.67 -0.87 8.51 -7.8c3.48,-43.23 33.87,-112.37 47.66,-152.75 16.93,-49.56 33.85,-94.03 49.28,-137.89 31.39,-89.27 65.95,-179.97 99.05,-277.33l-402.71 311.42z"/>
    <path class="fil8" d="M699.06 1450.91l-3.52 18.81 3.67 5.28c9.09,2.38 370.56,151.66 393.24,173.5l22.5 24.13 -6.44 -30.47c-15.69,-22.46 -20.39,-72.69 -16.11,-104.07l138.72 -4.83 -29.81 -214.27 -494.13 145.35c-10.56,-9.09 -11.38,13.97 -8.11,-13.43z"/>
    <path class="fil23" d="M4795.07 4.75c-28.41,74.65 -139.21,207.05 -150.39,264.51 76.76,-18.37 157.72,-45.81 235.52,-67.85 75.52,-21.4 164.96,-54.31 240.73,-68.57 -13,26.56 -10.77,13.54 -15.74,40.65 18.32,-13.83 20.36,-18.65 33.16,-39.86 10.13,-16.78 20.73,-32.88 29.07,-45.03 14.98,-21.84 49.56,-68.27 56.59,-88.6l-424.54 0 -4.39 4.75z"/>
    <path class="fil24" d="M4644.68 269.26c18.81,52.26 211.67,239.96 213.57,258.95 12.84,-25.33 -0.24,-8.16 20.13,-11.97 14.74,-4.41 101.7,-145.19 115.66,-166.27 18.76,-28.34 110.18,-155.56 111.13,-176.48 4.97,-27.11 2.74,-14.1 15.74,-40.65 -75.76,14.26 -165.21,47.17 -240.73,68.57 -77.8,22.05 -158.75,49.49 -235.52,67.85z"/>
    <path class="fil25" d="M3814.62 416.33c-7.16,39.44 -6.46,2.89 -19.04,42.94 -3.46,11 -6.58,27.24 -11.25,41.63 -14.44,44.49 -59.15,227.79 -61.35,266.95l13.86 -2.09c1.95,-10.89 224.5,-72.89 255.65,-82.36l162.89 -62.89c-7.46,-19.89 4.25,-5.7 -12.7,-21.89 -19.42,-7.51 -284.41,-204.72 -297.19,-218.3 17.81,-24.83 10.23,-0.41 15.72,-31.1 -19.91,13.47 -40.83,43.03 -46.59,67.12z"/>
    <path class="fil26" d="M2962.52 208.45l614.72 -89.08 -0.34 -12.76 2.01 -3.21c-27.54,-8.29 -155.99,-82.76 -169.58,-103.41l-382.99 0 1.44 0.04c2.37,46.1 -49.18,155.56 -65.25,208.42z"/>
    <path class="fil17" d="M2068.64 1969.81l4.39 6.24 286.97 230.17 136.33 -283.9c11.65,-23.75 40.07,-79.44 45.33,-109.87 -64.24,9.22 -172.57,54.24 -239.79,76.33 -80.06,26.3 -158.22,51.37 -233.24,81.03z"/>
    <path class="fil27" d="M2713.32 1361.08c3.01,27.63 1.33,58.13 1.38,86.77 0.03,15.33 0.8,32.13 0.51,47.17 -0.5,26.23 3.29,22.64 -8.06,39.85l-342.5 1.17 -437.8 0.03 -232.69 -2.87c6.44,-23.35 89.33,-129.03 113.09,-159.85 5.58,-7.25 13.76,-19.87 19.16,-26.43 18.83,-22.85 -1.38,-9.46 26.15,-19.62l-3.25 -6.44c-58,-22.48 -214.82,-4.99 -268.03,12.2 -36.62,11.83 -66.01,26.42 -100.27,47.22 -51.14,31.05 -37.54,49.89 -99.77,34.06 19.94,32.93 159.1,91.8 168.87,115.18l-319 3.72 -138.72 4.83c-4.28,31.39 0.42,81.61 16.11,104.07l-7.95 -98.16 1617.52 1.96c5.49,-25.26 14.62,-306.59 -12.32,-335.58l7.57 150.7z"/>
    <path class="fil28" d="M1521.33 586.25l0 1.16c17.91,-19.26 53.93,-34.14 82.55,-50.65 27.73,-16 57.32,-34.39 89.43,-51.04 56.42,-29.26 122.59,-74.04 176.54,-96.78 -11.03,-23.87 -33.93,-33.12 -54.34,-48.92 -35.98,-27.85 -149.68,-95.59 -169.06,-128.17 38.48,0.7 75.12,12.18 109.49,3.64l-238.01 -19.06c0,80.05 -12.07,330.04 3.4,389.84z"/>
    <path class="fil29" d="M786.64 1187l-87.58 263.91c-3.27,27.39 -2.46,4.34 8.11,13.43l494.13 -145.35 -15.59 -11.28 -391.75 -180.02c9.37,14.45 21.36,11.29 1.2,48.85l-8.52 10.47z"/>
    <path class="fil7" d="M1937.56 701.29c11.43,26.17 37.09,49.3 53.56,70.62 13.81,17.9 31.45,54.36 43.31,68.81 52.88,20.63 175.15,44.54 234.4,50.9l6.83 16.45c13.22,-20.89 8.05,-17.04 3.74,-45.6l-84.17 -343.19 0.48 -16.41 -10.25 0c-9.18,31.33 -85.21,75.21 -119.69,100.97 -45.11,33.7 -93.43,67.16 -128.2,97.44z"/>
    <path class="fil30" d="M1114.3 1075.95c7.02,26.97 2.22,26.46 19.94,44.93 -11.4,-127.08 -19.64,-202.83 41.79,-305.53 38.04,-63.58 122.09,-138.5 202.11,-162.15 -2.86,-58.58 -32.32,-202.73 -49.11,-265.45l-6.93 -4.06c-11.43,40.92 -66.22,128.31 -88.89,168.96l-248.92 452.11c-11.69,20.08 -16.56,20.43 -19.05,44.54l148.25 -38.93 0.8 65.57z"/>
    <path class="fil31" d="M1114.23 2315.93c-9.74,27.16 10.04,113.84 23.78,132.46 54.3,13.34 98.91,29.27 160.7,34.07 5.26,-18.42 35.89,-27.68 56.76,-39.69 24.23,-13.94 38.32,-22.46 63.24,-36.46 26.3,-14.77 111.92,-58.21 128.12,-77.75l0.42 -358.77 -12.55 3.43 3.62 357.76c-60.23,-9.47 -397.67,-115.4 -438.93,-118.91l14.83 103.86z"/>
    <path class="fil32" d="M2423.31 2492.87c-17.75,11.19 -44.55,59.67 -51.32,78.07l483.57 -0.01c8.28,-34.46 40.05,-81.27 57.55,-112.16l58.37 -104.68c0.5,-2.91 1.88,-3.49 2.81,-5.24l-550.99 144.02z"/>
    <path class="fil33" d="M313.42 1353.46l0 5.13c39.21,-3.22 329.18,93.65 382.13,111.13l3.52 -18.81 87.58 -263.91 8.3 -39.4c-1.35,-0.67 -3.5,-1.19 -4.34,-1.3l-8.7 -1.37c-1.16,0.04 -3.22,0.18 -4.44,0.35l-41.67 17.05c-23.37,10.15 -38.28,17.93 -59.27,26.62l-363.11 164.5z"/>
    <path class="fil34" d="M1926.86 1536.07l437.8 -0.03c7.69,-33.56 20.19,-25.43 29.29,-61.46 -28.08,2.64 -188.12,-51.62 -227.95,-63.76 -37.67,-11.48 -74.57,-24.16 -116.89,-35.62 -55.05,-14.9 -95.79,-19.4 -113.94,-41.47l-85.85 -12.87 3.25 6.44c24.88,54.32 42.49,154.59 74.29,208.77z"/>
    <path class="fil35" d="M2829.38 1883.09c-1.68,63.27 42.54,164.76 65.05,227.79 14.83,41.52 25.31,71.42 40.02,113.37 10.03,28.61 41.04,87.58 28.87,112.09l11.53 -1.06c19.8,-13 46.02,-102.55 60.39,-135.35 9.28,-21.19 17.8,-44.69 28.5,-71 7.56,-18.59 15.2,-56.45 35.44,-66.93 3.5,-16.19 -14.75,-5.06 8.2,-13l-24.31 0.48c-9.19,-21.46 -6.47,-7.04 -11.45,-24.78 -52.98,-27.24 -157.57,-188.19 -200.65,-205.32 -13.04,7.8 -15.45,15.24 -25.91,31.69 -8.19,12.89 -13.54,17.46 -15.69,32.02z"/>
    <path class="fil36" d="M3516.83 1728.54l-2.13 6.63 261.95 199.91c22.61,22.65 9.03,27.44 32.34,39.83 -3.5,-32.57 16.33,-63.61 26.51,-88.03 11.94,-28.66 18.21,-41.87 25.56,-81.96 10.92,-59.51 -6,-132.55 -30.02,-170.29 -35.91,-10.38 -118.17,27.27 -158.71,41.51 -55.09,19.35 -103.35,31.24 -155.5,52.39z"/>
    <path class="fil37" d="M2291.62 893.11c-0.17,32.14 7.93,141.57 28.11,162.96 6.89,-34.93 -17.57,-104.35 -17.57,-148.69 -2.22,16.85 74.86,81.34 96.77,103.73 36.12,36.92 281.42,274.69 295.54,302.82 0.39,0.79 6.31,17.5 6.4,17.74l9.3 23.06c0.82,1.83 1.85,4.39 3.16,6.36l-7.57 -150.7c1.48,-20.56 3.93,-0.44 0.57,-14.98 -3,-13 -1.57,-7.98 -6.2,-14.87l4.41 94.99c-6.01,-4.95 -3.49,-0.23 -11.07,-11.66 -7.32,-11.03 -2.01,-2.55 -7.47,-12.64 -5.57,-10.3 -8.47,-17.35 -13.46,-27.15 -35.03,-68.74 -195.36,-368.43 -198.79,-390.19 -18.37,-8.46 -14.4,-2.46 -16.08,-27.31l-14.44 1.28c-8.54,14.11 -120.96,74.95 -151.59,85.25z"/>
    <path class="fil26" d="M728.48 433.62c29.48,-12 49.89,12.09 78.94,21.64l514.68 -71.56 1.49 -7.7 -200.49 -124.26 13.49 -10.69c-112.61,16.08 -334.93,127.24 -408.11,192.58z"/>
    <path class="fil38" d="M3172.38 2326.62c-8.45,6.51 -2.46,3.87 -16.86,8.83 -33.22,11.46 -134.54,4.77 -167.3,19.81 23.69,41.2 183.5,174.69 212.26,215.65l144.98 -0.09 -0.18 -41.44c-1.12,-1.4 -2.5,-5.52 -2.89,-4.54 -5.19,13.15 -37.72,-177.14 -36.8,-211.48l-15.67 0.87 -117.54 12.4z"/>
    <path class="fil39" d="M4264.22 110.27l-0.22 21.61 317.08 118.26c8.23,3.04 17.59,6.53 24.81,9.22 6.5,2.42 3.96,1.56 9.61,3.65l13.84 5c-1.98,-20.8 -36.04,-97.12 -49.58,-129.96 -12.59,-30.54 -51.22,-104.73 -51.57,-129.55l266.88 -3.76 4.39 -4.75 -464.08 0c-0.98,1.67 -2.6,3.6 -3.43,4.69l-6.7 8.8c-0.96,1.23 -2.24,2.73 -3.21,3.96l-27.16 39.43c-9.65,15.36 -24.1,33.31 -30.67,53.39z"/>
    <path class="fil22" d="M917.2 1984.09l-4.07 15.48c22.06,6.17 74.28,85.7 94.43,108.76 19.58,22.4 64.49,63.3 69.94,95.3l13.64 -5.36 124.19 -341.52 -41.84 -50.93c-29.98,-4.73 -47.96,19.4 -71,37.44 -20.57,16.11 -40.65,32.22 -59.64,46.93 -16.9,13.08 -110.12,88.56 -125.65,93.91z"/>
    <path class="fil40" d="M793.96 1127.68l391.75 180.02c-15.91,-31.5 -78.54,-92.38 -108.11,-123.5 -25.87,-27.23 -98.46,-97.35 -112.33,-125.77l-11.87 -4.27c-59.2,-29.82 -117.61,-59.44 -173.44,-86.36 -56.82,-27.39 -114.3,-59 -173.39,-83.01 9.02,23.65 74.15,97.19 94.69,122.04 14.08,17.04 83.86,100.43 92.7,120.85z"/>
    <path class="fil41" d="M1091.14 2198.26c30.2,-5.07 170.06,-93.57 213.41,-119.69 38.09,-22.96 68.41,-40.43 105.89,-61.82 51.66,-29.49 51.9,-43.11 124.28,-43.51l12.55 -3.43 1.45 -3.19c-82.46,-2.37 -121.22,-8.31 -194.33,-31.35 -28.41,-8.95 -51.85,-20.72 -77.33,-36.33 -16.85,-10.33 -43.75,-37.17 -61.72,-42.2l-124.19 341.52z"/>
    <path class="fil12" d="M1862.64 538.77l4.06 9.59c100.96,49.46 15.69,132.59 70.85,152.93 34.77,-30.28 83.09,-63.74 128.2,-97.44 34.48,-25.76 110.51,-69.64 119.69,-100.97l1.4 2.22c-28.5,-12.62 -56.46,-19.74 -85.7,-31.26 -25.03,-9.85 -49.04,-21.67 -74.56,-31.39 -32.85,-12.51 -132.84,-42.24 -140.74,-66.83 -9.66,15.79 -14.56,62.46 -17.64,82.98 -2.43,16.17 -5.56,31.18 -7.85,47.19 -3.51,24.5 -8,16.87 2.3,33z"/>
    <path class="fil24" d="M2205.08 519.17c16.01,27.78 91.07,105.98 122.5,142.75 20.53,24.02 39.01,44.3 62.76,70.56 16.28,18 53.08,50.67 52.88,75.37l14.44 -1.28c4.86,-20.9 21.65,-40.15 35.02,-62.2 13.92,-22.96 21.2,-47.88 45.23,-54.93 -23.95,-54.11 -155.84,-217.04 -192.53,-220.67 -31.93,2.06 -130.22,23.69 -140.3,50.4z"/>
    <path class="fil35" d="M789.18 2209.51c6.2,16.55 -2.4,5.79 11.43,17.29 23.98,-16.28 5,-3.65 22.14,-4.98l90.38 -222.26 4.07 -15.48c-22.56,-8.38 -12.27,3.55 -15.28,-14.86 -36.3,-18.5 -201.15,-220.1 -255.85,-273.59l-16.44 -12.84c-6.96,17.42 164.36,455.25 178.85,525.68 -6.41,3.97 6.84,10.87 -19.31,1.04z"/>
    <path class="fil38" d="M822.74 2221.82c-16.51,30.42 -28.12,30.87 -35.15,69.55 51.44,45.72 269.46,145.06 350.43,157.03 -13.74,-18.62 -33.53,-105.3 -23.78,-132.46 -16.09,-16.88 -4.93,2.01 -13.32,-26.64 -0.21,-0.73 -4.48,-25.44 -4.95,-28.54 -3.25,-21.33 -4.98,-41.56 -4.83,-62.5l-13.64 5.36c-12.94,7.64 -232.85,24.63 -254.76,18.2z"/>
    <path class="fil42" d="M2946.05 860.93c5.52,27.63 112.43,176.52 141.3,222.15 12.86,20.34 8.62,18.13 26.17,29.72l3.02 -14.14 318.67 141.7 -99.78 -106.32c-0.53,-2.4 -2.24,-2.72 -3.21,-4.19 -34.56,-16.24 -57,-17.5 -85.3,-52.36 -28.76,-35.43 -28.74,-61.5 -46.67,-97.26 -23.02,-10.9 -3.28,0.98 -21.19,-15.47 -7.86,-7.22 -5.1,-5.7 -13.08,-13.7 -10.78,-10.82 -21.04,-16.09 -27.17,-32.36 -52.41,-0.54 -143.2,-73.81 -206.82,-87.39 13.69,16.96 9.5,7.31 14.07,29.61z"/>
    <path class="fil31" d="M3345.29 2529.38l0.18 41.44 164.66 -3.02 78.48 -114.35c4.53,-6.4 9.89,-13.5 13.11,-20.07 6.99,-14.25 3.72,-3.57 5.74,-18.01 -14.21,-20.13 7.2,-11.34 -59.97,-31.01 -58.37,-17.09 -184.62,-54.5 -235.13,-61.21 9.64,31.16 37.75,182.96 32.92,206.24z"/>
    <path class="fil43" d="M328.46 1178.63c7.98,38.69 -5.26,82.66 -3.24,123.74 21.19,-16.3 52.81,-73.87 69.68,-100.21 21.26,-33.2 44.84,-67.8 67.33,-105.75l130.74 -209.83c-35.98,-3.58 -74.13,1.33 -110.24,4.3 -17.35,1.43 -36.24,4.1 -52.61,5.8 -26.65,2.77 -43.25,12.3 -43.25,-10.03 3.91,34.03 -77.23,219.57 -58.4,291.98z"/>
    <path class="fil44" d="M3577.24 119.37c22.59,8.03 16.1,-4.73 22.59,33.55 36.16,213.39 83.38,403.74 117.7,617.16l5.45 -2.24c2.21,-39.16 46.92,-222.46 61.35,-266.95 4.67,-14.39 7.79,-30.63 11.25,-41.63 12.59,-40.04 11.89,-3.5 19.04,-42.94 -36.93,0.43 -34.07,-17.26 -70.12,-70.35 -20.03,-29.49 -33.69,-49.61 -53.76,-79.17 -24.07,-35.45 -89.5,-141.24 -113.84,-160.19l0.34 12.76z"/>
    <path class="fil45" d="M329.34 1548.08c-5.59,36.93 5.94,70.01 13.84,103.77 10.8,46.13 12.95,75.42 36.94,98.3l-3.78 -42.08c30.81,-11.26 76.82,-15.03 113.17,-20.53 44.44,-6.73 76.44,-11 117.32,-22l-1.02 -14.01c-48.01,-35.46 -217.74,-227.79 -256.93,-258.87 -25.71,-20.39 -1.64,-4.67 -25.68,-14.83 -1.19,47.61 14.3,133.28 6.14,170.26z"/>
    <path class="fil19" d="M728.48 433.62c-35.51,24.64 -61.44,48.33 -91.54,76.85 -15.57,14.75 -26.15,26.27 -39.43,40.46 -18.58,19.86 -28.24,26.33 -39.68,51.73 13.24,10.99 9.55,-6.26 17.07,58.72l23.06 212.7 1.2 0.23c23.75,-32.93 124.28,-255.18 151.85,-309.69 15.72,-31.09 32.41,-84.3 54.89,-99.67l1.52 -9.7c-29.06,-9.54 -49.46,-33.64 -78.94,-21.64z"/>
    <path class="fil46" d="M313.42 1482.38c7.29,15.86 3.18,13.48 6.12,32.15 1.28,8.13 0.98,10.26 3.31,18.49 4,14.15 0.83,7.04 6.49,15.06 8.16,-36.98 -7.33,-122.65 -6.14,-170.26 24.04,10.16 -0.03,-5.56 25.68,14.83 39.19,31.08 208.92,223.41 256.93,258.87 26.04,3.59 21.49,-4.09 31.27,-33.51 6.27,-18.87 11.59,-30.31 18.06,-47.66 15.56,-41.75 20.33,-80.11 43.81,-92.79l0.26 -2.57 -3.67 -5.28c-52.94,-17.48 -342.91,-114.35 -382.13,-111.13l0 123.78z"/>
    <path class="fil47" d="M2974.85 2335.28l-2.93 13.49c52.39,-13.39 135.13,-23.3 200.46,-22.15l117.54 -12.4c0.43,-19.01 -5.67,-20.93 -17.73,-34.49l-152.33 -188.34c-9.52,-12.24 -11.7,-11.81 -20.69,-29.4 -20.24,10.48 -27.87,48.34 -35.44,66.93 -10.7,26.31 -19.23,49.81 -28.5,71 -14.37,32.8 -40.59,122.36 -60.39,135.35z"/>
    <path class="fil48" d="M2473.73 833.89c3.43,21.76 163.76,321.45 198.79,390.19 4.99,9.8 7.89,16.85 13.46,27.15 5.46,10.09 0.15,1.61 7.47,12.64 7.59,11.43 5.06,6.71 11.07,11.66l-4.41 -94.99c10.21,-63.28 -67.6,-334.73 -98.76,-368.5 -39.23,-4.69 -94.77,-8.9 -137.28,-3.66l9.65 25.52z"/>
    <path class="fil49" d="M4165 617.15c-14.48,60.52 -89.09,164.26 -111.89,230.17l16.76 51.25c28.16,-3.13 2.36,3.53 27.72,-9.86 69.38,-42.4 138.76,-142.74 294.29,-186.97 24.57,-6.99 36.58,-10.65 65.81,-13.84 21.65,-2.36 49.03,-3.77 66.97,-16.08 -40.69,-10.02 -56.29,12.51 -106.12,1.9l-172.64 -36.42c-67.4,-12.98 -69.43,-6.87 -64.15,-25.4l-16.76 5.25z"/>
    <path class="fil50" d="M2193.19 1776.04c-12.76,33.83 -46.18,74.2 -63.04,100.25 -17.29,26.7 -38.81,72.43 -71.6,89.57 2.59,4.44 -13.7,17.42 10.09,3.95 75.02,-29.66 153.18,-54.73 233.24,-81.03 67.21,-22.08 175.54,-67.11 239.79,-76.33 13.36,-12.39 11.76,-21.94 1.65,-31.03l140.33 0 -0.91 -6.68c-156.73,0 -342.89,-6.68 -489.55,1.3z"/>
    <path class="fil18" d="M2693.97 2088.34l19.67 -4.48c18.28,27.36 92.4,95.18 126.28,127.48 7.89,7.52 120.83,119.19 123.39,125 12.17,-24.51 -18.84,-83.47 -28.87,-112.09 -14.71,-41.95 -25.2,-71.85 -40.02,-113.37 -22.51,-63.04 -66.73,-164.52 -65.05,-227.79 -30.48,22.37 -52.34,70.11 -71.81,100.05 -21.38,32.88 -51.26,71.48 -63.6,105.21z"/>
    <path class="fil51" d="M3748.72 1011.02l65.93 -39c29.41,-15.84 48.78,-25.72 74.73,-39.72 31.7,-17.1 124.74,-59.99 147.3,-84.73 -12.71,-17.74 -114.28,-34.15 -149.57,-43.5 -51.71,-13.7 -97.44,-25.18 -150.27,-38.31l-13.86 2.09c-5.38,29.15 3.62,83.02 5.61,119.52 1.81,33.24 -7.54,106.44 20.13,123.65z"/>
    <path class="fil52" d="M2971.92 2348.77l2.38 0.09c-0.93,1.75 -2.31,2.33 -2.81,5.24l-58.37 104.68c-17.5,30.89 -49.27,77.7 -57.55,112.16l344.92 -0.02c-28.76,-40.96 -188.57,-174.45 -212.26,-215.65 32.76,-15.04 134.07,-8.35 167.3,-19.81 14.4,-4.97 8.41,-2.33 16.86,-8.83 -65.33,-1.15 -148.07,8.76 -200.46,22.15z"/>
    <path class="fil53" d="M605.81 1651.52l1.02 14.01c29.41,4.77 10.95,-4.07 22.8,17.26l16.44 12.84c54.7,53.49 219.55,255.09 255.85,273.59l-202.97 -491.67c-23.48,12.68 -28.25,51.04 -43.81,92.79 -6.46,17.35 -11.79,28.79 -18.06,47.66 -9.78,29.41 -5.23,37.09 -31.27,33.51z"/>
    <path class="fil54" d="M3736.83 765.76c52.83,13.13 98.56,24.61 150.27,38.31 35.28,9.35 136.86,25.77 149.57,43.5l16.44 -0.24c22.8,-65.92 97.42,-169.66 111.89,-230.17l1.39 -5.49c-27.02,-7.92 -9.22,4.29 -23.72,-13.05 16.95,16.19 5.23,2 12.7,21.89l-162.89 62.89c-31.15,9.46 -253.7,71.47 -255.65,82.36z"/>
    <path class="fil54" d="M1323.6 375.99l-1.49 7.7 6.93 4.06c27.24,16.76 125.61,129.85 162.07,169.26l30.22 29.23c-15.46,-59.8 -3.4,-309.79 -3.4,-389.84l-54.32 0.2c-12.31,33.77 -47.29,70.35 -68.45,97.39l-52.04 68.47c-9.88,10.07 -6.22,8.78 -19.52,13.52z"/>
    <path class="fil28" d="M3885.94 305c0.04,0.04 10.78,6.3 11.26,15.26 55.63,-27.43 112.52,-64.21 169.83,-97.37 36.98,-21.4 147.83,-87.13 177.83,-93.79 -5.7,-26.2 -47.18,-45.17 -72.76,-63.63 -13.87,-10.02 -30.87,-21.52 -43.67,-30.67 -20.5,-14.64 -25.92,-10.42 -24.37,-34.8l-14.5 0 -203.61 305z"/>
    <path class="fil55" d="M3435.2 1240.37l1.09 25.55 -54.58 0.24c6.94,4.53 3.07,3.24 15.86,6.52 7.28,1.86 11.23,2.12 18.71,2.74l111.85 -9.39c44.37,-12.42 75.58,-45.19 109.33,-53.39 114.82,-27.91 165.53,104.65 119.59,174.93 -42.74,5.76 -66.85,-31.36 -102.25,-50.96 -26.92,-14.9 -97.22,-22.44 -122.88,0.7 37.25,8.87 41.48,-9.59 78.5,10 41.56,21.99 145.5,93.49 173.42,103.79l-2.46 30.95c37.62,-32.02 24,-160.49 25.4,-218.11 36.26,12.85 21.63,21.18 66.43,25.61 -16.16,-31.8 -162.94,-150.57 -264.09,-132.76 -55.26,12.47 -52.09,-12.32 -102.4,27.15 -24.89,19.52 -44.28,36.83 -71.53,56.46z"/>
    <path class="fil34" d="M4478.29 2022.31l16.59 1.22c27.84,-72.84 116.48,-169.12 155.69,-242.46l28.27 3.24 -22.13 -15.25c-0.67,-0.32 -22.15,-7.99 -23.72,-8.51 -64.98,-21.54 -114.55,-16.19 -185.37,-13.18l-48.5 20.74c15.54,84.77 62.91,172.94 79.17,254.19z"/>
    <path class="fil56" d="M4232.81 1826.85c-7.44,25.01 -4.91,36.05 -28.61,41.56 -13.29,-11.07 -7.2,-6.13 -12.93,-20.2l-20.52 -6.82c1.38,38.92 2.38,71.53 -5.65,106.8 -9.03,39.68 -22.81,44.63 -34.94,76.93 1.93,-0.59 4.52,-3.95 5.58,-2.31 5.71,8.85 7.72,-3.18 11.33,-4.24 43.22,-12.78 254.61,15.7 344.07,13.16 -2.03,-8.13 -7.17,-2.38 3.75,-8.19l-16.59 -1.22c-31.84,-18 -87.08,-77.22 -116.9,-104.4 -33.24,-30.3 -86.73,-88.23 -120.97,-102.99l-7.61 11.93z"/>
    <path class="fil39" d="M1885.83 375.6c7.9,24.59 107.89,54.32 140.74,66.83 25.53,9.72 49.53,21.54 74.56,31.39 29.25,11.52 57.2,18.64 85.7,31.26 -5.93,-48.59 -46.94,-112.19 -62.38,-164.82l20.4 -5.13c-10.98,-18.58 2.57,-1.62 -11.39,-12.56l-54.82 -26.14c-16.22,-6.81 -51.57,-22.45 -71.48,-22.93l-51.94 -6.57c-12.88,16.2 -65.16,90.65 -69.4,108.65z"/>
    <path class="fil57" d="M2480.09 160.89c7.15,23.14 172.89,272.96 190.18,286.18l13.58 -0.11 -40.69 -389.89 -15 1.83 -148.07 101.99z"/>
    <path class="fil50" d="M4494.88 2023.53c50.48,-6.13 124.14,-36.93 172.02,-54.13 39.82,-14.31 128.83,-58.42 170.04,-43.35 -12.77,-44.89 -109.17,-138.07 -158.09,-141.75l-28.27 -3.24c-39.21,73.34 -127.85,169.62 -155.69,242.46z"/>
    <path class="fil14" d="M424.02 1865.58c3.56,53.02 110.82,197.35 150.77,241.87 59.31,66.09 137.94,143.91 212.8,183.91 7.03,-38.68 18.64,-39.13 35.15,-69.55 -17.13,1.33 1.84,-11.3 -22.14,4.98 -13.82,-11.5 -5.22,-0.74 -11.43,-17.29l-362.3 -366.51c-2.5,5.62 -1.35,-1.04 -3.34,11.76 -0.18,1.17 0.32,8.61 0.48,10.82z"/>
    <path class="fil58" d="M2393.83 1478.58l0.12 -4c-9.09,36.04 -21.6,27.91 -29.29,61.46l342.5 -1.17 0.42 -176.63 -313.74 120.33z"/>
    <path class="fil59" d="M4784.91 656.76c8.05,-5.04 1.63,1.29 11.77,-11.1 1.42,-1.72 9.23,-13.33 10.8,-15.7 20.77,-31.44 61.38,-84.43 70.91,-113.73 -20.38,3.81 -7.29,-13.36 -20.13,11.97 -1.91,-18.99 -194.77,-206.69 -213.57,-258.95l-6.08 -4.09c-0.63,59.34 29.73,134.43 41.64,194.35 11.27,56.68 28.33,130.22 44.51,191.26l60.17 5.98z"/>
    <path class="fil13" d="M1231.11 1533.25l319 -3.72c-9.76,-23.38 -148.92,-82.25 -168.87,-115.18l-89.41 -52.99c-42.95,-8.58 -47.04,-37.42 -90.53,-42.37l29.81 214.27z"/>
    <path class="fil59" d="M2279.38 862.47l12.24 30.64c30.62,-10.3 143.05,-71.15 151.59,-85.25 0.2,-24.71 -36.6,-57.38 -52.88,-75.37 -23.75,-26.26 -42.23,-46.54 -62.76,-70.56 -31.43,-36.77 -106.49,-114.97 -122.5,-142.75l-9.87 0.11 84.17 343.19z"/>
    <path class="fil60" d="M4629.35 268.02l9.25 -2.86 6.08 4.09c11.19,-57.46 121.98,-189.86 150.39,-264.51l-266.88 3.76c0.35,24.82 38.98,99.02 51.57,129.55 13.55,32.84 47.61,109.17 49.58,129.96z"/>
    <path class="fil61" d="M4036.67 847.57c-22.56,24.74 -115.59,67.63 -147.3,84.73 -25.95,14 -45.32,23.87 -74.73,39.72l-65.93 39c6.94,-1.15 -9.77,-4.98 10.4,0 10.74,2.66 12.64,5.59 16.43,7.74 65.71,4.26 88.71,14.57 134.85,42.5 27.95,16.91 86.07,72.73 104.57,77.19 -1.04,-62.02 -33.8,-68.23 -57.39,-104.28 14.76,-34.34 112.4,-110.82 140.02,-145.46 -25.37,13.39 0.43,6.73 -27.72,9.86l-16.76 -51.25 -16.44 0.24z"/>
    <path class="fil62" d="M1521.33 587.41l193.81 5.33c23.26,0.97 38.76,3.22 59.06,-8.2l15.29 -9.71c6.32,-4.56 10.09,-8.69 18.72,-14.46 17.8,-11.9 33.31,-12.59 58.5,-12.01l-4.06 -9.59 -16.33 -5.27 23.54 -144.57c-53.95,22.74 -120.12,67.52 -176.54,96.78 -32.11,16.65 -61.69,35.04 -89.43,51.04 -28.62,16.52 -64.64,31.39 -82.55,50.65z"/>
    <path class="fil63" d="M1136.6 241.04l-13.49 10.69 200.49 124.26c13.3,-4.74 9.64,-3.46 19.52,-13.52l52.04 -68.47c21.17,-27.04 56.14,-63.62 68.45,-97.39 -106.26,2.07 -236.13,17.07 -327.01,44.43z"/>
    <path class="fil47" d="M822.74 2221.82c21.9,6.42 241.82,-10.56 254.76,-18.2 -5.45,-32 -50.36,-72.9 -69.94,-95.3 -20.16,-23.06 -72.37,-102.58 -94.43,-108.76l-90.38 222.26z"/>
    <path class="fil64" d="M4240.42 1814.92c34.24,14.76 87.74,72.69 120.97,102.99 29.82,27.19 85.06,86.41 116.9,104.4 -16.26,-81.26 -63.64,-169.42 -79.17,-254.19l48.5 -20.74 -78.05 0.01 20 -23.17c-11.8,-4.75 -5.95,2.02 -12.17,-15.46 -4.33,-12.17 -2.58,-18.81 -2.98,-27.15 -38.83,28.65 -122.6,97.41 -134,133.32z"/>
    <path class="fil65" d="M2116.65 1064.86c51.86,-63.76 116.3,-104.2 158.99,-156.79l-6.83 -16.45c-59.25,-6.36 -181.52,-30.28 -234.4,-50.9 2.83,24.85 8.14,48.97 10.33,68.67 2.39,21.52 -1.03,53.36 2.48,71.36 4.65,23.81 14.78,24.48 31.43,43.41 16.48,18.75 17.62,26.97 38,40.7z"/>
    <path class="fil66" d="M1869.85 388.93l-23.54 144.57 16.33 5.27c-10.31,-16.13 -5.81,-8.5 -2.3,-33 2.29,-16.01 5.42,-31.02 7.85,-47.19 3.09,-20.52 7.98,-67.19 17.64,-82.98 4.24,-18 56.52,-92.44 69.4,-108.65l51.94 6.57c-23.14,-22.14 -84.76,-31.25 -119.11,-39.82 -37.9,-9.45 -93.96,-25.91 -132.12,-18.24 -34.37,8.54 -71.02,-2.94 -109.49,-3.64 19.39,32.58 133.08,100.32 169.06,128.17 20.41,15.8 43.31,25.05 54.34,48.92z"/>
    <path class="fil29" d="M3113.51 1112.81c3.9,25.54 85.12,130.67 105.4,168.24 -0.79,2.19 -6.48,21.33 -8.26,26.65 52.04,-6.97 80.37,-27.66 127.11,-23.63l-3.96 -15.01 47.91 -2.9 54.58 -0.24 -1.09 -25.55 -318.67 -141.7 -3.02 14.14z"/>
    <path class="fil67" d="M2628.16 58.9l15 -1.83c35.87,7.16 113.96,50.97 152.26,70.61 25.71,13.18 45.17,22.53 74.65,37.62 25.51,13.06 50.2,29.08 80.17,36.72 -12.53,-31.02 -40.11,-65.78 -59.2,-97.15 -9.76,-16.04 -21.39,-32.23 -31.33,-48.84 -5.45,-9.1 -9.5,-15.48 -14.92,-24.11l-17.48 -31.88 200.45 0 -1.44 -0.04 -377.08 0c5.82,36.06 -1.19,35.44 -21.09,58.9z"/>
    <path class="fil68" d="M2480.09 160.89l148.07 -101.99c19.9,-23.45 26.91,-22.83 21.09,-58.9l-278.41 0c6.05,17.49 97.59,152.86 109.25,160.89z"/>
    <path class="fil64" d="M1926.86 1536.07c-31.8,-54.17 -49.41,-154.44 -74.29,-208.77 -27.53,10.15 -7.31,-3.23 -26.15,19.62 -5.41,6.56 -13.58,19.18 -19.16,26.43 -23.76,30.82 -106.65,136.51 -113.09,159.85l232.69 2.87z"/>
    <path class="fil44" d="M1378.15 653.21c44.98,-31.01 114.47,-40.41 181.3,-49.41 35.29,-4.75 69.54,-5.21 108.73,-5.07 27.58,0.1 96.98,13.64 106.01,-14.19 -20.3,11.42 -35.8,9.17 -59.06,8.2l-193.81 -5.33 -0 -1.16 -30.22 -29.23c-36.46,-39.41 -134.84,-152.5 -162.07,-169.26 16.79,62.72 46.25,206.87 49.11,265.45z"/>
    <path class="fil56" d="M1709.18 1951.1c21.97,4.39 136.65,2.65 172.56,5.74 54.63,4.69 123.37,9.19 176.81,9.02l3.44 -8.91c-26.22,-12.45 -60.2,-49.83 -80.46,-68.42 -13.51,-12.4 -23.93,-21.94 -37.79,-35.54 -22.66,-22.23 -19.36,-22.2 -45.44,-24.5 -19.33,8.73 -63.83,66.3 -137.34,98.72 -12.42,5.48 -19.18,6.31 -30.18,10.87 -10.96,4.55 -1.72,0.13 -13.83,7.03 -0.93,0.53 -3.3,4.18 -3.95,2.94 -0.64,-1.23 -2.62,1.96 -3.81,3.07z"/>
    <path class="fil69" d="M2950.25 202.02l12.27 6.43c16.07,-52.86 67.62,-162.32 65.25,-208.42l-200.45 0 17.48 31.88c5.42,8.63 9.46,15.01 14.92,24.11 9.94,16.61 21.57,32.8 31.33,48.84 19.09,31.38 46.67,66.13 59.2,97.15z"/>
    <path class="fil70" d="M1185.71 1307.7l15.59 11.28c43.49,4.95 47.58,33.79 90.53,42.37 -9.2,-16.28 0.18,-2.56 -9.62,-13.69 -6.17,-7.01 -7.55,-7.46 -14.43,-13.58 -63.91,-56.83 -112.7,-129.91 -133.54,-213.2 -17.73,-18.46 -12.93,-17.96 -19.94,-44.93l-149.03 -17.52c13.87,28.41 86.46,98.54 112.33,125.77 29.57,31.12 92.2,92 108.11,123.5z"/>
    <path class="fil64" d="M1898.3 1828.48c26.07,2.31 22.78,2.28 45.44,24.5 13.87,13.6 24.28,23.14 37.79,35.54 20.26,18.59 54.24,55.97 80.46,68.42l-58.17 -182.81 189.37 1.9c146.65,-7.98 332.82,-1.3 489.55,-1.3 -5.81,-11.9 8.08,-12.94 -46.5,-12.66 -99.9,0.54 -667.34,-4 -689.85,5.19 -13.02,5.32 -39.04,43 -48.09,61.2z"/>
    <path class="fil53" d="M2933.29 1728.05c-12.53,0.96 -3.55,-2.38 -15.72,14.32 -6.84,9.39 -10.41,15.92 -16.12,24.3 -11.03,16.17 -23.72,29.5 -30.47,52.72 43.08,17.13 147.67,178.08 200.65,205.32 -1.48,-56.69 -101.02,-240.89 -122.36,-307.79 0.62,24.28 3.54,-0.14 -15.98,11.14z"/>
    <path class="fil34" d="M2061.99 1956.95l-3.44 8.91c32.79,-17.13 54.31,-62.87 71.6,-89.57 16.86,-26.05 50.28,-66.42 63.04,-100.25l-189.37 -1.9 58.17 182.81z"/>
    <path class="fil71" d="M463.32 741.35c-11.35,8.82 -28.63,47.06 -36.77,64.9 -6.34,13.91 -11.6,25.8 -16.53,38.08 -9.2,22.93 -6.7,26.67 -23.15,42.31 0,22.33 16.6,12.8 43.25,10.03 16.37,-1.7 35.26,-4.37 52.61,-5.8 36.11,-2.97 74.26,-7.89 110.24,-4.3l5.02 -12.5c-25.86,-17.17 -39.95,-43.37 -60.46,-70.71 -14.91,-19.88 -41.15,-48.97 -50.72,-70.37 -1.95,1.07 -9.29,3.41 -10.56,3.87 -1.26,0.46 -5.2,4 -6.25,2.17 -1.13,-1.95 -4.51,1.41 -6.69,2.31z"/>
    <path class="fil57" d="M463.32 741.35c2.17,-0.91 5.56,-4.27 6.69,-2.31 1.05,1.83 4.99,-1.71 6.25,-2.17 1.27,-0.46 8.61,-2.8 10.56,-3.87 9.57,21.39 35.81,50.49 50.72,70.37 20.5,27.34 34.59,53.54 60.46,70.71l-23.06 -212.7c-7.52,-64.98 -3.83,-47.73 -17.07,-58.72 -17.6,8.21 -38.38,42.85 -48.89,59.66 -17.12,27.4 -36.22,48.82 -45.64,79.03z"/>
    <path class="fil66" d="M4244.86 129.1l0.27 17.38c1.39,-1.99 2.76,-7.58 3.43,-6.43l15.67 -29.77c6.56,-20.07 21.02,-38.02 30.67,-53.39l27.16 -39.43c0.97,-1.24 2.25,-2.74 3.21,-3.96l6.7 -8.8c0.83,-1.09 2.45,-3.02 3.43,-4.69l-231.33 0c-1.54,24.38 3.87,20.16 24.37,34.8 12.81,9.15 29.8,20.65 43.67,30.67 25.58,18.46 67.06,37.43 72.76,63.63z"/>
    <path class="fil70" d="M3435.2 1240.37c27.25,-19.64 46.64,-36.94 71.53,-56.46 50.31,-39.47 47.13,-14.67 102.4,-27.15 -19,-15.06 -105.98,-10.27 -139.19,-11.46 -53.38,-1.9 -84.66,-9.5 -137.74,-15.44 0.97,1.47 2.68,1.79 3.21,4.19l99.78 106.32z"/>
    <path class="fil60" d="M2186.84 505.09l-1.4 -2.22 10.25 0c19.53,-24.85 46.99,-87.08 67.18,-99.82 -14.1,-25.29 -95.36,-69.72 -118.01,-67.9l-20.4 5.13c15.43,52.63 56.45,116.23 62.38,164.82z"/>
    <path class="fil72" d="M2457.65 806.58c1.69,24.85 -2.29,18.85 16.08,27.31l-9.65 -25.52c42.52,-5.24 98.05,-1.03 137.28,3.66 -11.9,-47.69 -37.44,-80.01 -63.46,-122.59 -24.03,7.05 -31.31,31.97 -45.23,54.93 -13.37,22.06 -30.17,41.3 -35.02,62.2z"/>
    <path class="fil73" d="M1561.3 799.69c17.15,-39.85 -20.39,-37.43 14.6,-97.18 69.17,-15.44 53.61,15.5 100.92,26.36 -12.93,-48.11 -78.36,-94.35 -132.2,-58.61 -39.25,26.06 -32.98,80.73 -15.19,109.4 9.79,15.78 12.65,17.73 31.87,20.03z"/>
    <path class="fil23" d="M2195.69 502.87l-0.48 16.41 9.87 -0.11c10.08,-26.71 108.36,-48.34 140.3,-50.4 -10.22,-22.72 0.44,-6.02 -15.72,-22.38 -3.31,-3.35 -17.3,-13.71 -22.4,-17.61 -16.73,-12.8 -24.22,-22.61 -44.38,-25.74 -20.19,12.74 -47.65,74.97 -67.18,99.82z"/>
    <path class="fil63" d="M3578.91 103.41l-64.22 -103.41 -105.36 0c13.59,20.65 142.04,95.12 169.58,103.41z"/>
    <path class="fil74" d="M4374.42 1681.6c0.39,8.33 -1.36,14.97 2.98,27.15 6.22,17.48 0.37,10.72 12.17,15.46 24.56,-24.39 56.36,-63.63 64.99,-91.14 11.2,-35.71 19.2,-102.48 3.23,-135.38 -37.13,94.91 34.37,55.72 -83.37,183.91z"/>
    <path class="fil75" d="M1899.86 994.15c-5.56,-12.2 -61.22,-77.77 -88.78,-77.67 -3.87,27.43 -14.21,71.11 8.47,86.44 21.9,14.8 62.64,2.21 80.32,-8.77z"/>
    <path class="fil76" d="M4013.08 1521.69c29.63,-25.7 17.72,-37.65 50.96,-57.33 6.37,16.85 4.64,14.78 0.04,41.62 20.28,-8.85 15.55,-35.74 8.71,-53.64 -7.12,-18.65 -14.27,-33.86 -35.44,-36.11 -15.38,32.65 -19.81,65.74 -24.27,105.45z"/>
    <path class="fil77" d="M4013.08 1521.69c-2.46,18.52 -4.4,18.37 4.25,34.15 20.46,-8.27 38.2,-22.79 46.75,-49.86 4.61,-26.84 6.33,-24.78 -0.04,-41.62 -33.25,19.69 -21.33,31.63 -50.96,57.33z"/>
    <path class="fil78" d="M4191.26 1848.21c5.72,14.07 -0.36,9.13 12.93,20.2 23.7,-5.51 21.17,-16.56 28.61,-41.56 -21.33,12.74 -8.21,2.16 -21.94,29l-19.6 -7.64z"/>
   </g>
   <g>
    <path class="fil0" d="M3980.57 2393.83c3.88,24.93 36.23,64.39 54.78,90.51 17.65,24.85 37.76,63.17 62.06,86.54l1159.26 0.21c-10.74,-42.44 -125.06,-204.44 -153.67,-246.77l-154.68 -234.47c-4.14,16.74 -6.24,9.42 -17.92,31.38 -22.13,41.61 -67.83,155.77 -92.21,192.88 -22.94,-2.59 -17.44,-2.2 -48.66,-30.44 -47.52,-42.99 -282.54,-238.56 -298.41,-243.11 -44.22,8.21 -159.08,99.13 -204.19,130.25 -56.64,39.07 -273.65,182.64 -306.37,223.02z"/>
    <path class="fil0" d="M2541.67 1812.45c-5.26,30.43 -33.68,86.12 -45.33,109.87l-136.33 283.9 -286.97 -230.17c-40.53,9.92 -374.79,252.26 -427.69,290.08 -10.65,7.61 -20.63,13.25 -31.57,21.16 -22.28,16.1 -35.88,28.44 -66.94,41.27 -16.2,19.54 -101.82,62.98 -128.12,77.75 -24.92,14 -39.01,22.52 -63.24,36.46 -20.87,12 -51.5,21.27 -56.76,39.69 56.61,32.32 409.4,18.25 500.54,7.63 137.74,-16.05 294.17,-63.28 408.9,-122.26 235.76,-121.19 393.67,-326.63 475.48,-586.41l-140.33 0c10.11,9.09 11.71,18.64 -1.65,31.03z"/>
    <path class="fil1" d="M2962.52 208.45l0.45 10.31 175.83 699.95c1.67,0.27 4.06,-0.44 4.88,1.4 1.06,2.41 8.88,2.1 10.19,2.25 8.57,1 17.76,1.3 22.54,0.3 -40.26,3 -12.98,3.55 -22.4,-8.58 32.95,-72.41 163.84,-296.89 215.56,-393.04l164.55 -296.27c16.37,-26.52 47.88,-76.32 43.12,-105.4l-614.72 89.08z"/>
    <path class="fil2" d="M3176.41 922.66c84.03,-22.63 184.63,-50.81 265.86,-77.17 39.29,-12.74 243.72,-77.39 275.26,-75.41 -34.32,-213.42 -81.54,-403.77 -117.7,-617.16 -6.49,-38.28 0,-25.52 -22.59,-33.55 4.76,29.08 -26.75,78.87 -43.12,105.4l-164.55 296.27c-51.72,96.15 -182.61,320.63 -215.56,393.04 9.42,12.13 -17.85,11.58 22.4,8.58z"/>
    <path class="fil1" d="M807.43 455.26l-1.52 9.7 147.49 589.21 11.87 4.27 149.03 17.52 -0.8 -65.57 -148.25 38.93c2.49,-24.11 7.35,-24.46 19.05,-44.54l248.92 -452.11c22.67,-40.65 77.46,-128.04 88.89,-168.96l-514.68 71.56z"/>
    <path class="fil3" d="M2933.29 1728.05c19.52,-11.28 16.6,13.14 15.98,-11.14 21.34,66.9 120.88,251.1 122.36,307.79 4.98,17.74 2.26,3.31 11.45,24.78l24.31 -0.48 402.71 -311.42 4.61 -2.4 2.13 -6.63 -8.48 -4.89c-50.65,-9.43 -179.91,-74.7 -230.59,-96.55 -40.2,-17.33 -72.2,-32.39 -112.71,-49.02 -30.97,-12.72 -77.16,-41.69 -109.54,-36.85 -15.61,10.43 -111.58,153.13 -122.22,186.82z"/>
    <path class="fil4" d="M3314.11 2305.55c44.37,-12.35 221.39,-125.25 267.47,-152.55 42.46,-25.15 86.88,-50.45 130.67,-76.24 38.25,-22.52 93.9,-65.67 141.2,-70.72 -12.24,-10 -29.06,-20.43 -44.46,-31.12 -23.31,-12.39 -9.72,-17.17 -32.34,-39.83l-261.95 -199.91 -4.61 2.4c-33.1,97.37 -67.67,188.07 -99.05,277.33 -15.43,43.86 -32.35,88.33 -49.28,137.89 -13.79,40.39 -44.18,109.52 -47.66,152.75z"/>
    <path class="fil5" d="M3855.75 2211.67c5.91,26.16 41.69,69.89 57.85,93.85 15.48,22.95 47.54,79.87 66.97,88.31 32.72,-40.38 249.72,-183.95 306.37,-223.02 45.11,-31.12 159.97,-122.04 204.19,-130.25l0 -8.84c-89.46,2.54 -300.84,-25.94 -344.07,-13.16 -3.62,1.07 -5.63,13.09 -11.33,4.24 -1.06,-1.64 -3.65,1.72 -5.58,2.31 -18.08,5.34 -25.98,25.36 -55.3,32.47 -22.31,5.42 -65.58,3.56 -88.25,-0.83 -39.74,-7.7 -91.51,-28.12 -124.59,-50.61 -16.76,49.73 -7.2,149.67 -6.26,205.52z"/>
    <path class="fil6" d="M2789.4 641.35c36.51,29.02 118.61,189.86 156.65,219.59 -4.57,-22.31 -0.38,-12.65 -14.07,-29.61 63.63,13.58 154.41,86.85 206.82,87.39l-175.83 -699.95c-18.14,5.79 -41.9,71.72 -50.94,90.5l-142.01 291.24c8.38,22.17 1.38,3.46 7.72,16.31 0.74,1.5 1.7,3.24 2.42,4.7l9.25 19.85z"/>
    <path class="fil7" d="M4181.76 611.91c-5.29,18.52 -3.25,12.42 64.15,25.4l172.64 36.42c49.83,10.61 65.43,-11.93 106.12,-1.9l227.25 -4.53c31,-1.62 27.25,-5.25 33,-10.54l-60.17 -5.98c-16.18,-61.04 -33.24,-134.57 -44.51,-191.26 -11.91,-59.92 -42.26,-135.02 -41.64,-194.35l-9.25 2.86c-11.22,29.32 -83.15,70.61 -108.35,88.8 -43.91,31.7 -77.54,57.63 -114.94,85.6 -29.84,22.32 -208.8,147.48 -224.3,169.48z"/>
    <path class="fil8" d="M3210.65 1307.7c-36.1,48.37 -142,195.72 -155.15,233.52 32.38,-4.83 78.57,24.13 109.54,36.85 40.5,16.63 72.51,31.7 112.71,49.02 50.69,21.85 179.94,87.12 230.59,96.55 -4.27,-66.74 -18.62,-140.54 -28.91,-204.14 -5.5,-33.97 -11.32,-64.97 -15.13,-98.44 -3.2,-28.14 -3.35,-71.01 -20.98,-87.46 -61.04,-6.3 -68.32,-34.84 -105.57,-49.54 -46.74,-4.03 -75.07,16.66 -127.11,23.63z"/>
    <path class="fil9" d="M901.92 1969.23c3.01,18.41 -7.28,6.48 15.28,14.86 15.52,-5.35 108.75,-80.83 125.65,-93.91 18.99,-14.7 39.07,-30.82 59.64,-46.93 23.04,-18.04 41.02,-42.18 71,-37.44 -6.91,-22.98 -21.89,-42.28 -34.04,-69.84 -4.96,-11.26 -22.5,-60.21 -24.5,-63.35l-22.5 -24.13c-22.68,-21.83 -384.15,-171.11 -393.24,-173.5l-0.26 2.57 202.97 491.67z"/>
    <path class="fil10" d="M2319.73 1056.06c-1.91,46.64 26.18,165.38 35.62,212.77 12.5,62.71 32.81,150.86 38.48,209.74l313.74 -120.33 -0.42 176.63c11.35,-17.21 7.56,-13.62 8.06,-39.85 0.29,-15.04 -0.48,-31.84 -0.51,-47.17 -0.05,-28.64 1.63,-59.14 -1.38,-86.77 -1.31,-1.97 -2.34,-4.52 -3.16,-6.36l-9.3 -23.06c-0.09,-0.24 -6,-16.95 -6.4,-17.74 -14.11,-28.13 -259.41,-265.9 -295.54,-302.82 -21.91,-22.39 -99,-86.88 -96.77,-103.73 0,44.34 24.47,113.76 17.57,148.69z"/>
    <path class="fil11" d="M2275.64 908.07c-42.69,52.58 -107.13,93.03 -158.99,156.79 -2.68,30.22 30.21,74.02 51.9,96.38 40.2,41.45 33.3,60.33 -5.87,93.58 -85.68,72.73 -92.44,85.43 -227.51,78.91 18.15,22.07 58.89,26.57 113.94,41.47 42.32,11.46 79.22,24.15 116.89,35.62 39.83,12.13 199.87,66.4 227.95,63.76l-0.12 4c-5.67,-58.89 -25.98,-147.04 -38.48,-209.74 -9.44,-47.39 -37.53,-166.13 -35.62,-212.77 -20.18,-21.38 -28.27,-130.82 -28.11,-162.96l-12.24 -30.64c4.31,28.56 9.48,24.71 -3.74,45.6z"/>
    <path class="fil12" d="M4245.13 146.48l-78.74 465.19 -1.39 5.49 16.76 -5.25c15.51,-21.99 194.46,-147.16 224.3,-169.48 37.39,-27.97 71.03,-53.9 114.94,-85.6 25.2,-18.19 97.13,-59.48 108.35,-88.8l-13.84 -5c-5.65,-2.09 -3.11,-1.23 -9.61,-3.65 -7.22,-2.69 -16.58,-6.19 -24.81,-9.22l-317.08 -118.26 0.22 -21.61 -15.67 29.77c-0.67,-1.15 -2.04,4.44 -3.43,6.43z"/>
    <path class="fil5" d="M1548.71 1966.61l-1.45 3.19 -0.42 358.77c31.06,-12.83 44.65,-25.17 66.94,-41.27 10.94,-7.91 20.93,-13.55 31.57,-21.16 52.9,-37.82 387.16,-280.16 427.69,-290.08l-4.39 -6.24c-23.79,13.47 -7.5,0.5 -10.09,-3.95 -53.44,0.16 -122.18,-4.33 -176.81,-9.02 -35.91,-3.08 -150.59,-1.34 -172.56,-5.74 -40.26,-1.66 -97.35,17.12 -160.47,15.51z"/>
    <path class="fil13" d="M3508.35 1723.65l8.48 4.89c52.15,-21.16 100.41,-33.05 155.5,-52.39 40.54,-14.24 122.8,-51.89 158.71,-41.51 -7.12,-29.18 -16.19,-45.87 -28.29,-72 -19.48,-42.07 -19.26,-31.34 -21.37,-80.61l2.46 -30.95c-27.92,-10.3 -131.86,-81.8 -173.42,-103.79 -37.02,-19.58 -41.25,-1.12 -78.5,-10l-88.6 -3.69c17.63,16.45 17.77,59.32 20.98,87.46 3.81,33.47 9.64,64.47 15.13,98.44 10.29,63.6 24.64,137.4 28.91,204.14z"/>
    <path class="fil14" d="M2423.31 2492.87l550.99 -144.02 -2.38 -0.09 2.93 -13.49 -11.53 1.06c-2.56,-5.81 -115.51,-117.48 -123.39,-125 -33.88,-32.3 -108,-100.11 -126.28,-127.48l-19.67 4.48c-8.39,3.34 -9.88,6.99 -18.44,19.44l-117.17 176.75c-29.27,42.22 -126.48,181.74 -135.05,208.33z"/>
    <path class="fil15" d="M3176.41 922.66c-4.78,1.01 -13.96,0.7 -22.54,-0.3 -1.31,-0.15 -9.13,0.16 -10.19,-2.25 -0.81,-1.84 -3.21,-1.13 -4.88,-1.4 6.13,16.27 16.38,21.54 27.17,32.36 7.98,8.01 5.22,6.48 13.08,13.7 17.91,16.44 -1.83,4.57 21.19,15.47l-1.44 -23.85c63.39,19.93 39.87,80.97 251.55,74.49 106.19,-3.25 211.5,-14.16 325.2,-12.12 -3.78,-2.15 -5.69,-5.08 -16.43,-7.74 -20.17,-4.99 -3.46,-1.16 -10.4,-0 -27.67,-17.2 -18.32,-90.4 -20.13,-123.65 -1.99,-36.5 -10.99,-90.38 -5.61,-119.52l-5.45 2.24c-31.54,-1.98 -235.97,62.67 -275.26,75.41 -81.23,26.35 -181.83,54.54 -265.86,77.17z"/>
    <path class="fil16" d="M3885.94 305l-24.74 44.2c-5.49,30.69 2.08,6.28 -15.72,31.1 12.77,13.59 277.77,210.8 297.19,218.3 14.5,17.33 -3.3,5.13 23.72,13.05l78.74 -465.19 -0.27 -17.38c-30,6.65 -140.85,72.39 -177.83,93.79 -57.31,33.17 -114.19,69.94 -169.83,97.37 -0.48,-8.96 -11.22,-15.22 -11.26,-15.26z"/>
    <path class="fil17" d="M4494.88 2023.53c-10.92,5.81 -5.78,0.07 -3.75,8.19l0 8.84c15.87,4.55 250.89,200.12 298.41,243.11 31.21,28.24 25.72,27.85 48.66,30.44 24.38,-37.11 70.08,-151.28 92.21,-192.88 11.67,-21.96 13.78,-14.64 17.92,-31.38 -10.91,-17.96 -93.59,-152.52 -111.39,-163.8 -41.2,-15.07 -130.22,29.03 -170.04,43.35 -47.88,17.2 -121.54,48 -172.02,54.13z"/>
    <path class="fil18" d="M380.12 1750.14c-7.27,19.16 5.81,41.6 12.82,58.46 3.99,9.6 7.42,19.34 11.41,28.58 9.74,22.53 4.47,17.59 19.67,28.41 -0.16,-2.21 -0.67,-9.66 -0.48,-10.82 1.99,-12.8 0.84,-6.14 3.34,-11.76l362.3 366.51c26.15,9.83 12.9,2.94 19.31,-1.04 -14.49,-70.43 -185.81,-508.26 -178.85,-525.68 -11.85,-21.33 6.61,-12.5 -22.8,-17.26 -40.88,11 -72.88,15.27 -117.32,22 -36.35,5.5 -82.36,9.27 -113.17,20.53l3.78 42.08z"/>
    <path class="fil6" d="M599.18 874.31l7.39 10.49c59.09,24.01 116.57,55.62 173.39,83.01 55.83,26.91 114.24,56.54 173.44,86.36l-147.49 -589.21c-22.48,15.36 -39.17,68.57 -54.89,99.67 -27.57,54.51 -128.09,276.75 -151.85,309.69z"/>
    <path class="fil19" d="M2670.27 447.06c16.81,52.56 116.8,158.08 119.13,194.28l-9.25 -19.85c-0.72,-1.46 -1.68,-3.2 -2.42,-4.7 -6.33,-12.85 0.67,5.86 -7.72,-16.31l142.01 -291.24c9.04,-18.78 32.81,-84.71 50.94,-90.5l-0.45 -10.31 -12.27 -6.43c-29.97,-7.65 -54.67,-23.67 -80.17,-36.72 -29.48,-15.09 -48.94,-24.44 -74.65,-37.62 -38.31,-19.64 -116.39,-63.45 -152.26,-70.61l40.69 389.89 -13.58 0.11z"/>
    <path class="fil20" d="M3314.11 2305.55l-8.51 7.8c-0.92,34.35 31.61,224.63 36.8,211.48 0.39,-0.98 1.77,3.14 2.89,4.54 4.83,-23.27 -23.28,-175.07 -32.92,-206.24 50.51,6.72 176.76,44.12 235.13,61.21 67.17,19.67 45.76,10.88 59.97,31.01 16.28,-10.19 6.22,-1.9 18.81,-17.73 4.64,-5.83 5.88,-9.05 10.57,-16.23l138.87 -207.04c15.52,-23.95 8.35,-17.62 30.82,-27.84 13.42,25.4 28.77,53.22 49.21,65.15 -0.94,-55.85 -10.5,-155.78 6.26,-205.52l-8.56 -0.12c-47.3,5.05 -102.95,48.2 -141.2,70.72 -43.79,25.79 -88.21,51.09 -130.67,76.24 -46.08,27.3 -223.1,140.2 -267.47,152.55z"/>
    <path class="fil21" d="M592.96 886.58l-130.74 209.83c-22.48,37.94 -46.07,72.55 -67.33,105.75 -16.87,26.34 -48.48,83.91 -69.68,100.21 -2.02,-41.08 11.23,-85.05 3.24,-123.74 -5.01,7.25 -3.8,3.19 -7.42,16.5 -2.51,9.23 -3.11,16.65 -4.02,26.23 -1.28,13.53 -0.17,23.53 -3.61,35.54l0 96.56 363.11 -164.5c20.99,-8.7 35.89,-16.47 59.27,-26.62l41.67 -17.05c1.22,-0.17 3.28,-0.31 4.44,-0.35l8.7 1.37c0.85,0.11 2.99,0.63 4.34,1.3l-8.3 39.4 8.52 -10.47c20.16,-37.56 8.16,-34.4 -1.2,-48.85 -8.84,-20.42 -78.62,-103.81 -92.7,-120.85 -20.54,-24.85 -85.67,-98.39 -94.69,-122.04l-7.39 -10.49 -1.2 -0.23 -5.02 12.5z"/>
    <path class="fil20" d="M1091.14 2198.26c-0.15,20.94 1.57,41.16 4.83,62.5 0.47,3.1 4.74,27.81 4.95,28.54 8.39,28.65 -2.77,9.76 13.32,26.64l-14.83 -103.86c41.26,3.51 378.7,109.44 438.93,118.91l-3.62 -357.76c-72.37,0.4 -72.61,14.02 -124.28,43.51 -37.48,21.4 -67.8,38.86 -105.89,61.82 -43.34,26.13 -183.2,114.63 -213.41,119.69z"/>
    <path class="fil22" d="M3107.38 2048.99c-22.95,7.94 -4.7,-3.19 -8.2,13 8.99,17.59 11.16,17.16 20.69,29.4l152.33 188.34c12.06,13.56 18.16,15.48 17.73,34.49l15.67 -0.87 8.51 -7.8c3.48,-43.23 33.87,-112.37 47.66,-152.75 16.93,-49.56 33.85,-94.03 49.28,-137.89 31.39,-89.27 65.95,-179.97 99.05,-277.33l-402.71 311.42z"/>
    <path class="fil8" d="M699.06 1450.91l-3.52 18.81 3.67 5.28c9.09,2.38 370.56,151.66 393.24,173.5l22.5 24.13 -6.44 -30.47c-15.69,-22.46 -20.39,-72.69 -16.11,-104.07l138.72 -4.83 -29.81 -214.27 -494.13 145.35c-10.56,-9.09 -11.38,13.97 -8.11,-13.43z"/>
    <path class="fil23" d="M4795.07 4.75c-28.41,74.65 -139.21,207.05 -150.39,264.51 76.76,-18.37 157.72,-45.81 235.52,-67.85 75.52,-21.4 164.96,-54.31 240.73,-68.57 -13,26.56 -10.77,13.54 -15.74,40.65 18.32,-13.83 20.36,-18.65 33.16,-39.86 10.13,-16.78 20.73,-32.88 29.07,-45.03 14.98,-21.84 49.56,-68.27 56.59,-88.6l-424.54 0 -4.39 4.75z"/>
    <path class="fil24" d="M4644.68 269.26c18.81,52.26 211.67,239.96 213.57,258.95 12.84,-25.33 -0.24,-8.16 20.13,-11.97 14.74,-4.41 101.7,-145.19 115.66,-166.27 18.76,-28.34 110.18,-155.56 111.13,-176.48 4.97,-27.11 2.74,-14.1 15.74,-40.65 -75.76,14.26 -165.21,47.17 -240.73,68.57 -77.8,22.05 -158.75,49.49 -235.52,67.85z"/>
    <path class="fil25" d="M3814.62 416.33c-7.16,39.44 -6.46,2.89 -19.04,42.94 -3.46,11 -6.58,27.24 -11.25,41.63 -14.44,44.49 -59.15,227.79 -61.35,266.95l13.86 -2.09c1.95,-10.89 224.5,-72.89 255.65,-82.36l162.89 -62.89c-7.46,-19.89 4.25,-5.7 -12.7,-21.89 -19.42,-7.51 -284.41,-204.72 -297.19,-218.3 17.81,-24.83 10.23,-0.41 15.72,-31.1 -19.91,13.47 -40.83,43.03 -46.59,67.12z"/>
    <path class="fil26" d="M2962.52 208.45l614.72 -89.08 -0.34 -12.76 2.01 -3.21c-27.54,-8.29 -155.99,-82.76 -169.58,-103.41l-382.99 0 1.44 0.04c2.37,46.1 -49.18,155.56 -65.25,208.42z"/>
    <path class="fil17" d="M2068.64 1969.81l4.39 6.24 286.97 230.17 136.33 -283.9c11.65,-23.75 40.07,-79.44 45.33,-109.87 -64.24,9.22 -172.57,54.24 -239.79,76.33 -80.06,26.3 -158.22,51.37 -233.24,81.03z"/>
    <path class="fil27" d="M2713.32 1361.08c3.01,27.63 1.33,58.13 1.38,86.77 0.03,15.33 0.8,32.13 0.51,47.17 -0.5,26.23 3.29,22.64 -8.06,39.85l-342.5 1.17 -437.8 0.03 -232.69 -2.87c6.44,-23.35 89.33,-129.03 113.09,-159.85 5.58,-7.25 13.76,-19.87 19.16,-26.43 18.83,-22.85 -1.38,-9.46 26.15,-19.62l-3.25 -6.44c-58,-22.48 -214.82,-4.99 -268.03,12.2 -36.62,11.83 -66.01,26.42 -100.27,47.22 -51.14,31.05 -37.54,49.89 -99.77,34.06 19.94,32.93 159.1,91.8 168.87,115.18l-319 3.72 -138.72 4.83c-4.28,31.39 0.42,81.61 16.11,104.07l-7.95 -98.16 1617.52 1.96c5.49,-25.26 14.62,-306.59 -12.32,-335.58l7.57 150.7z"/>
    <path class="fil28" d="M1521.33 586.25l0 1.16c17.91,-19.26 53.93,-34.14 82.55,-50.65 27.73,-16 57.32,-34.39 89.43,-51.04 56.42,-29.26 122.59,-74.04 176.54,-96.78 -11.03,-23.87 -33.93,-33.12 -54.34,-48.92 -35.98,-27.85 -149.68,-95.59 -169.06,-128.17 38.48,0.7 75.12,12.18 109.49,3.64l-238.01 -19.06c0,80.05 -12.07,330.04 3.4,389.84z"/>
    <path class="fil29" d="M786.64 1187l-87.58 263.91c-3.27,27.39 -2.46,4.34 8.11,13.43l494.13 -145.35 -15.59 -11.28 -391.75 -180.02c9.37,14.45 21.36,11.29 1.2,48.85l-8.52 10.47z"/>
    <path class="fil7" d="M1937.56 701.29c11.43,26.17 37.09,49.3 53.56,70.62 13.81,17.9 31.45,54.36 43.31,68.81 52.88,20.63 175.15,44.54 234.4,50.9l6.83 16.45c13.22,-20.89 8.05,-17.04 3.74,-45.6l-84.17 -343.19 0.48 -16.41 -10.25 0c-9.18,31.33 -85.21,75.21 -119.69,100.97 -45.11,33.7 -93.43,67.16 -128.2,97.44z"/>
    <path class="fil30" d="M1114.3 1075.95c7.02,26.97 2.22,26.46 19.94,44.93 -11.4,-127.08 -19.64,-202.83 41.79,-305.53 38.04,-63.58 122.09,-138.5 202.11,-162.15 -2.86,-58.58 -32.32,-202.73 -49.11,-265.45l-6.93 -4.06c-11.43,40.92 -66.22,128.31 -88.89,168.96l-248.92 452.11c-11.69,20.08 -16.56,20.43 -19.05,44.54l148.25 -38.93 0.8 65.57z"/>
    <path class="fil31" d="M1114.23 2315.93c-9.74,27.16 10.04,113.84 23.78,132.46 54.3,13.34 98.91,29.27 160.7,34.07 5.26,-18.42 35.89,-27.68 56.76,-39.69 24.23,-13.94 38.32,-22.46 63.24,-36.46 26.3,-14.77 111.92,-58.21 128.12,-77.75l0.42 -358.77 -12.55 3.43 3.62 357.76c-60.23,-9.47 -397.67,-115.4 -438.93,-118.91l14.83 103.86z"/>
    <path class="fil32" d="M2423.31 2492.87c-17.75,11.19 -44.55,59.67 -51.32,78.07l483.57 -0.01c8.28,-34.46 40.05,-81.27 57.55,-112.16l58.37 -104.68c0.5,-2.91 1.88,-3.49 2.81,-5.24l-550.99 144.02z"/>
    <path class="fil33" d="M313.42 1353.46l0 5.13c39.21,-3.22 329.18,93.65 382.13,111.13l3.52 -18.81 87.58 -263.91 8.3 -39.4c-1.35,-0.67 -3.5,-1.19 -4.34,-1.3l-8.7 -1.37c-1.16,0.04 -3.22,0.18 -4.44,0.35l-41.67 17.05c-23.37,10.15 -38.28,17.93 -59.27,26.62l-363.11 164.5z"/>
    <path class="fil34" d="M1926.86 1536.07l437.8 -0.03c7.69,-33.56 20.19,-25.43 29.29,-61.46 -28.08,2.64 -188.12,-51.62 -227.95,-63.76 -37.67,-11.48 -74.57,-24.16 -116.89,-35.62 -55.05,-14.9 -95.79,-19.4 -113.94,-41.47l-85.85 -12.87 3.25 6.44c24.88,54.32 42.49,154.59 74.29,208.77z"/>
    <path class="fil35" d="M2829.38 1883.09c-1.68,63.27 42.54,164.76 65.05,227.79 14.83,41.52 25.31,71.42 40.02,113.37 10.03,28.61 41.04,87.58 28.87,112.09l11.53 -1.06c19.8,-13 46.02,-102.55 60.39,-135.35 9.28,-21.19 17.8,-44.69 28.5,-71 7.56,-18.59 15.2,-56.45 35.44,-66.93 3.5,-16.19 -14.75,-5.06 8.2,-13l-24.31 0.48c-9.19,-21.46 -6.47,-7.04 -11.45,-24.78 -52.98,-27.24 -157.57,-188.19 -200.65,-205.32 -13.04,7.8 -15.45,15.24 -25.91,31.69 -8.19,12.89 -13.54,17.46 -15.69,32.02z"/>
    <path class="fil36" d="M3516.83 1728.54l-2.13 6.63 261.95 199.91c22.61,22.65 9.03,27.44 32.34,39.83 -3.5,-32.57 16.33,-63.61 26.51,-88.03 11.94,-28.66 18.21,-41.87 25.56,-81.96 10.92,-59.51 -6,-132.55 -30.02,-170.29 -35.91,-10.38 -118.17,27.27 -158.71,41.51 -55.09,19.35 -103.35,31.24 -155.5,52.39z"/>
    <path class="fil37" d="M2291.62 893.11c-0.17,32.14 7.93,141.57 28.11,162.96 6.89,-34.93 -17.57,-104.35 -17.57,-148.69 -2.22,16.85 74.86,81.34 96.77,103.73 36.12,36.92 281.42,274.69 295.54,302.82 0.39,0.79 6.31,17.5 6.4,17.74l9.3 23.06c0.82,1.83 1.85,4.39 3.16,6.36l-7.57 -150.7c1.48,-20.56 3.93,-0.44 0.57,-14.98 -3,-13 -1.57,-7.98 -6.2,-14.87l4.41 94.99c-6.01,-4.95 -3.49,-0.23 -11.07,-11.66 -7.32,-11.03 -2.01,-2.55 -7.47,-12.64 -5.57,-10.3 -8.47,-17.35 -13.46,-27.15 -35.03,-68.74 -195.36,-368.43 -198.79,-390.19 -18.37,-8.46 -14.4,-2.46 -16.08,-27.31l-14.44 1.28c-8.54,14.11 -120.96,74.95 -151.59,85.25z"/>
    <path class="fil26" d="M728.48 433.62c29.48,-12 49.89,12.09 78.94,21.64l514.68 -71.56 1.49 -7.7 -200.49 -124.26 13.49 -10.69c-112.61,16.08 -334.93,127.24 -408.11,192.58z"/>
    <path class="fil38" d="M3172.38 2326.62c-8.45,6.51 -2.46,3.87 -16.86,8.83 -33.22,11.46 -134.54,4.77 -167.3,19.81 23.69,41.2 183.5,174.69 212.26,215.65l144.98 -0.09 -0.18 -41.44c-1.12,-1.4 -2.5,-5.52 -2.89,-4.54 -5.19,13.15 -37.72,-177.14 -36.8,-211.48l-15.67 0.87 -117.54 12.4z"/>
    <path class="fil39" d="M4264.22 110.27l-0.22 21.61 317.08 118.26c8.23,3.04 17.59,6.53 24.81,9.22 6.5,2.42 3.96,1.56 9.61,3.65l13.84 5c-1.98,-20.8 -36.04,-97.12 -49.58,-129.96 -12.59,-30.54 -51.22,-104.73 -51.57,-129.55l266.88 -3.76 4.39 -4.75 -464.08 0c-0.98,1.67 -2.6,3.6 -3.43,4.69l-6.7 8.8c-0.96,1.23 -2.24,2.73 -3.21,3.96l-27.16 39.43c-9.65,15.36 -24.1,33.31 -30.67,53.39z"/>
    <path class="fil22" d="M917.2 1984.09l-4.07 15.48c22.06,6.17 74.28,85.7 94.43,108.76 19.58,22.4 64.49,63.3 69.94,95.3l13.64 -5.36 124.19 -341.52 -41.84 -50.93c-29.98,-4.73 -47.96,19.4 -71,37.44 -20.57,16.11 -40.65,32.22 -59.64,46.93 -16.9,13.08 -110.12,88.56 -125.65,93.91z"/>
    <path class="fil40" d="M793.96 1127.68l391.75 180.02c-15.91,-31.5 -78.54,-92.38 -108.11,-123.5 -25.87,-27.23 -98.46,-97.35 -112.33,-125.77l-11.87 -4.27c-59.2,-29.82 -117.61,-59.44 -173.44,-86.36 -56.82,-27.39 -114.3,-59 -173.39,-83.01 9.02,23.65 74.15,97.19 94.69,122.04 14.08,17.04 83.86,100.43 92.7,120.85z"/>
    <path class="fil41" d="M1091.14 2198.26c30.2,-5.07 170.06,-93.57 213.41,-119.69 38.09,-22.96 68.41,-40.43 105.89,-61.82 51.66,-29.49 51.9,-43.11 124.28,-43.51l12.55 -3.43 1.45 -3.19c-82.46,-2.37 -121.22,-8.31 -194.33,-31.35 -28.41,-8.95 -51.85,-20.72 -77.33,-36.33 -16.85,-10.33 -43.75,-37.17 -61.72,-42.2l-124.19 341.52z"/>
    <path class="fil12" d="M1862.64 538.77l4.06 9.59c100.96,49.46 15.69,132.59 70.85,152.93 34.77,-30.28 83.09,-63.74 128.2,-97.44 34.48,-25.76 110.51,-69.64 119.69,-100.97l1.4 2.22c-28.5,-12.62 -56.46,-19.74 -85.7,-31.26 -25.03,-9.85 -49.04,-21.67 -74.56,-31.39 -32.85,-12.51 -132.84,-42.24 -140.74,-66.83 -9.66,15.79 -14.56,62.46 -17.64,82.98 -2.43,16.17 -5.56,31.18 -7.85,47.19 -3.51,24.5 -8,16.87 2.3,33z"/>
    <path class="fil24" d="M2205.08 519.17c16.01,27.78 91.07,105.98 122.5,142.75 20.53,24.02 39.01,44.3 62.76,70.56 16.28,18 53.08,50.67 52.88,75.37l14.44 -1.28c4.86,-20.9 21.65,-40.15 35.02,-62.2 13.92,-22.96 21.2,-47.88 45.23,-54.93 -23.95,-54.11 -155.84,-217.04 -192.53,-220.67 -31.93,2.06 -130.22,23.69 -140.3,50.4z"/>
    <path class="fil35" d="M789.18 2209.51c6.2,16.55 -2.4,5.79 11.43,17.29 23.98,-16.28 5,-3.65 22.14,-4.98l90.38 -222.26 4.07 -15.48c-22.56,-8.38 -12.27,3.55 -15.28,-14.86 -36.3,-18.5 -201.15,-220.1 -255.85,-273.59l-16.44 -12.84c-6.96,17.42 164.36,455.25 178.85,525.68 -6.41,3.97 6.84,10.87 -19.31,1.04z"/>
    <path class="fil38" d="M822.74 2221.82c-16.51,30.42 -28.12,30.87 -35.15,69.55 51.44,45.72 269.46,145.06 350.43,157.03 -13.74,-18.62 -33.53,-105.3 -23.78,-132.46 -16.09,-16.88 -4.93,2.01 -13.32,-26.64 -0.21,-0.73 -4.48,-25.44 -4.95,-28.54 -3.25,-21.33 -4.98,-41.56 -4.83,-62.5l-13.64 5.36c-12.94,7.64 -232.85,24.63 -254.76,18.2z"/>
    <path class="fil42" d="M2946.05 860.93c5.52,27.63 112.43,176.52 141.3,222.15 12.86,20.34 8.62,18.13 26.17,29.72l3.02 -14.14 318.67 141.7 -99.78 -106.32c-0.53,-2.4 -2.24,-2.72 -3.21,-4.19 -34.56,-16.24 -57,-17.5 -85.3,-52.36 -28.76,-35.43 -28.74,-61.5 -46.67,-97.26 -23.02,-10.9 -3.28,0.98 -21.19,-15.47 -7.86,-7.22 -5.1,-5.7 -13.08,-13.7 -10.78,-10.82 -21.04,-16.09 -27.17,-32.36 -52.41,-0.54 -143.2,-73.81 -206.82,-87.39 13.69,16.96 9.5,7.31 14.07,29.61z"/>
    <path class="fil31" d="M3345.29 2529.38l0.18 41.44 164.66 -3.02 78.48 -114.35c4.53,-6.4 9.89,-13.5 13.11,-20.07 6.99,-14.25 3.72,-3.57 5.74,-18.01 -14.21,-20.13 7.2,-11.34 -59.97,-31.01 -58.37,-17.09 -184.62,-54.5 -235.13,-61.21 9.64,31.16 37.75,182.96 32.92,206.24z"/>
    <path class="fil43" d="M328.46 1178.63c7.98,38.69 -5.26,82.66 -3.24,123.74 21.19,-16.3 52.81,-73.87 69.68,-100.21 21.26,-33.2 44.84,-67.8 67.33,-105.75l130.74 -209.83c-35.98,-3.58 -74.13,1.33 -110.24,4.3 -17.35,1.43 -36.24,4.1 -52.61,5.8 -26.65,2.77 -43.25,12.3 -43.25,-10.03 3.91,34.03 -77.23,219.57 -58.4,291.98z"/>
    <path class="fil44" d="M3577.24 119.37c22.59,8.03 16.1,-4.73 22.59,33.55 36.16,213.39 83.38,403.74 117.7,617.16l5.45 -2.24c2.21,-39.16 46.92,-222.46 61.35,-266.95 4.67,-14.39 7.79,-30.63 11.25,-41.63 12.59,-40.04 11.89,-3.5 19.04,-42.94 -36.93,0.43 -34.07,-17.26 -70.12,-70.35 -20.03,-29.49 -33.69,-49.61 -53.76,-79.17 -24.07,-35.45 -89.5,-141.24 -113.84,-160.19l0.34 12.76z"/>
    <path class="fil45" d="M329.34 1548.08c-5.59,36.93 5.94,70.01 13.84,103.77 10.8,46.13 12.95,75.42 36.94,98.3l-3.78 -42.08c30.81,-11.26 76.82,-15.03 113.17,-20.53 44.44,-6.73 76.44,-11 117.32,-22l-1.02 -14.01c-48.01,-35.46 -217.74,-227.79 -256.93,-258.87 -25.71,-20.39 -1.64,-4.67 -25.68,-14.83 -1.19,47.61 14.3,133.28 6.14,170.26z"/>
    <path class="fil19" d="M728.48 433.62c-35.51,24.64 -61.44,48.33 -91.54,76.85 -15.57,14.75 -26.15,26.27 -39.43,40.46 -18.58,19.86 -28.24,26.33 -39.68,51.73 13.24,10.99 9.55,-6.26 17.07,58.72l23.06 212.7 1.2 0.23c23.75,-32.93 124.28,-255.18 151.85,-309.69 15.72,-31.09 32.41,-84.3 54.89,-99.67l1.52 -9.7c-29.06,-9.54 -49.46,-33.64 -78.94,-21.64z"/>
    <path class="fil46" d="M313.42 1482.38c7.29,15.86 3.18,13.48 6.12,32.15 1.28,8.13 0.98,10.26 3.31,18.49 4,14.15 0.83,7.04 6.49,15.06 8.16,-36.98 -7.33,-122.65 -6.14,-170.26 24.04,10.16 -0.03,-5.56 25.68,14.83 39.19,31.08 208.92,223.41 256.93,258.87 26.04,3.59 21.49,-4.09 31.27,-33.51 6.27,-18.87 11.59,-30.31 18.06,-47.66 15.56,-41.75 20.33,-80.11 43.81,-92.79l0.26 -2.57 -3.67 -5.28c-52.94,-17.48 -342.91,-114.35 -382.13,-111.13l0 123.78z"/>
    <path class="fil47" d="M2974.85 2335.28l-2.93 13.49c52.39,-13.39 135.13,-23.3 200.46,-22.15l117.54 -12.4c0.43,-19.01 -5.67,-20.93 -17.73,-34.49l-152.33 -188.34c-9.52,-12.24 -11.7,-11.81 -20.69,-29.4 -20.24,10.48 -27.87,48.34 -35.44,66.93 -10.7,26.31 -19.23,49.81 -28.5,71 -14.37,32.8 -40.59,122.36 -60.39,135.35z"/>
    <path class="fil48" d="M2473.73 833.89c3.43,21.76 163.76,321.45 198.79,390.19 4.99,9.8 7.89,16.85 13.46,27.15 5.46,10.09 0.15,1.61 7.47,12.64 7.59,11.43 5.06,6.71 11.07,11.66l-4.41 -94.99c10.21,-63.28 -67.6,-334.73 -98.76,-368.5 -39.23,-4.69 -94.77,-8.9 -137.28,-3.66l9.65 25.52z"/>
    <path class="fil49" d="M4165 617.15c-14.48,60.52 -89.09,164.26 -111.89,230.17l16.76 51.25c28.16,-3.13 2.36,3.53 27.72,-9.86 69.38,-42.4 138.76,-142.74 294.29,-186.97 24.57,-6.99 36.58,-10.65 65.81,-13.84 21.65,-2.36 49.03,-3.77 66.97,-16.08 -40.69,-10.02 -56.29,12.51 -106.12,1.9l-172.64 -36.42c-67.4,-12.98 -69.43,-6.87 -64.15,-25.4l-16.76 5.25z"/>
    <path class="fil50" d="M2193.19 1776.04c-12.76,33.83 -46.18,74.2 -63.04,100.25 -17.29,26.7 -38.81,72.43 -71.6,89.57 2.59,4.44 -13.7,17.42 10.09,3.95 75.02,-29.66 153.18,-54.73 233.24,-81.03 67.21,-22.08 175.54,-67.11 239.79,-76.33 13.36,-12.39 11.76,-21.94 1.65,-31.03l140.33 0 -0.91 -6.68c-156.73,0 -342.89,-6.68 -489.55,1.3z"/>
    <path class="fil18" d="M2693.97 2088.34l19.67 -4.48c18.28,27.36 92.4,95.18 126.28,127.48 7.89,7.52 120.83,119.19 123.39,125 12.17,-24.51 -18.84,-83.47 -28.87,-112.09 -14.71,-41.95 -25.2,-71.85 -40.02,-113.37 -22.51,-63.04 -66.73,-164.52 -65.05,-227.79 -30.48,22.37 -52.34,70.11 -71.81,100.05 -21.38,32.88 -51.26,71.48 -63.6,105.21z"/>
    <path class="fil51" d="M3748.72 1011.02l65.93 -39c29.41,-15.84 48.78,-25.72 74.73,-39.72 31.7,-17.1 124.74,-59.99 147.3,-84.73 -12.71,-17.74 -114.28,-34.15 -149.57,-43.5 -51.71,-13.7 -97.44,-25.18 -150.27,-38.31l-13.86 2.09c-5.38,29.15 3.62,83.02 5.61,119.52 1.81,33.24 -7.54,106.44 20.13,123.65z"/>
    <path class="fil52" d="M2971.92 2348.77l2.38 0.09c-0.93,1.75 -2.31,2.33 -2.81,5.24l-58.37 104.68c-17.5,30.89 -49.27,77.7 -57.55,112.16l344.92 -0.02c-28.76,-40.96 -188.57,-174.45 -212.26,-215.65 32.76,-15.04 134.07,-8.35 167.3,-19.81 14.4,-4.97 8.41,-2.33 16.86,-8.83 -65.33,-1.15 -148.07,8.76 -200.46,22.15z"/>
    <path class="fil53" d="M605.81 1651.52l1.02 14.01c29.41,4.77 10.95,-4.07 22.8,17.26l16.44 12.84c54.7,53.49 219.55,255.09 255.85,273.59l-202.97 -491.67c-23.48,12.68 -28.25,51.04 -43.81,92.79 -6.46,17.35 -11.79,28.79 -18.06,47.66 -9.78,29.41 -5.23,37.09 -31.27,33.51z"/>
    <path class="fil54" d="M3736.83 765.76c52.83,13.13 98.56,24.61 150.27,38.31 35.28,9.35 136.86,25.77 149.57,43.5l16.44 -0.24c22.8,-65.92 97.42,-169.66 111.89,-230.17l1.39 -5.49c-27.02,-7.92 -9.22,4.29 -23.72,-13.05 16.95,16.19 5.23,2 12.7,21.89l-162.89 62.89c-31.15,9.46 -253.7,71.47 -255.65,82.36z"/>
    <path class="fil54" d="M1323.6 375.99l-1.49 7.7 6.93 4.06c27.24,16.76 125.61,129.85 162.07,169.26l30.22 29.23c-15.46,-59.8 -3.4,-309.79 -3.4,-389.84l-54.32 0.2c-12.31,33.77 -47.29,70.35 -68.45,97.39l-52.04 68.47c-9.88,10.07 -6.22,8.78 -19.52,13.52z"/>
    <path class="fil28" d="M3885.94 305c0.04,0.04 10.78,6.3 11.26,15.26 55.63,-27.43 112.52,-64.21 169.83,-97.37 36.98,-21.4 147.83,-87.13 177.83,-93.79 -5.7,-26.2 -47.18,-45.17 -72.76,-63.63 -13.87,-10.02 -30.87,-21.52 -43.67,-30.67 -20.5,-14.64 -25.92,-10.42 -24.37,-34.8l-14.5 0 -203.61 305z"/>
    <path class="fil55" d="M3435.2 1240.37l1.09 25.55 -54.58 0.24c6.94,4.53 3.07,3.24 15.86,6.52 7.28,1.86 11.23,2.12 18.71,2.74l111.85 -9.39c44.37,-12.42 75.58,-45.19 109.33,-53.39 114.82,-27.91 165.53,104.65 119.59,174.93 -42.74,5.76 -66.85,-31.36 -102.25,-50.96 -26.92,-14.9 -97.22,-22.44 -122.88,0.7 37.25,8.87 41.48,-9.59 78.5,10 41.56,21.99 145.5,93.49 173.42,103.79l-2.46 30.95c37.62,-32.02 24,-160.49 25.4,-218.11 36.26,12.85 21.63,21.18 66.43,25.61 -16.16,-31.8 -162.94,-150.57 -264.09,-132.76 -55.26,12.47 -52.09,-12.32 -102.4,27.15 -24.89,19.52 -44.28,36.83 -71.53,56.46z"/>
    <path class="fil34" d="M4478.29 2022.31l16.59 1.22c27.84,-72.84 116.48,-169.12 155.69,-242.46l28.27 3.24 -22.13 -15.25c-0.67,-0.32 -22.15,-7.99 -23.72,-8.51 -64.98,-21.54 -114.55,-16.19 -185.37,-13.18l-48.5 20.74c15.54,84.77 62.91,172.94 79.17,254.19z"/>
    <path class="fil56" d="M4232.81 1826.85c-7.44,25.01 -4.91,36.05 -28.61,41.56 -13.29,-11.07 -7.2,-6.13 -12.93,-20.2l-20.52 -6.82c1.38,38.92 2.38,71.53 -5.65,106.8 -9.03,39.68 -22.81,44.63 -34.94,76.93 1.93,-0.59 4.52,-3.95 5.58,-2.31 5.71,8.85 7.72,-3.18 11.33,-4.24 43.22,-12.78 254.61,15.7 344.07,13.16 -2.03,-8.13 -7.17,-2.38 3.75,-8.19l-16.59 -1.22c-31.84,-18 -87.08,-77.22 -116.9,-104.4 -33.24,-30.3 -86.73,-88.23 -120.97,-102.99l-7.61 11.93z"/>
    <path class="fil39" d="M1885.83 375.6c7.9,24.59 107.89,54.32 140.74,66.83 25.53,9.72 49.53,21.54 74.56,31.39 29.25,11.52 57.2,18.64 85.7,31.26 -5.93,-48.59 -46.94,-112.19 -62.38,-164.82l20.4 -5.13c-10.98,-18.58 2.57,-1.62 -11.39,-12.56l-54.82 -26.14c-16.22,-6.81 -51.57,-22.45 -71.48,-22.93l-51.94 -6.57c-12.88,16.2 -65.16,90.65 -69.4,108.65z"/>
    <path class="fil57" d="M2480.09 160.89c7.15,23.14 172.89,272.96 190.18,286.18l13.58 -0.11 -40.69 -389.89 -15 1.83 -148.07 101.99z"/>
    <path class="fil50" d="M4494.88 2023.53c50.48,-6.13 124.14,-36.93 172.02,-54.13 39.82,-14.31 128.83,-58.42 170.04,-43.35 -12.77,-44.89 -109.17,-138.07 -158.09,-141.75l-28.27 -3.24c-39.21,73.34 -127.85,169.62 -155.69,242.46z"/>
    <path class="fil14" d="M424.02 1865.58c3.56,53.02 110.82,197.35 150.77,241.87 59.31,66.09 137.94,143.91 212.8,183.91 7.03,-38.68 18.64,-39.13 35.15,-69.55 -17.13,1.33 1.84,-11.3 -22.14,4.98 -13.82,-11.5 -5.22,-0.74 -11.43,-17.29l-362.3 -366.51c-2.5,5.62 -1.35,-1.04 -3.34,11.76 -0.18,1.17 0.32,8.61 0.48,10.82z"/>
    <path class="fil58" d="M2393.83 1478.58l0.12 -4c-9.09,36.04 -21.6,27.91 -29.29,61.46l342.5 -1.17 0.42 -176.63 -313.74 120.33z"/>
    <path class="fil59" d="M4784.91 656.76c8.05,-5.04 1.63,1.29 11.77,-11.1 1.42,-1.72 9.23,-13.33 10.8,-15.7 20.77,-31.44 61.38,-84.43 70.91,-113.73 -20.38,3.81 -7.29,-13.36 -20.13,11.97 -1.91,-18.99 -194.77,-206.69 -213.57,-258.95l-6.08 -4.09c-0.63,59.34 29.73,134.43 41.64,194.35 11.27,56.68 28.33,130.22 44.51,191.26l60.17 5.98z"/>
    <path class="fil13" d="M1231.11 1533.25l319 -3.72c-9.76,-23.38 -148.92,-82.25 -168.87,-115.18l-89.41 -52.99c-42.95,-8.58 -47.04,-37.42 -90.53,-42.37l29.81 214.27z"/>
    <path class="fil59" d="M2279.38 862.47l12.24 30.64c30.62,-10.3 143.05,-71.15 151.59,-85.25 0.2,-24.71 -36.6,-57.38 -52.88,-75.37 -23.75,-26.26 -42.23,-46.54 -62.76,-70.56 -31.43,-36.77 -106.49,-114.97 -122.5,-142.75l-9.87 0.11 84.17 343.19z"/>
    <path class="fil60" d="M4629.35 268.02l9.25 -2.86 6.08 4.09c11.19,-57.46 121.98,-189.86 150.39,-264.51l-266.88 3.76c0.35,24.82 38.98,99.02 51.57,129.55 13.55,32.84 47.61,109.17 49.58,129.96z"/>
    <path class="fil61" d="M4036.67 847.57c-22.56,24.74 -115.59,67.63 -147.3,84.73 -25.95,14 -45.32,23.87 -74.73,39.72l-65.93 39c6.94,-1.15 -9.77,-4.98 10.4,0 10.74,2.66 12.64,5.59 16.43,7.74 65.71,4.26 88.71,14.57 134.85,42.5 27.95,16.91 86.07,72.73 104.57,77.19 -1.04,-62.02 -33.8,-68.23 -57.39,-104.28 14.76,-34.34 112.4,-110.82 140.02,-145.46 -25.37,13.39 0.43,6.73 -27.72,9.86l-16.76 -51.25 -16.44 0.24z"/>
    <path class="fil62" d="M1521.33 587.41l193.81 5.33c23.26,0.97 38.76,3.22 59.06,-8.2l15.29 -9.71c6.32,-4.56 10.09,-8.69 18.72,-14.46 17.8,-11.9 33.31,-12.59 58.5,-12.01l-4.06 -9.59 -16.33 -5.27 23.54 -144.57c-53.95,22.74 -120.12,67.52 -176.54,96.78 -32.11,16.65 -61.69,35.04 -89.43,51.04 -28.62,16.52 -64.64,31.39 -82.55,50.65z"/>
    <path class="fil63" d="M1136.6 241.04l-13.49 10.69 200.49 124.26c13.3,-4.74 9.64,-3.46 19.52,-13.52l52.04 -68.47c21.17,-27.04 56.14,-63.62 68.45,-97.39 -106.26,2.07 -236.13,17.07 -327.01,44.43z"/>
    <path class="fil47" d="M822.74 2221.82c21.9,6.42 241.82,-10.56 254.76,-18.2 -5.45,-32 -50.36,-72.9 -69.94,-95.3 -20.16,-23.06 -72.37,-102.58 -94.43,-108.76l-90.38 222.26z"/>
    <path class="fil64" d="M4240.42 1814.92c34.24,14.76 87.74,72.69 120.97,102.99 29.82,27.19 85.06,86.41 116.9,104.4 -16.26,-81.26 -63.64,-169.42 -79.17,-254.19l48.5 -20.74 -78.05 0.01 20 -23.17c-11.8,-4.75 -5.95,2.02 -12.17,-15.46 -4.33,-12.17 -2.58,-18.81 -2.98,-27.15 -38.83,28.65 -122.6,97.41 -134,133.32z"/>
    <path class="fil65" d="M2116.65 1064.86c51.86,-63.76 116.3,-104.2 158.99,-156.79l-6.83 -16.45c-59.25,-6.36 -181.52,-30.28 -234.4,-50.9 2.83,24.85 8.14,48.97 10.33,68.67 2.39,21.52 -1.03,53.36 2.48,71.36 4.65,23.81 14.78,24.48 31.43,43.41 16.48,18.75 17.62,26.97 38,40.7z"/>
    <path class="fil66" d="M1869.85 388.93l-23.54 144.57 16.33 5.27c-10.31,-16.13 -5.81,-8.5 -2.3,-33 2.29,-16.01 5.42,-31.02 7.85,-47.19 3.09,-20.52 7.98,-67.19 17.64,-82.98 4.24,-18 56.52,-92.44 69.4,-108.65l51.94 6.57c-23.14,-22.14 -84.76,-31.25 -119.11,-39.82 -37.9,-9.45 -93.96,-25.91 -132.12,-18.24 -34.37,8.54 -71.02,-2.94 -109.49,-3.64 19.39,32.58 133.08,100.32 169.06,128.17 20.41,15.8 43.31,25.05 54.34,48.92z"/>
    <path class="fil29" d="M3113.51 1112.81c3.9,25.54 85.12,130.67 105.4,168.24 -0.79,2.19 -6.48,21.33 -8.26,26.65 52.04,-6.97 80.37,-27.66 127.11,-23.63l-3.96 -15.01 47.91 -2.9 54.58 -0.24 -1.09 -25.55 -318.67 -141.7 -3.02 14.14z"/>
    <path class="fil67" d="M2628.16 58.9l15 -1.83c35.87,7.16 113.96,50.97 152.26,70.61 25.71,13.18 45.17,22.53 74.65,37.62 25.51,13.06 50.2,29.08 80.17,36.72 -12.53,-31.02 -40.11,-65.78 -59.2,-97.15 -9.76,-16.04 -21.39,-32.23 -31.33,-48.84 -5.45,-9.1 -9.5,-15.48 -14.92,-24.11l-17.48 -31.88 200.45 0 -1.44 -0.04 -377.08 0c5.82,36.06 -1.19,35.44 -21.09,58.9z"/>
    <path class="fil68" d="M2480.09 160.89l148.07 -101.99c19.9,-23.45 26.91,-22.83 21.09,-58.9l-278.41 0c6.05,17.49 97.59,152.86 109.25,160.89z"/>
    <path class="fil64" d="M1926.86 1536.07c-31.8,-54.17 -49.41,-154.44 -74.29,-208.77 -27.53,10.15 -7.31,-3.23 -26.15,19.62 -5.41,6.56 -13.58,19.18 -19.16,26.43 -23.76,30.82 -106.65,136.51 -113.09,159.85l232.69 2.87z"/>
    <path class="fil44" d="M1378.15 653.21c44.98,-31.01 114.47,-40.41 181.3,-49.41 35.29,-4.75 69.54,-5.21 108.73,-5.07 27.58,0.1 96.98,13.64 106.01,-14.19 -20.3,11.42 -35.8,9.17 -59.06,8.2l-193.81 -5.33 -0 -1.16 -30.22 -29.23c-36.46,-39.41 -134.84,-152.5 -162.07,-169.26 16.79,62.72 46.25,206.87 49.11,265.45z"/>
    <path class="fil56" d="M1709.18 1951.1c21.97,4.39 136.65,2.65 172.56,5.74 54.63,4.69 123.37,9.19 176.81,9.02l3.44 -8.91c-26.22,-12.45 -60.2,-49.83 -80.46,-68.42 -13.51,-12.4 -23.93,-21.94 -37.79,-35.54 -22.66,-22.23 -19.36,-22.2 -45.44,-24.5 -19.33,8.73 -63.83,66.3 -137.34,98.72 -12.42,5.48 -19.18,6.31 -30.18,10.87 -10.96,4.55 -1.72,0.13 -13.83,7.03 -0.93,0.53 -3.3,4.18 -3.95,2.94 -0.64,-1.23 -2.62,1.96 -3.81,3.07z"/>
    <path class="fil69" d="M2950.25 202.02l12.27 6.43c16.07,-52.86 67.62,-162.32 65.25,-208.42l-200.45 0 17.48 31.88c5.42,8.63 9.46,15.01 14.92,24.11 9.94,16.61 21.57,32.8 31.33,48.84 19.09,31.38 46.67,66.13 59.2,97.15z"/>
    <path class="fil70" d="M1185.71 1307.7l15.59 11.28c43.49,4.95 47.58,33.79 90.53,42.37 -9.2,-16.28 0.18,-2.56 -9.62,-13.69 -6.17,-7.01 -7.55,-7.46 -14.43,-13.58 -63.91,-56.83 -112.7,-129.91 -133.54,-213.2 -17.73,-18.46 -12.93,-17.96 -19.94,-44.93l-149.03 -17.52c13.87,28.41 86.46,98.54 112.33,125.77 29.57,31.12 92.2,92 108.11,123.5z"/>
    <path class="fil64" d="M1898.3 1828.48c26.07,2.31 22.78,2.28 45.44,24.5 13.87,13.6 24.28,23.14 37.79,35.54 20.26,18.59 54.24,55.97 80.46,68.42l-58.17 -182.81 189.37 1.9c146.65,-7.98 332.82,-1.3 489.55,-1.3 -5.81,-11.9 8.08,-12.94 -46.5,-12.66 -99.9,0.54 -667.34,-4 -689.85,5.19 -13.02,5.32 -39.04,43 -48.09,61.2z"/>
    <path class="fil53" d="M2933.29 1728.05c-12.53,0.96 -3.55,-2.38 -15.72,14.32 -6.84,9.39 -10.41,15.92 -16.12,24.3 -11.03,16.17 -23.72,29.5 -30.47,52.72 43.08,17.13 147.67,178.08 200.65,205.32 -1.48,-56.69 -101.02,-240.89 -122.36,-307.79 0.62,24.28 3.54,-0.14 -15.98,11.14z"/>
    <path class="fil34" d="M2061.99 1956.95l-3.44 8.91c32.79,-17.13 54.31,-62.87 71.6,-89.57 16.86,-26.05 50.28,-66.42 63.04,-100.25l-189.37 -1.9 58.17 182.81z"/>
    <path class="fil71" d="M463.32 741.35c-11.35,8.82 -28.63,47.06 -36.77,64.9 -6.34,13.91 -11.6,25.8 -16.53,38.08 -9.2,22.93 -6.7,26.67 -23.15,42.31 0,22.33 16.6,12.8 43.25,10.03 16.37,-1.7 35.26,-4.37 52.61,-5.8 36.11,-2.97 74.26,-7.89 110.24,-4.3l5.02 -12.5c-25.86,-17.17 -39.95,-43.37 -60.46,-70.71 -14.91,-19.88 -41.15,-48.97 -50.72,-70.37 -1.95,1.07 -9.29,3.41 -10.56,3.87 -1.26,0.46 -5.2,4 -6.25,2.17 -1.13,-1.95 -4.51,1.41 -6.69,2.31z"/>
    <path class="fil57" d="M463.32 741.35c2.17,-0.91 5.56,-4.27 6.69,-2.31 1.05,1.83 4.99,-1.71 6.25,-2.17 1.27,-0.46 8.61,-2.8 10.56,-3.87 9.57,21.39 35.81,50.49 50.72,70.37 20.5,27.34 34.59,53.54 60.46,70.71l-23.06 -212.7c-7.52,-64.98 -3.83,-47.73 -17.07,-58.72 -17.6,8.21 -38.38,42.85 -48.89,59.66 -17.12,27.4 -36.22,48.82 -45.64,79.03z"/>
    <path class="fil66" d="M4244.86 129.1l0.27 17.38c1.39,-1.99 2.76,-7.58 3.43,-6.43l15.67 -29.77c6.56,-20.07 21.02,-38.02 30.67,-53.39l27.16 -39.43c0.97,-1.24 2.25,-2.74 3.21,-3.96l6.7 -8.8c0.83,-1.09 2.45,-3.02 3.43,-4.69l-231.33 0c-1.54,24.38 3.87,20.16 24.37,34.8 12.81,9.15 29.8,20.65 43.67,30.67 25.58,18.46 67.06,37.43 72.76,63.63z"/>
    <path class="fil70" d="M3435.2 1240.37c27.25,-19.64 46.64,-36.94 71.53,-56.46 50.31,-39.47 47.13,-14.67 102.4,-27.15 -19,-15.06 -105.98,-10.27 -139.19,-11.46 -53.38,-1.9 -84.66,-9.5 -137.74,-15.44 0.97,1.47 2.68,1.79 3.21,4.19l99.78 106.32z"/>
    <path class="fil60" d="M2186.84 505.09l-1.4 -2.22 10.25 0c19.53,-24.85 46.99,-87.08 67.18,-99.82 -14.1,-25.29 -95.36,-69.72 -118.01,-67.9l-20.4 5.13c15.43,52.63 56.45,116.23 62.38,164.82z"/>
    <path class="fil72" d="M2457.65 806.58c1.69,24.85 -2.29,18.85 16.08,27.31l-9.65 -25.52c42.52,-5.24 98.05,-1.03 137.28,3.66 -11.9,-47.69 -37.44,-80.01 -63.46,-122.59 -24.03,7.05 -31.31,31.97 -45.23,54.93 -13.37,22.06 -30.17,41.3 -35.02,62.2z"/>
    <path class="fil73" d="M1561.3 799.69c17.15,-39.85 -20.39,-37.43 14.6,-97.18 69.17,-15.44 53.61,15.5 100.92,26.36 -12.93,-48.11 -78.36,-94.35 -132.2,-58.61 -39.25,26.06 -32.98,80.73 -15.19,109.4 9.79,15.78 12.65,17.73 31.87,20.03z"/>
    <path class="fil23" d="M2195.69 502.87l-0.48 16.41 9.87 -0.11c10.08,-26.71 108.36,-48.34 140.3,-50.4 -10.22,-22.72 0.44,-6.02 -15.72,-22.38 -3.31,-3.35 -17.3,-13.71 -22.4,-17.61 -16.73,-12.8 -24.22,-22.61 -44.38,-25.74 -20.19,12.74 -47.65,74.97 -67.18,99.82z"/>
    <path class="fil63" d="M3578.91 103.41l-64.22 -103.41 -105.36 0c13.59,20.65 142.04,95.12 169.58,103.41z"/>
    <path class="fil74" d="M4374.42 1681.6c0.39,8.33 -1.36,14.97 2.98,27.15 6.22,17.48 0.37,10.72 12.17,15.46 24.56,-24.39 56.36,-63.63 64.99,-91.14 11.2,-35.71 19.2,-102.48 3.23,-135.38 -37.13,94.91 34.37,55.72 -83.37,183.91z"/>
    <path class="fil75" d="M1899.86 994.15c-5.56,-12.2 -61.22,-77.77 -88.78,-77.67 -3.87,27.43 -14.21,71.11 8.47,86.44 21.9,14.8 62.64,2.21 80.32,-8.77z"/>
    <path class="fil76" d="M4013.08 1521.69c29.63,-25.7 17.72,-37.65 50.96,-57.33 6.37,16.85 4.64,14.78 0.04,41.62 20.28,-8.85 15.55,-35.74 8.71,-53.64 -7.12,-18.65 -14.27,-33.86 -35.44,-36.11 -15.38,32.65 -19.81,65.74 -24.27,105.45z"/>
    <path class="fil77" d="M4013.08 1521.69c-2.46,18.52 -4.4,18.37 4.25,34.15 20.46,-8.27 38.2,-22.79 46.75,-49.86 4.61,-26.84 6.33,-24.78 -0.04,-41.62 -33.25,19.69 -21.33,31.63 -50.96,57.33z"/>
    <path class="fil78" d="M4191.26 1848.21c5.72,14.07 -0.36,9.13 12.93,20.2 23.7,-5.51 21.17,-16.56 28.61,-41.56 -21.33,12.74 -8.21,2.16 -21.94,29l-19.6 -7.64z"/>
   </g>
  </g>
 </g>
</svg>
