<?xml version="1.0" encoding="UTF-8"?>
<!DOCTYPE svg PUBLIC "-//W3C//DTD SVG 1.1//EN" "http://www.w3.org/Graphics/SVG/1.1/DTD/svg11.dtd">
<!-- Creator: CorelDRAW X7 -->
<svg xmlns="http://www.w3.org/2000/svg" xml:space="preserve" width="26.6921in" height="5.11883in" version="1.1" style="shape-rendering:geometricPrecision; text-rendering:geometricPrecision; image-rendering:optimizeQuality; fill-rule:evenodd; clip-rule:evenodd"
viewBox="0 0 26692 5119"
 xmlns:xlink="http://www.w3.org/1999/xlink">
 <defs>
  <style type="text/css">
   <![CDATA[
    .fil0 {fill:black}
    .fil2 {fill:url(#id0)}
    .fil1 {fill:url(#id1)}
   ]]>
  </style>
  <linearGradient id="id0" gradientUnits="userSpaceOnUse" x1="20447.5" y1="2262.59" x2="25766.1" y2="2426.95">
   <stop offset="0" style="stop-opacity:1; stop-color:#FFC113"/>
   <stop offset="0.411765" style="stop-opacity:1; stop-color:#FD8E2E"/>
   <stop offset="0.541176" style="stop-opacity:1; stop-color:#FC5F36"/>
   <stop offset="1" style="stop-opacity:1; stop-color:#FC3E3C"/>
  </linearGradient>
  <linearGradient id="id1" gradientUnits="userSpaceOnUse" x1="22071.9" y1="732.614" x2="24141.6" y2="3956.9">
   <stop offset="0" style="stop-opacity:1; stop-color:#FD9F28"/>
   <stop offset="0.2" style="stop-opacity:1; stop-color:#FD922C"/>
   <stop offset="0.231373" style="stop-opacity:1; stop-color:#FD932E"/>
   <stop offset="0.301961" style="stop-opacity:1; stop-color:#FDB16D"/>
   <stop offset="0.458824" style="stop-opacity:1; stop-color:#FDE0CB"/>
   <stop offset="0.611765" style="stop-opacity:1; stop-color:#FC9272"/>
   <stop offset="0.631373" style="stop-opacity:1; stop-color:#FC7753"/>
   <stop offset="0.65098" style="stop-opacity:1; stop-color:#FC5F36"/>
   <stop offset="1" style="stop-opacity:1; stop-color:#FC3E3C"/>
  </linearGradient>
 </defs>
 <g id="Layer_x0020_1">
  <metadata id="CorelCorpID_0Corel-Layer"/>
  <g id="_364362784">
   <path class="fil0" d="M3156 936c521,0 879,267 1043,559l0 -512 471 0 0 2804 -471 0 0 -521c-170,301 -531,565 -1049,565 -748,0 -1325,-587 -1325,-1457 0,-870 577,-1438 1331,-1438l0 0zm91 405c-512,0 -948,374 -948,1033 0,660 436,1049 948,1049 512,0 952,-383 952,-1043 0,-650 -440,-1039 -952,-1039z"/>
   <polygon class="fil0" points="26227,0 26227,0 26227,3787 26692,3787 26692,0 "/>
   <path class="fil0" d="M18738 936c750,0 1328,565 1328,1438 0,876 -578,1457 -1328,1457 -10,3 -19,3 -25,3 -418,0 -804,-213 -1024,-565l0 1850 -468 0 0 -4136 468 0 0 518c166,-298 537,-565 1049,-565l0 0 0 0zm-98 405c-508,0 -945,374 -945,1033 0,660 437,1049 945,1049 512,0 952,-383 952,-1043 0,-650 -440,-1039 -952,-1039z"/>
   <path class="fil0" d="M14213 0l468 0 0 1388c182,-295 528,-455 924,-455 624,0 1120,399 1120,1202l0 1652 -462 0 0 -1586c0,-574 -311,-866 -781,-866 -471,0 -804,295 -804,901l0 1551 -465 0 0 -3787 0 0 0 0z"/>
   <path class="fil0" d="M12483 936c694,0 1149,358 1294,948l-499 0c-98,-339 -380,-552 -795,-552 -512,0 -892,361 -892,1048 0,694 380,1059 892,1059 411,0 691,-198 795,-553l499 0c-141,559 -597,948 -1294,948 -798,0 -1366,-562 -1366,-1454 0,-879 568,-1444 1366,-1444l0 0 0 0z"/>
   <path class="fil0" d="M10272 2201c0,-574 -311,-866 -782,-866 -471,0 -804,295 -804,901l0 1551 -464 0 0 -2804 464 0 0 399c186,-292 522,-449 902,-449 647,0 1146,399 1146,1202l0 1652 -462 0 0 -1586 0 0 0 0z"/>
   <path class="fil0" d="M7700 3787l-465 0 0 -411c-175,292 -521,455 -895,455 -646,0 -1152,-399 -1152,-1202l0 -1646 462 0 0 1580c0,568 310,860 782,860 480,0 803,-295 803,-901l0 -1539 465 0 0 2804 0 0 0 0z"/>
   <polygon class="fil0" points="465,220 465,3407 1715,3407 1715,3787 0,3787 0,220 "/>
   <g>
    <path class="fil1" d="M22739 3516c6,-2 9,-5 15,-10 13,-10 40,-30 51,-43m6 -5c5,-2 7,-4 12,-9l36 -33c6,-6 3,-2 6,-8m2 -2c7,-5 19,-18 25,-24 11,-8 20,-17 25,-29m-342 -312c-5,4 -10,9 -15,14m110 511c17,-8 47,-31 60,-43m-494 -1717c4,7 37,42 44,44 6,8 9,13 18,17 4,11 15,23 24,24 5,10 35,42 43,44 6,11 9,12 19,22 4,4 6,6 10,10 4,3 1,1 4,4 5,3 3,2 7,3 4,8 17,23 25,25 4,8 5,8 12,15l8 7c5,4 0,1 5,3 3,6 1,4 6,9 9,9 1,3 8,5 4,7 4,7 10,13 2,2 5,4 6,5 6,5 2,2 6,4l28 28c4,7 4,7 11,13 1,2 3,4 5,5 6,4 2,2 7,4 3,8 3,7 10,13 2,2 4,4 6,5 5,4 2,2 6,4 3,7 3,6 9,12 2,2 2,2 4,4 6,4 2,2 6,3 5,8 6,9 12,15l13 10c5,9 11,13 18,20 3,3 6,6 9,9 5,5 4,5 10,7 3,7 3,7 9,12 2,2 2,3 4,4 5,4 2,2 7,4 5,10 21,27 30,30 6,11 15,18 25,27 8,8 16,19 26,23 5,10 16,21 25,25 5,10 35,40 44,45 5,8 10,12 19,21 8,8 13,15 21,20l1 12c2,16 -8,32 -5,48 -6,8 -12,39 -11,47 -8,12 -10,39 -18,54l-4 24c-1,1 -1,1 -1,2l-3 4c0,1 0,1 -1,2l-20 65 -10 19c-4,9 -6,11 -6,21 -7,6 -7,10 -10,18 -4,9 -7,11 -7,21 -7,6 -14,20 -14,30 -8,6 -24,42 -30,52 -5,9 -28,45 -29,53l-18 25c-5,7 -14,17 -15,25 -9,6 -12,13 -19,22 -5,8 -11,14 -14,22 -5,5 -9,11 -13,15 -6,7 -11,12 -15,17 -3,2 -2,1 -6,6 -2,2 -2,3 -3,4 -3,3 -6,6 -9,10l-6 5 -2 2c-2,2 -4,5 -7,7 -13,14 -30,31 -48,46 -23,19 -48,36 -80,59 -30,23 -68,51 -115,76l-2 1 -52 23 -35 13 -54 16 -52 11 -45 9 -62 7 0 -1 -7 1 -59 5c-41,1 -76,2 -116,-1 -19,-1 -36,-3 -51,-5 -16,-2 -35,-7 -50,-4 -7,-5 -19,-6 -27,-8 -11,-2 -18,-4 -29,-3 -12,-9 -52,-16 -69,-19l-70 -22c-131,-57 -172,-72 -285,-163 -40,-32 -88,-82 -121,-122 -2,-2 -4,-5 -6,-6l-7 -6c-1,-8 -5,-10 -11,-18 -23,-29 -48,-68 -66,-100 -8,-14 -14,-33 -26,-43 -1,-12 -15,-36 -21,-50 -5,-13 -15,-44 -23,-52l-25 -86c-2,-6 -3,-9 -4,-15 -1,-3 -1,-5 -2,-7 -1,-1 -1,-1 -1,-2l-4 -6c2,-9 -18,-111 -20,-133 -6,-53 -6,-103 -5,-155l5 -67 12 -70c2,-55 52,-192 76,-244 39,-81 79,-138 127,-199 44,-55 108,-114 167,-156 31,-22 62,-43 98,-62 11,-6 109,-53 109,-53 22,-6 46,-16 68,-24 23,-7 45,-14 69,-20 50,-13 96,-19 146,-29 20,1 40,39 55,44l26 25 13 16c5,6 9,10 15,11 4,9 3,7 10,14 2,2 4,4 6,5 7,5 1,2 6,4 3,7 44,51 56,55 5,9 10,13 17,20l13 13c5,4 2,2 6,3l28 28c7,13 27,29 39,41l14 12c5,8 35,38 46,47 5,5 1,3 7,5 7,11 24,29 34,34 7,12 18,20 29,31 10,10 19,21 29,27l0 0zm732 68c-9,-3 -9,-5 -16,-12 -6,-7 -6,-8 -14,-12 -4,-8 -16,-20 -25,-25 -4,-8 -14,-17 -23,-22 -3,-8 -13,-17 -22,-22 -4,-7 -11,-15 -19,-19 -4,-9 -22,-26 -31,-31 -5,-9 -13,-16 -23,-23 -1,-7 3,-1 -4,-7 -5,-6 -4,-4 -10,-7 -1,-7 -2,-6 -8,-12 -7,-7 -4,-5 -12,-9l-10 -13c-7,-7 -7,-8 -15,-12 -2,-7 -30,-34 -40,-38l-8 -12c-4,-5 -6,-6 -11,-11 -11,-10 -15,-17 -25,-22 -1,-4 1,0 -3,-6 -2,-2 -4,-4 -6,-5 -6,-7 -6,-7 -13,-11 -2,-5 1,1 -4,-6 -1,-2 -2,-3 -4,-4 -5,-6 -5,-6 -12,-9l-9 -12c-11,-11 -25,-27 -36,-32 -2,-9 -3,-7 -13,-16 -12,-13 -33,-37 -45,-43 -3,-7 -1,-2 -6,-9 -3,-3 -5,-5 -9,-8 -7,-8 -10,-12 -19,-16l-5 -7c-2,-3 -4,-5 -7,-7 -5,-5 -7,-8 -12,-13 -10,-10 -17,-20 -29,-25 -2,-7 0,-3 -5,-8l-48 -45c-2,-6 0,-3 -5,-8 -2,-3 -4,-4 -7,-7 -7,-6 -7,-9 -16,-13 -4,-8 -28,-33 -39,-38 -4,-10 -15,-18 -24,-28 -10,-9 -17,-19 -28,-25 -3,-5 -6,-8 -11,-14 -6,-8 -5,-7 -13,-11 -2,-6 1,-1 -5,-7 0,-2 -4,-5 -5,-6 -7,-7 -6,-8 -16,-12 -1,-5 -4,-8 -11,-14l-16 -13c-2,-8 -13,-16 -22,-25l-141 -139c-10,-11 -14,-17 -25,-22l-6 -2c-215,-7 -410,20 -607,97 -1,0 -8,3 -8,3l-9 6c-13,0 -56,21 -73,29 -10,5 -14,7 -24,11 -92,43 -181,103 -258,160 -93,71 -173,152 -246,241 -10,12 -25,29 -31,43 -1,0 -2,0 -2,1l-3 3c-28,31 -131,199 -132,220 -20,18 -78,185 -84,204 -12,37 -57,204 -50,238 -5,7 -4,9 -5,19 -1,5 -1,11 -2,17 -1,13 -3,25 -1,38 -7,10 -6,39 -3,52l-4 0 0 122c6,15 5,64 7,84 6,58 14,107 26,164 5,24 15,52 18,74 8,23 31,110 41,121 3,15 32,85 38,92 6,24 51,107 63,125 13,28 64,101 83,127l68 87c5,6 6,7 12,14 3,3 4,5 6,7 1,1 3,2 3,3 5,3 0,1 4,2l32 37c30,33 71,71 106,100 50,42 99,79 158,118 54,35 113,68 176,97 53,24 142,63 203,75l86 23 78 15 80 12 74 6 110 4 78 -2c9,0 12,0 17,-2 3,0 6,0 9,0 4,1 7,1 13,0 2,0 6,-1 8,-1l0 0 2 0c4,-1 9,-1 13,-2 22,1 71,-4 95,-11 12,-1 22,-3 32,-5 12,-1 24,-4 33,-7 6,-1 12,-2 18,-4 16,-1 33,-7 47,-11l1 0c28,-7 59,-15 75,-21 8,-2 12,-4 15,-6 7,-2 15,-4 22,-7 5,-1 12,-3 21,-6 17,-5 39,-15 60,-25 21,-10 41,-20 64,-32 24,-11 51,-25 72,-36 20,-12 34,-22 52,-34 5,-4 10,-7 16,-12 15,-10 31,-21 49,-34 3,-3 7,-6 11,-9 3,-2 6,-4 9,-7 19,-14 38,-29 56,-44 3,-3 7,-6 10,-9 2,-2 4,-4 6,-5 18,-16 35,-32 51,-47l3 -3 2 -2c14,-14 27,-28 41,-45 3,-2 5,-5 8,-8 0,0 1,0 1,0l14 -13c9,-9 10,-7 14,-18 1,0 1,-1 2,-1l13 -13c3,-3 4,-5 6,-8l8 -11c0,0 1,-1 1,-1l38 -49c2,-1 0,1 4,-2 0,-1 5,-6 5,-6 3,-5 4,-7 8,-14 9,-6 32,-43 35,-51 12,-7 84,-132 92,-157 7,-3 20,-35 23,-45l22 -49 19 -46 21 -55c15,4 10,8 22,14 4,9 16,20 25,25 4,8 6,9 14,14 3,7 7,9 14,16 6,6 9,10 17,14 4,9 18,23 28,28 3,8 11,15 19,19 4,8 25,30 34,34 3,10 2,4 9,12 3,3 3,4 5,6 7,6 1,2 10,6 1,4 -1,2 3,6 1,2 4,5 5,6 6,7 6,7 14,11 1,4 -1,-1 2,4 0,1 5,6 5,6 6,7 4,5 12,9 1,4 0,2 4,6 1,2 4,5 6,7 7,7 6,7 16,12 1,7 8,11 14,17 2,2 4,4 4,4 9,10 5,8 15,12 2,6 -5,-1 4,8 6,5 3,3 10,6 1,5 -1,0 2,4l31 29 31 31c2,4 -2,0 5,7 6,6 2,3 9,6 1,4 -1,1 4,6 2,3 4,5 6,7 7,7 7,8 15,12 1,4 -1,1 4,6l44 41c1,4 -1,1 2,5 2,3 3,3 5,6 9,9 23,24 32,28 1,4 -1,3 4,8 6,5 3,3 10,6 2,6 -1,2 5,8 3,3 6,5 8,8 7,7 9,10 17,14 2,4 0,1 3,5l31 29c2,6 6,8 12,14 6,7 7,9 16,13 3,8 5,10 14,14 3,8 5,10 14,14 4,10 15,18 23,26 9,9 16,18 27,24 3,7 11,15 19,19 4,8 14,18 22,22 3,6 4,8 9,13 6,7 7,8 15,12 1,4 0,2 3,6 2,2 5,5 7,7 7,7 6,8 15,12 1,4 0,2 4,6 1,2 3,4 5,6 6,6 6,6 14,10 2,10 128,130 140,142l35 35c7,7 6,7 15,11l23 3c142,4 269,-7 401,-39 58,-14 113,-30 167,-50 23,-8 144,-56 150,-66 56,-18 296,-179 315,-213l9 -6c87,-73 192,-198 253,-293 38,-59 67,-114 100,-181 13,-27 76,-180 74,-206 18,-23 46,-219 49,-249 2,-19 3,-81 7,-93l0 -93 -3 0c6,-20 -3,-108 -8,-133 -23,-253 -146,-517 -291,-705 -37,-49 -110,-131 -158,-173 -70,-61 -97,-87 -185,-146 -98,-66 -212,-124 -330,-165 -135,-46 -275,-74 -422,-79l-21 -1 -129 1 -8 0 0 1 -81 5 -126 20c-26,6 -109,22 -124,33 -13,0 -89,26 -96,33 -38,9 -91,38 -125,54l-40 23c-14,5 -61,32 -67,41 -19,3 -107,72 -117,81 -9,6 -14,11 -22,17 -11,8 -100,87 -103,98 -14,7 -68,72 -77,83 -9,8 -16,19 -25,30 -4,5 -8,10 -13,16 -6,7 -8,8 -10,17 -10,5 -26,32 -33,42 -6,9 -11,16 -16,23 -6,9 -11,14 -13,23 -11,9 -70,108 -72,123 -13,11 -24,44 -33,61 -5,12 -19,39 -20,50 -10,10 -26,57 -32,74l-10 25 0 0zm387 381c-2,-10 1,-17 2,-27l12 -61 15 -60 28 -91 26 -72 7 -13c6,-19 18,-35 23,-54 1,0 50,-86 53,-91 3,-2 42,-58 49,-66 4,-4 7,-9 12,-15 6,-7 8,-13 14,-14 9,-15 18,-24 33,-37 12,-12 21,-24 35,-36 10,-10 25,-22 36,-32 9,-7 35,-24 38,-31 12,-6 15,-9 26,-17 20,-14 67,-45 91,-53 6,-10 63,-29 74,-39 7,0 17,-4 22,-8 11,-3 67,-21 73,-26l96 -22 48 -10 64 -8 41 -3c19,-1 38,-3 58,-2 19,0 38,3 56,2 11,4 77,10 95,12 144,23 283,75 402,155 56,37 76,56 124,99 151,138 261,363 286,573l3 17c2,7 1,4 3,7 -5,15 2,63 3,82 3,156 -22,296 -82,436 -8,18 -18,36 -24,54 -4,3 -29,49 -34,58 -12,19 -24,38 -36,55 -15,21 -26,36 -41,54l-41 49 -16 14c-47,49 -113,99 -171,135 -14,9 -63,33 -70,42 -9,1 -68,29 -84,35 -27,11 -57,22 -86,31 -66,20 -123,28 -192,41 -21,-1 -40,-39 -55,-43l-25 -25c-4,-8 -17,-23 -25,-25 -4,-7 -5,-8 -11,-14 -1,-1 -4,-4 -6,-5 -7,-5 -1,-2 -6,-3 -4,-8 -5,-9 -12,-15 -2,-2 -5,-5 -7,-7 -6,-5 -1,-2 -6,-3 -3,-7 -4,-7 -9,-13 -2,-2 -3,-3 -6,-4 -4,-3 -1,-1 -5,-3 -4,-8 -5,-8 -12,-15 -7,-6 -27,-29 -35,-32 -3,-7 -1,-3 -6,-9 -6,-5 -5,-3 -8,-5 -4,-6 -1,-3 -6,-9 -6,-6 -3,-3 -8,-5 -5,-8 -8,-10 -15,-17 -3,-3 -5,-6 -8,-8 -6,-5 -2,-3 -8,-5 -4,-9 -9,-12 -16,-19 -3,-3 -5,-5 -8,-8 -7,-6 -3,-4 -10,-6 -4,-10 -6,-9 -13,-16 -3,-3 -3,-4 -7,-7 -5,-4 -3,-3 -7,-5 -4,-6 -1,-4 -7,-9 -5,-5 -3,-3 -7,-5 -5,-9 -12,-14 -19,-21 -6,-6 -13,-15 -20,-18 -6,-10 -15,-16 -24,-25 -7,-7 -15,-18 -24,-22 -6,-10 -16,-21 -25,-25 -5,-8 -7,-11 -14,-14 -3,-6 -20,-25 -28,-28 -5,-9 -27,-33 -34,-34 -3,-8 -1,-5 -8,-12 -1,-1 -2,-2 -4,-3 -5,-3 0,-1 -5,-2 -4,-10 -16,-20 -24,-28l-9 -5c-4,-8 -17,-23 -25,-25 -4,-8 -3,-6 -9,-13 -1,0 -4,-3 -5,-3 -7,-6 -1,-2 -6,-4 -4,-8 -4,-7 -10,-13 -2,-2 -4,-4 -6,-6 -4,-3 -3,-2 -6,-3 -4,-8 -4,-7 -11,-14 -2,-1 -4,-3 -5,-5 -7,-5 -2,-2 -7,-3 -4,-10 -17,-20 -26,-29 -3,-3 -1,-2 -4,-4 -6,-4 -2,-2 -6,-3 -4,-7 -1,-5 -8,-11 0,-1 -3,-3 -4,-4 -5,-3 -1,-1 -5,-2 -3,-7 -22,-27 -30,-30 -4,-8 -20,-25 -29,-28 -3,-6 0,-4 -6,-9 -6,-6 -2,-3 -7,-5 -4,-7 -4,-6 -10,-12 -1,-1 -2,-3 -4,-4 -5,-4 -2,-2 -6,-3 -5,-9 -8,-11 -15,-18 -3,-2 -4,-4 -7,-7 -6,-5 -2,-3 -9,-6 -5,-9 -9,-11 -16,-18 -7,-7 -10,-12 -17,-15 -5,-9 -10,-12 -16,-19 -7,-6 -11,-11 -18,-15 -4,-7 -4,-7 -10,-13 -2,-2 -4,-3 -6,-5 -7,-5 -2,-2 -6,-4 -5,-9 -11,-13 -18,-19 -7,-7 -11,-13 -19,-17 -4,-8 -4,-8 -11,-11 -5,-10 -16,-21 -25,-25 -7,-14 -46,-39 -51,-61l0 0zm-351 983c0,-1 0,-1 -1,-3 1,2 1,2 1,3zm-349 -292c-1,0 -1,-1 -1,-1l1 1z"/>
    <path class="fil2" d="M22739 3516c6,-2 9,-5 15,-10 13,-10 40,-30 51,-43m6 -5c5,-2 7,-4 12,-9l36 -33c6,-6 3,-2 6,-8m2 -2c7,-5 19,-18 25,-24 11,-8 20,-17 25,-29m-342 -312c-5,4 -10,9 -15,14m110 511c17,-8 47,-31 60,-43m244 -234c0,0 1,-1 1,-1l38 -49c2,-1 0,1 4,-2 0,-1 5,-6 5,-6 3,-5 4,-7 8,-14 9,-6 32,-43 35,-51 12,-7 84,-132 92,-157 7,-3 20,-35 23,-45l22 -49 19 -46 21 -55c6,-11 9,-27 16,-36l1 -15 16 -50 1 -2c1,-2 2,-4 2,-6 3,-10 5,-25 11,-31l-1 -9 7 -22c1,-10 3,-15 5,-24 2,-10 3,-20 8,-26l2 -25c3,-7 3,-23 9,-31 -2,-15 3,-31 6,-47l4 -34c2,-8 0,-3 4,-8l-1 -17c1,-4 1,-8 2,-12l3 -15c0,0 1,-1 1,-2l-1 -16c1,-8 0,-20 5,-26 -3,-20 2,-42 4,-63 3,-11 3,-33 9,-42 -2,-10 1,-17 2,-27l12 -61 15 -60 28 -91 26 -72 7 -13c6,-19 18,-35 23,-54 1,0 50,-86 53,-91 3,-2 42,-58 49,-66 4,-4 7,-9 12,-15 6,-7 8,-13 14,-14 9,-15 18,-24 33,-37 12,-12 21,-24 35,-36 10,-10 25,-22 36,-32 9,-7 35,-24 38,-31 12,-6 15,-9 26,-17 20,-14 67,-45 91,-53 6,-10 63,-29 74,-39 7,0 17,-4 22,-8 11,-3 67,-21 73,-26l96 -22 48 -10 64 -8 41 -3c19,-1 38,-3 58,-2 19,0 38,3 56,2 11,4 77,10 95,12 144,23 283,75 402,155 56,37 76,56 124,99 151,138 261,363 286,573l3 17c2,7 1,4 3,7 -5,15 2,63 3,82 3,156 -22,296 -82,436 -8,18 -18,36 -24,54 -4,3 -29,49 -34,58 -12,19 -24,38 -36,55 -15,21 -26,36 -41,54l-41 49 -16 14c-47,49 -113,99 -171,135 -14,9 -63,33 -70,42 -9,1 -68,29 -84,35 -27,11 -57,22 -86,31 -66,20 -123,28 -192,41 -21,-1 -40,-39 -55,-43l-25 -25c-4,-8 -17,-23 -25,-25 -4,-7 -5,-8 -11,-14 -1,-1 -4,-4 -6,-5 -7,-5 -1,-2 -6,-3 -4,-8 -5,-9 -12,-15 -2,-2 -5,-5 -7,-7 -6,-5 -1,-2 -6,-3 -3,-7 -4,-7 -9,-13 -2,-2 -3,-3 -6,-4 -4,-3 -1,-1 -5,-3 -4,-8 -5,-8 -12,-15 -7,-6 -27,-29 -35,-32 -3,-7 -1,-3 -6,-9 -6,-5 -5,-3 -8,-5 -4,-6 -1,-3 -6,-9 -6,-6 -3,-3 -8,-5 -5,-8 -8,-10 -15,-17 -3,-3 -5,-6 -8,-8 -6,-5 -2,-3 -8,-5 -4,-9 -9,-12 -16,-19 -3,-3 -5,-5 -8,-8 -7,-6 -3,-4 -10,-6 -4,-10 -6,-9 -13,-16 -3,-3 -3,-4 -7,-7 -5,-4 -3,-3 -7,-5 -4,-6 -1,-4 -7,-9 -5,-5 -3,-3 -7,-5 -5,-9 -12,-14 -19,-21 -6,-6 -13,-15 -20,-18 -6,-10 -15,-16 -24,-25 -7,-7 -15,-18 -24,-22 -6,-10 -16,-21 -25,-25 -5,-8 -7,-11 -14,-14 -3,-6 -20,-25 -28,-28 -5,-9 -27,-33 -34,-34 -3,-8 -1,-5 -8,-12 -1,-1 -2,-2 -4,-3 -5,-3 0,-1 -5,-2 -4,-10 -16,-20 -24,-28l-9 -5c-4,-8 -17,-23 -25,-25 -4,-8 -3,-6 -9,-13 -1,0 -4,-3 -5,-3 -7,-6 -1,-2 -6,-4 -4,-8 -4,-7 -10,-13 -2,-2 -4,-4 -6,-6 -4,-3 -3,-2 -6,-3 -4,-8 -4,-7 -11,-14 -2,-1 -4,-3 -5,-5 -7,-5 -2,-2 -7,-3 -4,-10 -17,-20 -26,-29 -3,-3 -1,-2 -4,-4 -6,-4 -2,-2 -6,-3 -4,-7 -1,-5 -8,-11 0,-1 -3,-3 -4,-4 -5,-3 -1,-1 -5,-2 -12,0 -16,9 -23,17 -5,6 5,-5 -3,3 -11,11 4,-4 -3,3l-47 47c-3,3 -3,3 -6,6l-64 64c0,0 -1,1 -1,1l-7 7c-1,0 -1,1 -2,1 0,1 -1,1 -1,2l-111 108c-10,10 -62,59 -61,67 3,8 11,15 19,19 4,8 25,30 34,34 3,10 2,4 9,12 3,3 3,4 5,6 7,6 1,2 10,6 1,4 -1,2 3,6 1,2 4,5 5,6 6,7 6,7 14,11 1,4 -1,-1 2,4 0,1 5,6 5,6 6,7 4,5 12,9 1,4 0,2 4,6 1,2 4,5 6,7 7,7 6,7 16,12 1,7 8,11 14,17 2,2 4,4 4,4 9,10 5,8 15,12 2,6 -5,-1 4,8 6,5 3,3 10,6 1,5 -1,0 2,4l31 29 31 31c2,4 -2,0 5,7 6,6 2,3 9,6 1,4 -1,1 4,6 2,3 4,5 6,7 7,7 7,8 15,12 1,4 -1,1 4,6l44 41c1,4 -1,1 2,5 2,3 3,3 5,6 9,9 23,24 32,28 1,4 -1,3 4,8 6,5 3,3 10,6 2,6 -1,2 5,8 3,3 6,5 8,8 7,7 9,10 17,14 2,4 0,1 3,5l31 29c2,6 6,8 12,14 6,7 7,9 16,13 3,8 5,10 14,14 3,8 5,10 14,14 4,10 15,18 23,26 9,9 16,18 27,24 3,7 11,15 19,19 4,8 14,18 22,22 3,6 4,8 9,13 6,7 7,8 15,12 1,4 0,2 3,6 2,2 5,5 7,7 7,7 6,8 15,12 1,4 0,2 4,6 1,2 3,4 5,6 6,6 6,6 14,10 2,10 128,130 140,142l35 35c7,7 6,7 15,11l23 3c142,4 269,-7 401,-39 58,-14 113,-30 167,-50 23,-8 144,-56 150,-66 56,-18 296,-179 315,-213l9 -6c87,-73 192,-198 253,-293 38,-59 67,-114 100,-181 13,-27 76,-180 74,-206 18,-23 46,-219 49,-249 2,-19 3,-81 7,-93l0 -93 -3 0c6,-20 -3,-108 -8,-133 -23,-253 -146,-517 -291,-705 -37,-49 -110,-131 -158,-173 -70,-61 -97,-87 -185,-146 -98,-66 -212,-124 -330,-165 -135,-46 -275,-74 -422,-79l-21 -1 -129 1 -8 0 0 1 -81 5 -126 20c-26,6 -109,22 -124,33 -13,0 -89,26 -96,33 -38,9 -91,38 -125,54l-40 23c-14,5 -61,32 -67,41 -19,3 -107,72 -117,81 -9,6 -14,11 -22,17 -11,8 -100,87 -103,98 -14,7 -68,72 -77,83 -9,8 -16,19 -25,30 -4,5 -8,10 -13,16 -6,7 -8,8 -10,17 -10,5 -26,32 -33,42 -6,9 -11,16 -16,23 -6,9 -11,14 -13,23 -11,9 -70,108 -72,123 -13,11 -24,44 -33,61 -5,12 -19,39 -20,50 -10,10 -26,57 -32,74l-10 25c-3,11 -6,20 -10,30 -4,11 -4,19 -11,27l-2 15c-4,11 -6,24 -12,31 0,18 -10,31 -9,49 -8,9 -5,28 -13,37l1 11c-7,10 -15,58 -13,67 -5,7 -7,24 -8,32l-5 27c-2,6 0,2 -3,6 3,13 -2,29 -3,43l-3 1c3,17 -4,75 -7,95 -1,7 1,12 -4,16 4,21 -7,42 -4,61l-3 6c0,0 0,9 -2,5 0,-1 0,1 -1,2 2,16 -8,32 -5,48 -6,8 -12,39 -11,47 -8,12 -10,39 -18,54l-4 24c-1,1 -1,1 -1,2l-3 4c0,1 0,1 -1,2l-20 65 -10 19c-4,9 -6,11 -6,21 -7,6 -7,10 -10,18 -4,9 -7,11 -7,21 -7,6 -14,20 -14,30 -8,6 -24,42 -30,52 -5,9 -28,45 -29,53l-18 25c-5,7 -14,17 -15,25 -9,6 -12,13 -19,22 -5,8 -11,14 -14,22 -5,5 -9,11 -13,15 -6,7 -11,12 -15,17 -3,2 -2,1 -6,6 -2,2 -2,3 -3,4 -3,3 -6,6 -9,10l-6 5 -2 2c-2,2 -4,5 -7,7 -13,14 -30,31 -48,46 -23,19 -48,36 -80,59 -30,23 -68,51 -115,76l-2 1 -52 23 -35 13 -54 16 -52 11 -45 9 -62 7 0 -1 -7 1 -59 5c-41,1 -76,2 -116,-1 -19,-1 -36,-3 -51,-5 -16,-2 -35,-7 -50,-4 -7,-5 -19,-6 -27,-8 -11,-2 -18,-4 -29,-3 -12,-9 -52,-16 -69,-19l-70 -22c-131,-57 -172,-72 -285,-163 -40,-32 -88,-82 -121,-122 -2,-2 -4,-5 -6,-6l-7 -6c-1,-8 -5,-10 -11,-18 -23,-29 -48,-68 -66,-100 -8,-14 -14,-33 -26,-43 -1,-12 -15,-36 -21,-50 -5,-13 -15,-44 -23,-52l-25 -86c-2,-6 -3,-9 -4,-15 -1,-3 -1,-5 -2,-7 -1,-1 -1,-1 -1,-2l-4 -6c2,-9 -18,-111 -20,-133 -6,-53 -6,-103 -5,-155l5 -67 12 -70c2,-55 52,-192 76,-244 39,-81 79,-138 127,-199 44,-55 108,-114 167,-156 31,-22 62,-43 98,-62 11,-6 109,-53 109,-53 22,-6 46,-16 68,-24 23,-7 45,-14 69,-20 50,-13 96,-19 146,-29 20,1 40,39 55,44l26 25 13 16c5,6 9,10 15,11 4,9 3,7 10,14 2,2 4,4 6,5 7,5 1,2 6,4 3,7 44,51 56,55 5,9 10,13 17,20l13 13c5,4 2,2 6,3l28 28c7,13 27,29 39,41l14 12c5,8 35,38 46,47 5,5 1,3 7,5 7,11 24,29 34,34 7,12 18,20 29,31 10,10 19,21 29,27 10,-3 55,-50 62,-58l61 -61c5,-4 6,-5 11,-9l124 -123c2,-3 3,-4 6,-6l57 -57c0,-1 7,-6 8,-12 -2,-9 -3,-7 -13,-16 -12,-13 -33,-37 -45,-43 -3,-7 -1,-2 -6,-9 -3,-3 -5,-5 -9,-8 -7,-8 -10,-12 -19,-16l-5 -7c-2,-3 -4,-5 -7,-7 -5,-5 -7,-8 -12,-13 -10,-10 -17,-20 -29,-25 -2,-7 0,-3 -5,-8l-48 -45c-2,-6 0,-3 -5,-8 -2,-3 -4,-4 -7,-7 -7,-6 -7,-9 -16,-13 -4,-8 -28,-33 -39,-38 -4,-10 -15,-18 -24,-28 -10,-9 -17,-19 -28,-25 -3,-5 -6,-8 -11,-14 -6,-8 -5,-7 -13,-11 -2,-6 1,-1 -5,-7 0,-2 -4,-5 -5,-6 -7,-7 -6,-8 -16,-12 -1,-5 -4,-8 -11,-14l-16 -13c-2,-8 -13,-16 -22,-25l-141 -139c-10,-11 -14,-17 -25,-22l-6 -2c-215,-7 -410,20 -607,97 -1,0 -8,3 -8,3l-9 6c-13,0 -56,21 -73,29 -10,5 -14,7 -24,11 -92,43 -181,103 -258,160 -93,71 -173,152 -246,241 -10,12 -25,29 -31,43 -1,0 -2,0 -2,1l-3 3c-28,31 -131,199 -132,220 -20,18 -78,185 -84,204 -12,37 -57,204 -50,238 -5,7 -4,9 -5,19 -1,5 -1,11 -2,17 -1,13 -3,25 -1,38 -7,10 -6,39 -3,52l-4 0 0 122c6,15 5,64 7,84 6,58 14,107 26,164 5,24 15,52 18,74 8,23 31,110 41,121 3,15 32,85 38,92 6,24 51,107 63,125 13,28 64,101 83,127l68 87c5,6 6,7 12,14 3,3 4,5 6,7 1,1 3,2 3,3 5,3 0,1 4,2l32 37c30,33 71,71 106,100 50,42 99,79 158,118 54,35 113,68 176,97 53,24 142,63 203,75l86 23 78 15 80 12 74 6 110 4 78 -2c9,0 12,0 17,-2 3,0 6,0 9,0 4,1 7,1 13,0 2,0 6,-1 8,-1l0 0 2 0c4,-1 9,-1 13,-2 22,1 71,-4 95,-11 12,-1 22,-3 32,-5 12,-1 24,-4 33,-7 6,-1 12,-2 18,-4 16,-1 33,-7 47,-11l1 0c28,-7 59,-15 75,-21 8,-2 12,-4 15,-6 7,-2 15,-4 22,-7 5,-1 12,-3 21,-6 17,-5 39,-15 60,-25 21,-10 41,-20 64,-32 24,-11 51,-25 72,-36 20,-12 34,-22 52,-34 5,-4 10,-7 16,-12 15,-10 31,-21 49,-34 3,-3 7,-6 11,-9 3,-2 6,-4 9,-7 19,-14 38,-29 56,-44 3,-3 7,-6 10,-9 2,-2 4,-4 6,-5 18,-16 35,-32 51,-47l3 -3 2 -2c14,-14 27,-28 41,-45 3,-2 5,-5 8,-8 0,0 1,0 1,0l14 -13c9,-9 10,-7 14,-18 1,0 1,-1 2,-1l13 -13c3,-3 4,-5 6,-8l8 -11 0 0zm30 -51c0,-1 0,-1 -1,-3 1,2 1,2 1,3zm-349 -292c-1,0 -1,-1 -1,-1l1 1z"/>
   </g>
  </g>
 </g>
</svg>
