<?xml version="1.0" encoding="UTF-8"?>
<!DOCTYPE svg PUBLIC "-//W3C//DTD SVG 1.1//EN" "http://www.w3.org/Graphics/SVG/1.1/DTD/svg11.dtd">
<!-- Creator: CorelDRAW 2019 (64-Bit) -->
<svg xmlns="http://www.w3.org/2000/svg" xml:space="preserve" width="10.3532in" height="6.23679in" version="1.1" style="shape-rendering:geometricPrecision; text-rendering:geometricPrecision; image-rendering:optimizeQuality; fill-rule:evenodd; clip-rule:evenodd"
viewBox="0 0 10353.17 6236.79"
 xmlns:xlink="http://www.w3.org/1999/xlink"
 xmlns:xodm="http://www.corel.com/coreldraw/odm/2003">
 <defs>
  <style type="text/css">
   <![CDATA[
    .fil5 {fill:#263238;fill-rule:nonzero}
    .fil7 {fill:#455A64;fill-rule:nonzero}
    .fil6 {fill:#55BC7E;fill-rule:nonzero}
    .fil12 {fill:#B66955;fill-rule:nonzero}
    .fil11 {fill:#C78976;fill-rule:nonzero}
    .fil0 {fill:#E0E0E0;fill-rule:nonzero}
    .fil10 {fill:#EB996E;fill-rule:nonzero}
    .fil3 {fill:#EBEBEB;fill-rule:nonzero}
    .fil4 {fill:whitesmoke;fill-rule:nonzero}
    .fil1 {fill:#FAFAFA;fill-rule:nonzero}
    .fil9 {fill:#FFBE9D;fill-rule:nonzero}
    .fil2 {fill:white;fill-rule:nonzero}
    .fil8 {fill:black;fill-rule:nonzero;fill-opacity:0.039216}
    .fil13 {fill:black;fill-rule:nonzero;fill-opacity:0.090196}
   ]]>
  </style>
 </defs>
 <g id="Layer_x0020_1">
  <metadata id="CorelCorpID_0Corel-Layer"/>
  <g id="_2126422357024">
   <path class="fil0" d="M5461.42 6116.72c-2.06,0 -3.8,-1348.95 -3.8,-3012.47 0,-1663.52 1.74,-3012.92 3.8,-3012.92 2.06,0 3.8,1348.67 3.8,3012.92 0,1664.25 -1.57,3012.47 -3.8,3012.47z"/>
   <g>
    <path class="fil0" d="M9025.27 4676.44c-64.1,-40.35 -136.67,-65.39 -212.05,-73.19 -34.71,-3.66 -73.22,-2.64 -100.44,18.44 -3.2,1.84 -5.86,4.5 -7.7,7.72 -1.79,3.22 -2.77,6.87 -2.66,10.57 1.63,5.2 5.15,9.61 9.76,12.44 86.39,65.87 216.93,74.21 313.09,23.71l0 0.3zm0 0l0 0 0 0z"/>
   </g>
   <path class="fil0" d="M9019.9 4670.43c-49.13,-36.07 -94.96,-76.38 -137.05,-120.46 -42.14,-44.46 -71.8,-99.31 -85.91,-158.96 -2.76,-8.82 -3.58,-18.13 -2.44,-27.3 1.19,-9.17 4.29,-17.98 9.17,-25.83 109.33,85.33 195.13,195.55 216.23,332.56z"/>
   <g>
    <path class="fil0" d="M9024.29 4675.7c-10.25,-59.61 -9.44,-120.59 2.44,-179.89 12.2,-59.79 46.43,-112.82 95.89,-148.57 18.87,43.91 10.69,95 -2.61,141.11 -20.61,71.42 -52.66,139 -95.02,200.09l-0.7 -12.73zm0 0l0 0 0 0z"/>
   </g>
   <g>
    <path class="fil0" d="M9131.24 4867.6c-64.97,7.9 -121.59,42.16 -170.07,86.06 -48.81,44.43 -82.76,102.78 -97.3,167.16 63.67,-3.95 117.09,-48.89 157.01,-99.39 39.97,-50.5 66.49,-105.68 109.5,-152.81l0.87 -1.02zm0 0l0 0 0 0z"/>
   </g>
   <g>
    <path class="fil0" d="M9154.56 4897.75c-25.54,-64.91 -34.49,-135.15 -26.03,-204.37 8.41,-69.23 33.95,-135.26 74.3,-192.15 37.04,131.74 23.43,280.59 -48.43,397.1l0.16 -0.58zm0 0l0 0 0 0z"/>
   </g>
   <g>
    <path class="fil0" d="M9296.06 5066.81c-59.49,-3.66 -118.72,10.28 -170.35,40.08 -51.63,29.81 -93.33,74.15 -119.91,127.51 -3.47,7.17 -6.72,16.24 -1.9,22.69 2.49,2.44 5.53,4.24 8.89,5.24 3.36,1 6.89,1.16 10.3,0.47 57.22,-3.66 107.87,-38.06 149.74,-77.29 41.87,-39.23 78.31,-84.45 124.57,-118.27l-1.36 -0.44zm0 0l0 0 0 0z"/>
   </g>
   <g>
    <path class="fil0" d="M9291.56 5057.59c-30.48,-98.1 -32.38,-202.85 -5.43,-301.97 10.69,-38.79 28.53,-79.77 64.38,-97.93 1.46,-0.95 3.09,-1.59 4.83,-1.89 1.68,-0.3 3.47,-0.26 5.15,0.13 2.93,1.49 5.09,4.07 6.13,7.18 11.93,27.24 16.98,57 14.64,86.65 -2.11,29.6 -6.67,58.98 -13.61,87.83 -11.28,53.57 -17.25,111.24 -46.7,157.35 -7,11.15 -13.23,22.74 -18.71,34.7 -5.58,11.71 -5.58,15.8 -10.68,25.17l0 2.78zm0 0l0 0 0 0z"/>
   </g>
   <g>
    <path class="fil0" d="M9666.09 5113.35c-27.77,-105.53 1.79,-234.19 68.23,-319.96 4.99,-6.44 11.44,-13.32 19.47,-12.59 12.15,1.17 15.35,17.57 14.64,29.28 -4.99,108.52 -40.51,213.44 -102.45,302.69l0.11 0.58zm0 0l0 0 0 0z"/>
   </g>
   <g>
    <path class="fil0" d="M9700.53 5136.48c65.46,15.41 133.58,16.45 199.53,3.03 65.95,-13.42 128.21,-40.97 182.5,-80.76 -63.94,-32.12 -137.05,-41.07 -206.85,-25.33 -69.09,15.81 -131.74,46.7 -175.67,102.46l0.49 0.59zm0 0l0 0 0 0z"/>
   </g>
   <path class="fil0" d="M9728.3 5066.22c71.86,-117.1 209.61,-193.5 346.77,-200.53 -15.78,55.76 -61.61,99.24 -113.46,125.44 -51.8,26.2 -109.44,37.62 -166.39,48.6 -22.13,4.39 -52.55,9.07 -66.93,26.5z"/>
   <g>
    <path class="fil0" d="M9673.3 4725.18c21.53,-66.04 36.28,-134.11 43.87,-203.17 5.26,-69.09 -4.5,-141.39 -40.51,-200.82 -67.04,129.83 -73.22,281.47 -5.86,410.87l2.49 -6.88zm0 0l0 0 0 0z"/>
   </g>
   <path class="fil0" d="M9899.13 4611.01c78.48,-142.57 238.57,-256.59 400.46,-272.54 -62.48,155.59 -232.88,275.91 -400.46,272.54z"/>
   <g>
    <path class="fil0" d="M9849.78 4638.96c117.15,17.71 216.67,92.51 326,137.89 22.72,11.08 47.94,16.12 73.16,14.63 11.93,-0.04 23.54,-3.75 33.25,-10.64 9.7,-6.89 17.03,-16.62 20.99,-27.84 3.96,-11.23 4.34,-23.4 1.14,-34.86 -3.26,-11.45 -9.98,-21.63 -19.2,-29.12 -15.51,-14.33 -33.74,-25.38 -53.58,-32.5 -119.15,-49.62 -246.76,-50.79 -372.21,-20.78l-9.54 3.22zm0 0l0 0 0 0z"/>
   </g>
   <g>
    <path class="fil0" d="M9782.04 4720.93c26.46,7.61 35.57,21.37 56.51,39.23 71.53,60.78 156.14,104.25 247.2,127.05 9.54,2.34 21.96,3.22 26.63,-5.27 4.72,-8.49 -1.14,-16.54 -6.4,-23.13 -39.76,-46.59 -91.33,-81.59 -149.31,-101.29 -57.11,-21.37 -106.57,-46.99 -174.63,-41.43l0 4.83zm0 0l0 0 0 0z"/>
   </g>
   <g>
    <path class="fil0" d="M9705.63 4225.32c48,44.21 104.72,77.91 166.5,98.94 61.77,21.02 127.23,28.9 192.26,23.13 6.07,0.15 12.04,-1.94 16.7,-5.85 8.89,-9.81 -1.9,-25.04 -12.48,-33.23 -105.37,-82.26 -233.15,-117.09 -362.71,-82.99l-0.27 0zm0 0l0 0 0 0z"/>
   </g>
   <g>
    <path class="fil0" d="M9796.25 4192.24c63.45,-46.77 137.1,-77.85 214.93,-90.7 77.77,-12.85 157.49,-7.1 232.66,16.78 -58.52,54.34 -133.69,87.34 -213.25,93.68 -78.64,7.12 -157.87,0.43 -234.24,-19.76l-0.11 0zm0 0l0 0 0 0z"/>
   </g>
   <g>
    <path class="fil0" d="M9760.24 3964.33c-10.41,-105.24 -3.69,-188.38 -11.01,-294.06 0,-8.49 -2.33,-18.59 -10.25,-21.66 -10.95,-4.25 -20.17,9.22 -23.86,20.49 -15.3,49 -19.2,100.84 -11.44,151.58 7.81,50.74 27.12,99.02 56.41,141.16l0.16 2.49zm0 0l0 0 0 0z"/>
   </g>
   <g>
    <path class="fil0" d="M9752.59 3975.61c68.82,-44.4 128.15,-102.01 174.47,-169.5 34.44,-47.13 63.4,-103.63 55.64,-161.01 -24.24,0.62 -48.05,6.53 -69.8,17.33 -21.69,10.8 -40.78,26.22 -55.92,45.17 -30.1,38.1 -51.95,82 -64.26,128.96 -13.94,46.39 -23.7,93.97 -40.13,139.49l0 -0.44zm0 0l0 0 0 0z"/>
   </g>
   <g>
    <path class="fil0" d="M9924.02 3928.48c156.96,-58.14 302.3,-143.85 429.15,-253.08 -51.25,-20.64 -109.93,-8.34 -161.02,12.44 -116.33,44.02 -212.43,129.24 -270.03,239.46l1.9 1.17zm0 0l0 0 0 0z"/>
   </g>
   <path class="fil0" d="M9800.75 4034.15c79.35,8.78 159.72,14.64 238.3,1.17 78.58,-13.47 150.33,-43.91 222.52,-73.92 6.07,-1.91 11.28,-5.96 14.59,-11.42 1.14,-3.35 1.19,-6.94 0.22,-10.33 -0.98,-3.4 -2.93,-6.42 -5.59,-8.69 -5.64,-4.37 -12.15,-7.41 -19.04,-8.93 -78.48,-21.95 -163.24,-11.71 -240.36,14.64 -73.43,25.08 -143.99,57.75 -210.65,97.48z"/>
   <g>
    <path class="fil0" d="M9349.2 4228.98c-54.02,-109.19 -50.49,-236.54 -3.8,-348.95 32.81,50.06 36.88,113.87 30.86,173.45 -5.96,59.57 -24.13,120.91 -25.44,180.92l-1.63 -5.42zm0 0l0 0 0 0z"/>
   </g>
   <g>
    <path class="fil0" d="M9132.6 4120.07c-67.69,-0.9 -134.77,12.33 -197.03,38.84 -62.26,26.52 -118.28,65.73 -164.55,115.14 68.12,8.17 137.05,-4.65 197.63,-36.74 60.31,-31.94 117.14,-70.01 169.64,-113.58l-5.69 -3.66zm0 0l0 0 0 0z"/>
   </g>
   <g>
    <path class="fil0" d="M8987.36 4071.48c-66,-5.42 -129.51,-13.61 -193.02,5.85 -32.16,8.96 -62.04,24.75 -87.54,46.3 -25.49,21.55 -45.99,48.35 -60.2,78.56 62.31,4.96 124.79,-6.87 180.93,-34.25 55.86,-27.32 109.17,-59.61 159.28,-96.46l0.54 0zm0 0l0 0 0 0z"/>
   </g>
   <g>
    <path class="fil0" d="M9202.83 4073.68c-59.28,-38.94 -120.29,-78.46 -189.38,-94.7 -69.09,-16.25 -149.3,-4.1 -197.63,48.01 56.07,32.78 123.98,36.74 188.84,36.59 64.87,-0.15 144.48,-0.73 205.65,20.93l-7.48 -10.83zm0 0l0 0 0 0z"/>
   </g>
   <path class="fil0" d="M9202.83 4076.89c-101.58,-99.83 -140.08,-278.83 -99.25,-415.25 80.27,122.72 115.36,269.51 99.25,415.25z"/>
   <g>
    <path class="fil0" d="M9481.81 3794.4c19.2,-44.64 32.65,-91.33 49.79,-136.56 15.72,-45.98 39.75,-88.65 70.99,-125.88 31.78,-37.39 77.01,-60.82 125.88,-65.28 -15.62,68.7 -45.39,133.39 -87.43,189.93 -42.03,56.54 -95.4,103.67 -156.74,138.39l-2.49 -0.59zm0 0l0 0 0 0z"/>
   </g>
   <g>
    <path class="fil0" d="M9431.31 3853.24c-31.62,-43.91 -68.33,-102.46 -111.23,-135.39 -42.9,-32.93 -98.93,-52.25 -151.37,-39.81 27.11,47.7 64.92,88.41 110.53,118.91 45.61,30.5 97.67,49.92 152.07,56.74l0 -0.44zm0 0l0 0 0 0z"/>
   </g>
   <g>
    <path class="fil0" d="M9441.4 3797.91c-22.78,-51.99 -39.54,-106.39 -50.06,-162.18 -10.41,-56.27 -1.46,-114.41 25.33,-164.96 55.81,105.39 73.22,218.53 27.66,328.46l-2.93 -1.32zm0 0l0 0 0 0z"/>
   </g>
   <g>
    <path class="fil0" d="M9482.4 3470.77c31.46,-104.36 127.23,-181.36 230.39,-216.63 12.8,-5.15 26.68,-7.2 40.4,-6 6.78,0.85 13.18,3.67 18.33,8.09 5.21,4.42 9,10.26 10.96,16.8 3.63,17.71 -10.96,33.67 -24.73,45.52 -80.75,68.87 -174.63,120.65 -275.94,152.23l0.59 0zm0 0l0 0 0 0z"/>
   </g>
   <g>
    <path class="fil0" d="M9483.59 3385.43c3.96,-67.33 8.19,-135.69 29.99,-199.5 21.8,-63.82 64.1,-123.69 125.61,-151.5 10.36,67.92 -19.63,135.54 -55.81,194.09 -36.12,58.54 -79.72,113.87 -101.58,179.15l1.79 -22.25zm0 0l0 0 0 0z"/>
   </g>
   <path class="fil0" d="M9481.81 3431.69c-26.03,-76.12 -29.23,-172.72 -74.35,-239.03 -31.89,-46.4 -82.81,-77.87 -110.37,-127.05 -16.49,47.09 -14.15,98.74 6.45,144.18 20.77,44.9 49.35,85.77 84.33,120.76 33.79,36 62.64,63.08 93.93,101.15z"/>
   <path class="fil0" d="M9482.4 5673.53c-2.06,0 -3.8,-507.77 -3.96,-1133.95 -0.11,-626.18 1.36,-1134.09 3.37,-1134.09 2.06,0 3.85,507.76 3.96,1134.09 0.17,626.32 -1.3,1133.95 -3.36,1133.95z"/>
   <path class="fil0" d="M9926.09 4152.28c-6.13,3 -12.47,5.41 -19.04,7.17l-52.55 17.71c-43.93,14.64 -105.27,37.04 -171.27,64.11 -66,27.08 -127.07,50.79 -162.16,81.24 -14.05,11.63 -25.22,26.36 -32.65,43.03 -4.99,12.01 -5.86,19.32 -6.61,19.17 -0.22,-1.79 -0.22,-3.62 0,-5.42 0.81,-4.97 2.06,-9.87 3.69,-14.64 6.62,-17.69 17.57,-33.48 31.73,-45.96 21.2,-18.02 44.96,-32.81 70.45,-43.91 28.26,-13.17 59.39,-26.93 92.47,-40.54 66.33,-27.08 127.67,-48.3 172.46,-62.06 22.4,-7.03 40.67,-12.15 53.26,-15.67 6.62,-1.97 13.34,-3.39 20.23,-4.24l0 0z"/>
   <path class="fil0" d="M10071.54 3794.98c0,0 -1.74,2.2 -5.42,5.7l-16.22 15.37 -60.91 55.33 -202.45 180.19c-79.02,70.41 -147.24,137.59 -194.65,188.23 -23.59,25.18 -42.3,46.11 -55.04,60.74l-14.65 16.83c-1.57,2.06 -3.42,3.92 -5.42,5.57 1.25,-2.3 2.71,-4.46 4.39,-6.44 3.09,-4.09 7.48,-10.24 13.61,-17.7 12.15,-14.64 30.15,-36.74 53.42,-62.5 61.17,-66.81 125.82,-130.33 193.67,-190.29 79.34,-70.26 151.47,-133.34 203.92,-178.72l62.31 -53.57 17.3 -14.64c1.9,-1.57 3.96,-2.94 6.13,-4.09l0 0z"/>
   <path class="fil0" d="M9701.23 4123.15c-2.06,-1.02 14.65,-39.08 30.92,-87.82 16.22,-48.74 24.4,-88.99 26.63,-88.56 -1.79,31.14 -8.41,61.81 -19.63,90.9 -7.11,20.77 -15.3,41.14 -24.57,61.04 -3.2,8.78 -7.65,17.04 -13.34,24.44l0 0z"/>
   <path class="fil0" d="M9482.84 4430.39c-4.56,-4.42 -8.63,-9.33 -12.15,-14.64l-31.19 -40.11c-26.3,-33.81 -62.48,-80.5 -102.44,-131.73 -39.97,-51.23 -77.99,-97.05 -105.11,-130.27l-31.89 -39.52c-4.12,-4.54 -7.76,-9.44 -10.96,-14.64 4.83,3.94 9.28,8.41 13.13,13.32 8.24,8.78 19.8,21.8 33.68,37.91 28.09,32.35 66.16,77.87 106.84,129.1 40.73,51.24 76.31,98.51 101.47,133.2 12.58,17.41 22.51,31.46 29.29,41.42 3.58,5.01 6.72,10.35 9.33,15.95l0 0z"/>
   <path class="fil0" d="M9385.49 4305.53c-19.52,-21.73 -33.52,-47.91 -40.68,-76.26 -7.7,-24.89 -10.85,-50.98 -9.22,-76.99l3.26 0c-1.46,5.85 -2.5,8.93 -3.09,8.93 -0.6,0 -0.76,-3.37 0,-9.51l3.2 0c1.57,25.33 5.96,50.42 13.02,74.8 9.27,27.13 20.44,53.54 33.52,79.04l0 0z"/>
   <path class="fil0" d="M9259.94 4147.59c-8.73,-6.71 -18.28,-12.28 -28.42,-16.54 -25.6,-7.72 -52.55,-9.86 -79.02,-6.3 -26.85,2.11 -53.47,6.37 -79.61,12.74 -10.74,3.36 -21.64,6 -32.65,7.91 9.71,-5.83 20.28,-10.17 31.3,-12.88 26.14,-7.89 53.15,-12.8 80.37,-14.64 27.49,-3.69 55.48,-0.67 81.51,8.78 11.06,3.63 20.44,11.05 26.52,20.93l0 0z"/>
   <path class="fil0" d="M9230.22 4109.25c0,1.17 -16.7,-6.59 -43.93,-15.81 -70.56,-24.14 -146.11,-29.93 -219.54,-16.83 -28.09,4.98 -45.07,10.24 -45.56,9.07 3.63,-2.2 7.54,-3.87 11.61,-4.97 10.79,-3.72 21.75,-6.8 32.92,-9.23 74.24,-16.11 151.53,-10.21 222.46,16.98 10.69,4.22 21.1,9.11 31.19,14.64 3.91,1.55 7.54,3.62 10.85,6.15z"/>
   <path class="fil0" d="M9481.81 3947.36c-12.8,-36.16 -23.43,-73.06 -31.73,-110.51 -10.63,-36.86 -18.87,-74.36 -24.73,-112.27 12.96,36.11 23.65,73.02 31.89,110.51 10.63,36.85 18.82,74.35 24.57,112.27l0 0z"/>
   <path class="fil0" d="M9483.87 3947.36c-10.14,-22.87 -21.96,-44.98 -35.25,-66.16 -14.97,-19.97 -32.38,-37.96 -51.85,-53.57 7.43,1.88 14.26,5.43 20.07,10.39 14.7,10.75 27.5,23.91 37.75,38.93 15.83,20.47 25.92,44.76 29.28,70.41z"/>
   <path class="fil0" d="M9482.4 5402.58c-0.87,0 -2.33,-12.15 -8.03,-33.81 -8.41,-30.32 -19.79,-59.74 -33.95,-87.82 -34.98,-71.73 -98.98,-162.62 -180.06,-253.66 -40.13,-45.96 -79.18,-89.29 -112.26,-130.71 -29.61,-36.51 -56.46,-75.22 -80.21,-115.78 -16.06,-27.38 -29.61,-56.13 -40.57,-85.91 -3.8,-10.69 -6.45,-18.89 -8.03,-24.59 -1.03,-2.83 -1.74,-5.78 -2.06,-8.78 0,0 4.39,11.56 12.75,32.35 11.98,29.12 26.09,57.3 42.3,84.31 24.3,39.93 51.36,78.09 81.08,114.17 33.25,40.98 72.3,84.17 112.54,130.12 81.41,91.34 145.07,183.41 179.19,256.15 13.88,28.63 24.62,58.66 32.05,89.58 1.95,8.41 3.47,16.91 4.56,25.47 0.49,2.95 0.7,5.94 0.7,8.93l0 0z"/>
   <path class="fil0" d="M9883.35 4949.71c-6.78,4.41 -13.83,8.37 -21.1,11.86 -19.04,10.65 -37.2,22.69 -54.45,36.01 -25.54,19.84 -49.46,41.67 -71.59,65.28 -25.17,26.5 -50.93,57.38 -77.45,90.31 -52.82,66.31 -102.44,125 -131.73,171.7 -14.64,23.27 -25.87,42.89 -33.08,56.65 -3.47,7.22 -7.32,14.26 -11.56,21.07 0,0 0,-2.19 1.9,-6 1.9,-3.8 3.69,-9.36 7.05,-16.39 9.22,-20.15 19.63,-39.71 31.29,-58.55 29.29,-48.01 77.77,-107.44 130.43,-173.59 26.52,-33.09 52.72,-63.96 78.31,-90.46 22.56,-23.61 47.02,-45.3 73.21,-64.85 17.74,-13.02 36.5,-24.52 56.19,-34.4 7,-3.52 12.74,-5.56 16.38,-7.17 3.69,-1.61 6.02,-1.76 6.18,-1.46z"/>
   <path class="fil0" d="M9890.78 5096.67c-14.48,3.14 -29.12,5.29 -43.93,6.44 -35.63,3.63 -70.88,10.59 -105.21,20.78 -34.06,11.01 -66,27.74 -94.42,49.48 -21.64,16.83 -31.89,30.74 -32.92,29.27 -1.03,-1.46 1.73,-4.09 6.56,-10.24 6.94,-8.65 14.64,-16.59 23.16,-23.71 28.09,-23.4 60.47,-41.19 95.29,-52.4 34.87,-10.37 70.83,-16.71 107.11,-18.88 14.75,-1.64 29.61,-1.89 44.36,-0.73l0 0z"/>
   <path class="fil0" d="M9627.31 5187.13c-2.33,-1.32 17.73,-31.91 33.24,-73.19 15.51,-41.28 18.01,-77.87 20.61,-77.43 1.3,7.85 1.3,15.87 0,23.71 -2.17,19.17 -6.56,38.03 -13.02,56.21 -6.72,18.04 -15.35,35.31 -25.76,51.52 -3.9,7.19 -9,13.67 -15.07,19.18z"/>
   <path class="fil0" d="M10013.13 4555.24c-2.11,1.62 -4.5,2.91 -7,3.81l-20.93 9.51c-9.06,3.95 -20.23,8.93 -32.81,15.52 -12.58,6.59 -27.06,13.03 -42.41,22.25l-24.19 13.76c-8.46,4.83 -16.65,10.54 -25.6,16.1 -17.84,10.83 -35.69,24.15 -54.89,37.76 -40.57,30.79 -78.8,64.5 -114.48,100.85 -35.09,36.58 -67.41,75.72 -96.75,117.1 -13.02,19.61 -25.6,37.91 -35.85,56.2 -5.26,8.93 -10.69,17.42 -14.64,26.05 -3.96,8.64 -8.79,16.83 -13.02,24.6 -8.63,15.65 -14.65,30.44 -20.77,43.17 -6.19,12.74 -10.85,24.01 -14.64,33.38l-8.79 21.07c-0.92,2.54 -2.11,4.99 -3.52,7.32 0.32,-2.67 0.97,-5.29 2.06,-7.76l7.59 -21.66c3.26,-9.51 7.32,-20.93 13.18,-33.96 5.86,-13.02 11.55,-28.1 20.07,-43.91 3.96,-8.06 8.19,-16.4 12.58,-25.18 4.4,-8.79 9.82,-17.27 14.65,-26.35 10.09,-18.59 22.67,-37.19 35.58,-56.94 29.17,-42.19 61.61,-82.03 97.02,-119.15 35.96,-36.63 74.68,-70.44 115.79,-101.15 19.31,-13.46 37.47,-26.78 55.64,-37.47 8.9,-5.42 17.41,-11.12 25.87,-15.81l24.62 -13.46c15.51,-8.93 30.43,-14.64 43.87,-21.52 13.5,-6.88 24.19,-10.83 33.41,-14.64l21.53 -8.2c2.22,-0.64 4.56,-1.08 6.83,-1.32l0 0z"/>
   <path class="fil0" d="M9695.81 4767.92c2.98,-10.27 9.11,-19.36 17.41,-26.06 19.63,-16.94 44.52,-26.47 70.45,-26.93 25.33,-0.05 50.44,4.92 73.92,14.64 9.93,3.05 19.36,7.65 27.93,13.61 -9.98,-2.06 -19.8,-5 -29.29,-8.78 -23.26,-7.84 -47.61,-11.89 -72.13,-12.01 -24.3,0.55 -47.78,8.8 -67.03,23.57 -7.65,6.77 -14.75,14.11 -21.26,21.95l0 0z"/>
   <path class="fil0" d="M9648.41 4816.8c21.37,-40.81 26.9,-88.11 15.51,-132.76 4.18,5.56 7,12.03 8.19,18.88 8.57,32.71 4.56,67.45 -11.28,97.34 -6.29,11.27 -11.71,17.12 -12.42,16.54z"/>
   <path class="fil0" d="M9131.73 5475.31c10.96,194.1 69.37,391.4 159.39,590.93l391.08 0c85.8,-197.46 140.09,-395.2 149.9,-590.93l-700.37 0z"/>
   <path class="fil1" d="M9768.7 5789.32c0,2.01 -128.8,3.63 -287.6,3.63 -158.8,0 -287.66,-1.63 -287.66,-3.63 0,-2.06 128.7,-3.69 287.66,-3.69 158.96,0 287.6,1.79 287.6,3.69z"/>
   <path class="fil1" d="M9759.91 5859.71c0,1.9 -120.72,3.63 -269.59,3.63 -148.87,0 -269.65,-1.74 -269.65,-3.63 0,-1.9 120.61,-3.69 269.65,-3.69 148.98,0 269.59,1.63 269.59,3.69z"/>
   <path class="fil1" d="M9297.41 5602.81c4.88,59.98 4.88,120.24 0,180.22 -4.88,-59.98 -4.88,-120.24 0,-180.22l0 0z"/>
   <path class="fil1" d="M9506.86 5602.81c4.88,62.1 4.88,124.41 0,186.51 -4.88,-62.1 -4.88,-124.41 0,-186.51l0 0z"/>
   <path class="fil1" d="M9703.57 5601.24c4.88,63.29 4.88,126.91 0,190.25 -4.88,-63.35 -4.88,-126.96 0,-190.25l0 0z"/>
   <path class="fil1" d="M9819.63 5602.81c0,1.9 -151.04,3.69 -336.63,3.69 -185.59,0 -336.68,-1.79 -336.68,-3.69 0,-1.9 150.93,-3.63 336.68,-3.63 185.75,0 336.63,1.14 336.63,3.63z"/>
   <polygon class="fil0" points="6617.63,1914.4 5850.06,1914.4 5850.06,2714.62 6617.63,2714.62 "/>
   <polygon class="fil1" points="6565.51,1914.4 5797.94,1914.4 5797.94,2714.62 6565.51,2714.62 "/>
   <path class="fil0" d="M6565.78 2714.91l-768 0 0 -800.65 768 0 0 800.65zm-767.57 0l767.13 0 0 -800.21 -767.13 0 0 800.21z"/>
   <polygon class="fil2" points="6462.3,2021.98 5901.15,2021.98 5901.15,2607.03 6462.3,2607.03 "/>
   <path class="fil0" d="M5901.15 2610.98c-4.01,5.86 -8.62,11.25 -13.77,16.1 -9.06,9.37 -21.64,22.25 -35.74,36.15 -14.05,13.91 -27.06,26.34 -36.72,35.13 -4.83,5.08 -10.25,9.6 -16.11,13.46 3.91,-5.9 8.57,-11.31 13.78,-16.1 8.89,-9.37 21.53,-22.25 35.69,-36.16 14.21,-13.9 27.23,-26.35 36.77,-35.13 4.78,-5.13 10.2,-9.66 16.11,-13.46l0 0z"/>
   <path class="fil0" d="M6462.46 2609.52c5.91,4.24 11.33,9.15 16.11,14.64 9.38,8.93 22.24,21.52 36.17,35.57 13.89,14.05 26.2,27.22 35.09,36.74 5.15,4.83 9.71,10.29 13.5,16.25 -5.86,-3.98 -11.28,-8.6 -16.11,-13.76 -9.38,-9.08 -22.29,-21.67 -36.17,-35.87 -13.89,-14.2 -26.36,-27.08 -35.15,-36.74 -5.2,-4.96 -9.76,-10.63 -13.45,-16.83l0 0z"/>
   <path class="fil0" d="M6460.83 2023.59c4.07,-5.87 8.68,-11.27 13.94,-16.1 8.89,-9.52 21.48,-22.25 35.69,-36.16 14.21,-13.91 27.12,-26.35 36.61,-35.13 4.83,-5.17 10.31,-9.69 16.27,-13.47 -4.01,5.83 -8.62,11.18 -13.78,15.96 -8.95,9.51 -21.69,22.39 -35.85,36.3 -14.21,13.91 -27.11,26.35 -36.61,35.13 -4.88,5.13 -10.3,9.65 -16.27,13.47l0 0z"/>
   <path class="fil0" d="M5899.69 2025.06c-5.97,-4.21 -11.39,-9.12 -16.11,-14.64 -9.54,-8.93 -22.24,-21.52 -36.17,-35.72 -13.88,-14.2 -26.36,-27.08 -35.14,-36.59 -5.15,-4.82 -9.65,-10.28 -13.45,-16.25 5.86,3.97 11.17,8.59 15.94,13.76 9.55,8.93 22.4,21.67 36.34,35.86 13.88,14.2 26.3,27.08 35.09,36.74 5.15,5.07 9.65,10.72 13.5,16.83l0 0z"/>
   <path class="fil0" d="M6460.83 2607.03c0,0 0,-1.02 0,-2.78l0 -8.2c0,-7.32 0,-17.85 0,-31.61 0,-27.67 0,-67.92 0,-119.15 0,-102.46 0,-248.83 -1.14,-423.3l2.17 2.19 -559.58 0 2.49 -2.48c0,214.73 0,415.7 0,585.48l-2.17 -2.05 405.28 1.03 113.89 0 30.15 0 -29.28 0 -113.46 0 -406.59 1.17 -2.06 0 0 -2.19c0,-169.35 0,-370.32 0,-585.49l0 -2.49 2.6 0 559.58 0 2.22 0 0 2.05c0,175.65 -0.87,322.02 -1.19,424.48 0,51.09 0,91.19 0,118.71 0,13.61 0,24 0,31.17 0,3.37 0,6 0,8.06 -0.48,2.02 -1.52,3.88 -2.93,5.41l0 0z"/>
   <polygon class="fil3" points="6275.41,2220.9 6088.2,2220.9 6088.2,2408.11 6275.41,2408.11 "/>
   <polygon class="fil0" points="6644.42,607.3 5876.85,607.3 5876.85,1407.51 6644.42,1407.51 "/>
   <polygon class="fil1" points="6592.3,607.3 5824.73,607.3 5824.73,1407.51 6592.3,1407.51 "/>
   <path class="fil0" d="M6592.57 1407.66l-768 0 0 -800.65 768 0 0 800.65zm-767.57 0l767.13 0 0 -800.22 -767.13 0 0 800.22z"/>
   <polygon class="fil2" points="6489.09,714.88 5927.94,714.88 5927.94,1299.93 6489.09,1299.93 "/>
   <path class="fil0" d="M5927.94 1303.74c-3.91,5.92 -8.52,11.33 -13.78,16.1 -8.94,9.51 -21.53,22.24 -35.74,36.15 -14.15,13.91 -27.06,26.35 -36.55,35.13 -4.88,5.13 -10.3,9.65 -16.27,13.46 3.96,-5.83 8.57,-11.18 13.78,-15.95 8.89,-9.52 21.48,-22.25 35.69,-36.3 14.21,-14.05 27.22,-26.35 36.77,-35.13 4.88,-5.04 10.25,-9.56 16.11,-13.46l0 0z"/>
   <path class="fil0" d="M6489.26 1302.27c5.86,4.3 11.28,9.2 16.11,14.64 9.38,8.93 22.24,21.51 36.12,35.71 13.94,14.2 26.35,27.08 35.14,36.59 5.1,4.91 9.6,10.36 13.5,16.25 -5.86,-3.98 -11.28,-8.6 -16.11,-13.76 -9.38,-8.93 -22.29,-21.66 -36.18,-35.72 -13.88,-14.05 -26.35,-27.22 -35.14,-36.74 -5.15,-5.09 -9.71,-10.79 -13.45,-16.98l0 0z"/>
   <path class="fil0" d="M6487.63 716.35c4.07,-5.83 8.73,-11.23 13.94,-16.11 8.89,-9.36 21.48,-22.24 35.69,-36.15 14.21,-13.91 27.12,-26.2 36.61,-34.99 4.88,-5.13 10.3,-9.7 16.27,-13.61 -3.96,5.89 -8.57,11.29 -13.78,16.1 -8.95,9.37 -21.69,22.25 -35.74,36.16 -14.05,13.91 -27.22,26.35 -36.72,35.27 -4.83,5.11 -10.3,9.59 -16.27,13.32l0 0z"/>
   <path class="fil0" d="M5926.47 717.81c-5.91,-3.94 -11.33,-8.56 -16.11,-13.76 -9.54,-9.07 -22.29,-21.66 -36.17,-35.71 -13.88,-14.06 -26.36,-27.08 -35.14,-36.74 -5.1,-4.79 -9.65,-10.2 -13.45,-16.1 5.91,3.85 11.28,8.47 15.95,13.75 9.54,8.93 22.4,21.52 36.33,35.72 13.88,14.2 26.3,27.22 35.09,36.74 5.15,4.79 9.66,10.19 13.5,16.1l0 0z"/>
   <path class="fil0" d="M6487.63 1299.93c0,0 0,-1.03 0,-2.93l0 -8.19c0,-7.32 0,-17.86 0,-31.47 0,-27.81 0,-68.06 0,-119.29 0,-102.46 0,-248.83 -1.14,-423.17l2.17 2.2 -559.58 0 2.49 -2.49c0,214.73 0,415.56 0,585.49l-2.17 -2.2 405.29 1.17 113.89 0 30.15 0 7.75 0c1.74,0 2.6,0 2.6,0l-9.92 0 -29.29 0 -113.46 0 -406.59 1.02 -2.06 0 0 -2.05c0,-169.5 0,-370.33 0,-585.49l0 -2.48 2.6 0 559.58 0 2.22 0 0 2.19c0,175.65 -0.87,322.02 -1.03,424.48 0,50.94 0,91.04 0,118.7 0,13.47 0,23.87 0,31.18 0,3.37 0,6 0,7.9 0,1.9 -3.36,5.42 -3.52,5.42z"/>
   <polygon class="fil3" points="6302.2,913.65 6114.99,913.65 6114.99,1100.87 6302.2,1100.87 "/>
   <path class="fil0" d="M10048.87 509.08c0,0 0,-1.17 0,-3.37 0,-2.19 0,-5.71 0,-9.51 0,-8.78 0,-20.93 0,-36.3 0,-31.76 -0.87,-76.99 -1.46,-133.49l2.77 2.63 -602.75 1.9c-3.8,3.52 5.26,-4.54 4.23,-3.8l0 93.53c0,30.44 0,60.3 0,88.99l-4.07 -3.66 429.42 1.76 125.93 1.02 33.95 0 12.15 0c-3.69,0.39 -7.43,0.39 -11.12,0l-33.08 0 -125.01 1.03 -432.24 1.75 -4.23 0 0 -91.48c0,-14.64 0,-30.74 0,-46.4l0 -47.13 4.39 -3.81 601.39 1.32 2.93 0 0 2.49c0,57.09 -1.14,102.46 -1.57,135.1 0,14.64 0,26.93 0,35.71 -0.17,3.95 -0.71,7.87 -1.63,11.71l0 0z"/>
   <polygon class="fil4" points="9903.8,509.08 9302.24,509.08 9302.24,691.76 9903.8,691.76 "/>
   <polygon class="fil4" points="10092.37,1874.59 9485.76,1874.59 9485.76,2057.26 10092.37,2057.26 "/>
   <polygon class="fil4" points="6554.55,4463.61 6023.66,4463.61 6023.66,4646.28 6554.55,4646.28 "/>
   <polygon class="fil4" points="2723.84,1610.53 2192.95,1610.53 2192.95,1793.2 2723.84,1793.2 "/>
   <polygon class="fil0" points="1693.52,425.94 547.43,425.94 547.43,2323.07 1693.52,2323.07 "/>
   <polygon class="fil3" points="1655.46,425.94 509.38,425.94 509.38,2323.07 1655.46,2323.07 "/>
   <polygon class="fil1" points="1606.58,464.44 558.12,464.44 558.12,2284.72 1606.58,2284.72 "/>
   <polygon class="fil3" points="1402.54,700.97 757.77,700.97 757.77,2048.18 1402.54,2048.18 "/>
   <path class="fil0" d="M757.19 1571.45c-1.47,-125.88 111.68,-248.83 236.24,-266.25 59.43,-8.49 122.66,3.36 178.13,-19.47 99.09,-40.54 130.71,-172.28 230.39,-211.36l4.54 973.81 -649.3 0 0 -476.73z"/>
   <path class="fil0" d="M5120.83 4526.7c-0.11,-1.12 -0.11,-2.24 0,-3.37l0 -9.66c0,-8.78 0,-20.93 0,-36.16 0,-31.91 -0.74,-77.14 -1.32,-133.49l2.49 2.49 -530.89 1.32 3.8 -3.81 0 93.24c0,30.54 0,60.26 0,89.15l-3.65 -3.66 378.95 1.61 111.24 1.02 30.01 0 10.69 0c-3.26,0.2 -6.54,0.2 -9.81,0l-29.28 0 -110.21 1.03 -381.59 1.76 -3.66 0 0 -3.66c0,-29.28 0,-58.99 0,-89.14l0 -93.24 3.81 -3.8 530.89 1.17 2.48 0 0 2.63c0,56.94 -1.03,102.46 -1.32,134.96 0,14.64 0,26.93 0,35.72 0,8.78 -2.48,14.06 -2.63,13.91z"/>
   <polygon class="fil4" points="4992.75,4526.7 4461.85,4526.7 4461.85,4709.37 4992.75,4709.37 "/>
   <path class="fil0" d="M864.48 3086.4c-0.13,-1.12 -0.13,-2.25 0,-3.37l0 -9.52 0 -36.3c0,-31.76 0,-76.99 -1.32,-133.49l2.49 2.49 -532.07 0.88 3.81 -3.81 0 93.38c0,30.45 0,60.31 0,89l-3.66 -3.66 378.96 1.76 111.24 1.03 29.27 0 10.69 0c-3.27,0.2 -6.54,0.2 -9.81,0l-29.27 0 -110.22 1.02 -381.59 1.61 -3.66 0 0 -3.81c0,-29.28 0,-58.55 0,-88.99l0 -93.39c-0.88,0.88 7.32,-7.17 3.81,-3.8l530.89 1.32 2.63 0 0 2.48 -1.02 137.59 0 35.57c-0.88,8.34 -1.03,12.15 -1.17,12z"/>
   <polygon class="fil4" points="736.4,3086.4 205.51,3086.4 205.51,3269.07 736.4,3269.07 "/>
   <polygon class="fil4" points="4029.91,3666.61 3499.03,3666.61 3499.03,3849.29 4029.91,3849.29 "/>
   <polygon class="fil4" points="3536.94,0 3006.04,0 3006.04,182.67 3536.94,182.67 "/>
   <path class="fil5" d="M10149.42 6086.73c0,2.06 -2265.39,3.8 -5059.34,3.8 -2793.94,0 -5059.93,-1.74 -5059.93,-3.8 0,-2.06 2264.96,-3.36 5059.63,-3.36 2794.68,0 5059.63,1.14 5059.63,3.36z"/>
   <path class="fil2" d="M6743.77 3733.94c52.77,-86.42 71.26,-189.43 51.9,-288.8 -19.36,-99.37 -75.17,-187.91 -156.46,-248.22 -81.3,-60.32 -182.22,-88.04 -282.94,-77.73 -100.71,10.31 -193.94,57.91 -261.35,133.44 -67.41,75.54 -104.13,173.55 -102.94,274.78 1.19,101.23 40.19,198.36 109.33,272.3 69.15,73.94 163.46,119.35 264.39,127.31 100.93,7.96 201.15,-22.12 281.04,-84.31l124.14 15.52 -27.12 -124.27z"/>
   <polygon class="fil5" points="8859.75,581.1 7112.94,581.1 7112.94,3719.02 8859.75,3719.02 "/>
   <polygon class="fil2" points="8771.94,672.14 7182.74,672.14 7182.74,3625.63 8771.94,3625.63 "/>
   <path class="fil6" d="M8494.59 2015.35c72.35,-30.19 106.57,-113.32 76.36,-185.7 -30.15,-72.37 -113.29,-106.57 -185.69,-76.38 -72.35,30.18 -106.57,113.32 -76.36,185.69 30.15,72.37 113.3,106.57 185.7,76.39z"/>
   <path class="fil6" d="M8439.93 2181.97c-3.74,-19.28 -5.04,-38.95 -3.8,-58.55 -1.19,-19.6 0.06,-39.28 3.8,-58.55 3.85,19.26 5.15,38.95 3.85,58.55 1.3,19.6 0.06,39.29 -3.85,58.55l0 0z"/>
   <path class="fil6" d="M8311.28 2028.86c1.63,1.47 -7.76,14.64 -21.1,30.74 -13.28,16.1 -25.16,27.22 -26.74,25.91 4.83,-11.56 12.04,-22.02 21.04,-30.73 13.18,-15.96 25.49,-27.52 26.79,-25.91z"/>
   <path class="fil6" d="M8259.33 1906.35c-39.21,5.07 -78.91,5.07 -118.12,0 39.21,-5.08 78.91,-5.08 118.12,0l0 0z"/>
   <path class="fil6" d="M8303.09 1775.48c-1.46,1.61 -14.64,-9.22 -29.29,-23.85 -14.64,-14.64 -25.76,-27.96 -24.3,-29.28 1.46,-1.32 14.64,9.22 29.29,24.01 14.64,14.78 25.76,27.66 24.3,29.12z"/>
   <path class="fil6" d="M8433.63 1560.46c3.8,23.42 5.04,47.16 3.85,70.85 1.19,23.63 -0.05,47.33 -3.85,70.7 -3.85,-23.36 -5.09,-47.07 -3.8,-70.7 -1.3,-23.69 0,-47.44 3.8,-70.85z"/>
   <path class="fil6" d="M8596.12 1700.11c1.63,1.32 -6.13,13.76 -17.25,27.96 -11.11,14.2 -21.69,24.59 -23.26,23.28 -1.63,-1.32 6.13,-13.91 17.24,-27.96 11.12,-14.05 21.64,-24.59 23.27,-23.27z"/>
   <path class="fil6" d="M8718.8 1878.39c-37.37,5.07 -75.22,5.07 -112.59,0 37.37,-5.08 75.22,-5.08 112.59,0l0 0z"/>
   <path class="fil6" d="M8633.16 2056.96c-1.46,1.47 -14.65,-9.22 -29.29,-23.85 -14.64,-14.64 -25.33,-27.67 -23.7,-29.28 1.63,-1.61 14.65,9.22 29.29,23.86 14.64,14.64 25.16,27.81 23.7,29.27z"/>
   <path class="fil7" d="M7175.74 2721.35c85.63,-63.97 215.74,-24.89 285.86,55.76 70.13,80.65 95.56,190.29 118.72,294.07 43.01,-12.6 88.67,-12.78 131.79,-0.52 43.06,12.27 81.84,36.48 111.72,69.84 29.94,33.36 49.78,74.5 57.32,118.67 7.48,44.17 2.33,89.57 -14.86,130.94 159.44,-46.69 346.5,38.79 415.43,190.28 -7.38,-40.49 -5.26,-82.14 6.24,-121.66 11.55,-39.51 32.11,-75.8 60.09,-105.98 27.98,-30.18 62.64,-53.42 101.2,-67.87 38.5,-14.44 79.89,-19.72 120.83,-15.39 -83.3,-196.28 12.42,-449.8 204.89,-541.57l0 900.92 -1601.03 0 1.79 -907.5z"/>
   <polygon class="fil7" points="8933.67,3747.41 8859.75,3719.02 8859.75,527.81 8933.67,527.81 "/>
   <polygon class="fil5" points="8806.49,1521.68 7182.74,1521.68 7182.74,1553.15 8806.49,1553.15 "/>
   <polygon class="fil5" points="8806.49,2225 7182.74,2225 7182.74,2256.46 8806.49,2256.46 "/>
   <polygon class="fil5" points="8806.49,2928.46 7182.74,2928.46 7182.74,2959.93 8806.49,2959.93 "/>
   <polygon class="fil5" points="7937.18,1537.34 7937.18,3709.21 8017.5,3709.21 8017.5,1537.34 "/>
   <polygon class="fil5" points="7525.11,672.14 7488.83,672.14 7488.83,1537.49 7525.11,1537.49 "/>
   <polygon class="fil5" points="7838.96,672.14 7802.52,672.14 7802.52,1537.49 7838.96,1537.49 "/>
   <polygon class="fil5" points="8152.6,672.14 8116.15,672.14 8116.15,1537.49 8152.6,1537.49 "/>
   <polygon class="fil5" points="8466.28,672.14 8430,672.14 8430,1537.49 8466.28,1537.49 "/>
   <polygon class="fil7" points="7112.94,3738.48 7039.19,3741.85 7039.19,527.81 7112.94,527.81 "/>
   <polygon class="fil7" points="8933.67,495.47 7039.19,495.47 7039.19,581.1 8933.67,581.1 "/>
   <polygon class="fil7" points="8983.56,3757.95 6986.63,3757.95 6986.63,3837.72 8983.56,3837.72 "/>
   <polygon class="fil7" points="8859.75,3719.02 8983.72,3757.95 6986.63,3757.95 7112.94,3719.02 "/>
   <path class="fil5" d="M8982.26 3757.95c0,2.05 -445.15,3.81 -994.15,3.81 -549.06,0 -994.32,-1.76 -994.32,-3.81 0,-2.05 445.1,-3.81 994.32,-3.81 549.17,0 994.15,1.9 994.15,3.81z"/>
   <path class="fil5" d="M7125.09 590.9c-18.28,-11.22 -34.33,-25.77 -47.3,-42.89 -14.86,-15.53 -26.63,-33.7 -34.81,-53.57 1.9,-1.17 18,22.25 40.67,48.6 14.65,15.21 28.47,31.19 41.44,47.86l0 0z"/>
   <path class="fil5" d="M8933.67 495.47c-11.44,18.31 -24.95,35.25 -40.24,50.5 -13.5,16.9 -28.91,32.13 -45.99,45.38 11.39,-18.36 24.89,-35.31 40.24,-50.5 13.56,-16.85 28.96,-32.08 45.99,-45.37l0 0z"/>
   <path class="fil5" d="M7111.04 3715.35c0,0 -1.74,2.49 -5.7,4.98 -9.11,4.52 -18.49,8.48 -28.15,11.86 -11.5,5.5 -23.97,8.68 -36.72,9.36 10.14,-7.72 21.75,-13.34 34.11,-16.54 9.6,-3.52 19.36,-6.5 29.29,-8.93l0 0c4.07,-1.17 6.89,-1.46 7.16,-0.73z"/>
   <path class="fil5" d="M2791.75 1350.72c-2.05,0 -3.8,-194.96 -3.8,-435.31 0,-240.34 1.76,-435.45 3.8,-435.45 2.06,0 3.8,194.96 3.8,435.45 0,240.49 -1.46,435.31 -3.8,435.31z"/>
   <path class="fil5" d="M2760.43 1350.72c-2.2,0 -3.8,-194.96 -3.8,-435.31 0,-240.34 1.61,-435.45 3.8,-435.45 2.2,0 3.81,194.96 3.81,435.45 0,240.49 -1.76,435.31 -3.81,435.31z"/>
   <polygon class="fil7" points="4810.8,502.93 2718.27,502.93 2718.27,3250.33 4810.8,3250.33 "/>
   <polygon class="fil5" points="4712.15,547.28 2843.42,547.28 2843.42,3225.3 4712.15,3225.3 "/>
   <polygon class="fil7" points="3777.56,1430.05 3034.87,1430.05 3034.87,3223.11 3777.56,3223.11 "/>
   <polygon class="fil2" points="3271.56,1648.29 3154.31,1648.29 3154.31,1765.54 3271.56,1765.54 "/>
   <polygon class="fil0" points="3464.77,1648.29 3347.52,1648.29 3347.52,1765.54 3464.77,1765.54 "/>
   <polygon class="fil0" points="3658.13,1648.29 3540.88,1648.29 3540.88,1765.54 3658.13,1765.54 "/>
   <polygon class="fil0" points="3271.56,1824.96 3154.31,1824.96 3154.31,1942.21 3271.56,1942.21 "/>
   <polygon class="fil2" points="3464.77,1824.96 3347.52,1824.96 3347.52,1942.21 3464.77,1942.21 "/>
   <polygon class="fil0" points="3658.13,1824.96 3540.88,1824.96 3540.88,1942.21 3658.13,1942.21 "/>
   <polygon class="fil0" points="3271.56,2001.63 3154.31,2001.63 3154.31,2118.88 3271.56,2118.88 "/>
   <polygon class="fil0" points="3464.77,2001.63 3347.52,2001.63 3347.52,2118.88 3464.77,2118.88 "/>
   <polygon class="fil0" points="3658.13,2001.63 3540.88,2001.63 3540.88,2118.88 3658.13,2118.88 "/>
   <polygon class="fil2" points="3271.56,2178.45 3154.31,2178.45 3154.31,2295.69 3271.56,2295.69 "/>
   <polygon class="fil0" points="3464.77,2178.45 3347.52,2178.45 3347.52,2295.69 3464.77,2295.69 "/>
   <polygon class="fil2" points="3658.13,2178.45 3540.88,2178.45 3540.88,2295.69 3658.13,2295.69 "/>
   <polygon class="fil0" points="3271.56,2355.12 3154.31,2355.12 3154.31,2472.36 3271.56,2472.36 "/>
   <polygon class="fil0" points="3464.77,2355.12 3347.52,2355.12 3347.52,2472.36 3464.77,2472.36 "/>
   <polygon class="fil0" points="3658.13,2355.12 3540.88,2355.12 3540.88,2472.36 3658.13,2472.36 "/>
   <polygon class="fil0" points="3271.56,2531.79 3154.31,2531.79 3154.31,2649.04 3271.56,2649.04 "/>
   <polygon class="fil2" points="3464.77,2531.79 3347.52,2531.79 3347.52,2649.04 3464.77,2649.04 "/>
   <polygon class="fil0" points="3658.13,2531.79 3540.88,2531.79 3540.88,2649.04 3658.13,2649.04 "/>
   <polygon class="fil0" points="3271.56,2708.46 3154.31,2708.46 3154.31,2825.71 3271.56,2825.71 "/>
   <polygon class="fil0" points="3464.77,2708.46 3347.52,2708.46 3347.52,2825.71 3464.77,2825.71 "/>
   <polygon class="fil2" points="3658.13,2708.46 3540.88,2708.46 3540.88,2825.71 3658.13,2825.71 "/>
   <polygon class="fil2" points="3271.56,2885.14 3154.31,2885.14 3154.31,3002.38 3271.56,3002.38 "/>
   <polygon class="fil0" points="3464.77,2885.14 3347.52,2885.14 3347.52,3002.38 3464.77,3002.38 "/>
   <polygon class="fil0" points="3658.13,2885.14 3540.88,2885.14 3540.88,3002.38 3658.13,3002.38 "/>
   <polygon class="fil0" points="3271.56,3061.81 3154.31,3061.81 3154.31,3179.05 3271.56,3179.05 "/>
   <polygon class="fil2" points="3464.77,3061.81 3347.52,3061.81 3347.52,3179.05 3464.77,3179.05 "/>
   <polygon class="fil0" points="3658.13,3061.81 3540.88,3061.81 3540.88,3179.05 3658.13,3179.05 "/>
   <polygon class="fil7" points="4320.46,2008.66 3814.45,2008.66 3814.45,3230.28 4320.46,3230.28 "/>
   <polygon class="fil1" points="3975.6,2157.37 3895.69,2157.37 3895.69,2237.3 3975.6,2237.3 "/>
   <polygon class="fil0" points="4107.34,2157.37 4027.42,2157.37 4027.42,2237.3 4107.34,2237.3 "/>
   <polygon class="fil1" points="4239.07,2157.37 4159.16,2157.37 4159.16,2237.3 4239.07,2237.3 "/>
   <polygon class="fil0" points="3975.6,2277.84 3895.69,2277.84 3895.69,2357.76 3975.6,2357.76 "/>
   <polygon class="fil1" points="4107.34,2277.84 4027.42,2277.84 4027.42,2357.76 4107.34,2357.76 "/>
   <polygon class="fil1" points="4239.07,2277.84 4159.16,2277.84 4159.16,2357.76 4239.07,2357.76 "/>
   <polygon class="fil1" points="3975.6,2398.16 3895.69,2398.16 3895.69,2478.08 3975.6,2478.08 "/>
   <polygon class="fil0" points="4107.34,2398.16 4027.42,2398.16 4027.42,2478.08 4107.34,2478.08 "/>
   <polygon class="fil1" points="4239.07,2398.16 4159.16,2398.16 4159.16,2478.08 4239.07,2478.08 "/>
   <polygon class="fil1" points="3975.6,2518.47 3895.69,2518.47 3895.69,2598.39 3975.6,2598.39 "/>
   <polygon class="fil1" points="4107.34,2518.47 4027.42,2518.47 4027.42,2598.39 4107.34,2598.39 "/>
   <polygon class="fil0" points="4239.07,2518.47 4159.16,2518.47 4159.16,2598.39 4239.07,2598.39 "/>
   <polygon class="fil0" points="3975.6,2638.94 3895.69,2638.94 3895.69,2718.86 3975.6,2718.86 "/>
   <polygon class="fil1" points="4107.34,2638.94 4027.42,2638.94 4027.42,2718.86 4107.34,2718.86 "/>
   <polygon class="fil1" points="4239.07,2638.94 4159.16,2638.94 4159.16,2718.86 4239.07,2718.86 "/>
   <polygon class="fil1" points="3975.6,2759.26 3895.69,2759.26 3895.69,2839.17 3975.6,2839.17 "/>
   <polygon class="fil1" points="4107.34,2759.26 4027.42,2759.26 4027.42,2839.17 4107.34,2839.17 "/>
   <polygon class="fil0" points="4239.07,2759.26 4159.16,2759.26 4159.16,2839.17 4239.07,2839.17 "/>
   <polygon class="fil1" points="3975.6,2879.72 3895.69,2879.72 3895.69,2959.64 3975.6,2959.64 "/>
   <polygon class="fil0" points="4107.34,2879.72 4027.42,2879.72 4027.42,2959.64 4107.34,2959.64 "/>
   <polygon class="fil1" points="4239.07,2879.72 4159.16,2879.72 4159.16,2959.64 4239.07,2959.64 "/>
   <polygon class="fil0" points="3975.6,3000.04 3895.69,3000.04 3895.69,3079.95 3975.6,3079.95 "/>
   <polygon class="fil1" points="4107.34,3000.04 4027.42,3000.04 4027.42,3079.95 4107.34,3079.95 "/>
   <polygon class="fil1" points="4239.07,3000.04 4159.16,3000.04 4159.16,3079.95 4239.07,3079.95 "/>
   <polygon class="fil1" points="3975.6,3120.5 3895.69,3120.5 3895.69,3200.42 3975.6,3200.42 "/>
   <polygon class="fil1" points="4107.34,3120.5 4027.42,3120.5 4027.42,3200.42 4107.34,3200.42 "/>
   <polygon class="fil0" points="4239.07,3120.5 4159.16,3120.5 4159.16,3200.42 4239.07,3200.42 "/>
   <polygon class="fil7" points="4657.11,2510.28 4364.22,2510.28 4364.22,3217.54 4657.11,3217.54 "/>
   <polygon class="fil1" points="4457.46,2596.34 4411.21,2596.34 4411.21,2642.59 4457.46,2642.59 "/>
   <polygon class="fil0" points="4533.72,2596.34 4487.47,2596.34 4487.47,2642.6 4533.72,2642.6 "/>
   <polygon class="fil1" points="4609.98,2596.34 4563.73,2596.34 4563.73,2642.6 4609.98,2642.6 "/>
   <polygon class="fil1" points="4457.46,2666.02 4411.21,2666.02 4411.21,2712.27 4457.46,2712.27 "/>
   <polygon class="fil0" points="4533.72,2666.02 4487.47,2666.02 4487.47,2712.27 4533.72,2712.27 "/>
   <polygon class="fil1" points="4609.98,2666.02 4563.73,2666.02 4563.73,2712.27 4609.98,2712.27 "/>
   <polygon class="fil0" points="4457.46,2735.69 4411.21,2735.69 4411.21,2781.94 4457.46,2781.94 "/>
   <polygon class="fil1" points="4533.72,2735.69 4487.47,2735.69 4487.47,2781.94 4533.72,2781.94 "/>
   <polygon class="fil0" points="4609.98,2735.69 4563.73,2735.69 4563.73,2781.94 4609.98,2781.94 "/>
   <polygon class="fil1" points="4457.46,2805.51 4411.21,2805.51 4411.21,2851.76 4457.46,2851.76 "/>
   <polygon class="fil0" points="4533.72,2805.51 4487.47,2805.51 4487.47,2851.76 4533.72,2851.76 "/>
   <polygon class="fil1" points="4609.98,2805.51 4563.73,2805.51 4563.73,2851.76 4609.98,2851.76 "/>
   <polygon class="fil1" points="4457.46,2875.19 4411.21,2875.19 4411.21,2921.43 4457.46,2921.43 "/>
   <polygon class="fil1" points="4533.72,2875.19 4487.47,2875.19 4487.47,2921.43 4533.72,2921.43 "/>
   <polygon class="fil0" points="4609.98,2875.19 4563.73,2875.19 4563.73,2921.43 4609.98,2921.43 "/>
   <polygon class="fil0" points="4457.46,2944.86 4411.21,2944.86 4411.21,2991.11 4457.46,2991.11 "/>
   <polygon class="fil1" points="4533.72,2944.86 4487.47,2944.86 4487.47,2991.11 4533.72,2991.11 "/>
   <polygon class="fil1" points="4609.98,2944.86 4563.73,2944.86 4563.73,2991.11 4609.98,2991.11 "/>
   <polygon class="fil1" points="4457.46,3014.53 4411.21,3014.53 4411.21,3060.78 4457.46,3060.78 "/>
   <polygon class="fil0" points="4533.72,3014.53 4487.47,3014.53 4487.47,3060.78 4533.72,3060.78 "/>
   <polygon class="fil1" points="4609.98,3014.53 4563.73,3014.53 4563.73,3060.78 4609.98,3060.78 "/>
   <polygon class="fil1" points="4457.46,3084.2 4411.21,3084.2 4411.21,3130.46 4457.46,3130.46 "/>
   <polygon class="fil0" points="4533.72,3084.2 4487.47,3084.2 4487.47,3130.46 4533.72,3130.46 "/>
   <polygon class="fil1" points="4609.98,3084.2 4563.73,3084.2 4563.73,3130.46 4609.98,3130.46 "/>
   <polygon class="fil0" points="4457.46,3153.87 4411.21,3153.87 4411.21,3200.13 4457.46,3200.13 "/>
   <polygon class="fil1" points="4533.72,3153.87 4487.47,3153.87 4487.47,3200.13 4533.72,3200.13 "/>
   <polygon class="fil0" points="4609.98,3153.87 4563.73,3153.87 4563.73,3200.13 4609.98,3200.13 "/>
   <path class="fil2" d="M4427.16 1584.77c-59.94,-0 -118.72,-16.51 -169.9,-47.71 -51.17,-31.21 -92.77,-75.9 -120.23,-129.17 -27.45,-53.29 -39.71,-113.09 -35.42,-172.88 4.28,-59.78 24.95,-117.23 59.73,-166.05 -38.59,27.52 -70.72,63.13 -94.17,104.33 -23.43,41.2 -37.61,87.02 -41.54,134.27 -3.93,47.24 2.48,94.77 18.8,139.28 16.31,44.51 42.13,84.93 75.64,118.45 33.52,33.52 73.94,59.34 118.45,75.65 44.51,16.31 92.04,22.72 139.29,18.8 47.24,-3.93 93.06,-18.11 134.26,-41.54 41.21,-23.44 76.81,-55.57 104.33,-94.17 -55.17,39.56 -121.37,60.81 -189.26,60.75l0 0z"/>
   <path class="fil5" d="M4772.02 1350.72c-2.05,0 -3.81,-194.96 -3.81,-435.31 0,-240.34 1.76,-435.45 3.81,-435.45 2.05,0 3.81,194.96 3.81,435.45 0,240.49 -1.76,435.31 -3.81,435.31z"/>
   <path class="fil5" d="M4740.4 1350.72c-2.05,0 -3.81,-194.96 -3.81,-435.31 0,-240.34 1.76,-435.45 3.81,-435.45 2.05,0 3.81,194.96 3.81,435.45 0,240.49 -1.61,435.31 -3.81,435.31z"/>
   <polygon class="fil0" points="4930.97,502.93 2624.74,502.93 2659.72,450.09 4880.92,450.09 "/>
   <path class="fil5" d="M4930.97 502.93l-50.79 -52.25 0.73 0c-239.17,1.61 -1140.68,2.93 -2221.19,2.93l3.07 -1.76 -20.64 31.47 -14.64 21.52 -3.22 -6 2306.24 3.81 -2305.8 3.95 -7.02 0 3.95 -6c4.39,-6.73 9.22,-14.64 14.63,-21.52l20.2 -31.03 1.17 -1.61 2.34 0c1080.52,0 1982.02,1.17 2221.19,2.93 32.93,35.28 45.67,49.33 49.76,53.57z"/>
   <polygon class="fil0" points="4930.97,611.98 2624.74,611.98 2659.72,559 4880.92,559 "/>
   <path class="fil5" d="M4930.97 611.98l-50.79 -52.4 0.73 0c-239.17,1.75 -1140.68,2.92 -2221.19,2.92l3.07 -1.76 -20.64 31.47 -14.64 21.52 -3.22 -5.86 2306.24 3.81 -2306.24 3.8 -7.02 0 3.95 -6 14.64 -21.52c7.03,-10.68 14.64,-21.51 20.64,-31.32l1.17 -1.76 2.34 0c1080.52,0 1982.02,1.31 2221.19,2.93l49.76 54.16z"/>
   <polygon class="fil0" points="4930.97,720.88 2624.74,720.88 2659.72,667.89 4880.92,667.89 "/>
   <path class="fil5" d="M4930.97 720.88l-50.79 -52.25 0.73 0c-239.17,1.61 -1140.68,2.78 -2221.19,2.78l3.07 -1.61 -20.64 31.32 -14.64 21.52 -3.22 -5.86 2306.24 3.81 -2306.24 3.81 -7.02 0 3.95 -5.86c4.39,-6.88 9.22,-14.64 14.64,-21.52l20.64 -31.47 1.17 -1.76 2.34 0c1080.52,0 1982.02,1.32 2221.19,2.93l49.76 54.16z"/>
   <polygon class="fil0" points="4930.97,829.78 2624.74,829.78 2659.72,776.94 4880.92,776.94 "/>
   <path class="fil5" d="M4930.97 829.78l-50.79 -52.25 0.73 0c-239.17,1.6 -1140.68,2.92 -2221.19,2.92l3.07 -1.76 -20.64 31.47 -14.64 21.52 -3.22 -6 2306.24 3.81 -2306.24 3.8 -7.02 0 3.95 -5.85c4.39,-6.74 9.22,-14.64 14.64,-21.52l20.64 -31.46 1.17 -1.61 2.34 0c1080.52,0 1982.02,1.17 2221.19,2.78 32.93,35.71 45.67,49.91 49.76,54.16z"/>
   <polygon class="fil0" points="4930.97,938.83 2624.74,938.83 2659.72,885.84 4880.92,885.84 "/>
   <path class="fil5" d="M4930.97 938.83l-50.79 -51.67 0.73 0c-239.17,1.61 -1140.68,2.93 -2221.19,2.93l3.07 -1.76 -20.64 31.47 -14.64 21.52 -3.22 -5.85 2306.24 3.81 -2306.24 3.8 -7.02 0 3.95 -6 14.64 -21.52c7.03,-10.69 14.64,-21.52 20.64,-31.32l1.17 -1.76 2.34 0c1080.52,0 1982.02,1.31 2221.19,2.93l49.76 53.43z"/>
   <polygon class="fil0" points="4930.97,1047.73 2624.74,1047.73 2659.72,994.74 4880.92,994.74 "/>
   <path class="fil5" d="M4930.97 1048.17l-50.79 -52.26 0.73 0c-239.17,1.76 -1140.68,2.93 -2221.19,2.93l3.07 -1.61 -20.64 31.32 -14.64 21.52 -3.22 -5.85 2306.24 3.81 -2306.24 3.8 -7.02 0 3.95 -5.85c4.39,-6.88 9.22,-14.63 14.64,-21.52l20.64 -31.47 1.17 -1.76 2.34 0c1080.52,0 1982.02,1.31 2221.19,2.93l49.76 54.01z"/>
   <polygon class="fil0" points="4930.97,1156.63 2624.74,1156.63 2659.72,1103.79 4880.92,1103.79 "/>
   <path class="fil5" d="M4930.97 1156.63l-50.79 -52.25 0.73 0c-239.17,1.61 -1140.68,2.78 -2221.19,2.93l3.07 -1.76c-6.44,9.95 -13.61,20.64 -20.64,31.33l-14.64 21.66 -3.22 -6 2306.24 3.8 -2306.24 3.81 -7.02 0 3.95 -5.85c4.39,-6.89 9.22,-14.64 14.64,-21.52l20.64 -31.47 1.17 -1.61 2.34 0c1080.52,0 1982.02,1.17 2221.19,2.78l49.76 54.16z"/>
   <polygon class="fil0" points="4930.97,1265.67 2624.74,1265.67 2659.72,1212.69 4880.92,1212.69 "/>
   <path class="fil5" d="M4930.97 1265.53l-50.79 -52.25 0.73 0c-239.17,1.61 -1140.68,2.93 -2221.19,2.93l3.07 -1.76 -20.64 31.47 -14.64 21.52 -3.22 -6 2306.24 3.8 -2306.24 3.95 -7.02 0 3.95 -6c4.39,-6.73 9.22,-14.64 14.64,-21.52 7.03,-10.69 14.64,-21.52 20.64,-31.33l1.17 -1.75 2.34 0c1080.52,0 1982.02,1.17 2221.19,2.93 32.93,35.72 45.67,49.77 49.76,54.01z"/>
   <polygon class="fil0" points="4930.97,1374.58 2624.74,1374.58 2659.72,1321.59 4880.92,1321.59 "/>
   <path class="fil5" d="M4930.97 1374.58l-50.79 -52.41 0.73 0c-239.17,1.76 -1140.68,2.93 -2221.19,2.93l3.07 -1.76 -20.64 32.2 -14.64 21.52 -3.22 -5.85 2306.24 3.81 -2306.24 3.8 -7.02 0 3.95 -6 14.64 -21.52 20.64 -31.32 1.17 -1.76 2.34 0c1080.52,0 1982.02,1.31 2221.19,2.92l49.76 53.43z"/>
   <polygon class="fil5" points="4947.95,3217.54 2823.8,3217.54 2823.8,3341.08 4947.95,3341.08 "/>
   <polygon class="fil7" points="4694.43,3217.54 2570.29,3217.54 2570.29,3341.08 4694.43,3341.08 "/>
   <polygon class="fil7" points="4927.17,348.07 2615.52,348.07 2615.52,450.09 4927.17,450.09 "/>
   <path class="fil5" d="M4855.59 2249.15c-2.2,0 -3.8,-408.38 -3.8,-912.04 0,-503.67 1.61,-912.19 3.8,-912.19 2.19,0 3.8,408.37 3.8,912.19 0,503.81 -1.91,912.04 -3.8,912.04z"/>
   <path class="fil5" d="M4947.96 3217.98c0,2.05 -532.21,3.81 -1188.39,3.81 -656.19,0 -1188.54,-1.76 -1188.54,-3.81 0,-2.05 532.06,-3.8 1188.54,-3.8 656.48,0 1188.39,1.76 1188.39,3.8z"/>
   <path class="fil2" d="M4105.88 1805.06l4.98 8.2c5.57,9.27 13.7,16.74 23.41,21.51l8.49 4.25 -8.19 4.98c-9.24,5.61 -16.7,13.74 -21.52,23.41l-4.24 8.63 -4.98 -8.34c-5.56,-9.23 -13.63,-16.69 -23.27,-21.52l-8.64 -4.24 8.2 -4.98c9.23,-5.56 16.69,-13.63 21.51,-23.27l4.25 -8.63z"/>
   <path class="fil2" d="M3989.22 1684.16l2.63 4.09c2.73,4.8 6.87,8.63 11.86,10.98l4.24 2.2 -4.09 2.49c-4.7,2.85 -8.5,6.95 -10.98,11.85l-2.19 4.39 -2.49 -4.24c-2.78,-4.72 -6.91,-8.49 -11.85,-10.83l-4.39 -2.2 4.25 -2.49c4.68,-2.82 8.44,-6.94 10.83,-11.86l2.2 -4.39z"/>
   <path class="fil2" d="M4384.42 1444.54l2.64 4.24c2.84,4.7 6.95,8.51 11.85,10.98l4.39 2.05 -4.24 2.64c-4.7,2.84 -8.5,6.95 -10.98,11.85l-2.05 4.39 -2.63 -4.25c-2.84,-4.7 -6.95,-8.5 -11.86,-10.98l-4.39 -2.05 4.24 -2.63c4.7,-2.84 8.5,-6.95 10.98,-11.85l2.05 -4.39z"/>
   <path class="fil2" d="M4509.13 2082.87l2.49 4.25c2.88,4.72 7.05,8.52 12,10.98l4.24 2.05 -4.09 2.63c-4.7,2.84 -8.5,6.95 -10.98,11.86l-2.2 4.39 -2.49 -4.24c-2.84,-4.7 -6.95,-8.51 -11.85,-10.98l-4.39 -2.05 4.24 -2.64c4.72,-2.78 8.49,-6.91 10.83,-11.85l2.2 -4.39z"/>
   <path class="fil7" d="M8222.12 4728.4c-136.12,158.67 -150.61,330.21 -204.89,490.63 -88.73,262.3 -136.72,529.45 -86.83,801.7 70.45,74.79 216.67,70.23 340.21,55.59 219.54,-26.04 472.15,19.91 692.61,8.62 44.04,-2.5 85.63,-20.88 117.09,-51.79 53.85,-48.87 51.52,-131.74 54.89,-204.89 15.67,-334.62 233.47,-623.57 322.04,-946.61 5.1,-18.59 9.39,-39.81 -1.3,-55.92 -5.86,-6.76 -12.91,-12.31 -20.88,-16.33 -7.97,-4.02 -16.65,-6.42 -25.54,-7.08 -184.56,-36.74 -374.86,-19.76 -562.94,-13.18 -178.59,6.15 -363.15,1.32 -528.23,-65.43 -22.45,-9.43 -47.24,-11.78 -70.99,-6.74 -9.38,1.2 -18.11,5.17 -25.22,11.42l0 0z"/>
   <path class="fil5" d="M8425.44 5200.3c1.09,-2.05 2.44,-3.96 3.96,-5.71l12.15 -15.51c5.26,-6.88 11.87,-14.64 20.23,-23.86 8.3,-9.22 17.24,-19.61 29.23,-30.15l17.3 -16.98c5.96,-5.86 12.74,-11.42 19.47,-17.42 13.29,-12.15 29.29,-23.85 44.8,-36.44 35.41,-26.28 72.89,-49.76 111.94,-70.26 39.43,-19.87 80.26,-36.75 122.24,-50.5 19.47,-5.7 37.91,-11.56 55.59,-14.63 8.79,-2.05 17.3,-4.39 25.49,-5.86l23.87 -4.24c14.64,-3.07 29.28,-4.09 41,-5.7 11.71,-1.61 22.51,-2.34 31.19,-2.64l19.74 -0.88 6.89 0c-2.22,0.69 -4.56,1.09 -6.89,1.17l-19.63 1.9c-8.46,0 -18.87,1.61 -30.86,3.51 -11.98,1.9 -25.93,3.37 -40.84,6.59l-23.59 4.54c-8.19,1.61 -16.54,3.95 -25.17,6.15 -17.57,3.81 -35.85,9.8 -55.15,15.66 -41.65,13.9 -82.22,30.83 -121.37,50.64 -39.05,20.19 -76.53,43.28 -112.1,69.09 -15.94,12.3 -31.46,23.71 -44.8,35.72 -6.73,6 -13.61,11.42 -19.63,17.12l-17.41 16.54c-11.28,10.24 -20.5,20.78 -29.29,29.27 -8.78,8.49 -14.64,16.69 -20.77,23.13l-13.02 14.64c-1.35,1.85 -2.87,3.57 -4.56,5.13l0 0z"/>
   <g>
    <path class="fil8" d="M8064.36 6068.73c104.67,-27.82 129.24,-145.35 136.83,-216.33 7.65,-70.99 -5.1,-142.58 -3.91,-214.01 2.06,-83.74 23,-165.95 61.23,-240.45 38.29,-74.51 92.9,-139.43 159.77,-189.88 -45.07,-42.01 -60.58,-107.29 -62.96,-168.92 -2.33,-61.62 6.02,-123.54 -1.46,-184.72 -7.43,-61.19 -35.09,-124.57 -89.27,-153.84l-225.4 761.11 63.94 348.83 -83.25 253.98 44.47 4.23z"/>
   </g>
   <g>
    <path class="fil9" d="M8264.75 4377.83l285.7 306.22c47.13,50.5 81.24,96.6 148.11,114.31 46.86,12.3 120.34,5.86 144.48,-25.17 33.25,-42.6 49.19,-129.83 12.74,-186.19 -36.44,-56.35 -292.75,-306.51 -292.75,-306.51l-298.88 97.34 0.6 0zm0 0l0 0 0 0z"/>
   </g>
   <path class="fil5" d="M8164.74 3870.95c-3.8,-108.02 -7.75,-216.48 -28.36,-322.02 -20.67,-105.53 -46.54,-209.31 -113.02,-294.65l-620.92 33.37c-23.81,95.73 -48.11,193.8 -38.02,292.02 9.65,95.28 51.2,187.35 43.87,282.94 -4.83,67.48 -33.19,130.56 -54.29,194.96 -21.1,64.4 -34.55,135.69 -9.65,198.48 5.48,16.19 15.67,30.36 29.29,40.69 18.6,9.7 39.65,13.81 60.58,11.85 248.44,0 496.67,-5.71 744.73,-17.13 -4.39,-140.42 -9.11,-280.59 -14.21,-420.53z"/>
   <path class="fil6" d="M8660.39 4351.2c0,0 -296.82,-354.22 -409.84,-354.22 0,0 -71.26,125.59 -73.16,194.09 -1.95,68.5 228.48,389.2 228.48,389.2l254.52 -229.07z"/>
   <path class="fil6" d="M7944.02 3993.02l305.33 3.22 94.26 470.29c0,0 -50.6,490.2 -87.8,614.76 -37.15,124.56 -134.93,360.81 -134.93,360.81l-741.26 -197.18 -22.5 -543.03 -92.09 -509.96 322.04 -127.05 356.96 -71.87z"/>
   <path class="fil6" d="M7051.17 4643.35c0,-18.89 104.94,-405.89 213.68,-450.83l83.9 129.54 39.1 352.32 -336.68 -31.03z"/>
   <path class="fil5" d="M8341.44 4225.61c0.33,4.09 0.33,8.2 0,12.3 0,9.07 0,20.2 -1.3,33.37 -1.03,28.1 -1.9,66.89 -1.46,109.77 0.43,42.89 2.49,81.68 4.23,109.78 0.87,13.03 1.46,24.16 2.06,33.23 0.49,4.09 0.49,8.21 0,12.3 -1.3,-3.93 -2.06,-8.02 -2.33,-12.15 -1.2,-7.76 -2.5,-19.03 -3.85,-33.08 -2.76,-28.1 -5.26,-67.04 -5.8,-110.07 -0.59,-43.03 0.98,-81.97 3.04,-110.07 1.03,-14.63 2.06,-25.33 3.09,-33.23 0.22,-4.14 1.03,-8.22 2.33,-12.15l0 0z"/>
   <path class="fil5" d="M7354.28 4337.87c0.22,4.52 -0.22,9.05 -1.14,13.46 -1.19,8.64 -2.66,21.08 -4.23,36.6 -8.41,80.41 -6.67,161.55 5.26,241.51 2.33,15.37 4.39,27.67 5.85,36.3 1.09,4.41 1.68,8.93 1.74,13.46 -1.79,-4.18 -3.04,-8.55 -3.8,-13.03 -2.22,-8.49 -4.83,-20.78 -7.76,-36.15 -14.26,-80.14 -16,-162 -5.26,-242.69 2.17,-15.37 4.23,-27.81 5.96,-36.3 0.6,-4.51 1.74,-8.94 3.36,-13.17z"/>
   <path class="fil5" d="M8006.38 5214.94c-3.9,-3.56 -7.48,-7.48 -10.68,-11.71 -7.32,-8.64 -16.54,-19.76 -27.82,-32.94 -23.27,-27.96 -55.59,-66.31 -92.04,-108.02 -36.44,-41.72 -70.28,-78.89 -94.85,-105.68l-29.28 -31.91c-3.8,-3.73 -7.21,-7.8 -10.25,-12.15 4.23,3.26 8.19,6.83 11.88,10.69 7.32,7.03 17.57,17.56 30.26,30.59 25.33,26.2 59.61,62.94 96.21,104.66 36.55,41.72 68.5,80.65 91,109.19 11.28,14.64 20.23,26.06 26.19,34.25 3.58,4 6.72,8.37 9.38,13.03l0 0z"/>
   <g>
    <path class="fil5" d="M8070.06 3521.85c1.57,66.68 -11.06,132.93 -37.04,194.37 -25.98,61.44 -64.65,116.67 -113.57,162.04 -22.45,-64.99 -44.9,-130.02 -67.35,-195.11l217.96 -161.3zm0 0l0 0 0 0z"/>
   </g>
   <path class="fil5" d="M7562.43 3133.96c59.49,-29.88 127.5,-38.06 192.37,-23.13 64.27,14.98 125.66,40.35 181.79,75.09 32.86,17.04 62.26,40.02 86.77,67.76 42.03,52.84 83.46,139.64 87.86,206.97 3.2,54.45 -17.57,190.29 -40.57,240.2 -21.2,45.38 -120.02,79.93 -168.77,91.05l-447.59 -520.5c8.03,-28.92 21.75,-55.96 40.3,-79.55 18.6,-23.59 41.65,-43.27 67.85,-57.89z"/>
   <path class="fil5" d="M7485.31 3204.22l107.44 -19.02c-58.57,139.63 -74.52,459.17 -108.03,606.85 -39.65,-57.38 -131.74,-232.15 -126.58,-301.67 5.1,-69.53 0.43,-298.01 127.18,-286.16z"/>
   <path class="fil9" d="M7423.97 3431.98c7.05,-107.14 78.31,-238.58 185.15,-227.02l247.09 63.09c38.02,9.67 71.91,31.28 96.75,61.66 24.84,30.37 39.27,67.92 41.11,107.11 0,3.94 0.76,-0.88 0,2.05l-55.15 639.94 -185.15 368.13 -163.68 -385.98c0,-52.26 0,-93.83 0,-93.53 0,0.29 -136.99,-22.98 -164.93,-201.85 -13.77,-88.85 -8.95,-214.44 -1.19,-333.58z"/>
   <path class="fil5" d="M7490.3 3577.33c-0.05,5.97 2.22,11.72 6.35,16.04 4.12,4.32 9.76,6.86 15.73,7.09 5.75,0.4 11.44,-1.48 15.78,-5.24 4.34,-3.76 7.05,-9.08 7.48,-14.82 0.16,-5.96 -2.11,-11.74 -6.19,-16.07 -4.12,-4.33 -9.76,-6.87 -15.73,-7.06 -5.8,-0.4 -11.44,1.47 -15.83,5.22 -4.39,3.75 -7.1,9.08 -7.59,14.83l0 0z"/>
   <path class="fil5" d="M7450.76 3501.94c2.93,3.07 20.34,-9.81 44.96,-9.66 24.57,0.15 42.74,12.44 45.34,9.51 2.66,-2.93 -1.57,-6.73 -9.33,-12.59 -10.74,-7.39 -23.43,-11.33 -36.44,-11.27 -12.85,-0.03 -25.38,4.02 -35.74,11.56 -7.59,5.71 -10.09,11.12 -8.79,12.44z"/>
   <path class="fil5" d="M7703.98 3577.33c-0.05,5.97 2.28,11.72 6.4,16.04 4.12,4.32 9.76,6.86 15.72,7.09 2.88,0.24 5.8,-0.11 8.63,-1.03 2.77,-0.92 5.31,-2.38 7.54,-4.31 2.17,-1.92 3.96,-4.27 5.26,-6.9 1.25,-2.63 2,-5.49 2.11,-8.41 0.11,-5.96 -2.17,-11.71 -6.24,-16.03 -4.12,-4.32 -9.76,-6.87 -15.73,-7.09 -2.87,-0.24 -5.86,0.11 -8.62,1.02 -2.77,0.91 -5.37,2.38 -7.54,4.3 -2.22,1.93 -4.01,4.27 -5.31,6.91 -1.3,2.63 -2.06,5.49 -2.22,8.42z"/>
   <path class="fil5" d="M7684.94 3501.94c2.93,3.07 20.39,-9.81 44.96,-9.66 24.57,0.15 42.74,12.44 45.39,9.51 2.6,-2.93 -1.46,-6.73 -9.38,-12.59 -10.69,-7.37 -23.32,-11.31 -36.28,-11.27 -12.85,-0.01 -25.38,3.98 -35.9,11.42 -7.43,5.85 -10.09,11.27 -8.79,12.59z"/>
   <path class="fil5" d="M7607.39 3695.6c-13.07,-3.96 -26.52,-6.41 -40.13,-7.32 -6.29,0 -12.26,-1.9 -13.29,-6.15 -0.54,-6.53 0.98,-13.06 4.23,-18.74l19.91 -47.86c26.09,-68.21 44.96,-124.27 42.14,-125.3 -2.76,-1.03 -26.03,53.43 -52.06,121.63l-18.01 48.16c-3.96,7.61 -5.1,16.37 -3.25,24.74 0.92,2.22 2.28,4.21 4.07,5.81 1.79,1.6 3.91,2.76 6.19,3.41 3.47,0.99 7.1,1.49 10.68,1.46 13.13,1.74 26.41,1.79 39.54,0.15l0 0z"/>
   <path class="fil10" d="M7826.93 3903.89c0,0 -58.52,122.66 -236.94,105.53l0 -42.01c83.35,1.18 165.35,-20.81 236.94,-63.52l0 0z"/>
   <path class="fil5" d="M7692.7 3412.81c2.5,6.73 27.12,3.66 56.08,7.17 28.96,3.52 52.28,11.56 56.07,5.56 1.74,-2.93 -2.33,-9.22 -11.71,-15.81 -12.53,-8.04 -26.79,-13.05 -41.6,-14.64 -14.81,-1.78 -29.88,-0.03 -43.87,5.13 -10.57,4.53 -15.94,9.51 -14.97,12.59z"/>
   <path class="fil5" d="M7458.84 3426.56c4.34,5.56 21.37,0 41.81,0 20.5,0 37.64,3.8 41.76,-2.05 1.74,-2.78 -1.03,-8.35 -8.68,-13.76 -10.09,-6.38 -21.91,-9.6 -33.9,-9.24 -11.93,0.37 -23.54,4.3 -33.24,11.29 -7.21,5.26 -9.71,10.98 -7.76,13.76z"/>
   <g>
    <path class="fil5" d="M7472.56 3268.77c6.4,-13.02 16.22,-24.02 28.47,-31.77 12.26,-7.76 26.41,-11.96 40.94,-12.13 29.18,-0.03 57.76,8.3 82.38,24 106.41,61.47 161.02,210.04 266.23,273.72 25.92,15.66 59.6,1.32 81.57,22.1 21.91,20.79 36.28,53.87 24.13,81.53 15.02,-18.74 27.33,-39.54 36.44,-61.76 4.5,-11.15 6.56,-23.13 6.07,-35.15 -0.49,-12.02 -3.58,-23.79 -9,-34.52 -9.06,-15.66 -25.17,-27.67 -29.29,-45.38 -3.96,-15.52 2.22,-31.76 1.63,-47.86 -1.84,-16.25 -7.43,-31.84 -16.38,-45.52 -39.65,-74.28 -98.65,-136.41 -170.83,-179.75 -47.62,-27.56 -101.91,-41.58 -156.9,-40.54 -55.1,1.12 -108.04,21.88 -149.14,58.55 -23.59,21.95 -48.32,44.65 -36.01,74.36l-0.33 0.14zm0 0l0 0 0 0z"/>
   </g>
   <path class="fil9" d="M7969.67 3565.76c1.9,-5.12 94.96,-38.79 96.32,60.31 1.14,96.31 -95.89,77.28 -96.21,74.5 -0.27,-2.78 -0.11,-134.81 -0.11,-134.81z"/>
   <path class="fil10" d="M7999.22 3664.27c0,0 1.63,1.17 4.56,2.49 1.95,0.82 4.07,1.24 6.18,1.24 2.17,0 4.29,-0.42 6.24,-1.24 6.24,-3.98 11.22,-9.57 14.54,-16.15 3.36,-6.59 4.83,-13.96 4.33,-21.31 0.17,-8.21 -1.52,-16.35 -4.82,-23.86 -0.93,-2.99 -2.6,-5.71 -4.83,-7.93 -2.17,-2.22 -4.94,-3.87 -7.92,-4.81 -1.95,-0.52 -4.01,-0.34 -5.8,0.52 -1.84,0.86 -3.31,2.34 -4.12,4.17 -1.19,2.64 0,4.54 -1.19,4.69 -1.14,0.15 -2.06,-1.61 -1.3,-5.56 0.54,-2.37 1.9,-4.49 3.8,-6 1.3,-1.02 2.76,-1.76 4.34,-2.19 1.63,-0.43 3.25,-0.53 4.88,-0.3 3.96,0.73 7.65,2.45 10.79,5.01 3.09,2.57 5.48,5.88 6.94,9.63 4.07,8.33 6.13,17.51 5.97,26.79 0.54,8.56 -1.46,17.08 -5.7,24.52 -4.28,7.44 -10.63,13.47 -18.28,17.34 -2.49,0.67 -5.1,0.79 -7.59,0.36 -2.55,-0.43 -4.93,-1.4 -7.05,-2.85 -3.8,-2.2 -4.39,-4.25 -3.96,-4.54z"/>
   <path class="fil7" d="M8007.85 3516.73c-1.95,-0.93 -3.85,-2.01 -5.69,-3.22 -3.8,-2.34 -9.38,-5.41 -16.27,-10.24 -18.93,-13.88 -36.33,-29.72 -51.95,-47.28 -22.67,-26.33 -43.88,-53.9 -63.51,-82.55 -23.65,-35.18 -50.22,-68.28 -79.51,-98.95 -15.51,-15.37 -32.7,-28.97 -51.2,-40.54 -17.41,-10.52 -35.96,-18.93 -55.32,-25.03 -33.08,-10.7 -67.85,-14.98 -102.5,-12.59 -23.21,1.39 -46.15,5.92 -68.17,13.47 -6.07,1.89 -12.04,4.09 -17.89,6.58 -2.01,0.93 -4.12,1.66 -6.29,2.19l6.02 -3.07c5.69,-2.77 11.55,-5.22 17.57,-7.31 22.07,-8.13 45.18,-13.06 68.66,-14.64 34.87,-2.8 69.96,1.19 103.31,11.71 19.79,6.14 38.78,14.64 56.51,25.32 18.82,11.76 36.28,25.56 52.12,41.13 29.34,30.87 55.97,64.22 79.62,99.68 19.36,28.67 40.24,56.33 62.48,82.85 15.35,17.59 32.27,33.66 50.65,48.01 6.62,4.98 12.15,8.19 15.67,10.83 2.01,1.03 3.91,2.26 5.69,3.66l0 0z"/>
   <path class="fil5" d="M7983.71 3543.95c3.8,26.19 0.6,52.92 -9.38,77.43 -12.15,23.43 -42.9,39.23 -65.73,26.2 -18.55,-10.68 -24.13,-34.54 -27.33,-55.77 -9.11,-61.33 -13.34,-123.24 -23,-184.57l125.44 136.71z"/>
   <g>
    <path class="fil10" d="M7668.56 3742.43c4.66,6.11 7.76,13.25 9.06,20.82 1.3,7.57 0.76,15.34 -1.57,22.65 -2.33,7.31 -6.4,13.95 -11.88,19.35 -5.42,5.41 -12.15,9.41 -19.47,11.68 -5.8,2.04 -12.15,2.04 -18.01,0 -4.66,-2.62 -8.78,-6.17 -12.04,-10.42 -3.25,-4.25 -5.64,-9.12 -7,-14.31l-9.93 -25.04c-0.76,-1.3 -1.19,-2.74 -1.35,-4.23 -0.16,-1.48 0,-2.98 0.49,-4.41 1.3,-2.93 4.83,-3.95 8.03,-4.83l61.77 -14.64 1.9 3.37zm0 0l0 0 0 0z"/>
   </g>
   <path class="fil5" d="M7628.16 3814.59c9.49,1.18 19.09,-0.02 27.98,-3.51 10.41,-3.43 19.2,-10.56 24.73,-20.05 3.15,-5.87 4.39,-12.56 3.63,-19.18 -0.43,-6.82 -2.06,-13.51 -4.83,-19.76 -2.82,-6.03 -6.78,-11.45 -11.72,-15.96l-1.57 -1.61 -2.06 0.73c-40.83,14.64 -73.21,21.81 -73.21,23.56 25.76,-1.68 51.09,-7.31 75.11,-16.69l-3.8 0c4.18,3.94 7.59,8.67 9.93,13.91 2.6,4.98 4.12,10.45 4.45,16.06 0.27,5.61 -0.65,11.21 -2.66,16.44 -4.5,8.32 -11.72,14.8 -20.5,18.3 -14.81,5.27 -25.76,6 -25.49,7.76z"/>
   <path class="fil7" d="M7496.26 3222.96c0,0 8.52,-1.61 23.86,-2.05 21.8,-0.39 43.44,3.54 63.67,11.56 14.05,5.42 27.44,12.34 39.97,20.64 14.32,9.66 28.04,20.12 41.17,31.33 30.26,25.63 57.33,54.82 80.65,86.94 12.15,17.12 22.94,34.83 34.66,51.23 11.11,16.11 24.07,30.85 38.67,43.91 24.95,21 52.17,39.07 81.24,53.87 24.57,13.03 45.23,22.1 59.44,28.4l16.38 7.02c3.8,1.61 5.85,2.35 5.96,2.05l-5.54 -3.07 -15.94 -7.9c-14.65,-6.88 -34.28,-16.54 -58.57,-29.28 -28.48,-15.35 -55.27,-33.76 -79.78,-54.89 -14.1,-12.7 -26.74,-27 -37.58,-42.59 -11.61,-16.25 -22.4,-33.95 -34.71,-51.23 -23.54,-32.53 -51.04,-62.03 -81.84,-87.83 -13.28,-11.25 -27.28,-21.71 -41.87,-31.32 -12.91,-8.26 -26.68,-15.09 -41.11,-20.35 -20.77,-7.93 -42.95,-11.42 -65.13,-10.24 -5.96,0.41 -11.88,1.24 -17.74,2.49 -1.95,0.22 -3.96,0.66 -5.85,1.31l0 0z"/>
   <path class="fil5" d="M7909.2 4242.29l31.78 388.48c0.54,6.33 -1.46,12.62 -5.48,17.52 -4.07,4.9 -9.87,8.02 -16.22,8.68l-239.6 25.47c-6.35,0.66 -12.69,-1.21 -17.68,-5.22 -4.99,-4 -8.19,-9.8 -8.95,-16.15l-46.96 -405.74c-0.38,-3.35 -0.11,-6.74 0.92,-9.97 0.98,-3.23 2.6,-6.21 4.83,-8.76 2.17,-2.56 4.88,-4.64 7.92,-6.09 3.04,-1.46 6.35,-2.28 9.71,-2.4l254.73 -8.05c6.24,-0.24 12.31,1.94 16.98,6.08 4.67,4.15 7.54,9.94 8.03,16.17l0 0z"/>
   <path class="fil9" d="M7733.7 4406.67c0,0 -138.02,22.4 -146.38,31.18 -8.35,8.78 -182.66,221.76 -182.66,221.76l88.73 174.47 155.54 -84.31c15.89,-7.06 32.49,-12.41 49.52,-15.95 0,0 156.9,-24.74 167.15,-43.91 10.25,-19.17 4.39,-23.27 -7.32,-26.2 -11.72,-2.92 -105.54,7.76 -126.47,11.72 -20.77,2.02 -41.7,2.02 -62.48,0 0,0 65.24,-14.64 79.89,-20.5 14.64,-5.86 161.02,-37.76 158.52,-63.96 -2.5,-26.2 -20.5,-35.72 -111.99,-10.98 -50.17,14.37 -101.9,22.72 -154.07,24.88l202.13 -70.55c0,0 81.35,-26.2 55.16,-49.47 -26.2,-23.28 -200.5,24.74 -200.5,24.74l-77.17 29.28 21.8 -46.55c0,0 109.66,-32.5 123.7,-43.92 17.41,-13.61 19.74,-26.2 6.72,-37.32 -13.02,-11.13 -39.81,-4.39 -39.81,-4.39z"/>
   <path class="fil9" d="M7098.3 4649.79l253.81 22.11 -2.49 69.52 54.61 -81.81 88.67 174.47c0,0 -32.16,103.63 -49.46,161.01 -46.26,153.25 -121.65,324.94 -214.27,316.31 -111.13,-10.25 -192.31,-142.13 -190.31,-227.32 1.46,-77.57 59.44,-434.28 59.44,-434.28z"/>
   <path class="fil10" d="M7404.23 4659.6l4.67 -6.15 14.64 -17.86 54.89 -68.06 87.86 -106.7 13.02 -15.8 6.89 -8.06c3.09,-2.28 6.62,-3.92 10.36,-4.83 13.94,-4.24 28.42,-7.17 43.17,-10.39 29.89,-6.05 61.45,-11.81 94.75,-17.27 8.35,-1.93 17.03,-2.33 25.6,-1.17 4.5,0.53 8.84,2.02 12.74,4.39 3.96,2.54 7.27,6 9.65,10.1 1.3,2.19 2.06,4.63 2.33,7.15 0.27,2.53 -0.05,5.08 -0.87,7.48 -1.68,4.44 -4.28,8.47 -7.65,11.86 -3.2,3.48 -6.89,6.48 -10.96,8.93 -4.12,2.2 -8.35,3.95 -12.58,5.7 -34.11,13.32 -70.56,24.59 -108.19,36.01l1.63 -1.32 -21.8 46.55 -3.2 -3.52 76.96 -29.28c33.08,-8.93 67.03,-16.98 102.44,-23.42 17.84,-3.34 35.85,-5.78 53.91,-7.32 9.22,-0.73 18.55,-0.73 27.77,0 5.04,0.38 9.98,1.52 14.64,3.37 2.55,1.01 4.83,2.57 6.67,4.57 1.85,2 3.2,4.39 4.02,6.99 0.49,2.63 0.33,5.35 -0.54,7.89 -0.81,2.55 -2.22,4.87 -4.12,6.74 -3.31,3.63 -7.11,6.78 -11.28,9.36 -8.03,5.21 -16.49,9.67 -25.33,13.32 -17.57,7.32 -35.69,12.73 -53.58,19.32l-109.44 38.2 -59.44 20.79 -1.03 -5.42c48.27,-2.29 96.15,-9.65 142.85,-21.95 22.72,-6.54 45.77,-11.72 69.09,-15.52 11.72,-2.06 23.7,-2.06 35.42,0 6.34,1.18 11.98,4.61 15.94,9.66 3.52,5.31 5.42,11.51 5.42,17.86 -0.32,3.45 -1.9,6.67 -4.39,9.07 -2.06,2.23 -4.44,4.2 -6.99,5.86 -4.67,3.2 -9.55,6 -14.65,8.34 -10.14,4.74 -20.55,8.89 -31.18,12.44 -20.94,7.32 -42.03,13.32 -62.64,18.88l-30.75 8.19c-10.09,2.64 -20.07,6.15 -30.16,8.49 -20.07,5.27 -39.97,9.96 -58.52,14.64l0 -4.83c22.61,2.65 45.5,2.35 68.06,-0.88 22.34,-3.37 43.87,-5.71 65.57,-7.76 10.69,-1.03 21.2,-2.05 31.73,-2.63 5.26,0 10.41,0 15.67,0 2.71,-0.28 5.48,-0.28 8.19,0 2.66,0.54 5.2,1.43 7.65,2.63 1.41,0.69 2.66,1.65 3.69,2.83 1.03,1.18 1.79,2.56 2.28,4.05 0.76,2.78 0.76,5.7 0,8.49 -0.76,2.5 -1.68,4.95 -2.76,7.32l-1.74 3.36c-0.76,1.32 -1.68,2.51 -2.82,3.52 -8.35,5.45 -17.57,9.55 -27.22,12.15 -34.44,9.66 -69.36,17.43 -104.61,23.28l-24.03 4.09c-7.65,1.08 -15.24,2.65 -22.67,4.69 -14,3.16 -27.55,8.07 -40.3,14.64l-112.53 60.16 -29.29 15.81 -7.76 3.96 -2.6 1.17 2.44 -1.61 7.48 -4.25 29.28 -16.39 111.83 -61.33c27.77,-12.8 57.43,-21.01 87.8,-24.3 35.14,-6.03 69.96,-13.94 104.24,-23.71 9.06,-2.48 17.68,-6.33 25.6,-11.42 0.81,-0.64 1.46,-1.44 1.9,-2.34l1.63 -3.22c1.03,-2.12 1.84,-4.32 2.5,-6.59 1.3,-4.69 0,-8.64 -3.53,-10.54 -2.17,-1.02 -4.39,-1.81 -6.72,-2.34 -2.22,0 -4.72,0 -7.16,0l-15.4 0.73 -31.62 2.63c-21.2,2.2 -43,4.69 -65.24,7.9 -23,3.48 -46.32,3.87 -69.42,1.17 -0.33,-0.02 -0.59,-0.1 -0.92,-0.24 -0.27,-0.15 -0.54,-0.35 -0.76,-0.59 -0.16,-0.25 -0.32,-0.54 -0.43,-0.85 -0.11,-0.31 -0.11,-0.63 -0.06,-0.95 0.06,-0.52 0.22,-1.02 0.6,-1.41 0.33,-0.4 0.76,-0.67 1.3,-0.79l0 0c19.47,-4.54 39.05,-9.37 58.52,-14.64 10.14,-2.35 19.8,-5.86 29.29,-8.64l30.91 -8.2c20.5,-5.56 41.38,-11.56 62.2,-18.89 10.41,-3.54 20.61,-7.64 30.59,-12.29 5.04,-2.27 9.93,-4.91 14.64,-7.9 4.23,-2.93 9.06,-7.03 9.06,-10.69 0,-5.21 -1.52,-10.29 -4.39,-14.64 -3.2,-3.95 -7.7,-6.6 -12.74,-7.46 -11.06,-1.98 -22.4,-1.98 -33.52,0 -23.11,3.88 -45.99,9.06 -68.5,15.52 -47.13,12.56 -95.45,19.96 -144.15,22.1 -0.38,0 -0.76,-0.07 -1.09,-0.22 -0.33,-0.13 -0.65,-0.34 -0.92,-0.6 -0.22,-0.26 -0.43,-0.56 -0.6,-0.9 -0.11,-0.33 -0.21,-0.7 -0.21,-1.06 -0.06,-0.57 0.11,-1.15 0.43,-1.63 0.32,-0.48 0.81,-0.84 1.35,-1l59.44 -20.79 109.44 -38.2c18.01,-6.58 36.34,-12 53.31,-19.17 8.52,-3.5 16.65,-7.77 24.41,-12.73 3.74,-2.35 7.16,-5.21 10.14,-8.49 1.36,-1.27 2.39,-2.85 3.04,-4.61 0.65,-1.76 0.87,-3.64 0.59,-5.49 -2.33,-7.31 -11.39,-10.24 -20.17,-10.83 -8.95,-0.73 -17.9,-0.73 -26.79,0 -17.9,1.35 -35.69,3.74 -53.31,7.17 -34.98,6.3 -68.93,14.64 -102.45,22.98l-77.12 29.27c-0.33,0.12 -0.65,0.17 -0.98,0.16 -0.33,-0.01 -0.65,-0.09 -0.98,-0.22 -0.27,-0.14 -0.54,-0.33 -0.76,-0.57 -0.22,-0.24 -0.38,-0.53 -0.54,-0.83 -0.22,-0.66 -0.22,-1.38 0,-2.04l21.96 -46.41c0.17,-0.32 0.33,-0.6 0.6,-0.83 0.27,-0.22 0.54,-0.39 0.87,-0.48 37.64,-11.42 74.08,-22.54 107.87,-35.57 4.12,-1.76 8.35,-3.52 12.15,-5.57 3.69,-2.12 7,-4.78 9.81,-7.9 3.2,-2.36 5.48,-5.73 6.51,-9.56 0.98,-3.83 0.65,-7.9 -0.92,-11.52 -2.01,-3.4 -4.83,-6.29 -8.13,-8.42 -3.36,-2.14 -7.11,-3.46 -11.06,-3.87 -7.92,-1.05 -16,-0.7 -23.87,1.02l0 0c-33.19,5.42 -64.81,10.98 -94.53,16.83 -14.64,3.07 -29.28,6 -43.06,10.1 -3.09,0.83 -6.02,2.11 -8.78,3.81l-6.72 7.9 -13.18 15.67 -87.8 106.12 -55.64 67.19 -14.65 17.42c-5.53,3.95 -7.43,5.86 -7.43,5.86z"/>
   <polygon class="fil9" points="6963.2,5810.52 6527.6,5991.88 6698.7,6190.37 7071.07,6117.59 "/>
   <path class="fil5" d="M8127.16 5429.64c0,0 21.8,500.74 -22.13,588.87 -43.87,88.13 -487.99,100.87 -487.99,100.87l-699.78 50.17 -88.73 -325.94c0,0 504.7,-247.25 552.42,-275.61 47.73,-28.42 161.02,-78.48 161.02,-78.48l166.72 -224.08 418.46 164.21z"/>
   <path class="fil7" d="M7315.39 6131.37c1.74,-0.87 3.63,-1.57 5.53,-2.06l15.94 -5.1c14.65,-4.28 34.87,-10.41 59.6,-17.73l200.39 -57.65 0.7 0c11.28,-0.33 22.51,-1.25 33.68,-2.77 10.95,-1.57 21.85,-3.69 32.65,-6.35 10.35,-3.2 20.77,-5.8 30.59,-9.93 19.04,-7.16 37.26,-16.21 54.45,-27.06 49.35,-30.59 89.05,-74.57 114.43,-126.8 3.69,-7.43 5.86,-13.45 7.76,-17.41 0.76,-2.06 1.79,-4.12 2.93,-5.96 -0.38,2.17 -1.03,4.34 -1.9,6.4 -1.57,3.96 -3.37,10.25 -6.73,17.9 -9.7,21.43 -21.85,41.65 -36.28,60.31 -21.75,27.44 -47.94,51.09 -77.44,69.96 -17.41,11.17 -35.96,20.5 -55.32,27.76 -10.2,3.96 -20.61,7.38 -31.19,10.25 -10.9,2.76 -21.96,4.94 -33.08,6.45 -11.44,1.63 -23,2.6 -34.55,2.93l0 0 -200.83 55.92 -59.98 16.11 -16.27 4.12c-3.09,0.54 -4.99,0.98 -5.1,0.7z"/>
   <path class="fil5" d="M7365.89 5582.74l-50.49 -705.63c0,0 32.59,-524.31 -263.46,-496.2 -296.12,28.11 -275.51,491.08 -275.51,491.08 0,0 18.01,634.39 35.85,726.43 17.9,92.09 25.22,194.1 84.17,232.61l268.78 -33.08 200.67 -215.2z"/>
   <path class="fil5" d="M7216.26 4519.08l65.13 174.48 -65.13 656.77c0,0 -380.56,20.49 -377.03,10.24 3.52,-10.24 -57.54,-329.93 -57.54,-329.93 0,0 -10.25,-422.14 104.94,-498.83 115.19,-76.7 329.63,-12.74 329.63,-12.74z"/>
   <polygon class="fil9" points="7201.34,5351.5 7186.7,5665.61 6911.52,5802.93 6858.69,5363.8 "/>
   <polygon class="fil5" points="7708.21,5265.43 7390.78,5160.48 7229.17,5311.4 7331.94,5619.19 7584.28,5518.96 "/>
   <path class="fil7" d="M6828.54 5843.61l3.53 -2.06 10.52 -5.53 40.57 -20.83 149.57 -75.66 222.2 -111.56 131.73 -65.68 69.53 -34.71 35.58 -17.73 18 -8.89c5.85,-3.31 12.04,-6.13 18.44,-8.35 25.16,-9.81 51.63,-15.78 78.58,-17.73 26.03,-2.06 52.22,-0.98 78.04,3.25 48.76,8.24 95.51,25.54 137.87,51.09 38.29,22.94 72.83,51.63 102.44,85.04 25.6,29.07 48.32,60.58 67.96,93.93 28.09,48.54 51.41,99.68 69.63,152.67 6.61,18.6 11.28,33.24 14.64,43.22 1.46,4.83 2.5,8.62 3.36,11.39 0.49,1.25 0.76,2.6 0.87,3.96 -0.54,-1.25 -1.03,-2.5 -1.46,-3.8 -0.87,-2.82 -2.17,-6.45 -3.8,-11.11 -3.36,-9.98 -8.35,-24.46 -14.64,-42.9 -18.93,-52.55 -42.68,-103.2 -70.99,-151.36 -19.69,-32.98 -42.46,-64.05 -68.06,-92.8 -29.34,-32.92 -63.56,-61.23 -101.42,-83.85 -41.87,-25 -88.02,-41.98 -136.12,-49.95 -25.33,-4.23 -51.09,-5.31 -76.69,-3.2 -26.36,1.95 -52.23,7.81 -76.85,17.41 -6.34,2.17 -12.47,4.88 -18.28,8.19l-18 8.95 -35.58 17.68 -69.53 34.55 -131.73 65.46 -222.63 110.47 -150.5 74.08 -41 19.74 -10.69 5.15c-1.57,0.76 -3.31,1.25 -5.1,1.46l0 0z"/>
   <path class="fil7" d="M7444.2 5505.62c-0.11,-15.94 -1.52,-31.83 -4.29,-47.56 -8.95,-37.52 -23.75,-73.39 -43.87,-106.27 -20.44,-33.13 -37.85,-68 -52.12,-104.22 -3.96,-11.15 -7,-22.61 -9.06,-34.25 -0.98,-4.27 -1.36,-8.66 -1.19,-13.03 4.12,15.5 9,30.8 14.64,45.81 15.13,35.42 32.92,69.67 53.15,102.46 20.34,33.39 34.76,70.03 42.74,108.3 2.06,11.72 2.82,23.59 2.17,35.47 0,4.5 -0.7,9 -2.17,13.29z"/>
   <path class="fil7" d="M6781.68 5030.65l0.93 3.37c0,2.63 1.3,5.86 2.17,10.1 1.9,9.37 4.66,22.54 8.02,39.23 6.78,34.11 16.43,83.43 27.71,144.47 5.54,30.59 11.66,64.11 17.52,100.12 1.35,9.08 2.82,18.3 3.69,27.81 0.16,1.36 0.16,2.74 0,4.1l0 1.32c0,0 0,0 0,-1.17 0,-1.17 0,0 0,-0.73 2.06,0 4.56,0 6.72,0.87 4.66,0 9.49,0 14.64,0 19.47,0 39.37,0 59.87,0 82.11,-2.19 172.24,-6.44 266.83,-11.27l26.63 -1.32 -2.77 2.49c18.61,-182.53 35.15,-346.47 47.13,-465.32 6.29,-58.55 11.28,-106.56 14.64,-139.93 1.9,-16.25 3.36,-29.27 4.39,-38.06 0,-4.1 0.87,-7.32 1.14,-9.81 -0.06,-1.12 -0.06,-2.24 0,-3.37 0.22,1.16 0.22,2.35 0,3.51 0,2.49 0,5.71 -0.7,9.81 0,9.07 -1.9,21.81 -3.26,38.06 -3.04,33.37 -7.59,81.24 -13.02,140.22 -11.55,118.85 -27.66,282.79 -45.34,465.47l0 2.33 -2.39 0 -26.63 1.32c-94.53,4.83 -184.88,8.93 -266.99,10.83 -20.44,0 -40.51,0.88 -59.98,0 -4.99,0 -9.82,0 -14.65,0 -2.49,-0.13 -4.99,-0.48 -7.48,-1.02 -0.97,-0.11 -1.9,-0.53 -2.6,-1.17 0,0 0,0 -1.03,-1.31 -0.11,-0.49 -0.11,-0.98 0,-1.47 0,0 1.63,0 0,0 0.06,-0.97 0.06,-1.95 0,-2.93 -0.76,-9.22 -2.22,-18.44 -3.52,-27.52 -5.59,-36 -11.39,-69.53 -16.81,-100.11 -10.85,-60.89 -19.8,-110.22 -25.93,-144.77 -2.93,-16.83 -5.26,-29.27 -6.89,-39.37l-1.74 -10.24c-0.38,-1.48 -0.49,-3.02 -0.33,-4.54l0 0z"/>
   <path class="fil7" d="M7149.82 4467.27c3.04,2.13 5.8,4.63 8.19,7.46 7.11,7.26 13.89,14.89 20.23,22.83 42.52,52.65 72.13,114.5 86.5,180.62 2.77,12.59 4.39,22.84 5.26,30.01 0.49,3.69 0.49,7.43 0,11.12 -0.87,0 -3.36,-15.52 -9.65,-40.25 -16.59,-64.48 -45.77,-125.07 -85.8,-178.28 -14.75,-21.08 -25.44,-32.94 -24.73,-33.52z"/>
   <path class="fil7" d="M7458.95 5490.87c0.17,-3.58 0.7,-7.1 1.63,-10.57 1.46,-6.72 3.8,-16.38 7.16,-28.09 18.17,-61.39 46.26,-119.4 83.14,-171.69 7.16,-9.96 13.18,-17.86 17.57,-22.98 2.11,-2.92 4.56,-5.57 7.32,-7.9 0,0 -8.19,12.73 -21.53,33.23 -34.98,53.14 -62.8,110.67 -82.71,171.09 -7.59,22.56 -11.71,37.04 -12.58,36.93z"/>
   <path class="fil7" d="M7934.96 5442.71c0.87,0 4.83,10.95 13.18,28.2 21.69,45.07 53.42,84.55 92.79,115.35 14.65,11.88 25.33,18.17 24.73,18.87 -0.6,0.76 -2.93,-0.87 -7.59,-3.47 -6.72,-3.63 -13.23,-7.7 -19.47,-12.15 -41.54,-29.67 -74.08,-70.18 -94.09,-117.15 -2.98,-7 -5.59,-14.15 -7.76,-21.48 -1.63,-5.15 -2.22,-8.08 -1.79,-8.19z"/>
   <path class="fil7" d="M6538.88 6198.57c-163.67,-4.99 -204.95,1.14 -368.73,-3.8 -39.97,-1.19 -185.15,6.83 -219.54,-14.64 -30.91,-19.47 -70.28,-37.31 -79.07,-73.22 -14.59,-59.55 0,-127.78 54.94,-166.39 18.87,-13.18 40.84,-21.26 63.78,-23.43 96.48,-9.66 186.35,58.52 282.5,36.01 25.92,-6.18 49.19,-21.26 74.95,-27.98 38.56,-8.35 78.8,-2.76 113.57,15.84 34.98,17.24 43.06,20.01 43.06,20.01l170.84 -61.72 59.98 299.59 -196.27 -0.27z"/>
   <path class="fil7" d="M6676.47 5828.8l-89.76 31.51c-6.56,2.22 -12.09,6.78 -15.51,12.85 -3.42,6.02 -4.5,13.12 -3.04,19.9l76.96 322.04c1.84,6.72 5.96,12.58 11.72,16.54 5.75,3.91 12.69,5.7 19.63,4.99l91.76 -12.31c3.91,-0.54 7.65,-1.84 11.06,-3.9 3.36,-2.06 6.24,-4.77 8.52,-8.03 2.22,-3.25 3.74,-6.89 4.5,-10.79 0.76,-3.85 0.65,-7.87 -0.22,-11.66l-78.58 -340.8c-0.92,-3.85 -2.66,-7.48 -5.04,-10.69 -2.39,-3.14 -5.48,-5.8 -8.95,-7.7 -3.52,-1.95 -7.38,-3.09 -11.33,-3.42 -3.96,-0.32 -7.97,0.17 -11.72,1.46l0 0z"/>
   <path class="fil5" d="M6647.45 6227.25c-7.21,-15.51 -13.18,-31.56 -17.84,-48 -9.66,-30.04 -22.24,-71.91 -33.68,-118.72 -11.39,-46.86 -18.98,-90.03 -23.37,-121.37 -2.22,-15.62 -3.69,-28.36 -4.39,-37.15 -0.6,-4.56 -0.6,-9.22 0,-13.78 4.5,16.43 7.92,33.19 10.25,50.06 5.7,31.02 14.59,73.21 25.6,120.34 10.96,47.13 23,88.67 31.3,118.99 5.15,16.22 9.22,32.81 12.15,49.62l0 0z"/>
   <path class="fil5" d="M6584.54 5934.5c18.6,-17.63 42.36,-28.91 67.74,-32.21 25,-5.75 51.2,-3.47 74.85,6.45 -24.41,-2.17 -48.92,-1.73 -73.22,1.3 -23.92,5.58 -47.19,13.78 -69.37,24.46l0 0z"/>
   <path class="fil5" d="M6597.4 6055.82c24.08,-11.5 49.41,-20.07 75.55,-25.44 25.54,-7.86 51.96,-12.47 78.58,-13.78 -25,8.89 -50.65,16 -76.69,21.2 -25.33,7.92 -51.2,13.94 -77.44,18.01l0 0z"/>
   <path class="fil5" d="M6641.33 6181.26c25.38,-0.54 50.38,-6.13 73.59,-16.38 23.21,-10.25 44.15,-24.95 61.67,-43.33 0.7,0 -3.37,8.35 -13.18,18.76 -26.09,27.06 -61.77,42.84 -99.41,43.87 -7.65,0.87 -15.46,-0.11 -22.67,-2.93l0 0z"/>
   <polygon class="fil7" points="7201.34,5565.06 7186.43,5665.18 6911.25,5802.44 6876.97,5593.92 "/>
   <path class="fil7" d="M6834.67 5512.51l17.3 95.29c1.35,7 5.15,13.29 10.79,17.63 5.64,4.39 12.69,6.51 19.8,6.07l335.17 -26.04c7.16,-0.59 13.83,-3.8 18.76,-9 4.94,-5.15 7.81,-11.98 8.03,-19.09l2.39 -94.15c0,-3.96 -0.81,-7.92 -2.39,-11.55 -1.57,-3.69 -3.91,-7 -6.78,-9.71 -2.87,-2.76 -6.29,-4.88 -10.04,-6.24 -3.74,-1.41 -7.75,-2.01 -11.71,-1.79l-355.12 24.78c-3.96,0.32 -7.86,1.52 -11.33,3.47 -3.52,1.9 -6.61,4.56 -9.06,7.7 -2.5,3.2 -4.29,6.83 -5.26,10.74 -0.97,3.85 -1.13,7.92 -0.54,11.88z"/>
   <path class="fil5" d="M7230.79 5605.3c-16.76,4.83 -33.84,8.24 -51.09,10.25 -31.78,5.1 -75.98,10.95 -124.85,14.64 -48.92,3.63 -93.55,4.83 -125.76,4.23 -16.11,0 -29.29,-0.7 -38.18,-1.46 -4.72,0.16 -9.38,-0.44 -13.94,-1.74 17.3,-1.9 34.66,-2.66 51.96,-2.33 32.22,-0.92 76.42,-2.65 125.17,-6.61 48.76,-3.96 92.96,-8.95 124.84,-12.58 17.19,-2.6 34.5,-4.07 51.85,-4.39l0 0z"/>
   <path class="fil5" d="M6926.16 5621.85c-13.5,-22.07 -20.88,-47.4 -21.42,-73.27 -0.54,-25.92 5.8,-51.46 18.33,-74.14 -15.08,48.16 -14,99.96 3.09,147.41l0 0z"/>
   <path class="fil5" d="M7051.17 5627.87c-7.81,-26.03 -12.42,-52.93 -13.61,-80.1 -3.69,-26.9 -4.12,-54.18 -1.3,-81.24 5.04,26.57 8.13,53.53 9.22,80.54 3.8,26.74 5.7,53.74 5.7,80.81l0 0z"/>
   <path class="fil5" d="M7182.9 5603.68c2.17,-25.6 0.6,-51.36 -4.67,-76.52 -7.86,-24.52 -19.2,-47.78 -33.68,-69.09 0,0 7.76,4.82 16.7,16.27 11.44,15.13 19.8,32.38 24.57,50.76 4.93,18.33 6.19,37.42 3.69,56.19 -0.38,7.92 -2.6,15.62 -6.62,22.4l0 0z"/>
   <path class="fil5" d="M8143.27 3588.01c33.63,122.95 5.1,287.33 38.45,386.13 33.41,98.8 57.54,208.29 19.8,305.48l-51.85 -114.76c10.52,22.64 15.02,47.62 13.07,72.5 -2,24.89 -10.35,48.84 -24.3,69.55 -13.94,20.71 -32.97,37.48 -55.32,48.67 -22.29,11.19 -47.13,16.43 -72.02,15.22 -98.38,-200.67 -128.26,-434.58 -41.43,-640.67l69.2 48.6 60.31 -25.91 44.09 -164.82z"/>
   <path class="fil9" d="M8650.89 3960.97l-9.22 -117.1 -24.35 -146.37 -36.72 -120.61c0,0 -7.48,-11.42 -22.07,0 -14.65,11.42 6.13,76.55 6.13,76.55l7.92 50.2c0,0 -4.99,39.96 -8.24,37.04 -3.2,-2.93 -20.34,-70.11 -20.34,-70.11l-43.87 -143.44c-2.55,-4.28 -6.62,-7.44 -11.44,-8.83 -4.77,-1.38 -9.93,-0.9 -14.31,1.36 -9.66,4.25 -14.65,19.47 -11.12,41.13 3.47,21.66 17.08,57.09 19.31,69.38 2.17,12.3 18.11,82.56 18.11,82.56l-67.03 -158.53c0,0 -14.64,-52.25 -36.28,-42.3 -21.64,9.95 -2.5,46.69 0,63.23 2.49,16.54 46.96,124.41 47.56,155.88 0.59,31.47 -5.86,16.39 -5.86,16.39l-32.92 -89.43c-14.64,-39.37 -32.38,-61.19 -50.22,-62.21 -17.84,-1.02 15.84,90.17 15.84,90.17l43.87 127.93 -2.93 42.45 -33.19 -34.39c0,0 -6.18,-49.04 -39.1,-66.31 -32.92,-17.27 -38.35,6.73 -38.35,6.73l78.31 183.99c16.98,29.27 111.23,80.65 111.23,80.65l36.28 189.26 197.03 -33.08 -74.03 -222.19z"/>
   <path class="fil10" d="M8575.07 3899.93c-9.98,-5.57 -19.47,-11.94 -28.42,-19.03 -21.26,-16.36 -47.94,-24.15 -74.68,-21.81 -12.8,1.53 -24.73,7.36 -33.79,16.54l-2.93 3.22 -3.2 -3.51c-14.64,-14.64 -29.29,-27.96 -38.35,-37.48 -9.11,-9.51 -14.64,-15.95 -13.61,-16.68 6.02,3.74 11.71,8.05 16.98,12.88 10.25,8.93 24.84,19.76 41.27,36.44l-6.19 0c10.2,-10.91 23.86,-17.91 38.67,-19.76 15.84,-2.22 31.94,-0.15 46.7,6 11.71,4.98 22.67,11.52 32.65,19.46 9.54,6.43 18,14.45 24.89,23.72l0 0z"/>
   <polygon class="fil9" points="8603.44,4638.67 8498.06,4049.08 8657.62,3979.56 8872.93,4629.45 "/>
   <path class="fil10" d="M8618.35 4644.09c-3.04,-7.67 -5.43,-15.61 -7,-23.71 -4.12,-15.52 -9.65,-37.91 -16.11,-65.72 -13.01,-55.48 -29.28,-132.62 -46.96,-217.95 -17.73,-85.33 -31.78,-162.76 -41.87,-219.56l-11.61 -66.6c-1.63,-8.11 -2.71,-16.33 -3.2,-24.59 2.71,7.81 4.77,15.85 6.13,24 3.53,16.98 8.24,39.22 13.94,66.16 11.55,57.09 27.06,133.78 43.93,218.54 16.81,84.75 33.03,161.01 44.74,218.24 5.59,27.08 10.25,49.33 13.61,66.16 2.12,8.22 3.58,16.59 4.39,25.03l0 0z"/>
   <path class="fil5" d="M2316.33 4312.26l1247.38 -31.03c20.07,-0.49 40.02,3.24 58.55,10.98 46.55,19.91 130.13,70.7 187.5,192.48 83.29,176.82 471.02,922.15 471.02,922.15l-391.25 200.54 -480.98 -892.88 -1482.31 -125.89 17.13 -118.56 372.95 -157.79z"/>
   <path class="fil3" d="M3772.44 5450.47l204.92 351.27 13.61 88.73c4.04,25.98 18.24,49.35 39.47,64.97 21.24,15.56 47.78,22.07 73.82,18.17l622.08 -95.61c7.36,-0.97 14.4,-3.58 20.57,-7.7 6.17,-4.12 11.31,-9.6 15.02,-16.05 3.7,-6.4 5.88,-13.61 6.36,-21.04 0.48,-7.38 -0.76,-14.8 -3.6,-21.64 -2.65,-6.02 -6.69,-11.39 -11.77,-15.57 -5.08,-4.17 -11.08,-7.16 -17.5,-8.62 -52.11,-13.12 -453.76,-160.96 -453.76,-160.96l-167.44 -335.36 -341.78 159.43z"/>
   <path class="fil5" d="M4151.25 5961.89c-1.31,0 -4.54,-12.15 -13.91,-30.48 -11.93,-23.75 -28.97,-44.58 -49.9,-61.01 -20.93,-16.43 -45.22,-28.04 -71.15,-33.95 -19.91,-4.72 -32.94,-4.99 -32.94,-6.29 11.23,-2.61 22.88,-2.61 34.11,0 27.39,4.61 53.2,16 75.06,33.19 21.86,17.14 39.08,39.48 50.09,65.03 5.38,10.36 8.33,21.8 8.63,33.52l0 0z"/>
   <path class="fil5" d="M4570.46 5901.58c-5.17,-6.83 -8.58,-14.86 -9.95,-23.27 -4.92,-20.28 -3.85,-41.54 3.07,-61.23 7.1,-19.25 18.11,-36.83 32.35,-51.63 10.83,-11.28 18.59,-16.98 19.33,-16.27 0.73,0.76 -5.56,8.08 -14.64,20.07 -12.39,15.19 -22.27,32.32 -29.28,50.65 -6.3,18.39 -8.06,38.02 -5.13,57.22 2.13,8.03 3.56,16.16 4.24,24.46l0 0z"/>
   <path class="fil0" d="M3741.12 5502.53l65.72 98.98c4.86,7.27 12.24,12.53 20.73,14.7 8.49,2.11 17.48,1.09 25.23,-2.98l364.76 -191.91c7.57,-4.11 13.4,-10.82 16.41,-18.89 3.02,-8.07 3.01,-16.95 -0.01,-25.02l-43.18 -107.15c-1.84,-4.57 -4.61,-8.7 -8.13,-12.14 -3.53,-3.44 -7.73,-6.1 -12.35,-7.83 -4.61,-1.72 -9.54,-2.46 -14.45,-2.17 -4.92,0.29 -9.72,1.6 -14.1,3.85l-387.45 200.24c-4.31,2.28 -8.11,5.48 -11.14,9.33 -3.03,3.8 -5.23,8.24 -6.47,12.96 -1.24,4.72 -1.49,9.65 -0.72,14.48 0.77,4.83 2.52,9.44 5.15,13.56z"/>
   <path class="fil5" d="M4231.91 5414.59c-16.39,13.65 -33.98,25.8 -52.56,36.31 -33.22,21.2 -80.06,49.3 -133.34,77.39 -53.28,28.15 -102.46,50.98 -139.49,65.89 -18.15,7.59 -33.08,13.34 -43.91,16.81 -5.31,2.39 -10.93,4.01 -16.69,4.83 18.53,-10.58 37.75,-19.91 57.52,-27.93 35.71,-16.54 84.6,-39.97 137.59,-68.06 52.99,-28.09 100.26,-55.21 134.37,-74.79 18.09,-11.5 36.98,-21.64 56.5,-30.46l0 0z"/>
   <path class="fil5" d="M3897.15 5581.17c-1.02,2.01 -37.91,-23.43 -59.72,-72.19 -21.81,-48.76 -17.57,-92.94 -15.37,-92.35 2.2,0.59 2.78,42.3 24.15,87.8 21.37,45.56 52.99,74.52 50.94,76.74z"/>
   <path class="fil5" d="M4032.7 5522.6c-36.89,-48.22 -66.17,-101.84 -86.8,-158.95 2.34,-1.03 21.08,34.84 45.08,78.58 15.72,25.81 29.66,52.66 41.72,80.37l0 0z"/>
   <path class="fil5" d="M4178.04 5435.83c-2.93,0.7 -9.81,-43.05 -42.45,-84.04 -32.64,-40.98 -73.19,-58.55 -71.57,-61.33 9.61,1.24 18.8,4.76 26.78,10.24 20.28,11.41 38.09,26.74 52.4,45.08 14.32,18.33 24.96,39.26 31.33,61.63 3.31,9.07 4.51,18.81 3.51,28.41l0 0z"/>
   <path class="fil5" d="M1064.57 2959.2c-24.61,-68.81 -43.41,-139.56 -56.21,-211.5 -12.65,-72.39 -7.63,-146.76 14.64,-216.78 3.66,-10.55 34.83,-80.66 45.52,-79.63 7.76,0 -11.28,66.02 -7.32,73.19 37.91,64.99 48.89,143.44 43.91,219.56 -5.72,72.97 -19.31,145.12 -40.54,215.17z"/>
   <path class="fil11" d="M1263.78 3568.98c-53.8,-1.27 -104.97,-23.54 -142.56,-62.06 -37.59,-38.52 -58.61,-90.22 -58.55,-144.04l-8.49 -682.83c-8.05,-183.4 89.14,-341.05 267.57,-344.12l16.54 0.73c81.19,4.46 157.72,39.34 214.36,97.68 56.64,58.34 89.22,135.88 91.27,217.16 6.15,159.11 10.83,334.76 6.44,419.8 -9.22,175.65 -181.5,195.99 -181.5,195.99 0,0 0,40.84 0,92.51 0.44,27.24 -4.52,54.29 -14.61,79.59 -10.09,25.3 -25.1,48.35 -44.16,67.8 -19.06,19.46 -41.79,34.94 -66.89,45.54 -25.09,10.6 -52.03,16.13 -79.27,16.24l-0.15 0z"/>
   <path class="fil12" d="M1468.85 3267.31c-79.17,-3.72 -155.51,-30.59 -219.56,-77.28 0,0 48.15,134.67 219.56,126.03l0 -48.74z"/>
   <path class="fil5" d="M1580.82 2807.99c-0.11,6.48 -2.75,12.65 -7.34,17.21 -4.59,4.57 -10.78,7.16 -17.26,7.23 -3.17,0.06 -6.32,-0.52 -9.26,-1.69 -2.94,-1.17 -5.63,-2.93 -7.89,-5.14 -2.26,-2.22 -4.06,-4.87 -5.28,-7.8 -1.22,-2.93 -1.86,-6.06 -1.86,-9.23 0.15,-6.45 2.8,-12.58 7.39,-17.11 4.59,-4.54 10.76,-7.11 17.2,-7.18 3.17,-0.08 6.31,0.48 9.26,1.63 2.94,1.15 5.63,2.89 7.89,5.1 2.27,2.21 4.06,4.85 5.3,7.77 1.22,2.91 1.86,6.05 1.86,9.2l0 0z"/>
   <path class="fil5" d="M1604.38 2727.78c-3.07,3.07 -21.08,-11.71 -47.43,-12.74 -26.35,-1.02 -46.1,11.56 -48.74,8.2 -2.63,-3.37 1.91,-7.31 10.69,-13.32 11.62,-7.61 25.37,-11.3 39.23,-10.54 13.77,0.6 26.95,5.74 37.47,14.64 7.91,6.29 10.54,12.3 8.78,13.76z"/>
   <path class="fil5" d="M1342.67 2807.99c-0.07,6.49 -2.7,12.68 -7.29,17.26 -4.6,4.57 -10.81,7.15 -17.3,7.19 -3.16,0.06 -6.3,-0.52 -9.24,-1.69 -2.94,-1.18 -5.61,-2.93 -7.86,-5.15 -2.25,-2.22 -4.03,-4.87 -5.24,-7.8 -1.21,-2.92 -1.83,-6.06 -1.81,-9.22 0.07,-6.44 2.68,-12.6 7.25,-17.15 4.57,-4.55 10.75,-7.11 17.19,-7.15 3.17,-0.1 6.32,0.44 9.28,1.59 2.95,1.15 5.65,2.89 7.91,5.09 2.27,2.22 4.07,4.87 5.29,7.79 1.22,2.92 1.84,6.07 1.81,9.23l0 0z"/>
   <path class="fil5" d="M1346.48 2723.1c-3.22,3.07 -21.22,-11.71 -47.43,-12.74 -26.2,-1.02 -46.11,11.56 -48.89,8.2 -2.78,-3.37 1.91,-7.32 10.69,-13.32 11.61,-7.6 25.36,-11.3 39.22,-10.54 13.8,0.63 27.02,5.77 37.61,14.64 7.76,6.3 10.25,12.3 8.79,13.76z"/>
   <path class="fil5" d="M1432.4 2934.9c14.01,-3.94 28.48,-6.01 43.03,-6.15 6.73,0 13.17,-1.46 14.63,-6.15 0.85,-7.09 -0.43,-14.28 -3.66,-20.64 -5.71,-16.98 -11.56,-34.83 -17.71,-53.43 -24.59,-76.11 -42.15,-138.47 -39.08,-139.5 3.07,-1.02 25.32,59.87 49.91,135.83 5.86,18.74 11.42,36.74 16.83,53.72 3.91,8.58 4.73,18.25 2.34,27.37 -1.04,2.36 -2.61,4.45 -4.59,6.1 -1.98,1.65 -4.32,2.82 -6.83,3.42 -3.74,0.91 -7.57,1.31 -11.41,1.17 -14.51,1.33 -29.12,0.74 -43.47,-1.75l0 0z"/>
   <path class="fil5" d="M1358.33 2638.79c-3.81,6.88 -29.28,-1.46 -60.16,-3.51 -30.88,-2.05 -57.09,1.76 -59.86,-5.42 -1.32,-3.51 4.24,-9.51 14.63,-14.64 14.73,-6.04 30.67,-8.56 46.56,-7.37 15.88,1.19 31.26,6.07 44.93,14.25 10.98,6.88 15.66,13.47 13.9,16.69z"/>
   <path class="fil5" d="M1608.77 2648.3c-5.56,6 -26.79,-1.02 -52.55,-1.9 -25.76,-0.88 -47.71,2.78 -52.55,-3.81 -2.2,-3.22 1.46,-9.22 11.12,-14.64 13.31,-6.65 28.12,-9.72 42.98,-8.93 14.85,0.8 29.26,5.44 41.78,13.47 8.93,6.44 11.71,12.88 9.22,15.81z"/>
   <path class="fil11" d="M1062.96 2810.92c-2.93,-1.31 -116.22,-40.69 -117.1,79.78 -0.88,120.46 117.1,96.75 117.1,93.24 0,-3.52 0,-173.01 0,-173.01z"/>
   <path class="fil12" d="M1027.24 2937.98c0,0 -2.05,1.46 -5.57,3.07 -4.69,1.93 -9.94,1.93 -14.64,0 -12.3,-4.83 -22.54,-25.03 -22.98,-46.84 -0.04,-10.06 2,-20.03 6,-29.28 1.01,-3.72 2.88,-7.15 5.48,-10 2.6,-2.85 5.84,-5.04 9.44,-6.39 2.37,-0.59 4.88,-0.33 7.07,0.74 2.19,1.07 3.94,2.88 4.94,5.11 1.61,3.51 0,5.85 1.46,6 1.46,0.15 2.49,-1.91 1.61,-6.88 -0.62,-2.97 -2.22,-5.65 -4.53,-7.61 -1.56,-1.28 -3.37,-2.23 -5.3,-2.79 -1.94,-0.56 -3.98,-0.7 -5.97,-0.43 -4.86,1 -9.38,3.22 -13.14,6.44 -3.76,3.23 -6.65,7.35 -8.38,12 -5.06,10.43 -7.57,21.93 -7.31,33.52 0,24.3 12.3,47.13 29.28,52.4 3.12,0.93 6.43,1.14 9.65,0.61 3.22,-0.54 6.28,-1.8 8.94,-3.69 3.66,-3.07 4.39,-5.7 3.96,-6z"/>
   <path class="fil5" d="M1568.23 2452.02c19.03,-10.83 -37.91,-73.18 -84.46,-95.72 -70.41,-32.93 -177.85,-53.28 -242.83,-34.25 -78.16,22.69 -143.16,62.65 -182.38,135.83 -37.99,74.78 -55.84,158.17 -51.81,241.95 -0.98,25.4 4.67,50.63 16.39,73.19 16.39,26.64 47.72,43.91 46.4,80.06 -0.5,6.64 0.31,13.32 2.4,19.65 2.08,6.33 5.4,12.18 9.75,17.23 21.37,23.42 47.57,1.46 59.72,-20.64 25.76,-47.28 29.28,-103.49 30.89,-157.65 3.67,-38.35 1.2,-77.04 -7.32,-114.61 -5.71,-20.06 -14.64,-39.09 -19.61,-59.43 -2.9,-10.06 -3.65,-20.6 -2.21,-30.96 1.44,-10.37 5.03,-20.31 10.56,-29.2 2.93,-3.49 6.11,-6.78 9.52,-9.81 16.14,-14.59 35.95,-24.5 57.3,-28.68 21.35,-4.18 43.44,-2.46 63.89,4.97 66.02,24 178.72,60.02 208.14,36.88 42.3,-33.07 52.4,-54.59 52.4,-54.59l23.28 25.76z"/>
   <path class="fil5" d="M1436.93 3013.65c0,1.76 -4.68,6.3 -15.52,8.78 -14.5,2.8 -29.52,0.42 -42.44,-6.73 -13.13,-6.91 -23.47,-18.13 -29.28,-31.76 -3.95,-10.39 -3.37,-17.42 -1.46,-17.86 4.1,-1.32 12.74,22.84 37.47,36.3 24.74,13.46 50.06,7.17 51.23,11.27z"/>
   <path class="fil7" d="M1544.96 4595.19l-550.8 -121.05 -354.07 -877.35c0,0 -473.07,104.94 -551.09,369.3 -67.04,229.07 -206.53,1239.04 110.37,1861.14 40.37,78.37 101.62,144.1 176.99,189.93 75.37,45.77 161.93,69.85 250.12,69.58l2410.01 0c146.86,0 288.58,-54.07 398.13,-151.85 109.55,-97.84 179.27,-232.56 195.84,-378.44 13.26,-103.86 20.3,-208.42 21.08,-313.11l-386.87 -297.13 -1719.72 -351z"/>
   <path class="fil4" d="M1198.79 3426.27c0,15.96 125.15,67.63 181.79,44.94 86.22,-34.39 85.48,-91.48 85.48,-91.48l37.61 39.67 479.96 731.86 356.56 234.2 -570.85 180.61 -598.22 -687.21 27.67 -452.58z"/>
   <path class="fil6" d="M1047.59 3180.95l-12.3 23.57 -56.94 106.12 -237.27 151.2 487.13 579.05 222.49 525.62 532.94 166.87c0,0 -253.52,-389.94 -332.41,-589.3 -78.89,-199.36 -86.8,-190.28 -158.67,-335.92 -48.86,-103.27 -92.34,-208.99 -130.27,-316.75l-314.7 -310.45z"/>
   <path class="fil6" d="M2189.14 4224.43l192.77 161.01 -447.61 -185.01 -280.59 -392.72c0,0 -99.97,-221.75 -134.37,-301.23 -36.15,-83.57 -55.04,-131.74 -55.04,-131.74l1.91 -60.74 131.73 122.65 118.27 35.28 197.31 313.38 275.62 439.11z"/>
   <path class="fil11" d="M2247.4 3497.41l8.2 -126.02 -2.78 -161.01 -20.78 -134.66c0,0 -6.3,-13.32 -23.42,-3.95 -17.12,9.37 -5.27,82.85 -5.27,82.85l0 54.88c0,0 -11.41,42.01 -14.64,38.36 -3.22,-3.66 -10.98,-78.17 -10.98,-78.17l-24.16 -160.13c-2.05,-5 -5.95,-9.01 -10.88,-11.21 -4.93,-2.2 -10.52,-2.44 -15.61,-0.64 -10.98,2.93 -18.59,18.59 -18,42.16 0.59,23.56 9.37,63.81 9.95,77.13 0.59,13.32 6.74,91.19 6.74,91.19l-47.43 -179.89c0,0 -7.9,-58.55 -32.35,-50.79 -24.44,7.76 -9.8,49.62 -9.36,67.62 0.44,18 31.18,140.37 27.07,174.04 -4.1,33.67 -8.93,16.54 -8.93,16.54l-21.52 -100.56c-9.37,-43.91 -25.17,-70.41 -43.91,-74.22 -18.74,-3.8 2.92,98.8 2.92,98.8l27.22 143.45 -9.51 44.93 -30.3 -41.86c0,0 0.88,-53.43 -31.61,-76.85 -32.5,-23.42 -42.16,1.32 -42.16,1.32l54.89 208.88c13.61,34.25 112.41,91.92 112.41,91.92l8.2 209.02c0,0 207.11,2.64 212.24,-3.51 5.13,-6.15 -46.25,-239.61 -46.25,-239.61z"/>
   <path class="fil12" d="M2175.82 3420.12c-9.87,-7.43 -19.08,-15.7 -27.52,-24.74 -20.22,-20.65 -47.41,-33.01 -76.26,-34.69 -13.98,-0.3 -27.65,4.13 -38.79,12.59l-3.66 2.93 -2.93 -4.1c-12.88,-18.44 -26.93,-34.54 -35.27,-46.11 -8.35,-11.56 -12.88,-19.32 -11.86,-19.91 5.82,5.01 11.2,10.49 16.1,16.4 9.67,11.12 23.57,24.88 38.65,45.23l-6.59 -1.17c12.5,-9.81 28.02,-14.99 43.91,-14.64 17.27,0.03 34.22,4.73 49.03,13.61 11.81,7.09 22.59,15.76 32.06,25.76 9.27,8.25 17.08,17.99 23.12,28.83l0 0z"/>
   <path class="fil6" d="M1692.2 3465.93c0,0 165.84,20.06 252.64,208.58 38.5,83.58 128.66,203.31 128.66,203.31l-14.64 -228.63 244.88 0c0,0 38.06,451.85 28.1,479.37 -9.95,27.52 -137,161.01 -137,161.01l-276.49 -196.87 -226.15 -626.77z"/>
   <path class="fil5" d="M2486.12 3660.76l-269.17 448.63 281.77 -8.35 248.83 -415.55c2.18,-3.65 3.34,-7.8 3.39,-12.04 0.04,-4.25 -1.04,-8.43 -3.14,-12.12 -2.09,-3.69 -5.14,-6.76 -8.8,-8.89 -3.67,-2.13 -7.84,-3.26 -12.08,-3.25l-219.56 0c-4.25,-0.15 -8.46,0.84 -12.2,2.87 -3.73,2.04 -6.85,5.04 -9.03,8.69l0 0z"/>
   <path class="fil11" d="M1450.69 4168.08l673.31 -80.22 113.29 -198.33 88.7 -48.74c7.35,-4.12 15.73,-6.02 24.14,-5.5 8.41,0.52 16.49,3.44 23.28,8.43l8.35 6.15 87.82 -8.49 68.06 39.67 0 39.67 -71.72 -13.17 -69.38 22.54c0,0 44.79,4.69 50.5,38.79 5.7,34.11 -17.13,34.69 -17.13,34.69 0,0 11.42,58.55 14.64,67.19 9.4,32.36 6.37,67.08 -8.49,97.33 -22.69,38.64 -248.83,98.21 -248.83,98.21l-736.11 300.21 -0.44 -398.42z"/>
   <path class="fil6" d="M755.57 3449.69c-14.64,9.37 -208.58,143.74 -180.77,356.85 27.81,213.12 449.51,695.12 537.62,704.34l338.27 55.62 0 -398.43 -162.19 -9.37 -213.12 -417.3 -319.82 -291.72z"/>
   <g>
    <path class="fil13" d="M3018.19 4900.52c170.45,222.24 386.96,404.99 634.67,535.74l0 -285.88 -455.95 -324.36 -178.72 74.5z"/>
   </g>
   <path class="fil5" d="M1893.03 4491.57c0,0 1319.98,-131.74 1384.09,-127.06 118.42,9.81 350.42,217.22 737.87,477.17 194.57,130.95 375.95,280.52 541.57,446.58l-123.39 282.76c0,0 -910.58,-326.96 -1021.53,-424.45 -110.94,-97.48 -333.28,-239.31 -333.28,-239.31l-478.06 9.07 -378.37 33.38c-93.35,8.26 -187.27,-7.2 -273.04,-44.95 -85.77,-37.74 -160.62,-96.55 -217.6,-170.95l-146.37 -191.9 308.12 -50.35z"/>
   <path class="fil5" d="M1450.69 4148.76c-4,0.79 -8.07,1.19 -12.15,1.17l-34.1 1.32 -121.19 2.63 -1.76 0 -1.02 -1.32c-25.47,-34.25 -54.6,-73.19 -85.63,-115.2 -51.08,-69.09 -97.05,-131.73 -129.83,-177.55l-38.79 -54.3c-5,-6.5 -9.46,-13.4 -13.32,-20.63 5.76,5.87 11.04,12.19 15.8,18.88l40.55 52.84c34.11,44.78 80.65,107.14 131.74,175.65l84.89 115.63 -2.63 -1.31 121.19 0 34.1 0c4.13,0.19 8.22,0.93 12.15,2.19l0 0z"/>
   <path class="fil5" d="M1368.43 3544.1c-2.65,-3.73 -4.86,-7.76 -6.58,-12l-16.69 -34.99 3.51 0c-12.25,17.91 -23.16,36.7 -32.64,56.21 -11.98,26.06 -26.19,51.04 -42.45,74.65l-2.64 3.8 -2.92 -3.65c-21.96,-26.93 -46.99,-55.77 -73.92,-85.19 -58.55,-64.26 -115.48,-119.73 -155.74,-161.01 -19.47,-19.62 -35.43,-36.01 -47.57,-48.31 -6.06,-5.72 -11.65,-11.94 -16.69,-18.59 6.65,5 12.91,10.47 18.74,16.39l49.18 46.69c41.28,39.67 98.36,94.7 157.65,159.1 27.08,29.28 52.11,58.55 73.19,85.93l-5.71 0c16.22,-23.22 30.56,-47.69 42.89,-73.19 9.91,-19.63 21.46,-38.39 34.55,-56.06l2.2 -2.93 1.46 3.36 14.64 35.72c2.29,4.5 4.15,9.2 5.56,14.06l0 0z"/>
   <path class="fil5" d="M1599.26 3442.22c4.46,6.07 7.87,12.85 10.1,20.06 6.96,18.33 12.88,37.05 17.71,56.06l4.69 16.39 -10.98 -12.88c-15.11,-18.81 -31.76,-36.33 -49.77,-52.4 -15.66,-14.64 -31.03,-27.81 -44.94,-39.96l5.71 -2.2c-1.93,22.24 -2.61,44.57 -2.05,66.89 0.44,8.87 -0.7,17.74 -3.37,26.2 -0.88,0 0,-9.66 -1.02,-26.06 -1.69,-22.61 -1.69,-45.31 0,-67.92l0 -6.44 5.12 4.24c14.64,11.86 29.27,25.04 45.67,39.67 18.27,16.37 34.98,34.4 49.92,53.86l-6 2.93c-5.86,-23.57 -10.54,-43.03 -14.64,-56.5 -2.67,-7.13 -4.72,-14.48 -6.15,-21.96l0 0z"/>
   <path class="fil7" d="M2879.57 4907.7c-28.25,-134.37 -86.21,-271.81 -200.68,-347.48 -86.94,-57.38 -194.52,-71.57 -297.87,-84.31l-2163.67 -266.1c-19.32,340.9 126.46,765.08 275.33,1072.31 23.13,47.72 49.91,96.46 94.12,125.74 53.87,35.4 122.95,35.13 187.5,33.5 727.61,-18.57 1455.52,-49.46 2178.89,-129.09 -40.69,-131 -45.96,-270.2 -73.62,-404.57z"/>
   <path class="fil7" d="M3078.35 4907.55l6.15 3.96 18.15 12.29 69.67 48.01c60.45,42.45 149.44,103.49 258.35,184.58 6.74,4.97 13.32,10.83 20.64,14.63l22.24 13.62c15.96,7.91 31.91,16.54 48.89,24.3l51.96 23.71 54.6 23.71c74.5,31.76 155.15,64.84 241.22,99.24 172.13,68.78 365.2,143.46 573.63,222.21l-4.54 2.01c36.3,-90.57 74.8,-186.31 114.17,-284.23l0.73 3.95 -156.61 -157.06c-36.74,-31.47 -76.11,-64.7 -117.09,-97.63 -240.19,-194.76 -491.18,-375.82 -751.77,-542.31 -35.38,-29.87 -73.56,-56.24 -114.03,-78.75 -38.38,-22.14 -79.26,-39.63 -121.78,-52.11 -10.39,-2.78 -20.93,-4.97 -31.32,-7.46l-31.33 -4.69 -31.18 -1.61 -152.08 0 -405.45 -0.72 -263.47 -1.03 -69.38 0 -17.86 0c-2.04,0.13 -4.1,0.13 -6.14,0l6.14 0 17.86 0 69.67 0 263.47 -1.02 405.45 0 151.34 0 31.76 1.61 32.06 4.83c10.39,2.49 21.07,4.69 31.76,7.47 43.03,12.61 84.44,30.19 123.39,52.4 40.78,22.8 79.35,49.36 115.2,79.33 261.4,166.35 513.04,347.57 753.67,542.75 40.4,32.93 79.92,66.31 117.1,97.63l156.62 157.06 1.76 1.76 -1.02 2.34 -115.2 280.86 -1.32 3.25 -3.36 -1.19c-208.44,-79.02 -401.5,-154.13 -573.49,-223.35 -85.92,-34.54 -166.57,-67.92 -240.93,-99.97l-54.6 -23.86 -52.11 -24.01c-16.83,-7.9 -32.94,-16.69 -48.89,-24.59l-22.83 -14.64c-7.46,-4.69 -13.76,-10.39 -20.64,-15.52 -108.31,-81.38 -196.87,-143 -257.03,-186.04l-68.94 -49.03 -17.12 -11.86 -6.15 -4.83z"/>
   <path class="fil5" d="M1012.89 4307.87c-8.52,0.01 -17.03,-0.57 -25.47,-1.76l-69.24 -7.47c-58.54,-6.58 -138.76,-16.69 -227.46,-29.28 -88.7,-12.59 -168.76,-24.15 -226.29,-34.25 -29.27,-5.13 -52.4,-9.37 -68.35,-12.88 -8.44,-1.41 -16.76,-3.46 -24.88,-6.15 8.5,0.5 16.96,1.58 25.32,3.22l68.8 10.54c58.55,8.64 138.17,20.2 226.87,32.35l227.17 31.18 68.79 9.81c8.37,0.84 16.65,2.41 24.74,4.69l0 0z"/>
   <path class="fil5" d="M2089.17 4092.7c-5.77,-4.36 -11.11,-9.26 -15.95,-14.64l-41.72 -42.3c-17.42,-18.3 -38.35,-38.93 -61.04,-64.26 -10.39,-13.32 -19.62,-27.96 -30.45,-42.3 -11.09,-15.32 -20.56,-31.75 -28.25,-49.03 -16.1,-34.98 -28.25,-69.67 -39.37,-101 -11.12,-31.32 -20.49,-59.57 -29.28,-82.99 -8.78,-23.42 -16.83,-42.01 -23.13,-54.45 -6.3,-12.44 -10.24,-19.17 -9.8,-19.46 0.44,-0.3 1.46,1.31 3.65,4.39 3.11,4.39 6,8.93 8.64,13.61 9.66,17.45 18.22,35.49 25.61,54.02 9.66,23.27 19.9,51.37 31.18,82.55 11.27,31.18 23.56,65.58 39.52,100.12 7.59,16.78 16.75,32.81 27.37,47.86 10.83,14.64 20.05,29.28 29.27,42.45 21.23,24.3 42.59,46.11 59.28,64.7l40.11 43.91c5.28,5.16 10.09,10.8 14.34,16.83z"/>
   <path class="fil5" d="M2143.03 4021.71c-17.81,-29.34 -33.42,-59.97 -46.69,-91.63 -15.56,-30.59 -28.81,-62.29 -39.67,-94.85 17.79,29.33 33.35,59.96 46.54,91.63 15.56,30.61 28.87,62.31 39.81,94.85l0 0z"/>
   <path class="fil5" d="M1024.02 6086.73c0,0 -0.88,-1.46 -2.2,-4.23 -1.31,-2.82 -3.37,-7.32 -5.86,-12.47 -5.26,-11.55 -12.59,-27.82 -22.1,-48.43l-15.66 -34.98c-5.56,-12.91 -10.83,-27.22 -16.83,-42.46 -11.71,-30.75 -26.35,-65.14 -38.79,-104.51l-20.64 -61.5c-7.03,-21.37 -12.73,-43.87 -19.61,-67.47 -14.64,-46.37 -25.32,-97.19 -37.76,-150.33 -50.15,-231.91 -66.62,-469.87 -48.89,-706.51 4.97,-54.45 8.93,-106.12 16.68,-154.13 3.52,-24 6,-47.42 10.11,-69.52 4.09,-22.1 8.19,-43.91 12,-63.67 6.73,-40.83 16.54,-76.84 23.86,-108.9 3.95,-15.81 7.31,-30.74 10.83,-43.91 3.51,-13.18 7.61,-25.76 10.83,-36.89l14.64 -50.94 4.1 -13.17c0.34,-1.53 0.88,-3 1.61,-4.39 -0.1,1.59 -0.39,3.17 -0.88,4.69l-3.37 13.32c-3.37,12.29 -7.9,29.28 -13.76,51.23l-9.51 37.18c-3.52,13.61 -6.59,28.54 -10.24,43.91 -7.03,32.06 -16.4,68.06 -22.84,108.9 -3.65,20.2 -7.46,41.42 -11.42,63.52 -3.95,22.11 -6.29,45.52 -9.8,69.53 -7.32,47.87 -10.98,99.53 -15.81,153.69 -7.63,117.95 -7.63,236.27 0,354.22 8.92,117.78 25.34,234.87 49.18,350.55 12.3,53.15 23.13,103.8 37.04,150.17 6.58,23.27 12.15,45.99 19.17,67.36 7.03,21.37 13.61,41.87 20.06,61.44 12,39.54 26.35,73.22 37.62,104.67 5.85,15.35 10.98,29.29 16.25,42.57 5.27,13.34 10.54,24.78 14.64,35.31l20.63 48.16 5.27 12.85c0.8,1.63 1.29,3.36 1.46,5.15l0 0z"/>
   <path class="fil5" d="M1001.19 5399.66c-28.29,2.5 -56.75,2.5 -85.04,0 -28.47,-0.11 -56.88,-2.7 -84.9,-7.76 28.34,-2.5 56.85,-2.5 85.19,0 28.43,0.09 56.78,2.69 84.75,7.76l0 0z"/>
   <path class="fil5" d="M981.43 5497.87c-30.36,-2.49 -60.06,-10.14 -87.82,-22.67 -28.52,-10.14 -55.13,-25 -78.75,-43.93 1.31,-2.06 35.71,18.87 81.52,37.2 45.82,18.28 85.63,27.66 85.04,29.39z"/>
   <path class="fil5" d="M792.02 4819.43c-16.85,10.69 -36.26,16.66 -56.2,17.27 -19.72,3.15 -39.92,1.03 -58.55,-6.15 0,-2.19 26.2,1.76 57.81,-1.46 31.62,-3.22 56.21,-11.72 56.94,-9.67z"/>
   <path class="fil5" d="M835.2 4786.94c-21,3.13 -42.46,0.4 -62.02,-7.89 -19.55,-8.3 -36.43,-21.82 -48.79,-39.09 16.26,12.24 33.6,22.97 51.81,32.06 19.15,6.8 38.9,11.8 58.99,14.93l0 0z"/>
   <path class="fil3" d="M4153.01 5466.68l365.93 175.67 60.89 65.73c17.91,19.31 42.76,30.81 69.11,31.83 26.34,1.03 52.02,-8.41 71.41,-26.3l461.95 -427.39c5.54,-4.93 9.87,-11.06 12.66,-17.93 2.8,-6.87 3.98,-14.29 3.45,-21.68 -0.52,-7.4 -2.74,-14.57 -6.47,-20.98 -3.73,-6.41 -8.89,-11.87 -15.06,-15.96 -5.62,-3.54 -12,-5.69 -18.63,-6.28 -6.61,-0.59 -13.28,0.41 -19.43,2.91 -50.5,18 -465.61,120.76 -465.61,120.76l-326.41 -184.13 -193.79 323.76z"/>
   <path class="fil5" d="M4753.13 5678.35c-0.88,1.03 -10.54,-7.48 -29.28,-17.3 -23.2,-13.02 -49,-20.77 -75.54,-22.67 -26.55,-1.9 -53.18,2.11 -78,11.71 -19.18,7.16 -29.28,14.65 -30.74,13.02 8.09,-8.13 17.82,-14.37 28.54,-18.44 25.3,-11.55 53.1,-16.59 80.85,-14.64 27.74,2.01 54.55,10.9 77.96,25.92 10.3,5.37 19.26,13.07 26.2,22.4l0 0z"/>
   <path class="fil5" d="M5066.22 5393.65c0,0.88 -9.36,-3.22 -21.22,-13.61 -15.36,-14.06 -26.33,-32.26 -31.62,-52.4 -4.93,-19.93 -5.68,-40.66 -2.2,-60.89 0.74,-8.46 3.07,-16.71 6.88,-24.3 0.74,8.3 0.4,16.67 -1.02,24.88 -1.76,19.62 -0.32,39.39 4.24,58.55 5.09,18.73 14.63,35.96 27.81,50.2 10.25,10.69 18.01,16.54 17.13,17.57z"/>
   <path class="fil0" d="M4155.64 5527.15l109.93 45.07c8.11,3.37 17.18,3.58 25.44,0.6 8.25,-2.98 15.1,-8.95 19.21,-16.7l194.82 -363.14c4.12,-7.74 5.23,-16.72 3.12,-25.24 -2.11,-8.51 -7.28,-15.94 -14.54,-20.87l-95.73 -64.7c-4.09,-2.76 -8.72,-4.64 -13.57,-5.5 -4.86,-0.87 -9.85,-0.72 -14.64,0.45 -4.8,1.17 -9.3,3.34 -13.21,6.35 -3.91,3.02 -7.15,6.81 -9.51,11.15l-208.58 383.18c-2.3,4.34 -3.69,9.11 -4.06,14 -0.37,4.93 0.28,9.81 1.89,14.48 1.62,4.61 4.19,8.89 7.54,12.47 3.35,3.58 7.4,6.45 11.9,8.41l0 0z"/>
   <path class="fil5" d="M4513.23 5179.8c-6.04,20.48 -13.83,40.41 -23.27,59.57 -15.67,36.16 -38.79,85.63 -67.04,138.76 -28.25,53.13 -56.8,99.83 -78.75,132.64 -10.98,16.54 -20.06,29.23 -26.64,38.34 -6.59,9.06 -10.54,13.61 -11.13,13.18 9.52,-19.03 20.18,-37.47 31.91,-55.21 20.35,-33.68 47.72,-80.48 75.97,-133.48 28.25,-52.99 52.11,-101.73 69.53,-137.15 8.42,-19.57 18.25,-38.5 29.42,-56.65l0 0z"/>
   <path class="fil5" d="M4328.66 5505.19c0,2.33 -43.91,1.9 -89.88,-26.2 -45.95,-28.09 -66.59,-67.33 -64.25,-68.07 2.34,-0.73 25.76,33.52 69.38,59.72 43.62,26.2 85.63,31.62 84.75,34.55z"/>
   <path class="fil5" d="M4408.43 5380.77c-29.17,-8.45 -57.22,-20.34 -83.58,-35.42 -43.91,-23.13 -78.45,-45.82 -77.14,-47.87 27.94,11.5 55.07,24.85 81.24,39.96 44.35,23.13 80.51,41.13 79.48,43.33z"/>
   <path class="fil5" d="M4480.3 5227.52c-1.9,2.34 -32.06,-30.15 -82.11,-45.81 -50.06,-15.67 -93.24,-7.76 -93.53,-10.69 8.58,-4.45 18.13,-6.72 27.81,-6.58 46.83,-3.66 93.2,11.28 129.1,41.57 13.46,11.56 19.61,20.78 18.74,21.52z"/>
  </g>
 </g>
</svg>
