<?xml version="1.0" encoding="UTF-8"?>
<!DOCTYPE svg PUBLIC "-//W3C//DTD SVG 1.0//EN" "http://www.w3.org/TR/2001/REC-SVG-20010904/DTD/svg10.dtd">
<!-- Creator: CorelDRAW X7 -->
<svg xmlns="http://www.w3.org/2000/svg" xml:space="preserve" width="6.59666in" height="3.36152in" version="1.0" style="shape-rendering:geometricPrecision; text-rendering:geometricPrecision; image-rendering:optimizeQuality; fill-rule:evenodd; clip-rule:evenodd"
viewBox="0 0 6597 3362"
 xmlns:xlink="http://www.w3.org/1999/xlink">
 <defs>
  <style type="text/css">
   <![CDATA[
    .fil1 {fill:black}
    .fil0 {fill:#ED1B6C}
   ]]>
  </style>
 </defs>
 <g id="Layer_x0020_1">
  <metadata id="CorelCorpID_0Corel-Layer"/>
  <g id="_300698344">
   <path class="fil0" d="M3979 281c-7,5 -11,8 -14,10 -31,21 -61,42 -91,63 -2,1 -6,2 -9,3 2,-2 4,-5 6,-6 33,-24 65,-47 97,-70 2,-1 5,0 11,0z"/>
   <path class="fil0" d="M3640 699c-2,-1 -3,-1 -3,-1 0,-1 0,-3 0,-4 11,-13 22,-26 32,-38 1,-1 2,-1 2,-2 0,1 1,1 1,2 -11,14 -22,29 -32,43z"/>
   <path class="fil0" d="M3685 617c-2,0 -2,-1 -3,-1 1,-1 1,-3 2,-4 11,-12 23,-23 35,-35 1,0 14,-15 15,-15 4,-5 35,-37 2,0 -12,13 -39,42 -51,55z"/>
   <path class="fil0" d="M3705 511c8,-11 38,-42 81,-84 12,-11 33,-30 46,-41 0,-1 7,-6 8,-7 0,1 -5,7 -6,7 -13,13 -102,92 -129,125z"/>
   <path class="fil0" d="M3670 738c-9,13 -17,25 -26,37 0,1 -2,2 -4,2 0,-1 -1,-2 0,-3 10,-12 20,-24 30,-36z"/>
   <path class="fil0" d="M3496 829c-7,13 -14,26 -21,39 0,2 -2,2 -4,3 0,-1 -1,-3 0,-3 8,-13 17,-26 25,-39z"/>
   <path class="fil0" d="M5144 3229c3,-1 7,-2 11,-3 7,-1 14,-1 21,-1 -7,1 -14,3 -21,4 -4,1 -8,0 -12,0l1 0z"/>
   <path class="fil0" d="M4006 265c-1,1 -1,2 -2,2 -4,3 -8,4 -12,6 0,-1 0,-2 0,-3 4,-2 9,-4 13,-6 1,1 1,1 1,1z"/>
   <path class="fil0" d="M3848 377c-3,-3 -3,-4 -3,-4 4,-4 8,-7 12,-11 0,0 1,1 1,1 -3,5 -6,9 -10,14z"/>
   <path class="fil0" d="M3699 709c-5,4 -9,7 -13,10 0,-1 -1,-2 -1,-2 4,-3 7,-6 11,-9 0,0 1,0 3,1z"/>
   <path class="fil0" d="M3748 619c1,-2 3,-3 4,-4 2,-2 4,-4 7,-6 0,0 0,1 0,1 -3,3 -7,6 -11,9z"/>
   <path class="fil0" d="M3622 667c2,-2 3,-3 4,-4 1,0 1,1 1,1 -1,2 -2,3 -3,4 0,0 -1,-1 -2,-1z"/>
   <path class="fil0" d="M3864 508c2,0 3,0 5,0 -3,2 -7,4 -10,6 2,-2 4,-4 5,-6z"/>
   <path class="fil0" d="M3702 2801c2,3 5,6 7,8 -2,-2 -5,-5 -7,-8z"/>
   <path class="fil0" d="M3459 847c-1,1 -8,16 -9,18 0,-1 -1,-2 -1,-3 1,-1 9,-14 10,-15z"/>
   <path class="fil0" d="M3667 710c3,-1 5,-3 7,-4 -2,1 -4,3 -7,4z"/>
   <path class="fil0" d="M4015 260c-3,2 -6,3 -9,5 0,0 0,0 0,-1 3,-2 5,-3 8,-5 1,0 1,1 1,1z"/>
   <path class="fil0" d="M3823 576c2,0 3,0 5,-1 -3,2 -5,3 -8,4 1,-1 2,-2 3,-3z"/>
   <path class="fil0" d="M3583 2640c-1,-2 -2,-4 -4,-6 1,0 2,0 2,0 1,2 2,3 3,5 0,0 0,0 -1,1z"/>
   <path class="fil0" d="M3670 738c1,-1 2,-3 2,-5 1,1 1,1 2,1 -2,1 -3,3 -4,4 0,0 0,0 0,0z"/>
   <path class="fil0" d="M5143 3229c-3,1 -7,1 -10,2l0 0c3,-1 7,-1 11,-2l-1 0z"/>
   <path class="fil0" d="M4231 3231c6,2 12,5 18,7 1,1 3,2 4,4l0 0c-26,-11 -52,-22 -77,-33 18,8 37,15 55,22z"/>
   <path class="fil0" d="M3552 2681c1,2 2,5 3,7 -1,-2 -2,-5 -3,-7z"/>
   <path class="fil0" d="M5201 130c0,0 -1,-1 -2,-1 -14,-1 -43,11 -156,-19 -13,-3 -25,-6 -35,-8 -23,-2 -45,-4 -66,-5 -29,2 -45,10 -84,6 -21,-2 -42,0 -59,4 -38,9 -55,24 0,0 0,0 1,0 2,-1 27,-11 80,-13 141,-9 16,-1 36,-1 66,5 71,7 143,18 191,27 1,0 2,0 2,1z"/>
   <path class="fil0" d="M6269 2682c5,-7 11,-14 16,-21 3,-5 6,-10 10,-14l0 0c5,-9 11,-17 17,-26 3,-6 7,-11 11,-16l0 0c5,-6 9,-11 13,-17 12,-20 24,-40 35,-60 5,-8 9,-17 14,-25l0 0 0 0 0 0c17,-32 35,-64 50,-97 14,-29 26,-59 37,-89l0 0 0 0c5,-12 9,-24 14,-35 1,-4 3,-7 4,-11l0 0 0 0 0 0c7,-17 14,-34 19,-52 12,-37 23,-74 33,-112 0,-2 1,-4 1,-6l1 -3c10,-38 20,-76 28,-115 7,-37 12,-74 16,-112 4,-37 7,-75 7,-112 0,-16 1,-32 1,-49l0 0 0 0 0 0 0 0c0,-19 1,-39 1,-58l0 -7c0,-12 -1,-25 -1,-37 -1,-12 -2,-25 -2,-38l0 0c-2,-27 -4,-54 -8,-81 -11,-71 -24,-142 -38,-213 -42,-215 -147,-412 -279,-584 -112,-147 -236,-276 -390,-381 -221,-151 -453,-250 -721,-289 -45,-7 -91,-11 -136,-16 -11,-1 -21,-2 -32,-3 -14,-1 -28,-2 -42,-2 -6,0 -13,-1 -19,-1l-38 0c-3,1 -6,2 -9,3 -1,0 -1,0 -2,-1 0,0 0,0 -1,0 1,0 1,-1 2,-1 0,0 1,-1 1,-1l-9 0c-7,0 -14,1 -21,1 -10,1 -20,2 -31,2 -33,3 -66,6 -99,9 -7,0 -14,1 -21,1 -21,2 -43,4 -65,7 -33,5 -66,12 -99,19 -44,11 -89,23 -132,36 -11,3 -21,8 -31,12 -8,4 -16,7 -24,10 -11,4 -23,8 -34,11 -9,3 -18,5 -26,8 -3,1 -4,2 -6,4 -2,2 -3,3 -5,4 -10,4 -20,8 -30,12l0 0c-15,6 -30,12 -45,18 -27,12 -54,26 -80,39 -33,17 -65,36 -97,54 -4,1 -6,4 -9,7l0 0 0 0 0 0 0 0c-1,2 -2,3 -4,5 0,0 1,0 1,0l0 0c0,0 0,0 0,1 15,-8 29,-16 43,-23l0 0c29,-15 57,-30 85,-44 32,-15 64,-29 95,-43l0 0 0 0c13,-6 26,-12 39,-18 4,-2 9,-4 13,-6 12,-5 24,-11 37,-15 9,-3 19,-5 29,-7 12,-2 25,-5 37,-9l2 -1 1 -1c22,-8 44,-17 67,-21 21,-4 42,-9 63,-13l0 0c13,-3 25,-6 38,-9 4,-1 9,-1 13,-1 5,0 9,-1 13,-1 9,-2 18,-4 26,-6 15,-4 29,-8 44,-9 30,-4 61,-5 92,-7 5,0 10,-1 15,-1 18,-1 36,-1 53,-2 9,0 18,0 27,0 4,0 8,-1 12,-1 12,0 24,-1 36,-1 7,0 14,1 20,1 7,0 13,1 19,1 6,0 12,0 18,0 9,-1 18,-1 26,0 39,2 77,6 116,9l0 0c3,1 6,2 10,3 1,1 2,1 4,2 -2,0 -4,0 -5,0 -3,0 -6,0 -9,0 -4,0 -8,0 -12,0 -11,-1 -22,-1 -33,-2 -23,-1 -45,-2 -67,-2 -12,-1 -23,-1 -35,-1 1,0 2,0 2,0 1,0 1,0 2,0 -1,-1 -1,-1 -2,-1 -1,-1 -3,-2 -4,-2 -8,0 -17,-1 -25,-1l0 0c-22,-1 -44,-2 -65,-1 -44,1 -88,4 -132,8 -19,1 -37,5 -55,8 -8,2 -16,3 -24,5 -6,1 -12,2 -19,3l0 0c-13,3 -27,5 -41,8 -13,2 -26,4 -40,7l0 0c-34,6 -68,12 -101,19 -26,6 -50,15 -74,24 -31,12 -61,25 -91,37l0 0c-17,7 -34,14 -51,21 -8,3 -16,6 -24,9 -16,6 -31,12 -46,19 -39,19 -77,39 -115,61 -42,24 -85,49 -125,76 -14,9 -25,21 -37,33 -5,5 -10,11 -15,16 -2,1 -3,3 -5,4 -1,2 -3,3 -4,5 -4,3 -9,7 -13,10l0 0 0 0c-9,8 -18,16 -28,24 -7,6 -14,11 -21,17l0 0c-14,11 -28,22 -42,34 -7,6 -13,14 -18,21 -4,5 -8,10 -12,15 -11,12 -23,24 -34,36l0 0 0 0 0 0 0 0c-5,5 -11,10 -16,16 0,0 0,1 0,2l0 0c0,1 0,2 0,3 0,0 -1,0 -2,1 0,0 0,0 -1,0 1,-1 1,-2 1,-3l0 0c1,0 1,-1 1,-2 -5,6 -10,12 -16,17 1,0 2,-1 4,-2 0,-1 0,-1 1,-1l1 1c-1,0 -2,1 -3,2 -1,0 -2,1 -3,1 -2,4 -5,7 -7,10 -6,8 -11,16 -18,23 -8,9 -17,18 -25,27 -14,15 -27,30 -40,45 -9,11 -16,23 -23,34l0 0c-4,7 -9,14 -13,20 -10,16 -21,32 -32,49l0 0c-11,17 -22,33 -33,49 7,-9 15,-19 24,-29 7,-8 14,-16 20,-24 19,-25 38,-50 57,-74 11,-14 23,-27 34,-40l0 0 0 0 0 0 0 0 0 0c4,-4 7,-8 11,-12 1,-1 2,-1 3,-2 1,0 2,-1 2,-1 0,1 0,2 0,2 0,2 -1,4 -2,5 -2,2 -4,4 -6,6 -3,2 -6,5 -9,9 -17,22 -33,45 -49,67 -9,13 -16,25 -24,38l0 0c-6,11 -12,21 -20,32l0 0c0,0 0,1 0,1l0 0 -1 0c0,1 -1,2 -4,6l0 0 0 0 0 0c2,-1 2,-1 3,-2 1,-1 1,-1 2,-3l0 0c3,-3 5,-6 7,-9 8,-12 17,-24 26,-36 9,-10 17,-21 25,-32l0 0 0 0 0 0 0 0c26,-33 52,-67 80,-98 38,-44 79,-85 120,-126 4,-3 7,-6 10,-10 27,-27 56,-53 85,-78 10,-8 21,-15 32,-22l0 0 0 0c6,-5 12,-9 18,-13 8,-6 15,-11 23,-17 13,-10 26,-20 39,-29 18,-12 37,-23 56,-34 13,-8 26,-16 39,-24 61,-38 125,-71 193,-97 8,-3 16,-6 24,-10l0 0 0 0c29,-11 59,-23 88,-33 34,-12 69,-22 104,-32l0 0 0 0c5,-2 11,-3 16,-5 20,-6 40,-11 60,-15 12,-2 25,-4 38,-5 10,-1 21,-3 32,-4 8,-2 16,-4 24,-6 10,-2 19,-4 28,-5 26,-4 52,-6 78,-9 10,-1 21,-2 32,-3 3,-1 6,-1 9,-2 9,-1 17,-2 26,-2 15,0 31,0 46,1 9,0 18,0 27,0 10,0 20,0 30,0 25,0 50,1 75,1 4,0 8,1 11,3 2,0 3,1 5,1 -4,1 -8,1 -11,1 -9,0 -17,1 -26,1 -5,0 -9,-1 -14,-2 -6,-1 -11,-1 -17,-1 -35,1 -70,3 -104,5 -6,0 -11,0 -16,0 -5,1 -11,1 -16,1 -24,1 -49,3 -73,5 -14,1 -28,4 -42,6 -10,1 -19,3 -29,4 -8,1 -16,2 -24,3 -12,1 -24,2 -35,4 -12,2 -23,5 -34,9 -7,2 -15,4 -22,6 -10,3 -20,5 -30,7 -18,4 -36,8 -53,14 -7,2 -13,4 -19,6 -68,24 -135,48 -201,76 -42,18 -83,41 -123,63 -13,7 -25,14 -37,20 -25,14 -50,29 -73,45 -29,19 -58,39 -86,61 -24,18 -48,37 -72,57 -15,13 -29,27 -44,40l0 0c-5,5 -10,11 -16,16 -2,1 -3,3 -4,5 -1,1 -2,2 -2,3 1,-1 2,-1 3,-2 2,-1 4,-2 6,-4 14,-12 28,-24 42,-36l0 0c8,-8 17,-15 25,-23 2,-1 3,-1 5,-2 1,0 2,0 2,-1 0,1 -1,2 -1,2 -1,2 -2,3 -3,4 -10,9 -20,18 -30,27l0 0 0 0 0 0 0 0c-19,18 -39,35 -58,54 -25,24 -49,50 -74,75l0 0 0 0 0 0 0 0c-8,9 -16,17 -24,25 -2,2 -2,3 -3,4 0,1 -1,2 -1,3 0,-1 1,-1 2,-2 1,0 3,-1 4,-2 7,-7 14,-15 21,-22 11,-11 22,-22 34,-33l4 -4c29,-28 58,-56 88,-83 20,-18 41,-35 62,-52l0 0c10,-8 19,-15 28,-23 1,0 2,-1 4,-1 0,0 1,-1 2,-1 -1,1 -1,1 -1,2 -1,1 -2,3 -3,4 -9,7 -18,15 -27,22l0 0 0 0 0 0 0 0c-19,16 -38,31 -56,47 -31,29 -63,59 -93,90 -25,25 -48,52 -72,79 -5,5 -10,11 -15,17 -3,3 -5,7 -7,11 -1,3 -3,7 -5,9 -3,4 -6,9 -9,13l0 0c-63,87 -126,175 -170,273 -8,17 -41,107 -33,90 33,-70 68,-142 109,-208 61,-95 125,-181 204,-256 1,-1 1,-1 2,-2l0 0c1,0 1,-1 2,-2l6 -8c0,1 0,2 1,2 0,1 0,1 0,1 0,0 1,0 1,0 4,-4 9,-9 13,-13l0 0c14,-14 27,-27 41,-40 11,-11 22,-21 33,-31l0 0 0 0 0 0c4,-4 8,-8 12,-11 1,-2 3,-3 4,-5l0 0c0,0 1,-1 1,-2 1,-1 2,-2 3,-2 1,-1 2,-2 3,-3 0,1 -1,3 -1,4l0 0c2,-1 4,-2 6,-3 15,-12 31,-24 47,-36l0 0c38,-29 77,-58 117,-86 40,-28 84,-51 127,-75 40,-21 79,-41 121,-58 49,-20 99,-38 150,-53 54,-17 109,-32 164,-43 145,-29 291,-36 438,-23 123,11 243,35 361,74 40,13 79,28 118,44 -33,-13 -66,-25 -100,-35 -6,-2 -12,-4 -18,-7l0 0c-7,-2 -13,-4 -18,-6 -11,-4 -24,-8 -34,-11 -10,-2 -19,-5 -29,-8 -22,-6 -45,-13 -67,-18 -40,-8 -92,-18 -133,-23 -65,-7 -111,-10 -181,-13 -6,0 -13,0 -20,0 -15,0 -33,0 -45,0 -27,1 -42,2 -68,5l-2 0c-48,5 -97,10 -146,18 -45,7 -90,16 -135,25 -7,1 -15,4 -22,8l0 0c-5,2 -10,4 -16,6 -11,3 -23,7 -34,10 -21,6 -41,12 -61,19 -47,18 -94,37 -140,58 -40,18 -80,38 -118,60 -26,14 -50,30 -75,46l0 0c-7,5 -14,9 -21,14 -8,5 -16,12 -25,18l0 0c-3,2 -6,5 -9,7 -12,9 -24,18 -36,27l0 0 0 1 0 0 0 0 0 0c-12,9 -24,18 -37,27 -5,4 -10,7 -15,11 -11,8 -22,15 -31,24 -32,29 -62,60 -93,90l0 0 0 0c-5,4 -10,9 -15,14 -15,15 -30,31 -45,47 -9,9 -16,19 -24,29l0 0 0 0c-1,1 -3,3 -4,4 -1,1 -1,3 0,4 0,1 0,2 -1,2 1,0 2,0 3,0 2,0 4,-1 5,-2 2,-3 4,-6 7,-9 3,-4 6,-8 9,-12 6,-6 12,-12 18,-18 4,-4 8,-9 12,-13 15,-15 30,-31 45,-46l0 0 0 0 0 0 0 0c7,-8 14,-15 21,-23l3 -3c1,0 2,0 3,0 1,-1 2,-1 3,-1 8,-8 16,-15 24,-23 16,-16 33,-32 51,-46 46,-36 94,-71 143,-105 23,-16 48,-31 73,-46 3,-2 7,-4 10,-5 13,-8 26,-15 40,-22 6,-4 13,-7 20,-11 1,-1 2,-1 3,-2 2,-1 3,-2 4,-2 0,1 0,2 0,3l0 0c8,-4 16,-8 24,-12l0 0 0 0c17,-8 34,-16 52,-24 36,-16 72,-31 109,-45 35,-12 71,-23 107,-32 3,-1 6,-1 8,-2 51,-12 102,-25 154,-33 68,-10 137,-17 206,-20 83,-4 166,1 249,12 94,12 187,33 277,62 105,33 205,76 298,132 65,40 128,83 188,130 56,43 107,91 158,141 68,67 127,143 179,223 101,153 173,318 215,496 36,157 47,316 35,477 -9,114 -29,226 -63,335 -44,142 -107,274 -189,398 -63,97 -137,185 -221,265 -87,84 -183,156 -289,215 -7,4 -15,8 -22,12l0 0c-37,21 -73,41 -112,58 -65,28 -132,53 -199,78 -33,12 -67,21 -101,28 -29,7 -58,12 -88,18l0 0 0 0 0 0 0 0c-12,2 -25,4 -37,7 -4,0 -9,1 -13,2l0 0 0 0c-1,0 -2,0 -2,0 -2,0 -3,1 -4,1 3,-1 5,-2 8,-3 3,-1 5,-2 8,-3 0,0 0,0 0,-1l1 0 0 0c0,0 -1,0 -1,0 -9,2 -19,3 -29,4 -26,3 -53,6 -80,9 -93,13 -187,10 -281,4 -100,-7 -199,-24 -294,-53 -227,-67 -431,-173 -611,-328 -82,-70 -158,-146 -227,-228 -2,-2 -3,-3 -5,-4 -1,0 -2,-1 -3,-1 1,1 1,2 1,3 1,2 1,4 2,6 5,7 10,14 14,21 12,18 24,36 38,53 34,39 70,78 107,115 20,20 41,38 62,56l0 0c9,8 18,16 27,24 -4,-2 -7,-4 -10,-7l0 0c-9,-6 -17,-12 -25,-19 -8,-8 -16,-16 -25,-24l0 0c-45,-43 -90,-87 -134,-132 -19,-20 -36,-41 -52,-62 -8,-10 -15,-19 -22,-28l-1 0c2,4 4,7 5,10l0 0 0 0 0 0c5,7 9,14 14,21 12,16 24,33 37,49l3 5c2,1 3,3 4,5l1 1c9,12 18,24 27,35 9,12 18,24 27,36 3,2 5,5 7,8l0 0c11,12 22,25 33,37 1,1 1,2 2,3l0 0c0,0 0,1 1,1 -1,0 -1,0 -1,0 -1,-1 -2,-1 -3,-2 -3,-2 -5,-4 -8,-6l0 0c-7,-5 -13,-10 -18,-16 -34,-39 -68,-77 -101,-116 -5,-6 -10,-12 -15,-18l0 0 0 0c-25,-29 -49,-59 -70,-91 -30,-45 -57,-93 -84,-140l0 0 0 0c-10,-16 -20,-33 -29,-50 -7,-10 -13,-19 -18,-28 -7,-10 -13,-20 -20,-31 -1,-2 -2,-4 -3,-6l0 0 0 0 0 0 0 0c-2,-2 -4,-6 -7,-11 2,5 5,11 7,16l0 1c4,11 9,23 13,34 8,20 16,41 25,61 6,15 14,30 22,45 25,44 50,88 77,132 8,13 18,26 28,39l0 0c4,6 9,12 13,18 0,1 1,2 1,3 1,2 1,3 1,4 2,2 4,4 5,6l0 0 0 0c5,5 10,10 14,15 4,5 8,9 12,14l0 0 0 0 0 0c12,14 24,28 37,43 2,2 4,5 7,7l0 0c4,5 8,9 12,14 6,7 11,14 16,22 8,10 16,21 24,31 19,23 39,45 59,66 29,29 58,57 89,83 29,23 59,45 89,67 13,10 26,19 38,29 146,109 329,178 504,226 186,51 359,58 549,45 195,-13 387,-49 566,-127 32,-14 63,-28 94,-43 19,-9 38,-18 57,-28 14,-7 28,-15 41,-23 24,-15 48,-29 71,-45 13,-8 26,-17 38,-26 10,-8 20,-16 30,-24 7,-5 14,-10 21,-16 9,-7 19,-15 29,-22l0 0c19,-15 38,-29 57,-45 20,-17 40,-36 59,-55 33,-33 66,-67 98,-102 22,-23 43,-48 63,-73 12,-15 24,-30 35,-45zm-2408 236c1,0 1,1 1,1 0,1 1,2 1,3 8,5 15,10 22,16 8,5 69,47 69,47 0,0 -80,-58 -86,-63 -1,-1 -3,-2 -4,-3 -1,0 -2,-1 -3,-1zm1150 -2849c0,0 -1,1 -1,1 -1,1 -1,1 -2,2 1,0 1,0 2,1l0 0c1,0 2,0 3,0 4,1 8,1 13,1 8,0 16,1 25,2 16,2 32,4 48,5 41,4 82,7 121,21 3,1 6,1 10,1 2,0 5,0 8,1 18,4 37,8 55,12l0 0c13,3 26,5 39,8 3,1 7,1 10,2 5,1 10,1 15,3 7,2 14,5 20,7 3,2 6,3 9,4 1,-1 28,0 44,1 7,0 12,0 11,0 -29,-8 -85,-19 -132,-29 -21,-4 -40,-8 -53,-11 -45,-9 -90,-18 -135,-24 -25,-4 -51,-5 -76,-6 -11,-1 -23,-2 -34,-2l0 0zm377 72l3 0 0 0c6,2 12,4 19,6 1,0 1,0 2,1 1,0 1,0 1,0 0,-1 0,-1 0,-1 -1,-1 -1,-1 -2,-1 -8,-2 -15,-4 -23,-5zm-451 -109c-8,0 -15,0 -23,0l0 0c-11,-1 -21,-1 -31,-2 -1,0 -2,1 -3,1 -1,0 -1,0 -2,0 1,0 1,1 2,1 1,0 2,0 3,0 11,0 23,0 35,0l0 0 0 0c6,0 13,0 19,0zm-68 100c-3,0 -5,0 -8,0 -1,0 -1,0 -2,1 0,0 0,0 -1,0l0 0 1 0c3,0 6,0 10,-1zm1 0c3,0 5,0 7,0 0,0 0,-1 0,-1 -2,1 -4,1 -7,1zm1605 1441l0 -3c0,1 0,2 0,3zm0 0c0,1 1,3 1,4 0,-1 -1,-3 -1,-4zm0 -17l0 -1c0,0 0,1 0,1zm4 37l0 0c0,0 0,0 0,0zm-2819 -987c-1,0 -25,26 -25,26 1,-2 24,-31 24,-31 0,0 34,-36 52,-55 1,-1 2,-2 3,-3l0 0c0,0 1,-1 2,-2 3,-3 6,-6 9,-10 -1,2 -1,3 -2,4 -2,3 -3,6 -5,9 -13,13 -26,27 -39,41l0 0c-6,7 -13,14 -19,21zm392 -282c0,0 1,0 2,0 -1,1 -2,2 -3,3l0 0c-1,1 -2,2 -3,2 -10,7 -21,14 -31,20 -1,1 -2,1 -4,2 1,0 1,-1 1,-1 0,-1 1,-2 1,-3 11,-7 23,-15 34,-23 0,0 1,0 3,0zm-121 11c-4,3 -8,6 -13,9 -1,0 -1,-1 -2,-1 0,0 0,0 0,-1 1,-1 1,-1 1,-2 8,-5 16,-11 25,-16 0,0 1,0 2,0 0,1 0,2 0,2 -4,3 -9,6 -13,9zm2533 1134c0,0 -1,1 0,1 0,0 0,-1 0,-1zm-2702 -973c0,0 1,0 2,1 -4,4 -8,7 -12,11l0 0 0 0c-3,3 -6,5 -9,8 -1,0 -1,0 -2,-1 3,-3 7,-6 10,-10 3,-3 6,-6 9,-10 1,0 1,0 2,1zm-34 2385l3 0c3,3 26,23 50,44l0 0 0 0 0 0 0 0c28,25 58,51 62,55 87,77 -5,-3 -5,-3l-90 -76c-6,-6 -13,-12 -19,-18 0,0 0,-1 0,-2 0,0 0,0 -1,0zm58 -2427c0,1 1,1 1,1 -3,3 -7,6 -10,9l0 0 0 0c-2,2 -4,4 -6,6l-1 -2c5,-5 10,-9 15,-14 0,0 0,0 1,0zm1019 -317l0 0 0 0c-5,0 -9,1 -13,1 -4,0 -9,-1 -13,-1 2,0 4,-1 5,-1 4,-1 7,-1 11,-1 2,0 4,0 6,1 2,0 3,1 4,1l0 0zm-1043 2726c0,-1 0,-1 1,-2 2,3 3,5 5,7l0 0c2,2 4,5 6,7l74 71c-4,-4 -84,-77 -88,-81 0,0 1,-1 2,-2zm207 -2482c-2,1 -4,3 -5,4 -1,-1 -2,-2 -2,-2l1 0c5,-4 10,-7 15,-11 0,0 1,0 1,0 0,1 0,1 1,1 -4,3 -8,5 -11,8l0 0 0 0zm2497 1098c0,0 0,0 0,0 0,0 0,0 0,0zm-2659 -1040c0,0 0,0 0,0l0 0 -1 1 0 0c-2,1 -3,3 -5,4 0,0 -1,0 -1,-1 -1,0 -1,0 -1,0 0,0 0,0 0,0 1,-1 1,-1 2,-2l0 0 0 0c1,-1 2,-2 4,-3 0,0 1,0 1,0l1 0c0,0 0,1 0,1zm2786 1279c0,0 0,0 0,0l0 0zm-59 -483l0 0c0,0 0,0 0,0 0,0 0,0 0,0 0,0 0,0 0,0zm-2 -7l0 0c0,0 0,0 0,0zm-2631 -873c-1,1 -2,3 -3,4 -1,0 -1,0 -1,-1 0,0 0,-1 0,-1 2,-2 4,-4 6,-6 0,0 1,1 2,1 -1,1 -2,2 -4,3zm1619 -171c1,1 2,1 3,2 -1,0 -2,0 -3,0 -1,1 -2,1 -3,0 -1,0 -2,-1 -3,-2 0,0 0,0 -1,-1 0,0 1,0 1,0 0,0 0,0 0,0l0 0 0 0c1,0 2,0 3,0 1,0 2,1 3,1zm-706 -151c0,0 1,0 2,1 -1,0 -2,0 -3,0 -2,0 -3,0 -4,0 -1,0 -1,-1 -2,-2 0,0 0,0 0,0 0,0 0,-1 1,-1 1,0 2,0 4,0 0,0 1,1 2,2zm-768 236c1,0 1,1 2,1 -1,0 -1,0 -1,1l0 0c-2,1 -3,2 -4,3 0,0 0,-1 -1,-1 0,-1 0,-1 -1,-1 1,0 1,-1 1,-1 1,-1 2,-1 3,-2 1,0 1,0 1,0zm2506 1041c0,0 0,0 0,0 0,1 0,2 0,3 0,-1 0,-1 0,-2 0,0 0,-1 0,-1zm-1502 1936c1,0 1,1 2,1 -1,0 -1,0 -1,0l0 0c-2,1 -3,1 -3,1 -1,0 -1,0 -2,-1 0,0 0,0 0,0 0,0 1,0 1,-1 1,0 1,0 2,0 0,0 1,0 1,0zm-1529 -618l0 0c0,1 0,1 1,1l0 0 -1 1c0,0 0,0 0,0 -1,-1 -2,-2 -3,-3 0,0 0,-1 1,-1 0,0 0,0 0,1 1,0 1,0 1,0l0 1 0 0 0 0 0 0 1 0zm1734 -2564c0,0 0,0 0,0 -1,0 -1,0 -2,0 -1,0 -2,0 -2,0 -1,0 -1,0 -2,-1 0,0 0,0 0,0 0,0 0,0 0,0 0,0 0,0 -1,0 1,0 1,0 2,0 1,0 1,0 2,0 1,0 1,0 2,0 0,0 0,0 1,0 0,1 0,1 0,1zm-532 18c1,0 1,0 2,-1 1,0 1,1 2,1 -1,0 -1,0 -2,0 0,1 -1,1 -2,2 0,0 -1,-1 -1,-1 0,0 -1,0 -1,0 1,0 1,-1 2,-1l0 0zm681 19l0 0c1,0 2,1 3,1 -1,0 -1,0 -1,1 -1,0 -2,1 -2,0 -1,0 -2,0 -2,-1l0 0c-1,0 -1,0 -1,0 0,0 0,0 0,0 0,0 0,0 0,0l0 0 0 0c0,-1 1,-1 1,-1 1,0 1,0 2,0zm-102 -25c0,-1 0,-1 1,-1 1,1 2,1 2,1 0,0 0,0 0,0 -1,0 -2,1 -3,1 -1,0 -1,-1 -2,-1 0,0 0,0 -1,0 1,0 2,0 3,0l0 0 0 0zm-1590 2786l0 0 0 0c0,1 1,1 1,1 -1,0 5,7 8,10l0 0c2,2 3,3 2,3 0,-1 -14,-13 -14,-14 -1,0 1,-1 1,-1 0,0 1,0 2,1zm499 -2622c-1,1 -1,2 -1,2 -2,0 -3,0 -3,0 0,-1 0,-1 0,-1l1 0 0 0 0 0c0,-1 0,-1 1,-2 0,0 1,0 1,0l0 1c1,0 1,0 1,0zm1316 -87l0 0 0 0c-1,0 -1,1 -1,1 -1,0 -2,-1 -2,-2l-1 0c0,0 0,0 -1,-1 0,0 1,0 1,0 0,0 0,0 1,0 1,0 2,1 3,1 0,0 0,0 0,1zm-1904 494c0,0 0,1 -1,1 0,0 0,0 0,0 0,0 -1,-1 -1,-1 1,0 1,-1 2,-1l0 1zm1535 -601l0 0 0 0 0 0c1,0 1,0 1,0 0,1 0,1 -1,1l0 0c0,0 0,0 -1,0 0,0 -1,0 -1,-1 0,0 -1,0 -1,0 0,0 0,0 1,0 0,0 0,-1 1,0 0,0 1,0 1,0zm-129 -11c0,0 0,0 0,0 0,0 0,0 -1,0l0 0c0,1 -1,1 -2,1 0,0 0,-1 -1,-1 0,0 0,0 0,0 0,0 1,0 1,0 1,0 1,0 2,0 0,0 0,0 1,0zm-318 -16c0,0 1,0 1,0 0,0 -1,1 -1,1 -1,0 -1,1 -1,1 -1,0 -1,0 -1,0 -1,0 -1,0 -1,0 0,0 0,0 0,-1 1,0 1,-1 1,-1 1,0 1,0 2,0zm-969 484c1,0 1,-1 2,-1 0,0 0,0 0,0 0,0 0,1 0,1 0,0 0,1 -1,1 0,0 0,0 -1,0l0 0c0,0 0,0 0,0 0,0 0,0 0,0 0,0 0,-1 0,-1zm1012 2804l1 0c0,0 -1,0 -1,0zm328 -9c-2,0 -3,1 -4,1 5,-2 10,-4 14,-6 7,-4 12,-7 16,-9 -12,4 -31,9 -51,8 -22,0 -37,5 -53,10l0 0c-7,3 -15,5 -23,7 -25,2 -49,3 -74,3 -6,0 -12,-1 -19,-2 -76,-12 -107,-7 -123,-4 -4,1 -7,1 -10,1 26,2 61,4 98,6 -32,-1 -64,-2 -95,-5 -313,-27 -572,-158 -817,-311 126,104 426,281 817,311 37,3 75,5 114,5 17,1 34,1 51,1 13,0 24,0 34,-1 49,-1 93,-5 121,-14 1,0 2,-1 4,-1zm35 -5c-12,2 -24,3 -35,5 11,-1 23,-3 35,-5zm-160 20c-11,1 -23,1 -34,1 -4,0 -8,-1 -13,-1 23,-1 47,-2 70,-4 -7,2 -15,3 -23,4zm310 -21c-301,75 -517,54 -757,-2 10,1 27,4 49,8l0 0c106,21 345,68 708,-6zm-737 -57c207,58 364,78 648,11 -309,69 -514,20 -605,-2 -19,-5 -33,-8 -43,-9zm2 69c-302,-68 -485,-183 -676,-341 10,6 23,17 41,31 85,69 274,221 635,310z"/>
   <polygon class="fil1" points="306,1808 75,1329 0,1329 0,2040 75,2040 75,1483 277,1898 335,1898 536,1483 536,2040 612,2040 612,1329 536,1329 "/>
   <polygon class="fil1" points="960,1329 701,2040 781,2040 832,1892 862,1805 862,1805 991,1434 1074,1672 1121,1805 1120,1805 1149,1887 1202,2040 1282,2040 1023,1329 "/>
   <polygon class="fil1" points="1815,1900 1447,1329 1371,1329 1371,2040 1447,2040 1447,1467 1815,2040 1890,2040 1890,1329 1815,1329 "/>
   <polygon class="fil1" points="1981,1397 2184,1397 2184,2040 2258,2040 2258,1397 2461,1397 2461,1329 1981,1329 "/>
   <path class="fil1" d="M2990 1655c27,-33 40,-75 40,-126 0,-64 -19,-114 -57,-148 -38,-35 -90,-52 -157,-52l-264 0 0 711 75 0 0 -312 172 0 160 312 87 0 -168 -319c48,-11 85,-34 112,-66zm-363 8l0 -266 183 0c47,0 83,11 108,33 24,23 37,56 37,100 0,43 -13,75 -38,98 -25,23 -61,35 -107,35l-183 0z"/>
   <path class="fil1" d="M4232 1329l-243 0 0 711 243 0c75,0 136,-22 180,-65 44,-44 66,-113 66,-207l0 -167c0,-94 -22,-163 -66,-207 -45,-44 -105,-65 -180,-65zm170 443c0,133 -57,200 -169,200l-168 0 0 -575 168 0c54,0 96,16 125,49 29,33 44,85 44,158l0 168 0 0z"/>
   <path class="fil1" d="M5626 1385c-44,-44 -104,-66 -179,-66 -75,0 -135,22 -180,66 -45,44 -67,113 -67,207l0 184c0,94 22,163 66,207 45,43 105,65 180,65 75,0 135,-22 180,-65 44,-44 67,-113 67,-207l0 -184c0,-94 -22,-163 -67,-207zm-8 395c0,133 -57,199 -171,199 -56,0 -99,-15 -128,-47 -29,-32 -44,-82 -44,-152l0 -185c0,-73 15,-126 43,-158 29,-33 72,-50 129,-50 113,0 170,69 170,208l0 185 1 0z"/>
   <polygon class="fil1" points="5134,2040 4875,1329 4812,1329 4553,2040 4633,2040 4675,1918 4714,1805 4744,1719 4843,1434 4973,1805 4973,1805 5010,1913 5054,2040 "/>
   <polygon class="fil1" points="3675,2040 3416,1329 3353,1329 3094,2040 3174,2040 3224,1896 3255,1805 3255,1805 3384,1434 3502,1771 3514,1805 3545,1896 3596,2040 "/>
  </g>
 </g>
</svg>
