<?xml version="1.0" encoding="UTF-8"?>
<!DOCTYPE svg PUBLIC "-//W3C//DTD SVG 1.1//EN" "http://www.w3.org/Graphics/SVG/1.1/DTD/svg11.dtd">
<!-- Creator: CorelDRAW 2018 (64-Bit) -->
<svg xmlns="http://www.w3.org/2000/svg" xml:space="preserve" width="30.6354in" height="5.45652in" version="1.1" style="shape-rendering:geometricPrecision; text-rendering:geometricPrecision; image-rendering:optimizeQuality; fill-rule:evenodd; clip-rule:evenodd"
viewBox="0 0 30635.41 5456.52"
 xmlns:xlink="http://www.w3.org/1999/xlink">
 <defs>
  <style type="text/css">
   <![CDATA[
    .fil1 {fill:none}
    .fil0 {fill:#283A8F}
   ]]>
  </style>
 </defs>
 <g id="Layer_x0020_1">
  <metadata id="CorelCorpID_0Corel-Layer"/>
  <g id="_488618086672">
   <g>
    <path class="fil0" d="M889.62 2311.53l463.23 582.07c794.78,1067.39 777.59,1389.73 1418.33,1403.99l0 -3240.44 -731.73 0 0 1986.06c-289.28,-193.71 -623.16,-761.71 -880.95,-1105.11 -681.63,-908.13 -462.76,-880.95 -1105.15,-880.95l0 3240.44 836.26 0 0 -1986.06z"/>
    <path class="fil0" d="M13119.78 2416.03c1305.26,-31.53 1149.84,-461.45 1149.84,1881.57l731.73 0 0 -1881.57c1303.8,-29.04 1149.84,-467.3 1149.84,1881.57l731.69 0 0 -1567.95c0,-1191.44 -2043.31,-586.3 -2179.58,-588.47 -375.84,-5.93 -392.11,-143.26 -851.83,-143.26 -599.93,0 -793.52,104.54 -1463.41,104.54l0 2195.14 731.73 0 0 -1881.57z"/>
    <path class="fil0" d="M18032.71 3043.22c8.57,-384.69 106.55,-739.59 719.32,-708.34 442.45,22.56 627.78,178.38 639.59,708.34l-1358.92 0zm627.19 940.8c-464.42,0 -539.01,-144.2 -627.19,-522.65l2090.64 0 0 -627.19c0,-820.26 -1207.2,-1112.98 -2292.25,-724.3 -675.19,241.87 -530.08,416.96 -530.08,1560.52 0,791.78 2462.22,1061.7 2717.79,104.54 -657.09,-315.28 -171.7,209.07 -1358.91,209.07z"/>
    <path class="fil0" d="M9983.84 2834.18c0,-471.84 780.16,-630 1099.03,-375.25 303.66,242.62 259.88,912.75 259.88,1420.55 -648.24,151 -606.17,151 -1254.38,0l-104.54 -1045.3zm-731.73 836.22c0,932.47 2085.39,627.19 2822.33,627.19l0 -1358.87c0,-933.61 -1184.65,-1225.62 -2292.21,-828.84 -675.19,241.87 -530.12,416.96 -530.12,1560.52z"/>
    <path class="fil0" d="M3921.02 2834.18c0,-470.74 698.98,-625.65 1073.12,-349.29 418.35,309.03 285.8,732.8 285.8,1394.59 -1491.94,347.59 -1358.92,-106.35 -1358.92,-1045.3zm2090.6 104.54c0,-1291.12 -3175.49,-1599.68 -2877.92,466.15 184.39,1280.1 1032.15,892.72 2877.92,892.72l0 -1358.87z"/>
    <path class="fil0" d="M28172.27 3774.94c-650.22,-312 -163.8,209.07 -1254.38,209.07 -1060.43,0 -685.78,-1672.49 -104.54,-1672.49 877.87,0 677.64,367.78 1358.91,209.04 -177.04,-663.02 -1349.51,-609.29 -1590.98,-554.61 -771.83,174.78 -1089.75,335.58 -1112.31,1191.17 -21.93,832.91 336.53,1064.35 1104.64,1179.59 250.17,37.53 1074.42,21.93 1368.28,-164.91 258.94,-164.63 190.55,-33.07 230.37,-396.86z"/>
    <path class="fil0" d="M29217.57 2520.57c138.99,-156.73 826.11,-104.54 1149.84,-104.54l0 -313.57c-472.71,-10.55 -415.43,-104.54 -940.76,-104.54 -1281.36,0 -1318.93,1432.12 313.57,1567.95 -64.67,777.08 -448.65,230.45 -1254.38,418.15l0 209.04c374.18,87.2 491.17,209.08 940.8,209.08 811.5,0 1582.49,-495.59 880.91,-1194.48 -550.15,-548.06 -918.99,-46.78 -1089.98,-687.08z"/>
    <path class="fil0" d="M20332.43 2416.03l418.11 0 0 1881.57 731.73 0 0 -1881.57 627.19 0 0 -313.57 -627.19 0c0,-1154.62 113.9,-1045.3 -731.73,-1045.3l0 1045.3 -418.11 0 0 313.57z"/>
    <path class="fil0" d="M8206.81 2834.18c0,-434.51 476.9,-522.65 940.76,-522.65 -76.52,-919.87 -511.82,-10.71 -1777.03,-313.61l0 2299.68 836.26 0 0 -1463.41z"/>
    <path class="fil0" d="M23154.76 2834.18c0,-418.39 514.87,-513.17 940.76,-522.65 -76.09,-914.85 -565.56,-20.03 -1672.49,-313.61l0 2299.68 731.72 0 0 -1463.41z"/>
    <path class="fil0" d="M24409.14 4297.59l731.73 0 0 -2195.14c-459.4,-10.23 -325.63,-70.72 -731.73,-104.54l0 2299.68z"/>
    <path class="fil0" d="M6325.24 4297.59l731.72 0 0 -2195.14c-412.7,0 -424.2,-32.87 -731.72,-104.54l0 2299.68z"/>
    <path class="fil0" d="M6220.7 1475.26c0,736.55 1449.15,322.27 796.72,-274.07 -312.04,-285.17 -796.72,-82.06 -796.72,274.07z"/>
    <path class="fil0" d="M24409.14 1161.69l0 627.19c586.81,155.62 836.27,176.52 836.27,-627.19 -396.27,-32.99 -479.51,-138.48 -836.27,0z"/>
   </g>
   <polygon class="fil1" points="-0,0 30635.41,0 30635.41,5456.52 -0,5456.52 "/>
  </g>
 </g>
</svg>
