<?xml version="1.0" encoding="UTF-8"?>
<!DOCTYPE svg PUBLIC "-//W3C//DTD SVG 1.1//EN" "http://www.w3.org/Graphics/SVG/1.1/DTD/svg11.dtd">
<!-- Creator: CorelDRAW 2018 (64-Bit) -->
<svg xmlns="http://www.w3.org/2000/svg" xml:space="preserve" width="33.0625in" height="5.45652in" version="1.1" style="shape-rendering:geometricPrecision; text-rendering:geometricPrecision; image-rendering:optimizeQuality; fill-rule:evenodd; clip-rule:evenodd"
viewBox="0 0 33062.5 5456.52"
 xmlns:xlink="http://www.w3.org/1999/xlink">
 <defs>
  <style type="text/css">
   <![CDATA[
    .fil3 {fill:none}
    .fil0 {fill:#050505}
    .fil1 {fill:#5D5D5D}
    .fil2 {fill:#84BE3B}
   ]]>
  </style>
   <clipPath id="id0">
    <path d="M-0 0l33062.5 0 0 5456.52 -33062.5 0 0 -5456.52z"/>
   </clipPath>
 </defs>
 <g id="Layer_x0020_1">
  <metadata id="CorelCorpID_0Corel-Layer"/>
  <g>
  </g>
  <g style="clip-path:url(#id0)">
   <g>
    <g id="_421821092640">
     <path class="fil0" d="M14234.18 3888.35l348.57 0.76 3.31 -1578.58c81.2,12 27.96,2.29 61.14,27.75l417.17 530.62c2.15,2.31 5.49,5.26 7.7,7.49l46.05 43.07c6.21,5.95 13.57,12.17 22.84,22.31 43.77,47.9 16.51,55.16 103.51,153.31l13.74 16.45c1.96,2.41 4.6,6 6.53,8.43 84.8,106.61 30.44,70.6 122.9,145.2l75.35 103.69c113.51,123.2 -9,31.26 166.66,209.48l21.6 23.47c27.96,39.17 7.18,18.28 27.7,62.62l81.43 100.98c35.02,44.43 -2.66,4.7 39.92,46.08 78.65,76.43 147.43,45.48 323.87,46l1.04 -2286.22 -352.39 -0.45 -1.14 1540.28c-38.05,-3.09 -39.95,3.56 -76.13,-15.16 -26.37,-13.64 -3.01,0.8 -26.43,-22.39l-55.2 -79.74c-1.67,-2.72 -3.92,-6.55 -5.63,-9.22l-51.14 -67.68c-1.99,-2.41 -4.82,-5.82 -6.87,-8.2l-109.29 -149.17c-2.46,-3.78 -9.56,-14.48 -12.18,-17.97l-275.99 -338.67c-144.11,-152 -28.44,-41.82 -99.23,-137.94l-173.09 -218.88c-2.13,-2.3 -5.35,-5.33 -7.47,-7.63 -2.11,-2.29 -5.24,-5.42 -7.31,-7.74 -2.09,-2.32 -5.06,-5.6 -7.09,-7.97 -2.04,-2.37 -4.87,-5.8 -6.85,-8.22 -1.99,-2.43 -4.69,-5.95 -6.63,-8.42l-32.33 -42.89c-2.04,-2.42 -4.89,-5.82 -7.01,-8.18l-180.8 -226.17c-23.56,-22.07 -19.28,-15.31 -46.34,-42.06l-37.72 -50.09c-13.7,-30.02 -6.2,-36.27 -23.05,-64.5l-282.28 -4.8 -1.44 2320.93z"/>
     <path class="fil0" d="M16716.78 3885.36l1919.35 5.26 3.89 -2316.2 -350.69 -6.53 -2.65 1970.02c-336.56,33.81 -814.64,12.68 -1174.23,11.13l-4.8 -1975.39 -389.8 -2.99 -1.08 2314.7z"/>
     <path class="fil0" d="M23154.38 2910.2l-4.85 635.09 -1591.93 3.9 -3.17 305.52 1934.04 4.25 1.97 -1304.37 -1573.24 -2.72 -55.39 -7.94 8.83 -660.65c268.63,-68.56 1233.28,25.25 1582.26,-25.78l-3.87 -251.68 -1884.3 -2.99 -0.47 1252.21 1579.91 -0.26 10.22 55.43z"/>
     <path class="fil0" d="M19240.22 3896.31l1810.07 1.72c21.39,-70.1 18.33,-268.31 12.6,-348.03l-1424.05 -1.62c-31.53,-342.16 27.06,-1851.58 -14.4,-1983.59l-380.45 -0.5 -3.78 2332.03z"/>
     <path class="fil1" d="M23154.38 2910.2l-10.22 -55.43 -1579.91 0.26 0.47 -1252.21 1884.3 2.99 3.87 251.68c-348.98,51.03 -1313.63,-42.78 -1582.26,25.78l-8.83 660.65 55.39 7.94 -7.07 -628.12c135.76,-38.97 1280.5,14.72 1579.57,-15.23l7.3 -340.53c-254.18,-35.41 -720.52,-8.04 -994.39,-8.04 -260.74,0 -751.23,-27.29 -982.2,15.67l-0.31 1318.35 1634.27 16.23z"/>
     <path class="fil2" d="M10875.81 3592.88c65.82,85.39 192.13,254.41 255.29,338.91 63.16,84.5 63.16,84.5 63.16,265.96 0,181.46 0,544.39 -2.67,729.41 -2.67,185.02 -8,192.13 -15.12,193.02 -7.12,0.89 -16.02,-4.45 -251.74,-108.52 -235.72,-104.08 -698.27,-306.88 -929.55,-408.29 -231.27,-101.41 -231.27,-101.41 -230.39,-592.42 0.89,-491.01 2.67,-1473.04 5.33,-1974.73 2.68,-501.69 6.23,-523.04 14.24,-547.95 8.01,-24.9 20.46,-53.37 42.7,-83.61 22.23,-30.25 54.26,-62.27 88.95,-82.73 34.69,-20.46 72.05,-29.35 108.52,-32.91 36.47,-3.56 72.05,-1.78 106.74,10.67 34.69,12.46 68.5,35.59 271.3,307.78 202.81,272.2 574.63,793.45 782.78,1088.78 208.15,295.32 252.62,364.7 276.65,401.17 24.01,36.48 27.57,40.03 101.4,86.29 73.83,46.26 217.94,135.21 337.13,203.7 119.2,68.49 213.48,116.53 263.3,141.43 49.81,24.91 55.15,26.69 60.49,-366.48 5.33,-393.17 10.67,-1181.28 14.23,-1576.23 3.56,-394.95 5.34,-396.72 0.89,-402.06 -4.44,-5.34 -15.11,-14.23 -127.2,-64.05 -112.08,-49.81 -325.57,-140.54 -432.3,-185.91 -106.74,-45.36 -106.74,-45.36 -107.64,-2.67 -0.89,42.69 -2.67,128.09 -3.56,391.39 -0.89,263.3 -0.89,704.5 -0.89,925.1 0,220.61 0,220.61 -6.22,208.15 -6.23,-12.45 -18.68,-37.36 -78.28,-120.09 -59.6,-82.72 -166.34,-223.26 -220.6,-302.43 -54.26,-79.17 -56.04,-96.96 -58.71,-370.93 -2.67,-273.97 -6.22,-804.12 -8,-1069.2 -1.78,-265.07 -1.78,-265.07 19.57,-253.51 21.35,11.56 64.04,34.69 295.32,136.09 231.28,101.41 651.13,281.09 863.72,374.49 212.59,93.4 217.93,100.52 218.82,144.99 0.89,44.48 -2.67,126.31 -1.78,540.83 0.89,414.51 6.22,1161.71 7.12,1583.34 0.89,421.63 -2.67,517.7 -3.56,580.85 -0.89,63.16 0.89,93.41 -6.22,120.98 -7.12,27.58 -23.13,52.49 -47.15,79.17 -24.02,26.68 -56.04,55.15 -104.97,72.05 -48.92,16.91 -114.74,22.24 -187.69,7.11 -72.94,-15.12 -153,-50.7 -306.88,-140.55 -153.89,-89.83 -381.6,-233.94 -523.93,-328.23 -142.32,-94.29 -199.26,-138.76 -306,-271.3 -106.74,-132.54 -263.3,-353.14 -415.41,-566.63 -152.11,-213.48 -299.77,-419.85 -384.28,-536.38 -84.5,-116.53 -105.85,-143.21 -116.53,-156.56 -10.68,-13.34 -10.68,-13.34 -12.45,-8.89 -1.78,4.45 -5.34,13.34 -8.9,20.46 -3.56,7.12 -7.11,12.46 -8.9,391.39 -1.78,378.94 -1.78,1131.47 -1.78,1507.74 0,376.27 0,376.27 3.56,378.94 3.56,2.67 10.67,8 118.31,56.93 107.63,48.93 315.78,141.43 419.85,187.69 104.07,46.25 104.07,46.25 103.19,40.92 -0.89,-5.34 -2.67,-16.01 -6.67,-191.25 -4,-175.24 -10.22,-515.03 -12.45,-685.82 -2.23,-170.79 -0.44,-172.57 1.78,-173.45 2.22,-0.89 4.89,-0.89 8.9,0 4,0.89 9.34,2.67 75.17,88.06z"/>
    </g>
   </g>
  </g>
  <polygon class="fil3" points="-0,0 33062.5,0 33062.5,5456.52 -0,5456.52 "/>
 </g>
</svg>
