<?xml version="1.0" encoding="UTF-8"?>
<!DOCTYPE svg PUBLIC "-//W3C//DTD SVG 1.0//EN" "http://www.w3.org/TR/2001/REC-SVG-20010904/DTD/svg10.dtd">
<!-- Creator: CorelDRAW X7 -->
<svg xmlns="http://www.w3.org/2000/svg" xml:space="preserve" width="7.69833in" height="2.03032in" version="1.0" style="shape-rendering:geometricPrecision; text-rendering:geometricPrecision; image-rendering:optimizeQuality; fill-rule:evenodd; clip-rule:evenodd"
viewBox="0 0 7698 2030"
 xmlns:xlink="http://www.w3.org/1999/xlink">
 <defs>
  <style type="text/css">
   <![CDATA[
    .fil0 {fill:black}
   ]]>
  </style>
 </defs>
 <g id="Layer_x0020_1">
  <metadata id="CorelCorpID_0Corel-Layer"/>
  <g id="_288182144">
   <g>
    <path class="fil0" d="M2816 821c68,71 102,157 102,259 0,103 -34,189 -102,260 -68,71 -149,106 -245,106 -105,0 -186,-39 -243,-117l0 377 -50 0c-55,0 -100,-45 -100,-101l0 -873 150 0 0 100c57,-79 138,-118 243,-118 96,0 177,36 245,107zm-268 482c62,0 115,-21 157,-63 42,-43 62,-96 62,-160 0,-64 -20,-117 -62,-159 -42,-43 -95,-64 -157,-64 -63,0 -116,21 -158,64 -41,42 -62,95 -62,159 0,64 21,117 62,160 42,42 95,63 158,63z"/>
    <path class="fil0" d="M3184 849c37,-86 110,-129 214,-129l0 162c-57,-4 -107,10 -150,42 -43,31 -64,82 -64,153l0 351 -50 0c-55,0 -100,-45 -100,-101l0 -595 150 0 0 117z"/>
    <path class="fil0" d="M3544 1340c-71,-71 -107,-157 -107,-260 0,-103 36,-189 107,-260 71,-71 159,-106 260,-106 103,0 190,35 261,106 71,71 107,157 107,260 0,103 -36,189 -107,260 -71,71 -158,106 -261,106 -101,0 -189,-35 -260,-106zm260 -40c62,0 113,-21 155,-63 42,-41 63,-94 63,-157 0,-63 -21,-115 -63,-157 -42,-42 -93,-63 -155,-63 -61,0 -112,21 -154,63 -42,42 -63,94 -63,157 0,63 21,116 63,157 42,42 93,63 154,63z"/>
    <path class="fil0" d="M4925 821c69,71 102,157 102,259 0,103 -33,189 -102,260 -68,71 -149,106 -245,106 -105,0 -186,-39 -243,-117l0 377 -49 0c-56,0 -101,-45 -101,-101l0 -873 150 0 0 100c57,-79 138,-118 243,-118 96,0 177,36 245,107zm-268 482c62,0 115,-21 157,-63 42,-43 63,-96 63,-160 0,-64 -21,-117 -63,-159 -42,-43 -95,-64 -157,-64 -63,0 -116,21 -157,64 -42,42 -63,95 -63,159 0,64 21,117 63,160 41,42 94,63 157,63z"/>
    <path class="fil0" d="M5260 1144c23,106 108,164 223,164 79,0 139,-29 180,-86l123 72c-68,102 -169,152 -304,152 -113,0 -205,-35 -274,-103 -70,-70 -105,-157 -105,-263 0,-104 35,-191 103,-260 68,-71 157,-106 264,-106 102,0 186,36 251,107 65,71 99,159 99,260 0,16 -2,37 -6,63l-554 0zm408 -122c-21,-113 -100,-172 -199,-172 -111,0 -189,66 -210,172l409 0z"/>
    <path class="fil0" d="M5935 1327l0 -915 150 0 0 1016 -50 0c-55,0 -100,-45 -100,-101z"/>
    <path class="fil0" d="M6237 1327l0 -915 150 0 0 1016 -49 0c-56,0 -101,-45 -101,-101z"/>
    <path class="fil0" d="M6661 1144c23,106 107,164 223,164 79,0 139,-29 179,-86l124 72c-68,102 -169,152 -304,152 -113,0 -205,-35 -275,-103 -69,-70 -104,-157 -104,-263 0,-104 35,-191 103,-260 68,-71 157,-106 264,-106 102,0 185,36 251,107 65,71 99,159 99,260 0,16 -2,37 -6,63l-554 0zm408 -122c-21,-113 -100,-172 -199,-172 -111,0 -189,66 -210,172l409 0z"/>
    <path class="fil0" d="M7484 849c38,-86 110,-129 214,-129l0 162c-57,-4 -107,10 -150,42 -43,31 -64,82 -64,153l0 351 -49 0c-56,0 -101,-45 -101,-101l0 -595 150 0 0 117z"/>
   </g>
   <g>
    <path class="fil0" d="M1689 181c1,3 2,4 3,6 39,67 77,133 115,200 24,40 34,83 31,130 -2,34 -12,67 -30,97 -81,141 -163,282 -244,423 -18,31 -36,63 -53,95 -29,57 -49,117 -61,180 -7,33 -11,66 -12,100 -2,34 -2,68 1,102 10,105 41,203 94,294 32,55 63,110 95,164 12,21 27,39 45,55 1,0 1,1 3,2 -3,2 -5,1 -7,1 -23,0 -47,0 -70,0 -54,0 -108,0 -162,0 -51,0 -97,-16 -138,-47 -23,-18 -42,-40 -57,-65 -75,-130 -150,-260 -225,-389 -21,-36 -41,-73 -63,-108 -69,-111 -161,-197 -277,-258 -67,-36 -139,-59 -214,-72 -31,-5 -63,-8 -95,-9 -30,0 -60,0 -90,0 -40,0 -80,0 -120,0 -25,-1 -49,3 -72,12 -1,0 -3,0 -5,1 2,-3 3,-5 4,-6 38,-67 77,-135 116,-201 35,-60 88,-97 156,-110 12,-2 24,-3 37,-3 184,0 369,0 554,0 107,0 210,-23 307,-70 70,-33 132,-76 188,-129 52,-50 95,-106 131,-169 29,-51 58,-102 88,-153 13,-22 22,-45 26,-70 0,0 0,-1 1,-3z"/>
    <path class="fil0" d="M1013 1606c-6,-6 -13,-11 -20,-17 -82,-65 -173,-110 -274,-136 -34,-9 -68,-15 -103,-19 -25,-3 -49,-5 -73,-5 -129,0 -258,0 -387,0 -38,0 -72,-11 -102,-36 -32,-28 -50,-63 -53,-105 -7,-72 42,-146 121,-162 9,-2 19,-3 29,-3 69,-1 138,-1 207,0 40,0 80,4 119,12 54,11 107,28 157,52 64,30 122,69 174,118 49,47 91,100 125,159 26,45 52,90 78,135 1,2 2,4 3,6 0,0 0,1 -1,1z"/>
    <path class="fil0" d="M1653 967c-2,10 -4,20 -5,31 -2,17 -4,34 -6,52 -1,20 -2,40 -1,60 0,35 3,70 8,106 9,54 23,106 43,157 15,39 35,76 56,112 60,104 120,209 180,313 14,25 22,51 22,79 0,38 -12,71 -37,100 -35,40 -79,57 -132,52 -50,-5 -90,-30 -116,-73 -25,-43 -50,-87 -75,-130 -15,-26 -30,-52 -43,-78 -29,-57 -48,-118 -59,-180 -6,-33 -9,-65 -10,-98 -4,-110 19,-214 66,-313 15,-32 34,-62 52,-93 17,-31 35,-62 53,-93 1,-1 2,-3 3,-5 0,1 1,1 1,1z"/>
    <path class="fil0" d="M779 733c3,-1 6,-2 9,-3 94,-35 177,-86 251,-155 55,-51 100,-111 138,-176 62,-107 123,-215 186,-322 25,-43 62,-69 112,-75 82,-12 151,41 170,114 10,40 4,77 -16,113 -33,58 -66,117 -101,174 -65,111 -155,195 -269,255 -63,33 -131,55 -202,67 -23,4 -47,7 -72,8 -14,0 -28,1 -42,1 -52,0 -104,0 -157,0 -2,0 -4,0 -6,0 0,0 -1,-1 -1,-1z"/>
   </g>
  </g>
 </g>
</svg>
