<?xml version="1.0" encoding="UTF-8"?>
<!DOCTYPE svg PUBLIC "-//W3C//DTD SVG 1.1//EN" "http://www.w3.org/Graphics/SVG/1.1/DTD/svg11.dtd">
<!-- Creator: CorelDRAW 2019 (64-Bit) -->
<svg xmlns="http://www.w3.org/2000/svg" xml:space="preserve" width="6.85563in" height="2.25901in" version="1.1" style="shape-rendering:geometricPrecision; text-rendering:geometricPrecision; image-rendering:optimizeQuality; fill-rule:evenodd; clip-rule:evenodd"
viewBox="0 0 10034.63 3306.52"
 xmlns:xlink="http://www.w3.org/1999/xlink">
 <defs>
  <style type="text/css">
   <![CDATA[
    .fil1 {fill:none}
    .fil0 {fill:black}
   ]]>
  </style>
   <clipPath id="id0">
    <path d="M-0 0l10034.63 0 0 3306.52 -10034.63 0 0 -3306.52z"/>
   </clipPath>
 </defs>
 <g id="Layer_x0020_1">
  <metadata id="CorelCorpID_0Corel-Layer"/>
  <g>
  </g>
  <g style="clip-path:url(#id0)">
   <g>
    <path class="fil0" d="M2061.54 3131.56l5.41 0c2.59,-9.7 18.51,-30.47 24.85,-39.98 9.44,-14.16 17.57,-26.35 27.02,-40.52l161.02 -241.47c36.06,-54.08 70.39,-106.91 106.44,-160.98l1179 -1773.49c36.33,-54.48 70.85,-106.24 106.98,-160.44 18.45,-27.67 35.58,-53.36 54.04,-81.03l53.49 -81.56 -807.79 0c-75.89,113.29 -150.42,226.9 -226.4,340.86 -62.46,93.67 -137.56,202.44 -197.2,297.13 -5.35,8.51 -8.96,12.11 -14.22,20.9 -4.7,7.84 -9.34,14.41 -14.97,22.85 -76.35,114.49 -150.58,225.83 -226.94,340.33 -5.16,7.74 -222.44,331.18 -225.32,341.94l-5.41 0c-2.45,-9.19 -42.42,-66.3 -50.79,-78.87l-765.64 -1152.25c-9.14,-13.71 -18.98,-26.89 -26.48,-41.05l799.69 0 0 605.02c0,5.04 18.1,29.84 21.62,35.12l45.41 68.04c7.05,11.01 15.05,28.05 24.83,34.6l0 -834.61 -1061.75 0 62.14 94.53c21.32,31.97 41.38,63.39 63.22,96.16 43.21,64.8 84.3,126.44 127.52,191.24l698.11 1049.61c6.55,9.81 59.6,87.71 62.14,97.24l5.41 0c2.71,-10.17 237.07,-359.58 237.21,-359.77 79.93,-119.88 158.64,-239.28 238.28,-358.7 159.57,-239.27 318.19,-479.58 478.19,-718.47l588.96 0 -1109.84 1669.76c-16.32,24.48 -33.28,47.78 -48.3,73.25 -8.18,13.86 -15.22,21.95 -23.64,35.79 -7.87,12.95 -15.44,23.37 -23.7,35.73l-145.89 218.78c-32.33,48.49 -64.82,95.26 -96.2,144.21 -4.4,6.86 -6.88,12.16 -11.32,18.4 -16.75,23.52 -77.27,120.2 -86.46,126.94l-1191.79 -1790.41c-2.6,-3.76 -3.41,-5.65 -6.28,-9.93 -3.24,-4.86 -3.88,-5.04 -6.72,-9.48 -92.06,-143.66 -204.26,-308.65 -300.57,-453.09 -8.36,-12.54 -96.61,-141.28 -99.42,-151.79l-110.77 0 1391.35 2093.28c18.01,27.01 35.99,54.04 54.04,81.03l27.06 40.48c15.07,22.83 237.73,354.65 240.41,364.68z"/>
    <path class="fil0" d="M6524.67 1840.48l153.99 0c2.13,-9.1 7.54,-20.16 11.2,-29.33 3.88,-9.72 7.72,-20.08 12.36,-30.86l25.08 -61.35 480.87 0 48.64 121.55 167.5 0 -291.81 -664.42c-4.55,-10.11 -9.15,-20.67 -14.37,-31.55l-83.22 -189.58c-8.56,-20.82 -18.87,-41.27 -28.19,-63.68l-28.17 -63.65 -21.62 0c-0.81,9.79 -44.79,109.21 -52.26,126.02l-367.26 853.7c-4.15,9.72 -11.97,23.64 -12.76,33.16zm628.78 -277.82l-373.52 0 185.4 -482.59 188.12 482.59z"/>
    <path class="fil0" d="M7589.12 1840.47l148.59 0 0 -545.61c0,-70.63 -5.57,-85.61 -10.81,-148.55 32.57,37.46 62.25,77.2 97.98,112.73l227.78 242.24c13.08,16.94 26.93,27.26 40.89,42.86 2.86,3.2 2.18,2.52 4.96,5.84l138.35 147.99c6.81,7.73 14.13,14.19 21.59,21.63 9.15,9.12 12.14,12.97 20.38,22.84 6.48,7.75 14.2,14.44 21.49,21.73l63.03 66.64c17.75,23.01 15.54,20.47 38.96,20.47l0 -1015.58 -140.49 0c-6.22,0 -8.1,1.88 -8.1,8.1l0 521.3c0,30.67 1.13,54.11 2.69,83.74 0.51,9.67 1.96,28.05 3.45,39.77 1.08,8.41 4.45,29.05 4.67,38.55l-242.47 -265.37c-14.94,-14.93 -25.54,-28.24 -40.52,-43.22l-102.67 -108.04c-9.15,-9.11 -12.13,-12.97 -20.38,-22.84 -12.74,-15.24 -29.04,-26.59 -41.29,-42.45l-82.92 -87.26c-8.07,-8.38 -11.35,-14.29 -20.2,-23.03l-40.56 -43.18c-7.68,-8.72 -59.07,-64.17 -65.49,-64.17l-18.91 0 0 1012.88z"/>
    <path class="fil0" d="M65.02 138.83l3995.74 0c4.22,-15.8 52,-71.41 56.73,-89.13l-4109.22 0c9.82,14.66 19.05,28.63 29.19,43.75l27.55 45.38z"/>
    <path class="fil0" d="M8926.44 1713.53c-80.03,0 -122.44,-14.99 -180.22,-62.92 -9.17,-7.6 -13.84,-15.42 -21.71,-24.21 -14.3,-15.96 -26.69,-35.67 -38.52,-53.33l-129.68 70.22c1.58,18.98 42.6,71.09 54.83,85.64 18.26,21.71 52.17,47.47 77.02,63.45 126.15,81.14 347.66,86.16 466.78,-7.07 27.95,-21.88 50.82,-46.27 67.8,-78.07 50.83,-95.19 40.57,-241.58 -36.22,-321.27 -88.02,-91.36 -194.1,-118.89 -304.21,-173.93 -53.03,-26.51 -107.16,-55.14 -107.16,-133.25 0,-137.74 197.65,-149.14 267.52,-56.77 6.8,8.99 21.21,26.44 24.26,37.87 10.38,-2.77 118.13,-69.7 126.97,-75.62 -7.22,-27.05 -51.44,-71.87 -73.54,-91.24 -126.03,-110.44 -428.49,-97.62 -490.19,113.75 -22.08,75.61 -9.88,166.88 32.01,228.18 8.55,12.51 15.76,19.84 24.95,31.78 15.73,20.43 59.15,48.96 80.43,62.74 54.17,35.1 153.01,69.12 212.95,100.41l36.21 20.51c22.98,15.17 43.92,30.61 58.91,54.55 7.5,11.97 13.26,23.82 16.43,40.3 6.11,31.78 2.29,68.13 -11.65,92.62 -25.28,44.41 -84.04,75.66 -153.97,75.66z"/>
    <path class="fil0" d="M5797.92 976.15l302.58 0 0 864.32 159.4 0 0 -864.32 294.48 0c6.22,0 8.1,-1.88 8.1,-8.1l0 -124.25c0,-6.22 -1.88,-8.1 -8.1,-8.1l-756.47 0 0 140.45z"/>
    <polygon class="fil0" points="4528.15,976.15 4830.73,976.15 4830.73,1840.47 4990.13,1840.47 4990.13,976.15 5290.01,976.15 5290.01,835.7 4528.15,835.7 "/>
    <path class="fil0" d="M5465.62 1840.47l159.4 0 0 -996.67c0,-6.22 -1.88,-8.1 -8.11,-8.1l-151.29 0 0 1004.78z"/>
    <path class="fil0" d="M7583.73 2677.79l32.42 0 0 -137.74 83.74 0c21.32,0 33.95,-5.02 51.34,-5.42 1.9,7.15 6.8,11.82 11.32,18.4 4.63,6.65 7.84,10.76 12.59,17.11l78.74 107.65 37.83 0c-9.15,-17.28 -90.56,-123.77 -110.76,-153.97 40.38,-21.34 63.19,-31.78 86.48,-78.3 54.73,-109.25 9.2,-272.82 -186.44,-272.82l-97.26 0 0 505.08zm45.5 -446.82l100.9 0c55.52,0 100.87,45.37 100.87,100.87l0 43.62c0,55.49 -45.36,100.85 -100.87,100.85l-100.9 0 0 -245.34z"/>
    <path class="fil0" d="M6521.97 2610.26l-41.66 -55.58c-81.73,-104.65 -182.51,-232 -260.53,-336.46l-31.83 -41.11c-5.64,-7.24 -5.03,-9.54 -17.2,-9.81l0 510.49 29.72 0 0 -386.25c0,-21.58 -1.24,-36.47 -2.7,-54.02l86.83 113.07c7.34,9.17 14.4,18.37 21.27,27.36l153.12 198.04c15.53,19.02 27.97,37.78 43.44,56.5 7.91,9.57 13.42,17.46 21.4,27.23 16.86,20.65 10.73,23.09 27.86,23.47l0 -510.49 -29.72 0 0 437.56z"/>
    <path class="fil0" d="M8018.68 2677.79l305.29 0 0 -29.71 -272.87 0 0 -151.25 229.64 0c10.77,0 8.1,-7.65 8.1,-27.02l-237.74 0 0 -267.4 264.76 0c0,-21.25 2.92,-29.71 -8.11,-29.71l-289.08 0 0 505.09z"/>
    <polygon class="fil0" points="5746.6,2677.79 6051.88,2677.79 6051.88,2648.07 5779.01,2648.07 5779.01,2496.82 6014.06,2496.82 6014.06,2469.81 5779.01,2469.81 5779.01,2202.41 6041.07,2202.41 6041.07,2172.7 5746.6,2172.7 "/>
    <path class="fil0" d="M7097.42 2526.53c0,86.51 69.81,156.66 170.2,156.66 49.98,0 95.6,-18.83 120.96,-43.83 26.23,-25.86 49.24,-67.28 49.24,-118.23l0 -348.43 -32.42 0 0 348.43c0,52.22 -29.97,101.99 -74.02,120.47 -56.54,23.73 -141.03,15.11 -176.79,-39.88 -26.13,-40.18 -24.76,-65.67 -24.76,-129.2l0.01 -267.41c0.21,-36.11 5.93,-32.4 -32.43,-32.4l0 353.83z"/>
    <path class="fil0" d="M8429.33 2269.94c0,45.75 3.59,75.23 45.13,106.14 52.05,38.72 118.78,55.08 164.52,89.41 53.5,40.16 58.89,116.17 13.99,157.68 -45.03,41.61 -130.78,39.51 -181.55,4.45 -14.4,-9.93 -42.87,-40.57 -47.48,-57.86 -14.01,1.16 -16.58,7.74 -29.72,10.8 7.97,15.07 14.45,29.09 26.28,41.25 38.96,40.08 75.96,61.39 143.93,61.39 77.23,0 148.59,-47.85 148.59,-116.15l0 -29.71c0,-84.64 -102.48,-126.3 -164.76,-153.99 -49.95,-22.21 -89.19,-46.85 -89.19,-105.31 0,-45.43 35.73,-81.03 81.05,-81.03 58.75,0 82.07,8.5 116.17,59.42 8.11,-2.17 19.98,-10.28 24.32,-16.2 -8.71,-32.63 -68.48,-72.93 -126.98,-72.93 -34.32,0 -66.76,11.69 -85.7,27.76 -18.69,15.86 -38.57,41.72 -38.57,74.88z"/>
    <path class="fil0" d="M5435.9 2683.19c2.71,-11.62 7.11,-20.47 11.58,-31.64l89.92 -223.42c17.5,-43.74 33.45,-83.59 50.95,-127.34l37.82 -94.54c4.71,-11.78 9.54,-21.51 12.36,-33.57l-32.42 0 -87.61 223.03c-12.24,30.59 -84.85,205.27 -85.3,225.34 -6.16,-4.51 -41.17,-101.58 -45.15,-111.52 -33.11,-82.7 -81.93,-199.9 -111.2,-280.47 -3.64,-10 -7.26,-16.97 -10.84,-26.97 -3.53,-9.87 -8.85,-19.68 -11.12,-29.4l-35.12 0 194.89 485.81c10.85,28.98 8.87,24.41 21.24,24.69z"/>
    <path class="fil0" d="M6651.64 2202.41l159.4 0 0 475.38c23.04,0 32.42,3.18 32.42,-8.1l0 -467.27 159.39 0 0 -29.71 -351.21 0 0 29.71z"/>
   </g>
  </g>
  <polygon class="fil1" points="-0,0 10034.63,0 10034.63,3306.52 -0,3306.52 "/>
 </g>
</svg>
