<?xml version="1.0" encoding="UTF-8"?>
<!DOCTYPE svg PUBLIC "-//W3C//DTD SVG 1.1//EN" "http://www.w3.org/Graphics/SVG/1.1/DTD/svg11.dtd">
<!-- Creator: CorelDRAW 2018 (64-Bit) -->
<svg xmlns="http://www.w3.org/2000/svg" xml:space="preserve" width="15.25in" height="5.45652in" version="1.1" style="shape-rendering:geometricPrecision; text-rendering:geometricPrecision; image-rendering:optimizeQuality; fill-rule:evenodd; clip-rule:evenodd"
viewBox="0 0 15249.98 5456.52"
 xmlns:xlink="http://www.w3.org/1999/xlink">
 <defs>
  <style type="text/css">
   <![CDATA[
    .fil2 {fill:none}
    .fil1 {fill:black}
    .fil0 {fill:#5F02D2}
   ]]>
  </style>
   <clipPath id="id0">
    <path d="M-0 0l15249.98 0 0 5456.52 -15249.98 0 0 -5456.52z"/>
   </clipPath>
 </defs>
 <g id="Layer_x0020_1">
  <metadata id="CorelCorpID_0Corel-Layer"/>
  <g>
  </g>
  <g style="clip-path:url(#id0)">
   <g>
    <path class="fil0" d="M5342.54 3436.14c0,44.43 13.4,57.84 57.77,57.84 791.61,0 736.21,55.11 732.91,-153.12l2.92 -1134.67c32.65,-202.95 153,-235.42 304.07,-235.42 195.06,0 231.09,224.46 231.09,424.19l0 1099.02 712.52 0c44.37,0 57.78,-13.41 57.78,-57.84l0 -1407.52c0,-617.49 -584.64,-957.69 -1084.22,-719.22 -92.39,44.11 -152.46,111.23 -225.28,160.06l0 -1137.59 -789.56 0 0 3104.26 -0 0.01z"/>
    <path class="fil0" d="M3474.57 2414.24c0,-617.05 885.84,-605.7 885.84,-19.28 0,380.06 -457.66,584.04 -742.48,319.21 -62.35,-57.97 -143.36,-191.89 -143.36,-299.94l0 0.01zm192.57 1118.31c224.73,0 395.01,6.55 572.41,-140.29 44.67,-36.98 52.4,-58.09 101.61,-91.08 0,249.28 -111.59,192.81 751.04,192.81l0 -2198.05 -751.04 0 0 173.53c-160.9,-107.88 -278.91,-231.38 -558.47,-231.38 -172.08,0 -324.04,43.46 -443.06,96.27 -92.19,40.89 -247.35,152.23 -312.97,226.52 -67.91,76.88 -170.48,225.77 -212.8,326.8 -25.96,61.98 -51.89,145.24 -67.7,202.15 -187.6,674.92 314,1442.72 920.99,1442.72l-0.01 0z"/>
    <path class="fil0" d="M836.29 4284.5l828.07 0c13.31,-57.21 45.26,-123.93 70.46,-180.11l232.18 -558.06c101.12,-256.13 210.74,-503.78 311.05,-749.03l464.22 -1116.27c27.35,-61.93 52.49,-129.39 77.5,-192.34 23.46,-59.05 63.5,-134.5 77.06,-192.78l-828.07 0c-43.82,91.43 -78.07,205.52 -118.28,305.76 -41.09,102.4 -82.02,205.46 -126.54,316.78l-236.62 630.74c-53.61,-39.33 -478.23,-1156.72 -500.69,-1253.28l-847.33 0c27.24,117.06 97.67,260.81 147.48,372.93l315.23 744.85c54.53,124.5 101.59,248.56 160.09,379.59 57.2,128.12 101.05,233.86 155.75,364.65 28.54,68.22 51.25,121.33 81.5,188.38 89.43,198.18 43.71,202.66 -109.56,552.03l-153.52 386.16 0.01 -0z"/>
    <path class="fil0" d="M10792.4 2414.24c0,-621.58 847.33,-543.66 847.33,-57.84 0,644.92 -847.33,558.46 -847.33,57.84zm-751.04 -19.28c0,641.56 541.09,1170.56 1174.7,1170.56 638.13,0 1174.7,-520.09 1174.7,-1170.56 0,-902.58 -1039.8,-1586.58 -1934.2,-895.4 -245.93,190.05 -415.2,571.04 -415.2,895.4z"/>
    <path class="fil0" d="M8327.44 2414.24c0,-417.09 469.11,-574.81 718.24,-333.5 398.03,385.53 -168,1008.98 -579.4,618.68 -75.78,-71.89 -138.85,-201.13 -138.85,-285.17l0.01 -0.01zm-731.78 -115.68c0,286.07 -11.54,367.31 128.06,643.02 61.91,122.26 147.79,228.65 242.38,316.48 194.03,180.17 552.39,329.07 818.22,307.94 1131.15,-89.87 1483.79,-1318.59 790.25,-2014.8 -559.67,-561.82 -1508.01,-379.28 -1862.34,304.92 -54.3,104.86 -116.57,285.33 -116.57,442.44l-0 -0z"/>
    <path class="fil0" d="M14489.83 331.87l-924.35 0c-35.87,74.83 -68.66,161.32 -101.76,245.17l-305.59 735.21c-46.35,115.47 -393.06,904.54 -401.46,1005.57l924.36 0c6.31,-75.93 364.72,-896.47 401.67,-986.07l305.45 -735.36c38.22,-88.63 79.29,-168.22 101.69,-264.52l-0 0z"/>
    <path class="fil1" d="M10330.22 5086.09l442.92 0c22.97,-47.93 52.71,-171.57 69.44,-238.98 24,-96.72 44.56,-172.89 65.37,-262.33 29.08,45.89 28.76,96.11 70.21,238.2 23.1,79.17 57.85,182.02 64.59,263.11l462.18 0c2.36,-106.22 284.05,-970.65 327.38,-1156.87 -564.26,0 -454.11,-120.79 -552,469.22 -16.64,100.26 17.32,63.5 -44.98,109.21 -1.83,-82.44 -124.46,-516.67 -154.06,-578.43l-327.38 0c-24.46,105.13 -52.74,194.19 -83.85,301.66l-89.46 296.06c-2.45,-110.22 -102.96,-446.28 -115.54,-597.72l-462.18 0c8.26,99.34 52.12,198.83 77.1,289.15l250.28 867.72 -0.02 0z"/>
    <path class="fil1" d="M7923.04 4025.61l0 -96.41c-266.04,0 -442.92,-40.08 -442.92,57.84l0 1099.03 442.92 0 0 -559.15c0,-310.09 288.87,-217.53 288.87,-96.41l0 655.56 442.92 0 0 -713.4c0,-385.17 -313.61,-569.35 -597.66,-444.15 -73.22,32.27 -75.77,57.96 -134.13,97.08l0 0.01z"/>
    <path class="fil1" d="M9367.35 4257l38.52 0c86.87,0 135.46,45.93 154.06,115.69l-365.89 0c37.3,-55.77 80.48,-115.69 173.32,-115.69l-0.01 0zm95.24 867.65l-79.69 0c-309.57,-14.22 -631.79,-195.04 -631.79,-636.28 0,-514.76 673.98,-815.99 1064.7,-410.45 174.28,180.89 180.47,366.27 148.52,583.98l-751.04 0c128.34,191.9 358.54,53.76 423.66,38.56l269.61 231.37c-74.86,111.93 -251.11,184.06 -443.97,192.81l-0 0.01z"/>
    <path class="fil1" d="M12506.31 4334.11c-51.41,0 -78.7,5.16 -125.29,-9.52 -65.6,-20.67 -50.47,-4.54 -67.29,-67.6 111.72,-53.67 151.48,-0.63 192.58,77.13l0 -0.01zm-119.71 790.53l-68.5 0c-246.42,-9.29 -471.66,-119.02 -485.8,-289.22 73.74,-39.07 305.66,-147.62 385.15,-154.25 33.17,124.38 108.84,104.99 211.83,96.41l0 -57.84c-148.26,-34.58 -403.76,-92.78 -485.06,-189.18 -235.1,-278.71 87.44,-728.66 551.52,-629.44 165.38,35.36 342.93,145.54 357.21,317.31 -69.58,5.8 -289.19,88.09 -346.63,115.69l127.06 46.32c120.1,45.62 195.53,100.2 235.79,226.93 57.93,182.33 -27.02,365.39 -156.52,434.64 -97.26,52 -212.03,78.26 -326.03,82.64l-0.02 -0.01z"/>
    <path class="fil0" d="M12467.8 3011.94c0,696.53 1039.9,652.81 1039.9,0 0,-717.79 -1039.9,-665.88 -1039.9,0z"/>
   </g>
  </g>
  <polygon class="fil2" points="-0,0 15249.98,0 15249.98,5456.52 -0,5456.52 "/>
 </g>
</svg>
