<?xml version="1.0" encoding="UTF-8"?>
<!DOCTYPE svg PUBLIC "-//W3C//DTD SVG 1.1//EN" "http://www.w3.org/Graphics/SVG/1.1/DTD/svg11.dtd">
<!-- Creator: CorelDRAW 2018 (64-Bit) -->
<svg xmlns="http://www.w3.org/2000/svg" xml:space="preserve" width="14.1875in" height="5.45652in" version="1.1" style="shape-rendering:geometricPrecision; text-rendering:geometricPrecision; image-rendering:optimizeQuality; fill-rule:evenodd; clip-rule:evenodd"
viewBox="0 0 14187.5 5456.51"
 xmlns:xlink="http://www.w3.org/1999/xlink">
 <defs>
  <style type="text/css">
   <![CDATA[
    .fil2 {fill:none}
    .fil1 {fill:#4C01AB}
    .fil0 {fill:#5E01D1}
   ]]>
  </style>
   <clipPath id="id0">
    <path d="M-0 0l14187.5 0 0 5456.51 -14187.5 0 0 -5456.51z"/>
   </clipPath>
 </defs>
 <g id="Layer_x0020_1">
  <metadata id="CorelCorpID_0Corel-Layer"/>
  <g>
  </g>
  <g style="clip-path:url(#id0)">
   <g>
    <path class="fil0" d="M4968.44 307.74l0 2869.74c0,140.39 300.4,79.72 689.73,79.72 122.78,0 80.06,-212.1 79.63,-345.39 -0.86,-263.9 -77.25,-1089.48 185.66,-1089.48 320.2,0 291.81,48.46 291.81,611.15 -0.01,265.72 0,531.43 0,797.15 196.85,45.94 599,45.94 795.84,0 0,-334.51 40.88,-1147.91 -10.25,-1424.61 -52.91,-286.39 -149.37,-540.76 -413.93,-648.26 -479.97,-195.02 -646.33,25.62 -849.17,133.13l0 -1062.87 -689.73 0c-61.12,0 -79.58,18.49 -79.58,79.72l-0.01 0z"/>
    <path class="fil0" d="M3642.04 2592.91c-574.28,0 -496.27,-797.15 -26.53,-797.15 541.78,0 567.26,797.15 26.53,797.15zm-636.68 575.28c48.26,0 36.35,-12.17 36.35,35.87 308.88,188.57 668.7,123.53 971.72,-79.71 2.32,104.42 -7.26,62.32 26.52,132.86 150.26,0 301.02,-1.22 451.2,0.22 376.28,3.61 291.59,157.79 291.59,-1063.09 0,-1220.88 84.7,-1066.7 -291.59,-1063.09 -150.19,1.44 -300.95,0.22 -451.2,0.22 -14.09,60.57 -20.56,61.11 -26.52,132.86 -142.76,-38.18 -14.7,-65.85 -366.96,-163.94 -177,-49.29 -411.49,6.38 -567.02,78.72l-166.73 98.72c-519.13,417.44 -575.02,1153.63 -209.39,1644.16l48.21 58c76.7,85.79 149.03,154.47 253.81,188.19l0.01 0z"/>
    <path class="fil0" d="M1812.44 3230.63l25.69 -33.59c20.3,-76.21 64.15,-152.49 98.57,-239.67l533.01 -1273.01c63.17,-148.71 187.8,-418.12 190.8,-552.9l-795.85 0 -337.05 858.13c-43.65,112.8 -86.55,193.3 -113.93,311.03l-477.51 -1169.16c-192.59,0 -547.34,-21.89 -719.78,-1.92 -81.74,9.47 -78.44,-23.31 -95.14,56.43 -14.26,68 2.45,33.11 47.35,127.9 38.14,80.51 72.6,170.64 111.81,261.86l663.03 1570.07c69.19,158.22 60.91,80.31 -100.86,442.81l-158.43 373.47c-12.36,112.79 204.34,65.32 437.72,65.72 94.07,0.16 217.73,12.65 307.21,-11.16 124.11,-33.02 143.68,-180.52 226.85,-383.93 51.44,-125.84 119.78,-253.81 156.5,-402.09l0.01 0.01z"/>
    <path class="fil0" d="M8125.29 1822.32l185.7 0c258.49,0 447.08,412.97 204.92,656.98 -310.55,312.9 -862.91,-76.57 -603.79,-498.43 30.45,-49.58 145.33,-158.54 213.17,-158.54l0 -0.01zm106.11 1488.02c1255.95,0 1566.07,-1640.03 479.19,-2127.42 -693.63,-311.04 -1590.17,106.39 -1601.57,1015.32 -8.17,651.18 491.52,1112.11 1122.38,1112.11z"/>
    <path class="fil0" d="M10565.87 2592.91c-353.15,0 -474.73,-443.33 -285.5,-657.96 203.61,-230.94 683.41,-120.99 683.41,259.39 0,234.61 -163.7,398.58 -397.92,398.58l0.01 -0.01zm-1114.18 -504.87c0,325 1.7,502.66 215.22,794.15l89.4 96.46c761.58,708.98 1950.26,220.95 1950.26,-784.31 0,-465.28 -252.34,-825.41 -624.89,-994.95 -436.08,-198.46 -936.14,-154.08 -1292.38,190.54 -186.06,180 -337.61,411.7 -337.61,698.12z"/>
    <path class="fil0" d="M12024.91 2141.19l848.9 0c85.16,0 63.44,-32.93 129.8,-188.85l554.83 -1330.85c21.46,-50.51 29.64,-83.64 50.09,-135.83 17.66,-45.08 27.83,-61.83 49.42,-109.93 39.94,-88.98 35.13,-8.25 38.24,-147.7l-848.9 0c-81.42,0 -102.66,113.95 -180.6,297.4l-459.5 1107.48c-46.81,104.91 -179.58,386.9 -182.28,508.29l-0 -0.01z"/>
    <path class="fil0" d="M8549.73 4798.35c-412.78,0 -157.13,-641.39 125.82,-365.18 211.69,206.64 -43.85,365.18 -125.82,365.18zm-689.74 -318.86c0,254.08 -24.96,390.37 164.59,579.15 313.11,311.8 623.81,96.02 685.54,96.94l68.75 21.36c93.73,29.7 434.05,78.7 434.05,-59.72 0,-1266.19 83.49,-1145.33 -238.89,-1144.56 -273.5,0.65 -168.67,10.88 -265.15,81.69 -112.86,-154.29 -587.9,-198.81 -793.05,215.38 -35.16,71 -55.85,104.97 -55.85,209.77l0.01 -0.01z"/>
    <path class="fil0" d="M9823.08 4054.35c-22.41,-62.02 10,-27.29 -46.71,-59.5 -19.4,-11.02 -430.79,-90.78 -430.79,59.5l0 1142.59c595.96,0 477.5,136.99 477.5,-744.01l102.03 -84.25c101.13,30.48 59.68,32.56 136.73,84.25 0,243.49 -20.2,543.1 26.52,744.01l450.98 0c53.41,-229.62 55.67,-878.92 -66.76,-1075.72 -135.54,-217.87 -412.76,-225.66 -649.5,-66.87z"/>
    <path class="fil0" d="M7037.64 4054.35c-29.11,-109.2 -17.92,-79.72 -371.39,-79.72 -62.09,0 -106.11,44.09 -106.11,106.28 0,285.61 -30.81,869.51 26.53,1116.02 647.51,0 405.58,69.43 450.89,-611.24 9.38,-141.03 34.54,-183.38 159.26,-212.49l102.02 84.24c26.69,837.03 -135.29,739.48 402.01,739.48 61.13,0 79.59,-18.5 79.59,-79.72 0,-608.78 115.79,-1169.16 -477.5,-1169.16 -126.91,0 -158.99,77.86 -265.28,106.29l-0.02 0.02z"/>
    <path class="fil0" d="M12237.14 4320.07c111.46,0 77.98,-5.1 127.98,31.24 45.16,32.82 36.53,16.43 57.71,75.05l-318.33 0c20.45,-56.61 62.87,-106.29 132.64,-106.29zm557.09 -94.47c-51.1,0 -38.32,12.8 -38.32,-38.38 -134.58,-353.36 -1178.92,-423.55 -1130.22,506 14.66,279.88 269.04,498.8 534.68,527.54 182.13,19.71 345.91,3.08 460.06,-65.06 117.85,-70.35 223.44,-150.56 226.86,-304.2 -172.78,-14.4 -281.43,-136.88 -401.49,-86.13 -60.54,25.59 -94.73,82.37 -178.77,78.33 -99.05,-4.74 -143.48,-53.62 -162.52,-125.06 755.34,0 838.04,94.1 790.81,-232.26 -20.28,-140.09 -29.47,-161 -101.08,-260.79l-0.01 0.01z"/>
    <path class="fil0" d="M5127.6 3974.64c-188.98,0 -159.17,-26.21 -159.17,318.86 0,94.46 51.69,79.71 159.17,79.71l0 744.01c0,118.06 123.83,79.72 397.93,79.72 61.13,0 79.59,-18.5 79.59,-79.72l0 -744.01 265.28 0c39.65,-170.47 39.65,-228.1 0,-398.57l-265.28 0c45.4,-195.19 213.94,-112.78 291.81,-106.29 119.89,-515.45 -93.09,-425.15 -344.87,-425.15 -210.84,0 -424.45,209.03 -424.45,531.43l-0.01 0.02z"/>
    <path class="fil0" d="M10618.92 4559.2c0,815.5 981.54,751.7 981.54,504.87 0,-505.21 -23.83,-265.72 -265.28,-265.72 -101,0 -359.08,-133.13 -165.38,-351.65 189.45,-213.72 430.66,119.22 430.66,-100.07 0,-367.7 22.73,-398.58 -397.92,-398.58 -310.48,0 -583.62,304.62 -583.62,611.15z"/>
    <path class="fil0" d="M11759.63 2672.62l0 212.57c0,169.11 229.09,398.57 397.92,398.57 165.84,0 227.05,19.08 345.19,-52.81 31.46,-19.15 27.86,-17.6 61.54,-44.66 622.61,-500.22 -285.23,-1329.48 -728.59,-676.64 -14.59,21.49 -76.06,138.59 -76.06,162.96l0 0.01z"/>
    <path class="fil0" d="M6003.34 4027.77l-0.3 1116.02 0 53.15c561.28,0 450.98,253.4 450.98,-1195.73 -111.43,-26 -378.72,-78.28 -450.68,26.57l0 -0.01z"/>
    <path class="fil1" d="M6003.04 5143.79l0.3 -1116.02c-3.48,5.43 -9.41,6.83 -10.3,16.37 -29.34,314.19 -23.34,648.4 -18.24,968.5l28.24 131.14 0 0.01z"/>
    <path class="fil1" d="M12794.23 4225.59c0,-51.18 12.78,-38.38 -38.32,-38.38 0,51.18 -12.78,38.38 38.32,38.38z"/>
    <path class="fil1" d="M3041.72 3204.05c0,-48.04 11.9,-35.87 -36.35,-35.87 0,48.05 -11.9,35.87 36.35,35.87z"/>
    <polygon class="fil1" points="1838.13,3197.03 1812.44,3230.63 "/>
   </g>
  </g>
  <polygon class="fil2" points="-0,0 14187.5,0 14187.5,5456.51 -0,5456.51 "/>
 </g>
</svg>
