<?xml version="1.0" encoding="UTF-8"?>
<!DOCTYPE svg PUBLIC "-//W3C//DTD SVG 1.1//EN" "http://www.w3.org/Graphics/SVG/1.1/DTD/svg11.dtd">
<!-- Creator: CorelDRAW -->
<svg xmlns="http://www.w3.org/2000/svg" xml:space="preserve" width="23.9804in" height="13.9241in" version="1.1" style="shape-rendering:geometricPrecision; text-rendering:geometricPrecision; image-rendering:optimizeQuality; fill-rule:evenodd; clip-rule:evenodd"
viewBox="0 0 1913.13 1110.85"
 xmlns:xlink="http://www.w3.org/1999/xlink"
 xmlns:xodm="http://www.corel.com/coreldraw/odm/2003">
 <defs>
  <style type="text/css">
   <![CDATA[
    .fil0 {fill:none}
    .fil1 {fill:black}
    .fil2 {fill:white}
   ]]>
  </style>
 </defs>
 <g id="Layer_x0020_1">
  <metadata id="CorelCorpID_0Corel-Layer"/>
  <rect class="fil0" y="-0" width="1913.13" height="1110.85"/>
  <rect class="fil1" y="-0" width="1913.13" height="1110.85"/>
  <g id="_105553191166112">
   <path class="fil2" d="M1250.84 556.76c0,6.21 1.3,35.5 -3.48,38.97 -5.49,3.99 -15.83,1.84 -22.12,-5.62 -1.04,-1.24 -2.08,-2.96 -2.85,-4.5 -6.99,-14.02 -5.61,-49.19 0.86,-60.93 1.17,-2.12 1.8,-2.75 3.4,-4.36 6.52,-6.53 24.19,-7 24.19,6.64 0,5.38 -0.41,9.75 -0.41,14.69 0,5.04 0.41,9.6 0.41,15.1zm-13.06 -84.48c1.72,7.38 9.28,3.16 11.9,12.18 2.17,7.49 0.35,14.37 0.35,22.51l-15.51 -0.41c-10.09,0 -21.55,3.61 -29.23,8.73 -28.82,19.21 -23.91,68.53 -5.98,86.47 5.89,5.89 15.63,9.69 25,9.69 5.32,0 10.07,-1.41 13.93,-2.8 5.62,-2.02 9.27,-5.63 10.96,-5.77 0.35,1.5 2.21,6.94 3.67,6.94 10.15,0 17.28,-2.86 26.94,-2.86 8.1,0 6.56,-0.58 13.51,1.59 2.19,0.69 4.43,0.87 7.31,0.86 2.72,-0.01 5.45,-0.01 8.17,-0 3.23,0.01 4.8,-0.43 7.74,-0.42l28.48 -0.09c1.16,-0.24 1.52,-0.8 2.95,-1.13 -0.13,-1.53 -0.75,-2.72 -1.86,-3.8 -3.62,-3.54 -6.85,0.8 -8.8,-8.8 -1.19,-5.86 -1.58,-14.99 -1.58,-22.09l0 -66.12c-4.85,0 -25.19,2.29 -31.46,2.82 -3.52,0.3 -7.06,0.85 -10.58,0.85 0.26,11.69 11.43,1.06 11.43,19.18l0 57.55c0,2.96 -0.47,6.32 -1.27,8.53 -1.1,3.04 -2.84,4.16 -4.54,5.67 -2.97,2.66 -3.25,1.93 -7.09,0.33 -2.86,-1.19 -2.66,-1.19 -4.61,-2.74 -4.41,-3.51 -6.67,-9.53 -6.99,-16.27 -0.17,-3.53 -0.53,-6.29 -0.42,-9.81l0.42 -9.78c-0,-3.72 0.43,-6.03 0.41,-9.38l0.4 -86.94 -32.77 3.96c-2.12,0.28 -3.34,0.37 -5.47,0.65 -1.21,0.16 -4.03,0.66 -5.43,0.69z"/>
   <path class="fil2" d="M582.3 474.73c4.07,7.69 2.2,3.51 7.59,5.06 1.22,0.35 2.87,2.19 3.43,3.1 1.88,3.05 2.02,13.4 2.02,17.57 0,2.58 0.44,3.39 0.43,6.1 -0.04,9.74 0.44,59.92 -0.07,64.44 -0.6,5.33 -0.04,11.41 -0.35,17.2 -1.1,20.99 -11.79,12.42 -12.65,22.85l47 0.07c1.79,-0.54 4.45,-1.66 6.46,-1.7 -0.78,-2.91 -2.99,-4.78 -5.55,-5.88 -2.95,-1.27 -3.54,-4.53 -3.81,-8.03 -0.83,-10.73 -1.88,-59.21 0.35,-67.34 0.56,-2.03 1.7,-2.92 3.54,-3.8 5.5,-2.62 15.58,-2.06 19.87,2.08 7.52,7.28 5.19,20.81 5.19,32.36 0,2.59 0,5.18 -0.01,7.76 -0.01,2.9 0.44,4.23 0.42,7.33 -0.03,5.56 -0.44,9.67 -0.41,15.11 0.1,18.97 -9.59,12.46 -9.8,21.63 2.41,0 3.68,0.43 6.53,0.41 14.23,-0.07 21.99,0.71 37.55,-0.01 3.48,-0.16 5.8,-0.98 8.57,-1.63 -0.2,-2.35 -2.12,-4.36 -4.23,-5.16 -3.11,-1.18 -4.44,-0.13 -5.63,-3.75 -2.87,-8.71 -1.97,-33.73 -1.97,-44.15 0,-4 0.34,-5.22 0.02,-9 -0.44,-5.22 0.34,-11.84 -1.6,-18.81 -6.74,-24.2 -36.48,-25.64 -53.45,-14.56 -0.9,0.59 -1.98,1.37 -2.81,2.09 -1.06,0.91 -1.43,1.57 -2.57,2.33l0 -50.2 -33.45 4.51c-2.32,0.31 -9.04,1.25 -10.63,2.02z"/>
   <path class="fil2" d="M1485.92 515.54c-0.27,-1.15 -2.08,-8.98 -2.86,-8.98 -4.63,0 -14.66,1.49 -20.04,2 -3.38,0.32 -6.51,0.55 -9.99,1.03 -3.17,0.44 -7.27,1.05 -10.38,1.05 0.17,7.7 4.84,6.55 7.37,7.73 3.42,1.59 3.65,6.27 4.3,10.8 1.18,8.23 -0.24,21.59 -0.24,30.04 0,10.05 0.12,20.17 0.02,30.22 -0.05,4.83 -1.58,8.5 -4.18,10.92 -2.67,2.47 -7.97,2.6 -8.08,7.43l5.88 1.06c4.86,0.69 8.63,0.58 13.31,0.57 2.93,-0.01 4.58,0.35 6.92,0.42 4.73,0.14 18.11,-0.38 23.51,-1.41 1.24,-0.23 1.8,-0.54 3.03,-0.64 -0.38,-4.61 -4.2,-5.7 -5.46,-6.38 -4.79,-2.56 -3.93,-26.32 -3.93,-31.99 0,-8.33 -0.4,-15.29 -0.41,-23.67 -0.01,-4.27 0.39,-7.06 0.39,-11.44 0,-3.82 0.96,-7.64 1.24,-11.01 6.46,-0.54 22.75,-8.24 27.36,11.01 0.45,1.89 0.65,3.72 0.99,5.95l0.63 14.07c0.02,2.99 -0.42,4.25 -0.42,6.92 -0.01,4.8 0.14,9.76 -0.33,13.95 -0.72,6.44 1.52,19.87 -3.07,25.5 -2.4,2.95 -6.66,2.02 -6.79,7.91 1.56,0.13 4.26,0.59 5.77,0.76l41.17 -0.34c3.64,0.03 3.3,0.04 5.71,-1.23 -0.47,-5.66 -6.71,-5.14 -8.76,-7.97 -5.02,-6.91 -2.65,-32.18 -2.67,-41.41 -0.02,-20.28 2.58,-43.41 -20.05,-50.97 -9.43,-3.15 -18.82,-2.55 -27.94,0.94 -6.17,2.36 -7.31,4.03 -12.01,7.18z"/>
   <path class="fil2" d="M784.74 538.39c0,13.67 0.23,25.03 5.72,37.13 3.06,6.76 6.83,12.31 11.72,17.66 0.93,1.01 1.43,1.08 2.45,2.04 5.88,5.47 13.43,9.32 21.79,12.09 4.27,1.42 8.96,2.63 13.84,3.3 6.39,0.88 14.23,1.59 20.45,0.89 1.72,-0.19 3.47,0.07 5.19,-0.12 3.07,-0.34 6.3,-0.86 9.42,-1.19 8.33,-0.9 12.78,-3.53 16.76,-4.46 0,-4.68 0.43,-11.9 -0.06,-16.27 -0.33,-2.98 -0.47,-4.49 -0.05,-7.52 0.57,-4.13 -0.87,-15.74 3.19,-21.7 3,-4.4 8.28,-2.31 8.75,-7.98 -1.95,-0.46 -1.47,-1.04 -5.94,-1.82 -7.49,-1.3 -18.52,-0.33 -25.91,-0.24 -2.61,0.03 -4.22,0.6 -7.33,0.43 -6.86,-0.39 -8.2,-1.37 -13.88,1.63 0.16,1.87 1.61,3.74 2.85,4.5 2.66,1.63 7.84,-0.03 8.18,14.27 0.22,9.37 0.4,19.42 0.4,29.4 -9.49,2.21 -18.11,0.26 -25.31,-4.49 -13.51,-8.92 -19.18,-31.45 -19.18,-48.98 0,-22.06 1.93,-41.23 15.19,-56.23 6.68,-7.56 16.01,-11.52 27.25,-11.52 6.49,0 15.34,1.78 19.43,4.24 2.84,1.71 4.03,3.37 5.11,6.73 0.55,1.72 0.85,2.76 2.06,4.06 1.65,1.77 1.98,1.14 4.01,2.12 2.7,-5.11 2.26,-14.97 1.71,-20.89 -0.46,-4.87 0.91,-3.79 -12.69,-4.86l-16.46 -0.49c-6.03,0.86 -12.41,-0.86 -26.67,2.73 -10.33,2.6 -16.68,4.81 -24.98,10.12 -7.17,4.58 -12.71,10.88 -17.3,18.2 -5.21,8.29 -9.71,23.75 -9.71,37.23z"/>
   <path class="fil2" d="M896.16 513.09c0,6.43 4.32,3.74 8.9,8.25 4.11,4.05 3.35,16.19 3.35,21.96 0,15.68 -4.32,46.11 6.63,57.86 3.75,4.03 5.3,4.99 10.24,7.31 8.87,4.16 21.38,3.61 30.66,-0.1 7.32,-2.93 8.82,-5.9 11.25,-7.53l3.27 9.39c3.81,0 24.85,-2.91 30.61,-3.27 2.76,-0.17 7.77,-0.66 10.2,-1.22 -0.03,-1.52 -0.45,-3.21 -1.13,-4.18 -4.08,-5.8 -11.12,5.9 -11.12,-26.84l0.41 -67.75c-3.91,0 -7.14,0.49 -10.95,0.89l-21.69 2.39c-4.77,0.11 -6.6,0.75 -9.8,2.44 0.22,2.63 2.25,4.47 4.54,5.26 3.51,1.2 3.61,0.68 5.4,4.39 1.36,2.82 1.7,9.21 1.9,12.8 0.3,5.54 0.09,39.08 -0.39,44.92 -0.16,1.94 -0.02,4.51 -0.01,6.52 0.01,2.7 -0.42,3.51 -0.42,6.11 -1.31,0.3 -1.39,0.57 -2.61,1.06 -1.02,0.41 -1.73,0.54 -2.85,0.82 -8.66,2.16 -17.71,1.4 -21.32,-7.76 -4.58,-11.62 -1.79,-47.21 -1.79,-59.43 0,-5.12 0.17,-10.28 -0.34,-15.17 -0.19,-1.76 -0.47,-4.24 -0.47,-5.65l-22.07 2.41c-3.12,0.36 -20.37,2.34 -20.37,4.12z"/>
   <path class="fil2" d="M355.79 510.23c0,17.56 6.6,30.88 19.42,39.35 3.23,2.13 9.7,4.74 14.45,5.14l-3.1 1.39c-3.72,1.51 -5.76,3.41 -4.65,8.38 1.2,5.39 5.32,5.73 13.05,5.73l0.41 5.71c0,19.93 -12.99,47.05 -4.5,58.79 0.97,1.34 2.1,2.53 3.67,3.27 6.33,2.96 20.02,0.01 20.02,-12.67 0,-16.26 -4.26,-23.01 -6.89,-38.42 -3.75,-22.01 1.8,-16.2 10.2,-17.86 2.11,-0.42 1.91,-0.83 2.42,-2.88 1.15,-4.65 1.75,-7.16 -1.92,-9.13 -1.41,-0.76 -3.04,-1.29 -4.22,-2.31 8.21,-0.68 18.26,-8.33 23.58,-14.78 5.85,-7.1 9.89,-19.35 9.89,-28.89 0,-7.63 0.24,-14.47 -4.25,-21.06 -3.73,-5.48 -12.12,-7.66 -17.87,-5.54 -1.35,0.5 -2.38,1.8 -3.29,2.83 -10.63,11.89 4.49,23.1 10.56,17.49 1.53,-1.41 1.79,-3.25 1.79,-5.15 0,-3.08 -4.03,-4.01 -5.71,-6.53 8.64,0 10.2,9.27 10.2,16.73 0,12.95 -9.59,28.35 -20.82,34.28 -1.83,-3.46 -0.92,-6.12 -6.53,-6.12 0.93,-1.38 3.98,-4.01 5.31,-4.9 -1.72,-3.24 -0.46,-1.48 -3.64,-4.11 -0.74,-0.62 -0.95,-0.47 -1.26,-1.6 8.72,-2.03 3.6,-7.02 2.86,-10.2l2.45 -2.45c-1.13,-2.13 -1.66,-2.72 -3.37,-4.39 -1.52,-1.48 -2.75,-2.53 -2.75,-5.41 0,-9.68 7.67,-11.65 3.84,-17.72 -3.07,-4.86 -27.92,-5.53 -27.92,2.21 0,6.41 5.31,7.66 5.31,15.51 0,5.09 -4.43,6.25 -6.53,9.39 1.58,2.36 3.79,3.05 5.31,5.31l-5.71 2.45c1.08,4.65 1.44,4.41 5.31,5.31 -0.71,2.65 -4,1.87 -4.9,5.71 2.41,0.56 2.89,1.89 5.31,2.45 -1.08,4.06 -2.19,-0.57 -5.31,5.31 2.6,4.92 4.28,1.7 5.31,6.12 -8.4,-1.96 -14,-6.46 -18.55,-12.47 -6.39,-8.46 -8.39,-16.76 -8.39,-27.93 0,-6.36 2.78,-12.65 9.8,-12.65l-0.45 0.37c-3.74,3.17 -3.23,2.94 -3.23,7.79 0,5.4 15.1,4.93 15.1,-6.12 0,-11.03 -18.94,-22.01 -27.18,-0.65 -1.49,3.87 -2.62,9.77 -2.62,14.93z"/>
   <path class="fil2" d="M1377.36 578.8c0,-12.4 9.34,-17.14 20.82,-17.14 2.07,0 1.16,4.82 1.21,9 0.03,2.27 0.41,2.6 0.44,4.87l-0.42 11.04c-0.07,2.58 -0.07,3.26 -1.12,5 -3.69,6.08 -14.85,4.71 -17.94,-1.04 -1.47,-2.73 -2.98,-7.72 -2.98,-11.71zm-20 -52.24c0,2.76 3.23,2.53 5.6,1.94 6.49,-1.61 7.38,-8.47 19.29,-8.47 7.7,0 12.82,3.51 15.4,10.31 4.13,10.88 0.92,18.23 0.92,22.75 -2.99,0 -4.51,0.43 -7.76,0.4 -5.11,-0.04 -19.18,1.54 -23.18,2.54 -4.73,1.18 -8.24,2.27 -11.8,4.93 -7.62,5.69 -9.53,15.04 -8.72,24.41 0.78,9.07 3.66,17.75 11.86,22.01 12.01,6.24 25.01,3.86 35.61,-3.19 2.17,-1.44 4.29,-3.81 5.63,-4.17 0.45,1.7 1.99,2.6 3.16,3.78 1.31,1.31 2.35,2.5 3.77,3.58 11.55,8.86 37.15,0.91 37.15,-13.48 -14.46,0 -15.1,2.83 -15.1,-19.59 0,-4.65 0.42,-7.89 0.41,-12.24 -0.03,-14.38 2.08,-36.93 -7.64,-47.05 -5.55,-5.78 -16.13,-9.27 -24.2,-9.27 -10.81,0 -18.22,0.56 -28.3,5.58 -5.35,2.66 -12.11,7.57 -12.11,15.24z"/>
   <path class="fil2" d="M1060.23 561.66l2.45 0c0,3.64 0.41,5.68 0.41,9.39l0 16.73c0,7.68 -9.37,9.49 -15.9,6.11 -1.86,-0.96 -2.92,-2.23 -3.97,-4.19 -2.93,-5.47 -6.38,-28.04 17.02,-28.04zm-39.59 -34.28c4.05,0.94 5.55,3.74 9.9,-0.71 3.89,-3.99 5.9,-6.64 12.96,-6.64 6.55,0 12.05,1.63 15.21,5.2 5.29,5.97 4.38,18.87 4.38,27.45l-9.22 0.58c-9.79,1.48 -21.82,0.23 -33.07,6.93 -14.79,8.81 -12.12,35.38 -2.93,43.82 2.38,2.18 5.57,4.1 9.14,5.14 8.98,2.63 18.08,2.9 26.11,-1.95 3.62,-2.19 6.63,-4.95 9.96,-7.18 1.4,0.94 2.33,2.07 3.44,3.5 4.72,6.12 8.95,7.52 16.56,7.52 10.1,0 24.49,-5.24 24.49,-16.73 -2.26,0 -3.85,-0.33 -6.54,-0.4 -2.24,-0.05 -3.71,-0.42 -6.52,-0.42 -3.81,-7.93 -0.82,-39.69 -0.82,-51.02 0,-17.07 -4.95,-29.28 -19.64,-34.24 -20.6,-6.95 -53.42,1.28 -53.42,19.14z"/>
   <path class="fil2" d="M472.11 485.34c0,3.72 -0.17,9.81 2.86,11.84 10.92,-2.54 -8.15,-15.51 36.32,-15.51 0,14.73 0.41,28.12 0.41,42.85l0 57.96c0,18.17 -3.53,17.61 -12.02,21.45 -1.62,0.73 -1.3,1.36 -3.49,1.41 -0.09,1.1 -0.19,1.11 -0.41,2.04 2.3,1.21 4,0.83 7.35,0.81 3.3,-0.02 4.86,0.43 8.16,0.41 8.21,-0.04 36.74,1.34 41.48,1.03 4,-0.26 4.53,0.35 6.27,-2.26 -3.41,-6.45 -5.88,-2.9 -11.17,-5.97 -3.09,-1.79 -4.75,-7.58 -4.75,-12.4l0 -107.34c7.64,0 13.19,-0.11 20.8,0.42 7.37,0.52 7.92,4.38 10.76,9.65 0.75,1.4 1.03,1.57 1.72,3.18 0.72,1.68 0.93,2.09 3.04,2.26 4.3,-8.12 1.88,-17.45 1.22,-25.3l-107.34 0c-0.8,3.43 -1.22,9.25 -1.22,13.47z"/>
   <path class="fil2" d="M741.48 542.88l-18.77 0c0,-10.6 -0.19,-27.75 11.43,-27.75 4.41,0 7.6,0.02 10.34,5.16 3.06,5.74 2.31,15.22 2.31,22.18 -2.33,0 -2.82,0.41 -5.31,0.41zm-50.61 17.96c0,13.06 2.37,23.8 8.92,32.72 12.69,17.29 35,20.49 55.47,15.75 4.38,-1.01 9.71,-3.26 13.3,-5.48 1.65,-1.02 11.8,-9.52 7.21,-9.52 -7.51,0 -11.44,2.04 -17.96,2.04 -10.94,0 -20.48,-0.2 -27.7,-9.85 -7.29,-9.74 -6.99,-21.26 -6.99,-33.41l53.87 0c1.79,0 0.86,-1.46 0.81,-3.66 -0.05,-2.3 -0.16,-3.11 -0.37,-4.95 -0.39,-3.32 -0.84,-6.63 -1.61,-9.41 -1.78,-6.36 -3.46,-10.34 -6.74,-15.3 -13.02,-19.71 -43.77,-17.84 -58.52,-4.96 -4.84,4.23 -8.54,8.59 -11.52,14.6 -4.68,9.44 -8.16,19.72 -8.16,31.43z"/>
   <path class="fil2" d="M1148.8 517.58c-0.28,-3.39 -1.22,-6.92 -1.22,-10.61 -10.03,0 -32.57,3.67 -41.22,3.67 0,7.6 4.82,6.52 7.08,7.62 3.08,1.49 4.03,6.28 4.32,10.37 0.66,9.21 0.84,19.28 0.84,28.95 0,5.56 -0.42,9.88 -0.41,15.1 0.01,4.62 -0.4,10.52 -1.04,14.88 -0.58,3.94 -1.31,9.94 -3.22,12.28 -2.51,3.07 -7.59,3.21 -7.98,7.94 2.16,0.18 2.35,1.22 4.9,1.22l49.38 0c2.44,0 2.44,-0.79 4.08,-1.22 -0.43,-1.86 -1.78,-3.74 -3.27,-4.49 -4.3,-2.18 -10.24,2.16 -11.77,-12.72 -1.18,-11.52 -1.88,-40.39 -0.54,-52.64 0.27,-2.47 0.03,-4.19 0.63,-8.35 0.22,-1.5 0.62,-2.82 0.65,-4.24 8.57,-2 13.16,-3.95 19.1,4.98 1.01,1.52 2.15,3.06 3.28,4.47 0.77,0.96 3.52,3.19 4.97,3.19 1.34,0 3.93,-4.18 4.58,-5.22 3.61,-5.78 7.67,-15.33 7.67,-22.13 -4.16,-0.97 -6.77,-4.49 -19.59,-4.49 -6.88,0 -14.74,4.49 -19.29,9.28 -0.9,0.94 -1.06,1.51 -1.93,2.15z"/>
   <path class="fil2" d="M1302.67 486.15c0,8.7 9.41,14.69 16.33,14.69 6.22,0 8.06,-0.17 13.55,-3.59 7.51,-4.67 7.61,-14.1 0.21,-20.38 -10.35,-8.79 -30.09,-0.45 -30.09,9.27z"/>
  </g>
 </g>
</svg>
