<?xml version="1.0" encoding="UTF-8"?>
<!DOCTYPE svg PUBLIC "-//W3C//DTD SVG 1.1//EN" "http://www.w3.org/Graphics/SVG/1.1/DTD/svg11.dtd">
<!-- Creator: CorelDRAW -->
<svg xmlns="http://www.w3.org/2000/svg" xml:space="preserve" width="23.9804in" height="13.9241in" version="1.1" style="shape-rendering:geometricPrecision; text-rendering:geometricPrecision; image-rendering:optimizeQuality; fill-rule:evenodd; clip-rule:evenodd"
viewBox="0 0 1858.51 1079.13"
 xmlns:xlink="http://www.w3.org/1999/xlink"
 xmlns:xodm="http://www.corel.com/coreldraw/odm/2003">
 <defs>
  <style type="text/css">
   <![CDATA[
    .fil2 {fill:#243C4A}
    .fil1 {fill:white}
    .fil0 {fill:url(#id0)}
   ]]>
  </style>
  <linearGradient id="id0" gradientUnits="userSpaceOnUse" x1="1836.01" y1="1070.3" x2="-133.65" y2="-118.68">
   <stop offset="0" style="stop-opacity:1; stop-color:#1585A5"/>
   <stop offset="1" style="stop-opacity:1; stop-color:#3ABDBE"/>
  </linearGradient>
 </defs>
 <g id="Layer_x0020_1">
  <metadata id="CorelCorpID_0Corel-Layer"/>
  <rect class="fil0" y="-0" width="1858.51" height="1079.13"/>
  <path class="fil1" d="M443.98 500.05c-0.24,1.58 0.43,-0.14 -0.68,1.8 -0.33,0.58 -0.63,0.91 -1.13,1.58l-14.38 20.13c-0.31,1.59 -5.85,9.05 -7.37,11.23 -1.68,2.41 -5.86,9.51 -7.89,10.75 -0.34,2.08 -13.01,19.74 -14.16,20.4 -0.36,2.49 -2.79,4.68 -4.31,7 -1.43,2.17 -2.95,4.88 -4.79,6.36 -0.54,1.98 -6.95,10.76 -8.7,13.23 -1.61,2.28 -3.02,4.51 -4.64,6.74 -1.49,2.05 -3.16,4.31 -4.29,6.49l32.47 18.43c0.85,-1.68 6.99,-10.47 8.15,-11.04 0.93,-2.49 5.77,-8.88 7.95,-11.9 0.39,-0.53 0.98,-1.37 1.38,-1.88 0.22,-0.28 0.46,-0.58 0.7,-0.83 0.85,-0.92 0.42,-0.41 0.71,-0.64 0.53,-1.39 11.06,-17.15 12.49,-17.62 1.33,-3.12 5.1,-7.77 7.23,-10.7l21.43 -30.48c0.07,0.11 0.14,0.28 0.17,0.37 1,3.07 0.35,50.14 0.47,53.99l0.06 0.7 48.04 -0.2c0.6,-2.23 3.88,-6.64 5.46,-8.1l13.02 -19.12c0.05,-0.05 0.19,-0.19 0.23,-0.23 0.04,-0.04 0.15,-0.15 0.23,-0.22 0.29,-0.61 12.69,-19.55 14.6,-21.17 1.07,-2.27 3.19,-5.03 4.61,-7.07 0.91,-1.3 1.42,-1.99 2.24,-3.17l1.81 -2.45c0.78,-0.83 0.44,-0.43 0.72,-0.63 0.96,-2.67 2.72,-4.34 4.34,-6.84 1.02,-1.58 3.08,-5.08 4.45,-5.93 1.21,-2.71 2.34,-4 4.2,-6.56 1.31,-1.81 2.68,-5.12 4.41,-5.9 1.15,-2.69 3.19,-5.21 4.88,-7.58 0.86,-1.21 1.57,-2.17 2.45,-3.51 0.68,-1.04 1.37,-2.52 2.43,-3 1.3,-3.01 4.23,-6.67 6.22,-9.48 1.15,-1.62 5.61,-7.81 6.15,-9.49l-0.57 -0.46c-0.64,-0.47 -0.32,-0.25 -0.93,-0.65 -0.76,-0.5 -1.03,-0.68 -2.03,-1.22 -4.6,-2.51 -24.79,-14.34 -27.82,-15.37 -2.29,-0 -2.89,2.08 -3.88,3.54 -1.21,1.78 -2.08,2.99 -3.12,4.47 -2.04,2.88 -4.28,6.29 -6.33,8.72 -1.57,2.56 -9.58,14.4 -11.37,15.39 -0.36,2.19 -8.65,13.13 -10.62,15.83l-2.23 2.52c-0.36,1.7 -9.5,13.9 -11.31,16.47 -1.78,2.52 -10.34,15.48 -11.91,16.35l-0.85 1.58 -0.17 -24.53 0.01 -15 -0.02 -15.38 -8.78 -0.27 -20.75 0 -18.14 0.05 -10.55 14.51z"/>
  <path class="fil1" d="M1231.25 588.94c-6.02,0 -11.38,1.07 -11.38,-10.3l0 -37.4c7.69,0 16.54,-0.25 22.38,5.81 9.08,9.42 9.61,41.89 -11,41.89zm-7.59 -53.12l-3.79 0 0 -34.15c0,-6.33 2.4,-8.13 8.67,-8.13 9.65,0 12.98,5 14.77,12.88 1.73,7.64 1.01,19.37 -3.52,24.38 -2.74,3.04 -10.32,5.02 -16.12,5.02zm-42.82 -44.45c0,5.3 14.09,-4.84 14.09,16.26l0 67.75c0,21.1 -14.09,10.96 -14.09,16.26l0 2.71 55.83 0c8.16,0 18.88,-3.12 24.09,-6.26 18.22,-11 18.36,-29.6 8.03,-39.96 -4.67,-4.68 -14.17,-10.01 -20.74,-10.15l0 -1.63c9.26,-0.77 22.22,-9.4 22.22,-21.68 0,-19.85 -19.76,-26.02 -36.32,-26.02l-53.12 0 0 2.71z"/>
  <path class="fil1" d="M894.1 494.08c10.13,0.23 12.62,10.42 16.57,20.29l24.69 68c1.47,4.41 3.7,9.37 4.82,14.16l2.71 0 20.91 -57.68c0.98,-2.53 1.66,-6.57 3.48,-7.9 0.18,2.12 11.3,29.67 12.39,32.6 1.06,2.87 1.96,4.94 2.99,7.85l9.01 25.14 2.71 0c2.59,-11.13 14.91,-43.58 18.77,-54.94l9.73 -27.13c1.72,-4.44 2.94,-9.46 4.94,-13.49 1.83,-3.68 6.29,-6.76 11.55,-6.88l0 -3.25 -31.44 0 0 3.25c15.75,0 11.24,10.35 6.43,23.23l-14.49 39.17c-0.98,2.71 -2.09,5.14 -2.77,8.07 -0.75,-0.87 -0.53,-0.61 -1.02,-1.69l-5.28 -13.69c-1.03,-2.91 -1.93,-4.98 -2.99,-7.85 -2.03,-5.5 -15.1,-37.11 -15.1,-40.73 0,-6.69 3.92,-6.5 11.38,-6.5l0 -3.25 -42.28 0 0 3.25c13.64,0 13.05,6.45 19.28,21.91 2.15,5.34 2.09,4.41 0,9.84l-10.84 28.73c-0.87,2.29 -2.8,7.94 -4.11,9.44l-21.22 -55.75c-3.78,-9.34 -5.03,-14.17 7.67,-14.17l0 -3.25 -38.48 0 0 3.25z"/>
  <path class="fil1" d="M1295.21 505.47c0,17.51 -1.21,15.18 4.88,15.18 1.48,-17.79 10.56,-26.56 29.81,-26.56l0 84.02c0,17.59 -15.18,8.8 -15.18,13.55l0 2.71 56.37 0c0,-8.85 -3.91,-1.26 -11.72,-6.17 -3.02,-1.9 -4,-6.58 -4,-11.18l0 -82.93c33.28,0 26.62,26.56 31.44,26.56l3.25 0 0 -31.98 -94.31 0c0,6.25 -0.54,10.49 -0.54,16.8z"/>
  <path class="fil1" d="M1388.98 542.33c0,22.49 10.56,41.03 31.44,50.4 19.87,8.91 44.63,6.1 60.57,-9.89 2.31,-2.32 6.67,-6.15 8.27,-8.54l-4.88 -3.79c-3.72,2.49 -6.89,7.76 -13.78,12.23 -14.73,9.56 -37.7,11.18 -47.3,-8.07 -8.62,-17.29 -7.72,-48.46 -0.87,-66.12 3.49,-9.02 9.01,-14.89 20.17,-16.15 11.43,-1.29 19.68,3.69 25.67,9.67 4.53,4.53 8,10.33 11.22,15.88 3.13,5.4 0.87,5.4 7.07,5.4l0 -36.86 -4.88 0c-1.01,12.09 -14.15,4.99 -20.66,2.78 -20.23,-6.87 -41.99,-1.02 -56.44,13.35 -4.25,4.23 -8.61,10.53 -11.02,16.62 -2.72,6.87 -4.56,15.34 -4.56,23.09z"/>
  <path class="fil1" d="M675.12 492.46c0,3.25 4.6,0.4 9.01,3.46 1.32,0.91 6.17,5.36 6.17,6.84l0 74.26c0,18.76 -15.18,10.95 -15.18,15.72l0 1.63 37.4 0c0,-7.77 -10.51,1.22 -13.69,-11.79 -1.83,-7.48 -0.95,-60.92 -0.95,-71.14 1.37,0.92 3.11,3.5 4.26,4.95l8.74 10.77c1.42,1.82 2.91,3.6 4.34,5.42l47.62 59.16c3.96,4.86 3.15,4.8 6.58,4.8l0 -80.76c0,-4.76 0.58,-13.42 2.17,-16.26 1.83,-3.27 7.88,-5.42 13.01,-5.42l0 -3.25 -37.4 0c0,5.23 0.91,2.18 7.9,4.57 3.32,1.13 4.51,2.2 5.6,5.24 2.92,8.2 1.68,54.28 1.68,64.99 -13.15,-15.13 -31.71,-39.84 -45.11,-56.25 -2.6,-3.18 -5.01,-6.2 -7.46,-9.34 -1.08,-1.38 -6.37,-9.21 -8.13,-9.21l-26.56 0 0 1.63z"/>
  <path class="fil1" d="M797.08 494.08c8.06,0 13.55,1.9 13.55,10.84l0 74.8c0,8.64 -3.71,11.38 -13.55,11.38l0 3.25 85.1 0 4.94 -19.45c0.53,-1.78 1.51,-4.87 1.56,-7.11 -6.47,0 -3.31,-0.62 -8.49,7.77 -9.25,14.97 -26.61,12.29 -45.71,12.29 -5.87,0 -7.59,-1.72 -7.59,-7.59l0 -36.86c35.16,0 36.85,-3.46 41.19,15.18l3.79 0 0 -36.86 -3.79 0c-4.31,18.49 -6.28,15.18 -41.19,15.18l0 -34.69c0,-4.56 2.02,-5.42 6.5,-5.42 8.09,0 30.6,-0.8 36.43,2.6 4.54,2.64 5.86,9.59 6.93,14.21l4.34 0 -0.54 -22.77 -83.47 0 0 3.25z"/>
  <path class="fil1" d="M1072.43 515.22c0,5.13 0.38,8.01 3.07,12.65 0.83,1.43 1.74,2.43 2.73,3.77 3.85,5.23 12.67,10.12 18.36,13.62 5.32,3.27 10.65,6.5 15.41,10.07 7.93,5.96 10.3,9.09 10.3,18.97 0,18.87 -31.12,24.79 -45.71,-1.45 -0.96,-1.73 -1.74,-3.39 -2.54,-5.04 -2.49,-5.1 -0.44,-4.89 -5.95,-4.89 0.05,2.44 0.8,5.89 1.18,8.58l2.97 21.42c0.37,3.1 -0.43,3.61 2.9,3.61 4.5,0 -2.17,-8.07 11.16,-4.11l5.7 1.88c23.58,7.31 46.55,-4.92 46.55,-25.41 0,-9.76 -2.22,-14.36 -8.81,-21 -3.96,-3.99 -10.73,-8.58 -15.61,-11.49 -2.89,-1.72 -5.36,-3.4 -8.33,-5.22 -8.57,-5.25 -19.28,-10.72 -19.28,-21.91 0,-9.16 7.67,-14.09 15.72,-14.09 4.23,0 7.81,1.47 10.85,2.7 9.79,3.95 17.13,15.46 17.88,24.4 6.56,0 3.77,0.94 2.69,-15.16l-1.56 -14.7c-0.15,-3.27 0.5,-3.75 -2.75,-3.75 -3.3,0 0.07,4.88 -6.5,4.88 -5.73,0 -25.04,-12.7 -42.42,2.57 -1.81,1.59 -4.51,5.53 -5.6,7.95 -1.51,3.35 -2.39,6.53 -2.39,11.16z"/>
  <g>
   <path class="fil2" d="M369.41 523.35l0 12.92 0 16.07 0 13.01 0 14.92 0 8.97c0,2.97 0.01,5.94 -0,8.92 -0.01,4.09 -1.04,6.76 2.22,7.59 1.13,-2.19 2.8,-4.44 4.29,-6.49 1.62,-2.23 3.03,-4.46 4.64,-6.74 1.74,-2.47 8.16,-11.24 8.7,-13.23 1.84,-1.47 3.37,-4.19 4.79,-6.36 1.52,-2.31 3.94,-4.5 4.31,-7 1.14,-0.66 13.82,-18.32 14.16,-20.4 2.03,-1.23 6.21,-8.34 7.89,-10.75 1.52,-2.18 7.06,-9.64 7.37,-11.23l14.38 -20.13c0.5,-0.67 0.8,-1 1.13,-1.58 1.11,-1.94 0.44,-0.22 0.68,-1.8l10.55 -14.51 18.14 -0.05 20.75 -0 8.78 0.27 0.02 15.38 -0.01 15 0.12 17.69 -0.06 0.95c-0.12,1.97 -0.83,4.31 0.95,4.31 1.57,-0.87 10.13,-13.83 11.91,-16.35 1.81,-2.57 10.95,-14.77 11.31,-16.47l2.23 -2.52c1.97,-2.7 10.26,-13.64 10.62,-15.83 1.78,-0.99 9.8,-12.84 11.37,-15.39 2.05,-2.43 4.3,-5.84 6.33,-8.72 1.05,-1.48 1.91,-2.69 3.12,-4.47 0.99,-1.46 1.59,-3.54 3.88,-3.54 -1.08,-1.19 -2.35,-1.56 -3.79,-2.37 -1.74,-1.45 -4.94,-2.87 -7.22,-4.14 -2.01,-1.12 -5.38,-3.49 -7.42,-3.97 -0.45,-0.39 -0.89,-0.79 -1.51,-1.2l-12.04 -6.93c-2.25,-1.19 -5.15,-3.25 -7.67,-3.79 -0.93,-1.49 -0.98,-1.03 -2.78,-2.01 -1.42,-0.78 -1.94,-1.15 -3.45,-1.97 -2.07,-1.13 -4.68,-3.1 -6.86,-3.61 -1.1,-1.24 -11.22,-6.8 -12.1,-7.05 -2.04,-1.41 -6.61,-4.38 -9,-4.88 -0.76,-1.34 -6.01,-4.06 -6.81,-4l-30.29 17.17c-2.68,1.5 -5.09,2.72 -7.65,4.27 -13.48,8.14 -31.47,17.79 -45.61,25.94l-30.38 17.32 0 5.15 0 8.75 0 12.86 0 13.09 0 8.93zm61.25 116l12.47 7.17c1.61,1.14 4.91,3.18 7.05,3.67 0.88,1.21 3.51,2.42 4.91,3.22 1.48,0.85 3.8,2.39 5.39,2.68 1.67,1.57 6.96,4.53 8.67,4.93 1.15,1.57 9.19,5.51 11.49,6.95 4.01,2.51 3.29,1.33 11.98,-3.54l88.75 -50.55c2.69,-1.55 5.14,-2.99 7.93,-4.54 2.97,-1.65 5.68,-2.95 8.3,-4.71l0 -10.99 0 -9.12 0 -15.67 0 -4.58 0 -11.89 0 -7.65 0 -12.93 0 -10.98 0 -6.62 0 -10.66 0 -8.88 0 -8.46c0,-2.44 -0.02,-4.89 0.02,-7.33 0.05,-3.58 0.63,-4.68 -2.27,-5.4 -0.54,1.68 -5,7.86 -6.15,9.49 -2,2.82 -4.92,6.47 -6.22,9.48 -1.06,0.48 -1.75,1.96 -2.43,3 -0.88,1.34 -1.59,2.3 -2.45,3.51 -1.68,2.38 -3.72,4.9 -4.88,7.58 -1.73,0.79 -3.1,4.1 -4.41,5.9 -1.85,2.56 -2.98,3.86 -4.2,6.56 -1.37,0.85 -3.43,4.35 -4.45,5.93 -1.62,2.5 -3.39,4.17 -4.34,6.84 -0.28,0.2 0.06,-0.2 -0.72,0.63l-1.81 2.45c-0.82,1.18 -1.33,1.87 -2.24,3.17 -1.42,2.04 -3.54,4.79 -4.61,7.07 -1.91,1.62 -14.31,20.56 -14.6,21.17 -0.08,0.07 -0.19,0.18 -0.23,0.22 -0.04,0.04 -0.18,0.18 -0.23,0.23l-13.02 19.12c-1.58,1.46 -4.86,5.87 -5.46,8.1l-48.04 0.2 -0.06 -0.7c-0.12,-3.86 0.53,-50.92 -0.47,-53.99 -0.03,-0.09 -0.09,-0.26 -0.17,-0.37l-21.43 30.48c-2.13,2.93 -5.9,7.58 -7.23,10.7 -1.43,0.46 -11.96,16.23 -12.49,17.62 -0.29,0.22 0.14,-0.28 -0.71,0.64 -0.24,0.25 -0.48,0.56 -0.7,0.83 -0.4,0.51 -1,1.35 -1.38,1.88 -2.19,3.02 -7.02,9.41 -7.95,11.9 -1.16,0.57 -7.29,9.36 -8.15,11.04 0.8,0.7 0.24,0.23 1.26,0.91 0.43,0.28 0.96,0.6 1.35,0.84 0.95,0.57 1.72,0.88 2.46,1.51 1.39,0.66 2.31,1.17 3.77,2 1.47,0.84 1.9,1.33 3.62,1.9 1.35,0.98 7.03,4.39 8.67,4.77 0.34,0.29 0.66,0.6 1.19,0.98 1.1,0.78 0.01,0.1 1.34,0.83 1.09,0.61 1.93,0.93 2.89,1.44zm71.71 -100.6l0.01 1.91 0.85 -1.58 -0.86 -0.33z"/>
  </g>
 </g>
</svg>
