<?xml version="1.0" encoding="UTF-8"?>
<!DOCTYPE svg PUBLIC "-//W3C//DTD SVG 1.1//EN" "http://www.w3.org/Graphics/SVG/1.1/DTD/svg11.dtd">
<!-- Creator: CorelDRAW -->
<svg xmlns="http://www.w3.org/2000/svg" xml:space="preserve" width="23.9804in" height="13.9241in" version="1.1" style="shape-rendering:geometricPrecision; text-rendering:geometricPrecision; image-rendering:optimizeQuality; fill-rule:evenodd; clip-rule:evenodd"
viewBox="0 0 3265.23 1895.94"
 xmlns:xlink="http://www.w3.org/1999/xlink"
 xmlns:xodm="http://www.corel.com/coreldraw/odm/2003">
 <defs>
  <style type="text/css">
   <![CDATA[
    .fil0 {fill:#FF322E}
    .fil1 {fill:white}
   ]]>
  </style>
 </defs>
 <g id="Layer_x0020_1">
  <metadata id="CorelCorpID_0Corel-Layer"/>
  <rect class="fil0" y="-0" width="3265.23" height="1895.94"/>
  <g id="_105553191226304">
   <path class="fil1" d="M852.99 1043.21l73.5 0c0.66,-2.81 1.21,-3.22 2.42,-5.75l50.1 -155.89c2.92,-9.19 5.21,-18.48 8.15,-27.24l9.2 -27.1c0.13,0.18 0.29,0.26 0.33,0.57l34.15 105.6 -43.56 0c-2.27,4.29 -17.44,55.66 -19.06,62.61 24.19,0 48.41,0.13 72.6,-0 11.32,-0.06 9.89,-4.49 16.71,19.58l8.69 27.61 77.13 0 -12.82 -38c-4.27,-12.81 -8.51,-25.52 -12.93,-38.79l-70.32 -211.89c-2.1,-6.31 -5,-13.56 -6.47,-19.85l-86.21 0c-0.33,4 -10.3,32.26 -12.36,38.46 -4.42,13.27 -8.66,25.98 -12.93,38.79 -8.6,25.82 -17.04,51.08 -25.64,76.9 -1.61,4.82 -50.57,148.41 -50.7,154.38z"/>
   <polygon class="fil1" points="814.88,1162.08 1425.59,1162.08 1425.59,1086.76 814.88,1086.76 "/>
   <path class="fil1" d="M1153.36 734.67l0 308.53 73.5 0 0 -245.92c20.07,0 52.57,-2.26 67.82,10.22 21.69,17.76 21.83,57.26 -3.36,73.29 -4.98,3.17 -12.58,5.97 -19.33,6.98 -16.33,2.44 -20.62,-1.36 -20.62,6.6 0,11.83 -1.19,48.16 0.91,57.17 18.14,1.81 16.8,1.46 36.69,-1.42 8.88,-1.29 15.01,-2.95 22.64,-5.49 14.98,-4.97 26.71,-10.53 38.29,-18.88 22.18,-15.99 36.68,-50.98 36.68,-77.66 0,-26.28 -2.66,-44.5 -15.96,-64.8 -14.54,-22.2 -35.51,-36.35 -61.53,-42.83 -39.37,-9.8 -112.59,-5.8 -155.73,-5.8z"/>
   <path class="fil1" d="M1935.58 851.73c11.96,1 18.75,5.52 23.6,15.42 4.42,9.02 7.96,17.26 11.92,27.1 10.02,24.91 37.35,99.23 46.94,128.2 1.69,5.09 3.06,9.82 5.04,14.93l10.51 29.42 5.44 0c0.85,-3.63 1.83,-5.16 3.07,-8.73l28.31 -77.87c2.39,-6.18 3.82,-11.21 6.21,-17.38 1.54,-3.99 10.52,-31.97 13.23,-33.96 0.33,4 4.84,13.64 6.22,17.38 10.15,27.48 23.16,58.06 32.92,85.05 2.04,5.64 4.05,12.01 6.11,17.49 2.23,5.95 3.76,12.86 6.48,18.02l5.44 0 64.76 -185.7c5.05,-14.87 9.93,-27.73 29.62,-29.37l0 -6.35 -66.24 0 0 6.35c5.75,0 12.11,0.96 16.08,2.98 16.95,8.64 -0.5,40.65 -8.47,63.61l-18.39 49.67c-1.95,5.87 -4.12,10.6 -6.13,16.56 -1.1,3.28 -1.97,5.39 -2.92,7.97 -1.16,3.14 -1.44,5.35 -3.77,8.03l-7.25 -19.97c-13.03,-32.76 -25.54,-67.78 -38.64,-100.2 -8.78,-21.73 -5.46,-28.65 19.57,-28.65l0 -6.35 -88.02 0 0 6.35c18.47,0 24.34,6.71 29.69,20.22 1.97,4.99 13.87,34.07 13.87,36.95 0,3.16 -33.07,84.64 -33.58,90.74 -2.42,-1.77 -3.38,-6.12 -4.55,-9.06l-34.48 -89.84c-2.7,-6.8 -4.91,-13.28 -7.77,-20.36 -7.44,-18.4 -8.37,-28.65 16.85,-28.65l0 -6.35 -81.67 0 0 6.35z"/>
   <path class="fil1" d="M1476.41 849.01c0,5.54 12,0.6 20.21,7.92 2.46,2.19 4.4,4.46 6.79,6.82 2.46,2.44 5.67,4.41 5.67,8.85l0 134.3c0,12.08 -0.57,28.01 -3.97,36.87 -3.69,9.61 -20.1,12.85 -28.7,13.04 0,4.42 -0.61,6.35 2.72,6.35l75.32 0 0 -6.35c-18.88,-1.57 -25.54,-5.44 -29,-20.91 -3.49,-15.65 -1.86,-126.74 -1.86,-147.87 3.29,2.21 34.82,42.34 36.42,44.35 3.05,3.85 6,7.22 8.96,11.01 2.91,3.73 5.74,7.27 8.87,11.1l72.18 89.34c2.29,2.84 17.1,20.12 17.86,22.97l7.26 0 0 -183.31c0,-9.01 2.17,-19.43 7,-23.85 4.52,-4.13 15.54,-7.91 23.85,-7.91l0 -6.35 -78.04 0 0 6.35c13.12,0 24.99,3.67 28.86,16.51 3.58,11.89 2.9,27.2 2.9,42.47 0,30.55 0,61.1 0,91.65 -2.81,-1.88 -60.47,-74.96 -62.82,-77.83 -10.8,-13.21 -20.54,-26.23 -31.34,-39.44l-23.41 -29.22c-2.17,-2.76 -6.91,-7.73 -7.65,-10.5l-58.08 0 0 3.63z"/>
   <path class="fil1" d="M1732.31 851.73c20.93,0 29.04,6.84 29.04,28.13l0 150.64c0,8.54 -1.25,16.9 -6.7,20.53 -3.99,2.66 -16.14,5.65 -22.34,5.79l0 6.35 178.77 0c0.12,-5.22 12.89,-49.26 14.52,-56.26l-9.98 0c-2.01,8.64 -14.05,26.81 -22.84,32.52 -18.8,12.23 -52.1,10.13 -76.08,10.13 -4.56,0 -10.2,-0.28 -14.31,-1.11 -4.28,-0.87 -6.56,-4.21 -6.56,-9.77l0 -82.58 57.17 0c9.32,0 17.06,2.47 20.91,8.12 2.91,4.27 7.06,15.76 7.22,22.73l9.07 0 0 -76.23 -9.07 0c-0.15,6.58 -4.06,21.78 -10.58,26.63 -9.86,7.33 -59.05,5.13 -74.72,5.13l0 -78.95c0,-4.88 7.58,-5.44 12.7,-5.44 19.33,0 58.62,-1.21 74.03,4.01 6.1,2.07 8.95,6.46 11.59,12 2.01,4.21 5.12,12.83 5.12,18.47l9.07 0 -0.91 -47.19 -175.14 0 0 6.35z"/>
   <path class="fil1" d="M2311.27 893.48c0,12.83 -0.26,18.92 6.71,30.49 5.2,8.62 12.27,14.79 20.11,20.72 9.46,7.15 36.84,22.94 50.5,32.08 14.39,9.63 27.94,20.04 27.94,41.93 0,15.86 -8.5,26.47 -21.16,32.38 -20.01,9.35 -46.05,0.75 -60.74,-14.01 -9.66,-9.7 -21.21,-27 -24.27,-40.16l-8.17 0 7.31 53.49c2.47,17.8 0.24,16.38 8.12,16.38 5.22,0 0.65,-9.68 10.16,-10.73 4.01,-0.44 12.89,2.76 16.51,4.03 29.08,10.19 58.82,12.6 83.84,-8.02 23.64,-19.49 29.01,-51.47 13.29,-75.49 -6.25,-9.55 -18.62,-19.66 -28.33,-26.12 -15.04,-10 -44.18,-26.68 -55.68,-35.97 -12.13,-9.81 -18.67,-20.15 -16.08,-36.32 5.04,-31.41 62.11,-35.21 85.8,11.96 10.2,20.3 1.23,20.58 15.72,20.58 0,-9.27 -7.26,-60.17 -7.26,-69.87 -9.86,0 -6.79,-0.27 -8.23,2.66l-0.74 1.98c-9.07,19.98 -38.2,-17.69 -81.66,0.01 -18.15,7.39 -33.69,28.02 -33.69,47.98z"/>
  </g>
 </g>
</svg>
