<?xml version="1.0" encoding="UTF-8"?>
<!DOCTYPE svg PUBLIC "-//W3C//DTD SVG 1.1//EN" "http://www.w3.org/Graphics/SVG/1.1/DTD/svg11.dtd">
<!-- Creator: CorelDRAW -->
<svg xmlns="http://www.w3.org/2000/svg" xml:space="preserve" width="23.9804in" height="13.9241in" version="1.1" style="shape-rendering:geometricPrecision; text-rendering:geometricPrecision; image-rendering:optimizeQuality; fill-rule:evenodd; clip-rule:evenodd"
viewBox="0 0 3155.26 1832.09"
 xmlns:xlink="http://www.w3.org/1999/xlink"
 xmlns:xodm="http://www.corel.com/coreldraw/odm/2003">
 <defs>
  <style type="text/css">
   <![CDATA[
    .fil0 {fill:#283A8F}
    .fil1 {fill:white}
   ]]>
  </style>
 </defs>
 <g id="Layer_x0020_1">
  <metadata id="CorelCorpID_0Corel-Layer"/>
  <rect class="fil0" y="-0" width="3155.26" height="1832.09"/>
  <g id="_105553190855744">
   <path class="fil1" d="M628.26 1013.78l52.47 0 0 -122.43c1.78,1.19 11.01,13.34 13.16,15.99 10.09,12.46 19.34,24.25 28.42,37.65l21 30.83c4.14,6.21 7.76,11.73 12.36,17.43 5.09,6.29 4.61,6.23 10.77,11.25 8.46,6.91 18.56,9.27 30.89,9.27l0 -202.11 -45.35 0 0 123.08c-2.58,-0.69 -5.57,-3.81 -8.23,-6.02 -1.48,-1.22 -2.36,-2.3 -3.43,-3.7l-6.92 -7.98c-1.21,-1.5 -1.96,-2.44 -3.16,-3.96 -11.07,-14.09 -20.38,-29.28 -30.63,-43.22 -5.87,-7.99 -33.81,-47.54 -37.18,-50.92 -2.92,-2.92 -4.8,-4.69 -9.07,-5.83 -6.93,-1.85 -17.54,-1.45 -25.11,-1.45l0 202.11z"/>
   <path class="fil1" d="M1395.26 877.09l0 136.69 45.99 0 0 -117.25c20.29,0 32.03,-2.59 53.12,-2.59 9.85,0 14.25,6 15.93,14.52 2.56,13.02 3.22,65.62 1.66,79.51l-0.12 19.36c0.1,3.26 0.67,3.24 0.67,6.46l45.35 0 0 -117.25c8.07,0 17.05,-0.17 24.15,-1.12 7.67,-1.03 21.42,-1.47 29.62,-1.47 8.9,0 13.12,4.96 15.05,12.16 2.08,7.75 3.94,41.91 3.05,52.59 -1.06,12.83 -0.61,40.69 -0.61,55.1l45.99 0 0 -97.82c0,-33.68 -28.25,-45.99 -58.3,-45.99 -17.72,0 -27.44,0.3 -44.7,3.24 -8.66,1.47 -27.78,5.83 -34.98,5.83 -13.03,0 -21.33,-5.01 -32.32,-7.2 -5.56,-1.1 -12.13,-0.92 -17.74,-1.69 -3.59,-0.5 -6.52,-0.06 -9.07,0.29 -2.64,0.36 -13.03,0.24 -18.99,1.09l-54.06 4.89c-3.78,0.05 -5.34,0.67 -9.69,0.67z"/>
   <path class="fil1" d="M1830.58 935.39l-84.21 0c0,-14.75 3.29,-29.54 15.26,-37.86 11.37,-7.9 32.6,-7 45.51,-3.49 6.05,1.64 9.49,3.76 13.56,7.81 7.27,7.24 9.87,19.31 9.87,33.53zm39.52 45.35c-3.11,-0.72 -11.55,-6.06 -19.53,-6.24 -10.36,-0.23 -13.49,19.2 -58.2,19.2 -10.24,0 -22.98,0.87 -31.72,-4.55 -1.19,-0.74 -3.74,-2.61 -4.68,-3.74 -4.15,-5.04 -8.82,-17.65 -8.95,-23.44l129.56 0 0 -38.87c0,-30.93 -24.13,-45.14 -48.8,-52.25 -33.83,-9.76 -74.09,-1.94 -105.66,11.16 -10.58,4.39 -17.39,11.05 -20.39,21.71 -1.23,4.36 -0.99,7.58 -1.73,12.53l-0.28 21.11c0.16,2.88 0.64,3.11 0.68,6.45 0.1,8.11 -0.86,20.91 0.15,28.35 1.2,8.84 1.67,16.39 11.21,23.78 12.74,9.86 17.49,11.62 33.06,16.82 28.74,9.59 89.69,11.13 114.76,-14.01 4.84,-4.85 8.73,-10.32 10.52,-17.98z"/>
   <path class="fil1" d="M1246.26 920.49c0,-17.26 23.24,-28.5 39.52,-28.5 16.06,0 26.55,2.32 34.6,14.63 8.28,12.65 9.4,31.99 9.42,46.93 0.01,8.3 1.44,9.65 0.12,21.45 -1.75,15.62 5.48,11.06 -7.21,14.16 -26.4,6.45 -33.78,7.14 -61.16,0.25 -2.81,-0.71 -6.75,-1.21 -8.81,-2.2 -1.42,-6.08 -2.4,-24.81 -3.42,-32.85l-3.05 -33.87zm49.23 96.52c7.5,0 13.23,-0.68 20.08,-0.65 10.83,0.04 22.6,-1.35 29.81,-1.29 4.38,0.04 5.86,-0.63 9.68,-0.68 7.71,-0.09 13.09,-0.62 20.75,-0.62l0 -88.1c0,-17.54 -10.54,-34.09 -24.09,-43.28 -36.69,-24.87 -96.94,-17.09 -132.03,0.52 -9.81,4.93 -16.19,10.28 -18.93,22.52 -2.41,10.73 -1.1,35.44 -1.16,50.05 -0.02,4.29 0.68,5.58 0.69,9.68 0.02,17.5 0.26,30.9 22.17,40.66 20.49,9.12 49.14,11.18 73.03,11.18z"/>
   <path class="fil1" d="M905.52 892.64c15.57,0 25.25,2.98 36.12,13.76 14.28,14.17 12.37,31.75 12.47,50.38 0.02,4.75 -0.67,6.75 -0.67,10.99 -0.01,3.49 0.31,8.26 -0.07,11.59 -1.08,9.38 1.55,7.68 -2.33,8.63 -6.29,1.53 -13.23,2.69 -20.16,3.86 -12.57,2.12 -36.58,5.47 -48.42,-1.63 -9.5,-5.7 -13.14,-17.93 -13.23,-28.88 -0.06,-7.13 -1.04,-13.13 -0.63,-20.76 0.18,-3.34 0.67,-5.43 0.65,-9.71 -0.05,-12.71 -0.89,-21.14 11.56,-30.55 5.83,-4.41 16.64,-7.67 24.72,-7.67zm-19.43 124.38c14.05,0 26.8,0.11 40.81,-0.64l34.95 -1.97c4.07,-0.05 8.3,0.17 12.36,0.05l24.6 -0.67 0 -87.45c0,-10.31 -6,-21.47 -10.62,-27.6 -10.69,-14.18 -31.34,-24.85 -48.06,-29.03 -5.42,-1.35 -10.2,-2.49 -16.08,-3.35 -46.71,-6.83 -99.77,12.38 -105.24,65.25 -2.31,22.36 4.03,49.41 12.86,62.76 11.74,17.74 32.43,22.66 54.43,22.66z"/>
   <path class="fil1" d="M2208.9 937.34c0,21.99 -0.8,44.38 17.33,60.4 11.89,10.51 28.22,14.23 44.14,17.4 16.59,3.31 44.97,2.18 61.49,-0.18 9.3,-1.32 22.94,-3.95 30.69,-8.82 11.86,-7.45 12.93,-5.47 13.5,-13.06 0.27,-3.66 0.97,-8.79 1.27,-12.34 -2.79,-0.65 -5.62,-2.25 -8.31,-3.35 -19.8,-8.01 -16.89,4.4 -33.23,11.04 -13.69,5.56 -41.46,8.18 -56.48,1.58 -12.92,-5.68 -21.82,-22.27 -21.82,-37.77 0,-16.3 1.68,-26.8 8.63,-40.6 2.12,-4.22 5.62,-9.48 8.68,-12.69 3.03,-3.17 8.65,-7.13 13.29,-8.08 9.74,-2 29.1,0.85 37.02,3.47 20.16,6.67 20.33,14.8 48.1,9.72 3.53,-0.65 4.44,0.22 3.4,-2.76 -6.52,-18.67 -22.2,-25.44 -40.01,-30.76 -12.82,-3.83 -26.56,-3.81 -40.24,-3.81 -18.93,0 -47.2,7.63 -62.4,16.63 -18.02,10.67 -25.05,32.65 -25.05,53.98z"/>
   <path class="fil1" d="M2396.76 910.13c0,12.94 1.32,18.12 9.7,29.16 4.55,5.99 10.93,10.65 17.71,14.68 13.09,7.79 31.29,12.87 50.33,14.45 -2.07,8.9 -1.01,24.87 -16.29,26.51 -8.96,0.96 -28.06,-6.09 -50.82,-2.93 -3.59,0.5 -8.13,1.61 -11.28,1.68l0 13.6c4.86,1.13 8.56,2.08 13.2,3.64l12.47 4.38c2.38,0.74 4.39,1.1 6.64,1.78 2.07,0.62 4.15,1.11 6.83,1.59 28.29,5.06 63.37,-0.44 83.14,-19.97 22.79,-22.51 -4.51,-55.05 -25.74,-65.94 -22.46,-11.52 -40.36,1.37 -49.33,-25.82 -0.44,-1.32 -0.6,-2.67 -1.22,-3.97 2.13,-1.43 2.44,-2.16 5.25,-3.17 2.33,-0.84 4.54,-1.18 7.32,-1.75 12.65,-2.57 45.01,-1.56 59.33,-1.56l0 -19.43 -18.34 -1.75c-6.19,-1.03 -11.26,-2.29 -17.22,-3.51 -20.58,-4.19 -49.52,-1.92 -67.18,11.34 -6.47,4.86 -14.51,15.93 -14.51,26.95z"/>
   <path class="fil1" d="M1915.44 877.09l-25.91 0 0 19.43 25.91 0 0 117.25 45.99 0 0 -117.25 38.87 0 0 -19.43 -38.87 0c-0.08,-3.71 -1.11,-7.29 -0.55,-12.21 1.07,-9.48 1.71,-40.34 -2.77,-47.3 -2.88,-4.47 -8.96,-5.91 -16.11,-5.91l-26.56 0 0 65.43z"/>
   <path class="fil1" d="M1116.7 874.5c-6.5,0 -11.54,-0.82 -17.47,-1.31 -2.75,-0.23 -5.44,-0.72 -7.86,-1.21 -3.05,-0.61 -4.71,-1.36 -8.35,-1.36l0 143.16 52.47 0 0 -91.99c0,-27.86 35.98,-31.74 58.3,-31.74 0,-9.27 -2.29,-26.56 -14.25,-26.56 -12.7,0 -34.66,11.01 -62.84,11.01z"/>
   <path class="fil1" d="M2055.37 873.85c-12.65,0 -12.21,0.42 -24.66,-1.26 -4.08,-0.55 -7.82,-1.98 -11.62,-1.98l0 143.16 45.99 0 0 -92.64c0,-25.58 38.56,-31.09 58.3,-31.09 0,-9.89 -2.97,-26.56 -14.9,-26.56 -13.1,0 -34.3,10.37 -53.12,10.37z"/>
   <path class="fil1" d="M2142.82 1013.78l45.99 0 0 -136.69c-6.85,-0.57 -17.14,-1.08 -23.1,-2.81 -7.05,-2.05 -14.1,-3.66 -22.9,-3.66l0 143.16z"/>
   <path class="fil1" d="M1018.24 1013.78l45.99 0 0 -136.69c-26.03,0 -41.72,-6.48 -45.99,-6.48l0 143.16z"/>
   <path class="fil1" d="M1011.76 836.93c0,8.27 2.07,14.87 7.31,19.25 17.24,14.44 52.94,3.27 52.94,-16.66 0,-12.51 -16.09,-27.21 -31.74,-27.21 -14.05,0 -28.5,10.72 -28.5,24.62z"/>
   <path class="fil1" d="M2142.82 818.14l0 39.52c9.43,2.2 33.54,10.29 43.27,0.52 8.31,-8.35 9.2,-27.74 9.2,-40.03 -12.04,0 -18.1,-3.89 -36.28,-3.89 -5.67,0 -11.5,2.79 -16.2,3.89z"/>
  </g>
 </g>
</svg>
