<?xml version="1.0" encoding="UTF-8"?>
<!DOCTYPE svg PUBLIC "-//W3C//DTD SVG 1.1//EN" "http://www.w3.org/Graphics/SVG/1.1/DTD/svg11.dtd">
<!-- Creator: CorelDRAW -->
<svg xmlns="http://www.w3.org/2000/svg" xml:space="preserve" width="23.9804in" height="13.9241in" version="1.1" style="shape-rendering:geometricPrecision; text-rendering:geometricPrecision; image-rendering:optimizeQuality; fill-rule:evenodd; clip-rule:evenodd"
viewBox="0 0 2387.05 1386.03"
 xmlns:xlink="http://www.w3.org/1999/xlink"
 xmlns:xodm="http://www.corel.com/coreldraw/odm/2003">
 <defs>
  <style type="text/css">
   <![CDATA[
    .fil0 {fill:#0AA9E2}
    .fil1 {fill:white}
   ]]>
  </style>
 </defs>
 <g id="Layer_x0020_1">
  <metadata id="CorelCorpID_0Corel-Layer"/>
  <rect class="fil0" y="-0" width="2387.05" height="1386.03"/>
  <g id="_105553191750848">
   <path class="fil1" d="M881.79 758.75c-12.06,0 -17.74,-3.86 -17.74,-17.22l0 -82.96c0,-12.52 6.83,-12 19.3,-12 11.97,0 24.7,7.44 31.84,16.68 20.93,27.13 13.02,95.49 -33.4,95.49zm-60.52 -119.48c0,9.65 -0.64,4.43 8.69,7.48 3.28,1.07 5.02,2.08 6.12,5.35 2.17,6.41 0.83,28.09 0.83,37.77l0 43.3c0,17.15 3.3,26.67 -17.22,27.13 -0.83,3.56 -0.52,3.03 -0.52,7.3 7.74,0 13.61,0.52 21.39,0.52 22.18,0 36.08,0.54 58.29,-3.27 33.54,-5.75 57.53,-31.14 57.53,-64.55 0,-14.98 -2.23,-23.48 -8.83,-34.47 -11.4,-18.96 -30.56,-24.61 -51.78,-27 -27.48,-3.09 -45.69,-0.99 -70.91,-1.18 -1.94,-0.02 -3.61,-0.4 -3.61,1.61z"/>
   <path class="fil1" d="M1479.18 758.75c-14.21,0 -18.05,-4.83 -18.3,-19.31 -0.05,-2.87 0.59,-4.35 0.57,-7.82 -0.07,-11.74 -0.37,-76.12 0.18,-78.6 1.58,-7.09 12.3,-6.45 17.55,-6.45 13.22,0 25.55,6.81 33.18,16.91 6.62,8.77 11.55,24.24 10.77,38.56 -0.83,15.17 -2.47,25.96 -11.07,38.96 -7.18,10.86 -19.47,17.74 -32.87,17.74zm-61.04 -120.52c0,7.79 -0.83,6.61 6.13,7.96 8.41,1.63 10.04,3.98 10.04,16.57l0 81.39c0,5.34 -0.74,10.47 -3.77,12.93 -2.28,1.84 -9.75,3.25 -13.97,3.25l0 7.3c3.64,0 5.09,0.52 8.87,0.52l29.76 0.02c2.69,-0.03 2.87,-0.42 5.19,-0.55 18.27,-0.99 21.73,1.06 41.85,-4.06 29.5,-7.51 51.54,-32.43 51.54,-64.29 0,-31.48 -19.22,-52.93 -47.34,-58.57 -22.02,-4.42 -59.58,-2.99 -83.62,-2.99 -2.62,0 -2.33,0.46 -4.7,0.52z"/>
   <path class="fil1" d="M678.31 639.27c0,4.36 0.31,3.21 0.52,5.74 5.51,1.28 12.02,1.99 15.74,6.69 3.26,4.11 4.6,10.58 4.6,17.83l0 41.22c0.02,4.13 -0.55,6.13 -0.54,9.9 0.01,2.93 0.25,7.06 -0.06,9.85 -0.61,5.43 -0.51,21.21 -4.82,25.96 -1.71,1.88 -4.39,2.17 -7.11,2.81 -7.07,1.66 -6.26,1.15 -6.26,8.35l49.04 0c0,-8.13 0.78,-6.99 -6.64,-7.97 -11.08,-1.45 -11.72,-7.31 -12.76,-16.46 -1.84,-16.26 -1.47,-39.41 -1.47,-56.96 0,-5.74 0.52,-9.45 0.52,-15.13 3,2.01 24.45,27.86 27.13,31.3l21.53 25.95c1.96,2.2 3.51,4.26 5.44,6.56l21.48 26c4.6,5.76 5.66,8.8 15.72,8.8 2.57,0 1.35,-3.99 1.64,-6.71 1.25,-11.55 -0.12,-56.03 -0.09,-71.57 0,-3.23 0.55,-4.04 0.56,-7.27 0.01,-7.56 -0.18,-31.32 4.8,-35.38 2.58,-2.11 8.2,-3.42 12.4,-3.77l0 -7.3 -47.48 0c-2.48,0 -1.28,2.47 -1.11,4.74 0.28,3.73 -0.01,2.86 3.61,3.19 15.84,1.46 16.89,9.28 16.79,24.42l0.53 54.25c-3.36,-0.9 -7.76,-7.01 -10.21,-10.14l-26.16 -30.19c-1.05,-1.24 -1.19,-1.6 -2.37,-2.85l-35.71 -40.99c-0.92,-1.13 -1.17,-2.45 -2.77,-2.45l-34.96 0c-1.2,0 -1.57,0.36 -1.57,1.57z"/>
   <path class="fil1" d="M1275.7 638.23c0,4.17 -0.29,3.31 0.52,6.78 2.91,0.68 6.42,1.08 8.95,2.01 9.49,3.47 11.4,11.7 11.4,22.51 0,15.32 1.06,69.64 -2.92,82.65 -1.89,6.17 -9.27,8.14 -15.34,8.14l0 7.3 49.04 0c0,-11.57 0.41,-5.22 -10.64,-8.66 -3.8,-1.18 -6.05,-3.04 -7.32,-6.77 -1.23,-3.6 -2.4,-13.9 -2.41,-17.94 -0,-2.24 0.18,-5.08 -0.06,-7.25 -0.91,-8.09 -0.45,-44.4 -0.45,-55.38 3.64,2.44 15.45,16.8 18.9,20.75 13.02,14.93 31.38,37.44 43.83,52.69l18.93 23.33c1.91,2.15 1.52,1.31 10.17,1.31 2.14,0 1.03,-0.84 1.04,-6.78l0 -62.61c0,-7.54 0.7,-44.38 4.09,-49.64 2.53,-3.92 6.73,-5.14 13.12,-5.14 0.61,-1.27 2.59,-7.83 -0.52,-7.83l-47.48 0 0 7.3c2.2,0.18 5.07,1.12 7.38,1.49 5.49,0.89 9.63,1.79 11.37,7.41 0.83,2.67 0.8,4.93 1.23,8.16l1.41 49.72c0,5.08 -0.52,8.05 -0.52,13.04 -3.27,-2.19 -5.55,-5.54 -7.7,-7.95l-12.26 -13.83c-1.73,-1.82 -3.07,-3.76 -4.72,-5.72l-38.85 -44.63c-1.24,-1.25 -1.31,-1.59 -2.37,-2.85l-7.27 -8.38c-1.87,-2.03 -3.03,-3.78 -6.66,-3.78l-29.22 0c-2.62,0 -2.33,0.46 -4.7,0.52z"/>
   <path class="fil1" d="M1658.65 638.23l0 6.78c17.27,4.02 20.87,6 20.87,28.7 0,25.25 0.5,45.35 -1.58,70.42 -1.8,21.76 -17.2,12.36 -17.2,17.75 0,4.1 -0.57,5.74 1.56,5.74l48 0c0,-11.93 -0.22,-5.14 -10.9,-8.92 -3.29,-1.17 -6.2,-3.18 -7.45,-6.64 -2.14,-5.95 -2.53,-19.02 -2.52,-25.65 0.02,-9.79 -0.52,-18.42 -0.52,-27.65 0,-9.84 0.52,-17.84 0.52,-27.65 4.5,3.02 7.82,8.74 11.09,12.39 10.02,11.19 22.11,27.11 32.35,38.61 8.17,9.17 18.37,22.58 26.61,31.83 1.95,2.19 3.49,4.44 5.47,6.53 1.22,1.28 1.53,1.71 2.59,3.15 4.2,5.65 4.08,6.11 14.76,6.11l-0.01 -80.36 1.43 -25.18c1.6,-12.09 -0.5,-17.76 16.32,-19.16l0 -7.3 -48.52 0 0 7.83c5.78,0 12.34,1.03 15.74,4.08 1.24,1.11 2.68,3.67 3.24,5.63 0.82,2.86 0.68,5.09 1.15,8.25l1.26 49.35c0,4.74 -0.52,7.34 -0.52,12 -3.23,-2.17 -5.54,-5.5 -7.7,-7.95l-24.52 -27.65c-1.24,-1.24 -1.31,-1.59 -2.37,-2.85l-38.75 -44.72c-1.77,-2.29 -2.65,-3.95 -6.48,-3.95l-29.22 0c-2.62,0 -2.33,0.46 -4.7,0.52z"/>
   <path class="fil1" d="M1119.18 707.1c-1.66,0 -8.9,-0.78 -9.65,-1.3 -2.67,-1.86 -0.77,-37.55 -0.78,-40.43 -0.05,-12.34 -2.07,-19.31 8.87,-19.31 8.82,0 14.78,3.28 18.64,8.49 2.04,2.75 3.41,5.33 4.51,9.05 0.48,1.64 1.06,4.16 1.24,5.54 2.04,15.87 -2.95,37.96 -22.83,37.96zm-52.7 -67.83c0,11.54 1.42,2.98 11.32,9.02 5.24,3.2 3.53,10.96 3.9,15.92 1.14,15.35 0.43,53.41 0.43,71.06 0,20.58 -0.93,22.76 -11.1,24.37 -5.99,0.95 -6.11,0 -6.11,7.97l62.61 0c0,-8.65 0.79,-6.69 -8.59,-8.11 -3.9,-0.59 -5.92,-1.09 -7.71,-3.76 -4.74,-7.05 -2.48,-32.96 -2.48,-41.35 9.78,0 18.53,7.63 40.18,-3.13 3.89,-1.93 9.76,-6.11 12.45,-9.46 1.16,-1.44 2.11,-2.45 3.28,-4.02 15.61,-21.07 6.57,-59.28 -35.58,-59.55 -2.96,-0.02 -3.61,-0.55 -6.75,-0.55 -10.09,-0.01 -18.6,-0.45 -28.72,-0.51 -4.88,-0.03 -8.69,0.53 -14.08,0.53 -4.92,-0 -13.04,-1.03 -13.04,1.57z"/>
   <path class="fil1" d="M960.05 638.23l0 6.78c11.99,2.79 16.17,0.26 16.17,18.26l0 76.17c0,14.92 -0.57,20.87 -18.78,20.87l-0.52 7.3 101.22 0c1.81,0 1.48,-1.08 1.94,-2.76l3.06 -12.59c1.12,-5.04 2.83,-12.55 2.83,-18.04 -2.81,-0.06 -4.26,-1.04 -7.3,-1.04 -0.79,3.37 -7.61,15.44 -9.78,17.87 -7.2,8.09 -15.18,7.69 -26.22,7.69 -26.47,0 -17.32,-10.44 -19.45,-25.94 -1.19,-8.68 0.14,-18.49 0.14,-26.23 2.36,-0.05 2.07,-0.52 4.7,-0.52 7.23,0 19.55,-0.69 24.65,2.48 3.82,2.37 5.24,8.19 5.61,12.65 6.22,0 7.83,1.33 7.83,-1.04l0 -39.13c-8.71,0 -7.48,-0.86 -9.09,5 -1.9,6.93 -4.65,9.61 -14.39,9.61l-19.3 0c0,-3.8 -0.49,-5.66 -0.55,-8.86 -0.07,-3.85 0.57,-5.49 0.56,-9.4l-0.53 -22.44c0,-8.58 4.85,-8.35 14.61,-8.35 15.17,0 23.21,1.31 27.59,12.07 0.73,1.8 1.11,2.97 1.85,4.93 0.65,1.71 1.49,3.28 1.87,4.92 5.91,0 7.1,0.89 7.38,-2.05l-1.11 -18.83c0.03,-3.67 -0.53,-5.42 -0.53,-9.38 -4.22,0 -6.23,-0.55 -10.43,-0.53l-46.44 -0.52c-4.88,-0.01 -7.64,0.53 -12.52,0.52l-18.8 -0.01c-2.99,-0.01 -3.97,0.48 -6.25,0.53z"/>
   <path class="fil1" d="M1175 645.53c10.01,0 15.65,2.5 15.65,12l0 89.22c0,5.7 -1.42,9.26 -5.46,11.23 -1.63,0.79 -4.76,1.56 -6.61,1.74 -7.46,0.71 -6.71,-1.23 -6.71,7.9l101.22 0c1.8,0 1.5,-1.27 1.82,-2.87l2.66 -11.42c2.2,-8.7 2.82,-10.67 2.82,-19.62 -3.17,0 -3.81,-0.52 -6.78,-0.52 -0.33,1.24 -1.55,3.2 -2.31,4.47 -2.59,4.35 -5.05,10.81 -7.73,13.67 -6.82,7.28 -14.72,7.43 -24.92,7.43 -5.83,0 -12.55,-0.22 -16.36,-2.42 -4.46,-2.57 -4.51,-8.38 -4.51,-14.28l0 -34.43c0,-1.2 0.36,-1.57 1.57,-1.57 6.69,0 23.78,-0.75 28.28,2.5 4.76,3.44 4.39,10.86 5.63,12.11 1.08,1.08 5.62,0.52 7.3,0.52l0 -40.17 -7.3 0c-0.52,2.23 -1.05,4.34 -1.92,6.42 -5.15,12.29 -19.98,8.19 -33.55,8.19l0 -43.83c0,-2.85 1.7,-4.06 4.36,-4.51 8.9,-1.51 25.84,-1.27 32.41,3.74 2.48,1.89 4.11,5.08 5.35,8.22 4.19,10.61 2.11,9.25 9.54,9.25 2.33,0 1,-1.39 1.05,-6.79 0.03,-3.67 -0.55,-4.97 -0.54,-8.33 0.01,-3.63 -0.44,-5.43 -0.52,-8.35 -0.07,-2.39 1.04,-7.32 -1.55,-7.32l-92.87 0 0 7.83z"/>
   <path class="fil1" d="M1557.96 641.88l0 3.65c10.29,0 15.65,2.71 15.65,13.57l0 86.09c0,21.34 -18.78,10.79 -18.78,16.7l0 5.74 102.26 0c0.7,-8.37 6.26,-18.68 6.26,-33.91 -3.17,0 -3.81,-0.52 -6.78,-0.52 -10.23,19.34 -10.16,25.56 -34.96,25.56 -4.67,0 -12.18,-0.35 -15.46,-1.75 -4.29,-1.83 -5.41,-6.45 -5.41,-12.33l0 -38.61 19.3 0c11.81,0 13.36,4.85 15.31,12.86 0.44,1.82 0.31,2.41 4.22,2.45l3.95 -0.19 0 -40.17c-12.31,0 -5.31,-0.2 -10.44,8.86 -5.04,8.9 -20.36,5.74 -32.34,5.74 0,-12.77 -1.1,-22.52 -0.03,-35.51 0.16,-1.98 -0.05,-4.24 0.01,-6.25 0.08,-2.66 0.54,-2.86 0.54,-5.72 6.58,-1.53 12.35,-1.04 19.3,-1.04 15.14,0 18.6,3.68 22.51,13.49 3.64,9.14 2.4,7.9 10.36,7.9 0,-9.99 -1.57,-23.52 -1.57,-30.26l-68.37 0.02c-2.87,-0 -3.36,-0.41 -5.72,-0.54l-18.81 0.01c-2.79,0.57 -1.02,1.33 -1.02,4.16z"/>
   <path class="fil1" d="M1799 672.66c9.21,0 6.86,1.67 10.24,-8.55 6.36,-19.27 12.88,-17.02 35.16,-17.02l0 97.57c0,4.99 -0.71,9.8 -4.59,12.62 -2.26,1.64 -10.13,3.03 -14.19,3.03l0 7.3 65.22 0c0,-3.3 0.28,-4.54 -1.04,-7.3 -7.2,-1.68 -18.26,1.38 -18.26,-13.57l0 -99.65c8.17,0 16.56,-0.74 24.21,1.87 3.5,1.19 5.2,2.74 7.01,5.52 1.98,3.04 2.4,5.07 3.55,8.97 2.97,10.09 2.45,8.68 10.1,8.68l-0.52 -14.61c-0.12,-2.29 -0.47,-2.18 -0.54,-4.68 -0.05,-1.7 0.11,-3.55 0.02,-5.24 -0.12,-2.29 -0.47,-2.18 -0.54,-4.68l-0.51 -9.93c-13.22,0 2.63,4.7 -27.13,4.7 -9.87,0 -18.12,0.52 -28.17,0.52 -10.37,0 -19.23,-0.52 -29.22,-0.52 -5.55,0 -16.97,1.04 -20.29,-1.62 -0.75,-0.6 0.05,0.12 -0.78,-0.79 -2.46,-2.69 -2.23,-2.29 -7.1,-2.29l-2.61 39.65z"/>
   <path class="fil1" d="M573.44 655.97c0,5.87 4.16,13.59 -6.26,20.87 -1.22,0.85 -1.73,0.89 -2.61,2.08 -1.22,-0.82 -2.27,-1.34 -3.56,-2.18 -8.77,-5.71 -12.07,-11.91 -30.35,-11.91 -10.4,0 -28.45,5.93 -32.87,12.52 8.22,0 15.46,-1.12 22.74,0.21 26.68,4.89 4.66,36.32 -2.08,46.54 -2.94,4.46 -16.61,21.52 -20.8,25.64l-8.86 9.92c-2.92,3.16 -6.77,6.21 -9.34,9.44 -3.2,4.02 -8.16,7.63 -8.79,9.99l42.49 -19.6 11.35 -6.91c1.91,-1.2 3.38,-2.25 5.32,-3.55 3.77,-2.52 6.84,-4.65 10.54,-7.2l12.37 -9.55c1.13,-0.96 1.44,-0.99 2.59,-2.1l17.76 -18.24c16.04,-19.93 27.69,-40.5 30.99,-67.09 0.73,-5.87 0.67,-11.11 0.67,-17.59 -4.85,3.55 -3.92,15.06 -25.9,26.27 -1.98,1.01 -3.56,1.54 -5.4,2.43z"/>
   <path class="fil1" d="M617.27 640.84c0,2.62 0.47,2.34 0.52,4.7 5.77,0 13.48,1.35 15.17,7.26 1.65,5.78 1,74.55 1,83.52 0,13.16 0.58,20.12 -7.75,22.51 -1.87,0.54 -6.52,1.49 -8.95,1.49l0 7.3 60 0 0 -7.3c-6.26,0 -13.86,-1.28 -15.69,-7.79 -1.66,-5.93 -1.01,-76.43 -1.01,-85.6 0,-22.93 3.74,-18.89 16.7,-21.91l0 -7.3 -60 0 0 3.13z"/>
   <path class="fil1" d="M561.96 653.88c23.59,0 19.92,-31.3 2.61,-31.3 -18.64,0 -22.6,21.31 -9.11,29.46 2.05,1.24 3.42,1.84 6.5,1.84z"/>
   <path class="fil1" d="M1358.13 609.01l2.61 14.08c0.6,2.6 0.6,2.07 2.61,3.13 0.73,-2.72 1.22,-0.42 2.88,-9.12 0.5,-2.62 -0.31,-1.71 1.29,-2.88 0,5.01 1.12,9.95 4.17,12 2.42,-4.57 4.17,-11.25 4.17,-18.26 -2.48,0.21 -1.9,0.21 -2.91,5.43 -0.37,1.88 -0.86,5.64 -1.78,7.09 -1.3,-5.6 -0.66,-10.17 -4.17,-12.52 -1.96,1.31 -1.95,1.94 -2.4,4.9 -0.45,3.01 -0.68,4.13 -1.25,6.57l-1.04 0c-0.08,-3.56 -0.92,-9.65 -3.65,-11.48 -0.01,0.01 -0.52,0.97 -0.52,1.04z"/>
   <path class="fil1" d="M1206.31 613.7l0.52 12c3.27,-0.27 2.09,-2.18 2.09,-10.96l1.25 2.92c0.4,1.23 0.57,1.92 1.05,3.13 0.96,2.43 1.54,3.63 3.44,4.91l4.17 -10.96c0,2.08 -0.06,4.22 -0.03,6.29 0.04,2.43 0.18,3.64 1.59,4.67 1.36,-2.84 1.36,-14.27 0.6,-16.26 -0.76,-2.01 -0.25,-1.43 -2.69,-1.48l-4.17 13.04c-0.47,-2.02 -1.55,-3.56 -2.28,-6.07 -0.74,-2.53 -1.33,-4.55 -1.9,-6.97l-2.61 0c-0.46,1.97 -1.04,3.26 -1.04,5.74z"/>
   <path class="fil1" d="M1478.65 618.4c0,5.17 -2.46,7.2 2.09,7.3l0 -10.96c2.24,2.58 1.41,6.05 4.7,10.96 1.71,-1.15 2.24,-2.5 2.92,-4.91 0.62,-2.23 0.74,-3.73 2.3,-5.53 0,3.36 -1.53,9.47 2.09,10.43 0.05,-2.36 0.52,-2.07 0.52,-4.7l0 -7.3c0,-2.9 -0.52,-3.09 -0.52,-5.74 -6.95,0.58 -2.72,10.64 -7.83,12 -0.17,-2.02 -1.27,-4.86 -1.86,-7.01 -0.77,-2.82 -0.75,-4.73 -3.88,-4.99 -0.34,1.46 -0.97,3.14 -1.05,4.73 -0.11,2.41 0.52,2.85 0.52,5.71z"/>
   <path class="fil1" d="M1511.52 617.88c0,4.84 0.03,3.47 1.04,7.83l1.04 0c0,-4.61 0.52,-7.23 0.52,-11.48 2.44,2.81 2.17,2.72 3.83,6.09 1.18,2.41 1.91,5.13 5.04,5.39 0.05,-2.36 0.52,-2.07 0.52,-4.7l0 -8.35c0,-2.62 -0.47,-2.34 -0.52,-4.7 -2.85,0.66 -2.17,0.99 -2.11,4.67 0.04,2.27 0.02,4.54 0.02,6.8 -1.82,-1.22 -2.63,-3.76 -3.95,-5.96 -0.88,-1.46 -1.09,-2.24 -1.68,-3.54 -0.86,-1.92 -0.75,-1.92 -3.24,-1.98 0,3.98 -0.52,5.82 -0.52,9.91z"/>
   <path class="fil1" d="M1799.52 610.57l0.23 12.81c0.6,2.97 -0.21,1.7 1.33,2.32 0.66,-1.38 1.04,-8.58 1.04,-10.96 3,2.2 4.11,9.96 7.83,10.96 1.19,-2.47 3.18,-16.61 -1.04,-17.74 0,4.03 -0.52,6.91 -0.52,11.48 -1.35,-1.55 -2.45,-4.56 -3.48,-6.43 -1.16,-2.1 -2.42,-4.48 -4.87,-5.05 -0.27,1.17 -0.52,1.2 -0.52,2.61z"/>
   <path class="fil1" d="M1331 611.62l0 9.39c0,2.62 0.47,2.34 0.52,4.7 3.02,-2.21 1.57,-7.49 1.57,-12 0.28,0.32 0.58,0.63 0.94,1.14 0.59,0.83 0.45,0.63 0.98,1.63 1.36,2.57 3.6,8.47 6.43,9.23 1.78,-3.37 1.04,-7.96 1.04,-13.57 0,-2.17 -0.32,-3.26 -1.57,-4.17 -1.3,2.72 -1.04,7.42 -1.04,11.48 -0.59,-0.68 -0.24,-0.17 -0.87,-1.22l-2.62 -5.21c-1.16,-2.1 -2.42,-4.48 -4.87,-5.05 -0.14,1.63 -0.52,1.85 -0.52,3.65z"/>
   <path class="fil1" d="M1758.31 623.62l-4.17 0 0 -5.74 5.74 0.52c0.24,1.01 1.69,5.22 -1.57,5.22zm-1.57 -7.83l-2.09 0 0 -5.74 2.61 0c2.64,0 3.14,0.92 2.86,2.75 -0.35,2.27 -1.09,2.99 -3.38,2.99zm-4.7 9.91c1.09,0.09 7.54,1.7 10.05,-1.99 1.59,-2.34 0.23,-5.06 -1.7,-6.36 0.85,-1.27 1.94,-1.92 2.26,-3.89 0.22,-1.34 -0.58,-3.65 -1.22,-4.98 -3.81,-0.89 -4.85,-0.52 -9.39,-0.52l0 17.74z"/>
   <path class="fil1" d="M1316.39 623.62l-2.61 0 0 -13.57c6.57,0 6.78,0.72 6.78,8.35 0,3.11 -1.06,5.22 -4.17,5.22zm-5.22 -14.61c0,22.01 -2.18,16.7 8.87,16.7 1.15,-2.16 3.13,-5.03 3.13,-8.35 0,-2.38 -1.04,-6.37 -2.19,-7.72 -1.23,-1.45 -9.81,-4.08 -9.81,-0.63z"/>
   <path class="fil1" d="M1739.52 623.62l-5.22 0c1.11,-1.98 0.52,-10.78 0.52,-13.57 2.89,0 3.47,0.47 5.74,0.52 0.47,5.62 2.77,5.83 -1.04,13.04zm-7.3 -14.61l0 16.7 7.83 0c3.58,0 8.98,-18.26 -4.7,-18.26 -2.11,0 -3.13,-0.29 -3.13,1.57z"/>
   <path class="fil1" d="M1717.09 621.53c0,2.4 0.22,3.67 2.09,4.17 0,-2.09 0.02,-4.18 -0.01,-6.27 -0.03,-2.8 -0.57,-4.02 1.05,-5.21 0.18,0.77 6.52,15.35 7.77,9.95 0.79,-3.42 0.58,-10.79 0.58,-14.64 0,-1.58 -0.61,-1.44 -2.09,-1.57 0,4.1 0.26,8.13 -0.52,11.48 -1.91,-2.19 -2.36,-3.66 -3.65,-6.26 -1.86,-3.75 -1.87,-5.14 -5.22,-5.22l0 13.57z"/>
   <path class="fil1" d="M1277.96 616.33l-5.39 -0.01c0.78,-3.37 0.52,-2.22 0.52,-6.26l5.22 0.52 -0.35 5.75zm-7.48 -7.32l0 16.7 2.09 0 0 -6.78c6.64,0 2.91,3.94 6.81,6.34 0.14,0.09 0.47,1.37 1.13,-0.15 0.22,-0.52 -0.01,-1.15 -0.38,-2.18 -0.6,-1.72 -1.12,-2.67 -1.83,-4.01 2.61,-3.9 3.91,-5.54 1.04,-10.96 -7.21,0 -8.87,-1.19 -8.87,1.04z"/>
   <path class="fil1" d="M1612.22 624.14c-5.56,0 -4.7,-3.17 -4.7,-9.39 0,-7.52 7.83,-6.33 7.83,-0.52 0,2.75 -0.06,9.91 -3.13,9.91zm-7.3 -6.78c0,5.48 3.49,11.75 9.4,8.36 4.36,-2.5 6.53,-18.27 -3.66,-18.27 -4.13,0 -5.74,5.69 -5.74,9.91z"/>
   <path class="fil1" d="M1560.57 625.7c1.19,-2.47 1.04,-4.98 1.04,-7.83 6.59,0 6.26,-0.55 6.3,3.09 0.03,2.74 -0.02,2.56 0.48,4.74 1.99,-0.53 1.2,-0.04 1.75,-1.9 0.54,-1.83 0.34,-8.82 0.34,-11.14 0,-2.55 -0.55,-3.67 -2.09,-4.7 -0.83,3.56 -0.52,3.03 -0.52,7.3l-6.26 0c0,-3.54 0.57,-6.6 -2.09,-7.3 -1.5,3.13 -0.88,10.2 -0.45,14.02 0.21,1.87 0.23,2.79 1.5,3.72z"/>
   <path class="fil1" d="M1452.57 615.79c-1.53,0.36 -4.09,0.91 -5.74,1.04 1,-1.78 0.52,-4.71 0.52,-6.78l4.7 0.52c0.87,1.81 1.4,3.25 0.52,5.22zm-8.35 -2.09c0,8.33 -0.53,5.26 1.04,12l1.57 -6.78c7.57,0 2.39,6.29 8.35,6.78 -5.31,-11.06 0,-6.4 0,-13.04 0,-3 -1.44,-2.27 -2.09,-4.7l-8.35 0c0,2.64 -0.52,2.84 -0.52,5.74z"/>
   <path class="fil1" d="M1504.74 624.14l-4.17 0c-0.25,-1.05 -6.31,-14.61 3.13,-14.61 2.53,0 4.77,9.04 1.04,14.61zm-8.35 -8.87c0,7.46 -0.01,10.96 7.83,10.96 5.49,0 7.42,-18.78 -1.04,-18.78 -4.84,0 -6.78,2.97 -6.78,7.83z"/>
   <path class="fil1" d="M1226.66 618.4c0,-8.52 1.97,-8.87 5.22,-8.87 4.1,0 4.45,14.61 -0.52,14.61 -3.07,0 -4.7,-2.83 -4.7,-5.74zm-2.09 -2.61c0,5.8 0.29,10.44 7.3,10.44 7.69,0 6.16,-18.78 1.04,-18.78l-4.17 0c-2.3,0 -4.17,5.84 -4.17,8.35z"/>
   <path class="fil1" d="M1707.7 612.14c1.58,1.16 2.09,4.1 2.09,6.78l-3.65 0c0.53,-2.27 1.5,-4.06 1.57,-6.78zm-5.22 13.57c2.63,-0.61 2.5,-1.49 3.13,-4.17l5.22 0c0.51,2.17 0.55,3.63 2.61,4.17 0.99,-4.15 -0.04,-3.72 -1.77,-10.75 -0.37,-1.51 -0.68,-3.21 -1.18,-4.56 -0.77,-2.08 -1.09,-2.06 -2.78,-2.95 -2.44,4.6 -5.22,12.95 -5.22,18.26z"/>
   <path class="fil1" d="M1399.35 615.79c-2.3,0.05 -2.44,0.52 -5.22,0.52 0,-4.84 0.28,-3.41 0.52,-6.26 2.78,0 2.92,0.47 5.22,0.52 0,2.78 -0.46,2.9 -0.52,5.22zm-7.83 2.09c0,8.12 -0.63,7.75 2.61,7.83l0 -6.78c7.26,0 8.35,-2.35 8.35,-7.83 0,-3.06 -5.56,-3.65 -8.87,-3.65 -2.26,0 -1.45,2.16 -1.73,4.54 -0.2,1.76 -0.36,3.34 -0.36,5.9z"/>
   <path class="fil1" d="M1771.35 626.23c4.73,0 4.5,-1.29 5.11,-2.72 1.15,-2.72 2.74,-14.56 -0.94,-15.55l-0.94 14.19c-0.69,1.48 0.39,0.39 -1.28,1.33 -5.87,3.32 -4.35,-6.96 -4.56,-10.83 -0.11,-2.01 -0.52,-2.55 -0.52,-4.69 -3.23,0.86 -2.48,7.38 -2.18,10.01 0.48,4.3 0.84,8.25 5.31,8.25z"/>
   <path class="fil1" d="M1469.79 612.66c0.22,2.64 1.35,3.62 1.57,6.26l-3.65 0c0.19,-2.27 0.62,-5.19 2.09,-6.26zm-6.26 13.04c2.04,-0.17 2.87,-1.04 3.13,-4.17l5.74 0c0,2.75 -0.02,3.95 2.61,4.17 0,-4.35 -2.38,-16.01 -5.74,-18.26 -2.27,1.97 -2.23,4.32 -3.43,8.57 -0.73,2.59 -2.25,7.22 -2.31,9.69z"/>
   <path class="fil1" d="M1302.83 612.14c0.04,1.72 1.01,5.63 1.57,6.78l-4.17 0c1.11,-2.31 0.69,-5.38 2.61,-6.78zm-6.26 11.48c0,1.19 0.18,0.61 0.52,2.09l1.04 0c0.46,-1.99 1.1,-2.18 1.57,-4.17l5.22 0c1.18,2.46 -0.48,3.87 3.13,4.17 0,-5.85 -3.14,-14.33 -5.22,-18.26 -2.79,1.87 -2.92,3.26 -3.87,7.09 -0.35,1.4 -2.39,8.74 -2.39,9.08z"/>
   <path class="fil1" d="M1409.79 612.66c0.06,2.61 0.99,3.65 1.04,6.26l-3.65 0c0.47,-2.01 1.16,-5.2 2.61,-6.26zm-6.26 12c0,0.95 -0.03,0.06 0.52,1.04 1.67,-0.44 0.88,0.04 1.69,-1.44 0.18,-0.34 0.76,-2.04 0.92,-2.73l5.22 0c0.6,2.59 0.13,3.51 2.61,4.17 1.1,-2.28 -1.02,-7.06 -1.68,-9.8 -1,-4.15 -0.69,-6.21 -4.06,-8.46 -2.1,3.97 -5.22,13.25 -5.22,17.22z"/>
   <path class="fil1" d="M1188.57 610.05c0,17.69 -1.03,16.17 6.26,16.17 1.93,0 2.36,-0.51 3.13,-1.57 -0.79,-0.38 -5.59,-0.94 -6.78,-1.04l0 -5.74 4.7 0c1.99,0 0.19,0.16 1.57,-0.52 -0.62,-2.65 0.16,-2.09 -6.26,-2.09l0 -5.22 6.78 0c-0.08,-3.6 -0.44,-2.61 -8.87,-2.61 -0.27,1.17 -0.52,1.2 -0.52,2.61z"/>
   <path class="fil1" d="M1675.87 612.66l1.26 2.91c0.46,1.38 0.7,1.84 0.82,3.35l-3.65 0c0.49,-2.1 1.08,-4.16 1.57,-6.26zm-1.04 8.87l4.17 0c0.06,2.61 0.5,3.61 2.61,4.17 0.5,-1.05 -1.86,-15.66 -5.74,-18.26 -1.79,2.67 -6.6,17.37 -4.98,18.02 2.32,0.92 1.49,-3.93 3.94,-3.93z"/>
   <path class="fil1" d="M1597.61 616.31l-3.13 0 0 -6.26c5.63,0 4.76,-0.34 5.29,2.02 0.16,0.71 0.39,2.42 0.45,3.2 -2.21,0.59 -0.91,1.04 -2.61,1.04zm-5.74 -8.35c0,5.68 -0.88,13.73 1.04,17.74 1.9,-1.39 1.57,-3.59 1.57,-6.78 3.81,-0.89 7.4,0.03 8.18,-4.36 0.25,-1.44 -0.27,-3.91 -0.99,-4.91 -2.45,-3.4 -7.58,-1.91 -9.8,-1.68z"/>
   <path class="fil1" d="M1526.65 615.79c0,4.63 2.49,10.44 4.17,10.44 3.17,0 3.81,-0.52 6.78,-0.52l0.52 -9.39 -4.7 0c0.88,3.28 3.21,0.78 1.57,7.83 -7.44,1.73 -6.68,-8.88 -3.65,-14.61 2.48,0 4.54,0.31 6.26,-0.52 -3.29,-4.49 -10.96,-1.46 -10.96,6.78z"/>
   <path class="fil1" d="M1425.96 615.79l-5.22 0.52 0 -6.26c1.24,0 8.32,-1.19 5.22,5.74zm-7.83 -7.83l0 14.61c0,1.93 0.51,2.36 1.56,3.13 0.34,-1.46 0.68,-1.58 0.91,-2.74 0.25,-1.3 0.13,-2.71 0.13,-4.04 3.94,-0.92 7.45,0.18 8.17,-4.36 1.52,-9.52 -10.22,-6.61 -10.78,-6.59z"/>
   <path class="fil1" d="M1901.26 607.97l0 16.7c0,2.18 1.81,1.57 6.26,1.57 1.93,0 2.36,-0.51 3.13,-1.57l-6.77 -1.16 -0.02 -5.63c3.08,0 4.56,0.39 5.22,-2.09l-5.2 -0.62 -0.01 -5.12c3.38,0 4.5,0.42 6.78,-1.57 -1.85,-0.15 -4.11,-1.04 -5.74,-1.04 -1.89,0 -1.25,0.46 -3.65,0.52z"/>
   <path class="fil1" d="M1431.7 607.97l0 17.74 7.83 0.52c1.99,0 0.19,0.16 1.57,-0.52 -0.87,-2.17 -3.78,-1.56 -7.3,-1.56 0,-3.17 0.52,-3.81 0.52,-6.78l5.22 0 0 -2.09 -5.22 0 0 -5.22c2.87,0 5.36,0.38 6.78,-1.57 -3.8,-1.83 -6.57,-0.82 -9.39,-0.52z"/>
   <path class="fil1" d="M1858.48 607.97l0 17.74c2.23,0.19 7.95,1.89 8.87,-1.56 -3.17,0 -4.18,-0.52 -6.78,-0.52 0,-4.36 0.31,-3.21 0.52,-5.74 2.78,0 2.92,-0.47 5.22,-0.52l0 -1.57c-2.65,0 -2.84,-0.52 -5.74,-0.52 0,-3.94 0.33,-2.92 0.52,-5.22 3.42,0 4.73,0.52 6.26,-1.57 -8.43,-1.96 -4.57,-0.63 -8.87,-0.52z"/>
   <path class="fil1" d="M1346.13 607.97l-0.05 14.65c-0.03,4.07 -0.36,3.61 5.26,3.61 2.17,0 3.26,-0.32 4.17,-1.57 -2.31,-0.05 -3.69,-0.52 -6.78,-0.52 -1.95,-4.06 -0.59,-3.79 -0.52,-6.78 4.04,0 3.93,0.38 5.74,-0.52 -1.07,-2.02 0.98,-1.57 -5.74,-1.57 0.84,-1.49 0.52,-2.64 0.52,-5.22 3.9,0 5.26,0.51 6.78,-1.57 -2.38,-0.55 -5.94,-1.86 -9.39,-0.52z"/>
   <path class="fil1" d="M1839.7 612.66c0,7.87 9.46,1.7 7.3,10.96 -2.15,0.5 -5.77,0.31 -7.3,1.04 2.61,3.89 9.91,1.69 9.91,-3.13 0,-8.55 -7.3,-3.07 -7.3,-9.91 0,-1.6 1.53,-2.09 3.13,-2.09 2.78,0 1.75,1.79 3.65,-1.04 -4.09,-2.16 -9.39,-2.12 -9.39,4.17z"/>
   <path class="fil1" d="M1284.57 625.7c2.9,0.24 7.94,1.9 8.87,-1.56 -3.16,0 -4.42,-0.33 -6.78,-0.52l0 -5.74c2.89,0 3.47,-0.47 5.74,-0.52l0 -1.57 -5.74 -0.52 0 -5.22c3.9,0 5.26,0.51 6.78,-1.57 -3.78,-0.88 -2.88,-1.04 -7.3,-1.04 -1.82,0 -1.6,1.28 -1.62,3.07l0.06 15.19z"/>
   <path class="fil1" d="M1780.22 611.62c0,7.34 6.03,4.24 7.52,8.71 0.57,1.69 0.44,0.59 -1.26,3.81 -3.17,0 -5.05,-0.5 -5.74,2.09 2.11,0 4.61,0.26 6.5,-0.28 1.47,-0.42 3.41,-2.18 3.41,-3.37 0,-9.04 -7.79,-4.78 -8.35,-11.48 1.01,-0.53 1.9,-1.04 3.35,-1.35 2.1,-0.44 2.22,0.09 3.96,-0.74 -2.35,-3.21 -9.39,-1.38 -9.39,2.61z"/>
   <path class="fil1" d="M1826.65 614.75c7.17,4.8 7.83,2.95 7.83,7.3 0,4.14 -4.78,-0.12 -7.3,3.65 3.84,1.84 9.91,0.54 9.91,-4.17 0,-8 -7.83,-2.29 -7.83,-10.96 1.24,-0.29 2.22,-0.73 3.27,-0.9 2.22,-0.36 2.22,0.2 4.03,-0.67 -1.32,-1.79 -3.24,-1.57 -5.74,-1.57 -4.82,0 -2.71,4.26 -4.17,7.3z"/>
   <path class="fil1" d="M1239.7 611.62c0,7.76 6.36,3.62 7.83,9.91 -0.58,4.51 -6.25,0.76 -7.3,4.7 5.81,0 8.24,0.51 9.22,-2.79 0.21,-0.7 0.56,-3.14 0.53,-3.43 -0.42,-4.08 -8.18,-4.27 -8.18,-7.86 0,-3.28 5.06,-2.05 7.3,-3.13 -2.02,-2.76 -9.39,-2.07 -9.39,2.61z"/>
   <path class="fil1" d="M1385.79 621.01c0,1.41 -0.25,1.44 -0.52,2.61 -3.83,0.89 -5.75,-0.23 -6.78,2.61 8.11,0 9.39,0.82 9.39,-5.74 0,-5.11 -5.5,-4.36 -7.83,-7.83 0.37,-1.6 0.81,-2.01 1.57,-3.13 2.43,0 4.03,0.3 5.74,-0.52 -2.75,-3.75 -11.92,-1.01 -8.53,5.91 1.37,2.79 6.97,2.91 6.97,6.09z"/>
   <path class="fil1" d="M1173.44 616.31l0.52 9.39 1.57 0 0 -8.35 7.3 0c0,4.36 -0.33,4.19 0.52,7.83l1.57 0c0,-3.32 -0.55,-4.36 -0.53,-7.81 0.01,-2.96 0.01,-5.92 0.01,-8.88 -1.13,1.63 -1.57,4.48 -1.57,6.78l-6.78 0c0,-4.27 0.31,-3.74 -0.52,-7.3l-1.04 0c-0.25,2.99 -1.04,4.68 -1.04,8.35z"/>
   <path class="fil1" d="M1573.61 626.23l7.05 -0.26c2.46,-0.56 1.23,0.21 2.34,-1.31 -2.99,0 -3.96,-0.52 -7.3,-0.52l0 -6.78 5.74 -0.52c-1.07,-2.02 0.98,-1.57 -5.74,-1.57 0,-2.78 0.47,-2.92 0.52,-5.22 2.67,0 4.88,0.32 6.26,-1.57 -1.83,-1.03 -6.59,-0.52 -8.87,-0.52l0 18.26z"/>
   <path class="fil1" d="M1814.65 607.97l0 17.22c3.41,0 5.07,0.52 8.87,0.52 -1.53,-2.09 -2.84,-1.56 -6.26,-1.56 -1.95,-4.06 -0.59,-3.79 -0.52,-6.78 4.04,0 3.93,0.38 5.74,-0.52 -1.27,-2.39 0.26,-1.03 -1.61,-1.52 -0.5,-0.13 -2.92,-0.05 -3.61,-0.05l0 -5.22c2.4,0 3.52,0.26 5.24,-0.5 0.76,-0.34 1.05,-0.63 1.55,-1.06 -2.38,-0.55 -5.94,-1.86 -9.39,-0.52z"/>
   <path class="fil1" d="M1656.05 616.84c0,3.13 0.85,6.88 3.33,8.67 2.59,1.87 5.82,1.32 8.15,0.2 -0.58,-1.36 -0.55,-0.23 0,-1.56l-6.78 0c-2.44,-3.64 -2.09,-5.17 -2.09,-9.91 0,-4.77 4.55,-4.33 8.35,-5.22 -2.39,-3.26 -10.96,-2.28 -10.96,7.83z"/>
   <path class="fil1" d="M1871 609.53c0,16.75 -1.68,16.7 5.74,16.7 2.12,0 2.7,-0.48 3.13,-2.09 -2.85,-0.24 -1.42,-0.52 -6.26,-0.52l0.53 -8.87c0.01,-2.15 -0.87,-4.67 -1.05,-6.78 -1.47,0.12 -2.09,-0.01 -2.09,1.57z"/>
   <path class="fil1" d="M1620.57 622.05l0 3.65c3.72,0 5.43,0.52 9.39,0.52 -2.12,-3.16 -2.46,-2.61 -6.78,-2.61l0 -12c0,-1.9 -0.62,-1.83 -1.04,-3.65 -3.1,2.27 -1.57,9.51 -1.57,14.09z"/>
   <path class="fil1" d="M1546.48 608.49c0.92,1.26 1.04,1.39 3.13,1.57 0,3.79 0.34,12.64 1.04,15.65 3.59,-0.96 1.33,-7.21 1.57,-9.39l0.62 -6.25c1.99,-0.19 2.11,-0.32 3.03,-1.58 -2.96,-1.42 -6.45,-1.46 -9.39,0z"/>
   <path class="fil1" d="M1888.74 609.01c5.19,1.21 3.65,2.62 3.65,16.7 2.91,-0.06 2.65,0.72 2.61,-6.26 -0.02,-3.13 -0,-6.26 -0,-9.39 1.63,-0.38 2.47,-0.53 3.65,-1.57 -2.84,-0.66 -7.83,-2.32 -9.91,0.52z"/>
   <path class="fil1" d="M1164.57 619.44c0,3.05 0.07,4.91 2.09,6.26l0.52 -15.13c1.75,-0.41 2.74,-0.84 3.65,-2.09 -2.36,-1.13 -12.78,-2.05 -9.48,1.01 1.77,1.63 2.16,-0.66 3.49,1.35 0.5,0.75 -0.28,6.68 -0.28,8.6z"/>
   <path class="fil1" d="M1252.74 610.05c2.18,-0.05 2.49,-0.83 3.26,0.39 0.78,1.22 0.39,13.31 0.39,15.27 2.56,-0.6 2.13,0.21 2.09,-6.26 -0.02,-2.95 -0,-5.92 -0,-8.87 1.24,-0.65 2.13,-1.21 3.65,-1.57 -1.3,-1.78 0.42,-0.51 -1.92,-1.21l-6.43 -0.36c-2.04,0 -1.19,0.9 -1.04,2.61z"/>
   <path class="fil1" d="M1638.31 608.49l3.64 2.11 0.01 15.11c4.56,-1.22 1.73,-9.28 2.09,-13 0.5,-5.11 2.7,-1.2 3.65,-4.74 -2.16,-0.05 -2.27,-0.61 -4.48,-0.34 -1.67,0.21 -3.41,0.73 -4.91,0.86z"/>
   <path class="fil1" d="M1685.26 621.53l0 4.17c3.41,0 5.07,0.52 8.87,0.52 -0.49,-2.09 -0.3,-2.61 -6.26,-2.61 -1.3,-8.85 -0.32,-4.57 -0.01,-9.96 0.13,-2.18 -0.62,-3.92 -1.04,-5.69l-1.57 13.57z"/>
   <path class="fil1" d="M1793.78 610.57c0,6.27 -1.1,13 2.09,15.13 0.79,-9.53 0.79,-8.21 0,-17.74l-1.57 0c-0.27,1.17 -0.52,1.2 -0.52,2.61z"/>
   <path class="fil1" d="M1883.52 611.62l0 12.52c0,1.99 -0.16,0.19 0.52,1.56 2.83,-1.9 2.09,-6.86 2.09,-11.48 0,-2.78 -0.47,-5.08 -2.09,-6.26 -0.14,1.63 -0.52,1.85 -0.52,3.65z"/>
   <path class="fil1" d="M1652.39 625.7c1.09,-2.26 0.25,-6.68 0.74,-9.7 0.46,-2.85 1.15,-7.26 -1.78,-8.04 -0.32,3.84 -1.25,5.07 -0.66,8.99 0.36,2.42 -0.17,6.29 0.32,7.52 0.81,2.01 -0.14,0.67 1.38,1.22z"/>
   <path class="fil1" d="M1632.57 615.27c0,3.32 -0.23,8.74 2.09,10.43 0.32,-1.38 0.46,-1.7 0.69,-3.51l-0.36 -12.98c-0.88,-2.07 0.27,-0.65 -1.37,-1.25 -0.7,1.45 -1.04,5.01 -1.04,7.3z"/>
  </g>
 </g>
</svg>
