<?xml version="1.0" encoding="UTF-8"?>
<!DOCTYPE svg PUBLIC "-//W3C//DTD SVG 1.1//EN" "http://www.w3.org/Graphics/SVG/1.1/DTD/svg11.dtd">
<!-- Creator: CorelDRAW -->
<svg xmlns="http://www.w3.org/2000/svg" xml:space="preserve" width="321.553mm" height="124.995mm" version="1.1" style="shape-rendering:geometricPrecision; text-rendering:geometricPrecision; image-rendering:optimizeQuality; fill-rule:evenodd; clip-rule:evenodd"
viewBox="0 0 2185.48 849.55"
 xmlns:xlink="http://www.w3.org/1999/xlink"
 xmlns:xodm="http://www.corel.com/coreldraw/odm/2003">
 <defs>
  <style type="text/css">
   <![CDATA[
    .fil1 {fill:none}
    .fil0 {fill:#0095D9}
   ]]>
  </style>
 </defs>
 <g id="Layer_x0020_1">
  <metadata id="CorelCorpID_0Corel-Layer"/>
  <g id="_105553435390464">
   <g>
    <path class="fil0" d="M991.97 248.29l75.12 0c14.24,0 28.42,5.92 36.04,12.69 18.99,16.88 19.02,38.87 11.6,61.33l-13.54 37.21c-1.22,3.62 -2.11,5.85 -3.37,9.49l-57.69 158.2c-4.67,12.49 -8.98,25.02 -13.54,37.22 -2.4,6.43 -4.53,12.69 -6.78,18.94 -1.1,3.07 -2.29,6.43 -3.47,9.39 -0.91,2.29 -2.85,7.19 -3.38,9.48l-85.27 0c0.76,-3.27 1.88,-5.94 3.1,-9.08 1.31,-3.4 2.21,-6.06 3.42,-9.44l20.64 -56.51c4.51,-12.54 9.13,-24.92 13.7,-37.73l44.68 -122.49c1.26,-3.64 2.15,-5.86 3.37,-9.49l13.7 -37.73c2.11,-6.08 4.29,-12.99 7.03,-18.69l-64.97 0c-1.27,2.65 -2.27,5.98 -3.38,8.8l-65.23 179.09c-10.95,31.57 -22.99,62.96 -34.33,94.25 -2.23,6.16 -5.14,12.36 -6.69,19.03l-85.27 0c0.27,-3.21 1.81,-5.97 2.79,-8.71 1.04,-2.89 2.27,-6.13 3.21,-8.97 1.09,-3.27 2.01,-5.54 3.21,-8.97l9.64 -26.23c2.3,-6.17 4.06,-11.64 6.47,-17.89l12.82 -35.23c4.11,-12.2 8.92,-23.49 13.04,-35.69 7.05,-20.91 15.05,-41.38 22.5,-62.1l22.68 -61.92c10.4,-29.98 21.6,-59.03 32.31,-88.83l38.59 -106.24c2.12,-5.68 4.45,-12.11 6.57,-17.79l25.73 -71.05c1.92,-5.33 5.7,-12.5 6.18,-18.19 -1.77,0.85 -5.41,1.62 -7.84,2.32 -20.73,5.92 -41.79,14.29 -60.75,23.85l-14.21 7.45c-19.59,9.62 -46.86,28.02 -63.24,42.34 -9.49,8.3 -19.42,16.14 -28.42,25.05 -1.96,1.94 -3.48,3.45 -5.41,5.41 -2.07,2.09 -2.87,3.61 -5.06,5.77 -17.83,17.63 -32.72,38.22 -46.54,59.04 -39.93,60.14 -64.29,139.21 -64.29,213.19 0,78.51 17.89,148.61 58.33,215.77 11.07,18.38 23.52,34.51 36.7,51.28 1.09,1.39 1.5,1.62 2.58,2.83 1.2,1.35 1.19,1.68 2.38,3.03l44.16 43.15c14.56,11.32 27.96,22.86 44.02,32.45 9.17,5.48 17.51,10.83 27.5,15.82l14.23 7.42c23.04,9.83 38.6,17.12 63.81,24.17 4.98,1.39 12.97,2.52 17.6,4.74 0.99,-2.06 2.29,-5.86 3.13,-8.37l26.05 -71.4c1.04,-2.89 2.27,-6.13 3.21,-8.97 1.09,-3.27 2.01,-5.54 3.21,-8.98l29.28 -80.36c1.08,-3.27 2.01,-5.54 3.21,-8.97 1.09,-3.15 2.02,-5.74 3.25,-8.93 15.96,-41.27 30.17,-83.51 45.64,-124.91l58.4 -160.88c2.12,-5.68 4.45,-12.11 6.57,-17.79l19.46 -53.63c2.05,-5.91 4.97,-12.07 6.35,-18.01 43.77,0 87.53,0 131.3,0 24.52,0 42.02,-1.92 58.43,7.22 14.09,7.85 24.14,22.84 24.14,43.54 0,10.99 -3.29,19.78 -6.48,28.03 -8.23,21.3 -15.4,43.21 -23.39,64.59 -1.51,4.04 -3.28,8.51 -4.72,12.87 -5.74,17.3 -12.61,33.82 -18.61,51.1 -1.57,4.52 -3.22,8.32 -4.75,12.85l-9.33 25.86c-1.73,4.48 -3.15,8.3 -4.7,12.9l-13.88 38.23c-4.44,12.34 -8.19,26.86 -16.48,36.31 -13.73,15.66 -26.69,20.45 -49.26,20.45l-105.58 0c-2.62,11.22 -16.34,44.56 -20.39,56.77l-41.59 114.07c-3.73,9.65 -6.46,18.78 -10.24,28.34 -2.53,6.39 -8.76,22.09 -10.35,28.9 8.35,0 16.71,0.04 25.06,0.02l24.15 -1.56c7.39,-0.96 15.18,-1.61 22.91,-2.81 7.72,-1.19 14.68,-2.33 21.89,-3.82 32.6,-6.76 65.33,-17.24 95.03,-32.21 27.7,-13.96 54.07,-30.16 78.12,-49.79 1.26,-1.03 2.15,-1.64 3.37,-2.73 5.75,-5.13 11.87,-9.8 17.26,-15.22l12.86 -12.18c8.55,-8.53 16.38,-17.98 24.35,-27.09 2.07,-2.36 3.7,-4.63 5.73,-7.13 13.66,-16.77 24.54,-34.98 35.69,-53.65 4.95,-8.29 8.8,-16.8 13.01,-25.56 41.31,-85.93 49.31,-190.81 22.13,-284.93 -5.39,-18.67 -11.9,-37.44 -20.31,-54.82 -10.68,-22.06 -21.92,-43.89 -36.39,-63.78 -10.24,-14.07 -21.28,-29.19 -33.37,-41.75l-12.2 -12.85c-4.31,-4.31 -8.27,-7.56 -12.52,-11.85 -17.89,-18.06 -50.63,-40.13 -72.11,-53.09 -1.5,-0.91 -2.34,-1.25 -3.97,-2.12 -1.79,-0.96 -2.04,-1.3 -3.83,-2.26l-25.28 -12.62c-46.22,-23.25 -114.5,-37.01 -163.32,-37.01 -23.57,0 -23.8,-2.37 -26.32,5.49 -0.87,2.72 -1.61,4.19 -2.54,6.94 -1.74,5.17 -3.48,9.3 -5.25,14.38l-20.92 57.59c-7.51,19 -13.47,38.53 -20.98,57.53 -7.51,19 -13.73,38.49 -20.88,57.63 -1.71,4.59 -3.54,9.69 -5.23,14.4 -1.65,4.59 -4.71,9.68 -4.82,14.8z"/>
    <path class="fil0" d="M1184.86 549.46l60.91 0c3.07,0 5.51,-9.58 7.03,-13.95 1.91,-5.5 3.75,-9.98 5.58,-15.4 1.84,-5.47 3.73,-10.26 5.58,-15.4 1.92,-5.34 3.67,-10.4 5.79,-15.87l22.81 -62.47c11.5,-34.63 28.28,-74.54 39.76,-109.13 1.17,-3.53 5.26,-13.31 5.5,-16.16l-64.97 0c-0.23,2.73 -4.21,12.71 -5.32,15.66l-39.78 109.11c-13.08,38.79 -31.41,82.91 -44.15,121.14 -0.5,1.49 -1.18,2.46 1.27,2.46z"/>
   </g>
   <rect class="fil1" y="-0" width="2185.48" height="849.55"/>
  </g>
 </g>
</svg>
