<?xml version="1.0" encoding="UTF-8"?>
<!DOCTYPE svg PUBLIC "-//W3C//DTD SVG 1.1//EN" "http://www.w3.org/Graphics/SVG/1.1/DTD/svg11.dtd">
<!-- Creator: CorelDRAW -->
<svg xmlns="http://www.w3.org/2000/svg" xml:space="preserve" width="12.6596in" height="4.92106in" version="1.1" style="shape-rendering:geometricPrecision; text-rendering:geometricPrecision; image-rendering:optimizeQuality; fill-rule:evenodd; clip-rule:evenodd"
viewBox="0 0 8195.76 3185.87"
 xmlns:xlink="http://www.w3.org/1999/xlink"
 xmlns:xodm="http://www.corel.com/coreldraw/odm/2003">
 <defs>
  <style type="text/css">
   <![CDATA[
    .fil0 {fill:none}
    .fil1 {fill:white}
   ]]>
  </style>
 </defs>
 <g id="Layer_x0020_1">
  <metadata id="CorelCorpID_0Corel-Layer"/>
  <g id="_105553233191232">
   <rect class="fil0" width="8195.76" height="3185.87"/>
   <path class="fil1" d="M2325.23 2226.69c-290.09,-92.79 -483.25,-526.88 -285.46,-849.96 49.87,-81.47 133.47,-173.59 213.07,-215.91 -16.1,-38.85 -76.28,-101.12 -109.86,-129.55 -145.31,-123.12 -376.87,-174.93 -568.31,-129.32 -105.49,25.14 -279.93,120.47 -377.91,105.56 -125.25,-19.05 -230.22,-105.38 -383.93,-114.23 -305.52,-17.63 -514.48,182.25 -615.23,370.63 -327.08,611.49 229.5,1650.24 578.25,1692.9 147.33,18 258.53,-75.98 392.93,-100.93 183.41,-34.07 263.27,24.35 403.88,75.42 290.92,105.71 468.35,-150.54 594.42,-357.74 54.8,-90.06 131.56,-226.74 158.16,-346.8l-0 -0.08z"/>
   <path class="fil1" d="M4415.95 1587.22l-10.35 -179.64 -176.05 -6.24 8.82 1542.58 190.62 2.2 4.41 -592.93c58.08,53.57 82.59,121.18 237.54,157.64 319.42,75.16 609.06,-173.88 601.63,-590.76 -4.6,-258.31 -118.3,-432 -292.18,-507.87 -101.3,-44.19 -236.9,-44.68 -342.5,-6.31 -120.06,43.59 -153.38,104.7 -221.88,181.28l-0.04 0.04zm262.38 -42.59c-93.8,24.28 -165.52,89.95 -201.49,160.29 -53.83,105.34 -44.83,199.4 -44.08,325.62 1.23,211.99 158.61,386.58 394.98,324.76 391.47,-102.35 299.13,-926.87 -149.45,-810.66l0.04 0z"/>
   <path class="fil1" d="M5657.8 1584.76l-9.45 -180.12 -176.46 -2.91c-4.97,114.86 6.54,250.09 6.87,368.58l0.04 1175.62 197.12 0 0.07 -591.21c74.6,71.68 97.27,122.15 235.03,155.32 315.2,75.83 612.2,-165.33 604.47,-589.82 -9.26,-508.8 -463.64,-673.01 -764.16,-440.07 -34.93,27.05 -70.15,91.82 -93.54,104.63l0 -0zm261.74 -39.15c-219.46,60.51 -245.12,231.19 -243.47,485.01 1.35,210.42 155.32,378.96 383.52,327.11 408.66,-92.82 311.01,-936.47 -140.04,-812.12z"/>
   <path class="fil1" d="M2805.16 2496.2l203.02 0.93c28.69,-83.15 52.93,-160.51 79.79,-242.05 8.63,-26.19 61.15,-229.13 95.03,-237.31l509.14 0c28.65,15.99 21.25,14.08 33.51,49.72 6.54,19.05 12.81,39.75 19.76,60.07 14.46,42.47 27.19,82.85 42.44,127.41 27.19,79.38 54.65,171.34 84.57,242.84l205.93 -0.49 -517.28 -1524.35 -237.72 -0.86 -518.18 1524.13 0 -0.04zm405.71 -632.45l453.55 0.04 -230.59 -713.32c-35.04,123.98 -63.99,234.73 -105.04,355.8 -38.03,112.06 -92.08,246.02 -117.93,357.48l0 0z"/>
   <path class="fil1" d="M8030.95 2450.03l-29.88 -138.06c-148.19,41.54 -303.99,89.54 -467.15,25.29 -134.33,-52.93 -204.96,-172.58 -211.65,-349.15l764.38 -2.09c52.3,-296.82 -91.22,-537.79 -316.99,-593.79 -594.98,-147.62 -833.45,672.9 -464.39,1003.86 199.7,179.08 610.26,135.97 725.65,53.98l0.04 -0.04zm-705.59 -606.71l580.49 0c-4.48,-190.96 -89.91,-327.82 -284.98,-323.27 -173.85,4.03 -275.67,152.29 -295.51,323.27l0 0z"/>
   <polygon class="fil1" points="6722.06,2497.1 6761.39,2498 6881.34,2497.85 6919.14,2497.47 6921.38,891.31 6722.06,890.98 "/>
   <path class="fil1" d="M1208.64 847.76c155.36,51.77 348.22,-121.36 400.66,-181.51 82.26,-94.28 173.17,-262.41 147.33,-438.24 -213.82,-21.89 -572.49,259.17 -547.99,619.74l0 0z"/>
  </g>
 </g>
</svg>
