<?xml version="1.0" encoding="UTF-8"?>
<!DOCTYPE svg PUBLIC "-//W3C//DTD SVG 1.1//EN" "http://www.w3.org/Graphics/SVG/1.1/DTD/svg11.dtd">
<!-- Creator: CorelDRAW -->
<svg xmlns="http://www.w3.org/2000/svg" xml:space="preserve" width="321.553mm" height="124.995mm" version="1.1" style="shape-rendering:geometricPrecision; text-rendering:geometricPrecision; image-rendering:optimizeQuality; fill-rule:evenodd; clip-rule:evenodd"
viewBox="0 0 2194.06 852.88"
 xmlns:xlink="http://www.w3.org/1999/xlink"
 xmlns:xodm="http://www.corel.com/coreldraw/odm/2003">
 <defs>
  <style type="text/css">
   <![CDATA[
    .fil0 {fill:none}
    .fil1 {fill:#E71C14}
    .fil3 {fill:#F38B8B}
    .fil2 {fill:white}
   ]]>
  </style>
 </defs>
 <g id="Layer_x0020_1">
  <metadata id="CorelCorpID_0Corel-Layer"/>
  <g id="_105553435864224">
   <rect class="fil0" x="0" y="-0" width="2194.06" height="852.88"/>
   <g>
    <polygon class="fil1" points="-0,792.19 2194.06,792.19 2194.06,60.69 -0,60.69 "/>
    <path class="fil2" d="M1836.53 307.59c-21.83,1.48 -41.7,7.09 -58.96,15.46 -20.78,10.08 -34.25,21.86 -47.13,36.24 -24.66,27.54 -36.98,66.56 -34.23,104.53 5.76,79.41 74.75,139.96 161.72,134.01 31.28,-2.14 57.97,-12.34 81.7,-29.37 13.47,-9.67 27.28,-24.24 36.04,-38.1 4.7,-7.45 9.14,-15.6 12.67,-24.63 7.56,-19.3 11.29,-40.75 9.64,-63.72 -5.72,-79.62 -74.46,-140.33 -161.46,-134.42z"/>
    <path class="fil2" d="M1243.44 307.46c-58.45,3.39 -110.52,37.36 -132.02,90.58 -7.84,19.41 -11.84,40.45 -10.44,63.74 4.83,80.18 73.24,140.94 159.72,136.19 80.45,-4.42 147.14,-68.26 142.33,-153.75 -4.52,-80.26 -73.18,-141.78 -159.59,-136.77z"/>
    <path class="fil2" d="M753.23 544.47l-24.27 -18.73c-4.21,-3.06 -8.21,-6.33 -12.17,-9.33 -2.22,-1.68 -4.03,-3.1 -6.2,-4.77 -1.78,-1.37 -4.3,-3.76 -6.41,-4.63 -1.55,1.61 -4.69,3.51 -6.72,4.97 -2.32,1.67 -4.81,3.34 -7.32,4.96 -16.91,10.92 -32.11,17.72 -53.89,19.37 -20.89,1.59 -43.06,-0.85 -60.77,-11.55 -3.9,-2.36 -11.97,-7.99 -13.78,-10.77l197.16 -82c-3.12,-30.32 -20.21,-68.53 -42.96,-88.45 -13.16,-11.52 -23.3,-18.44 -40.45,-25.37 -16.42,-6.64 -35.52,-10.2 -54.97,-10.84 -78.81,-2.58 -137.26,46.81 -151.69,111.13 -9.75,43.47 -0.74,86.08 21.84,118.32 15.73,22.47 39.28,39.84 65.57,49.83 35.89,13.64 74.57,15.03 113.37,5.4 16.29,-4.04 34.03,-11.3 47.04,-18.76 9.02,-5.17 16.77,-10.28 24.26,-16.55 1.54,-1.28 3.35,-2.68 4.5,-3.84l7.86 -8.38z"/>
    <path class="fil2" d="M864.1 352.03l-0.07 -40.11 -77.3 0 -0.01 281.55c25.16,0 52.39,0.32 77.29,-0.01 0,-47.27 0,-94.53 0,-141.8 0,-26.34 -1.22,-36.5 14.36,-56.74 1.38,-1.8 2.64,-2.62 4.28,-4.49 3.16,-3.59 11.43,-8.48 16.08,-10.69 18.09,-8.6 40.28,-7.4 58.63,0.51 7.65,3.3 16.94,10.24 20.76,14.77 15,17.8 14.69,27.92 14.69,56.19 0,47.41 0,94.83 0,142.24l77.31 -0c0,-44.88 0,-89.61 0,-134.34 0,-20.27 1.45,-45.51 -2.33,-64.65 -16.94,-85.62 -116.67,-109.07 -177.74,-66.84 -3.48,2.41 -6.31,4.75 -9.5,7.17 -3.59,2.73 -9.57,8.86 -12.55,12.46 -1.32,1.59 -2.52,3.25 -3.9,4.77z"/>
    <path class="fil2" d="M1507.25 593.36l84.77 0.02 115.75 -281.37 -87.68 -0.06c-1.52,1.01 -1.97,3.75 -2.6,5.48 -0.74,2.03 -1.5,4.09 -2.22,6.12l-61.18 167.88c-1.09,2.92 -3.23,9.93 -4.57,11.99l-69.77 -191.42 -88.15 -0.05 115.64 281.41z"/>
    <path class="fil2" d="M457.62 522.98c-3.14,-0.85 -17.97,-0.32 -22.32,-0.32 -15.44,0 -148.88,0.49 -153.35,-0.14 -0.94,-3.05 -0.3,-31.06 -0.3,-36.62l0 -258.12 -78.11 -0.04 0 365.74 254.04 -0 0.04 -70.51z"/>
    <path class="fil1" d="M1838.75 373.87c-10.96,1.12 -21.18,4.22 -29.37,9.07 -8.08,4.79 -15.02,10.31 -20.71,17.91 -11.3,15.09 -18.69,36.13 -16.14,60.72 4.22,40.67 37.72,74.59 83.2,70 41.21,-4.16 70.68,-40.84 65.94,-87.49 -1.11,-10.89 -4.17,-20.94 -8.63,-29.51 -6.26,-12.03 -8.89,-13.63 -16.74,-21.89 -5.32,-5.6 -16.61,-11.94 -23.98,-14.63 -10.33,-3.77 -21.67,-5.38 -33.58,-4.17z"/>
    <path class="fil1" d="M1243.35 373.91c-45.84,4.97 -70.09,44.81 -65.96,87.37 3.95,40.74 37.71,74.84 83.3,70.27 41,-4.1 70.52,-40.81 65.89,-87.37 -4.03,-40.56 -37.69,-75.22 -83.23,-70.28z"/>
    <path class="fil1" d="M540.27 463.96l134.97 -55.81c-2.78,-9.15 -14.05,-21.94 -22.48,-27.81 -20.12,-14 -45.34,-14.7 -67.81,-5.88 -16.3,6.4 -27.7,18.4 -35.47,32.54 -9.34,16.99 -11.13,35.32 -9.22,56.97z"/>
    <path class="fil3" d="M457.62 522.98c-1.05,-1.18 -2.16,-0.77 -4.77,-0.76l-170.76 0c0,-96.34 -0.44,-193.64 0,-289.95 0.01,-1.64 0.26,-3.24 -0.44,-4.48l0 258.12c0,5.56 -0.64,33.57 0.3,36.62 4.47,0.63 137.91,0.14 153.35,0.14 4.35,0 19.18,-0.53 22.32,0.32z"/>
   </g>
  </g>
 </g>
</svg>
