<?xml version="1.0" encoding="UTF-8"?>
<!DOCTYPE svg PUBLIC "-//W3C//DTD SVG 1.1//EN" "http://www.w3.org/Graphics/SVG/1.1/DTD/svg11.dtd">
<!-- Creator: CorelDRAW -->
<svg xmlns="http://www.w3.org/2000/svg" xml:space="preserve" width="321.553mm" height="124.995mm" version="1.1" style="shape-rendering:geometricPrecision; text-rendering:geometricPrecision; image-rendering:optimizeQuality; fill-rule:evenodd; clip-rule:evenodd"
viewBox="0 0 2194.06 852.88"
 xmlns:xlink="http://www.w3.org/1999/xlink"
 xmlns:xodm="http://www.corel.com/coreldraw/odm/2003">
 <defs>
  <style type="text/css">
   <![CDATA[
    .fil0 {fill:none}
    .fil1 {fill:black}
   ]]>
  </style>
 </defs>
 <g id="Layer_x0020_1">
  <metadata id="CorelCorpID_0Corel-Layer"/>
  <g id="_105553435193024">
   <rect class="fil0" y="-0" width="2194.06" height="852.88"/>
   <g>
    <path class="fil1" d="M622.48 596.1c-77.66,-24.84 -129.37,-141.05 -76.42,-227.54 13.35,-21.81 35.73,-46.47 57.04,-57.8 -4.31,-10.4 -20.42,-27.07 -29.41,-34.68 -38.9,-32.96 -100.89,-46.83 -152.14,-34.62 -28.24,6.73 -74.94,32.25 -101.17,28.26 -33.53,-5.1 -61.63,-28.21 -102.78,-30.58 -81.79,-4.72 -137.73,48.79 -164.7,99.22 -87.56,163.7 61.44,441.78 154.8,453.2 39.44,4.82 69.21,-20.34 105.19,-27.02 49.1,-9.12 70.48,6.52 108.12,20.19 77.88,28.3 125.38,-40.3 159.13,-95.77 14.67,-24.11 35.22,-60.7 42.34,-92.84z"/>
    <path class="fil1" d="M1182.18 424.91l-2.77 -48.09 -47.13 -1.67 2.36 412.96 51.03 0.59 1.18 -158.73c15.55,14.34 22.11,32.44 63.59,42.2 85.51,20.12 163.05,-46.55 161.06,-158.15 -1.23,-69.15 -31.67,-115.65 -78.22,-135.96 -27.12,-11.83 -63.42,-11.96 -91.69,-1.69 -32.14,11.67 -41.06,28.03 -59.4,48.53zm70.24 -11.4c-25.11,6.5 -44.31,24.08 -53.94,42.91 -14.41,28.2 -12,53.38 -11.8,87.17 0.33,56.75 42.46,103.49 105.74,86.94 104.8,-27.4 80.08,-248.13 -40.01,-217.02z"/>
    <path class="fil1" d="M1514.63 424.25l-2.53 -48.22 -47.24 -0.78c-1.33,30.75 1.75,66.95 1.84,98.67l0.01 314.72 52.77 0 0.02 -158.27c19.97,19.19 26.04,32.7 62.92,41.58 84.38,20.3 163.89,-44.26 161.82,-157.9 -2.48,-136.21 -124.12,-180.17 -204.57,-117.81 -9.35,7.24 -18.78,24.58 -25.04,28.01zm70.07 -10.48c-58.75,16.2 -65.62,61.89 -65.18,129.84 0.36,56.33 41.58,101.45 102.67,87.57 109.4,-24.85 83.26,-250.7 -37.49,-217.41z"/>
    <path class="fil1" d="M750.96 668.25l54.35 0.25c7.68,-22.26 14.17,-42.97 21.36,-64.8 2.31,-7.01 16.37,-61.34 25.44,-63.53l136.3 0c7.67,4.28 5.69,3.77 8.97,13.31 1.75,5.1 3.43,10.64 5.29,16.08 3.87,11.37 7.28,22.18 11.36,34.11 7.28,21.25 14.63,45.87 22.64,65.01l55.13 -0.13 -138.48 -408.08 -63.64 -0.23 -138.72 408.02zm108.61 -169.31l121.42 0.01 -61.73 -190.96c-9.38,33.19 -17.13,62.84 -28.12,95.25 -10.18,30 -24.65,65.86 -31.57,95.7z"/>
    <path class="fil1" d="M2149.94 655.89l-8 -36.96c-39.67,11.12 -81.38,23.97 -125.06,6.77 -35.96,-14.17 -54.87,-46.2 -56.66,-93.47l204.63 -0.56c14,-79.46 -24.42,-143.97 -84.86,-158.96 -159.28,-39.52 -223.12,180.14 -124.32,268.74 53.46,47.94 163.37,36.4 194.26,14.45zm-188.89 -162.42l155.4 0c-1.2,-51.12 -24.07,-87.76 -76.29,-86.54 -46.54,1.08 -73.8,40.77 -79.11,86.54z"/>
    <polygon class="fil1" points="1799.54,668.49 1810.07,668.73 1842.18,668.69 1852.3,668.59 1852.9,238.61 1799.54,238.52 "/>
    <path class="fil1" d="M323.56 226.95c41.59,13.86 93.22,-32.49 107.26,-48.59 22.02,-25.24 46.36,-70.25 39.44,-117.32 -57.24,-5.86 -153.26,69.38 -146.7,165.91z"/>
   </g>
  </g>
 </g>
</svg>
