<?xml version="1.0" encoding="UTF-8"?>
<!DOCTYPE svg PUBLIC "-//W3C//DTD SVG 1.1//EN" "http://www.w3.org/Graphics/SVG/1.1/DTD/svg11.dtd">
<!-- Creator: CorelDRAW -->
<svg xmlns="http://www.w3.org/2000/svg" xml:space="preserve" width="321.553mm" height="124.995mm" version="1.1" style="shape-rendering:geometricPrecision; text-rendering:geometricPrecision; image-rendering:optimizeQuality; fill-rule:evenodd; clip-rule:evenodd"
viewBox="0 0 2194.06 852.88"
 xmlns:xlink="http://www.w3.org/1999/xlink"
 xmlns:xodm="http://www.corel.com/coreldraw/odm/2003">
 <defs>
  <style type="text/css">
   <![CDATA[
    .fil0 {fill:none}
    .fil1 {fill:#0072CB}
    .fil2 {fill:#3B96D8}
   ]]>
  </style>
 </defs>
 <g id="Layer_x0020_1">
  <metadata id="CorelCorpID_0Corel-Layer"/>
  <g id="_105553435955392">
   <rect class="fil0" y="-0" width="2194.06" height="852.88"/>
   <g>
    <path class="fil1" d="M1765.95 316.29l0 221.91c0,62.65 45.3,105.9 107.13,105.9l204.26 0c61.31,0 107.13,-44.51 107.13,-105.9l0 -221.91c0,-63.24 -45.2,-107.82 -107.13,-107.82l-204.26 0c-63.4,0 -107.13,43.75 -107.13,107.82zm157.21 -46.4c-38.47,11.57 -41.89,39.4 -41.87,84.22 0.02,42.03 0,84.06 0,126.08 0,47.85 -5.37,77.64 28.41,97.09 19.05,10.97 92.73,12.39 116.71,6.08 36.89,-9.7 42.75,-38.94 42.72,-83 -0.03,-42.03 -0,-84.06 -0,-126.08 0,-44.66 3.7,-79.16 -27.7,-97.91 -19.01,-11.35 -31.78,-8.63 -54.87,-8.62 -18.51,0.02 -47.24,-2.73 -63.39,2.13z"/>
    <path class="fil1" d="M1549.09 268.55c66.81,4.84 50.43,101.64 50.43,161.21 0,71.44 0,142.89 0,214.33l115.96 0c-0.62,-87.41 -0.62,-174.83 -0.62,-262.24 0,-71.73 7.22,-91.38 -26.11,-138.49 -10.96,-15.49 -44.88,-35.28 -67.89,-32.05l-161.33 -0.93c-53.8,0 -107.59,0 -161.39,0l0 431.21 110.95 0 0 -375.73c24.03,0 124.75,-3.78 139.99,2.7z"/>
    <path class="fil1" d="M836.66 644.09l0 -58.63c-239.6,0 -241.42,26.16 -241.42,-134.88l241.44 0 -0.01 -58.63c-50.43,0 -100.86,-0.01 -151.29,0 -24.88,0 -46.48,3.45 -65.25,-10.31 -35.01,-25.65 -31.76,-81.87 -0.5,-103.49 20.2,-13.97 37.34,-11.09 63.23,-11.08 51.27,0.02 102.54,0 153.81,0l-0.13 -58.61c-49,0 -248.15,-3.74 -280.18,4.06 -95.67,23.27 -76.45,133.13 -76.45,212.2 0,85.19 -20.49,186.27 73.69,215.07 33.33,10.19 231.99,4.3 283.08,4.3z"/>
    <path class="fil1" d="M887.72 316.29l0 219.38c0,63.48 44.35,108.42 107.82,108.42 62.33,0 194.71,2.35 249.04,-0.46l-0.01 -57.57c-63.15,-5.89 -186.44,9.18 -215.4,-10.83 -15.6,-10.78 -25.43,-24.98 -25.43,-49.65l0 -199.21c0,-36.49 25.03,-58.61 62.4,-58.61l178.09 0 0.34 -59.3 -249.03 0c-63.19,0 -107.82,44.83 -107.82,107.82z"/>
    <path class="fil1" d="M276.85 641.58c0.02,-70.61 0,-141.21 0,-211.82 0,-33.91 -1.75,-72.7 0.15,-106.01 1.83,-32.08 20.54,-50.9 50.3,-55.95l4.77 -3.01c10.64,-3.43 81.34,-1.38 93.58,-1.46l-0 -52.96 -413.56 0 0 55.48 151.3 0 0 375.73 113.46 0z"/>
    <path class="fil2" d="M1549.09 268.55c-15.24,-6.48 -115.96,-2.7 -139.99,-2.7l0 375.73 -110.95 0 0 -431.21c53.8,0 107.59,0 161.39,0l161.33 0.93c-3.03,-2.11 5.11,-3.39 -17.56,-3.5l-307.67 0.07 0 436.21 115.98 0 -0.02 -375.73 137.49 0.19z"/>
    <path class="fil2" d="M276.85 641.58l-113.46 0 0 -375.73 -151.3 0 0 -55.48 413.56 0 0 52.96c-12.24,0.08 -82.94,-1.97 -93.58,1.46l-4.77 3.01 101.7 -0.47 -0 -57.8c-13.38,-4.24 -373.48,-1.66 -419.42,-1.66l0 60.49c50.43,0 100.87,0 151.3,0l0 375.73c10.15,0 107.41,2.9 115.97,-2.5z"/>
   </g>
  </g>
 </g>
</svg>
