<?xml version="1.0" encoding="UTF-8"?>
<!DOCTYPE svg PUBLIC "-//W3C//DTD SVG 1.1//EN" "http://www.w3.org/Graphics/SVG/1.1/DTD/svg11.dtd">
<!-- Creator: CorelDRAW -->
<svg xmlns="http://www.w3.org/2000/svg" xml:space="preserve" width="321.553mm" height="124.995mm" version="1.1" style="shape-rendering:geometricPrecision; text-rendering:geometricPrecision; image-rendering:optimizeQuality; fill-rule:evenodd; clip-rule:evenodd"
viewBox="0 0 2194.06 852.88"
 xmlns:xlink="http://www.w3.org/1999/xlink"
 xmlns:xodm="http://www.corel.com/coreldraw/odm/2003">
 <defs>
  <style type="text/css">
   <![CDATA[
    .fil0 {fill:none}
    .fil1 {fill:#004AA4}
    .fil2 {fill:#FDFEFE}
   ]]>
  </style>
 </defs>
 <g id="Layer_x0020_1">
  <metadata id="CorelCorpID_0Corel-Layer"/>
  <g id="_105553451538176">
   <rect class="fil0" y="-0" width="2194.06" height="852.88"/>
   <g>
    <path class="fil1" d="M370.39 308.85c25.76,-3.97 56.22,-4.68 77.94,6.62 27.19,14.16 26.86,36.35 26.86,62.79l-55.89 0.02c0,-13.4 1.32,-25.03 -8.17,-30.71 -9.22,-5.52 -24.22,-3.77 -29.36,3 -7.17,9.45 -4.94,22.08 2.09,29.36 14.5,15.04 50.6,27.22 71.99,44.88 15.62,12.9 25.25,23.56 24.78,53.29 -0.42,26.34 -8.06,43.4 -23.91,54.14 -29.44,19.95 -95.51,19.26 -121.82,-6.8 -14.39,-14.25 -17.03,-35.22 -16.21,-61.69l60.03 0.09c0.35,16.23 -3.09,32.72 10.58,39.39 13.1,6.39 29.08,1.44 33.16,-10.32 6.36,-18.32 -4.94,-27.63 -13.22,-34.2 -23.44,-18.58 -70.01,-32.18 -84.49,-63.73 -7.69,-16.77 -6.14,-43.87 4.38,-60.62 3.31,-5.26 7.7,-8.81 11.58,-12.94 -2.3,0.54 -5.31,2.06 -7.84,3.14 -2.89,1.24 -4.83,2.43 -7.5,3.51l-45.33 21.57c-10.79,5.39 -33.44,16.32 -44.28,22.62 -4.59,2.67 -9.69,5.59 -14.72,8.15 -4.9,2.48 -9.42,5.29 -14.07,7.95 -4.53,2.59 -9.08,5.3 -13.87,8.15 -2.68,1.6 -4.06,2.64 -6.77,4.24l-40.62 26.28c-22.76,17.09 -47.4,33.84 -68.15,54.65 -4.01,4.02 -7.4,7.43 -11.43,11.43 -21.42,21.29 -43.48,54.29 -50.62,84.03 -3.22,13.4 -3.19,26.34 -0.73,40.57 6.46,37.36 40.79,66 71.41,84.42 2.72,1.64 4.12,2.59 6.97,4.04 28.27,14.33 38.72,19.45 71.32,30.31 72.16,24.05 130.43,31.06 204.45,40.3 6.9,0.86 14.32,1.66 20.93,1.94l51.79 4.1c3.54,0.4 7.07,-0.13 10.65,0.36l21.4 1.47c3.49,0.19 7.5,-0.04 11.04,-0.03 4.9,0.01 5.77,0.77 10.11,0.9 7.42,0.22 15.33,-0.76 22.54,0.33 1.42,0.22 4.89,0.38 9.85,0.49l77.23 0c25.91,-0.23 49.45,-0.59 57.28,-0.82 4.34,-0.13 5.21,-0.9 10.11,-0.9 18.77,-0.03 46.44,-1.56 64.4,-2.51 26.79,-1.41 57.76,-4.7 83.83,-5.94l20.2 -1.82c48.38,-5.07 91.69,-8.62 141.2,-15.47 26.69,-3.69 51.82,-7.13 78.03,-10.9 153.79,-22.1 327.37,-60.03 478.39,-103.42 48.14,-13.83 88.71,-27.32 135.75,-42.94 5.22,-1.73 11.07,-3.44 16.45,-5.57 5.43,-2.15 11.62,-4.36 16.79,-6.08 12.31,-4.1 117.07,-44.06 126.65,-49.51 1.89,-1.07 1.06,-0.62 1.98,-1.45 -45.69,7.73 -90.59,-1.11 -103.54,-37 -6.12,-16.96 -4.19,-49.34 -4.18,-68.82 0.01,-22.08 -1.43,-49.7 1.01,-71.06 4.94,-43.21 43.27,-58.08 89.89,-54.69 21.85,1.59 42.08,8.77 52.72,20.4 11.15,12.19 18.3,33.99 14.81,56.85l-55.77 0c-2.15,-15.34 2.42,-25.96 -9.25,-33.73 -9.93,-6.62 -25.89,-4 -32.09,3.63 -7.01,8.63 -5.27,24.41 -5.27,37.09l0.01 85.55c0.54,34.17 41.79,28.12 46.03,8.81 1.87,-8.52 0.72,-31.87 0.72,-41.89l-22.99 -0.06 0.27 -32.66 78.98 0.05c1.14,8.95 0.26,23.95 0.26,33.56 0,26.98 3.4,57.48 -16.6,76.49l-4.05 3.97 45.28 -21.16c13.96,-6.21 30.08,-15.6 43.74,-22.31l21.29 -11.73c2.37,-1.43 4.79,-2.77 6.98,-4.03l41.29 -24.77c32.18,-20.63 42.92,-30.22 70.46,-51.5l17.58 -15.45c30.82,-28.51 65.09,-71.62 67.95,-115.64l0 -11.73c-0.47,-6.94 -1.8,-13.88 -4.12,-20.76 -7.53,-22.3 -21.2,-40.29 -39.19,-54.81l-9.44 -7.5c-40.4,-30.35 -109.08,-54.05 -156.22,-63.97 -5.54,-1.17 -11.82,-2.88 -17.92,-4.1 -51.32,-10.31 -83.91,-15.03 -134.59,-20.39l-20.11 -1.91c-16.02,-2.33 -44.59,-2.71 -61.46,-4.6l-42.21 -1.83c-7.34,0.04 -15.4,0.22 -21.42,-0.6 -0.64,-0.09 -1.51,-0.16 -2.58,-0.23l-68.01 0c-26.27,0.37 -51.87,0.85 -61.29,0.85 -8.17,-0 -13.9,0.9 -21.16,0.86l-125.34 6.77c-6.27,0.3 -13.64,1.48 -20.33,1.69 -21.63,0.68 -57.91,6.14 -80.43,7.65 -18.76,1.26 -59.59,7.07 -79.57,9.36 -30.69,3.51 -120.76,16.38 -153.28,22.87 -12.18,2.43 -25.61,4.15 -37.56,6.48 -37.35,7.31 -74.04,13.6 -111.36,21.6 -48.16,10.32 -95.99,21.2 -143.16,32.99 -23.22,5.81 -46.88,12.46 -69.79,18.28 -11.66,2.97 -22.77,6.42 -34.36,9.68l-68.46 20.46c-11.34,3.83 -22.55,6.95 -33.46,10.58 -32.53,10.84 -66.64,22.08 -98.86,34.11 -6.56,2.45 -91.12,34.35 -94.97,38.11z"/>
    <path class="fil2" d="M749.64 313.74l-5.33 223.59 56.12 -0.01 1.43 -201.1c0.81,0.18 1.14,-1.07 2.09,3.91 0.44,2.28 0.72,4.25 1.11,6.46l16.62 89.3c6.05,33.77 13.37,67.6 18.86,101.39l56.63 0.06 37.7 -201.35c1.07,1.02 1.19,0.47 1.28,4.85 0.04,2.23 -0.03,4.6 -0.02,6.85 0.02,4.23 0.06,8.47 0.09,12.7 0.42,58.16 0.18,118.92 1.31,176.44 4.1,1.2 49.3,0.89 55.95,0.34l-4.79 -223.99 -91.26 0.01 -28.93 169.89 -1.28 -5.6c-0.38,-2.6 -0.86,-5.43 -1.26,-8 -0.83,-5.31 -1.77,-10.86 -2.61,-16.07l-20.19 -125.33c-3.12,-18.72 1.13,-14.9 -21.38,-14.9 -10.68,0 -67.16,-1.36 -72.15,0.57z"/>
    <path class="fil2" d="M1480.8 534.84l55.16 0.19 -3.07 -182.02c2.91,2.12 25.8,80.86 28.81,90.66 4.74,15.43 9.43,30.67 13.99,46.12l12.24 40.28c0.96,3.19 0.65,3.63 2.83,4.95l78.47 -0.02 -0 -221.6 -55.29 -0.22c-1.88,23.68 5.28,169.53 2.23,175.8 -3.92,-4.58 -48.43,-168.5 -52.36,-175.4l-82.82 -0.39 -0.19 221.67z"/>
    <path class="fil2" d="M1418.17 313.06l-56.48 0.03c-1.48,47.97 -0.09,108.83 -0.06,159.08 0.01,9.21 0.69,16.09 -3.71,22.92 -3.31,5.13 -9.5,8.79 -18.7,8.68 -18.84,-0.24 -21.77,-12.82 -21.76,-30.75l0 -106.71c0,-16.94 0.92,-36.65 -0.15,-53.25l-56.44 0.03c-0.81,25.35 -0.06,51.72 -0.06,76.94 0,21.25 -2.11,94.72 3.19,112.48 9.6,32.19 41.84,41.4 75.22,41.48 22.78,0.05 46.97,-4.84 60.09,-16.83 16.88,-15.42 19.01,-30.53 19,-59.23 -0,-25.69 0,-51.38 0,-77.07 0,-24.49 1.48,-53.92 -0.15,-77.81z"/>
    <path class="fil2" d="M1835.51 539.04c8.68,-0.55 26.14,-8.96 30.95,-13.51l4.05 -3.97c19.99,-19.01 16.6,-49.5 16.6,-76.49 0,-9.6 0.88,-24.6 -0.26,-33.56l-78.98 -0.05 -0.27 32.66 22.99 0.06c0,10.03 1.15,33.38 -0.72,41.89 -4.25,19.31 -45.5,25.36 -46.03,-8.81l-0.01 -85.55c0,-12.68 -1.74,-28.46 5.27,-37.09 6.2,-7.63 22.16,-10.25 32.09,-3.63 11.67,7.77 7.1,18.39 9.25,33.73l55.77 0c3.49,-22.86 -3.67,-44.66 -14.81,-56.85 -10.64,-11.64 -30.87,-18.81 -52.72,-20.4 -46.62,-3.39 -84.95,11.48 -89.89,54.69 -2.44,21.35 -1,48.98 -1.01,71.06 -0.01,19.48 -1.94,51.86 4.18,68.82 12.95,35.89 57.85,44.73 103.54,37z"/>
    <path class="fil2" d="M370.39 308.85c-3.77,0.08 -13.21,3.5 -16.11,4.94 -4.56,2.27 -9.84,4.48 -13.57,7.64 -3.88,4.13 -8.27,7.68 -11.58,12.94 -10.52,16.74 -12.08,43.84 -4.38,60.62 14.47,31.56 61.04,45.15 84.49,63.73 8.28,6.56 19.58,15.88 13.22,34.2 -4.08,11.76 -20.06,16.71 -33.16,10.32 -13.68,-6.67 -10.24,-23.17 -10.58,-39.39l-60.03 -0.09c-0.82,26.47 1.82,47.44 16.21,61.69 26.31,26.06 92.38,26.75 121.82,6.8 15.85,-10.74 23.49,-27.79 23.91,-54.14 0.47,-29.73 -9.16,-40.39 -24.78,-53.29 -21.39,-17.66 -57.49,-29.85 -71.99,-44.88 -7.03,-7.29 -9.26,-19.91 -2.09,-29.36 5.14,-6.77 20.14,-8.52 29.36,-3 9.49,5.69 8.17,17.32 8.17,30.71l55.89 -0.02c-0,-26.45 0.33,-48.63 -26.86,-62.79 -21.72,-11.31 -52.18,-10.6 -77.94,-6.62z"/>
    <path class="fil2" d="M517.06 537.14l60.53 0.19 22.98 -152.5c1.34,-8.66 2.64,-17.13 3.92,-25.85 0.58,-3.99 1.26,-8.39 1.86,-12.44l1.44 -9.71c0.06,-0.22 0.11,-0.46 0.19,-0.66l31.29 200.77 60.28 0.39 -41.3 -224.17 -99.55 0.01 -41.63 223.96z"/>
    <path class="fil2" d="M1107.92 463.58l-59.52 -0.17c-0.11,27.1 0.59,46.07 16.45,61.27 13.33,12.77 32.82,19.1 56.88,20.11 23.02,0.96 47.16,-2.5 63.08,-13.6 16.5,-11.51 23.31,-25.86 23.97,-53.07 0.7,-29.1 -8.96,-40.44 -24.15,-52.9 -29.03,-23.79 -75.44,-34.39 -77.78,-57.16 -2.53,-24.6 23.06,-26.51 32.89,-19.88 10.54,7.1 7.19,16.47 8.45,30.5l55.15 0.12c4.67,-57.45 -29.74,-73.2 -80.93,-71.36 -24.04,0.86 -43.26,6.77 -56.49,19.3 -12.82,12.15 -19.6,35.37 -14.51,58.95 10.45,48.5 93.38,59.78 100.8,90.58 2.74,11.38 -1.97,23.3 -10.7,26.83 -10.89,4.4 -22.55,1.53 -28.8,-5.1 -7.08,-7.52 -4.76,-23.09 -4.78,-34.41z"/>
   </g>
  </g>
 </g>
</svg>
