<?xml version="1.0" encoding="UTF-8"?>
<!DOCTYPE svg PUBLIC "-//W3C//DTD SVG 1.1//EN" "http://www.w3.org/Graphics/SVG/1.1/DTD/svg11.dtd">
<!-- Creator: CorelDRAW -->
<svg xmlns="http://www.w3.org/2000/svg" xml:space="preserve" width="321.553mm" height="124.995mm" version="1.1" style="shape-rendering:geometricPrecision; text-rendering:geometricPrecision; image-rendering:optimizeQuality; fill-rule:evenodd; clip-rule:evenodd"
viewBox="0 0 2194.06 852.88"
 xmlns:xlink="http://www.w3.org/1999/xlink"
 xmlns:xodm="http://www.corel.com/coreldraw/odm/2003">
 <defs>
  <style type="text/css">
   <![CDATA[
    .fil0 {fill:none}
    .fil2 {fill:#6B6B6B}
    .fil1 {fill:#A80031}
    .fil3 {fill:white}
   ]]>
  </style>
 </defs>
 <g id="Layer_x0020_1">
  <metadata id="CorelCorpID_0Corel-Layer"/>
  <g id="_105553435105824">
   <rect class="fil0" y="-0" width="2194.06" height="852.88"/>
   <g>
    <path class="fil1" d="M151.98 417.58c0,40.1 1.97,66.99 10.78,105.87 2.91,12.85 6.81,25.44 10.72,37.27 3.93,11.85 8.27,23.77 13.69,35.04l15.99 32c3.13,5.63 5.63,10.06 8.86,15.51 20.31,34.26 46.93,66.01 76.73,92.34 1.2,1.06 1.78,1.87 2.95,2.96l16.16 13.37c2.43,1.94 4.36,3.63 6.96,5.59 18.81,14.18 38.41,26.41 59.15,37.57 2.85,1.54 4.68,2.88 7.64,4.18 38.57,16.94 51.66,23.86 98.61,34.29 12.87,2.86 28.96,6.33 42.4,6.33l90.08 0c21.34,0 61.25,-10.98 80.74,-16.72 12.43,-3.66 23.45,-8.47 35.49,-13.23 11.33,-4.48 22.19,-10.27 32.89,-15.84 28.71,-14.94 47.79,-29.49 72.79,-49.03 1.53,-1.19 1.77,-1.63 3.09,-2.81 1.47,-1.31 1.83,-1.29 3.3,-2.6 1.21,-1.08 1.72,-1.84 2.99,-2.91 5.59,-4.7 10.35,-10.26 16.15,-14.86 3.4,-2.7 13.85,-15.23 17.77,-19.14 13.67,-13.65 26.51,-32.49 37.19,-48.46 35.37,-52.86 57.23,-116.82 64.59,-179.8 0.8,-6.83 1.54,-15.3 2.11,-22.25l0.78 -24.33c0,-5.01 -0.37,-7.93 -0.7,-11.85 -0.33,-3.98 0.25,-8.5 -0.08,-12.47 -0.62,-7.54 -1.55,-16.02 -2.2,-23.65 -0.59,-7.01 -1.95,-14.87 -3.14,-21.96 -1.2,-7.16 -2.79,-14.38 -4.28,-21.56 -4.93,-23.77 -12.78,-45.55 -21.56,-67.78 -12.67,-32.05 -30.74,-62.34 -51.25,-89.77 -7.29,-9.74 -15.03,-19.48 -23.28,-28.4l-12.56 -13.28c-17,-17 -35.31,-33.76 -55.33,-47.3l-38.96 -24.54c-13.86,-8.01 -28.26,-14.8 -43.17,-21.07 -32.14,-13.5 -65.95,-22.54 -100.97,-27.5 -14.38,-2.04 -28.97,-3.31 -43.63,-3.82l-29.3 0c-45.58,1.58 -91.09,10.5 -132.72,26.8 -9.28,3.63 -18.12,6.82 -27.04,11.35l-33.01 17.19c-17.53,10.09 -37.39,22.44 -52.57,36.03 -4.45,3.98 -9.42,7.24 -13.66,11.45 -11.15,11.09 -16.65,14.26 -28.8,28.05l-31.72 37.68c-9.24,12.39 -17.16,25.15 -25.17,38.32l-25.03 51.02c-18.31,46.07 -30.48,96.07 -30.48,146.72z"/>
    <path class="fil2" d="M1567.34 421.27c0,162.14 68.55,256.19 203.9,275.27 12.35,1.74 59.82,5.85 70.44,4.24l23.92 -1.19c22.15,-0.14 66.13,-8.07 87.73,-13.42 17.38,-4.3 41.37,-12.16 56.75,-19.29 3.08,-1.43 5.58,-2.78 8.46,-4.09 3.11,-1.42 23.53,-11.28 23.53,-14.86l0 -262.1 -213.38 0c-1.7,0 -2.21,0.51 -2.21,2.21l0 98.94 101.89 0 0 94.51 -20.25 5.6c-16.54,3.59 -40.82,7.8 -58.02,7.69 -4.94,-0.03 -8.61,1.04 -12.48,0.73 -19.95,-1.62 -25.71,-0.38 -47.74,-4.73 -29.78,-5.88 -49.02,-17.16 -67.67,-37.91 -7.14,-7.94 -15.45,-24.08 -19.13,-34.03 -20.15,-54.39 -19.27,-155.4 6.02,-206.1 10.05,-20.15 25.82,-38.1 45.77,-48 17.37,-8.62 27.58,-11.94 47.66,-15.09 12.14,-1.91 25.09,-1.46 29.66,-2.08 8.67,-1.19 19.82,0.55 29,0.93 30.98,1.31 65.29,16.07 87.3,38.21l7.42 8.09c1.94,2.31 6.37,6.11 7.17,9.08 3.1,-0.26 3.43,-1.5 5.35,-3.51 2.08,-2.18 3.06,-2.58 5.16,-4.44l68.49 -62.94c-31.59,-47.17 -83.33,-71.3 -137.76,-82.26 -58.09,-11.7 -149.08,-7.64 -200.39,17.29 -3.9,1.9 -7.51,3.39 -11.57,5.41 -15.85,7.93 -22.97,12.81 -36.32,22.74 -34.86,25.93 -58.08,65.73 -71.62,106.31 -10.99,32.92 -17.08,75.07 -17.08,118.78z"/>
    <polygon class="fil2" points="1169.39,692.98 1552.58,692.98 1552.58,587.4 1294.16,587.4 1294.16,152.52 1169.39,152.52 "/>
    <path class="fil3" d="M914.51 412.38l-248.14 -0.21 0 31.99 215.05 0c-0.73,60.71 -28.41,127.29 -62.75,172.75 -30.43,40.3 -74,78.41 -133.57,102.69 -105.47,42.99 -231.54,23.92 -318.59,-49.21l-30.28 -28.78c-6.12,-5.42 -21.79,-25.65 -26.31,-32.03 -47.76,-67.33 -67.76,-150.72 -53.73,-234.01 5.85,-34.74 15.51,-60.51 29.07,-89.02 6.53,-13.73 14.34,-25.24 21.99,-37.09 9.55,-14.82 21.36,-27.72 33.4,-40.43 2.61,-2.75 4.64,-4.79 7.39,-7.39 2.71,-2.56 4.56,-4.95 7.46,-7.3 8.4,-6.79 14.56,-12.83 24.3,-19.99 30.15,-22.17 62.08,-38.26 98.73,-48.94 24.98,-7.28 49.89,-11.36 76.38,-12.37 7.78,-0.3 22.1,0.69 28.78,-0.37l-0.04 -31.96c-75.62,-6.36 -158.42,23.51 -207.05,56.47 -6.48,4.39 -13.29,8.99 -19,13.47 -22.27,17.48 -31.86,26.52 -51.65,48 -18.48,20.04 -41.09,55.1 -52.48,79.72 -47.13,101.85 -46.25,218.13 10.26,319.1 16.08,28.72 34.69,52.84 57.41,75.49l12.45 11.93c22.97,19.66 33.63,28.8 62.46,45.31 26.75,15.32 61.4,29.26 95.66,36.55 75.54,16.06 161.21,6.41 223.26,-24.7 25.22,-12.64 39.91,-21.08 61.52,-37.39 3.19,-2.4 5.86,-4.42 9.18,-7.07 11.48,-9.15 16,-13.99 25.93,-23.52 40.56,-38.93 70.71,-89.66 87.69,-144.17 12.1,-38.83 15.23,-74.23 15.23,-117.53z"/>
    <polygon class="fil3" points="550.34,609.68 666.22,609.68 666.04,576.97 583.71,576.97 583.69,245.91 550.65,245.75 "/>
    <path class="fil3" d="M428.17 246c-25.4,3.55 -46.69,26.11 -42.96,55.73 3.18,25.24 26.22,46.53 55.63,42.92 25.13,-3.09 46.84,-26.77 42.95,-55.79 -3.35,-24.95 -26.51,-46.92 -55.61,-42.85z"/>
   </g>
  </g>
 </g>
</svg>
