<?xml version="1.0" encoding="UTF-8"?>
<!DOCTYPE svg PUBLIC "-//W3C//DTD SVG 1.1//EN" "http://www.w3.org/Graphics/SVG/1.1/DTD/svg11.dtd">
<!-- Creator: CorelDRAW -->
<svg xmlns="http://www.w3.org/2000/svg" xml:space="preserve" width="321.553mm" height="124.995mm" version="1.1" style="shape-rendering:geometricPrecision; text-rendering:geometricPrecision; image-rendering:optimizeQuality; fill-rule:evenodd; clip-rule:evenodd"
viewBox="0 0 2189.1 850.96"
 xmlns:xlink="http://www.w3.org/1999/xlink"
 xmlns:xodm="http://www.corel.com/coreldraw/odm/2003">
 <defs>
  <style type="text/css">
   <![CDATA[
    .fil0 {fill:none}
    .fil1 {fill:#007AB9}
    .fil2 {fill:#007BBA}
   ]]>
  </style>
 </defs>
 <g id="Layer_x0020_1">
  <metadata id="CorelCorpID_0Corel-Layer"/>
  <g id="_105553435087424">
   <rect class="fil0" y="-0" width="2189.1" height="850.96"/>
   <g>
    <path class="fil1" d="M859.83 751.93l84.68 -0c-0.41,-1.27 -5.2,-2.79 -6.99,-3.69 -14.28,-7.2 -22.18,-11.59 -36.22,-20.37 -9.26,-5.79 -17.92,-12.31 -26.66,-18.84l-12.66 -10.29c-2.11,-1.64 -3.85,-3.64 -5.87,-5.21 -1.39,-1.08 -1.7,-1.58 -2.9,-2.64 -1.26,-1.11 -1.91,-1.51 -3.16,-2.77 -1.01,-1.02 -1.74,-1.75 -2.76,-2.78 -1.2,-1.21 -2,-1.59 -3.18,-2.76l-11.07 -11.48c-4.21,-4.21 -7.24,-8.16 -10.88,-12.07 -1.05,-1.13 -1.56,-1.84 -2.57,-2.97 -5.7,-6.41 -12.19,-15.54 -17.46,-22.51 -6.65,-8.79 -14.3,-21.53 -19.86,-31.18 -5.26,-9.12 -9.2,-16.99 -13.56,-26.4 -3.63,-7.83 -7.09,-15.85 -10.1,-23.93 -5.17,-13.88 -7.05,-20.59 -10.91,-34.2 -5.12,-18.07 -8.46,-38.81 -10.45,-58 -0.71,-6.9 -1.23,-14 -1.24,-21.32 -0,-2.38 -0.4,-2.87 -0.43,-5.11 -0.07,-5.51 0.01,-23.71 0.64,-27.88 0.52,-3.48 0.21,-7.23 0.73,-10.75 0.49,-3.37 0.75,-7.18 1.03,-10.44 1.12,-13.01 5.95,-36.45 8.85,-48.13 4.54,-18.28 10.28,-33.57 17.19,-50.87 0.61,-1.52 1.08,-2.32 1.7,-3.84 4.12,-10.06 8.63,-17.75 13.13,-26.84 8.54,-17.26 24.33,-39.04 36.28,-54.34l10.52 -12.43c2.75,-3.56 15.98,-17.08 19.25,-20.32l36.93 -31.13 17.06 -11.83c8.32,-4.91 16.09,-10.45 24.79,-14.78l11.22 -5.8c8.49,-4.24 15.13,-7.11 23.71,-10.72 16.42,-6.9 33.94,-12.31 51.37,-16.69 6.33,-1.59 12.66,-2.75 18.93,-4.02 15.49,-3.13 25.37,-3.53 40.32,-5.18l10.63 -0.45c3.78,0.02 6.88,-0.4 11.08,-0.4 3.83,0 7.66,-0.02 11.49,-0.01 2.38,0 2.87,0.4 5.11,0.42 1.88,0.02 4.1,-0.15 5.93,0.01 16.15,1.34 25.26,2.01 40.89,4.62 24.27,4.05 49.03,10.83 71.28,19.73 7.12,2.85 16.84,6.89 23.7,10.33 1.94,0.97 5.96,3.27 7.78,3.69 1.19,-1.38 -0.05,-44.4 0.44,-46.32 0.32,-1.27 0.04,-0.79 0.75,-1.55l-24.58 -9.84c-30.8,-11.07 -61.54,-18.62 -94.45,-22.28 -20.28,-2.25 -35.91,-2.3 -56.66,-2.3 -17.26,-0 -46.28,3.44 -63.21,6.83 -16.36,3.27 -39.7,8.7 -55.44,14.6 -18.35,6.88 -31.94,12.12 -49.52,20.91 -2.57,1.29 -4.98,2.46 -7.66,3.82 -2.66,1.35 -4.98,2.87 -7.64,4.23 -18.63,9.45 -43.41,27.26 -59.18,40.14l-18.8 16.41c-1.27,1.28 -1.78,1.64 -3.15,2.79 -4.41,3.68 -10.11,10.09 -14.46,14.42l-24.66 28.36c-1.85,2.35 -3.32,4.39 -5.19,6.68 -6.66,8.16 -13.62,18.62 -19.19,27.5l-8.95 14.79c-1.49,2.45 -2.61,4.92 -4.11,7.37 -0.82,1.35 -1.23,2.47 -2.07,3.87 -5.19,8.67 -9.06,18.26 -13.42,27.34 -6.6,13.74 -11.08,28.23 -15.94,42.62 -1.95,5.75 -3.77,12.31 -5.21,18.13 -3.09,12.46 -6.18,25.48 -8.06,39.03 -0.89,6.42 -2.28,13.75 -2.7,20.64 -0.44,7.22 -1.48,14.17 -1.57,21.78 -0.02,2.24 -0.42,2.74 -0.42,5.11l0.01 29.3 1.42 21.93c0.54,3.76 0.61,7.04 1.08,10.8 2.7,21.59 7.27,47.33 13.98,67.93 1.04,3.2 1.7,5.92 2.76,9.11 4.39,13.2 10.44,30.28 16.7,42.71 2.43,4.82 4.47,10.3 7.17,14.92 2.89,4.95 5.09,10.17 8.1,15.25 4.35,7.33 8.57,14.86 13.29,21.93 1.57,2.36 3.1,4.83 4.75,7.13 7.29,10.2 14.57,20.39 22.5,30.13l2.73 3.21c2.83,2.97 5.14,6.37 8.11,9.3 1.22,1.2 1.59,1.99 2.76,3.18 6.79,6.86 13.4,14.05 20.38,20.77 1.18,1.13 1.96,1.53 3.18,2.76 0.96,0.97 1.78,1.92 2.81,2.73l15.76 13.52c2.31,1.86 4.28,3.42 6.58,5.29l11.74 8.86c1.47,1.06 0.55,1.08 1.99,0.76z"/>
    <path class="fil1" d="M859.83 459.11l-6.73 0 0 -73.6c14.39,0 29.5,-1.23 40.46,9.79 3.55,3.57 5.48,5.94 7.53,11.06 0.94,2.34 1.6,4.19 2.1,7.01 2.41,13.64 -0.05,28.02 -11.03,37.31 -8.84,7.48 -20.41,8.42 -32.33,8.42zm201.01 55.4c-1.22,-1.02 -0.33,0.23 -0.75,-1.55l-0.05 -48.71c-0,-0.44 -0.02,-1.21 0.02,-1.62l0.18 -1.01c0.03,-0.11 0.13,-0.41 0.21,-0.52 -0.31,-0.59 -6.3,-5.1 -7.43,-6.03l-8.01 -6.24c0.82,-1.12 3.69,-3 5.02,-4.08 1.78,-1.45 3.22,-2.64 5.04,-4.06l46.75 -36.74c1.89,-1.49 3.53,-2.78 5.31,-4.18 1.03,-0.81 19.63,-15.86 20.97,-16.22 -0.85,-1.28 -15.24,-12.33 -16.67,-13.4l-16.96 -13.51c-1.73,1.16 -3.5,2.67 -5.14,3.96 -1.79,1.4 -3.43,2.7 -5.31,4.18 -1.84,1.44 -3.3,2.55 -5.1,4l-10.44 8.16c-1.87,1.52 -3.48,2.7 -5.32,4.17 -4.75,3.79 -50.21,39.77 -52.18,40.81 -2.88,-2.16 -5.2,-3.87 -7.82,-6.03 -1.6,-1.31 -6.9,-5.18 -7.61,-6.24l48.62 -38.44c2.18,-1.74 32.76,-26.1 34.08,-26.46 -0.39,-1.45 -1.89,-2.11 -3.83,-3.69l-12.62 -9.94c-2.92,-2.3 -5.51,-4.44 -8.43,-6.61 -1.86,-1.38 -6.92,-5.7 -8.76,-6.67l-56.59 44.31c-1.86,1.42 -3.66,2.91 -5.54,4.35l-5.76 4.52c-2.97,2.32 -21,17.15 -23.12,17.64 -1.12,-4.79 -8.47,-16.32 -11.99,-20.46l-6.3 -7.15 -10.82 -8.96c-14.03,-10.12 -31.93,-16.46 -50.03,-16.45l-79.53 0 0 173.32 79.14 0.01c7.37,0.04 16.49,-1.66 23.03,-3.48 12.21,-3.4 20.68,-8.2 30.67,-15.63 9.02,-6.71 23.54,-24.08 25.83,-33.92 2.62,0.61 24.9,19.19 28.44,21.82l28.6 22.5c3.73,3.02 7.37,5.83 11.25,8.88 3.9,3.06 7.49,5.84 11.3,8.88 1,0.8 1.8,1.46 2.84,2.3 1.79,1.46 7.5,6.11 8.98,6.45l15.83 -12.27z"/>
    <path class="fil2" d="M1257.11 105.36l3.56 1.98c12.31,6.11 34.64,20.18 45.11,28.09 1.09,0.82 2.08,1.47 3.23,2.31 4.44,3.24 20.99,16.55 24.77,20.34l3.17 2.77c5.05,4.67 19.34,18.58 22.71,22.8l7.75 8.87c17.18,19.3 36.17,48.68 47.45,71.26l10.76 23.27c12.68,30.94 22.21,65.51 25.41,98.84l0.98 10.1c0.81,5.5 0.63,15.62 0.96,21.6l0 22.16c0.06,11.04 -3.79,41.8 -5.64,50.95 -2.91,14.4 -4.7,22.45 -8.78,36.73 -4.59,16.06 -12.77,37.31 -20.27,52.93 -0.71,1.48 -1.25,2.48 -1.98,3.95 -1.12,2.24 -3.31,5.77 -3.69,8.18 0.93,-0.39 0.79,0.46 0.79,-0.4l16.23 0 0 30.47c5.53,0 10.88,0.05 15.83,0.4l9.37 -17.54c0.82,-1.65 1.35,-3.1 2.1,-4.62l4.36 -9.09c4.4,-8.9 14,-34.04 16.76,-43.39 4.52,-15.38 7.81,-26.23 11.04,-42.38 1.44,-7.19 2.8,-14.89 3.88,-22.63 0.79,-5.69 2.58,-18.85 2.75,-24.16l1.2 -18.58c0.11,-8.83 0.4,-26.56 -0.35,-33.31 -0.5,-4.5 0.02,-8.13 -0.62,-12.44 -0.61,-4.08 -0.66,-8.24 -1.09,-12.37 -4.2,-40.88 -17.71,-90.88 -34.76,-125.5 -4.36,-8.84 -8.38,-17.81 -13.43,-26.54l-4.89 -8.56c-0.92,-1.54 -1.54,-2.7 -2.47,-4.25 -0.96,-1.59 -1.67,-2.67 -2.57,-4.16 -6.88,-11.49 -19.12,-28.55 -27.74,-39.14l-24.97 -28.45c-5.47,-5.47 -9.21,-9.51 -15.03,-14.64l-19.56 -17.24c-20.26,-16.32 -37.21,-28.07 -59.61,-40.51 -1.47,-0.82 -2.9,-1.57 -4.3,-2.42l-17.86 -9.05c-3.24,-1.63 -5.98,-2.78 -9.36,-4.48 -0.71,0.77 -0.43,0.28 -0.75,1.55 -0.48,1.93 0.75,44.94 -0.44,46.32z"/>
    <path class="fil2" d="M944.51 751.93l-84.68 0c0.84,2.08 0.8,1.21 3.56,3.17 1.27,0.9 2.28,1.65 3.72,2.61 9.29,6.15 22.05,14.67 31.5,19.55l34.03 17.01c7.13,3.18 20.49,8.51 27.54,10.84 14.28,4.71 24.29,8.19 39.64,11.8 37.21,8.77 61.93,11 104.15,11l12.27 -0.39c9.85,0.11 36.99,-3.6 46.29,-5.15 20.63,-3.43 41.77,-8.98 61.28,-15.48 6.14,-2.04 12.47,-4.35 18.54,-6.79l30.98 -13.73c1.54,-0.75 2.57,-1.44 4.08,-2.25 1.49,-0.8 2.81,-1.41 4.22,-2.11l12.53 -6.86c6.39,-3.48 17.48,-10.51 23.72,-14.66 1.44,-0.96 2.45,-1.71 3.72,-2.61 1.33,-0.94 2.66,-1.71 4.02,-2.71 2.5,-1.86 4.82,-3.42 7.35,-5.32 2.51,-1.89 4.84,-3.58 7.24,-5.42l24.36 -20.35c2.61,-2.01 20.53,-19.9 22.83,-22.28l14.84 -16.81c1.07,-1.23 2.06,-2.34 3.09,-3.64l16.68 -21.71c1.54,-2.06 4.5,-5.91 5.26,-8.2 -7.38,0 -50.82,0.71 -53.81,-0.4 -10.65,14 -23.28,26.34 -35.9,38.49 -10.31,9.93 -31.13,25.72 -41.49,32.9 -14.41,9.99 -36.58,22.52 -53.19,29.91 -10.22,4.55 -22.81,9.69 -33.48,13.21 -29.99,9.91 -45.63,12.55 -75.89,16.7 -2.96,0.41 -5.37,0.36 -8.31,0.79l-17.65 0.95c-3.08,-0.01 -5.54,0.41 -9.09,0.41 -3.03,-0 -6.07,-0.01 -9.1,0 -3.6,0.01 -5.57,-0.41 -9.1,-0.4 -6.15,0.03 -11.86,-0.74 -17.44,-1.16 -24.39,-1.85 -54.66,-7.88 -77.48,-15.51 -12.61,-4.22 -21.43,-7.25 -33.67,-12.62 -2.1,-0.92 -4.69,-2.37 -7.13,-2.76z"/>
    <path class="fil2" d="M1060.45 461.09c-0.07,0.11 -0.18,0.42 -0.21,0.52l-0.18 1.01c-0.04,0.41 -0.02,1.18 -0.02,1.62l0.05 48.71c0.42,1.79 -0.47,0.53 0.75,1.55l51.71 -40.88c1.93,-1.57 29.98,-24.03 31.38,-24.41l0 59.75 120.69 0 0 -50.65 -60.15 0 0 -122.67 -60.54 0 0 60.15c-4.57,3.06 -25.64,20.05 -31.09,24.3l-15.49 12.21c-1.92,1.42 -3.48,2.73 -5.31,4.19 -2.86,2.28 -29.5,23.52 -31.6,24.58z"/>
    <polygon class="fil2" points="1280.45,508.97 1401.54,508.97 1401.54,458.32 1341.39,458.32 1341.39,335.66 1280.45,335.66 "/>
    <path class="fil1" d="M1412.62 592.46c-0,0 -0.16,-0.54 -1.18,1.17l-7.78 14.01c-1.48,2.73 -2.96,5.05 -4.65,7.62 -7.79,11.86 -13.74,21.34 -22.88,32.52 -0.63,0.76 -2.11,2.82 -2.68,3.26 2.99,1.11 46.43,0.4 53.81,0.4 1.13,-0.07 -0.32,0.5 0.61,-0.26l8.87 -13.61c1.49,-2.5 3.03,-4.74 4.49,-7.38 0.81,-1.45 1.35,-2.39 2.18,-3.76l2.05 -3.49c-4.94,-0.35 -10.3,-0.4 -15.83,-0.4l0 -30.47 -16.23 0c-0,0.85 0.13,0.01 -0.79,0.4z"/>
   </g>
  </g>
 </g>
</svg>
