<?xml version="1.0" encoding="UTF-8"?>
<!DOCTYPE svg PUBLIC "-//W3C//DTD SVG 1.0//EN" "http://www.w3.org/TR/2001/REC-SVG-20010904/DTD/svg10.dtd">
<!-- Creator: CorelDRAW X7 -->
<svg xmlns="http://www.w3.org/2000/svg" xml:space="preserve" width="8.72576in" height="2.87691in" version="1.0" style="shape-rendering:geometricPrecision; text-rendering:geometricPrecision; image-rendering:optimizeQuality; fill-rule:evenodd; clip-rule:evenodd"
viewBox="0 0 8726 2877"
 xmlns:xlink="http://www.w3.org/1999/xlink">
 <defs>
  <style type="text/css">
   <![CDATA[
    .fil0 {fill:black}
   ]]>
  </style>
 </defs>
 <g id="Layer_x0020_1">
  <metadata id="CorelCorpID_0Corel-Layer"/>
  <g id="_345032576">
   <g>
    <path class="fil0" d="M4392 474c-16,129 -15,759 4,882 89,553 849,549 931,-9 18,-122 20,-750 3,-873l-140 4c-16,226 -1,504 -1,736 -1,120 -23,220 -84,292 -166,196 -571,174 -572,-303 0,-235 11,-493 0,-728l-141 -1z"/>
    <path class="fil0" d="M8725 1741l-2 -136 -604 0 5 -440 519 0 1 -145 -524 0 -1 -404 603 0 4 -131c-90,-17 -274,-6 -374,-6 -122,0 -248,-3 -369,2l0 1263 742 -3z"/>
    <path class="fil0" d="M5510 1521c18,94 147,181 242,216 432,156 846,-266 529,-560 -64,-60 -196,-118 -300,-157 -85,-32 -241,-81 -265,-179 -33,-134 97,-228 212,-240 127,-13 258,57 287,153 50,-15 89,-42 113,-70 -22,-95 -132,-185 -241,-213 -264,-68 -554,96 -520,371 44,343 832,316 654,646 -114,212 -523,148 -598,-45 -46,17 -79,46 -113,78z"/>
    <path class="fil0" d="M6499 1521c54,199 391,304 634,211 110,-42 192,-111 230,-226 95,-285 -192,-408 -395,-487 -100,-39 -248,-87 -265,-191 -27,-172 216,-297 401,-188 65,38 65,57 102,100l112 -56c-93,-355 -819,-283 -760,159 16,122 111,193 208,241 150,74 592,176 440,414 -59,91 -190,138 -327,121 -161,-20 -211,-105 -275,-174 -33,16 -75,53 -105,76z"/>
    <path class="fil0" d="M3273 1769c42,-57 361,-800 429,-913 38,47 178,383 214,461l156 351c57,125 19,102 217,103 -13,-56 -442,-987 -511,-1133 -24,-51 -42,-119 -79,-156 -42,103 -102,221 -149,327 -66,147 -428,920 -429,962l152 -2z"/>
    <polygon class="fil0" points="7565,1749 7706,1750 7703,474 7562,478 "/>
    <path class="fil0" d="M5087 2038c70,-5 161,-6 159,76 -1,76 -84,76 -159,72l0 -148zm0 222c65,-2 126,5 176,-35 110,-86 66,-318 -245,-257l-1 444 70 -1 0 -151z"/>
    <path class="fil0" d="M3446 2304c-59,14 -87,73 -178,31 -52,-24 -91,-77 -91,-146 -1,-71 41,-125 91,-147 92,-42 118,16 180,31l28 -54c-130,-150 -370,-25 -370,170 0,103 63,178 130,211 58,29 145,30 202,-7 30,-20 24,-12 38,-46l-30 -43z"/>
    <path class="fil0" d="M7536 2414c19,-21 10,-8 23,-35 24,-50 70,-202 105,-231l116 266 71 -2 -188 -456c-26,32 -182,406 -193,458l66 0z"/>
    <path class="fil0" d="M4125 2411c43,-74 73,-197 116,-262 24,26 101,222 114,265l76 -2c-17,-65 -66,-170 -90,-227 -18,-41 -31,-73 -47,-112 -10,-22 -18,-43 -25,-60l-32 -50 -183 453 71 -5z"/>
    <polygon class="fil0" points="6712,2412 6782,2411 6782,2037 6897,2035 6898,1963 6596,1966 6599,2035 6713,2037 "/>
    <path class="fil0" d="M8434 2414c47,1 94,0 141,1 142,1 114,8 122,-25 11,-50 -35,-47 -37,-47 -1,-1 -48,-1 -53,-1 -34,1 -67,2 -103,-1l-1 -376 -69 0 0 449z"/>
    <polygon class="fil0" points="5926,2413 5989,2414 5989,1964 5920,1970 "/>
    <path class="fil0" d="M8725 1741l-742 3 0 -1263c121,-5 247,-2 369,-2 100,0 284,-11 374,6 -17,-17 28,-18 -88,-16 -142,2 -595,-10 -667,6l4 1280 707 1c66,-5 24,0 43,-15z"/>
   </g>
   <polygon class="fil0" points="1288,0 2148,1763 714,1352 644,1474 2233,1959 2410,2328 520,1771 445,1890 2532,2508 2686,2877 305,2188 87,2638 0,2610 258,2074 2525,2745 2460,2578 321,1947 474,1655 2262,2206 2183,2026 527,1533 668,1252 2002,1655 1283,175 814,1124 726,1104 "/>
  </g>
 </g>
</svg>
