<?xml version="1.0" encoding="UTF-8"?>
<!DOCTYPE svg PUBLIC "-//W3C//DTD SVG 1.1//EN" "http://www.w3.org/Graphics/SVG/1.1/DTD/svg11.dtd">
<!-- Creator: CorelDRAW 2018 (64-Bit) -->
<svg xmlns="http://www.w3.org/2000/svg" xml:space="preserve" width="28.962in" height="5.45652in" version="1.1" style="shape-rendering:geometricPrecision; text-rendering:geometricPrecision; image-rendering:optimizeQuality; fill-rule:evenodd; clip-rule:evenodd"
viewBox="0 0 28961.96 5456.52"
 xmlns:xlink="http://www.w3.org/1999/xlink">
 <defs>
  <style type="text/css">
   <![CDATA[
    .fil3 {fill:none}
    .fil0 {fill:#0AA9E2}
    .fil2 {fill:#151515}
    .fil1 {fill:#FE0000}
   ]]>
  </style>
 </defs>
 <g id="Layer_x0020_1">
  <metadata id="CorelCorpID_0Corel-Layer"/>
  <g id="_488352655648">
   <g>
    <path class="fil0" d="M8104.68 1809.84c252.07,-54.81 536.03,33.12 692.88,150.06 156.97,117.02 275.39,277.28 340.94,529.82 196.36,756.55 -153.56,1640.61 -947.81,1547.95 -301.03,-35.11 -240.83,-350.03 -240.83,-631.98l-0.19 -1305.83c0.17,-180.96 -12.28,-253.64 155.02,-290.02zm-1004.99 -36.86c325.48,31.58 314.86,102 315.79,427.36l-0.34 1507.36c-3.11,206.4 -10.14,316.57 -202.12,348.97 -24.94,4.21 -70.69,6.73 -87.93,10.78 -70.86,16.6 -64.83,-28.82 -64.94,147.64 556.56,16.07 1395.07,44.73 1871.68,-133.85 454.63,-170.35 818.58,-545.85 857.37,-1147.74 40.77,-632.7 -306.3,-1052.85 -776.48,-1205.33 -425.32,-137.92 -1416.54,-112.56 -1914.83,-94.99l1.81 139.81z"/>
    <path class="fil0" d="M20013.34 1813.55c238.45,-61.63 538.78,25.76 696.28,138.66 563.37,403.87 499.14,1464.51 69.8,1871.98 -145.13,137.74 -372.93,243.4 -651.06,214.9 -312.89,-32.07 -255.61,-323.07 -255.59,-616.66l-0.07 -1305.86c0.31,-174.85 -19.37,-261.66 140.65,-303.02zm1265.56 88.81c-266.67,-198.22 -653.04,-270.89 -1069.52,-270.89 -315.62,-0.09 -905.11,-11.97 -1189.06,3.43 -3.88,110.93 -29.34,129.41 65.04,145.94 210.15,36.8 252.96,37.65 252.96,386.01l0 1523.43c0,341.92 -44.46,344.63 -353.11,387l-1.1 134.94c298.06,27.48 730.64,6.89 1040.85,3.64 311.07,-3.26 622.83,-46.45 876.43,-152.75 1007.82,-422.44 1019.54,-1683.52 377.52,-2160.76z"/>
    <path class="fil0" d="M6704.24 4251.01c36.37,-290.26 -24.44,-1550.64 28.35,-2116.58 26.59,-285.1 43.78,-329.83 331.33,-365.94l-1.67 -137.11 -973.33 0.99 11.17 139.63c437.07,39.33 387.74,174.09 410.15,595.59 17.48,328.74 3.26,667.85 7.67,998 -93.39,-43.63 -149.78,-147.3 -217.06,-218.94 -50.74,-54.04 -130.64,-151.74 -185.44,-216.72l-1128.4 -1298.6 -743.79 0.91 6.23 132.84c113.87,45.15 189.95,10.36 291.24,108.34 62.23,60.2 104.6,151.52 112.74,276.01 17.18,262.6 8.77,1270.95 -19.13,1528.76 -45.18,417.5 -115.75,331.27 -290.17,391.4 -64.93,22.38 -55.83,5.03 -56.79,146.11l975.64 0.25c0.31,-141.91 9.39,-124.71 -58.23,-144.15 -54.35,-15.62 -251.81,4.97 -306.81,-174.8 -68.81,-224.93 -59.75,-1380.15 -45.98,-1612.7 60.53,32.02 772.91,907.45 886.05,1039.26 149.64,174.33 281.32,344.28 435.11,519.4 315.13,358.82 253.91,423.61 531.11,408.07z"/>
    <path class="fil0" d="M17034.43 1771.18c-143.37,-167.83 -74.17,-140.16 -362.85,-140.02 -140.13,0.07 -367.42,-13.32 -496.83,5.81 3.73,153.91 -26.41,124.09 120.94,152.26 281.35,53.77 293.11,292.01 293.83,528.3 1.3,425.08 16.22,1067.63 -34.5,1472.72 -28.98,231.48 -105.82,256.11 -334.49,287.58l-1.39 137.56 977.17 -1.53 -3.97 -137.72c-254.48,-18.31 -355.08,-44.2 -383.23,-304.33 -37.87,-349.98 -31.38,-1101.67 -26.36,-1481.99 93.29,51.32 1643.83,1937.17 1653.97,1963.01l204.3 -0.07c-3.12,-507.78 -23.01,-1737.94 33.82,-2215.01 14.24,-119.57 38.19,-189.7 132.78,-231.9 169.47,-75.6 194.53,53.46 190.5,-174.09l-974.95 -0.63 6.54 133.95c149.94,49.91 298.26,16.6 362.57,157.24 75.52,165.15 63.57,1249.35 54.64,1448.66 -61.35,-27.82 -606.89,-680.57 -710.43,-794.07l-702.06 -805.72z"/>
    <path class="fil0" d="M23822.97 1770.43c400.3,70.49 411.5,196.42 411.5,614.06 0,376.23 12.15,984.04 -26.5,1336.07 -30.53,278.02 -62.61,316.94 -342.07,357.2l-1.98 132.99 975.86 3.28 -0.68 -136.46c-404.46,-39.06 -394.1,-125.27 -410.45,-690.68 -10.33,-357.35 -9.89,-740.58 -2.23,-1098.21 55.83,12.98 180.23,191.75 218.18,237.59l1306.52 1558.06c124.28,145.83 80.09,174.43 333.15,167.53 4.56,-610.59 -27.94,-1577.32 32.24,-2185.95 22.84,-230.95 88.86,-279.41 323.55,-294.37l-1.2 -140.17 -969.15 -0.24 -1.41 140.43c437.72,24.68 397.33,178.2 417.85,582.93 15.91,313.68 19.65,703.9 5.56,1017.09 -62.29,-28.35 -1297.06,-1469.81 -1412.3,-1599.65 -148.86,-167.72 -64.33,-140.92 -362.15,-140.8 -140.67,0.06 -367.12,-13.23 -497.25,5.93l2.96 133.34z"/>
    <path class="fil0" d="M12833.72 2984.49c-25.63,-274.73 -3.04,-648.65 -4.33,-934.89 -0.87,-193.55 1.19,-273.54 220.96,-260.81 493.68,28.6 524.97,633.95 401.8,931.76 -101.3,244.92 -293.47,347 -618.43,263.95zm-837.39 -1211.96c329.92,44.5 305.85,115.55 306.03,444.54l-0.08 1473.21c-1.91,379.36 -74.7,338.26 -263.46,379.68 -73.24,16.07 -70.22,-23.23 -71.65,146.4l1240.83 0.36c1.67,-141.33 9.7,-120.36 -43.22,-139.15 -117.11,-41.58 -307.21,36.02 -330.93,-253.1 -16.87,-205.69 -5.14,-465.44 -3.64,-676.05 237.44,25.84 255.78,87.02 533.41,34.19 561.18,-106.78 864.14,-611.24 662.39,-1103.39 -118.12,-288.14 -390.09,-426.04 -791.41,-445.04 -379.04,-17.95 -859.76,-15.25 -1240.24,-1.38l1.97 139.72z"/>
    <path class="fil0" d="M9869.62 1771.09c331.98,42.93 319.52,85.79 319.34,429.24l0.01 1489.96c-1.27,347.06 -49.02,354.08 -376.58,385.51l-2.06 139.2 2032.39 1.54c37.49,-86.91 140.73,-565.26 133.36,-660.18l-132.18 -25.96c-214.73,422.27 -238.93,546.85 -839.02,507.78 -282.06,-18.37 -280.09,-110.2 -281.21,-381.15 -0.88,-214.23 -9.17,-451.44 2.24,-663.22 106.21,-11.61 384.62,-11.53 488.06,5.22 175.01,28.35 185.29,132.72 220.74,292.22l143 0.93 0.85 -803.05 -138.63 -0.88c-59.17,142.6 -36.81,250.49 -210.03,285.24 -95.19,19.1 -405.36,19.94 -504.67,7.92 -6.47,-157.04 -1.76,-322.6 -1.76,-480.62 0,-120.3 -39.43,-398.08 32.99,-465.23 71.63,-61.48 506.11,-32.21 610.68,3.15 188.23,63.65 189.4,211.38 274.38,395.75l137.99 -3.01 -31.2 -590.43c-103.6,-27.22 -1695.78,-22.18 -1879.38,-5.8l0.69 135.88z"/>
    <path class="fil0" d="M14159.05 1772.69c343.88,31.97 317.33,111.01 317.44,444.39l-0.49 1506.78c-3.34,216.89 -17.78,303.72 -218.9,333.8 -182.9,27.36 -157.67,-31.92 -158.82,159.8l2039.96 -0.95c25.3,-140.25 147.48,-555 122.81,-667.8l-125.36 -18.33c-209.8,336.11 -141.71,553.67 -838.46,508.04 -283.84,-18.58 -284.75,-100.99 -285.59,-381.57 -0.62,-206.15 -13.23,-466.15 3.29,-666.09 132.05,-5.11 376.39,-11.95 498.96,11.45 137.26,26.2 154.14,81.73 186.99,199.94 26.96,96.97 -6.52,90.93 165.86,88.91l0.49 -801.09 -144.15 -0.27c-75.45,335.07 -186.92,313.3 -709.23,295.14l-2.44 -853.72c3.06,-69.78 -3.47,-63.94 33.26,-100.92 92.22,-55.06 504.62,-29.67 613.34,8.99 183.22,65.14 186.93,226.06 275.83,398.64l134.22 -7.66 -32.37 -597.14 -1879.2 -1.58 2.55 141.25z"/>
    <path class="fil0" d="M21804.15 1772.64c341.59,32.59 316.55,105.22 317.07,444.44l-0.49 1507.18c-1.89,117.43 -3.65,231.91 -80.55,287.42 -74.15,53.54 -171.45,43.93 -225.8,55.56 -76.16,16.3 -70.92,-31.18 -70.38,149l2039.1 0.29c23.8,-141.83 146.62,-551.61 123.14,-667.74l-125 -18.66c-208.78,320.17 -124.57,553.47 -838.87,508.2 -284.92,-18.06 -284.52,-101.52 -285.81,-381.52 -0.97,-213.78 -9.89,-456.32 3.11,-667.07 466.27,-4.01 615.37,-53.35 685.83,212.5 25.6,96.59 -4.85,90.56 166.33,89.08l-0.48 -802.38 -142.76 0.71c-85.96,339.98 -144.51,303.11 -710.26,295.95 -7.13,-176.71 -20.39,-822.87 13.11,-955.41 107.61,-40.32 517.88,-33.55 632.37,9.18 190.46,71.08 177.53,226.53 275.7,399.05l133.22 -8.48 -33.17 -595.61 -1877.04 -2.88 1.62 141.18z"/>
    <path class="fil1" d="M89.8 4440.85c439.32,-91.41 1483.24,-735.37 1792.74,-1069.24 58.97,-63.62 125.69,-116.71 184.09,-184.35 52.3,-60.59 104.07,-122.8 158.64,-193.28 94.12,-121.57 193.87,-267.24 276.26,-427.77 157.24,-306.36 293.35,-733.2 266.04,-1153.61 -97.91,136.96 -92.38,213.41 -246.84,352.75 -76.33,68.86 -260.8,186.5 -375.86,225.57 61.02,264.35 -13.67,344.44 -177.83,455.54 -74.55,-31.81 -168.01,-130.27 -276.55,-187.69 -336.22,-177.87 -789.74,-77.81 -1059.37,154.73 165.51,11.72 292.55,-36.68 477.84,7.06 714.04,168.55 -353.18,1300.44 -529.38,1508.19l-489.77 512.1z"/>
    <path class="fil0" d="M26622.92 2316.05l142.87 -1c168.96,-489.82 142.41,-518.82 759.14,-506.1 12.51,431.42 1.57,878.95 1.57,1312.14 0,901.45 73.63,900.87 -373.81,956.77l-2.21 133.02 1299.09 4.9c1.76,-245.72 -41.52,-89.39 -266.98,-183.68 -85.61,-35.81 -109.59,-104.89 -118.24,-210.72l2.46 -2011.81c160.38,-14.02 441.44,-11.04 549.22,66.44 146.63,105.4 131.67,283.64 211.52,429.18l134.41 -0.68 -42.55 -765.8c-207.51,-38.33 31.29,93.21 -494.26,92.78 -181.67,-0.15 -1454.84,11.13 -1536.21,-8.73 -126.19,-30.8 -56.44,-109.31 -217.46,-85.78l-48.56 779.08z"/>
    <path class="fil0" d="M4215.64 4076.07c-329.63,-36.44 -327.09,-90.88 -328.01,-419.26l0.04 -1473.2c1.6,-483.8 111.67,-340.76 328.09,-418.46l1.56 -134.02 -1196.44 1.84 11.09 139.34c328.96,36.65 321,96.68 321.34,428.02l-0.09 1473.36c-1.59,328.22 -11.33,365.05 -330.03,403.1l-1 138.66 1197.01 -0.1 -3.56 -139.28z"/>
    <path class="fil1" d="M1851.07 1342.46c-398.02,123.99 -205.23,720.02 193.45,583.04 369.63,-127 194.76,-703.96 -193.45,-583.04z"/>
    <path class="fil2" d="M17912.32 1390.53c61.1,-53.55 50.76,-186.42 81.41,-258.91 20.46,58.43 21.49,232.43 86.26,258.99 48.69,-42.1 85.67,-273.61 91.18,-362.07 -43.39,18.19 -30.31,-33.89 -58.09,115.47 -9.66,51.98 -20.77,103.82 -33.02,153.02 -34.28,-63.07 -19.26,-222.46 -83.91,-268.07 -73.76,42.73 -23.67,130.15 -83.83,241.21 -2.51,-4.16 -6.23,-15.19 -7.2,-12.68 -16.67,43.37 -15.49,-192.87 -76.64,-227.1 -13.15,24.53 -14.68,20.54 -2.75,81.86l41.07 196c16.73,74.08 -2.24,49.04 45.52,82.28z"/>
    <path class="fil2" d="M20258.54 1385.37l2.93 -240.68c18.42,34.43 31.39,76.2 45.2,119.96 5.45,17.25 14,49.91 19.37,63.63 1.96,5.01 7.74,19.53 10.17,24.08 11.02,20.67 13.96,21.06 24.08,33.29 61.54,-53.51 35.42,-114.39 101.03,-224.47 4.39,58.57 -20.28,207.27 33.11,225.15 24.61,-48.04 21.23,-307.14 0,-354.2 -109.96,9.75 -41.15,150.44 -142.19,256.06 -11.83,-49.31 -25.65,-89.89 -42.41,-142.31 -21.01,-65.72 -9.66,-92.2 -66.9,-116.99 -35.93,45.08 -21.67,107.1 -21.95,183.72 -0.89,238.67 -10.94,152.31 37.57,172.76z"/>
    <path class="fil2" d="M14796.04 1381.1c28.72,-8.79 39.88,23.3 38.74,-100.67 -0.47,-51.66 -2.19,-90.83 3.13,-142.97 8.27,51.92 64.91,221.18 106.68,246.49l91.96 -243.98c3.46,45.37 3.15,76.48 2.71,122.81 -0.11,11.3 -1.16,59.79 0.11,67.77 9.7,60.96 5.93,31.96 22.58,55.85 28.14,-49.41 31.75,-310.28 0,-357.04 -47.5,15.31 -22.71,-34.46 -70.41,114.57 -17.12,53.48 -30.75,100.38 -47.24,152.96 -25.8,-36.31 -40.46,-89.09 -57.36,-143.68 -48.48,-156.63 -18.03,-109.77 -76.48,-122.04 -42.71,76.35 -14.8,252.24 -14.41,349.93z"/>
    <path class="fil2" d="M17291.95 1386.33c39.49,-56.13 17.98,-136.64 24.54,-253 41.62,59.87 99.45,213.61 159.89,253.89 2.95,-4.2 7.8,-15.06 8.75,-12.67 0.95,2.35 6.38,-9.38 7.46,-13.27 8.53,-30.57 25.15,-283.78 -16.22,-332.92 -32.53,53.34 -15.94,185.09 -19.9,251.65 -45.78,-55.72 -93.1,-216.14 -164.53,-252.64 -24.95,45.72 -27.74,302.35 0,358.96z"/>
    <path class="fil2" d="M26647.86 1385.87c15.98,-22.35 13.48,18.36 23.3,-55.06l1.52 -197.19 121.85 216.81c29.64,43.79 4.65,13.94 37.77,36.22 36.64,-50.99 39.97,-311.44 0,-357.75 -10.8,17.76 -10.67,-10.76 -17.06,49.21l-2.13 201.97c-45.8,-54.29 -94.16,-217.54 -165.24,-252.18 -25.98,46.01 -16.13,102.66 -16.06,167.97 0.04,33.19 -1.54,68.56 -1.03,101.24l17.09 88.76z"/>
    <path class="fil2" d="M20913.59 1386.27l13.42 -243.9 44.91 62.06c44.17,82.77 74.3,178.32 131.54,180.52 14,-80.09 22.39,-289.72 -5.43,-355.06 -44.21,23.65 -29.09,23.97 -28.5,97.67 0.38,48.23 0.66,94.72 -0.26,143.04 -45.29,-41.06 -54.63,-71.83 -84.71,-128.92 -73.37,-139.27 -29.25,-97.15 -87.73,-111.01 -5.35,15 -37.77,335.57 16.76,355.59z"/>
    <path class="fil2" d="M25004.71 1385.72c18.57,-29.76 21.78,48.34 19.83,-122.84 -0.52,-45.59 -0.28,-84.46 3.43,-129.98 31.95,55.91 102.79,214.74 161.18,253.78 2.69,-4.16 7.13,-14.85 7.98,-12.53l13.06 -161.54c-0.1,-32.8 2,-69.68 1.2,-101.53 -1.85,-75.05 -4.95,-60.05 -22.24,-82.62 -15.17,21.54 -21.13,-34.56 -19.62,116.92 0.46,45.71 0.08,88.93 -1.78,134.62 -29.72,-32.82 -54.55,-83.7 -80.5,-132.45 -32.77,-61.55 -26.94,-104.81 -99.3,-118.94 -3.3,68.2 -19.93,296.61 16.77,357.11z"/>
    <path class="fil2" d="M25723.11 1227.8c69.24,-1.66 129.31,-15.04 125.52,66.68 -2.44,52.6 -14.65,57.09 -125.33,55.14l-0.2 -121.82zm6.35 -159.44c77.24,-1.38 64.83,-9.13 117.97,27.11l-4.84 66.93c-48.38,33.47 -37.07,25.53 -117.15,24.83l4.02 -118.87zm-46.31 316.04c255.73,29.09 230.89,-107.79 164.11,-173.63 56.57,-63.04 53.59,-85.56 18.55,-169.41l-182.11 -12.11 -0.55 355.14z"/>
    <path class="fil2" d="M25332.55 1067.22l112.66 9.69c36.46,90.54 58.27,187.84 -21.26,270.65l-96.39 -1.59 4.98 -278.75zm-46.26 319.29l170.18 -5.5c53.77,-66.46 76.32,-138.84 52.31,-251.21 -24.67,-115.5 -107.07,-103.1 -219.26,-100.06l-3.24 356.76z"/>
    <path class="fil2" d="M16927.43 1068.5c115.73,-1.75 143.56,17.94 141.26,144.2 -2.22,121.59 -23.89,140.34 -147.67,136.04l6.4 -280.24zm-47.73 320.14l167.31 -5.35c59.91,-76.87 77.99,-140.31 54.64,-249.95 -25,-117.42 -91.3,-104.68 -217.81,-104.87l-4.14 360.17z"/>
    <path class="fil2" d="M16109.39 1064.92l116.86 11.93 -8.91 121.45 -110.06 5.37 2.11 -138.74zm-44.42 320.3c59.59,-23.77 33.63,52.83 42.88,-134.57 64.08,-6.55 56.68,-12.65 84.29,38.19 10.28,18.93 9.06,26.88 19.53,47.11l40.74 51.9c9.7,-19.33 16.09,5.55 10.99,-35.75 -0.28,-2.26 -11.55,-31.08 -13,-34.33 -11.48,-25.72 -22.09,-42.17 -33.88,-71.68 65.09,-70.25 70.81,-106.09 27.53,-207.3l-175.94 -11.53 -3.14 357.95z"/>
    <path class="fil2" d="M19590.35 1062.42l99.26 15.85c60.09,109.08 0.65,128.71 -102.54,128.91l3.27 -144.75zm-18.11 324.39l16.27 -140.74c63.33,2.52 59.25,-4.65 85.43,48.59 36.7,74.66 3.6,61.37 78.24,93.92l-57.19 -142.36c64.13,-80.55 88.42,-132.83 7.25,-211.33l-156.05 -4.39c-2.44,74.29 -33,334.66 26.05,356.32z"/>
    <path class="fil2" d="M15296.69 1358.73c-155.68,-3.23 -114.84,-216.48 -67.42,-297.79l88.25 1.29c56.42,75.2 65.15,234.36 -20.83,296.5zm39.31 -330.12l-125.42 -2.57c-81.9,88.06 -102.82,376.89 68.82,369.82 83.06,-3.43 109.72,-64.27 116.49,-149.66 8.48,-106.88 -2.37,-146.87 -59.89,-217.59z"/>
    <path class="fil2" d="M22906.21 1357.59c-94.99,6.46 -107.7,-15.45 -116.11,-110.76 -6.11,-69.29 -4.26,-166.75 55.62,-184.74 138.47,-41.62 132.06,213.36 60.49,295.5zm-98.39 -326.06c-113.61,122.95 -65,444.48 121.44,352.19 74.4,-36.83 155.43,-403.83 -121.44,-352.19z"/>
    <path class="fil2" d="M20665.37 1356.81c-48.31,-55.41 -125.8,-322.91 79.27,-292.51 31.57,49.09 46.14,119.29 35.59,199 -11.31,85.36 -25.95,102.24 -114.86,93.52zm79.91 35.12c108.81,-86.12 102.57,-273.44 17.91,-360.05 -141.58,-27.94 -184.72,30.61 -186.61,163.35 -2.08,145.95 25.45,208.53 168.7,196.7z"/>
    <path class="fil2" d="M24799.65 1109.61c11.37,15.3 3.26,-6.58 21.85,34.93l25.84 113.8 -87.18 -4.88 39.49 -143.85zm-110.51 278.89c75.74,-41.63 21.56,-0.36 64.06,-88.22l100.56 -4.83c28,57.09 3.74,49.27 50.33,92.7 26.03,-54.04 0.13,-87.74 -24.69,-183.46 -30.05,-115.9 -23.58,-148.97 -75.91,-180.37 -56.05,43.48 -102.33,280.63 -114.36,364.19z"/>
    <path class="fil2" d="M21852.54 1385.97c29.81,-56.53 10.81,-93 23.47,-164.52l121.8 -0.94c14.88,72.47 -3.77,107.32 22.4,165.36 23.35,-27.37 27.06,43.14 26.67,-173.25 -0.17,-95.99 16.26,-140.75 -26.67,-182.19 -23.57,42.97 -14.23,90.86 -15.91,150.7l-133.93 -0.67c-1.28,-65.07 9.77,-107.04 -17.83,-150.1 -19.98,21.72 -17.69,-29.85 -25.3,63.69 -5.4,66.44 -12.31,242.42 25.3,291.93z"/>
    <path class="fil2" d="M20034.1 1100.38l50.12 157.23 -88.9 0.37 38.78 -157.61zm-92.99 286.66c75.67,-89.93 -14.07,-93.83 153.98,-91.43 11.77,53.8 0.07,74.03 47.23,91.69 18,-31.59 -50.95,-325.98 -100.6,-362.5 -48.41,27.7 -28.74,5.68 -47.63,73.76 -9.57,34.51 -15.64,58.12 -25.31,92.75l-40.18 144.8c-6.25,94.49 -6.59,13.77 12.52,50.92z"/>
    <path class="fil2" d="M18838.43 1103.7l38.88 154.12 -88.88 -3.09 50 -151.04zm-104.54 281.92c30.8,-24.53 5.84,12.94 32.59,-40.8 6.19,-12.43 6.51,-24.14 17.71,-45.5l106.84 -5.62c12.09,59.51 -1.4,56.27 44.06,93.56 13.5,-30.58 18.13,-21.86 -0.99,-88.85 -9.11,-31.96 -16.76,-58.87 -25.82,-92.39 -17.38,-64.33 -22.11,-148.01 -73.79,-181.53 -47.66,34.14 -52.7,110.83 -69.61,170.02 -23.61,82.61 -50.27,145.16 -30.99,191.12z"/>
    <path class="fil2" d="M24161.41 1103.43l50.39 151 -89.31 3.44 38.93 -154.45zm-95.65 282.07c49.09,-40.19 18.83,-28.02 50.3,-86.48l106.35 -5.43c13.74,71.17 1.57,60.95 44.55,93.33 5.54,-12.7 11.44,-6.7 10.72,-35.35l-37.77 -145.33c-17.29,-63.98 -22.33,-147.84 -73.55,-181.74 -48.69,34.68 -52.06,109.46 -69.12,169.07 -8.24,28.78 -18.15,59.81 -27.59,92.38 -1.65,5.67 -13.06,42.31 -13.82,52.7 -5.48,74.12 -1.71,21.76 9.93,46.83z"/>
    <path class="fil2" d="M26161.69 1341.57c29.78,-45.6 21.83,-84.89 21.9,-145.65 0.09,-76.1 12.42,-124.06 -21.97,-166.21 -30.44,41.87 -20.05,89.42 -19.43,149.45 0.62,59.54 5.2,98.22 -13.15,150.64 -175.75,126.42 -91.4,-211.69 -135.09,-298.2 -52.34,27.07 -33.09,215.33 -22.35,275.28 18.07,100.82 108.66,94.62 146.67,79.64 60.67,-23.91 20.36,-5.15 43.41,-44.96z"/>
    <path class="fil2" d="M16708.32 1107.19l35.38 150.64 -86.4 0.67 26.8 -117.22c11.33,-23.31 14.23,-22 24.21,-34.09zm-103.81 279.17l16.1 -22.37c42.7,-82.85 15.28,-70.22 136.38,-68.59 11.36,53.93 0.85,74.92 48.72,91.75 20.42,-36.76 -58.57,-327.18 -100.6,-362.61 -60.35,32.93 -60.85,126.69 -99.47,257.27 -23.88,80.75 -21.91,68.66 -1.13,104.54z"/>
    <path class="fil2" d="M18536.78 1062.3l116.29 19.21 -11.29 112.17 -110.55 6.02 5.55 -137.4zm-5.36 320l1.01 -138.7c93.61,-6.49 101.47,6.12 152.99,-47.73 55.3,-176.43 -53.64,-168.44 -191.1,-166.63 -4.8,62.34 -3.42,120.99 -3.69,183.37 -1.04,243.13 -11.25,153.61 40.79,169.69z"/>
    <path class="fil2" d="M21263.77 1393.5l132.56 -12.92 12.67 -179.24 -99.56 -0.58 56.04 62.09c-0.93,167.78 -109.28,87.74 -125.31,44.26 -31.3,-84.92 -8.81,-187.98 29.38,-239.6 26.41,-16.72 85.2,12.15 129.76,-22.29 -211.07,-133.95 -289.37,223.8 -135.53,348.28z"/>
    <path class="fil2" d="M22531.8 1064.9l114.16 11.23 2.26 96.67c-43.57,34.38 -35.39,33.64 -117.59,27.94l1.17 -135.84zm-25.35 320.54c35.82,-52.11 14.17,-80.01 29.74,-143.12 138.9,-10.78 171.22,-11.32 151.84,-165.05 -66.25,-68.87 -90.91,-52 -197.93,-46.09 -3.68,61.12 -2.5,120.28 -2.64,181.44 -0.17,71.35 -11.33,122.63 18.98,172.82z"/>
    <path class="fil2" d="M14447.93 1388.08c52.82,0.26 149.84,20.06 170.96,-24.8l-141.67 -15.17 1.7 -127.27 122.83 -0.34 -7.03 -39.03 -117.76 -0.9 1.83 -112.38 139.44 -0.89c-24.18,-48.78 61.9,-40.08 -179.57,-38.35 -6.61,95.78 -19.22,273.3 9.27,359.12z"/>
    <path class="fil2" d="M19061.46 1065.38l111.94 10.46c26.89,107.34 -0.07,133.68 -112.67,124.54l0.72 -135zm-25.76 319.99c37.31,-51.39 15.85,-80.2 30.31,-142.63 142.55,-12.62 171.33,-7.23 152.48,-167.75 -70.11,-65.26 -90.82,-50.63 -198.21,-43.39l-1.2 314.63c5.77,28.96 8.31,24.61 16.61,39.13z"/>
    <path class="fil2" d="M16344.88 1380.04c49.89,12.27 164.36,28.52 183.33,-16.75l-141.78 -14.63 1.41 -128.54c13.48,0.13 62.6,1.75 66.61,1.02 86.27,-15.92 22.85,-0.28 52.56,-25.25 -47.67,-22.7 -59.69,-14.56 -121.26,-14.18l2.22 -114.1c71.72,-0.04 90.89,11.78 138.57,-22.39l-71.57 -17.92c-30.8,-1.53 -74.54,1.26 -107.04,1.24l-3.07 351.5z"/>
    <path class="fil2" d="M28664.49 1385.84c134.44,8.45 152.57,17.95 180.26,-22.56l-141.15 -18.89 1.36 -118.5c66.29,-10.67 79.48,8.38 120.88,-30.02l-122.5 -21.31 1.64 -100.39c72.16,-14.06 91.53,10.06 139.76,-28.96l-83.53 -17.93c-34.07,-0.42 -62.9,2.22 -96.33,6.31l-0.39 352.25z"/>
    <path class="fil2" d="M27806.91 1381.59c69.32,11.22 139.56,22.22 181.98,-18.3l-140.93 -18.7 1.38 -118.91c26.48,-3.92 40.76,-1.59 56.92,-3.92 14.58,-2.1 16.95,-0.17 30.54,-4.39 39.46,-12.27 12.31,-1.65 33.5,-21.49l-122.46 -21.01 1.51 -100.85c72.67,-13.95 92.09,10.01 139.79,-28.81l-82.96 -17.89c-33.09,-0.44 -64.5,2.33 -97.12,5.77l-2.14 348.49z"/>
    <path class="fil2" d="M26405.11 1296.32l-33.47 57.56c-84.14,12.6 -59.54,-21.07 -123.1,34.33 118.43,13.01 234.45,11.06 186.56,-142.12 -39.62,-54.56 -22.41,-29.36 -91.96,-64.93 -58.22,-29.77 -105.2,-106.09 20.16,-119.56 64.67,-6.95 22.12,15.9 69.46,-16.41 -89.39,-56.81 -206.3,-17.34 -181.97,95.06 22.75,105.11 115.63,45.41 154.33,156.05z"/>
    <path class="fil2" d="M27586.38 1259.35c2.14,55.18 10.71,82.45 -39.13,97.03 -42.88,12.54 -65.74,-14.72 -113.87,6.9 6.15,7.17 -1.44,28.72 69.96,34.25 148.88,11.54 147.87,-139.6 85.56,-188 -44.75,-34.77 -118.69,-25.22 -115.09,-96.97 3.41,-68.13 86.6,-49.99 95.97,-51.03 10.77,-1.19 -11.68,31.63 49.07,-16.32 -76.97,-50.24 -184.1,-33.41 -186.07,67 -2.18,111.03 86.73,96.34 153.61,147.14z"/>
    <path class="fil2" d="M19475.75 1365.39l-150.45 -12.84 3.11 -132.57c78.58,-19 134.69,16.04 103.84,-40.89l-102.77 -1.67 1.3 -105.1c71.52,-9.32 94.88,9.64 139.02,-27.11 -43.74,-27.05 -115.31,-17.84 -179.23,-14.25l-2.39 354.12 133.17 4.25c90.99,-6.51 25.76,-2.55 54.43,-23.95z"/>
    <path class="fil2" d="M15610.73 1296.32c-44.36,120.86 -66.34,7.8 -158.7,91.54 104.07,11.39 99.64,17.62 182.28,-19.09 36.41,-151.04 14.9,-134.94 -89.42,-186.65 -50.23,-24.9 -105,-107.7 19.8,-121.53 6.34,-0.7 27.3,0.59 33.19,-0.34 41.09,-6.51 20.06,-2.64 40.13,-15.05 -87.37,-53.05 -208.33,-19.83 -181.93,93.88 24.54,105.72 117.24,46.81 154.65,157.23z"/>
    <path class="fil2" d="M18375.2 1296.32c-45.13,118.29 -64.46,10.11 -158.07,91.68 104.15,11.43 100.8,18.79 181.64,-21.15 69.14,-242.88 -210.67,-153.19 -133.51,-282.81 17.11,-28.72 33.31,-20.32 65.93,-23.61 61.48,-6.2 20.94,17.97 71.32,-15.22 -90.2,-56.11 -206.08,-16.12 -181.9,94.54 22.8,104.35 116.07,46.47 154.58,156.57z"/>
    <path class="fil2" d="M27195.75 1039.52l-17.86 127.48c71.28,53.81 108.84,58.71 154.49,94.71 2.14,49.64 4.65,79.94 -37.3,92.83 -74.61,22.94 -49.59,-35.19 -117.95,30.91 93.94,14.16 117.03,26.95 191.13,-34.69 27.61,-172.12 -45.25,-116.93 -122.83,-182.74 -16.74,-14.2 -81.06,-95.85 56.43,-107.07 17.56,-1.44 15.68,2.36 31.24,-0.33 44.85,-7.74 7.05,5.19 32.04,-15.39 -45.51,-30.9 -131.7,-34.04 -169.38,-5.7z"/>
    <path class="fil2" d="M17764.25 1366.59l-141.18 -13.33c-24.7,-56.98 -20.24,-73.96 -6.54,-134.79 24.97,-4.82 53.94,-4.1 64.1,-6.15 52.85,-10.7 44.41,14.83 39.89,-32.55l-102.44 -1.91 1.34 -106.05 106.57 -6.97c37.96,-10.28 11.82,-1.65 32.91,-19.63 -43.19,-27.24 -115.91,-17.54 -179.41,-14.82l-2.76 356.12c57.88,2.63 141.81,17.87 187.53,-19.92z"/>
    <path class="fil2" d="M22305.57 1370.49l-149.69 -19.51 -5.92 -135.91 104.95 -4.99c33.99,-25.46 13.61,16.08 6.13,-28.93l-101.27 -2.25 1.39 -108.89c67.35,-3.98 84.29,9.19 137.73,-24.81 -4.59,-2.17 -10.95,-10.79 -13.79,-6.42 -2.85,4.38 -10.19,-4.67 -14.23,-5.46l-150.2 -3.58 -3.11 357.54c67.8,2.02 138.89,12.61 188.02,-16.8z"/>
    <path class="fil2" d="M14163.4 1381.48l6.31 -164.94 143.78 -0.89c6.91,47.16 2.74,45.76 4.82,80.92 5.44,92.26 5.69,60.26 30.19,83.31l-7.37 -353.44 -28 154.7 -134.61 -2.19c-0.82,-74.37 12.02,-107.24 -21.98,-148.59 -28.83,39.4 -27.37,244.6 -20.31,301.91 10.3,83.67 -11.53,30.5 27.16,49.21z"/>
    <path class="fil2" d="M23989.84 1351.54c-102.31,9.59 -151.3,24.62 -170.41,-73.81 -52.14,-268.36 101.28,-189.43 167.28,-232.52 -265.65,-157.26 -297.31,401.37 -56.73,352.5 104.03,-21.13 29.3,-4.31 59.87,-46.17z"/>
    <path class="fil2" d="M26934.44 1373.28l178.43 7.62c-64,-42.88 -49.43,-17.02 -133.66,-28.56 -24.49,-56.73 -19.99,-72.74 -6.76,-134.01 115.62,-20.98 110.52,17.11 103.54,-38.72l-102.06 -1.6 1.42 -106.4c71.86,-7.81 96.5,9.87 139.57,-26.39 -43.58,-27.26 -116.31,-17.48 -179.8,-14.89l-0.67 342.96z"/>
    <path class="fil2" d="M23061.6 1383.8l180.7 5.93c-61.12,-60.34 -27.29,-31.62 -133.69,-40.96 -27.83,-135.87 26.23,-259.31 -32.09,-318.59 -42.61,75.2 -15.5,254.6 -14.92,353.62z"/>
    <path class="fil2" d="M28063.55 1376.54c58.77,17.98 133.56,28.68 178.83,-13.25 -45.93,-19.91 -78.98,-12 -137.67,-14.11 -2.61,-91.74 23.08,-245.94 -14.91,-317.69 -31.33,16.7 -27.45,-40.54 -26.5,147.59 0.33,65.8 0.06,131.65 0.24,197.46z"/>
    <path class="fil2" d="M21574.81 1045.21c107.83,89.35 57.18,-134.09 77.31,268.86 2.96,59.28 -3.06,30.88 15.99,70.62 16.85,-21.73 25.74,34.02 23.61,-138.57 -0.69,-55.8 -0.61,-111.7 1.07,-167.43l64.04 -26.74c2.5,-1.22 7.5,-4.22 10.99,-6.74 -41.69,-25.46 -149.8,-30.69 -193,0z"/>
    <path class="fil2" d="M13884.07 1064.8l71.7 -0.05c16.84,84.69 -28.75,299.6 33.11,321.53 39.73,-411.1 -42.27,-254.63 86.72,-341.06 -13.26,-7.53 -8.24,-10.77 -37.04,-15.35l-154.48 -1.25 0 36.19z"/>
    <path class="fil2" d="M15709.23 1064.66c93.38,2.18 76.24,-48.48 76.18,317.15 46.48,-13.85 31.39,8.49 40.56,-49.28l-0.49 -253.83c15.71,-9.96 -0.38,0.13 28.13,-11.37l46.9 -22.11c-44.5,-27.64 -134.95,-16.57 -191.57,-16.5l0.29 35.94z"/>
    <path class="fil2" d="M24349.8 1384.37l180.42 5.03c-34.94,-36.49 -1.87,-25.52 -62,-39.35 -2.02,-0.46 -60.03,-0.06 -69.77,-0.71 -31.98,-120.08 22.39,-257.02 -30.89,-318.63 -34.32,48.6 -18.45,291.48 -17.76,353.67z"/>
    <path class="fil2" d="M28410.98 1045.21l21.63 11.78c77.77,33.67 56.27,-22.13 56.39,328.88 51.88,-23.62 38.38,60.66 38.24,-240.21 -0.06,-123.82 18.99,-54.55 77.24,-100.44 -41.19,-27.62 -154.3,-24.77 -193.5,0z"/>
    <path class="fil2" d="M23409.64 1045.21l73.67 33.48 5.85 307.13c64.05,-17.71 27.29,-147.03 37.61,-307.13l74.3 -33.48c-5.59,-3 13.55,-16.19 -88.28,-18.28l-103.14 18.28z"/>
    <path class="fil2" d="M28324.55 1385.72l16.95 -24.81c18.56,-62.23 24.3,-286.02 -16.95,-330.42 -26.28,41.34 -19.01,200.64 -17.91,266.6 0.16,9.74 0.75,40.83 2.29,49.11 12.72,68.43 -2.75,4.95 15.62,39.52z"/>
    <path class="fil2" d="M23328.02 1385.54c29.88,-52.01 18.3,-103.7 18.2,-172.93 -0.1,-71.09 12.19,-138.27 -18.2,-182.01 -17.57,20.05 -17.29,-21.89 -24.01,63.44 -5.02,63.73 -10.66,243.94 24.01,291.5z"/>
    <path class="fil2" d="M26547.26 1385.33c23.37,-50.93 14.59,-105.09 14.5,-172.72 -0.08,-61.65 9.54,-138.56 -14.5,-181.73 -25.54,24.62 -26.99,-61.3 -26.27,164.98 0.3,94.06 -16.37,140.36 26.27,189.46z"/>
    <path class="fil2" d="M23680.13 1386.15c3.04,-4.05 8.05,-14.62 9.03,-12.22 0.96,2.37 6.59,-9.1 7.7,-12.89l8.34 -250.06c-2.45,-83 -10.23,-64.38 -25.07,-80.7 -35.72,55.4 -19.33,195.04 -18.13,266.8 1.63,97.82 12.99,79.43 18.13,89.07z"/>
   </g>
   <polygon class="fil3" points="-0,0 28961.96,0 28961.96,5456.52 -0,5456.52 "/>
  </g>
 </g>
</svg>
