<?xml version="1.0" encoding="UTF-8"?>
<!DOCTYPE svg PUBLIC "-//W3C//DTD SVG 1.0//EN" "http://www.w3.org/TR/2001/REC-SVG-20010904/DTD/svg10.dtd">
<!-- Creator: CorelDRAW X7 -->
<svg xmlns="http://www.w3.org/2000/svg" xml:space="preserve" width="7.93965in" height="1.7902in" version="1.0" style="shape-rendering:geometricPrecision; text-rendering:geometricPrecision; image-rendering:optimizeQuality; fill-rule:evenodd; clip-rule:evenodd"
viewBox="0 0 7940 1790"
 xmlns:xlink="http://www.w3.org/1999/xlink">
 <defs>
  <style type="text/css">
   <![CDATA[
    .fil11 {fill:#0081CB}
    .fil2 {fill:#0083C9}
    .fil8 {fill:#0084CB}
    .fil1 {fill:#012D44}
    .fil3 {fill:#012D49}
    .fil5 {fill:#012E46}
    .fil9 {fill:#0186CC}
    .fil0 {fill:#0870A6}
    .fil13 {fill:#2C5163}
    .fil6 {fill:#36B2F2}
    .fil12 {fill:#3BB7F3}
    .fil18 {fill:#3BB9F4}
    .fil10 {fill:#3EBAF5}
    .fil7 {fill:#3FBAFB}
    .fil15 {fill:#41B6F2}
    .fil19 {fill:#41BAF3}
    .fil17 {fill:#45B9E5}
    .fil16 {fill:#47B3EF}
    .fil14 {fill:#4D6A7E}
    .fil23 {fill:#62ABD2}
    .fil22 {fill:#8DB5C9}
    .fil20 {fill:#9DAFB7}
    .fil21 {fill:#A5DFFB}
    .fil4 {fill:#FEFFFC}
   ]]>
  </style>
 </defs>
 <g id="Layer_x0020_1">
  <metadata id="CorelCorpID_0Corel-Layer"/>
  <g id="_301927120">
   <g>
    <polygon class="fil0" points="330,345 635,339 642,1454 1301,1451 1304,1627 1446,1630 1445,1784 973,1789 968,1618 497,1614 485,1435 337,1442 "/>
    <polygon class="fil1" points="163,341 330,345 337,1442 485,1435 497,1614 968,1618 973,1789 483,1790 486,1632 478,1614 331,1624 323,1451 155,1443 163,1131 2,1130 0,653 170,661 "/>
    <polygon class="fil2" points="336,173 494,185 491,0 970,2 968,170 1445,180 1446,328 1595,333 1605,1621 1446,1610 1446,1630 1304,1627 1301,1451 1290,330 807,332 635,339 330,345 "/>
    <polygon class="fil3" points="637,552 816,553 815,332 635,339 "/>
    <polygon class="fil4" points="818,645 924,653 922,742 1010,740 1003,845 1116,845 1111,564 1292,563 1298,1217 1111,1217 1113,1022 1017,1027 1016,929 919,935 922,832 821,837 829,1222 640,1223 646,552 816,553 "/>
    <polygon class="fil5" points="1118,1307 1119,1452 642,1454 641,1223 829,1222 831,1307 "/>
    <path class="fil6" d="M1301 1451l-182 1 0 -235 179 -2c0,0 1,236 3,236z"/>
    <polygon class="fil7" points="816,480 1120,487 1121,564 1292,563 1290,330 815,332 "/>
    <polygon class="fil8" points="1120,487 816,480 816,553 818,645 924,653 922,742 1010,740 1003,845 1116,845 1111,564 1121,564 "/>
    <path class="fil9" d="M1119 1452l182 -1c-1,0 -3,-213 -3,-234l-179 0 0 235zm-103 -523l-97 6 3 -103 -101 5 8 385 2 85 287 0 1 145 182 -1 -3 -236 -179 2 -8 0 2 -195 -96 5 -1 -98z"/>
    <polygon class="fil10" points="970,2 1448,5 1448,157 1600,165 1595,333 1770,333 1773,655 1939,656 1938,1128 1778,1127 1772,1453 1604,1454 1595,350 1595,339 1586,332 1446,328 1445,180 973,170 "/>
   </g>
   <g>
    <path class="fil11" d="M5953 813l3 132 -60 -9 -24 56 -342 1 -3 -490 11 -35 60 -4c46,-53 -88,-44 263,-43 91,0 182,0 273,0l0 345 -68 0 -13 -285 -2 278c-161,5 -73,-17 -98,54zm-426 668l0 -310 71 0 0 -47 178 0 2 175 178 5 0 177 462 0 2 -130 -173 0 -5 -179c-29,0 -68,2 -96,-2l-84 -23c0,-200 -68,-163 355,-163l4 -528 -179 0 0 -167 -1002 0 0 1192 287 0z"/>
    <polygon class="fil11" points="2664,1481 2664,813 2736,813 2736,766 2914,766 2914,946 3094,959 3094,1124 3272,1124 3272,1470 3555,1481 3558,289 3264,299 3272,766 3205,766 3164,812 3023,812 3023,648 2843,635 2843,455 2665,455 2665,288 2378,288 2378,1481 "/>
    <path class="fil11" d="M7379 1183l8 120 -61 -9 -35 56 -331 1 -2 -848 11 -36 60 2c51,-66 -15,-27 71,-50l287 1 1 179 178 0c0,127 -2,255 1,382 3,200 -13,172 -188,202zm151 310l7 -6 11 -145 120 -10 -10 -14 16 -122 71 0 0 -49 104 0 2 -500 -178 0 0 -189 -179 -13 0 -156 -822 0 0 1192 858 12z"/>
    <path class="fil11" d="M4459 596l-77 -4c-76,20 -32,-14 -47,54l12 120 -68 0 -13 38 -100 9 8 132 530 0 -1 357 -67 0 -12 47 -517 1 -13 -180 -285 1 7 133 171 -1 0 167 824 11 0 -95 10 -37 161 -9 9 -347 -169 0 -14 -179 -177 -6 0 -150 81 -22c-14,-65 22,-37 99,-37l12 -132 158 -10 9 -170 -1010 15 11 115 534 4 0 178 -66 -3z"/>
    <path class="fil12" d="M5240 289l1002 0 0 167 179 0 -4 528c-423,0 -355,-37 -355,163l84 23c28,4 67,2 96,2l5 179 173 0 -2 130 -3 47c26,-39 13,-28 66,-47l0 -167c-21,0 -80,4 -97,2 -117,-15 -29,1 -70,-26l0 -167 -163 0 0 -121c436,0 357,28 357,-596l-194 2 0 -167 -1074 0 0 48z"/>
    <path class="fil12" d="M6672 289l822 0 0 156 179 13 0 189 178 0 -2 500 -3 47c48,-67 67,-27 77,-61 3,-8 11,-6 17,-9l0 -527 -195 2 0 -191 -163 0 0 -168 -911 1 1 48z"/>
    <path class="fil12" d="M3264 299l294 -10 -3 1192 -2 47 93 -71 0 -1218c-482,2 -374,-15 -382,60z"/>
    <path class="fil13" d="M7530 1493l-858 -12 0 -1192 -72 0 0 1240 716 1c261,6 214,67 214,-37z"/>
    <path class="fil13" d="M2736 813l72 0 -1 206 215 -15 0 167 143 0 0 382c141,-36 244,-23 388,-25l2 -47 -283 -11 0 -346 -178 0 0 -165 -180 -13 0 -180 -178 0 0 47z"/>
    <polygon class="fil13" points="5527,1481 5240,1481 5240,289 5169,289 5169,1529 5527,1529 "/>
    <polygon class="fil13" points="2664,1481 2378,1481 2378,288 2307,289 2307,1529 2664,1529 "/>
    <path class="fil14" d="M7311 477l13 163 144 0 -4 470c-31,62 -54,-6 -85,73 175,-30 191,-2 188,-202 -3,-127 -1,-255 -1,-382l-178 0 -1 -179 -287 -1c-86,23 -20,-16 -71,50l282 8z"/>
    <path class="fil13" d="M4811 1481l-824 -11 0 -167 -171 1 -7 -133 -66 1 -29 214 167 0 0 167c215,-55 685,-24 930,-24l0 -48z"/>
    <path class="fil12" d="M4811 1481l72 0 0 -122c20,1 49,2 68,-1l69 -24c92,-59 57,-146 58,-405l-195 0 0 -163 -162 -1 -9 -129 -81 22 0 150 177 6 14 179 169 0 -9 347 -161 9 -10 37 0 95z"/>
    <path class="fil15" d="M3980 302l1010 -15 -9 170 -158 10 -12 132 72 0 0 -122c225,2 194,-102 194,-240l-1053 4c-89,19 -29,-25 -44,61z"/>
    <polygon class="fil15" points="7326,1294 7030,1286 7029,477 7311,477 7029,469 6969,467 6958,503 6960,1351 7291,1350 "/>
    <path class="fil16" d="M2378 288l287 0 0 167 178 0 0 180 180 13 0 164 141 0 41 -46 3 -476c-49,107 -17,337 -17,475l-97 0 0 -167 -163 0 0 -193 -195 3 0 -167 -358 47z"/>
    <polygon class="fil14" points="4622,1014 4636,1302 4703,1302 4704,945 4174,945 4166,813 4106,820 4081,1019 "/>
    <polygon class="fil14" points="4459,596 4525,599 4525,421 3991,417 3980,302 3890,273 3885,502 4459,493 "/>
    <path class="fil13" d="M5598 1171l96 0c37,60 23,27 23,167 224,0 133,2 167,24l0 167 531 -1 3 -47 -462 0 0 -177 -178 -5 -2 -175 -178 0 0 47z"/>
    <path class="fil17" d="M3809 1171l285 -1 13 180 517 -1 12 -47 -14 -288 0 272 -454 0 0 -163c-73,0 -145,-1 -217,-2 -165,-1 -126,10 -142,50z"/>
    <polygon class="fil17" points="5896,936 5599,928 5599,478 6053,481 5598,464 5538,468 5527,503 5530,993 5872,992 "/>
    <path class="fil13" d="M6053 481l13 285 68 0 0 -345c-91,0 -182,0 -273,0 -351,-1 -217,-10 -263,43l455 17z"/>
    <polygon class="fil18" points="2664,1481 2736,1481 2736,813 2664,813 "/>
    <polygon class="fil13" points="3205,766 3272,766 3264,299 3208,290 "/>
    <polygon class="fil18" points="5527,1481 5598,1481 5598,1171 5527,1171 "/>
    <polygon class="fil19" points="7658,1318 7748,1318 7745,1196 7674,1196 "/>
    <path class="fil20" d="M5884 1362c-34,-22 57,-24 -167,-24 0,-140 14,-107 -23,-167l-5 194 195 -3z"/>
    <path class="fil21" d="M6481 1481c16,-25 12,-2 22,-49 1,-8 3,-43 3,-44 2,-25 -1,-71 0,-98l-192 0c41,27 -47,11 70,26 17,2 76,-2 97,-2l0 167z"/>
    <polygon class="fil13" points="5896,936 5956,945 5953,813 5884,813 "/>
    <path class="fil22" d="M7537 1487c47,-43 46,53 46,-126 151,0 52,2 85,-29l-120 10 -11 145z"/>
    <polygon class="fil13" points="4279,766 4347,766 4335,646 4287,646 "/>
    <polygon class="fil13" points="7326,1294 7387,1303 7379,1183 7316,1197 "/>
    <path class="fil23" d="M4166 813l100 -9 13 -38 8 -120c-17,26 -12,3 -23,50 -3,14 -2,52 -2,68 -149,4 -70,-16 -96,49z"/>
    <polygon class="fil13" points="7745,1196 7846,1194 7849,1147 7745,1147 "/>
   </g>
  </g>
 </g>
</svg>
