<?xml version="1.0" encoding="UTF-8"?>
<!DOCTYPE svg PUBLIC "-//W3C//DTD SVG 1.0//EN" "http://www.w3.org/TR/2001/REC-SVG-20010904/DTD/svg10.dtd">
<!-- Creator: CorelDRAW X7 -->
<svg xmlns="http://www.w3.org/2000/svg" xml:space="preserve" width="6.16028in" height="3.151in" version="1.0" style="shape-rendering:geometricPrecision; text-rendering:geometricPrecision; image-rendering:optimizeQuality; fill-rule:evenodd; clip-rule:evenodd"
viewBox="0 0 6160 3151"
 xmlns:xlink="http://www.w3.org/1999/xlink">
 <defs>
  <style type="text/css">
   <![CDATA[
    .fil0 {fill:black}
   ]]>
  </style>
 </defs>
 <g id="Layer_x0020_1">
  <metadata id="CorelCorpID_0Corel-Layer"/>
  <g id="_285943712">
   <path class="fil0" d="M4125 2348l71 0 0 -249c13,9 180,225 187,249l70 0 0 -218 -70 0 0 86c-22,-15 -143,-178 -176,-222 -24,-33 -12,-28 -82,-28l0 382z"/>
   <path class="fil0" d="M1732 2060c0,152 158,93 210,171 -58,110 -147,22 -179,0l-48 54c54,36 161,115 253,34 76,-66 49,-158 -36,-186 -57,-20 -130,-13 -130,-73 0,-79 164,-8 164,-8 12,-18 26,-35 39,-54 -35,-19 -82,-47 -133,-47 -68,0 -140,42 -140,109z"/>
   <path class="fil0" d="M3127 2138l0 39c0,94 88,171 211,171 44,0 132,-40 132,-78l0 -93 -62 0 0 78c-22,6 -104,55 -173,-6 -88,-80 -12,-238 112,-214 51,10 32,23 69,33l49 -45c-61,-42 -68,-57 -150,-57 -99,0 -188,87 -188,172z"/>
   <path class="fil0" d="M4632 2138l0 39c0,166 248,225 328,117l-45 -49c-121,85 -213,-8 -213,-68 0,-57 12,-113 82,-137 67,-24 101,9 129,28l48 -45c-75,-109 -329,-57 -329,115z"/>
   <path class="fil0" d="M2184 2208c0,61 79,140 140,140 154,0 195,-78 195,-226l-70 0c0,99 -7,156 -117,156 -39,0 -78,-39 -78,-78l0 -234 -70 0 0 242z"/>
   <path class="fil0" d="M2699 2037l171 0c74,0 106,117 -47,117 0,79 -3,52 44,120 16,23 43,49 50,74l86 0c-7,-24 -28,-44 -44,-65 -10,-14 -12,-19 -22,-32 -19,-25 -17,-10 -20,-43 120,-28 113,-242 -47,-242l-171 0 0 71z"/>
   <path class="fil0" d="M835 2037l172 0c74,0 105,117 -47,117 0,79 -3,52 44,120 16,23 43,49 50,74l85 0 -66 -97c-18,-25 -17,-10 -19,-43 119,-28 112,-242 -47,-242l-172 0 0 71z"/>
   <polygon class="fil0" points="3658,2192 3814,2192 3814,2122 3728,2122 3728,2037 3938,2037 3938,1966 3658,1966 "/>
   <polygon class="fil0" points="5155,2192 5310,2192 5310,2122 5225,2122 5225,2037 5435,2037 5435,1966 5155,1966 "/>
   <polygon class="fil0" points="1326,2192 1482,2192 1482,2122 1397,2122 1397,2037 1607,2037 1607,1966 1326,1966 "/>
   <path class="fil0" d="M1903 2715c0,105 67,164 172,164 48,0 70,-23 101,-39l-40 -46c-45,29 -89,52 -142,1 -91,-87 13,-174 65,-174 49,0 51,13 78,31l41 -45c-57,-31 -49,-40 -126,-40 -77,0 -149,71 -149,148z"/>
   <path class="fil0" d="M2730 2621c94,0 227,-22 171,94 -59,14 -101,8 -171,8l0 156 54 0 0 -102c88,0 188,17 188,-117 0,-120 -166,-93 -242,-93l0 54z"/>
   <path class="fil0" d="M2285 2879l63 0c14,-61 82,-203 86,-242 20,15 40,80 46,109l63 0c-10,-42 -56,-116 -70,-179l-63 0 -94 232c-9,22 -25,55 -31,80z"/>
   <path class="fil0" d="M3673 2879l63 0c9,-39 28,-82 43,-121 12,-30 40,-95 42,-121 21,15 40,80 47,109l62 0c-5,-23 -25,-63 -36,-88 -13,-30 -26,-59 -34,-91l-62 0 -125 312z"/>
   <path class="fil0" d="M3322 2590l0 31 102 0 0 125 54 0 0 -125 102 0c0,-72 25,-54 -234,-54 -18,0 -24,5 -24,23z"/>
   <polygon class="fil0" points="1326,2348 1607,2348 1607,2278 1326,2278 "/>
   <polygon class="fil0" points="3658,2348 3938,2348 3938,2278 3658,2278 "/>
   <polygon class="fil0" points="5155,2348 5435,2348 5435,2278 5155,2278 "/>
   <polygon class="fil0" points="3120,2879 3174,2879 3174,2567 3120,2567 "/>
   <polygon class="fil0" points="835,2348 905,2348 905,2154 835,2154 "/>
   <polygon class="fil0" points="2699,2348 2769,2348 2769,2154 2699,2154 "/>
   <polygon class="fil0" points="4125,2879 4344,2879 4344,2824 4125,2824 "/>
   <polygon class="fil0" points="4125,2746 4180,2746 4180,2567 4125,2567 "/>
   <polygon class="fil0" points="2441,2029 2512,2029 2512,1966 2441,1966 "/>
   <path class="fil0" d="M4383 2029l70 0 0 -39c0,-18 -6,-24 -24,-24l-46 0 0 63z"/>
   <polygon class="fil0" points="3424,2879 3478,2879 3478,2824 3424,2824 "/>
   <path class="fil0" d="M2535 2879l55 0c-6,-25 -10,-23 -16,-47l-55 0c3,26 6,28 16,47z"/>
   <path class="fil0" d="M3923 2879l54 0c-5,-25 -10,-23 -15,-47l-55 0c2,26 6,28 16,47z"/>
   <path class="fil0" d="M805 1288c22,-9 9,1 29,-17 24,-21 45,-43 56,-68 -26,30 -55,59 -85,85z"/>
   <path class="fil0" d="M5348 1280c-31,-29 -51,-44 -77,-77l49 60c19,17 6,8 28,17z"/>
   <path class="fil0" d="M2086 0c174,0 328,87 420,220l0 -1c131,-25 434,-54 575,-54 53,0 83,6 124,8 267,15 416,28 679,94 293,73 569,188 826,335 28,16 52,33 81,51 94,58 218,144 302,213 25,20 48,39 71,62l261 253c182,180 360,472 470,692 89,178 156,375 201,571 68,290 64,418 64,707l-8 0c0,-179 -44,-419 -85,-584 -12,-46 -25,-92 -38,-134l-41 -123c-71,-213 -192,-428 -312,-616l-104 -145c-25,-32 -47,-62 -73,-91 -28,-32 -52,-60 -78,-93 -31,-38 -69,-59 -73,-85 -31,-29 -51,-44 -77,-77 -16,-1 -101,-84 -118,-100 -16,-15 -19,-15 -35,-28 -114,-96 -229,-181 -357,-259 -110,-68 -250,-144 -371,-198l-234 -93c-238,-80 -445,-132 -732,-165 -129,-15 -505,-24 -653,-5l-189 29c3,0 6,1 9,2l-9 1 -1 -3c10,40 16,83 16,126 0,282 -229,511 -511,511 -216,0 -400,-135 -475,-325l-49 27c-17,10 -33,20 -49,30 0,-1 0,-2 1,-3 -189,100 -362,227 -521,368l-70 63c-22,23 -20,21 -33,22 -26,30 -55,59 -85,85 -2,19 5,4 -14,26l-281 343c-278,368 -501,1030 -501,1494l-8 0c0,-237 -10,-269 27,-511 46,-300 126,-542 256,-804 33,-65 58,-111 94,-171 34,-57 63,-110 102,-163 20,-28 35,-49 56,-77l115 -149c59,-76 259,-280 329,-334 116,-90 152,-132 300,-231 53,-35 105,-69 162,-103l135 -71c0,4 0,8 1,12 -1,-13 -2,-26 -2,-39 0,-282 229,-510 510,-510zm467 303c1,2 2,4 3,6 0,2 1,3 2,5 1,2 2,5 3,7 -1,-2 -2,-5 -3,-7l-2 -5c-1,-2 -2,-4 -3,-6zm9 22c1,3 2,5 3,8 -1,-3 -2,-5 -3,-8zm5 12c1,2 2,5 3,8 -1,-3 -2,-6 -3,-8zm4 11c1,3 2,6 2,9 0,-3 -1,-6 -2,-9zm3 12c1,3 2,6 3,9 -1,-3 -2,-6 -3,-9zm4 12c1,3 2,6 3,10 -1,-4 -2,-7 -3,-10zm-967 324c-1,-3 -2,-6 -4,-9 2,3 3,6 4,9zm-4 -11c-2,-3 -3,-7 -4,-10 1,3 2,7 4,10zm-4 -12c-2,-3 -3,-7 -4,-10 1,3 2,7 4,10zm-4 -12c-1,-3 -2,-7 -3,-10 1,3 2,7 3,10zm-4 -12c-1,-3 -2,-7 -3,-10 1,3 2,7 3,10zm-3 -12c-1,-4 -2,-7 -3,-11 1,4 2,7 3,11zm-3 -12c-1,-4 -2,-8 -3,-12 1,4 2,8 3,12zm-3 -12c0,-4 -1,-8 -2,-12 1,4 2,8 2,12zm-2 -13c-1,-4 -1,-8 -2,-12 1,4 1,8 2,12zm-2 -12c-1,-4 -1,-8 -2,-12 1,4 1,8 2,12zm-2 -13c0,-4 -1,-8 -1,-12 0,4 1,8 1,12zm-1 -13c-1,-4 -1,-8 -1,-12 0,4 0,8 1,12zm507 -420c204,0 369,165 369,368 0,204 -165,369 -369,369 -203,0 -368,-165 -368,-369 0,-203 165,-368 368,-368z"/>
  </g>
 </g>
</svg>
