<?xml version="1.0" encoding="UTF-8"?>
<!DOCTYPE svg PUBLIC "-//W3C//DTD SVG 1.1//EN" "http://www.w3.org/Graphics/SVG/1.1/DTD/svg11.dtd">
<!-- Creator: CorelDRAW 2018 (64-Bit) -->
<svg xmlns="http://www.w3.org/2000/svg" xml:space="preserve" width="31.2396in" height="5.45652in" version="1.1" style="shape-rendering:geometricPrecision; text-rendering:geometricPrecision; image-rendering:optimizeQuality; fill-rule:evenodd; clip-rule:evenodd"
viewBox="0 0 31239.58 5456.52"
 xmlns:xlink="http://www.w3.org/1999/xlink">
 <defs>
  <style type="text/css">
   <![CDATA[
    .fil0 {fill:none}
    .fil2 {fill:black}
    .fil1 {fill:#05ADED}
   ]]>
  </style>
 </defs>
 <g id="Layer_x0020_1">
  <metadata id="CorelCorpID_0Corel-Layer"/>
  <g id="_488574032192">
   <polygon class="fil0" points="-0,0 31239.58,0 31239.58,5456.52 -0,5456.52 "/>
   <g>
    <path class="fil1" d="M22497.55 3069.23c-48.23,-348.13 -20.18,-1013.93 144.84,-1267.2 89.59,-137.52 289.62,-236.32 523.54,-151.81 223.48,80.72 153.83,340.42 153.17,615.14 -0.51,211.48 51.25,1283.56 -61.8,1381.55 -143.05,123.98 -661.19,133.94 -759.76,-577.67zm492.36 -2557.13c80.16,272.94 428.55,-89.77 311.3,891.42 -2097.06,-237.52 -1830.27,2024.61 -1215.33,2472.83 370.44,270 865.89,220.44 1187.34,-46.79l84.62 190.64c168.33,-0.56 373.15,-50.74 551.16,-66.78 522.78,-47.11 368.31,35.56 633.83,52.48 178.26,11.35 440.39,-14.06 634.26,-11.87l540.21 3.81c10.74,-2.54 22.91,-7.95 32.07,-10.84l57.78 -29.3c-131.73,-339.75 -328.26,285.8 -320.07,-1100.02 2.88,-487.44 6.57,-975.57 -4.05,-1462.96l-1061.19 99.78c14.81,300.85 245.26,4.22 288.95,430.07l1.97 1443.14c-4.45,297.89 -23.78,357.71 -213.62,491.93 -549.9,-137.12 -408.02,-611.61 -407.1,-1509.67 0.67,-651.5 19.27,-1324.33 8.56,-1971.76l-1110.7 133.86z"/>
    <path class="fil2" d="M6266.6 573.05c80.16,248.43 156.17,7.2 287.46,222.05 88.86,145.4 49.59,2215.02 47.06,2529.41 -5.96,742.23 -289.59,428.46 -324.83,721.91 209.68,15.27 450.31,-3.74 665.99,-3.9 115.32,-0.09 224.28,1.06 339.51,5.8 28.11,1.17 150.7,7.52 169.87,5.95l180.04 -54.24c-157.04,-321.78 -257.5,173.48 -256.76,-930.79 0.15,-198.26 -26.48,-970.32 31.37,-1151.12 40.9,-127.8 443.46,-192.11 616.21,-13.48 157.04,162.4 121.16,506.5 119.96,741.53 -1.37,266.42 5.52,540.75 -0.32,805.7 -12.47,567.28 -224.2,316.9 -254.2,588.23 6.49,0.96 1223.15,57.32 1342.26,-40.06 -142.76,-327.02 -310.6,223.05 -309.4,-888.48 0.33,-317.46 33.11,-856.04 -29.61,-1141.7 -154.8,-704.99 -1134.64,-688.82 -1504.96,-273.96l0.43 -1290.59c-170.62,30.03 -1065.7,136.16 -1120.07,167.77z"/>
    <path class="fil1" d="M28224.5 1494.69c20.42,327.5 267.36,-17.56 295.68,471.02l-2.75 1526.42c-34.07,421.19 -260.63,270.62 -321.81,465.58 88.84,68.91 1224.01,79.63 1348.67,0 -130.87,-336.66 -245.41,203.5 -245.92,-973.09 -0.13,-302.75 -25.47,-904.34 32.8,-1172.6 881.4,-241.55 741.99,390.23 726.39,1597.21 -7.58,586.79 -230.41,326.49 -249.47,576.55 202.2,41.63 446.33,8.83 657.55,10.46l585.14 2.94c99.97,-23.28 36.16,2.77 96.41,-41.48 -92.09,-218.13 -185.11,-45.19 -268.29,-278.59 -93.62,-262.67 26.88,-1268.94 -59.58,-1727.47 -133.67,-708.94 -1079.07,-737 -1496.01,-324.21l-64.68 -245.95 -1034.12 113.2z"/>
    <path class="fil1" d="M14166.42 3910.14c4.37,-253.67 -47.57,-1006.3 76.96,-1157.43 122.6,-148.76 154.55,-19.01 227.94,-191.18 -147.99,-124.61 -783.74,-45.99 -1014.79,-52.69 -157.86,-4.57 -239.39,-26.48 -345.95,52.69 162.44,328.69 335.26,-268.5 294.99,1224.46 -1069.11,190.06 -1253.69,-1166.03 -1086.01,-2066.29 150.31,-807.01 657.76,-1163.5 1363.38,-991.38 422.02,102.93 213.3,344.42 451.73,389.4 78.1,-123.24 54.4,-438.81 33.1,-617.94 -1564.51,-192.46 -2706.39,195.39 -2739.94,1763.98 -47,2197.94 2306.36,1854.28 2738.58,1646.38z"/>
    <path class="fil1" d="M14272.74 1546.15c25.14,216.21 88.57,45.7 264.02,253.83 158.02,435.56 -99.69,1368.94 135.89,1873.02 219.48,469.66 1053.33,504.48 1403.71,114.8 7.63,8.89 15.27,13.42 17.72,30.38l73.75 210.18 1039.41 -113.5c-20.05,-283.51 -211.46,-3.9 -290.32,-364.45 -43.64,-199.53 -10.2,-1863.93 -12.31,-2156.96l-826.9 88.09c-38.04,2.18 -83.97,2.54 -120.83,10.15l-105.67 37.39c-8.38,3.34 -22.19,9.93 -31.92,17.08 100.55,228.97 196.41,34.69 278.4,280.91 57.39,172.36 32.46,1585.2 12.02,1749.87 -158.16,91.83 -434.5,120.87 -587.25,8.49 -314.26,-231.17 -77.31,-1469.01 -170.57,-2192.41 -154.83,6.29 -994.75,93.45 -1079.15,153.14z"/>
    <path class="fil1" d="M18522.54 2789.48c10.47,111.79 27.5,611.38 9.5,702.46 -42.02,212.68 -338.98,197.85 -460.51,84.43 -117.31,-109.46 -133.09,-420.85 -42.6,-589.83 83.39,-155.67 266.02,-204.23 493.61,-197.07zm-1071.69 -879.53c369.37,190.45 150.78,-296.67 786.59,-158.46 332.76,72.34 303.5,480.83 292.63,812.85 -696.32,54.48 -1415.08,11.48 -1332.47,873.19 32.37,337.61 200.57,527.53 504.24,585.01 447.46,84.7 577.87,-75.72 832.88,-258.78 182.47,180.65 215.46,327.17 627.98,274.77 244.97,-31.13 506.99,-183.83 505.12,-410.93l-339.09 -25.63c-171.58,-595.42 213.44,-1650.56 -288.71,-2052.28 -444.58,-355.69 -1562.85,-175.03 -1589.17,360.26z"/>
    <path class="fil1" d="M27111.61 2788.93c10.97,107.63 23.14,611.51 4.35,700.77 -41.35,196.49 -317.41,217.44 -456.75,85.63 -95.26,-90.11 -322.37,-800.66 452.41,-786.4zm-1058.16 -851.3c278.83,92.35 305.07,-340.1 808.72,-176.97 252.76,81.87 310.73,510.04 229.24,813.2 -716.68,47.83 -1376.78,-4.94 -1304.81,867.37 61.3,743 942.39,736.33 1336.68,320.39 173.91,188.45 256.45,325.42 628.47,276.94 257.91,-33.63 501.7,-192.51 507.81,-419.22 -267.11,-20.69 -367.86,81.7 -382.57,-249.64 -8.8,-198.19 2.72,-436.62 3.77,-638.92 1.84,-353.49 46.85,-850.52 -165.57,-1097.91 -447.93,-521.63 -1756.38,-210.8 -1661.75,304.76z"/>
    <path class="fil2" d="M1355.63 2614.65c-98.78,54.86 -236.63,49.76 -209.04,236.32 28.69,194.11 173.59,117.82 336.1,162.19 41.93,400.71 -81.25,713.46 -152.65,1081.78 -68.42,352.99 -24.81,807.26 451.4,626.69 430.14,-163.11 41.09,-922.08 -1.52,-1444.6 -30.62,-375.54 34.51,-251.24 323.36,-309.46 103.41,-310.28 15.67,-249.5 -142.17,-351.54 405.48,-98.09 688.84,-376.9 802.16,-765.56 136,-466.49 88.83,-1166.49 -517.2,-1024.91 -137.93,105.11 -262.67,371.38 -35.59,504.85 106.21,62.41 229.99,61.95 268.78,-55.52 45.75,-138.59 -60,-129.73 -149.09,-237.95 426.76,-17.2 381.81,947.48 -253.32,1310.17 -70.59,-102.1 2.1,-132.8 -176.61,-161.92l137.98 -131.34c-42.39,-72.13 -7.87,-25.41 -58.86,-71.33l-74.77 -55.58c202.5,-104.42 67.02,20.76 144.6,-126.93l-66.3 -143.63c67.03,-66.38 -22.18,42.93 66.1,-67.91 -66.36,-130.74 -207.3,-117.61 -139.41,-367.11 34.72,-127.57 163.95,-194.51 75.65,-335.72 -7.89,-8.28 -22.17,-29.5 -27.47,-20.58 -5.33,8.95 -21.19,-15.67 -28.89,-18.81 -151.7,-61.83 -437.42,-46.8 -520.49,-19.2 -260.55,86.54 -48.69,277.04 -7.79,396.18 83.61,243.57 -101,273.54 -150.57,365.24l145.08 126.93 -152.47 69.85c56.56,164.96 -3.63,55.66 146.54,141.69 -101.14,79.92 -108.24,56.43 -136.69,126.92l143.89 81.07c-119.9,124.04 -70.46,-20.45 -144.51,130.48 74.85,116.25 109.97,38.87 142.63,154.54 -766.9,-159.44 -899.56,-1407.45 -435.66,-1364.02 -94.42,87.18 -124.95,77.23 -92.06,265.39 366.89,154.13 485.92,-286.39 238.66,-454.21 -733.96,-498.11 -1007.67,1567.92 250.19,1747.57z"/>
    <path class="fil2" d="M3515.32 1145.61c289.17,-81.41 -194.14,-408.59 940.13,-401.6l2.81 2666.14c-13.46,321.97 -64.89,361.9 -245.89,439.92 -74.5,32.12 -29.09,0.48 -90.33,40.04 -118.94,76.82 -6.83,-60.49 -71.57,67.61 10.2,6.99 26.99,1.62 33.53,15.9l1421.2 36.98c180.61,-16.63 64.52,28.26 159.26,-52.88 -86.78,-229.67 -363.64,53.25 -411.1,-464.3l-0.26 -2747.82c801.94,7.63 663.46,-1.2 839.53,300.72 58.02,99.48 -11.29,44.84 88.08,102.48 102.19,-139.41 63.66,-473.11 35.53,-648.42l-2736.6 -0.65c-21.12,175.38 -70.85,535.56 35.66,645.89z"/>
    <path class="fil2" d="M9843.9 2313.68c3.81,-303.13 -12.12,-715.89 314.85,-719.04 347.28,-3.33 308.81,438.25 308.28,715.37l-623.13 3.68zm9.61 253.66l1400.21 -1.3c-17.08,-1184.37 -850.34,-1389.48 -1513.47,-1100.16 -836.22,364.85 -1127.38,2342.94 254.71,2565.9 412,66.46 899.51,-28.22 1130,-257.3 546.09,-542.8 -1384.12,701.98 -1271.45,-1207.14z"/>
    <path class="fil1" d="M19639.9 1495.43c17.06,322.19 262.93,-11.19 291.96,470.58 17.06,283.5 59.36,1634.34 -103.31,1804.22 -94.04,98.22 -152.18,60.51 -203.26,187.47l65.16 27.97c8.87,2.11 23.68,8.24 34.96,10.33l246.62 3.9c130.29,-5.3 251.77,-4.8 381.95,-3.55l668.11 2.61c100.12,-24.42 32.31,3.54 92.44,-41.26 -88.24,-212.53 -240.66,-29.53 -347.63,-240.91 -83.6,-165.23 -93.22,-1645.74 -12.34,-1854.78 509.67,-181.88 426.13,233.96 699.44,327.89 139.1,-135.2 292.35,-454.18 303.92,-695.84 -155.49,-75.48 -380.16,-158.26 -621.97,-99.17 -165.37,40.41 -376.44,189.41 -419.01,295.78l-35.72 -299.1 -1041.3 103.87z"/>
    <path class="fil1" d="M24843.52 611.97c-494.56,258.02 51.83,837.78 540.48,549.96 417.32,-245.8 5.48,-834.81 -540.48,-549.96z"/>
    <rect class="fil0" x="92.4" y="474.11" width="3125" height="4604.17"/>
   </g>
  </g>
 </g>
</svg>
