<?xml version="1.0" encoding="UTF-8"?>
<!DOCTYPE svg PUBLIC "-//W3C//DTD SVG 1.1//EN" "http://www.w3.org/Graphics/SVG/1.1/DTD/svg11.dtd">
<!-- Creator: CorelDRAW -->
<svg xmlns="http://www.w3.org/2000/svg" xml:space="preserve" width="0.366724in" height="0.366724in" version="1.1" style="shape-rendering:geometricPrecision; text-rendering:geometricPrecision; image-rendering:optimizeQuality; fill-rule:evenodd; clip-rule:evenodd"
viewBox="0 0 7.7 7.7"
 xmlns:xlink="http://www.w3.org/1999/xlink"
 xmlns:xodm="http://www.corel.com/coreldraw/odm/2003">
 <defs>
  <style type="text/css">
   <![CDATA[
    .fil0 {fill:white;fill-rule:nonzero}
   ]]>
  </style>
 </defs>
 <g id="Layer_x0020_1">
  <metadata id="CorelCorpID_0Corel-Layer"/>
  <g id="_105553248453728">
   <path class="fil0" d="M3.85 0c1.06,0 2.03,0.43 2.72,1.13 0.7,0.7 1.13,1.66 1.13,2.72 0,1.06 -0.43,2.03 -1.13,2.72 -0.7,0.7 -1.66,1.13 -2.72,1.13 -1.06,0 -2.03,-0.43 -2.72,-1.13 -0.7,-0.7 -1.13,-1.66 -1.13,-2.72 0,-1.06 0.43,-2.03 1.13,-2.72 0.7,-0.7 1.66,-1.13 2.72,-1.13zm2.09 1.76c-0.53,-0.53 -1.27,-0.87 -2.09,-0.87 -0.82,0 -1.55,0.33 -2.09,0.87 -0.53,0.53 -0.87,1.27 -0.87,2.09 0,0.82 0.33,1.55 0.87,2.09 0.53,0.53 1.27,0.87 2.09,0.87 0.82,0 1.55,-0.33 2.09,-0.87 0.53,-0.53 0.87,-1.27 0.87,-2.09 0,-0.82 -0.33,-1.55 -0.87,-2.09z"/>
   <polygon class="fil0" points="2.75,2.33 5.37,4.95 4.95,5.37 2.33,2.75 "/>
   <polygon class="fil0" points="5.37,2.75 2.75,5.37 2.33,4.95 4.95,2.33 "/>
  </g>
 </g>
</svg>
