<?xml version="1.0" encoding="UTF-8"?>
<!DOCTYPE svg PUBLIC "-//W3C//DTD SVG 1.1//EN" "http://www.w3.org/Graphics/SVG/1.1/DTD/svg11.dtd">
<!-- Creator: CorelDRAW -->
<svg xmlns="http://www.w3.org/2000/svg" xml:space="preserve" width="0.366724in" height="0.366724in" version="1.1" style="shape-rendering:geometricPrecision; text-rendering:geometricPrecision; image-rendering:optimizeQuality; fill-rule:evenodd; clip-rule:evenodd"
viewBox="0 0 8.18 8.18"
 xmlns:xlink="http://www.w3.org/1999/xlink"
 xmlns:xodm="http://www.corel.com/coreldraw/odm/2003">
 <defs>
  <style type="text/css">
   <![CDATA[
    .fil0 {fill:white;fill-rule:nonzero}
   ]]>
  </style>
 </defs>
 <g id="Layer_x0020_1">
  <metadata id="CorelCorpID_0Corel-Layer"/>
  <path class="fil0" d="M4.09 0c1.13,0 2.15,0.46 2.89,1.2 0.74,0.74 1.2,1.76 1.2,2.89 0,1.13 -0.46,2.15 -1.2,2.89 -0.74,0.74 -1.76,1.2 -2.89,1.2 -1.13,0 -2.15,-0.46 -2.89,-1.2 -0.74,-0.74 -1.2,-1.76 -1.2,-2.89 0,-1.13 0.46,-2.15 1.2,-2.89 0.74,-0.74 1.76,-1.2 2.89,-1.2zm2.22 1.87c-0.57,-0.57 -1.35,-0.92 -2.22,-0.92 -0.87,0 -1.65,0.35 -2.22,0.92 -0.57,0.57 -0.92,1.35 -0.92,2.22 0,0.87 0.35,1.65 0.92,2.22 0.57,0.57 1.35,0.92 2.22,0.92 0.87,0 1.65,-0.35 2.22,-0.92 0.57,-0.57 0.92,-1.35 0.92,-2.22 0,-0.87 -0.35,-1.65 -0.92,-2.22z"/>
  <polygon class="fil0" points="2.16,3.5 4.11,5.4 3.66,5.85 1.71,3.95 "/>
  <polygon class="fil0" points="6.44,3.07 3.66,5.85 3.21,5.4 5.99,2.62 "/>
 </g>
</svg>
