<?xml version="1.0" encoding="UTF-8"?>
<!DOCTYPE svg PUBLIC "-//W3C//DTD SVG 1.1//EN" "http://www.w3.org/Graphics/SVG/1.1/DTD/svg11.dtd">
<!-- Creator: CorelDRAW -->
<svg xmlns="http://www.w3.org/2000/svg" xml:space="preserve" width="3.09295in" height="1.37906in" version="1.1" style="shape-rendering:geometricPrecision; text-rendering:geometricPrecision; image-rendering:optimizeQuality; fill-rule:evenodd; clip-rule:evenodd"
viewBox="0 0 310.62 138.5"
 xmlns:xlink="http://www.w3.org/1999/xlink"
 xmlns:xodm="http://www.corel.com/coreldraw/odm/2003">
 <defs>
  <style type="text/css">
   <![CDATA[
    .fil1 {fill:#FFC0BD}
    .fil0 {fill:#FFE7E7}
    .fil2 {fill:#CF4D32;fill-rule:nonzero}
    .fil3 {fill:#FFC0BD;fill-rule:nonzero}
   ]]>
  </style>
 </defs>
 <g id="Layer_x0020_1">
  <metadata id="CorelCorpID_0Corel-Layer"/>
  <g id="_105553228515296">
   <path class="fil0" d="M41.82 103.83c-4.12,-0.54 -7.32,-4.09 -7.32,-8.35 0,-4.63 3.79,-8.42 8.42,-8.42l65.77 0c0.45,-4.53 1.55,-8.87 3.2,-12.92l0 -1.43 -5.77 0c-4.63,0 -8.42,-3.79 -8.42,-8.42 0,-4.63 3.79,-8.42 8.42,-8.42l5.77 0 13.35 0c8.11,-6.78 18.55,-10.86 29.95,-10.86 11.4,0 21.84,4.08 29.95,10.86l84.93 0c4.63,0 8.42,3.79 8.42,8.42 0,4.63 -3.79,8.42 -8.42,8.42l-45.04 0 0 0c-4.03,0.01 -7.32,3.3 -7.32,7.33 0,4.03 3.3,7.33 7.33,7.33l31.57 0c3.53,1 6.13,4.26 6.13,8.1 0,4.63 -3.79,8.42 -8.42,8.42l-54 0c-5.35,19.92 -23.53,34.59 -45.14,34.59 -8.45,0 -16.37,-2.24 -23.21,-6.16l-123.56 0c-4.63,0 -8.42,-3.79 -8.42,-8.42 0,-3.76 2.5,-6.96 5.91,-8.04l54.04 0c3.31,0 6.02,-2.71 6.02,-6.02l0 -0c0,-3.31 -2.71,-6.02 -6.02,-6.02l-18.13 0z"/>
   <circle class="fil1" cx="154.08" cy="89.75" r="42.69"/>
   <path class="fil0" d="M210.3 25.6l0.02 0 34.48 0c4.04,0 7.35,3.31 7.35,7.35 0,4.04 -3.31,7.35 -7.35,7.35l-55.89 0c-4.04,0 -7.35,-3.31 -7.35,-7.35 0,-3.73 2.81,-6.83 6.42,-7.29l0 -0.06c2.98,-0.05 5.4,-2.5 5.4,-5.49l0 -0c0,-3.02 -2.47,-5.49 -5.49,-5.49l-8.25 0c-3.53,-0.54 -6.25,-3.6 -6.25,-7.27 0,-4.04 3.31,-7.35 7.35,-7.35l40.84 0c4.04,0 7.35,3.31 7.35,7.35 0,3.67 -2.72,6.73 -6.25,7.27l-12.37 0c-3.02,0 -5.49,2.47 -5.49,5.49l0 0c0,3.01 2.46,5.47 5.46,5.49l0 0z"/>
   <rect class="fil0" x="238.82" y="6.22" width="15.88" height="10.98" rx="1.92" ry="5.49"/>
   <rect class="fil0" x="294.74" y="64.16" width="15.88" height="10.98" rx="1.92" ry="5.49"/>
   <path class="fil2" d="M189.69 120.01c-1.24,1.45 -2.57,2.83 -4,4.14 -1.43,1.31 -2.92,2.52 -4.47,3.62l-1.66 -2.33c1.48,-1.06 2.89,-2.19 4.2,-3.4 1.31,-1.2 2.57,-2.5 3.75,-3.89l2.18 1.86z"/>
   <path class="fil2" d="M107.29 87.22c0.45,-8.81 3.36,-17.12 8.16,-24.12 4.81,-7 11.52,-12.7 19.59,-16.28l1.15 2.61c-7.56,3.36 -13.86,8.71 -18.38,15.28 -4.52,6.58 -7.25,14.38 -7.67,22.65l-2.86 -0.15z"/>
   <path class="fil2" d="M143.19 44.06c1.77,-0.42 3.57,-0.74 5.4,-0.96 1.82,-0.21 3.65,-0.32 5.47,-0.32 12.93,0 24.64,5.24 33.12,13.72 8.48,8.48 13.72,20.18 13.72,33.12 0,4.57 -0.67,9.09 -1.97,13.43 -1.3,4.33 -3.23,8.48 -5.75,12.31l-2.39 -1.57c2.36,-3.58 4.16,-7.48 5.39,-11.55 1.22,-4.07 1.85,-8.32 1.85,-12.62 0,-12.14 -4.92,-23.13 -12.88,-31.09 -7.96,-7.96 -18.95,-12.88 -31.09,-12.88 -1.73,0 -3.45,0.1 -5.14,0.3 -1.69,0.2 -3.38,0.5 -5.06,0.9l-0.66 -2.79z"/>
   <path class="fil2" d="M174.75 131.62c-3.22,1.59 -6.6,2.79 -10.07,3.6 -3.48,0.81 -7.04,1.22 -10.62,1.22 -7.66,0 -15.09,-1.88 -21.7,-5.33 -6.61,-3.45 -12.39,-8.48 -16.76,-14.77l2.35 -1.64c4.11,5.92 9.54,10.64 15.73,13.88 6.19,3.24 13.17,5 20.37,5 3.37,0 6.72,-0.39 9.97,-1.14 3.26,-0.76 6.44,-1.89 9.45,-3.37l1.27 2.57z"/>
   <path class="fil2" d="M115.73 19.23c2.74,0 5.23,1.12 7.04,2.92l0.01 0.01c1.8,1.81 2.92,4.3 2.92,7.04 0,2.74 -1.12,5.23 -2.92,7.04l-0.01 0.01c-1.81,1.8 -4.3,2.92 -7.04,2.92 -2.74,0 -5.23,-1.12 -7.04,-2.92l-0.01 -0.01c-1.8,-1.81 -2.92,-4.3 -2.92,-7.04 0,-2.74 1.12,-5.23 2.92,-7.04l0.01 -0.01c1.81,-1.8 4.3,-2.92 7.04,-2.92zm5.02 4.94c-1.28,-1.28 -3.05,-2.07 -5.02,-2.07 -1.96,0 -3.74,0.79 -5.02,2.07l-0.01 0.01c-1.28,1.28 -2.07,3.05 -2.07,5.02 0,1.96 0.79,3.74 2.07,5.02l0.01 0.01c1.28,1.28 3.05,2.07 5.02,2.07 1.96,0 3.74,-0.79 5.02,-2.07l0.01 -0.01c1.28,-1.28 2.07,-3.05 2.07,-5.02 0,-1.96 -0.79,-3.74 -2.07,-5.02l-0.01 -0.01z"/>
   <path class="fil3" d="M225.73 106.7c2.24,0 4.26,0.91 5.73,2.37 1.47,1.47 2.37,3.49 2.37,5.73 0,2.24 -0.91,4.26 -2.37,5.73 -1.47,1.47 -3.49,2.37 -5.73,2.37 -2.24,0 -4.26,-0.91 -5.73,-2.37 -1.47,-1.47 -2.37,-3.49 -2.37,-5.73 0,-2.24 0.91,-4.26 2.37,-5.73 1.47,-1.47 3.49,-2.37 5.73,-2.37zm3.7 4.4c-0.95,-0.95 -2.26,-1.53 -3.7,-1.53 -1.45,0 -2.76,0.59 -3.7,1.53 -0.95,0.95 -1.53,2.26 -1.53,3.7 0,1.45 0.59,2.76 1.53,3.7 0.95,0.95 2.26,1.53 3.7,1.53 1.45,0 2.76,-0.59 3.7,-1.53 0.95,-0.95 1.53,-2.26 1.53,-3.7 0,-1.45 -0.59,-2.76 -1.53,-3.7z"/>
   <polygon class="fil2" points="137.15,72.85 172.91,104.52 171.01,106.66 135.25,74.99 "/>
   <polygon class="fil2" points="172.91,74.99 137.15,106.66 135.25,104.52 171.01,72.85 "/>
  </g>
 </g>
</svg>
