<?xml version="1.0" encoding="UTF-8"?>
<!DOCTYPE svg PUBLIC "-//W3C//DTD SVG 1.1//EN" "http://www.w3.org/Graphics/SVG/1.1/DTD/svg11.dtd">
<!-- Creator: CorelDRAW -->
<svg xmlns="http://www.w3.org/2000/svg" xml:space="preserve" width="3.05797in" height="1.3402in" version="1.1" style="shape-rendering:geometricPrecision; text-rendering:geometricPrecision; image-rendering:optimizeQuality; fill-rule:evenodd; clip-rule:evenodd"
viewBox="0 0 305.11 133.72"
 xmlns:xlink="http://www.w3.org/1999/xlink"
 xmlns:xodm="http://www.corel.com/coreldraw/odm/2003">
 <defs>
  <style type="text/css">
   <![CDATA[
    .fil1 {fill:#E4FBCA}
    .fil0 {fill:#F3FFE2}
    .fil2 {fill:#66A731;fill-rule:nonzero}
    .fil3 {fill:#E4FBCA;fill-rule:nonzero}
   ]]>
  </style>
 </defs>
 <g id="Layer_x0020_1">
  <metadata id="CorelCorpID_0Corel-Layer"/>
  <g id="_105553229012800">
   <path class="fil0" d="M40.38 100.25c-3.97,-0.52 -7.07,-3.95 -7.07,-8.06 0,-4.47 3.66,-8.13 8.13,-8.13l63.5 0c0.44,-4.37 1.5,-8.56 3.09,-12.48l0 -1.38 -5.57 0c-4.47,0 -8.13,-3.66 -8.13,-8.13 0,-4.47 3.66,-8.13 8.13,-8.13l5.57 0 12.89 0c7.83,-6.54 17.91,-10.48 28.92,-10.48 11,0 21.09,3.94 28.92,10.48l82 0c4.47,0 8.13,3.66 8.13,8.13 0,4.47 -3.66,8.13 -8.13,8.13l-43.48 0 0 0c-3.89,0.01 -7.06,3.19 -7.06,7.08 0,3.89 3.19,7.08 7.08,7.08l30.48 0c3.41,0.97 5.92,4.11 5.92,7.82 0,4.47 -3.66,8.13 -8.13,8.13l-52.14 0c-5.16,19.24 -22.72,33.4 -43.58,33.4 -8.16,0 -15.81,-2.16 -22.41,-5.95l-119.3 0c-4.47,0 -8.13,-3.66 -8.13,-8.13 0,-3.63 2.41,-6.72 5.71,-7.76l52.17 0c3.2,0 5.82,-2.62 5.82,-5.82l0 -0c0,-3.2 -2.62,-5.82 -5.82,-5.82l-17.5 0z"/>
   <circle class="fil1" cx="148.77" cy="86.66" r="41.22"/>
   <path class="fil0" d="M203.05 24.71l0.02 0 33.29 0c3.91,0 7.1,3.19 7.1,7.1 0,3.9 -3.19,7.1 -7.1,7.1l-53.96 0c-3.91,0 -7.1,-3.19 -7.1,-7.1 0,-3.6 2.72,-6.6 6.2,-7.04l0 -0.06c2.87,-0.05 5.21,-2.41 5.21,-5.3l0 -0c0,-2.91 -2.38,-5.3 -5.3,-5.3l-7.96 0c-3.4,-0.52 -6.04,-3.47 -6.04,-7.02 0,-3.91 3.19,-7.1 7.1,-7.1l39.44 0c3.9,0 7.1,3.19 7.1,7.1 0,3.54 -2.63,6.5 -6.04,7.02l-11.94 0c-2.91,0 -5.3,2.38 -5.3,5.3l0 0c0,2.91 2.37,5.29 5.28,5.3l0 0z"/>
   <rect class="fil0" x="230.59" y="6.01" width="15.33" height="10.6" rx="1.85" ry="5.3"/>
   <rect class="fil0" x="289.55" y="47.35" width="15.56" height="10.75" rx="1.88" ry="5.38"/>
   <path class="fil2" d="M183.15 115.87c-1.19,1.4 -2.48,2.73 -3.86,3.99 -1.38,1.26 -2.82,2.43 -4.32,3.5l-1.6 -2.25c1.43,-1.02 2.79,-2.12 4.06,-3.28 1.27,-1.16 2.48,-2.42 3.62,-3.76l2.1 1.8z"/>
   <path class="fil2" d="M103.59 84.21c0.44,-8.51 3.24,-16.53 7.88,-23.29 4.64,-6.76 11.13,-12.26 18.91,-15.72l1.11 2.52c-7.3,3.24 -13.38,8.41 -17.74,14.76 -4.36,6.35 -7,13.88 -7.41,21.87l-2.76 -0.14z"/>
   <path class="fil2" d="M138.26 42.54c1.71,-0.41 3.45,-0.72 5.21,-0.92 1.76,-0.21 3.52,-0.31 5.28,-0.31 12.49,0 23.79,5.06 31.97,13.24 8.18,8.18 13.24,19.49 13.24,31.97 0,4.41 -0.65,8.78 -1.9,12.97 -1.25,4.18 -3.11,8.18 -5.55,11.88l-2.31 -1.52c2.27,-3.46 4.02,-7.22 5.2,-11.16 1.18,-3.93 1.78,-8.03 1.78,-12.18 0,-11.72 -4.75,-22.33 -12.43,-30.01 -7.68,-7.68 -18.29,-12.43 -30.01,-12.43 -1.67,0 -3.33,0.1 -4.97,0.29 -1.63,0.19 -3.26,0.48 -4.89,0.87l-0.64 -2.7z"/>
   <path class="fil2" d="M168.72 127.08c-3.11,1.53 -6.37,2.7 -9.72,3.47 -3.36,0.78 -6.8,1.18 -10.25,1.18 -7.4,0 -14.57,-1.81 -20.95,-5.15 -6.38,-3.34 -11.96,-8.19 -16.18,-14.26l2.27 -1.58c3.97,5.71 9.21,10.27 15.19,13.4 5.98,3.13 12.71,4.83 19.67,4.83 3.26,0 6.49,-0.37 9.63,-1.1 3.15,-0.73 6.21,-1.83 9.12,-3.26l1.22 2.48z"/>
   <path class="fil2" d="M111.74 18.57c2.65,0 5.05,1.08 6.8,2.82l0.01 0.01c1.74,1.74 2.82,4.15 2.82,6.8 0,2.65 -1.08,5.05 -2.82,6.8l-0.01 0.01c-1.74,1.74 -4.15,2.82 -6.8,2.82 -2.65,0 -5.05,-1.08 -6.8,-2.82l-0.01 -0.01c-1.74,-1.74 -2.82,-4.15 -2.82,-6.8 0,-2.65 1.08,-5.05 2.82,-6.8l0.01 -0.01c1.74,-1.74 4.15,-2.82 6.8,-2.82zm4.84 4.77c-1.24,-1.24 -2.95,-2 -4.84,-2 -1.89,0 -3.61,0.76 -4.84,2l-0.01 0.01c-1.24,1.24 -2,2.95 -2,4.84 0,1.89 0.76,3.61 2,4.84l0.01 0.01c1.24,1.24 2.95,2 4.84,2 1.89,0 3.61,-0.76 4.84,-2l0.01 -0.01c1.24,-1.24 2,-2.95 2,-4.84 0,-1.89 -0.76,-3.61 -2,-4.84l-0.01 -0.01z"/>
   <path class="fil3" d="M217.94 103.02c2.16,0 4.12,0.88 5.53,2.29 1.42,1.42 2.29,3.37 2.29,5.53 0,2.16 -0.88,4.12 -2.29,5.53 -1.42,1.42 -3.37,2.29 -5.53,2.29 -2.16,0 -4.12,-0.88 -5.53,-2.29 -1.42,-1.42 -2.29,-3.37 -2.29,-5.53 0,-2.16 0.88,-4.12 2.29,-5.53 1.42,-1.42 3.37,-2.29 5.53,-2.29zm3.57 4.25c-0.91,-0.91 -2.18,-1.48 -3.57,-1.48 -1.4,0 -2.66,0.57 -3.57,1.48 -0.91,0.91 -1.48,2.18 -1.48,3.57 0,1.4 0.57,2.66 1.48,3.57 0.91,0.91 2.18,1.48 3.57,1.48 1.4,0 2.66,-0.57 3.57,-1.48 0.91,-0.91 1.48,-2.18 1.48,-3.57 0,-1.4 -0.57,-2.66 -1.48,-3.57z"/>
   <polygon class="fil2" points="129.08,83.17 142.63,96.53 165.01,74.72 166.94,76.7 142.62,100.4 127.14,85.14 "/>
  </g>
 </g>
</svg>
