<?xml version="1.0" encoding="UTF-8"?>
<!DOCTYPE svg PUBLIC "-//W3C//DTD SVG 1.1//EN" "http://www.w3.org/Graphics/SVG/1.1/DTD/svg11.dtd">
<!-- Creator: CorelDRAW -->
<svg xmlns="http://www.w3.org/2000/svg" xml:space="preserve" width="3.00449in" height="1.33961in" version="1.1" style="shape-rendering:geometricPrecision; text-rendering:geometricPrecision; image-rendering:optimizeQuality; fill-rule:evenodd; clip-rule:evenodd"
viewBox="0 0 100.78 44.94"
 xmlns:xlink="http://www.w3.org/1999/xlink"
 xmlns:xodm="http://www.corel.com/coreldraw/odm/2003">
 <defs>
  <style type="text/css">
   <![CDATA[
    .fil0 {fill:#2D4731}
    .fil1 {fill:#4C7852}
    .fil3 {fill:#6B9972;fill-rule:nonzero}
    .fil2 {fill:white;fill-rule:nonzero}
   ]]>
  </style>
 </defs>
 <g id="Layer_x0020_1">
  <metadata id="CorelCorpID_0Corel-Layer"/>
  <g id="_105553228625344">
   <path class="fil0" d="M13.57 33.69c-1.34,-0.18 -2.38,-1.33 -2.38,-2.71 0,-1.5 1.23,-2.73 2.73,-2.73l21.34 0c0.15,-1.47 0.5,-2.88 1.04,-4.19l0 -0.46 -1.87 0c-1.5,0 -2.73,-1.23 -2.73,-2.73 0,-1.5 1.23,-2.73 2.73,-2.73l1.87 0 4.33 0c2.63,-2.2 6.02,-3.52 9.72,-3.52 3.7,0 7.09,1.32 9.72,3.52l27.56 0c1.5,0 2.73,1.23 2.73,2.73 0,1.5 -1.23,2.73 -2.73,2.73l-14.61 0 0 0c-1.31,0 -2.37,1.07 -2.37,2.38 0,1.31 1.07,2.38 2.38,2.38l10.24 0c1.15,0.33 1.99,1.38 1.99,2.63 0,1.5 -1.23,2.73 -2.73,2.73l-17.52 0c-1.73,6.46 -7.63,11.22 -14.65,11.22 -2.74,0 -5.31,-0.73 -7.53,-2l-40.09 0c-1.5,0 -2.73,-1.23 -2.73,-2.73 0,-1.22 0.81,-2.26 1.92,-2.61l17.53 0c1.07,0 1.95,-0.88 1.95,-1.95l0 -0c0,-1.07 -0.88,-1.95 -1.95,-1.95l-5.88 0z"/>
   <circle class="fil1" cx="49.99" cy="29.12" r="13.85"/>
   <path class="fil0" d="M68.23 8.31l0.01 0 11.19 0c1.31,0 2.39,1.07 2.39,2.39 0,1.31 -1.07,2.39 -2.39,2.39l-18.13 0c-1.31,0 -2.39,-1.07 -2.39,-2.39 0,-1.21 0.91,-2.22 2.08,-2.37l0 -0.02c0.97,-0.02 1.75,-0.81 1.75,-1.78l0 -0c0,-0.98 -0.8,-1.78 -1.78,-1.78l-2.68 0c-1.14,-0.17 -2.03,-1.17 -2.03,-2.36 0,-1.31 1.07,-2.39 2.39,-2.39l13.25 0c1.31,0 2.39,1.07 2.39,2.39 0,1.19 -0.88,2.18 -2.03,2.36l-4.01 0c-0.98,0 -1.78,0.8 -1.78,1.78l0 0c0,0.98 0.8,1.78 1.77,1.78l0 0z"/>
   <rect class="fil0" x="77.49" y="2.02" width="5.15" height="3.56" rx="0.62" ry="1.78"/>
   <rect class="fil0" x="95.63" y="20.82" width="5.15" height="3.56" rx="0.62" ry="1.78"/>
   <path class="fil2" d="M61.54 38.94c-0.4,0.47 -0.83,0.92 -1.3,1.34 -0.46,0.42 -0.95,0.82 -1.45,1.18l-0.54 -0.76c0.48,-0.34 0.94,-0.71 1.36,-1.1 0.43,-0.39 0.83,-0.81 1.22,-1.26l0.71 0.6z"/>
   <path class="fil2" d="M34.81 28.3c0.15,-2.86 1.09,-5.55 2.65,-7.83 1.56,-2.27 3.74,-4.12 6.36,-5.28l0.37 0.85c-2.45,1.09 -4.5,2.83 -5.96,4.96 -1.47,2.13 -2.35,4.67 -2.49,7.35l-0.93 -0.05z"/>
   <path class="fil2" d="M46.46 14.29c0.57,-0.14 1.16,-0.24 1.75,-0.31 0.59,-0.07 1.18,-0.1 1.77,-0.1 4.2,0 7.99,1.7 10.74,4.45 2.75,2.75 4.45,6.55 4.45,10.74 0,1.48 -0.22,2.95 -0.64,4.36 -0.42,1.4 -1.05,2.75 -1.86,3.99l-0.77 -0.51c0.76,-1.16 1.35,-2.43 1.75,-3.75 0.4,-1.32 0.6,-2.7 0.6,-4.09 0,-3.94 -1.6,-7.51 -4.18,-10.09 -2.58,-2.58 -6.15,-4.18 -10.09,-4.18 -0.56,0 -1.12,0.03 -1.67,0.1 -0.55,0.06 -1.1,0.16 -1.64,0.29l-0.21 -0.91z"/>
   <path class="fil2" d="M56.7 42.71c-1.05,0.51 -2.14,0.91 -3.27,1.17 -1.13,0.26 -2.28,0.4 -3.45,0.4 -2.49,0 -4.9,-0.61 -7.04,-1.73 -2.14,-1.12 -4.02,-2.75 -5.44,-4.79l0.76 -0.53c1.33,1.92 3.09,3.45 5.1,4.5 2.01,1.05 4.27,1.62 6.61,1.62 1.09,0 2.18,-0.13 3.24,-0.37 1.06,-0.25 2.09,-0.61 3.07,-1.09l0.41 0.83z"/>
   <path class="fil2" d="M37.55 6.24c0.89,0 1.7,0.36 2.28,0.95l0 0c0.59,0.59 0.95,1.39 0.95,2.28 0,0.89 -0.36,1.7 -0.95,2.28l-0 0c-0.59,0.59 -1.39,0.95 -2.28,0.95 -0.89,0 -1.7,-0.36 -2.28,-0.95l-0 -0c-0.59,-0.59 -0.95,-1.39 -0.95,-2.28 0,-0.89 0.36,-1.7 0.95,-2.28l0 -0c0.59,-0.59 1.39,-0.95 2.28,-0.95zm1.63 1.6c-0.42,-0.42 -0.99,-0.67 -1.63,-0.67 -0.64,0 -1.21,0.26 -1.63,0.67l-0 0c-0.42,0.42 -0.67,0.99 -0.67,1.63 0,0.64 0.26,1.21 0.67,1.63l0 0c0.42,0.42 0.99,0.67 1.63,0.67 0.64,0 1.21,-0.26 1.63,-0.67l0 -0c0.42,-0.42 0.67,-0.99 0.67,-1.63 0,-0.64 -0.26,-1.21 -0.67,-1.63l-0 -0z"/>
   <path class="fil3" d="M73.24 34.62c0.73,0 1.38,0.29 1.86,0.77 0.48,0.48 0.77,1.13 0.77,1.86 0,0.73 -0.29,1.38 -0.77,1.86 -0.48,0.48 -1.13,0.77 -1.86,0.77 -0.73,0 -1.38,-0.29 -1.86,-0.77 -0.48,-0.48 -0.77,-1.13 -0.77,-1.86 0,-0.73 0.29,-1.38 0.77,-1.86 0.48,-0.48 1.13,-0.77 1.86,-0.77zm1.2 1.43c-0.31,-0.31 -0.73,-0.5 -1.2,-0.5 -0.47,0 -0.89,0.19 -1.2,0.5 -0.31,0.31 -0.5,0.73 -0.5,1.2 0,0.47 0.19,0.89 0.5,1.2 0.31,0.31 0.73,0.5 1.2,0.5 0.47,0 0.89,-0.19 1.2,-0.5 0.31,-0.31 0.5,-0.73 0.5,-1.2 0,-0.47 -0.19,-0.89 -0.5,-1.2z"/>
   <polygon class="fil2" points="43.38,27.95 47.93,32.44 55.45,25.11 56.1,25.78 47.92,33.74 42.72,28.61 "/>
  </g>
 </g>
</svg>
