<?xml version="1.0" encoding="UTF-8"?>
<!DOCTYPE svg PUBLIC "-//W3C//DTD SVG 1.1//EN" "http://www.w3.org/Graphics/SVG/1.1/DTD/svg11.dtd">
<!-- Creator: CorelDRAW -->
<svg xmlns="http://www.w3.org/2000/svg" xml:space="preserve" width="3.00581in" height="1.3402in" version="1.1" style="shape-rendering:geometricPrecision; text-rendering:geometricPrecision; image-rendering:optimizeQuality; fill-rule:evenodd; clip-rule:evenodd"
viewBox="0 0 8.01 3.57"
 xmlns:xlink="http://www.w3.org/1999/xlink"
 xmlns:xodm="http://www.corel.com/coreldraw/odm/2003">
 <defs>
  <style type="text/css">
   <![CDATA[
    .fil5 {fill:#E6BF51}
    .fil2 {fill:#FFE7E7}
    .fil1 {fill:#FFECC5}
    .fil0 {fill:#FFF6E7}
    .fil3 {fill:#E6BF51;fill-rule:nonzero}
    .fil4 {fill:#FFF6E7;fill-rule:nonzero}
   ]]>
  </style>
 </defs>
 <g id="Layer_x0020_1">
  <metadata id="CorelCorpID_0Corel-Layer"/>
  <g id="_105553760095968">
   <path class="fil0" d="M1.08 2.68c-0.11,-0.01 -0.19,-0.11 -0.19,-0.22 0,-0.12 0.1,-0.22 0.22,-0.22l1.7 0c0.01,-0.12 0.04,-0.23 0.08,-0.33l0 -0.04 -0.15 0c-0.12,0 -0.22,-0.1 -0.22,-0.22 0,-0.12 0.1,-0.22 0.22,-0.22l0.15 0 0.34 0c0.21,-0.17 0.48,-0.28 0.77,-0.28 0.29,0 0.56,0.11 0.77,0.28l2.19 0c0.12,0 0.22,0.1 0.22,0.22 0,0.12 -0.1,0.22 -0.22,0.22l-1.16 0 0 0c-0.1,0 -0.19,0.09 -0.19,0.19 0,0.1 0.09,0.19 0.19,0.19l0.81 0c0.09,0.03 0.16,0.11 0.16,0.21 0,0.12 -0.1,0.22 -0.22,0.22l-1.39 0c-0.14,0.51 -0.61,0.89 -1.16,0.89 -0.22,0 -0.42,-0.06 -0.6,-0.16l-3.19 0c-0.12,0 -0.22,-0.1 -0.22,-0.22 0,-0.1 0.06,-0.18 0.15,-0.21l1.39 0c0.09,0 0.16,-0.07 0.16,-0.16l0 -0c0,-0.09 -0.07,-0.16 -0.16,-0.16l-0.47 0z"/>
   <circle class="fil1" cx="3.97" cy="2.31" r="1.1"/>
   <path class="fil0" d="M5.42 0.66l0 0 0.89 0c0.1,0 0.19,0.09 0.19,0.19 0,0.1 -0.09,0.19 -0.19,0.19l-1.44 0c-0.1,0 -0.19,-0.09 -0.19,-0.19 0,-0.1 0.07,-0.18 0.17,-0.19l0 -0c0.08,-0 0.14,-0.06 0.14,-0.14l0 -0c0,-0.08 -0.06,-0.14 -0.14,-0.14l-0.21 0c-0.09,-0.01 -0.16,-0.09 -0.16,-0.19 0,-0.1 0.09,-0.19 0.19,-0.19l1.05 0c0.1,0 0.19,0.09 0.19,0.19 0,0.09 -0.07,0.17 -0.16,0.19l-0.32 0c-0.08,0 -0.14,0.06 -0.14,0.14l0 0c0,0.08 0.06,0.14 0.14,0.14l0 0z"/>
   <rect class="fil2" x="6.16" y="0.16" width="0.41" height="0.28" rx="0.05" ry="0.14"/>
   <rect class="fil2" x="7.6" y="1.65" width="0.41" height="0.28" rx="0.05" ry="0.14"/>
   <path class="fil3" d="M4.89 3.09c-0.03,0.04 -0.07,0.07 -0.1,0.11 -0.04,0.03 -0.08,0.06 -0.12,0.09l-0.04 -0.06c0.04,-0.03 0.07,-0.06 0.11,-0.09 0.03,-0.03 0.07,-0.06 0.1,-0.1l0.06 0.05z"/>
   <path class="fil3" d="M2.77 2.25c0.01,-0.23 0.09,-0.44 0.21,-0.62 0.12,-0.18 0.3,-0.33 0.51,-0.42l0.03 0.07c-0.19,0.09 -0.36,0.22 -0.47,0.39 -0.12,0.17 -0.19,0.37 -0.2,0.58l-0.07 -0z"/>
   <path class="fil3" d="M3.69 1.14c0.05,-0.01 0.09,-0.02 0.14,-0.02 0.05,-0.01 0.09,-0.01 0.14,-0.01 0.33,0 0.64,0.14 0.85,0.35 0.22,0.22 0.35,0.52 0.35,0.85 0,0.12 -0.02,0.23 -0.05,0.35 -0.03,0.11 -0.08,0.22 -0.15,0.32l-0.06 -0.04c0.06,-0.09 0.11,-0.19 0.14,-0.3 0.03,-0.1 0.05,-0.21 0.05,-0.33 0,-0.31 -0.13,-0.6 -0.33,-0.8 -0.21,-0.21 -0.49,-0.33 -0.8,-0.33 -0.04,0 -0.09,0 -0.13,0.01 -0.04,0.01 -0.09,0.01 -0.13,0.02l-0.02 -0.07z"/>
   <path class="fil3" d="M4.5 3.39c-0.08,0.04 -0.17,0.07 -0.26,0.09 -0.09,0.02 -0.18,0.03 -0.27,0.03 -0.2,0 -0.39,-0.05 -0.56,-0.14 -0.17,-0.09 -0.32,-0.22 -0.43,-0.38l0.06 -0.04c0.11,0.15 0.25,0.27 0.41,0.36 0.16,0.08 0.34,0.13 0.53,0.13 0.09,0 0.17,-0.01 0.26,-0.03 0.08,-0.02 0.17,-0.05 0.24,-0.09l0.03 0.07z"/>
   <path class="fil3" d="M2.98 0.5c0.07,0 0.13,0.03 0.18,0.08l0 0c0.05,0.05 0.08,0.11 0.08,0.18 0,0.07 -0.03,0.13 -0.08,0.18l-0 0c-0.05,0.05 -0.11,0.08 -0.18,0.08 -0.07,0 -0.13,-0.03 -0.18,-0.08l-0 -0c-0.05,-0.05 -0.08,-0.11 -0.08,-0.18 0,-0.07 0.03,-0.13 0.08,-0.18l0 -0c0.05,-0.05 0.11,-0.08 0.18,-0.08zm0.13 0.13c-0.03,-0.03 -0.08,-0.05 -0.13,-0.05 -0.05,0 -0.1,0.02 -0.13,0.05l-0 0c-0.03,0.03 -0.05,0.08 -0.05,0.13 0,0.05 0.02,0.1 0.05,0.13l0 0c0.03,0.03 0.08,0.05 0.13,0.05 0.05,0 0.1,-0.02 0.13,-0.05l0 -0c0.03,-0.03 0.05,-0.08 0.05,-0.13 0,-0.05 -0.02,-0.1 -0.05,-0.13l-0 -0z"/>
   <path class="fil4" d="M5.82 2.75c0.06,0 0.11,0.02 0.15,0.06 0.04,0.04 0.06,0.09 0.06,0.15 0,0.06 -0.02,0.11 -0.06,0.15 -0.04,0.04 -0.09,0.06 -0.15,0.06 -0.06,0 -0.11,-0.02 -0.15,-0.06 -0.04,-0.04 -0.06,-0.09 -0.06,-0.15 0,-0.06 0.02,-0.11 0.06,-0.15 0.04,-0.04 0.09,-0.06 0.15,-0.06zm0.1 0.11c-0.02,-0.02 -0.06,-0.04 -0.1,-0.04 -0.04,0 -0.07,0.02 -0.1,0.04 -0.02,0.02 -0.04,0.06 -0.04,0.1 0,0.04 0.02,0.07 0.04,0.1 0.02,0.02 0.06,0.04 0.1,0.04 0.04,0 0.07,-0.02 0.1,-0.04 0.02,-0.02 0.04,-0.06 0.04,-0.1 0,-0.04 -0.02,-0.07 -0.04,-0.1z"/>
   <g>
    <path class="fil5" d="M3.97 1.68c0.03,0 0.08,0.01 0.09,0.06l-0.1 0.88 -0.09 -0.88c-0,-0.02 0.03,-0.06 0.09,-0.07z"/>
    <circle class="fil5" cx="3.97" cy="2.84" r="0.11"/>
   </g>
  </g>
 </g>
</svg>
