<?xml version="1.0" encoding="UTF-8"?>
<!DOCTYPE svg PUBLIC "-//W3C//DTD SVG 1.1//EN" "http://www.w3.org/Graphics/SVG/1.1/DTD/svg11.dtd">
<!-- Creator: CorelDRAW -->
<svg xmlns="http://www.w3.org/2000/svg" xml:space="preserve" width="26.7339in" height="14.4814in" version="1.1" style="shape-rendering:geometricPrecision; text-rendering:geometricPrecision; image-rendering:optimizeQuality; fill-rule:evenodd; clip-rule:evenodd"
viewBox="0 0 3077.73 1667.16"
 xmlns:xlink="http://www.w3.org/1999/xlink"
 xmlns:xodm="http://www.corel.com/coreldraw/odm/2003">
 <defs>
  <style type="text/css">
   <![CDATA[
    .str0 {stroke:#229E54;stroke-width:0.29;stroke-linecap:round;stroke-linejoin:round;stroke-miterlimit:2.61313;stroke-opacity:0.301961}
    .fil0 {fill:none}
   ]]>
  </style>
 </defs>
 <g id="Layer_x0020_1">
  <metadata id="CorelCorpID_0Corel-Layer"/>
  <g id="_105553224845856">
   <path class="fil0 str0" d="M3077.58 661.01c-117.49,-81.81 -329.52,-241.24 -755.74,-184.5 -484.75,64.54 -946.46,748.58 -1609.57,1190.5"/>
   <path class="fil0 str0" d="M3077.58 659.22c-118.77,-68.38 -333.69,-219.98 -772.01,-164.78 -493.42,62.14 -949.86,741.96 -1615.93,1172.57"/>
   <path class="fil0 str0" d="M3077.58 655.37c-119.59,-53.99 -337.13,-198.08 -789.32,-144.35 -502.87,59.75 -954.11,737.3 -1624.81,1156"/>
   <path class="fil0 str0" d="M3077.58 650.34c-120.97,-39.54 -341.19,-173.22 -805.64,-121.23 -512.36,57.35 -957.97,731.29 -1633.31,1137.91"/>
   <path class="fil0 str0" d="M3077.58 644.93c-121.87,-23.86 -344.58,-147.53 -823.37,-97.21 -521.87,54.85 -961.4,725.33 -1641.56,1119.31"/>
   <path class="fil0 str0" d="M3077.58 636.72c-123.39,-8.61 -348.65,-119.13 -839.71,-70.73 -532.39,52.47 -965.8,720.1 -1652.76,1101.03"/>
   <path class="fil0 str0" d="M3077.58 626.79c-124.46,7.65 -351.94,-90.06 -857.06,-43.85 -542.94,49.67 -970.09,716.46 -1664.84,1084.08"/>
   <path class="fil0 str0" d="M3077.58 615.93c-126.2,23.37 -356.27,-58.43 -874.08,-14.3 -554.86,47.29 -975.24,711.9 -1679.55,1065.39"/>
   <path class="fil0 str0" d="M3077.58 603.68c-127.88,38.91 -360.21,-25.76 -890.46,16.48 -567.86,45.24 -980.81,708.65 -1696.9,1046.86"/>
   <path class="fil0 str0" d="M3077.58 589.27c-129.18,55.61 -363.47,8.35 -907.75,48.14 -580.86,42.46 -986.54,707.44 -1716.54,1029.61"/>
   <path class="fil0 str0" d="M3077.58 574.51c-131.12,71.3 -367.6,43.35 -924.03,80.06 -594.54,39.23 -991.99,706.53 -1736.7,1012.45"/>
   <path class="fil0 str0" d="M3077.58 558.26c-132.55,87.81 -370.9,80.81 -941.84,115.58 -610.36,37.17 -998.46,706.67 -1763.86,993.19"/>
   <path class="fil0 str0" d="M3077.58 540.86c-134.69,102.85 -375.2,118.21 -957.79,150.21 -628.24,34.51 -1006.85,710.77 -1799.37,975.95"/>
   <path class="fil0 str0" d="M3077.58 521.96c-136.49,119.19 -378.45,158.06 -975.51,187.04 -646.68,31.38 -1014.13,716.01 -1836,958.02"/>
   <path class="fil0 str0" d="M3077.58 503.41c-138.81,133.88 -383.26,197.56 -992.45,223.46 -668.4,28.42 -1023.82,725.08 -1884.07,940.15"/>
   <path class="fil0 str0" d="M3077.58 483.92c-141.18,148.14 -387.51,237.91 -1008.73,260.76 -695.12,25.57 -1035.52,742.05 -1950.86,922.33"/>
   <path class="fil0 str0" d="M3077.58 462.05c-143.26,162.49 -390.84,280.14 -1026.08,300.55 -722.7,23.22 -1045.1,757.78 -2024.55,898.67"/>
   <path class="fil0 str0" d="M3077.58 441.91c-145.67,175.32 -395.58,321.27 -1042.54,338.92 -728.67,19.88 -1033.94,728.04 -2009.06,860.51"/>
   <path class="fil0 str0" d="M3077.58 418.06c-148.17,189.81 -399.39,367.31 -1060.08,380.57 -733.81,14.74 -1022.55,701.52 -1992.69,824.14"/>
   <path class="fil0 str0" d="M3077.58 396.85c-150.73,201.3 -404.23,409.19 -1076.18,419.71 -739.47,11.58 -1011.65,671.35 -1977.5,785.79"/>
   <path class="fil0 str0" d="M3077.58 373.06c-153.4,213.63 -408.14,455.49 -1094.61,462.6 -745.29,7.72 -1000.54,642.6 -1962.22,748.28"/>
   <path class="fil0 str0" d="M3077.58 349.63c-156.39,224.35 -412.99,498.9 -1110.83,502.59 -751.54,3.98 -989.49,613.59 -1946.79,710.58"/>
   <path class="fil0 str0" d="M3077.58 327.44c-159.2,234.21 -418.13,542.24 -1127.16,542.94 -757.45,0.76 -978.27,584.16 -1931.46,672.8"/>
   <path class="fil0 str0" d="M3077.58 301.11c-162.19,244.43 -422.35,590.27 -1144.43,586.75 -762.42,-3.72 -966.73,555.89 -1915.13,635.1"/>
   <path class="fil0 str0" d="M3077.58 278.46c-165.23,253.54 -427.88,635.83 -1160.88,628.23 -768.19,-7.96 -955.98,527.36 -1899.84,597.53"/>
   <path class="fil0 str0" d="M3077.58 252.98c-168.32,261.21 -431.99,682.98 -1178.6,672.12 -773.66,-11.25 -944.25,497.82 -1883.12,559.44"/>
   <path class="fil0 str0" d="M3077.58 228.55c-171.75,268.68 -437.62,727.48 -1194.46,712.93 -779.25,-14.99 -933.2,468.84 -1868.04,521.91"/>
   <path class="fil0 str0" d="M3077.58 205.45c-174.98,275.32 -443.44,772.4 -1211.57,754.28 -785.66,-18.53 -922.64,439.94 -1854.01,484.74"/>
   <path class="fil0 str0" d="M3077.58 179.7c-178.4,280.51 -447.68,820.18 -1229.28,798.45 -791.4,-22 -911.34,410.92 -1837.34,447"/>
   <path class="fil0 str0" d="M3077.58 155.04c-181.77,286.45 -453.77,866.72 -1245.33,840.54 -796.94,-26.36 -900.31,382.22 -1822.21,409.16"/>
   <path class="fil0 str0" d="M3076.06 131.55c-185.32,290.84 -459.06,911.94 -1261.33,882.04 -802.27,-29.89 -888.55,352.98 -1805.7,371.43"/>
   <path class="fil0 str0" d="M3073.16 111.48c-188.71,297.79 -466.29,953.41 -1274.43,919.39 -808.15,-34.01 -877.52,324.22 -1790.57,333.66"/>
   <path class="fil0 str0" d="M3067.91 93.83c-192.32,304.7 -473.93,994.83 -1287.06,956.56 -813.12,-38.27 -865.89,295.19 -1773.86,295.46"/>
   <path class="fil0 str0" d="M3064.73 75.59c-195.91,310.97 -481.07,1033.73 -1300.1,992.19 -819.03,-41.55 -855.08,266.32 -1758.62,258.27"/>
   <path class="fil0 str0" d="M3061.82 55.51c-199.72,317.91 -488.8,1075.09 -1314.21,1029.57 -825.41,-45.53 -844.51,237.57 -1744.5,220.83"/>
   <path class="fil0 str0" d="M3056.6 37.86c-202.95,324.67 -495.68,1116.02 -1326.66,1066.46 -830.98,-49.56 -832.78,208.45 -1727.94,182.64"/>
   <path class="fil0 str0" d="M3053.67 17.79c-206.68,331.51 -503.18,1156.93 -1339.87,1103.61 -836.68,-53.32 -821.81,179.53 -1712.66,144.88"/>
   <path class="fil0 str0" d="M3048.45 0.14c-209.82,337.6 -510.06,1195.46 -1352.06,1138.74 -842.01,-56.72 -810.11,150.56 -1696.24,107.58"/>
  </g>
 </g>
</svg>
