<?xml version="1.0" encoding="UTF-8"?>
<!DOCTYPE svg PUBLIC "-//W3C//DTD SVG 1.1//EN" "http://www.w3.org/Graphics/SVG/1.1/DTD/svg11.dtd">
<!-- Creator: CorelDRAW -->
<svg xmlns="http://www.w3.org/2000/svg" xml:space="preserve" width="0.680303in" height="0.680303in" version="1.1" style="shape-rendering:geometricPrecision; text-rendering:geometricPrecision; image-rendering:optimizeQuality; fill-rule:evenodd; clip-rule:evenodd"
viewBox="0 0 3.35 3.35"
 xmlns:xlink="http://www.w3.org/1999/xlink"
 xmlns:xodm="http://www.corel.com/coreldraw/odm/2003">
 <defs>
  <style type="text/css">
   <![CDATA[
    .fil0 {fill:#373535}
   ]]>
  </style>
 </defs>
 <g id="Layer_x0020_1">
  <metadata id="CorelCorpID_0Corel-Layer"/>
  <g id="_105553159427392">
   <path class="fil0" d="M1.65 0.06c0.91,0 1.65,0.74 1.65,1.65 0,0.91 -0.74,1.65 -1.65,1.65 -0.91,0 -1.65,-0.74 -1.65,-1.65 0,-0.91 0.74,-1.65 1.65,-1.65zm0 0.13c0.84,0 1.52,0.68 1.52,1.52 0,0.84 -0.68,1.52 -1.52,1.52 -0.84,0 -1.52,-0.68 -1.52,-1.52 0,-0.84 0.68,-1.52 1.52,-1.52z"/>
   <path class="fil0" d="M1.68 0c0.93,0 1.68,0.75 1.68,1.68 0,0.93 -0.75,1.68 -1.68,1.68 -0.93,0 -1.68,-0.75 -1.68,-1.68 0,-0.93 0.75,-1.68 1.68,-1.68zm0 0.13c0.85,0 1.55,0.69 1.55,1.55 0,0.85 -0.69,1.55 -1.55,1.55 -0.85,0 -1.55,-0.69 -1.55,-1.55 0,-0.85 0.69,-1.55 1.55,-1.55z"/>
   <path class="fil0" d="M0.35 0.97c0.07,0.03 0.05,0.25 0.04,0.31 -0.01,0.1 -0.04,0.21 -0.06,0.31 -0.06,0.25 -0.11,0.51 -0.07,0.73 0.08,0.17 0.18,0.33 0.32,0.46 0.05,0.03 0.12,0.05 0.19,0.07 0.08,0.02 0.25,0.05 0.34,0.04l-0 -0.01c-0.03,-0.02 -0.06,-0.07 -0.09,-0.1 -0.08,-0.13 -0.09,-0.29 -0.02,-0.43 0.02,-0.04 0.05,-0.08 0.08,-0.1 0.08,-0.06 0.09,-0.09 0.2,-0.16 0.04,-0.02 0.07,-0.05 0.11,-0.07l0.08 -0.06c0,-0 0.01,-0.01 0.01,-0.01 0.01,-0 0,-0 0.01,-0.01 0.11,-0.07 0.2,-0.16 0.28,-0.26 0.21,-0.26 0.08,-0.48 0.07,-0.57 -0.02,-0.03 -0.11,-0.09 -0.16,-0.11l-0 0.01c0,0.04 0.17,0.23 0.05,0.51 -0.06,0.14 -0.2,0.26 -0.4,0.26 -0,0 -0,0.01 -0,0.02 -0.01,0.02 -0,0.01 -0.01,0.01 -0.03,0.14 -0.19,0.25 -0.35,0.26 -0.2,0.01 -0.34,-0.06 -0.43,-0.18 -0.18,-0.25 -0.01,-0.56 -0.05,-0.78 -0.01,-0.07 -0.07,-0.18 -0.14,-0.14l0 0z"/>
   <path class="fil0" d="M1.1 2.89c-0.04,-0.25 0.05,-0.58 0.16,-0.52 0.08,0.04 0.22,-0 0.31,-0.02 0.05,-0.01 0.1,-0.03 0.15,-0.04 0.08,-0.01 0.1,0.01 0.15,0.03 -0,-0.16 -0.3,-0.24 -0.35,-0.37 0.06,0.06 0.04,0.05 0.13,0.12 0.32,0.23 0.83,0.25 1.11,-0.05 0.02,-0.02 0.11,-0.12 0.08,-0.17 -0.02,0.01 -0.01,0.01 -0.03,0.02 -0.03,0.03 -0.02,0.03 -0.06,0.07 -0.04,0.03 -0.06,0.05 -0.1,0.07 -0.17,0.11 -0.39,0.11 -0.57,0.04 -0.06,-0.02 -0.19,-0.1 -0.22,-0.14 0.04,0.01 0.09,0.04 0.14,0.05 0.27,0.07 0.53,-0.02 0.67,-0.27 0.04,-0.07 0.09,-0.2 0.09,-0.3l-0 -0.02c-0.04,0.08 -0.03,0.11 -0.13,0.17 -0.18,0.12 -0.39,0.08 -0.53,-0.07 -0.02,-0.02 -0.05,-0.06 -0.07,-0.09 -0.01,-0.01 -0.03,-0.03 -0.05,-0.07 -0.02,-0.03 -0.03,-0.05 -0.04,-0.08 -0.02,-0.05 -0.07,-0.11 -0.11,-0.14 0.01,0.08 0.13,0.3 -0.07,0.57 -0.08,0.1 -0.18,0.19 -0.28,0.26 -0.01,0 -0,0 -0.01,0.01 -0,0 -0.01,0.01 -0.01,0.01l-0.08 0.06c-0.04,0.03 -0.07,0.05 -0.11,0.07 -0.11,0.07 -0.12,0.1 -0.2,0.16 -0.03,0.03 -0.06,0.06 -0.08,0.1 -0.07,0.13 -0.06,0.29 0.02,0.43 0.02,0.04 0.05,0.08 0.09,0.1l-0 0z"/>
   <path class="fil0" d="M0.1 1.13c0,0.02 -0.05,0.15 -0.05,0.18 -0.01,0.06 -0.03,0.12 -0.04,0.19 -0.01,0.06 -0.01,0.12 -0.01,0.18 0,-0.23 0.07,-0.45 0.16,-0.64 -0.05,0.03 -0.03,0.03 -0.05,0.07l-0.01 0.02zm0.91 2.09c0.08,0.03 0.17,0.07 0.24,0.09l0.01 -0 -0 -0c-0.09,-0.02 -0.17,-0.05 -0.25,-0.08l0 -0zm0.17 -0.07c-0.01,-0.02 -0.01,-0.03 -0.02,-0.05 -0.03,-0.07 -0.04,-0.14 -0.06,-0.21 -0.09,0.01 -0.26,-0.02 -0.34,-0.04 -0.07,-0.02 -0.13,-0.04 -0.19,-0.07 0.17,0.17 0.37,0.3 0.61,0.37zm-0.92 -0.83c-0.04,-0.22 0.01,-0.48 0.07,-0.73 0.03,-0.1 0.05,-0.21 0.06,-0.31 0.01,-0.06 0.03,-0.28 -0.04,-0.31 -0.01,0 -0.02,0 -0.03,0.01 -0.12,0.22 -0.19,0.47 -0.19,0.73 0,0.22 0.05,0.42 0.13,0.61l0 0z"/>
   <path class="fil0" d="M1.33 1.77c0.2,-0 0.34,-0.11 0.4,-0.26 0.12,-0.28 -0.05,-0.47 -0.05,-0.51l0 -0.01 -0.03 -0.01c0.03,0.13 -0.02,0.17 -0.08,0.22 -0.09,0.08 -0.22,0.06 -0.32,0.03 -0.01,-0 -0.02,-0 -0.02,-0.01l-0.27 -0.17c-0.02,-0.02 -0.04,-0.04 -0.06,-0.06 -0.02,-0.02 -0.04,-0.04 -0.06,-0.06 -0.01,-0 -0.01,-0.01 -0.02,-0.01 -0,-0 -0.01,-0 -0.01,-0.01l-0.12 -0.07c-0.06,-0.03 -0.13,-0.03 -0.2,-0.03 0.03,0.02 0.16,0.03 0.25,0.2 0.1,0.17 0.14,0.46 0.28,0.62 0.08,0.09 0.16,0.13 0.31,0.13l0 -0z"/>
   <path class="fil0" d="M1.32 1.81c0.01,-0.01 0.01,0 0.01,-0.01 0,-0 0,-0.01 0,-0.02 -0.15,-0 -0.23,-0.04 -0.31,-0.13 -0.14,-0.16 -0.18,-0.45 -0.28,-0.62 -0.09,-0.16 -0.23,-0.18 -0.25,-0.2l-0.04 -0c-0.01,0 -0.02,0 -0.04,0.01 -0.02,0.02 -0.03,0.04 -0.04,0.07 0.06,0.04 0.21,0.07 0.18,0.36 -0.02,0.19 -0.05,0.38 0.02,0.55 0.06,0.13 0.19,0.22 0.38,0.23 0.2,0.01 0.32,-0.1 0.38,-0.22l-0 0z"/>
   <path class="fil0" d="M2.33 1.34c-0.03,0.04 -0.05,0.08 -0.12,0.09 -0.03,0.01 -0.07,0 -0.09,-0 -0.04,-0.01 -0.05,-0.02 -0.08,-0.03 0.01,0.03 0.05,0.07 0.07,0.09 0.14,0.15 0.35,0.19 0.53,0.07 0.1,-0.06 0.09,-0.09 0.13,-0.17l0 0.02c0.03,-0.06 -0.01,-0.26 -0.02,-0.32 -0.05,-0.17 -0.17,-0.31 -0.31,-0.41 -0.09,-0.06 -0.15,-0.07 -0.25,-0.12l0.09 0.06c0.04,0.03 0.06,0.06 0.09,0.1 0.12,0.15 0.19,0.51 -0.03,0.62l0 0z"/>
   <path class="fil0" d="M0.45 0.82l0.04 0c0.07,0.01 0.13,0 0.2,0.03l0.12 0.07c0,0 0.01,0.01 0.01,0.01 0.01,0 0.01,0.01 0.02,0.01 0.02,0.02 0.04,0.04 0.06,0.06 0.02,0.02 0.04,0.04 0.06,0.06l0.27 0.17c0.01,0 0.02,0.01 0.02,0.01 0.1,0.03 0.24,0.05 0.32,-0.03 0.06,-0.06 0.1,-0.1 0.08,-0.22 -0.02,-0.03 -0.22,-0.11 -0.25,-0.12 -0.22,-0.08 -0.4,-0.11 -0.64,-0.1 -0.08,0 -0.27,0.02 -0.32,0.05l0 -0z"/>
   <path class="fil0" d="M1.35 0.48c0,0.11 0.02,0.18 0.1,0.23 0.21,0.13 0.2,-0.15 0.68,0.15 0.04,0.02 0.06,0.04 0.09,0.07 0.05,0.05 0.1,0.12 0.12,0.21 0.02,-0.03 -0,-0.11 -0.01,-0.14 -0.02,-0.06 -0.03,-0.07 -0.06,-0.12 -0,-0 -0.01,-0.01 -0.01,-0.01l-0.05 -0.07 -0.24 -0.17c-0.34,-0.21 -0.46,0.08 -0.45,-0.24 -0.12,0.02 -0.12,0 -0.17,0.09l-0 0z"/>
   <path class="fil0" d="M2.35 1.14c0.01,0.08 0.01,0.13 -0.02,0.19 0.22,-0.11 0.14,-0.47 0.03,-0.62 -0.03,-0.04 -0.05,-0.07 -0.09,-0.1l-0.09 -0.06c-0.2,-0.04 -0.29,-0.05 -0.5,-0 0.05,0.01 0.09,0.01 0.13,0.03 0.05,0.02 0.12,0.02 0.17,0.05l0.24 0.17 0.05 0.07c0,0 0.01,0.01 0.01,0.01 0.03,0.05 0.04,0.06 0.06,0.12 0.01,0.02 0.03,0.11 0.01,0.14l0 0z"/>
   <path class="fil0" d="M1.52 1.29c0.02,0.11 0.02,0.11 0.15,0.13 -0.04,-0.11 -0.02,-0.08 -0.15,-0.13z"/>
   <path class="fil0" d="M0.35 0.97c0.07,0.03 0.05,0.25 0.04,0.31 -0.01,0.1 -0.04,0.21 -0.06,0.31 -0.06,0.25 -0.11,0.51 -0.07,0.73 0.08,0.17 0.18,0.33 0.32,0.46 0.05,0.03 0.12,0.05 0.19,0.07 0.08,0.02 0.25,0.05 0.34,0.04l-0 -0.01c-0.03,-0.02 -0.06,-0.07 -0.09,-0.1 -0.08,-0.13 -0.09,-0.29 -0.02,-0.43 0.02,-0.04 0.05,-0.08 0.08,-0.1 0.06,-0.05 0.08,-0.08 0.15,-0.13 0.01,-0.02 0.02,-0.03 0.03,-0.05 0.01,-0.02 0.02,-0.04 0.02,-0.08 0.01,-0.03 0.02,-0.08 0.03,-0.11 0.01,-0.03 0.02,-0.06 0.04,-0.09 0,-0.01 0.01,-0.01 0.01,-0.02 -0.01,0 -0.01,0 -0.02,0 -0,0 -0,0.01 -0,0.02 -0.01,0.02 -0,0.01 -0.01,0.01 -0.03,0.14 -0.19,0.25 -0.35,0.26 -0.2,0.01 -0.34,-0.06 -0.43,-0.18 -0.18,-0.25 -0.01,-0.56 -0.05,-0.78 -0.01,-0.07 -0.07,-0.18 -0.14,-0.14l0 0z"/>
   <path class="fil0" d="M1.1 2.89c-0.04,-0.25 0.05,-0.58 0.16,-0.52 0.08,0.04 0.22,-0 0.31,-0.02 0.05,-0.01 0.1,-0.03 0.15,-0.04 0.08,-0.01 0.1,0.01 0.15,0.03 -0,-0.16 -0.3,-0.24 -0.35,-0.37 0.06,0.06 0.04,0.05 0.13,0.12 0.32,0.23 0.83,0.25 1.11,-0.05 0.02,-0.02 0.11,-0.12 0.08,-0.17 -0.02,0.01 -0.01,0.01 -0.03,0.02 -0.03,0.03 -0.02,0.03 -0.06,0.07 -0.04,0.03 -0.06,0.05 -0.1,0.07 -0.17,0.11 -0.39,0.11 -0.57,0.04 -0.06,-0.02 -0.19,-0.1 -0.22,-0.14 0.04,0.01 0.09,0.04 0.14,0.05 0.27,0.07 0.53,-0.02 0.67,-0.27 0.04,-0.07 0.09,-0.2 0.09,-0.3l-0 -0.02c-0.04,0.08 -0.03,0.11 -0.13,0.17 -0.18,0.12 -0.39,0.08 -0.53,-0.07 -0.02,-0.02 -0.05,-0.06 -0.07,-0.09 -0.01,-0.01 -0.03,-0.03 -0.05,-0.07 -0.02,-0.03 -0.03,-0.05 -0.04,-0.08 -0.02,-0.05 -0.07,-0.11 -0.11,-0.14 0.01,0.08 0.13,0.3 -0.07,0.57 -0.08,0.1 -0.18,0.19 -0.28,0.26 -0.01,0 -0,0 -0.01,0.01 -0,0 -0.01,0.01 -0.01,0.01l-0.08 0.06c-0.04,0.03 -0.07,0.05 -0.11,0.07 -0.11,0.07 -0.12,0.1 -0.2,0.16 -0.03,0.03 -0.06,0.06 -0.08,0.1 -0.07,0.13 -0.06,0.29 0.02,0.43 0.02,0.04 0.05,0.08 0.09,0.1l-0 0z"/>
   <path class="fil0" d="M0.06 1.32c-0.01,0.06 -0.04,0.12 -0.05,0.19 -0.01,0.06 -0.01,0.12 -0.01,0.18 0,-0.23 0.1,-0.46 0.19,-0.65 -0.1,0.05 -0.11,0.18 -0.13,0.28zm0.95 1.91c0.08,0.03 0.17,0.07 0.24,0.09l0.01 -0 -0 -0c-0.09,-0.02 -0.17,-0.05 -0.25,-0.08l0 -0zm0.17 -0.07c-0.01,-0.02 -0.01,-0.03 -0.02,-0.05 -0.03,-0.07 -0.04,-0.14 -0.06,-0.21 -0.09,0.01 -0.26,-0.02 -0.34,-0.04 -0.07,-0.02 -0.13,-0.04 -0.19,-0.07 0.17,0.17 0.37,0.3 0.61,0.37zm-0.92 -0.83c-0.04,-0.22 0.01,-0.48 0.07,-0.73 0.03,-0.1 0.05,-0.21 0.06,-0.31 0.01,-0.06 0.03,-0.28 -0.04,-0.31 -0.01,0 -0.02,0 -0.03,0.01 -0.12,0.22 -0.19,0.47 -0.19,0.73 0,0.22 0.05,0.42 0.13,0.61l0 0z"/>
   <path class="fil0" d="M1.33 1.77c0.2,-0 0.34,-0.11 0.4,-0.26 0.12,-0.28 -0.05,-0.47 -0.05,-0.51l0 -0.01 -0.03 -0.01c0.03,0.13 -0.02,0.17 -0.08,0.22 -0.09,0.08 -0.22,0.06 -0.32,0.03 -0.01,-0 -0.02,-0 -0.02,-0.01l-0.27 -0.17c-0.02,-0.02 -0.04,-0.04 -0.06,-0.06 -0.02,-0.02 -0.04,-0.04 -0.06,-0.06 -0.01,-0 -0.01,-0.01 -0.02,-0.01 -0,-0 -0.01,-0 -0.01,-0.01l-0.12 -0.07c-0.06,-0.03 -0.13,-0.03 -0.2,-0.03 0.03,0.02 0.16,0.03 0.25,0.2 0.1,0.17 0.14,0.46 0.28,0.62 0.08,0.09 0.16,0.13 0.31,0.13l0 -0z"/>
   <path class="fil0" d="M1.22 2.13c0.01,-0.01 0.03,-0.02 0.05,-0.03 0.04,-0.02 0.07,-0.05 0.11,-0.07l0.08 -0.06c0,-0 0.01,-0.01 0.01,-0.01 0.01,-0 0,-0 0.01,-0.01 0.11,-0.07 0.2,-0.16 0.28,-0.26 0.21,-0.26 0.08,-0.48 0.07,-0.57 -0.02,-0.03 -0.11,-0.09 -0.16,-0.11l-0 0.01c0,0.04 0.17,0.23 0.05,0.51 -0.06,0.14 -0.19,0.25 -0.38,0.26 -0.01,0.01 -0.01,0.01 -0.01,0.02 -0.02,0.03 -0.03,0.05 -0.04,0.09 -0.01,0.03 -0.02,0.08 -0.03,0.11 -0.01,0.03 -0.01,0.05 -0.02,0.08 -0.01,0.02 -0.02,0.03 -0.03,0.05l-0 -0z"/>
   <path class="fil0" d="M1.32 1.81c0.01,-0.01 0.01,0 0.01,-0.01 0,-0 0,-0.01 0,-0.02 -0.15,-0 -0.23,-0.04 -0.31,-0.13 -0.14,-0.16 -0.18,-0.45 -0.28,-0.62 -0.09,-0.16 -0.23,-0.18 -0.25,-0.2l-0.04 -0c-0.01,0 -0.02,0 -0.04,0.01 -0.02,0.02 -0.03,0.04 -0.04,0.07 0.06,0.04 0.21,0.07 0.18,0.36 -0.02,0.19 -0.05,0.38 0.02,0.55 0.06,0.13 0.19,0.22 0.38,0.23 0.2,0.01 0.32,-0.1 0.38,-0.22l-0 0z"/>
   <path class="fil0" d="M2.33 1.34c-0.03,0.04 -0.05,0.08 -0.12,0.09 -0.03,0.01 -0.07,0 -0.09,-0 -0.04,-0.01 -0.05,-0.02 -0.08,-0.03 0.01,0.03 0.05,0.07 0.07,0.09 0.14,0.15 0.35,0.19 0.53,0.07 0.1,-0.06 0.09,-0.09 0.13,-0.17l0 0.02c0.03,-0.06 -0.01,-0.26 -0.02,-0.32 -0.05,-0.17 -0.17,-0.31 -0.31,-0.41 -0.09,-0.06 -0.15,-0.07 -0.25,-0.12l0.09 0.06c0.04,0.03 0.06,0.06 0.09,0.1 0.12,0.15 0.19,0.51 -0.03,0.62l0 0z"/>
   <path class="fil0" d="M0.45 0.82l0.04 0c0.07,0.01 0.13,0 0.2,0.03l0.12 0.07c0,0 0.01,0.01 0.01,0.01 0.01,0 0.01,0.01 0.02,0.01 0.02,0.02 0.04,0.04 0.06,0.06 0.02,0.02 0.04,0.04 0.06,0.06l0.27 0.17c0.01,0 0.02,0.01 0.02,0.01 0.1,0.03 0.24,0.05 0.32,-0.03 0.06,-0.06 0.1,-0.1 0.08,-0.22 -0.02,-0.03 -0.22,-0.11 -0.25,-0.12 -0.22,-0.08 -0.4,-0.11 -0.64,-0.1 -0.08,0 -0.27,0.02 -0.32,0.05l0 -0z"/>
   <path class="fil0" d="M1.35 0.48c0,0.11 0.02,0.18 0.1,0.23 0.21,0.13 0.2,-0.15 0.68,0.15 0.04,0.02 0.06,0.04 0.09,0.07 0.05,0.05 0.1,0.12 0.12,0.21 0.02,-0.03 -0,-0.11 -0.01,-0.14 -0.02,-0.06 -0.03,-0.07 -0.06,-0.12 -0,-0 -0.01,-0.01 -0.01,-0.01l-0.05 -0.07 -0.24 -0.17c-0.34,-0.21 -0.46,0.08 -0.45,-0.24 -0.12,0.02 -0.12,0 -0.17,0.09l-0 0z"/>
   <path class="fil0" d="M2.35 1.14c0.01,0.08 0.01,0.13 -0.02,0.19 0.22,-0.11 0.14,-0.47 0.03,-0.62 -0.03,-0.04 -0.05,-0.07 -0.09,-0.1l-0.09 -0.06c-0.08,-0.01 -0.14,-0.03 -0.23,-0.04 -0.05,-0 -0.22,0.02 -0.27,0.03 0.05,0.01 0.1,-0.01 0.14,0.01 0.05,0.02 0.12,0.05 0.16,0.07l0.24 0.17 0.05 0.07c0,0 0.01,0.01 0.01,0.01 0.03,0.05 0.04,0.06 0.06,0.12 0.01,0.02 0.03,0.11 0.01,0.14l0 0z"/>
   <path class="fil0" d="M1.52 1.29c0.02,0.11 0.02,0.11 0.15,0.13 -0.04,-0.11 -0.02,-0.08 -0.15,-0.13z"/>
   <path class="fil0" d="M0.35 0.97c0.07,0.03 0.05,0.25 0.04,0.31 -0.01,0.1 -0.04,0.21 -0.06,0.31 -0.06,0.25 -0.11,0.51 -0.07,0.73 0.08,0.17 0.18,0.33 0.32,0.46 0.05,0.03 0.12,0.05 0.19,0.07 0.08,0.02 0.25,0.05 0.34,0.04l-0 -0.01c-0.03,-0.02 -0.06,-0.07 -0.09,-0.1 -0.08,-0.13 -0.09,-0.29 -0.02,-0.43 0.02,-0.04 0.05,-0.08 0.08,-0.1 0.06,-0.05 0.08,-0.08 0.15,-0.13 0.01,-0.02 0.02,-0.03 0.03,-0.05 0.01,-0.02 0.02,-0.04 0.02,-0.08 0.01,-0.03 0.02,-0.08 0.03,-0.11 0.01,-0.03 0.02,-0.06 0.04,-0.09 0,-0.01 0.01,-0.01 0.01,-0.02 -0.01,0 -0.01,0 -0.02,0 -0,0 -0,0.01 -0,0.02 -0.01,0.02 -0,0.01 -0.01,0.01 -0.03,0.14 -0.19,0.25 -0.35,0.26 -0.2,0.01 -0.34,-0.06 -0.43,-0.18 -0.18,-0.25 -0.01,-0.56 -0.05,-0.78 -0.01,-0.07 -0.07,-0.18 -0.14,-0.14l0 0z"/>
  </g>
 </g>
</svg>
