<?xml version="1.0" encoding="UTF-8"?>
<!DOCTYPE svg PUBLIC "-//W3C//DTD SVG 1.1//EN" "http://www.w3.org/Graphics/SVG/1.1/DTD/svg11.dtd">
<!-- Creator: CorelDRAW -->
<svg xmlns="http://www.w3.org/2000/svg" xml:space="preserve" width="3.7276in" height="0.667276in" version="1.1" style="shape-rendering:geometricPrecision; text-rendering:geometricPrecision; image-rendering:optimizeQuality; fill-rule:evenodd; clip-rule:evenodd"
viewBox="0 0 1290.14 230.95"
 xmlns:xlink="http://www.w3.org/1999/xlink"
 xmlns:xodm="http://www.corel.com/coreldraw/odm/2003">
 <defs>
  <style type="text/css">
   <![CDATA[
    .fil1 {fill:#21AA61}
    .fil0 {fill:#2E444F;fill-rule:nonzero}
   ]]>
  </style>
 </defs>
 <g id="Layer_x0020_1">
  <metadata id="CorelCorpID_0Corel-Layer"/>
  <path class="fil0" d="M349.51 223.94l0 -144.63 59.9 0c15.39,0 27.29,3.69 35.7,10.87 8.41,7.18 12.72,17.44 12.72,30.36 0,8.62 -1.85,15.8 -5.74,21.95 -3.9,5.95 -9.23,10.67 -16,13.75 -6.98,3.28 -14.98,4.72 -24.21,4.72l3.49 -2.87 4.92 0c5.54,0 10.67,1.43 14.98,4.31 4.51,2.67 8,7.18 10.87,13.54l20.52 48.01 -21.13 0 -19.9 -47.6c-2.26,-5.95 -5.74,-9.64 -10.05,-11.49 -4.51,-1.64 -10.05,-2.67 -16.82,-2.67l-30.16 0 0 61.75 -19.08 0zm19.08 -76.52l37.95 0c10.67,0 18.67,-2.26 24,-6.77 5.54,-4.51 8.41,-11.08 8.41,-19.7 0,-8.41 -2.87,-14.98 -8.41,-19.49 -5.33,-4.51 -13.33,-6.57 -24,-6.57l-37.95 0 0 52.52z"/>
  <path id="_1" class="fil0" d="M526.69 225.79c-12.31,0 -21.75,-3.28 -27.9,-10.05 -6.36,-6.77 -9.44,-17.03 -9.44,-30.98l0 -64.01 18.67 0 0 63.39c0,9.23 1.85,15.8 5.54,20.1 3.69,4.1 9.44,6.36 17.23,6.36 8.41,0 15.39,-2.87 20.72,-8.62 5.33,-5.54 7.8,-13.13 7.8,-22.57l0 -58.67 18.67 0 0 103.19 -18.05 0 0 -22.77 2.67 0c-2.87,7.8 -7.59,13.95 -13.74,18.26 -6.36,4.31 -13.75,6.36 -22.16,6.36z"/>
  <path id="_2" class="fil0" d="M609.3 223.94l0 -78.78c0,-4.1 -0.2,-8 -0.41,-12.1 -0.2,-4.1 -0.61,-8.21 -1.23,-12.31l18.05 0 2.05 22.16 -2.46 0c2.67,-7.59 7.18,-13.54 13.13,-17.64 5.95,-4.31 13.13,-6.36 21.54,-6.36 8.41,0 15.59,2.05 20.93,6.15 5.33,3.9 9.03,10.26 11.08,18.87l-3.08 0c2.67,-7.8 7.18,-13.74 13.75,-18.26 6.57,-4.51 14.15,-6.77 22.98,-6.77 11.28,0 19.9,3.28 25.64,9.85 5.74,6.57 8.62,17.03 8.62,30.98l0 64.21 -18.67 0 0 -63.19c0,-9.44 -1.64,-16.21 -4.92,-20.52 -3.28,-4.1 -8.41,-6.15 -15.59,-6.15 -8.41,0 -14.77,2.87 -19.7,8.41 -4.72,5.74 -7.18,13.33 -7.18,23.18l0 58.26 -18.67 0 0 -63.19c0,-9.44 -1.64,-16.21 -4.92,-20.52 -3.08,-4.1 -8.41,-6.15 -15.59,-6.15 -8.21,0 -14.77,2.87 -19.49,8.41 -4.72,5.74 -7.18,13.33 -7.18,23.18l0 58.26 -18.67 0z"/>
  <path id="_3" class="fil0" d="M827.17 225.79c-12.31,0 -21.75,-3.28 -27.9,-10.05 -6.36,-6.77 -9.44,-17.03 -9.44,-30.98l0 -64.01 18.67 0 0 63.39c0,9.23 1.85,15.8 5.54,20.1 3.69,4.1 9.44,6.36 17.23,6.36 8.41,0 15.39,-2.87 20.72,-8.62 5.33,-5.54 7.8,-13.13 7.8,-22.57l0 -58.67 18.67 0 0 103.19 -18.05 0 0 -22.77 2.67 0c-2.87,7.8 -7.59,13.95 -13.74,18.26 -6.36,4.31 -13.75,6.36 -22.16,6.36z"/>
  <path id="_4" class="fil0" d="M956.76 225.79c-16.41,0 -29.34,-4.72 -38.98,-14.16 -9.44,-9.44 -14.15,-22.36 -14.15,-38.98 0,-10.87 2.05,-20.31 6.36,-28.31 4.1,-8 9.85,-14.36 17.23,-18.87 7.39,-4.31 16,-6.57 25.85,-6.57 9.44,0 17.44,2.05 24,5.95 6.57,4.1 11.49,9.85 14.98,17.23 3.28,7.39 5.13,16.21 5.13,26.26l0 6.15 -78.99 0 0 -11.08 66.27 0 -3.49 2.67c0,-10.67 -2.26,-18.87 -6.98,-24.82 -4.72,-5.74 -11.69,-8.82 -20.93,-8.82 -9.85,0 -17.64,3.49 -23.18,10.46 -5.33,6.77 -8.21,16.21 -8.21,28.11l0 1.85c0,12.72 3.08,22.16 9.23,28.52 6.36,6.36 14.98,9.64 26.05,9.64 6.15,0 11.9,-1.03 17.23,-2.67 5.33,-1.85 10.46,-4.72 15.39,-8.82l6.15 12.93c-4.72,4.1 -10.46,7.39 -17.23,9.85 -6.98,2.26 -14.16,3.49 -21.75,3.49z"/>
  <path id="_5" class="fil0" d="M1021.62 223.94l0 -78.78c0,-4.1 -0.2,-8 -0.41,-12.1 -0.2,-4.1 -0.61,-8.21 -1.23,-12.31l18.05 0 2.05 22.16 -2.46 0c2.67,-7.59 7.18,-13.54 13.13,-17.64 5.95,-4.31 13.13,-6.36 21.54,-6.36 8.41,0 15.59,2.05 20.93,6.15 5.33,3.9 9.03,10.26 11.08,18.87l-3.08 0c2.67,-7.8 7.18,-13.74 13.75,-18.26 6.57,-4.51 14.15,-6.77 22.98,-6.77 11.28,0 19.9,3.28 25.64,9.85 5.74,6.57 8.62,17.03 8.62,30.98l0 64.21 -18.67 0 0 -63.19c0,-9.44 -1.64,-16.21 -4.92,-20.52 -3.28,-4.1 -8.41,-6.15 -15.59,-6.15 -8.41,0 -14.77,2.87 -19.7,8.41 -4.72,5.74 -7.18,13.33 -7.18,23.18l0 58.26 -18.67 0 0 -63.19c0,-9.44 -1.64,-16.21 -4.92,-20.52 -3.08,-4.1 -8.41,-6.15 -15.59,-6.15 -8.21,0 -14.77,2.87 -19.49,8.41 -4.72,5.74 -7.18,13.33 -7.18,23.18l0 58.26 -18.67 0z"/>
  <path id="_6" class="fil0" d="M1249.76 225.79c-16.41,0 -29.34,-4.72 -38.98,-14.16 -9.44,-9.44 -14.15,-22.36 -14.15,-38.98 0,-10.87 2.05,-20.31 6.36,-28.31 4.1,-8 9.85,-14.36 17.23,-18.87 7.39,-4.31 16,-6.57 25.85,-6.57 9.44,0 17.44,2.05 24,5.95 6.57,4.1 11.49,9.85 14.98,17.23 3.28,7.39 5.13,16.21 5.13,26.26l0 6.15 -78.99 0 0 -11.08 66.27 0 -3.49 2.67c0,-10.67 -2.26,-18.87 -6.98,-24.82 -4.72,-5.74 -11.69,-8.82 -20.93,-8.82 -9.85,0 -17.64,3.49 -23.18,10.46 -5.33,6.77 -8.21,16.21 -8.21,28.11l0 1.85c0,12.72 3.08,22.16 9.23,28.52 6.36,6.36 14.98,9.64 26.05,9.64 6.15,0 11.9,-1.03 17.23,-2.67 5.33,-1.85 10.46,-4.72 15.39,-8.82l6.15 12.93c-4.72,4.1 -10.46,7.39 -17.23,9.85 -6.98,2.26 -14.16,3.49 -21.75,3.49z"/>
  <g id="_105553225569056">
   <path class="fil1" d="M174.32 172.86l-11.01 0.27c-2.11,0 -3.05,-0.27 -5.1,-0.27 -0.96,-4.13 -0.27,-12.03 -0.27,-16.38 2.62,-0.61 12.23,-0.27 15.58,-0.27 1.06,0 1.08,1.47 1.08,2.42 0,5.07 -0.27,9.19 -0.27,14.24zm18 -33.57l-15.31 0c0,-1.53 -0.27,-1.86 -0.27,-3.49l0 -9.67c0,-1.63 0.27,-1.96 0.27,-3.49 1.53,0 1.86,-0.27 3.49,-0.27l10.74 0c0.93,0 1.04,0.2 1.88,0.27 0.48,2.07 0.48,12.73 0.1,15.14 -0.13,0.87 0.03,1.51 -0.91,1.51zm-52.92 -31.43c0,-1.74 0.15,-2.71 0.25,-4.04 0.34,-4.51 -2.74,-3.48 15.59,-3.48 1.49,0 0.97,1.79 1.12,3.18 0.33,3.24 0.23,6.59 0.23,9.98 0,1.64 -0.27,1.96 -0.27,3.49 -1.88,0 -2.62,0.27 -4.57,0.27 -3.6,0 -6.24,0.1 -9.72,-0.22 -1.97,-0.18 -2.38,0.58 -2.4,-1.63 -0.02,-2.86 -0.24,-4.71 -0.24,-7.55zm33.31 -26.59l13.97 0c0.93,0 1.04,0.2 1.88,0.27l0.27 13.16c0,1.13 -0.01,3.22 -1.07,3.22l-14.77 0c-1.9,0 -0.72,-4.16 -1.27,-8.13 -0.25,-1.86 0.06,-3.08 0.18,-4.51 0.12,-1.44 -0.53,-4.01 0.82,-4.01zm28.2 -29.01c0,-0.72 0.13,-0.74 0.27,-1.34l16.12 0 0 11.28c0,2.11 0.27,3.05 0.27,5.1 -1.53,0 -1.86,0.27 -3.49,0.27l-8.06 0c-2.11,0 -3.05,-0.27 -5.1,-0.27l0 -15.04zm-29.28 -3.76c0,-2.1 0.27,-3.17 0.27,-5.37l6.71 -0.27c3.65,0 6.31,0.27 9.94,0.27l0.27 11.55c0,1.94 -0.27,2.69 -0.27,4.57 -3.53,0.82 -12.27,0 -16.39,0 -0.28,-3.41 -0.54,-7.05 -0.54,-10.74zm-15.37 2.68l-16.59 0 0 -16.12c4.33,-1.01 12.28,-0.36 16.65,0 0.46,6.8 0.17,9.21 -0.06,16.11zm-40.23 -45.66l1.53 22.64c0.77,6.09 0.98,14.75 1.84,20.72l1.19 13.85c0.45,9.31 1.69,18.26 2.4,27.41 0.2,2.49 0.27,4.78 0.51,7.01l1.23 13.81c0.65,4.42 1.21,15.09 1.74,20.55 0.44,4.53 0.82,9.32 1.32,13.72l1.12 13.92c0.12,2.52 0.35,4.74 0.52,7 0.67,8.86 2.92,27.93 2.97,34.64l2.42 27.66c1.99,0 3.16,0.27 5.37,0.27 4.13,-0.01 13.87,0.38 16.65,-0.27 0.51,-1.91 -0.17,-2.73 -0.65,-5.79l-4.41 -34.01c-0.38,-3.56 -0.28,-3.45 2.37,-3.45l38.68 0c0,6.88 -0.43,6.63 -1.54,12.97l-4.91 31.08c1.8,0 2.45,0.26 4.02,0.28l13.17 -0.01c0.24,-1.03 0.44,-1.47 0.53,-2.69 0.19,-2.41 0.96,-5.77 1.38,-8.29l5.32 -33.9c0.41,-3.77 1.15,-7.33 1.71,-11.18l4.37 -28.13c0.33,-2.28 0.71,-3.43 1.08,-5.64l10.51 -67.65c0.73,-5.11 2.18,-12.1 2.72,-16.62 0.56,-4.65 0.58,-4.51 0.58,-9.09 0,-4.99 -4.78,-9.54 -8.36,-10.98 -5.75,-2.32 -12.45,-4.24 -17.85,-6.32 -1.26,-0.49 -2.23,-0.87 -3.5,-1.33 -2.42,-0.86 -4.86,-1.7 -7.13,-2.55l-28.8 -10.14c-2.46,-0.81 -4.73,-1.67 -7.11,-2.56l-21.63 -7.65c-2.53,-0.84 -4.66,-1.65 -7.07,-2.6 -4.13,-1.62 -8.8,-3.58 -12.34,-0.9 -0.97,0.73 -1.98,2.6 -1.98,4.2z"/>
   <path class="fil1" d="M82.46 201.87l-12.36 -0.27c-4.22,0.03 -3.22,1.92 -3.22,-12.89 0,-1.64 0.27,-1.96 0.27,-3.49l16.12 0c0,3.71 0.51,12.49 0.1,15.15 -0.13,0.87 0.03,1.51 -0.91,1.51zm-0.81 -26.59c-0.84,0.07 -0.95,0.27 -1.88,0.27l-12.09 0c-1.35,0 -1.2,-0.24 -2.42,-0.27 0,-2.4 -0.27,-3.73 -0.27,-6.18l0 -8.86c0,-0.83 0.25,-1.61 1.07,-1.61l12.09 0c1.63,0 1.96,0.27 3.49,0.27l0.56 8.06 -0.56 8.33zm-31.69 -41.63l14.77 0c0.62,0 0.81,0.19 0.81,0.81l0 15.58c-3.47,0 -13.99,0.35 -16.65,-0.27 0,-2.87 0,-5.73 0,-8.6 0,-1.85 -0.69,-7.52 1.08,-7.52zm34.65 -10.48l-14.51 0c-0.94,0 -1.08,-1.19 -1.08,-2.15l0 -12.09c0,-1.35 0.24,-1.2 0.27,-2.42 2.22,0 3.37,-0.27 5.64,-0.27l8.6 0c0.93,0 1.04,0.2 1.88,0.27 0,1.88 0.27,2.62 0.27,4.57 0,2.6 0.13,7.95 -0.17,10.3 -0.12,0.96 0.14,1.78 -0.9,1.78zm-42.17 -18.8l0.27 -6.98c2.65,-0.62 12.94,-0.27 16.39,-0.27l0 15.85c0,0.62 -0.19,0.81 -0.81,0.81l-15.58 0c0,-3.45 -0.27,-5.92 -0.27,-9.4zm6.18 126.24c4.87,0 8.81,0.27 13.7,0.27 4.72,0 34.55,0.23 37.68,-0.19 1.19,-0.16 2.47,-0.08 3.69,-0.07 3.93,0.02 3.22,1.18 3.22,-6.98l0.01 -13.98c-0.02,-1.63 -0.29,-2.6 -0.28,-4.55l-0.26 -23.37c0.01,-1.95 -0.29,-2.68 -0.28,-4.56 0.01,-2.65 0.27,-7.17 -0.07,-9.6l-1 -46.54c0,-3.32 -0.01,-6.48 -0.25,-9.42 -0.22,-2.72 -0.03,-6.56 -0.01,-9.39 0.01,-1.95 -0.29,-2.68 -0.28,-4.56 0.03,-7.96 -0.53,-16.06 -0.53,-23.37l-58.02 0c-4.36,0 -7.95,0.29 -12.09,0.27 -3.81,-0.02 -6.19,1.56 -7.89,4.73 -1.85,3.46 1.09,16.94 1.83,21.75l10.17 65.03c0.5,3.47 1.18,7.06 1.76,10.6l5.14 32.46c0.62,3.71 2.56,19.22 3.76,21.49z"/>
   <path class="fil1" d="M235.83 190.05l0 -12.89 16.65 0.27 0 14.24c0,0.93 -0.2,1.04 -0.27,1.88 -0.84,0.07 -0.95,0.27 -1.88,0.27l-13.43 0c-1.09,0 -1.08,-2.21 -1.08,-3.76zm8.33 -41.9c2.36,0 13.77,-0.19 15.57,0.28 1.17,0.3 0.72,0.28 0.91,1.78 0.58,4.69 -0,10.23 -0.37,14.6 -2.59,0.6 -11.51,0.27 -14.77,0.27 -2.67,0 -1.33,-2.88 -1.61,-8.06 -0.1,-1.75 -0.44,-2.26 -0.11,-4.41 0.26,-1.68 0.02,-2.91 0.38,-4.45zm-6.18 -20.95c0,-3.42 -0.2,-7.59 0.54,-10.74l16.12 0 0 16.65c-3.14,0 -10.71,0.53 -13.82,0.12 -2.34,-0.31 -2.84,1.24 -2.84,-6.03zm-27.13 102.6l37.07 0c0.93,0 0.89,-0.88 1.57,-2.73l10.48 -30.35c2.81,-8.49 25.01,-72.09 25.01,-74.91 0,-1.91 -0.99,-3.91 -1.79,-5.2 -1.84,-2.97 -5.58,-4.49 -8.9,-5.34 -1.79,-0.46 -3.97,-0.97 -5.73,-1.52 -0.96,-0.3 -1.67,-0.58 -2.65,-0.84l-8.57 -2.18c-7.09,-2.08 -15.59,-4.04 -22.29,-6.18 -0.66,-0.21 -1.92,-0.67 -2.69,-0.83 -1.17,-0.24 -1.16,0.16 -1.5,1.54 -0.51,2.11 -0.65,4 -1.03,6.23l-19.61 119.53c-0.1,0.71 -0.74,2.76 0.62,2.76z"/>
   <path class="fil1" d="M68.76 68.65c6.44,0 34.85,-0.29 39.03,0.19 3.74,0.43 1.78,-0.31 2.41,4.31 0.14,1.02 0.2,1.87 0.2,3.3l0.55 26.31c0.12,4.15 -0.41,9.76 0.03,13.67 0.43,3.86 -0.22,9.31 0.3,13.13 0.25,1.84 0.21,4.26 0.19,6.52 -0.01,2.26 0.27,3.92 0.27,6.44 -0,11.05 0.58,21.93 0.54,33.31 -0.01,2.45 0.27,3.9 0.27,6.45 -0,2.24 0,4.48 0,6.71 -0,2.54 0.28,4.08 0.27,6.44l-0.01 9.95c0.04,1.37 0.28,1.65 0.29,3.2 0,2.74 -0.26,11.61 0.39,13.31 0.33,0.86 1.14,0.95 1.97,1.25l12.22 4.72c0.89,0.37 1.78,1.06 1.74,-0.36 -0.06,-1.84 -1.46,-11.73 -1.55,-15.42 -0.14,-5.54 -2.19,-24.06 -2.91,-30.93 -0.65,-6.17 -0.87,-13.07 -1.58,-18.57l-1.38 -12.32c-0.11,-1.05 0.03,-2.12 -0.05,-3.17 -0.07,-0.82 -0.28,-2.09 -0.41,-3.08 -0.78,-5.69 -0.9,-13.5 -1.61,-18.54 -0.55,-3.94 -0.98,-8.23 -1.2,-12.23 -0.39,-7.01 -1.63,-17.73 -2.37,-24.76 -0.23,-2.16 -0.26,-4.33 -0.5,-6.21l-1.69 -18.46c-0.17,-4.03 -0.9,-8.52 -1.3,-12.4 -0.22,-2.14 -0.33,-4.25 -0.54,-6.18 -0.25,-2.27 -0.14,-4.05 -0.46,-6.25l-1.16 -12.53c-0.22,-2.67 -1.45,-15.95 -2.27,-17.87 -2.65,-6.18 -9.56,-0.39 -12.64,1.93l-22.45 17.04c-2.34,1.81 -4.72,4.21 -5.99,7.17 -2.5,5.85 -1.4,3.61 -1.97,7.72 -0.5,3.65 3.32,23.06 3.39,26.2z"/>
   <path class="fil1" d="M-0 113.23c0,2.72 0.58,6.74 1.13,9.08 0.63,2.72 1.51,5.35 2.08,8.13 2.06,10.06 4.8,19.03 6.76,28.97 0.33,1.65 0.62,2.52 1.09,4.02l12.86 53.48c1.27,4.88 -0.22,5.15 3.91,6.3 1.29,0.36 2.64,0.8 3.79,1.32l9.13 3.52c2.08,0.69 1.71,0.73 0.97,-4.77 -0.83,-6.17 -2.01,-11.75 -2.72,-17.69l-3.73 -26.89c-0.46,-3.15 -0.96,-5.87 -1.38,-8.83 -0.87,-6.14 -1.52,-12.1 -2.54,-18.14 -0.47,-2.79 -0.93,-5.79 -1.29,-8.92 -0.17,-1.49 -0.37,-2.91 -0.56,-4.54 -0.43,-3.62 -1.62,-9.05 -2.08,-13.23 -0.92,-8.39 -2.92,-18.82 -3.8,-26.82 -0.34,-3.13 -1.35,-9.99 -2.23,-13.08 -1.98,-6.98 -6.87,-0.21 -8.99,2.62 -3.21,4.29 -8.17,10.37 -10.24,15.01 -1.09,2.44 -2.15,6.96 -2.15,10.47z"/>
  </g>
 </g>
</svg>
