<?xml version="1.0" encoding="UTF-8"?>
<!DOCTYPE svg PUBLIC "-//W3C//DTD SVG 1.1//EN" "http://www.w3.org/Graphics/SVG/1.1/DTD/svg11.dtd">
<!-- Creator: CorelDRAW -->
<svg xmlns="http://www.w3.org/2000/svg" xml:space="preserve" width="1.3533in" height="1.32069in" version="1.1" style="shape-rendering:geometricPrecision; text-rendering:geometricPrecision; image-rendering:optimizeQuality; fill-rule:evenodd; clip-rule:evenodd"
viewBox="0 0 458.73 447.67"
 xmlns:xlink="http://www.w3.org/1999/xlink"
 xmlns:xodm="http://www.corel.com/coreldraw/odm/2003">
 <defs>
  <style type="text/css">
   <![CDATA[
    .fil2 {fill:none}
    .fil0 {fill:#21AA61}
    .fil4 {fill:white}
    .fil3 {fill:white;fill-rule:nonzero}
    .fil1 {fill:black;fill-opacity:0.188235}
   ]]>
  </style>
   <clipPath id="id0">
    <path d="M-0 0l458.73 0 0 447.67 -458.73 0 0 -447.67z"/>
   </clipPath>
 </defs>
 <g id="Layer_x0020_1">
  <metadata id="CorelCorpID_0Corel-Layer"/>
  <polygon class="fil0" points="-0,0 458.73,0 458.73,447.67 -0,447.67 "/>
  <g style="clip-path:url(#id0)">
   <g id="_105553226156736">
    <g>
     <path id="_1" class="fil1" d="M363.35 427.94c-2.76,3.41 -12.24,11.85 -13.65,15l-1.28 1.86c2.18,0.05 1.85,-0.54 3.68,0.98l1.11 1.78c1.02,-3.07 -0.56,-0.82 1.82,-1.99l4.17 -2.04c0.14,-0.08 0.31,-0.19 0.46,-0.26 0.94,-0.43 2.37,-0.5 3.11,-0.34 1.97,0.42 0.36,1.07 6.44,1.02l38.1 -0.02 0.7 3.23 4.7 -5.28 -0.06 3.61c2.84,-1.69 3.26,-3.52 5.3,-5.51 2.97,-2.89 2.58,-2.93 4.88,-6.23l-1.08 0.02c-0.05,-0.01 -0.25,-0.01 -0.29,-0.02 -0.04,-0.01 -0.22,-0.05 -0.26,-0.07l-1.19 -1.87c-0.05,-0.32 -0.17,-0.42 -0.27,-0.62 -5.4,2.44 -15.86,-0.61 -16.15,3.75 0.3,-2.82 2.01,-2.78 2.75,-5.73 -6.2,-0.09 -3.63,1.43 -6.66,3.27 -3.64,-0.2 -8.17,-0.7 -11.32,0.55 -2.85,1.13 -0.38,1.54 -3.24,0.76 -2.83,-0.77 -1.23,-1.05 -5.19,-0.89 -0.01,4.97 -0.94,1.48 1.34,3.46 -1.9,-0.06 -1.75,-0.29 -3.37,-0.73l0.58 -4.17c-5.71,-0.13 -4.81,2.68 -8.27,1.71 1.61,-2.76 1.37,-0.79 2.8,-3.71 -4.07,0.15 -3.59,0.06 -4.85,1.91l-0.44 0.96c-3.24,0.19 -3.27,-0.35 -5.02,0.84 -0,-0 0.95,-0.49 -1.09,-0.4 3.06,-2.12 1.08,-2.44 6.61,-4.63l-0.98 -1.9c-0.01,-0.14 -0.03,-0.22 -0.08,-0.32 -1.1,1.53 -1.97,2.46 -3.82,1.99z"/>
     <path class="fil1" d="M129.11 407.59c-0.79,1.46 -1.08,-0.05 0.67,1.27 2.25,1.69 4.4,1.73 6.6,1.3 0.02,0.06 4.47,1.45 -1.86,1.67 0.54,0.01 0.24,-0.26 1.03,0.47l1.84 2.07c0.01,4.29 -1.02,6.19 -0.52,9.82 1.14,8.15 0.1,4.51 -0.16,9.1 -0.21,3.88 1.15,4.06 0.41,9.1 -0.52,3.48 -0.42,5.97 -0.42,9.62l18.33 0 0.1 -3.18 -2.38 -1.16c0,-6.96 -0.2,-14.05 -0.1,-20.99 0.06,-3.49 -0.04,-6.73 -0.05,-10.19 -0.02,-7.27 2.85,-5.02 1.78,-6.53 -1.94,-2.74 -2.29,0.73 -5.79,0.36 3.09,-1.13 2.63,-5.76 4.46,-6.13 1.3,-0.26 -0.5,-0.07 1.95,0.72 0.24,-2.77 -0.19,-1.09 0.76,-2.83l-3.92 -3.33c-0.11,-0.27 -0.42,-0.13 -0.64,-0.16 -1.87,0.29 -7.17,7.18 -8.76,8.38 -4.73,3.57 -8.75,1.24 -13.33,0.64z"/>
     <path class="fil1" d="M8.06 338.35c1.47,-1.12 1.9,-0.54 2.83,-5.42 0.91,-4.79 0.25,-96.43 0.15,-99.53 3.04,-1.06 0.31,0.02 1.61,-1.18l-1.46 -0.27c2.76,-2.87 1.22,-1.77 2.08,-4.1 -2.14,-1.45 -0.15,-0.57 -2.57,-0.6 -1.41,-0.43 -3.08,-1.07 -5.16,-1.08l0.26 1.39c1.32,3.48 1.23,1.04 1.23,6.68l-1.84 0c-0.13,9.82 -0.91,86.81 -0.22,96.19 0.57,7.65 1.99,5.25 3.09,7.93z"/>
     <path class="fil1" d="M287.3 405.83c-0.66,1.27 -3.11,2.45 -4.51,3.82 -1.66,1.62 -2.92,3 -4.53,4.67 -2.93,3.05 -5.95,5.9 -8.5,9.01 1.79,1.3 1.4,-0.53 0.41,4.78l1.28 13.7c0.08,3.65 -0.39,5.87 -0.56,8.74 -0.89,0.37 0.07,2.04 -1.33,-0.52l0 1.96 6.8 0c1.89,-2.49 6,-6.75 8.44,-9.14 2.35,-2.31 6.81,-6.47 8.17,-8.97 -3.79,1.09 -1.4,1.12 -2.79,-0.06 -2.12,-1.79 -0.54,-1.32 -0.39,-2.25l0.52 -6.87c0.02,-0.13 0.07,-0.33 0.09,-0.46l0.43 -4.79c0.01,-2.98 -0.12,-5.67 -0.58,-7.96l3.97 -0.04c-0.02,0.09 -0.11,0.22 -0.14,0.23l-2.62 -0.33c-0.3,-1.58 -0.57,-2.41 0.11,-3.46 0.96,-1.46 2.19,-1.07 1.96,-2.86l-6.23 0.78z"/>
     <path class="fil1" d="M123.15 452.01l13.55 0c0,-3.66 -0.1,-6.14 0.42,-9.62 0.75,-5.04 -0.62,-5.22 -0.41,-9.1 0.25,-4.59 1.29,-0.95 0.16,-9.1 -0.5,-3.63 0.54,-5.53 0.52,-9.82l-1.84 -2.07c-0.79,-0.73 -0.48,-0.46 -1.03,-0.47 6.33,-0.22 1.88,-1.61 1.86,-1.67 -2.2,0.43 -4.35,0.39 -6.6,-1.3 -1.75,-1.32 -1.45,0.19 -0.67,-1.27 -1.85,-4.42 -7.13,-6.34 -12.98,-5.49 1.6,1.69 -0.38,0.13 1.73,1.02 4.18,1.77 -3.8,-1.25 1.19,0.36 2.39,0.77 0.77,-1.12 2.09,0.74 2.77,-0.56 0.4,-0.7 1.25,0.48 0.03,0.05 0.14,0.25 0.17,0.3l0.53 4.52c-0.62,3.23 -0.38,10.37 -0.41,14.24 -0.06,7.55 -0.74,22.27 0.46,28.23z"/>
     <path class="fil1" d="M12.65 232.22c1.65,0.38 1.02,-0.04 1.9,0.92 1.37,1.51 1.18,4.32 1.58,6.11l0.76 4.23c0.24,5.93 0.52,59.04 -0.28,63.04 0.07,0.03 0.2,-0.05 0.23,-0.05l1.92 0.05c-0.89,3.56 -1.77,3.1 -1.71,7.51l0.85 -1.74 1.22 1.56c0.01,0.31 0.04,0.44 0.04,0.75 -0.04,5.73 -0.49,2.56 -1.53,3.93 -1.5,1.98 0.45,1.99 0.46,7.18 0,1.43 -4.15,7.96 -5.72,9.69l-1.64 1.56c5.21,-4.51 9.67,-11.84 14.81,-15.24 1.06,-0.16 0.88,0.16 0.62,-0.9 -1.88,-0.18 -1.91,-0.02 -3.15,-2.85 -0.88,-2 -1.27,-4.12 -1.07,-6.37 0.44,-4.91 3.39,-7.24 4.86,-9.73 -1.31,-0.46 -1.77,1 -0.01,-1.5 -4.64,-1.55 1.14,1.21 -1.85,-1.09 -0.16,-0.12 -0.59,-0.48 -0.7,-0.61l-0.35 -13.86c0.24,-0.15 0.55,2.02 0.62,-2.48 -0.91,-1.43 -0.94,-2.7 -2.36,-3.88 0.9,-1.72 1.23,-0.43 1.51,-3.67l-0.13 -39.91c-4.19,-0.03 -3.86,-1.08 -4.53,-2.4 -0.43,-0.4 -2.19,-1.38 -2.94,-2.02 -1.88,-1.59 -0.18,-0.9 -2.81,-2.59 -0.85,2.33 0.68,1.23 -2.08,4.1l1.46 0.27z"/>
     <path class="fil1" d="M-0 228.07l0 118.61c1.51,-0.59 0.94,-0.38 1.97,-1.21 0.2,-0.16 1.55,-1.58 1.75,-1.81 1.26,-1.52 1.53,-2.75 3.55,-3.6 0.41,-0.71 0.65,-1.22 0.79,-1.7 -1.1,-2.68 -2.52,-0.28 -3.09,-7.93 -0.7,-9.38 0.09,-86.36 0.22,-96.19l1.84 0c0,-5.65 0.09,-3.2 -1.23,-6.68l-0.26 -1.39c2.08,0.02 3.75,0.65 5.16,1.08 -2.82,-3.04 -7.68,-0.82 -10.7,0.83z"/>
     <path class="fil1" d="M159.38 390.14c-1.5,0.21 -1.17,-0.26 -1.17,1.23l2.87 1.72c0.76,0.77 1.47,-1.91 1.54,3.91l1.41 -0.12c0.1,0.01 0.36,0.05 0.54,0.12 -0.37,3.91 0.13,5.41 -3.27,5.79l0 49.22 7 0 1.33 -2.51c-1.47,-1.05 -1.36,-0.9 -0.12,-3.19 1.85,-3.41 3.07,-0.69 2.66,-5.32 -0.14,-1.64 0.73,-1.57 0.65,-2.02 -1.77,-3.03 -0.77,-3.83 -0.34,-6.77l0.45 -6.61c-0.54,-1.9 -2.07,-4.06 -2.23,-6.88 -0.21,-3.63 1.09,-5.01 1.52,-7.68 -0.33,-3.62 0.17,-2.53 2.23,-5.55 -2.34,2.73 0.1,1.07 -4.43,1.29 0.05,-0.7 0.55,-3.44 0.55,-3.44 0.13,-3.57 -1.27,-1.07 0.97,-5.61 0.99,-2 0.84,0.49 0.86,-3.42 -3.92,-0.97 -1.47,-0.51 -4.37,1.45 0.28,-3.06 1.3,-1.19 1.43,-5.99 -8.96,-0.08 -6.86,1.58 -10.09,0.38z"/>
     <path class="fil1" d="M8.06 338.35c-0.14,0.48 -0.39,0.99 -0.79,1.7l2.66 -1.82c0.24,-0.96 -0.64,-0.14 0.8,-1.28l1.64 -1.56c1.57,-1.73 5.72,-8.26 5.72,-9.69 -0,-5.19 -1.96,-5.19 -0.46,-7.18 1.04,-1.37 1.49,1.8 1.53,-3.93 0,-0.3 -0.03,-0.43 -0.04,-0.75l-1.22 -1.56 -0.85 1.74c-0.06,-4.42 0.82,-3.96 1.71,-7.51l-1.92 -0.05c-0.03,0 -0.16,0.08 -0.23,0.05 0.8,-4 0.52,-57.11 0.28,-63.04l-0.76 -4.23c-0.4,-1.79 -0.2,-4.59 -1.58,-6.11 -0.87,-0.96 -0.25,-0.53 -1.9,-0.92 -1.31,1.2 1.43,0.12 -1.61,1.18 0.1,3.11 0.77,94.74 -0.15,99.53 -0.93,4.88 -1.36,4.3 -2.83,5.42z"/>
     <path class="fil1" d="M429.21 394.23c-1.78,0.33 -5.92,4.77 -7.17,6.76 -2.05,1.92 -3.08,3.07 -4.85,4.95 -1.58,1.66 -2.85,2.95 -4.47,4.62 -2.71,2.79 -6.76,6.33 -8.44,9.69 0.22,-0.07 1.65,-0.37 1.84,-0.37 0.15,-0 0.39,-0.01 0.55,0.01 2.31,0.14 0.52,0.73 3.84,0.46 2.02,-0.16 2.03,-0.73 5.05,0.46 0.12,0.05 0.3,0.17 0.41,0.21 2.32,0.94 2.04,-1.15 5.89,-1.61 2.46,-0.29 5.69,-0.05 8.31,-0.24 0.11,0.15 0.19,0.24 0.24,0.5l1.67 2.13c1.13,0.65 -0.72,0.67 1.84,0.47 1.87,-0.15 0.29,1.85 4.48,-3.74 0.39,-0.52 0.45,-0.66 0.97,-1.23 0.1,-0.11 0.24,-0.26 0.34,-0.35l3.71 -3.92c2.96,-3.74 3.21,-2.02 5.19,-5.35 0.84,-1.41 1.01,-1.81 1.69,-3.13 -2.39,0.7 -0.88,0.28 -2.24,-0.11l-4.04 -2.35 -0.69 2.01c-3.58,0.31 -11.05,1.97 -14.55,0.13 -0.1,-3.13 1.02,-3.13 2.74,-4.48l-0.24 -3.09c-2.67,3.34 -4.01,1.06 -0.21,-2.28 1.21,-1.06 1.19,-0.9 2.09,-2.04 -1.47,1.67 -1.56,1.68 -3.94,1.89z"/>
     <path class="fil1" d="M36.4 310.3c4.15,-1.1 1,-0.2 2.27,0.16 0.04,0.16 0,0.26 0,0.5l0.44 21.99c0.05,0.23 0.5,1.34 0.54,1.55 0.29,1.74 -0.04,1.4 -0.75,3.42 0.17,-0.16 0.74,-0.61 0.87,-0.67 2.13,-1.03 2.31,-0.47 3.02,-0.72 0.28,-1.38 0.03,-1.71 -1.24,-2.8l2.08 0.6c5.74,-5.51 11,-12.1 16.57,-17.17 -2.85,-0.88 -0.63,0.14 -2.54,0.35 -4.05,0.44 2.47,2.49 -1.14,-0.09 -3.53,-2.52 1.79,-6.11 1.99,-10.87 0.05,-1.33 -0.08,-3.04 -0.06,-4.45 0.11,-8.47 1.65,-5.24 -0.98,-6.69l2.09 -0.39c-0.25,-0.13 -3.2,-0.05 -3.46,-0.08 -3.25,-0.49 -1.52,0.81 -2.1,-1.25 -5.25,1.81 -6.47,3.87 -9.48,7.23 -0.51,0.57 -0.48,0.56 -1.03,1.15 -0.1,0.11 -0.24,0.26 -0.35,0.37 -2.59,2.73 -5.25,4.68 -6.74,7.83z"/>
     <path class="fil1" d="M404.28 420.26c-1.72,0.57 -1.4,0.71 -2.98,2.33 -0.93,0.95 -1.44,1.47 -2.42,2.53 -1.66,1.78 -2.9,3.46 -6.1,4.29 -3.36,1.8 -7.88,0.33 -10.64,-2.13 -2.68,-2.02 -4.59,-4.69 -10.11,-4.32 -1.69,0.11 -4.02,0.8 -5.36,1.69 -2.2,1.45 -1.56,1.84 -3.32,3.29 1.85,0.47 2.72,-0.47 3.82,-1.99 0.05,0.09 0.07,0.18 0.08,0.32l0.98 1.9c-5.53,2.19 -3.55,2.51 -6.61,4.63 2.03,-0.09 1.09,0.4 1.09,0.4 1.75,-1.19 1.78,-0.65 5.02,-0.84l0.44 -0.96c1.26,-1.86 0.78,-1.76 4.85,-1.91 -1.43,2.92 -1.19,0.95 -2.8,3.71 3.45,0.96 2.56,-1.84 8.27,-1.71l-0.58 4.17c1.62,0.44 1.47,0.67 3.37,0.73 -2.28,-1.98 -1.36,1.51 -1.34,-3.46 3.96,-0.17 2.37,0.11 5.19,0.89 2.85,0.78 0.38,0.37 3.24,-0.76 3.15,-1.26 7.69,-0.76 11.32,-0.55 3.03,-1.84 0.46,-3.35 6.66,-3.27 -0.75,2.95 -2.46,2.91 -2.75,5.73 0.29,-4.36 10.75,-1.31 16.15,-3.75 0.1,0.2 0.22,0.3 0.27,0.62l1.19 1.87c0.04,0.02 0.21,0.06 0.26,0.07 0.05,0.02 0.24,0.01 0.29,0.02l1.08 -0.02c3.63,-0.04 3.75,-3.54 5.56,-5.27 0.91,-0.87 4.25,-2.36 5.51,-6.2 -2.56,0.2 -0.7,0.18 -1.84,-0.47l-1.67 -2.13c-0.04,-0.26 -0.13,-0.35 -0.24,-0.5 -2.62,0.19 -5.85,-0.05 -8.31,0.24 -3.85,0.46 -3.57,2.55 -5.89,1.61 -0.11,-0.04 -0.29,-0.16 -0.41,-0.21 -3.02,-1.19 -3.02,-0.63 -5.05,-0.46 -3.32,0.27 -1.53,-0.31 -3.84,-0.46 -0.16,-0.01 -0.39,-0.01 -0.55,-0.01 -0.19,0 -1.62,0.3 -1.84,0.37z"/>
     <path class="fil1" d="M340.34 452.01l70.82 0 0.34 -2.77 1.17 -3.75 0.06 -3.61 -4.7 5.28 -0.7 -3.23 -38.1 0.02c-6.08,0.05 -4.47,-0.61 -6.44,-1.02 -0.75,-0.16 -2.18,-0.09 -3.11,0.34 -0.15,0.07 -0.32,0.18 -0.46,0.26l-4.17 2.04c-2.39,1.17 -0.8,-1.07 -1.82,1.99l-1.11 -1.78c-1.83,-1.53 -1.5,-0.93 -3.68,-0.98l1.28 -1.86 -9.35 9.07z"/>
     <path class="fil1" d="M151.2 398.57c0.22,0.03 0.53,-0.11 0.64,0.16l3.92 3.33c-0.95,1.75 -0.52,0.07 -0.76,2.83 -2.45,-0.79 -0.64,-0.98 -1.95,-0.72 -1.83,0.37 -1.37,5 -4.46,6.13 3.49,0.37 3.84,-3.1 5.79,-0.36 1.07,1.51 -1.81,-0.74 -1.78,6.53 0.01,3.46 0.11,6.7 0.05,10.19 -0.1,6.94 0.1,14.04 0.1,20.99l2.38 1.16 -0.1 3.18 6.27 0 0 -49.22c3.4,-0.38 2.91,-1.88 3.27,-5.79 -0.17,-0.06 -0.44,-0.1 -0.54,-0.12l-1.41 0.12c-0.07,-5.82 -0.78,-3.14 -1.54,-3.91l-2.87 -1.72c-1.33,0.16 -0.69,-0.17 -1.92,1.01 -0.38,0.36 -0.99,1.3 -1.63,1.95 -2.28,2.34 -2.14,1.05 -3.46,4.23z"/>
     <path class="fil1" d="M96.92 422.08l-0.54 1.68 3.64 0.82 -2.25 1.6c-2.93,2.56 -0.89,0.36 -4.02,1.3 -0.05,0.02 -1.77,1.09 -2.1,1.37 0.61,2.04 -0.17,0.25 0.71,1l1.63 1c-2.26,1.31 -0.53,-1.02 -2.02,3.79l2.76 1.45c-1.13,1.51 -1.24,0.95 -1.67,2.38 -0.32,1.07 -0.26,3.62 -0.27,4.87 -0.05,5.18 -0.43,3.74 -1,6.11 -0.25,1.06 -0.24,1.44 -0.28,2.57l16.47 0c-0.01,-5.54 -0.12,-11.09 -0.13,-16.65 -0,-1.2 -0.11,-8.11 0.09,-8.7 0.69,-1.98 -0.86,-1.75 2.78,-1.95 3.96,-0.22 1.93,0.41 2.14,0.92 -1.71,-2.77 -1.08,2.72 -2.08,-4.02 2.6,-1.14 1.13,0.03 2.9,-1.69 -4.52,-4.93 -16.34,-3.06 -16.75,2.16z"/>
     <path class="fil1" d="M209.21 417.21l-0.58 0.54 -7.07 6.94c-1.79,3.02 -4.51,5.05 -7.32,8 0.92,2.96 0.67,1.22 0.35,1.93 0.31,0.29 0.16,2.35 3.39,-0.72l-2.56 9.4c2,1.97 2.35,0.52 2.1,2.72 -0.49,4.31 -1.96,-2.8 -1.96,5.97l20.42 0 -1.38 -1.19c-0.13,-0.12 -0.3,-0.25 -0.42,-0.37 -2.53,-2.57 -1.09,-25.13 -1.67,-33.19 -3.93,-0.67 2.69,-1.6 -0.53,0.46l-2.28 -0.21c-0.07,-0.23 -0.32,-0.2 -0.49,-0.3z"/>
     <path class="fil1" d="M209.21 417.21c0.17,0.09 0.42,0.07 0.49,0.3l2.28 0.21c3.22,-2.06 -3.4,-1.13 0.53,-0.46 0.59,8.06 -0.86,30.62 1.67,33.19 0.12,0.12 0.3,0.25 0.42,0.37l1.38 1.19 7.53 0 0.26 -40.85c-0,-0.08 -1.39,-5.58 2.19,-6.71 -0.65,-0.77 -0.49,-0.71 -0.94,-1.2 -0.1,-0.1 -0.32,-0.3 -0.4,-0.39l-0.93 -0.78 -14.47 15.13z"/>
     <path class="fil1" d="M10.73 336.95c-1.45,1.15 -0.56,0.32 -0.8,1.28l0.1 29.93c-0.29,1.92 0.43,2.08 -2,2.81 0.6,1.13 -0.61,0.28 1.42,0.47 1.33,-0.04 6.62,-5.95 8.02,-7.51l10.08 -11.28c-1.21,-0.49 -2.19,-1.11 -3.17,-0.35l-2.22 3.42c0.83,-2.47 1.75,-4.19 1.11,-7.02l-0.3 -0.9c-0.64,-2.46 -0.4,-6.36 -0.39,-9.45 0.03,-20.37 0.88,-8.8 2.98,-16.65 -5.15,3.41 -9.6,10.73 -14.81,15.24z"/>
     <path class="fil1" d="M79.7 438.96c-2.46,0.51 -2.55,2.4 -7.53,1.85 -3.66,-0.41 -4.9,-1.69 -7.13,-3.63 -0.9,0.84 -1.45,0.91 -1.5,2.36 -0.07,2.28 0.5,1.18 2.19,3.06 -0.1,2.69 0.18,3.23 -0.62,5.6 -0.69,2.05 -0.84,-0.9 -0.84,3.81l27.23 0c0.04,-1.13 0.03,-1.51 0.28,-2.57 0.57,-2.37 0.96,-0.93 1,-6.11 0.01,-1.25 -0.05,-3.8 0.27,-4.87 0.43,-1.43 0.55,-0.87 1.67,-2.38l-2.76 -1.45c1.49,-4.81 -0.24,-2.48 2.02,-3.79l-1.63 -1c-0.88,-0.74 -0.1,1.05 -0.71,-1 0.33,-0.27 2.05,-1.35 2.1,-1.37 3.13,-0.94 1.09,1.27 4.02,-1.3l2.25 -1.6 -3.64 -0.82 0.54 -1.68c-3.34,1.88 -5.56,4.79 -8.88,8.33 -2.18,2.32 -5.94,7.03 -8.34,8.55z"/>
     <path class="fil1" d="M40.62 374.82l-1.71 2.76c-1.96,2.12 -4.83,4.28 -5.88,6.7 -0.47,1.65 -0.58,0.13 -0.29,2.57l1.31 0.73c-0.81,2.59 -0.21,0.02 -2.05,1.45 0.95,3.11 1.1,9.65 0.77,13.36 -0.22,2.46 -0.62,5.71 -0.29,8.43 0.24,1.92 0.38,2.43 2.49,4.77 1.19,-1.01 0.18,-0.39 1.16,-1.02 1.24,-0.8 0.46,-0.54 1.61,-0.73 1,-2.35 0.49,-1.46 2.22,-3.32 0.75,-0.81 1.27,-1.26 2.09,-2.1 1.62,-1.64 2.81,-2.73 4.02,-4.52 -1.55,-2.11 0.08,-4.79 -0.47,-7.4l0.1 -22.01c-1.49,0.64 -2.31,0.87 -3.34,1.77l0.32 -2.15c-0.99,0.5 -0.97,0.32 -2.08,0.73z"/>
     <path class="fil1" d="M16.65 400.32l-1.23 0.56 1.38 3.93c-2.77,-0.18 -2.09,-0.1 -4.19,1.2l2.06 0.64 2.06 1.3c-2.38,0.93 -1.42,0.36 -1.4,9.31 0.01,4.1 0.02,8.21 -0.03,12.31 -0.2,15.49 -1,10.56 -1.31,15.92 -0.11,1.97 -0.04,4.5 -0.04,6.52l13.92 0 4.91 -1.29 -2.79 -1.04c-3.36,-1.04 -6.16,-1.78 -7.07,-5.82 -1.58,-3.03 -3.34,-7.51 -1.33,-11.39l-2.07 -2.46 2 -3.46c0.13,-0.13 0.31,-0.27 0.44,-0.38 1.83,-1.56 -1.86,0.71 1.72,-0.93l-0.38 -2.86c0.03,-0.04 0.14,-0.16 0.17,-0.2l2.15 -1.29c-2,-1.12 -3.23,-3.15 -3.37,-5.75l0.42 -8.83c-0.01,-4.83 0.7,-3.9 -2.58,-4.25l2.41 -1.58c1.29,-1.08 0.32,0.65 1.05,-1.31 -1.95,-2.44 -0.8,-1.61 -3.87,-1.68l-3.02 2.84z"/>
     <path class="fil1" d="M5.95 452.01l8 0c0,-2.02 -0.07,-4.55 0.04,-6.52 0.31,-5.35 1.11,-0.43 1.31,-15.92 0.05,-4.1 0.04,-8.2 0.03,-12.31 -0.01,-8.95 -0.97,-8.39 1.4,-9.31l-2.06 -1.3c-1.85,-0.3 -2.24,-0.44 -3.6,-0.97l-0.93 1.02c-4.69,4.32 -5.52,-0.52 -4.89,-0.33l0.28 1.48c-2.09,1.63 0.75,3.69 -2.08,5.07 3.28,0.9 1.66,0.7 2.5,2.17l0 36.92z"/>
     <path class="fil1" d="M230.53 396.12c-0.04,0.24 0.02,3.35 -0.3,1.76 -0.02,-0.11 -0.31,0.35 -0.43,0.55 -1.05,0.17 0.17,1.13 -1.62,3.13 2.01,0.69 0.96,0.41 1.76,1.22 -0.25,12.06 -3.52,3.98 -1.96,11.17 0.24,-2.01 0.55,-2.38 1.98,-3.66l0.04 19.56c-0.04,1.16 -0.25,1.97 -0.3,4.06l-1.68 0c0.15,2.1 0.37,3.3 1.33,5.21 0.28,0.55 0.28,0.62 0.73,1.13l0.5 0.45c0.1,0.08 1.04,0.42 1.09,0.45 -2.4,1.84 -2.26,5.36 -2.26,10.86l6.64 0 -0.53 -4.58c0.15,-0.19 0.42,-0.41 0.57,-0.58 0.17,-0.19 0.47,-0.38 0.65,-0.63l-0.64 0.59c-0.59,-2.32 -4.09,-1.49 -0.74,-2.04 0.74,1.43 3.96,4.21 4.85,0.87 -3.37,-1.81 -3.87,-1.31 -6.14,-4.55 -6.41,-9.16 0.35,-16.76 6.46,-22.2l-2.4 0.54 1.15 -3.42c0.04,-0.21 0.03,-0.4 0.06,-0.6l0.19 -1.57c0.02,-0.13 0.07,-0.33 0.09,-0.46 0.65,-4.27 -0.41,-7.24 1.45,-16.48 -1.37,-2.07 -8.5,-3.03 -10.56,-0.77z"/>
     <path class="fil1" d="M261.2 431.54c-0.8,1.81 -9.87,11.14 -11.71,12.93l-0.18 0.9c0.7,1.86 0.93,1.21 1.94,2.28 -4.61,-0.17 -0.76,-0.13 -4.3,1.45l-0.02 2.89 22.62 0 0 -1.96c1.4,2.55 0.44,0.88 1.33,0.52 0.18,-2.87 0.64,-5.09 0.56,-8.74l-1.28 -13.7c1,-5.31 1.38,-3.47 -0.41,-4.78 -2.96,3.08 -5.42,6.47 -8.56,8.2z"/>
     <path class="fil1" d="M47.23 213.34l1.53 0.93c2.82,2.73 1.76,14.62 1.58,19.13 -0.08,1.96 0.29,0.76 3.25,1.34 0.05,0.01 0.26,0.03 0.35,0.11 -2.54,2.4 -1.5,3.68 -1.5,3.69 0.44,1.8 -1.2,0.17 0.41,1.52 6,-3.21 5.71,-5.41 7.61,-7.21 1.98,-1.87 2.18,-0.64 2.45,-2.54 0.13,-1.86 0.09,-2.06 -0.07,-3.23 -0.03,-0.17 -0.48,-1.39 -0.49,-1.47 -0.11,-2.08 -1.92,2.07 0.52,-0.5 0.93,-0.98 0.54,1.32 0.82,-1.12 -2.24,-2.48 -1.96,-0.87 -2.1,-1.32 -0.06,-0.2 -0.31,-0.07 -0.47,-0.13 2.06,-2.97 0.04,-1.28 3.51,-4.6 -2.45,-1.17 -0.52,-2.04 -2.32,-0.47l2.07 0c-0.08,-0.31 -0.19,-0.59 -0.29,-0.9l-1.12 -4.14c-0.88,1.11 -0.89,0.58 0.02,-0.05l4.05 0.24c-0.62,-2.32 -0.26,-3.05 -0.19,-3.28 -8.22,-7.78 -15.78,-1.94 -19.63,4z"/>
     <path class="fil1" d="M110.95 405.44c3.51,-1.26 0.3,-0.37 3.28,-1.7l0.49 1.37c0.08,0.21 0.16,0.42 0.24,0.65 0.09,0.23 0.37,0.93 0.45,1.14 0.99,2.79 0.17,1.53 0.15,6.74 -6.41,0.93 1.58,0.02 -4.13,-1.01 -2.11,-0.39 -1.04,0.06 -1.21,0.09 -3.23,0.73 1.58,0.99 -0.85,0.25l6.46 5.01c-0.16,0.17 -0.5,0.58 -0.58,0.68l-0.77 1.01c2.06,4.71 6.51,9.72 1.43,16.7 -1.54,2.11 -3.22,2.98 -4.19,6.52 -1.08,3.96 -0.2,5.57 0.64,9.11l10.77 0c-1.2,-5.96 -0.52,-20.68 -0.46,-28.23 0.03,-3.88 -0.21,-11.01 0.41,-14.24l-0.53 -4.52c-0.04,-0.05 -0.14,-0.25 -0.17,-0.3 -0.84,-1.18 1.52,-1.04 -1.25,-0.48 -1.32,-1.86 0.3,0.03 -2.09,-0.74 -5,-1.61 2.98,1.4 -1.19,-0.36 -2.11,-0.89 -0.13,0.67 -1.73,-1.02 -3.03,1.38 -3.12,1.35 -5.19,3.35z"/>
     <path class="fil1" d="M36.18 224.78c2.51,0.07 1.27,0.42 3.28,-1.51l-1.2 3.38c-0.02,0.12 -0.06,0.31 -0.06,0.42l0.15 0.77c1.35,5.33 1.01,8.77 0.85,15.09 -0.02,0.73 0.06,2.48 0.13,2.61l1.42 0.9c-1.27,1.4 -1.65,1.19 -1.35,4.63 0.34,3.87 -1.5,-1.53 0.66,3.1 3.59,-1.77 0.42,0.21 2.48,-2.41 1.38,-1.75 -0.1,-1.79 2.46,-1.7 1.14,-1.31 1.37,-1.42 2.26,-2.73 0.96,-1.4 0.65,-1.27 1.67,-2.56 1.63,-2.07 2.63,-2.33 3.91,-4.69 -1.6,-1.35 0.03,0.28 -0.41,-1.52 -0,-0.01 -1.04,-1.29 1.5,-3.69 -0.09,-0.08 -0.3,-0.1 -0.35,-0.11 -2.96,-0.58 -3.34,0.63 -3.25,-1.34 0.19,-4.51 1.25,-16.4 -1.58,-19.13l-1.53 -0.93 -11.06 11.44z"/>
     <path class="fil1" d="M42.7 374.09l-0.32 2.15c1.03,-0.89 1.85,-1.13 3.34,-1.77l-0.1 22.01c0.55,2.61 -1.09,5.3 0.47,7.4l11.05 -11.05 -0.96 -2.72c-0.55,-1.49 0.65,-0.19 -0.65,-3.7 0.6,0.91 -0.04,0.41 0.77,1.1 1.31,1.12 -0.06,0.41 2.22,1.39 -0.42,-2.45 -0.13,-5.73 -2.04,-9.69 3.95,0.9 0.23,-1.7 5.85,-0.52 -1.53,-3.89 -2.06,-2.99 -2.7,-3.21l-1.45 -4.67c-0.33,-0.86 0.51,-0.1 -1.03,-1.03 -4.59,-2.79 -11.74,-1.24 -14.43,4.3z"/>
     <path class="fil1" d="M19.01 232.45c0.66,1.31 0.33,2.36 4.53,2.4l0.13 39.91c-0.28,3.24 -0.62,1.95 -1.51,3.67 1.41,1.18 1.45,2.45 2.36,3.88 2.04,-0.89 0.31,-0.05 1.58,-1.48 6.03,-6.79 -0.07,-3.84 3.57,-5.46 -0.75,-5.26 -0.51,-7.05 1.49,-11.31 -1.58,-0.95 -1.49,-0.54 -2.12,-0.43 1.46,-5.98 1.58,0.06 2.75,-5.6 0.69,-3.36 0.61,-16.45 -0.62,-21.46l2.2 -0.96c-0.52,-3.18 -0.74,0.23 -0.24,-3.68 -4.21,0.17 -2.4,1.54 -3.35,-0.74 -4.89,1.71 -5.17,2.22 -10.75,1.24z"/>
     <path class="fil1" d="M19.67 397.48c3.07,0.07 1.92,-0.76 3.87,1.68 -0.74,1.97 0.23,0.23 -1.05,1.31l-2.41 1.58c3.27,0.35 2.56,-0.58 2.58,4.25l-0.42 8.83c0.14,2.6 1.37,4.63 3.37,5.75l-2.15 1.29c-0.03,0.03 -0.14,0.16 -0.17,0.2l0.38 2.86c-3.58,1.64 0.12,-0.63 -1.72,0.93 -0.13,0.11 -0.31,0.25 -0.44,0.38l-2 3.46 2.07 2.46c2.07,-7.11 9.44,-11.67 13.38,-16.88 -2.11,-2.33 -2.25,-2.85 -2.49,-4.77 -0.33,-2.71 0.07,-5.97 0.29,-8.43 0.33,-3.7 0.18,-10.24 -0.77,-13.36 1.84,-1.43 1.24,1.14 2.05,-1.45l-1.31 -0.73c-0.29,-2.44 -0.17,-0.91 0.29,-2.57 -3.65,1.95 -9.82,9.97 -13.37,13.2z"/>
     <path class="fil1" d="M-0 452.01l5.95 0 0 -36.92c-0.83,-1.47 0.78,-1.27 -2.5,-2.17 2.83,-1.38 -0.01,-3.44 2.08,-5.07l-0.28 -1.48c-0.63,-0.2 0.21,4.65 4.89,0.33l0.93 -1.02c1.36,0.53 1.74,0.66 3.6,0.97l-2.06 -0.64c2.1,-1.31 1.41,-1.38 4.19,-1.2l-1.38 -3.93c-2.88,1.66 -5.11,2.28 -8.75,1.47 -4.6,-1.02 -3.8,-2.52 -6.66,-4.22l0 53.87z"/>
     <path class="fil1" d="M7.27 340.06c-2.02,0.85 -2.29,2.08 -3.55,3.6 -0.19,0.23 -1.55,1.65 -1.75,1.81 -1.03,0.83 -0.46,0.62 -1.97,1.21l0 34.9c2.88,-1.24 7.6,-7.24 9.45,-10.13 -2.03,-0.2 -0.82,0.66 -1.42,-0.47 2.42,-0.73 1.71,-0.89 2,-2.81l-0.1 -29.93 -2.66 1.82z"/>
     <path class="fil1" d="M53.99 293.72c0.58,2.06 -1.15,0.75 2.1,1.25 0.25,0.04 3.21,-0.04 3.46,0.08l-2.09 0.39c2.62,1.45 1.09,-1.78 0.98,6.69 -0.02,1.4 0.12,3.11 0.06,4.45 -0.19,4.76 -5.52,8.34 -1.99,10.87 3.61,2.58 -2.91,0.53 1.14,0.09 1.91,-0.21 -0.31,-1.23 2.54,-0.35 -5.57,5.07 -10.83,11.66 -16.57,17.17l-10.9 12.22c-0.56,0.37 0.13,-0.11 -0.98,1.11 -0.07,0.08 -0.23,0.25 -0.31,0.33l-3.44 4.13c-0.08,-0.13 -0.29,0.35 -0.44,0.52l-10.08 11.28c-1.4,1.56 -6.69,7.47 -8.02,7.51 -1.85,2.88 -6.57,8.89 -9.45,10.13l0 1 7.23 -7.4 15.08 -15.58c1.24,-0.86 -0.11,-0.21 1.21,-0.63 1.27,-2.94 11.21,-12.59 14.71,-16.14l2.54 -1.98c1.87,-3.45 18.61,-19.97 22.43,-23.94 3.2,-3.33 8.6,-8.64 5.15,-16.68 -1.72,-3.99 -8.56,-9.51 -14.35,-6.51z"/>
     <path class="fil1" d="M223.69 402.08l0.93 0.78c0.08,0.08 0.3,0.28 0.4,0.39 0.45,0.49 0.29,0.42 0.94,1.2 -3.57,1.13 -2.19,6.64 -2.19,6.71l-0.26 40.85 5.91 0c0,-5.49 -0.14,-9.02 2.26,-10.86 -0.06,-0.03 -0.99,-0.37 -1.09,-0.45l-0.5 -0.45c-0.45,-0.52 -0.45,-0.58 -0.73,-1.13 -0.96,-1.91 -1.18,-3.11 -1.33,-5.21l1.68 0c0.04,-2.09 0.26,-2.9 0.3,-4.06l-0.04 -19.56c-1.43,1.28 -1.74,1.65 -1.98,3.66 -1.56,-7.19 1.71,0.89 1.96,-11.17 -0.81,-0.81 0.25,-0.53 -1.76,-1.22 1.79,-2 0.57,-2.95 1.62,-3.13 0.12,-0.2 0.4,-0.66 0.43,-0.55 0.33,1.58 0.26,-1.53 0.3,-1.76 -3.39,1.49 -4.99,3.8 -6.84,5.96z"/>
     <path class="fil1" d="M26.17 320.81c0.26,1.06 0.44,0.74 -0.62,0.9 -2.1,7.85 -2.95,-3.72 -2.98,16.65 -0,3.09 -0.25,6.99 0.39,9.45l0.3 0.9c0.64,2.83 -0.27,4.55 -1.11,7.02l2.22 -3.42c0.98,-0.76 1.96,-0.14 3.17,0.35 0.15,-0.17 0.36,-0.65 0.44,-0.52l3.44 -4.13c0.08,-0.08 0.23,-0.25 0.31,-0.33 1.11,-1.22 0.42,-0.74 0.98,-1.11 -1.01,-3.56 0.02,-10.84 0.16,-14.86 0.16,-4.4 -0.68,-9.57 -0.49,-15.06 -0.15,0.15 -0.32,0.23 -0.41,0.5 -0.63,1.88 -2.54,0.4 -2.54,0.4 -1.68,0.32 0.41,-1.34 -1.91,1.05 -1.25,1.28 -0.86,1.09 -1.35,2.22z"/>
     <path class="fil1" d="M458.55 376.33c-5.55,-0.42 -3.32,2.15 -8.3,0.4 -0.62,-4.41 0.75,0.95 0.26,-2.97l-0.4 -1.25c-0.63,4.56 0.28,2.86 -3.61,3.72 -1.57,0.27 -0.27,-0.37 -1.94,1.08 -0.38,0.33 -1.28,1.39 -1.71,1.85 -1.33,1.45 -1.91,1.99 -3.29,3.65 2.13,-0.99 1.7,-0.75 3.08,-0.37l1.22 0.39c0.31,0.04 4.29,-0.47 4.43,-0.51 -0.28,2.86 -0.8,2.97 -1.3,4.81 0.66,0.32 0.94,0.38 1.86,0.89l1.32 -1.83c0.63,-0.95 0.95,-1.51 1.42,-2.18 4,2.42 -2.45,1.96 10.41,1.96 1.76,-3.03 -1.01,-1.32 2.08,-3.44l2.32 3.55c0.08,-0.02 0.3,-0.06 0.39,-0.09 3.69,-1.26 0.31,-1.73 5.07,-2.28 0.58,-0.35 0.1,0.12 0.99,-0.8 0.2,-0.21 0.69,-0.78 0.88,-1.12 1.08,-1.81 0.83,-1.54 1.29,-3.59 -2.1,-0.91 -1.24,0.1 -1.24,-4.31 -5.15,2.07 -0.39,-3.55 -6.8,-3.04 -0.17,0.01 -0.51,0.4 -0.63,0.19 -0.12,-0.21 -0.43,0.13 -0.63,0.23 -0.04,0.18 -0.01,0.44 0.02,0.55 0.64,3.18 1.28,1.67 2.79,4.08 -1.43,1.03 -1.9,0.71 -3.17,-0.37l-1.96 -2.02c-1.8,0.93 -3.61,2.81 -4.85,2.84z"/>
     <path class="fil1" d="M292.96 433.89c3.15,-1.85 7,-6.43 9.27,-9.88 2.53,-3.76 2.56,-7.71 0.9,-11.84l-1.03 -2.82c-2.38,-1.49 -4.29,-3.61 -8.56,-4.31 0.22,1.8 -1.01,1.4 -1.96,2.86 -0.68,1.05 -0.42,1.88 -0.11,3.46l2.62 0.33c0.03,-0.01 0.11,-0.14 0.14,-0.23l-3.97 0.04c0.47,2.29 0.6,4.98 0.58,7.96l-0.43 4.79c-0.02,0.13 -0.08,0.33 -0.09,0.46l-0.52 6.87c-0.16,0.93 -1.73,0.46 0.39,2.25 1.39,1.18 -1,1.14 2.79,0.06z"/>
     <path class="fil1" d="M431.28 396.66l0.24 3.09c-1.71,1.35 -2.84,1.35 -2.74,4.48 3.5,1.84 10.96,0.18 14.55,-0.13l0.69 -2.01 4.04 2.35c1.36,0.39 -0.15,0.81 2.24,0.11l3.64 -4.31c1.65,-1.79 0.68,-1.39 3.48,-3.01 1.78,-1.03 2.27,0.11 0.9,-4.38 -0.02,-0.07 -0.05,-0.28 -0.08,-0.35l-0.61 -1.1c-1.51,-1.6 -0.35,-0.53 -2.54,-1.65 -1.46,2.54 2.23,4.93 -1.99,2.92 -0.24,-0.11 -0.5,-0.25 -0.71,-0.36 -0.23,-0.11 -0.49,-0.28 -0.76,-0.39 -1.11,3.47 -0.59,2.54 -5.54,2.44 -3.92,-0.07 -4.24,-0.64 -6.99,-1.57 0.29,-0.34 2.28,-1.28 1.13,-4.5l-3.71 3.04c-0.49,1.36 1.31,4.13 -5.25,5.31z"/>
     <path class="fil1" d="M453.31 438.09c-1.07,2.42 -1.43,2.41 -3.25,4.29 -1.22,1.25 -1.92,2.02 -3.14,3.28 -2.16,2.22 -4.11,4.21 -6.1,6.35l33.48 0c0.99,-1.85 2.03,-3.08 2.95,-5.55 -1.67,-1.57 -1.99,-1.33 -1.2,-4.5l-2.65 3.21c-1.09,-1.03 1.26,-0.42 -2.37,-0.75 -2.98,-0.27 -5.8,0.82 -8.29,-0.74 -3.11,4.69 0.23,1.48 -4.61,3.99l-1.08 -1.82c3.17,-2.03 1.77,-2.38 3.54,-4.47l-2.83 -0c-5.11,-0.61 -3.3,-0.77 -0.33,-4.13 -1.72,0.57 -0.45,0.37 -1.13,-0.86 -1.25,0.74 -0.71,0.57 -1.76,1.16 -1.42,0.81 0.16,0.19 -1.22,0.54z"/>
     <path class="fil1" d="M36.18 224.78l-6.71 6.1 0.3 0.33c0.95,2.28 -0.86,0.91 3.35,0.74 -0.5,3.91 -0.28,0.5 0.24,3.68l-2.2 0.96c1.23,5.01 1.31,18.1 0.62,21.46 -1.17,5.66 -1.29,-0.39 -2.75,5.6 0.63,-0.1 0.55,-0.52 2.12,0.43 2.12,-4.19 2.54,-2.01 4.76,-4.7l4.16 -5.22c-2.16,-4.62 -0.32,0.77 -0.66,-3.1 -0.3,-3.44 0.08,-3.22 1.35,-4.63l-1.42 -0.9c-0.07,-0.13 -0.15,-1.88 -0.13,-2.61 0.16,-6.32 0.5,-9.76 -0.85,-15.09l-0.15 -0.77c0,-0.11 0.04,-0.3 0.06,-0.42l1.2 -3.38c-2.02,1.94 -0.77,1.58 -3.28,1.51z"/>
     <path class="fil1" d="M29.44 317.54c0.01,0 1.92,1.49 2.54,-0.4 0.09,-0.26 0.26,-0.34 0.41,-0.5 -0.19,5.49 0.65,10.66 0.49,15.06 -0.15,4.02 -1.18,11.3 -0.16,14.86l10.9 -12.22 -2.08 -0.6c1.26,1.09 1.52,1.43 1.24,2.8 -0.71,0.25 -0.88,-0.31 -3.02,0.72 -0.13,0.07 -0.7,0.51 -0.87,0.67 0.71,-2.03 1.04,-1.68 0.75,-3.42 -0.03,-0.21 -0.48,-1.32 -0.54,-1.55l-0.44 -21.99c0,-0.24 0.03,-0.33 -0,-0.5 -1.26,-0.37 1.88,-1.26 -2.27,-0.16 -1.51,0.3 -0.1,-0.54 -1.96,1.06 -0.58,0.5 -1.09,1.19 -1.7,1.84 -1.84,1.98 -2.2,1.83 -3.31,4.33z"/>
     <path class="fil1" d="M107.96 452.01l4.42 0c-0.84,-3.54 -1.73,-5.15 -0.64,-9.11 0.97,-3.54 2.65,-4.41 4.19,-6.52 5.08,-6.98 0.62,-11.99 -1.43,-16.7l-0.82 0.24c-1.77,1.72 -0.3,0.55 -2.9,1.69 1,6.74 0.36,1.24 2.08,4.02 -0.21,-0.51 1.81,-1.14 -2.14,-0.92 -3.64,0.2 -2.09,-0.03 -2.78,1.95 -0.21,0.6 -0.09,7.5 -0.09,8.7 0.01,5.56 0.11,11.11 0.13,16.65z"/>
     <path class="fil1" d="M44.86 441.42c4.69,1.09 4.44,-1.37 4.93,3.23 0.76,7.21 -1.9,1.89 -2.02,7.36l10.32 0c0,-4.13 0.85,-4.5 1.08,-8.68 0.44,-7.99 0.15,-6.66 -2.95,-7.46 0.22,-0.06 0.53,-0.09 0.67,-0.11l1.02 -0.19c4.27,-1.04 -3.9,1.74 -3.9,-1.53 -4.65,1 -7.59,4.37 -9.14,7.39z"/>
     <path class="fil1" d="M182.21 445.22l4.06 2.17c0.04,0.01 0.23,0.04 0.28,0.05l0.82 0.08c0.15,0.02 0.83,0.02 1.03,0.14 -0.17,3.37 0.46,2.41 -1.18,4.34l8.35 0c0,-8.77 1.47,-1.66 1.96,-5.97 0.25,-2.2 -0.1,-0.75 -2.1,-2.72l2.56 -9.4c-3.23,3.07 -3.07,1.01 -3.39,0.72 0.32,-0.71 0.57,1.03 -0.35,-1.93l-12.03 12.52z"/>
     <path class="fil1" d="M451.36 371.09c3.68,-0.57 1.57,-1.73 7.11,-4.15 1.55,-0.68 3.18,-1.75 4.71,-0.82l-0.11 1.13c-0.04,0.12 -0.09,0.37 -0.14,0.49 -0.48,1.14 -1.15,1.14 -1.82,1.75 0.08,0.06 1.3,0.79 1.36,0.84 1.56,1.44 0.62,-0.24 1.63,2.06l-4.1 1.9c-1.58,0.92 -0.2,-0.34 -1.43,2.05 1.24,-0.03 3.05,-1.91 4.85,-2.84l1.96 2.02c1.27,1.08 1.73,1.4 3.17,0.37 -1.51,-2.41 -2.15,-0.9 -2.79,-4.08 -0.02,-0.11 -0.05,-0.37 -0.02,-0.55 0.2,-0.1 0.51,-0.44 0.63,-0.23 0.12,0.21 0.46,-0.18 0.63,-0.19 6.42,-0.52 1.65,5.11 6.8,3.04 0,4.42 -0.86,3.41 1.24,4.31 2.63,-7.53 -3.22,-13.57 -8.43,-14.89 -7.63,-1.94 -13.45,3.87 -15.24,7.81z"/>
     <path class="fil1" d="M24.51 282.31c-0.07,4.5 -0.38,2.34 -0.62,2.48 3.66,0.32 0.7,-0.01 5.86,2.61l1.79 1.01c-0.83,1.94 -1.63,3.96 -3.26,3.62 1.88,5.76 -1.24,-1.56 1.56,0.89 1.12,0.97 1.13,-3.3 0.86,2.19 -1.39,-1.83 -2.96,-0.37 -3.36,0.18 -1.44,2.02 -0.26,1.71 -0.55,5.06 -1.75,2.49 -1.3,1.04 0.01,1.5 2.02,-1.32 8.62,-7.37 9.07,-12.21 0.63,-6.72 -3.55,-10.01 -6.22,-14.27 -3.64,1.61 2.46,-1.33 -3.57,5.46 -1.27,1.43 0.47,0.58 -1.58,1.48z"/>
     <path class="fil1" d="M110.95 405.44l-1.06 0.24c-2.52,5.12 -13.19,14.14 -16.98,18.23 -1.24,1.35 -1.08,1.78 -2.67,3.25 -1.02,1.18 -1.77,1.45 -2.85,2.56 -0.85,0.87 -1.5,1.88 -2.6,3.08 -2.35,2.56 -3.61,3.49 -5.09,6.15 2.41,-1.52 6.17,-6.23 8.34,-8.55 3.32,-3.54 5.53,-6.45 8.88,-8.33 0.41,-5.22 12.23,-7.09 16.75,-2.16l0.82 -0.24 0.77 -1.01c0.08,-0.1 0.42,-0.51 0.58,-0.68l-6.46 -5.01c2.43,0.74 -2.38,0.47 0.85,-0.25 0.17,-0.04 -0.9,-0.48 1.21,-0.09 5.7,1.04 -2.28,1.94 4.13,1.01 0.01,-5.22 0.83,-3.95 -0.15,-6.74 -0.07,-0.21 -0.36,-0.9 -0.45,-1.14 -0.08,-0.22 -0.16,-0.43 -0.24,-0.65l-0.49 -1.37c-2.98,1.33 0.24,0.44 -3.28,1.7z"/>
     <path class="fil1" d="M22.92 443.85c0.92,4.04 3.71,4.78 7.07,5.82l2.79 1.04 -4.91 1.29 19.89 0c0.13,-5.47 2.79,-0.15 2.02,-7.36 -0.49,-4.6 -0.24,-2.14 -4.93,-3.23 -1.08,0.37 0.03,-0.23 -1.17,0.62 -5.87,4.18 -8.32,12.21 -20.77,1.81z"/>
     <path class="fil1" d="M382.9 401.96l0.52 2.45c2.18,-1.53 -1.07,-0.67 -0.23,9.63l0.67 5.35c0.5,1.79 0.84,-0.4 0.19,1.24l0 0.45c1.66,1.56 2.31,1.74 4.53,1.8 1.6,-2.61 1.31,0.84 0.17,-1.04 -0.67,-1.09 0.34,-0.36 -1.24,-0.59 2.62,-0.98 1.86,-1.7 3.32,-1.23 -2.45,-2.08 0.24,2.14 -0.91,-1.44 -1.36,-4.27 1,-14.14 -1.14,-18.87l2.75 0.03 1.28 -0.68 -5.53 0.64 -4.39 2.28z"/>
     <path class="fil1" d="M457.76 441.37l2.83 0c-1.78,2.09 -0.37,2.45 -3.54,4.47l1.08 1.82c4.84,-2.51 1.5,0.71 4.61,-3.99 2.49,1.55 5.31,0.47 8.29,0.74 3.63,0.33 1.27,-0.28 2.37,0.75l2.65 -3.21c-0.79,3.17 -0.47,2.93 1.2,4.5 0.59,-3.57 0.97,-5 -0.86,-7.63 -2.19,1.78 0.05,0.09 -2.6,-1.77 -0.08,2.3 -0.06,1.52 -3.38,1.54 -8.78,0.05 -5.51,-0.83 -7.48,-1.99 -0.12,-0.07 -0.3,-0.2 -0.43,-0.25 -1.97,-0.76 -2.54,0.52 -4.85,0.98l0.11 4.04z"/>
     <path class="fil1" d="M159.38 390.14c3.23,1.2 1.13,-0.46 10.09,-0.38 -0.13,4.8 -1.15,2.94 -1.43,5.99 2.9,-1.96 0.46,-2.42 4.37,-1.45 -0.02,3.9 0.12,1.42 -0.86,3.42 -2.24,4.54 -0.84,2.04 -0.97,5.61 0,0 -0.5,2.74 -0.55,3.44 4.53,-0.22 2.09,1.44 4.43,-1.29 -2.06,3.02 -2.56,1.93 -2.23,5.55 0.16,-0.12 0.4,-0.53 0.47,-0.39 0.07,0.13 8.84,-7.79 2.79,-16.92 -2.89,-4.36 -9.61,-8.22 -16.11,-3.58z"/>
     <path class="fil1" d="M460.63 431.92c-2.25,1.53 -3.37,2.34 -4.33,4.47 0.68,1.22 -0.59,1.42 1.13,0.86 -2.96,3.36 -4.78,3.52 0.33,4.13l-0.11 -4.04c2.31,-0.45 2.89,-1.73 4.85,-0.98 0.13,0.05 0.31,0.18 0.43,0.25 1.97,1.16 -1.29,2.04 7.48,1.99 3.31,-0.02 3.3,0.76 3.38,-1.54 2.65,1.86 0.41,3.54 2.6,1.77 -0.67,-6.09 -8.93,-10.19 -15.75,-6.9z"/>
     <path class="fil1" d="M240.55 418.89c2.02,-2.48 4.41,-3.87 5.55,-7.05 1.28,-3.58 0.49,-6.98 -0.31,-10.25 -1.98,-3.16 -1.72,-3.19 -4.7,-4.69 -1.86,9.24 -0.8,12.21 -1.45,16.48 -0.02,0.13 -0.07,0.33 -0.09,0.46l-0.19 1.57c-0.03,0.2 -0.02,0.39 -0.06,0.6l-1.15 3.42 2.4 -0.54z"/>
     <path class="fil1" d="M53.99 434.03c0.01,3.27 8.17,0.49 3.9,1.53l-1.02 0.19c-0.13,0.03 -0.45,0.05 -0.67,0.11 3.09,0.81 3.39,-0.53 2.95,7.46 -0.23,4.18 -1.08,4.55 -1.08,8.68l6.18 0c0.01,-4.7 0.15,-1.75 0.84,-3.81 0.8,-2.38 0.52,-2.91 0.62,-5.6 -1.69,-1.88 -2.26,-0.78 -2.19,-3.06 0.05,-1.45 0.6,-1.51 1.5,-2.36 -3.21,-2.73 -4.91,-3.89 -10.59,-3.47l-0.45 0.33z"/>
     <path class="fil1" d="M451.36 371.09c-1.85,0.41 0.58,-0.9 -2.06,0.79 -0.87,1.55 -0.33,0.44 -1.26,1.79 -1.16,1.71 -0.55,0.29 -1.53,2.55 3.89,-0.86 2.97,0.84 3.61,-3.72l0.4 1.25c0.49,3.91 -0.88,-1.44 -0.26,2.97 4.98,1.76 2.75,-0.81 8.3,-0.4 1.23,-2.39 -0.15,-1.13 1.43,-2.05l4.1 -1.9c-1,-2.3 -0.07,-0.62 -1.63,-2.06 -0.06,-0.05 -1.28,-0.77 -1.36,-0.84 0.67,-0.62 1.34,-0.61 1.82,-1.75 0.05,-0.12 0.11,-0.37 0.14,-0.49l0.11 -1.13c-1.53,-0.93 -3.15,0.14 -4.71,0.82 -5.54,2.42 -3.43,3.58 -7.11,4.15z"/>
     <path class="fil1" d="M62.91 230.31c1.28,-0.69 1.02,-0.29 1.73,-1.11 1.79,-3.76 4.52,-3.24 5.49,-9.24 0.72,-4.4 -0.58,-8.1 -3.27,-10.62 -0.08,0.23 -0.43,0.96 0.19,3.28l-4.05 -0.24c-0.91,0.62 -0.9,1.15 -0.02,0.05l1.12 4.14c0.09,0.31 0.21,0.6 0.29,0.9l-2.07 0c1.81,-1.56 -0.13,-0.69 2.32,0.47 -3.47,3.32 -1.44,1.62 -3.51,4.6 0.15,0.05 0.41,-0.07 0.47,0.13 0.14,0.45 -0.14,-1.16 2.1,1.32 -0.29,2.44 0.1,0.14 -0.82,1.12 -2.44,2.57 -0.62,-1.58 -0.52,0.5 0.01,0.09 0.46,1.3 0.49,1.47 0.17,1.16 0.2,1.37 0.07,3.23z"/>
     <path class="fil1" d="M64.7 354.44c0.1,-0.16 0.12,-0.51 0.18,-0.55 3.64,-2.35 -0.19,-0.56 1.51,0.52l-1.5 16.28c2.59,0.74 5.16,2.27 8.5,1.48l0.11 -0.09c-2.18,-0.42 -3.49,-1.09 -4.96,-1.8l1.77 -1.62c0.07,-0.68 1.45,0.02 -0.64,-0.62 1.39,-9.49 -0.31,-15.35 -0.52,-19.33 -0.01,-0.17 -0.04,-0.27 -0.11,-0.38 -2.66,0.33 -1.23,-0.11 -2.44,1.19 0.59,1.21 -0.01,0.3 -0.84,1.8 -0.61,1.11 -0.2,0.11 -0.7,1.45 -0,0.01 -0.33,1.57 -0.35,1.66z"/>
     <path class="fil1" d="M19.49 201.13c1.12,2.69 0.9,6.86 0.88,9.83 -0.07,8.32 1.37,5.29 0.66,7.74 -0.66,2.24 -1.4,1.54 -1.49,1.59 0.07,0.05 0.84,0.86 0.87,1.09 1.61,2.62 5.12,2.53 8.08,1.68l-1.15 0.04c-3.31,-0.4 -3.14,-0.66 -3.26,-4.1 -0.09,-2.41 0.05,-5.55 0.08,-8.04l0.4 -9.63c0.07,-1.82 1.65,-0.43 -0.71,-1.66 -3.15,-0.08 -3.93,1.01 -4.35,1.46z"/>
     <path class="fil1" d="M169.63 449.5c0.98,-1.35 14.04,-12.71 5.13,-22.46 -1.36,-1.49 -0.23,-0.52 -1.82,-1.45l-0.45 6.61c-0.43,2.94 -1.43,3.74 0.34,6.77 0.08,0.44 -0.79,0.37 -0.65,2.02 0.41,4.63 -0.82,1.92 -2.66,5.32 -1.24,2.29 -1.36,2.14 0.12,3.19z"/>
     <path class="fil1" d="M73.5 372.08c-0.84,-1.35 1.3,-0.84 -1.51,-1.2 2.38,-1.92 1.51,-8.17 1.39,-15.2 -0.08,-4.63 -0.49,-3.57 -1.03,-5.74l2.66 -1.61c-2.62,-0.45 -3.56,-0.81 -5.97,0.01 0.07,0.11 0.1,0.21 0.11,0.38 0.22,3.98 1.92,9.84 0.52,19.33 2.09,0.64 0.71,-0.06 0.64,0.62l-1.77 1.62c1.47,0.71 2.78,1.38 4.96,1.8z"/>
     <path class="fil1" d="M388.58 422.87c1.16,1.15 2.59,0.7 4.62,0.64l0.98 -0.62c-0.77,-1.06 -1.01,-0.61 -2.35,-1.72 2.49,-1.01 0.96,1.99 0.93,-10.43 -0.01,-2.49 0,-4.69 0.16,-7.16 0.16,-2.64 0.71,-1.73 -1.38,-3.85l-2.75 -0.03c2.14,4.73 -0.22,14.61 1.14,18.87 1.15,3.58 -1.54,-0.64 0.91,1.44 -1.46,-0.47 -0.7,0.25 -3.32,1.23 1.58,0.23 0.57,-0.51 1.24,0.59 1.14,1.87 1.43,-1.57 -0.17,1.04z"/>
     <path class="fil1" d="M57.12 392.83c0.9,-1.06 1.09,-1.34 1.92,-2.18 0.08,-0.08 1.06,-0.99 1.07,-1 0.92,-0.74 0.41,-0.39 1.11,-0.74 4.54,-7.37 2.85,-14.37 -3.07,-18.09l1.45 4.67c0.64,0.23 1.16,-0.68 2.7,3.21 -5.61,-1.18 -1.9,1.42 -5.85,0.52 1.92,3.96 1.63,7.24 2.04,9.69 -2.28,-0.99 -0.91,-0.27 -2.22,-1.39 -0.8,-0.69 -0.17,-0.19 -0.77,-1.1 1.3,3.51 0.1,2.21 0.65,3.7l0.96 2.72z"/>
     <path class="fil1" d="M27.34 223.09c0.17,-5.7 0.18,-7.43 0.13,-13.59 -0.04,-4.56 -0.46,-8.87 1.61,-9.87 -1.79,-0.84 -3.67,-1.13 -5.24,0.03 2.36,1.23 0.78,-0.16 0.71,1.66l-0.4 9.63c-0.03,2.49 -0.17,5.63 -0.08,8.04 0.12,3.44 -0.04,3.7 3.26,4.1z"/>
     <path class="fil1" d="M236.07 452.01l10.86 0 0.02 -2.89c3.54,-1.58 -0.31,-1.62 4.3,-1.45 -1.01,-1.08 -1.24,-0.43 -1.94,-2.28l0.18 -0.9c-4.11,1.15 -4.5,1.72 -9.27,1.17 -0.89,3.34 -4.11,0.56 -4.85,-0.87 -3.34,0.56 0.16,-0.28 0.74,2.04l0.64 -0.59c-0.18,0.24 -0.48,0.44 -0.65,0.63 -0.15,0.17 -0.42,0.39 -0.57,0.58l0.53 4.58z"/>
     <path class="fil1" d="M27.34 223.09l1.15 -0.04c2.08,-0.42 3.13,-1.1 4.86,-2.21l-3.46 0.12c0.1,-1.4 0.36,-2.29 0.46,-3.19 0.24,-2.17 0.2,0.74 0.04,-2 -0.62,-11.08 1.38,-8.77 -0.46,-14.43l1.53 -0.57c-0.06,-0.08 -0.82,-1.17 -1.16,-1.57l-1.23 0.43c-2.07,0.99 -1.65,5.31 -1.61,9.87 0.05,6.17 0.04,7.89 -0.13,13.59z"/>
     <path class="fil1" d="M26.79 300.36c0.29,-3.35 -0.89,-3.04 0.55,-5.06 0.4,-0.56 1.97,-2.01 3.36,-0.18 0.27,-5.49 0.26,-1.22 -0.86,-2.19 -2.8,-2.44 0.32,4.87 -1.56,-0.89 1.63,0.34 2.43,-1.69 3.26,-3.62l-1.79 -1.01c-5.16,-2.61 -2.2,-2.29 -5.86,-2.61l0.35 13.86c0.12,0.13 0.55,0.49 0.7,0.61 2.99,2.3 -2.79,-0.46 1.85,1.09z"/>
     <path class="fil1" d="M391.53 399.73c2.09,2.12 1.55,1.21 1.38,3.85 -0.15,2.47 -0.16,4.67 -0.16,7.16 0.03,12.42 1.55,9.41 -0.93,10.43 1.34,1.11 1.58,0.66 2.35,1.72l2.86 -1.26 -2.08 -0.7c0.93,-3.77 1.63,-15.19 0.03,-18.86l2.29 -0.75c-1.77,-1.9 -2,-1.87 -4.45,-2.26l-1.28 0.68z"/>
     <path class="fil1" d="M62.1 352.28c-1.13,2.81 -2.52,3.62 -2.47,7.8 0.05,3.85 1.29,5.99 2.67,8.68 1.2,-0.15 0.78,-0.21 1.92,0.4 0.3,-2.4 -0.18,-3.84 -0.21,-6.24 -0.05,-3.27 0.52,-6.07 -0.87,-7.76l1.57 -0.72c0.02,-0.09 0.35,-1.65 0.35,-1.66 0.49,-1.34 0.08,-0.35 0.7,-1.45 0.83,-1.5 1.43,-0.59 0.84,-1.8 -2.04,0.23 -0.27,-0.66 -2.53,0.8 -1.2,0.78 -1.01,0.81 -1.96,1.96z"/>
     <path class="fil1" d="M78.83 370.26c0.37,-1.01 0.23,-0.69 1.12,-1.39l-0.66 -0.94c-0.06,-0.11 -0.2,-0.31 -0.25,-0.44 -0.58,-1.34 -0.12,-2.68 -0.25,-4.86 2.39,2.27 1.04,1.33 0.37,-2.95 -0.43,-2.73 -0.19,-4.68 -0.81,-7.38 2.71,1.93 1.29,1.98 2.54,1.14 -1.02,-2.77 -1.95,-2.17 -3.42,-4.34 -0.13,0.2 -0.32,0.23 -0.38,0.6 -0.18,1.15 -1.19,-0.23 -1.07,6l-0.56 13.91c0.16,0.92 -1.97,-0.1 0.23,0.16 1.4,0.17 -0.34,-0.23 1.19,-0.01l1.96 0.5z"/>
     <path class="fil1" d="M73.5 372.08l-0.11 0.09 5.44 -1.91 -1.96 -0.5c-1.53,-0.22 0.21,0.18 -1.19,0.01 -2.2,-0.26 -0.07,0.76 -0.23,-0.16l0.56 -13.91c-0.12,-6.23 0.89,-4.85 1.07,-6 0.06,-0.36 0.25,-0.4 0.38,-0.6l-2.46 -0.78 -2.66 1.61c0.55,2.17 0.96,1.11 1.03,5.74 0.11,7.03 0.99,13.28 -1.39,15.2 2.81,0.36 0.68,-0.15 1.51,1.2z"/>
     <path class="fil1" d="M397.03 421.63c1.82,-1.35 3.24,-2.54 4.22,-4.93l-2.39 1.49c-0.42,-2.16 -0.67,-4.9 -0.64,-7.43l0.14 -3.43c0.01,-0.21 0.05,-1.18 0.11,-1.48 0.04,-0.24 0.45,-1.39 0.64,-1.77l2.13 1.29c-1.39,-2.5 -1.45,-3.48 -3.96,-4.06l-2.29 0.75c1.6,3.68 0.91,15.09 -0.03,18.86l2.08 0.7z"/>
     <path class="fil1" d="M34.08 219.33c3.87,-2.1 5.12,-10.88 1.52,-14.12 0.37,-1.24 -0.6,-1.22 -2.66,-1.94l0.08 13.99c0.08,1.16 -0.58,1.14 1.06,2.06z"/>
     <path class="fil1" d="M33.35 220.84l0.73 -1.51c-1.64,-0.93 -0.97,-0.91 -1.06,-2.06l-0.08 -13.99c2.06,0.72 3.03,0.7 2.66,1.94 -0.35,-1.33 -0.03,-1.15 -1.3,-2.56 -0.97,-1.08 -1.2,-1.17 -2.84,-1.87l-1.53 0.57c1.84,5.66 -0.16,3.35 0.46,14.43 0.15,2.74 0.2,-0.17 -0.04,2 -0.1,0.9 -0.36,1.79 -0.46,3.19l3.46 -0.12z"/>
     <path class="fil1" d="M380.1 415.84c0.65,2.65 2.27,4.05 3.95,4.79 0.64,-1.64 0.31,0.55 -0.19,-1.24l-0.67 -5.35c-0.84,-10.29 2.41,-11.16 0.23,-9.63l-0.52 -2.45c-2.9,3.78 -5.18,7.72 -2.8,13.87z"/>
     <path class="fil1" d="M175.96 452.01l11.26 0c1.63,-1.93 1.01,-0.97 1.18,-4.34 -0.2,-0.13 -0.88,-0.12 -1.03,-0.14l-0.82 -0.08c-0.05,-0.01 -0.24,-0.04 -0.28,-0.05l-4.06 -2.17 -6.26 6.79z"/>
     <path class="fil1" d="M79.95 368.87c1.22,-1.59 2.75,-3.6 3.15,-6.63 0.44,-3.35 0.06,-6.67 -2.21,-8.78 -1.25,0.84 0.18,0.79 -2.54,-1.14 0.62,2.7 0.38,4.65 0.81,7.38 0.67,4.28 2.02,5.22 -0.37,2.95 0.13,2.17 -0.32,3.52 0.25,4.86 0.05,0.12 0.19,0.33 0.25,0.44l0.66 0.94z"/>
     <path class="fil1" d="M14.24 209.51c-0.01,5.73 1.3,11.22 6.17,11.86 -0.03,-0.23 -0.8,-1.04 -0.87,-1.09 -1.43,-2.56 -1.22,-2.61 -1.45,-5.71 -0.24,-3.3 0.31,-6.81 -0.54,-9.92l-0.95 -0.21c-0.8,0.34 -0.26,-0.29 -1.05,1.08 -0.22,0.38 -0.49,1.14 -0.63,1.53 -0.16,0.44 -0.62,2.23 -0.67,2.47z"/>
     <path class="fil1" d="M401.26 416.7c2.04,-2.97 1.94,-8 -0.03,-11.33l-2.13 -1.29c-0.19,0.38 -0.59,1.53 -0.64,1.77 -0.05,0.3 -0.1,1.27 -0.11,1.48l-0.14 3.43c-0.03,2.52 0.22,5.27 0.64,7.43l2.39 -1.49z"/>
     <path class="fil1" d="M16.6 204.44l0.95 0.21c0.86,3.12 0.3,6.63 0.54,9.92 0.23,3.1 0.03,3.15 1.45,5.71 0.09,-0.05 0.83,0.65 1.49,-1.59 0.71,-2.45 -0.74,0.58 -0.66,-7.74 0.03,-2.97 0.24,-7.14 -0.88,-9.83l-2.89 3.31z"/>
     <path class="fil1" d="M64.7 354.44l-1.57 0.72c1.39,1.69 0.82,4.49 0.87,7.76 0.04,2.4 0.51,3.84 0.21,6.24l0.67 1.54 1.5 -16.28c-1.7,-1.08 2.14,-2.87 -1.51,-0.52 -0.06,0.04 -0.08,0.39 -0.18,0.55z"/>
    </g>
   </g>
  </g>
  <polygon class="fil2" points="-0,0 458.73,0 458.73,447.67 -0,447.67 "/>
  <path class="fil3" d="M199.37 398.93l0 -219.48 99.62 0c24.59,0 43.58,5.92 57.28,17.75 13.39,11.52 20.24,28.02 20.24,48.88 0,13.7 -3.11,25.53 -9.34,35.49 -5.91,9.65 -14.63,17.12 -26.15,22.41 -11.21,5.29 -24.91,8.09 -40.47,8.09l3.74 -6.85 12.76 0c9.03,0 16.81,2.18 23.97,7.16 6.85,4.67 12.76,11.83 17.12,20.86l32.69 65.69 -53.55 0 -33.93 -70.67c-2.49,-5.91 -6.54,-9.96 -11.83,-11.83 -4.98,-2.18 -11.21,-3.11 -18.06,-3.11l-25.53 0 0 85.61 -48.57 0zm48.57 -120.48l42.65 0c12.76,0 22.41,-2.8 28.95,-7.78 6.85,-5.29 9.96,-13.08 9.96,-23.04 0,-10.27 -3.11,-17.75 -9.96,-23.04 -6.54,-4.98 -16.19,-7.47 -28.95,-7.47l-42.65 0 0 61.33z"/>
  <g id="_105553225337856">
   <path class="fil4" d="M102.2 158.11l-4.78 0.12c-0.91,0 -1.33,-0.12 -2.21,-0.12 -0.42,-1.79 -0.12,-5.22 -0.12,-7.11 1.14,-0.26 5.31,-0.12 6.76,-0.12 0.46,0 0.47,0.64 0.47,1.05 0,2.2 -0.12,3.98 -0.12,6.18zm7.81 -14.57l-6.64 0c0,-0.67 -0.12,-0.81 -0.12,-1.52l0 -4.19c0,-0.71 0.12,-0.85 0.12,-1.51 0.67,0 0.81,-0.12 1.52,-0.12l4.66 0c0.4,0 0.45,0.09 0.82,0.12 0.21,0.9 0.21,5.52 0.04,6.57 -0.06,0.38 0.01,0.66 -0.39,0.66zm-22.96 -13.63c0,-0.75 0.07,-1.18 0.11,-1.75 0.15,-1.96 -1.19,-1.51 6.76,-1.51 0.65,0 0.42,0.78 0.48,1.38 0.14,1.41 0.1,2.86 0.1,4.33 0,0.71 -0.12,0.85 -0.12,1.51 -0.81,0 -1.14,0.12 -1.98,0.12 -1.56,0 -2.71,0.04 -4.22,-0.09 -0.85,-0.08 -1.04,0.25 -1.04,-0.71 -0.01,-1.24 -0.1,-2.04 -0.1,-3.28zm14.45 -11.54l6.06 0c0.4,0 0.45,0.09 0.82,0.12l0.12 5.71c0,0.49 -0,1.4 -0.47,1.4l-6.41 0c-0.82,0 -0.31,-1.8 -0.55,-3.53 -0.11,-0.8 0.03,-1.34 0.08,-1.96 0.05,-0.63 -0.23,-1.74 0.35,-1.74zm12.24 -12.59c0,-0.31 0.06,-0.32 0.12,-0.58l6.99 0 0 4.89c0,0.91 0.12,1.33 0.12,2.21 -0.66,0 -0.81,0.12 -1.51,0.12l-3.5 0c-0.91,0 -1.33,-0.12 -2.21,-0.12l0 -6.53zm-12.7 -1.63c0,-0.91 0.12,-1.37 0.12,-2.33l2.91 -0.12c1.59,0 2.74,0.12 4.31,0.12l0.12 5.01c0,0.84 -0.12,1.17 -0.12,1.98 -1.53,0.36 -5.32,0 -7.11,0 -0.12,-1.48 -0.23,-3.06 -0.23,-4.66zm-6.67 1.16l-7.2 0 0 -6.99c1.88,-0.44 5.33,-0.16 7.23,0 0.2,2.95 0.07,4 -0.03,6.99zm-17.45 -19.81l0.67 9.82c0.33,2.64 0.42,6.4 0.8,8.99l0.52 6.01c0.19,4.04 0.73,7.92 1.04,11.89 0.08,1.08 0.12,2.07 0.22,3.04l0.53 5.99c0.28,1.92 0.53,6.55 0.76,8.92 0.19,1.97 0.35,4.04 0.57,5.95l0.49 6.04c0.05,1.09 0.15,2.05 0.23,3.04 0.29,3.84 1.27,12.12 1.29,15.03l1.05 12c0.86,0 1.37,0.12 2.33,0.12 1.79,-0 6.02,0.16 7.23,-0.12 0.22,-0.83 -0.07,-1.18 -0.28,-2.51l-1.91 -14.75c-0.17,-1.54 -0.12,-1.49 1.03,-1.49l16.78 0c0,2.98 -0.19,2.88 -0.67,5.62l-2.13 13.49c0.78,0 1.06,0.11 1.74,0.12l5.71 -0c0.1,-0.45 0.19,-0.64 0.23,-1.17 0.08,-1.04 0.42,-2.5 0.6,-3.6l2.31 -14.71c0.18,-1.64 0.5,-3.18 0.74,-4.85l1.9 -12.2c0.14,-0.99 0.31,-1.49 0.47,-2.45l4.56 -29.35c0.32,-2.22 0.94,-5.25 1.18,-7.21 0.24,-2.02 0.25,-1.96 0.25,-3.94 0,-2.16 -2.07,-4.14 -3.63,-4.76 -2.5,-1.01 -5.4,-1.84 -7.75,-2.74 -0.55,-0.21 -0.97,-0.38 -1.52,-0.58 -1.05,-0.37 -2.11,-0.74 -3.09,-1.1l-12.5 -4.4c-1.07,-0.35 -2.05,-0.73 -3.08,-1.11l-9.38 -3.32c-1.1,-0.37 -2.02,-0.72 -3.07,-1.13 -1.79,-0.7 -3.82,-1.55 -5.35,-0.39 -0.42,0.32 -0.86,1.13 -0.86,1.82z"/>
   <path class="fil4" d="M62.34 170.7l-5.36 -0.12c-1.83,0.01 -1.4,0.83 -1.4,-5.59 0,-0.71 0.12,-0.85 0.12,-1.51l6.99 0c0,1.61 0.22,5.42 0.04,6.57 -0.06,0.38 0.01,0.66 -0.39,0.66zm-0.35 -11.54c-0.36,0.03 -0.41,0.12 -0.82,0.12l-5.24 0c-0.59,0 -0.52,-0.1 -1.05,-0.12 0,-1.04 -0.12,-1.62 -0.12,-2.68l0 -3.84c0,-0.36 0.11,-0.7 0.47,-0.7l5.24 0c0.71,0 0.85,0.12 1.51,0.12l0.24 3.5 -0.24 3.61zm-13.75 -18.06l6.41 0c0.27,0 0.35,0.08 0.35,0.35l0 6.76c-1.51,0 -6.07,0.15 -7.23,-0.12 0,-1.24 0,-2.49 0,-3.73 0,-0.8 -0.3,-3.26 0.47,-3.26zm15.03 -4.55l-6.29 0c-0.41,0 -0.47,-0.52 -0.47,-0.93l0 -5.24c0,-0.59 0.1,-0.52 0.12,-1.05 0.96,0 1.46,-0.12 2.45,-0.12l3.73 0c0.4,0 0.45,0.09 0.82,0.12 0,0.81 0.12,1.14 0.12,1.98 0,1.13 0.05,3.45 -0.07,4.47 -0.05,0.42 0.06,0.77 -0.39,0.77zm-18.29 -8.16l0.12 -3.03c1.15,-0.27 5.62,-0.12 7.11,-0.12l0 6.88c0,0.27 -0.08,0.35 -0.35,0.35l-6.76 0c0,-1.5 -0.12,-2.57 -0.12,-4.08zm2.68 54.77c2.11,0 3.82,0.12 5.94,0.12 2.05,0 14.99,0.1 16.35,-0.08 0.52,-0.07 1.07,-0.03 1.6,-0.03 1.7,0.01 1.4,0.51 1.4,-3.03l0.01 -6.06c-0.01,-0.71 -0.13,-1.13 -0.12,-1.98l-0.11 -10.14c0,-0.84 -0.12,-1.16 -0.12,-1.98 0.01,-1.15 0.12,-3.11 -0.03,-4.17l-0.43 -20.19c0,-1.44 -0.01,-2.81 -0.11,-4.08 -0.1,-1.18 -0.01,-2.85 -0,-4.07 0,-0.84 -0.12,-1.16 -0.12,-1.98 0.01,-3.45 -0.23,-6.97 -0.23,-10.14l-25.17 0c-1.89,0 -3.45,0.13 -5.24,0.11 -1.65,-0.01 -2.69,0.68 -3.42,2.05 -0.8,1.5 0.47,7.35 0.79,9.44l4.41 28.22c0.22,1.51 0.51,3.06 0.76,4.6l2.23 14.08c0.27,1.61 1.11,8.34 1.63,9.32z"/>
   <path class="fil4" d="M128.88 165.57l0 -5.59 7.23 0.12 0 6.18c0,0.4 -0.09,0.45 -0.12,0.82 -0.37,0.03 -0.42,0.12 -0.82,0.12l-5.83 0c-0.47,0 -0.47,-0.96 -0.47,-1.63zm3.61 -18.18c1.02,0 5.97,-0.08 6.76,0.12 0.51,0.13 0.31,0.12 0.39,0.77 0.25,2.04 -0,4.44 -0.16,6.33 -1.12,0.26 -5,0.12 -6.41,0.12 -1.16,0 -0.58,-1.25 -0.7,-3.5 -0.04,-0.76 -0.19,-0.98 -0.05,-1.91 0.11,-0.73 0.01,-1.26 0.17,-1.93zm-2.68 -9.09c0,-1.48 -0.09,-3.29 0.23,-4.66l6.99 0 0 7.23c-1.36,0 -4.65,0.23 -5.99,0.05 -1.02,-0.14 -1.23,0.54 -1.23,-2.62zm-11.77 44.52l16.08 0c0.4,0 0.38,-0.38 0.68,-1.18l4.55 -13.17c1.22,-3.68 10.85,-31.27 10.85,-32.5 0,-0.83 -0.43,-1.7 -0.78,-2.26 -0.8,-1.29 -2.42,-1.95 -3.86,-2.32 -0.78,-0.2 -1.72,-0.42 -2.49,-0.66 -0.42,-0.13 -0.72,-0.25 -1.15,-0.37l-3.72 -0.94c-3.08,-0.9 -6.76,-1.75 -9.67,-2.68 -0.29,-0.09 -0.83,-0.29 -1.17,-0.36 -0.51,-0.11 -0.5,0.07 -0.65,0.67 -0.22,0.92 -0.28,1.73 -0.45,2.7l-8.51 51.86c-0.04,0.31 -0.32,1.2 0.27,1.2z"/>
   <path class="fil4" d="M56.4 112.9c2.8,0 15.12,-0.13 16.93,0.08 1.62,0.19 0.77,-0.13 1.04,1.87 0.06,0.45 0.09,0.81 0.09,1.43l0.24 11.42c0.05,1.8 -0.18,4.23 0.01,5.93 0.19,1.67 -0.1,4.04 0.13,5.7 0.11,0.8 0.09,1.85 0.08,2.83 -0.01,0.98 0.12,1.7 0.12,2.79 -0,4.79 0.25,9.52 0.23,14.45 -0,1.06 0.12,1.69 0.12,2.8 -0,0.97 0,1.94 0,2.91 0,1.1 0.12,1.77 0.12,2.8l-0.01 4.32c0.02,0.6 0.12,0.72 0.13,1.39 0,1.19 -0.11,5.04 0.17,5.77 0.14,0.37 0.49,0.41 0.86,0.54l5.3 2.05c0.39,0.16 0.77,0.46 0.75,-0.15 -0.03,-0.8 -0.64,-5.09 -0.68,-6.69 -0.06,-2.4 -0.95,-10.44 -1.26,-13.42 -0.28,-2.68 -0.38,-5.67 -0.68,-8.06l-0.6 -5.34c-0.05,-0.46 0.01,-0.92 -0.02,-1.38 -0.03,-0.36 -0.12,-0.91 -0.18,-1.34 -0.34,-2.47 -0.39,-5.86 -0.7,-8.04 -0.24,-1.71 -0.42,-3.57 -0.52,-5.31 -0.17,-3.04 -0.71,-7.69 -1.03,-10.74 -0.1,-0.94 -0.11,-1.88 -0.22,-2.69l-0.73 -8.01c-0.07,-1.75 -0.39,-3.7 -0.56,-5.38 -0.1,-0.93 -0.14,-1.84 -0.23,-2.68 -0.11,-0.99 -0.06,-1.76 -0.2,-2.71l-0.51 -5.44c-0.1,-1.16 -0.63,-6.92 -0.98,-7.75 -1.15,-2.68 -4.15,-0.17 -5.48,0.84l-9.74 7.39c-1.01,0.78 -2.05,1.83 -2.6,3.11 -1.08,2.54 -0.61,1.57 -0.85,3.35 -0.22,1.59 1.44,10 1.47,11.37z"/>
   <path class="fil4" d="M26.57 132.24c0,1.18 0.25,2.92 0.49,3.94 0.27,1.18 0.66,2.32 0.9,3.53 0.89,4.37 2.08,8.26 2.93,12.57 0.14,0.72 0.27,1.09 0.47,1.74l5.58 23.2c0.55,2.12 -0.09,2.23 1.7,2.73 0.56,0.16 1.15,0.35 1.64,0.57l3.96 1.53c0.9,0.3 0.74,0.32 0.42,-2.07 -0.36,-2.68 -0.87,-5.1 -1.18,-7.68l-1.62 -11.67c-0.2,-1.37 -0.42,-2.55 -0.6,-3.83 -0.38,-2.66 -0.66,-5.25 -1.1,-7.87 -0.2,-1.21 -0.4,-2.51 -0.56,-3.87 -0.07,-0.65 -0.16,-1.26 -0.24,-1.97 -0.19,-1.57 -0.7,-3.93 -0.9,-5.74 -0.4,-3.64 -1.27,-8.16 -1.65,-11.63 -0.15,-1.36 -0.59,-4.33 -0.97,-5.67 -0.86,-3.03 -2.98,-0.09 -3.9,1.14 -1.39,1.86 -3.54,4.5 -4.44,6.51 -0.48,1.06 -0.93,3.02 -0.93,4.54z"/>
  </g>
 </g>
</svg>
