<?xml version="1.0" encoding="UTF-8"?>
<!DOCTYPE svg PUBLIC "-//W3C//DTD SVG 1.1//EN" "http://www.w3.org/Graphics/SVG/1.1/DTD/svg11.dtd">
<!-- Creator: CorelDRAW -->
<svg xmlns="http://www.w3.org/2000/svg" xml:space="preserve" width="1.58587in" height="1.58587in" version="1.1" style="shape-rendering:geometricPrecision; text-rendering:geometricPrecision; image-rendering:optimizeQuality; fill-rule:evenodd; clip-rule:evenodd"
viewBox="0 0 20.04 20.04"
 xmlns:xlink="http://www.w3.org/1999/xlink"
 xmlns:xodm="http://www.corel.com/coreldraw/odm/2003">
 <defs>
  <style type="text/css">
   <![CDATA[
    .fil1 {fill:none}
    .fil0 {fill:white}
   ]]>
  </style>
 </defs>
 <g id="Layer_x0020_1">
  <metadata id="CorelCorpID_0Corel-Layer"/>
  <g id="_105553226255616">
   <path class="fil0" d="M16.89 14.16c0.05,-0.12 0.03,-6.41 -0,-6.49 -0.05,-0.05 -6.82,-0.02 -7.46,-0.02l-5.61 0c-0.59,0 -1.3,-0.04 -1.87,0.01 -0.03,0.4 -0.01,2.13 -0.01,2.67 0,1.2 0.02,2.47 -0,3.67 -0,0.16 0.01,0.17 0.17,0.18 1.31,0.02 2.72,-0 4.04,-0l8.06 0c0.35,0 2.56,0.04 2.68,-0.02zm-6.12 -0.81l3.85 -0.01c0.04,-0.26 0,-1.68 0.01,-2.18 0,-0.18 0.01,-0.17 -0.17,-0.17l-3.69 0c-0.2,0 -0.17,-0.01 -0.17,0.19l-0 1.98c-0,0.19 -0.02,0.18 0.17,0.18zm-0 -5.25c0,0.3 -0.03,2.45 0.02,2.56l3.59 0.02c0.13,0 0.1,-0.05 0.1,-0.18l0 -2.41c0,-0.11 0.02,-0.15 -0.08,-0.16l-3.54 0c-0.09,0.02 -0.1,0.06 -0.1,0.16zm-7.87 1.23c-0.16,0.1 -0.22,-0.07 -0.2,0.34 0.01,0.18 0.09,0.07 0.17,0.14 0.09,0.08 0.04,0.42 0.04,0.57 0,0.34 0.04,1.69 -0.04,1.81 -0.23,0.01 -0.21,-0.04 -0.21,0.21 0,0.26 -0.04,0.22 0.21,0.23 0.08,0.12 0.03,0.3 0.05,0.54 0.44,0.03 0.94,0 1.38,0 0.93,0 1.85,0 2.78,0 0.23,0 1.27,0.03 1.39,-0.02l0.02 -0.11c0,-0.04 -0,-0.09 -0,-0.14l-0 -2.99c0,-0.35 0.02,-0.76 -0,-1.09 -0.44,-0.02 -0.94,-0 -1.39,-0 -0.36,0 -4.02,-0.02 -4.19,0.01l-0.01 0.49z"/>
   <path class="fil0" d="M3.16 9.2c0,0.64 -0.03,3.37 0.02,3.79 0.06,0.01 0.07,0.02 0.13,0.02l5 -0 0.02 -3.8c0,-0.11 0.01,-0.14 -0.11,-0.14l-4.91 0c-0.15,0 -0.15,-0.01 -0.15,0.14z"/>
   <path class="fil0" d="M2.15 14.47c0,0.13 -0.02,0.63 0.02,0.72 0.03,0.01 0.05,0.02 0.1,0.02l14.31 0c0.21,0 0.16,0.06 0.16,-0.72 0,-0.12 -0.04,-0.1 -0.16,-0.1l-14.31 0c-0.07,0 -0.12,0.01 -0.12,0.08z"/>
   <path class="fil0" d="M10.94 10.53c0.17,0.02 2.56,0 3,0 0.15,0 0.3,0.02 0.4,-0.04 0.03,-0.37 0.01,-1.9 0,-2.38 -0.15,-0.08 -0.49,-0.04 -0.69,-0.04l-2.6 -0c-0.17,0 -0.13,0.06 -0.12,0.23 0,0.39 -0.03,2.08 0.02,2.22zm1.08 -1.59c0.04,-0.19 0.03,-0.4 -0,-0.6l-0.71 0c-0.02,0.11 -0.09,0.56 0.04,0.59 0.05,0.02 0.57,0 0.67,0zm0.98 -0.05c0.05,-0.1 0.01,-0.42 -0,-0.54l-0.73 0c-0.01,0.08 -0.03,0.48 0.02,0.54 0.06,0.06 0.22,0.03 0.39,0.03l0.33 -0.03zm0.26 0.09l0.72 0c0.05,-0.13 0.05,-0.57 -0.01,-0.66l-0.71 -0c-0.09,0.1 -0.07,0.15 -0.07,0.32 0,0.21 -0.03,0.21 0.07,0.34z"/>
   <path class="fil0" d="M10.74 11.26l0 1.83c0,0.21 0.11,0.14 0.32,0.14 0.57,-0 3.07,0.02 3.38,-0 0.03,-0.06 0.04,-0.04 0.04,-0.14l0 -1.83c0,-0.09 -0.02,-0.1 -0.06,-0.15l-3.65 0c-0.03,0.05 -0.04,0.06 -0.04,0.15zm1.56 0.16c0,0.23 -0.01,0.17 0.62,0.17 0.15,0 0.16,0.01 0.16,-0.17 0,-0.11 -0.04,-0.1 -0.16,-0.1l-0.47 0c-0.12,0 -0.16,-0.02 -0.16,0.1z"/>
   <path class="fil0" d="M4.54 7.61c0.22,0 0.19,-0.08 0.19,-0.41 -0,-0.16 0.01,-0.13 0.03,-0.15 0.06,-0.05 1.7,-0.02 2.03,-0.02 0.05,-0 0.11,-0 0.15,0 0.08,0.01 0.04,0.01 0.11,0.04 0.01,0.29 -0.04,0.37 0.08,0.54l0.12 -0c0.11,-0.82 -0.19,-0.48 0.64,-0.6 0.02,-1.13 0.1,-0.99 -0.45,-0.99l-3.38 0c-0.03,0.17 -0.03,0.67 -0.03,0.9 0,0.07 -0.01,0.08 0.03,0.11 0.13,0.08 0.4,-0.09 0.42,0.1 0.02,0.18 -0.03,0.33 0.04,0.49z"/>
   <path class="fil0" d="M14.89 7.03c0.32,0 1.89,0.03 2.07,-0.03l-0 -2.15c-0.13,-0.01 -0.4,-0.01 -0.5,0.02l-0.22 0.06c-0.11,0.03 0.01,0.03 -0.21,0.08l-0.49 0.34c-0.14,0.15 -0.15,0.12 -0.37,0.39l-0.22 0.42c-0.04,0.1 -0.05,0.06 -0.07,0.2 -0.02,0.12 -0.05,0.11 -0.07,0.21 -0.01,0.07 -0.02,0.17 -0.02,0.26 -0,0.13 -0.03,0.19 0.1,0.19z"/>
   <path class="fil0" d="M17.13 4.86c-0.03,0.42 -0.01,1.52 -0.01,2.01 0,0.07 0.01,0.1 0.04,0.15 0.11,0 0.42,0.03 0.48,-0.03 0,-0 0.01,-0.01 0.01,-0.01l0.01 -0.02c0,-0 0,-0.01 0.01,-0.01 0,-0.01 0.02,-0.07 0.02,-0.07 0.02,-0.12 0.01,-0.2 0.04,-0.32 0.05,-0.2 0.08,-0.37 0.12,-0.58 0.06,-0.31 0.04,-0.12 0.08,-0.26 0.03,-0.11 0,-0.2 0.04,-0.31 0.04,-0.12 0.04,-0.16 0.05,-0.3 0.02,-0.16 0.1,-0.06 0.06,-0.26 -0.14,-0 -0.91,-0.02 -0.97,0.02z"/>
   <path class="fil0" d="M1.94 6.84c0.03,0.01 0.01,0.01 0.06,0.01l1.94 -0.05 -0.01 -0.55c-0.03,-0.08 -1.8,-0.04 -1.99,-0.03l-0 0.61z"/>
   <path class="fil0" d="M8 6.23c0,0.87 -0.06,0.81 0.17,0.81l0.64 0c0.11,0 0.16,0.01 0.16,-0.11 -0.01,-0.14 -0.13,-0.41 -0.27,-0.55 -0.14,-0.13 -0.34,-0.25 -0.55,-0.27 -0.12,-0.01 -0.15,0.01 -0.15,0.12z"/>
   <path class="fil0" d="M14.79 7.3l0 0.2c0.21,0.02 1.91,0.02 2.16,-0 0,-0.24 0.03,-0.32 -0.14,-0.32l-1.92 0c-0.11,0 -0.1,0.02 -0.1,0.12z"/>
   <path class="fil0" d="M8.01 7.22c0,0.2 -0.01,0.16 0.02,0.33l0.91 -0c0.03,-0.18 0.02,-0.13 0.02,-0.33 0,-0.13 -0.04,-0.1 -0.17,-0.1l-0.62 0c-0.13,0 -0.16,-0.03 -0.16,0.1z"/>
  </g>
  <rect class="fil1" x="-0" y="-0" width="20.04" height="20.04"/>
 </g>
</svg>
