<?xml version="1.0" encoding="UTF-8"?>
<!DOCTYPE svg PUBLIC "-//W3C//DTD SVG 1.1//EN" "http://www.w3.org/Graphics/SVG/1.1/DTD/svg11.dtd">
<!-- Creator: CorelDRAW -->
<svg xmlns="http://www.w3.org/2000/svg" xml:space="preserve" width="1.58587in" height="1.58587in" version="1.1" style="shape-rendering:geometricPrecision; text-rendering:geometricPrecision; image-rendering:optimizeQuality; fill-rule:evenodd; clip-rule:evenodd"
viewBox="0 0 25.37 25.37"
 xmlns:xlink="http://www.w3.org/1999/xlink"
 xmlns:xodm="http://www.corel.com/coreldraw/odm/2003">
 <defs>
  <style type="text/css">
   <![CDATA[
    .fil1 {fill:none}
    .fil0 {fill:white}
   ]]>
  </style>
 </defs>
 <g id="Layer_x0020_1">
  <metadata id="CorelCorpID_0Corel-Layer"/>
  <g id="_105553226694176">
   <path class="fil0" d="M3.42 15.61c-0.21,-3.95 4.97,-3.56 4.59,-0.01l9.12 -0.01c-0.19,-3.93 4.93,-3.53 4.6,-0.02l1.54 0.02c1.31,-4.43 -2.78,-3.85 -4.48,-4.39 -0.87,-0.27 -2.2,-2.3 -6.8,-2.71 -1.44,-0.13 -2.81,-0.06 -4.08,0.43 -1.28,0.49 -1.89,1.34 -3.01,1.73 -1.94,0.67 -3.24,0.06 -3.02,4.01 0.06,1.03 0.58,0.94 1.55,0.94zm3.17 -4.55l4.86 0.03 -0.2 -1.81c-1.69,-0.28 -4.19,0.75 -4.66,1.77zm5.78 0.09l4.74 0.17c-0.06,-0.31 0.2,-0.19 -0.82,-0.84 -0.41,-0.26 -0.74,-0.42 -1.2,-0.59 -0.82,-0.32 -1.99,-0.66 -2.96,-0.61l0.24 1.87z"/>
   <path class="fil0" d="M18.79 13.49c-0.58,0.24 -0.69,0.24 -0.94,0.78 -0.77,1.62 0.75,3.08 2.25,2.51 2.15,-0.82 0.9,-4.2 -1.3,-3.29z"/>
   <path class="fil0" d="M5.08 13.49c-2.28,0.93 -0.88,4.11 1.33,3.31 1.93,-0.7 0.98,-4.25 -1.33,-3.31z"/>
  </g>
  <rect class="fil1" x="-0" y="-0" width="25.37" height="25.37"/>
 </g>
</svg>
