<?xml version="1.0" encoding="UTF-8"?>
<!DOCTYPE svg PUBLIC "-//W3C//DTD SVG 1.1//EN" "http://www.w3.org/Graphics/SVG/1.1/DTD/svg11.dtd">
<!-- Creator: CorelDRAW -->
<svg xmlns="http://www.w3.org/2000/svg" xml:space="preserve" width="1.58587in" height="1.58587in" version="1.1" style="shape-rendering:geometricPrecision; text-rendering:geometricPrecision; image-rendering:optimizeQuality; fill-rule:evenodd; clip-rule:evenodd"
viewBox="0 0 21.46 21.46"
 xmlns:xlink="http://www.w3.org/1999/xlink"
 xmlns:xodm="http://www.corel.com/coreldraw/odm/2003">
 <defs>
  <style type="text/css">
   <![CDATA[
    .fil1 {fill:none}
    .fil0 {fill:white}
   ]]>
  </style>
 </defs>
 <g id="Layer_x0020_1">
  <metadata id="CorelCorpID_0Corel-Layer"/>
  <g id="_105553226043520">
   <path class="fil0" d="M6.12 1.32c-0.47,0.06 -0.85,0.45 -0.89,0.94 -0.04,0.56 -0,1.26 -0,1.84l0 13.73c0,0.25 -0.02,0.68 0.01,0.9 0.07,0.46 0.46,0.84 0.95,0.87 0.58,0.03 1.25,0 1.84,0 0.21,0 7.08,0.02 7.31,-0.01 0.47,-0.06 0.85,-0.44 0.88,-0.93 0.04,-0.56 0,-1.26 0,-1.84l0 -13.73c0,-0.26 0.02,-0.67 -0.01,-0.9 -0.07,-0.46 -0.45,-0.85 -0.95,-0.87 -0.59,-0.03 -1.25,-0 -1.84,-0 -0.21,0 -7.08,-0.02 -7.31,0.01zm-0.58 6.4l10.4 0 -0.02 -0.49 -10.38 -0 -0 0.49zm0.45 -4.04c-0.33,0.09 -0.27,0.49 -0.27,0.83 0,0.3 -0.02,2.05 0.01,2.19 0.03,0.14 0.12,0.25 0.25,0.29 0.1,0.03 0.45,0.03 0.55,-0 0.33,-0.1 0.27,-0.46 0.27,-0.83 0,-0.31 0.02,-2.04 -0.01,-2.2 -0.03,-0.15 -0.13,-0.24 -0.26,-0.28 -0.11,-0.03 -0.44,-0.03 -0.54,-0zm0.01 4.76c-0.38,0.11 -0.28,0.6 -0.28,1.01l-0 2.59c-0,0.23 0.06,0.37 0.21,0.44 0.1,0.05 0.48,0.05 0.59,0.02 0.38,-0.11 0.28,-0.61 0.28,-1.01l0 -2.59c0,-0.23 -0.07,-0.36 -0.22,-0.44 -0.11,-0.06 -0.46,-0.06 -0.58,-0.02zm-0.47 9.67l10.38 -0 0 -0.49 -10.38 0 -0 0.49z"/>
   <path class="fil0" d="M6.05 8.64c-0.17,0.07 -0.14,0.17 -0.14,0.38 0,0.99 -0.02,2.12 -0,3.08 0,0.19 0.1,0.29 0.26,0.24 0.15,-0.05 0.12,-0.21 0.12,-0.38l0 -2.57c0,-0.2 0.08,-0.88 -0.25,-0.74z"/>
   <path class="fil0" d="M6.02 3.88c-0.18,0.11 -0.11,0.49 -0.11,0.72l0 1.67c0,0.12 -0.07,0.69 0.29,0.53 0.16,-0.08 0.1,-0.51 0.1,-0.72 0,-0.23 0.01,-2 -0.01,-2.09 -0.02,-0.1 -0.15,-0.18 -0.26,-0.12z"/>
   <path class="fil0" d="M15.03 19.75l-1.85 0c-0,0.27 -0.05,0.4 0.25,0.4l1.32 -0c0.34,0 0.29,-0.08 0.28,-0.4z"/>
   <path class="fil0" d="M8.28 19.75l-1.84 0c-0,0.47 -0.11,0.4 0.92,0.4 0.22,0 0.43,-0 0.65,0 0.33,0 0.28,-0.09 0.27,-0.4z"/>
  </g>
  <rect class="fil1" x="-0" y="-0" width="21.46" height="21.46"/>
 </g>
</svg>
