<?xml version="1.0" encoding="UTF-8"?>
<!DOCTYPE svg PUBLIC "-//W3C//DTD SVG 1.1//EN" "http://www.w3.org/Graphics/SVG/1.1/DTD/svg11.dtd">
<!-- Creator: CorelDRAW -->
<svg xmlns="http://www.w3.org/2000/svg" xml:space="preserve" width="1.58587in" height="1.58587in" version="1.1" style="shape-rendering:geometricPrecision; text-rendering:geometricPrecision; image-rendering:optimizeQuality; fill-rule:evenodd; clip-rule:evenodd"
viewBox="0 0 21.09 21.09"
 xmlns:xlink="http://www.w3.org/1999/xlink"
 xmlns:xodm="http://www.corel.com/coreldraw/odm/2003">
 <defs>
  <style type="text/css">
   <![CDATA[
    .fil1 {fill:none}
    .fil0 {fill:white}
   ]]>
  </style>
 </defs>
 <g id="Layer_x0020_1">
  <metadata id="CorelCorpID_0Corel-Layer"/>
  <g id="_105553226427712">
   <path class="fil0" d="M3.89 5.97l0 7.86 13.31 0c0.01,-0.11 0,-7.11 0,-7.86 0,-0.16 -0.18,-0.4 -0.46,-0.4l-12.4 0c-0.26,0 -0.45,0.24 -0.45,0.4zm0.7 7.32l11.92 0c0.17,0 0.16,-0.18 0.16,-0.26l0 -6.73c0,-0.16 -0.07,-0.2 -0.23,-0.19 -1.95,0.01 -3.93,0 -5.89,0l-5.88 -0c-0.3,-0 -0.24,0.14 -0.24,0.61l0 6.31c-0,0.07 -0.01,0.13 0.02,0.19 0.02,0.04 0.08,0.08 0.14,0.08z"/>
   <polygon class="fil0" points="16.33,12.97 16.33,6.44 4.76,6.44 4.75,12.96 "/>
   <path class="fil0" d="M18.1 14.16l-5.69 0c-0.03,0.08 -0.05,0.18 -0.07,0.26 -0.03,0.11 -0.09,0.44 -0.16,0.51 -0.07,0.07 -0.17,0.05 -0.29,0.05l-2.68 0c-0.39,0 -0.32,0.01 -0.46,-0.55 -0.02,-0.08 -0.04,-0.19 -0.07,-0.27l-5.69 -0c-0.02,0.09 -0.01,0.46 0,0.54 0.07,0.42 0.39,0.75 0.86,0.81 0.11,0.01 2.07,0 2.23,0 3.53,0 7.06,0 10.59,0 0.16,0 0.41,0.01 0.56,-0 0.46,-0.05 0.79,-0.39 0.87,-0.8 0.01,-0.08 0.02,-0.46 0.01,-0.55z"/>
   <polygon class="fil0" points="9.14,14.65 11.95,14.65 12.07,14.16 9.02,14.16 "/>
   <path class="fil0" d="M16.33 12.97c0.03,-0.04 0.01,-0.76 0.01,-0.8 0,-0.63 0.01,-5.67 -0.01,-5.73 -0.12,-0.02 -9.97,0.01 -11.49,-0 -0.03,-0 -0.06,-0 -0.09,0.01l11.58 -0 0 6.53z"/>
  </g>
  <rect class="fil1" x="-0" y="-0" width="21.09" height="21.09"/>
 </g>
</svg>
