<?xml version="1.0" encoding="UTF-8"?>
<!DOCTYPE svg PUBLIC "-//W3C//DTD SVG 1.1//EN" "http://www.w3.org/Graphics/SVG/1.1/DTD/svg11.dtd">
<!-- Creator: CorelDRAW 2019 (64-Bit) -->
<svg xmlns="http://www.w3.org/2000/svg" xml:space="preserve" width="2.69435in" height="2.69526in" version="1.1" style="shape-rendering:geometricPrecision; text-rendering:geometricPrecision; image-rendering:optimizeQuality; fill-rule:evenodd; clip-rule:evenodd"
viewBox="0 0 2694.35 2695.26"
 xmlns:xlink="http://www.w3.org/1999/xlink"
 xmlns:xodm="http://www.corel.com/coreldraw/odm/2003">
 <defs>
  <style type="text/css">
   <![CDATA[
    .fil0 {fill:black}
    .fil1 {fill:#F2B92E}
   ]]>
  </style>
 </defs>
 <g id="Layer_x0020_1">
  <metadata id="CorelCorpID_0Corel-Layer"/>
  <g id="_2580897794272">
   <path class="fil0" d="M1269.31 3.54c-123,12.05 -166.75,14.68 -288.38,48.61 -87.81,24.5 -168.7,57.15 -241.94,94.47 -160.93,82.01 -278.92,179.94 -383.25,289.71 -45.86,48.25 -108.57,133.04 -145.28,191.14 -141.56,224.02 -229.1,518.31 -207.08,799.29 15.43,196.97 63.87,378.95 143.47,529.1 35.86,67.65 79.29,144.75 129.22,207.13 63.2,78.95 85.23,105.82 160.27,176.07 111.06,103.99 245.86,191.17 412.99,259.7 356.08,146.04 760.13,123.63 1106.48,-49.02 66.07,-32.94 100.39,-56.81 157.68,-94.04l95.19 -71.73c15.43,-13.79 30.51,-25.85 45.37,-39.43 153.67,-140.34 264.39,-303 344.29,-498.48 177.7,-434.76 103.44,-945.94 -178.69,-1313.3 -37.42,-48.72 -73.59,-92.36 -116.47,-135.27 -191.05,-191.22 -450.65,-330.85 -717.87,-375.77 -95.04,-15.98 -215.97,-27.99 -315.98,-18.19z"/>
   <path class="fil1" d="M744.05 1730.19l300.56 299.69c3.74,3.86 290.28,292.59 302.81,301.6 10.8,-4.46 64.29,-61.53 76.85,-73.95 26.05,-25.77 49.86,-50.63 76.01,-76.03 99.09,-96.26 202.19,-203.13 301.46,-301.67 16.07,-15.95 147.76,-146.19 150.45,-152.74 -18.01,-20.38 -35.67,-35.97 -54.11,-54.67 -16.86,-17.1 -153.74,-156.61 -166.85,-165.6l-380.88 379.84c-10.68,-3.75 -39.64,-36.24 -49.33,-45.88l-285.18 -285.53c-11,-10.9 -39.21,-41.79 -49.74,-48 -10.83,7.58 -19.13,17.82 -28.3,27.04l-180 178.91c-5.97,5.62 -10.7,8.57 -13.75,17z"/>
   <path class="fil1" d="M744.22 966.28c4.11,11.49 69.97,71.87 81.54,83.71l140.35 139.44c10.28,-6.21 303.96,-301.44 332.59,-331.04 14.26,-14.75 33.72,-35.88 48.73,-48.2 11.27,4.3 82.04,78.34 96.2,92.96l287.6 286.4 165.82 -163.96c17.38,-17.39 39.83,-36.86 55.17,-56.16 -2.7,-6.85 -63.83,-65.83 -73.3,-75.46l-377.34 -377.78c-51,-50.94 -101.85,-100.41 -151.56,-151.6 -10.05,3.74 -64.92,61.73 -76.13,72.72l-301.93 301.23c-12.57,12.56 -25.62,24.82 -37.04,37.73 -13.65,15.43 -25.79,24.37 -38.56,38.7l-76.31 75.72c-25.3,24.71 -50.11,52.91 -75.85,75.57z"/>
   <path class="fil1" d="M1123.43 1348.26c7.67,9.5 18.03,18.55 26.92,27.61l197.07 196.44c8.65,-3.65 143.81,-141.41 169.46,-166.75l55.69 -57.3c-5.99,-10.95 -218.14,-221.63 -225.15,-224.32l-168.83 167.65c-9.7,9.71 -18.02,17.36 -27.46,27.35 -7.91,8.38 -23.21,20.95 -27.71,29.32z"/>
   <path class="fil1" d="M364.64 1348.26c6.94,11.96 42.21,43.92 54.43,56.08 19.3,19.22 36.87,36.65 56.09,56.03 13.8,13.91 102.15,105.87 112.13,108.85 16.58,-13.07 215.44,-212.92 220.05,-220.96 -7.17,-12.63 -201.16,-202.47 -219.46,-221.6 -12.05,4.26 -146.85,143.47 -167.59,164.27 -11.93,11.96 -49.61,46.06 -55.65,57.33z"/>
   <path class="fil1" d="M1888.41 1347.99l221.28 222.05 41.96 -40.57c2.7,-2.74 3.24,-3.53 6.16,-6.34l13.75 -13.7c3.26,-3.25 4.23,-3.96 7.54,-7.37 5.16,-5.33 8.48,-8.57 13.59,-13.76 9.92,-10.06 18.7,-18.96 28.69,-28.72 4.26,-4.16 104.96,-102.13 109.87,-111.31 -5.37,-9.32 -18.53,-19.08 -26.62,-27.64l-179.22 -179.57c-5.02,-4.85 -10.19,-10.81 -15.35,-14.04l-221.65 220.98z"/>
  </g>
 </g>
</svg>
