<?xml version="1.0" encoding="UTF-8"?>
<!DOCTYPE svg PUBLIC "-//W3C//DTD SVG 1.1//EN" "http://www.w3.org/Graphics/SVG/1.1/DTD/svg11.dtd">
<!-- Creator: CorelDRAW 2019 (64-Bit) -->
<svg xmlns="http://www.w3.org/2000/svg" xml:space="preserve" width="4.26299in" height="6.5568in" version="1.1" style="shape-rendering:geometricPrecision; text-rendering:geometricPrecision; image-rendering:optimizeQuality; fill-rule:evenodd; clip-rule:evenodd"
viewBox="0 0 4262.99 6556.8"
 xmlns:xlink="http://www.w3.org/1999/xlink"
 xmlns:xodm="http://www.corel.com/coreldraw/odm/2003">
 <defs>
  <style type="text/css">
   <![CDATA[
    .fil14 {fill:none}
    .fil0 {fill:#030303}
    .fil12 {fill:#363636}
    .fil13 {fill:#424242}
    .fil10 {fill:url(#id0)}
    .fil6 {fill:url(#id1)}
    .fil1 {fill:url(#id2)}
    .fil2 {fill:url(#id3)}
    .fil11 {fill:url(#id4)}
    .fil5 {fill:url(#id5)}
    .fil4 {fill:url(#id6)}
    .fil15 {fill:url(#id7)}
    .fil8 {fill:url(#id8)}
    .fil3 {fill:url(#id9)}
    .fil9 {fill:url(#id10)}
    .fil16 {fill:url(#id11)}
    .fil7 {fill:url(#id12)}
   ]]>
  </style>
  <linearGradient id="id0" gradientUnits="userSpaceOnUse" x1="1387.06" y1="3157.86" x2="4737.14" y2="4417.42">
   <stop offset="0" style="stop-opacity:1; stop-color:#CCCCCC"/>
   <stop offset="1" style="stop-opacity:1; stop-color:#FEFEFE"/>
  </linearGradient>
  <linearGradient id="id1" gradientUnits="userSpaceOnUse" xlink:href="#id0" x1="1342.31" y1="6072.51" x2="2229.48" y2="6481.39">
  </linearGradient>
  <linearGradient id="id2" gradientUnits="userSpaceOnUse" xlink:href="#id0" x1="280.39" y1="1533.22" x2="904.65" y2="1637.31">
  </linearGradient>
  <linearGradient id="id3" gradientUnits="userSpaceOnUse" xlink:href="#id0" x1="-120.01" y1="2539.03" x2="579.45" y2="2662.82">
  </linearGradient>
  <linearGradient id="id4" gradientUnits="userSpaceOnUse" xlink:href="#id0" x1="1033.3" y1="3931.72" x2="3561.8" y2="4923.55">
  </linearGradient>
  <linearGradient id="id5" gradientUnits="userSpaceOnUse" xlink:href="#id0" x1="705.66" y1="5436.24" x2="2165.54" y2="6086.5">
  </linearGradient>
  <linearGradient id="id6" gradientUnits="userSpaceOnUse" xlink:href="#id0" x1="-1263.82" y1="3355.44" x2="2428.4" y2="4005.29">
  </linearGradient>
  <linearGradient id="id7" gradientUnits="userSpaceOnUse" xlink:href="#id0" x1="738.5" y1="1195.68" x2="3563.2" y2="2418.67">
  </linearGradient>
  <linearGradient id="id8" gradientUnits="userSpaceOnUse" xlink:href="#id0" x1="2711.43" y1="5118.03" x2="3634.87" y2="5689.93">
  </linearGradient>
  <linearGradient id="id9" gradientUnits="userSpaceOnUse" xlink:href="#id0" x1="-449.36" y1="2417.73" x2="857.67" y2="2734.83">
  </linearGradient>
  <linearGradient id="id10" gradientUnits="userSpaceOnUse" xlink:href="#id0" x1="861.03" y1="827.13" x2="1628.22" y2="973.22">
  </linearGradient>
  <linearGradient id="id11" gradientUnits="userSpaceOnUse" xlink:href="#id0" x1="-4698.84" y1="1668.07" x2="4834.61" y2="4019.04">
  </linearGradient>
  <linearGradient id="id12" gradientUnits="userSpaceOnUse" xlink:href="#id0" x1="2128.04" y1="5848.71" x2="2909.51" y2="6362">
  </linearGradient>
 </defs>
 <g id="Layer_x0020_1">
  <metadata id="CorelCorpID_0Corel-Layer"/>
  <g id="_2580239297696">
   <polygon class="fil0" points="543.02,1108.27 388.2,1723.89 522.04,2046.68 693.43,1470.24 "/>
   <polygon class="fil1" points="543.02,1108.27 388.2,1723.89 522.04,2046.68 693.43,1470.24 "/>
   <polygon class="fil2" points="107.61,2095.7 -0,2605.21 1.02,2607.8 3.04,2612.9 5.99,2620.34 9.8,2629.94 14.41,2641.55 19.76,2654.98 25.8,2670.08 32.44,2686.67 39.63,2704.57 47.31,2723.62 55.41,2743.67 63.86,2764.51 72.61,2786 81.58,2807.95 90.73,2830.22 99.98,2852.61 109.26,2874.96 118.51,2897.1 127.68,2918.87 136.69,2940.07 145.49,2960.56 154.01,2980.17 162.17,2998.71 169.94,3016.02 177.22,3031.92 183.97,3046.25 190.12,3058.84 195.59,3069.51 200.35,3078.1 204.31,3084.44 207.4,3088.34 209.58,3089.65 343.18,2639.36 340.74,2637.89 337.26,2633.5 332.81,2626.39 327.47,2616.75 321.31,2604.77 314.4,2590.64 306.81,2574.56 298.62,2556.7 289.91,2537.28 280.72,2516.47 271.15,2494.48 261.26,2471.48 251.13,2447.67 240.82,2423.25 230.42,2398.4 219.98,2373.31 209.59,2348.19 199.31,2323.2 189.22,2298.56 179.39,2274.45 169.89,2251.06 160.78,2228.57 152.16,2207.19 144.07,2187.1 136.61,2168.49 129.83,2151.55 123.81,2136.47 118.62,2123.46 114.33,2112.67 111.02,2104.33 108.75,2098.61 "/>
   <polygon class="fil3" points="343.18,2639.36 209.58,3089.65 214.5,3086.43 220.68,3081.62 228.05,3075.32 236.54,3067.63 246.05,3058.65 256.51,3048.46 267.84,3037.18 279.96,3024.89 292.78,3011.69 306.22,2997.69 320.22,2982.97 334.67,2967.63 349.51,2951.78 364.65,2935.5 380.01,2918.91 395.51,2902.07 411.07,2885.11 426.62,2868.11 442.06,2851.17 457.33,2834.39 472.32,2817.87 486.99,2801.69 501.22,2785.96 514.97,2770.77 528.12,2756.22 540.62,2742.41 552.37,2729.43 563.31,2717.37 573.34,2706.33 582.39,2696.42 590.39,2687.72 597.24,2680.33 778.24,2180.75 770.55,2189.03 761.59,2198.78 751.43,2209.89 740.17,2222.25 727.9,2235.76 714.71,2250.3 700.69,2265.77 685.93,2282.07 670.51,2299.09 654.54,2316.71 638.08,2334.83 621.25,2353.34 604.12,2372.15 586.79,2391.13 569.35,2410.17 551.88,2429.18 534.48,2448.03 517.24,2466.63 500.25,2484.87 483.6,2502.63 467.37,2519.82 451.67,2536.31 436.58,2552 422.18,2566.79 408.59,2580.57 395.87,2593.21 384.13,2604.62 373.44,2614.69 363.91,2623.31 355.65,2630.37 348.7,2635.75 "/>
   <polygon class="fil0" points="778.24,2180.75 597.24,2680.33 1826.63,5626.76 2161.32,5489.02 "/>
   <polygon class="fil4" points="778.24,2180.75 597.24,2680.33 1826.63,5626.76 2161.32,5489.02 "/>
   <polygon class="fil5" points="2161.32,5489.02 1826.63,5626.76 1821.7,5631.98 1815.09,5638.93 1806.94,5647.49 1797.36,5657.53 1786.47,5668.94 1774.39,5681.61 1761.25,5695.41 1747.17,5710.22 1732.26,5725.94 1716.65,5742.43 1700.46,5759.59 1683.81,5777.28 1666.82,5795.41 1649.62,5813.84 1632.32,5832.46 1615.06,5851.15 1597.94,5869.79 1581.1,5888.27 1564.65,5906.45 1548.72,5924.23 1533.43,5941.49 1518.9,5958.11 1505.26,5973.96 1492.62,5988.93 1481.11,6002.89 1470.85,6015.74 1461.97,6027.35 1454.58,6037.6 1448.82,6046.37 1444.8,6053.55 1442.64,6059 1442.46,6062.62 1442.81,6063.89 1443.03,6065.08 1443.15,6066.19 1443.19,6067.22 1443.2,6068.17 1443.21,6069.04 1443.25,6069.84 1443.36,6070.58 1444.67,6075.64 1446.91,6082.73 1450,6091.72 1453.91,6102.47 1458.54,6114.85 1748.38,6037.41 1743.15,6023.51 1738.77,6011.43 1735.28,6001.31 1732.76,5993.34 1731.28,5987.65 1731.16,5986.83 1731.11,5985.93 1731.1,5984.94 1731.09,5983.87 1731.03,5982.72 1730.91,5981.48 1730.66,5980.14 1730.27,5978.71 1730.45,5974.64 1732.87,5968.51 1737.39,5960.45 1743.85,5950.59 1752.14,5939.07 1762.11,5926.03 1773.62,5911.59 1786.54,5895.89 1800.72,5879.07 1816.04,5861.26 1832.34,5842.59 1849.5,5823.2 1867.37,5803.22 1885.84,5782.78 1904.74,5762.03 1923.94,5741.08 1943.31,5720.08 1962.72,5699.17 1982.03,5678.46 2001.08,5658.1 2019.76,5638.22 2037.93,5618.94 2055.44,5600.42 2072.18,5582.76 2087.98,5566.13 2102.72,5550.63 2116.27,5536.41 2128.49,5523.58 2139.25,5512.3 2148.39,5502.69 2155.79,5494.89 "/>
   <polygon class="fil6" points="1458.54,6114.85 1463.86,6128.7 1469.8,6143.9 1476.3,6160.3 1483.3,6177.78 1490.72,6196.18 1498.53,6215.37 1506.66,6235.23 1515.04,6255.6 1523.62,6276.35 1532.32,6297.34 1541.11,6318.43 1549.91,6339.48 1558.66,6360.36 1567.3,6380.93 1575.77,6401.05 1584.01,6420.57 1591.96,6439.37 1599.56,6457.31 1606.75,6474.24 1613.46,6490.01 1619.64,6504.51 1625.22,6517.59 1630.15,6529.11 1634.36,6538.92 1637.8,6546.91 1640.39,6552.91 1642.09,6556.8 1955.07,6534.29 1953.16,6529.92 1950.24,6523.17 1946.37,6514.19 1941.63,6503.15 1936.08,6490.2 1929.79,6475.5 1922.83,6459.19 1915.27,6441.45 1907.17,6422.42 1898.63,6402.26 1889.67,6381.13 1880.39,6359.17 1870.84,6336.56 1861.12,6313.43 1851.26,6289.96 1841.36,6266.28 1831.46,6242.57 1821.66,6218.97 1812,6195.65 1802.56,6172.75 1793.41,6150.43 1784.62,6128.85 1776.25,6108.16 1768.37,6088.51 1761.06,6070.07 1754.37,6052.98 1748.38,6037.41 1743.15,6023.51 1738.77,6011.43 1735.28,6001.31 1732.76,5993.34 1731.28,5987.65 1443.36,6070.58 1444.67,6075.64 1446.91,6082.73 1450,6091.72 1453.91,6102.47 "/>
   <polygon class="fil0" points="2539.04,5894.24 2162.56,5987.31 2300.79,6309.58 2694.72,6256.44 "/>
   <polygon class="fil7" points="2539.04,5894.24 2162.56,5987.31 2300.79,6309.58 2694.72,6256.44 "/>
   <polygon class="fil0" points="3215.88,5148.25 2766.28,5323.02 2906.79,5651.36 3374.09,5517.05 "/>
   <polygon class="fil8" points="3215.88,5148.25 2766.28,5323.02 2906.79,5651.36 3374.09,5517.05 "/>
   <polygon class="fil0" points="1219.45,382.64 991.45,1075.19 1125.11,1400.8 1369.66,747.56 "/>
   <polygon class="fil9" points="1219.45,382.64 991.45,1075.19 1125.11,1400.8 1369.66,747.56 "/>
   <polygon class="fil0" points="2702.28,4894.21 2309.01,5097 2328.76,5075.93 2724.42,4870.57 "/>
   <polygon class="fil0" points="2724.42,4870.57 2328.76,5075.93 2349.4,5053.9 2747.56,4845.84 "/>
   <polygon class="fil0" points="2747.56,4845.84 2349.4,5053.9 2370.88,5030.95 2771.64,4820.09 "/>
   <polygon class="fil0" points="2771.64,4820.09 2370.88,5030.95 2393.11,5007.15 2796.56,4793.38 "/>
   <polygon class="fil10" points="2796.56,4793.38 2393.11,5007.15 2416.01,4982.56 2439.53,4957.22 2463.58,4931.21 2488.09,4904.56 2513,4877.33 2538.22,4849.59 2563.69,4821.4 2589.33,4792.8 2615.08,4763.85 2640.85,4734.61 2666.58,4705.13 2692.2,4675.47 2717.63,4645.69 2742.8,4615.83 2767.64,4585.95 2792.08,4556.13 2816.05,4526.39 2839.47,4496.8 2862.28,4467.43 2884.4,4438.31 2905.76,4409.52 2926.29,4381.09 2945.91,4353.08 2964.57,4325.56 2982.19,4298.58 2998.69,4272.18 3014,4246.43 3028.06,4221.37 3057.78,4162.58 3083.75,4102.79 3106.05,4042.24 3124.78,3981.18 3140.02,3919.84 3151.84,3858.48 3160.34,3797.33 3165.6,3736.63 3167.71,3676.62 3166.74,3617.55 3162.78,3559.64 3155.93,3503.15 3146.24,3448.31 3133.82,3395.36 3118.74,3344.54 3101.09,3296.09 3080.94,3250.25 3058.39,3207.26 3033.49,3167.35 3006.35,3130.78 2977.06,3097.75 2945.66,3068.55 2912.26,3043.38 2876.93,3022.5 2839.75,3006.15 2800.8,2994.57 2760.17,2987.99 2717.92,2986.67 2674.14,2990.84 2628.91,3000.76 2582.3,3016.65 2534.39,3038.78 2514.29,3049.88 2493.4,3062.62 2471.76,3076.89 2449.41,3092.62 2426.43,3109.72 2402.87,3128.12 2378.76,3147.72 2354.18,3168.44 2329.17,3190.2 2303.78,3212.92 2278.07,3236.52 2252.1,3260.89 2225.92,3285.98 2199.57,3311.67 2173.13,3337.91 2146.63,3364.6 2120.13,3391.65 2093.69,3418.99 2067.37,3446.53 2041.2,3474.18 2015.26,3501.85 1989.6,3529.48 1964.26,3556.96 1939.31,3584.22 1914.8,3611.16 1890.78,3637.72 1867.31,3663.79 1844.44,3689.28 2179.06,3313.88 2204.7,3285.3 2231,3256.08 2257.92,3226.32 2285.4,3196.12 2313.37,3165.57 2341.76,3134.77 2370.52,3103.82 2399.59,3072.81 2428.91,3041.82 2458.42,3010.96 2488.04,2980.33 2517.74,2950.03 2547.43,2920.13 2577.07,2890.73 2606.59,2861.94 2635.93,2833.85 2665.03,2806.54 2693.83,2780.11 2722.28,2754.67 2750.3,2730.3 2777.85,2707.1 2804.86,2685.15 2831.26,2664.56 2857.01,2645.41 2882.05,2627.8 2906.3,2611.83 2929.71,2597.58 2952.24,2585.15 3005.94,2560.41 3058.18,2542.64 3108.89,2531.59 3157.98,2526.96 3205.35,2528.5 3250.94,2535.93 3294.62,2548.96 3336.34,2567.33 3375.98,2590.78 3413.47,2619.03 3448.72,2651.8 3481.64,2688.85 3512.12,2729.89 3540.1,2774.65 3565.46,2822.88 3588.13,2874.29 3608.01,2928.63 3625,2985.62 3639.02,3045 3649.98,3106.5 3657.76,3169.85 3662.3,3234.78 3663.49,3301.02 3661.23,3368.31 3655.43,3436.39 3646,3504.96 3632.85,3573.77 3615.87,3642.55 3594.98,3711.03 3570.06,3778.92 3541.03,3845.98 3507.8,3911.92 3492.07,3940.01 3474.93,3968.89 3456.48,3998.49 3436.76,4028.75 3415.87,4059.62 3393.9,4091.03 3370.92,4122.91 3347,4155.2 3322.24,4187.86 3296.69,4220.81 3270.46,4253.99 3243.61,4287.35 3216.24,4320.8 3188.41,4354.31 3160.22,4387.81 3131.73,4421.22 3103.03,4454.49 3074.2,4487.56 3045.32,4520.37 3016.48,4552.85 2987.74,4584.94 2959.2,4616.57 2930.93,4647.7 2903.02,4678.24 2875.54,4708.15 2848.59,4737.35 2822.23,4765.78 "/>
   <polygon class="fil11" points="2702.28,4894.21 2309.01,5097 2328.76,5075.93 2349.4,5053.9 2370.88,5030.95 2393.11,5007.15 2416.01,4982.56 2439.53,4957.22 2463.58,4931.21 2488.09,4904.56 2513,4877.33 2538.22,4849.59 2563.69,4821.4 2589.33,4792.8 2615.08,4763.85 2640.85,4734.61 2666.58,4705.13 2692.2,4675.47 2717.63,4645.69 2742.8,4615.83 2767.64,4585.95 2792.08,4556.13 2816.05,4526.39 2839.47,4496.8 2862.28,4467.43 2884.4,4438.31 2905.76,4409.52 2926.29,4381.09 2945.91,4353.08 2964.57,4325.56 2982.19,4298.58 2998.69,4272.18 3014,4246.43 3028.06,4221.37 3507.8,3911.92 3492.07,3940.01 3474.93,3968.89 3456.48,3998.49 3436.76,4028.75 3415.87,4059.62 3393.9,4091.03 3370.92,4122.91 3347,4155.2 3322.24,4187.86 3296.69,4220.81 3270.46,4253.99 3243.61,4287.35 3216.24,4320.8 3188.41,4354.31 3160.22,4387.81 3131.73,4421.22 3103.03,4454.49 3074.2,4487.56 3045.32,4520.37 3016.48,4552.85 2987.74,4584.94 2959.2,4616.57 2930.93,4647.7 2903.02,4678.24 2875.54,4708.15 2848.59,4737.35 2822.23,4765.78 2796.56,4793.38 2771.64,4820.09 2747.56,4845.84 2724.42,4870.57 "/>
   <polygon class="fil12" points="2179.06,3313.88 1844.44,3689.28 1822.23,3714.14 2154.17,3341.74 "/>
   <polygon class="fil13" points="2154.17,3341.74 1822.23,3714.14 1800.74,3738.26 2130.07,3368.78 "/>
   <polygon class="fil14" points="2952.24,2585.15 2534.39,3038.78 2514.29,3049.88 2493.4,3062.62 2471.76,3076.89 2449.41,3092.62 2426.43,3109.72 2402.87,3128.12 2378.76,3147.72 2354.18,3168.44 2329.17,3190.2 2303.78,3212.92 2278.07,3236.52 2252.1,3260.89 2225.92,3285.98 2199.57,3311.67 2173.13,3337.91 2146.63,3364.6 2120.13,3391.65 2093.69,3418.99 2067.37,3446.53 2041.2,3474.18 2015.26,3501.85 1989.6,3529.48 1964.26,3556.96 1939.31,3584.22 1914.8,3611.16 1890.78,3637.72 1867.31,3663.79 1844.44,3689.28 1822.23,3714.14 1800.74,3738.26 2130.07,3368.78 2154.17,3341.74 2179.06,3313.88 2204.7,3285.3 2231,3256.08 2257.92,3226.32 2285.4,3196.12 2313.37,3165.57 2341.76,3134.77 2370.52,3103.82 2399.59,3072.81 2428.91,3041.82 2458.42,3010.96 2488.04,2980.33 2517.74,2950.03 2547.43,2920.13 2577.07,2890.73 2606.59,2861.94 2635.93,2833.85 2665.03,2806.54 2693.83,2780.11 2722.28,2754.67 2750.3,2730.3 2777.85,2707.1 2804.86,2685.15 2831.26,2664.56 2857.01,2645.41 2882.05,2627.8 2906.3,2611.83 2929.71,2597.58 "/>
   <polygon class="fil15" points="2405.46,2245.3 2047.26,2736.17 2065.22,2711.44 2082.48,2687.08 2098.99,2663.13 2114.7,2639.65 2129.54,2616.69 2143.46,2594.31 2156.41,2572.55 2168.33,2551.48 2181.01,2527.75 2193.02,2503.91 2204.37,2479.98 2215.04,2455.94 2225.03,2431.81 2234.34,2407.58 2242.96,2383.28 2250.9,2358.88 2258.14,2334.41 2264.68,2309.86 2270.52,2285.24 2275.65,2260.56 2280.06,2235.81 2283.77,2211 2286.75,2186.14 2289.01,2161.23 2290.54,2136.27 2291.34,2111.27 2291.39,2086.23 2290.71,2061.16 2289.28,2036.05 2287.1,2010.92 2284.17,1985.76 2280.48,1960.59 2276.02,1935.41 2270.8,1910.21 2264.81,1885 2258.04,1859.79 2250.48,1834.59 2242.15,1809.39 2233.03,1784.19 2223.11,1759.01 2199.4,1705.91 2174.49,1659.17 2148.42,1618.56 2121.24,1583.87 2092.98,1554.89 2063.69,1531.41 2033.41,1513.2 2002.19,1500.06 1970.07,1491.79 1937.09,1488.16 1903.31,1488.98 1868.74,1494.03 1833.46,1503.09 1797.48,1515.97 1760.87,1532.45 1723.65,1552.32 1685.88,1575.38 1647.59,1601.41 1608.85,1630.21 1569.68,1661.58 1530.12,1695.29 1490.24,1731.14 1450.06,1768.92 1409.63,1808.43 1369,1849.45 1328.21,1891.77 1287.31,1935.19 1246.34,1979.48 1205.35,2024.45 1164.38,2069.87 1123.48,2115.55 1082.69,2161.26 1322.71,1599.53 1368.43,1548.36 1414.29,1497.24 1460.22,1446.4 1506.17,1396.07 1552.09,1346.5 1597.93,1297.93 1643.65,1250.57 1689.19,1204.68 1734.49,1160.49 1779.53,1118.23 1824.22,1078.13 1868.55,1040.43 1912.44,1005.37 1955.88,973.17 1998.78,944.08 2041.11,918.31 2082.82,896.12 2123.86,877.73 2164.19,863.37 2203.74,853.28 2242.5,847.69 2280.38,846.83 2317.36,850.95 2353.38,860.27 2388.4,875.04 2422.37,895.48 2455.23,921.83 2486.95,954.34 2517.47,993.24 2546.76,1038.76 2574.75,1091.15 2601.4,1150.67 2612.55,1178.89 2622.82,1207.12 2632.2,1235.36 2640.7,1263.61 2648.32,1291.85 2655.07,1320.09 2660.96,1348.33 2666,1376.56 2670.17,1404.76 2673.49,1432.94 2675.96,1461.1 2677.61,1489.23 2678.41,1517.31 2678.37,1545.37 2677.51,1573.38 2675.83,1601.34 2673.33,1629.25 2670.02,1657.1 2665.9,1684.89 2660.98,1712.61 2655.26,1740.26 2648.75,1767.83 2641.45,1795.33 2633.37,1822.74 2624.5,1850.06 2614.86,1877.29 2604.45,1904.43 2593.28,1931.46 2581.34,1958.38 2568.65,1985.19 2555.21,2011.89 2541.02,2038.45 2527.68,2062.06 2513.19,2086.42 2497.6,2111.5 2480.98,2137.21 2463.39,2163.51 2444.9,2190.33 2425.57,2217.61 "/>
   <path class="fil16" d="M1369.66 747.56l-321.34 345.65 -152.87 -360.26 -352.43 375.32 150.41 361.97 -585.82 625.46 1.15 2.91 2.26 5.72 3.32 8.35 4.29 10.78 5.19 13.02 6.02 15.08 6.78 16.94 7.47 18.61 8.08 20.09 8.63 21.39 9.11 22.48 9.5 23.39 9.83 24.11 10.09 24.65 10.28 24.98 10.4 25.13 10.43 25.08 10.4 24.85 10.31 24.43 10.13 23.8 9.89 23 9.57 22 9.19 20.81 8.72 19.42 8.19 17.86 7.59 16.08 6.91 14.13 6.16 11.98 5.34 9.64 4.44 7.11 3.48 4.39 2.44 1.47 5.52 -3.61 6.94 -5.39 8.27 -7.06 9.53 -8.62 10.69 -10.07 11.74 -11.41 12.72 -12.64 13.59 -13.78 14.4 -14.79 15.08 -15.69 15.7 -16.49 16.23 -17.19 16.65 -17.76 16.99 -18.24 17.24 -18.6 17.4 -18.85 17.46 -19 17.44 -19.05 17.33 -18.98 17.13 -18.8 16.83 -18.51 16.45 -18.13 15.98 -17.62 15.41 -17.02 14.76 -16.3 14.02 -15.47 13.19 -14.54 12.26 -13.51 11.26 -12.36 10.16 -11.1 8.96 -9.75 7.69 -8.28 1383.08 3308.27 -5.53 5.87 -7.4 7.8 -9.14 9.61 -10.76 11.28 -12.22 12.83 -13.55 14.22 -14.74 15.5 -15.81 16.64 -16.73 17.65 -17.51 18.53 -18.17 19.27 -18.68 19.89 -19.06 20.36 -19.31 20.71 -19.41 20.91 -19.37 21 -19.2 20.94 -18.9 20.76 -18.47 20.43 -17.87 19.98 -17.16 19.39 -16.3 18.67 -15.32 17.81 -14.18 16.83 -12.92 15.69 -11.51 14.44 -9.97 13.04 -8.28 11.52 -6.47 9.86 -4.51 8.06 -2.43 6.13 -0.18 4.07 0.39 1.43 0.24 1.34 0.13 1.24 0.06 1.15 0.01 1.07 0.01 0.98 0.05 0.91 0.12 0.82 1.48 5.69 2.52 7.97 3.49 10.11 4.39 12.08 5.22 13.91 6 15.57 6.68 17.08 7.31 18.44 7.88 19.65 8.37 20.69 8.79 21.58 9.15 22.32 9.44 22.9 9.66 23.32 9.8 23.6 9.89 23.71 9.91 23.67 9.85 23.47 9.72 23.13 9.54 22.61 9.28 21.96 8.96 21.13 8.55 20.16 8.1 19.03 7.56 17.74 6.96 16.31 6.29 14.7 5.55 12.95 4.74 11.04 3.87 8.98 2.92 6.75 1.91 4.37 583.97 -640.05 155.68 362.2 353.82 -384.25 -153.04 -367.78 320.38 -356.17 158.22 368.8 348.64 -384.02 -162.13 -390.59 43.73 -55.51 42.86 -56.01 41.93 -56.5 40.94 -57.01 39.89 -57.52 38.79 -58.03 37.61 -58.56 36.39 -59.07 35.11 -59.62 33.76 -60.15 32.36 -60.71 30.89 -61.26 29.38 -61.81 27.8 -62.38 26.15 -62.95 24.46 -63.54 22.71 -64.11 20.89 -64.71 19.02 -65.31 17.09 -65.91 15.09 -66.53 13.05 -67.15 10.94 -67.77 8.78 -68.4 6.56 -69.05 4.28 -69.68 1.93 -70.35 -0.46 -71 -2.91 -71.67 -5.43 -72.34 -8.01 -73.02 -10.63 -73.71 -11.69 -65.39 -13.57 -63.22 -15.38 -61.03 -17.15 -58.79 -18.88 -56.52 -20.56 -54.22 -22.18 -51.89 -23.76 -49.51 -25.28 -47.12 -26.76 -44.67 -28.2 -42.2 -29.59 -39.7 -30.92 -37.15 -32.21 -34.57 -33.46 -31.96 -34.65 -29.31 -35.8 -26.63 -36.91 -23.91 -37.94 -21.16 -38.96 -18.37 -39.91 -15.54 -40.82 -12.67 -41.7 -9.78 -42.51 -6.84 -43.28 -3.85 -44 -0.85 -44.69 2.2 -45.31 5.29 -45.9 8.41 -46.43 11.58 -46.93 14.78 -47.36 18.02 -6.18 2.65 -6.2 2.83 -6.21 2.94 -6.22 3.06 -6.21 3.12 -6.22 3.14 -6.22 3.14 -6.2 3.09 -6.19 3.02 -6.17 2.9 -6.15 2.75 -6.13 2.57 -6.09 2.34 -6.06 2.09 -6.03 1.79 -5.99 1.46 1.26 -4.62 1.42 -4.88 1.57 -5.13 1.72 -5.37 1.87 -5.59 1.98 -5.79 2.11 -5.98 2.21 -6.15 2.31 -6.32 2.39 -6.45 2.48 -6.59 2.54 -6.7 2.6 -6.8 2.66 -6.87 2.69 -6.94 2.72 -6.99 2.74 -7.03 2.74 -7.05 2.75 -7.05 2.74 -7.05 2.72 -7.02 2.69 -6.98 2.64 -6.93 2.6 -6.85 2.54 -6.76 2.46 -6.66 2.39 -6.55 2.3 -6.42 2.2 -6.26 2.09 -6.1 1.98 -5.93 1.84 -5.73 15.79 -52.91 14.02 -53.09 12.28 -53.22 10.57 -53.27 8.89 -53.26 7.25 -53.18 5.62 -53.05 4.03 -52.85 2.48 -52.57 0.94 -52.25 -0.57 -51.85 -2.04 -51.39 -3.47 -50.87 -4.9 -50.28 -6.28 -49.63 -7.63 -48.91 -8.96 -48.14 -10.27 -47.29 -11.53 -46.39 -12.77 -45.41 -13.99 -44.38 -15.17 -43.29 -16.33 -42.13 -17.46 -40.9 -18.55 -39.61 -19.62 -38.26 -20.67 -36.85 -21.68 -35.36 -22.66 -33.82 -23.62 -32.21 -24.55 -30.54 -25.45 -28.81 -15.21 -15.91 -15.45 -15.22 -15.69 -14.54 -15.89 -13.86 -16.09 -13.21 -16.27 -12.56 -16.43 -11.92 -16.58 -11.29 -16.72 -10.67 -16.84 -10.07 -16.94 -9.46 -17.02 -8.88 -17.09 -8.3 -17.15 -7.72 -17.18 -7.17 -17.21 -6.61 -17.21 -6.08 -17.2 -5.55 -17.18 -5.03 -17.14 -4.51 -17.08 -4.02 -17.02 -3.52 -16.92 -3.05 -16.81 -2.58 -16.7 -2.12 -16.55 -1.67 -16.41 -1.22 -16.24 -0.8 -16.05 -0.38 -15.85 0.04 -15.63 0.44 -15.4 0.82 -22.96 1.9 -22.31 2.58 -21.73 3.26 -21.19 3.93 -20.7 4.62 -20.26 5.29 -19.87 5.96 -19.52 6.63 -19.23 7.3 -18.98 7.97 -18.8 8.63 -18.64 9.3 -18.54 9.95 -18.5 10.62 -18.5 11.28 -18.54 11.93 -18.65 12.58 -18.79 13.25 -18.99 13.89 -19.23 14.54 -19.54 15.19 -19.87 15.83 -20.28 16.48 -20.72 17.13 -21.2 17.76 -21.74 18.41 -22.34 19.04 -22.98 19.68 -23.67 20.32 -24.42 20.95 -25.2 21.58 -26.05 22.21 -163.06 -377.99 -348.43 369.34 150.21 364.92zm1332.62 4146.65l22.14 -23.64 23.14 -24.73 24.07 -25.75 24.92 -26.71 25.68 -27.6 26.35 -28.43 26.96 -29.2 27.48 -29.9 27.91 -30.55 28.27 -31.12 28.54 -31.63 28.74 -32.09 28.85 -32.48 28.88 -32.81 28.83 -33.07 28.7 -33.27 28.49 -33.41 28.2 -33.5 27.83 -33.51 27.37 -33.46 26.85 -33.35 26.23 -33.18 25.55 -32.95 24.76 -32.66 23.92 -32.3 22.98 -31.88 21.97 -31.41 20.88 -30.87 19.72 -30.26 18.46 -29.61 17.14 -28.87 15.72 -28.09 33.23 -65.94 29.03 -67.06 24.92 -67.89 20.9 -68.48 16.98 -68.78 13.15 -68.81 9.43 -68.57 5.8 -68.07 2.26 -67.29 -1.19 -66.24 -4.54 -64.93 -7.79 -63.35 -10.95 -61.5 -14.02 -59.38 -17 -56.99 -19.88 -54.34 -22.66 -51.41 -25.37 -48.22 -27.98 -44.76 -30.48 -41.04 -32.92 -37.05 -35.24 -32.78 -37.5 -28.25 -39.64 -23.45 -41.72 -18.37 -43.69 -13.03 -45.58 -7.43 -47.38 -1.53 -49.09 4.63 -50.71 11.05 -52.24 17.77 -53.7 24.74 -22.53 12.43 -23.41 14.25 -24.26 15.97 -25.04 17.61 -25.75 19.15 -26.41 20.6 -27.01 21.94 -27.54 23.2 -28.03 24.37 -28.44 25.44 -28.8 26.43 -29.1 27.31 -29.34 28.09 -29.52 28.79 -29.64 29.39 -29.7 29.9 -29.69 30.31 -29.63 30.63 -29.5 30.85 -29.32 30.99 -29.07 31.02 -28.76 30.95 -28.39 30.8 -27.97 30.55 -27.48 30.2 -26.92 29.76 -26.3 29.22 -25.64 28.58 -24.89 27.86 -24.1 27.04 -23.24 26.11 -22.31 25.09 617.76 1474.23zm-848.03 -2022.89l19.72 -18.94 20.48 -20.02 21.17 -21.04 21.79 -21.98 22.35 -22.87 22.85 -23.7 23.27 -24.46 23.65 -25.16 23.94 -25.8 24.18 -26.39 24.35 -26.9 24.47 -27.36 24.51 -27.75 24.5 -28.08 24.42 -28.35 24.27 -28.56 24.06 -28.7 23.79 -28.79 23.46 -28.82 23.05 -28.78 22.59 -28.69 22.07 -28.52 21.48 -28.31 20.83 -28.03 20.11 -27.69 19.33 -27.28 18.49 -26.83 17.58 -26.3 16.62 -25.72 15.59 -25.07 14.5 -24.37 13.34 -23.6 14.19 -26.57 13.44 -26.7 12.7 -26.81 11.93 -26.92 11.17 -27.03 10.41 -27.14 9.64 -27.22 8.87 -27.32 8.08 -27.41 7.3 -27.5 6.51 -27.57 5.72 -27.65 4.92 -27.72 4.12 -27.79 3.31 -27.85 2.5 -27.91 1.68 -27.96 0.86 -28.01 0.04 -28.06 -0.8 -28.09 -1.64 -28.13 -2.48 -28.16 -3.32 -28.18 -4.17 -28.2 -5.03 -28.23 -5.89 -28.23 -6.76 -28.24 -7.62 -28.24 -8.5 -28.25 -9.38 -28.24 -10.27 -28.23 -11.15 -28.22 -26.65 -59.52 -27.99 -52.39 -29.28 -45.52 -30.52 -38.9 -31.72 -32.51 -32.87 -26.35 -33.97 -20.44 -35.02 -14.77 -36.02 -9.32 -36.98 -4.12 -37.89 0.85 -38.75 5.59 -39.56 10.09 -40.33 14.36 -41.04 18.39 -41.71 22.19 -42.33 25.76 -42.9 29.09 -43.43 32.2 -43.89 35.06 -44.33 37.7 -44.7 40.09 -45.04 42.26 -45.31 44.19 -45.54 45.89 -45.72 47.35 -45.85 48.57 -45.92 49.57 -45.95 50.33 -45.93 50.84 -45.86 51.12 -45.72 51.17 531.54 1271.79z"/>
  </g>
 </g>
</svg>
