<?xml version="1.0" encoding="UTF-8"?>
<!DOCTYPE svg PUBLIC "-//W3C//DTD SVG 1.1//EN" "http://www.w3.org/Graphics/SVG/1.1/DTD/svg11.dtd">
<!-- Creator: CorelDRAW 2019 (64-Bit) -->
<svg xmlns="http://www.w3.org/2000/svg" xml:space="preserve" width="2.362in" height="2.36267in" version="1.1" style="shape-rendering:geometricPrecision; text-rendering:geometricPrecision; image-rendering:optimizeQuality; fill-rule:evenodd; clip-rule:evenodd"
viewBox="0 0 2362 2362.67"
 xmlns:xlink="http://www.w3.org/1999/xlink"
 xmlns:xodm="http://www.corel.com/coreldraw/odm/2003">
 <defs>
  <style type="text/css">
   <![CDATA[
    .fil1 {fill:white}
    .fil0 {fill:url(#id0)}
   ]]>
  </style>
  <linearGradient id="id0" gradientUnits="userSpaceOnUse" x1="1032.54" y1="9.37" x2="1329.46" y2="2353.3">
   <stop offset="0" style="stop-opacity:1; stop-color:#F19C11"/>
   <stop offset="1" style="stop-opacity:1; stop-color:#FAC267"/>
  </linearGradient>
 </defs>
 <g id="Layer_x0020_1">
  <metadata id="CorelCorpID_0Corel-Layer"/>
  <g id="_2579850283536">
   <path class="fil0" d="M1119.67 3.48c-105.67,11.16 -146.64,10.6 -254.76,41.02 -117.34,33.01 -207.38,74.2 -306.74,134.95 -106.08,64.85 -158.99,116.61 -243.24,201.28 -46.21,46.44 -87.27,103.13 -128.67,165.83 -124.34,188.3 -201.59,459.83 -183.69,698.8 19.07,254.48 93.4,456.22 235.94,647.35 44.19,59.26 90.35,108.17 141.62,155.72 196.95,182.65 490.87,330.36 866.43,312.81 157.49,-7.36 344.05,-58.89 463.92,-123.59 143.98,-77.72 223.38,-133.54 337.22,-254.4 183.1,-194.39 330.38,-494.26 312.89,-866.36 -7.48,-159.03 -57.85,-339.36 -123.6,-463.94 -138.95,-263.28 -336.84,-452.29 -614.43,-566.29 -127.98,-52.56 -342.59,-100.12 -502.89,-83.19z"/>
   <path class="fil1" d="M1200.36 460.98l-130.63 0.76 -0.53 -119.39 -142.37 0.21 -0.25 118.94 -235.39 0.31c-0.09,4.93 -3.11,175.25 2.57,180.05 17.39,5.83 143.68,1.56 173.78,1.55l0.46 1077.33c-19.36,-0.32 -174.24,-5.92 -175.04,3.65 -0.1,1.19 -0.63,1.65 -0.75,2.22 -2.73,13.02 -1.25,164.02 -1.03,174.96l234.37 0.82 1.18 117.9 142.26 1.53 0.3 -118.73 130.37 -0.66 0.92 120.45 141.91 0.31 0.67 -126.49c200.54,-15.68 374.01,-83.82 432.57,-293.08 52.57,-187.81 -30.56,-375.46 -198.48,-452.44 -10.9,-4.99 -23.06,-8.19 -32.84,-14.43 9.18,-7.77 32.56,-19.03 45.07,-27.99 117.3,-84.06 153.94,-253.61 111.46,-389.54 -24.74,-79.17 -76.42,-141.92 -123.81,-179.32 -72.22,-56.99 -125.19,-58.48 -233.17,-72.38l-1.09 -126.41 -141.66 -0.18 -0.87 120.04zm-113.71 1259.54c92.61,1.5 259.94,4.85 339.53,-21.93 187.7,-63.15 199.65,-360.13 1.13,-434.06 -80.48,-29.97 -245.19,-26.15 -340.59,-24.09l-0.07 480.09zm0 -659.61c80.36,6 222.56,2.25 289.96,-20.54 77.02,-26.05 121.34,-87.99 122.28,-186.78 2.11,-221.14 -211.84,-215.37 -411.78,-209.87l-0.46 417.19z"/>
  </g>
 </g>
</svg>
