<?xml version="1.0" encoding="UTF-8"?>
<!DOCTYPE svg PUBLIC "-//W3C//DTD SVG 1.1//EN" "http://www.w3.org/Graphics/SVG/1.1/DTD/svg11.dtd">
<!-- Creator: CorelDRAW (Evaluation Version) -->
<svg xmlns="http://www.w3.org/2000/svg" xml:space="preserve" width="1.16552in" height="1.16552in" version="1.1" style="shape-rendering:geometricPrecision; text-rendering:geometricPrecision; image-rendering:optimizeQuality; fill-rule:evenodd; clip-rule:evenodd"
viewBox="0 0 41.04 41.04"
 xmlns:xlink="http://www.w3.org/1999/xlink"
 xmlns:xodm="http://www.corel.com/coreldraw/odm/2003">
 <defs>
  <style type="text/css">
   <![CDATA[
    .str0 {stroke:#F9F9F9;stroke-width:0.11;stroke-miterlimit:2.61313}
    .fil39 {fill:none}
    .fil1 {fill:black}
    .fil5 {fill:#00B367}
    .fil19 {fill:#00BAD4}
    .fil27 {fill:#00BDDC}
    .fil7 {fill:#00C2DB}
    .fil16 {fill:#00C4D5}
    .fil15 {fill:#00C5CB}
    .fil32 {fill:#01B6C7}
    .fil20 {fill:#08AEC9}
    .fil35 {fill:#0D233B}
    .fil4 {fill:#10223A}
    .fil21 {fill:#12243A}
    .fil29 {fill:#141A30}
    .fil33 {fill:#18283A}
    .fil11 {fill:#194569}
    .fil12 {fill:#1A3959}
    .fil3 {fill:#1C3E64}
    .fil18 {fill:#244468}
    .fil6 {fill:#253A5A}
    .fil30 {fill:#273C65}
    .fil23 {fill:#291727}
    .fil38 {fill:#2E324E}
    .fil31 {fill:#2FADB6}
    .fil13 {fill:#333333}
    .fil10 {fill:#399452}
    .fil2 {fill:#4D4D4D}
    .fil14 {fill:#576F8C}
    .fil34 {fill:#5C3061}
    .fil28 {fill:#949FAA}
    .fil22 {fill:#D1340F}
    .fil36 {fill:#E6F4F7}
    .fil37 {fill:#ECFEFE}
    .fil26 {fill:#EDC02E}
    .fil24 {fill:#F3FDFD}
    .fil25 {fill:#F6F6F6}
    .fil0 {fill:#F9F9F9}
    .fil9 {fill:#FBFBFB}
    .fil8 {fill:#FDFCF5}
    .fil17 {fill:white}
   ]]>
  </style>
 </defs>
 <g id="Layer_x0020_1">
  <metadata id="CorelCorpID_0Corel-Layer"/>
  <g id="_105553220459840">
   <path class="fil0 str0" d="M26.61 23.18c0.16,0.16 0.48,1.39 0.55,1.71l-2.1 0.56c-0.16,-0.36 -0.38,-0.94 -0.49,-1.35l-0.47 -1.26 2.28 -0.57c0.08,0.22 0.23,0.64 0.23,0.91l-0 0zm1.44 -1.29l0.38 -0.1 0.6 -0.15 0.12 0.41 0.19 0.86 0.09 0.37 0.18 0.75 -0.01 0.2 -0.53 0.1 -1.55 0.43 -0.01 -0.22c-0.16,-0.16 -0.7,-2.01 -0.74,-2.35l1.28 -0.31 0 0zm1.76 -0.43l0.3 -0.05c0.43,-0.28 0.38,0.01 0.55,0.1l0.41 0.1c0.17,-0.14 0.08,-0.05 0.17,-0.25 0.1,0.11 0,0.01 0.08,0.14 0.14,0.25 0,0.09 0.14,0.16l0.07 0.02c0.01,0 0.03,0.01 0.04,0.01l0.25 -0 0.15 1 0.06 0.22 0.07 0.47 -0 0.18 -0.46 0.09 -1.01 0.28 -0.63 0.16 -0.07 -0.35 -0.09 -0.36c-0.09,-0.15 -0.42,-1.69 -0.4,-1.86l0.37 -0.07 0 0zm2.46 -0.61l0.2 -0.01 0.71 -0.2 0.65 -0.14 0.3 2.48 -1.27 0.33 -0.4 0.14 -0.19 -1.44 -0.12 -0.44 -0.07 -0.66 0.19 -0.05 0 0zm-15.47 0.02l0.18 0.34 1.3 2.57 -0.84 0.2 -0.63 0.13 -0.29 0.13c-0.1,0.03 -0.21,0.05 -0.31,0.08 -0.26,0.06 -0.45,0.13 -0.71,0.13 -0.12,-0.28 -0.52,-1.05 -0.54,-1.25 -0.22,-0.19 -1.12,-2.05 -1.14,-2.2 0.5,-0.1 1.05,-0.21 1.54,-0.3 0.53,-0.09 1.35,-0.33 1.44,0.16l0 0zm3 -0.31l0.39 0.88 0.72 1.73 -2.25 0.54c-0.11,-0.18 -0.35,-0.59 -0.38,-0.83 -0.23,-0.18 -0.7,-1.23 -0.81,-1.56l-0.27 -0.53c0.14,-0.1 0.98,-0.31 1.19,-0.37 0.37,-0.11 0.85,-0.27 1.22,-0.34l0.17 0.48 0 0zm11.58 0.1l-1.14 0.26 -0.22 0.05 -0.74 0.15c-0,-0.84 0.4,-2.25 0.5,-3.16l1.38 -0.23 0.24 1.48 0.2 1.35 -0.23 0.09 -0 0zm-8.83 -0.98l0.64 1.74c0.14,0.19 0.4,0.92 0.35,1.13l-0.34 0.02c-0.06,0.05 -0.01,0.02 -0.14,0.08 -0.04,0.02 -0.11,0.04 -0.15,0.05l-0.9 0.22 -0.73 0.13 -0.61 -1.48 -0.5 -1.15 -0.19 -0.47c0.84,-0.17 1.57,-0.49 2.5,-0.58l0.07 0.3 0 0zm3.2 0.51l0.51 1.71c-0.58,0.1 -1.83,0.52 -2.32,0.51l-0.54 -1.53 -0.59 -1.59 2.55 -0.47 0.39 1.37 -0 0zm1.1 -1.65c0.34,-0.09 1.08,-0.26 1.42,-0.23l0.23 0.95 0.08 0.31c0.01,0.07 0.02,0.16 0.04,0.28 0.04,0.2 0.07,0.28 0.11,0.47 0.04,0.21 0.19,0.77 0.18,0.93 -0.44,0.05 -0.45,0.14 -0.7,0.22l-0.18 -0.05c-0.22,0.18 -0.71,0.21 -1.02,0.29l-0.37 0.07c-0.11,-0.23 -0.3,-0.79 -0.29,-1.07 -0.18,-0.18 -0.56,-1.62 -0.62,-1.97l1.13 -0.2 0 -0zm2.58 -0.49l-0.11 1.42 -0.43 -0.05 -0.27 -1.23 0.8 -0.14 0 0zm-14.37 -0.42c0.34,0.11 0.24,0.25 0.42,0.55l0.22 0.44c0,0.01 0.02,0.02 0.02,0.03l0.64 1.38c-0.09,0.09 0.05,0.02 -0.15,0.09l-0.52 0.09c-0.26,0.05 -0.45,0.1 -0.74,0.12 0.02,-0.13 0.03,-0.24 0.02,-0.37l-0.07 -0.26 0.03 0.67 -1.36 0.23c-0.21,-0.29 -0.51,-0.93 -0.67,-1.25 -0.18,-0.35 -0.45,-0.85 -0.6,-1.23l2.75 -0.5 0 0zm18.56 1.2l0.12 1.26 -0.36 0.05c-0.19,0.12 0.06,0.01 -0.27,0.09 -0.09,0.02 -0.16,0.04 -0.26,0.06 -0.21,0.05 -0.37,0.09 -0.59,0.12l-0.25 0.05c-0.14,-0.26 -0.19,-0.81 -0.21,-1.13l-0.3 -1.69 1.92 -0.34 0.2 1.52 0 0zm-17.16 -1.45c0.18,-0 0.06,0 0.25,-0.05 0.09,-0.02 0.18,-0.05 0.26,-0.08l0.89 -0.1 0.47 -0.08 0.14 0.4c0.16,0.23 0.09,0.17 0.06,0.44 0.32,0.26 0.16,0.13 0.35,0.38 0.16,0.19 0.17,0.4 0.25,0.66 0.07,0.21 0.18,0.34 0.19,0.56 -0.23,0.11 -2.24,0.46 -2.54,0.44 -0.1,-0.24 -0.23,-0.47 -0.34,-0.68 -0.2,-0.38 -0.12,-0.46 -0.38,-0.57 0.02,-0.02 0.03,-0.06 0.04,-0.07l0.08 -0.13c-0.24,-0.07 -0.22,-0.2 -0.33,-0.43 -0.09,-0.18 -0.18,-0.31 -0.2,-0.54l0.81 -0.16 -0 0zm3.78 -0.68c0.31,-0.27 0.39,0.04 1.22,-0.21 0.06,0.2 -0,0.05 0.1,0.27 0,0.23 0.6,1.85 0.72,2.1 0.37,0.19 -0.26,0.2 -0.39,0.21 -0.25,0.02 -0.47,0.09 -0.71,0.13 -0.5,0.08 -1,0.21 -1.47,0.26 -0.17,-0.7 -0.26,-0.48 -0.33,-0.75 -0.03,-0.25 -0.11,-0.28 -0.17,-0.51 -0.09,-0.32 0.05,-0.18 0.09,-0.52 -0.32,-0.29 -0.45,-0.12 -0.57,-0.64 0.19,-0.14 1.17,-0.23 1.51,-0.33l-0 -0zm4.27 -0.74l0.71 2.47 -2.56 0.48 -0.88 -2.47 2.73 -0.48 -0 0zm1.9 -0.33l0.99 -0.2c0.35,0.06 0.18,-0.1 0.33,0.57 0.05,0.21 0.09,0.4 0.14,0.62 0.04,0.2 0.37,1.07 0.2,1.23 -0.24,0.16 -2.03,0.41 -2.45,0.5 -0.15,-0.27 -0.66,-2.04 -0.76,-2.46l1.54 -0.26 0 0zm3.24 -0.61c0.21,0.03 0.37,-0.04 0.6,-0.07l0.44 -0.08 0.26 1.6 0.05 0.27 0.05 0.36 0.01 0.24 -1.17 0.25c-0.02,-0 -0.14,-0.01 -0.14,-0.01l-0.31 0.11 -0.89 0.12c-0.14,-0.2 -0.58,-2.16 -0.56,-2.45l1.65 -0.32 -0 0zm3.7 1.86c-0.26,0.06 -0.57,0.16 -0.92,0.13 -0.1,0.09 0.04,0.04 -0.21,0.1l-0.78 0.13 -0.05 -0.42 -0.01 -0.07 -0.33 -1.96 1.08 -0.17c0.77,1.49 1.25,0.31 1.23,2.26l0 0zm0.71 -3.69c0.01,-0.37 -0.12,-1.08 0.2,-1.16 0.52,-0.13 0.35,0.65 0.37,1.16 0.22,0 0.97,-0.04 1.09,0.07 0.13,0.12 0.14,0.31 -0,0.43 -0.13,0.12 -0.87,0.07 -1.1,0.07 -0,0.62 0.11,1.15 -0.25,1.18 -0.42,0.03 -0.31,-0.53 -0.32,-1.18 -0.7,-0 -1.21,0.12 -1.18,-0.31 0.03,-0.36 0.59,-0.25 1.18,-0.26l0 0zm-1.14 -1.82l-0.13 0.16c-0.04,0.04 -0.07,0.07 -0.1,0.1 -0.29,0.27 -0.4,0.39 -0.58,0.75 -0.36,0.69 -0.14,0.88 -0.26,1.54l-1.54 0.27 0.02 -0.47c-0.11,0.12 -0.08,0.32 -0.09,0.52 -0.35,-0.04 -0.36,-0 -0.52,0.09l-7.43 1.32c-0.2,0.13 0.26,0.11 -0.26,0.11 0.05,-0.24 0.31,-0.09 -0.84,0.09l-0.95 0.12 -0.66 0.14 -0.65 0.12 -1.9 0.34c-0.16,-0.28 -0.03,-0.34 -0.53,-0.5l-0.11 0.17c-0.27,0.31 -0.11,0.38 -0.19,0.5 -0.11,0.09 -0.02,0.04 -0.19,0.08 -0.31,0.08 0.1,-0.02 -0.42,0.01 -0.15,0.01 -0.35,0.06 -0.48,0.08l-3.13 0.56c-0.25,-0.25 -0.98,-1.87 -1.21,-2.3 -0.72,-1.31 -1.8,-1.08 -2.2,-1.35l-0.35 -0 -0.13 0.7c1.07,0.18 1.64,0.24 2.08,1.06 0.2,0.39 0.35,0.69 0.53,1.07 0.18,0.36 0.39,0.69 0.54,1.05 0.18,0.3 0.35,0.68 0.51,0.98 0.17,0.32 0.37,0.65 0.47,0.99l2.26 4.4c0.25,0.2 1.79,3.71 2.27,4.31 -0.38,0.25 -0.14,-0.12 -0.6,0.98 -0.95,2.27 -0.42,1.01 -0.1,3.8 -0.48,0.19 -0.66,0.06 -0.48,0.7l0.05 0.34c0.21,0.34 0.11,1.26 0.49,1.45 0.66,0.33 0.57,-0.84 0.65,-1.28l0.03 -0.44 0.06 -0.41 0.87 -0.2 -0.06 -0.58 0.55 -0.09c0.2,-0.1 7.43,-1.69 7.75,-1.68 0.14,-0.13 4.95,-1.21 5.4,-1.22 -0.24,0.15 -0.15,0.26 -0.08,0.6l0.05 0.44c0.18,0.16 0.16,0.96 0.47,1.36 0.44,0.06 0.55,-0.07 0.59,-0.5 0.03,-0.27 0,-0.81 0.14,-1.03l0.01 -0.38 0.03 -0.24 0.8 -0.18c0.14,-0.16 0.03,-0.27 0.01,-0.56 0.42,-0.04 0.84,-0.23 1.25,-0.21 0.14,-0.18 0.29,-0.4 0.01,-0.62 -0.33,-0.14 -4.06,0.8 -4.72,0.95 -0.72,0.16 -4.37,1.05 -4.73,0.99l-0.36 0.14c-0.15,0.03 -0.27,0.06 -0.42,0.09 -0.26,0.06 -0.58,0.13 -0.86,0.17l-3.39 0.78 -3.56 0.77c-0.09,-0.37 -0.17,-0.74 -0.25,-1.09 -0.14,-0.62 0.17,-1.1 0.53,-1.95 0.1,-0.24 0.08,-0.23 0.34,-0.31 0.19,-0.06 0.41,-0.11 0.6,-0.1 0.19,-0.18 1.08,-0.35 1.38,-0.41 -0.11,-0.11 0.05,-0.08 -0.26,-0.17 -0.03,-0.01 -0.81,-0.03 -0.99,0.06 0.11,0.23 0.08,0.01 0.16,0.24 -0.2,0 -0.42,0.08 -0.56,0.06 -0.4,-0.05 -0.1,0.01 -0.21,-0.12 -0.22,-0.27 0.14,-0.03 -0.12,-0.2l-0.09 0.06c-0.03,0.02 -0.05,0.03 -0.11,0.09 -0.09,0.1 -0.08,0 -0.06,0.15 -0.09,-0.41 0,-0.3 0.23,-0.44 -0.07,-0.38 -0.12,-0.15 -0.11,-0.43 0.38,-0.03 0.13,-0.02 0.26,-0.12l-0.24 0.01 -1.38 -2.75 1.24 -0.3 0.26 -0.02c0.25,-0.19 0.86,-0.27 1.21,-0.33 0.4,0.47 0.93,2.13 1.31,2.48 0.27,-0.26 0.07,0.25 0.22,-0.18l-0.43 -1.02 -0.11 -0.14 -0.58 -1.2 1.65 -0.44 0.58 -0.12c0.19,0.2 0.53,1.01 0.54,1.3 0.17,0.15 0.57,1.13 0.63,1.41 0.26,-0.07 0.19,0.06 0.29,-0.23l-0.62 -1.6c-0.13,-0.13 -0.38,-0.78 -0.43,-1l0.57 -0.06c0.27,-0.22 0.85,-0.23 1.2,-0.36l0.5 -0.1c0.1,0.27 0.23,0.51 0.24,0.78 0.19,0.18 0.61,1.48 0.71,1.82 -0.29,0.18 -0.95,0.2 -1.22,0.42 0.05,0.02 0.13,0.05 0.18,0.06 0.34,0.06 0.42,-0.14 1.01,-0.05 0.19,0.03 0.18,-0 0.41,0 -0,-0.28 0.01,-0.27 0.11,-0.47l0.14 0.16c0.02,0.06 -0.03,0.1 -0.04,0.2 -0.01,0.09 0.02,0.37 0.04,0.55l-0.94 0.04c0.01,0.22 -0.04,0.15 -0.07,0.44 0.38,-0.02 0.22,-0.08 0.49,-0.12 0.11,-0.02 0.39,-0.02 0.49,0.03l0.17 -0.06c0.22,-0.23 0.11,-0.42 -0.05,-0.6l8.01 -2.17 0.83 -0.26c0.68,-0.12 0.55,-0.15 0.61,-0.8 -0.18,-0.22 -0.38,-2.92 -0.45,-3.46 -0.08,-0.59 -0.42,-3.05 -0.4,-3.46 1.08,-0.01 2.01,-0.25 2.56,-1.34 0.81,-1.61 -0.3,-2.64 -0.47,-3 -0.19,-0.05 -0.15,-0.09 -0.37,-0.24l-0.41 -0.27c-0.37,0.02 -0.71,-0.19 -1.33,-0.11 -0.5,0.07 -0.82,0.33 -1.08,0.36l-0 -0z"/>
   <path class="fil1" d="M22.29 15.62l7.43 -1.32 0.1 -2.06 -1.77 -0.09c-0.14,0.14 -1.95,1.04 -2.33,1.24 -0.42,0.22 -0.8,0.4 -1.23,0.63 -0.41,0.22 -0.91,0.67 -1.11,0.14l-1.28 -2.48 -0.49 -0.01 -5.5 -0.36 -0.07 0.87c0.24,-0.15 0.25,-0.22 0.5,-0.12l5.07 2.94c0.6,0.35 0.39,0.22 0.56,0.47l0.07 0.1c0.01,-0.01 0.03,0.04 0.04,0.05l-0 -0z"/>
   <path class="fil2" d="M15.53 11.06c-0.01,0.52 -0.06,1.07 -0.11,1.58 -0.06,0.74 0.04,0.69 -0.32,1.28 -0.22,0.36 -1.07,1.69 -1.04,2.05 0.13,0.17 0.85,0.57 1.06,0.66l-0.01 0.25c0.14,-0.02 0.33,-0.07 0.48,-0.08 0.53,-0.03 0.11,0.07 0.42,-0.01 0.17,-0.04 0.08,0 0.19,-0.08 -0.46,0.03 -1.12,-0.43 -1.45,-0.66 0.04,-0.17 0.48,-0.91 0.55,-0.98 0.22,-0.47 0.53,-0.97 0.77,-1.39 0.15,-0.26 0.27,-0.44 0.4,-0.69 0.23,-0.4 0.17,-0.45 0.62,-0.27 0.08,0.17 1.97,1.13 2.24,1.34l0.15 0.14c0.23,0.01 0.84,0.4 1.01,0.55l0.9 0.5c-0.04,0.3 -0.13,0.31 -0.22,0.56 1.16,-0.18 0.89,-0.33 0.84,-0.09 0.51,0 0.06,0.02 0.26,-0.11 -0.02,-0.01 -0.03,-0.06 -0.04,-0.05l-0.07 -0.1c-0.17,-0.25 0.04,-0.13 -0.56,-0.47l-5.07 -2.94c-0.25,-0.09 -0.26,-0.03 -0.5,0.12l0.07 -0.87 5.5 0.36 0.29 0.03 0.07 -0.47c0.15,-0.07 0.12,-0.08 0.3,-0.17l-0.47 -0.05 0.47 0.01c-0.18,-0.12 -4.62,-0.4 -5.42,-0.44 -1.25,-0.07 -1.18,-0.16 -1.32,0.48l0 0z"/>
   <path class="fil3" d="M31.64 7.41c0.17,-0.48 0.67,-0.4 0.69,-0 0.01,0.23 -0.13,0.36 -0.32,0.37 -0.3,0.02 -0.3,-0.18 -0.37,-0.37zm1.12 -0.32c-0.07,-0.42 0.25,-0.77 0.62,-0.83 0.44,-0.07 0.83,0.27 0.87,0.65 0.11,0.98 -1.34,1.1 -1.49,0.18l0 -0zm-2.36 -0.22c-0.13,-0.6 0.31,-0.77 0.54,-0.49 0.12,0.15 0.1,0.38 -0.02,0.49 -0.18,0.17 -0.37,0.04 -0.52,-0l0 0zm0.61 -0.94c0.13,-0.33 0.17,-0.01 0.41,-0.79 0.25,0.07 1.37,0.77 1.6,0.95 -0.37,0.37 -0.31,0.23 -0.44,0.78l-1.58 -0.93 0 0zm-0.88 -1.46c0.95,-0.49 1.48,0.91 0.7,1.3 -0.92,0.45 -1.58,-0.84 -0.7,-1.3zm-1.47 1.37c-0.22,0.36 -0.77,0.72 -0.63,1.2 0.17,0.55 1.01,0.44 1.18,0.03l0.89 -0.56c0.19,0.29 0.03,0.29 0.33,0.55 0.32,0.08 0.43,-0.02 0.67,0.05 0.12,0.04 0.34,0.21 0.39,0.31 0.3,0.63 0.01,0.42 0.93,0.48 -0.02,0.52 -0.38,1.52 -0.08,1.87 0.16,0.2 0.57,0.29 0.82,0.08 0.18,-0.15 0.94,-1.96 1.08,-2.25 0.74,-1.56 -0.8,-1.56 -1.11,-1.75l-1.34 -0.83c-0.88,-0.55 -1.08,-1.72 -2.43,-0l-0.68 0.82 0 -0z"/>
   <path class="fil0" d="M38.69 17.48c0.03,-0.27 -0.1,-0.91 0.24,-0.91 0.34,0 0.21,0.63 0.24,0.91 0.32,0.04 0.63,-0.05 0.86,0.11 0.18,0.46 -0.49,0.35 -0.83,0.35 -0.12,0.39 0.13,1.07 -0.4,0.88 -0.15,-0.24 -0.06,-0.55 -0.1,-0.87 -0.33,-0.02 -0.67,0.03 -0.9,-0.12 -0,-0.5 0.42,-0.31 0.9,-0.34l0 0zm1.58 -1.21c-0.43,-0.33 -0.58,-0.39 -1.07,-0.51 -1.02,-0.03 -1.83,0.37 -2.14,1.35 -0.68,2.1 2.17,3.55 3.49,1.7 0.64,-0.91 0.34,-1.8 -0.27,-2.54l0 0z"/>
   <path class="fil0" d="M23.48 25.93c-0.28,-0.01 -0.29,0.03 -0.55,0.11 -0.22,0.06 -0.26,0.11 -0.39,-0.01 -0.1,0.29 -0.03,0.16 -0.29,0.23 -0.37,-0 -1.65,0.41 -2.07,0.52l-0.2 -0.3c-0.15,0.43 0.05,-0.08 -0.22,0.18l0.01 0.24 -1.1 0.28 -0.75 0.21 -0.56 0.19c-0.13,0.1 0.12,0.09 -0.26,0.12 -0.01,0.28 0.04,0.05 0.11,0.43 -0.23,0.14 -0.32,0.03 -0.23,0.44 -0.02,-0.15 -0.03,-0.05 0.06,-0.15 0.06,-0.07 0.08,-0.07 0.11,-0.09l0.09 -0.06c0.26,0.17 -0.1,-0.07 0.12,0.2 0.11,0.13 -0.19,0.08 0.21,0.12 0.15,0.02 0.36,-0.06 0.56,-0.06 -0.08,-0.22 -0.05,-0 -0.16,-0.24 0.19,-0.09 0.96,-0.07 0.99,-0.06 0.31,0.09 0.15,0.06 0.26,0.17 0.45,-0.16 3.65,-1.04 3.96,-1.01l0.09 -0.05c0.06,-0.03 0.07,-0.04 0.14,-0.06 0.32,-0.11 1.78,-0.43 1.89,-0.52 -0.1,-0.04 -0.38,-0.04 -0.49,-0.03 -0.27,0.05 -0.12,0.1 -0.49,0.12 0.03,-0.29 0.08,-0.22 0.07,-0.44l0.94 -0.04c-0.01,-0.18 -0.05,-0.45 -0.04,-0.55 0.01,-0.1 0.05,-0.14 0.04,-0.2l-0.14 -0.16c-0.09,0.2 -0.11,0.18 -0.11,0.47 -0.23,-0 -0.22,0.03 -0.41,-0 -0.59,-0.08 -0.67,0.11 -1.01,0.05 -0.06,-0.01 -0.13,-0.04 -0.18,-0.06l0 0z"/>
   <path class="fil4" d="M3.41 10.07c0.2,0.13 0.29,0.26 0.35,0.47 -0.12,0.18 -0.25,0.29 -0.48,0.34 -0.23,-0.17 -0.31,-0.3 -0.34,-0.56 0.15,-0.09 0.25,-0.2 0.47,-0.26l0 0zm0.77 -0.54c0.12,0.17 0.28,0.33 0.34,0.58 -0.25,0.09 -0.29,0.21 -0.55,0.3 -0.11,-0.17 -0.23,-0.31 -0.31,-0.51l0.52 -0.37 -0 0zm0.71 -0.48l0.22 0.25c0.05,0.07 0.08,0.13 0.15,0.21 -0.13,0.18 -0.3,0.29 -0.5,0.39 -0.16,-0.12 -0.29,-0.32 -0.38,-0.53l0.51 -0.32 0 0zm-2.34 -0.37c0.1,0.21 0.17,0.3 0.31,0.52l-0.14 0.13c-0.04,0.03 -0.07,0.06 -0.11,0.08 -0.09,0.06 -0.17,0.12 -0.28,0.17 -0.09,-0.18 -0.22,-0.32 -0.33,-0.5l0.56 -0.39zm0.19 -0.12c0.12,-0.16 0.35,-0.3 0.51,-0.35 0.15,0.15 0.23,0.27 0.32,0.48 -0.13,0.17 -0.32,0.26 -0.47,0.35 -0.12,-0.1 -0.3,-0.32 -0.36,-0.48l0 0zm-1.2 -0.26c0.12,-0.18 0.24,-0.25 0.47,-0.31 0.2,0.18 0.28,0.24 0.33,0.5 -0.15,0.17 -0.27,0.28 -0.55,0.34 -0.14,-0.23 -0.23,-0.24 -0.25,-0.53l-0 0zm2.44 -0.62c0.14,0.18 0.24,0.28 0.34,0.49 -0.11,0.15 -0.34,0.31 -0.52,0.37 -0.14,-0.15 -0.25,-0.31 -0.35,-0.5l0.52 -0.36 0 0zm-1.75 0.12c0.19,-0.13 0.27,-0.24 0.54,-0.33l0.31 0.51c-0.15,0.14 -0.31,0.27 -0.49,0.35l-0.22 -0.26c-0.05,-0.09 -0.1,-0.18 -0.13,-0.27l0 0zm-1.23 -0.21c0.14,-0.16 0.28,-0.28 0.5,-0.34l0.35 0.48c-0.18,0.18 -0.25,0.22 -0.47,0.35 -0.17,-0.1 -0.27,-0.28 -0.37,-0.49zm1.47 -1.12l0.04 0c0,-0.02 0.01,-0.13 0.01,-0.16l0.29 -0.1c0.12,-0.04 0.23,-0.25 0.58,0.34 0.21,0.36 -0.15,0.27 0.27,0.43l-0.06 0.11 0.23 0.39 -0.54 0.35c-0.1,-0.16 -0.22,-0.31 -0.34,-0.49 0.06,-0.1 0.02,-0.04 0.08,-0.13l0.06 -0.07c-0.3,0.1 -0.22,0.1 -0.53,0.01 -0.02,0.21 -0.16,0.3 -0.49,0.44 -0.13,-0.14 -0.28,-0.33 -0.36,-0.5 0.11,-0.13 0.33,-0.29 0.55,-0.33l0.26 0.34c0,-0 0.15,0.13 0.01,-0.16 -0.1,-0.2 -0.23,0.03 -0.18,-0.3 0.03,-0.26 -0.08,-0.06 0.12,-0.16l-0 -0zm-1.96 0.99l1.83 2.61c0.28,0.42 0.55,0.92 0.88,1.3l1.93 -1.34c0.2,-0.18 0.31,-0.15 0.52,-0.39l-1.32 -1.97c-0.01,-0.01 -0.02,-0.03 -0.02,-0.04l-1.02 -1.42c-0.17,-0.25 -0.13,-0.41 -0.44,-0.39l-0.49 0.37c-0.19,0.12 -0.44,0.29 -0.65,0.44 -0.22,0.14 -0.37,0.26 -0.59,0.43 -0.19,0.14 -0.38,0.25 -0.62,0.42l0 -0z"/>
   <path class="fil5" d="M22.1 11.68l1.28 2.48c0.15,-0.26 2.65,-1.28 2.98,-1.63 -0.4,-0.18 -0.74,-0.09 -1.18,-0.71 -0.33,-0.47 -0.26,-1.06 -0.05,-1.59 -0.12,-0.16 0.05,-0.05 -0.22,-0.07 -0.18,0.19 -1.14,0.62 -1.42,0.77 -0.47,0.25 -0.99,0.49 -1.39,0.76l0 0z"/>
   <polygon class="fil1" points="21.79,16.42 22.67,18.89 25.23,18.41 24.51,15.94 "/>
   <path class="fil6" d="M0.5 7.47c0.25,-0.17 0.43,-0.28 0.62,-0.42 0.22,-0.16 0.38,-0.28 0.59,-0.43 0.21,-0.14 0.46,-0.31 0.65,-0.44l0.49 -0.37c0.31,-0.02 0.27,0.14 0.44,0.39l1.02 1.42c0.01,0.01 0.02,0.03 0.03,0.04l1.32 1.97c-0.21,0.25 -0.32,0.22 -0.52,0.39l-1.93 1.34c-0.32,-0.39 -0.6,-0.89 -0.88,-1.3l-1.83 -2.61 -0 0zm2.38 3.71c0.11,0.31 0.41,0.69 0.58,0.89 0.43,0.03 0.61,-0.31 0.97,-0.44 0.09,-0.14 1.31,-0.97 1.64,-1.18 0.17,-0.11 0.03,-0.04 0.15,-0.07 0.05,-0.53 -0.4,-0.88 -0.64,-1.24l-2.21 -3.19 -0.22 -0.35c-0.29,-0.36 -0.28,-0.48 -0.78,-0.13l-2.23 1.53c-0.01,0.46 0.4,0.86 0.63,1.19 0.17,0.24 1.98,2.95 2.12,2.99l0 0z"/>
   <path class="fil7" d="M16.44 14.48c-0.01,-0.24 0.17,-0.41 0.28,-0.59 0.21,0.08 0.38,0.16 0.51,0.3 -0.03,0.24 -0.13,0.38 -0.31,0.5 -0.14,-0.04 -0.36,-0.15 -0.47,-0.22l0 0zm-1.14 0.59c0.29,0.16 -0.04,-0.07 0.11,0.14 0.1,0.14 -0.1,-0.05 0.09,0.13 0.11,0.1 0.31,0.12 0.51,0.16 0,0.36 0.02,0.02 -0.13,0.15l0.37 0.23c-0,0.12 -0.01,0.18 -0.01,0.24l0.16 0.09 0.11 -0.17c0.5,0.16 0.37,0.22 0.53,0.5l1.9 -0.34c0.01,-0.02 0.02,-0.04 0.03,-0.05 0.01,-0.01 0.02,-0.04 0.02,-0.05l0.03 -0.11c-0.1,-0.09 -0.19,-0.1 -0.29,-0.21 0.02,-0.23 0.16,-0.37 0.25,-0.55l0.28 0.04 0.2 -0.05c-0.01,-0.22 0.11,-0.03 -0.09,-0.23 -0.17,-0.17 -0.42,-0 -0.61,0.01 -0.03,0.26 -0.14,0.45 -0.32,0.61l-0.52 -0.26 0.08 -0.29 -0.13 -0.06 -0.21 0.15 -0.49 -0.25 0.05 -0.31c0.07,-0.38 0.02,-0.3 0.44,-0.31 0.39,-0.01 -0.27,0.2 0.16,-0.01l-0.22 -0.12c0.05,-0.26 0.06,-0.14 0.16,-0.38 0.01,-0.21 0.03,-0.21 0.07,-0.4 -0.19,-0.02 -0.29,-0.11 -0.42,-0.19l-0.34 -0.2 0.02 -0.25c-0.45,-0.18 -0.4,-0.13 -0.62,0.27 -0.14,0.25 -0.26,0.43 -0.4,0.69 -0.24,0.43 -0.56,0.92 -0.77,1.39l0 -0z"/>
   <path class="fil3" d="M20.16 20.42l0.5 1.15c0.5,0.26 1.18,0.58 1.34,1.35l0.9 -0.22c0.04,-0.01 0.12,-0.03 0.15,-0.05 0.13,-0.06 0.07,-0.03 0.14,-0.08 -0.19,-0.13 -0.09,0.05 -0.15,-0.19 -0.02,-0.08 -0.01,-0.29 -0,-0.38 0.01,-0.18 0.04,-0.5 0.15,-0.59l-0.64 -1.74c-0.3,0.18 -1.61,0.46 -2.1,0.63 -0.11,0.04 -0.02,0.01 -0.14,0.06 -0.04,0.01 -0.09,0.06 -0.1,0.04 -0.01,-0.01 -0.03,0.01 -0.05,0.02l0 0z"/>
   <path class="fil3" d="M22.05 23.37c0.15,0.07 0.09,0.02 0.09,0.18 -0,0.12 -0.03,0.24 -0.06,0.35 -0.03,0.14 -0.08,0.44 -0.17,0.53l0.62 1.6c0.13,0.12 0.17,0.07 0.39,0.01 0.27,-0.07 0.28,-0.11 0.55,-0.11 0.27,-0.22 0.93,-0.24 1.22,-0.42 -0.1,-0.34 -0.52,-1.64 -0.71,-1.82l-0.6 -0.47c-0.01,-0.01 -0.02,-0.02 -0.02,-0.03l-0.11 -0.19c-0.35,0.13 -0.93,0.13 -1.2,0.36l-0 0z"/>
   <path class="fil8" d="M27.19 10.08c1.17,1.18 -0.17,2.45 -1.22,1.97 -1.19,-0.55 -0.67,-2.41 0.61,-2.22l-0.06 -0.09c-0.41,0.17 -0.85,-0.12 -0.9,0.39 -0.18,-0.07 -0.26,-0.14 -0.39,-0.13 -0.24,0 -0.03,-0.01 -0.16,0.04l-0.15 0.12c0.26,0.02 0.1,-0.09 0.22,0.07 -0.21,0.53 -0.28,1.12 0.05,1.59 0.44,0.62 0.78,0.53 1.18,0.71 -0.33,0.36 -2.83,1.37 -2.98,1.63 0.2,0.53 0.7,0.08 1.11,-0.14 0.43,-0.23 0.81,-0.4 1.23,-0.63 0.38,-0.2 2.19,-1.1 2.33,-1.24l0.18 -0.11c0.02,-0.01 0.03,-0.02 0.05,-0.02 1.15,-0.52 0.28,-0.2 0.71,-0.44 0.23,-0.13 0.13,0.01 0.38,-0.09 -0.26,-0.02 -0.29,0.06 -0.35,-0.16l-0.09 -0.1c-0.25,0.13 -0.92,0.53 -1.16,0.55 0.07,-0.2 0.17,-0.31 0.21,-0.62 0.1,-0.71 -0.36,-1.45 -0.99,-1.59l0.13 0.29c0.2,0.3 0.26,0.04 0.07,0.2l0 -0z"/>
   <path class="fil9" d="M24.45 9.58c0.05,-0.15 0.01,-0.14 0.22,-0.24 0.15,-0.07 0.2,-0.08 0.38,-0.08 -0.02,0.2 0.02,0.18 -0.22,0.31 -0.37,0.2 -0.38,0.01 -0.38,0.01l0 0zm1 -0.58c0.15,-0.17 0.76,-0.47 1.02,-0.55l0.16 0.37c-0.24,0.14 -0.8,0.48 -1.07,0.45l-0.11 -0.27zm-1.04 0.17l-0.3 0.19 0.08 0.71 -0.71 0.37c-0.26,-0.43 -0.13,-0.19 -0.67,-0.03l-0.33 0.18c0,0.35 0.21,0.32 -0.22,0.41l-0.47 -0.01 0.47 0.05c-0.18,0.09 -0.15,0.1 -0.3,0.17l-0.07 0.47 -0.29 -0.03 0.49 0.01c0.4,-0.27 0.92,-0.51 1.39,-0.76 0.27,-0.14 1.24,-0.57 1.42,-0.77l0.15 -0.12c0.13,-0.06 -0.08,-0.04 0.16,-0.04 0.13,-0 0.21,0.06 0.39,0.13 0.04,-0.51 0.49,-0.23 0.9,-0.39l0.06 0.09c0.32,0.05 0.38,0.06 0.61,0.25 0.19,-0.16 0.13,0.1 -0.07,-0.2l-0.13 -0.29c-0.12,-0.1 -0.36,-0.13 -0.56,-0.16 0.41,-0.27 1.08,-0.46 1.18,-0.7l-0.12 -0.27 -0.46 0.13c-0.29,-0.19 -0.29,-0.34 -0.63,-0.43l-0.24 0.18c-0.33,0.19 -1.56,0.83 -1.75,0.84l0 0z"/>
   <path class="fil10" d="M8.91 7.56l0.15 0.02c0.24,-0.27 0.4,-0.69 0.66,-0.98 0.21,-0.24 0.57,-0.68 0.91,-0.72l0.16 -0.13c0.44,-0.25 1.26,-0.15 1.69,-0.01 3.17,1.01 1.73,3.76 1.69,4.29l0.14 0.04c0.32,-0.08 0.54,-0.99 0.6,-1.28 0.15,-0.67 0.11,-1.07 -0.09,-1.71 -0.39,-0.8 -0.82,-1.2 -1.64,-1.6l-0.78 -0.34 -1.13 -0.07c-0.24,0.15 -0.65,0.2 -0.93,0.37 -0.53,0.32 -0.91,0.76 -1.2,1.3 -0.08,0.14 -0.16,0.28 -0.22,0.42 -0.09,0.21 -0.1,0.29 -0.01,0.39l0 0z"/>
   <path class="fil11" d="M31.81 19.32c0.31,0.06 0.36,0.05 0.57,0.2 0.06,0.33 -0,0.61 -0.12,0.89 0.22,-0.03 0.38,-0.07 0.59,-0.12 0.11,-0.03 0.18,-0.04 0.26,-0.06 0.33,-0.08 0.08,0.03 0.27,-0.09 0.01,-0.35 0.09,-1.07 0.24,-1.31l-0.2 -1.52 -1.92 0.33 0.3 1.69 -0 0z"/>
   <path class="fil1" d="M23.41 20.86l0.54 1.53c0.49,0.01 1.74,-0.41 2.32,-0.51l-0.51 -1.71c-0.16,0.1 -0.35,0.04 -0.35,0.04 -1.34,-0.14 -1.49,0.41 -1.99,0.65l0 0z"/>
   <path class="fil1" d="M16.81 33.88l-0.03 0.44c0.9,0.29 0.8,1.84 -0.31,1.97 -1.2,0.13 -1.55,-1.36 -0.79,-1.85l-0.05 -0.29 -0.05 -0.34c-0.62,0.25 -1.1,1.04 -0.85,1.88 0.54,1.82 3,1.44 3.22,-0.12 0.19,-1.38 -0.76,-1.67 -1.02,-1.87 -0.08,0.08 -0.05,-0.05 -0.12,0.18l0 0z"/>
   <path class="fil1" d="M32.55 30.57l-0.01 0.29c0.96,0.5 0.56,1.93 -0.46,1.96 -0.88,0.02 -1.31,-0.84 -0.99,-1.52 0.16,-0.35 0.3,-0.2 0.26,-0.56l-0.05 -0.44c-0.72,0.27 -1.11,1.22 -0.78,2.1 0.3,0.81 0.96,1.06 2.05,0.97 0.07,-0.06 1.08,-0.41 1.13,-1.51 0.04,-0.88 -0.46,-1.42 -1.13,-1.67l-0.01 0.38 0 0z"/>
   <path class="fil1" d="M26.42 15.6l-1.54 0.26c0.09,0.43 0.6,2.2 0.76,2.46 0.42,-0.09 2.21,-0.34 2.45,-0.5 0.17,-0.15 -0.16,-1.02 -0.2,-1.23 -0.05,-0.22 -0.09,-0.41 -0.14,-0.62 -0.15,-0.67 0.01,-0.51 -0.33,-0.57 0.03,0.48 0.13,0.1 0.13,0.63 0,0.38 0.14,0.7 0.06,0.95 -0.12,0.39 -0.24,0.06 -0.24,0.85 -0.23,0 -0.3,0.06 -0.53,0.1 -0.4,0.07 0.01,-0 -0.39,-0.03 -0.14,-0.27 -0.08,-0.72 -0.08,-1.15 0,-0.38 0.05,-0.82 0.04,-1.15l0 0z"/>
   <path class="fil2" d="M16.46 17.36c0.2,0.27 0.77,0.49 1.08,0.68 0.35,0.21 0.67,0.38 1.01,0.62l-2.37 -0.17 -0.08 0.13c-0.01,0.01 -0.02,0.05 -0.04,0.07 0.26,0.12 0.19,0.19 0.38,0.57 0.11,0.21 0.23,0.44 0.34,0.68 0.3,0.02 2.31,-0.33 2.54,-0.44 -0.02,-0.22 -0.12,-0.34 -0.19,-0.56 -0.09,-0.26 -0.09,-0.47 -0.25,-0.66 -0.05,0.09 0.06,0.19 -0.25,0.03l-1.21 -0.72c-0.21,-0.12 -0.35,-0.15 -0.44,-0.36 -0.09,0.03 -0.17,0.06 -0.26,0.08 -0.19,0.05 -0.06,0.05 -0.25,0.05l0 0z"/>
   <path class="fil3" d="M17.24 24.52l0.2 0.02 0.09 0.36c0.04,0.14 0.08,0.26 0.12,0.4 0.07,0.27 0.14,0.52 0.22,0.79 0.09,0.3 0.13,0.57 0.23,0.82 0.14,0.38 0.08,0.18 0.42,0.21 0.23,0.02 0.01,-0.12 0.15,0.06l1.1 -0.28 -0.01 -0.24c-0.38,-0.35 -0.9,-2.01 -1.31,-2.48 -0.34,0.06 -0.95,0.14 -1.21,0.33l0 0z"/>
   <path class="fil11" d="M30.01 20.96c0.07,-0.48 0.05,-0.7 0.54,-0.77 0.01,-0.15 0.09,-0.58 0.13,-0.73 0.11,-0.4 0.34,-0.29 0.71,-0.25l-0.24 -1.48 -1.38 0.23c-0.11,0.91 -0.51,2.31 -0.5,3.16l0.74 -0.15 0 0z"/>
   <path class="fil3" d="M26.35 20.69l0.03 -0.09c0.12,0.25 0.2,0.26 0.34,0.49 0.15,0.24 0.1,0.36 0.29,0.59 0.31,-0.08 0.8,-0.11 1.02,-0.29l-0.23 -0c-0.05,-0.48 -0.27,-1 -0.41,-1.51l-0.33 -1.14c-0.14,-0.33 -0.12,0.01 -0.17,-0.2 -0,-0.02 -0.03,-0.01 -0.04,-0.02l-1.13 0.2c0.07,0.34 0.44,1.78 0.62,1.97l0 0z"/>
   <path class="fil1" d="M18.29 22.87c0.03,0.24 0.26,0.65 0.38,0.83l2.25 -0.54 -0.72 -1.73c-0.2,0.2 0.05,0.06 -0.31,0.13 -0.95,0.19 -1.19,0.49 -1.59,1.3z"/>
   <path class="fil12" d="M23.41 20.86c0.5,-0.24 0.65,-0.79 1.99,-0.65 0,0 0.19,0.07 0.35,-0.04l-0.39 -1.37 -2.55 0.47 0.59 1.59z"/>
   <path class="fil1" d="M29.45 17.65l0.2 -2.66 -1.65 0.32c-0.01,0.29 0.42,2.26 0.56,2.45l0.89 -0.12 0 0z"/>
   <path class="fil12" d="M24.58 24.1c0.11,0.41 0.33,0.98 0.49,1.35l2.1 -0.56c-0.08,-0.32 -0.4,-1.55 -0.55,-1.71 -0.08,0.26 -0.1,0.29 -0.34,0.44 -0.1,0.07 -0.35,0.24 -0.47,0.3 -0.49,0.22 -0.99,0.1 -1.23,0.18l0 0z"/>
   <path class="fil1" d="M24.58 24.1c0.24,-0.08 0.74,0.04 1.23,-0.18 0.12,-0.05 0.36,-0.23 0.47,-0.3 0.24,-0.16 0.26,-0.18 0.34,-0.44 0,-0.27 -0.15,-0.68 -0.23,-0.91l-2.27 0.57 0.47 1.26 0 -0z"/>
   <path class="fil3" d="M17.48 21.32c0.11,0.33 0.57,1.38 0.81,1.56 0.4,-0.81 0.64,-1.11 1.59,-1.3 0.36,-0.07 0.11,0.07 0.31,-0.13l-0.39 -0.88c-0.44,-0.07 -1.64,0.51 -2.26,0.55 -0,0.01 -0.03,0.16 -0.03,0.16l-0.03 0.06 0 0z"/>
   <path class="fil3" d="M27.5 24.54c0.27,-0.08 0.81,-0.19 1.07,-0.35 0.11,-0.53 -0.67,-1.92 -0.52,-2.31l-1.28 0.31c0.03,0.34 0.58,2.19 0.74,2.35z"/>
   <path class="fil2" d="M20.24 16.68l0.39 -0.01c-0.12,0.32 -0.65,1.19 -0.89,1.58 -0.3,0.49 -0.12,0.35 -0.37,0.44 0.07,0.27 0.16,0.06 0.33,0.75 0.47,-0.05 0.98,-0.18 1.47,-0.26 0.24,-0.04 0.46,-0.11 0.71,-0.13 0.13,-0.01 0.76,-0.02 0.39,-0.21 -0.12,0.16 0.05,0.07 -0.25,0.1l-1.73 -0.13 1.03 -1.85c0.18,-0.27 0.05,-0.12 0.23,-0.22 -0.1,-0.22 -0.04,-0.06 -0.1,-0.27 -0.83,0.26 -0.9,-0.06 -1.22,0.21l0 0z"/>
   <path class="fil1" d="M5.55 13.29c-0.26,0.41 -0.09,0.7 0.2,0.96 0.49,0.25 0.62,-0.05 1.18,0.08 0.35,0.08 0.85,0.29 1.18,0.17l0.13 -0.7 -0.02 -0.17c-0.25,-0.04 -1.35,-0.28 -1.49,-0.37 -0.03,-0.02 -0.67,-0.7 -1.17,0.04l-0 0z"/>
   <path class="fil13" d="M12.07 10.27c-0.14,0.2 -0.35,0.32 -0.52,0.48 -0.67,0.65 -0.63,0.51 -0.22,1.21l0.27 0.01 1.99 -1.75c0.01,-0.43 -0.26,-0.76 -0.75,-0.6 -0.14,0.05 -0.57,0.49 -0.78,0.65z"/>
   <path class="fil13" d="M9.27 8.16l-0.05 2.66 0.06 0.19 0.68 -0.02c0.21,-0.3 0.2,-0.2 0.2,-0.7 0.01,-1.01 0.24,-1.54 -0.15,-2.23 -0.41,-0.03 -0.47,-0.08 -0.74,0.11l0 0z"/>
   <path class="fil1" d="M26.42 15.6c0,0.32 -0.04,0.76 -0.04,1.15 -0,0.43 -0.06,0.88 0.08,1.15 0.4,0.03 -0.01,0.1 0.39,0.03 0.23,-0.04 0.3,-0.09 0.53,-0.1 -0,-0.79 0.12,-0.46 0.24,-0.85 0.08,-0.25 -0.06,-0.57 -0.06,-0.95 -0,-0.53 -0.1,-0.15 -0.13,-0.63l-0.99 0.2z"/>
   <path class="fil3" d="M25.71 10.86l-0.02 -0.34 0.32 0.01c-0,-0 -0.21,-0.23 0.38,-0.28 0.36,-0.03 0.6,0.1 0.75,0.39 0.04,0.08 0.06,0.12 0.07,0.24 0.07,0.67 -0.59,1.03 -1.08,0.78 -0.21,-0.1 -0.35,-0.4 -0.41,-0.63 -0.05,-0.22 -0.1,-0.03 -0,-0.16zm1.48 -0.79c-0.24,-0.19 -0.29,-0.21 -0.61,-0.25 -1.27,-0.19 -1.8,1.67 -0.61,2.22 1.04,0.48 2.39,-0.79 1.22,-1.97l-0 0z"/>
   <path class="fil2" d="M28.05 12.15l1.77 0.09 -0.1 2.06c0.16,-0.09 0.17,-0.12 0.52,-0.09 0.01,-0.2 -0.02,-0.4 0.09,-0.52 0.05,-0.3 0.1,-1.18 0.12,-1.58 0.04,-0.73 -0.46,-0.59 -1.09,-0.62 -0.24,0.1 -0.14,-0.04 -0.38,0.09 -0.43,0.24 0.44,-0.08 -0.71,0.44 -0.02,0.01 -0.03,0.01 -0.05,0.02l-0.18 0.11 0 0z"/>
   <path class="fil14" d="M31.34 30.74c0.04,0.36 -0.1,0.21 -0.26,0.56 -0.31,0.68 0.11,1.54 0.99,1.52 1.02,-0.03 1.42,-1.46 0.46,-1.96l0.01 -0.29c-0.14,0.22 -0.12,0.75 -0.14,1.03 -0.04,0.43 -0.15,0.56 -0.59,0.5 -0.31,-0.4 -0.29,-1.19 -0.47,-1.36l0 0z"/>
   <path class="fil15" d="M18.64 14.07c0.24,0 0.37,0.1 0.53,0.17 -0.01,0.3 -0.08,0.4 -0.27,0.59 -0.21,-0.05 -0.39,-0.2 -0.52,-0.33l0.27 -0.43 0 0zm-0.87 -0.3l0.18 -0.19 0.51 0.31 -0.34 0.53 -0.29 -0.15c-0.43,0.21 0.22,-0 -0.16,0.01 -0.41,0.01 -0.37,-0.07 -0.44,0.31 0.19,-0.15 0.1,-0.03 0.21,-0.24 0.29,0.06 0.34,0.07 0.53,0.3l-0.1 0.36 0.13 0.06 0.13 -0.15c0.07,-0.08 0.05,-0.07 0.12,-0.13l0.5 0.22c0.19,-0.01 0.44,-0.18 0.61,-0.01 0.2,0.2 0.08,0.01 0.09,0.23l-0.2 0.05 0.18 0.19c0.12,0.13 0.04,-0.04 0.09,0.18 0.05,0.18 -0.03,0.1 0.2,0.04 0.14,0.02 0.14,0.02 0.24,0.07 0.01,0.01 0.1,0.06 0.12,0.07 0.14,0.1 0.07,0.05 0.15,0.13l0.95 -0.12c0.09,-0.25 0.18,-0.26 0.22,-0.56l-0.9 -0.5c-0.13,0.12 -0.04,0.1 -0.25,0.14 0.18,0.09 0.37,0.17 0.48,0.32 -0.07,0.24 -0.13,0.34 -0.3,0.5 -0.25,-0.07 -0.44,-0.15 -0.52,-0.35 -0.23,0.2 0.2,-0.21 -0.07,0.09l-0.14 0.14c-0,-0.32 0.01,-0.37 -0.14,-0.53 -0.01,-0.01 -0.02,-0.02 -0.03,-0.03l-0.43 -0.27c0.22,-0.29 0.11,-0.18 0.23,-0.51l0.17 -0.05 -0.15 -0.14c-0.27,-0.21 -2.16,-1.16 -2.24,-1.34l-0.02 0.25 0.34 0.2c0.13,0.08 0.23,0.17 0.42,0.19 -0.04,0.19 -0.06,0.2 -0.07,0.4l0 0z"/>
   <path class="fil14" d="M16.77 34.33c-0.08,0.44 0.01,1.6 -0.65,1.28 -0.38,-0.19 -0.28,-1.12 -0.49,-1.45l0.05 0.29c-0.76,0.49 -0.41,1.99 0.79,1.85 1.1,-0.12 1.21,-1.68 0.31,-1.97l0 0z"/>
   <path class="fil1" d="M26.86 18.52c0.01,0.01 0.03,0 0.04,0.02 0.05,0.21 0.04,-0.12 0.17,0.2l0.33 1.14c0.13,0.51 0.36,1.02 0.41,1.51l0.23 0 0.18 0.05c0.08,-0.17 0.08,0.13 0.02,-0.26 -0.03,-0.24 -0.47,-1.44 -0.5,-1.85l0.57 0.04c0.27,-0.07 0.05,0.12 0.21,-0.13l-0.23 -0.95c-0.34,-0.03 -1.08,0.14 -1.42,0.23l0 0z"/>
   <path class="fil5" d="M26.99 9.58c0.63,0.14 1.08,0.88 0.98,1.59 -0.04,0.31 -0.14,0.42 -0.21,0.62 0.24,-0.02 0.91,-0.42 1.16,-0.55 -0.19,-0.39 -0.44,-0.89 -0.66,-1.29 -0.23,-0.4 -0.41,-0.88 -0.66,-1.22 -0.1,0.24 -0.78,0.42 -1.18,0.7 0.2,0.03 0.45,0.06 0.56,0.16z"/>
   <path class="fil2" d="M14.91 19.69l0.07 0.26c0.01,0.13 -0,0.25 -0.02,0.37 0.29,-0.03 0.48,-0.08 0.74,-0.12l0.52 -0.09c0.19,-0.08 0.06,0 0.15,-0.09l-0.64 -1.38c-0.01,-0.01 -0.02,-0.02 -0.02,-0.03l-0.22 -0.44c-0.19,-0.31 -0.08,-0.44 -0.42,-0.55l-0.15 2.08 0 -0z"/>
   <path class="fil1" d="M20.5 23.67c0.06,0.17 0.04,0.02 0.01,0.13 -0.04,0.15 0.02,0.03 -0.19,0.18 -0.21,0.15 -0,0.35 -0.1,0.75 -0.03,0.13 -0.03,0.06 -0.05,0.12l-0.13 0.28c-0.01,0.02 -0.02,0.07 -0.03,0.06 -0.01,-0.01 -0.01,0.05 -0.03,0.06 -0.14,-0.03 -0.12,-0 -0.19,-0.08 -0.2,0.02 -0.01,0.04 -0.19,-0.24l-0.17 0.37 0.11 0.14 0.31 -0.02c0.44,0.05 0.9,0.09 1.49,-0.37l0.17 -0.14c0.01,-0.01 0.02,-0.02 0.03,-0.02 0.05,-0.04 0.02,-0 0.08,-0.06 -0.01,-0.29 -0.35,-1.09 -0.54,-1.3l-0.58 0.12 0 0z"/>
   <path class="fil1" d="M22.28 18.83c-0.12,-0.25 -0.72,-1.87 -0.72,-2.1 -0.18,0.1 -0.05,-0.05 -0.23,0.22l-1.03 1.85 1.73 0.13c0.3,-0.03 0.13,0.06 0.25,-0.1l0 0z"/>
   <path class="fil3" d="M17.43 23.99l0.84 -0.2 -1.3 -2.57c-0.21,0.22 -0.13,0.06 -0.37,0.22 -0.06,0.44 0.51,1.86 0.59,2.46l0.23 0.1z"/>
   <path class="fil1" d="M15.73 22.02l0.19 0.6 0.48 -0.05 0.41 1.55 0.63 -0.13 -0.23 -0.1c-0.08,-0.6 -0.66,-2.02 -0.59,-2.46 0.24,-0.16 0.16,0 0.37,-0.22l-0.18 -0.34c-0.45,0.19 -0.68,0.15 -0.67,0.8l-0.42 0.1 0.02 0.25 0 -0z"/>
   <path class="fil1" d="M16.18 18.49l2.37 0.17c-0.34,-0.24 -0.65,-0.41 -1.01,-0.62 -0.31,-0.19 -0.88,-0.41 -1.08,-0.68l-0.81 0.16c0.03,0.23 0.12,0.36 0.2,0.54 0.11,0.23 0.09,0.37 0.33,0.43l0 0z"/>
   <path class="fil16" d="M19.37 18.68c0.25,-0.09 0.07,0.05 0.37,-0.44 0.23,-0.38 0.77,-1.25 0.89,-1.58l-0.39 0.01c-0.34,0.09 -1.32,0.19 -1.51,0.33 0.12,0.52 0.25,0.35 0.57,0.64 -0.05,0.34 -0.18,0.21 -0.09,0.52 0.07,0.23 0.15,0.26 0.17,0.51l0 0z"/>
   <path class="fil17" d="M29.83 23.39l0.09 0.36 0.69 0.19 1.01 -0.28 0.06 -0.38 0.02 -0.25c-0.07,-0.11 0.12,-0.02 -0.15,-0.1l-0.65 -0.12c-0.31,-0.07 -0.52,-0.14 -0.86,-0.16l-0.2 0.74 -0 0z"/>
   <path class="fil1" d="M17.92 27.39l0.75 -0.21c-0.14,-0.19 0.07,-0.04 -0.15,-0.06 -0.34,-0.03 -0.28,0.17 -0.42,-0.21 -0.09,-0.25 -0.13,-0.52 -0.23,-0.82 -0.08,-0.27 -0.15,-0.52 -0.22,-0.79 -0.04,-0.14 -0.07,-0.26 -0.12,-0.4l-0.09 -0.36 -0.2 -0.02 -0.26 0.02 0.46 1.75 -0.4 0.2 0.24 0.79c0.29,-0 0.29,-0.05 0.52,0.05 0.38,0.16 -0.22,-0.02 0.12,0.06l0 0z"/>
   <path class="fil18" d="M32.46 20.84c0.11,0.23 0.04,0.36 -0.02,0.6 -0.02,0.1 -0.04,0.26 -0.07,0.35 -0.05,0.17 -0.04,0.11 -0.12,0.21l0.19 1.44 0.4 -0.14c-0.02,-0.53 0.34,-1.92 0.38,-2.34 0.02,-0.27 -0,-0.26 -0.05,-0.33l-0.71 0.2 0 -0z"/>
   <path class="fil1" d="M26 10.53c0,0.01 0.01,0.14 0.01,0.14 -0.04,0.21 -0.08,0.12 -0.1,0.17 -0.01,0.02 -0.04,0.01 -0.05,0.02 -0.06,0.01 -0.1,0.01 -0.16,0.01 -0.1,0.13 -0.05,-0.06 0,0.16 0.06,0.23 0.2,0.53 0.41,0.63 0.49,0.25 1.15,-0.11 1.08,-0.78 -0.01,-0.12 -0.03,-0.16 -0.07,-0.24 -0.14,-0.28 -0.39,-0.42 -0.75,-0.39 -0.59,0.05 -0.38,0.28 -0.38,0.28z"/>
   <path class="fil4" d="M30.99 22.21c-0.16,-0.13 -0.31,-0.31 -0.41,-0.56 0.43,-0.04 0.33,0.2 0.66,-0.04l0.03 0.32c0.2,-0.1 0.1,-0.24 0.35,-0.05 -0.17,0.19 -0.33,0.28 -0.62,0.33zm-0.89 -0.8c-0.08,1.02 -0.48,0.91 0.87,1.18 0.39,0.08 0.6,0.19 0.98,0.1l-0.15 -1 -0.25 0c-0.01,-0 -0.03,-0.01 -0.04,-0.01l-0.07 -0.02c-0.14,-0.06 -0,0.09 -0.14,-0.15 -0.07,-0.13 0.03,-0.03 -0.08,-0.14 -0.08,0.2 -0,0.1 -0.17,0.25l-0.41 -0.1c-0.17,-0.1 -0.12,-0.38 -0.55,-0.1l0 -0z"/>
   <path class="fil1" d="M31 5.93l1.58 0.93c0.12,-0.55 0.07,-0.41 0.44,-0.78 -0.23,-0.17 -1.35,-0.87 -1.6,-0.95 -0.24,0.78 -0.29,0.46 -0.41,0.79l0 0z"/>
   <path class="fil10" d="M13.7 10.35l-1.99 1.71c-0.06,0.21 0.03,0.24 0.22,0.39 0.54,-0.15 1.39,-0.97 1.69,-1.28 0.19,-0.21 0.42,-0.35 0.43,-0.69l-0.08 -0.08c-0.18,-0.14 -0.07,-0.13 -0.26,-0.05l0 0z"/>
   <path class="fil12" d="M21.52 26.15c-0.96,0.09 -0.93,0.33 -1.15,0.33l-0.11 -0.05c-0.1,-0.05 -0.19,-0.08 -0.27,-0.21 -0.01,-0.01 -0.02,-0.03 -0.03,-0.05 -0.01,-0.02 -0.01,-0.03 -0.02,-0.05l-0.08 -0.41c0.52,-0 0.63,0.06 0.94,-0.21 0.01,-0.01 0.02,-0.02 0.04,-0.03l0.75 -0.27c0.19,0.32 0.13,0.29 -0.04,0.53 -0.06,0.08 -0.07,0.08 -0.07,0.15 0,0.01 0.01,0.02 0.01,0.03 0,0.01 0.01,0.03 0.01,0.04 0.06,0.39 0.07,-0.01 0.03,0.2l0 0zm-1.98 -0.7l0.43 1.02 0.2 0.3c0.42,-0.11 1.7,-0.52 2.07,-0.52 -0.05,-0.28 -0.46,-1.26 -0.63,-1.41 -0.06,0.05 -0.02,0.02 -0.08,0.06 -0.01,0 -0.02,0.02 -0.03,0.02l-0.17 0.14c-0.58,0.46 -1.05,0.41 -1.49,0.37l-0.31 0.02 0 -0z"/>
   <path class="fil10" d="M9.04 10.82l0.07 -2.65c-0.05,-0.22 0.09,-0.09 -0.14,-0.14l-0.18 0c-0.16,0.12 -0.11,0.02 -0.17,0.29l-0.13 1.13c-0.01,0.45 -0.04,1.11 0.17,1.46 0.4,0.06 0.36,-0 0.38,-0.09l0 0z"/>
   <path class="fil1" d="M19.43 25.32l0.17 -0.37c0.18,0.28 -0.01,0.26 0.19,0.24 0.07,0.08 0.05,0.05 0.19,0.08 0.01,-0.02 0.02,-0.08 0.03,-0.07 0.01,0.01 0.02,-0.05 0.03,-0.06l0.13 -0.28c0.03,-0.06 0.02,0.01 0.05,-0.12 0.1,-0.4 -0.11,-0.6 0.1,-0.75 0.22,-0.15 0.15,-0.04 0.19,-0.18 0.03,-0.11 0.05,0.03 -0.01,-0.13l-1.65 0.44 0.58 1.2 0 -0z"/>
   <path class="fil2" d="M28.21 21.45c0.25,-0.08 0.26,-0.17 0.7,-0.22 0.01,-0.16 -0.14,-0.72 -0.18,-0.93 -0.04,-0.19 -0.07,-0.27 -0.11,-0.47 -0.02,-0.11 -0.03,-0.21 -0.04,-0.28l-0.08 -0.31c-0.16,0.25 0.06,0.06 -0.21,0.13l-0.57 -0.04c0.03,0.42 0.47,1.61 0.5,1.85 0.05,0.39 0.05,0.09 -0.02,0.26l0 0z"/>
   <path class="fil1" d="M33.45 7.14c0.09,0.43 -0.34,0.45 -0.26,0.02l0.26 -0.02zm0.26 0.18c-0.11,-0.23 -0.07,-0.06 -0.01,-0.28 0.39,-0.04 0.35,0.31 0.01,0.28zm-0.38 -0.45c-0,-0.01 -0.01,0.03 -0.02,0.07l-0.26 -0.02 0.03 -0.23c0.09,-0.04 -0.1,-0.02 0.14,-0.03 0.13,-0.01 0.12,0.11 0.12,0.17 0,0.01 -0.01,0.05 -0.01,0.05l0 0zm0.2 -0.32c0.32,-0.16 0.51,0.34 0.02,0.26l-0.02 -0.26zm-0.78 0.54c0.16,0.93 1.61,0.81 1.49,-0.18 -0.04,-0.38 -0.44,-0.72 -0.87,-0.65 -0.37,0.06 -0.69,0.41 -0.62,0.83l0 0z"/>
   <path class="fil1" d="M28.05 21.88c-0.15,0.39 0.62,1.78 0.52,2.31 -0.26,0.16 -0.8,0.26 -1.07,0.35l0.01 0.22 1.55 -0.43 -0.01 -0.26 -0.62 -2.28 -0.38 0.1 -0 -0z"/>
   <path class="fil2" d="M29.65 14.99l-0.2 2.66 0.31 -0.11c0,-0 0.12,0.01 0.14,0.01l0.07 -0.65 0.12 -0.35 0.06 -0.14 0.1 -1.5c-0.23,0.04 -0.39,0.1 -0.6,0.07l0 0z"/>
   <path class="fil1" d="M30.43 4.9c0.09,-0.23 0.04,-0.19 0.31,-0.18 0.01,0.19 -0.02,0.15 -0.02,0.22l0.03 0.16c0.09,0.17 0.16,0.03 0.08,0.27 -0.14,0.05 -0.14,0.06 -0.3,-0.05 -0.42,0.52 -0.32,-0.11 -0.32,-0.11 -0.02,-0.26 -0.12,-0.08 -0.14,-0.35 0.17,-0.08 0.17,-0.03 0.37,0.03l0 0zm-0.31 -0.43c-0.88,0.45 -0.22,1.75 0.7,1.3 0.78,-0.38 0.24,-1.78 -0.7,-1.3z"/>
   <path class="fil3" d="M21.52 26.15c0.04,-0.22 0.03,0.19 -0.03,-0.2 -0,-0.01 -0.01,-0.03 -0.01,-0.04 -0,-0.01 -0.01,-0.02 -0.01,-0.03 -0,-0.06 0.02,-0.07 0.07,-0.15 0.16,-0.24 0.23,-0.22 0.04,-0.53l-0.75 0.27c-0.01,0.01 -0.03,0.02 -0.04,0.03 -0.31,0.27 -0.42,0.21 -0.94,0.21l0.08 0.41c0.01,0.02 0.01,0.03 0.02,0.05 0.01,0.02 0.02,0.03 0.02,0.05 0.08,0.12 0.17,0.16 0.27,0.21l0.11 0.05c0.22,0 0.19,-0.24 1.15,-0.33l-0 0z"/>
   <path class="fil1" d="M17.48 21.32l0.03 -0.06c0,-0 0.03,-0.15 0.03,-0.16 0.62,-0.04 1.82,-0.62 2.26,-0.55l-0.17 -0.48c-0.37,0.07 -0.85,0.23 -1.22,0.34 -0.21,0.06 -1.05,0.27 -1.19,0.37l0.27 0.53 0 0z"/>
   <path class="fil1" d="M20.16 20.42c0.02,-0.01 0.04,-0.04 0.05,-0.02 0.01,0.02 0.06,-0.03 0.1,-0.04 0.13,-0.05 0.03,-0.02 0.14,-0.06 0.49,-0.17 1.79,-0.45 2.1,-0.63l-0.07 -0.3c-0.94,0.09 -1.67,0.41 -2.5,0.58l0.19 0.47 0 0z"/>
   <path class="fil19" d="M16.21 16.7c0.08,-0.12 -0.07,-0.19 0.19,-0.5l-0.16 -0.09 -0.17 0.18c-0.05,0.05 -0.06,0.07 -0.13,0.14l-0.44 -0.26c-0.01,-0.25 0.11,-0.39 0.21,-0.57l0.18 0.03c0.16,-0.12 0.13,0.21 0.13,-0.15 -0.2,-0.04 -0.4,-0.05 -0.51,-0.16 -0.19,-0.17 0.01,0.01 -0.09,-0.13 -0.15,-0.21 0.18,0.03 -0.11,-0.14 -0.07,0.07 -0.51,0.81 -0.55,0.98 0.33,0.23 0.99,0.69 1.45,0.66l-0 0z"/>
   <path class="fil17" d="M30.56 20.19l1.02 0.22 0.02 0.15 -0.2 -1.35c-0.37,-0.04 -0.6,-0.15 -0.71,0.25 -0.04,0.16 -0.12,0.59 -0.13,0.73l0 0z"/>
   <path class="fil7" d="M19.91 15.36c0.07,-0.11 0.1,-0.16 0.16,-0.26 0.01,-0.02 0.06,-0.09 0.08,-0.11 0.07,-0.08 0.03,-0.04 0.1,-0.09 0.21,-0.04 0.12,-0.02 0.25,-0.14 -0.18,-0.15 -0.79,-0.54 -1.01,-0.55l-0.17 0.05c-0.12,0.33 -0.01,0.22 -0.23,0.51l0.43 0.27c0.01,0.01 0.02,0.02 0.03,0.03 0.15,0.16 0.14,0.21 0.14,0.53l0.14 -0.14c0.27,-0.3 -0.16,0.11 0.07,-0.09l0 -0z"/>
   <path class="fil1" d="M22.01 22.91c-0.17,-0.77 -0.84,-1.08 -1.34,-1.35l0.61 1.48 0.73 -0.13 0 0z"/>
   <polygon class="fil1" points="28.64,18.18 28.9,19.41 29.33,19.45 29.44,18.04 "/>
   <path class="fil20" d="M16.97 17.24c0.09,0.21 0.23,0.24 0.44,0.36l1.21 0.72c0.31,0.16 0.2,0.06 0.25,-0.03 -0.19,-0.25 -0.03,-0.13 -0.35,-0.38 0.03,-0.27 0.1,-0.21 -0.06,-0.44l-0.19 0.27c-0.22,-0.07 -0.33,-0.14 -0.48,-0.28 0.01,-0.22 0.01,-0.14 0.06,-0.31l-0.89 0.1 0 0z"/>
   <path class="fil1" d="M30.03 22.64c0.35,0.01 0.55,0.09 0.86,0.16l0.65 0.12c0.28,0.08 0.08,-0.01 0.15,0.1 0.13,-0.12 0.13,-0.08 0.31,-0.11l-0.06 -0.22c-0.38,0.08 -0.59,-0.03 -0.98,-0.1 -1.35,-0.27 -0.94,-0.16 -0.87,-1.18l-0.3 0.05c0.25,0.28 -0.4,0.57 0.22,1.18l0 0z"/>
   <path class="fil11" d="M29.83 23.39l0.2 -0.74c-0.62,-0.62 0.03,-0.91 -0.22,-1.18l-0.37 0.07c-0.02,0.17 0.31,1.7 0.4,1.86l0 0z"/>
   <path class="fil17" d="M32.26 20.4c0.11,-0.28 0.18,-0.56 0.12,-0.89 -0.21,-0.15 -0.26,-0.14 -0.57,-0.2 0.02,0.33 0.06,0.88 0.21,1.13l0.25 -0.05 0 0z"/>
   <path class="fil3" d="M25.45 9.01l0.11 0.27c0.27,0.02 0.84,-0.32 1.07,-0.45l-0.16 -0.37c-0.26,0.08 -0.87,0.39 -1.02,0.55z"/>
   <polygon class="fil11" points="29.89,17.55 31.06,17.3 31.05,17.07 29.96,16.9 "/>
   <polygon class="fil1" points="9.04,10.82 9.22,10.82 9.27,8.16 9.11,8.18 "/>
   <path class="fil21" d="M31.37 16.72l0.01 0.07 1.05 0.19c0.35,0.04 0.66,-0.06 0.92,-0.13l-2.03 -0.34 0.05 0.21z"/>
   <path class="fil22" d="M1.53 8.3c0.03,0.29 0.12,0.3 0.25,0.53 0.28,-0.06 0.39,-0.17 0.55,-0.34 -0.05,-0.26 -0.13,-0.32 -0.33,-0.5 -0.23,0.06 -0.35,0.13 -0.47,0.31l0 0z"/>
   <path class="fil22" d="M2.94 10.33c0.03,0.26 0.11,0.39 0.34,0.56 0.23,-0.05 0.36,-0.16 0.48,-0.34 -0.06,-0.21 -0.15,-0.34 -0.35,-0.47 -0.22,0.05 -0.32,0.16 -0.47,0.26l0 -0z"/>
   <path class="fil23" d="M2.5 6.48c0.22,-0.12 0.23,-0.15 0.46,-0.23 0.13,0.13 0.28,0.31 0.32,0.51 -0.13,0.11 -0.28,0.27 -0.51,0.31 -0.16,-0.19 -0.29,-0.35 -0.31,-0.6 -0.21,0.1 -0.09,-0.11 -0.12,0.16 -0.04,0.33 0.09,0.1 0.18,0.3 0.15,0.29 -0.01,0.16 -0.01,0.16l0.04 0.05c0.31,0.08 0.23,0.09 0.53,-0.01 0.14,-0.04 0.05,-0 0.18,-0.07 0.08,-0.04 0.11,-0.07 0.2,-0.11l0.12 0.13 0.06 -0.11c-0.42,-0.15 -0.06,-0.07 -0.27,-0.43 -0.35,-0.59 -0.47,-0.37 -0.58,-0.34l-0.29 0.1c-0,0.03 -0,0.14 -0.01,0.16l0 0z"/>
   <path class="fil24" d="M18 15.05l-0.08 0.29 0.52 0.26c0.18,-0.16 0.29,-0.35 0.32,-0.61l-0.5 -0.22c-0.07,0.06 -0.05,0.06 -0.12,0.13l-0.13 0.15 0 0z"/>
   <path class="fil25" d="M2.56 7.16l-0.04 -0.05 -0.26 -0.34c-0.22,0.04 -0.44,0.2 -0.55,0.33 0.08,0.17 0.23,0.37 0.36,0.5 0.34,-0.14 0.47,-0.24 0.49,-0.44l0 0z"/>
   <path class="fil25" d="M3.09 7.14l-0.06 0.07c-0.06,0.09 -0.02,0.03 -0.08,0.13 0.11,0.18 0.24,0.34 0.34,0.49l0.54 -0.35 -0.23 -0.39 -0.12 -0.13c-0.1,0.04 -0.12,0.06 -0.2,0.11 -0.13,0.07 -0.04,0.03 -0.18,0.07l0 0z"/>
   <path class="fil1" d="M30.01 20.96l0.22 -0.05c0.07,-0.29 0.05,-0.51 0.41,-0.47 0.2,0.02 0.58,0.09 0.73,0.22l0.23 -0.09 -0.02 -0.15 -1.02 -0.22c-0.49,0.08 -0.48,0.29 -0.54,0.77l0 0z"/>
   <path class="fil22" d="M2.5 6.48l-0.04 -0c0.01,0.25 0.15,0.41 0.3,0.6 0.23,-0.04 0.38,-0.2 0.51,-0.31 -0.04,-0.2 -0.19,-0.38 -0.32,-0.51 -0.23,0.07 -0.23,0.11 -0.46,0.23l0 0z"/>
   <path class="fil22" d="M17.23 14.58l-0.05 0.31 0.49 0.25 0.21 -0.15 0.1 -0.36c-0.19,-0.22 -0.24,-0.23 -0.53,-0.3 -0.11,0.21 -0.01,0.09 -0.21,0.24l0 0z"/>
   <path class="fil9" d="M3.65 9.9c0.08,0.2 0.2,0.34 0.31,0.51 0.26,-0.08 0.3,-0.2 0.55,-0.3 -0.06,-0.25 -0.22,-0.41 -0.34,-0.58l-0.52 0.37 0 0z"/>
   <path class="fil1" d="M21.91 24.43c0.09,-0.09 0.13,-0.39 0.17,-0.53 0.03,-0.11 0.06,-0.24 0.06,-0.35 0.01,-0.16 0.06,-0.11 -0.09,-0.18l-0.57 0.06c0.05,0.22 0.3,0.87 0.43,1l0 0z"/>
   <path class="fil24" d="M19.91 15.36c0.08,0.2 0.27,0.28 0.52,0.35 0.17,-0.16 0.23,-0.26 0.3,-0.5 -0.12,-0.14 -0.3,-0.23 -0.48,-0.32 -0.07,0.05 -0.04,0.02 -0.1,0.09 -0.02,0.02 -0.06,0.09 -0.08,0.11 -0.06,0.1 -0.09,0.15 -0.16,0.26l0 -0z"/>
   <path class="fil26" d="M19.02 15.98l0.27 0.02c0.03,-0.08 0.02,-0.09 0.07,-0.18 0.01,-0.01 0.02,-0.03 0.02,-0.04 0.01,-0.01 0.02,-0.03 0.03,-0.04 0.14,-0.18 0.01,-0.01 0.11,-0.12 -0.05,-0.22 0.02,-0.04 -0.09,-0.18l-0.18 -0.19 -0.28 -0.04c-0.09,0.19 -0.23,0.32 -0.25,0.55 0.1,0.1 0.19,0.12 0.29,0.21l0 0z"/>
   <path class="fil19" d="M4.37 9.37c0.1,0.21 0.22,0.41 0.38,0.53 0.19,-0.1 0.36,-0.21 0.5,-0.39 -0.07,-0.08 -0.1,-0.14 -0.15,-0.21l-0.22 -0.25 -0.51 0.32 -0 0z"/>
   <path class="fil26" d="M16.24 16.11c0.01,-0.07 0.01,-0.13 0.01,-0.24l-0.37 -0.23 -0.18 -0.03c-0.09,0.18 -0.21,0.32 -0.21,0.57l0.44 0.26c0.06,-0.07 0.08,-0.08 0.13,-0.14l0.17 -0.18 0 0z"/>
   <path class="fil25" d="M3.44 8.05c0.1,0.19 0.2,0.34 0.35,0.5 0.18,-0.06 0.41,-0.21 0.52,-0.37 -0.11,-0.21 -0.2,-0.31 -0.34,-0.49l-0.52 0.36 0 0z"/>
   <path class="fil26" d="M16.44 14.48c0.11,0.07 0.33,0.18 0.47,0.22 0.19,-0.13 0.28,-0.27 0.31,-0.5 -0.12,-0.15 -0.3,-0.22 -0.51,-0.3 -0.11,0.18 -0.29,0.35 -0.28,0.59l0 0z"/>
   <path class="fil27" d="M2.22 7.8c0.04,0.09 0.08,0.18 0.13,0.27l0.22 0.26c0.18,-0.08 0.35,-0.21 0.49,-0.35l-0.31 -0.5c-0.26,0.08 -0.35,0.2 -0.54,0.33l-0 0z"/>
   <path class="fil28" d="M2.73 8.56c0.06,0.16 0.24,0.38 0.36,0.48 0.15,-0.09 0.34,-0.18 0.47,-0.35 -0.09,-0.2 -0.17,-0.32 -0.32,-0.48 -0.16,0.05 -0.39,0.19 -0.51,0.35l-0 -0z"/>
   <path class="fil9" d="M1.98 9.07c0.11,0.19 0.24,0.32 0.33,0.5 0.11,-0.05 0.2,-0.1 0.28,-0.17 0.04,-0.03 0.07,-0.05 0.11,-0.08l0.14 -0.13c-0.14,-0.22 -0.21,-0.31 -0.31,-0.52l-0.56 0.39z"/>
   <path class="fil27" d="M0.99 7.6c0.1,0.21 0.2,0.39 0.37,0.49 0.22,-0.13 0.29,-0.17 0.47,-0.35l-0.35 -0.48c-0.22,0.06 -0.36,0.18 -0.5,0.34z"/>
   <path class="fil24" d="M17.77 13.76c-0.1,0.24 -0.11,0.12 -0.16,0.38l0.22 0.12 0.29 0.15 0.34 -0.53 -0.51 -0.31 -0.18 0.19 0 0z"/>
   <polygon class="fil1" points="11.6,11.96 11.7,12.06 13.7,10.35 13.59,10.21 "/>
   <path class="fil26" d="M18.37 14.5c0.14,0.13 0.32,0.28 0.52,0.33 0.19,-0.2 0.26,-0.29 0.27,-0.59 -0.16,-0.07 -0.29,-0.17 -0.53,-0.17l-0.27 0.43 0 0z"/>
   <path class="fil1" d="M23.2 22.56l0.34 -0.02c0.05,-0.21 -0.21,-0.94 -0.35,-1.13 -0.11,0.09 -0.13,0.41 -0.15,0.59 -0.01,0.08 -0.02,0.3 0,0.38 0.06,0.24 -0.03,0.06 0.15,0.19l0 0z"/>
   <path class="fil25" d="M30.43 4.9c-0.2,-0.06 -0.2,-0.11 -0.37,-0.03 0.02,0.27 0.12,0.09 0.14,0.35 0,0 -0.1,0.62 0.32,0.11 0.16,0.11 0.16,0.09 0.3,0.05 0.08,-0.24 0.01,-0.09 -0.08,-0.27l-0.03 -0.16c0,-0.07 0.03,-0.03 0.02,-0.22 -0.27,-0.01 -0.22,-0.05 -0.31,0.18l0 -0z"/>
   <path class="fil1" d="M31.64 7.41c0.08,0.19 0.07,0.39 0.37,0.37 0.19,-0.01 0.33,-0.14 0.32,-0.37 -0.02,-0.4 -0.52,-0.48 -0.69,0z"/>
   <path class="fil1" d="M30.39 6.87c0.14,0.04 0.34,0.17 0.52,0 0.12,-0.12 0.14,-0.34 0.02,-0.49 -0.23,-0.28 -0.67,-0.11 -0.54,0.49l0 0z"/>
   <polygon class="fil19" points="29.96,16.9 31.05,17.07 31,16.71 30.08,16.55 "/>
   <path class="fil25" d="M30.99 22.21c0.29,-0.06 0.45,-0.15 0.62,-0.33 -0.24,-0.19 -0.15,-0.05 -0.35,0.05l-0.03 -0.32c-0.33,0.24 -0.24,-0 -0.66,0.04 0.11,0.25 0.25,0.43 0.41,0.56z"/>
   <path class="fil26" d="M17.86 17.14c-0.06,0.17 -0.05,0.09 -0.06,0.31 0.15,0.14 0.25,0.22 0.48,0.28l0.19 -0.27 -0.14 -0.4 -0.47 0.08 0 0z"/>
   <path class="fil1" d="M26.35 20.69c-0.01,0.28 0.18,0.84 0.29,1.07l0.37 -0.07c-0.19,-0.23 -0.14,-0.35 -0.29,-0.59 -0.14,-0.23 -0.22,-0.24 -0.34,-0.49l-0.03 0.09 0 0z"/>
   <path class="fil4" d="M30.23 20.91l1.14 -0.26c-0.15,-0.12 -0.52,-0.2 -0.73,-0.22 -0.36,-0.03 -0.35,0.18 -0.41,0.47z"/>
   <path class="fil1" d="M23.25 23.01l0.11 0.19c0,0.01 0.02,0.02 0.02,0.03l0.6 0.47c-0.01,-0.27 -0.14,-0.51 -0.24,-0.78l-0.5 0.1 0 0z"/>
   <path class="fil20" d="M32.44 16.98l-1.05 -0.19 0.05 0.42 0.78 -0.13c0.25,-0.07 0.12,-0.01 0.21,-0.1l0 0z"/>
   <path class="fil1" d="M32.14 21.56l0.12 0.44c0.08,-0.1 0.07,-0.03 0.12,-0.21 0.03,-0.1 0.05,-0.25 0.07,-0.35 0.05,-0.24 0.13,-0.37 0.02,-0.6l-0.2 0.01c0.03,0.25 -0.01,0.54 -0.12,0.71l0 0z"/>
   <path class="fil29" d="M29.42 23.28l-0.09 -0.37 -0.39 -0.03 0.01 0.28c0.05,0.05 0.13,0.15 0.19,0.18 0.37,0.21 0.26,-0.02 0.28,-0.07l0 0z"/>
   <path class="fil30" d="M28.94 22.88l0.39 0.03 -0.19 -0.86c-0.01,0.01 -0.02,0.03 -0.03,0.04 -0.1,0.2 -0.13,0.47 -0.17,0.79z"/>
   <path class="fil31" d="M19.02 15.98l-0.03 0.11c-0.01,0.01 -0.02,0.04 -0.02,0.05 -0.01,0.01 -0.02,0.04 -0.03,0.05l0.65 -0.12 0.15 -0.41c-0.22,0.06 -0.15,0.14 -0.2,-0.04 -0.1,0.11 0.03,-0.06 -0.11,0.12 -0.01,0.01 -0.02,0.03 -0.03,0.04 -0.01,0.01 -0.02,0.03 -0.03,0.04 -0.05,0.09 -0.04,0.09 -0.07,0.18l-0.27 -0.02 0 0z"/>
   <polygon class="fil4" points="30.14,16.42 30.08,16.55 31,16.71 30.94,16.43 "/>
   <path class="fil32" d="M24.45 9.58c0,0 0.01,0.18 0.38,-0.01 0.24,-0.13 0.2,-0.11 0.22,-0.31 -0.17,0 -0.23,0.01 -0.37,0.08 -0.21,0.1 -0.17,0.09 -0.22,0.24l0 0z"/>
   <path class="fil22" d="M19.58 16.08l0.66 -0.14c-0.08,-0.08 -0.01,-0.03 -0.15,-0.13 -0.02,-0.01 -0.11,-0.07 -0.12,-0.07 -0.1,-0.05 -0.11,-0.06 -0.24,-0.07l-0.15 0.41 0 0z"/>
   <path class="fil18" d="M31.7 23.02l-0.02 0.25c0.16,0.11 0.16,0.06 0.41,0.11l-0.07 -0.47c-0.19,0.03 -0.19,-0.01 -0.31,0.11l0 -0z"/>
   <path class="fil33" d="M31.62 23.66l0.46 -0.09 0 -0.18c-0.25,-0.04 -0.25,-0 -0.41,-0.11l-0.06 0.38 0 0z"/>
   <path class="fil24" d="M25.71 10.86c0.06,0 0.1,0 0.16,-0.01 0.01,-0 0.04,0 0.05,-0.02 0.02,-0.04 0.06,0.05 0.1,-0.17 0,-0 -0.01,-0.14 -0.01,-0.14l-0.32 -0.01 0.02 0.34z"/>
   <path class="fil34" d="M8.79 8.03l0.18 -0 0.09 -0.45 -0.15 -0.02c-0.06,0.09 -0.03,-0.07 -0.1,0.19 -0.02,0.09 -0.02,0.19 -0.02,0.28l0 0z"/>
   <path class="fil35" d="M32.14 21.56c0.11,-0.17 0.15,-0.46 0.12,-0.71l-0.19 0.05 0.07 0.66 0 0z"/>
   <path class="fil25" d="M33.54 6.55l0.02 0.26c0.49,0.08 0.3,-0.42 -0.02,-0.26z"/>
   <path class="fil24" d="M33.45 7.14l-0.26 0.02c-0.09,0.43 0.35,0.41 0.26,-0.02z"/>
   <path class="fil36" d="M33.71 7.31c0.34,0.03 0.37,-0.32 -0.01,-0.28 -0.06,0.22 -0.1,0.05 0.01,0.28z"/>
   <path class="fil37" d="M33.08 6.68l-0.03 0.23 0.26 0.02c0.01,-0.04 0.02,-0.08 0.02,-0.07 0,0.01 0.01,-0.04 0.01,-0.05 -0,-0.06 0,-0.18 -0.12,-0.17 -0.24,0.01 -0.04,-0 -0.14,0.03l0 0z"/>
   <path class="fil38" d="M13.96 10.4l0.08 0.08 0.28 -0.39 -0.14 -0.04c-0.13,0.24 -0.16,0.13 -0.21,0.35l0 -0z"/>
  </g>
  <rect class="fil39" x="-0" y="-0" width="41.04" height="41.04"/>
 </g>
</svg>
