<?xml version="1.0" encoding="UTF-8"?>
<!DOCTYPE svg PUBLIC "-//W3C//DTD SVG 1.1//EN" "http://www.w3.org/Graphics/SVG/1.1/DTD/svg11.dtd">
<!-- Creator: CorelDRAW 2019 (64-Bit) -->
<svg xmlns="http://www.w3.org/2000/svg" xml:space="preserve" width="2.78059in" height="2.78129in" version="1.1" style="shape-rendering:geometricPrecision; text-rendering:geometricPrecision; image-rendering:optimizeQuality; fill-rule:evenodd; clip-rule:evenodd"
viewBox="0 0 2780.6 2781.29"
 xmlns:xlink="http://www.w3.org/1999/xlink"
 xmlns:xodm="http://www.corel.com/coreldraw/odm/2003">
 <defs>
  <style type="text/css">
   <![CDATA[
    .fil1 {fill:white}
    .fil0 {fill:url(#id0)}
   ]]>
  </style>
  <linearGradient id="id0" gradientUnits="userSpaceOnUse" x1="1391.38" y1="44.57" x2="1440.03" y2="2779.77">
   <stop offset="0" style="stop-opacity:1; stop-color:#2B5BD8"/>
   <stop offset="1" style="stop-opacity:1; stop-color:#6994FF"/>
  </linearGradient>
 </defs>
 <g id="Layer_x0020_1">
  <metadata id="CorelCorpID_0Corel-Layer"/>
  <g id="_2579695078368">
   <path class="fil0" d="M1340.71 1.78c-205.39,11.68 -375.65,48.43 -557.28,137.47 -101.35,49.69 -182.97,102.94 -265.32,168.53 -337.08,268.52 -533.21,692.13 -517.2,1134.37 11.35,313.43 123.27,590.69 306.45,820.48 32.97,41.36 87.39,102.19 125.52,136.8 58.19,52.81 119.09,105.28 193.05,152.66 235.32,150.75 511.64,242.26 814.11,227.69 306.72,-14.78 543.56,-104.14 773.76,-268.85 56.74,-40.6 138.95,-112.92 185.02,-163.08 250.98,-273.27 396.67,-616.75 380.58,-1008.65 -8.61,-209.42 -59.33,-393.75 -137.89,-555.22 -145.78,-299.65 -400.66,-546.88 -714.11,-675.95 -169.34,-69.73 -378.56,-118.06 -586.67,-106.23z"/>
   <path class="fil1" d="M616.05 942.45l-0.36 896.54 96.67 55.4c32.15,18.02 64.11,37.22 96.36,55.67 77.5,44.33 576.11,333.98 581.49,334.02l676.23 -388.66c32.46,-18.7 65.27,-40.16 97.95,-56.43l0.19 -896.56 -774.41 -445.14c-9.52,0.04 -606,349.94 -724.33,416.72 -15.67,8.84 -33.43,20.11 -49.77,28.45zm325.7 188.36l-1.09 26.96c1.85,161.77 -3.01,333.34 0.29,493.56 15.94,6.54 41.4,22.96 56.38,31.65l337.2 194.66c69.72,40.95 45.46,37.95 115.9,-2.68l365.24 -210.78c30.38,-17.1 23.97,-11.32 23.95,-77.42 -0.04,-149.5 2.14,-307.61 -0.39,-455.98l-223.99 -129.52c-26.35,-14.35 -216.59,-127.81 -225.08,-127.79 -7.97,0.02 -195.84,111.24 -225.03,127.84l-223.39 129.48z"/>
  </g>
 </g>
</svg>
