<?xml version="1.0" encoding="UTF-8"?>
<!DOCTYPE svg PUBLIC "-//W3C//DTD SVG 1.1//EN" "http://www.w3.org/Graphics/SVG/1.1/DTD/svg11.dtd">
<!-- Creator: CorelDRAW -->
<svg xmlns="http://www.w3.org/2000/svg" xml:space="preserve" width="52.7008in" height="46.4399in" version="1.1" style="shape-rendering:geometricPrecision; text-rendering:geometricPrecision; image-rendering:optimizeQuality; fill-rule:evenodd; clip-rule:evenodd"
viewBox="0 0 8138.88 7171.96"
 xmlns:xlink="http://www.w3.org/1999/xlink"
 xmlns:xodm="http://www.corel.com/coreldraw/odm/2003">
 <defs>
  <style type="text/css">
   <![CDATA[
    .fil6 {fill:black}
    .fil8 {fill:#21AD62}
    .fil15 {fill:#2CBD70}
    .fil13 {fill:#39DB84}
    .fil12 {fill:#40DE8A}
    .fil11 {fill:#46D98A}
    .fil9 {fill:#4BE894}
    .fil14 {fill:#4FE394}
    .fil10 {fill:#53F19C}
    .fil7 {fill:#7CFFB0}
    .fil0 {fill:#B3B3B3;fill-rule:nonzero}
    .fil2 {fill:#CCCCCC;fill-rule:nonzero}
    .fil5 {fill:#D78B05;fill-rule:nonzero}
    .fil4 {fill:#D9A112;fill-rule:nonzero}
    .fil1 {fill:#E6E6E6;fill-rule:nonzero}
    .fil3 {fill:#EABC25;fill-rule:nonzero}
   ]]>
  </style>
 </defs>
 <g id="Layer_x0020_1">
  <metadata id="CorelCorpID_0Corel-Layer"/>
  <g id="_105553355993248">
   <g>
    <path class="fil0" d="M7564.63 3750.97l289.89 270.24c435.13,382.6 357.86,1191.43 -142.82,1923.7 -76.99,113.29 -164.73,224.99 -261.92,332.73 -113.62,125.67 -233.9,239.04 -357.64,338.1 -668.05,539.35 -1443.03,690.23 -1867.78,317.39l-321.62 -299.72 2661.9 -2882.45 -0 -0z"/>
    <path class="fil1" d="M7092.13 6615.75l-265.84 -247.66c123.86,-100 244.01,-213.07 357.56,-338.9 97.27,-107.58 184.61,-219.01 261.94,-332.1l265.91 247.83c-76.99,113.29 -164.73,224.99 -261.92,332.73 -113.62,125.67 -233.9,239.03 -357.64,338.1l-0 0z"/>
    <path class="fil2" d="M7588.08 3773.31c502.76,441.89 321.8,1451.88 -404.42,2256 -726.22,804.12 -1722.52,1097.71 -2225.28,655.82 -502.76,-441.89 -321.8,-1451.88 404.42,-2256 726.22,-804.12 1722.52,-1097.71 2225.28,-655.82z"/>
    <path class="fil3" d="M7298.42 4093.92c392.19,344.37 250.91,1132.05 -315.23,1759.06 -566.21,626.84 -1343.22,855.89 -1735.22,511.38 -392.19,-344.37 -250.91,-1132.05 315.23,-1759.06 566.21,-626.84 1343.22,-855.89 1735.22,-511.38z"/>
    <path class="fil4" d="M5034.85 5665.59c41.04,-337.01 222.92,-721.99 528.35,-1060.29 33.41,-36.9 67.58,-72.6 102.37,-106.81 -34.79,34.21 -68.96,69.91 -102.37,106.81 -305.5,338.14 -487.31,723.28 -528.35,1060.29z"/>
    <path class="fil0" d="M6134.39 6444.25c-345.49,124.04 -673.16,107.74 -886.49,-80.06 -180.49,-158.66 -248.16,-411.22 -213.12,-698.77 41.04,-337.01 222.92,-721.99 528.35,-1060.29 33.41,-36.9 67.58,-72.6 102.37,-106.81 99.9,-98.27 205,-184.72 312.34,-258.6 199.23,-137.13 405.7,-230.49 601.07,-275.16 -144.08,51.7 -290.83,127.69 -434.14,226.33 -144.29,99.32 -284.74,221.65 -414.39,364.98 -566.21,626.84 -707.29,1414.38 -315.23,1759.06 178.54,157.01 437.42,193.71 719.43,129.19l-0.2 0.14z"/>
    <path class="fil5" d="M6621.39 5851.4l-79.17 -71.23c-49.65,44.44 -98.89,83.24 -146.59,116.08 -207.44,142.78 -390.36,172.68 -509.32,65.96l382.06 -424.19c38.51,34.86 97.31,20.69 156.94,-20.35 29.52,-20.32 59.51,-47.37 87.36,-78.3 77.55,-86.09 126.7,-190.69 82.6,-230.47 -27.33,-24.38 -74.08,-6.1 -134.3,35.35 -52.2,35.93 -114.49,89.28 -182.57,147.47 -79.32,67.42 -166.36,141.66 -253.76,201.81 -158.57,109.14 -318.73,172.34 -437.61,65.79 -133.43,-119.63 -82.71,-348.05 123.05,-625.45l-95.19 -85.44 313.03 -344.82 96.81 86.89c41.29,-36.12 81.76,-67.61 120.86,-94.52 195.71,-134.71 361.83,-155.39 473.18,-55.41l-371.39 412.36c-33.93,-30.53 -83.86,-19.26 -135.87,16.54 -26.4,18.17 -53.39,42.73 -79.37,71.52 -66.05,73.26 -112.21,159.13 -74.38,192.96 24.57,22.01 69.21,4.11 127.48,-36 51.03,-35.12 112.55,-87.3 180.64,-144.86 79.72,-67.06 168.02,-141.31 256.98,-202.54 166,-114.25 334.37,-183.1 454.61,-75.13 146.02,131.07 79.95,381.17 -123.54,659.78l79.91 71.79 -313.03 344.82 0.59 -0.4z"/>
    <g id="_105553280201600">
     <g id="_105553240688960">
      <circle class="fil6" transform="matrix(-1.34085E+001 12.2622 5.49448 10.6006 6350.34 5214.25)" r="80.37"/>
      <path class="fil7" d="M5973.04 4473.75c-525.64,480.68 -777.08,1207.32 -561.81,1623.01 215.47,415.55 816.19,362.79 1341.82,-117.88 525.64,-480.68 777.08,-1207.32 561.81,-1623.01 -215.47,-415.55 -816.19,-362.79 -1341.82,117.88zm30.2 58.32c-484.83,443.39 -717,1113.8 -518.31,1497.07 198.68,383.26 752.76,334.61 1237.79,-108.92 484.83,-443.39 716.8,-1113.67 518.11,-1496.93 -198.68,-383.26 -752.76,-334.61 -1237.79,108.92l0.2 -0.14z"/>
      <path class="fil8" d="M5941.47 4462.12c-535.3,489.47 -791.3,1229.31 -571.91,1652.41 219.39,423.11 831.06,369.45 1366.3,-120.19 535.3,-489.47 791.3,-1229.3 571.91,-1652.41 -219.39,-423.11 -830.99,-369.28 -1366.3,120.19zm30.89 59.35c-493.78,451.48 -729.93,1134.03 -527.6,1524.2 202.4,390.33 766.63,340.67 1260.22,-110.68 493.78,-451.48 729.93,-1134.03 527.6,-1524.2 -202.4,-390.33 -766.63,-340.67 -1260.22,110.68z"/>
      <g>
       <path class="fil9" d="M6937.01 4202.2c-33.09,52.71 30.61,142.93 48.37,164.92 32.34,39.96 72.14,76.08 110.26,108.21 94.54,79.68 183.45,174.16 215.79,295.37 -3.04,119.7 -28.43,248.58 -73.62,378.89 -24.71,42.66 -55.19,87.17 -92.16,134.21 -39.29,49.93 -133.03,155.71 -185.52,196.97l-1.53 -3.65c12.91,-28.13 20.74,-65.38 25.19,-93.25 16.58,-104.21 -15.67,-181.87 -89.95,-204.09 -21.88,-6.54 -43.97,-10.58 -69.52,-6.04 -59.19,10.81 -70.36,4.59 -153.69,30.52 -26.07,8.11 -52.02,15.92 -79.57,22.91l-60 16.7c-1.58,0.45 -9.14,2.23 -10.91,2.81 -5.39,1.57 -3.28,1.19 -8.08,2.35 -78.8,21.73 -155.08,33.83 -224.75,29.82 -182.75,-10.63 -161.07,-179.08 -177.19,-220.59 6.49,-25.42 44.39,-101.54 65.91,-134.96l2.44 2.81c7.03,17.4 -40.97,194.55 91.6,259.18 68.69,33.55 174.27,12.62 290.28,-92.88 1.16,1.56 4.01,5.37 6.14,6.25 7.08,3.68 3.72,1.07 9.79,0.53 52.81,45.55 168.1,14.73 264.66,-65.63 120.48,-100.25 183.91,-211.05 204.2,-308.19 43.97,-209.66 -128.02,-262.55 -157.25,-383.56 -9.53,-39.63 0.68,-118.71 49.42,-140.07l0 0 -0.32 0.43z"/>
       <path class="fil10" d="M6958.67 5477.28c-32.77,-135.46 -166.85,-241.6 -217.76,-152.04 -34.96,61.48 -129.44,117.96 -181.88,152.13 -31.31,20.27 -62.14,38.07 -92.67,60.79 -49.28,36.91 -55.12,54.83 -81.74,94.75 -36.19,-73.24 117.99,-267.45 113.96,-351.7 -23.88,60.27 -10.68,43.7 -48.23,123.64 -129.71,276.16 -419.26,550.72 -653.05,561.96 -18.29,0.83 -91.62,5.54 -84.52,-35.27 11.1,-6.57 10.22,-4.47 19.47,-4.63 25.24,-0.48 18.58,3.46 53,-3.34 27.45,-5.42 43.97,-8.67 75.67,-19.58 124.36,-42.83 249.74,-152.44 339.79,-283.27 30.55,-44.34 88,-147.17 93.97,-178.64 -21.47,26.32 -45.24,66.42 -71.14,99 -137.61,174.25 -314.37,272.4 -452,228.79 -38.31,-12.12 -102.22,-44.46 -125,-88.66l-5.45 -11.22c41.74,14.89 42.9,32.7 114.41,10.41 135.61,-42.45 244.75,-170.38 291.64,-314.7 6.22,-18.83 16.11,-55.99 17.24,-74.94 0.84,-10.63 8.78,-26.57 12.54,-56.1 2.5,-19.9 3.21,-36.85 4.25,-57.24 1.68,-37.5 12.21,-85.16 28.69,-119.18 16.18,41.68 -5.56,209.95 177.19,220.59 69.87,3.87 145.95,-8.09 224.75,-29.82 5,-1.3 2.89,-0.92 8.08,-2.35 1.58,-0.44 9.07,-2.4 10.91,-2.81l60 -16.7c27.62,-6.82 53.56,-14.63 79.57,-22.91 83.34,-25.93 94.31,-19.58 153.69,-30.52 25.55,-4.54 47.83,-0.64 69.52,6.04 74.27,22.22 106.59,100.04 89.95,204.09 -4.45,27.87 -12.09,64.98 -25.19,93.25l0.07 0.16 0.26 0.04z"/>
       <path class="fil8" d="M7121.67 4144.58c4.67,11.76 60.88,42.56 74.29,55.35 22.33,22.05 47.07,39.66 66.46,66.73 17.69,24.82 33.51,51.78 47.37,80.08 -55.35,-102.17 -148.64,-165.61 -244.45,-209.79 33.63,-13.52 23.57,-4.46 46.31,5.33l10.03 2.29 0 0 -0 0zm-30.39 1438.35c-35.73,56.02 -81.84,122.18 -118.28,166.3l-5.35 3.47 -0.16 -1.6c44.42,-54.52 85.83,-110.83 123.79,-168.17l0 -0zm-115.75 56.79c0.23,-11.49 0.34,-22.05 0.11,-30.44 -0.6,-48.98 -8.69,-85.75 -15.37,-128.19 52.49,-41.26 146.16,-147.21 185.52,-196.97 37.04,-46.88 67.65,-91.68 92.16,-134.21 -57.42,165.46 -146.45,333.65 -262.55,490.11l0 0 0.12 -0.3zm336.17 -869c-32.41,-121.38 -121.31,-215.85 -215.79,-295.37 -38.2,-32.3 -77.85,-68.08 -110.26,-108.21 -17.76,-21.99 -81.46,-112.21 -48.37,-164.92 5.59,-4.7 12.29,-9.74 20.05,-14.66 121.47,35.71 220.42,113.86 283.77,235.75 51.46,99.5 73.98,218.28 70.67,347.57l-0.07 -0.17z"/>
       <path class="fil10" d="M6560.36 5092.42c-116.01,105.51 -221.59,126.43 -290.28,92.88 -132.64,-64.8 -84.57,-241.79 -91.6,-259.18l-2.44 -2.81 11.56 -19.93c13.44,72.43 48.11,68.02 96.78,62.75 69.64,-7.52 144.18,-88.76 193.6,-157.2 3.21,-4.35 7.91,-10.58 11.83,-16.27l118.52 -222.27c8.05,-19.87 14.56,-38.03 23.12,-59.1 8.12,-19.7 15.41,-41.4 22.79,-58.67 2.08,-4.64 4.8,-10.79 7.08,-15.57 1.53,-2.97 2.79,-5.98 4.37,-9.42l51.28 -94.1c29.82,-47.89 65.44,-80.11 105.8,-120.29 -10.33,21.65 -84.94,99.73 -100.89,224.68 -16.41,128.68 26.21,287.08 -15.59,430.89 -25.2,86.62 -61.83,144.12 -146.38,223.7l0 0 0.46 -0.1z"/>
       <path class="fil11" d="M6576.1 5099.34c-6.07,0.54 -2.71,3.15 -9.79,-0.53 -1.94,-1.02 -4.79,-4.83 -5.95,-6.39 84.36,-79.45 121.18,-137.08 146.38,-223.7 41.74,-143.98 -0.82,-302.21 15.52,-431.06 15.95,-124.95 90.63,-202.86 100.89,-224.68l24.45 -25.81c5.71,-5 14.57,-11.52 24.29,-17.79 14.31,1.7 28.17,4.13 41.98,7.03 -26.03,52.13 -104.6,143.62 -20.89,258.78 54.74,75.43 119.1,146.17 117,260.3 -1.63,91.78 -55.14,199.82 -161.82,305.96 -110.69,110.4 -209.69,126.58 -272.14,97.72l0 0 0.07 0.17z"/>
       <path class="fil7" d="M5882.04 5416.47c28.73,2.46 47.57,8.96 90.26,-20.22 18.06,-12.22 39.25,-32.58 53.9,-49.93 21.43,-25.23 23.94,-34.87 38.38,-55.71 -1.13,18.96 -11.28,56.09 -17.24,74.94 -47.08,144.45 -156.16,272.55 -291.64,314.7 -71.52,22.28 -72.6,4.64 -114.41,-10.41l5.45 11.22c-30.83,-14.7 -57.87,-122.03 -62.44,-161.22 -12.29,-103.37 25.33,-235.53 84.77,-354.06 37.85,-75.66 66.14,-110.95 117.82,-185.44l-37.09 76.85c-16.1,33.74 -20.6,59.08 -29.11,92.31 -32.73,128.8 11.23,333.11 161.61,267.01l0 0 -0.26 -0.03z"/>
       <path class="fil7" d="M6847.49 4187.47l-24.52 25.65c-40.35,40.18 -75.98,72.4 -105.8,120.29l-51.28 94.1c-1.58,3.44 -3.11,6.42 -4.37,9.42 -2.28,4.78 -5.07,10.76 -7.08,15.57 -7.45,17.1 -14.87,39.1 -22.79,58.67 -8.63,20.91 -15.13,39.06 -23.12,59.1l-118.52 222.27c-4.11,5.82 -8.68,11.75 -11.83,16.27 -49.42,68.44 -123.77,149.55 -193.6,157.2 -48.66,5.27 -83.27,9.85 -96.78,-62.75 5.8,-23.45 101.68,-166.84 113.95,-183.85 108.36,-150.28 206.46,-262.48 345.68,-383.54 45.78,-39.85 160.72,-132.86 200.06,-148.39l0 0z"/>
       <path class="fil12" d="M6241.78 4510.51c25.79,49.6 29.95,94.43 -4.08,159.33 -89.18,170.22 -151.05,40.46 -359.4,433.19 -16.23,30.42 -24.87,50.69 -35.69,80.8 -17.31,48.91 -30.08,106.23 -18.99,157.4 -18.83,-2.86 -26.33,-53.29 -27.15,-67.27 -2.55,-41.01 -1.38,-44.81 5.97,-86.22 0.3,-1.7 1.61,-8.8 1.66,-9.27l15.21 -61.14 98.45 -205.25c149.56,-275.07 284.98,-203.63 204.69,-352.14 76.62,-57.01 71.3,-61.91 119.21,-49.12l0 0 0.13 -0.3z"/>
       <path class="fil13" d="M5823.73 5340.93c10.24,41.92 27.25,62.71 58.31,75.54 -150.39,66.09 -194.35,-138.22 -161.61,-267.01 8.51,-33.23 12.82,-58.43 28.92,-92.17l37.09 -76.85c107.85,-123.2 155.35,-175.78 287.22,-265.68 -26.29,29.86 -49.77,54.99 -68.57,82.26 -24.97,36.01 -66.58,76.19 -87.54,114.56l-98.45 205.25 -15.21 61.14c-0.06,0.47 -1.3,7.73 -1.66,9.27 -7.54,41.54 -8.53,45.21 -5.97,86.22 0.82,13.98 8.32,64.41 27.15,67.27l0 0 0.34 0.2z"/>
       <path class="fil6" d="M6339.85 4970.51c16.08,62.49 12.53,60.02 -57.73,137.66 1.11,-71.97 -8.42,-46.59 57.73,-137.66z"/>
      </g>
      <path class="fil9" d="M6937.01 4202.2c-33.09,52.71 30.61,142.93 48.37,164.92 32.34,39.96 72.14,76.08 110.26,108.21 94.54,79.68 183.45,174.16 215.79,295.37 -3.04,119.7 -28.43,248.58 -73.62,378.89 -24.71,42.66 -55.19,87.17 -92.16,134.21 -39.29,49.93 -133.03,155.71 -185.52,196.97l-1.53 -3.65c12.91,-28.13 20.74,-65.38 25.19,-93.25 16.58,-104.21 -15.67,-181.87 -89.95,-204.09 -21.88,-6.54 -43.97,-10.58 -69.52,-6.04 -48.92,8.87 -65.1,6.32 -116.18,19.67 -9.51,-2.86 -20.32,-4.62 -28.84,-7.52 -12.45,-4.47 -19.86,-11.35 -32.31,-22.45 -12.38,-10.93 -30,-25.96 -43.45,-37.02 -13.44,-11.06 -22.65,-18.62 -41.69,-21.98 -4.04,-0.64 -8.62,-1.34 -13.32,-1.74 3.9,-3.32 7.92,-6.95 11.94,-10.57 1.16,1.56 4.01,5.37 6.14,6.25 7.08,3.68 3.72,1.07 9.79,0.53 52.81,45.55 168.1,14.73 264.66,-65.63 120.48,-100.25 183.91,-211.05 204.2,-308.18 43.97,-209.66 -128.02,-262.55 -157.25,-383.56 -9.53,-39.63 0.68,-118.72 49.42,-140.07l0 0 -0.45 0.73z"/>
      <path class="fil10" d="M6958.67 5477.28c-32.77,-135.46 -166.85,-241.6 -217.76,-152.04 -34.96,61.48 -129.44,117.96 -181.88,152.13 -31.31,20.27 -62.14,38.07 -92.67,60.79 -49.28,36.91 -55.12,54.83 -81.74,94.75 -36.19,-73.24 117.99,-267.45 113.96,-351.7 -23.88,60.27 -10.68,43.7 -48.23,123.64 -129.71,276.16 -419.26,550.72 -653.05,561.96 -18.29,0.83 -91.62,5.54 -84.52,-35.27 11.1,-6.57 10.22,-4.47 19.47,-4.63 25.24,-0.48 18.58,3.46 53,-3.34 27.45,-5.42 43.97,-8.67 75.67,-19.58 124.36,-42.83 249.74,-152.44 339.79,-283.27 30.55,-44.34 88,-147.17 93.97,-178.64 -21.47,26.32 -45.24,66.42 -71.14,99 -137.61,174.25 -314.37,272.4 -452,228.79 -38.31,-12.12 -102.22,-44.46 -125,-88.66l-5.45 -11.22c41.74,14.89 42.9,32.7 114.41,10.41 135.61,-42.45 244.75,-170.38 291.64,-314.7 6.22,-18.83 16.11,-55.99 17.24,-74.94 0.84,-10.63 8.78,-26.57 12.54,-56.1 2.5,-19.9 3.21,-36.85 4.25,-57.24 1.68,-37.5 12.21,-85.16 28.69,-119.18 16.18,41.68 -5.56,209.95 177.19,220.59 69.87,3.87 145.95,-8.09 224.75,-29.82 5,-1.3 2.89,-0.92 8.08,-2.35 1.58,-0.44 9.07,-2.4 10.91,-2.81l60 -16.7c27.62,-6.82 53.56,-14.63 79.57,-22.91 83.34,-25.93 94.31,-19.58 153.69,-30.52 25.55,-4.54 47.83,-0.64 69.52,6.04 74.27,22.22 106.59,100.04 89.95,204.09 -4.45,27.87 -12.09,64.98 -25.19,93.25l0.07 0.16 0.26 0.04z"/>
      <path class="fil8" d="M7189.84 4207.57c22.33,22.06 53.13,31.86 72.51,58.93 17.69,24.82 33.51,51.78 47.37,80.08 -55.35,-102.17 -169.29,-154.18 -265.1,-198.36 70.99,-28.34 108.53,23.44 145.02,59.48l0 0 0.19 -0.13zm-98.56 1375.36c-35.73,56.02 -81.84,122.18 -118.28,166.3l-5.35 3.47 -0.16 -1.6c44.42,-54.52 85.83,-110.83 123.79,-168.17l0 -0zm-115.75 56.79c0.23,-11.49 0.34,-22.05 0.11,-30.44 -0.6,-48.98 -8.69,-85.75 -15.37,-128.19 52.49,-41.26 146.16,-147.21 185.52,-196.97 37.04,-46.88 67.65,-91.68 92.16,-134.21 -57.42,165.46 -146.45,333.65 -262.55,490.11l0 0 0.12 -0.3zm336.17 -869c-32.41,-121.38 -121.31,-215.85 -215.79,-295.37 -38.2,-32.3 -77.85,-68.08 -110.26,-108.21 -17.76,-21.99 -81.46,-112.21 -48.37,-164.92 5.59,-4.7 12.29,-9.74 20.05,-14.66 121.47,35.71 220.42,113.86 283.77,235.75 51.46,99.5 73.98,218.28 70.67,347.57l-0.07 -0.17z"/>
      <path class="fil10" d="M6560.36 5092.42c-116.01,105.51 -221.59,126.43 -290.28,92.88 -132.64,-64.8 -84.57,-241.79 -91.6,-259.18l-2.44 -2.81 11.56 -19.93c13.44,72.43 48.11,68.02 96.78,62.75 69.64,-7.52 144.18,-88.76 193.6,-157.2 3.21,-4.35 7.91,-10.58 11.83,-16.27l118.52 -222.27c8.05,-19.87 14.56,-38.03 23.12,-59.1 8.12,-19.7 15.41,-41.4 22.79,-58.67 2.08,-4.64 4.8,-10.79 7.08,-15.57 1.53,-2.97 2.79,-5.98 4.37,-9.42l51.28 -94.1c29.82,-47.89 65.44,-80.11 105.8,-120.29 -10.33,21.65 -84.94,99.73 -100.89,224.68 -16.41,128.68 26.21,287.08 -15.59,430.89 -25.2,86.62 -61.83,144.12 -146.38,223.7l0 0 0.46 -0.1z"/>
      <path class="fil14" d="M6708.02 5193.71c-10.65,2.84 -23,6.42 -37.32,10.72 -26.07,8.11 -52.21,16.05 -79.56,22.91l-60.07 16.54c-1.58,0.45 -9.14,2.23 -10.91,2.81 -5.39,1.57 -3.28,1.19 -8.08,2.35 -78.8,21.73 -155.08,33.83 -224.75,29.82 -182.75,-10.63 -161.07,-179.08 -177.19,-220.59 6.49,-25.42 44.39,-101.54 65.91,-134.96l2.44 2.81c7.03,17.4 -40.97,194.55 91.6,259.18 66.42,32.33 167.02,13.97 278.34,-82.31 4.7,0.4 9.2,0.94 13.32,1.74 19.04,3.36 28.44,10.79 41.69,21.98 13.44,11.06 30.87,26.22 43.45,37.02 12.38,10.93 19.86,17.97 32.31,22.45 8.52,2.9 19.4,4.83 28.84,7.52l0 0 -0 -0z"/>
      <path class="fil11" d="M6576.1 5099.34c-6.07,0.54 -2.71,3.15 -9.79,-0.53 -1.94,-1.02 -4.79,-4.83 -5.95,-6.39 84.36,-79.45 121.18,-137.08 146.38,-223.7 41.74,-143.98 -0.82,-302.21 15.52,-431.06 15.95,-124.95 90.63,-202.86 100.89,-224.68l24.45 -25.81c5.71,-5 14.57,-11.52 24.29,-17.79 14.31,1.7 28.17,4.13 41.98,7.03 -26.03,52.13 -104.6,143.62 -20.89,258.78 54.74,75.43 119.1,146.17 117,260.3 -1.63,91.78 -55.14,199.82 -161.82,305.96 -110.69,110.4 -209.69,126.58 -272.14,97.72l0 0 0.07 0.17z"/>
      <path class="fil7" d="M5882.04 5416.47c28.73,2.46 47.57,8.96 90.26,-20.22 18.06,-12.22 39.25,-32.58 53.9,-49.93 21.43,-25.23 23.94,-34.87 38.38,-55.71 -1.13,18.96 -11.28,56.09 -17.24,74.94 -47.08,144.45 -156.16,272.55 -291.64,314.7 -71.52,22.28 -72.6,4.64 -114.41,-10.41l5.45 11.22c-30.83,-14.7 -57.87,-122.03 -62.44,-161.22 -12.29,-103.37 25.33,-235.53 84.77,-354.06 37.85,-75.66 66.14,-110.95 117.82,-185.44l-37.09 76.85c-16.1,33.74 -20.6,59.08 -29.11,92.31 -32.73,128.8 11.23,333.11 161.61,267.01l0 0 -0.26 -0.03z"/>
      <path class="fil7" d="M6847.49 4187.47l-24.52 25.65c-40.35,40.18 -75.98,72.4 -105.8,120.29l-51.28 94.1c-1.58,3.44 -3.11,6.42 -4.37,9.42 -2.28,4.78 -5.07,10.76 -7.08,15.57 -7.45,17.1 -14.87,39.1 -22.79,58.67 -8.63,20.91 -15.13,39.06 -23.12,59.1l-118.52 222.27c-4.11,5.82 -8.68,11.75 -11.83,16.27 -49.42,68.44 -123.77,149.55 -193.6,157.2 -48.66,5.27 -83.27,9.85 -96.78,-62.75 5.8,-23.45 101.68,-166.84 113.95,-183.85 108.36,-150.28 206.46,-262.48 345.68,-383.54 45.78,-39.85 160.72,-132.86 200.06,-148.39l0 0z"/>
      <path class="fil12" d="M6241.78 4510.51c25.79,49.6 29.95,94.43 -4.08,159.33 -89.18,170.22 -151.05,40.46 -359.4,433.19 -16.23,30.42 -24.87,50.69 -35.69,80.8 -17.31,48.91 -30.08,106.23 -18.99,157.4 -18.83,-2.86 -26.33,-53.29 -27.15,-67.27 -2.55,-41.01 -1.38,-44.81 5.97,-86.22 0.3,-1.7 1.61,-8.8 1.66,-9.27l15.21 -61.14 98.45 -205.25c149.56,-275.07 284.98,-203.63 204.69,-352.14 76.62,-57.01 71.3,-61.91 119.21,-49.12l0 0 0.13 -0.3z"/>
      <path class="fil13" d="M5823.73 5340.93c10.24,41.92 27.25,62.71 58.31,75.54 -150.39,66.09 -194.35,-138.22 -161.61,-267.01 8.51,-33.23 12.82,-58.43 28.92,-92.17l37.09 -76.85c43.47,-49.59 75.43,-89.34 123.43,-137.13 30.25,-30.01 132.96,-107.13 161.38,-126.47 -26.29,29.86 -57.86,47.09 -76.66,74.36 -24.97,36 -56.09,82.01 -77.05,120.39l-98.45 205.25 -15.21 61.14c-0.06,0.47 -1.3,7.73 -1.66,9.27 -7.54,41.54 -8.53,45.21 -5.97,86.22 0.82,13.98 8.32,64.41 27.15,67.27l0 0 0.34 0.2z"/>
      <path class="fil6" d="M6339.85 4970.51c16.08,62.49 12.53,60.02 -57.73,137.66 1.11,-71.97 -8.42,-46.59 57.73,-137.66z"/>
      <path class="fil15" d="M6937.01 4202.2c-33.09,52.71 30.61,142.93 48.37,164.92 32.34,39.96 72.14,76.08 110.26,108.21 94.54,79.68 183.45,174.16 215.79,295.37 -3.04,119.7 -28.43,248.58 -73.62,378.89 -24.71,42.66 -55.19,87.17 -92.16,134.21 -39.29,49.93 -133.03,155.71 -185.52,196.97l-1.53 -3.65c12.91,-28.13 20.74,-65.38 25.19,-93.25 16.58,-104.21 -15.67,-181.87 -89.95,-204.09 -21.88,-6.54 -43.97,-10.58 -69.52,-6.04 -48.92,8.87 -65.1,6.32 -116.18,19.67 -9.51,-2.86 -20.32,-4.62 -28.84,-7.52 -12.45,-4.47 -19.86,-11.35 -32.31,-22.45 -12.38,-10.93 -30,-25.96 -43.45,-37.02 -13.44,-11.06 -22.65,-18.62 -41.69,-21.98 -4.04,-0.64 -8.62,-1.34 -13.32,-1.74 3.9,-3.32 7.92,-6.95 11.94,-10.57 1.16,1.56 4.01,5.37 6.14,6.25 7.08,3.68 3.72,1.07 9.79,0.53 52.81,45.55 168.1,14.73 264.66,-65.63 120.48,-100.25 183.91,-211.05 204.2,-308.18 43.97,-209.66 -128.02,-262.55 -157.25,-383.56 -9.53,-39.63 0.68,-118.72 49.42,-140.07l0 0 -0.45 0.73z"/>
     </g>
    </g>
   </g>
   <g>
    <path class="fil0" d="M6544.49 431.59l458.6 578.47c693.62,821.35 370.39,2462.31 -695.26,3906.71 -164.03,223.51 -346.97,442.76 -545.99,653.02 -232.58,245.23 -474.31,464.75 -719,654.81 -1321.99,1035.23 -2747.25,1268.55 -3424.47,468.07l-508.81 -641.58 5434.93 -5619.5 -0 -0.01z"/>
    <path class="fil1" d="M5042.85 6224.6l-420.58 -530.16c245.1,-191.95 486.53,-410.86 719.03,-656.44 199.11,-209.92 381.28,-428.65 545.87,-651.74l420.67 530.51c-164.03,223.51 -346.97,442.76 -545.99,653.02 -232.58,245.23 -474.31,464.75 -719,654.81l-0.01 0z"/>
    <path class="fil2" d="M6581.49 479.37c801.46,948.66 246.24,2989.63 -1240.57,4558.88 -1486.81,1569.25 -3341.83,2072.22 -4143.29,1123.57 -801.46,-948.66 -246.24,-2989.64 1240.57,-4558.88 1486.81,-1569.25 3341.83,-2072.22 4143.29,-1123.57z"/>
    <path class="fil3" d="M5988.48 1105.03c625.27,739.34 191.99,2331.05 -967.11,3554.67 -1159.19,1223.28 -2605.93,1615.69 -3230.83,876.1 -625.27,-739.34 -191.99,-2331.05 967.11,-3554.67 1159.19,-1223.28 2605.93,-1615.69 3230.83,-876.1z"/>
    <path class="fil4" d="M1567.51 4091.37c150.55,-682.87 564.81,-1450.03 1190.14,-2110.24 68.39,-71.99 137.85,-141.49 208.1,-207.88 -70.25,66.39 -139.71,135.88 -208.1,207.88 -625.42,659.87 -1039.6,1427.37 -1190.14,2110.24z"/>
    <path class="fil0" d="M3363.14 5783.45c-648.34,219.73 -1232.68,155.14 -1572.69,-247.99 -287.71,-340.61 -351.54,-861.78 -223.03,-1444.44 150.55,-682.87 564.81,-1450.03 1190.14,-2110.24 68.39,-71.99 137.85,-141.49 208.1,-207.88 201.72,-190.7 410.06,-356.83 619.56,-497.12 388.85,-260.4 780.7,-430.9 1141.51,-503.23 -270.36,91.57 -551.07,232.38 -830.78,419.69 -281.62,188.59 -561.59,424.45 -826.98,704.14 -1159.19,1223.28 -1592.08,2814.73 -967.11,3554.67 284.59,337.06 740.83,436.63 1261.66,332.12l-0.38 0.26z"/>
    <path class="fil5" d="M4372.42 4621.87l-125.83 -152.75c-99.25,85.81 -196.46,160.18 -289.57,222.53 -404.87,271.13 -739.97,314.54 -929.1,85.68l782.46 -827.9c61.16,74.73 169.91,51.48 286.3,-26.46 57.62,-38.59 117.6,-90.84 174.64,-151.21 158.82,-168.02 270.89,-376.5 200.83,-461.79 -43.49,-52.3 -131.55,-19.53 -249.08,59.18 -101.88,68.23 -225.85,170.99 -361.29,283.06 -157.73,129.81 -330.88,272.77 -501.46,387 -309.48,207.24 -611.33,320.71 -800.38,92.19 -212.16,-256.58 -69.02,-717.22 363.54,-1262.85l-151.34 -183.23 640.46 -672.76 153.91 186.34c82.35,-69.66 162.16,-129.96 238.48,-181.06 381.98,-255.79 684.83,-282.05 861.85,-67.65l-760.62 804.81c-53.93,-65.46 -146.11,-47.27 -247.62,20.71 -51.52,34.5 -105.56,81.98 -158.75,138.16 -135.25,142.97 -237.69,313.55 -177.51,386.12 39.07,47.2 123.28,14.99 236.99,-61.16 99.6,-66.7 221.91,-167.15 357.23,-277.92 158.37,-129.03 333.78,-271.89 507.41,-388.16 323.98,-216.96 641.86,-341.15 833.01,-109.6 232.15,281.08 56.5,784.45 -372.25,1332.77l127.03 153.96 -640.46 672.76 1.14 -0.76z"/>
    <g id="_105553280201600_0">
     <g id="_105553240688960_1">
      <circle class="fil6" transform="matrix(-2.68618E+001 23.7064 7.44197 22.1291 4031.36 3297.45)" r="80.37"/>
      <path class="fil7" d="M3523.2 1752.26c-1053.03,929.28 -1670.08,2386.08 -1378.59,3253.82 291.88,867.48 1382.01,817.46 2435.03,-111.82 1053.03,-929.28 1670.08,-2386.08 1378.59,-3253.82 -291.88,-867.48 -1382.01,-817.46 -2435.03,111.82zm40.9 121.75c-971.28,857.21 -1540.92,2201.24 -1271.79,3001.32 269.12,800.08 1274.61,753.94 2246.28,-103.52 971.28,-857.21 1540.53,-2200.98 1271.41,-3001.06 -269.12,-800.08 -1274.61,-753.94 -2246.28,103.52l0.39 -0.26z"/>
      <path class="fil8" d="M3469.2 1725.53c-1072.38,946.28 -1700.63,2429.51 -1403.43,3312.78 297.19,883.27 1407.18,832.44 2479.48,-114.18 1072.38,-946.28 1700.63,-2429.52 1403.43,-3312.78 -297.19,-883.27 -1407.1,-832.1 -2479.48,114.18zm41.89 123.91c-989.2,872.83 -1568.75,2241.23 -1294.66,3055.73 274.17,814.84 1298.12,767.62 2286.94,-104.95 989.2,-872.83 1568.75,-2241.23 1294.66,-3055.73 -274.17,-814.84 -1298.12,-767.63 -2286.94,104.95z"/>
      <g>
       <path class="fil9" d="M5315.17 1291.1c-71.42,104.25 22.32,294.22 49.18,340.72 48.92,84.54 112.1,161.94 173.19,231.07 151.5,171.43 289.49,372.48 319.88,622.59 -32.77,243.64 -107.75,503.86 -218.59,765.11 -54.07,84.58 -118.94,172.36 -196.03,264.69 -81.91,97.98 -274.28,304.6 -377.9,383.66l-1.91 -7.59c29.59,-56.09 52.14,-131.25 66.49,-187.62 53.53,-210.78 13.37,-372.13 -114.86,-424.53 -37.77,-15.42 -76.49,-25.77 -123.38,-18.95 -108.7,16.36 -127.32,2.62 -282.79,47.49 -48.64,14.03 -96.99,27.46 -148.02,39.07l-111.49 28.3c-2.93,0.76 -16.92,3.67 -20.22,4.68 -10.03,2.68 -6.16,2.11 -15.04,4.03 -146.37,36.75 -286.03,54.09 -410.16,39.27 -325.55,-39.16 -248.22,-380.36 -267.66,-466.49 17.44,-51.19 102.83,-202.69 149.08,-268.72l3.73 5.97c8.65,36.13 -117.92,392.56 105.25,536.96 115.62,74.94 309.87,42.4 542.15,-161.52 1.72,3.28 5.97,11.32 9.6,13.32 11.87,8.18 6.44,2.54 17.45,2.02 84.38,97.87 298.32,46.11 489.96,-108.43 239.1,-192.76 378.22,-412.5 436.79,-608.52 126.75,-423.06 -169.84,-547.32 -194.7,-796.71 -8.07,-81.67 28.31,-241.87 120.65,-280.72l0 0 -0.68 0.85z"/>
       <path class="fil10" d="M5063.09 3891.7c-27.9,-279.19 -244.31,-508.34 -356.11,-330.68 -76.77,121.95 -259.22,228 -361.12,292.62 -60.82,38.31 -120.2,71.63 -180.18,115.01 -96.86,70.51 -111.43,106.47 -168.31,185.26 -48.24,-152.71 272.79,-533.76 284.78,-705.84 -56.62,120.55 -29.13,88.03 -114.77,247.36 -295.81,550.38 -878.09,1082.2 -1300.23,1082.73 -33.01,-0.07 -165.69,2.53 -143.64,-79.96 21.42,-12.33 19.36,-8.12 36,-7.58 45.4,1.44 32.55,8.84 95.88,-1.73 50.5,-8.42 80.89,-13.46 140.27,-32.66 232.96,-75.39 482.99,-286.76 674.45,-544.77 64.95,-87.43 191.51,-291.5 209.4,-355.07 -44.54,51.59 -96.34,131.02 -150.26,194.94 -286.72,341.95 -626.35,525.05 -863.39,422.99 -65.99,-28.36 -173.31,-100.4 -204.1,-192.64l-7.22 -23.38c71.52,34.34 69.53,70.74 202.96,32.17 253.05,-73.53 478.13,-323.81 595.2,-613.42 15.47,-37.77 41.68,-112.56 48.04,-151.08 3.94,-21.58 21.81,-53.31 35.3,-113.12 9.03,-40.31 14.17,-74.79 20.69,-116.24 11.57,-76.27 41.34,-172.39 78.69,-240.13 19.54,86.48 -57.89,427.34 267.66,466.49 124.51,14.57 263.79,-2.52 410.16,-39.27 9.26,-2.17 5.39,-1.6 15.04,-4.03 2.93,-0.76 16.83,-4.02 20.22,-4.68l111.49 -28.3c51.12,-11.25 99.46,-24.69 148.02,-39.07 155.48,-44.87 173.72,-30.88 282.79,-47.49 46.89,-6.82 85.99,3.28 123.38,18.95 128.23,52.39 168.47,214.08 114.86,424.53 -14.35,56.37 -36.53,131.28 -66.49,187.62l0.09 0.34 0.46 0.1z"/>
       <path class="fil8" d="M5659.73 1191.36c5.7,24.4 99.54,92.56 120.7,119.91 35.03,47.08 75.43,85.33 104.04,142.35 26.09,52.27 48.32,108.72 66.74,167.74 -76.02,-213.52 -228.98,-351.73 -390.83,-450.93 63.44,-24.34 43.32,-6.83 81.89,15.3l17.47 5.63 0 0 -0.01 0zm-382.74 2928.35c-76.91,110.76 -174.75,241.17 -250.21,327.58l-10.39 6.56 0.07 -3.27c92.16,-106.86 179.33,-217.64 260.53,-330.86l0.01 -0zm-220.69 104.66c3.03,-23.39 5.65,-44.9 7.14,-62.02 10.09,-99.87 3.97,-175.58 1.67,-262.71 103.62,-79.06 295.89,-286.02 377.9,-383.66 77.18,-91.99 142.34,-180.36 196.03,-264.69 -140.81,331.71 -338.96,665.94 -583.01,973.68l0 0 0.29 -0.6zm801.59 -1738.79c-30.48,-250.46 -168.47,-451.5 -319.88,-622.59 -61.18,-69.47 -124.18,-146.19 -173.19,-231.07 -26.87,-46.51 -120.6,-236.47 -49.18,-340.73 11.1,-9.05 24.28,-18.68 39.34,-27.95 209.85,84.39 369.59,253.13 455.47,507.6 69.66,207.7 82.96,451.93 47.52,715.09l-0.08 -0.35z"/>
       <path class="fil10" d="M4436.08 3069.28c-232.28,203.92 -426.53,236.45 -542.15,161.52 -223.26,-144.74 -96.6,-500.84 -105.25,-536.96l-3.73 -5.97 25.29 -39.51c7.6,148.89 70.82,143.23 159.36,137.15 126.69,-8.66 279,-167.08 383.32,-301.84 6.76,-8.56 16.62,-20.8 24.94,-32.02l263.42 -441.63c18.99,-39.72 34.8,-76.11 54.97,-118.23 19.07,-39.38 37.11,-82.89 54.29,-117.38 4.8,-9.26 11.08,-21.53 16.27,-31.04 3.42,-5.91 6.37,-11.92 9.99,-18.78l113.5 -186.86c64.44,-94.75 135.73,-157 217.32,-235.01 -23.48,43.14 -175.19,195.11 -232.34,448.22 -58.81,260.68 -18.46,587.56 -126.3,876.64 -64.99,174.12 -143.84,287.79 -313.75,441.88l0 0 0.85 -0.16z"/>
       <path class="fil11" d="M4462.75 3084.88c-11.02,0.53 -5.58,6.16 -17.45,-2.02 -3.25,-2.26 -7.5,-10.3 -9.21,-13.58 169.53,-153.84 248.76,-267.76 313.75,-441.88 107.76,-289.42 67.49,-615.97 126.22,-876.98 57.14,-253.11 208.94,-404.75 232.34,-448.22l49.78 -50.27c11.39,-9.64 28.78,-22.09 47.65,-33.92 25.29,4.83 49.62,11.11 73.73,18.34 -58.62,103.75 -220.49,282.68 -96.54,525.37 81.03,158.97 180.39,309.29 150.58,541.68 -23.87,186.89 -144.55,401.93 -360.22,608.03 -223.84,214.4 -405.21,237.9 -510.7,173.1l0 0 0.09 0.35z"/>
       <path class="fil7" d="M3144.78 3664.76c51,7.76 83.33,22.8 166.6,-32.56 35.19,-23.17 77.88,-62.63 108.12,-96.59 44.21,-49.36 50.92,-68.76 81.6,-109.87 -6.36,38.52 -33.04,113.22 -48.04,151.08 -117.46,289.87 -342.44,540.5 -595.2,613.42 -133.43,38.56 -131.36,2.51 -202.96,-32.17l7.22 23.38c-51.98,-32.91 -76.02,-254.23 -75.27,-334.54 1.53,-211.84 99.2,-477.58 232.92,-713.44 85.18,-150.56 144.01,-219.78 253.76,-366.64l-84.1 153.06c-36.59,67.23 -50.46,118.44 -73.31,185.33 -88.12,259.35 -55.86,679.93 229.12,559.62l0 0 -0.47 -0.09z"/>
       <path class="fil7" d="M5157.87 1252.53l-49.86 49.92c-81.59,78.02 -152.88,140.27 -217.32,235.01l-113.5 186.86c-3.63,6.86 -7.04,12.78 -9.99,18.78 -5.19,9.52 -11.55,21.44 -16.27,31.04 -17.27,34.14 -35.6,78.26 -54.29,117.38 -20.25,41.78 -36.07,78.16 -54.97,118.23l-263.42 441.63c-8.7,11.48 -18.26,23.11 -24.94,32.02 -104.32,134.75 -256.25,292.93 -383.32,301.84 -88.54,6.09 -151.69,12.1 -159.36,-137.15 15.76,-47.23 220.54,-330.28 246.45,-363.76 228.76,-295.88 430.41,-515.16 707.89,-748.54 91.25,-76.83 318.76,-255.38 392.9,-283.26l0 0z"/>
       <path class="fil12" d="M3997.1 1852.9c34.97,103.55 32.2,195.3 -43.69,324.31 -198.89,338.36 -280.31,68 -743.85,848.41 -36.07,60.44 -56.2,100.92 -82.49,161.26 -42.22,98.01 -78.23,213.62 -70,318.96 -33.14,-7.63 -35.1,-111.13 -33.37,-139.69 4.77,-83.81 7.75,-91.45 30.39,-175.14 0.92,-3.44 4.89,-17.79 5.09,-18.73l41.24 -123.15 223.51 -408.86c331.18,-546.26 557.91,-387.72 447.71,-698.05 150.52,-108.86 142.09,-119.34 225.16,-88.7l0 0 0.3 -0.61z"/>
       <path class="fil13" d="M3057.36 3505.23c8.81,86.41 34.6,130.4 87.41,159.53 -284.98,120.3 -317.25,-300.28 -229.12,-559.62 22.85,-66.9 36.34,-117.85 72.93,-185.08l84.1 -153.06c221.67,-240.75 318.92,-343.36 576.08,-513.96 -53.99,58.33 -101.86,107.31 -141.84,161.09 -53.03,70.99 -136.88,148.9 -183.25,225.1l-223.51 408.86 -41.24 123.15c-0.2,0.94 -4.09,15.64 -5.09,18.73 -23.02,83.94 -25.62,91.33 -30.39,175.14 -1.73,28.57 0.24,132.05 33.37,139.69l0 0 0.56 0.43z"/>
       <path class="fil6" d="M4068.16 2799.72c14.6,128.88 8.79,123.51 -135.01,275.02 18.41,-146.56 -4.48,-95.75 135.01,-275.02z"/>
      </g>
      <path class="fil9" d="M5315.17 1291.1c-71.42,104.25 22.32,294.22 49.18,340.72 48.92,84.54 112.1,161.94 173.19,231.07 151.5,171.43 289.49,372.48 319.88,622.59 -32.77,243.64 -107.75,503.86 -218.59,765.11 -54.07,84.58 -118.94,172.36 -196.03,264.69 -81.91,97.98 -274.28,304.6 -377.9,383.66l-1.91 -7.59c29.59,-56.09 52.14,-131.25 66.49,-187.62 53.53,-210.78 13.37,-372.13 -114.86,-424.53 -37.77,-15.42 -76.49,-25.77 -123.38,-18.95 -89.82,13.39 -118.27,6.65 -212.99,28.96 -16.41,-6.74 -35.41,-11.36 -50.04,-18.09 -21.32,-10.31 -33.05,-25.03 -52.86,-48.84 -19.73,-23.47 -47.92,-55.78 -69.53,-79.6 -21.6,-23.83 -36.4,-40.12 -69.8,-48.79 -7.11,-1.68 -15.16,-3.55 -23.51,-4.82 7.75,-6.4 15.8,-13.4 23.85,-20.4 1.72,3.28 5.97,11.32 9.6,13.32 11.87,8.18 6.44,2.54 17.45,2.02 84.38,97.87 298.32,46.11 489.96,-108.43 239.1,-192.76 378.22,-412.5 436.79,-608.52 126.75,-423.06 -169.84,-547.32 -194.7,-796.71 -8.07,-81.67 28.31,-241.87 120.65,-280.72l0 0 -0.98 1.45z"/>
      <path class="fil10" d="M5063.09 3891.7c-27.9,-279.19 -244.31,-508.34 -356.11,-330.68 -76.77,121.95 -259.22,228 -361.12,292.62 -60.82,38.31 -120.2,71.63 -180.18,115.01 -96.86,70.51 -111.43,106.47 -168.31,185.26 -48.24,-152.71 272.79,-533.76 284.78,-705.84 -56.62,120.55 -29.13,88.03 -114.77,247.36 -295.81,550.38 -878.09,1082.2 -1300.23,1082.73 -33.01,-0.07 -165.69,2.53 -143.64,-79.96 21.42,-12.33 19.36,-8.12 36,-7.58 45.4,1.44 32.55,8.84 95.88,-1.73 50.5,-8.42 80.89,-13.46 140.27,-32.66 232.96,-75.39 482.99,-286.76 674.45,-544.77 64.95,-87.43 191.51,-291.5 209.4,-355.07 -44.54,51.59 -96.34,131.02 -150.26,194.94 -286.72,341.95 -626.35,525.05 -863.39,422.99 -65.99,-28.36 -173.31,-100.4 -204.1,-192.64l-7.22 -23.38c71.52,34.34 69.53,70.74 202.96,32.17 253.05,-73.53 478.13,-323.81 595.2,-613.42 15.47,-37.77 41.68,-112.56 48.04,-151.08 3.94,-21.58 21.81,-53.31 35.3,-113.12 9.03,-40.31 14.17,-74.79 20.69,-116.24 11.57,-76.27 41.34,-172.39 78.69,-240.13 19.54,86.48 -57.89,427.34 267.66,466.49 124.51,14.57 263.79,-2.52 410.16,-39.27 9.26,-2.17 5.39,-1.6 15.04,-4.03 2.93,-0.76 16.83,-4.02 20.22,-4.68l111.49 -28.3c51.12,-11.25 99.46,-24.69 148.02,-39.07 155.48,-44.87 173.72,-30.88 282.79,-47.49 46.89,-6.82 85.99,3.28 123.38,18.95 128.23,52.39 168.47,214.08 114.86,424.53 -14.35,56.37 -36.53,131.28 -66.49,187.62l0.09 0.34 0.46 0.1z"/>
      <path class="fil8" d="M5767.69 1326.25c35.03,47.08 88.07,70.01 116.69,127.02 26.09,52.27 48.32,108.72 66.74,167.74 -76.02,-213.51 -268.64,-330.4 -430.5,-429.61 133.88,-50.95 189.43,58.16 246.69,135.1l0 0 0.38 -0.25zm-490.7 2793.46c-76.91,110.76 -174.75,241.17 -250.21,327.58l-10.39 6.56 0.07 -3.27c92.16,-106.86 179.33,-217.64 260.53,-330.86l0.01 -0zm-220.69 104.66c3.03,-23.39 5.65,-44.9 7.14,-62.02 10.09,-99.87 3.97,-175.58 1.67,-262.71 103.62,-79.06 295.89,-286.02 377.9,-383.66 77.18,-91.99 142.34,-180.36 196.03,-264.69 -140.81,331.71 -338.96,665.94 -583.01,973.68l0 0 0.29 -0.6zm801.59 -1738.79c-30.48,-250.46 -168.47,-451.5 -319.88,-622.59 -61.18,-69.47 -124.18,-146.19 -173.19,-231.07 -26.87,-46.51 -120.6,-236.47 -49.18,-340.73 11.1,-9.05 24.28,-18.68 39.34,-27.95 209.85,84.39 369.59,253.13 455.47,507.6 69.66,207.7 82.96,451.93 47.52,715.09l-0.08 -0.35z"/>
      <path class="fil10" d="M4436.08 3069.28c-232.28,203.92 -426.53,236.45 -542.15,161.52 -223.26,-144.74 -96.6,-500.84 -105.25,-536.96l-3.73 -5.97 25.29 -39.51c7.6,148.89 70.82,143.23 159.36,137.15 126.69,-8.66 279,-167.08 383.32,-301.84 6.76,-8.56 16.62,-20.8 24.94,-32.02l263.42 -441.63c18.99,-39.72 34.8,-76.11 54.97,-118.23 19.07,-39.38 37.11,-82.89 54.29,-117.38 4.8,-9.26 11.08,-21.53 16.27,-31.04 3.42,-5.91 6.37,-11.92 9.99,-18.78l113.5 -186.86c64.44,-94.75 135.73,-157 217.32,-235.01 -23.48,43.14 -175.19,195.11 -232.34,448.22 -58.81,260.68 -18.46,587.56 -126.3,876.64 -64.99,174.12 -143.84,287.79 -313.75,441.88l0 0 0.85 -0.16z"/>
      <path class="fil14" d="M4677.97 3289.83c-19.76,4.77 -42.74,10.89 -69.42,18.27 -48.64,14.03 -97.37,27.72 -148.02,39.07l-111.58 27.96c-2.93,0.76 -16.92,3.67 -20.22,4.68 -10.03,2.68 -6.16,2.11 -15.04,4.03 -146.37,36.75 -286.03,54.09 -410.16,39.27 -325.55,-39.16 -248.22,-380.36 -267.66,-466.49 17.44,-51.19 102.83,-202.69 149.08,-268.72l3.73 5.97c8.65,36.13 -117.92,392.56 105.25,536.96 111.82,72.24 296.57,44.46 518.3,-141.11 8.34,1.27 16.31,2.79 23.51,4.82 33.4,8.67 48.58,24.71 69.8,48.79 21.6,23.83 49.42,56.39 69.53,79.6 19.73,23.47 31.55,38.53 52.86,48.84 14.63,6.73 33.71,11.69 50.04,18.09l0 0 -0 -0.01z"/>
      <path class="fil11" d="M4462.75 3084.88c-11.02,0.53 -5.58,6.16 -17.45,-2.02 -3.25,-2.26 -7.5,-10.3 -9.21,-13.58 169.53,-153.84 248.76,-267.76 313.75,-441.88 107.76,-289.42 67.49,-615.97 126.22,-876.98 57.14,-253.11 208.94,-404.75 232.34,-448.22l49.78 -50.27c11.39,-9.64 28.78,-22.09 47.65,-33.92 25.29,4.83 49.62,11.11 73.73,18.34 -58.62,103.75 -220.49,282.68 -96.54,525.37 81.03,158.97 180.39,309.29 150.58,541.68 -23.87,186.89 -144.55,401.93 -360.22,608.03 -223.84,214.4 -405.21,237.9 -510.7,173.1l0 0 0.09 0.35z"/>
      <path class="fil7" d="M3144.78 3664.76c51,7.76 83.33,22.8 166.6,-32.56 35.19,-23.17 77.88,-62.63 108.12,-96.59 44.21,-49.36 50.92,-68.76 81.6,-109.87 -6.36,38.52 -33.04,113.22 -48.04,151.08 -117.46,289.87 -342.44,540.5 -595.2,613.42 -133.43,38.56 -131.36,2.51 -202.96,-32.17l7.22 23.38c-51.98,-32.91 -76.02,-254.23 -75.27,-334.54 1.53,-211.84 99.2,-477.58 232.92,-713.44 85.18,-150.56 144.01,-219.78 253.76,-366.64l-84.1 153.06c-36.59,67.23 -50.46,118.44 -73.31,185.33 -88.12,259.35 -55.86,679.93 229.12,559.62l0 0 -0.47 -0.09z"/>
      <path class="fil7" d="M5157.87 1252.53l-49.86 49.92c-81.59,78.02 -152.88,140.27 -217.32,235.01l-113.5 186.86c-3.63,6.86 -7.04,12.78 -9.99,18.78 -5.19,9.52 -11.55,21.44 -16.27,31.04 -17.27,34.14 -35.6,78.26 -54.29,117.38 -20.25,41.78 -36.07,78.16 -54.97,118.23l-263.42 441.63c-8.7,11.48 -18.26,23.11 -24.94,32.02 -104.32,134.75 -256.25,292.93 -383.32,301.84 -88.54,6.09 -151.69,12.1 -159.36,-137.15 15.76,-47.23 220.54,-330.28 246.45,-363.76 228.76,-295.88 430.41,-515.16 707.89,-748.54 91.25,-76.83 318.76,-255.38 392.9,-283.26l0 0z"/>
      <path class="fil12" d="M3997.1 1852.9c34.97,103.55 32.2,195.3 -43.69,324.31 -198.89,338.36 -280.31,68 -743.85,848.41 -36.07,60.44 -56.2,100.92 -82.49,161.26 -42.22,98.01 -78.23,213.62 -70,318.96 -33.14,-7.63 -35.1,-111.13 -33.37,-139.69 4.77,-83.81 7.75,-91.45 30.39,-175.14 0.92,-3.44 4.89,-17.79 5.09,-18.73l41.24 -123.15 223.51 -408.86c331.18,-546.26 557.91,-387.72 447.71,-698.05 150.52,-108.86 142.09,-119.34 225.16,-88.7l0 0 0.3 -0.61z"/>
      <path class="fil13" d="M3057.36 3505.23c8.81,86.41 34.6,130.4 87.41,159.53 -284.98,120.3 -317.25,-300.28 -229.12,-559.62 22.85,-66.9 36.34,-117.85 72.93,-185.08l84.1 -153.06c89.32,-96.9 155.77,-174.85 252.8,-267.65 61.14,-58.27 263.07,-205.59 318.49,-242.3 -53.99,58.33 -114.58,90.43 -154.55,144.21 -53.03,70.99 -119.37,161.77 -165.75,237.97l-223.51 408.86 -41.24 123.15c-0.2,0.94 -4.09,15.64 -5.09,18.73 -23.02,83.94 -25.62,91.33 -30.39,175.14 -1.73,28.57 0.24,132.05 33.37,139.69l0 0 0.56 0.43z"/>
      <path class="fil6" d="M4068.16 2799.72c14.6,128.88 8.79,123.51 -135.01,275.02 18.41,-146.56 -4.48,-95.75 135.01,-275.02z"/>
      <path class="fil15" d="M5315.17 1291.1c-71.42,104.25 22.32,294.22 49.18,340.72 48.92,84.54 112.1,161.94 173.19,231.07 151.5,171.43 289.49,372.48 319.88,622.59 -32.77,243.64 -107.75,503.86 -218.59,765.11 -54.07,84.58 -118.94,172.36 -196.03,264.69 -81.91,97.98 -274.28,304.6 -377.9,383.66l-1.91 -7.59c29.59,-56.09 52.14,-131.25 66.49,-187.62 53.53,-210.78 13.37,-372.13 -114.86,-424.53 -37.77,-15.42 -76.49,-25.77 -123.38,-18.95 -89.82,13.39 -118.27,6.65 -212.99,28.96 -16.41,-6.74 -35.41,-11.36 -50.04,-18.09 -21.32,-10.31 -33.05,-25.03 -52.86,-48.84 -19.73,-23.47 -47.92,-55.78 -69.53,-79.6 -21.6,-23.83 -36.4,-40.12 -69.8,-48.79 -7.11,-1.68 -15.16,-3.55 -23.51,-4.82 7.75,-6.4 15.8,-13.4 23.85,-20.4 1.72,3.28 5.97,11.32 9.6,13.32 11.87,8.18 6.44,2.54 17.45,2.02 84.38,97.87 298.32,46.11 489.96,-108.43 239.1,-192.76 378.22,-412.5 436.79,-608.52 126.75,-423.06 -169.84,-547.32 -194.7,-796.71 -8.07,-81.67 28.31,-241.87 120.65,-280.72l0 0 -0.98 1.45z"/>
     </g>
    </g>
   </g>
   <g>
    <path class="fil0" d="M2890.82 581.13l289.89 270.24c435.13,382.6 357.86,1191.43 -142.82,1923.7 -76.99,113.29 -164.73,224.99 -261.92,332.73 -113.62,125.67 -233.9,239.03 -357.64,338.1 -668.05,539.35 -1443.03,690.23 -1867.78,317.39l-321.62 -299.72 2661.9 -2882.45 -0 -0z"/>
    <path class="fil1" d="M2418.33 3445.91l-265.84 -247.67c123.86,-100 244.01,-213.06 357.56,-338.9 97.27,-107.57 184.61,-219.01 261.94,-332.1l265.91 247.83c-76.99,113.29 -164.73,224.99 -261.92,332.73 -113.62,125.67 -233.9,239.04 -357.64,338.1l-0 0z"/>
    <path class="fil2" d="M2914.27 603.48c502.76,441.89 321.8,1451.88 -404.42,2256 -726.22,804.12 -1722.52,1097.71 -2225.28,655.82 -502.76,-441.89 -321.8,-1451.88 404.42,-2256 726.22,-804.12 1722.52,-1097.71 2225.28,-655.82z"/>
    <path class="fil3" d="M2624.61 924.08c392.19,344.37 250.91,1132.05 -315.23,1759.06 -566.21,626.84 -1343.22,855.89 -1735.22,511.38 -392.19,-344.37 -250.91,-1132.05 315.23,-1759.06 566.21,-626.84 1343.22,-855.89 1735.22,-511.38z"/>
    <path class="fil4" d="M361.05 2495.76c41.04,-337.01 222.92,-721.99 528.35,-1060.29 33.41,-36.9 67.58,-72.6 102.37,-106.81 -34.79,34.21 -68.96,69.91 -102.37,106.81 -305.5,338.14 -487.31,723.28 -528.35,1060.29z"/>
    <path class="fil0" d="M1460.58 3274.42c-345.49,124.04 -673.16,107.74 -886.49,-80.06 -180.49,-158.66 -248.16,-411.22 -213.12,-698.77 41.04,-337.01 222.92,-721.99 528.35,-1060.29 33.41,-36.9 67.58,-72.6 102.37,-106.81 99.9,-98.27 205,-184.72 312.34,-258.6 199.23,-137.13 405.7,-230.49 601.07,-275.16 -144.08,51.7 -290.83,127.69 -434.14,226.33 -144.29,99.32 -284.74,221.64 -414.39,364.98 -566.21,626.84 -707.29,1414.38 -315.23,1759.06 178.54,157.01 437.42,193.71 719.43,129.19l-0.2 0.14z"/>
    <path class="fil5" d="M1947.58 2681.56l-79.17 -71.23c-49.65,44.44 -98.89,83.24 -146.59,116.08 -207.44,142.78 -390.36,172.68 -509.32,65.96l382.06 -424.19c38.51,34.86 97.31,20.69 156.94,-20.35 29.52,-20.32 59.5,-47.37 87.36,-78.3 77.55,-86.09 126.7,-190.69 82.6,-230.47 -27.33,-24.38 -74.08,-6.1 -134.3,35.35 -52.2,35.93 -114.49,89.28 -182.57,147.47 -79.32,67.42 -166.36,141.66 -253.76,201.81 -158.57,109.14 -318.73,172.34 -437.61,65.79 -133.43,-119.63 -82.71,-348.05 123.05,-625.45l-95.19 -85.44 313.03 -344.82 96.81 86.89c41.29,-36.12 81.76,-67.61 120.86,-94.52 195.71,-134.71 361.83,-155.39 473.18,-55.41l-371.39 412.36c-33.93,-30.53 -83.86,-19.26 -135.87,16.54 -26.4,18.17 -53.39,42.73 -79.37,71.52 -66.05,73.26 -112.21,159.13 -74.38,192.96 24.57,22.01 69.21,4.11 127.48,-36 51.03,-35.12 112.55,-87.3 180.64,-144.86 79.72,-67.06 168.02,-141.3 256.98,-202.54 166,-114.25 334.37,-183.1 454.61,-75.13 146.02,131.07 79.95,381.17 -123.54,659.78l79.91 71.79 -313.03 344.82 0.59 -0.4z"/>
    <g id="_105553280201600_2">
     <g id="_105553240688960_3">
      <circle class="fil6" transform="matrix(-1.34085E+001 12.2622 5.49448 10.6006 1676.53 2044.41)" r="80.37"/>
      <path class="fil7" d="M1299.23 1303.91c-525.64,480.68 -777.08,1207.32 -561.81,1623.01 215.47,415.55 816.19,362.79 1341.82,-117.88 525.64,-480.68 777.08,-1207.32 561.81,-1623.01 -215.47,-415.55 -816.19,-362.79 -1341.82,117.88zm30.2 58.32c-484.83,443.39 -717,1113.8 -518.31,1497.07 198.68,383.26 752.76,334.61 1237.79,-108.92 484.83,-443.39 716.8,-1113.67 518.11,-1496.93 -198.68,-383.26 -752.76,-334.61 -1237.79,108.92l0.2 -0.14z"/>
      <path class="fil8" d="M1267.67 1292.28c-535.3,489.47 -791.3,1229.31 -571.91,1652.41 219.39,423.11 831.06,369.45 1366.3,-120.19 535.3,-489.47 791.3,-1229.31 571.91,-1652.41 -219.39,-423.11 -830.99,-369.28 -1366.3,120.19zm30.89 59.35c-493.78,451.48 -729.93,1134.03 -527.61,1524.2 202.4,390.33 766.63,340.67 1260.22,-110.68 493.78,-451.48 729.93,-1134.03 527.61,-1524.2 -202.4,-390.33 -766.63,-340.67 -1260.22,110.68z"/>
      <g>
       <path class="fil9" d="M2263.2 1032.36c-33.09,52.71 30.61,142.93 48.37,164.92 32.34,39.96 72.14,76.08 110.26,108.21 94.54,79.68 183.45,174.16 215.79,295.37 -3.04,119.7 -28.43,248.57 -73.62,378.89 -24.71,42.66 -55.19,87.17 -92.16,134.21 -39.29,49.92 -133.03,155.71 -185.52,196.97l-1.53 -3.65c12.91,-28.13 20.74,-65.38 25.19,-93.25 16.58,-104.21 -15.67,-181.87 -89.95,-204.09 -21.88,-6.54 -43.97,-10.58 -69.52,-6.04 -59.19,10.81 -70.36,4.59 -153.69,30.52 -26.07,8.11 -52.02,15.92 -79.56,22.91l-60 16.71c-1.58,0.44 -9.14,2.23 -10.91,2.81 -5.39,1.57 -3.28,1.19 -8.08,2.36 -78.8,21.73 -155.08,33.83 -224.75,29.82 -182.75,-10.63 -161.08,-179.08 -177.19,-220.58 6.49,-25.42 44.39,-101.54 65.91,-134.96l2.44 2.81c7.03,17.4 -40.97,194.55 91.6,259.18 68.69,33.55 174.27,12.62 290.28,-92.89 1.16,1.56 4.01,5.37 6.14,6.25 7.08,3.68 3.72,1.07 9.79,0.53 52.81,45.55 168.1,14.73 264.66,-65.63 120.48,-100.25 183.91,-211.05 204.2,-308.18 43.97,-209.66 -128.02,-262.55 -157.25,-383.56 -9.53,-39.63 0.68,-118.72 49.42,-140.07l0 0 -0.32 0.43z"/>
       <path class="fil10" d="M2284.86 2307.44c-32.77,-135.46 -166.85,-241.6 -217.76,-152.04 -34.96,61.48 -129.44,117.96 -181.88,152.13 -31.31,20.27 -62.14,38.07 -92.67,60.79 -49.28,36.91 -55.12,54.83 -81.74,94.75 -36.19,-73.24 117.99,-267.45 113.96,-351.7 -23.88,60.27 -10.68,43.7 -48.23,123.64 -129.71,276.16 -419.26,550.72 -653.05,561.96 -18.29,0.83 -91.62,5.54 -84.52,-35.27 11.1,-6.57 10.22,-4.47 19.47,-4.63 25.24,-0.48 18.58,3.46 53,-3.34 27.45,-5.42 43.97,-8.67 75.67,-19.58 124.36,-42.83 249.74,-152.44 339.79,-283.27 30.55,-44.34 88,-147.17 93.97,-178.64 -21.47,26.32 -45.24,66.42 -71.14,99 -137.61,174.25 -314.37,272.4 -452,228.79 -38.31,-12.12 -102.22,-44.46 -125,-88.66l-5.45 -11.22c41.74,14.89 42.9,32.7 114.41,10.41 135.61,-42.45 244.75,-170.38 291.64,-314.7 6.22,-18.82 16.11,-55.99 17.24,-74.94 0.84,-10.63 8.78,-26.57 12.54,-56.1 2.5,-19.9 3.21,-36.85 4.25,-57.24 1.68,-37.51 12.21,-85.16 28.69,-119.18 16.18,41.67 -5.56,209.95 177.19,220.58 69.87,3.87 145.95,-8.09 224.75,-29.82 5,-1.3 2.89,-0.92 8.08,-2.36 1.58,-0.44 9.07,-2.4 10.91,-2.81l60 -16.71c27.62,-6.82 53.56,-14.63 79.56,-22.91 83.34,-25.93 94.31,-19.58 153.69,-30.52 25.55,-4.54 47.83,-0.64 69.52,6.04 74.27,22.22 106.59,100.04 89.95,204.09 -4.45,27.87 -12.09,64.98 -25.19,93.25l0.07 0.16 0.26 0.04z"/>
       <path class="fil8" d="M2447.87 974.75c4.67,11.75 60.88,42.56 74.29,55.35 22.33,22.05 47.07,39.66 66.46,66.73 17.69,24.82 33.51,51.78 47.37,80.08 -55.35,-102.17 -148.64,-165.61 -244.45,-209.79 33.63,-13.52 23.57,-4.46 46.31,5.33l10.03 2.29 0 0 -0 0zm-30.39 1438.35c-35.73,56.02 -81.84,122.18 -118.28,166.3l-5.35 3.47 -0.16 -1.6c44.42,-54.52 85.84,-110.83 123.79,-168.16l0 -0zm-115.75 56.79c0.23,-11.49 0.34,-22.05 0.11,-30.44 -0.6,-48.98 -8.69,-85.75 -15.37,-128.19 52.49,-41.26 146.16,-147.21 185.52,-196.97 37.04,-46.88 67.65,-91.68 92.16,-134.21 -57.42,165.46 -146.45,333.65 -262.55,490.11l0 0 0.12 -0.3zm336.17 -869c-32.41,-121.38 -121.31,-215.85 -215.79,-295.37 -38.2,-32.3 -77.85,-68.08 -110.26,-108.21 -17.76,-21.99 -81.46,-112.21 -48.37,-164.92 5.59,-4.7 12.29,-9.74 20.05,-14.66 121.47,35.71 220.42,113.86 283.77,235.75 51.46,99.5 73.98,218.28 70.67,347.57l-0.07 -0.17z"/>
       <path class="fil10" d="M1886.56 1922.59c-116.01,105.51 -221.59,126.43 -290.28,92.89 -132.64,-64.8 -84.57,-241.79 -91.6,-259.18l-2.44 -2.81 11.56 -19.93c13.44,72.43 48.11,68.02 96.78,62.75 69.64,-7.52 144.18,-88.76 193.6,-157.2 3.21,-4.35 7.91,-10.58 11.83,-16.27l118.52 -222.27c8.05,-19.87 14.56,-38.03 23.12,-59.1 8.12,-19.7 15.41,-41.4 22.79,-58.67 2.08,-4.64 4.8,-10.79 7.08,-15.57 1.53,-2.97 2.79,-5.98 4.37,-9.42l51.28 -94.1c29.82,-47.89 65.45,-80.11 105.8,-120.29 -10.33,21.65 -84.94,99.73 -100.89,224.68 -16.41,128.68 26.21,287.08 -15.59,430.89 -25.2,86.62 -61.83,144.12 -146.38,223.7l0 0 0.46 -0.1z"/>
       <path class="fil11" d="M1902.3 1929.5c-6.07,0.54 -2.71,3.15 -9.79,-0.53 -1.94,-1.02 -4.79,-4.83 -5.95,-6.39 84.36,-79.45 121.18,-137.08 146.38,-223.7 41.74,-143.98 -0.82,-302.21 15.52,-431.06 15.95,-124.95 90.63,-202.86 100.89,-224.68l24.45 -25.81c5.71,-5 14.57,-11.52 24.29,-17.79 14.31,1.7 28.17,4.13 41.98,7.03 -26.03,52.13 -104.6,143.62 -20.89,258.78 54.74,75.43 119.1,146.17 117,260.3 -1.63,91.78 -55.14,199.82 -161.82,305.96 -110.69,110.4 -209.69,126.58 -272.14,97.72l0 0 0.07 0.17z"/>
       <path class="fil7" d="M1208.23 2246.64c28.73,2.46 47.57,8.96 90.26,-20.22 18.06,-12.22 39.25,-32.58 53.9,-49.93 21.43,-25.22 23.94,-34.86 38.38,-55.71 -1.13,18.96 -11.28,56.09 -17.24,74.94 -47.08,144.45 -156.16,272.55 -291.64,314.7 -71.52,22.28 -72.6,4.64 -114.41,-10.41l5.45 11.22c-30.83,-14.7 -57.87,-122.03 -62.44,-161.22 -12.29,-103.37 25.33,-235.53 84.77,-354.06 37.85,-75.66 66.14,-110.95 117.82,-185.44l-37.09 76.85c-16.1,33.74 -20.6,59.08 -29.11,92.31 -32.73,128.8 11.23,333.11 161.61,267.01l0 0 -0.26 -0.03z"/>
       <path class="fil7" d="M2173.68 1017.64l-24.52 25.65c-40.35,40.18 -75.98,72.4 -105.8,120.29l-51.28 94.1c-1.58,3.44 -3.11,6.41 -4.37,9.42 -2.28,4.78 -5.07,10.76 -7.08,15.57 -7.45,17.1 -14.87,39.1 -22.79,58.67 -8.63,20.91 -15.13,39.06 -23.12,59.1l-118.52 222.27c-4.11,5.82 -8.68,11.75 -11.83,16.27 -49.42,68.44 -123.77,149.55 -193.6,157.2 -48.66,5.27 -83.27,9.85 -96.78,-62.75 5.8,-23.45 101.67,-166.84 113.95,-183.85 108.36,-150.28 206.46,-262.48 345.68,-383.54 45.78,-39.85 160.72,-132.86 200.06,-148.39l0 0z"/>
       <path class="fil12" d="M1567.97 1340.67c25.79,49.6 29.95,94.43 -4.08,159.33 -89.18,170.22 -151.05,40.46 -359.4,433.18 -16.23,30.42 -24.87,50.69 -35.69,80.8 -17.31,48.91 -30.08,106.23 -18.99,157.4 -18.83,-2.86 -26.33,-53.29 -27.15,-67.27 -2.55,-41.01 -1.38,-44.81 5.97,-86.22 0.3,-1.7 1.61,-8.8 1.66,-9.27l15.21 -61.14 98.45 -205.25c149.56,-275.07 284.98,-203.63 204.69,-352.14 76.62,-57.01 71.3,-61.91 119.21,-49.12l0 0 0.13 -0.3z"/>
       <path class="fil13" d="M1149.92 2171.09c10.24,41.92 27.25,62.71 58.31,75.54 -150.39,66.09 -194.35,-138.22 -161.61,-267.01 8.51,-33.23 12.82,-58.43 28.92,-92.17l37.09 -76.85c107.85,-123.2 155.35,-175.78 287.22,-265.68 -26.29,29.86 -49.77,54.99 -68.58,82.26 -24.97,36.01 -66.58,76.19 -87.54,114.56l-98.45 205.25 -15.21 61.14c-0.05,0.47 -1.29,7.73 -1.66,9.27 -7.55,41.54 -8.53,45.21 -5.97,86.22 0.82,13.98 8.32,64.41 27.15,67.27l0 0 0.34 0.2z"/>
       <path class="fil6" d="M1666.05 1800.67c16.08,62.49 12.53,60.02 -57.73,137.66 1.11,-71.97 -8.42,-46.59 57.73,-137.66z"/>
      </g>
      <path class="fil9" d="M2263.2 1032.36c-33.09,52.71 30.61,142.93 48.37,164.92 32.34,39.96 72.14,76.08 110.26,108.21 94.54,79.68 183.45,174.16 215.79,295.37 -3.04,119.7 -28.43,248.57 -73.62,378.89 -24.71,42.66 -55.19,87.17 -92.16,134.21 -39.29,49.92 -133.03,155.71 -185.52,196.97l-1.53 -3.65c12.91,-28.13 20.74,-65.38 25.19,-93.25 16.58,-104.21 -15.67,-181.87 -89.95,-204.09 -21.88,-6.54 -43.97,-10.58 -69.52,-6.04 -48.92,8.87 -65.1,6.32 -116.18,19.67 -9.51,-2.86 -20.32,-4.62 -28.84,-7.52 -12.45,-4.47 -19.86,-11.35 -32.31,-22.45 -12.38,-10.93 -30,-25.96 -43.45,-37.02 -13.44,-11.06 -22.65,-18.62 -41.69,-21.98 -4.04,-0.64 -8.62,-1.34 -13.32,-1.74 3.9,-3.32 7.92,-6.95 11.94,-10.57 1.16,1.56 4.01,5.37 6.14,6.25 7.08,3.68 3.72,1.07 9.79,0.53 52.81,45.55 168.1,14.73 264.66,-65.63 120.48,-100.25 183.91,-211.05 204.2,-308.19 43.97,-209.66 -128.02,-262.55 -157.25,-383.56 -9.53,-39.63 0.68,-118.71 49.42,-140.07l0 0 -0.45 0.73z"/>
      <path class="fil10" d="M2284.86 2307.44c-32.77,-135.46 -166.85,-241.6 -217.76,-152.04 -34.96,61.48 -129.44,117.96 -181.88,152.13 -31.31,20.27 -62.14,38.07 -92.67,60.79 -49.28,36.91 -55.12,54.83 -81.74,94.75 -36.19,-73.24 117.99,-267.45 113.96,-351.7 -23.88,60.27 -10.68,43.7 -48.23,123.64 -129.71,276.16 -419.26,550.72 -653.05,561.96 -18.29,0.83 -91.62,5.54 -84.52,-35.27 11.1,-6.57 10.22,-4.47 19.47,-4.63 25.24,-0.48 18.58,3.46 53,-3.34 27.45,-5.42 43.97,-8.67 75.67,-19.58 124.36,-42.83 249.74,-152.44 339.79,-283.27 30.55,-44.34 88,-147.17 93.97,-178.64 -21.47,26.32 -45.24,66.42 -71.14,99 -137.61,174.25 -314.37,272.4 -452,228.79 -38.31,-12.12 -102.22,-44.46 -125,-88.66l-5.45 -11.22c41.74,14.89 42.9,32.7 114.41,10.41 135.61,-42.45 244.75,-170.38 291.64,-314.7 6.22,-18.82 16.11,-55.99 17.24,-74.94 0.84,-10.63 8.78,-26.57 12.54,-56.1 2.5,-19.9 3.21,-36.85 4.25,-57.24 1.68,-37.51 12.21,-85.16 28.69,-119.18 16.18,41.67 -5.56,209.95 177.19,220.58 69.87,3.87 145.95,-8.09 224.75,-29.82 5,-1.3 2.89,-0.92 8.08,-2.36 1.58,-0.44 9.07,-2.4 10.91,-2.81l60 -16.71c27.62,-6.82 53.56,-14.63 79.56,-22.91 83.34,-25.93 94.31,-19.58 153.69,-30.52 25.55,-4.54 47.83,-0.64 69.52,6.04 74.27,22.22 106.59,100.04 89.95,204.09 -4.45,27.87 -12.09,64.98 -25.19,93.25l0.07 0.16 0.26 0.04z"/>
      <path class="fil8" d="M2516.03 1037.73c22.33,22.05 53.13,31.86 72.51,58.93 17.69,24.82 33.51,51.78 47.37,80.08 -55.35,-102.17 -169.29,-154.18 -265.1,-198.36 70.99,-28.34 108.53,23.44 145.02,59.48l0 0 0.19 -0.13zm-98.56 1375.36c-35.73,56.02 -81.84,122.18 -118.28,166.3l-5.35 3.47 -0.16 -1.6c44.42,-54.52 85.84,-110.83 123.79,-168.16l0 -0zm-115.75 56.79c0.23,-11.49 0.34,-22.05 0.11,-30.44 -0.6,-48.98 -8.69,-85.75 -15.37,-128.19 52.49,-41.26 146.16,-147.21 185.52,-196.97 37.04,-46.88 67.65,-91.68 92.16,-134.21 -57.42,165.46 -146.45,333.65 -262.55,490.11l0 0 0.12 -0.3zm336.17 -869c-32.41,-121.38 -121.31,-215.85 -215.79,-295.37 -38.2,-32.3 -77.85,-68.08 -110.26,-108.21 -17.76,-21.99 -81.46,-112.21 -48.37,-164.92 5.59,-4.7 12.29,-9.74 20.05,-14.66 121.47,35.71 220.42,113.86 283.77,235.75 51.46,99.5 73.98,218.28 70.67,347.57l-0.07 -0.17z"/>
      <path class="fil10" d="M1886.56 1922.59c-116.01,105.51 -221.59,126.43 -290.28,92.89 -132.64,-64.8 -84.57,-241.79 -91.6,-259.18l-2.44 -2.81 11.56 -19.93c13.44,72.43 48.11,68.02 96.78,62.75 69.64,-7.52 144.18,-88.76 193.6,-157.2 3.21,-4.35 7.91,-10.58 11.83,-16.27l118.52 -222.27c8.05,-19.87 14.56,-38.03 23.12,-59.1 8.12,-19.7 15.41,-41.4 22.79,-58.67 2.08,-4.64 4.8,-10.79 7.08,-15.57 1.53,-2.97 2.79,-5.98 4.37,-9.42l51.28 -94.1c29.82,-47.89 65.45,-80.11 105.8,-120.29 -10.33,21.65 -84.94,99.73 -100.89,224.68 -16.41,128.68 26.21,287.08 -15.59,430.89 -25.2,86.62 -61.83,144.12 -146.38,223.7l0 0 0.46 -0.1z"/>
      <path class="fil14" d="M2034.22 2023.87c-10.65,2.84 -23,6.42 -37.32,10.72 -26.07,8.11 -52.21,16.05 -79.57,22.91l-60.07 16.54c-1.58,0.44 -9.14,2.23 -10.91,2.81 -5.39,1.57 -3.28,1.19 -8.08,2.36 -78.8,21.73 -155.08,33.83 -224.75,29.82 -182.75,-10.63 -161.08,-179.08 -177.19,-220.58 6.49,-25.42 44.39,-101.54 65.91,-134.96l2.44 2.81c7.03,17.4 -40.97,194.55 91.6,259.18 66.42,32.33 167.02,13.97 278.34,-82.31 4.7,0.4 9.2,0.94 13.32,1.74 19.04,3.36 28.44,10.79 41.69,21.98 13.44,11.06 30.87,26.22 43.45,37.02 12.38,10.93 19.86,17.97 32.31,22.45 8.52,2.9 19.4,4.83 28.84,7.52l0 0 -0 -0z"/>
      <path class="fil11" d="M1902.3 1929.5c-6.07,0.54 -2.71,3.15 -9.79,-0.53 -1.94,-1.02 -4.79,-4.83 -5.95,-6.39 84.36,-79.45 121.18,-137.08 146.38,-223.7 41.74,-143.98 -0.82,-302.21 15.52,-431.06 15.95,-124.95 90.63,-202.86 100.89,-224.68l24.45 -25.81c5.71,-5 14.57,-11.52 24.29,-17.79 14.31,1.7 28.17,4.13 41.98,7.03 -26.03,52.13 -104.6,143.62 -20.89,258.78 54.74,75.43 119.1,146.17 117,260.3 -1.63,91.78 -55.14,199.82 -161.82,305.96 -110.69,110.4 -209.69,126.58 -272.14,97.72l0 0 0.07 0.17z"/>
      <path class="fil7" d="M1208.23 2246.64c28.73,2.46 47.57,8.96 90.26,-20.22 18.06,-12.22 39.25,-32.58 53.9,-49.93 21.43,-25.22 23.94,-34.86 38.38,-55.71 -1.13,18.96 -11.28,56.09 -17.24,74.94 -47.08,144.45 -156.16,272.55 -291.64,314.7 -71.52,22.28 -72.6,4.64 -114.41,-10.41l5.45 11.22c-30.83,-14.7 -57.87,-122.03 -62.44,-161.22 -12.29,-103.37 25.33,-235.53 84.77,-354.06 37.85,-75.66 66.14,-110.95 117.82,-185.44l-37.09 76.85c-16.1,33.74 -20.6,59.08 -29.11,92.31 -32.73,128.8 11.23,333.11 161.61,267.01l0 0 -0.26 -0.03z"/>
      <path class="fil7" d="M2173.68 1017.64l-24.52 25.65c-40.35,40.18 -75.98,72.4 -105.8,120.29l-51.28 94.1c-1.58,3.44 -3.11,6.41 -4.37,9.42 -2.28,4.78 -5.07,10.76 -7.08,15.57 -7.45,17.1 -14.87,39.1 -22.79,58.67 -8.63,20.91 -15.13,39.06 -23.12,59.1l-118.52 222.27c-4.11,5.82 -8.68,11.75 -11.83,16.27 -49.42,68.44 -123.77,149.55 -193.6,157.2 -48.66,5.27 -83.27,9.85 -96.78,-62.75 5.8,-23.45 101.67,-166.84 113.95,-183.85 108.36,-150.28 206.46,-262.48 345.68,-383.54 45.78,-39.85 160.72,-132.86 200.06,-148.39l0 0z"/>
      <path class="fil12" d="M1567.97 1340.67c25.79,49.6 29.95,94.43 -4.08,159.33 -89.18,170.22 -151.05,40.46 -359.4,433.18 -16.23,30.42 -24.87,50.69 -35.69,80.8 -17.31,48.91 -30.08,106.23 -18.99,157.4 -18.83,-2.86 -26.33,-53.29 -27.15,-67.27 -2.55,-41.01 -1.38,-44.81 5.97,-86.22 0.3,-1.7 1.61,-8.8 1.66,-9.27l15.21 -61.14 98.45 -205.25c149.56,-275.07 284.98,-203.63 204.69,-352.14 76.62,-57.01 71.3,-61.91 119.21,-49.12l0 0 0.13 -0.3z"/>
      <path class="fil13" d="M1149.92 2171.09c10.24,41.92 27.25,62.71 58.31,75.54 -150.39,66.09 -194.35,-138.22 -161.61,-267.01 8.51,-33.23 12.82,-58.43 28.92,-92.17l37.09 -76.85c43.47,-49.59 75.43,-89.34 123.43,-137.13 30.25,-30.02 132.96,-107.13 161.38,-126.47 -26.29,29.86 -57.86,47.09 -76.66,74.36 -24.97,36.01 -56.09,82.01 -77.05,120.39l-98.45 205.25 -15.21 61.14c-0.05,0.47 -1.29,7.73 -1.66,9.27 -7.55,41.54 -8.53,45.21 -5.97,86.22 0.82,13.98 8.32,64.41 27.15,67.27l0 0 0.34 0.2z"/>
      <path class="fil6" d="M1666.05 1800.67c16.08,62.49 12.53,60.02 -57.73,137.66 1.11,-71.97 -8.42,-46.59 57.73,-137.66z"/>
      <path class="fil15" d="M2263.2 1032.36c-33.09,52.71 30.61,142.93 48.37,164.92 32.34,39.96 72.14,76.08 110.26,108.21 94.54,79.68 183.45,174.16 215.79,295.37 -3.04,119.7 -28.43,248.57 -73.62,378.89 -24.71,42.66 -55.19,87.17 -92.16,134.21 -39.29,49.92 -133.03,155.71 -185.52,196.97l-1.53 -3.65c12.91,-28.13 20.74,-65.38 25.19,-93.25 16.58,-104.21 -15.67,-181.87 -89.95,-204.09 -21.88,-6.54 -43.97,-10.58 -69.52,-6.04 -48.92,8.87 -65.1,6.32 -116.18,19.67 -9.51,-2.86 -20.32,-4.62 -28.84,-7.52 -12.45,-4.47 -19.86,-11.35 -32.31,-22.45 -12.38,-10.93 -30,-25.96 -43.45,-37.02 -13.44,-11.06 -22.65,-18.62 -41.69,-21.98 -4.04,-0.64 -8.62,-1.34 -13.32,-1.74 3.9,-3.32 7.92,-6.95 11.94,-10.57 1.16,1.56 4.01,5.37 6.14,6.25 7.08,3.68 3.72,1.07 9.79,0.53 52.81,45.55 168.1,14.73 264.66,-65.63 120.48,-100.25 183.91,-211.05 204.2,-308.19 43.97,-209.66 -128.02,-262.55 -157.25,-383.56 -9.53,-39.63 0.68,-118.71 49.42,-140.07l0 0 -0.45 0.73z"/>
     </g>
    </g>
   </g>
  </g>
 </g>
</svg>
