<?xml version="1.0" encoding="UTF-8"?>
<!DOCTYPE svg PUBLIC "-//W3C//DTD SVG 1.1//EN" "http://www.w3.org/Graphics/SVG/1.1/DTD/svg11.dtd">
<!-- Creator: CorelDRAW -->
<svg xmlns="http://www.w3.org/2000/svg" xml:space="preserve" width="27.7778in" height="18.5139in" version="1.1" style="shape-rendering:geometricPrecision; text-rendering:geometricPrecision; image-rendering:optimizeQuality; fill-rule:evenodd; clip-rule:evenodd"
viewBox="0 0 5579.55 3718.77"
 xmlns:xlink="http://www.w3.org/1999/xlink"
 xmlns:xodm="http://www.corel.com/coreldraw/odm/2003">
 <defs>
  <style type="text/css">
   <![CDATA[
    .fil0 {fill:#E6E6E6}
   ]]>
  </style>
 </defs>
 <g id="Layer_x0020_1">
  <metadata id="CorelCorpID_0Corel-Layer"/>
  <g id="_105553320115712">
   <path class="fil0" d="M3103.68 691.25c155.3,-8.34 321.74,35.35 435.43,138.36 14.07,12.75 27.44,22.09 41.58,39.36 46.4,56.7 96.35,128.5 95.04,235.78 -0.58,47.58 -12.11,97.16 -30.88,135.33 -136.96,278.57 -730.4,244.58 -790.16,694.43 -13.13,98.86 -10.77,194.54 -60.3,271.23 -41.14,63.7 -100.37,113.89 -173.53,155.66 -174.99,99.91 -317.5,114.16 -490.87,251.25 -39.22,31.01 -103.36,109 -142.51,147.58 -7.51,7.4 -11.68,14.91 -19.04,22.88l-81.14 83.45c-8.3,7.57 -13.5,12.03 -21.04,20.72 -7.92,9.12 -12.41,11.02 -20.71,18.47 -109.4,98.11 -275.35,181.71 -481.15,175.75 -97.6,-2.83 -186.41,-29.26 -261.16,-69.79 -242.94,-131.73 -352.71,-384.39 -299.74,-660.05 28.11,-146.29 80.5,-229.35 160.5,-335.88 19.97,-26.59 24.16,-26.18 40.17,-43.56 26.51,-28.78 55.53,-53.46 87.13,-77.52 248.6,-189.28 658.49,-263.68 964.74,-269.49 108.12,-2.05 201.07,9.6 289.74,-41.04 79.18,-45.23 88.58,-115.54 102.06,-227.2 28.43,-235.63 122.52,-417.1 291.23,-534.41 103.14,-71.72 230.48,-124.09 364.62,-131.29zm-2148.07 1319.91c-1.47,7.42 1.3,0.79 -4.09,8.79l-33.77 41.71c-6.93,16.53 -22.26,36.01 -32.48,53.88 -81.02,141.77 -119.5,301.41 -95.23,467.36 37.14,253.91 237.55,454.62 489.87,497.36 210.56,35.67 408.34,-33.23 564.08,-162.27 28.21,-23.38 38.43,-36.09 62.36,-60.29 7.07,-7.16 13.51,-11.52 20.61,-18.47 14.35,-14.05 22.54,-27.67 38.47,-42.34l118.72 -129.69c14.28,-14.68 25.71,-26.08 41.57,-39.37 5.9,-4.95 5.29,-5.45 11.26,-10.97 4.3,-3.97 6.42,-4.92 11.06,-8.56 121.05,-94.83 272.07,-141.23 410.76,-205.74 405.92,-188.8 229.67,-416.03 356.95,-627.85 44.59,-74.22 94.85,-117.29 163.87,-165.37 64.14,-44.67 138.51,-75.35 214.81,-111.53 150.81,-71.5 322.59,-138.83 370.48,-287.67 14.75,-45.85 22.05,-95.36 16.02,-145.09 -15.41,-127.21 -98.83,-224.39 -202.34,-289.22 -254.61,-159.46 -573.74,-107.77 -800.47,86.11 -28.63,24.48 -57.32,52.68 -79.69,82.14 -12.41,16.34 -22.55,29.87 -34.16,46.66 -43.49,62.87 -76.65,143.44 -98.77,230.52 -22.86,90.02 -30.05,222.5 -52.56,276.55 -59.54,142.95 -250.35,115.87 -373.62,120.35 -307.58,11.19 -657.67,74.13 -909.27,240.01 -17.73,11.69 -31.83,22.7 -48.62,35.07l-44.15 36.75c-19.36,14.71 -68.89,73.4 -81.68,81.15z"/>
   <path class="fil0" d="M2983.94 2649.92c-12.84,3.41 -29.34,-2.66 -43.51,-4.03 -168.09,-33.43 -350.54,-47.69 -500.69,22.58 -71.86,33.63 -82.52,46.39 -132.87,84.77l-75.24 69.77c-220.13,241.87 -270.91,552.45 -419.75,807.83l-53.69 87.93 9.11 0c9.8,-18.32 24.45,-39.3 36.48,-59.78 38.97,-66.32 65.93,-121.65 98.21,-194.67 81.69,-184.74 137.52,-360.76 251.28,-529.91 12.42,-18.47 69.39,-92.62 86.62,-108.68 12.13,-11.31 16.64,-15.28 25.66,-24.58l50.92 -46.64c200.78,-163.72 394.1,-136.99 665.31,-95.71 291.12,44.32 409.47,15.4 642.64,-100.08 178.02,-88.17 322.37,-191.11 543.76,-237.26 259.42,-54.08 465.89,-21.11 596.43,133.79 141.85,168.33 48.06,421.06 -20.59,609.3 -77.38,212.19 -109.88,444.64 -20.03,654.21l8.31 0c-13.78,-33.28 -23.35,-53.49 -33.3,-90.27 -68.65,-253.75 31.31,-485.76 103.28,-711.9 41.95,-131.8 72.51,-282.25 5.22,-409.34 -133.07,-251.34 -476.06,-245.64 -718.93,-173.74 -134.24,39.74 -226.55,92.38 -338.71,149.88 -242.85,124.52 -375.4,213.3 -661.02,182.64l-102.55 -15.07c-0.45,-1.03 -1.61,-0.63 -2.36,-1.05z"/>
   <path class="fil0" d="M5579.55 2043.76l0 -7.02c-204.92,9.26 -412.89,-130.43 -652.98,-175.68 -251.59,-47.42 -493.45,-11.14 -707.73,78.62 -73.19,30.66 -137.8,70.27 -203.12,109.29 -175.88,105.06 -458.27,302.59 -670.74,191.21 -47.32,-24.81 -86.67,-58.66 -111.35,-95.14 -70.64,-104.44 -20.74,-211.17 47.2,-300.89 23.15,-30.57 46.45,-56.03 73.9,-82.42 10.27,-9.87 13.91,-13.97 24.53,-25.6 8.51,-9.32 19.53,-15.28 28.41,-24.67 32.93,-34.85 163.68,-129.86 203.09,-156.74 112.22,-76.55 277.8,-162.91 371.68,-247.64 35.5,-32.04 71.09,-65.72 99.72,-106.62 140.29,-200.49 117.05,-423.8 -3.73,-631.1 -13.39,-22.98 -26.18,-42.57 -40.1,-63.14 -14.04,-20.75 -28.84,-40.04 -42.56,-60.7 -66.96,-100.89 -72.45,-214.83 -19.38,-324.61 36.83,-76.19 73.55,-101.73 85.7,-120.89l-10.55 0 -24.57 29.26c-21.26,24.25 -46.45,64.64 -60.57,95.63 -22.84,50.15 -37.73,110.25 -32.12,171.69 10.69,117.23 78.06,176.78 138.36,278.53 123.2,207.87 140.24,432.96 -2.88,629.78 -41.4,56.93 -103.16,108.64 -161.08,151.21 -90.33,66.4 -213.53,129 -314.65,201.41 -26.8,19.19 -160.38,116.1 -191.93,148.45l-65.5 62.81c-10.97,9.11 -14.9,15.94 -23.94,26.31l-24.69 28.28c-77.99,89.49 -136.24,222.01 -57.54,330.48 25.34,34.92 65.58,69.89 112.59,93.88 106.8,54.51 233.03,32.25 340.3,-9.49 204.35,-79.51 350.92,-211.96 537.31,-291.26 216.07,-91.93 453.6,-123.34 706.48,-78.5 237.44,42.1 431.87,183.11 652.41,175.3z"/>
   <path class="fil0" d="M4219.95 78.2c-0.11,11.79 -10.83,31.16 -14.55,44.53 -17.21,32.8 -25.04,121.88 -24.96,164.61 0.21,119.73 25.49,204.52 62.32,313.14 50.19,148.03 91.58,321.32 49.44,475.02 -34.92,127.38 -129.32,210.01 -224.87,291.3 -74.82,63.66 -165.37,119.29 -247.23,174.11 -141.9,95.03 -478.64,270.23 -490.37,443.42 -2.54,37.53 10.84,78.98 35.9,104.06 6.88,6.88 17.14,17.82 24.05,23.32 35.97,28.67 94.24,38.18 150.42,30.75 99.63,-13.17 194.75,-59.42 274.84,-99.19 379.08,-188.25 712.77,-384.44 1154.91,-264.59 95.18,25.8 186.21,64.13 282.16,91.43 139.56,39.71 192.91,40.45 327.56,18.91l0 -7.6c-236.62,49.45 -396.49,-50.42 -625.55,-115.16 -220.51,-62.32 -458.51,-28.06 -657.97,46.82 -124.91,46.89 -281.41,118.59 -400.07,180.24 -112.93,58.67 -301.08,162.39 -432.41,141.79 -54.23,-8.51 -92.22,-44.41 -112.04,-80.1 -39.72,-71.54 7.58,-154.19 55.04,-205.24l75.05 -72.71 81.49 -60.86c37.64,-25.14 75.36,-52.94 115.44,-77.07 38.82,-23.37 79.19,-49.36 118.08,-74.41 80.71,-51.98 159.32,-101.64 229.29,-155.65 48.01,-37.05 68.71,-58.35 105.05,-87.43 11.75,-9.4 14.63,-13.19 25.31,-24.89l48.01 -46.81c7.24,-8.97 14.16,-16.91 20.98,-26.48 27.78,-39 50.33,-72.53 68.37,-127.1 50.91,-154.03 9.82,-342.45 -40.08,-487.16 -35.82,-103.88 -64.8,-197.08 -65.7,-319.08 -0.7,-94.46 18,-189.24 73.44,-263.75 7.7,-10.35 15.25,-16.38 20.54,-26.38l-9.53 0c-9.76,11.96 -18.94,24.61 -27.53,37.77l-23.22 38.83c-0.23,-0.47 -1.02,1.11 -1.59,1.6z"/>
   <path class="fil0" d="M1982.35 1729.06c217.2,-6.4 512.09,-12 664.29,101.84 64,47.87 131.5,150.36 78.56,269.34 -35.81,80.48 -113.71,151.92 -196.44,188.62 -137.16,60.84 -283.14,74.14 -410.27,170.01l-53.06 44.6c-27.31,28.44 -45.93,44.7 -70.89,74.16 -8.69,10.25 -8.44,6.56 -22.58,24.8l-90.24 102.31c-5.9,7 -17.15,16.55 -23.84,23.5 -8.43,8.76 -14.65,15.56 -23.29,24.18 -168.64,168.1 -454.84,287.62 -694.02,149.42 -21.97,-12.69 -68.13,-44.79 -83.26,-61.85 -34.08,-38.46 -25.03,-20.11 -67.37,-77.74 -109.05,-148.41 -124.06,-371.79 -56.49,-537.07 49.81,-121.85 114.41,-176.53 196.7,-241.46 214.04,-168.91 580.18,-246.66 852.2,-254.67zm-28.79 -5.98c-303.08,13.11 -615.08,90.39 -847.86,269.79 -9.69,7.47 -18.53,14.21 -27.52,22.69l-24.74 22.69c-36.05,38.2 -34.76,30.58 -69.43,78.41 -25.72,35.49 -49.44,81.83 -66.1,129.15 -77.86,220.99 -17,493.23 175.08,633.84 163.53,119.72 349.49,112.19 529.63,28.95 74.52,-34.44 118.81,-62.58 176.83,-113.14l49.88 -47.81c8.93,-9.23 14.18,-13.57 24.36,-23.08l69.07 -78.77c100.44,-109.28 163.68,-197.39 324.76,-258.39 94.35,-35.73 201.43,-58.73 287.47,-103.02 79.75,-41.06 155.9,-116.64 185.24,-202.61 42.02,-123.12 -36.26,-223.53 -103.08,-266.43 -165.45,-106.22 -463.89,-101.75 -683.6,-92.25z"/>
   <path class="fil0" d="M1894.97 3718.77l9.27 0c12.34,-18.71 24.71,-32.48 37.53,-50.13 56.51,-77.81 51.24,-69.9 97.83,-164.41 37.71,-76.51 68.74,-166.25 100.96,-247.74 76.12,-192.51 148.88,-325.39 280.16,-420.14 65.28,-47.11 153.93,-84.05 251.95,-96.23 110.21,-13.69 208.92,14.31 313.67,31.93 305.57,51.41 603.53,-4.33 868.17,-145.17 76.38,-40.65 151.44,-82.73 233.86,-117.53 196.85,-83.12 406.81,-82.64 525.82,60.14 53.23,63.86 79.43,172.74 69.35,278.97 -23.69,249.81 -179.62,413.29 -145.85,722.08 5.75,52.55 17.94,97.88 26.96,148.22l6.97 0c-5.61,-48.53 -21.19,-97.8 -26.96,-150.73 -33.36,-306 131.34,-489.91 146.7,-725.98 13.87,-213.15 -85.18,-372.3 -308.95,-394.02 -113.53,-11.02 -204,16.84 -295.81,53.95 -79.64,32.19 -161.29,78.16 -233.95,117.57 -263.66,142.98 -568.81,194.92 -871.52,144.11 -105.33,-17.68 -201.39,-44.86 -311.93,-30.63 -95.2,12.26 -191.57,50.99 -253.77,98.1 -27.77,21.03 -70.97,58.05 -94.38,84.06l-39.66 49.63c-11.32,14.56 -25.16,35.4 -34.91,51.6 -106.66,177.18 -198.89,498.95 -276.87,601.97l-74.64 100.37z"/>
   <path class="fil0" d="M5579.55 1634.37l0 -9.32c-18.25,8.67 -26.11,18.69 -60.92,32.66 -168.21,67.48 -371.2,-8.29 -542.47,-47.26 -191.96,-43.68 -470.82,-15.37 -651.02,42.3 -307.37,98.36 -365.49,203.5 -617.75,302.68 -22.1,8.69 -44.36,15.75 -68.63,23.39 -25.32,7.98 -53.39,18.73 -66.1,-5.55 -25.45,-48.61 16.84,-109.62 36.85,-132.5 87.52,-100.09 540.06,-262.99 731.33,-440.41 29.64,-27.49 140.64,-126.92 154.71,-143.72 14.22,-16.96 33.04,-27.61 48.03,-44.12 20.27,-22.32 33.38,-29.54 45.61,-43.62l147.4 -128.78c8.13,-6.81 18.11,-13.71 26.78,-20.62 192.24,-153.13 459.09,-279.91 707.89,-160.82 57.3,27.43 68.47,44.3 108.28,74.41l0 -10.1c-8.81,-5.85 -15.13,-12.37 -24.47,-19.73 -248.76,-196.1 -547.08,-72.23 -770.03,90.5 -18.85,13.76 -36.31,26.96 -52.08,39.97 -24.98,20.61 -124.3,104.09 -148.09,128.19l-94.95 89.11c-8.46,8.36 -13.17,14.79 -21.9,22.66l-170.85 152.82c-122.27,95.87 -265.35,169.76 -405.54,239.18l-182.75 93.18c-35.15,18.48 -87.46,55.32 -105.9,78.17 -22.16,27.46 -61.67,80.83 -38.55,136.25 17.54,42.04 93.38,8.56 134.62,-6.64 232.51,-85.73 319.69,-205.44 617.07,-303.51 190.63,-62.87 449.53,-87.17 653.6,-46.64 161.76,32.12 377.19,118.88 546.68,50.08 27.17,-11.03 40.76,-20.4 63.13,-32.21z"/>
   <path class="fil0" d="M-0 1298.62l0 7.19c181.16,14.15 363.92,108.39 522.93,174.26 235.61,97.6 323.39,96.38 555,-0.36 95.66,-39.96 161.07,-65.06 277.86,-70.24 221,-9.79 454.52,75.4 641.03,26.81 385.43,-100.4 148.48,-565.88 559.57,-838.33 327.27,-216.89 684.88,-31.11 971.61,-250.33 102.06,-78.03 176.63,-212.64 179.62,-347.63l-7.22 0c-1.7,172.93 -129.63,346.89 -289.52,406.39 -96.7,35.98 -176.73,49.67 -290.25,57.56 -108.08,7.51 -217.35,6.28 -322.38,27.31 -199.9,40.02 -340.69,152.67 -421.31,275.93 -169,258.4 -74.35,584.11 -383.89,662.18 -186.97,47.15 -422.56,-37.21 -640.02,-27.24 -247.15,11.33 -359.68,149.32 -555.2,143.08 -100.21,-3.2 -193.16,-38.91 -275.06,-73.28 -81.69,-34.28 -159.92,-72.98 -245.18,-103.53 -80.34,-28.79 -183.92,-63.64 -277.6,-69.77z"/>
   <path class="fil0" d="M-0 1079.27l0 7.41c309.51,30.25 585.17,356.32 1015.15,224.21 260.45,-80.02 255.27,-109.3 545.72,-67.58 95.57,13.73 202.23,29.4 298.43,7.6 72.89,-16.52 132.76,-53.15 180.23,-104.07 57.78,-61.97 92.62,-151.99 122.21,-243.5 36,-111.33 66.79,-188.21 128.65,-278.43 28.66,-41.8 77.86,-92.91 119.6,-123.12 59.48,-43.04 138.65,-79.59 225.06,-101.23 177.56,-44.47 376.26,-52.76 546.84,-103.23 154.01,-45.56 326.71,-153.71 357.01,-297.34l-7.69 0c-12.82,79.21 -93.43,153.64 -138.85,186.93 -60.01,43.97 -132.57,79.88 -218.54,104.94 -174.92,50.98 -373.02,53.33 -547.14,103.24 -273.57,78.41 -386.79,232.06 -471.9,504.56 -27.1,86.76 -54.94,161.02 -103.25,220.09 -22,26.9 -16.72,19.42 -40.49,43.26 -121.51,121.84 -310.36,93.33 -459,71.32 -289.4,-42.84 -294.57,-2.12 -542.86,70.6 -429.92,125.91 -691.71,-191.87 -1009.2,-225.66z"/>
   <path class="fil0" d="M1973.46 1801.33c100.22,-1.91 208.45,-3.09 307.39,10.05 105.5,14.01 169.35,36.61 234.59,89.34 65.52,52.96 89.45,149.48 44.14,232.05 -88.53,161.31 -269.71,174.52 -409.78,234.61 -102.3,43.88 -154.04,104.87 -222.16,179.62 -4.25,4.67 -7.02,6.3 -11.23,10.98l-65.36 74.21c-33.3,38.23 -87.24,83.2 -130.97,111.76 -170.15,111.12 -375.73,139.22 -537.15,-1.57 -47.98,-41.85 -74.84,-80.52 -102.9,-139.93 -17.24,-36.5 -29.65,-82.15 -36.04,-125.66 -14.41,-98.25 3.06,-192.95 40.07,-273.96 8.6,-18.83 19.26,-36.91 28.66,-52.3 13.35,-21.87 54.47,-70.63 74,-87.78 202.73,-178.02 508.52,-256.11 786.73,-261.43zm615.77 265.9c12.86,-99.95 -56.52,-174.28 -115.67,-205.49 -75.67,-39.93 -161.5,-58.65 -262.1,-64.47 -286.91,-16.6 -583.89,8.48 -839.38,132.78 -106.54,51.83 -208.95,126.5 -268.87,222.07 -73.88,117.86 -88.53,262.15 -51.03,397.21 24.22,87.25 67.09,142.66 126.27,200.2 19.38,18.84 66.63,49.25 100.54,64.09 170.6,74.61 355.7,6.69 491.91,-96.98 16.02,-12.19 29.59,-25.28 43.42,-37.48l118.54 -126.92c8.08,-10.05 10.8,-11.9 20.17,-21.63 6.73,-6.99 11.26,-13.56 17.93,-21.17 30.43,-34.73 91.97,-89.43 133.92,-111.6 124.13,-65.61 241.44,-73.69 346.62,-141.58 51.19,-33.04 126.66,-103.01 137.72,-189.02z"/>
   <path class="fil0" d="M2057.85 3718.77l8.66 0c6.48,-14.53 20.78,-34.44 29.53,-46.51 33.46,-46.16 64.44,-83 92.45,-136.29 87.59,-166.62 121.99,-360.37 247.05,-514.57 7.13,-8.79 6.73,-10.5 16.61,-19.66 24.98,-23.16 19.88,-23.03 60.38,-56.79 50.95,-42.47 124.94,-78.23 207.61,-96.85 256,-57.66 520.03,156.31 1049.73,-88.18 146.58,-67.66 277.69,-163.66 455.75,-152.76 92.36,5.65 152.08,38.16 208.43,97.76 48.35,51.14 72.81,147.61 66.52,238.35 -14.54,210.08 -147.2,371 -104.21,644.82 6.63,42.25 19.74,89.36 22.7,130.68l7.05 0c-3.05,-43.63 -16.16,-88.4 -22.71,-132.62 -23.33,-157.49 4.29,-254.24 47.65,-398.68 24.96,-83.16 51.9,-155.05 56.99,-249.73 4.98,-92.67 -21.39,-185.96 -68.12,-238.73 -53.96,-60.94 -127.01,-92.12 -210.52,-99.04 -96.03,-7.95 -177.72,18.52 -255.73,51.45 -72.73,30.7 -135.37,68.64 -205.75,101.1 -72.92,33.64 -140.68,61.84 -224.08,82.86 -193.26,48.71 -353.27,44.96 -552.22,12.25 -94.42,-15.53 -180.27,-27.76 -275.82,-6 -85.15,19.39 -154.78,55.05 -208.83,97.78 -123.94,97.99 -174.36,234.62 -234.07,379.44 -51.38,124.6 -72.33,202.56 -152.52,308.02 -16.65,21.89 -50.67,64.28 -62.53,91.89z"/>
   <path class="fil0" d="M2249.3 3718.77l7.05 0c4.07,-67.8 59.16,-127.06 86.99,-170.24 33.23,-51.55 56.88,-115.7 81.48,-177.98 55.73,-141.05 99.44,-247.95 190.63,-325.44 99.54,-84.59 234.59,-121.75 402.75,-100.68 258.38,32.38 422.76,46.59 671.41,-55.58 122.39,-50.29 246.01,-137.83 386.34,-129.42 51.29,3.07 104.86,19.21 143.45,48.56 25.7,19.55 15.55,14.17 35.14,31.82 8.11,7.31 19.67,24.71 27.05,37.23 68.59,116.31 22.54,266.42 -5.75,377.69 -73.35,288.52 -0.1,308.93 -11.51,464.04l7.55 0c7.08,-159.5 -60.83,-195.96 11.76,-464.64 47.92,-177.35 87.26,-379.93 -95.34,-473.58 -29.73,-15.25 -64.69,-24.78 -103.01,-27.86 -78.08,-6.28 -152.37,16.34 -214.71,43.97 -124.9,55.36 -226.66,116.37 -376.63,144.97 -342.92,65.39 -497.48,-54.07 -707.93,6.47 -140.62,40.45 -220,114.99 -287.38,234.02 -30.13,53.23 -56.4,121.86 -79.6,182.62 -22.68,59.38 -50.84,132.48 -81.95,180.3 -29.79,45.79 -83.64,101.73 -87.8,173.73z"/>
   <path class="fil0" d="M2297.17 1914.35c10.5,-0.44 35.06,14.53 44.85,21.01 131.62,95.23 91.56,229.44 -39.34,311.58 -79,49.58 -174.6,61.7 -272.23,112.73 -38.46,20.1 -74.56,55.09 -104.22,85.45l-47.32 50.36c-8.15,7.46 -8.49,7.78 -14.87,15.77 -39.2,49.04 -111.96,113.03 -172.8,145.29 -140.44,74.47 -260.24,84.23 -383.55,-11.1 -17.97,-13.89 -48.05,-45.56 -61.54,-66.83 -58.6,-92.39 -74.92,-196.75 -46.6,-307.67 35.71,-139.9 132.68,-209.29 238.98,-271.69 104.48,-61.33 257.59,-99.68 394.43,-116.25 80.28,-9.72 166.99,-12.1 248.22,-8.69 39.6,1.66 79.4,4.44 117.87,11.21 18.65,3.28 34.97,7.36 52.64,11.18l43.68 16.09c0.33,-0.57 1.25,1 1.81,1.57zm130.58 186.36c16.39,-86.42 -40.89,-143.15 -86.48,-173.42 -147.43,-97.88 -524.95,-61.25 -684.62,-19.8 -128.31,33.31 -215.73,72.49 -316.46,146.89 -109.99,81.24 -193.98,232.73 -149.22,417.83 8.6,35.58 22.15,64.97 39.03,94.73 9.38,16.54 16.84,25.19 27.52,39.37 23.7,31.45 71.71,68.18 109,86.28 162.55,78.9 359.87,-20.93 464.79,-135.97 6.11,-6.71 11.44,-9.57 17.57,-15.84l129.68 -135.36c21.71,-16.51 29.24,-25.98 57.38,-40.35 117.08,-59.8 206.26,-56.95 315.82,-144.5 8.07,-6.45 9.12,-10.92 16.07,-17.33 28.27,-26.06 51.18,-56.41 59.93,-102.53z"/>
   <path class="fil0" d="M3660.55 3718.77l61.25 0c-12.27,-4.71 -80.07,-11.93 -102.79,-17.1 -118.92,-27.04 -175.56,-44.41 -307.6,-52.98 -185.7,-12.05 -393.57,52.98 -532.13,-30.91 -75.06,-45.45 -97.12,-77.41 -63.54,-146.01 47.5,-97.03 35.98,-175.87 155.75,-265.5 95.95,-71.8 231.06,-73.93 345.22,-64.29 76.94,6.49 150.94,11.29 228.72,4.11 197.34,-18.21 279.1,-108.42 385.38,-74.94 56.45,17.78 95.3,64.04 113.41,126.18 21.83,74.9 8.17,148.22 7.78,225.72 -0.38,76.31 19.42,152.36 -18.81,214.37 -46.51,75.43 -136.36,73.19 -156.46,81.35l49.61 0 44.67 -17.97c128.09,-64.2 85.31,-180.46 89.29,-310.93 3.42,-112.15 17.28,-201.43 -59.49,-282.71 -82.57,-87.41 -185.91,-41.19 -266.45,-11.35 -327.68,121.41 -580.31,-61.53 -792.78,125.13 -77.33,67.94 -87.66,130.45 -123.89,227.72 -9.61,25.8 -31.95,57.84 -24.01,90.44 11.5,47.24 83.89,90.39 127.27,106.62 127.23,47.62 294.77,8.06 434.73,8.16 68.97,0.05 146.21,8.88 213.27,21.71l191.62 43.18z"/>
   <path class="fil0" d="M-0 902.92l0 8.19c28.15,9.35 56.9,24.78 86.18,34.92 30.31,10.5 58.3,21.53 88.51,31.59 60.21,20.06 120.44,37.64 179.14,60.6 110.85,43.35 238.84,95.66 367.66,111.88 239.61,30.18 404.2,-85.76 613.84,-96.54 231.86,-11.93 379.1,52.17 593.29,-115.41 24.85,-19.44 43.53,-35.33 62.28,-57.62l28.38 -32.93c8.54,-10.8 16.18,-22.15 24.23,-34.33 29.19,-44.15 57.1,-108.26 66.78,-172.44 22.76,-150.84 -52.58,-268.79 -117.39,-354.49 -18.22,-24.09 -35.06,-43.18 -53.41,-66.58 -27.97,-35.67 -122.41,-182.94 -138.66,-219.77l-8.72 0c11.45,30.74 113.58,186.47 137.56,218.44 54.37,72.46 100.72,119.26 143.56,213.6 26.86,59.14 41.56,131.74 30.52,203.97 -16.13,105.57 -58.12,166.79 -117.79,239.62 -9.02,11.01 -18.16,20.35 -28.91,29.65 -123.48,106.76 -223.95,145.12 -397.57,143.98 -79.04,-0.52 -154.8,-8.1 -234.41,-2.32 -214.65,15.59 -369.83,127.1 -607.12,95.36 -130.9,-17.51 -248.74,-68.9 -364.35,-112.14 -59.29,-22.17 -119.12,-39.98 -179.22,-60.68 -30.34,-10.45 -59.82,-20.23 -88.55,-31.55 -26.59,-10.47 -60.59,-27.11 -85.84,-35.03z"/>
   <path class="fil0" d="M-0 1613.1l0 7.66c258.03,-66.34 493.8,48.03 573.72,310.86 72.89,239.7 -1.38,551.29 88.57,837.54 49.08,156.21 113.18,263.84 219.39,358.12 65.91,58.5 131.77,98.82 223.36,125.31 170.07,49.19 482.27,23.09 418.65,374.49 -6.34,35.03 -16.94,61.07 -25.02,91.68l7.81 0c20.6,-69.92 35.7,-119.32 32.38,-200.14 -3.03,-73.68 -28.36,-113.97 -72.76,-158.4 -78.81,-78.86 -250,-86.65 -352.81,-112.96 -168.4,-43.1 -302.62,-176.25 -378.14,-319.41 -95.81,-181.64 -116.26,-371.48 -116.56,-581.67 -0.2,-144.24 0.7,-288.97 -39.77,-422.58 -55.43,-182.95 -195.24,-299 -372.27,-325.01 -94.89,-13.94 -125.43,-1.58 -206.56,14.49z"/>
   <path class="fil0" d="M3112.42 779.27c178.55,-7.72 419.84,61.3 446.95,267.46 9.4,71.49 -11.95,138.4 -44.39,186.23 -106.59,157.18 -309.31,175.91 -455.57,258.64 -31.25,17.67 -46.05,28.7 -71.69,48.21l-60.01 57.14c-25.61,28.44 -82,89.97 -138.72,100.95 -72.76,14.09 -128.52,-44.12 -150,-85.48 -119.02,-229.13 -56.13,-541.35 132.66,-698.72 76.81,-64.03 202.41,-128.45 340.77,-134.43zm1.94 -7.28c-157.25,7.5 -271.79,70.86 -362.33,149.89 -39.55,34.52 -66.77,67.46 -96.42,115.67 -101.01,164.22 -114.18,418.41 -21.16,579.75 31.26,54.22 81.39,99.17 150.94,88.7 67.72,-10.19 116.98,-74.16 158.15,-112.69 46.39,-43.41 38.12,-49.6 117.84,-94.21 97.14,-54.36 235.16,-87.78 335.08,-147.62 23.77,-14.24 52.54,-33.11 69.95,-50 6.68,-6.48 7.77,-9.72 14.97,-15.65 9.99,-8.23 8.42,-6.17 15.24,-15.49 9,-12.32 16.39,-21.38 26.02,-35.29 68.99,-99.66 59.1,-222.4 -11.62,-318.73 -80.02,-109.02 -261.98,-150.77 -396.66,-144.34z"/>
   <path class="fil0" d="M-0 746l0 9.17c45.79,28.61 85.1,53.99 142.55,78.62 52.39,22.46 104.91,40.62 160.86,59.69 99.04,33.76 238.54,90.29 328.02,115.28 252.7,70.58 354.35,-14.37 559.6,-49.06 214.67,-36.28 383.92,57.7 592.91,-118.68l80.57 -86.84c28.15,-41.68 55.71,-96.17 65.29,-157.69 21.42,-137.54 -52.26,-249.73 -111.08,-325.65 -67.61,-87.27 -97.59,-148.95 -151.77,-236.05 -6.52,-10.48 -17.15,-24.84 -21.42,-34.77l-9.02 0 41.72 68.17c39.32,65.87 84.12,144.26 130.42,201.53 70.98,87.8 131.75,197.72 114.9,320.17 -17.46,126.87 -102.83,217.34 -172.8,268.19 -196.04,142.45 -359.43,60.16 -563.54,94.83 -193.93,32.94 -316.77,120.85 -558.43,47.55 -111.55,-33.83 -214.8,-78.32 -325.75,-115.22 -55.38,-18.42 -108.19,-37.35 -160.59,-59.62 -82.8,-35.18 -81.33,-44.39 -142.44,-79.6z"/>
   <path class="fil0" d="M1377.15 1510.14c64.71,-3.04 132.94,3.29 191.86,19.95 20.31,5.75 68.5,14.64 64.4,39.29 -4.28,25.8 -47.11,29 -71.87,33.51 -185.27,33.73 -402.3,72.91 -548.54,194.04 -29.17,24.16 -31.42,30.5 -54.69,51.38 -9.73,8.74 -16.06,17.49 -24.68,28.19l-68.39 90.68c-19.04,25.83 -79.07,106.93 -116.27,87.69 -48.85,-25.26 -9.49,-179.67 -98.54,-328.46 -13.85,-23.15 -29.45,-43.9 -46.41,-59.59 -13.5,-12.5 -49.88,-37.79 -52.76,-54.6 -10.03,-58.63 134.12,13.46 148.87,19.91 108.7,47.46 249.38,19.82 352.28,-21.75 104.24,-42.11 196.81,-94.23 324.73,-100.23zm-33.62 -4.12c-192.33,21.21 -308.24,142.52 -503.81,143.96 -132.78,0.98 -183.66,-61.35 -257.19,-67.64 -47.24,-4.04 -46.96,31.17 -24.05,54.72 21.83,22.44 28.28,19.27 56.52,52.31 54.99,64.34 77.28,147.21 90.63,232.81 4.8,30.76 6.35,66.84 12.57,96.47 5.87,27.99 25.12,55.2 56.99,45.47 31.22,-9.53 88.79,-80.77 107.53,-107.33 64.27,-91.03 117.03,-153.14 219.01,-210.71 45.04,-25.42 96.56,-46.9 152.08,-65.6 134.66,-45.37 248.2,-50.25 352.99,-79.31 28.09,-7.79 51.17,-41.03 20.12,-58.96 -16.48,-9.51 -61.44,-21.16 -82.77,-25.86 -67.71,-14.91 -130.85,-18.04 -200.6,-10.35z"/>
   <path class="fil0" d="M1296.84 0l-14.22 0c6.18,6.46 8.43,6.34 16.5,12.08 75.16,53.5 126.48,145.21 171.55,224.64 48.45,85.39 131.71,177.42 81.02,307.87 -20.96,53.94 -56.02,93.87 -90.63,121.4 -124.69,99.18 -213.63,70.54 -344.93,74.67 -174.49,5.48 -232.73,111.09 -526.56,-7.67 -241.58,-97.64 -408.38,-110.91 -419.29,-423.24 -2.23,-63.93 5.92,-130.13 23.68,-188.29 8.44,-27.61 22.43,-51.92 36.27,-69.78 33.42,-43.12 29.84,-28.9 52.03,-51.68l-12.78 0c-6.64,10.27 -61.19,42.35 -84.71,126.04 -16.98,60.41 -23.53,124.46 -21.43,189.26 4.92,151.75 42.97,228.46 128.46,294.02 66.29,50.84 209.13,98.39 294.21,129.76 119.57,44.08 208.72,78.06 350.49,44.34 60.1,-14.29 111.37,-31.96 176.53,-35.34 69,-3.58 138.64,8.34 206.66,-5.69 160.28,-33.06 302.57,-190.11 237.57,-366.43 -19.53,-52.99 -50.72,-91.43 -75.89,-136.05 -31.45,-55.76 -72.69,-128.4 -114.4,-175.77 -22.56,-25.63 -62.31,-56.01 -70.12,-64.14z"/>
   <path class="fil0" d="M715.37 13.24c128.39,-8.76 266.28,0.55 384.11,36.48 110.44,33.67 173.47,97.11 225.37,198.95 22.2,43.57 55.58,93.6 63.16,148.89 15.52,113.11 -82.63,208.33 -187.21,234.22 -66.92,16.56 -134.17,0.19 -200.8,10.67 -64.81,10.2 -117.18,32.45 -188.19,27.1 -61.24,-4.62 -115.31,-24.58 -167.07,-44.9 -93.77,-36.81 -212.2,-71.07 -263.16,-161.01 -39.36,-69.47 -42.43,-192.99 -19.49,-271.72 38.85,-133.31 200.93,-168.28 353.28,-178.68zm21.38 -8.83c-123.04,5.01 -266.1,33.79 -332.49,101.32 -38.87,39.53 -54.25,79.68 -61.51,153.52 -10.7,108.67 7.58,213.15 94.27,277.38 61.44,45.52 273.83,127 352.68,137.89 71.83,9.92 124.64,-7.16 190.11,-20.9 105.1,-22.06 170.6,19.5 284.75,-39.22 27.8,-14.3 44.49,-27.73 63.84,-44.84 31.13,-27.52 67.54,-81.17 68.16,-145.53 0.62,-64.23 -30.49,-114.17 -55.69,-160.76 -37.97,-70.21 -78.42,-137.99 -145.12,-178.41 -122.77,-74.38 -313.95,-86.36 -458.99,-80.46z"/>
   <path class="fil0" d="M2523.99 3718.77l11.42 0c-14.22,-16.75 -28.75,-22.9 -47.49,-58.09 -29.88,-56.13 15.98,-107.74 41.51,-152.04 58.8,-102 86.95,-266.38 182.36,-356.05 212.93,-200.11 427.93,-67 719.05,-99.22 284.86,-31.53 416.24,-204.89 587.32,-119.44 12.84,6.41 23.32,13.04 32.76,20.23 56.31,42.9 80.65,104.6 83.88,187.12 4.55,116.28 -51.25,208.57 -33.12,390.16 8.8,88.22 18.23,106.49 -13.15,187.33l7.97 0c52.41,-150.84 -18.12,-169.73 20.69,-388.38 21.92,-123.5 54.53,-244.2 -29.33,-351.73 -25.39,-32.55 -78.48,-66.28 -142.06,-73.23 -110.86,-12.13 -223.12,61.06 -332.33,100.11 -117.06,41.85 -257.8,53.76 -382.59,43.16 -138.42,-11.76 -250.26,-39.31 -385.57,11.58 -57.57,21.65 -91.05,45.34 -134.13,83.34 -69.46,61.28 -107.76,172.21 -151.06,281.26 -38.51,96.99 -47.19,85.72 -74.65,142.99 -13.34,27.83 -21.2,57.07 -7.54,88.84 7.35,17.08 20.44,34.7 32.61,48.41 5.59,6.29 8.9,7.64 13.44,13.65z"/>
   <path class="fil0" d="M-0 408.6l0 48.14c15.4,26.03 8.22,62.08 66.27,146.56 14.9,21.69 34.01,37.95 50.76,55.19 72.89,75.02 264.41,131.37 363.44,169.39 101.02,38.79 213.13,87.61 334.07,88.47 132.7,0.94 233.45,-56.52 359.69,-65.66 183.83,-13.32 325.18,44.73 493.99,-136.59 79.63,-85.53 110.3,-206.22 61.93,-321.27 -27.41,-65.2 -45.04,-80 -79.61,-132.4 -50.15,-76.01 -90.01,-152.92 -142.78,-228.2 -6.74,-9.61 -19.95,-23.85 -23.78,-32.24l-9.68 0c27.69,38.58 59.23,79.82 86.11,127.42 26.46,46.85 53.78,92 81.3,133.56 33.07,49.95 53.39,67.52 81.24,133.57 60.1,142.55 -5.92,287.42 -120.98,370.49 -169.99,122.72 -281.76,59.14 -449.73,80.42 -127.67,16.18 -228.83,71.67 -364.95,62.66 -120.19,-7.95 -229.37,-59.56 -331.43,-97.4 -190.45,-70.6 -367.49,-110.34 -436.52,-316.78 -8.6,-25.71 -11.62,-64.38 -19.33,-85.36z"/>
   <path class="fil0" d="M-0 1752.55l0 7.37c66.72,-9.7 116.44,-16.62 184.39,-2.57 155.69,32.19 252.93,158.03 304.71,314.73 37.71,114.1 41.29,243.16 44.8,368.98 4.37,156.53 -9.93,220.45 21.58,390.58 44.15,238.39 145.3,361.74 350.85,471.79 86.72,46.43 193.26,87.42 273.98,138.92 71.2,45.42 115.75,112.12 93.74,202.91 -7.64,31.49 -20.07,48.7 -28.8,73.52l8.49 0c21.79,-54.42 46.36,-96.36 26.17,-167.04 -26.88,-94.15 -143.25,-146.76 -227.3,-185.29 -46.27,-21.21 -94.42,-43.85 -138.96,-67.44 -86.9,-46.03 -175.45,-102.9 -232.21,-180.77 -59.72,-81.92 -96.89,-171.1 -120.03,-293.14 -57.07,-300.92 51.96,-701.69 -177.79,-957.34 -31.21,-34.74 -11.3,-17.52 -52.21,-51 -88.34,-72.31 -196.29,-85.05 -331.41,-64.2z"/>
   <path class="fil0" d="M2260.63 2123.02c-19.01,95.1 -139.69,143.93 -220.55,170.95 -54.37,18.17 -92.6,36.83 -127.41,67.8 -38.57,34.32 -39.76,33.68 -74.54,73.4l-75.57 72.3c-57.07,43.3 -135.68,85.62 -214.25,82.92 -81.74,-2.8 -143.94,-51.93 -181.29,-113.13 -12.28,-20.11 -21.91,-45.3 -27.99,-72.22 -29.93,-132.58 35.67,-239.52 103.28,-298.77 63.57,-55.7 166.31,-101.17 247.34,-123.65 123.79,-34.34 390.59,-67.22 507.34,10.58 30.65,20.42 75.79,68.99 63.63,129.8zm4.96 11.16c16.21,-64.39 -23.05,-116.12 -55.1,-140.47 -37.25,-28.29 -93.24,-44.12 -150.68,-50.47 -114.64,-12.68 -253.54,0.52 -360.8,29.11 -141.81,37.79 -300.12,117.37 -351.24,251.35 -65.86,172.66 20.19,353.33 182.65,372.64 112.93,13.43 229.05,-71.04 277.81,-118.56 19,-18.52 78.04,-84.55 98.49,-102.32 39.58,-34.4 67.58,-49.04 128.95,-72.15 76.18,-28.69 205.34,-71.49 229.92,-169.12z"/>
   <path class="fil0" d="M3135.55 1736.75c35.51,-9.12 44.64,15.18 40.61,47.82 -5.09,41.28 -49.61,112 -67.95,213.27 -23.42,129.26 6.67,215.54 68.07,293.87 64.33,82.05 227.05,76.74 206.19,167.16 -9.92,42.99 -60.42,69.09 -110.76,76.28 -56.62,8.1 -286.72,-5.97 -359.07,-9.04 -50.13,-2.13 -132.38,1.25 -148.04,-40.35 -10.13,-26.92 13.4,-54.96 24.65,-64.75l95.98 -90.91c94.67,-127.63 95.35,-178.74 120.58,-348.44 11.69,-78.59 38.66,-221.53 129.73,-244.92zm45.52 62.66c22.27,-85.24 -44.3,-83.46 -90.7,-48.13 -97.6,74.32 -88.67,319.6 -134.07,440.63 -27.96,74.55 -53.13,100.69 -90.53,149.32 -7.55,9.82 -13.69,16.23 -22.41,25.07l-51.34 43.53c-13.46,11.23 -36.31,30.88 -37.33,59.2 -2.78,76.71 144.52,63.63 216.42,66.8 60.88,2.69 121.54,6.1 184.55,7.75 61.11,1.6 120.37,8.07 173.97,-17.43 45.92,-21.84 81.41,-69.89 50.66,-117.7 -31.12,-48.38 -143.65,-48.57 -204.83,-129.92 -93.4,-124.19 -80.03,-272.05 -20.92,-409.99 10,-23.34 19.83,-43.45 26.54,-69.13z"/>
   <path class="fil0" d="M3453.67 1101.96c-29.6,203.64 -300.04,230.54 -437.93,318 -80.69,51.18 -138.38,170.73 -232.41,137.82 -91.89,-32.17 -113.13,-180.72 -110.08,-268.92 4.59,-132.8 48.63,-223.83 115.14,-308.31 10.29,-13.07 59.15,-55.75 75.7,-66.56 133.51,-87.25 301.24,-113.75 450.15,-46.41 95.75,43.3 155.4,124.58 139.44,234.38zm7.21 2.79c20.81,-124.2 -61.81,-207.33 -141.21,-242.56 -277.82,-123.27 -637.9,44.28 -653.8,423.89 -2.55,60.83 7.15,119.38 24.52,171.89 38.51,116.41 131.34,150.35 223.23,63.56 100.73,-95.14 83.67,-94.59 230.23,-154.8 43.95,-18.06 96.35,-34.72 136.44,-56.06 46.47,-24.74 85.37,-46.5 114.57,-77.9 27.11,-29.15 56.64,-72 66.03,-128.02z"/>
   <path class="fil0" d="M-0 2004.15l0 7.45c113.2,-19.86 212.45,-2.91 282.95,57.16 246.27,209.82 138.04,586.88 200.95,870.64 87.37,394.13 384.74,382.97 544.15,526.9 58.11,52.47 57.14,128.04 25.43,195.53 -11.11,23.65 -22.93,37.12 -33.43,56.94l9.31 0c8.29,-17.75 22.06,-34.55 32.41,-56.93 89.72,-194.13 -116.56,-258.82 -255.06,-331.22 -79.27,-41.44 -148.63,-84.93 -205.43,-151.79 -235.65,-277.35 -44.7,-745.15 -232.72,-1022.7 -87.5,-129.16 -193.6,-183.03 -368.55,-151.99z"/>
   <path class="fil0" d="M5579.55 1393.53l0 -18.06 -3.68 0c0.37,17.03 -37.1,78.88 -58.14,84.77 -3.1,4.85 -4.72,7.44 -10.73,12.75 -133.91,118.53 -393.08,53.41 -538.1,40.51 -97.45,-8.67 -207.86,-11.52 -245.47,-82.67 -22.32,-42.22 -9.97,-95.82 7.57,-134.07 15.37,-33.53 42.5,-74.84 61.92,-102.67 54.42,-77.97 54.36,-71.25 114.64,-133.64 61.98,-64.16 168.07,-123.79 265.84,-143.84 122.1,-25.04 233.38,8.79 310.99,87.99 81.87,83.56 70.16,109.87 95.16,146.76l0 -21.58c-11.55,-16.53 -19.07,-39.59 -29.87,-56.56 -27.58,-43.29 -33.04,-43.72 -57.08,-71.27 -17.81,-20.4 -48.45,-43.36 -73.44,-57.59 -125.46,-71.43 -289.78,-47.98 -407.73,27.49 -59.4,38.01 -74.95,48.96 -122.05,95.52 -58.05,57.38 -87.76,96.21 -134.85,172 -102.43,164.84 -48.03,260.36 143.63,276.43 55.44,4.65 104.54,8.57 159.33,16.74 169.43,25.28 398.12,51.55 503.88,-111.13l18.19 -27.89z"/>
   <path class="fil0" d="M4733.7 2264.5c-6.87,-0.21 -58.82,-24.66 -71.55,-30.1 -113.19,-48.46 -321.5,-89.95 -437.34,-65.38 -27.42,5.82 -156.32,44.29 -166.32,7 0.84,-19.06 16.92,-31.49 28.65,-41.71 11.31,-9.86 29.14,-21.17 42.8,-29.71 99.05,-61.87 198.27,-98.82 319.61,-115.95 111.05,-15.68 285.02,-15.99 395.07,15.5 35.51,10.16 47.6,15.59 78.94,29.82l16.37 8.59c4.69,3.69 2.8,1.06 3.56,4.33 22.81,8.07 76.64,57.97 48.47,105.01 -21.85,36.47 -52.87,36.05 -74.14,93.25 -15.02,40.4 -20.18,99.29 -76.61,80.44 -18.43,-6.16 -62.59,-36.23 -93.39,-51.28 -2.12,-1.03 -5.07,-2.32 -7.42,-3.93 -7.95,-5.44 -3.29,-2 -6.7,-5.88zm272.46 -127.54c21.14,-82.99 -125.66,-133.37 -186.63,-146.64 -181.76,-39.56 -420.82,-22.29 -587.61,51.74 -35.84,15.91 -222.29,105.24 -173.02,148.14 27,23.51 104.85,0.18 140.16,-7.94 181.06,-41.67 448.25,29.33 603.44,132 105.7,69.93 108.71,-41.51 129.24,-82.92 20.76,-41.87 62.5,-47.66 74.41,-94.38z"/>
   <path class="fil0" d="M5540.61 0l-8.63 0c20.1,47.51 35.11,74.71 35.98,136.72 0.74,52.37 -11.23,96.73 -31.13,138.63 -48.14,101.35 -104.55,121.84 -206.43,136.61 -55.32,8.02 -91.91,14.94 -136.64,36.59 -74.97,36.3 -134.34,91.08 -202.06,138.06 -34.83,24.16 -63.42,44.83 -104.38,65.85 -129.93,66.68 -282.89,58.34 -366.72,-62.23 -24.12,-34.69 -42.18,-63.94 -59.35,-110.89 -51.26,-140.19 -35.13,-283.52 59.75,-396.88 38.87,-46.44 64.37,-58.35 87.42,-82.46l-12.53 0 -46.19 41.37c-123.57,116.74 -156.41,282.12 -92.9,448.04 33.33,87.07 84.12,153.78 157.56,188.38 138.63,65.32 272.09,-7.02 380.85,-84.89 8.04,-5.75 16.87,-13.05 25.35,-19.36l73.82 -54.48c84.58,-59.16 113.23,-81.74 242.81,-100.67 48.58,-7.1 96.75,-17.03 130.37,-42.2 68.14,-51.02 109.06,-149.23 108.04,-239.48 -0.86,-75.86 -20.35,-91.47 -34.99,-136.7z"/>
   <path class="fil0" d="M2910.87 3414.69c-8.13,-41.19 28.85,-82.81 56.27,-104.4 157.05,-123.7 372.1,-49.33 564.43,-74.64 92.03,-12.12 146.87,-64.68 222.31,60.27 19.01,31.49 38.18,75.31 47.6,117.26 24.73,110.03 -20.2,184.6 -136.35,169.47 -160.29,-20.88 -200.54,-163.27 -517.26,-105.65 -47.08,8.57 -97.18,19.04 -145.56,9.76 -41.4,-7.94 -84.21,-35.49 -91.43,-72.07zm722.32 -207.3c-43.54,5.11 -61.97,19.39 -140.49,24.51 -171.52,11.2 -406.22,-42.94 -538.55,79.4 -39.56,36.58 -72.25,84.81 -34.41,138.07 52.43,73.78 187.88,41.19 264.88,28.41 292.79,-48.6 371.98,138.3 535.71,111.57 158.09,-25.82 85.46,-246.09 19.3,-326.67 -20.41,-24.86 -49.18,-62.02 -106.44,-55.3z"/>
   <path class="fil0" d="M5579.55 396.83l0 -10.81c-72.79,70.49 -126.42,64.2 -247.83,83.74 -95.37,15.35 -167.02,63.17 -224.98,106.37 -80.3,59.86 -105.03,82.81 -190.72,141.36 -108.15,73.89 -255.04,109.56 -385.22,43.93 -20.05,-10.11 -35.13,-21 -50.61,-33.11 -75.88,-59.34 -131.74,-169.81 -151.81,-261 -31.61,-143.62 -9.44,-276.25 81.03,-384.83 32.64,-39.17 69.73,-68.76 81.55,-82.5l-11.81 0c-5.95,9.62 -12.14,11.72 -19.95,17.91l-60.17 65.33c-24.28,31.44 -43.87,62.46 -61.95,105.37 -69.97,166.09 -11.91,380.54 97.08,507.69 6.74,7.86 13.47,10.52 20.35,18.64 10.39,12.27 10.95,11.21 21.97,19.86 13.31,10.44 33.06,24.52 50.62,33.09 140.48,68.54 267.46,30.47 387.09,-41.24 46.91,-28.12 58.06,-40.05 96.72,-67.78 80.6,-57.82 106.69,-88.84 193.77,-138.29 95.1,-54.01 174.96,-42.39 266.8,-65.13 54.48,-13.49 77.05,-33.86 108.06,-58.6z"/>
   <path class="fil0" d="M4872.46 3718.77l7.9 0c-56.16,-190.58 -11.66,-322.14 51.74,-507.9 25.18,-73.76 58.84,-144.17 86.36,-217.89 30.12,-80.69 40.23,-174.1 35.65,-266.73 -4.93,-99.71 -20.73,-186.42 -14.35,-288.47 4.27,-68.39 12.66,-127.08 47.77,-181.85 75.82,-118.29 264.94,-150.9 392.02,-108.34 70.05,23.46 59.1,29.07 100.02,51.15l0 -9.49c-14.84,-8.06 -28.19,-19.14 -48.21,-29.13 -56.95,-28.42 -130.01,-40.34 -194.56,-36.8 -60.72,3.34 -129.48,20.21 -178.01,53.22 -15.34,10.43 -30.41,19.45 -42.08,33.19 -7.05,8.3 -12.64,10.88 -19.42,19.68 -5.91,7.67 -10.12,13.76 -16.32,22.71 -77.61,111.96 -42.89,346.55 -34.39,470.6 14.55,212.46 -61.56,319.22 -122.65,488.33 -57.43,158.96 -107.9,331.27 -51.45,507.72z"/>
   <path class="fil0" d="M-0 2255.48l0 7.22c98.18,-14.45 176.15,-3.1 236.99,50.14 199.51,174.56 115.33,484.85 176.25,735.98 29.35,120.98 88.81,199.84 188.64,266.13 31.04,20.61 63.33,37.3 96.69,56.68 102.92,59.8 224.98,108.49 152.07,257.62 -22.47,45.95 -40.27,57.92 -63,89.52l10.03 0c10.98,-20.41 112.51,-115.38 73.57,-215.73 -25.31,-65.23 -100.16,-98.62 -167.15,-136.81 -81.52,-46.48 -143.13,-81 -197.64,-142.75 -13.14,-14.88 -37.01,-51.47 -45.45,-68.89 -137.63,-284.02 6.43,-567.98 -180.58,-807 -8.51,-10.87 -7.47,-10.39 -18.7,-20.41 -8.03,-7.17 -10.25,-13.2 -19.2,-19.81 -74.47,-55.02 -129.09,-69 -242.53,-51.89z"/>
   <path class="fil0" d="M5006.56 3718.77l8.11 0c-32.85,-80.55 -33.4,-147.65 -16.38,-241.04 24.74,-135.77 92.46,-285.23 141.6,-416.39 82.84,-221.11 -51.38,-562.79 79.84,-734.61 86.96,-113.87 233.15,-96.07 327.87,4 5.45,5.76 10.99,10.66 16.51,16.94 6.34,7.22 7.27,9.95 15.45,17.17l0 -11.73c-7.92,-5.45 -28.05,-36.13 -74.77,-68.85 -25.91,-18.14 -60.98,-34.78 -98.83,-40.47 -95.45,-14.36 -160.86,33.4 -195.19,82.32 -87.02,124 -56.45,326.18 -49.27,485.98 12.67,282.02 -120.91,399.64 -170.78,666.57 -16.93,90.6 -15.24,161.04 15.86,240.11z"/>
   <path class="fil0" d="M1217.62 382.19c-1.53,8.56 -0.85,15.33 -5.55,20.71 0.29,12.07 -1.55,13.71 -6.2,25.05 -15.61,38.46 -49.59,68.16 -85.94,86.08 -97.65,41.17 -109.34,13.45 -218.07,30.87 -81.5,13.05 -140.51,-1.19 -207.64,-31.12 -65.41,-29.16 -118.19,-49.09 -147.38,-101.01 -30.78,-54.75 -28.16,-158.11 7.28,-204.59 79.46,-104.21 369.07,-100.32 504.94,-48.11 53.87,20.7 64.01,36.91 93.07,63.19 6.18,5.59 8.08,8.75 13.9,16.77 27.21,37.49 52.11,92.97 51.6,142.16zm-696.73 -30.67c10.44,88.25 62.41,122.08 132.93,152.4 72.31,31.08 137.8,64.66 230.67,51.24 93.15,-13.46 38.87,-9.06 133.76,-9.86 122.5,-1.04 236.81,-96.79 199.25,-214.59 -26.61,-83.49 -62.29,-129.35 -124.12,-163.03 -118.33,-64.44 -487.62,-89.63 -558.23,57.88 -17.39,36.34 -19.29,83.37 -14.26,125.96z"/>
   <path class="fil0" d="M5431.59 0l-9.32 0c19.96,36.15 35.37,55.41 42.11,106.46 10.14,76.81 -19.88,162.1 -75.79,213.05 -23.47,21.4 -63.81,33.27 -104.62,40.57 -109.17,19.53 -129.58,35.37 -204.64,85.46 -59.54,39.73 -104.72,80.56 -175.21,114.94 -180.15,87.87 -303.95,-7.85 -341.76,-171.01 -29.51,-127.33 0.45,-238.3 86.15,-324.55 23.89,-24.04 76.27,-60.5 79.91,-64.92l-13.44 0c-12.59,12.88 -29.56,22.01 -42.06,33.54 -38.18,35.21 -70.4,63.48 -97.44,120.12 -50.91,106.64 -37.29,250.28 27.69,351.25 72.98,113.42 194.7,116.87 308.47,60.26 57.96,-28.84 124.62,-79.04 176.49,-116.43 165.57,-119.37 230.48,-53.22 311.67,-129.14 65.48,-61.24 94.37,-180.41 56.81,-271.91 -7.89,-19.21 -17.98,-32.45 -25.02,-47.68z"/>
   <path class="fil0" d="M3075.62 883.76c88.87,-11.16 168.99,12.08 223.43,54.88 54.01,42.46 70.13,134.4 26.66,205.44 -33.54,54.82 -93.31,84.1 -166.63,115.2 -65,27.57 -144.87,51.89 -186.62,95.11 -17.24,17.85 -50.52,52.33 -77.44,64.85 -43.52,20.24 -81.44,-3.28 -100.48,-29.15 -38.53,-52.37 -31.57,-172.28 -15.07,-236.91 20.61,-80.75 58.04,-139.98 102.3,-179.67 26.82,-24.06 49.36,-42.03 84.28,-57.98 33.55,-15.32 69.13,-26.7 109.55,-31.78zm13.04 -8.86c-160.02,13.44 -269.58,115.64 -313.91,267.72 -20.17,69.21 -26.11,189.73 11.09,247.85 17.11,26.73 53.23,53.19 98.78,40.42 59.1,-16.56 70.07,-73.45 169.61,-120.4 114.84,-54.17 322.16,-96.9 303.29,-274.39 -12.96,-121.86 -150.99,-171.11 -268.86,-161.21z"/>
   <path class="fil0" d="M5491.37 1277.72c-11.12,75 -64.41,135.38 -119.56,160.51 -108.83,49.58 -255.85,11.16 -372.59,-1.52 -145.2,-15.77 -208.82,-61.92 -111.78,-215.03 9.39,-14.82 18.47,-28.74 28.08,-41.63 72.13,-96.71 173.63,-174.88 304.04,-186.86 163.86,-15.05 294.52,131.3 271.81,284.52zm8.78 -11.16c7.38,-80.41 -25.13,-155.23 -77.86,-208.22 -45.77,-45.99 -117.59,-81.56 -211.43,-71.77 -144.97,15.14 -266.1,121.7 -335.36,239.99 -100.1,170.96 -6.05,202.76 134.99,218.62 109.87,12.36 272.96,51.82 374.24,-5.23 54.61,-30.76 107.46,-86.49 115.43,-173.4z"/>
   <path class="fil0" d="M5261.59 3718.77l43.87 0c-31.68,-12.54 -109.3,-7.54 -172.23,-89.36 -42.13,-54.79 -47.55,-139.46 -40,-220.63 15.39,-165.47 101.49,-290.25 123.09,-404.6 34.26,-181.36 -43.84,-443.78 92.82,-560.12 71.45,-60.83 169.46,-38.65 237.45,24.32l28.65 30.09c4.14,4.47 0.29,1.04 4.32,4.56l0 -12.15c-45.42,-40.39 -79.75,-89.19 -170.18,-89.4 -80.17,-0.19 -132.08,50.87 -157.68,105.01 -63.12,133.51 -15.02,326.14 -39.23,477.22 -11.63,72.55 -40.84,131.66 -64.57,194.48 -25.32,67.03 -47.59,126.58 -58.75,203.19 -15.8,108.45 -9.71,231.98 82.56,296.08 46.1,32.03 69.81,29.54 89.89,41.31z"/>
   <path class="fil0" d="M2097.65 2159.29c-28.11,85.3 -169.24,103.35 -242.28,159.22 -33.59,25.69 -50.9,50.78 -68.43,65.4 -31.95,26.64 -39.81,34.27 -78.6,55.38 -170.12,92.61 -284.83,-68.8 -208.99,-225.68 16.32,-33.76 36.5,-53.99 58.59,-75.43 18.34,-17.8 53.07,-37.77 80.9,-52.99 29.79,-16.29 61.76,-27.72 95.44,-38.58 95.13,-30.7 247.71,-49.99 332.66,15.31 19.74,15.18 43.44,58.77 30.71,97.39zm-212.16 -146.7c-156.11,5.15 -322.72,82.14 -379.7,173.92 -37.38,60.21 -55.07,146.11 -15.47,214.91 33.92,58.92 102.48,93.05 189.25,59.4 123.66,-47.96 133.51,-124.41 241.29,-171.76 58.32,-25.62 133.15,-48.61 172.3,-103.89 22.29,-31.47 18.88,-74.73 -1.81,-105.76 -38.91,-58.32 -113.71,-69.86 -205.86,-66.83z"/>
   <path class="fil0" d="M-0 2755.84l0 7.76c174.22,-31.91 217.39,139.58 232.22,274.02 22.91,207.73 36.38,255.42 158.93,354.13 7.13,5.74 10.73,10.18 17.92,15.52 14.47,10.75 38.36,34.73 46.41,51.34 17.32,35.76 10.8,69.12 -4.58,102.84 -23.69,51.95 -73.52,104.56 -137.14,119.43 -78.96,18.45 -140.51,-29.21 -187.9,-60.07 -12.93,-8.42 -26.71,-16.09 -39.16,-24.97 -71.38,-50.88 -70.54,-86.5 -86.7,-105.51l0 18.18c13.72,15.61 25.22,49.95 57.85,74.29 12.05,8.99 23.28,18.7 36.69,27.45 73.57,48.02 142.22,103.25 235.79,73.21 59.66,-19.15 107.65,-71 131.4,-127.95 60.96,-146.15 -125.57,-160.74 -184.45,-312.3 -52.67,-135.58 -14.84,-404.46 -169,-477.98 -40.41,-19.28 -64.51,-14.75 -108.29,-9.41z"/>
   <path class="fil0" d="M-0 2506.11l0 7.61c41.98,-5.92 70.73,-11.16 113.2,0.97 41.61,11.88 72.91,34.83 96.44,59.81 4.32,4.59 8.03,10.28 13.46,17.3 137.26,177.52 38.85,476.47 163.18,654.24 22.35,31.95 34.3,41.96 60.05,65.47 100.52,91.78 268.59,125.71 211.16,266.7 -25.99,63.8 -71.3,104.58 -112.92,140.57l11.96 0 31.47 -31.33c51.58,-51.99 116.76,-138.07 75.15,-216.15 -15.48,-29.04 -37.98,-43.99 -63.02,-62.46 -102.94,-75.96 -202.52,-106.03 -249.33,-255.66 -44.88,-143.46 -23.24,-297.69 -62.3,-442.72 -24.77,-91.96 -79.89,-175.89 -173.57,-202.88 -39.13,-11.27 -75.34,-8.4 -114.93,-1.46z"/>
   <path class="fil0" d="M3629.71 613.75c-9.31,-81.52 42.26,-134.18 104.39,-152.15 92.91,-26.88 137.1,24.58 171.37,71.49 106.45,145.74 182.92,502.46 9.88,556.61 -41.98,13.13 -73.33,-3.45 -91.24,-28.89 -19.59,-27.83 -21.49,-65.68 -24.97,-103.1 -7.44,-79.94 -45.59,-128.13 -81.41,-175.51 -29.04,-38.41 -80.53,-102.9 -88.02,-168.44zm115.79 -162c-66.61,14.27 -123.23,63.36 -124.31,139.6 -1.05,74.23 50.21,142.28 81.77,183.29 35.44,46.06 78.71,98.78 88.13,176.71 4.63,38.33 5.99,78.23 23.23,108.08 54.72,94.76 285.07,46.17 185.15,-338.82 -18.02,-69.42 -47.21,-130.16 -81.82,-182.98 -32.59,-49.75 -79.6,-105.7 -172.14,-85.88z"/>
   <path class="fil0" d="M5579.55 3509.6l0 -10.63c-52.91,47.68 -86.72,66.92 -167.26,74.38 -173.01,16.01 -233.94,-102.94 -227.68,-256.35 5.67,-138.75 89.09,-210.76 100.4,-384.88 6.9,-106.16 -10.15,-323.76 125.29,-358.91 66.01,-17.13 111.29,10.45 154.24,50.26 4.28,3.97 2.73,2.52 6.55,7.25l8.44 9.48 0 -12.41c-6.04,-4.83 -8.52,-9.49 -14.97,-15.53 -42.03,-39.39 -97.94,-62.79 -158,-45.78 -137.63,39 -121.63,249.93 -129.01,362.91 -11.85,181.63 -95,243.72 -100.6,390.45 -6.08,159.31 56.83,268.66 229.29,261.25 33.54,-1.44 72.29,-9.16 100.32,-21.78 48.02,-21.62 47.63,-31.62 72.97,-49.7z"/>
   <path class="fil0" d="M1913.06 3019.67c47.68,-8.6 50.2,35.3 36.91,71.23 -14.19,38.38 -78.34,101.28 -128.24,231.6 -11.64,30.4 -22.58,61.63 -30.51,92.28 -8.76,33.88 -14.99,60.71 -30.08,89.91 -39.28,75.99 -117.15,72.42 -108.31,-24.68 6.86,-75.42 14.61,-150.87 -33.11,-195.28 -18.99,-17.68 -49.19,-29.36 -70.09,-49.91 -30.48,-29.95 -4.21,-64.68 16.49,-78.6 68.17,-45.82 181.05,-63.36 261.24,-101.4 24.76,-11.75 55.61,-29.73 85.7,-35.16zm48.34 57.45c21.8,-119.21 -108.63,-41.87 -139.64,-27.86 -77.24,34.88 -214.42,62.35 -267.35,106.44 -20.41,17 -39.19,53.08 -11.26,82.84 27.22,29 53.88,33.72 72.6,52.94 58.6,60.18 28.27,151.2 28.67,206.95 0.27,37.59 19.64,72.32 59.3,65.91 62.8,-10.16 83.68,-106.15 96.1,-151.95 55.61,-205.08 151.42,-279.72 161.58,-335.26z"/>
   <path class="fil0" d="M5320.25 0l-10.36 0c16.84,21.03 34.09,39.58 46.17,75.81 10.82,32.44 11.82,71.65 2.99,105.35 -7.76,29.62 -24.56,63 -40.31,79.64 -72.14,76.23 -117.99,21.65 -247.35,115.43 -114.06,82.68 -300.8,207.65 -382.09,14.64 -11.8,-28.01 -19.73,-64.93 -21.51,-98.11 -4.17,-77.75 19.3,-136.6 55.23,-184.03 52.41,-69.18 116.25,-95.13 130.61,-108.73l-15.56 0c-10.39,9.11 -25.06,17.06 -36.69,25.27 -32.6,23.03 -69.69,56.36 -91.97,89.35 -35.01,51.85 -56.99,116.89 -47.55,195.16 18.84,156.18 108.89,235.83 268.97,163.02 72.81,-33.12 156,-107.26 227.93,-137.63 27.96,-11.8 63.9,-16.43 95.18,-24.75 93.2,-24.77 138.25,-144.52 109.75,-234.17 -14.94,-46.99 -27.82,-49.79 -43.46,-76.26z"/>
   <path class="fil0" d="M3213.96 0l-7.76 0c-15.67,54.39 -66.86,98.54 -103.16,123.55 -43.35,29.87 -103.6,48.74 -164.09,59.24 -145.53,25.27 -222.23,14.78 -383.61,62.55 -58.7,17.38 -109.63,40.68 -166,57.6 -144.79,43.48 -202.49,-47.35 -263.89,-157.57l-77.58 -145.37 -8.48 0c5.78,16.44 66.3,124.19 79.54,149.13 29.83,56.17 32.08,58.53 66.14,104.07 6.01,8.03 5.81,7.78 13.21,14.69 94.57,88.28 166.96,50.68 277.14,11.91 93.27,-32.82 172.54,-55.12 273.13,-67.7 67.41,-8.43 135.38,-11.38 201.76,-23.78 107.22,-20.03 229.48,-77.47 263.64,-188.32z"/>
   <path class="fil0" d="M5579.55 3340.81l0 -16.14c-8.27,8.38 -11.31,19.55 -18.75,29.38l-21.79 25.61c-57,58.2 -160.33,64.51 -206.05,27.79 -9.77,-7.84 -15.08,-12.67 -21.69,-25.83 -18.29,-36.39 -34.55,-39.67 -42.35,-96.62 -11.72,-85.62 27.96,-151.22 54.05,-221.67 23.06,-62.28 24.77,-157.02 46.43,-229.68 13.77,-46.19 39.56,-88.81 82.61,-101.59 69.7,-20.69 99.23,18.33 127.54,43.83l0 -11.93c-15.5,-13.58 -25.97,-27.8 -53.7,-37.55 -80.16,-28.18 -137.16,21.83 -163.69,105.54 -14.79,46.67 -20.91,107.8 -28.84,158.01 -20.18,127.67 -131.91,249.99 -37.12,378.84 3.39,4.61 5.35,9.77 8.52,16.67 3.16,6.89 4,8.38 8.55,13.76 39.1,46.15 110.29,43.29 164.02,27.7 24.24,-7.03 45.69,-19.99 60.06,-34.92 8.49,-8.82 15.08,-13.92 23.07,-24.35 6.76,-8.83 13.01,-20.71 19.13,-26.86z"/>
   <path class="fil0" d="M5215.43 0l-12.33 0c34.18,35.56 66.7,67.96 61.95,134.03 -8.52,118.68 -105.46,123.57 -147.64,143.15 -57.29,26.58 -113.64,75.55 -185.2,102.1 -58.76,21.8 -110.52,19.47 -136.25,-31 -21.97,-43.11 -21.45,-115.29 -4.8,-163.06 18.42,-52.85 47.68,-87.86 79.48,-113.05 21.71,-17.2 31.92,-26.04 57.25,-40.35 17.15,-9.69 52.01,-23.01 63.62,-31.83l-19.5 0c-8.51,7.2 -48.43,25.1 -63.41,34.88 -21.13,13.79 -38.51,27.27 -55.71,41.96 -75.23,64.25 -108.22,201.34 -58.26,284.04 56.77,93.97 206.38,-5.5 267.77,-43.84 89.77,-56.06 86.67,-37.07 134.58,-60.74 20.37,-10.06 39.1,-26.55 51,-46.56 34.84,-58.57 33.11,-129.78 -9.45,-183.99 -4.28,-5.46 -7.56,-8.25 -12.2,-12.79 -6.48,-6.34 -6.75,-5.53 -10.92,-12.96z"/>
   <path class="fil0" d="M3079.44 932.78c145.82,-13.47 209.18,90.55 143.4,181.01 -44.7,61.48 -179.85,84.19 -242.51,134.09 -14.95,11.91 -32.94,33.15 -54.32,40.72 -26.42,9.36 -54.85,-5.51 -63.3,-25.18 -35.56,-82.7 30.99,-313.49 216.73,-330.65zm1.47 -7.24c-57.66,6.23 -105.89,31.08 -137.67,59.3 -5.01,4.45 -1.88,1.9 -5.55,5.61 -4.97,5.01 -0.27,0.59 -5.71,5.42 -52.85,46.95 -111.99,203.77 -73.67,274.71 23.38,43.29 74.63,33.24 113.04,-3.87 74.14,-71.64 199.23,-71.86 261.85,-153.7 56.5,-73.84 6.7,-204.66 -152.29,-187.46z"/>
   <path class="fil0" d="M4398.32 945.73c-0.76,-27.89 -0.63,-56.1 12.75,-77.62 11.75,-18.89 34.49,-34.45 64.58,-20.96 60.16,26.98 40.95,54.02 138.64,51.4 31.6,-0.85 58.91,0.09 74.49,20.12 50.47,64.89 -85.9,101.31 -135.99,130.22 -126.49,73 -137.82,187.67 -184.47,192.14 -32.11,3.08 -25.51,-38.99 -17.07,-61.58 31.48,-84.32 49.71,-137.24 47.07,-233.72zm44.05 -109.34c-59.86,14.97 -49.26,83.36 -50.66,145.61 -2.58,114.92 -61.17,201.46 -55.07,238.72 5.31,32.41 34.56,33.92 55.78,16.46 9.24,-7.6 31.62,-41.03 41.51,-56.15 45.03,-68.78 64.79,-99.57 153.7,-142.01 40.35,-19.26 108.4,-40.77 117.85,-80.4 7.23,-30.32 -12.88,-53.36 -34.24,-61.49 -28.15,-10.72 -62.42,-4.4 -92.71,-5.91 -56.3,-2.81 -86.85,-67.16 -136.16,-54.83z"/>
   <path class="fil0" d="M5388.51 1252.61c-10.63,49.55 -43.38,83.55 -75.85,104.18 -45.02,28.61 -95.87,28.22 -154.74,21.75 -36.08,-3.96 -121.43,-17.7 -149.71,-31.61 -53.37,-26.25 -40.65,-72.83 -11.97,-119.63 46.23,-75.44 116.32,-138.76 209.75,-150.34 123.65,-15.33 202.31,83.4 182.52,175.66zm-187.22 -181.91c-53.97,8.09 -98.45,31.59 -130.75,57.88 -51.04,41.54 -168.62,180.48 -62.33,226.63 33.52,14.55 117.14,27.25 158.42,31.65 58.27,6.22 112.54,1.85 154.84,-26.93 63.05,-42.89 96.35,-114.54 64.08,-195.16 -28.24,-70.55 -103.63,-106.17 -184.26,-94.08z"/>
   <path class="fil0" d="M5579.55 828.91l0 -8.22c-19.76,-6.01 -43.64,-18.12 -63.66,-26.14 -62.86,-25.19 -136.56,-47.18 -204.41,-54.33 -114.01,-12.01 -214.83,27.97 -239.7,7.47 -29.37,-24.2 1.61,-48.58 8.43,-55.82 82.87,-87.89 254.11,-124.92 368.03,-150.88 86.3,-19.66 65.19,-19.57 131.31,-43.11l0 -8.35c-129.38,56.5 -153.92,40.47 -276.59,79.16 -86.52,27.29 -169.49,60.19 -234.58,122.55 -13.84,13.26 -25.07,40.53 -3.92,60.95 38.32,36.99 150.75,-51.7 386.17,26.8 22.91,7.64 43.22,14.71 65.53,23.62 20.4,8.15 43.51,19.95 63.39,26.28z"/>
   <path class="fil0" d="M-0 3003.21l0 7.53c64.22,-12.18 89.06,9.3 112.84,51.21 21.54,37.96 33.47,83.38 45.39,130.39 11.91,46.98 19.47,95.35 37.68,138.11 17.45,40.96 44.5,70.21 60.86,114.75 43.3,117.9 -72.99,199.68 -129.94,74.13 -42.9,-94.56 -23.62,-134.66 -126.83,-223.82l0 10.76c25.2,16.02 60.62,61.31 78.56,99.62 19.35,41.32 27.46,91.01 48.13,130.42 58.31,111.14 180.21,33.79 139.07,-88.81 -15.18,-45.24 -42.24,-75.59 -61.57,-116.97 -32.28,-69.08 -37.33,-187.61 -84.91,-272.26 -24.73,-44.01 -52.04,-67.65 -119.27,-55.05z"/>
   <path class="fil0" d="M3791.25 559.35c54.42,-8.46 84.66,26.78 105.19,55.31 46.95,65.26 81.18,173.95 69.7,258.06 -6.29,46.08 -28.78,88.19 -67.19,96.89 -56.93,12.89 -61.77,-47.37 -69.71,-92.95 -15.99,-91.86 -96.14,-140.87 -106.93,-222.2 -6.78,-51.05 24.15,-88.15 68.95,-95.11zm-76.11 96.24c12.32,90.67 91.34,127.05 108.91,234.72 7.8,47.79 21.24,103.46 80.92,85.36 111.96,-33.95 74.15,-265.4 -5.33,-369.85 -12.66,-16.64 -24.76,-31.74 -44.1,-42.4 -63.77,-35.14 -152.27,4.82 -140.4,92.17z"/>
   <path class="fil0" d="M1832.03 2095.15c49.12,-9.11 82.96,5.57 100.01,40.31 24.73,50.39 -9.67,74.43 -42.57,91.67 -16.98,8.9 -34.62,15.88 -50.75,24.62 -67.64,36.68 -132.66,111.19 -197.82,88.28 -15.49,-5.45 -32.91,-19.9 -37.67,-35.05 -12.5,-39.77 23.15,-86.06 38.29,-105.54 35.51,-45.68 124.74,-92.1 190.5,-104.3zm9.83 -9.33c-107.58,12.76 -267.12,120.5 -246.71,216.47 8.28,38.93 54.03,59.13 101.67,44.32 39.68,-12.34 68.04,-37.57 96.24,-56.98 15.82,-10.89 29.48,-20.81 47.69,-30.45 46.29,-24.47 131.88,-48.93 100.51,-121.79 -15.49,-35.98 -48.06,-57.67 -99.41,-51.58z"/>
   <path class="fil0" d="M816.05 240.63c61.44,-6.84 187.57,4.47 226.5,47.55 34.21,37.85 13.88,89.08 -23.27,117.34 -57.06,43.41 -134.08,34.61 -202.54,21.93 -145.63,-26.98 -159.58,-169.12 -0.68,-186.81zm1.31 -7.57c-174.05,18.67 -149.83,173.3 -6.87,200.78 59.6,11.46 138.81,20.71 192.39,-8.45 8.28,-4.51 15.22,-9.58 21.77,-14.55 36.72,-27.89 59.27,-79.22 26.64,-123.03 -34.19,-45.9 -159.56,-62.72 -233.93,-54.74z"/>
   <path class="fil0" d="M5099.84 26.67c121.17,-11.67 87.61,103.36 40.59,156.27 -23.13,26.03 -50.59,37.65 -86.84,58.31 -46.57,26.53 -193.18,103.68 -179.55,-9.6 11.06,-91.96 128.56,-195.61 225.8,-204.97zm-12.04 -6c-70.83,11.12 -141.08,64.59 -182.28,119.92 -61.64,82.78 -85.73,241.84 160.54,101.91 38.43,-21.84 63.41,-32.26 87.7,-62.91 52.73,-66.56 61.46,-178.92 -65.96,-158.91z"/>
   <path class="fil0" d="M5579.55 3169.87l0 -19.43c-5.4,7.17 -16.4,32.96 -22.58,43.54 -99.34,169.95 -239.88,91.49 -206.65,-44.62 8.48,-34.71 24.22,-62.18 38.11,-93.2 23.68,-52.9 51.81,-132.61 98.49,-163.77 42.74,-28.53 70.55,-5.98 92.63,17.08l0 -12.66c-10.45,-6.68 -47.48,-46.44 -97.95,-9.63 -22.26,16.24 -42.97,43.81 -58.04,73 -15.57,30.17 -27.29,60.09 -41.67,92.26 -13.64,30.5 -29.11,58.06 -38.2,92.78 -33.98,129.84 86.92,211.61 183.19,102.44 11.08,-12.57 19.81,-22.95 29.33,-37.66 7.11,-10.98 16.5,-31.32 23.35,-40.15z"/>
   <path class="fil0" d="M3039.84 2241.32c34.97,-5.92 40.3,42.48 48.8,68.18 17.94,54.24 63.92,50.15 85.35,96.02 7.37,15.77 5.5,34.2 -7.27,44.35 -19.4,15.4 -80.95,6.11 -112.03,8.56 -31.43,2.47 -78.95,15.79 -107.8,9.69 -18.3,-3.87 -27.36,-18.96 -17.14,-37.46 5.59,-10.11 20.22,-21.11 30.51,-28.31 79.61,-55.73 21.58,-151.21 79.57,-161.02zm-8.17 -5.45c-34.37,12.72 -27.97,54.51 -34.1,92.94 -11.34,71.13 -73.69,69.13 -78.66,112.98 -6.8,59.93 103.39,25.74 144.25,23.2 36.71,-2.27 88.02,9.92 111.32,-13.09 11.5,-11.35 13.33,-29.17 6.34,-47.74 -18.82,-50 -70.93,-42.69 -87.29,-105.16 -8.3,-31.71 -20.68,-78.38 -61.87,-63.14z"/>
   <path class="fil0" d="M2946.77 0l-10.88 0c-9.55,16.15 -43.95,37.54 -67.59,47.96 -79.84,35.19 -193.38,46.82 -280.86,56.05 -153.03,16.16 -217.25,28.21 -302.69,-73.29 -7.56,-8.98 -20.99,-21.49 -24.81,-30.72l-10.18 0 53.91 64.84 32.61 26.03c70.18,46.63 172.59,27.92 254.92,20.48 94.24,-8.51 206.46,-21.8 289.61,-62.3 18.79,-9.15 59.92,-37.8 65.97,-49.04z"/>
   <path class="fil0" d="M749.88 1709.53c29.67,-5.32 50.96,16.17 84.24,16.7 29.18,0.47 67.95,-14.84 93.35,-9.24 14.08,3.11 27.15,11.98 22.36,27.76 -7.24,23.87 -30.02,1.88 -67.65,94.31 -12.53,30.78 -19.52,48.38 -39.31,66.72 -25.46,23.6 -52.44,14.91 -60.35,-18.41 -6.57,-27.66 -11.44,-60.62 -17.26,-89.08 -4.56,-22.3 -20.06,-67.35 -15.37,-88.77zm26.56 183.87c14.38,48.34 70.79,53.12 110,-44.47 41.89,-104.28 58.09,-68.9 69.87,-100.92 6.98,-18.95 -7.04,-30.42 -18.62,-35.32 -28.35,-12.01 -69.85,5.86 -100.8,6.43 -34.52,0.64 -61.72,-27.01 -91.96,-14.6 -9.72,22.56 7.06,70.16 13.11,95.69 6.73,28.41 10.67,67.21 18.4,93.19z"/>
   <path class="fil0" d="M3069.42 981.34c72.24,-19.1 105.61,45.38 59.43,91.42 -24.81,24.74 -92.36,46.23 -132.3,65.86 -13.49,6.63 -54.6,39.36 -61.32,4.66 -9.01,-46.55 54.06,-140.75 134.18,-161.94zm85.37 64.83c16.24,-51.63 -36.78,-101.73 -119.27,-61.08 -92.62,45.65 -143.45,185.09 -78.53,181.45 14.84,-0.83 24.74,-11.9 35.81,-17.79 11.87,-6.31 23.83,-11.01 36.33,-16.64 51.07,-22.99 110.94,-39.14 125.66,-85.94z"/>
   <path class="fil0" d="M5579.55 750.43l0 -7.89c-23.68,-5.04 -48.67,-15.61 -72.37,-20.47 -84.54,-17.32 -92.07,-13.67 -165.24,-24.03 -25.23,-3.57 -53.78,-18.92 -46.35,-47.1 11.26,-42.71 159.06,-58.1 213.43,-71.54 26.32,-6.51 48.65,-17.93 70.53,-23.9l0 -8.2c-23.1,6.7 -45.72,18.42 -74.45,25.64 -61.18,15.39 -206.31,26.31 -217.01,78.32 -12.71,61.82 95.35,57.65 133.05,62.35 27.47,3.43 55.48,9.55 82.05,15.48 26.99,6.03 51.84,15.76 76.35,21.33z"/>
   <path class="fil0" d="M5208.57 1156.43c51.19,-6.93 97.22,22.43 80.35,75.98 -13.74,43.6 -53.57,68.26 -99.91,69.28 -152.78,3.37 -76.68,-132.24 19.56,-145.27zm-9.31 -5.9c-26.95,5.76 -42.98,15.99 -60.94,29.03 -64.01,46.45 -66.57,136.8 56.36,129.07 137.18,-8.63 139.61,-186.95 4.58,-158.1z"/>
   <path class="fil0" d="M1731.24 3331.65c-15.18,-20.17 -4.38,-36.43 -11.06,-63.83 -5.68,-23.3 -19.6,-28.58 -33.7,-41.49 -17.27,-15.82 -8.22,-39.16 6.67,-49.07 13.89,-9.24 36.41,-17.45 54.57,-20.83 75.97,-14.12 58.69,33.09 37.2,76.35 -8.06,16.22 -18.99,34.86 -21.96,53.26 -4.08,25.3 -0.95,47.9 -31.72,45.61zm23.11 -183.55c-38.86,4.85 -106.95,30.61 -79.93,76.33 9.99,16.9 31.69,16.32 38.68,45.28 5.52,22.83 -3.95,58.51 15.82,67.82 27.79,13.09 37.52,-18.63 40.04,-40.06 6.11,-52.02 97.6,-163.38 -14.61,-149.36z"/>
   <path class="fil0" d="M3826.79 657.24c42.64,-22.08 129.57,127.5 74.77,183.95 -29.05,29.92 -37.79,-32.76 -58.2,-78.65 -10.25,-23.04 -49.78,-88.1 -16.56,-105.3zm-17.96 42.99c4.39,21.18 16.25,40.49 24.7,58.23 26.56,55.76 25.82,106.55 61.73,96.02 16.15,-4.73 26.93,-29.36 29.89,-51.35 7.17,-53.2 -19.21,-93.51 -40.76,-123.49 -37.26,-51.84 -87.83,-38.58 -75.56,20.59z"/>
   <path class="fil0" d="M5579.55 692.87l0 -7.69c-15.79,-3.04 -32.06,-7.46 -48.88,-11.54 -18.58,-4.52 -32.9,-6.95 -33.53,-25.47 14.33,-13.03 58.63,-19.67 82.4,-24.88l0 -7.94c-26.47,6.48 -73.88,12.91 -88.42,29.1 -4.71,23.82 11.85,29.96 31.46,35 17.71,4.56 38.16,9.67 56.96,13.42z"/>
   <path class="fil0" d="M-0 114.88l0 50.37c7.53,-23.3 10.88,-61.39 18.35,-88.26 9.19,-33.07 19.35,-50.79 31.11,-76.99l-8.92 0c-6.01,16.34 -16.4,33.04 -23.13,53.6 -5.42,16.56 -10.78,49.35 -17.41,61.28z"/>
   <path class="fil0" d="M5411.73 3718.77l43.95 0c16.14,-8.01 47.11,-13.21 67.82,-22.67 9.87,-4.51 20.77,-9.89 29.43,-15.12 9.06,-5.48 18.86,-13.41 26.63,-17.12l0 -10.01c-24.36,13.76 -33.95,26.88 -75.46,42.51 -39.51,14.88 -78.81,16.63 -92.37,22.41z"/>
   <path class="fil0" d="M-0 3718.77l33.09 0c-5.96,-6.71 -24.55,-17.3 -33.09,-23.21l0 23.21z"/>
   <path class="fil0" d="M-0 3695.56c8.54,5.91 27.13,16.5 33.09,23.21l15.26 0c-0.58,-0.47 -1.33,-1.12 -1.71,-1.42l-3.39 -2.68c-0.5,-0.36 -1.19,-0.84 -1.71,-1.19l-41.54 -27.48 0 9.57z"/>
   <path class="fil0" d="M3282.73 831.35c7.78,3.49 6.7,3.77 14.85,0.26l0.92 -9.49c-12.11,-2.24 -11.54,0.01 -15.77,9.23z"/>
  </g>
 </g>
</svg>
