<?xml version="1.0" encoding="UTF-8"?>
<!DOCTYPE svg PUBLIC "-//W3C//DTD SVG 1.1//EN" "http://www.w3.org/Graphics/SVG/1.1/DTD/svg11.dtd">
<!-- Creator: CorelDRAW -->
<svg xmlns="http://www.w3.org/2000/svg" xml:space="preserve" width="43.614mm" height="43.614mm" version="1.1" style="shape-rendering:geometricPrecision; text-rendering:geometricPrecision; image-rendering:optimizeQuality; fill-rule:evenodd; clip-rule:evenodd"
viewBox="0 0 8594.55 8594.55"
 xmlns:xlink="http://www.w3.org/1999/xlink"
 xmlns:xodm="http://www.corel.com/coreldraw/odm/2003">
 <defs>
  <style type="text/css">
   <![CDATA[
    .str0 {stroke:#CDF1DC;stroke-width:48.59;stroke-miterlimit:22.9256;stroke-opacity:0.301961}
    .str3 {stroke:black;stroke-width:48.59;stroke-miterlimit:22.9256}
    .str1 {stroke:#CDF1DC;stroke-width:48.59;stroke-miterlimit:22.9256}
    .str2 {stroke:#E4A788;stroke-width:97.21;stroke-linecap:round;stroke-linejoin:round;stroke-miterlimit:22.9256}
    .fil5 {fill:none}
    .fil1 {fill:none;fill-rule:nonzero}
    .fil0 {fill:none;fill-rule:nonzero}
    .fil4 {fill:#55BC7E}
    .fil3 {fill:#55BC7E;fill-rule:nonzero}
    .fil2 {fill:white;fill-rule:nonzero}
   ]]>
  </style>
   <clipPath id="id0">
    <path d="M-0 0l8594.55 0 0 8594.55 -8594.55 0 0 -8594.55z"/>
   </clipPath>
     <clipPath id="id1" style="clip-rule:nonzero">
      <path d="M5.89 2196.03l465.67 0 0 -465.65 -465.67 0 0 465.65z"/>
     </clipPath>
     <clipPath id="id2" style="clip-rule:nonzero">
      <path d="M-0 0l8594.55 0 0 8594.55 -8594.55 0 0 -8594.55z"/>
     </clipPath>
 </defs>
 <g id="Layer_x0020_1">
  <metadata id="CorelCorpID_0Corel-Layer"/>
  <g>
  </g>
  <g style="clip-path:url(#id0)">
   <g>
    <g id="_105553245609600">
     <path class="fil0 str0" d="M2101.92 6390.27c0,-346.45 -280.87,-627.34 -627.36,-627.34 -346.47,0 -627.36,280.89 -627.36,627.34 0,346.51 280.89,627.36 627.36,627.36 346.49,0 627.36,-280.85 627.36,-627.36z"/>
     <path class="fil1 str1" d="M1946.69 6377.38c0,253.12 -210.89,459.19 -472.13,459.19 -261.24,0 -472.12,-206.07 -472.12,-459.19 0,-253.16 210.87,-459.23 472.12,-459.23 261.24,0 472.13,206.07 472.13,459.23z"/>
     <g>
     </g>
    </g>
    <g style="clip-path:url(#id1)">
     <g id="_105553244930400">
      <line class="fil1 str2" x1="414.18" y1="2127.24" x2="63.22" y2= "1799.19" />
      <line class="fil1 str2" x1="74.67" y1="2138.69" x2="402.71" y2= "1787.74" />
     </g>
    </g>
    <g style="clip-path:url(#id2)">
     <polygon class="fil1" points="5.89,2196.03 471.56,2196.03 471.56,1730.38 5.89,1730.38 "/>
     <circle class="fil2" cx="6853.26" cy="7308.56" r="927.47"/>
     <path class="fil3" d="M7209.17 6959.16c0,-56.71 -88.34,-100.2 -205.24,-100.2 -116.9,0 -205.28,43.49 -205.28,100.2 0,1.91 0,2.84 0,4.73 0,0.97 0,2.84 0,3.8l0 160.7c0,10.37 8.57,18.88 19.02,18.88 10.44,0 19,-8.51 19,-18.88l0 -8.53c36.12,25.52 96.95,40.67 167.26,40.67 70.33,0 131.14,-16.08 167.22,-40.67l0 42.55c0,26.47 -63.63,62.39 -167.22,62.39l-9.5 0c-10.44,0 -19.98,0 -30.43,-1.91 -10.44,-0.91 -19.94,5.68 -21.85,16.06 -0.97,10.42 5.71,19.86 16.16,21.76 9.54,0.95 19.02,1.89 29.46,1.89l15.21 0c70.31,0 131.12,-16.06 167.26,-40.61l0 42.49c0,26.48 -63.69,62.41 -167.26,62.41l-8.55 0c-10.44,0 -19.98,0 -30.43,-1.89 -10.44,-0.93 -19.94,5.7 -21.85,16.06 -0.97,10.4 5.71,19.84 16.16,21.78 9.54,0.91 19.02,1.87 29.46,1.87l15.21 0c70.31,0 131.12,-16.06 167.26,-40.63l0 42.55c0,26.45 -63.69,62.37 -167.26,62.37l-8.55 0c-10.44,0 -19.98,0 -30.43,-1.87 -10.44,-0.97 -19.94,5.66 -21.85,16.06 -0.97,10.37 5.71,19.84 16.16,21.72 9.54,0.97 19.02,1.87 29.46,1.87l15.21 0c70.31,0 131.12,-16.06 167.26,-40.61l0 42.55c0,26.48 -63.69,62.37 -167.26,62.37l-8.55 0c-10.44,0 -19.98,0 -30.43,-1.87 -10.44,-0.97 -19.94,5.66 -21.85,16.06 -0.97,10.4 5.71,19.86 16.16,21.74 9.54,0.97 19.02,1.91 29.46,1.91l15.21 0c116.88,0 205.26,-43.49 205.26,-100.2l0 -500.98c0,-0.97 0,-2.84 0,-3.8 0.93,-1.89 0.93,-2.82 0.93,-4.73zm-205.24 -62.37c103.59,0 167.22,35.94 167.22,62.37 0,26.48 -63.63,62.41 -167.22,62.41 -103.57,0 -167.26,-35.92 -167.26,-62.41 0,-26.43 63.69,-62.37 167.26,-62.37zm0 225.89c-103.57,0 -167.26,-35.88 -167.26,-62.37l0 -41.58c36.12,25.52 96.95,40.63 167.26,40.63 70.33,0 131.14,-16.08 167.22,-40.63l0 41.58c0,25.52 -63.63,62.37 -167.22,62.37z"/>
     <path class="fil3" d="M6710.72 7184.34c-116.9,0 -205.3,43.12 -205.3,99.46 0,1.87 0,2.78 0,4.65 0,0.97 0,2.84 0,3.74l0 295.55c0,56.28 88.4,99.42 205.3,99.42 116.9,0 205.24,-43.14 205.24,-99.42l0 -295.55c0,-0.91 0,-2.78 0,-3.74 0,-1.87 0,-2.78 0,-4.65 0,-57.25 -88.34,-99.46 -205.24,-99.46zm167.22 301.15c0,26.23 -63.65,61.92 -167.22,61.92 -103.57,0 -167.22,-35.69 -167.22,-61.92l0 -43.18c36.1,25.32 96.91,40.36 167.22,40.36 70.31,0 131.12,-15.94 167.22,-40.36l0 43.18zm0 -101.33c0,26.29 -63.65,61.9 -167.22,61.9 -103.57,0 -167.22,-35.61 -167.22,-61.9l0 -41.3c36.1,25.36 96.91,40.36 167.22,40.36 70.31,0 131.12,-15.94 167.22,-40.36l0 41.3zm-167.22 -162.32c103.57,0 167.22,35.69 167.22,61.96 0,26.27 -63.65,61.9 -167.22,61.9 -103.57,0 -167.22,-35.63 -167.22,-61.9 0,-26.27 63.65,-61.96 167.22,-61.96zm0 426.89c-103.57,0 -167.22,-35.67 -167.22,-61.96l0 -42.19c36.1,25.34 96.91,40.32 167.22,40.32 70.31,0 131.12,-15.94 167.22,-40.32l0 42.19c0,26.29 -63.65,61.96 -167.22,61.96z"/>
     <circle class="fil1 str3" transform="matrix(0.264258 0.753465 -7.53465E-001 0.264258 6840.24 7321.63)" r="957.3"/>
     <circle class="fil1 str3" transform="matrix(0.264258 0.753465 -7.53465E-001 0.264258 6856.39 7327.88)" r="957.3"/>
     <circle class="fil4" cx="1474.58" cy="6377.36" r="319.59"/>
    </g>
   </g>
  </g>
  <polygon class="fil5" points="-0,0 8594.55,0 8594.55,8594.55 -0,8594.55 "/>
 </g>
</svg>
