<?xml version="1.0" encoding="UTF-8"?>
<!DOCTYPE svg PUBLIC "-//W3C//DTD SVG 1.1//EN" "http://www.w3.org/Graphics/SVG/1.1/DTD/svg11.dtd">
<!-- Creator: CorelDRAW -->
<svg xmlns="http://www.w3.org/2000/svg" xml:space="preserve" width="10.1262in" height="9.80456in" version="1.1" style="shape-rendering:geometricPrecision; text-rendering:geometricPrecision; image-rendering:optimizeQuality; fill-rule:evenodd; clip-rule:evenodd"
viewBox="0 0 549.58 532.13"
 xmlns:xlink="http://www.w3.org/1999/xlink"
 xmlns:xodm="http://www.corel.com/coreldraw/odm/2003">
 <defs>
  <style type="text/css">
   <![CDATA[
    .fil6 {fill:#1E844E;fill-rule:nonzero}
    .fil2 {fill:#263138;fill-rule:nonzero}
    .fil7 {fill:#2CBD70;fill-rule:nonzero}
    .fil3 {fill:#445964;fill-rule:nonzero}
    .fil1 {fill:#DFDFDF;fill-rule:nonzero}
    .fil0 {fill:#F4F4F4;fill-rule:nonzero}
    .fil9 {fill:#FF9A6C;fill-rule:nonzero}
    .fil8 {fill:#FFBF9C;fill-rule:nonzero}
    .fil5 {fill:white;fill-rule:nonzero}
    .fil4 {fill:black;fill-rule:nonzero;fill-opacity:0.301961}
   ]]>
  </style>
 </defs>
 <g id="Layer_x0020_1">
  <metadata id="CorelCorpID_0Corel-Layer"/>
  <g id="_105553291332192">
   <g>
    <g>
     <g>
      <g>
       <path class="fil0" d="M78.74 160.6l-18.4 -7.57c0,0 -6.35,15.45 -22.52,9.13 -8.4,-3.29 -10.48,-10.53 -10.51,-15.43 -0.04,-5.7 2.85,-10.98 7.44,-14.37 5.24,-3.86 14.21,-6.25 25.72,1.04l16.85 -40.98 -18.2 -7.48 -9.99 24.31c0,0 -28.23,-3.9 -39.8,24.23 -11.06,26.91 11.45,43.47 24.01,48.64 7.9,3.25 32.41,11.09 45.42,-21.52z"/>
      </g>
     </g>
     <g>
      <g>
       <polygon class="fil0" points="69.49,59.05 87.95,66.64 80.86,83.89 62.39,76.3 "/>
      </g>
     </g>
    </g>
    <g>
     <g>
      <g>
       <path class="fil1" d="M72.5 158l-18.4 -7.57c0,0 -6.35,15.45 -22.52,9.13 -8.4,-3.29 -10.48,-10.53 -10.51,-15.43 -0.04,-5.7 2.85,-10.98 7.44,-14.37 5.24,-3.86 14,-5.73 25.5,1.56l17.06 -41.49 -18.2 -7.48 -9.99 24.31c0,0 -28.23,-3.9 -39.8,24.23 -11.06,26.91 10.5,43.08 20.83,47.33 7.9,3.25 35.6,12.4 48.6,-20.21z"/>
      </g>
     </g>
     <g>
      <g>
       <polygon class="fil1" points="63.25,56.46 81.72,64.05 74.63,81.3 56.16,73.71 "/>
      </g>
     </g>
    </g>
   </g>
   <g>
    <g>
     <g>
      <g>
       <path class="fil0" d="M447.94 61.68l22.6 -8.93c0,0 -7.5,-18.98 12.09,-27.11 10.17,-4.22 18.13,0.39 22.32,4.68 4.86,4.98 6.79,12.08 5.62,18.94 -1.34,7.84 -7.22,17.53 -23.51,20.86l19.88 50.33 22.35 -8.83 -11.79 -29.85c0,0 28.15,-20.48 14.5,-55.03 -13.05,-33.05 -46.89,-28.56 -62.32,-22.47 -9.7,3.83 -37.92,17.69 -21.75,57.4z"/>
      </g>
     </g>
     <g>
      <g>
       <polygon class="fil0" points="542.07,143.22 519.39,152.17 511.03,130.99 533.71,122.03 "/>
      </g>
     </g>
    </g>
    <g>
     <g>
      <g>
       <path class="fil1" d="M438.92 65.24l22.6 -8.93c0,0 -7.5,-18.98 12.09,-27.11 10.17,-4.22 18.13,0.39 22.32,4.68 4.86,4.98 6.79,12.08 5.62,18.94 -1.34,7.84 -7.47,16.9 -23.76,20.23l20.13 50.97 22.35 -8.83 -11.79 -29.85c0,0 28.15,-20.48 14.5,-55.03 -13.05,-33.05 -45.73,-29.02 -58.41,-24.01 -9.7,3.83 -41.83,19.23 -25.65,58.94z"/>
      </g>
     </g>
     <g>
      <g>
       <polygon class="fil1" points="533.06,146.78 510.38,155.73 502.01,134.55 524.69,125.59 "/>
      </g>
     </g>
    </g>
   </g>
   <g>
    <g>
     <g>
      <path class="fil1" d="M135.01 206.71l6.45 0c0,0 0,-5.42 5.63,-5.51 2.92,-0.05 4.44,1.86 5.06,3.33 0.72,1.7 0.5,3.65 -0.46,5.23 -1.09,1.8 -3.49,3.44 -7.84,2.68l0 14.55 6.38 0 0 -8.52c0,0 8.95,-2.31 8.95,-12.17 0,-9.44 -8.46,-11.63 -12.08,-11.63 -2.77,0 -12.21,0.67 -12.08,12.05z"/>
     </g>
    </g>
    <g>
     <g>
      <polygon class="fil1" points="150.3,236.02 143.83,236.02 143.83,229.98 150.3,229.98 "/>
     </g>
    </g>
   </g>
   <g>
    <g>
     <g>
      <path class="fil1" d="M424.51 253.91l-7.24 -4.6c0,0 -3.86,6.08 -10.25,2.18 -3.32,-2.03 -3.65,-5.26 -3.3,-7.34 0.41,-2.42 2.04,-4.45 4.24,-5.54 2.51,-1.25 6.38,-1.38 10.71,2.58l10.37 -16.33 -7.16 -4.55 -6.07 9.57c0,0 -11.69,-3.78 -18.72,7.29 -6.73,10.59 1.21,19.08 5.28,21.66 3.11,1.97 14.18,7.95 22.15,-4.92z"/>
     </g>
    </g>
    <g>
     <g>
      <polygon class="fil1" points="428.24,210.11 435.51,214.72 431.2,221.51 423.93,216.89 "/>
     </g>
    </g>
   </g>
   <g>
    <g>
     <g>
      <path class="fil1" d="M137.76 27.15l-6 2.37c0,0 1.99,5.04 -3.21,7.2 -2.7,1.12 -4.81,-0.1 -5.93,-1.24 -1.29,-1.32 -1.8,-3.21 -1.49,-5.03 0.36,-2.08 1.98,-4.49 6.31,-5.37l-5.34 -13.53 -5.93 2.34 3.13 7.93c0,0 -7.47,5.44 -3.85,14.61 3.47,8.78 12.14,7.71 15.51,6.38 2.58,-1.02 11.11,-5.11 6.81,-15.65z"/>
     </g>
    </g>
    <g>
     <g>
      <polygon class="fil1" points="112.76,5.5 118.78,3.12 121.01,8.75 114.98,11.13 "/>
     </g>
    </g>
   </g>
   <g>
    <g>
     <path class="fil2" d="M549.58 531.81c0,0.18 -121.58,0.32 -271.51,0.32 -149.99,0 -271.54,-0.14 -271.54,-0.32 0,-0.18 121.55,-0.32 271.54,-0.32 149.94,0 271.51,0.14 271.51,0.32z"/>
    </g>
   </g>
   <g>
    <g>
     <g>
      <g>
       <path class="fil3" d="M462.15 315.38l-9.44 -4.22 56.21 -70.79 9.18 2.54c1.37,0.38 2.59,1.16 3.51,2.24l9.13 10.76c1.31,1.55 1.12,3.87 -0.42,5.18l-63.1 53.56c-1.41,1.2 -3.38,1.48 -5.07,0.72z"/>
      </g>
     </g>
     <g>
      <g>
       <path class="fil3" d="M525.96 310.39l-10.21 8.67c-1.14,0.97 -2.71,1.25 -4.12,0.73l-7.64 -2.8c-0.96,-0.35 -1.76,-1.05 -2.24,-1.95l-41.81 -78.82 9.43 2.73c1.22,0.35 2.3,1.06 3.12,2.02l53.96 63.57c1.48,1.75 1.27,4.37 -0.48,5.85z"/>
      </g>
     </g>
    </g>
    <g>
     <g>
      <g>
       <path class="fil4" d="M462.15 315.38l-9.44 -4.22 56.21 -70.79 9.18 2.54c1.37,0.38 2.59,1.16 3.51,2.24l9.13 10.76c1.31,1.55 1.12,3.87 -0.42,5.18l-63.1 53.56c-1.41,1.2 -3.38,1.48 -5.07,0.72z"/>
      </g>
     </g>
     <g>
      <g>
       <path class="fil4" d="M525.96 310.39l-10.21 8.67c-1.14,0.97 -2.71,1.25 -4.12,0.73l-7.64 -2.8c-0.96,-0.35 -1.76,-1.05 -2.24,-1.95l-41.81 -78.82 9.43 2.73c1.22,0.35 2.3,1.06 3.12,2.02l53.96 63.57c1.48,1.75 1.27,4.37 -0.48,5.85z"/>
      </g>
     </g>
    </g>
    <g>
     <g>
      <g>
       <path class="fil3" d="M451.69 310.29l-9.28 -10.93c-1.01,-1.18 -0.86,-2.96 0.32,-3.96l63.92 -54.26c1.18,-1 2.96,-0.86 3.96,0.32l9.28 10.93c1.01,1.18 0.86,2.96 -0.32,3.96l-63.92 54.26c-1.18,1 -2.96,0.86 -3.96,-0.32z"/>
      </g>
     </g>
     <g>
      <g>
       <path class="fil3" d="M515.57 305.34l-10.93 9.28c-1.18,1 -2.96,0.86 -3.96,-0.32l-54.26 -63.92c-1.01,-1.18 -0.86,-2.96 0.32,-3.96l11.25 -9.55c1.01,-0.86 2.53,-0.73 3.38,0.28l54.53 64.24c1.01,1.18 0.86,2.96 -0.32,3.96z"/>
      </g>
     </g>
    </g>
    <g>
     <g>
      <path class="fil5" d="M464.72 279.88c0.11,0.13 -4.05,3.89 -9.3,8.38 -5.25,4.49 -9.6,8.03 -9.71,7.89 -0.11,-0.13 4.05,-3.88 9.3,-8.38 5.25,-4.49 9.6,-8.03 9.71,-7.89z"/>
     </g>
    </g>
    <g>
     <g>
      <path class="fil5" d="M507.01 243.69c0.11,0.13 -4.56,4.28 -10.45,9.26 -5.88,4.98 -10.75,8.91 -10.86,8.77 -0.11,-0.13 4.56,-4.28 10.45,-9.26 5.88,-4.98 10.75,-8.91 10.86,-8.77z"/>
     </g>
    </g>
    <g>
     <g>
      <path class="fil5" d="M466.76 269.81c-0.14,0.11 -3.76,-4.29 -8.1,-9.83 -4.33,-5.54 -7.73,-10.12 -7.59,-10.23 0.14,-0.11 3.76,4.29 8.1,9.84 4.33,5.54 7.73,10.12 7.59,10.23z"/>
     </g>
    </g>
    <g>
     <g>
      <path class="fil5" d="M499.12 306.61c-0.13,0.12 -3.88,-3.74 -8.37,-8.61 -4.49,-4.88 -8.03,-8.92 -7.9,-9.04 0.13,-0.12 3.88,3.73 8.37,8.61 4.49,4.87 8.03,8.92 7.9,9.04z"/>
     </g>
    </g>
   </g>
   <g>
    <g>
     <g>
      <g>
       <g>
        <g>
         <path class="fil6" d="M16.5 302.03l-1.95 -7.27 52.62 10.49 46.49 -65.38 5.67 10.56c0.88,1.63 0.87,3.6 -0.02,5.23l-40.35 73.89c-3.02,5.54 -10.02,7.49 -15.47,4.32l-40.73 -23.65c-3.09,-1.79 -5.34,-4.74 -6.27,-8.19z"/>
        </g>
       </g>
      </g>
     </g>
    </g>
    <g>
     <g>
      <g>
       <g>
        <g>
         <path class="fil7" d="M14.69 291.3l7.58 -13.43c1.09,-1.92 3.48,-2.67 5.47,-1.69l30.45 14.91c2.02,0.99 4.46,0.2 5.52,-1.79l30.17 -56.67c1.13,-2.12 3.82,-2.85 5.86,-1.59l12.27 7.55c1.89,1.16 2.54,3.6 1.48,5.55l-39.43 72.2c-2.65,4.86 -8.72,6.68 -13.62,4.09l-44.08 -23.39c-2.07,-1.1 -2.83,-3.69 -1.68,-5.73z"/>
        </g>
       </g>
      </g>
     </g>
    </g>
    <g>
     <g>
      <path class="fil5" d="M56.11 294.53c-0.02,0.04 -0.6,-0.19 -1.63,-0.64 -1.13,-0.52 -2.59,-1.18 -4.33,-1.97 -3.65,-1.69 -8.67,-4.06 -14.2,-6.72 -1.38,-0.67 -2.73,-1.32 -4.03,-1.94 -0.65,-0.32 -1.29,-0.63 -1.92,-0.93 -0.62,-0.31 -1.2,-0.51 -1.83,-0.56 -1.25,-0.12 -2.45,0.34 -3.28,1.07 -0.85,0.71 -1.25,1.77 -1.78,2.63 -0.95,1.66 -1.75,3.05 -2.36,4.13 -0.57,0.97 -0.9,1.5 -0.94,1.47 -0.04,-0.02 0.22,-0.59 0.72,-1.59 0.57,-1.11 1.31,-2.53 2.19,-4.23 0.24,-0.45 0.48,-0.91 0.74,-1.4 0.27,-0.5 0.63,-1 1.09,-1.42 0.92,-0.84 2.26,-1.38 3.68,-1.26 0.7,0.04 1.43,0.29 2.05,0.6 0.63,0.3 1.27,0.6 1.92,0.91 1.31,0.63 2.66,1.27 4.04,1.93 5.53,2.66 10.52,5.09 14.11,6.89 1.71,0.87 3.14,1.59 4.25,2.15 1,0.52 1.54,0.83 1.52,0.87z"/>
     </g>
    </g>
    <g>
     <g>
      <path class="fil5" d="M67.27 292.09c-0.16,-0.08 6.24,-12.73 14.29,-28.24 8.05,-15.52 14.7,-28.03 14.86,-27.95 0.16,0.08 -6.24,12.72 -14.29,28.24 -8.05,15.51 -14.7,28.03 -14.86,27.95z"/>
     </g>
    </g>
   </g>
   <g>
    <g>
     <g>
      <g>
       <g>
        <g>
         <path class="fil5" d="M194.4 118.1c0,22.77 -18.46,41.23 -41.23,41.23 -22.77,0 -41.23,-18.46 -41.23,-41.23 0,-22.77 18.46,-41.23 41.23,-41.23 22.77,0 41.23,18.46 41.23,41.23z"/>
        </g>
        <g>
         <g>
          <path class="fil2" d="M194.4 118.1c0,0 0.01,-0.23 -0.01,-0.67 -0.02,-0.46 -0.04,-1.11 -0.07,-1.96 -0.02,-0.43 -0.04,-0.92 -0.06,-1.45 -0.05,-0.53 -0.15,-1.11 -0.24,-1.73 -0.09,-0.63 -0.19,-1.3 -0.3,-2.02 -0.08,-0.73 -0.34,-1.46 -0.52,-2.26 -0.7,-3.21 -2.17,-7 -4.51,-11.03 -2.36,-4.01 -5.79,-8.21 -10.47,-11.79 -0.59,-0.44 -1.18,-0.89 -1.79,-1.34 -0.63,-0.41 -1.29,-0.79 -1.94,-1.2 -0.67,-0.38 -1.3,-0.85 -2.02,-1.17 -0.71,-0.34 -1.42,-0.69 -2.15,-1.04 -0.36,-0.17 -0.73,-0.35 -1.09,-0.52 -0.38,-0.14 -0.76,-0.28 -1.15,-0.42 -0.77,-0.28 -1.55,-0.57 -2.33,-0.86 -0.79,-0.26 -1.62,-0.44 -2.44,-0.66 -0.83,-0.19 -1.64,-0.48 -2.51,-0.57 -1.71,-0.25 -3.44,-0.6 -5.24,-0.62 -0.89,-0.03 -1.79,-0.12 -2.7,-0.11 -0.91,0.04 -1.82,0.09 -2.74,0.14 -0.46,0.03 -0.92,0.03 -1.38,0.09 -0.46,0.07 -0.92,0.14 -1.38,0.21 -0.92,0.15 -1.86,0.26 -2.79,0.45 -1.83,0.49 -3.73,0.86 -5.53,1.61 -1.86,0.59 -3.61,1.51 -5.41,2.37 -0.88,0.47 -1.72,1.02 -2.58,1.54 -0.42,0.27 -0.88,0.5 -1.28,0.81l-1.22 0.91c-1.69,1.16 -3.16,2.6 -4.71,3.99 -0.7,0.77 -1.4,1.54 -2.11,2.32l-0.53 0.58 -0.48 0.63 -0.95 1.27 -0.95 1.28 -0.84 1.36 -0.83 1.37 -0.42 0.69 -0.36 0.73c-0.47,0.97 -0.94,1.95 -1.41,2.92 -0.37,1.02 -0.75,2.04 -1.13,3.07 -1.35,4.16 -2.08,8.59 -2.14,13.08 0.06,4.5 0.79,8.93 2.14,13.09 0.38,1.03 0.75,2.05 1.13,3.07 0.47,0.98 0.94,1.95 1.41,2.93l0.35 0.73 0.42 0.69 0.84 1.37 0.84 1.36 0.95 1.28 0.95 1.27 0.48 0.63 0.53 0.58c0.71,0.78 1.41,1.55 2.11,2.32 1.54,1.39 3.02,2.84 4.71,3.99l1.22 0.91c0.4,0.31 0.86,0.54 1.28,0.81 0.87,0.51 1.71,1.06 2.58,1.54 1.8,0.86 3.55,1.78 5.41,2.37 1.8,0.75 3.7,1.12 5.53,1.61 0.93,0.19 1.87,0.3 2.79,0.45 0.46,0.07 0.92,0.14 1.38,0.21 0.46,0.06 0.93,0.06 1.39,0.09 0.92,0.05 1.84,0.09 2.74,0.14 0.91,0.01 1.81,-0.08 2.7,-0.11 1.79,-0.01 3.53,-0.37 5.24,-0.62 0.86,-0.09 1.68,-0.38 2.51,-0.57 0.82,-0.23 1.65,-0.4 2.44,-0.66 0.78,-0.29 1.56,-0.57 2.33,-0.86 0.38,-0.14 0.77,-0.28 1.15,-0.42 0.37,-0.18 0.73,-0.35 1.09,-0.52 0.72,-0.35 1.44,-0.7 2.15,-1.04 0.72,-0.33 1.35,-0.79 2.02,-1.17 0.65,-0.41 1.31,-0.79 1.94,-1.2 0.6,-0.45 1.2,-0.9 1.79,-1.34 4.68,-3.57 8.11,-7.77 10.47,-11.79 2.34,-4.03 3.81,-7.83 4.51,-11.03 0.18,-0.8 0.44,-1.54 0.52,-2.26 0.11,-0.72 0.2,-1.39 0.3,-2.02 0.08,-0.63 0.19,-1.2 0.24,-1.73 0.02,-0.53 0.04,-1.01 0.06,-1.45 0.03,-0.85 0.06,-1.5 0.07,-1.96 0.01,-0.44 0.01,-0.67 0.01,-0.67 0,0 -0.03,0.23 -0.06,0.67 -0.03,0.46 -0.07,1.11 -0.12,1.96 -0.03,0.43 -0.05,0.91 -0.08,1.44 -0.05,0.53 -0.17,1.1 -0.26,1.72 -0.1,0.62 -0.2,1.29 -0.32,2.01 -0.09,0.72 -0.35,1.45 -0.54,2.25 -0.72,3.18 -2.21,6.95 -4.56,10.94 -2.37,3.97 -5.79,8.12 -10.44,11.65 -0.58,0.44 -1.18,0.88 -1.77,1.32 -0.62,0.41 -1.28,0.78 -1.93,1.18 -0.66,0.38 -1.29,0.84 -2,1.16 -0.7,0.34 -1.41,0.68 -2.13,1.02 -0.36,0.17 -0.72,0.34 -1.08,0.51 -0.38,0.14 -0.76,0.28 -1.14,0.41 -0.76,0.28 -1.53,0.56 -2.31,0.84 -0.78,0.26 -1.6,0.43 -2.42,0.65 -0.82,0.19 -1.63,0.47 -2.48,0.56 -1.7,0.24 -3.41,0.59 -5.19,0.6 -0.88,0.03 -1.78,0.12 -2.67,0.1 -0.9,-0.05 -1.8,-0.09 -2.71,-0.14 -0.45,-0.03 -0.91,-0.03 -1.37,-0.09 -0.45,-0.07 -0.91,-0.14 -1.37,-0.21 -0.91,-0.15 -1.84,-0.26 -2.76,-0.45 -1.81,-0.49 -3.69,-0.86 -5.47,-1.6 -1.84,-0.59 -3.57,-1.5 -5.35,-2.35 -0.87,-0.47 -1.7,-1.02 -2.55,-1.53 -0.42,-0.27 -0.87,-0.5 -1.27,-0.8l-1.21 -0.9c-1.67,-1.14 -3.12,-2.57 -4.65,-3.95 -0.69,-0.76 -1.39,-1.53 -2.08,-2.29l-0.52 -0.58 -0.47 -0.62 -0.94 -1.26 -0.94 -1.26 -0.83 -1.35 -0.82 -1.36 -0.41 -0.68 -0.35 -0.72c-0.46,-0.96 -0.93,-1.92 -1.39,-2.89 -0.37,-1.01 -0.74,-2.02 -1.11,-3.04 -1.34,-4.12 -2.05,-8.49 -2.11,-12.93 0.06,-4.45 0.78,-8.82 2.12,-12.93 0.37,-1.02 0.74,-2.03 1.11,-3.04 0.47,-0.97 0.93,-1.93 1.39,-2.89l0.35 -0.72 0.41 -0.68 0.82 -1.36 0.83 -1.35 0.94 -1.26 0.94 -1.26 0.47 -0.62 0.52 -0.58c0.7,-0.77 1.39,-1.53 2.08,-2.29 1.53,-1.38 2.98,-2.81 4.65,-3.95l1.21 -0.9c0.4,-0.3 0.85,-0.53 1.27,-0.8 0.86,-0.51 1.69,-1.06 2.55,-1.52 1.78,-0.85 3.51,-1.76 5.35,-2.35 1.78,-0.74 3.66,-1.11 5.47,-1.6 0.92,-0.19 1.85,-0.3 2.76,-0.45 0.46,-0.07 0.91,-0.14 1.37,-0.21 0.45,-0.06 0.91,-0.06 1.37,-0.09 0.91,-0.05 1.82,-0.09 2.71,-0.14 0.9,-0.01 1.79,0.07 2.67,0.1 1.78,0.01 3.49,0.36 5.19,0.6 0.86,0.09 1.66,0.38 2.48,0.56 0.81,0.22 1.63,0.39 2.42,0.65 0.78,0.28 1.55,0.56 2.31,0.84 0.38,0.14 0.76,0.28 1.14,0.41 0.36,0.17 0.72,0.34 1.08,0.51 0.72,0.34 1.43,0.68 2.13,1.02 0.71,0.32 1.34,0.78 2,1.16 0.65,0.4 1.31,0.77 1.93,1.18 0.6,0.45 1.19,0.89 1.78,1.32 4.66,3.52 8.07,7.68 10.44,11.65 2.35,3.99 3.84,7.75 4.56,10.94 0.18,0.79 0.45,1.53 0.54,2.25 0.11,0.72 0.22,1.38 0.32,2.01 0.09,0.62 0.2,1.19 0.26,1.72 0.03,0.53 0.06,1.01 0.08,1.44 0.05,0.85 0.09,1.5 0.12,1.96 0.03,0.44 0.06,0.67 0.06,0.67z"/>
         </g>
        </g>
       </g>
      </g>
      <g>
       <g>
        <g>
         <path class="fil5" d="M210.07 144.01c0,3.7 -3,6.7 -6.7,6.7 -3.7,0 -6.7,-3 -6.7,-6.7 0,-3.7 3,-6.7 6.7,-6.7 3.7,0 6.7,3 6.7,6.7z"/>
        </g>
        <g>
         <g>
          <path class="fil2" d="M210.07 144.01c0.02,0 0.03,-0.15 0.03,-0.43 0.01,-0.28 -0.03,-0.7 -0.14,-1.23 -0.22,-1.04 -0.87,-2.59 -2.43,-3.81 -0.77,-0.6 -1.75,-1.11 -2.89,-1.32 -1.13,-0.21 -2.41,-0.18 -3.64,0.28 -1.23,0.43 -2.4,1.25 -3.23,2.4 -0.86,1.13 -1.34,2.6 -1.36,4.1 0.01,1.51 0.5,2.97 1.36,4.11 0.84,1.15 2.01,1.98 3.23,2.41 1.23,0.46 2.51,0.48 3.64,0.28 1.14,-0.21 2.12,-0.72 2.89,-1.32 1.55,-1.22 2.2,-2.77 2.43,-3.81 0.12,-0.53 0.15,-0.95 0.14,-1.23 -0,-0.28 -0.01,-0.43 -0.03,-0.43 -0.05,-0 -0.03,0.6 -0.3,1.61 -0.27,1 -0.95,2.45 -2.45,3.58 -0.74,0.55 -1.68,1.01 -2.75,1.19 -1.07,0.18 -2.27,0.14 -3.41,-0.3 -1.14,-0.41 -2.23,-1.19 -3,-2.26 -0.79,-1.06 -1.24,-2.42 -1.25,-3.82 0.01,-1.4 0.46,-2.76 1.25,-3.82 0.77,-1.07 1.86,-1.85 3,-2.26 1.14,-0.44 2.34,-0.48 3.41,-0.3 1.07,0.18 2.01,0.65 2.75,1.19 1.5,1.12 2.18,2.58 2.45,3.58 0.27,1.02 0.25,1.62 0.3,1.61z"/>
         </g>
        </g>
       </g>
      </g>
     </g>
    </g>
    <g>
     <polygon class="fil2" points="139.61,121.35 139.61,126.95 135.19,126.95 135.19,121.29 129.24,111.33 133.9,111.33 137.6,117.54 141.31,111.33 145.59,111.33 "/>
     <polygon class="fil2" points="159.17,123.54 159.17,126.95 146.63,126.95 146.63,111.33 158.88,111.33 158.88,114.75 151.01,114.75 151.01,117.38 157.95,117.38 157.95,120.68 151.01,120.68 151.01,123.54 "/>
     <path class="fil2" d="M160.53 125.55l1.45 -3.26c1.38,0.91 3.35,1.54 5.15,1.54 1.83,0 2.54,-0.51 2.54,-1.27 0,-2.48 -8.88,-0.67 -8.88,-6.47 0,-2.79 2.28,-5.06 6.92,-5.06 2.03,0 4.13,0.47 5.67,1.36l-1.36 3.28c-1.49,-0.8 -2.97,-1.2 -4.33,-1.2 -1.85,0 -2.52,0.63 -2.52,1.41 0,2.39 8.86,0.6 8.86,6.36 0,2.72 -2.28,5.04 -6.92,5.04 -2.57,0 -5.11,-0.69 -6.58,-1.72z"/>
    </g>
   </g>
   <g>
    <g>
     <g>
      <g>
       <g>
        <g>
         <path class="fil5" d="M373.01 144.03c0,24.45 19.82,44.27 44.27,44.27 24.45,0 44.27,-19.82 44.27,-44.27 0,-24.45 -19.82,-44.27 -44.27,-44.27 -24.45,0 -44.27,19.82 -44.27,44.27z"/>
        </g>
        <g>
         <g>
          <path class="fil2" d="M373.01 144.03c0,0 -0.01,-0.24 0.01,-0.72 0.02,-0.49 0.05,-1.19 0.08,-2.11 0.02,-0.46 0.04,-0.98 0.07,-1.55 0.05,-0.57 0.16,-1.19 0.25,-1.86 0.1,-0.67 0.2,-1.4 0.32,-2.17 0.08,-0.78 0.36,-1.57 0.56,-2.43 0.75,-3.44 2.33,-7.52 4.85,-11.85 2.54,-4.31 6.21,-8.82 11.24,-12.65 0.63,-0.47 1.27,-0.95 1.92,-1.44 0.67,-0.45 1.38,-0.85 2.09,-1.29 0.72,-0.41 1.4,-0.91 2.16,-1.26 0.76,-0.37 1.53,-0.74 2.31,-1.12 0.39,-0.19 0.78,-0.37 1.17,-0.56 0.41,-0.15 0.82,-0.3 1.23,-0.45 0.83,-0.3 1.66,-0.61 2.5,-0.92 0.85,-0.28 1.74,-0.47 2.62,-0.71 0.89,-0.2 1.76,-0.52 2.69,-0.62 1.84,-0.27 3.7,-0.65 5.62,-0.66 0.96,-0.04 1.93,-0.13 2.9,-0.12 0.97,0.05 1.96,0.1 2.94,0.15 0.49,0.03 0.99,0.03 1.49,0.09 0.49,0.07 0.99,0.15 1.48,0.22 0.99,0.16 2,0.28 3,0.48 1.97,0.53 4,0.93 5.94,1.73 2,0.64 3.88,1.62 5.81,2.54 0.94,0.51 1.84,1.1 2.77,1.65 0.46,0.29 0.94,0.54 1.38,0.87l1.31 0.98c1.81,1.24 3.4,2.79 5.05,4.29 0.75,0.83 1.51,1.66 2.27,2.49l0.57 0.63 0.51 0.68 1.02 1.36 1.03 1.37 0.9 1.46 0.9 1.47 0.45 0.74 0.38 0.78c0.5,1.04 1.01,2.09 1.51,3.14 0.4,1.1 0.81,2.19 1.21,3.3 1.45,4.47 2.24,9.22 2.3,14.05 -0.06,4.83 -0.84,9.58 -2.3,14.05 -0.41,1.1 -0.81,2.2 -1.21,3.3 -0.51,1.05 -1.01,2.1 -1.51,3.14l-0.38 0.78 -0.45 0.74 -0.9 1.47 -0.9 1.47 -1.03 1.37 -1.02 1.36 -0.51 0.68 -0.57 0.63c-0.76,0.83 -1.51,1.66 -2.27,2.49 -1.66,1.5 -3.24,3.05 -5.06,4.29l-1.31 0.98c-0.43,0.33 -0.92,0.58 -1.38,0.87 -0.93,0.55 -1.83,1.14 -2.77,1.65 -1.93,0.92 -3.81,1.91 -5.81,2.54 -1.94,0.8 -3.97,1.2 -5.94,1.73 -1,0.2 -2,0.32 -3,0.48 -0.5,0.08 -0.99,0.15 -1.48,0.22 -0.49,0.06 -0.99,0.06 -1.49,0.09 -0.99,0.05 -1.97,0.1 -2.95,0.15 -0.97,0.01 -1.94,-0.08 -2.9,-0.12 -1.93,-0.02 -3.79,-0.4 -5.62,-0.66 -0.93,-0.1 -1.8,-0.41 -2.69,-0.62 -0.88,-0.24 -1.77,-0.43 -2.62,-0.71 -0.84,-0.31 -1.68,-0.62 -2.5,-0.92 -0.41,-0.15 -0.82,-0.3 -1.23,-0.45 -0.39,-0.19 -0.78,-0.37 -1.17,-0.56 -0.78,-0.38 -1.54,-0.75 -2.31,-1.11 -0.77,-0.35 -1.45,-0.85 -2.16,-1.26 -0.7,-0.44 -1.41,-0.84 -2.09,-1.29 -0.65,-0.49 -1.29,-0.96 -1.92,-1.44 -5.03,-3.84 -8.7,-8.35 -11.24,-12.65 -2.52,-4.33 -4.09,-8.4 -4.84,-11.85 -0.19,-0.86 -0.47,-1.65 -0.56,-2.43 -0.11,-0.77 -0.22,-1.49 -0.32,-2.17 -0.09,-0.67 -0.2,-1.29 -0.25,-1.86 -0.02,-0.57 -0.05,-1.09 -0.07,-1.55 -0.03,-0.91 -0.06,-1.62 -0.08,-2.11 -0.01,-0.47 -0.01,-0.72 -0.01,-0.72 0,0 0.03,0.24 0.06,0.72 0.03,0.49 0.07,1.19 0.13,2.1 0.03,0.46 0.06,0.98 0.09,1.55 0.06,0.57 0.18,1.18 0.28,1.85 0.11,0.67 0.22,1.39 0.34,2.15 0.09,0.77 0.38,1.56 0.58,2.41 0.78,3.42 2.38,7.46 4.9,11.75 2.54,4.27 6.21,8.72 11.21,12.51 0.63,0.47 1.26,0.94 1.91,1.42 0.67,0.44 1.37,0.84 2.07,1.27 0.71,0.4 1.39,0.9 2.15,1.24 0.75,0.36 1.52,0.73 2.29,1.1 0.39,0.18 0.77,0.37 1.16,0.55 0.41,0.15 0.81,0.3 1.22,0.44 0.82,0.3 1.65,0.6 2.48,0.9 0.84,0.28 1.72,0.46 2.6,0.7 0.88,0.2 1.75,0.51 2.67,0.6 1.82,0.26 3.66,0.63 5.57,0.64 0.95,0.03 1.91,0.13 2.87,0.11 0.96,-0.05 1.94,-0.1 2.91,-0.15 0.49,-0.03 0.98,-0.03 1.47,-0.1 0.49,-0.08 0.98,-0.15 1.47,-0.23 0.98,-0.16 1.98,-0.28 2.96,-0.48 1.94,-0.53 3.96,-0.92 5.87,-1.72 1.98,-0.63 3.83,-1.61 5.74,-2.52 0.93,-0.5 1.82,-1.09 2.74,-1.64 0.45,-0.29 0.93,-0.53 1.36,-0.86l1.3 -0.97c1.79,-1.23 3.35,-2.76 4.99,-4.24 0.74,-0.82 1.49,-1.64 2.24,-2.46l0.56 -0.62 0.51 -0.67 1.01 -1.35 1.01 -1.35 0.89 -1.45 0.89 -1.46 0.44 -0.73 0.38 -0.77c0.5,-1.03 0.99,-2.07 1.49,-3.1 0.4,-1.08 0.79,-2.17 1.19,-3.26 1.43,-4.42 2.21,-9.11 2.27,-13.89 -0.06,-4.77 -0.84,-9.47 -2.27,-13.88 -0.4,-1.09 -0.8,-2.18 -1.19,-3.26 -0.5,-1.04 -1,-2.07 -1.49,-3.1l-0.38 -0.77 -0.44 -0.73 -0.88 -1.46 -0.89 -1.45 -1.01 -1.35 -1.01 -1.35 -0.51 -0.67 -0.56 -0.62c-0.75,-0.83 -1.49,-1.65 -2.24,-2.46 -1.64,-1.48 -3.2,-3.02 -4.99,-4.24l-1.3 -0.97c-0.43,-0.33 -0.91,-0.57 -1.36,-0.86 -0.92,-0.55 -1.81,-1.13 -2.74,-1.64 -1.91,-0.92 -3.77,-1.89 -5.74,-2.52 -1.91,-0.8 -3.93,-1.19 -5.87,-1.72 -0.99,-0.2 -1.98,-0.32 -2.96,-0.48 -0.49,-0.08 -0.98,-0.15 -1.47,-0.23 -0.49,-0.06 -0.98,-0.06 -1.47,-0.1 -0.98,-0.05 -1.95,-0.1 -2.91,-0.15 -0.96,-0.01 -1.92,0.08 -2.87,0.11 -1.91,0.01 -3.75,0.39 -5.57,0.64 -0.92,0.09 -1.79,0.4 -2.67,0.6 -0.87,0.24 -1.75,0.42 -2.6,0.7 -0.83,0.3 -1.66,0.61 -2.48,0.9 -0.41,0.15 -0.82,0.3 -1.22,0.45 -0.39,0.18 -0.78,0.37 -1.16,0.55 -0.77,0.37 -1.53,0.74 -2.29,1.1 -0.76,0.35 -1.44,0.84 -2.15,1.24 -0.7,0.43 -1.4,0.83 -2.07,1.27 -0.64,0.48 -1.28,0.95 -1.91,1.42 -5,3.78 -8.67,8.24 -11.21,12.51 -2.52,4.28 -4.12,8.33 -4.9,11.75 -0.2,0.85 -0.49,1.64 -0.58,2.41 -0.12,0.77 -0.24,1.49 -0.34,2.15 -0.1,0.67 -0.22,1.28 -0.28,1.85 -0.03,0.57 -0.06,1.08 -0.09,1.55 -0.06,0.91 -0.1,1.61 -0.13,2.1 -0.03,0.47 -0.06,0.72 -0.06,0.72z"/>
         </g>
        </g>
       </g>
      </g>
      <g>
       <g>
        <g>
         <path class="fil5" d="M356.18 171.85c0,3.98 3.22,7.2 7.2,7.2 3.98,0 7.2,-3.22 7.2,-7.2 0,-3.98 -3.22,-7.2 -7.2,-7.2 -3.98,0 -7.2,3.22 -7.2,7.2z"/>
        </g>
        <g>
         <g>
          <path class="fil2" d="M356.18 171.85c-0.02,0 -0.03,-0.16 -0.03,-0.46 -0.01,-0.3 0.03,-0.76 0.15,-1.32 0.24,-1.12 0.94,-2.78 2.6,-4.09 0.83,-0.64 1.88,-1.19 3.1,-1.42 1.21,-0.22 2.59,-0.19 3.9,0.3 1.32,0.46 2.57,1.35 3.47,2.58 0.92,1.22 1.44,2.79 1.46,4.41 -0.01,1.62 -0.54,3.19 -1.46,4.41 -0.9,1.23 -2.16,2.12 -3.47,2.58 -1.32,0.49 -2.69,0.52 -3.9,0.3 -1.22,-0.23 -2.27,-0.78 -3.1,-1.42 -1.67,-1.31 -2.37,-2.97 -2.6,-4.09 -0.13,-0.57 -0.16,-1.02 -0.15,-1.32 0,-0.3 0.01,-0.46 0.03,-0.46 0.06,-0 0.03,0.64 0.33,1.73 0.29,1.07 1.02,2.64 2.63,3.84 0.8,0.59 1.8,1.09 2.95,1.28 1.14,0.19 2.43,0.15 3.66,-0.32 1.22,-0.44 2.39,-1.28 3.22,-2.43 0.85,-1.14 1.33,-2.6 1.34,-4.1 -0.01,-1.5 -0.49,-2.96 -1.35,-4.1 -0.83,-1.15 -1.99,-1.99 -3.22,-2.43 -1.22,-0.47 -2.51,-0.51 -3.66,-0.32 -1.15,0.2 -2.15,0.69 -2.95,1.28 -1.61,1.2 -2.34,2.77 -2.63,3.84 -0.29,1.09 -0.27,1.74 -0.33,1.73z"/>
         </g>
        </g>
       </g>
      </g>
     </g>
    </g>
    <g>
     <polygon class="fil2" points="415.23,134.05 415.23,152.76 410.87,152.76 402.61,142.79 402.61,152.76 397.42,152.76 397.42,134.05 401.78,134.05 410.04,144.02 410.04,134.05 "/>
     <path class="fil2" d="M418.01 143.41c0,-5.61 4.41,-9.73 10.4,-9.73 5.99,0 10.4,4.12 10.4,9.73 0,5.61 -4.41,9.73 -10.4,9.73 -5.99,0 -10.4,-4.12 -10.4,-9.73zm15.45 0l0 0c0,-3.23 -2.22,-5.35 -5.05,-5.35 -2.83,0 -5.05,2.11 -5.05,5.35 0,3.23 2.22,5.35 5.05,5.35 2.83,0 5.05,-2.11 5.05,-5.35z"/>
    </g>
   </g>
   <g>
    <g>
     <g>
      <g>
       <g>
        <g>
         <path class="fil5" d="M325.43 81.93c-21.75,-7.85 -31.63,-32.89 -21.1,-53.48 8.68,-16.98 29,-25 46.94,-18.52 21.75,7.85 31.63,32.89 21.1,53.48 -8.68,16.98 -29,25 -46.94,18.52z"/>
        </g>
        <g>
         <g>
          <path class="fil2" d="M323.12 81.02c0,0 0.19,0.09 0.57,0.24 0.4,0.15 0.96,0.37 1.7,0.66 0.38,0.14 0.79,0.31 1.25,0.48 0.47,0.16 1,0.28 1.56,0.44 0.57,0.15 1.18,0.32 1.83,0.49 0.65,0.2 1.37,0.25 2.12,0.39 2.99,0.59 6.76,0.74 11.06,0.24 4.29,-0.53 9.13,-1.89 13.9,-4.55 0.59,-0.34 1.19,-0.68 1.8,-1.02 0.58,-0.38 1.15,-0.8 1.74,-1.21 0.57,-0.43 1.2,-0.79 1.74,-1.28 0.55,-0.48 1.11,-0.96 1.67,-1.44 0.42,-0.4 1.12,-1.06 1.55,-1.47 0.03,-0.03 0.06,-0.06 0.09,-0.09 0.52,-0.55 1.05,-1.1 1.59,-1.67 0.52,-0.58 0.97,-1.22 1.46,-1.83 0.47,-0.63 1.02,-1.22 1.41,-1.92 0.84,-1.36 1.79,-2.71 2.46,-4.23 0.36,-0.75 0.77,-1.48 1.09,-2.26 0.41,-1.08 0.81,-2.16 1.23,-3.26 0.04,-0.11 0.08,-0.22 0.11,-0.33 0.11,-0.42 0.22,-0.83 0.33,-1.25 0.21,-0.84 0.47,-1.68 0.65,-2.54 0.26,-1.74 0.64,-3.49 0.67,-5.3 0.18,-1.8 0.05,-3.63 -0.02,-5.48 -0.08,-0.92 -0.24,-1.84 -0.35,-2.77 -0.07,-0.46 -0.1,-0.93 -0.21,-1.39l-0.32 -1.38c-0.29,-1.49 -0.78,-2.94 -1.29,-4.39 -0.28,-0.72 -0.57,-1.43 -0.85,-2.15l-1.02 -2.25 -0.36 -0.64 -0.73 -1.28 -0.73 -1.28 -0.85 -1.22 -0.86 -1.22 -0.43 -0.61 -0.49 -0.57c-1.07,-1.13 -2.81,-2.97 -3.88,-4.1 -0.1,-0.09 -0.19,-0.18 -0.29,-0.27 -3.04,-2.69 -6.54,-4.95 -10.34,-6.66 -3.85,-1.61 -7.88,-2.63 -11.93,-3.01 -0.12,-0.01 -0.24,-0.01 -0.36,-0.02 -1.57,-0.01 -4.12,-0.03 -5.68,-0.04l-0.75 0.03 -0.74 0.1 -1.48 0.2 -1.47 0.21 -1.44 0.34 -1.43 0.34 -0.71 0.17 -2.34 0.8c-0.72,0.28 -1.43,0.56 -2.15,0.85 -1.41,0.63 -2.8,1.25 -4.09,2.06l-1.23 0.7c-0.41,0.23 -0.77,0.53 -1.16,0.79 -0.76,0.55 -1.54,1.06 -2.26,1.63 -1.4,1.21 -2.82,2.37 -4.02,3.73 -1.3,1.26 -2.32,2.74 -3.42,4.11 -0.5,0.72 -0.94,1.48 -1.41,2.21 -0.23,0.37 -0.46,0.73 -0.69,1.1 -0.06,0.1 -0.12,0.2 -0.17,0.3 -0.52,1.05 -1.04,2.09 -1.55,3.13 -0.35,0.77 -0.6,1.57 -0.9,2.34 -0.65,1.53 -0.99,3.14 -1.41,4.69 -0.24,0.77 -0.29,1.57 -0.44,2.34 -0.11,0.78 -0.27,1.55 -0.34,2.32 -0.04,0.78 -0.09,1.55 -0.13,2.31 -0.01,0.61 -0.02,1.61 -0.02,2.23 0,0 0,0.01 0,0.01 0.03,0.74 0.06,1.48 0.09,2.21 0.01,0.73 0.18,1.44 0.25,2.15 0.1,0.71 0.18,1.41 0.3,2.1 0.16,0.68 0.32,1.35 0.48,2.01 1.31,5.3 3.62,9.77 6.16,13.26 2.56,3.48 5.25,6.14 7.72,7.92 0.61,0.45 1.15,0.94 1.73,1.28 0.57,0.36 1.11,0.69 1.61,1 0.5,0.3 0.95,0.61 1.38,0.84 0.44,0.22 0.85,0.41 1.21,0.59 0.71,0.34 1.26,0.6 1.64,0.79 0.37,0.18 0.56,0.25 0.56,0.25 0,0 -0.18,-0.11 -0.55,-0.3 -0.38,-0.19 -0.92,-0.47 -1.62,-0.83 -0.36,-0.18 -0.76,-0.38 -1.19,-0.6 -0.43,-0.24 -0.87,-0.55 -1.37,-0.86 -0.49,-0.31 -1.02,-0.65 -1.59,-1.01 -0.58,-0.34 -1.11,-0.84 -1.71,-1.29 -2.44,-1.79 -5.09,-4.45 -7.62,-7.92 -2.51,-3.48 -4.78,-7.93 -6.05,-13.19 -0.15,-0.66 -0.31,-1.32 -0.47,-2 -0.12,-0.68 -0.19,-1.38 -0.29,-2.08 -0.08,-0.7 -0.23,-1.41 -0.25,-2.13 -0.03,-0.72 -0.05,-1.45 -0.08,-2.19 0.01,-0.59 0.02,-1.54 0.02,-2.13 0,-0.04 0,-0.07 0.01,-0.11 0.05,-0.75 0.09,-1.51 0.14,-2.28 0.07,-0.76 0.23,-1.52 0.34,-2.3 0.14,-0.77 0.2,-1.56 0.44,-2.32 0.42,-1.53 0.76,-3.12 1.41,-4.64 0.3,-0.76 0.56,-1.55 0.9,-2.31 0.51,-1.02 1.02,-2.06 1.54,-3.1 0.05,-0.1 0.1,-0.2 0.16,-0.29 0.23,-0.36 0.46,-0.72 0.68,-1.09 0.47,-0.72 0.9,-1.47 1.4,-2.18 1.09,-1.36 2.09,-2.82 3.39,-4.06 1.18,-1.35 2.59,-2.48 3.98,-3.68 0.72,-0.56 1.49,-1.07 2.24,-1.61 0.38,-0.26 0.74,-0.55 1.15,-0.78l1.22 -0.69c1.59,-1 3.34,-1.71 5.08,-2.5 0.9,-0.31 1.81,-0.62 2.72,-0.93l0.68 -0.23 0.7 -0.17 1.42 -0.33 1.42 -0.34 1.45 -0.2 1.46 -0.2 0.73 -0.1 0.74 -0.03c1.56,0.01 4.09,0.03 5.65,0.04 0.11,0.01 0.21,0.01 0.32,0.02 4,0.38 7.98,1.39 11.79,2.98 3.76,1.69 7.21,3.92 10.22,6.58 0.09,0.08 0.18,0.17 0.27,0.25 1.06,1.12 2.79,2.95 3.85,4.07l0.48 0.56 0.43 0.6 0.85 1.2 0.84 1.2 0.72 1.27 0.72 1.26 0.36 0.63 0.3 0.66c0.4,0.88 0.79,1.75 1.18,2.62 0.61,1.81 1.29,3.58 1.64,5.42l0.32 1.36c0.11,0.45 0.14,0.92 0.21,1.37 0.12,0.92 0.27,1.83 0.35,2.74 0.07,1.83 0.2,3.64 0.02,5.42 -0.03,1.79 -0.41,3.52 -0.65,5.24 -0.18,0.85 -0.43,1.68 -0.64,2.51 -0.11,0.42 -0.22,0.83 -0.33,1.24 -0.03,0.11 -0.06,0.22 -0.1,0.32 -0.41,1.09 -0.81,2.17 -1.21,3.24 -0.32,0.77 -0.72,1.5 -1.08,2.24 -0.66,1.51 -1.6,2.84 -2.43,4.19 -0.39,0.7 -0.93,1.28 -1.4,1.9 -0.49,0.61 -0.93,1.25 -1.44,1.82 -0.53,0.56 -1.05,1.11 -1.57,1.65 -0.26,0.27 -0.52,0.54 -0.77,0.82 -0.03,0.02 -0.05,0.05 -0.08,0.07 -0.82,0.71 -1.62,1.41 -2.42,2.09 -0.54,0.49 -1.16,0.85 -1.72,1.28 -0.58,0.4 -1.14,0.83 -1.72,1.2 -0.6,0.34 -1.19,0.69 -1.78,1.02 -4.72,2.66 -9.51,4.03 -13.77,4.58 -4.26,0.53 -8.02,0.4 -10.99,-0.16 -0.74,-0.14 -1.47,-0.18 -2.11,-0.37 -0.65,-0.17 -1.26,-0.32 -1.82,-0.47 -0.56,-0.15 -1.09,-0.27 -1.56,-0.41 -0.46,-0.17 -0.88,-0.32 -1.26,-0.46 -0.74,-0.27 -1.31,-0.47 -1.71,-0.62 -0.39,-0.14 -0.59,-0.2 -0.59,-0.2z"/>
         </g>
        </g>
       </g>
      </g>
      <g>
       <g>
        <g>
         <path class="fil5" d="M307.85 97.64c-4.56,-0.88 -6.61,-6.08 -3.88,-9.84 1.38,-1.9 3.8,-2.85 6.1,-2.41 4.56,0.88 6.61,6.08 3.88,9.85 -1.38,1.89 -3.8,2.85 -6.1,2.41z"/>
        </g>
        <g>
         <g>
          <path class="fil2" d="M306.48 97.22c-0.01,0.01 0.12,0.08 0.36,0.18 0.24,0.11 0.61,0.24 1.1,0.33 0.97,0.2 2.52,0.21 4.14,-0.66 0.79,-0.44 1.59,-1.08 2.19,-1.97 0.59,-0.89 1.04,-1.98 1.11,-3.2 0.09,-1.2 -0.18,-2.5 -0.85,-3.64 -0.65,-1.15 -1.71,-2.1 -2.99,-2.67 -1.29,-0.55 -2.71,-0.67 -4,-0.36 -1.29,0.29 -2.42,0.98 -3.24,1.86 -0.84,0.87 -1.34,1.95 -1.58,2.99 -0.24,1.05 -0.17,2.07 0.06,2.94 0.46,1.77 1.54,2.9 2.34,3.47 0.41,0.29 0.75,0.48 0.99,0.58 0.24,0.1 0.37,0.15 0.38,0.14 0.02,-0.05 -0.5,-0.25 -1.26,-0.85 -0.75,-0.6 -1.74,-1.71 -2.14,-3.41 -0.19,-0.84 -0.24,-1.8 0,-2.78 0.24,-0.97 0.72,-1.98 1.51,-2.79 0.77,-0.82 1.83,-1.45 3.03,-1.71 1.19,-0.28 2.52,-0.16 3.71,0.35 1.19,0.53 2.18,1.41 2.79,2.48 0.63,1.05 0.89,2.26 0.82,3.39 -0.05,1.13 -0.46,2.17 -1,3.01 -0.55,0.85 -1.29,1.47 -2.03,1.9 -1.51,0.86 -3,0.9 -3.95,0.76 -0.97,-0.14 -1.47,-0.39 -1.49,-0.34z"/>
         </g>
        </g>
       </g>
      </g>
     </g>
    </g>
    <g>
     <g>
      <g>
       <path class="fil2" d="M327.52 39.52l5.79 0c0,0 0,-4.86 5.05,-4.94 2.62,-0.05 3.98,1.67 4.53,2.99 0.64,1.53 0.45,3.27 -0.41,4.69 -0.98,1.62 -3.13,3.09 -7.03,2.4l0 13.04 5.72 0 0 -7.64c0,0 8.02,-2.07 8.02,-10.92 0,-8.46 -7.59,-10.42 -10.83,-10.42 -2.48,0 -10.94,0.6 -10.83,10.81z"/>
      </g>
     </g>
     <g>
      <g>
       <polygon class="fil2" points="341.23,65.8 335.43,65.8 335.43,60.38 341.23,60.38 "/>
      </g>
     </g>
    </g>
   </g>
   <g>
    <g>
     <g>
      <path class="fil8" d="M127.17 384.22c0,0 -10.48,-9.84 -14.52,-12.46 -4.03,-2.61 -13.07,-6.21 -16.45,-6.54 -3.38,-0.33 -19.18,4.25 -19.18,4.25 0,0 -23.32,-2.07 -27.24,0.65 -3.92,2.72 -3.6,5.56 -1.96,7.63 1.63,2.07 7.95,1.42 14.93,1.53 6.97,0.11 8.83,0.76 8.83,0.76l-10.13 10.79 26.26 7.3 16.02 -0.6 5.78 7.26 17.67 -20.57z"/>
     </g>
     <g>
      <path class="fil8" d="M47.24 359.85l0.63 23.23 1.12 2.89 11.46 13.97 27.96 -1.84 -22.28 -8.68 -7.92 -6.02 -3.06 -9.93c0,0 0.95,-15.31 -7.92,-13.62z"/>
     </g>
     <g>
      <path class="fil8" d="M49.2 386.5l-6.81 0c0,0 -8.88,-14.61 -17.02,-9.65l1.87 2.89c0,0 -3.66,-1.66 -5.99,1.42l22.41 19.66 1.03 0 23.88 -1.54 -19.38 -12.78z"/>
     </g>
     <g>
      <g>
       <path class="fil9" d="M53.26 390.95c-0.01,0.07 -0.72,0.04 -1.93,0.08 -1.19,0.07 -2.95,0.15 -4.72,0.95l-0.23 0.1 -0.15 -0.21c-0.69,-0.97 -1.54,-2.03 -2.42,-3.12 -1.81,-2.24 -3.46,-4.27 -4.83,-5.97 -1.23,-1.54 -1.98,-2.49 -1.92,-2.55 0.07,-0.06 0.95,0.79 2.26,2.25 1.32,1.46 3.1,3.52 4.99,5.86 0.88,1.1 1.72,2.15 2.42,3.19l-0.38 -0.1c1.96,-0.83 3.76,-0.8 4.98,-0.77 1.23,0.06 1.94,0.22 1.93,0.28z"/>
      </g>
     </g>
     <g>
      <g>
       <path class="fil9" d="M101.7 377.44c0.06,0.21 -3.77,0.99 -7.88,3.34 -4.12,2.33 -6.75,5.23 -6.89,5.07 -0.06,-0.05 0.53,-0.83 1.65,-1.94 1.12,-1.1 2.83,-2.49 4.92,-3.69 2.1,-1.19 4.17,-1.94 5.69,-2.35 1.52,-0.41 2.49,-0.51 2.51,-0.43z"/>
      </g>
     </g>
     <g>
      <g>
       <path class="fil9" d="M79.37 371.42c0.13,0.13 -1.42,1.8 -3.21,3.94 -1.8,2.14 -3.17,3.95 -3.32,3.85 -0.14,-0.09 1.01,-2.09 2.83,-4.26 1.82,-2.17 3.58,-3.65 3.7,-3.53z"/>
      </g>
     </g>
     <g>
      <g>
       <path class="fil9" d="M56.02 394.19c-0.02,0.01 -0.2,-0.17 -0.54,-0.53 -0.37,-0.42 -0.85,-0.95 -1.44,-1.61 -0.64,-0.73 -1.39,-1.58 -2.25,-2.57 -0.44,-0.51 -0.91,-1.04 -1.4,-1.61 -0.49,-0.57 -1.05,-1.16 -1.52,-1.89 -0.94,-1.43 -1.58,-3.29 -1.59,-5.32 -0.04,-1.98 -0.08,-4.09 -0.12,-6.31 -0.07,-4.46 -0.15,-9.35 -0.24,-14.49l-0 -0.28 0.26 -0.04c0.23,-0.03 0.49,-0.07 0.74,-0.1 1.65,-0.18 3.41,0.39 4.52,1.6 1.12,1.18 1.74,2.65 2.16,4.08 0.81,2.89 0.94,5.74 0.84,8.37l-0.01 -0.1c1.13,3.77 2.15,7.12 3,9.95l-0.08 -0.11c2.4,1.88 4.35,3.4 5.76,4.5 0.62,0.5 1.13,0.91 1.53,1.23 0.34,0.29 0.52,0.44 0.5,0.46 -0.01,0.02 -0.21,-0.11 -0.58,-0.36 -0.42,-0.3 -0.95,-0.68 -1.6,-1.14 -1.44,-1.06 -3.43,-2.53 -5.88,-4.34l-0.05 -0.04 -0.02 -0.07c-0.89,-2.82 -1.94,-6.16 -3.13,-9.91l-0.01 -0.04 0 -0.06c0.08,-2.56 -0.07,-5.39 -0.87,-8.16 -0.41,-1.37 -1.02,-2.75 -2.02,-3.82 -1,-1.07 -2.5,-1.56 -4.01,-1.41 -0.23,0.03 -0.46,0.06 -0.68,0.09l0.26 -0.32c0.07,5.14 0.13,10.04 0.19,14.49 0.18,4.41 -0.51,8.62 1.51,11.4 0.43,0.69 0.96,1.28 1.45,1.87 0.48,0.58 0.93,1.13 1.36,1.64 0.83,1.01 1.56,1.9 2.17,2.64 0.55,0.69 1,1.25 1.35,1.68 0.3,0.39 0.45,0.6 0.44,0.61z"/>
      </g>
     </g>
     <g>
      <g>
       <path class="fil9" d="M44.7 400.83c0.01,0.03 -0.48,0.06 -1.19,-0.34 -0.71,-0.38 -1.62,-1.11 -2.63,-2.1 -2.03,-1.99 -4.49,-5.02 -7.02,-8.49 -2.53,-3.48 -4.68,-6.72 -6.19,-9.1 -0.75,-1.19 -1.35,-2.16 -1.74,-2.85 -0.39,-0.68 -0.59,-1.07 -0.55,-1.1 0.04,-0.02 0.3,0.32 0.76,0.96 0.53,0.76 1.17,1.67 1.91,2.73 1.6,2.31 3.8,5.51 6.33,8.97 2.53,3.46 4.92,6.52 6.83,8.55 0.95,1.02 1.79,1.78 2.43,2.2 0.64,0.44 1.07,0.49 1.06,0.55z"/>
      </g>
     </g>
     <g>
      <path class="fil8" d="M85.5 385.83l-12.34 -0.83 -3.69 -10.11 -0.68 -6.8c-0.33,-3.32 -3.11,-5.94 -6.45,-5.89 -0.04,0 -0.08,0 -0.12,0l0.69 16.66 2.53 10.35 10.02 5.91 12.26 0 -2.24 -9.29z"/>
     </g>
     <g>
      <g>
       <path class="fil8" d="M85.5 385.83l-12.34 -0.83 -3.69 -10.11 -0.68 -6.8c-0.33,-3.32 -3.11,-5.94 -6.45,-5.89 -0.04,0 -0.08,0 -0.12,0l0.69 16.66 2.53 10.35 10.02 5.91 10.02 -9.29z"/>
      </g>
      <g>
       <g>
        <path class="fil9" d="M75.48 395.12c-0.01,0.02 -0.26,-0.1 -0.72,-0.35 -0.52,-0.29 -1.19,-0.66 -2.02,-1.12 -1.81,-1.04 -4.32,-2.48 -7.4,-4.25l-0.08 -0.05 -0.02 -0.09c-0.75,-2.97 -1.62,-6.47 -2.59,-10.33l-0.01 -0.03 -0 -0.03c-0.22,-5.01 -0.46,-10.67 -0.72,-16.66l-0.01 -0.32 0.32 -0.01c0.11,-0.01 0.24,0 0.36,0.01 3.1,0.02 5.74,2.44 6.35,5.21 0.18,0.7 0.21,1.38 0.28,2.03 0.06,0.66 0.13,1.31 0.19,1.96 0.12,1.29 0.25,2.55 0.36,3.77l-0.02 -0.07c1.35,3.76 2.57,7.17 3.63,10.13l-0.2 -0.15c3.75,0.3 6.81,0.54 9.02,0.71 1.01,0.09 1.82,0.17 2.45,0.23 0.56,0.06 0.85,0.1 0.85,0.12 -0,0.02 -0.3,0.03 -0.86,0.01 -0.63,-0.03 -1.45,-0.06 -2.46,-0.1 -2.21,-0.12 -5.28,-0.3 -9.03,-0.51l-0.15 -0.01 -0.05 -0.14c-1.09,-2.95 -2.35,-6.34 -3.74,-10.09l-0.01 -0.03 -0 -0.04c-0.13,-1.22 -0.26,-2.48 -0.39,-3.77 -0.07,-0.64 -0.13,-1.3 -0.2,-1.96 -0.07,-0.67 -0.11,-1.33 -0.27,-1.95 -0.57,-2.52 -2.97,-4.7 -5.76,-4.72 -0.11,-0 -0.22,-0.01 -0.33,-0.01l0.31 -0.33c0.24,5.99 0.46,11.65 0.66,16.66l-0.01 -0.06c0.93,3.88 1.76,7.39 2.47,10.36l-0.1 -0.14c3.04,1.84 5.51,3.34 7.29,4.42 0.81,0.5 1.45,0.91 1.96,1.22 0.44,0.29 0.67,0.44 0.66,0.46z"/>
       </g>
      </g>
     </g>
    </g>
    <g>
     <g>
      <path class="fil2" d="M349.78 189.25c-10.58,-40.3 -20.34,-87.21 -79.27,-82.99 0,0 -36.32,6.99 -53.56,33.79 -10.14,15.77 -18.93,83.72 -20.68,137.4l-0 -0c0,0.01 -0,0.02 -0,0.03 -0.07,2.19 0.84,17.42 0.78,19.56l155.99 12.98 28.1 0c0,0 -1.76,-28.48 -10.23,-56.09 -8.24,-26.87 -17.38,-50.41 -21.12,-64.67z"/>
     </g>
     <g>
      <path class="fil8" d="M262.67 121.61l3.69 -3.51 39.84 16.06c5.76,0.32 10.33,5 10.5,10.77l-0.35 129.81c0.05,8.8 -1.71,16.43 -7.03,23.44l-5.6 7.39c-12.76,16.84 -39,15.46 -49.1,-3.1 -0.71,-1.3 -1.2,-2.43 -1.41,-3.36 -0.21,-1.16 -0.53,-1.92 -0.59,-2.9 -1.19,-10.44 -1.25,-19.5 -1.25,-19.5 -0.71,-11.47 -0.94,-16.17 -0.95,-16.06 0,0 -24.4,-2.81 -31,-34.13 -3.28,-15.58 -2.66,-37.01 -1.74,-58.1 1.28,-29.19 21.52,-46.82 44.99,-46.79z"/>
     </g>
     <g>
      <path class="fil2" d="M272.93 189.23c0.03,2.14 1.87,3.88 4.11,3.89 2.23,0.01 4.02,-1.72 3.99,-3.86 -0.03,-2.14 -1.87,-3.88 -4.1,-3.89 -2.24,-0.01 -4.03,1.72 -4,3.86z"/>
     </g>
     <g>
      <path class="fil2" d="M231.33 190.32c0.03,2.14 1.87,3.88 4.11,3.89 2.23,0.01 4.02,-1.72 3.99,-3.86 -0.03,-2.14 -1.87,-3.88 -4.1,-3.89 -2.24,-0.01 -4.03,1.72 -4,3.86z"/>
     </g>
     <g>
      <path class="fil2" d="M221.86 176.75c0.53,0.5 3.48,-1.92 7.84,-2.13 4.35,-0.27 7.66,1.81 8.11,1.25 0.22,-0.25 -0.34,-1.18 -1.78,-2.12 -1.42,-0.94 -3.81,-1.8 -6.52,-1.66 -2.71,0.15 -4.95,1.27 -6.21,2.35 -1.29,1.1 -1.69,2.07 -1.44,2.3z"/>
     </g>
     <g>
      <path class="fil2" d="M265.07 175.26c0.58,0.45 3.27,-2.27 7.58,-2.92 4.3,-0.72 7.81,1.01 8.19,0.42 0.19,-0.27 -0.45,-1.14 -1.99,-1.93 -1.51,-0.79 -3.97,-1.4 -6.66,-0.98 -2.68,0.43 -4.79,1.77 -5.93,2.98 -1.17,1.22 -1.47,2.24 -1.19,2.43z"/>
     </g>
     <g>
      <path class="fil2" d="M250.85 208.92c0.01,-0.25 -2.72,-0.58 -7.14,-0.92 -1.12,-0.06 -2.18,-0.23 -2.41,-0.98 -0.3,-0.79 0.1,-2.01 0.58,-3.33 0.91,-2.75 1.86,-5.62 2.87,-8.64 3.96,-12.29 6.78,-22.38 6.28,-22.53 -0.5,-0.16 -4.11,9.68 -8.08,21.97 -0.95,3.03 -1.86,5.92 -2.72,8.68 -0.36,1.29 -1.01,2.76 -0.36,4.4 0.34,0.82 1.19,1.38 1.91,1.54 0.72,0.18 1.35,0.16 1.9,0.17 4.43,0.02 7.17,-0.1 7.17,-0.35z"/>
     </g>
     <g>
      <path class="fil9" d="M250.43 260.63c0,0 21.31,0.3 41.72,-13.4 0,0 -9.54,22.39 -41.29,21.02l-0.43 -7.62z"/>
     </g>
     <g>
      <path class="fil9" d="M264.47 217.78c-1.23,-1.48 -3.18,-2.3 -5.08,-2.41 -2.74,-0.16 -4.67,0.19 -6.13,2.34 -0.69,1.19 -0.63,3.02 -0.31,3.52 0.32,0.5 0.08,0.51 0.57,0.87 1.77,1.28 3.81,2.1 5.92,2.59 2.11,0.49 4.55,-0.02 5.64,-1.73 0.97,-1.52 0.62,-3.69 -0.61,-5.18z"/>
     </g>
     <g>
      <path class="fil2" d="M264.03 155.25c0.56,1.11 4.31,-0.03 8.92,-0.11 4.6,-0.19 8.47,0.74 8.91,-0.41 0.19,-0.54 -0.61,-1.55 -2.26,-2.46 -1.63,-0.91 -4.12,-1.63 -6.89,-1.55 -2.76,0.08 -5.17,0.95 -6.7,1.95 -1.54,1 -2.23,2.05 -1.99,2.58z"/>
     </g>
     <g>
      <path class="fil2" d="M222.48 168.86c0.82,0.95 3.77,-0.23 7.37,-0.46 3.6,-0.36 6.7,0.33 7.35,-0.74 0.28,-0.52 -0.25,-1.48 -1.63,-2.35 -1.36,-0.87 -3.6,-1.52 -6.08,-1.32 -2.48,0.2 -4.58,1.21 -5.78,2.28 -1.22,1.08 -1.59,2.12 -1.23,2.59z"/>
     </g>
     <g>
      <path class="fil2" d="M315.91 200.32c0,0 -16.77,4.06 -40.57,-47.2 -8.1,-17.45 -23.84,-35.02 -23.84,-35.02l14.76 -2.13c0,0 44.01,12.4 44.75,12.95 0.74,0.55 11.1,22.76 11.1,22.76l-6.21 48.64z"/>
     </g>
     <g>
      <path class="fil8" d="M310.41 198.27c-0.11,-2.35 2.33,-8.03 4.63,-8.51 6.15,-1.28 17.35,-1.34 18.25,14.4 1.22,21.52 -20.64,18.31 -20.71,17.69 -0.06,-0.48 -1.78,-15.47 -2.17,-23.59z"/>
     </g>
     <g>
      <path class="fil9" d="M318.69 213.33c0.09,-0.07 0.39,0.24 1.04,0.5 0.63,0.25 1.71,0.38 2.81,-0.1 2.23,-0.96 3.94,-4.68 3.82,-8.57 -0.06,-1.96 -0.57,-3.8 -1.35,-5.31 -0.75,-1.54 -1.83,-2.58 -2.98,-2.72 -1.15,-0.2 -1.92,0.53 -2.15,1.15 -0.25,0.62 -0.09,1.04 -0.21,1.08 -0.06,0.06 -0.48,-0.33 -0.36,-1.23 0.07,-0.43 0.29,-0.96 0.77,-1.4 0.49,-0.45 1.24,-0.71 2.04,-0.67 1.67,0.02 3.25,1.46 4.1,3.11 0.95,1.65 1.58,3.72 1.64,5.92 0.11,4.34 -1.88,8.53 -4.94,9.6 -1.49,0.48 -2.78,0.1 -3.46,-0.38 -0.7,-0.49 -0.84,-0.97 -0.76,-1.01z"/>
     </g>
     <g>
      <g>
       <path class="fil2" d="M267.25 218.65c-0.06,0.55 -3.74,0.47 -8.11,1.32 -4.38,0.8 -7.77,2.21 -8.03,1.72 -0.27,-0.43 2.96,-2.73 7.68,-3.61 4.71,-0.9 8.56,0.07 8.46,0.57z"/>
      </g>
     </g>
    </g>
    <g>
     <g>
      <path class="fil8" d="M435.43 385.43c0,0 18.02,-15.44 23.25,-15.85 5.22,-0.41 18.96,2.14 18.96,2.14 0,0 8.68,0.08 12.99,-0.46 6.49,-0.81 10.94,-0.14 13.54,0.66 1.3,0.4 2.93,3.63 -0.9,5.84 -1.62,0.93 -17.38,2 -17.38,2l39.43 11.26 -5.12 4.23c-0.68,0.56 -1.53,0.88 -2.41,0.91l-56.78 2.01 -2.6 6.35 -22.98 -19.08z"/>
     </g>
     <g>
      <path class="fil8" d="M478.47 385.44l18.42 0c0,0 6.46,-8.58 8.8,-12.15 2.04,-3.12 4.51,-4.04 6.65,-3.3 0.56,0.19 1.01,0.61 1.31,1.12 0.43,0.76 0.45,1.69 0.03,2.46l-8.1 15.12 4.24 -1.43c0,0 8.5,-8.32 10.15,-10.25 1.65,-1.92 7.7,-10.03 13.06,-4.12l-7.42 8.25 7.42 -5.22c0,0 5.91,-5.09 9.07,0.96l-22.07 18.61 -41.57 -10.03z"/>
     </g>
     <g>
      <g>
       <path class="fil9" d="M459.3 377.81c-0.01,-0.02 0.25,-0.1 0.74,-0.25 0.49,-0.13 1.21,-0.41 2.19,-0.5 1.93,-0.33 4.88,-0.27 8.27,0.86 1.69,0.57 3.49,1.38 5.31,2.44 0.91,0.54 1.83,1.12 2.76,1.77 0.46,0.33 0.93,0.66 1.4,1 0.44,0.32 1,0.74 1.36,0.93 4.66,0.36 9.99,0.68 15.58,1.07l-0.26 0.11c1.72,-2.05 3.42,-4.28 5.07,-6.61 0.64,-0.91 1.25,-1.82 1.85,-2.73 0.59,-0.91 1.16,-1.85 1.81,-2.72 0.65,-0.87 1.35,-1.7 2.17,-2.41 0.4,-0.36 0.85,-0.67 1.34,-0.93 0.51,-0.24 0.99,-0.47 1.69,-0.37l-0.11 -0.01c0.97,-0.1 2.08,0.01 2.9,0.7 0.82,0.71 1.05,1.79 0.96,2.75l-0 0.05 -0.03 0.05c-3.51,6.29 -6.56,11.77 -8.93,16.01l0.02 -0.04c-0.54,1.81 -1.99,2.88 -3.25,3.44 -1.3,0.57 -2.51,0.68 -3.47,0.73 -0.96,0.04 -1.7,0.01 -2.2,-0.02 -0.5,-0.03 -0.76,-0.06 -0.76,-0.07 0,-0.02 0.26,-0.03 0.76,-0.04 0.5,-0.01 1.24,-0.01 2.18,-0.09 0.94,-0.09 2.12,-0.24 3.35,-0.8 1.19,-0.56 2.54,-1.61 2.99,-3.25l0.01 -0.02 0.01 -0.02c2.33,-4.27 5.32,-9.78 8.77,-16.1l-0.03 0.1c0.06,-0.79 -0.15,-1.71 -0.77,-2.22 -0.62,-0.52 -1.55,-0.64 -2.45,-0.54l-0.03 0 -0.08 -0.01c-0.32,-0.04 -0.85,0.11 -1.25,0.33 -0.42,0.23 -0.84,0.51 -1.21,0.85 -0.76,0.66 -1.44,1.46 -2.07,2.31 -1.22,1.71 -2.34,3.64 -3.65,5.44 -1.66,2.35 -3.37,4.58 -5.11,6.65l-0.1 0.12 -0.16 -0.01c-5.63,-0.41 -10.86,-0.73 -15.67,-1.16 -0.7,-0.34 -1.05,-0.69 -1.55,-1.04 -0.47,-0.34 -0.93,-0.67 -1.38,-1 -0.91,-0.65 -1.82,-1.24 -2.71,-1.78 -1.79,-1.07 -3.55,-1.89 -5.2,-2.48 -3.32,-1.17 -6.2,-1.28 -8.11,-1.03 -0.97,0.05 -1.69,0.3 -2.19,0.39 -0.5,0.11 -0.76,0.16 -0.77,0.14z"/>
      </g>
     </g>
     <g>
      <g>
       <path class="fil9" d="M533.03 372.88c0.03,0.03 -0.22,0.39 -0.72,1.01 -0.49,0.62 -1.23,1.51 -2.14,2.6 -1.83,2.18 -4.38,5.16 -7.24,8.43 -2.9,3.21 -5.31,6.36 -7.44,8.3 -1.04,0.98 -1.97,1.7 -2.66,2.11 -0.69,0.42 -1.12,0.56 -1.13,0.52 -0.02,-0.05 0.36,-0.26 0.99,-0.73 0.63,-0.47 1.49,-1.22 2.48,-2.23 2.01,-1.99 4.34,-5.15 7.26,-8.38 2.86,-3.27 5.47,-6.21 7.39,-8.32 0.96,-1.05 1.74,-1.9 2.29,-2.47 0.55,-0.57 0.87,-0.88 0.91,-0.85z"/>
      </g>
     </g>
     <g>
      <g>
       <path class="fil9" d="M522.93 373.74c0.06,0.06 -0.8,1.06 -2.24,2.63 -1.44,1.57 -3.46,3.7 -5.72,6.03 -1.85,1.91 -3.58,3.66 -4.96,5.02l-0.05 0.05 -0.05 0.02c-2.74,0.86 -4.53,1.32 -4.56,1.18 -0,-0.04 0.42,-0.2 1.18,-0.49 0.93,-0.34 2,-0.73 3.22,-1.17l-0.1 0.06c1.32,-1.42 3.02,-3.2 4.87,-5.11 2.26,-2.33 4.33,-4.42 5.86,-5.9 1.52,-1.49 2.5,-2.38 2.56,-2.32z"/>
      </g>
     </g>
    </g>
    <g>
     <g>
      <path class="fil7" d="M374.33 293.82c0,0 26.47,6.82 29.07,42.8 1.48,20.5 -9.43,86.34 -9.43,86.34l39.09 -40.15 34.84 24.24c0,0 -47.39,57.95 -58.33,66.66 -10.94,8.71 -28.35,22.72 -34.03,21.59 -5.67,-1.14 -5.67,-27.27 -5.67,-27.27l0 -144.3 4.46 -29.91z"/>
     </g>
     <g>
      <path class="fil7" d="M184.05 298.23c0,0 -23.55,7.74 -22.59,53.74 0.96,46 0.21,61.48 0.21,61.48l-35.29 -37.35 -29.32 32.33c0,0 32.8,48.73 55.75,72.41 21.63,22.32 40.85,2.94 47.1,-12.75 5.06,-12.71 9.13,-61.03 9.13,-61.03l-24.99 -108.84z"/>
     </g>
     <g>
      <g>
       <path class="fil4" d="M376.39 376.69c2.13,-13.46 2.69,-28.13 -3.45,-40.48 -15.09,37.3 -14.41,80.13 -9.01,119.65l11.96 34.19c7.53,-22.91 0.37,-47.31 0.54,-71.26 0.09,-13.6 -2.16,-28.64 -0.03,-42.1z"/>
      </g>
     </g>
     <g>
      <path class="fil7" d="M179.14 327.52c0,0 15.74,105.88 18.79,115.15 3.05,9.27 3.05,36.59 3.05,36.59 0,0 -16.52,30.76 -17.54,52.14l198.97 0.41 -12.93 -87.85c-0.44,-3.28 -0.47,-13.38 -0.3,-16.68 0.84,-15.47 2.03,-48.66 6.47,-69.06 5.16,-23.72 -1.79,-64.31 -1.79,-64.31l-59.43 -14.64c-14.07,20.21 -49.16,20.49 -63.01,0l-67.07 18.96 -5.21 29.29z"/>
     </g>
     <g>
      <g>
       <path class="fil2" d="M373.38 439.75c-0.03,-0.03 0.18,-0.36 0.59,-0.94 0.41,-0.58 1.04,-1.41 1.83,-2.41 1.6,-1.99 3.86,-4.73 6.83,-7.31 2.97,-2.58 6.1,-4.35 8.43,-5.41 1.17,-0.52 2.13,-0.91 2.81,-1.14 0.68,-0.23 1.06,-0.34 1.07,-0.3 0.14,0.25 -6.03,2.23 -11.89,7.33 -2.92,2.53 -5.22,5.2 -6.9,7.12 -1.67,1.93 -2.7,3.13 -2.77,3.07z"/>
      </g>
     </g>
     <g>
      <g>
       <path class="fil2" d="M189.14 437.51c-0.12,0.03 -0.58,-2.15 -2.09,-5.39 -1.48,-3.22 -4.18,-7.45 -8.33,-10.96 -4.14,-3.52 -8.76,-5.49 -12.18,-6.43 -3.43,-0.96 -5.67,-1.06 -5.65,-1.18 0,-0.04 0.56,-0.05 1.56,0.03 1,0.08 2.45,0.28 4.21,0.71 3.49,0.83 8.24,2.79 12.47,6.38 4.23,3.59 6.93,7.95 8.33,11.26 0.71,1.66 1.15,3.06 1.39,4.03 0.24,0.98 0.32,1.53 0.29,1.54z"/>
      </g>
     </g>
     <g>
      <g>
       <path class="fil2" d="M190.41 380.14c-0.03,0.04 -0.34,-0.14 -0.9,-0.49 -0.56,-0.35 -1.34,-0.89 -2.28,-1.59 -1.89,-1.41 -4.36,-3.53 -6.83,-6.14 -2.47,-2.61 -4.49,-5.16 -5.89,-7.04 -1.4,-1.88 -2.2,-3.09 -2.14,-3.15 0.07,-0.06 1,1.06 2.49,2.87 1.49,1.8 3.55,4.29 6,6.88 2.45,2.59 4.85,4.74 6.65,6.23 1.8,1.49 2.96,2.36 2.91,2.44z"/>
      </g>
     </g>
     <g>
      <g>
       <path class="fil2" d="M329.31 437.44c0.01,0.01 -0.05,0.09 -0.16,0.24 -0.14,0.18 -0.31,0.4 -0.52,0.68 -0.48,0.58 -1.13,1.48 -2.1,2.54 -1.86,2.17 -4.74,5.16 -8.61,8.51 -3.86,3.36 -8.78,6.99 -14.52,10.58 -5.74,3.59 -12.31,7.09 -19.34,10.47 -7.04,3.36 -13.85,6.34 -20,9.11 -6.16,2.76 -11.68,5.32 -16.24,7.61 -4.56,2.29 -8.19,4.26 -10.66,5.69 -1.25,0.69 -2.19,1.28 -2.85,1.65 -0.3,0.17 -0.55,0.31 -0.75,0.42 -0.17,0.09 -0.26,0.13 -0.27,0.12 -0.01,-0.01 0.07,-0.07 0.23,-0.18 0.19,-0.13 0.43,-0.28 0.71,-0.47 0.64,-0.4 1.56,-1.02 2.79,-1.75 2.44,-1.49 6.04,-3.53 10.58,-5.88 4.54,-2.35 10.05,-4.95 16.2,-7.74 6.15,-2.8 12.94,-5.79 19.97,-9.15 7.02,-3.37 13.57,-6.85 19.31,-10.39 5.73,-3.54 10.66,-7.12 14.54,-10.42 3.89,-3.29 6.81,-6.22 8.72,-8.34 0.99,-1.03 1.67,-1.9 2.18,-2.46 0.23,-0.26 0.42,-0.46 0.57,-0.64 0.13,-0.14 0.2,-0.21 0.21,-0.2z"/>
      </g>
     </g>
     <g>
      <g>
       <path class="fil2" d="M183.9 529.74c-0.01,-0 -0.01,-0.09 -0,-0.26 0.01,-0.2 0.02,-0.45 0.03,-0.77 0.04,-0.71 0.11,-1.71 0.19,-2.99 0.35,-2.59 0.9,-6.4 2.25,-11.07 2.57,-9.35 7.62,-22.22 15.32,-36.52l-0.04 0.16c-0.79,-11.52 -1.98,-24.39 -3.36,-37.92 -2.62,-25.55 -5.38,-48.64 -7.39,-65.35 -1.01,-8.33 -1.83,-15.08 -2.4,-19.79 -0.28,-2.31 -0.49,-4.12 -0.64,-5.38 -0.06,-0.59 -0.11,-1.05 -0.15,-1.4 -0.03,-0.32 -0.04,-0.48 -0.03,-0.48 0.01,-0 0.04,0.16 0.1,0.47 0.05,0.34 0.12,0.81 0.22,1.39 0.18,1.26 0.43,3.06 0.76,5.37 0.62,4.7 1.51,11.44 2.6,19.76 2.12,16.7 4.95,39.78 7.58,65.34 1.38,13.54 2.55,26.41 3.31,37.94l0.01 0.08 -0.04 0.08c-7.72,14.23 -12.83,27.05 -15.49,36.33 -1.39,4.63 -1.99,8.42 -2.4,10.99 -0.12,1.27 -0.21,2.27 -0.28,2.98 -0.03,0.32 -0.06,0.57 -0.08,0.77 -0.02,0.17 -0.04,0.26 -0.04,0.26z"/>
      </g>
     </g>
     <g>
      <g>
       <path class="fil2" d="M378.11 329.99c0.01,0 0.02,0.18 0.02,0.52 0,0.38 0,0.89 0.01,1.54 -0.02,1.35 0.02,3.35 -0.1,5.92 -0.14,5.14 -0.67,12.58 -1.58,21.73 -0.9,9.15 -2.23,20.02 -3.57,32.1 -1.34,12.08 -2.68,25.38 -3.1,39.39 -0.45,14.02 0.92,27.35 2.72,39.36 1.77,12.02 3.85,22.77 5.47,31.82 1.65,9.05 2.86,16.39 3.54,21.49 0.37,2.55 0.58,4.53 0.72,5.88 0.07,0.65 0.12,1.16 0.16,1.53 0.03,0.35 0.04,0.52 0.03,0.52 -0.01,0 -0.04,-0.17 -0.1,-0.52 -0.05,-0.37 -0.13,-0.88 -0.22,-1.52 -0.19,-1.34 -0.44,-3.32 -0.84,-5.86 -0.76,-5.08 -2.04,-12.41 -3.74,-21.45 -1.67,-9.04 -3.8,-19.79 -5.6,-31.82 -1.83,-12.02 -3.23,-25.4 -2.77,-39.46 0.43,-14.04 1.79,-27.36 3.16,-39.44 1.38,-12.08 2.75,-22.94 3.71,-32.08 0.97,-9.14 1.57,-16.56 1.79,-21.69 0.17,-2.57 0.17,-4.56 0.22,-5.91 0.02,-0.65 0.04,-1.16 0.06,-1.54 0.02,-0.35 0.03,-0.52 0.04,-0.52z"/>
      </g>
     </g>
     <g>
      <g>
       <path class="fil4" d="M188.25 352.67c-3.55,33.27 0.7,68.74 11.54,100.39l-11.54 -100.39z"/>
      </g>
     </g>
     <g>
      <g>
       <path class="fil4" d="M311.33 469.97c-15.08,13.85 -30.2,25.68 -48.75,32.27 13.98,1.19 28.08,-4.16 38.89,-13.1 10.81,-8.95 18.5,-18.38 23.45,-31.51l-13.6 12.34z"/>
      </g>
     </g>
     <g>
      <g>
       <path class="fil2" d="M294.15 485.23c-0.12,-0.13 9.26,-8.73 20.95,-19.21 11.69,-10.48 21.26,-18.87 21.38,-18.74 0.12,0.13 -9.26,8.73 -20.95,19.22 -11.69,10.48 -21.26,18.87 -21.37,18.74z"/>
      </g>
     </g>
    </g>
    <g>
     <path class="fil3" d="M327.5 225.41c0,4.25 -3.44,7.69 -7.69,7.69 -4.25,0 -7.69,-3.44 -7.69,-7.69 0,-4.25 3.44,-7.69 7.69,-7.69 4.25,0 7.69,3.44 7.69,7.69z"/>
    </g>
    <g>
     <g>
      <path class="fil2" d="M373.3 326.5c-2.27,-18.8 -4.54,-37.61 -6.8,-56.41l-48.67 -14.69c-0.94,33.59 -6.82,71.31 -15.27,103.83 17.94,5.82 37.1,7.81 55.85,5.81 0.83,-9.08 1.66,-18.17 2.49,-27.25 1.22,6.85 2.43,13.69 3.65,20.54 5.11,-2.86 8.12,-8.56 9.14,-14.33 1.02,-5.77 0.32,-11.68 -0.38,-17.5z"/>
     </g>
     <g>
      <g>
       <path class="fil3" d="M335.21 365.2c0,0 0.04,-0.24 0.14,-0.71 0.11,-0.49 0.27,-1.18 0.48,-2.07 0.43,-1.84 1.07,-4.51 1.88,-7.94 1.59,-6.91 3.95,-16.89 6.24,-29.36 2.31,-12.45 4.56,-27.41 5.3,-44.14 0.74,-16.7 -0.29,-35.26 -4.91,-54.03 -4.55,-18.77 -12.52,-35.74 -22.57,-49.11 -1.27,-1.66 -2.48,-3.33 -3.84,-4.85 -1.34,-1.54 -2.58,-3.11 -3.98,-4.53 -0.68,-0.72 -1.35,-1.44 -2.02,-2.15 -0.69,-0.69 -1.38,-1.37 -2.06,-2.05 -1.35,-1.37 -2.75,-2.64 -4.1,-3.92 -5.46,-5.06 -10.8,-9.5 -15.57,-13.67 -4.78,-4.17 -9.04,-8.02 -12.57,-11.62 -0.9,-0.88 -1.71,-1.79 -2.52,-2.64 -0.82,-0.84 -1.57,-1.68 -2.26,-2.51 -0.7,-0.82 -1.38,-1.6 -2.02,-2.35 -0.61,-0.78 -1.18,-1.51 -1.73,-2.21 -1.13,-1.37 -1.98,-2.7 -2.77,-3.82 -0.8,-1.11 -1.4,-2.1 -1.87,-2.91 -0.47,-0.79 -0.83,-1.39 -1.08,-1.83 -0.24,-0.41 -0.35,-0.63 -0.35,-0.63 0,0 0.15,0.2 0.41,0.6 0.27,0.42 0.65,1.02 1.14,1.79 0.49,0.79 1.1,1.77 1.92,2.87 0.8,1.1 1.67,2.42 2.81,3.77 0.55,0.69 1.14,1.42 1.75,2.19 0.65,0.74 1.33,1.51 2.04,2.32 0.7,0.82 1.46,1.65 2.28,2.48 0.81,0.84 1.63,1.74 2.53,2.61 3.54,3.57 7.82,7.39 12.61,11.53 4.79,4.15 10.14,8.57 15.64,13.63 1.36,1.28 2.77,2.55 4.13,3.92 0.69,0.68 1.38,1.36 2.08,2.05 0.67,0.71 1.35,1.43 2.04,2.15 1.4,1.42 2.66,3 4.01,4.54 1.37,1.52 2.59,3.2 3.87,4.87 10.12,13.42 18.15,30.47 22.72,49.31 4.64,18.84 5.65,37.47 4.88,54.2 -0.77,16.77 -3.07,31.74 -5.44,44.19 -2.35,12.46 -4.78,22.44 -6.45,29.33 -0.84,3.44 -1.52,6.11 -1.99,7.92 -0.23,0.89 -0.41,1.57 -0.54,2.05 -0.13,0.46 -0.21,0.69 -0.21,0.69z"/>
      </g>
     </g>
    </g>
   </g>
  </g>
 </g>
</svg>
