<?xml version="1.0" encoding="UTF-8"?>
<!DOCTYPE svg PUBLIC "-//W3C//DTD SVG 1.1//EN" "http://www.w3.org/Graphics/SVG/1.1/DTD/svg11.dtd">
<!-- Creator: CorelDRAW -->
<svg xmlns="http://www.w3.org/2000/svg" xml:space="preserve" width="2.67612in" height="2.67613in" version="1.1" style="shape-rendering:geometricPrecision; text-rendering:geometricPrecision; image-rendering:optimizeQuality; fill-rule:evenodd; clip-rule:evenodd"
viewBox="0 0 28.6 28.6"
 xmlns:xlink="http://www.w3.org/1999/xlink"
 xmlns:xodm="http://www.corel.com/coreldraw/odm/2003">
 <defs>
  <style type="text/css">
   <![CDATA[
    .fil0 {fill:none}
    .fil1 {fill:#96909F;fill-rule:nonzero}
    .fil4 {fill:#C3C0C9;fill-rule:nonzero}
    .fil3 {fill:#56525D;fill-rule:nonzero;fill-opacity:0.501961}
    .fil2 {fill:url(#id0);fill-rule:nonzero}
   ]]>
  </style>
  <linearGradient id="id0" gradientUnits="userSpaceOnUse" x1="-13.81" y1="13.23" x2="25.27" y2="25.45">
   <stop offset="0" style="stop-opacity:1; stop-color:#203026"/>
   <stop offset="0.509804" style="stop-opacity:1; stop-color:#395745"/>
   <stop offset="0.690196" style="stop-opacity:1; stop-color:#5D946E"/>
   <stop offset="1" style="stop-opacity:1; stop-color:#4FE394"/>
  </linearGradient>
 </defs>
 <g id="Layer_x0020_1">
  <metadata id="CorelCorpID_0Corel-Layer"/>
  <g id="_105553261686656">
   <rect class="fil0" x="-0" y="-0" width="28.6" height="28.6"/>
   <g>
    <path class="fil1" d="M15.09 12.43c-0.39,0.37 -0.9,0.6 -1.44,0.64l0 0.77c0,0.12 -0.05,0.24 -0.14,0.33 -0.09,0.09 -0.2,0.14 -0.33,0.14 -0.06,0 -0.12,-0.01 -0.18,-0.03 -0.06,-0.02 -0.11,-0.06 -0.15,-0.1 -0.04,-0.04 -0.08,-0.09 -0.1,-0.15 -0.02,-0.06 -0.04,-0.12 -0.04,-0.18l0 -0.77c-0.59,-0.08 -1.16,-0.3 -1.64,-0.65 -0.06,-0.05 -0.11,-0.11 -0.15,-0.17 -0.04,-0.07 -0.06,-0.14 -0.07,-0.22 -0.01,-0.08 -0,-0.15 0.02,-0.23 0.02,-0.07 0.06,-0.14 0.11,-0.2 0.09,-0.11 0.22,-0.19 0.37,-0.21 0.15,-0.02 0.29,0.02 0.41,0.11 0.17,0.1 0.34,0.19 0.52,0.27 0.31,0.13 0.64,0.21 0.97,0.21 0.16,-0.01 0.32,-0.04 0.47,-0.09 0.12,-0.04 0.22,-0.09 0.32,-0.16 0.09,-0.06 0.17,-0.15 0.21,-0.25 0.05,-0.1 0.07,-0.22 0.07,-0.33 0,-0.12 -0.02,-0.25 -0.07,-0.36 -0.06,-0.11 -0.15,-0.21 -0.26,-0.28 -0.13,-0.08 -0.26,-0.15 -0.4,-0.21l-0.58 -0.19 -0.49 -0.17 -0.44 -0.17c-0.14,-0.06 -0.28,-0.12 -0.42,-0.2 -0.12,-0.08 -0.23,-0.17 -0.34,-0.26 -0.11,-0.1 -0.2,-0.2 -0.28,-0.32 -0.07,-0.12 -0.12,-0.26 -0.16,-0.4 -0.05,-0.16 -0.07,-0.33 -0.07,-0.5 -0.01,-0.24 0.03,-0.49 0.12,-0.71 0.09,-0.23 0.22,-0.44 0.39,-0.61 0.38,-0.37 0.89,-0.59 1.43,-0.61l0 -0.83c0,-0.12 0.05,-0.24 0.14,-0.33 0.09,-0.09 0.21,-0.14 0.33,-0.14 0.06,0 0.12,0.01 0.18,0.04 0.06,0.02 0.11,0.06 0.15,0.1 0.04,0.04 0.08,0.1 0.1,0.15 0.02,0.06 0.03,0.12 0.03,0.18l0 0.92c0.32,0.07 0.63,0.17 0.93,0.3l0.25 0.12c0.07,0.04 0.14,0.09 0.19,0.16 0.05,0.07 0.08,0.14 0.1,0.22 0.02,0.08 0.02,0.16 -0,0.25 -0.02,0.08 -0.06,0.16 -0.11,0.22 -0.08,0.1 -0.2,0.18 -0.33,0.2 -0.13,0.03 -0.27,0.01 -0.38,-0.06l-0.18 -0.08c-0.18,-0.09 -0.37,-0.15 -0.57,-0.19 -0.17,-0.04 -0.34,-0.06 -0.52,-0.06 -0.25,-0.01 -0.5,0.05 -0.71,0.18 -0.09,0.06 -0.16,0.14 -0.2,0.23 -0.05,0.09 -0.07,0.2 -0.07,0.3 -0,0.11 0.03,0.22 0.08,0.31 0.06,0.1 0.15,0.19 0.25,0.25 0.12,0.07 0.25,0.14 0.38,0.19 0.14,0.06 0.31,0.12 0.54,0.18l0.38 0.14 0.39 0.14 0.37 0.16 0.31 0.17c0.1,0.06 0.19,0.13 0.28,0.21l0.21 0.24c0.07,0.09 0.12,0.19 0.16,0.29 0.05,0.11 0.08,0.23 0.1,0.35 0.01,0.13 0.01,0.27 0,0.41 0.02,0.24 -0.01,0.49 -0.09,0.72 -0.08,0.23 -0.2,0.44 -0.36,0.63z"/>
    <path class="fil2" d="M26.04 20.06c0,0.16 -0.03,0.31 -0.09,0.46 -0.06,0.14 -0.15,0.27 -0.26,0.38l-3.48 3.4 -2.06 2.03c-0.3,0.3 -0.65,0.53 -1.04,0.69 -0.39,0.16 -0.81,0.24 -1.23,0.24l-10.93 0 0 -3.37c0,-0.47 0.1,-0.93 0.28,-1.36 0.18,-0.43 0.45,-0.82 0.78,-1.15 0.33,-0.33 0.73,-0.59 1.16,-0.77 0.43,-0.18 0.9,-0.27 1.37,-0.26l5.19 0c0.11,-0 0.23,0.02 0.33,0.06 0.11,0.04 0.2,0.11 0.29,0.19 0.08,0.08 0.15,0.18 0.19,0.28 0.05,0.11 0.07,0.22 0.07,0.33 -0,0.23 -0.1,0.45 -0.26,0.62 -0.17,0.16 -0.39,0.25 -0.62,0.25l-3.51 0c-0.12,-0.01 -0.25,-0 -0.36,0.04 -0.12,0.04 -0.23,0.1 -0.32,0.18 -0.09,0.08 -0.17,0.18 -0.22,0.29 -0.05,0.11 -0.08,0.23 -0.08,0.36 0,0.12 0.03,0.24 0.08,0.36 0.05,0.11 0.12,0.21 0.22,0.29 0.09,0.08 0.2,0.14 0.32,0.18 0.12,0.04 0.24,0.05 0.36,0.04l5.55 0c1,-0.01 1.95,-0.42 2.64,-1.13l0.67 -0.66 2.87 -2.81c0.11,-0.11 0.25,-0.2 0.39,-0.27 0.15,-0.06 0.31,-0.09 0.47,-0.09 0.16,0 0.32,0.03 0.47,0.09 0.15,0.06 0.28,0.15 0.39,0.27 0.12,0.11 0.21,0.24 0.27,0.39 0.06,0.15 0.09,0.3 0.09,0.46l0 0z"/>
    <path class="fil3" d="M3.74 27.29c-0.31,0 -0.61,-0.09 -0.84,-0.25 -0.22,-0.16 -0.35,-0.37 -0.35,-0.6l0 -4.22c0,-0.22 0.12,-0.44 0.35,-0.6 0.22,-0.16 0.52,-0.25 0.84,-0.25 0.31,0 0.61,0.09 0.84,0.25 0.22,0.16 0.35,0.37 0.35,0.6l0 4.22c0,0.22 -0.12,0.44 -0.35,0.6 -0.22,0.16 -0.52,0.25 -0.84,0.25l0 0z"/>
    <path class="fil4" d="M13.09 18.29c-1.68,0 -3.32,-0.5 -4.72,-1.43 -1.4,-0.93 -2.48,-2.26 -3.13,-3.81 -0.64,-1.55 -0.81,-3.26 -0.48,-4.91 0.33,-1.65 1.14,-3.16 2.32,-4.35 1.19,-1.19 2.7,-2 4.35,-2.32 1.65,-0.33 3.35,-0.16 4.91,0.48 1.55,0.64 2.88,1.73 3.81,3.13 0.93,1.4 1.43,3.04 1.43,4.72 -0,2.25 -0.9,4.41 -2.49,6 -1.59,1.59 -3.75,2.49 -6,2.49zm0 -15.28c-1.35,0 -2.66,0.4 -3.78,1.15 -1.12,0.75 -1.99,1.81 -2.51,3.05 -0.51,1.24 -0.65,2.61 -0.39,3.93 0.26,1.32 0.91,2.53 1.86,3.48 0.95,0.95 2.16,1.6 3.48,1.86 1.32,0.26 2.69,0.13 3.93,-0.39 1.24,-0.51 2.31,-1.39 3.05,-2.51 0.75,-1.12 1.15,-2.43 1.15,-3.78 0,-0.89 -0.18,-1.78 -0.52,-2.6 -0.34,-0.83 -0.84,-1.58 -1.47,-2.21 -0.63,-0.63 -1.38,-1.13 -2.21,-1.47 -0.83,-0.34 -1.71,-0.52 -2.6,-0.52z"/>
   </g>
  </g>
 </g>
</svg>
