<?xml version="1.0" encoding="UTF-8"?>
<!DOCTYPE svg PUBLIC "-//W3C//DTD SVG 1.1//EN" "http://www.w3.org/Graphics/SVG/1.1/DTD/svg11.dtd">
<!-- Creator: CorelDRAW -->
<svg xmlns="http://www.w3.org/2000/svg" xml:space="preserve" width="0.708378in" height="0.708339in" version="1.1" style="shape-rendering:geometricPrecision; text-rendering:geometricPrecision; image-rendering:optimizeQuality; fill-rule:evenodd; clip-rule:evenodd"
viewBox="0 0 3.7 3.7"
 xmlns:xlink="http://www.w3.org/1999/xlink"
 xmlns:xodm="http://www.corel.com/coreldraw/odm/2003">
 <defs>
  <style type="text/css">
   <![CDATA[
    .fil0 {fill:black}
    .fil13 {fill:#2BCE6C}
    .fil3 {fill:#2CC268}
    .fil10 {fill:#32B566}
    .fil1 {fill:#33DC76}
    .fil6 {fill:#33E57A}
    .fil8 {fill:#33E67A}
    .fil9 {fill:#35D775}
    .fil12 {fill:#36AB65}
    .fil14 {fill:#36BD6C}
    .fil11 {fill:#37975D}
    .fil2 {fill:#3A9960}
    .fil5 {fill:#53F19C}
    .fil4 {fill:#7CFFB0}
    .fil7 {fill:#FBFFD3}
    .fil20 {fill:#2CC268;fill-rule:nonzero}
    .fil16 {fill:#32B566;fill-rule:nonzero}
    .fil15 {fill:#33DC76;fill-rule:nonzero}
    .fil19 {fill:#37975D;fill-rule:nonzero}
    .fil18 {fill:#3A9960;fill-rule:nonzero}
    .fil17 {fill:#53F19C;fill-rule:nonzero}
   ]]>
  </style>
 </defs>
 <g id="Layer_x0020_1">
  <metadata id="CorelCorpID_0Corel-Layer"/>
  <g id="_105553217689376">
   <circle class="fil0" cx="1.85" cy="1.85" r="1.8"/>
  </g>
  <g id="_105553217690176">
   <g>
    <polygon id="Vector_99" class="fil1" points="1.39,0.07 1.41,0.07 1.44,0.07 1.47,0.07 1.5,0.07 1.53,0.07 1.56,0.07 1.58,0.07 1.61,0.07 1.64,0.07 1.67,0.07 1.7,0.08 1.73,0.08 1.76,0.09 1.79,0.09 1.82,0.1 1.85,0.1 1.88,0.11 1.9,0.12 1.93,0.12 1.96,0.13 1.99,0.14 2.01,0.15 2.04,0.16 2.07,0.17 2.09,0.18 2.12,0.19 2.14,0.2 2.17,0.21 2.19,0.22 2.21,0.23 2.24,0.24 2.26,0.25 2.27,0.26 2.28,0.27 2.29,0.27 2.3,0.28 2.31,0.29 2.32,0.29 2.33,0.3 2.34,0.31 2.35,0.31 2.36,0.32 2.37,0.33 2.39,0.33 2.4,0.34 2.41,0.35 2.41,0.35 2.42,0.36 2.43,0.37 2.44,0.37 2.45,0.38 2.46,0.39 2.47,0.39 2.48,0.4 2.49,0.41 2.5,0.42 2.51,0.42 2.52,0.43 2.52,0.44 2.53,0.44 2.54,0.45 2.55,0.46 2.56,0.47 2.57,0.47 2.57,0.48 2.58,0.49 2.59,0.5 2.6,0.51 2.61,0.51 2.62,0.52 2.62,0.53 2.63,0.54 2.64,0.54 2.64,0.55 2.65,0.56 2.66,0.56 2.66,0.57 2.67,0.58 2.67,0.58 2.68,0.59 2.69,0.6 2.69,0.6 2.7,0.61 2.7,0.62 2.71,0.62 2.71,0.63 2.72,0.64 2.73,0.65 2.73,0.65 2.74,0.66 2.74,0.67 2.75,0.68 2.76,0.69 2.76,0.69 2.77,0.7 2.78,0.71 2.78,0.72 2.78,0.72 2.78,0.72 2.78,0.72 2.79,0.73 2.79,0.73 2.79,0.73 2.79,0.73 2.8,0.75 2.83,0.78 2.85,0.81 2.88,0.85 2.9,0.88 2.93,0.91 2.95,0.94 2.97,0.98 2.99,1.01 3.01,1.04 3.03,1.08 3.05,1.12 3.07,1.15 3.09,1.19 3.1,1.22 3.12,1.26 3.13,1.3 3.15,1.34 3.16,1.38 3.17,1.42 3.18,1.46 3.19,1.5 3.2,1.54 3.21,1.58 3.21,1.62 3.22,1.66 3.22,1.7 3.22,1.74 3.23,1.79 3.23,1.83 3.22,1.87 3.22,1.92 3.22,1.96 3.21,2.02 3.21,2.07 3.2,2.12 3.19,2.17 3.17,2.23 3.16,2.28 3.14,2.33 3.13,2.38 3.11,2.42 3.09,2.47 3.06,2.52 3.04,2.57 3.02,2.61 2.99,2.66 2.96,2.7 2.94,2.74 2.91,2.78 2.87,2.83 2.84,2.87 2.81,2.9 2.77,2.94 2.74,2.98 2.7,3.01 2.66,3.05 2.62,3.08 2.58,3.11 2.54,3.14 2.5,3.17 2.46,3.2 2.41,3.22 2.37,3.25 2.32,3.27 2.31,3.27 2.3,3.28 2.3,3.28 2.29,3.29 2.28,3.29 2.27,3.29 2.26,3.3 2.25,3.3 2.24,3.31 2.23,3.31 2.22,3.31 2.21,3.32 2.21,3.32 2.2,3.32 2.19,3.33 2.18,3.33 2.17,3.33 2.16,3.34 2.15,3.34 2.14,3.34 2.13,3.35 2.12,3.35 2.11,3.35 2.1,3.36 2.09,3.36 2.08,3.36 2.07,3.37 2.06,3.37 2.05,3.37 2.04,3.38 2.03,3.38 2.02,3.38 2,3.39 1.98,3.39 1.96,3.4 1.94,3.4 1.92,3.41 1.89,3.41 1.87,3.41 1.85,3.42 1.83,3.42 1.8,3.42 1.78,3.43 1.76,3.43 1.73,3.43 1.71,3.43 1.68,3.43 1.66,3.43 1.64,3.43 1.61,3.43 1.59,3.43 1.57,3.43 1.54,3.43 1.52,3.43 1.49,3.43 1.47,3.43 1.45,3.42 1.42,3.42 1.4,3.42 1.38,3.41 1.35,3.41 1.33,3.41 1.31,3.4 1.28,3.4 1.26,3.39 1.23,3.38 1.2,3.38 1.18,3.37 1.15,3.36 1.12,3.35 1.1,3.35 1.07,3.34 1.05,3.33 1.03,3.32 1,3.31 0.98,3.3 0.95,3.29 0.93,3.28 0.91,3.27 0.89,3.25 0.87,3.24 0.84,3.23 0.82,3.22 0.8,3.2 0.78,3.19 0.76,3.18 0.74,3.16 0.72,3.15 0.7,3.13 0.68,3.12 0.66,3.1 0.64,3.09 0.62,3.07 0.6,3.06 0.58,3.04 0.57,3.02 0.56,3.02 0.56,3.02 0.55,3.01 0.55,3.01 0.55,3.01 0.54,3 0.54,3 0.54,3 0.53,2.99 0.53,2.99 0.53,2.99 0.52,2.98 0.52,2.98 0.52,2.98 0.51,2.97 0.51,2.97 0.51,2.97 0.5,2.96 0.5,2.95 0.49,2.95 0.48,2.94 0.48,2.94 0.47,2.93 0.47,2.92 0.46,2.91 0.45,2.91 0.45,2.9 0.44,2.89 0.43,2.88 0.43,2.88 0.42,2.87 0.41,2.86 0.41,2.85 0.4,2.84 0.39,2.84 0.39,2.83 0.38,2.82 0.38,2.81 0.37,2.8 0.36,2.8 0.36,2.79 0.35,2.78 0.35,2.78 0.34,2.77 0.34,2.76 0.33,2.76 0.33,2.75 0.33,2.74 0.32,2.74 0.32,2.74 0.32,2.73 0.32,2.73 0.31,2.72 0.31,2.72 0.31,2.72 0.31,2.71 0.31,2.71 0.3,2.71 0.3,2.7 0.3,2.7 0.3,2.7 0.29,2.69 0.29,2.69 0.29,2.69 0.27,2.67 0.26,2.66 0.25,2.65 0.24,2.64 0.24,2.63 0.23,2.62 0.23,2.61 0.22,2.61 0.21,2.6 0.21,2.59 0.2,2.58 0.2,2.57 0.19,2.57 0.18,2.56 0.18,2.55 0.17,2.54 0.16,2.52 0.06,2.35 0.12,2.53 0.12,2.54 0.13,2.55 0.13,2.56 0.14,2.57 0.14,2.58 0.14,2.59 0.15,2.6 0.15,2.61 0.16,2.62 0.16,2.63 0.16,2.64 0.17,2.65 0.17,2.66 0.17,2.66 0.18,2.67 0.18,2.68 0.19,2.69 0.19,2.7 0.19,2.71 0.2,2.71 0.2,2.72 0.21,2.73 0.21,2.74 0.22,2.75 0.22,2.76 0.23,2.77 0.23,2.78 0.24,2.79 0.24,2.8 0.25,2.81 0.26,2.82 0.26,2.83 0.27,2.83 0.27,2.84 0.27,2.84 0.27,2.85 0.27,2.85 0.28,2.85 0.28,2.86 0.28,2.86 0.29,2.87 0.29,2.87 0.29,2.87 0.29,2.88 0.3,2.88 0.3,2.89 0.3,2.89 0.3,2.89 0.3,2.89 0.31,2.89 0.31,2.9 0.32,2.9 0.33,2.91 0.34,2.92 0.34,2.93 0.35,2.94 0.36,2.94 0.37,2.95 0.38,2.96 0.39,2.97 0.39,2.98 0.4,2.98 0.4,2.99 0.41,2.99 0.41,3 0.42,3 0.43,3.01 0.43,3.02 0.44,3.02 0.45,3.03 0.46,3.04 0.46,3.04 0.47,3.05 0.48,3.06 0.48,3.06 0.49,3.07 0.5,3.07 0.51,3.08 0.51,3.09 0.52,3.09 0.55,3.11 0.57,3.13 0.6,3.15 0.63,3.17 0.65,3.19 0.68,3.21 0.71,3.22 0.74,3.24 0.76,3.26 0.79,3.27 0.82,3.29 0.85,3.3 0.88,3.32 0.91,3.33 0.94,3.34 0.97,3.36 1,3.37 1.03,3.38 1.06,3.39 1.09,3.4 1.12,3.41 1.15,3.42 1.18,3.43 1.22,3.44 1.25,3.45 1.28,3.45 1.32,3.46 1.35,3.46 1.38,3.47 1.42,3.47 1.45,3.48 1.49,3.48 1.52,3.49 1.55,3.49 1.59,3.49 1.62,3.49 1.65,3.49 1.69,3.49 1.72,3.49 1.75,3.49 1.79,3.49 1.82,3.48 1.86,3.48 1.89,3.48 1.92,3.47 1.96,3.47 1.99,3.46 2.02,3.45 2.06,3.45 2.09,3.44 2.12,3.43 2.16,3.42 2.19,3.41 2.22,3.41 2.25,3.4 2.28,3.38 2.31,3.37 2.35,3.36 2.38,3.35 2.41,3.34 2.44,3.32 2.46,3.31 2.49,3.29 2.52,3.28 2.53,3.27 2.54,3.27 2.55,3.26 2.57,3.25 2.58,3.25 2.59,3.24 2.6,3.24 2.61,3.23 2.62,3.22 2.63,3.22 2.64,3.21 2.65,3.2 2.66,3.2 2.67,3.19 2.68,3.18 2.69,3.18 2.7,3.17 2.71,3.17 2.72,3.16 2.73,3.15 2.74,3.15 2.75,3.14 2.76,3.13 2.77,3.12 2.78,3.12 2.79,3.11 2.8,3.1 2.81,3.1 2.82,3.09 2.83,3.08 2.84,3.07 2.85,3.06 2.86,3.05 2.87,3.04 2.89,3.03 2.9,3.02 2.91,3.01 2.92,3 2.94,2.99 2.95,2.98 2.96,2.96 2.97,2.95 2.99,2.94 3,2.93 3.01,2.91 3.02,2.9 3.04,2.89 3.05,2.87 3.06,2.86 3.07,2.85 3.08,2.83 3.1,2.82 3.11,2.81 3.12,2.79 3.13,2.78 3.14,2.77 3.15,2.75 3.16,2.74 3.17,2.72 3.18,2.71 3.19,2.7 3.2,2.68 3.21,2.67 3.22,2.66 3.23,2.64 3.24,2.62 3.25,2.6 3.27,2.58 3.28,2.56 3.29,2.54 3.3,2.53 3.31,2.51 3.32,2.49 3.33,2.47 3.34,2.45 3.35,2.43 3.36,2.41 3.37,2.39 3.38,2.37 3.39,2.35 3.39,2.34 3.4,2.32 3.41,2.29 3.42,2.27 3.43,2.25 3.43,2.23 3.44,2.21 3.45,2.19 3.46,2.17 3.46,2.15 3.47,2.12 3.48,2.1 3.48,2.08 3.49,2.05 3.49,2.03 3.5,2.01 3.5,1.98 3.51,1.96 3.51,1.93 3.52,1.91 3.52,1.88 3.52,1.86 3.53,1.83 3.53,1.81 3.53,1.78 3.54,1.76 3.54,1.73 3.54,1.71 3.54,1.68 3.54,1.66 3.54,1.63 3.54,1.61 3.54,1.58 3.54,1.56 3.54,1.53 3.54,1.51 3.54,1.49 3.54,1.46 3.53,1.44 3.53,1.41 3.53,1.39 3.53,1.37 3.52,1.34 3.52,1.32 3.51,1.29 3.51,1.27 3.51,1.25 3.5,1.22 3.5,1.2 3.49,1.19 3.49,1.17 3.48,1.15 3.48,1.13 3.48,1.12 3.47,1.1 3.47,1.08 3.46,1.06 3.45,1.05 3.45,1.03 3.44,1.01 3.44,1 3.43,0.98 3.43,0.97 3.42,0.95 3.41,0.93 3.41,0.92 3.4,0.9 3.39,0.89 3.39,0.87 3.38,0.85 3.37,0.84 3.36,0.82 3.36,0.81 3.35,0.79 3.34,0.78 3.33,0.76 3.32,0.74 3.32,0.73 3.31,0.71 3.3,0.7 3.3,0.69 3.29,0.69 3.29,0.69 3.29,0.68 3.29,0.68 3.28,0.67 3.28,0.67 3.28,0.66 3.27,0.66 3.27,0.65 3.27,0.65 3.27,0.64 3.27,0.64 3.26,0.64 3.26,0.63 3.26,0.63 3.11,0.47 3.11,0.47 3.1,0.46 3.1,0.46 3.09,0.45 3.09,0.45 3.08,0.45 3.08,0.44 3.07,0.44 3.07,0.43 3.06,0.43 3.05,0.42 3.05,0.42 3.04,0.41 3.03,0.41 3.03,0.4 3.02,0.39 3.01,0.39 3.01,0.38 3,0.38 2.99,0.37 2.99,0.37 2.98,0.36 2.98,0.36 2.97,0.36 2.96,0.35 2.96,0.35 2.95,0.34 2.95,0.34 2.94,0.33 2.94,0.33 2.93,0.33 2.93,0.33 2.92,0.32 2.9,0.31 2.89,0.3 2.88,0.29 2.86,0.28 2.85,0.28 2.84,0.27 2.83,0.26 2.81,0.25 2.8,0.24 2.79,0.24 2.77,0.23 2.76,0.22 2.75,0.21 2.73,0.21 2.72,0.2 2.71,0.19 2.69,0.19 2.68,0.18 2.66,0.17 2.65,0.17 2.64,0.16 2.62,0.15 2.61,0.15 2.59,0.14 2.58,0.13 2.57,0.13 2.55,0.12 2.54,0.12 2.52,0.11 2.51,0.11 2.49,0.1 2.48,0.1 2.47,0.09 2.45,0.09 2.44,0.09 2.43,0.08 2.41,0.08 2.4,0.07 2.39,0.07 2.37,0.07 2.36,0.06 2.35,0.06 2.33,0.06 2.32,0.05 2.31,0.05 2.29,0.05 2.28,0.04 2.27,0.04 2.26,0.04 2.24,0.04 2.23,0.03 2.22,0.03 2.2,0.03 2.19,0.03 2.18,0.02 2.16,0.02 2.15,0.02 2.14,0.02 2.12,0.02 2.11,0.01 2.1,0.01 2.08,0.01 2.07,0.01 1.99,0 1.98,0 1.98,0 1.97,0 1.96,0 1.96,0 1.95,0 1.94,0 1.94,0 1.93,0 1.92,0 1.92,0 1.91,0 1.9,0 1.9,0 1.89,0 1.88,0 1.88,0 1.87,0 1.86,0 1.86,0 1.85,0 1.84,0 1.84,0 1.83,0 1.82,0 1.82,0 1.81,0 1.8,0 1.8,0 1.79,0 1.78,0 1.78,0 1.77,0 1.76,0 1.75,0.01 1.74,0.01 1.74,0.01 1.73,0.01 1.72,0.01 1.71,0.01 1.7,0.01 1.69,0.01 1.68,0.01 1.68,0.01 1.67,0.01 1.66,0.01 1.65,0.02 1.64,0.02 1.63,0.02 1.62,0.02 1.62,0.02 1.61,0.02 1.6,0.02 1.59,0.02 1.58,0.03 1.57,0.03 1.56,0.03 1.56,0.03 1.55,0.03 1.54,0.03 1.53,0.03 1.52,0.04 1.52,0.04 1.51,0.04 1.5,0.04 1.5,0.04 1.49,0.04 1.48,0.04 1.47,0.05 1.46,0.05 1.45,0.05 1.45,0.05 1.44,0.05 1.43,0.06 1.42,0.06 1.41,0.06 1.4,0.07 1.39,0.07 1.39,0.07 "/>
    <polygon id="Vector_100" class="fil2" points="0.3,2.89 0.31,2.91 0.32,2.92 0.33,2.94 0.35,2.96 0.36,2.97 0.37,2.99 0.38,3.01 0.4,3.02 0.41,3.04 0.42,3.06 0.44,3.07 0.45,3.09 0.47,3.11 0.48,3.12 0.5,3.14 0.51,3.15 0.53,3.17 0.54,3.18 0.56,3.2 0.58,3.21 0.59,3.23 0.61,3.24 0.63,3.26 0.64,3.27 0.66,3.29 0.67,3.3 0.69,3.31 0.71,3.33 0.72,3.34 0.74,3.35 0.76,3.36 0.77,3.37 0.79,3.39 0.81,3.4 0.83,3.41 0.84,3.42 0.86,3.43 0.88,3.45 0.9,3.46 0.92,3.47 0.94,3.48 0.96,3.49 0.98,3.5 1,3.51 1.02,3.52 1.04,3.53 1.07,3.54 1.09,3.55 1.11,3.56 1.13,3.57 1.15,3.58 1.18,3.59 1.2,3.6 1.22,3.61 1.25,3.61 1.27,3.62 1.3,3.63 1.32,3.63 1.35,3.64 1.37,3.65 1.4,3.65 1.42,3.66 1.45,3.67 1.48,3.67 1.48,3.67 1.49,3.67 1.5,3.67 1.51,3.68 1.52,3.68 1.52,3.68 1.53,3.68 1.54,3.68 1.55,3.68 1.56,3.68 1.56,3.69 1.57,3.69 1.58,3.69 1.59,3.69 1.6,3.69 1.61,3.69 1.7,3.7 1.73,3.7 1.76,3.7 1.79,3.7 1.82,3.7 1.84,3.7 1.87,3.7 1.9,3.7 1.92,3.7 1.95,3.7 1.97,3.7 2,3.69 2.03,3.69 2.05,3.69 2.08,3.68 2.1,3.68 2.13,3.68 2.15,3.67 2.18,3.67 2.2,3.66 2.23,3.66 2.25,3.65 2.28,3.65 2.3,3.64 2.33,3.63 2.35,3.62 2.38,3.62 2.4,3.61 2.43,3.6 2.45,3.59 2.48,3.58 2.51,3.57 2.53,3.56 2.55,3.55 2.58,3.54 2.6,3.53 2.62,3.52 2.65,3.51 2.67,3.5 2.69,3.49 2.71,3.48 2.74,3.46 2.76,3.45 2.78,3.44 2.81,3.42 2.83,3.41 2.85,3.39 2.87,3.38 2.89,3.36 2.91,3.35 2.94,3.33 2.96,3.32 2.98,3.3 3,3.28 3.02,3.27 3.04,3.25 3.06,3.23 3.08,3.22 3.1,3.2 3.12,3.18 3.14,3.16 3.15,3.15 3.17,3.13 3.19,3.11 3.21,3.09 3.21,3.09 3.21,3.08 3.22,3.08 3.22,3.08 3.22,3.07 3.23,3.07 3.23,3.06 3.23,3.06 3.24,3.06 3.24,3.05 3.25,3.05 3.25,3.04 3.25,3.04 3.26,3.04 3.26,3.03 3.26,3.03 3.27,3.02 3.28,3.01 3.28,3 3.29,3 3.29,2.99 3.3,2.98 3.3,2.98 3.31,2.97 3.31,2.96 3.32,2.96 3.32,2.95 3.33,2.95 3.33,2.94 3.34,2.93 3.34,2.93 3.35,2.92 3.35,2.92 3.35,2.91 3.36,2.9 3.36,2.9 3.37,2.89 3.37,2.88 3.38,2.88 3.38,2.87 3.39,2.86 3.39,2.86 3.4,2.85 3.4,2.84 3.41,2.83 3.41,2.82 3.42,2.82 3.42,2.81 3.45,2.77 3.47,2.73 3.49,2.69 3.51,2.65 3.53,2.61 3.55,2.57 3.57,2.52 3.58,2.48 3.6,2.44 3.61,2.4 3.63,2.35 3.64,2.31 3.65,2.26 3.66,2.22 3.67,2.18 3.68,2.13 3.69,2.09 3.69,2.04 3.7,1.99 3.7,1.95 3.7,1.9 3.7,1.86 3.7,1.81 3.7,1.77 3.7,1.72 3.7,1.68 3.7,1.63 3.69,1.59 3.68,1.54 3.68,1.5 3.67,1.45 3.66,1.41 3.65,1.39 3.65,1.37 3.64,1.35 3.64,1.32 3.63,1.3 3.63,1.28 3.62,1.26 3.61,1.24 3.6,1.22 3.6,1.2 3.59,1.18 3.58,1.16 3.57,1.13 3.56,1.11 3.56,1.09 3.55,1.07 3.54,1.05 3.53,1.03 3.52,1.01 3.51,0.99 3.5,0.97 3.49,0.95 3.48,0.93 3.47,0.92 3.46,0.9 3.44,0.88 3.43,0.86 3.42,0.84 3.41,0.82 3.4,0.8 3.38,0.78 3.37,0.77 3.37,0.76 3.37,0.76 3.36,0.75 3.36,0.75 3.36,0.75 3.35,0.74 3.35,0.74 3.35,0.73 3.26,0.63 3.26,0.63 3.26,0.64 3.26,0.64 3.27,0.64 3.27,0.65 3.27,0.65 3.27,0.66 3.28,0.66 3.28,0.67 3.28,0.67 3.29,0.68 3.29,0.68 3.29,0.68 3.29,0.69 3.3,0.69 3.3,0.7 3.31,0.71 3.32,0.73 3.32,0.74 3.33,0.76 3.34,0.78 3.35,0.79 3.36,0.81 3.36,0.82 3.37,0.84 3.38,0.85 3.39,0.87 3.39,0.89 3.4,0.9 3.41,0.92 3.41,0.93 3.42,0.95 3.43,0.96 3.43,0.98 3.44,1 3.44,1.01 3.45,1.03 3.45,1.05 3.46,1.06 3.47,1.08 3.47,1.1 3.48,1.12 3.48,1.13 3.48,1.15 3.49,1.17 3.49,1.19 3.5,1.2 3.5,1.22 3.51,1.25 3.51,1.27 3.51,1.29 3.52,1.32 3.52,1.34 3.53,1.36 3.53,1.39 3.53,1.41 3.53,1.44 3.54,1.46 3.54,1.49 3.54,1.51 3.54,1.53 3.54,1.56 3.54,1.58 3.54,1.61 3.54,1.63 3.54,1.66 3.54,1.68 3.54,1.71 3.54,1.73 3.54,1.76 3.53,1.78 3.53,1.81 3.53,1.83 3.52,1.86 3.52,1.88 3.52,1.91 3.51,1.93 3.51,1.96 3.5,1.98 3.5,2.01 3.49,2.03 3.49,2.05 3.48,2.08 3.48,2.1 3.47,2.12 3.46,2.15 3.46,2.17 3.45,2.19 3.44,2.21 3.43,2.23 3.43,2.25 3.42,2.27 3.41,2.29 3.4,2.32 3.39,2.33 3.39,2.35 3.38,2.37 3.37,2.39 3.36,2.41 3.35,2.43 3.34,2.45 3.33,2.47 3.32,2.49 3.31,2.51 3.3,2.53 3.29,2.54 3.28,2.56 3.27,2.58 3.25,2.6 3.24,2.62 3.23,2.64 3.22,2.66 3.21,2.67 3.2,2.68 3.19,2.7 3.18,2.71 3.17,2.72 3.16,2.74 3.15,2.75 3.14,2.77 3.13,2.78 3.12,2.79 3.11,2.81 3.1,2.82 3.08,2.83 3.07,2.85 3.06,2.86 3.05,2.87 3.04,2.89 3.02,2.9 3.01,2.91 3,2.93 2.99,2.94 2.97,2.95 2.96,2.96 2.95,2.98 2.94,2.99 2.92,3 2.91,3.01 2.9,3.02 2.88,3.03 2.87,3.04 2.86,3.05 2.85,3.06 2.84,3.07 2.83,3.08 2.82,3.09 2.81,3.1 2.8,3.1 2.79,3.11 2.78,3.12 2.77,3.12 2.76,3.13 2.75,3.14 2.74,3.14 2.73,3.15 2.72,3.16 2.71,3.16 2.7,3.17 2.69,3.18 2.68,3.18 2.67,3.19 2.66,3.2 2.65,3.2 2.64,3.21 2.63,3.22 2.62,3.22 2.61,3.23 2.6,3.24 2.59,3.24 2.58,3.25 2.57,3.25 2.55,3.26 2.54,3.27 2.53,3.27 2.52,3.28 2.49,3.29 2.46,3.31 2.43,3.32 2.41,3.34 2.38,3.35 2.35,3.36 2.31,3.37 2.28,3.38 2.25,3.39 2.22,3.41 2.19,3.41 2.16,3.42 2.12,3.43 2.09,3.44 2.06,3.45 2.02,3.45 1.99,3.46 1.96,3.47 1.92,3.47 1.89,3.48 1.86,3.48 1.82,3.48 1.79,3.49 1.75,3.49 1.72,3.49 1.69,3.49 1.65,3.49 1.62,3.49 1.59,3.49 1.55,3.49 1.52,3.49 1.49,3.48 1.45,3.48 1.42,3.47 1.38,3.47 1.35,3.46 1.32,3.46 1.28,3.45 1.25,3.44 1.22,3.44 1.18,3.43 1.15,3.42 1.12,3.41 1.09,3.4 1.06,3.39 1.03,3.38 1,3.37 0.97,3.36 0.94,3.34 0.91,3.33 0.88,3.32 0.85,3.3 0.82,3.29 0.79,3.27 0.76,3.26 0.74,3.24 0.71,3.22 0.68,3.21 0.65,3.19 0.63,3.17 0.6,3.15 0.57,3.13 0.55,3.11 0.52,3.09 0.51,3.09 0.51,3.08 0.5,3.07 0.49,3.07 0.48,3.06 0.48,3.06 0.47,3.05 0.46,3.04 0.45,3.04 0.45,3.03 0.44,3.02 0.43,3.02 0.43,3.01 0.42,3 0.41,3 0.41,2.99 0.4,2.99 0.4,2.98 0.39,2.98 0.39,2.97 0.38,2.96 0.37,2.95 0.36,2.94 0.35,2.93 0.34,2.93 0.34,2.92 0.33,2.91 0.32,2.9 0.31,2.9 0.31,2.89 0.3,2.89 "/>
    <polygon id="Vector_101" class="fil2" points="1.39,0.07 1.38,0.07 1.38,0.07 1.37,0.07 1.36,0.08 1.35,0.08 1.34,0.08 1.33,0.08 1.32,0.09 1.31,0.09 1.3,0.09 1.29,0.1 1.27,0.1 1.26,0.11 1.25,0.11 1.23,0.12 1.22,0.12 1.21,0.13 1.19,0.13 1.18,0.14 1.17,0.15 1.15,0.15 1.14,0.16 1.13,0.16 1.12,0.17 1.11,0.17 1.1,0.17 1.09,0.18 1.08,0.18 1.07,0.19 1.07,0.19 1.06,0.19 1.06,0.19 1.05,0.2 1.04,0.2 1.03,0.21 1.02,0.21 1.02,0.22 1.01,0.22 1,0.23 0.99,0.23 0.98,0.24 0.97,0.24 0.96,0.25 0.95,0.25 0.94,0.26 0.93,0.26 0.92,0.27 0.91,0.28 0.9,0.28 0.89,0.29 0.88,0.29 0.87,0.3 0.86,0.31 0.85,0.31 0.84,0.32 0.84,0.32 0.83,0.33 0.82,0.33 0.81,0.34 0.8,0.35 0.79,0.35 0.79,0.36 0.78,0.36 0.77,0.37 0.55,0.56 0.53,0.57 0.52,0.59 0.5,0.61 0.48,0.63 0.46,0.66 0.44,0.68 0.42,0.7 0.4,0.72 0.39,0.75 0.37,0.77 0.35,0.8 0.33,0.82 0.32,0.85 0.3,0.87 0.28,0.9 0.27,0.93 0.25,0.95 0.24,0.98 0.22,1.01 0.21,1.03 0.19,1.06 0.18,1.09 0.17,1.12 0.16,1.14 0.14,1.17 0.13,1.2 0.12,1.22 0.11,1.25 0.1,1.27 0.1,1.3 0.09,1.32 0.08,1.35 0.03,1.55 0.03,1.55 0.03,1.56 0.03,1.56 0.03,1.56 0.03,1.56 0.03,1.57 0.03,1.57 0.03,1.57 0.03,1.58 0.03,1.58 0.03,1.58 0.03,1.59 0.03,1.59 0.03,1.59 0.02,1.6 0.02,1.6 0.02,1.6 0.02,1.6 0.02,1.61 0.02,1.61 0.02,1.61 0.02,1.61 0.02,1.62 0.02,1.62 0.02,1.62 0.02,1.63 0.02,1.63 0.02,1.63 0.02,1.64 0.02,1.64 0.02,1.64 0.02,1.65 0,1.74 0,1.75 0,1.75 0,1.75 0,1.76 0,1.76 0,1.76 0,1.77 0,1.77 0,1.77 0,1.78 0,1.79 0,1.79 0,1.8 0,1.81 0,1.82 0,1.82 0,1.83 0,1.84 0,1.84 0,1.85 0,1.86 0,1.86 0,1.87 0,1.88 0,1.88 -0,1.89 -0,1.89 -0,1.9 0,1.91 0,1.91 0,1.92 0,1.93 0,1.93 0,1.94 0,1.95 0,1.95 0,1.96 0,1.97 0,1.97 0,1.98 0,1.99 0,2 0,2.01 0.01,2.02 0.01,2.03 0.01,2.04 0.01,2.05 0.01,2.06 0.01,2.07 0.01,2.09 0.01,2.1 0.02,2.11 0.02,2.13 0.02,2.14 0.02,2.15 0.02,2.17 0.02,2.18 0.03,2.19 0.03,2.2 0.03,2.22 0.03,2.23 0.04,2.24 0.04,2.26 0.04,2.27 0.04,2.28 0.04,2.29 0.05,2.3 0.05,2.31 0.05,2.32 0.06,2.33 0.06,2.34 0.06,2.35 0.16,2.52 0.17,2.54 0.18,2.55 0.18,2.56 0.19,2.57 0.2,2.57 0.2,2.58 0.21,2.59 0.21,2.6 0.22,2.61 0.23,2.61 0.23,2.62 0.24,2.63 0.24,2.64 0.25,2.65 0.26,2.65 0.27,2.66 0.29,2.69 0.28,2.68 0.28,2.68 0.28,2.67 0.28,2.67 0.28,2.66 0.27,2.65 0.27,2.65 0.27,2.64 0.26,2.64 0.26,2.63 0.26,2.62 0.25,2.62 0.25,2.61 0.25,2.6 0.24,2.6 0.24,2.59 0.23,2.58 0.23,2.57 0.23,2.57 0.22,2.56 0.22,2.55 0.21,2.54 0.21,2.53 0.21,2.52 0.2,2.51 0.2,2.51 0.19,2.5 0.19,2.49 0.19,2.48 0.18,2.47 0.18,2.46 0.17,2.45 0.15,2.4 0.14,2.34 0.12,2.29 0.11,2.24 0.1,2.18 0.09,2.13 0.08,2.07 0.07,2.02 0.07,1.96 0.07,1.91 0.07,1.85 0.07,1.79 0.08,1.74 0.08,1.68 0.09,1.63 0.1,1.57 0.11,1.52 0.12,1.47 0.14,1.41 0.16,1.36 0.18,1.31 0.2,1.26 0.22,1.2 0.24,1.15 0.27,1.1 0.3,1.06 0.33,1.01 0.36,0.96 0.39,0.92 0.43,0.87 0.46,0.83 0.5,0.79 0.51,0.78 0.51,0.78 0.52,0.77 0.53,0.76 0.53,0.76 0.54,0.75 0.54,0.75 0.55,0.74 0.55,0.74 0.56,0.73 0.56,0.73 0.57,0.72 0.58,0.71 0.58,0.71 0.59,0.7 0.59,0.7 0.6,0.69 0.6,0.69 0.61,0.68 0.62,0.68 0.62,0.67 0.63,0.67 0.64,0.66 0.64,0.65 0.65,0.65 0.66,0.64 0.66,0.64 0.67,0.64 0.67,0.63 0.68,0.63 0.69,0.62 0.69,0.61 0.7,0.61 0.7,0.6 0.71,0.6 0.71,0.6 0.72,0.59 0.73,0.59 0.73,0.58 0.74,0.58 0.75,0.57 0.75,0.57 0.76,0.56 0.77,0.56 0.78,0.55 0.78,0.55 0.79,0.54 0.8,0.54 0.81,0.53 0.81,0.53 0.82,0.52 0.83,0.52 0.84,0.51 0.85,0.51 0.85,0.5 0.86,0.5 0.87,0.5 0.87,0.49 0.88,0.49 0.89,0.48 0.89,0.48 0.9,0.48 0.9,0.47 0.91,0.47 0.93,0.46 0.96,0.45 0.98,0.43 1.01,0.42 1.03,0.41 1.06,0.4 1.08,0.39 1.11,0.38 1.13,0.37 1.16,0.36 1.19,0.35 1.21,0.34 1.24,0.34 1.26,0.33 1.29,0.32 1.32,0.32 1.34,0.31 1.37,0.3 1.4,0.3 1.43,0.29 1.45,0.29 1.48,0.29 1.51,0.28 1.54,0.28 1.56,0.28 1.59,0.28 1.62,0.28 1.65,0.28 1.68,0.28 1.71,0.28 1.74,0.28 1.76,0.28 1.8,0.28 1.83,0.28 1.87,0.29 1.9,0.29 1.94,0.3 1.97,0.3 2.01,0.31 2.04,0.32 2.07,0.33 2.11,0.34 2.14,0.35 2.17,0.36 2.21,0.37 2.24,0.38 2.27,0.39 2.3,0.41 2.33,0.42 2.36,0.43 2.39,0.45 2.42,0.47 2.45,0.48 2.48,0.5 2.51,0.52 2.54,0.54 2.57,0.56 2.6,0.58 2.62,0.6 2.65,0.62 2.68,0.64 2.7,0.66 2.73,0.68 2.75,0.71 2.75,0.71 2.76,0.71 2.76,0.72 2.76,0.72 2.77,0.72 2.77,0.73 2.77,0.73 2.78,0.73 2.78,0.73 2.78,0.74 2.78,0.74 2.79,0.74 2.79,0.74 2.79,0.75 2.8,0.75 2.8,0.75 2.79,0.73 2.79,0.73 2.79,0.73 2.79,0.73 2.78,0.72 2.78,0.72 2.78,0.72 2.78,0.72 2.78,0.71 2.77,0.7 2.76,0.69 2.76,0.69 2.75,0.68 2.74,0.67 2.74,0.66 2.73,0.65 2.73,0.65 2.72,0.64 2.71,0.63 2.71,0.62 2.7,0.62 2.7,0.61 2.69,0.6 2.69,0.6 2.68,0.59 2.67,0.58 2.67,0.58 2.66,0.57 2.66,0.56 2.65,0.56 2.64,0.55 2.64,0.54 2.63,0.54 2.62,0.53 2.62,0.52 2.61,0.51 2.6,0.51 2.59,0.5 2.58,0.49 2.57,0.48 2.57,0.47 2.56,0.47 2.55,0.46 2.54,0.45 2.53,0.44 2.52,0.44 2.52,0.43 2.51,0.42 2.5,0.42 2.49,0.41 2.48,0.4 2.47,0.39 2.46,0.39 2.45,0.38 2.44,0.37 2.43,0.37 2.42,0.36 2.41,0.35 2.4,0.35 2.39,0.34 2.39,0.33 2.37,0.32 2.36,0.32 2.35,0.31 2.34,0.31 2.33,0.3 2.32,0.29 2.31,0.29 2.3,0.28 2.29,0.27 2.28,0.27 2.27,0.26 2.26,0.25 2.24,0.24 2.21,0.23 2.19,0.22 2.17,0.21 2.14,0.2 2.12,0.19 2.09,0.18 2.07,0.17 2.04,0.16 2.01,0.15 1.99,0.14 1.96,0.13 1.93,0.12 1.9,0.12 1.87,0.11 1.85,0.1 1.82,0.1 1.79,0.09 1.76,0.09 1.73,0.08 1.7,0.08 1.67,0.07 1.64,0.07 1.61,0.07 1.58,0.07 1.55,0.07 1.53,0.07 1.5,0.07 1.47,0.07 1.44,0.07 1.41,0.07 "/>
    <polygon id="Vector_102" class="fil1" points="0.53,0.89 0.8,1.26 0.71,1.6 1,2.09 1.29,2.47 1.73,2.45 1.47,1.99 1.5,1.72 1.7,1.96 1.83,1.64 2.2,1.66 1.97,1.51 2.5,1.68 2.76,1.36 2.88,1.32 2.89,1.21 2.71,0.79 2.4,0.67 2.32,0.8 2.56,0.91 2.66,1.18 2.46,1.34 2.08,0.9 1.57,0.73 1.41,0.76 1.08,0.63 "/>
    <polygon id="Vector_103" class="fil3" points="2.46,1.34 2.23,1.06 2.18,1.23 1.97,1.28 1.62,1.32 1.83,1.64 2.2,1.66 1.97,1.51 2.5,1.68 "/>
    <polygon id="Vector_104" class="fil4" points="2.4,0.67 2.32,0.8 2.56,0.91 2.71,0.79 "/>
    <polygon id="Vector_105" class="fil5" points="2.66,1.18 2.56,0.91 2.71,0.79 2.89,1.21 "/>
    <polygon id="Vector_106" class="fil6" points="2.46,1.34 2.5,1.68 2.89,1.21 2.66,1.18 "/>
    <polygon id="Vector_107" class="fil7" points="2.88,1.32 2.36,1.4 2.27,1.34 2.14,1.46 2.34,1.5 "/>
    <polygon id="Vector_108" class="fil5" points="2.18,1.23 2.27,1.34 2.13,1.47 1.95,1.43 1.97,1.28 "/>
    <polygon id="Vector_109" class="fil8" points="2.08,0.89 1.84,1.06 1.97,1.28 2.18,1.23 2.23,1.06 "/>
    <polygon id="Vector_110" class="fil9" points="1.8,0.8 1.63,0.89 1.51,0.99 1.84,1.06 2.08,0.9 "/>
    <polygon id="Vector_111" class="fil3" points="1.43,1.19 1.62,1.32 1.97,1.28 1.84,1.06 1.51,0.99 "/>
    <polygon id="Vector_112" class="fil6" points="1.63,0.89 1.13,0.81 1.51,1 "/>
    <polygon id="Vector_113" class="fil10" points="1.8,0.8 1.57,0.73 1.41,0.76 1.47,0.87 1.64,0.89 "/>
    <polygon id="Vector_114" class="fil10" points="1.13,0.81 1.03,1.18 1.43,1.19 1.51,1 "/>
    <polygon id="Vector_115" class="fil11" points="1.83,1.64 1.53,1.38 1.62,1.32 "/>
    <polygon id="Vector_116" class="fil12" points="1.43,1.19 1.53,1.38 1.62,1.32 "/>
    <polygon id="Vector_117" class="fil13" points="1.83,1.64 1.7,1.96 1.03,1.18 1.43,1.19 1.53,1.38 "/>
    <polygon id="Vector_118" class="fil2" points="1.08,0.63 1.22,0.82 1.13,0.81 1.09,0.95 0.53,0.89 "/>
    <polygon id="Vector_119" class="fil12" points="1.41,0.76 1.08,0.63 1.22,0.82 1.47,0.87 "/>
    <polygon id="Vector_120" class="fil10" points="1.18,1.35 0.8,1.26 0.53,0.89 1.09,0.95 1.03,1.18 "/>
    <polygon id="Vector_121" class="fil12" points="1.5,1.72 0.71,1.6 0.8,1.26 1.18,1.35 "/>
    <polygon id="Vector_122" class="fil11" points="1,2.09 0.71,1.6 1.5,1.72 "/>
    <polygon id="Vector_123" class="fil14" points="1.47,1.99 1,2.09 1.5,1.72 "/>
    <polygon id="Vector_124" class="fil6" points="1.29,2.47 1,2.09 1.47,1.99 "/>
    <polygon id="Vector_125" class="fil10" points="1.73,2.45 1.29,2.47 1.47,1.99 "/>
    <polygon id="Vector_126" class="fil0" points="2.05,1.09 1.95,1.06 1.97,1.12 2.01,1.13 "/>
    <polygon id="Vector_127" class="fil15" points="0.71,1.21 0.57,1.21 0.57,1.35 0.71,1.35 "/>
    <polygon id="Vector_128" class="fil16" points="0.43,1.14 0.34,1.14 0.34,1.23 0.43,1.23 "/>
    <polygon id="Vector_129" class="fil15" points="0.53,1 0.46,1 0.46,1.07 0.53,1.07 "/>
    <polygon id="Vector_130" class="fil16" points="0.35,1.31 0.26,1.31 0.26,1.4 0.35,1.4 "/>
    <polygon id="Vector_131" class="fil16" points="0.56,1.43 0.49,1.43 0.49,1.5 0.56,1.5 "/>
    <polygon id="Vector_132" class="fil15" points="0.5,1.32 0.46,1.32 0.46,1.35 0.5,1.35 "/>
    <polygon id="Vector_133" class="fil15" points="0.66,1.46 0.63,1.46 0.63,1.5 0.66,1.5 "/>
    <polygon id="Vector_134" class="fil17" points="0.42,1.5 0.28,1.5 0.28,1.64 0.42,1.64 "/>
    <polygon id="Vector_135" class="fil18" points="0.25,1.65 0.21,1.65 0.21,1.68 0.25,1.68 "/>
    <polygon id="Vector_136" class="fil16" points="0.66,1.64 0.59,1.64 0.59,1.71 0.66,1.71 "/>
    <polygon id="Vector_137" class="fil15" points="0.52,1.74 0.45,1.74 0.45,1.81 0.52,1.81 "/>
    <polygon id="Vector_138" class="fil16" points="0.55,1.89 0.48,1.89 0.48,1.96 0.55,1.96 "/>
    <polygon id="Vector_139" class="fil16" points="0.8,1.83 0.66,1.83 0.66,1.97 0.8,1.97 "/>
    <polygon id="Vector_140" class="fil15" points="0.32,1.82 0.29,1.82 0.29,1.86 0.32,1.86 "/>
    <polygon id="Vector_141" class="fil19" points="0.51,2.07 0.44,2.07 0.44,2.14 0.51,2.14 "/>
    <polygon id="Vector_142" class="fil16" points="0.75,2.04 0.69,2.04 0.69,2.11 0.75,2.11 "/>
    <polygon id="Vector_143" class="fil18" points="0.92,2.11 0.89,2.11 0.89,2.14 0.92,2.14 "/>
    <polygon id="Vector_144" class="fil18" points="0.76,2.21 0.73,2.21 0.73,2.24 0.76,2.24 "/>
    <polygon id="Vector_145" class="fil18" points="0.6,2.25 0.56,2.25 0.56,2.28 0.6,2.28 "/>
    <polygon id="Vector_146" class="fil19" points="0.76,2.29 0.69,2.29 0.69,2.36 0.76,2.36 "/>
    <polygon id="Vector_147" class="fil19" points="0.96,2.27 0.89,2.27 0.89,2.34 0.96,2.34 "/>
    <polygon id="Vector_148" class="fil19" points="0.89,2.4 0.83,2.4 0.83,2.46 0.89,2.46 "/>
    <polygon id="Vector_149" class="fil15" points="0.71,2.41 0.64,2.41 0.64,2.48 0.71,2.48 "/>
    <polygon id="Vector_150" class="fil15" points="0.97,2.54 0.93,2.54 0.93,2.58 0.97,2.58 "/>
    <polygon id="Vector_151" class="fil15" points="0.9,2.58 0.83,2.58 0.83,2.65 0.9,2.65 "/>
    <polygon id="Vector_152" class="fil15" points="1.05,2.74 1.01,2.74 1.01,2.77 1.05,2.77 "/>
    <polygon id="Vector_153" class="fil19" points="1.1,2.39 1.02,2.39 1.02,2.47 1.1,2.47 "/>
    <polygon id="Vector_154" class="fil19" points="1.32,2.54 1.18,2.54 1.18,2.68 1.32,2.68 "/>
    <polygon id="Vector_155" class="fil15" points="1.12,2.61 1.05,2.61 1.05,2.67 1.12,2.67 "/>
    <polygon id="Vector_156" class="fil15" points="1.18,2.69 1.15,2.69 1.15,2.72 1.18,2.72 "/>
    <polygon id="Vector_157" class="fil15" points="1.18,2.78 1.11,2.78 1.11,2.85 1.18,2.85 "/>
    <polygon id="Vector_158" class="fil15" points="1.38,2.87 1.31,2.87 1.31,2.94 1.38,2.94 "/>
    <polygon id="Vector_159" class="fil15" points="1.51,2.78 1.42,2.78 1.42,2.87 1.51,2.87 "/>
    <polygon id="Vector_160" class="fil19" points="1.47,2.54 1.4,2.54 1.4,2.61 1.47,2.61 "/>
    <polygon id="Vector_161" class="fil20" points="1.84,2.56 1.7,2.56 1.7,2.7 1.84,2.7 "/>
    <polygon id="Vector_162" class="fil15" points="1.5,2.7 1.47,2.7 1.47,2.74 1.5,2.74 "/>
    <polygon id="Vector_163" class="fil15" points="1.62,2.6 1.58,2.6 1.58,2.63 1.62,2.63 "/>
    <polygon id="Vector_164" class="fil15" points="1.65,2.83 1.58,2.83 1.58,2.89 1.65,2.89 "/>
    <polygon id="Vector_165" class="fil15" points="1.28,2.81 1.25,2.81 1.25,2.85 1.28,2.85 "/>
    <polygon id="Vector_166" class="fil18" points="1.58,2.95 1.55,2.95 1.55,2.98 1.58,2.98 "/>
    <polygon id="Vector_167" class="fil15" points="1.92,2.66 1.88,2.66 1.88,2.7 1.92,2.7 "/>
    <polygon id="Vector_168" class="fil15" points="2.15,3.04 2.11,3.04 2.11,3.07 2.15,3.07 "/>
    <polygon id="Vector_169" class="fil15" points="2.23,2.86 2.2,2.86 2.2,2.9 2.23,2.9 "/>
    <polygon id="Vector_170" class="fil17" points="2.34,2.89 2.31,2.89 2.31,2.93 2.34,2.93 "/>
    <polygon id="Vector_171" class="fil19" points="2.46,2.98 2.43,2.98 2.43,3.01 2.46,3.01 "/>
    <polygon id="Vector_172" class="fil17" points="2.83,2.75 2.79,2.75 2.79,2.78 2.83,2.78 "/>
    <polygon id="Vector_173" class="fil19" points="2.58,2.93 2.55,2.93 2.55,2.96 2.58,2.96 "/>
    <polygon id="Vector_174" class="fil15" points="1.88,2.83 1.8,2.83 1.8,2.92 1.88,2.92 "/>
    <polygon id="Vector_175" class="fil15" points="2.09,2.92 2.01,2.92 2.01,3.01 2.09,3.01 "/>
    <polygon id="Vector_176" class="fil15" points="2.08,2.77 2.01,2.77 2.01,2.84 2.08,2.84 "/>
    <polygon id="Vector_177" class="fil15" points="1.96,3 1.9,3 1.9,3.07 1.96,3.07 "/>
    <polygon id="Vector_178" class="fil15" points="1.83,2.96 1.76,2.96 1.76,3.03 1.83,3.03 "/>
    <polygon id="Vector_179" class="fil15" points="2.31,2.99 2.24,2.99 2.24,3.05 2.31,3.05 "/>
    <polygon id="Vector_180" class="fil17" points="2.5,2.86 2.43,2.86 2.43,2.93 2.5,2.93 "/>
    <polygon id="Vector_181" class="fil17" points="2.72,2.81 2.65,2.81 2.65,2.88 2.72,2.88 "/>
   </g>
  </g>
 </g>
</svg>
