<?xml version="1.0" encoding="UTF-8"?>
<!DOCTYPE svg PUBLIC "-//W3C//DTD SVG 1.1//EN" "http://www.w3.org/Graphics/SVG/1.1/DTD/svg11.dtd">
<!-- Creator: CorelDRAW -->
<svg xmlns="http://www.w3.org/2000/svg" xml:space="preserve" width="6.62756in" height="6.62756in" version="1.1" style="shape-rendering:geometricPrecision; text-rendering:geometricPrecision; image-rendering:optimizeQuality; fill-rule:evenodd; clip-rule:evenodd"
viewBox="0 0 198.88 198.88"
 xmlns:xlink="http://www.w3.org/1999/xlink"
 xmlns:xodm="http://www.corel.com/coreldraw/odm/2003">
 <defs>
  <style type="text/css">
   <![CDATA[
    .fil17 {fill:none}
    .fil6 {fill:black}
    .fil8 {fill:#21AD62}
    .fil15 {fill:#2CBD70}
    .fil13 {fill:#39DB84}
    .fil12 {fill:#40DE8A}
    .fil11 {fill:#46D98A}
    .fil9 {fill:#4BE894}
    .fil14 {fill:#4FE394}
    .fil10 {fill:#53F19C}
    .fil7 {fill:#7CFFB0}
    .fil16 {fill:#CCCCCC}
    .fil0 {fill:#B3B3B3;fill-rule:nonzero}
    .fil2 {fill:#CCCCCC;fill-rule:nonzero}
    .fil5 {fill:#D78B05;fill-rule:nonzero}
    .fil4 {fill:#D9A112;fill-rule:nonzero}
    .fil1 {fill:#E6E6E6;fill-rule:nonzero}
    .fil3 {fill:#EABC25;fill-rule:nonzero}
   ]]>
  </style>
 </defs>
 <g id="Layer_x0020_1">
  <metadata id="CorelCorpID_0Corel-Layer"/>
  <g id="_105553257920928">
   <g>
    <g>
     <path class="fil0" d="M28.83 27.23l-10.72 13.52c-16.21,19.19 -8.66,57.54 16.25,91.3 3.83,5.22 8.11,10.35 12.76,15.26 5.44,5.73 11.08,10.86 16.8,15.3 30.89,24.19 64.2,29.64 80.03,10.94l11.89 -14.99 -127.01 -131.32 0 -0 0 0z"/>
     <path class="fil1" d="M63.92 162.6l9.83 -12.39c-5.73,-4.49 -11.37,-9.6 -16.8,-15.34 -4.65,-4.91 -8.91,-10.02 -12.76,-15.23l-9.83 12.4c3.83,5.22 8.11,10.35 12.76,15.26 5.44,5.73 11.08,10.86 16.8,15.3l0 0 -0 0z"/>
     <path class="fil2" d="M27.96 28.34c-18.73,22.17 -5.75,69.86 28.99,106.54 34.75,36.67 78.1,48.43 96.82,26.26 18.73,-22.17 5.75,-69.86 -28.99,-106.54 -34.75,-36.67 -78.1,-48.43 -96.82,-26.26z"/>
     <path class="fil3" d="M41.82 42.97c-14.61,17.28 -4.49,54.47 22.6,83.07 27.09,28.59 60.9,37.76 75.5,20.47 14.61,-17.28 4.49,-54.47 -22.6,-83.07 -27.09,-28.59 -60.9,-37.76 -75.5,-20.47z"/>
     <path class="fil4" d="M145.13 112.75c-3.52,-15.96 -13.2,-33.89 -27.81,-49.31 -1.6,-1.68 -3.22,-3.31 -4.86,-4.86 1.64,1.55 3.26,3.18 4.86,4.86 14.62,15.42 24.29,33.36 27.81,49.31z"/>
     <path class="fil0" d="M103.17 152.3c15.15,5.13 28.81,3.63 36.75,-5.8 6.72,-7.96 8.22,-20.14 5.21,-33.76 -3.52,-15.96 -13.2,-33.89 -27.81,-49.31 -1.6,-1.68 -3.22,-3.31 -4.86,-4.86 -4.71,-4.46 -9.58,-8.34 -14.48,-11.62 -9.09,-6.09 -18.24,-10.07 -26.68,-11.76 6.32,2.14 12.88,5.43 19.41,9.81 6.58,4.41 13.12,9.92 19.33,16.46 27.09,28.59 37.21,65.78 22.6,83.07 -6.65,7.88 -17.31,10.2 -29.48,7.76l0.01 0.01 0 0z"/>
     <path class="fil5" d="M79.59 125.15l2.94 -3.57c2.32,2.01 4.59,3.74 6.77,5.2 9.46,6.34 17.29,7.35 21.71,2l-18.29 -19.35c-1.43,1.75 -3.97,1.2 -6.69,-0.62 -1.35,-0.9 -2.75,-2.12 -4.08,-3.53 -3.71,-3.93 -6.33,-8.8 -4.69,-10.79 1.02,-1.22 3.07,-0.46 5.82,1.38 2.38,1.59 5.28,4 8.44,6.61 3.69,3.03 7.73,6.37 11.72,9.04 7.23,4.84 14.29,7.49 18.7,2.15 4.96,-6 1.61,-16.76 -8.5,-29.51l3.54 -4.28 -14.97 -15.72 -3.6 4.35c-1.92,-1.63 -3.79,-3.04 -5.57,-4.23 -8.93,-5.98 -16,-6.59 -20.14,-1.58l17.77 18.81c1.26,-1.53 3.41,-1.1 5.79,0.48 1.2,0.81 2.47,1.92 3.71,3.23 3.16,3.34 5.55,7.33 4.15,9.02 -0.91,1.1 -2.88,0.35 -5.54,-1.43 -2.33,-1.56 -5.19,-3.91 -8.35,-6.49 -3.7,-3.02 -7.8,-6.35 -11.86,-9.07 -7.57,-5.07 -15,-7.97 -19.47,-2.56 -5.43,6.57 -1.32,18.33 8.7,31.15l-2.97 3.6 14.97 15.72 -0.03 -0.02 0 -0z"/>
     <g id="_105553280201600_0">
      <g id="_105553240688960_1">
       <circle class="fil6" transform="matrix(3.23054 2.85105 -8.9501E-001 2.66136 87.5571 94.1997)" r="15.62"/>
       <path class="fil7" d="M99.43 58.09c24.61,21.72 39.03,55.76 32.22,76.04 -6.82,20.27 -32.3,19.1 -56.9,-2.61 -24.61,-21.72 -39.03,-55.76 -32.22,-76.04 6.82,-20.27 32.3,-19.1 56.9,2.61zm-0.96 2.85c22.7,20.03 36.01,51.44 29.72,70.14 -6.29,18.7 -29.79,17.62 -52.49,-2.42 -22.7,-20.03 -36,-51.43 -29.71,-70.13 6.29,-18.7 29.79,-17.62 52.49,2.42l-0.01 -0.01 0 0z"/>
       <path class="fil8" d="M100.69 57.47c25.06,22.11 39.74,56.77 32.8,77.42 -6.95,20.64 -32.88,19.45 -57.94,-2.67 -25.06,-22.11 -39.74,-56.78 -32.8,-77.42 6.94,-20.64 32.88,-19.45 57.94,2.67zm-0.98 2.9c23.12,20.4 36.66,52.38 30.25,71.41 -6.41,19.04 -30.34,17.94 -53.44,-2.45 -23.12,-20.4 -36.66,-52.38 -30.25,-71.41 6.41,-19.04 30.34,-17.94 53.44,2.45z"/>
       <g>
        <path class="fil9" d="M57.56 47.31c1.67,2.44 -0.52,6.88 -1.15,7.96 -1.14,1.98 -2.62,3.78 -4.05,5.4 -3.54,4.01 -6.77,8.7 -7.48,14.55 0.77,5.69 2.52,11.77 5.11,17.88 1.26,1.98 2.78,4.03 4.58,6.19 1.91,2.29 6.41,7.12 8.83,8.97l0.04 -0.18c-0.69,-1.31 -1.22,-3.07 -1.55,-4.38 -1.25,-4.93 -0.31,-8.7 2.68,-9.92 0.88,-0.36 1.79,-0.6 2.88,-0.44 2.54,0.38 2.98,0.06 6.61,1.11 1.14,0.33 2.27,0.64 3.46,0.91l2.61 0.66c0.07,0.02 0.4,0.09 0.47,0.11 0.23,0.06 0.14,0.05 0.35,0.09 3.42,0.86 6.68,1.26 9.59,0.92 7.61,-0.92 5.8,-8.89 6.25,-10.9 -0.41,-1.2 -2.4,-4.74 -3.48,-6.28l-0.09 0.14c-0.2,0.84 2.76,9.17 -2.46,12.55 -2.7,1.75 -7.24,0.99 -12.67,-3.77 -0.04,0.08 -0.14,0.26 -0.22,0.31 -0.28,0.19 -0.15,0.06 -0.41,0.05 -1.97,2.29 -6.97,1.08 -11.45,-2.53 -5.59,-4.5 -8.84,-9.64 -10.21,-14.22 -2.96,-9.89 3.97,-12.79 4.55,-18.62 0.19,-1.91 -0.66,-5.65 -2.82,-6.56l0 0 0.02 0.02 -0 0z"/>
        <path class="fil10" d="M63.45 108.09c0.65,-6.52 5.71,-11.88 8.32,-7.73 1.79,2.85 6.06,5.33 8.44,6.84 1.42,0.9 2.81,1.67 4.21,2.69 2.26,1.65 2.6,2.49 3.93,4.33 1.13,-3.57 -6.37,-12.47 -6.65,-16.49 1.32,2.82 0.68,2.06 2.68,5.78 6.91,12.86 20.52,25.29 30.39,25.3 0.77,-0 3.87,0.06 3.36,-1.87 -0.5,-0.29 -0.45,-0.19 -0.84,-0.18 -1.06,0.03 -0.76,0.21 -2.24,-0.04 -1.18,-0.2 -1.89,-0.31 -3.28,-0.76 -5.44,-1.76 -11.29,-6.7 -15.76,-12.73 -1.52,-2.04 -4.48,-6.81 -4.89,-8.3 1.04,1.21 2.25,3.06 3.51,4.56 6.7,7.99 14.64,12.27 20.18,9.88 1.54,-0.66 4.05,-2.35 4.77,-4.5l0.17 -0.55c-1.67,0.8 -1.62,1.65 -4.74,0.75 -5.91,-1.72 -11.17,-7.57 -13.91,-14.34 -0.36,-0.88 -0.97,-2.63 -1.12,-3.53 -0.09,-0.5 -0.51,-1.25 -0.82,-2.64 -0.21,-0.94 -0.33,-1.75 -0.48,-2.72 -0.27,-1.78 -0.97,-4.03 -1.84,-5.61 -0.46,2.02 1.35,9.99 -6.25,10.9 -2.91,0.34 -6.16,-0.06 -9.59,-0.92 -0.22,-0.05 -0.13,-0.04 -0.35,-0.09 -0.07,-0.02 -0.39,-0.09 -0.47,-0.11l-2.61 -0.66c-1.19,-0.26 -2.32,-0.58 -3.46,-0.91 -3.63,-1.05 -4.06,-0.72 -6.61,-1.11 -1.1,-0.16 -2.01,0.08 -2.88,0.44 -3,1.22 -3.94,5 -2.68,9.92 0.34,1.32 0.85,3.07 1.55,4.38l-0 0.01 -0.01 0 0 0z"/>
        <path class="fil8" d="M49.5 44.98c-0.13,0.57 -2.33,2.16 -2.82,2.8 -0.82,1.1 -1.76,1.99 -2.43,3.33 -0.61,1.22 -1.13,2.54 -1.56,3.92 1.78,-4.99 5.35,-8.22 9.13,-10.54 -1.48,-0.57 -1.01,-0.16 -1.91,0.36l-0.41 0.13 0 0 0 0 0 0zm8.94 68.43c1.8,2.59 4.08,5.64 5.85,7.66l0.24 0.15 -0 -0.08c-2.15,-2.5 -4.19,-5.09 -6.09,-7.73l-0 0 0 -0zm5.16 2.45c-0.07,-0.55 -0.13,-1.05 -0.17,-1.45 -0.24,-2.33 -0.09,-4.1 -0.04,-6.14 -2.42,-1.85 -6.91,-6.68 -8.83,-8.97 -1.8,-2.15 -3.33,-4.21 -4.58,-6.19 3.29,7.75 7.92,15.56 13.62,22.75l0 0 -0.01 -0.01 0 0zm-18.73 -40.63c0.71,-5.85 3.94,-10.55 7.48,-14.55 1.43,-1.62 2.9,-3.42 4.05,-5.4 0.63,-1.09 2.82,-5.53 1.15,-7.96 -0.26,-0.21 -0.57,-0.44 -0.92,-0.65 -4.9,1.97 -8.64,5.92 -10.64,11.86 -1.63,4.85 -1.94,10.56 -1.11,16.71l0 -0.01z"/>
        <path class="fil10" d="M78.1 88.87c5.43,4.77 9.97,5.53 12.67,3.77 5.22,-3.38 2.26,-11.7 2.46,-12.55l0.09 -0.14 -0.59 -0.92c-0.18,3.48 -1.66,3.35 -3.72,3.21 -2.96,-0.2 -6.52,-3.9 -8.96,-7.05 -0.16,-0.2 -0.39,-0.49 -0.58,-0.75l-6.16 -10.32c-0.44,-0.93 -0.81,-1.78 -1.28,-2.76 -0.45,-0.92 -0.87,-1.94 -1.27,-2.74 -0.11,-0.22 -0.26,-0.5 -0.38,-0.73 -0.08,-0.14 -0.15,-0.28 -0.23,-0.44l-2.65 -4.37c-1.51,-2.21 -3.17,-3.67 -5.08,-5.49 0.55,1.01 4.09,4.56 5.43,10.47 1.37,6.09 0.43,13.73 2.95,20.49 1.52,4.07 3.36,6.73 7.33,10.33l0 0 -0.02 -0 0 -0z"/>
        <path class="fil11" d="M77.48 89.23c0.26,0.01 0.13,0.14 0.41,-0.05 0.08,-0.05 0.18,-0.24 0.22,-0.32 -3.96,-3.6 -5.81,-6.26 -7.33,-10.33 -2.52,-6.76 -1.58,-14.39 -2.95,-20.49 -1.34,-5.91 -4.88,-9.46 -5.43,-10.47l-1.16 -1.17c-0.27,-0.23 -0.67,-0.52 -1.11,-0.79 -0.59,0.11 -1.16,0.26 -1.72,0.43 1.37,2.42 5.15,6.61 2.26,12.28 -1.89,3.71 -4.22,7.23 -3.52,12.66 0.56,4.37 3.38,9.39 8.42,14.21 5.23,5.01 9.47,5.56 11.93,4.05l0 0 -0 0.01 0 0z"/>
        <path class="fil7" d="M108.28 102.78c-1.19,0.18 -1.95,0.53 -3.89,-0.76 -0.82,-0.54 -1.82,-1.46 -2.53,-2.26 -1.03,-1.15 -1.19,-1.61 -1.91,-2.57 0.15,0.9 0.77,2.65 1.12,3.53 2.74,6.77 8,12.63 13.91,14.33 3.12,0.9 3.07,0.06 4.74,-0.75l-0.17 0.55c1.21,-0.77 1.78,-5.94 1.76,-7.82 -0.04,-4.95 -2.32,-11.16 -5.44,-16.67 -1.99,-3.52 -3.37,-5.14 -5.93,-8.57l1.97 3.58c0.86,1.57 1.18,2.77 1.71,4.33 2.06,6.06 1.31,15.89 -5.35,13.08l0 0 0.01 -0 -0 0z"/>
        <path class="fil7" d="M61.23 46.41l1.17 1.17c1.91,1.82 3.57,3.28 5.08,5.49l2.65 4.37c0.08,0.16 0.16,0.3 0.23,0.44 0.12,0.22 0.27,0.5 0.38,0.73 0.4,0.8 0.83,1.83 1.27,2.74 0.47,0.98 0.84,1.83 1.28,2.76l6.16 10.32c0.2,0.27 0.43,0.54 0.58,0.75 2.44,3.15 5.99,6.85 8.96,7.05 2.07,0.14 3.54,0.28 3.72,-3.21 -0.37,-1.1 -5.15,-7.72 -5.76,-8.5 -5.35,-6.91 -10.06,-12.04 -16.54,-17.49 -2.13,-1.8 -7.45,-5.97 -9.18,-6.62l0 0 0 0z"/>
        <path class="fil12" d="M88.36 60.44c-0.82,2.42 -0.75,4.56 1.02,7.58 4.65,7.91 6.55,1.59 17.38,19.83 0.84,1.41 1.31,2.36 1.93,3.77 0.99,2.29 1.83,4.99 1.64,7.45 0.77,-0.18 0.82,-2.6 0.78,-3.26 -0.11,-1.96 -0.18,-2.14 -0.71,-4.09 -0.02,-0.08 -0.11,-0.42 -0.12,-0.44l-0.96 -2.88 -5.22 -9.55c-7.74,-12.77 -13.04,-9.06 -10.46,-16.31 -3.52,-2.54 -3.32,-2.79 -5.26,-2.07l0 0 -0.01 -0.01 0 -0z"/>
        <path class="fil13" d="M110.32 99.06c-0.21,2.02 -0.81,3.05 -2.04,3.73 6.66,2.81 7.41,-7.02 5.35,-13.08 -0.53,-1.56 -0.85,-2.75 -1.7,-4.33l-1.97 -3.58c-5.18,-5.63 -7.45,-8.02 -13.46,-12.01 1.26,1.36 2.38,2.51 3.31,3.76 1.24,1.66 3.2,3.48 4.28,5.26l5.22 9.55 0.96 2.88c0,0.02 0.1,0.37 0.12,0.44 0.54,1.96 0.6,2.13 0.71,4.09 0.04,0.67 -0.01,3.09 -0.78,3.26l0 0 -0.01 0.01 0 0z"/>
        <path class="fil6" d="M86.7 82.57c-0.34,3.01 -0.21,2.89 3.16,6.43 -0.43,-3.42 0.1,-2.24 -3.16,-6.43z"/>
       </g>
       <path class="fil9" d="M57.56 47.31c1.67,2.44 -0.52,6.88 -1.15,7.96 -1.14,1.98 -2.62,3.78 -4.05,5.4 -3.54,4.01 -6.77,8.7 -7.48,14.55 0.77,5.69 2.52,11.77 5.11,17.88 1.26,1.98 2.78,4.03 4.58,6.19 1.91,2.29 6.41,7.12 8.83,8.97l0.04 -0.18c-0.69,-1.31 -1.22,-3.07 -1.55,-4.38 -1.25,-4.93 -0.31,-8.7 2.68,-9.92 0.88,-0.36 1.79,-0.6 2.88,-0.44 2.1,0.31 2.76,0.16 4.98,0.68 0.38,-0.16 0.83,-0.27 1.17,-0.42 0.5,-0.24 0.77,-0.58 1.24,-1.14 0.46,-0.55 1.12,-1.3 1.62,-1.86 0.5,-0.56 0.85,-0.94 1.63,-1.14 0.17,-0.04 0.35,-0.08 0.55,-0.11 -0.18,-0.15 -0.37,-0.31 -0.56,-0.48 -0.04,0.08 -0.14,0.26 -0.22,0.31 -0.28,0.19 -0.15,0.06 -0.41,0.05 -1.97,2.29 -6.97,1.08 -11.45,-2.53 -5.59,-4.5 -8.84,-9.64 -10.21,-14.22 -2.96,-9.89 3.97,-12.79 4.55,-18.62 0.19,-1.91 -0.66,-5.65 -2.82,-6.56l0 0 0.02 0.03 -0 0z"/>
       <path class="fil10" d="M63.45 108.09c0.65,-6.52 5.71,-11.88 8.32,-7.73 1.79,2.85 6.06,5.33 8.44,6.84 1.42,0.9 2.81,1.67 4.21,2.69 2.26,1.65 2.6,2.49 3.93,4.33 1.13,-3.57 -6.37,-12.47 -6.65,-16.49 1.32,2.82 0.68,2.06 2.68,5.78 6.91,12.86 20.52,25.29 30.39,25.3 0.77,-0 3.87,0.06 3.36,-1.87 -0.5,-0.29 -0.45,-0.19 -0.84,-0.18 -1.06,0.03 -0.76,0.21 -2.24,-0.04 -1.18,-0.2 -1.89,-0.31 -3.28,-0.76 -5.44,-1.76 -11.29,-6.7 -15.76,-12.73 -1.52,-2.04 -4.48,-6.81 -4.89,-8.3 1.04,1.21 2.25,3.06 3.51,4.56 6.7,7.99 14.64,12.27 20.18,9.88 1.54,-0.66 4.05,-2.35 4.77,-4.5l0.17 -0.55c-1.67,0.8 -1.62,1.65 -4.74,0.75 -5.91,-1.72 -11.17,-7.57 -13.91,-14.34 -0.36,-0.88 -0.97,-2.63 -1.12,-3.53 -0.09,-0.5 -0.51,-1.25 -0.82,-2.64 -0.21,-0.94 -0.33,-1.75 -0.48,-2.72 -0.27,-1.78 -0.97,-4.03 -1.84,-5.61 -0.46,2.02 1.35,9.99 -6.25,10.9 -2.91,0.34 -6.16,-0.06 -9.59,-0.92 -0.22,-0.05 -0.13,-0.04 -0.35,-0.09 -0.07,-0.02 -0.39,-0.09 -0.47,-0.11l-2.61 -0.66c-1.19,-0.26 -2.32,-0.58 -3.46,-0.91 -3.63,-1.05 -4.06,-0.72 -6.61,-1.11 -1.1,-0.16 -2.01,0.08 -2.88,0.44 -3,1.22 -3.94,5 -2.68,9.92 0.34,1.32 0.85,3.07 1.55,4.38l-0 0.01 -0.01 0 0 0z"/>
       <path class="fil8" d="M46.98 48.13c-0.82,1.1 -2.06,1.64 -2.73,2.97 -0.61,1.22 -1.13,2.54 -1.56,3.92 1.78,-4.99 6.28,-7.72 10.06,-10.04 -3.13,-1.19 -4.43,1.36 -5.76,3.16l0 0 -0.01 -0.01 0 0zm11.47 65.28c1.8,2.59 4.08,5.64 5.85,7.66l0.24 0.15 -0 -0.08c-2.15,-2.5 -4.19,-5.09 -6.09,-7.73l-0 0 0 -0zm5.16 2.45c-0.07,-0.55 -0.13,-1.05 -0.17,-1.45 -0.24,-2.33 -0.09,-4.1 -0.04,-6.14 -2.42,-1.85 -6.91,-6.68 -8.83,-8.97 -1.8,-2.15 -3.33,-4.21 -4.58,-6.19 3.29,7.75 7.92,15.56 13.62,22.75l0 0 -0.01 -0.01 0 0zm-18.73 -40.63c0.71,-5.85 3.94,-10.55 7.48,-14.55 1.43,-1.62 2.9,-3.42 4.05,-5.4 0.63,-1.09 2.82,-5.53 1.15,-7.96 -0.26,-0.21 -0.57,-0.44 -0.92,-0.65 -4.9,1.97 -8.64,5.92 -10.64,11.86 -1.63,4.85 -1.94,10.56 -1.11,16.71l0 -0.01z"/>
       <path class="fil10" d="M78.1 88.87c5.43,4.77 9.97,5.53 12.67,3.77 5.22,-3.38 2.26,-11.7 2.46,-12.55l0.09 -0.14 -0.59 -0.92c-0.18,3.48 -1.66,3.35 -3.72,3.21 -2.96,-0.2 -6.52,-3.9 -8.96,-7.05 -0.16,-0.2 -0.39,-0.49 -0.58,-0.75l-6.16 -10.32c-0.44,-0.93 -0.81,-1.78 -1.28,-2.76 -0.45,-0.92 -0.87,-1.94 -1.27,-2.74 -0.11,-0.22 -0.26,-0.5 -0.38,-0.73 -0.08,-0.14 -0.15,-0.28 -0.23,-0.44l-2.65 -4.37c-1.51,-2.21 -3.17,-3.67 -5.08,-5.49 0.55,1.01 4.09,4.56 5.43,10.47 1.37,6.09 0.43,13.73 2.95,20.49 1.52,4.07 3.36,6.73 7.33,10.33l0 0 -0.02 -0 0 -0z"/>
       <path class="fil14" d="M72.45 94.02c0.46,0.11 1,0.25 1.62,0.43 1.14,0.33 2.28,0.65 3.46,0.91l2.61 0.65c0.07,0.02 0.4,0.09 0.47,0.11 0.23,0.06 0.14,0.05 0.35,0.09 3.42,0.86 6.68,1.26 9.59,0.92 7.61,-0.92 5.8,-8.89 6.25,-10.9 -0.41,-1.2 -2.4,-4.74 -3.48,-6.28l-0.09 0.14c-0.2,0.84 2.76,9.17 -2.46,12.55 -2.61,1.69 -6.93,1.04 -12.11,-3.3 -0.19,0.03 -0.38,0.07 -0.55,0.11 -0.78,0.2 -1.14,0.58 -1.63,1.14 -0.5,0.56 -1.15,1.32 -1.62,1.86 -0.46,0.55 -0.74,0.9 -1.24,1.14 -0.34,0.16 -0.79,0.27 -1.17,0.42l0 0 0 -0 0 -0z"/>
       <path class="fil11" d="M77.48 89.23c0.26,0.01 0.13,0.14 0.41,-0.05 0.08,-0.05 0.18,-0.24 0.22,-0.32 -3.96,-3.6 -5.81,-6.26 -7.33,-10.33 -2.52,-6.76 -1.58,-14.39 -2.95,-20.49 -1.34,-5.91 -4.88,-9.46 -5.43,-10.47l-1.16 -1.17c-0.27,-0.23 -0.67,-0.52 -1.11,-0.79 -0.59,0.11 -1.16,0.26 -1.72,0.43 1.37,2.42 5.15,6.61 2.26,12.28 -1.89,3.71 -4.22,7.23 -3.52,12.66 0.56,4.37 3.38,9.39 8.42,14.21 5.23,5.01 9.47,5.56 11.93,4.05l0 0 -0 0.01 0 0z"/>
       <path class="fil7" d="M108.28 102.78c-1.19,0.18 -1.95,0.53 -3.89,-0.76 -0.82,-0.54 -1.82,-1.46 -2.53,-2.26 -1.03,-1.15 -1.19,-1.61 -1.91,-2.57 0.15,0.9 0.77,2.65 1.12,3.53 2.74,6.77 8,12.63 13.91,14.33 3.12,0.9 3.07,0.06 4.74,-0.75l-0.17 0.55c1.21,-0.77 1.78,-5.94 1.76,-7.82 -0.04,-4.95 -2.32,-11.16 -5.44,-16.67 -1.99,-3.52 -3.37,-5.14 -5.93,-8.57l1.97 3.58c0.86,1.57 1.18,2.77 1.71,4.33 2.06,6.06 1.31,15.89 -5.35,13.08l0 0 0.01 -0 -0 0z"/>
       <path class="fil7" d="M61.23 46.41l1.17 1.17c1.91,1.82 3.57,3.28 5.08,5.49l2.65 4.37c0.08,0.16 0.16,0.3 0.23,0.44 0.12,0.22 0.27,0.5 0.38,0.73 0.4,0.8 0.83,1.83 1.27,2.74 0.47,0.98 0.84,1.83 1.28,2.76l6.16 10.32c0.2,0.27 0.43,0.54 0.58,0.75 2.44,3.15 5.99,6.85 8.96,7.05 2.07,0.14 3.54,0.28 3.72,-3.21 -0.37,-1.1 -5.15,-7.72 -5.76,-8.5 -5.35,-6.91 -10.06,-12.04 -16.54,-17.49 -2.13,-1.8 -7.45,-5.97 -9.18,-6.62l0 0 0 0z"/>
       <path class="fil12" d="M88.36 60.44c-0.82,2.42 -0.75,4.56 1.02,7.58 4.65,7.91 6.55,1.59 17.38,19.83 0.84,1.41 1.31,2.36 1.93,3.77 0.99,2.29 1.83,4.99 1.64,7.45 0.77,-0.18 0.82,-2.6 0.78,-3.26 -0.11,-1.96 -0.18,-2.14 -0.71,-4.09 -0.02,-0.08 -0.11,-0.42 -0.12,-0.44l-0.96 -2.88 -5.22 -9.55c-7.74,-12.77 -13.04,-9.06 -10.46,-16.31 -3.52,-2.54 -3.32,-2.79 -5.26,-2.07l0 0 -0.01 -0.01 0 -0z"/>
       <path class="fil13" d="M110.32 99.06c-0.21,2.02 -0.81,3.05 -2.04,3.73 6.66,2.81 7.41,-7.02 5.35,-13.08 -0.53,-1.56 -0.85,-2.75 -1.7,-4.33l-1.97 -3.58c-2.09,-2.26 -3.64,-4.09 -5.91,-6.25 -1.43,-1.36 -6.15,-4.8 -7.44,-5.66 1.26,1.36 2.68,2.11 3.61,3.37 1.24,1.66 2.79,3.78 3.87,5.56l5.22 9.55 0.96 2.88c0,0.02 0.1,0.37 0.12,0.44 0.54,1.96 0.6,2.13 0.71,4.09 0.04,0.67 -0.01,3.09 -0.78,3.26l0 0 -0.01 0.01 0 0z"/>
       <path class="fil6" d="M86.7 82.57c-0.34,3.01 -0.21,2.89 3.16,6.43 -0.43,-3.42 0.1,-2.24 -3.16,-6.43z"/>
       <path class="fil15" d="M57.56 47.31c1.67,2.44 -0.52,6.88 -1.15,7.96 -1.14,1.98 -2.62,3.78 -4.05,5.4 -3.54,4.01 -6.77,8.7 -7.48,14.55 0.77,5.69 2.52,11.77 5.11,17.88 1.26,1.98 2.78,4.03 4.58,6.19 1.91,2.29 6.41,7.12 8.83,8.97l0.04 -0.18c-0.69,-1.31 -1.22,-3.07 -1.55,-4.38 -1.25,-4.93 -0.31,-8.7 2.68,-9.92 0.88,-0.36 1.79,-0.6 2.88,-0.44 2.1,0.31 2.76,0.16 4.98,0.68 0.38,-0.16 0.83,-0.27 1.17,-0.42 0.5,-0.24 0.77,-0.58 1.24,-1.14 0.46,-0.55 1.12,-1.3 1.62,-1.86 0.5,-0.56 0.85,-0.94 1.63,-1.14 0.17,-0.04 0.35,-0.08 0.55,-0.11 -0.18,-0.15 -0.37,-0.31 -0.56,-0.48 -0.04,0.08 -0.14,0.26 -0.22,0.31 -0.28,0.19 -0.15,0.06 -0.41,0.05 -1.97,2.29 -6.97,1.08 -11.45,-2.53 -5.59,-4.5 -8.84,-9.64 -10.21,-14.22 -2.96,-9.89 3.97,-12.79 4.55,-18.62 0.19,-1.91 -0.66,-5.65 -2.82,-6.56l0 0 0.02 0.03 -0 0z"/>
      </g>
     </g>
    </g>
    <g>
     <path class="fil0" d="M132.1 95.06l9.18 -1.21c13.47,-1.37 22.98,-17.81 23.39,-38.54 0.07,-3.2 -0.08,-6.52 -0.47,-9.88 -0.46,-3.93 -1.21,-7.72 -2.22,-11.29 -5.39,-19.33 -18.09,-32.71 -31.23,-31.38l-10.19 1.34 11.53 90.96 0 0 -0 -0z"/>
     <path class="fil1" d="M161.99 34.14l-8.42 1.1c1,3.58 1.75,7.36 2.2,11.3 0.39,3.37 0.54,6.67 0.48,9.87l8.42 -1.11c0.07,-3.2 -0.08,-6.52 -0.47,-9.88 -0.46,-3.93 -1.21,-7.72 -2.22,-11.29l0 0 0 -0z"/>
     <path class="fil2" d="M132.85 94.95c15.56,-1.58 25.82,-23.26 22.92,-48.41 -2.9,-25.15 -17.88,-44.26 -33.44,-42.67 -15.56,1.58 -25.82,23.26 -22.92,48.41 2.9,25.15 17.88,44.26 33.44,42.67z"/>
     <path class="fil3" d="M131.69 84.92c12.13,-1.23 20.14,-18.13 17.87,-37.74 -2.27,-19.61 -13.94,-34.51 -26.07,-33.28 -12.13,1.23 -20.14,18.13 -17.87,37.74 2.27,19.61 13.94,34.51 26.07,33.28z"/>
     <path class="fil4" d="M109.95 24.3c-3.79,6.97 -5.56,16.76 -4.34,27.34 0.13,1.16 0.3,2.3 0.5,3.42 -0.2,-1.12 -0.36,-2.27 -0.5,-3.42 -1.22,-10.58 0.54,-20.37 4.34,-27.34z"/>
     <path class="fil0" d="M141.44 24.41c-4.89,-7.05 -11.35,-11.18 -17.95,-10.51 -5.59,0.57 -10.3,4.46 -13.54,10.4 -3.79,6.97 -5.56,16.76 -4.34,27.34 0.13,1.16 0.3,2.3 0.5,3.42 0.57,3.23 1.39,6.3 2.43,9.16 1.93,5.31 4.59,9.89 7.7,13.39 -2.04,-2.94 -3.8,-6.38 -5.19,-10.2 -1.4,-3.85 -2.41,-8.08 -2.93,-12.57 -2.27,-19.61 5.74,-36.51 17.87,-37.74 5.53,-0.56 10.95,2.25 15.44,7.3l-0 -0.01 0 0z"/>
     <path class="fil5" d="M142.66 42.3l-2.47 0.28c-0.34,-1.52 -0.75,-2.93 -1.21,-4.2 -2.01,-5.53 -5.08,-8.58 -8.8,-8.17l1.51 13.25c1.21,-0.14 2.13,0.93 2.71,2.52 0.29,0.79 0.49,1.71 0.6,2.68 0.31,2.69 -0.18,5.35 -1.56,5.51 -0.85,0.09 -1.49,-0.89 -2.08,-2.49 -0.51,-1.39 -0.97,-3.25 -1.47,-5.28 -0.59,-2.36 -1.24,-4.95 -2.09,-7.28 -1.54,-4.23 -3.73,-7.6 -7.43,-7.19 -4.16,0.47 -6.3,5.5 -6.15,13.57l-2.97 0.33 1.28 10.81 3.02 -0.34c0.3,1.25 0.64,2.4 1.02,3.44 1.9,5.22 4.78,7.87 8.25,7.48l-1.47 -12.89c-1.06,0.12 -1.86,-0.77 -2.36,-2.16 -0.26,-0.7 -0.44,-1.54 -0.54,-2.44 -0.26,-2.29 0.02,-4.55 1.2,-4.68 0.77,-0.09 1.37,0.86 1.94,2.41 0.49,1.36 0.96,3.19 1.47,5.21 0.61,2.36 1.28,4.97 2.14,7.34 1.61,4.43 3.88,8.02 7.63,7.6 4.56,-0.51 6.69,-6.17 6.6,-14.23l2.49 -0.28 -1.28 -10.81 0.01 0.02 -0 0z"/>
     <g id="_105553280201600_2">
      <g id="_105553240688960_3">
       <circle class="fil6" transform="matrix(-4.56507E-001 -2.137E+000 1.27827 -6.5421E-001 128.856 50.7403)" r="15.62"/>
       <path class="fil7" d="M111.63 59.71c-3.48,-16.28 1.6,-33.51 11.34,-38.5 9.74,-4.98 20.45,4.17 23.93,20.45 3.48,16.28 -1.6,33.51 -11.34,38.5 -9.74,4.98 -20.45,-4.17 -23.93,-20.45zm1.37 -0.7c-3.21,-15.01 1.47,-30.92 10.45,-35.52 8.98,-4.6 18.86,3.85 22.07,18.87 3.21,15.01 -1.48,30.91 -10.46,35.51 -8.98,4.6 -18.86,-3.85 -22.07,-18.87l0 0.01z"/>
       <path class="fil8" d="M110.87 59.5c-3.54,-16.58 1.63,-34.13 11.54,-39.2 9.92,-5.07 20.82,4.25 24.36,20.83 3.54,16.58 -1.63,34.13 -11.54,39.2 -9.92,5.07 -20.82,-4.25 -24.36,-20.83zm1.39 -0.71c-3.27,-15.29 1.5,-31.48 10.65,-36.16 9.15,-4.68 19.21,3.92 22.47,19.21 3.27,15.29 -1.5,31.48 -10.65,36.16 -9.15,4.68 -19.21,-3.92 -22.47,-19.21z"/>
       <g>
        <path class="fil9" d="M126.28 77.96c0.09,-1.45 2.52,-2.3 3.16,-2.48 1.16,-0.32 2.4,-0.47 3.57,-0.56 2.88,-0.23 5.85,-0.82 8.11,-2.69 1.57,-2.32 2.83,-5.11 3.74,-8.21 0.11,-1.15 0.13,-2.41 0.07,-3.8 -0.07,-1.48 -0.42,-4.77 -0.86,-6.26l-0.08 0.05c-0.14,0.71 -0.49,1.53 -0.79,2.12 -1.1,2.21 -2.77,3.25 -4.48,2.66 -0.51,-0.17 -0.98,-0.4 -1.4,-0.83 -0.98,-1.01 -1.28,-1.04 -2.51,-2.67 -0.39,-0.51 -0.77,-1.01 -1.2,-1.52l-0.91 -1.13c-0.02,-0.03 -0.14,-0.17 -0.17,-0.2 -0.08,-0.1 -0.05,-0.07 -0.12,-0.15 -1.2,-1.48 -2.49,-2.75 -3.87,-3.62 -3.62,-2.28 -5.49,1.22 -6.36,1.79 -0.22,0.57 -0.53,2.53 -0.58,3.46l0.08 -0.02c0.37,-0.24 1.86,-4.26 5.26,-3.69 1.76,0.29 3.49,2.12 4.26,5.71 0.04,-0.01 0.15,-0.05 0.2,-0.04 0.18,0.03 0.09,0.03 0.19,0.12 1.62,-0.15 3.4,2 4.14,4.84 0.93,3.54 0.64,6.51 -0.3,8.63 -2.01,4.59 -6,3.26 -8.2,5.16 -0.72,0.62 -1.6,2.27 -0.96,3.34l0 0 -0 -0.01 0 0z"/>
        <path class="fil10" d="M144 53.99c-2.46,2.13 -6.45,2.33 -6.21,-0.06 0.17,-1.64 -0.86,-4 -1.4,-5.36 -0.32,-0.81 -0.67,-1.57 -0.94,-2.41 -0.44,-1.37 -0.3,-1.79 -0.27,-2.91 -1.68,0.9 -1.38,6.69 -2.6,8.24 0.36,-1.47 0.39,-0.98 0.76,-3.01 1.28,-7.01 -0.5,-16.17 -4.8,-19.55 -0.34,-0.26 -1.67,-1.35 -2.09,-0.48 0.12,0.28 0.13,0.22 0.31,0.35 0.47,0.35 0.4,0.19 0.96,0.78 0.45,0.48 0.72,0.76 1.17,1.4 1.78,2.5 2.68,6.29 2.62,10 -0.02,1.26 -0.32,3.99 -0.64,4.67 -0.05,-0.79 0.04,-1.88 -0.01,-2.85 -0.25,-5.18 -2.28,-9.45 -5.49,-10.49 -0.89,-0.29 -2.55,-0.54 -3.58,-0.01l-0.26 0.14c1,0.28 1.26,-0.04 2.32,1.35 2,2.65 2.34,6.56 1.28,9.94 -0.14,0.44 -0.45,1.28 -0.69,1.66 -0.13,0.21 -0.19,0.62 -0.52,1.24 -0.22,0.41 -0.44,0.74 -0.7,1.15 -0.48,0.74 -0.92,1.79 -1.07,2.66 0.87,-0.57 2.74,-4.07 6.36,-1.79 1.38,0.87 2.67,2.13 3.87,3.62 0.08,0.09 0.04,0.06 0.12,0.15 0.02,0.03 0.14,0.17 0.17,0.2l0.91 1.13c0.43,0.5 0.82,1.01 1.2,1.52 1.23,1.62 1.53,1.65 2.51,2.67 0.42,0.43 0.9,0.66 1.4,0.83 1.71,0.59 3.39,-0.46 4.48,-2.66 0.29,-0.59 0.65,-1.4 0.79,-2.12l0 -0 0.01 0 0 0z"/>
        <path class="fil8" d="M129.02 81.56c0.25,-0.16 1.74,0.02 2.16,-0.04 0.72,-0.12 1.43,-0.12 2.17,-0.37 0.67,-0.23 1.34,-0.53 1.99,-0.88 -2.44,1.19 -5.08,1.13 -7.5,0.67 0.46,0.71 0.39,0.4 0.95,0.53l0.22 0.09 0 0 0 0 -0 -0zm18.94 -27.78c0.08,-1.55 0.1,-3.44 0.01,-4.77l-0.05 -0.14 -0.02 0.03c0.11,1.64 0.13,3.27 0.07,4.88l0 0 -0 0zm-1.43 -2.65c-0.15,0.22 -0.29,0.42 -0.41,0.58 -0.68,0.92 -1.33,1.51 -2.03,2.23 0.44,1.5 0.78,4.78 0.86,6.26 0.07,1.39 0.04,2.66 -0.07,3.8 1.15,-3.93 1.74,-8.34 1.66,-12.89l0 0 -0 0.01 0 0zm-5.4 21.09c-2.26,1.87 -5.24,2.46 -8.11,2.69 -1.17,0.1 -2.4,0.24 -3.57,0.56 -0.64,0.18 -3.07,1.03 -3.16,2.48 0.04,0.17 0.1,0.35 0.18,0.55 2.8,0.97 5.74,0.82 8.6,-0.63 2.33,-1.19 4.37,-3.15 6.06,-5.65l-0 0 0 -0z"/>
        <path class="fil10" d="M131.2 55.91c-0.78,-3.58 -2.5,-5.41 -4.26,-5.71 -3.4,-0.57 -4.89,3.45 -5.26,3.69l-0.08 0.02 -0.05 0.54c1.24,-1.2 1.84,-0.64 2.69,0.12 1.22,1.09 1.54,3.65 1.55,5.62 0,0.13 0.01,0.31 0,0.47l-0.76 5.84c-0.12,0.49 -0.24,0.92 -0.36,1.44 -0.11,0.48 -0.27,1 -0.36,1.43 -0.02,0.12 -0.06,0.27 -0.08,0.39 -0.01,0.08 -0.03,0.15 -0.04,0.24l-0.3 2.49c-0.08,1.32 0.16,2.41 0.38,3.72 0.1,-0.55 -0.26,-3.05 1.13,-5.64 1.43,-2.67 4.39,-5.11 5.55,-8.41 0.7,-1.99 0.78,-3.58 0.25,-6.24l0 0 0.01 0.01 -0 -0z"/>
        <path class="fil11" d="M131.59 55.99c-0.11,-0.09 -0.01,-0.1 -0.19,-0.12 -0.05,-0.01 -0.16,0.03 -0.2,0.04 0.53,2.66 0.45,4.25 -0.25,6.24 -1.16,3.31 -4.12,5.74 -5.55,8.41 -1.39,2.59 -1.03,5.09 -1.13,5.64l0.11 0.82c0.04,0.17 0.12,0.42 0.22,0.67 0.3,0.16 0.59,0.3 0.89,0.44 0.21,-1.35 -0.04,-4.15 3.11,-5.21 2.07,-0.69 4.25,-1.16 5.76,-3.36 1.21,-1.77 1.66,-4.55 1.07,-8.02 -0.61,-3.6 -2.27,-5.25 -3.85,-5.55l0 0 0 -0 0 0z"/>
        <path class="fil7" d="M122.69 40.54c0.58,0.34 1.03,0.48 1.44,1.61 0.18,0.48 0.3,1.15 0.35,1.68 0.07,0.77 -0.02,0.99 -0.03,1.58 0.24,-0.38 0.55,-1.22 0.69,-1.66 1.06,-3.39 0.73,-7.3 -1.28,-9.94 -1.06,-1.39 -1.32,-1.07 -2.32,-1.35l0.26 -0.14c-0.79,-0.14 -2.76,1.54 -3.38,2.22 -1.64,1.8 -2.71,4.82 -3.19,7.89 -0.31,1.95 -0.25,3.01 -0.27,5.13l0.34 -1.97c0.15,-0.86 0.41,-1.4 0.7,-2.15 1.13,-2.89 4.73,-6.19 6.7,-2.89l0 0 -0.01 -0 -0 0z"/>
        <path class="fil7" d="M124.38 77.02l-0.12 -0.82c-0.22,-1.31 -0.46,-2.41 -0.38,-3.72l0.3 -2.49c0.02,-0.09 0.03,-0.16 0.04,-0.24 0.02,-0.12 0.05,-0.27 0.08,-0.39 0.09,-0.43 0.25,-0.95 0.36,-1.43 0.12,-0.51 0.24,-0.95 0.36,-1.44l0.76 -5.84c0,-0.17 -0.01,-0.34 -0,-0.47 -0.01,-1.97 -0.33,-4.52 -1.55,-5.62 -0.85,-0.76 -1.45,-1.32 -2.69,-0.12 -0.21,0.52 -0.33,4.55 -0.33,5.04 0.02,4.33 0.37,7.8 1.37,11.99 0.33,1.38 1.25,4.71 1.79,5.54l0 0 -0 0z"/>
        <path class="fil12" d="M117.24 62.66c1.16,-0.59 1.85,-1.39 2.08,-3.09 0.61,-4.45 -2.32,-2.82 -0.96,-13.12 0.1,-0.8 0.21,-1.3 0.42,-2.02 0.33,-1.17 0.87,-2.43 1.77,-3.25 -0.4,-0.2 -1.22,0.66 -1.43,0.91 -0.61,0.75 -0.63,0.83 -1.06,1.72 -0.02,0.04 -0.09,0.19 -0.09,0.2l-0.54 1.37 -0.91 5.24c-0.89,7.26 2.66,7.74 -0.88,9.48 0.68,2.12 0.52,2.15 1.6,2.55l0 0 -0 0.01 -0 -0z"/>
        <path class="fil13" d="M120.56 41.18c0.76,-0.66 1.37,-0.82 2.13,-0.65 -1.96,-3.3 -5.57,-0.01 -6.7,2.89 -0.29,0.75 -0.55,1.29 -0.7,2.15l-0.34 1.97c0.38,3.81 0.57,5.45 1.86,8.95 -0.09,-0.92 -0.2,-1.72 -0.19,-2.5 0.01,-1.02 -0.23,-2.35 -0.11,-3.37l0.91 -5.24 0.54 -1.37c0.01,-0.01 0.08,-0.16 0.09,-0.2 0.42,-0.89 0.45,-0.98 1.06,-1.72 0.21,-0.25 1.03,-1.11 1.43,-0.91l0 0 0.01 0 -0 -0z"/>
        <path class="fil6" d="M125.35 55.24c1.15,-0.97 1.05,-0.97 0.77,-3.4 -0.96,1.38 -0.79,0.77 -0.77,3.4z"/>
       </g>
       <path class="fil9" d="M126.28 77.96c0.09,-1.45 2.52,-2.3 3.16,-2.48 1.16,-0.32 2.4,-0.47 3.57,-0.56 2.88,-0.23 5.85,-0.82 8.11,-2.69 1.57,-2.32 2.83,-5.11 3.74,-8.21 0.11,-1.15 0.13,-2.41 0.07,-3.8 -0.07,-1.48 -0.42,-4.77 -0.86,-6.26l-0.08 0.05c-0.14,0.71 -0.49,1.53 -0.79,2.12 -1.1,2.21 -2.77,3.25 -4.48,2.66 -0.51,-0.17 -0.98,-0.4 -1.4,-0.83 -0.81,-0.83 -1.15,-1 -1.94,-1.95 -0.22,-0.07 -0.45,-0.19 -0.65,-0.25 -0.3,-0.08 -0.53,-0.05 -0.92,-0.01 -0.38,0.04 -0.92,0.09 -1.33,0.11 -0.41,0.03 -0.68,0.05 -1.09,-0.15 -0.09,-0.04 -0.18,-0.09 -0.28,-0.15 0.03,0.12 0.06,0.24 0.08,0.36 0.04,-0.01 0.15,-0.05 0.2,-0.04 0.18,0.03 0.09,0.03 0.19,0.12 1.62,-0.15 3.4,2 4.14,4.84 0.93,3.54 0.64,6.51 -0.3,8.63 -2.01,4.59 -6,3.26 -8.2,5.16 -0.72,0.62 -1.6,2.27 -0.96,3.34l0 0 0 -0.02 0 0z"/>
       <path class="fil10" d="M144 53.99c-2.46,2.13 -6.45,2.33 -6.21,-0.06 0.17,-1.64 -0.86,-4 -1.4,-5.36 -0.32,-0.81 -0.67,-1.57 -0.94,-2.41 -0.44,-1.37 -0.3,-1.79 -0.27,-2.91 -1.68,0.9 -1.38,6.69 -2.6,8.24 0.36,-1.47 0.39,-0.98 0.76,-3.01 1.28,-7.01 -0.5,-16.17 -4.8,-19.55 -0.34,-0.26 -1.67,-1.35 -2.09,-0.48 0.12,0.28 0.13,0.22 0.31,0.35 0.47,0.35 0.4,0.19 0.96,0.78 0.45,0.48 0.72,0.76 1.17,1.4 1.78,2.5 2.68,6.29 2.62,10 -0.02,1.26 -0.32,3.99 -0.64,4.67 -0.05,-0.79 0.04,-1.88 -0.01,-2.85 -0.25,-5.18 -2.28,-9.45 -5.49,-10.49 -0.89,-0.29 -2.55,-0.54 -3.58,-0.01l-0.26 0.14c1,0.28 1.26,-0.04 2.32,1.35 2,2.65 2.34,6.56 1.28,9.94 -0.14,0.44 -0.45,1.28 -0.69,1.66 -0.13,0.21 -0.19,0.62 -0.52,1.24 -0.22,0.41 -0.44,0.74 -0.7,1.15 -0.48,0.74 -0.92,1.79 -1.07,2.66 0.87,-0.57 2.74,-4.07 6.36,-1.79 1.38,0.87 2.67,2.13 3.87,3.62 0.08,0.09 0.04,0.06 0.12,0.15 0.02,0.03 0.14,0.17 0.17,0.2l0.91 1.13c0.43,0.5 0.82,1.01 1.2,1.52 1.23,1.62 1.53,1.65 2.51,2.67 0.42,0.43 0.9,0.66 1.4,0.83 1.71,0.59 3.39,-0.46 4.48,-2.66 0.29,-0.59 0.65,-1.4 0.79,-2.12l0 -0 0.01 0 0 0z"/>
       <path class="fil8" d="M131.17 81.28c0.72,-0.12 1.44,0.11 2.18,-0.14 0.67,-0.23 1.34,-0.53 1.99,-0.88 -2.44,1.19 -5.31,0.64 -7.74,0.18 0.97,1.5 2.38,1.03 3.57,0.84l0 0 0 0.01 0 0zm16.79 -27.5c0.08,-1.55 0.1,-3.44 0.01,-4.77l-0.05 -0.14 -0.02 0.03c0.11,1.64 0.13,3.27 0.07,4.88l0 0 -0 0zm-1.43 -2.65c-0.15,0.22 -0.29,0.42 -0.41,0.58 -0.68,0.92 -1.33,1.51 -2.03,2.23 0.44,1.5 0.78,4.78 0.86,6.26 0.07,1.39 0.04,2.66 -0.07,3.8 1.15,-3.93 1.74,-8.34 1.66,-12.89l0 0 -0 0.01 0 0zm-5.4 21.09c-2.26,1.87 -5.24,2.46 -8.11,2.69 -1.17,0.1 -2.4,0.24 -3.57,0.56 -0.64,0.18 -3.07,1.03 -3.16,2.48 0.04,0.17 0.1,0.35 0.18,0.55 2.8,0.97 5.74,0.82 8.6,-0.63 2.33,-1.19 4.37,-3.15 6.06,-5.65l-0 0 0 -0z"/>
       <path class="fil10" d="M131.2 55.91c-0.78,-3.58 -2.5,-5.41 -4.26,-5.71 -3.4,-0.57 -4.89,3.45 -5.26,3.69l-0.08 0.02 -0.05 0.54c1.24,-1.2 1.84,-0.64 2.69,0.12 1.22,1.09 1.54,3.65 1.55,5.62 0,0.13 0.01,0.31 0,0.47l-0.76 5.84c-0.12,0.49 -0.24,0.92 -0.36,1.44 -0.11,0.48 -0.27,1 -0.36,1.43 -0.02,0.12 -0.06,0.27 -0.08,0.39 -0.01,0.08 -0.03,0.15 -0.04,0.24l-0.3 2.49c-0.08,1.32 0.16,2.41 0.38,3.72 0.1,-0.55 -0.26,-3.05 1.13,-5.64 1.43,-2.67 4.39,-5.11 5.55,-8.41 0.7,-1.99 0.78,-3.58 0.25,-6.24l0 0 0.01 0.01 -0 -0z"/>
       <path class="fil14" d="M135.38 55.98c-0.16,-0.2 -0.35,-0.43 -0.56,-0.71 -0.39,-0.51 -0.78,-1.01 -1.2,-1.52l-0.92 -1.13c-0.02,-0.03 -0.14,-0.17 -0.17,-0.2 -0.08,-0.1 -0.05,-0.07 -0.12,-0.15 -1.2,-1.48 -2.49,-2.75 -3.87,-3.62 -3.62,-2.28 -5.49,1.22 -6.36,1.79 -0.22,0.57 -0.53,2.53 -0.58,3.46l0.08 -0.02c0.37,-0.24 1.86,-4.26 5.26,-3.69 1.7,0.29 3.37,2 4.18,5.34 0.09,0.06 0.19,0.11 0.28,0.15 0.41,0.19 0.69,0.18 1.09,0.15 0.41,-0.03 0.94,-0.08 1.33,-0.11 0.38,-0.04 0.62,-0.07 0.92,0.01 0.2,0.06 0.43,0.17 0.65,0.25l0 0 0 0 -0 0z"/>
       <path class="fil11" d="M131.59 55.99c-0.11,-0.09 -0.01,-0.1 -0.19,-0.12 -0.05,-0.01 -0.16,0.03 -0.2,0.04 0.53,2.66 0.45,4.25 -0.25,6.24 -1.16,3.31 -4.12,5.74 -5.55,8.41 -1.39,2.59 -1.03,5.09 -1.13,5.64l0.11 0.82c0.04,0.17 0.12,0.42 0.22,0.67 0.3,0.16 0.59,0.3 0.89,0.44 0.21,-1.35 -0.04,-4.15 3.11,-5.21 2.07,-0.69 4.25,-1.16 5.76,-3.36 1.21,-1.77 1.66,-4.55 1.07,-8.02 -0.61,-3.6 -2.27,-5.25 -3.85,-5.55l0 0 0 -0 0 0z"/>
       <path class="fil7" d="M122.69 40.54c0.58,0.34 1.03,0.48 1.44,1.61 0.18,0.48 0.3,1.15 0.35,1.68 0.07,0.77 -0.02,0.99 -0.03,1.58 0.24,-0.38 0.55,-1.22 0.69,-1.66 1.06,-3.39 0.73,-7.3 -1.28,-9.94 -1.06,-1.39 -1.32,-1.07 -2.32,-1.35l0.26 -0.14c-0.79,-0.14 -2.76,1.54 -3.38,2.22 -1.64,1.8 -2.71,4.82 -3.19,7.89 -0.31,1.95 -0.25,3.01 -0.27,5.13l0.34 -1.97c0.15,-0.86 0.41,-1.4 0.7,-2.15 1.13,-2.89 4.73,-6.19 6.7,-2.89l0 0 -0.01 -0 -0 0z"/>
       <path class="fil7" d="M124.38 77.02l-0.12 -0.82c-0.22,-1.31 -0.46,-2.41 -0.38,-3.72l0.3 -2.49c0.02,-0.09 0.03,-0.16 0.04,-0.24 0.02,-0.12 0.05,-0.27 0.08,-0.39 0.09,-0.43 0.25,-0.95 0.36,-1.43 0.12,-0.51 0.24,-0.95 0.36,-1.44l0.76 -5.84c0,-0.17 -0.01,-0.34 -0,-0.47 -0.01,-1.97 -0.33,-4.52 -1.55,-5.62 -0.85,-0.76 -1.45,-1.32 -2.69,-0.12 -0.21,0.52 -0.33,4.55 -0.33,5.04 0.02,4.33 0.37,7.8 1.37,11.99 0.33,1.38 1.25,4.71 1.79,5.54l0 0 -0 0z"/>
       <path class="fil12" d="M117.24 62.66c1.16,-0.59 1.85,-1.39 2.08,-3.09 0.61,-4.45 -2.32,-2.82 -0.96,-13.12 0.1,-0.8 0.21,-1.3 0.42,-2.02 0.33,-1.17 0.87,-2.43 1.77,-3.25 -0.4,-0.2 -1.22,0.66 -1.43,0.91 -0.61,0.75 -0.63,0.83 -1.06,1.72 -0.02,0.04 -0.09,0.19 -0.09,0.2l-0.54 1.37 -0.91 5.24c-0.89,7.26 2.66,7.74 -0.88,9.48 0.68,2.12 0.52,2.15 1.6,2.55l0 0 -0 0.01 -0 -0z"/>
       <path class="fil13" d="M120.56 41.18c0.76,-0.66 1.37,-0.82 2.13,-0.65 -1.96,-3.3 -5.57,-0.01 -6.7,2.89 -0.29,0.75 -0.55,1.29 -0.7,2.15l-0.34 1.97c0.15,1.53 0.22,2.72 0.49,4.28 0.17,0.98 1.08,3.84 1.35,4.6 -0.09,-0.92 -0.46,-1.68 -0.45,-2.46 0.01,-1.02 0.05,-2.32 0.17,-3.34l0.91 -5.24 0.54 -1.37c0.01,-0.01 0.08,-0.16 0.09,-0.2 0.42,-0.89 0.45,-0.98 1.06,-1.72 0.21,-0.25 1.03,-1.11 1.43,-0.91l0 0 0.01 0 -0 0z"/>
       <path class="fil6" d="M125.35 55.24c1.15,-0.97 1.05,-0.97 0.77,-3.4 -0.96,1.38 -0.79,0.77 -0.77,3.4z"/>
       <path class="fil15" d="M126.28 77.96c0.09,-1.45 2.52,-2.3 3.16,-2.48 1.16,-0.32 2.4,-0.47 3.57,-0.56 2.88,-0.23 5.85,-0.82 8.11,-2.69 1.57,-2.32 2.83,-5.11 3.74,-8.21 0.11,-1.15 0.13,-2.41 0.07,-3.8 -0.07,-1.48 -0.42,-4.77 -0.86,-6.26l-0.08 0.05c-0.14,0.71 -0.49,1.53 -0.79,2.12 -1.1,2.21 -2.77,3.25 -4.48,2.66 -0.51,-0.17 -0.98,-0.4 -1.4,-0.83 -0.81,-0.83 -1.15,-1 -1.94,-1.95 -0.22,-0.07 -0.45,-0.19 -0.65,-0.25 -0.3,-0.08 -0.53,-0.05 -0.92,-0.01 -0.38,0.04 -0.92,0.09 -1.33,0.11 -0.41,0.03 -0.68,0.05 -1.09,-0.15 -0.09,-0.04 -0.18,-0.09 -0.28,-0.15 0.03,0.12 0.06,0.24 0.08,0.36 0.04,-0.01 0.15,-0.05 0.2,-0.04 0.18,0.03 0.09,0.03 0.19,0.12 1.62,-0.15 3.4,2 4.14,4.84 0.93,3.54 0.64,6.51 -0.3,8.63 -2.01,4.59 -6,3.26 -8.2,5.16 -0.72,0.62 -1.6,2.27 -0.96,3.34l0 0 0 -0.02 0 0z"/>
      </g>
     </g>
    </g>
    <ellipse class="fil16" cx="118.09" cy="194.78" rx="71.25" ry="1.43"/>
   </g>
   <rect class="fil17" x="-0" y="-0" width="198.88" height="198.88"/>
  </g>
 </g>
</svg>
