<?xml version="1.0" encoding="UTF-8"?>
<!DOCTYPE svg PUBLIC "-//W3C//DTD SVG 1.1//EN" "http://www.w3.org/Graphics/SVG/1.1/DTD/svg11.dtd">
<!-- Creator: CorelDRAW -->
<svg xmlns="http://www.w3.org/2000/svg" xml:space="preserve" width="529.792mm" height="154.333mm" version="1.1" style="shape-rendering:geometricPrecision; text-rendering:geometricPrecision; image-rendering:optimizeQuality; fill-rule:evenodd; clip-rule:evenodd"
viewBox="0 0 16507.43 4808.75"
 xmlns:xlink="http://www.w3.org/1999/xlink"
 xmlns:xodm="http://www.corel.com/coreldraw/odm/2003">
 <defs>
  <style type="text/css">
   <![CDATA[
    .fil0 {fill:black}
    .fil2 {fill:#21AD62}
    .fil9 {fill:#2CBD70}
    .fil7 {fill:#39DB84}
    .fil6 {fill:#40DE8A}
    .fil5 {fill:#46D98A}
    .fil3 {fill:#4BE894}
    .fil8 {fill:#4FE394}
    .fil4 {fill:#53F19C}
    .fil1 {fill:#7CFFB0}
    .fil10 {fill:black;fill-rule:nonzero}
   ]]>
  </style>
 </defs>
 <g id="Layer_x0020_1">
  <metadata id="CorelCorpID_0Corel-Layer"/>
  <g id="_105553208112640">
   <circle class="fil0" cx="2404.37" cy="2404.37" r="2404.37"/>
   <path class="fil1" d="M2394.38 325.06c1172.99,0 2124.02,951.02 2124.02,2124.02 0,1172.99 -951.03,2124.02 -2124.02,2124.02 -1173,0 -2124.02,-951.03 -2124.02,-2124.02 0,-1173 951.02,-2124.02 2124.02,-2124.02zm0 164.64c1082,0 1959.37,877.38 1959.37,1959.38 0,1082 -877.37,1959.37 -1959.37,1959.37 -1082,0 -1959.38,-877.37 -1959.38,-1959.37 0,-1082 877.38,-1959.38 1959.38,-1959.38z"/>
   <path class="fil2" d="M2433.31 247.76c1194.55,0 2162.95,968.37 2162.95,2162.95 0,1194.55 -968.37,2162.95 -2162.95,2162.95 -1194.55,0 -2162.95,-968.37 -2162.95,-2162.95 0,-1194.55 968.37,-2162.95 2162.95,-2162.95zm0 167.77c1101.98,0 1995.15,893.15 1995.15,1995.15 0,1101.98 -893.15,1995.15 -1995.15,1995.15 -1101.98,0 -1995.15,-893.15 -1995.15,-1995.15 0,-1101.98 893.15,-1995.15 1995.15,-1995.15z"/>
   <path class="fil3" d="M721.67 1493.85c91.52,43.14 65.76,327.17 56.27,400.81 -17.87,133.6 -49.44,271.94 -82.06,400.28 -81.01,318.23 -141.49,654.88 -95.2,943.67 98.88,224.07 238.27,426.07 408.7,597.02 71.02,38.4 152.01,70.5 245.13,95.73 98.88,26.84 323.49,65.21 435.53,52.6l-0.52 -9.99c-41.56,-31.04 -82.59,-88.89 -111,-134.13 -106.77,-170.43 -118.88,-375.58 -23.68,-548.64 27.89,-50.49 58.38,-97.3 100.46,-133.6 98.36,-83.11 109.95,-114.15 256.69,-210.41 45.76,-29.99 91.52,-60.48 138.33,-95.73l103.61 -73.12c2.63,-2.1 15.77,-11.57 18.4,-13.67 9.46,-6.31 5.78,-3.68 14.2,-9.46 136.23,-96.78 261.42,-206.73 363.99,-336.65 268.26,-340.33 103.61,-624.89 95.2,-732.73 -29.99,-37.35 -146.75,-116.78 -205.68,-143.07l-1.58 9.46c3.16,45.76 214.61,300.88 64.69,656.98 -77.86,184.62 -254.06,329.29 -512.34,330.34 -0.53,5.26 -2.1,17.35 -4.21,22.63 -7.89,19.45 -4.73,8.41 -14.2,18.4 -44.18,179.89 -243.03,322.43 -451.83,337.7 -260.9,18.93 -443.94,-82.06 -551.26,-232.49 -230.91,-324.54 -12.09,-726.95 -62.58,-1009.93 -16.82,-92.57 -94.15,-226.18 -184.62,-181.99l0 0 -0.45 -0.03z"/>
   <path class="fil4" d="M1689.51 3973.45c-56.8,-316.65 63.11,-754.81 210.41,-672.22 101.51,56.8 288.26,-1.05 394.5,-27.36 63.63,-15.77 123.61,-36.3 187.78,-45.76 103.61,-15.77 126.77,8.41 198.32,37.88 -2.63,-203.57 -388.19,-305.61 -448.68,-473.93 83.64,73.65 50.49,65.21 169.9,152.53 412.9,301.93 1066.73,320.33 1429.69,-67.87 28.41,-30.52 143.07,-149.9 100.46,-215.67 -22.1,6.84 -18.93,9.46 -33.14,25.26 -38.4,43.13 -25.26,38.93 -82.59,86.26 -45.76,37.35 -73.65,60.48 -129.92,95.2 -221.97,135.71 -497.59,145.17 -736.94,52.6 -81.01,-31.57 -248.81,-127.82 -282.45,-177.79 53.12,12.62 120.99,47.87 185.15,65.21 345.06,92.57 690.12,-28.94 864.23,-353.47 48.39,-89.94 119.94,-264.05 119.94,-388.72l-0.53 -31.04c-51.54,102.03 -39.45,137.81 -165.17,220.4 -238.27,156.23 -503.93,102.03 -688.55,-92.05 -24.21,-25.26 -68.39,-78.91 -85.21,-113.1 -9.46,-18.4 -34.2,-35.77 -63.11,-85.21 -19.45,-33.67 -33.67,-64.69 -51.02,-102.04 -32.09,-68.92 -85.74,-141.49 -137.28,-177.79 8.41,107.82 173.06,392.4 -95.2,732.73 -102.56,129.93 -227.23,239.85 -363.99,336.65 -8.41,5.78 -4.73,3.15 -14.19,9.46 -3.15,2.1 -15.77,11.57 -18.4,13.67l-103.61 73.12c-46.82,35.25 -92.57,65.76 -138.34,95.73 -146.22,96.25 -158.34,127.82 -256.69,210.41 -42.61,35.77 -72.6,82.59 -100.46,133.6 -95.2,173.06 -82.59,378.21 23.68,548.64 28.41,45.76 69.44,103.09 111,134.13l0 0 0.43 0.55z"/>
   <path class="fil2" d="M397.13 1706.36c2.1,30.52 -58.9,187.78 -68.92,236.16 -16.82,81.01 -40.51,158.34 -48.39,244.08 -7.36,78.91 -10.52,157.81 -8.94,236.17 3.68,-292.47 95.2,-577.55 205.68,-830.04 -61.53,33.14 -38.93,32.62 -65.76,91.52l-13.67 22.11zm1175.1 2701.57c98.36,44.71 219.87,90.47 309.29,111l11.04 -3.16 -1.05 -3.15c-109.95,-26.84 -216.72,-62.06 -319.28,-105.19l0 0 0 0.5zm219.87 -94.15c-9.46,-21.55 -17.87,-41.55 -24.21,-57.85 -37.35,-94.68 -54.17,-179.89 -77.33,-272.46 -112.05,12.62 -336.65,-25.79 -435.53,-52.6 -93.1,-25.26 -174.11,-57.33 -245.13,-95.73 216.72,216.19 483.92,382.41 782.17,478.67l0.02 -0.03zm-1190.87 -1075.69c-46.29,-288.79 14.2,-625.94 95.2,-943.66 32.62,-128.35 64.16,-266.68 82.06,-400.29 9.46,-73.12 35.25,-357.68 -56.27,-400.81 -12.09,0.52 -26.31,3.15 -42.08,7.36 -155.71,280.88 -244.6,604.38 -244.6,948.4 0,280.88 59.43,548.11 165.7,789.53l0 0 0 -0.53z"/>
   <path class="fil4" d="M1990.92 2539.03c258.27,-1.05 434.48,-145.7 512.34,-330.34 149.9,-356.1 -62.06,-611.22 -64.69,-656.98l1.58 -9.46 -33.14 -17.88c36.3,162.54 -19.45,214.61 -97.3,289.31 -111.52,107.82 -287.74,82.59 -416.61,38.4 -8.41,-2.63 -19.98,-6.31 -30.52,-10.51l-354 -218.29c-27.89,-24.21 -52.07,-47.34 -81.54,-72.6 -27.89,-23.68 -55.75,-52.6 -80.48,-72.07 -6.84,-5.26 -15.77,-12.09 -22.63,-17.35 -4.73,-3.16 -8.94,-6.31 -14.2,-10.52l-151.48 -90.47c-82.59,-39.45 -162.02,-38.93 -254.59,-45.24 32.62,23.68 206.73,42.08 328.76,253.54 125.72,217.77 185.68,595.45 361.36,797.95 106.24,122.04 206.73,167.8 397.13,172l0 0 0 0.5z"/>
   <path class="fil5" d="M1972.52 2580.06c9.46,-9.46 6.31,1.58 14.19,-18.4 2.1,-5.26 3.68,-17.35 4.21,-22.63 -190.41,-4.73 -290.89,-50.49 -397.13,-172.01 -176.21,-202.52 -235.64,-580.18 -361.36,-797.94 -122.04,-211.46 -296.15,-229.86 -328.76,-253.54l-57.33 -6.31c-12.62,0.53 -31.04,3.68 -50.49,8.41 -19.98,28.41 -39.45,57.33 -57.85,86.79 80.48,54.17 270.89,92.05 234.59,459.21 -23.68,240.4 -65.76,488.13 26.84,703.79 74.17,173.06 240.4,285.63 484.98,302.45 254.06,17.35 416.61,-125.19 488.65,-289.31l0 0 -0.52 -0.53z"/>
   <path class="fil1" d="M3271.76 1971.47c-41.56,55.22 -64.68,100.46 -152.53,119.41 -36.82,8.41 -84.69,6.31 -120.46,-1.05 -52.07,-11.04 -63.63,-24.73 -102.04,-39.45 16.82,34.2 61.01,87.84 85.21,113.1 184.62,194.08 450.25,248.28 688.55,92.05 125.72,-82.59 113.63,-118.36 165.17,-220.4l0.53 31.04c35.25,-82.06 -8.41,-335.07 -31.57,-418.18 -62.58,-219.87 -223.02,-406.6 -406.07,-529.68 -116.78,-78.38 -187.25,-96.25 -323.48,-148.85l116.25 82.06c51.02,36.3 77.33,76.8 116.25,125.72 150.43,189.35 244.61,657.51 -35.25,794.26l0 0 -0.58 -0.02z"/>
   <path class="fil1" d="M845.81 1308.7l57.33 6.31c92.57,6.31 172.01,5.78 254.59,45.24l151.48 90.47c5.26,3.68 9.46,6.84 14.2,10.52 7.36,5.26 16.3,12.09 22.63,17.35 24.73,19.98 53.12,48.92 80.48,72.07 29.47,25.26 53.65,48.39 81.54,72.6l354 218.29c10.52,3.68 22.63,7.36 30.52,10.51 128.35,44.19 305.08,69.45 416.61,-38.4 77.86,-75.23 133.6,-126.77 97.3,-289.31 -27.36,-34.72 -284.58,-141.49 -317.17,-152.53 -281.93,-97.83 -518.65,-140.96 -824.26,-128.87 -100.46,4.2 -347.69,26.83 -419.24,66.29l0 0 0 -0.52z"/>
   <path class="fil6" d="M2016.17 866.33c0,140.44 28.94,233.01 130.98,297.72 268.78,169.9 260.37,-187.25 884.21,199.89 48.39,29.99 77.33,53.12 117.31,92.57 64.16,63.11 128.87,150.95 152,268.26 26.31,-38.4 -2.1,-148.32 -11.57,-176.74 -28.41,-83.11 -33.14,-88.37 -76.8,-154.66 -1.58,-2.63 -9.46,-14.2 -9.99,-15.25l-71.02 -90.47 -309.82 -220.92c-442.37,-264.58 -591.24,109.42 -586.49,-315.6 -160.96,24.73 -156.76,6.31 -219.34,114.68l0 0 0.52 0.5z"/>
   <path class="fil7" d="M3301.2 1724.76c17.35,97.83 8.41,167.8 -28.94,246.71 279.83,-136.76 185.67,-604.91 35.25,-794.27 -38.93,-48.92 -65.21,-89.42 -116.25,-125.72l-116.25 -82.06c-259.85,-47.34 -372.95,-64.16 -643.31,-5.78 63.11,11.04 118.88,18.4 168.33,37.35 65.76,25.26 160.44,28.94 222.5,66.29l309.81 220.92 71.02 90.47c0.52,1.05 7.88,12.09 9.99,15.25 43.66,66.81 48.39,71.55 76.8,154.65 9.46,28.41 37.88,137.81 11.57,176.74l0 0 -0.5 -0.55z"/>
   <path class="fil0" d="M2228.69 1919.4c24.73,147.8 27.89,136.76 195.13,162.54 -57.85,-135.71 -23.68,-103.61 -195.13,-162.54z"/>
   <path class="fil3" d="M721.67 1493.85c91.52,43.14 65.76,327.72 56.27,400.81 -17.87,133.6 -49.44,271.94 -82.06,400.28 -81.01,318.23 -141.49,654.88 -95.2,943.67 98.88,224.07 238.27,426.07 408.7,597.02 71.02,38.4 152.01,70.5 245.13,95.73 98.88,26.84 323.49,65.21 435.53,52.6l-0.52 -9.99c-41.56,-31.04 -82.59,-88.89 -111,-134.13 -106.77,-170.43 -118.88,-375.58 -23.68,-548.64 27.89,-50.49 58.38,-97.3 100.46,-133.6 81.01,-68.92 103.09,-102.04 191.46,-165.7 12.09,-22.11 26.84,-44.19 37.35,-65.21 15.25,-30.51 21.03,-56.8 31.57,-99.41 10.51,-42.61 25.26,-102.04 36.82,-147.27 11.57,-44.71 19.45,-75.23 45.76,-115.2 5.78,-8.41 12.09,-17.35 18.93,-26.31 -8.41,0.53 -17.35,0.53 -26.31,0.53 -0.53,5.26 -2.1,17.35 -4.21,22.63 -7.89,19.45 -4.73,8.41 -14.2,18.4 -44.18,179.89 -243.03,322.43 -451.83,337.7 -260.9,18.93 -443.94,-82.06 -551.26,-232.49 -230.91,-324.53 -12.09,-726.95 -62.58,-1009.93 -16.82,-92.57 -94.15,-226.18 -184.62,-181.99l0 0 -0.5 0.5z"/>
   <path class="fil4" d="M1689.51 3973.45c-56.8,-316.65 63.11,-754.81 210.41,-672.22 101.51,56.8 288.26,-1.05 394.5,-27.36 63.63,-15.77 123.61,-36.3 187.78,-45.76 103.61,-15.77 126.77,8.41 198.32,37.88 -2.63,-203.57 -388.19,-305.61 -448.68,-473.93 83.64,73.65 50.49,65.21 169.9,152.53 412.9,301.93 1066.73,320.33 1429.69,-67.87 28.41,-30.52 143.07,-149.9 100.46,-215.67 -22.1,6.84 -18.93,9.46 -33.14,25.26 -38.4,43.13 -25.26,38.93 -82.59,86.26 -45.76,37.35 -73.65,60.48 -129.92,95.2 -221.97,135.71 -497.59,145.17 -736.94,52.6 -81.01,-31.57 -248.81,-127.82 -282.45,-177.79 53.12,12.62 120.99,47.87 185.15,65.21 345.06,92.57 690.12,-28.94 864.23,-353.47 48.39,-89.94 119.94,-264.05 119.94,-388.72l-0.53 -31.04c-51.54,102.03 -39.45,137.81 -165.17,220.4 -238.27,156.23 -503.93,102.03 -688.55,-92.05 -24.21,-25.26 -68.39,-78.91 -85.21,-113.1 -9.46,-18.4 -34.2,-35.77 -63.11,-85.21 -19.45,-33.67 -33.67,-64.69 -51.02,-102.04 -32.09,-68.92 -85.74,-141.49 -137.28,-177.79 8.41,107.82 173.06,392.4 -95.2,732.73 -102.56,129.93 -227.23,239.85 -363.99,336.65 -8.41,5.78 -4.73,3.15 -14.19,9.46 -3.15,2.1 -15.77,11.57 -18.4,13.67l-103.61 73.12c-46.82,35.25 -92.57,65.76 -138.34,95.73 -146.22,96.25 -158.34,127.82 -256.69,210.41 -42.61,35.77 -72.6,82.59 -100.46,133.6 -95.2,173.06 -82.59,378.21 23.68,548.64 28.41,45.76 69.44,103.09 111,134.13l0 0 0.43 0.55z"/>
   <path class="fil2" d="M343.49 1946.76c-16.82,81.01 -55.75,154.13 -63.63,239.85 -7.36,78.91 -10.52,157.81 -8.94,236.17 3.68,-292.47 135.18,-591.77 245.66,-844.23 -129.4,69.97 -145.7,235.11 -173.06,367.66l-0.02 0.55zm1228.75 2461.17c98.36,44.71 219.87,90.47 309.29,111l11.04 -3.16 -1.05 -3.15c-109.95,-26.84 -216.72,-62.06 -319.28,-105.19l0 0 0 0.5zm219.87 -94.15c-9.46,-21.55 -17.87,-41.55 -24.21,-57.85 -37.35,-94.68 -54.17,-179.89 -77.33,-272.46 -112.05,12.62 -336.65,-25.79 -435.53,-52.6 -93.1,-25.26 -174.11,-57.33 -245.13,-95.73 216.72,216.19 483.92,382.41 782.17,478.67l0.02 -0.03zm-1190.87 -1075.69c-46.29,-288.79 14.2,-625.94 95.2,-943.66 32.62,-128.35 64.16,-266.68 82.06,-400.29 9.46,-73.12 35.25,-357.68 -56.27,-400.81 -12.09,0.52 -26.31,3.15 -42.08,7.36 -155.71,280.88 -244.6,604.38 -244.6,948.4 0,280.88 59.43,548.11 165.7,789.53l0 0 0 -0.53z"/>
   <path class="fil4" d="M1990.92 2539.03c258.27,-1.05 434.48,-145.7 512.34,-330.34 149.9,-356.1 -62.06,-611.22 -64.69,-656.98l1.58 -9.46 -33.14 -17.88c36.3,162.54 -19.45,214.61 -97.3,289.31 -111.52,107.82 -287.74,82.59 -416.61,38.4 -8.41,-2.63 -19.98,-6.31 -30.52,-10.51l-354 -218.29c-27.89,-24.21 -52.07,-47.34 -81.54,-72.6 -27.89,-23.68 -55.75,-52.6 -80.48,-72.07 -6.84,-5.26 -15.77,-12.09 -22.63,-17.35 -4.73,-3.16 -8.94,-6.31 -14.2,-10.52l-151.48 -90.47c-82.59,-39.45 -162.02,-38.93 -254.59,-45.24 32.62,23.68 206.73,42.08 328.76,253.54 125.72,217.77 185.68,595.45 361.36,797.95 106.24,122.04 206.73,167.8 397.13,172l0 0 0 0.5z"/>
   <path class="fil8" d="M1846.8 2991.38c18.4,-13.14 39.98,-27.89 65.21,-44.71 45.76,-29.99 91.52,-60.48 138.33,-95.73l103.61 -73.13c2.63,-2.1 15.77,-11.57 18.4,-13.67 9.46,-6.31 5.78,-3.68 14.2,-9.46 136.23,-96.78 261.42,-206.73 363.99,-336.65 268.26,-340.33 103.61,-624.89 95.2,-732.73 -29.99,-37.35 -146.75,-116.78 -205.68,-143.07l-1.58 9.46c3.16,45.76 214.61,300.88 64.69,656.98 -75.23,178.32 -241.98,319.28 -486.03,329.82 -6.84,8.94 -13.14,17.88 -18.93,26.31 -26.31,39.98 -34.2,70.5 -45.76,115.2 -11.57,44.71 -26.31,104.14 -36.82,147.27 -10.52,42.61 -15.77,68.92 -31.57,99.41 -10.51,20.5 -25.26,43.13 -37.35,65.21l0 0 0.07 -0.53z"/>
   <path class="fil5" d="M1972.52 2580.06c9.46,-9.46 6.31,1.58 14.19,-18.4 2.1,-5.26 3.68,-17.35 4.21,-22.63 -190.41,-4.73 -290.89,-50.49 -397.13,-172.01 -176.21,-202.52 -235.64,-580.18 -361.36,-797.94 -122.04,-211.46 -296.15,-229.86 -328.76,-253.54l-57.33 -6.31c-12.62,0.53 -31.04,3.68 -50.49,8.41 -19.98,28.41 -39.45,57.33 -57.85,86.79 80.48,54.17 270.89,92.05 234.59,459.21 -23.68,240.4 -65.76,488.13 26.84,703.79 74.17,173.06 240.4,285.63 484.98,302.45 254.06,17.35 416.61,-125.19 488.65,-289.31l0 0 -0.52 -0.53z"/>
   <path class="fil1" d="M3271.76 1971.47c-41.56,55.22 -64.68,100.46 -152.53,119.41 -36.82,8.41 -84.69,6.31 -120.46,-1.05 -52.07,-11.04 -63.63,-24.73 -102.04,-39.45 16.82,34.2 61.01,87.84 85.21,113.1 184.62,194.08 450.25,248.28 688.55,92.05 125.72,-82.59 113.63,-118.36 165.17,-220.4l0.53 31.04c35.25,-82.06 -8.41,-335.07 -31.57,-418.18 -62.58,-219.87 -223.02,-406.6 -406.07,-529.68 -116.78,-78.38 -187.25,-96.25 -323.48,-148.85l116.25 82.06c51.02,36.3 77.33,76.8 116.25,125.72 150.43,189.35 244.61,657.51 -35.25,794.26l0 0 -0.58 -0.02z"/>
   <path class="fil1" d="M845.81 1308.7l57.33 6.31c92.57,6.31 172.01,5.78 254.59,45.24l151.48 90.47c5.26,3.68 9.46,6.84 14.2,10.52 7.36,5.26 16.3,12.09 22.63,17.35 24.73,19.98 53.12,48.92 80.48,72.07 29.47,25.26 53.65,48.39 81.54,72.6l354 218.29c10.52,3.68 22.63,7.36 30.52,10.51 128.35,44.19 305.08,69.45 416.61,-38.4 77.86,-75.23 133.6,-126.77 97.3,-289.31 -27.36,-34.72 -284.58,-141.49 -317.17,-152.53 -281.93,-97.83 -518.65,-140.96 -824.26,-128.87 -100.46,4.2 -347.69,26.83 -419.24,66.29l0 0 0 -0.52z"/>
   <path class="fil6" d="M2016.17 866.33c0,140.44 28.94,233.01 130.98,297.72 268.78,169.9 260.37,-187.25 884.21,199.89 48.39,29.99 77.33,53.12 117.31,92.57 64.16,63.11 128.87,150.95 152,268.26 26.31,-38.4 -2.1,-148.32 -11.57,-176.74 -28.41,-83.11 -33.14,-88.37 -76.8,-154.66 -1.58,-2.63 -9.46,-14.2 -9.99,-15.25l-71.02 -90.47 -309.82 -220.92c-442.37,-264.58 -591.24,109.42 -586.49,-315.6 -160.96,24.73 -156.76,6.31 -219.34,114.68l0 0 0.52 0.5z"/>
   <path class="fil7" d="M3301.2 1724.76c17.35,97.83 8.41,167.8 -28.94,246.71 279.83,-136.76 185.67,-604.91 35.25,-794.27 -38.93,-48.92 -65.21,-89.42 -116.25,-125.72l-116.25 -82.06c-104.67,-18.93 -184.1,-38.93 -294.57,-46.29 -69.44,-4.73 -285.63,27.89 -344.01,40.51 63.11,11.04 124.67,-11.04 174.64,7.89 65.76,25.26 149.37,58.9 210.93,95.73l309.81 220.92 71.02 90.47c0.53,1.05 7.89,12.09 9.99,15.24 43.66,66.82 48.39,71.55 76.81,154.66 9.46,28.41 37.88,137.81 11.57,176.74l0 0 0.02 -0.53z"/>
   <path class="fil0" d="M2228.69 1919.4c24.73,147.8 27.89,136.76 195.13,162.54 -57.85,-135.71 -23.68,-103.61 -195.13,-162.54z"/>
   <path class="fil9" d="M721.67 1493.85c91.52,43.14 65.76,327.72 56.27,400.81 -17.87,133.6 -49.44,271.94 -82.06,400.28 -81.01,318.23 -141.49,654.88 -95.2,943.67 98.88,224.07 238.27,426.07 408.7,597.02 71.02,38.4 152.01,70.5 245.13,95.73 98.88,26.84 323.49,65.21 435.53,52.6l-0.52 -9.99c-41.56,-31.04 -82.59,-88.89 -111,-134.13 -106.77,-170.43 -118.88,-375.58 -23.68,-548.64 27.89,-50.49 58.38,-97.3 100.46,-133.6 81.01,-68.92 103.09,-102.04 191.46,-165.7 12.09,-22.11 26.84,-44.19 37.35,-65.21 15.25,-30.51 21.03,-56.8 31.57,-99.41 10.51,-42.61 25.26,-102.04 36.82,-147.27 11.57,-44.71 19.45,-75.23 45.76,-115.2 5.78,-8.41 12.09,-17.35 18.93,-26.31 -8.41,0.53 -17.35,0.53 -26.31,0.53 -0.53,5.26 -2.1,17.35 -4.21,22.63 -7.89,19.45 -4.73,8.41 -14.2,18.4 -44.18,179.89 -243.03,322.43 -451.83,337.7 -260.9,18.93 -443.94,-82.06 -551.26,-232.49 -230.91,-324.53 -12.09,-726.95 -62.58,-1009.93 -16.82,-92.57 -94.15,-226.18 -184.62,-181.99l0 0 -0.5 0.5z"/>
  </g>
  <g id="_105553208020032">
   <polygon id="Vector_15" class="fil10" points="4930.78,1812.63 5097.53,1812.63 5097.53,2993.51 4930.78,2993.51 4930.78,3358.55 6519.31,3358.55 6519.31,2744.18 6063.27,2744.18 6063.27,2998.24 5642.98,2998.24 5642.98,2553.77 6142.68,2553.77 6142.68,2190.84 5642.98,2190.84 5642.98,1814.73 6065.9,1814.73 6065.9,2058.29 6521.94,2058.29 6521.94,1457.05 4933.41,1457.05 4933.41,1811.58 4930.78,1811.58 4930.78,1811.58 4930.78,1811.58 "/>
   <path id="Vector_15_0" class="fil10" d="M7887.97 3359.6l528.11 0 0 -680.14 105.19 0 0 -291.41 -873.69 0 0 291.41 161.49 0 0 113.63c-38.4,71.55 -102.56,132.55 -253.54,132.55 -228.28,0 -361.36,-222.5 -361.36,-500.22 0,-272.47 148.85,-510.76 361.36,-510.76 156.23,0 291.94,124.67 299.83,347.17l471.83 0 0 -802.15 -391.87 0 -56.27 196.19c-41.03,-42.08 -130.45,-227.75 -514.97,-227.75 -409.75,0 -809.53,407.65 -809.53,1000.99 0,587.54 366.61,958.39 827.93,958.39 202.52,0 366.62,-95.2 425.02,-196.19l82.06 169.38 0 0 0 0 -1.58 -1.08z"/>
   <path id="Vector_15_1" class="fil10" d="M9492.59 3409.85c594.4,0 927.34,-376.11 927.34,-989.95 0,-611.74 -299.83,-1014.13 -945.77,-1014.13 -545.98,0 -924.72,405.02 -924.72,992.58 0,682.76 391.87,1011.5 943.14,1011.5zm0 -426.05c-169.38,0 -291.94,-225.13 -291.94,-582.28 0,-338.75 109.95,-577.02 271.41,-574.39 202.52,0 289.84,264.58 289.84,592.82 0,336.13 -102.56,563.88 -269.31,563.88l0 -0.02z"/>
   <path id="Vector_15_2" class="fil10" d="M14665.41 3002.19l-184.62 0 -466.58 -1545.92 -1012.03 0 0 351.9 107.29 0 -356.1 1194.03 -179.36 0 0 357.15 837.92 0 0 -357.15 -205.15 0 56.27 -185.15 540.72 0 56.27 185.15 -250.91 0 0 357.15 1055.69 0 0 -357.15 0.58 0zm-1132.49 -1101.45l174.11 587.54 -346.11 0 171.48 -587.54 0.53 0z"/>
   <path class="fil10" d="M11467.09 1463c377.26,0 658.8,78.83 838.99,233.68 183,154.85 275.91,391.34 275.91,709.48 0,320.96 -92.91,557.45 -275.91,712.3 -183,154.85 -461.73,233.68 -838.99,233.68l-1027.62 0 0 -267.46 95.72 0c61.94,0 104.17,-8.45 123.88,-22.52 19.71,-14.08 28.15,-56.31 28.15,-126.69l0 -14.08 0 -1030.44c0,-73.2 -8.44,-118.25 -28.15,-135.14 -16.89,-16.89 -59.13,-25.34 -126.7,-25.34l-92.91 0 0 -267.46 1027.62 0zm-149.21 1613.23l149.21 0c135.14,0 233.68,-50.68 292.8,-154.85 61.94,-101.35 90.09,-273.09 90.09,-515.22 0,-242.12 -28.15,-413.87 -90.09,-515.22 -59.12,-104.17 -157.66,-154.85 -292.8,-154.85l-149.21 0 0 1340.13z"/>
   <path id="Vector_15_3" class="fil10" d="M15580.08 3409.85c594.4,0 927.34,-376.11 927.34,-989.95 0,-611.74 -299.83,-1014.13 -945.77,-1014.13 -545.98,0 -924.72,405.02 -924.72,992.58 0,682.76 391.87,1011.5 943.14,1011.5zm0 -426.05c-169.38,0 -291.94,-225.13 -291.94,-582.28 0,-338.75 109.95,-577.02 271.41,-574.39 202.52,0 289.84,264.58 289.84,592.82 0,336.13 -102.56,563.88 -269.31,563.88l0 -0.02z"/>
  </g>
 </g>
</svg>
