<?xml version="1.0" encoding="UTF-8"?>
<!DOCTYPE svg PUBLIC "-//W3C//DTD SVG 1.1//EN" "http://www.w3.org/Graphics/SVG/1.1/DTD/svg11.dtd">
<!-- Creator: CorelDRAW -->
<svg xmlns="http://www.w3.org/2000/svg" xml:space="preserve" width="2.72309in" height="0.756276in" version="1.1" style="shape-rendering:geometricPrecision; text-rendering:geometricPrecision; image-rendering:optimizeQuality; fill-rule:evenodd; clip-rule:evenodd"
viewBox="0 0 5623.25 1561.73"
 xmlns:xlink="http://www.w3.org/1999/xlink"
 xmlns:xodm="http://www.corel.com/coreldraw/odm/2003">
 <defs>
  <style type="text/css">
   <![CDATA[
    .str0 {stroke:#231F20;stroke-width:12.62;stroke-linecap:round;stroke-linejoin:round;stroke-miterlimit:2.61313}
    .fil2 {fill:none;fill-rule:nonzero}
    .fil3 {fill:black}
    .fil5 {fill:#21AD62}
    .fil1 {fill:#231F20}
    .fil12 {fill:#2CBD70}
    .fil10 {fill:#39DB84}
    .fil9 {fill:#40DE8A}
    .fil8 {fill:#46D98A}
    .fil6 {fill:#4BE894}
    .fil11 {fill:#4FE394}
    .fil7 {fill:#53F19C}
    .fil4 {fill:#7CFFB0}
    .fil13 {fill:black;fill-rule:nonzero}
    .fil0 {fill:#231F20;fill-rule:nonzero}
   ]]>
  </style>
 </defs>
 <g id="Layer_x0020_1">
  <metadata id="CorelCorpID_0Corel-Layer"/>
  <g id="_105553240754112">
   <path id="Vector_15" class="fil0" d="M4828.84 1081.81l9.12 -67.89c32.46,39.53 92.4,81.66 178.94,81.66 101.52,0 227.17,-49.84 227.17,-187.43 0,-208.06 -338.68,-186.57 -338.68,-277.71 0,-30.96 34.11,-46.42 59.08,-46.42 59.91,0 109.83,36.97 109.83,102.31l153.96 0 0 -221.86 -147.31 0 -8.3 73.95c-34.1,-66.21 -107.35,-90.28 -178.94,-90.28 -84.06,0 -203.88,59.32 -203.88,190.04 0,225.27 328.73,196.05 328.73,265.71 0,36.98 -42.43,43.81 -72.38,43.81 -35.8,-1.69 -108.2,-13.73 -108.2,-88.54l-158.92 0 0 222.68 149.79 0 -0.01 -0.03zm-529.3 -473.74l56.6 190.86 -112.35 0 55.73 -190.86 0.02 0zm367.87 357.67l-59.91 0 -151.48 -502.13 -328.69 0 0 114.35 34.93 0 -115.69 387.78 -58.22 0 0 116.07 272.12 0 0 -116.07 -66.56 0 18.29 -60.19 175.59 0 18.29 60.19 -81.54 0 0 116.07 342.86 0 0 -116.07zm-1011.13 -387.78c49.96,0 78.25,26.67 78.25,79.11 0,46.45 -32.46,71.39 -82.37,71.39l-38.32 0 0 -150.51 42.44 0 0 0.02zm-267.14 0.87l48.27 0 0 385.18 -48.27 0 0 117.81 276.29 0 0 -116.94 -51.6 0 0 -136.73c76.58,0 85.76,19.79 85.76,99.76 0,103.18 54.09,164.22 166.42,164.22 94.88,0 124.81,-67.93 124.81,-141.88l0 -49.02 -57.4 0 0 29.27c0,18.06 -6.63,28.36 -19.98,28.36 -15.81,0 -20.8,-22.34 -20.8,-60.19 0,-63.59 -53.27,-116.94 -112.35,-125.52 70.76,-10.3 123.98,-59.32 123.98,-128.11 0,-100.58 -38.28,-182.28 -237.16,-182.28l-277.95 0 0 116.07 -0.02 0zm-312.09 380.02c-54.96,0 -94.88,-73.06 -94.88,-189.18 0,-110.05 35.79,-187.43 88.22,-186.56 65.72,0 94.06,85.99 94.06,192.58 0,109.2 -33.28,183.15 -87.4,183.15zm0 138.43c193.1,0 301.27,-122.1 301.27,-321.57 0,-198.61 -97.4,-329.33 -307.1,-329.33 -177.28,0 -300.4,131.54 -300.4,322.44 0,221.82 127.32,328.46 306.23,328.46zm-515.14 -15.47l171.46 0 0 -220.95 34.11 0 0 -94.59 -283.77 0 0 94.59 52.4 0 0 36.98c-12.5,23.21 -33.28,43 -82.41,43 -74.07,0 -117.33,-72.23 -117.33,-162.5 0,-88.58 48.3,-165.96 117.33,-165.96 50.74,0 94.88,40.44 97.39,112.67l153.15 0 0 -260.56 -127.32 0 -18.29 63.64c-13.33,-13.73 -42.44,-73.95 -167.29,-73.95 -133.16,0 -262.97,132.45 -262.97,325.03 0,190.86 118.99,311.27 268.83,311.27 65.73,0 118.99,-30.95 138.11,-63.64l26.62 55.03 -0.01 -0.05zm-960.35 -502.16l54.09 0 0 383.53 -54.09 0 0 118.63 515.97 0 0 -199.52 -148.15 0 0 82.56 -136.46 0 0 -144.44 162.27 0 0 -117.81 -162.27 0 0 -122.1 137.28 0 0 79.11 148.15 0 0 -195.19 -515.96 0 0 115.22 -0.83 0 0 0.02z"/>
   <path id="Vector_16" class="fil1" d="M2986.34 262.37c75.76,35.25 294.63,49.84 430.26,216.67 71.59,87.68 117.33,237.32 58.26,371.45 -21.63,-263.12 -163.96,-412.71 -488.52,-588.15l0 0.03z"/>
   <path id="Vector_20" class="fil2 str0" d="M5468.83 456.66c81.58,0 148.1,68.8 148.1,153.1 0,84.25 -66.57,153.05 -148.1,153.05 -81.54,0 -148.15,-68.8 -148.15,-153.05 0,-85.12 66.59,-153.1 148.15,-153.1z"/>
   <path id="Vector_21" class="fil0" d="M5437.17 592.56l23.29 0c2.51,0 7.5,-0.87 14.16,-2.59 3.34,-0.86 6.64,-2.55 9.17,-6.02 2.48,-3.46 3.31,-6.92 3.31,-10.35 0,-6.02 -1.65,-10.3 -5.82,-13.73 -3.31,-3.46 -9.99,-5.15 -19.98,-5.15l-24.11 0 0 37.85 -0.02 0zm-54.94 107.46l0 -182.28 90.71 0c16.63,0 29.93,1.69 38.28,4.28 9.17,2.59 15.81,8.61 21.68,16.33 5.81,7.74 8.3,18.06 8.3,29.26 0,10.31 -2.52,18.89 -6.64,25.77 -4.18,7.75 -9.99,12.91 -17.47,18.06 -5,2.59 -10.81,5.2 -19.16,6.92 6.68,2.56 10.81,4.28 14.16,6.89 1.65,1.69 5,4.28 8.3,9.48 4.18,5.15 6.64,8.59 7.51,11.17l26.59 52.43 -61.6 0 -29.15 -55.9c-3.3,-6.89 -6.63,-12.04 -9.99,-13.73 -4.12,-2.59 -8.3,-4.33 -13.29,-4.33l-5 0 0 73.94 -53.26 0 0 1.74 0.04 -0.03z"/>
   <g>
    <circle class="fil3" cx="780.87" cy="780.86" r="780.86"/>
    <path class="fil4" d="M777.69 105.62c381,0 689.87,308.88 689.87,689.86 0,380.99 -308.87,689.87 -689.87,689.87 -380.98,0 -689.85,-308.88 -689.85,-689.87 0,-380.98 308.87,-689.86 689.85,-689.86zm0 53.5c351.45,0 636.37,284.92 636.37,636.35 0,351.44 -284.92,636.36 -636.37,636.36 -351.43,0 -636.35,-284.92 -636.35,-636.36 0,-351.44 284.92,-636.35 636.35,-636.35z"/>
    <path class="fil5" d="M790.26 80.5c387.93,0 702.43,314.49 702.43,702.41 0,387.93 -314.49,702.43 -702.43,702.43 -387.92,0 -702.42,-314.5 -702.42,-702.43 0,-387.92 314.49,-702.41 702.42,-702.41zm0 54.47c357.84,0 647.95,290.1 647.95,647.94 0,357.85 -290.11,647.96 -647.95,647.96 -357.83,0 -647.95,-290.11 -647.95,-647.96 0,-357.83 290.11,-647.94 647.95,-647.94z"/>
    <g>
     <path class="fil6" d="M234.4 485.18c29.65,13.99 21.4,106.34 18.24,130.15 -5.72,43.32 -16.04,88.27 -26.64,130.01 -26.25,103.29 -45.88,212.63 -30.86,306.5 32.07,72.77 77.33,138.42 132.82,193.84 22.98,12.42 49.34,22.89 79.57,31.03 32.07,8.65 105.06,21.19 141.42,17.03l-0.15 -3.2c-13.56,-10.09 -26.82,-28.81 -36.11,-43.63 -34.66,-55.36 -38.68,-122.05 -7.77,-178.17 9.03,-16.45 18.92,-31.65 32.67,-43.32 31.87,-26.97 35.74,-37.1 83.29,-68.41 14.84,-9.76 29.7,-19.64 44.97,-31.07l33.7 -23.8c0.92,-0.68 5.09,-3.77 6.03,-4.41 3,-2.07 1.87,-1.13 4.61,-3.09 44.32,-31.36 84.88,-67.15 118.17,-109.34 87.1,-110.55 33.58,-202.97 30.86,-238.03 -9.7,-12.13 -47.65,-37.95 -66.83,-46.48l-0.45 3.11c0.94,14.84 69.76,97.67 21.04,213.36 -25.24,59.97 -82.47,106.9 -166.38,107.31 -0.23,1.69 -0.65,5.63 -1.37,7.4 -2.54,6.36 -1.54,2.78 -4.65,5.91 -14.4,58.36 -78.94,104.76 -146.83,109.73 -84.8,6.2 -144.18,-26.63 -178.96,-75.47 -75.08,-105.36 -3.96,-236.06 -20.41,-327.95 -5.38,-30.13 -30.64,-73.41 -60,-59.02z"/>
     <path class="fil7" d="M548.8 1290.55c-18.46,-102.93 20.42,-245.09 68.28,-218.39 32.92,18.39 93.7,-0.26 128.2,-8.9 20.61,-5.17 40.2,-11.72 61.06,-14.89 33.67,-5.09 41.12,2.72 64.37,12.38 -0.9,-66.06 -126.15,-99.22 -145.68,-153.93 27.14,23.93 16.34,21.11 55.17,49.49 134.14,98.01 346.49,104.05 464.4,-21.99 9.19,-9.88 46.54,-48.66 32.63,-69.99 -7.14,2.24 -6.2,3.04 -10.76,8.16 -12.5,13.98 -8.2,12.71 -26.9,28.1 -14.84,12.18 -23.84,19.64 -42.24,30.91 -72.06,44.1 -161.67,47.19 -239.35,17.03 -26.32,-10.2 -80.8,-41.54 -91.78,-57.68 17.24,4.14 39.21,15.56 60.15,21.19 112.06,30.05 224.06,-9.44 280.62,-114.79 15.72,-29.27 38.93,-85.79 38.93,-126.19l-0.2 -10.01c-16.73,33.06 -12.77,44.7 -53.59,71.5 -77.43,50.77 -163.73,33.19 -223.65,-29.88 -7.84,-8.23 -22.22,-25.63 -27.62,-36.75 -3.14,-6.06 -11.06,-11.57 -20.46,-27.69 -6.33,-10.91 -11.02,-21.09 -16.62,-33.15 -10.36,-22.36 -27.76,-46.03 -44.54,-57.81 2.72,35.06 56.24,127.48 -30.86,238.03 -33.29,42.19 -73.85,77.98 -118.17,109.34 -2.74,1.96 -1.61,1.02 -4.61,3.09 -0.94,0.63 -5.11,3.72 -6.03,4.41l-33.7 23.8c-15.27,11.43 -30.13,21.32 -44.97,31.07 -47.55,31.32 -51.42,41.45 -83.29,68.41 -13.76,11.67 -23.64,26.87 -32.67,43.32 -30.91,56.12 -26.89,122.81 7.77,178.17 9.28,14.82 22.54,33.54 36.11,43.63z"/>
     <path class="fil5" d="M128.93 554.27c0.75,9.99 -19.15,61.07 -22.36,76.68 -5.41,26.39 -13.1,51.39 -15.73,79.3 -2.41,25.57 -3.34,51.22 -2.89,76.77 1.15,-95.03 30.88,-187.51 66.73,-269.59 -19.98,10.77 -12.71,10.55 -21.38,29.67l-4.37 7.17zm381.6 877.39c31.89,14.45 71.39,29.41 100.53,36.12l3.52 -0.96 -0.33 -1.02c-35.75,-8.71 -70.39,-20.12 -103.72,-34.14zm71.44 -30.54c-3.06,-7.05 -5.74,-13.56 -7.84,-18.87 -12.13,-30.81 -17.59,-58.34 -25.17,-88.5 -36.37,4.16 -109.35,-8.38 -141.42,-17.03 -30.23,-8.15 -56.59,-18.61 -79.57,-31.03 70.37,70.28 157.1,124.14 254,155.44zm-386.82 -349.28c-15.02,-93.87 4.61,-203.21 30.86,-306.5 10.6,-41.74 20.92,-86.69 26.64,-130.01 3.15,-23.8 11.41,-116.15 -18.24,-130.15 -3.89,0.17 -8.55,1.01 -13.64,2.31 -50.56,91.27 -79.41,196.26 -79.41,307.99 0,91.22 19.22,177.93 53.79,256.36z"/>
     <path class="fil7" d="M646.61 824.58c83.91,-0.41 141.14,-47.34 166.38,-107.31 48.72,-115.69 -20.1,-198.53 -21.04,-213.36l0.45 -3.11 -10.78 -5.8c11.85,52.74 -6.36,69.62 -31.58,93.99 -36.21,34.98 -93.51,26.81 -135.23,12.4 -2.68,-0.93 -6.53,-2.07 -9.98,-3.33l-114.89 -70.88c-9.08,-7.84 -16.92,-15.42 -26.47,-23.59 -9,-7.67 -18.17,-17.03 -26.21,-23.49 -2.17,-1.77 -5.09,-3.91 -7.4,-5.63 -1.46,-1.06 -2.85,-2.08 -4.58,-3.34l-49.22 -29.33c-26.9,-12.87 -52.57,-12.57 -82.68,-14.67 10.59,7.67 67.19,13.66 106.84,82.34 40.84,70.72 60.23,193.44 117.44,259.21 34.45,39.57 67.17,54.43 128.95,55.91z"/>
     <path class="fil8" d="M640.58 837.87c3.09,-3.15 2.11,0.48 4.68,-5.93 0.7,-1.74 1.12,-5.66 1.35,-7.37 -61.78,-1.48 -94.49,-16.34 -128.93,-55.91 -57.24,-65.76 -76.6,-188.49 -117.45,-259.21 -39.67,-68.67 -96.26,-74.66 -106.84,-82.32l-18.6 -2.07c-4.05,0.12 -10.04,1.16 -16.48,2.7 -6.54,9.2 -12.8,18.62 -18.85,28.18 26.1,17.58 88.01,29.87 76.22,149.1 -7.73,78.07 -21.28,158.62 8.75,228.52 24.15,56.21 78.07,92.83 157.49,98.29 82.53,5.67 135.35,-40.59 158.68,-93.98z"/>
     <path class="fil4" d="M1062.63 640.31c-13.56,17.87 -21.05,32.58 -49.5,38.8 -11.99,2.65 -27.55,2.06 -39.16,-0.36 -16.91,-3.51 -20.63,-8.07 -33.12,-12.84 5.4,11.11 19.78,28.52 27.62,36.75 59.92,63.07 146.22,80.65 223.65,29.88 40.82,-26.8 36.86,-38.43 53.59,-71.5l0.2 10.01c11.47,-26.66 -2.65,-108.76 -10.33,-135.83 -20.26,-71.34 -72.5,-132.02 -131.93,-172.04 -37.86,-25.48 -60.8,-31.34 -105.14,-48.39l37.78 26.72c16.55,11.78 25.18,25 37.8,40.85 48.86,61.47 79.41,213.54 -11.46,257.94z"/>
     <path class="fil4" d="M274.78 425.05l18.6 2.07c30.11,2.1 55.78,1.8 82.68,14.67l49.22 29.33c1.72,1.26 3.12,2.28 4.58,3.34 2.31,1.72 5.23,3.86 7.4,5.63 8.04,6.46 17.21,15.82 26.21,23.49 9.55,8.16 17.39,15.75 26.47,23.59l114.89 70.88c3.45,1.27 7.29,2.41 9.98,3.33 41.72,14.41 99.02,22.58 135.23,-12.4 25.22,-24.37 43.43,-41.25 31.58,-93.99 -8.81,-11.25 -92.46,-45.94 -102.95,-49.56 -91.54,-31.82 -168.47,-45.77 -267.72,-41.86 -32.68,1.33 -112.85,8.73 -136.17,21.49z"/>
     <path class="fil9" d="M654.86 281.36c0,45.57 9.38,75.75 42.56,96.71 87.28,55.15 84.61,-60.8 287.15,64.93 15.68,9.75 25.18,17.32 38.11,30.01 20.93,20.58 41.89,49.02 49.42,87.15 8.54,-12.55 -0.68,-48.13 -3.82,-57.32 -9.22,-27.01 -10.72,-28.63 -24.97,-50.25 -0.57,-0.89 -2.99,-4.63 -3.18,-4.89l-23.01 -29.36 -100.67 -71.71c-143.62,-85.96 -191.98,35.5 -190.43,-102.53 -52.24,8.06 -50.86,2 -71.17,37.25z"/>
     <path class="fil10" d="M1072.1 560.17c5.63,31.84 2.65,54.48 -9.47,80.15 90.86,-44.39 60.32,-196.48 11.44,-257.95 -12.6,-15.85 -21.24,-29.07 -37.76,-40.84l-37.8 -26.72c-84.41,-15.33 -121.19,-20.92 -208.96,-1.82 20.51,3.63 38.54,5.93 54.7,12.16 21.41,8.24 52.15,9.47 72.21,21.48l100.67 71.71 23.01 29.36c0.19,0.26 2.61,4 3.18,4.89 14.24,21.63 15.75,23.24 24.97,50.25 3.14,9.19 12.37,44.76 3.82,57.32z"/>
     <path class="fil3" d="M723.9 623.36c8.02,48.02 9.13,44.4 63.43,52.84 -18.84,-44.11 -7.71,-33.73 -63.43,-52.84z"/>
    </g>
    <path class="fil6" d="M234.4 485.18c29.65,14 21.4,106.35 18.24,130.15 -5.72,43.32 -16.04,88.27 -26.63,130.01 -26.26,103.29 -45.89,212.63 -30.86,306.5 32.06,72.77 77.32,138.42 132.81,193.84 22.98,12.42 49.34,22.89 79.57,31.02 32.06,8.66 105.06,21.2 141.42,17.04l-0.15 -3.2c-13.56,-10.09 -26.82,-28.81 -36.11,-43.63 -34.66,-55.36 -38.68,-122.05 -7.77,-178.17 9.03,-16.45 18.91,-31.65 32.68,-43.32 26.36,-22.3 33.55,-33.09 62.16,-53.87 3.93,-7.14 8.8,-14.43 12.21,-21.11 5.01,-9.84 6.86,-18.37 10.2,-32.29 3.34,-13.92 8.17,-33.22 11.9,-47.78 3.74,-14.57 6.39,-24.41 14.93,-37.4 1.81,-2.76 3.89,-5.67 6.14,-8.61 -2.81,0.12 -5.66,0.2 -8.54,0.21 -0.23,1.69 -0.65,5.63 -1.37,7.4 -2.54,6.36 -1.55,2.78 -4.65,5.91 -14.4,58.36 -78.94,104.76 -146.83,109.73 -84.8,6.2 -144.17,-26.63 -178.96,-75.47 -75.08,-105.36 -3.96,-236.06 -20.41,-327.95 -5.38,-30.13 -30.64,-73.42 -60,-59.02z"/>
    <path class="fil7" d="M548.8 1290.55c-18.46,-102.93 20.42,-245.09 68.28,-218.39 32.92,18.39 93.7,-0.26 128.2,-8.9 20.61,-5.17 40.2,-11.72 61.06,-14.89 33.67,-5.09 41.12,2.72 64.37,12.38 -0.9,-66.06 -126.15,-99.22 -145.68,-153.93 27.14,23.93 16.34,21.11 55.17,49.49 134.14,98.01 346.49,104.05 464.4,-21.99 9.19,-9.88 46.54,-48.66 32.63,-69.99 -7.14,2.24 -6.2,3.04 -10.76,8.16 -12.5,13.98 -8.2,12.71 -26.9,28.1 -14.84,12.18 -23.84,19.64 -42.24,30.91 -72.06,44.1 -161.67,47.19 -239.35,17.03 -26.32,-10.2 -80.8,-41.54 -91.78,-57.68 17.24,4.14 39.21,15.56 60.15,21.19 112.06,30.05 224.06,-9.44 280.62,-114.79 15.72,-29.27 38.93,-85.79 38.93,-126.19l-0.2 -10.01c-16.73,33.06 -12.77,44.7 -53.59,71.5 -77.43,50.77 -163.73,33.19 -223.65,-29.88 -7.84,-8.23 -22.22,-25.63 -27.62,-36.75 -3.14,-6.06 -11.06,-11.57 -20.46,-27.69 -6.33,-10.91 -11.02,-21.09 -16.62,-33.15 -10.36,-22.36 -27.76,-46.03 -44.54,-57.81 2.72,35.06 56.24,127.48 -30.86,238.03 -33.29,42.19 -73.85,77.98 -118.17,109.34 -2.74,1.96 -1.61,1.02 -4.61,3.09 -0.94,0.63 -5.11,3.72 -6.03,4.41l-33.7 23.8c-15.27,11.43 -30.13,21.32 -44.97,31.07 -47.55,31.32 -51.42,41.45 -83.29,68.41 -13.76,11.67 -23.64,26.87 -32.67,43.32 -30.91,56.12 -26.89,122.81 7.77,178.17 9.28,14.82 22.54,33.54 36.11,43.63z"/>
    <path class="fil5" d="M111.52 632.29c-5.41,26.39 -18.05,50.06 -20.68,77.97 -2.41,25.57 -3.34,51.22 -2.89,76.77 1.15,-95.03 43.93,-192.14 79.78,-274.21 -42.08,22.67 -47.34,76.37 -56.21,119.47zm399.01 799.38c31.89,14.45 71.39,29.41 100.53,36.12l3.52 -0.96 -0.33 -1.02c-35.75,-8.71 -70.39,-20.12 -103.72,-34.14zm71.44 -30.54c-3.06,-7.05 -5.74,-13.56 -7.84,-18.87 -12.13,-30.81 -17.59,-58.34 -25.17,-88.5 -36.37,4.16 -109.35,-8.38 -141.42,-17.03 -30.23,-8.15 -56.59,-18.61 -79.57,-31.03 70.37,70.28 157.1,124.14 254,155.44zm-386.82 -349.28c-15.02,-93.87 4.61,-203.21 30.86,-306.5 10.6,-41.74 20.92,-86.69 26.64,-130.01 3.15,-23.8 11.41,-116.15 -18.24,-130.15 -3.89,0.17 -8.55,1.01 -13.64,2.31 -50.56,91.27 -79.41,196.26 -79.41,307.99 0,91.22 19.22,177.93 53.79,256.36z"/>
    <path class="fil7" d="M646.61 824.58c83.91,-0.41 141.14,-47.34 166.38,-107.31 48.72,-115.69 -20.1,-198.53 -21.04,-213.36l0.45 -3.11 -10.78 -5.8c11.85,52.74 -6.36,69.62 -31.58,93.99 -36.21,34.98 -93.51,26.81 -135.23,12.4 -2.68,-0.93 -6.53,-2.07 -9.98,-3.33l-114.89 -70.88c-9.08,-7.84 -16.92,-15.42 -26.47,-23.59 -9,-7.67 -18.17,-17.03 -26.21,-23.49 -2.17,-1.77 -5.09,-3.91 -7.4,-5.63 -1.46,-1.06 -2.85,-2.08 -4.58,-3.34l-49.22 -29.33c-26.9,-12.87 -52.57,-12.57 -82.68,-14.67 10.59,7.67 67.19,13.66 106.84,82.34 40.84,70.72 60.23,193.44 117.44,259.21 34.45,39.57 67.17,54.43 128.95,55.91z"/>
    <path class="fil11" d="M599.77 971.56c5.98,-4.34 12.9,-9.12 21.12,-14.54 14.84,-9.76 29.7,-19.64 44.97,-31.07l33.7 -23.8c0.92,-0.68 5.09,-3.77 6.03,-4.41 3,-2.07 1.86,-1.13 4.61,-3.09 44.32,-31.36 84.88,-67.15 118.17,-109.34 87.1,-110.55 33.58,-202.97 30.86,-238.03 -9.69,-12.13 -47.65,-37.95 -66.83,-46.48l-0.45 3.11c0.94,14.84 69.76,97.67 21.04,213.36 -24.38,57.92 -78.58,103.67 -157.84,107.1 -2.24,2.93 -4.33,5.85 -6.14,8.61 -8.54,12.99 -11.19,22.83 -14.93,37.4 -3.73,14.56 -8.56,33.86 -11.9,47.78 -3.34,13.92 -5.2,22.46 -10.2,32.29 -3.41,6.68 -8.28,13.98 -12.21,21.11z"/>
    <path class="fil8" d="M640.58 837.87c3.09,-3.15 2.11,0.48 4.68,-5.93 0.7,-1.74 1.12,-5.66 1.35,-7.37 -61.78,-1.48 -94.49,-16.34 -128.93,-55.91 -57.24,-65.76 -76.6,-188.49 -117.45,-259.21 -39.67,-68.67 -96.26,-74.66 -106.84,-82.32l-18.6 -2.07c-4.05,0.12 -10.04,1.16 -16.48,2.7 -6.54,9.2 -12.8,18.62 -18.85,28.18 26.1,17.58 88.01,29.87 76.22,149.1 -7.73,78.07 -21.28,158.62 8.75,228.52 24.15,56.21 78.07,92.83 157.49,98.29 82.53,5.67 135.35,-40.59 158.68,-93.98z"/>
    <path class="fil4" d="M1062.63 640.31c-13.56,17.87 -21.05,32.58 -49.5,38.8 -11.99,2.65 -27.55,2.06 -39.16,-0.36 -16.91,-3.51 -20.63,-8.07 -33.12,-12.84 5.4,11.11 19.78,28.52 27.62,36.75 59.92,63.07 146.22,80.65 223.65,29.88 40.82,-26.8 36.86,-38.43 53.59,-71.5l0.2 10.01c11.47,-26.66 -2.65,-108.76 -10.33,-135.83 -20.26,-71.34 -72.5,-132.02 -131.93,-172.04 -37.86,-25.48 -60.8,-31.34 -105.14,-48.39l37.78 26.72c16.55,11.78 25.18,25 37.8,40.85 48.86,61.47 79.41,213.54 -11.46,257.94z"/>
    <path class="fil4" d="M274.78 425.05l18.6 2.07c30.11,2.1 55.78,1.8 82.68,14.67l49.22 29.33c1.72,1.26 3.12,2.28 4.58,3.34 2.31,1.72 5.23,3.86 7.4,5.63 8.04,6.46 17.21,15.82 26.21,23.49 9.55,8.16 17.39,15.75 26.47,23.59l114.89 70.88c3.45,1.27 7.29,2.41 9.98,3.33 41.72,14.41 99.02,22.58 135.23,-12.4 25.22,-24.37 43.43,-41.25 31.58,-93.99 -8.81,-11.25 -92.46,-45.94 -102.95,-49.56 -91.54,-31.82 -168.47,-45.77 -267.72,-41.86 -32.68,1.33 -112.85,8.73 -136.17,21.49z"/>
    <path class="fil9" d="M654.86 281.36c0,45.57 9.38,75.75 42.56,96.71 87.28,55.15 84.61,-60.8 287.15,64.93 15.68,9.75 25.18,17.32 38.11,30.01 20.93,20.58 41.89,49.02 49.42,87.15 8.54,-12.55 -0.68,-48.13 -3.82,-57.32 -9.22,-27.01 -10.72,-28.63 -24.97,-50.25 -0.57,-0.89 -2.99,-4.63 -3.18,-4.89l-23.01 -29.36 -100.67 -71.71c-143.62,-85.96 -191.98,35.5 -190.43,-102.53 -52.24,8.06 -50.86,2 -71.17,37.25z"/>
    <path class="fil10" d="M1072.1 560.17c5.63,31.84 2.65,54.48 -9.47,80.15 90.86,-44.39 60.32,-196.48 11.44,-257.95 -12.6,-15.85 -21.24,-29.07 -37.76,-40.84l-37.8 -26.72c-34.02,-6.18 -59.86,-12.72 -95.59,-15.04 -22.56,-1.47 -92.7,8.98 -111.66,13.11 20.51,3.63 40.51,-3.6 56.67,2.63 21.41,8.24 48.47,19.11 68.54,31.11l100.67 71.71 23.01 29.36c0.19,0.26 2.61,4 3.18,4.89 14.24,21.63 15.75,23.24 24.97,50.25 3.14,9.19 12.37,44.76 3.82,57.32z"/>
    <path class="fil3" d="M723.9 623.36c8.02,48.02 9.13,44.4 63.43,52.84 -18.84,-44.11 -7.71,-33.73 -63.43,-52.84z"/>
    <path class="fil12" d="M234.4 485.18c29.65,14 21.4,106.35 18.24,130.15 -5.72,43.32 -16.04,88.27 -26.63,130.01 -26.26,103.29 -45.89,212.63 -30.86,306.5 32.06,72.77 77.32,138.42 132.81,193.84 22.98,12.42 49.34,22.89 79.57,31.02 32.06,8.66 105.06,21.2 141.42,17.04l-0.15 -3.2c-13.56,-10.09 -26.82,-28.81 -36.11,-43.63 -34.66,-55.36 -38.68,-122.05 -7.77,-178.17 9.03,-16.45 18.91,-31.65 32.68,-43.32 26.36,-22.3 33.55,-33.09 62.16,-53.87 3.93,-7.14 8.8,-14.43 12.21,-21.11 5.01,-9.84 6.86,-18.37 10.2,-32.29 3.34,-13.92 8.17,-33.22 11.9,-47.78 3.74,-14.57 6.39,-24.41 14.93,-37.4 1.81,-2.76 3.89,-5.67 6.14,-8.61 -2.81,0.12 -5.66,0.2 -8.54,0.21 -0.23,1.69 -0.65,5.63 -1.37,7.4 -2.54,6.36 -1.55,2.78 -4.65,5.91 -14.4,58.36 -78.94,104.76 -146.83,109.73 -84.8,6.2 -144.17,-26.63 -178.96,-75.47 -75.08,-105.36 -3.96,-236.06 -20.41,-327.95 -5.38,-30.13 -30.64,-73.42 -60,-59.02z"/>
   </g>
   <path class="fil13" d="M2329.75 1386.83c0,-4.98 1.67,-9.5 5.23,-13.06 3.56,-3.56 8.07,-5.46 13.06,-5.46 5.22,0 9.5,1.89 13.06,5.46 3.56,3.56 5.46,8.07 5.46,13.06 0,5.23 -1.9,9.5 -5.46,13.06 -3.56,3.56 -7.84,5.46 -13.06,5.46 -4.98,0 -9.5,-1.9 -13.06,-5.46 -3.56,-3.56 -5.23,-7.83 -5.23,-13.06z"/>
   <path id="_1" class="fil13" d="M2416.92 1386.83c0,-4.98 1.67,-9.5 5.23,-13.06 3.56,-3.56 8.07,-5.46 13.06,-5.46 5.22,0 9.5,1.89 13.06,5.46 3.56,3.56 5.46,8.07 5.46,13.06 0,5.23 -1.9,9.5 -5.46,13.06 -3.56,3.56 -7.84,5.46 -13.06,5.46 -4.98,0 -9.5,-1.9 -13.06,-5.46 -3.56,-3.56 -5.23,-7.83 -5.23,-13.06z"/>
   <path id="_2" class="fil13" d="M2504.09 1386.83c0,-4.98 1.67,-9.5 5.23,-13.06 3.56,-3.56 8.07,-5.46 13.06,-5.46 5.22,0 9.5,1.89 13.06,5.46 3.56,3.56 5.46,8.07 5.46,13.06 0,5.23 -1.9,9.5 -5.46,13.06 -3.56,3.56 -7.84,5.46 -13.06,5.46 -4.98,0 -9.5,-1.9 -13.06,-5.46 -3.56,-3.56 -5.23,-7.83 -5.23,-13.06z"/>
   <polygon id="_3" class="fil13" points="2711.15,1402.97 2709.26,1311.1 2657.74,1405.35 2647.05,1405.35 2630.44,1310.15 2594.82,1402.97 2565.62,1402.97 2628.77,1233.23 2645.62,1233.23 2662.72,1340.77 2718.99,1233.23 2736.32,1233.23 2741.07,1402.97 "/>
   <path id="_4" class="fil13" d="M2868.6 1358.34c-0.47,3.09 -0.71,6.17 -0.71,9.73 0,16.86 1.42,28.5 4.03,34.9l-18.28 0c-5.23,0 -9.26,-4.03 -11.87,-12.35 -9.98,9.74 -22.32,14.72 -37.04,14.72 -13.53,0 -23.98,-3.8 -31.34,-11.4 -7.36,-7.59 -10.92,-18.04 -10.92,-31.58 0,-23.74 7.12,-43.92 21.37,-60.77 14.24,-16.62 32.29,-25.17 53.89,-25.17 20.89,0 36.09,1.9 45.35,5.93l-14.49 75.98zm-33.47 -58.16c-12.82,0 -23.27,6.17 -31.11,18.51 -7.59,12.59 -11.39,26.83 -11.39,42.98 0,13.29 6.41,19.94 19.7,19.94 8.32,0 15.44,-4.98 21.85,-15.43 6.17,-10.21 11.63,-31.58 16.62,-63.63 -5.46,-1.67 -10.68,-2.37 -15.67,-2.37z"/>
   <path id="_5" class="fil13" d="M2983.47 1402.97l-39.41 -51.04 -4.75 4.03 -8.31 47.01 -29.2 0 30.39 -174.97 28.49 0 -14.96 92.12 22.08 -19c14.72,-13.06 24.69,-23.02 29.67,-29.67l20.18 17.57c-3.32,4.03 -20.41,19.71 -51.28,46.77l51.28 67.19 -34.19 0z"/>
   <path id="_6" class="fil13" d="M3060.51 1238.92c0,-5.22 1.66,-9.5 5.46,-12.81 3.56,-3.57 8.06,-5.23 13.29,-5.23 5.22,0 9.73,1.66 13.29,5.23 3.8,3.32 5.7,7.59 5.7,12.81 0,5.23 -1.9,9.5 -5.7,12.82 -3.56,3.56 -8.07,5.23 -13.29,5.23 -5.23,0 -9.5,-1.67 -13.29,-4.98 -3.56,-3.57 -5.46,-7.84 -5.46,-13.06zm8.54 164.06l-29.44 0 18.76 -100.9 -15.9 0 4.98 -23.27 44.87 0 -23.27 124.17z"/>
   <path id="_7" class="fil13" d="M3210.23 1402.97l-29.91 0 13.53 -72.41c1.19,-5.69 1.67,-10.68 1.67,-14.48 0,-10.45 -6.17,-15.43 -18.28,-15.43 -10.2,0 -19.71,4.28 -27.77,13.06l-16.63 89.27 -29.19 0 17.57 -93.06c0.24,-1.67 0.47,-3.8 0.47,-6.65 0,-6.89 -1.19,-14.24 -3.33,-22.08l28.25 -5.22 2.85 13.77c10.2,-8.79 22.79,-13.3 38.22,-13.3 25.64,0 38.23,12.11 38.23,35.85 0,4.27 -0.48,9.26 -1.67,15.2l-14.01 75.5z"/>
   <path id="_8" class="fil13" d="M3349.36 1300.41c1.67,3.8 2.61,8.54 2.61,13.76 0,12.11 -2.61,22.56 -7.83,31.34 -5.23,8.79 -14.01,16.15 -25.88,21.6 -11.87,5.46 -18.52,9.02 -19.71,11.16 5.22,-1.19 9.26,-1.66 12.34,-1.66 8.55,0 15.91,2.61 22.08,8.06 6.17,5.23 9.26,11.88 9.26,20.19 0,14.95 -5.46,26.59 -15.9,34.66 -10.69,8.07 -25.88,12.11 -45.82,12.11 -7.6,0 -15.67,-1.42 -24.69,-4.27 -9.02,-3.09 -16.15,-6.65 -21.85,-10.93l12.59 -22.07c11.15,8.07 22.55,11.87 34.42,11.87 21.6,0 32.28,-5.7 32.28,-17.33 0,-2.61 -1.19,-4.51 -3.32,-6.17 -2.14,-1.67 -5.46,-2.85 -9.98,-3.8l-22.08 -3.8c-8.31,-2.61 -12.58,-7.36 -12.58,-14.48 0,-4.03 3.56,-8.07 10.2,-12.34 -8.31,-2.38 -15.2,-6.89 -20.41,-13.54 -5.22,-6.65 -7.84,-14.01 -7.84,-22.08 0,-16.62 5.46,-30.15 16.38,-40.59 11.16,-10.45 25.41,-15.67 42.74,-15.67 10.68,0 19.7,2.37 26.82,6.89l10.93 -11.87 17.09 17.1 -11.87 11.87zm-72.65 29.67c0,6.17 1.43,11.4 4.04,15.2 2.85,4.03 6.64,5.93 11.63,5.93 8.31,0 15.43,-3.33 20.89,-9.98 5.7,-6.88 8.55,-15.19 8.55,-24.69 0,-10.92 -5.7,-16.37 -17.1,-16.37 -8.54,0 -15.43,2.85 -20.41,8.31 -5.23,5.69 -7.6,12.82 -7.6,21.6z"/>
   <path id="_9" class="fil13" d="M3487.89 1393.24c-4.51,7.36 -11.4,10.92 -20.66,10.92 -7.12,0 -12.58,-2.37 -16.62,-6.89 -4.03,-4.51 -5.93,-10.45 -5.93,-17.8 0,-9.26 1.9,-22.79 5.46,-40.6l23.27 -110.87 28.72 0 -23.74 115.62c-3.33,16.38 -5.22,28.02 -5.22,35.14 0,4.51 1.42,8.07 4.27,10.68 2.85,2.62 6.17,3.8 10.45,3.8z"/>
   <path id="_10" class="fil13" d="M3546.02 1238.92c0,-5.22 1.66,-9.5 5.46,-12.81 3.56,-3.57 8.06,-5.23 13.29,-5.23 5.22,0 9.73,1.66 13.29,5.23 3.8,3.32 5.7,7.59 5.7,12.81 0,5.23 -1.9,9.5 -5.7,12.82 -3.56,3.56 -8.07,5.23 -13.29,5.23 -5.23,0 -9.5,-1.67 -13.29,-4.98 -3.56,-3.57 -5.46,-7.84 -5.46,-13.06zm8.54 164.06l-29.44 0 18.76 -100.9 -15.9 0 4.98 -23.27 44.87 0 -23.27 124.17z"/>
   <path id="_11" class="fil13" d="M3693.85 1255.54c-6.41,-2.62 -11.63,-4.04 -16.15,-4.04 -11.16,0 -18.76,9.02 -23.03,27.3l28.5 0 -2.85 23.27 -29.2 0 -18.51 108.74c-2.14,11.87 -7.6,21.6 -16.38,29.2 -8.79,7.59 -19.24,11.63 -31.11,11.63l-6.17 -19.23c5.46,-1.19 10.45,-4.03 14.72,-8.31 4.51,-4.28 7.13,-9.02 8.07,-14.48l19.47 -107.55 -17.57 0 3.8 -23.27 17.33 0c7.84,-33.95 25.88,-50.8 54.37,-50.8 7.84,0 14.72,1.67 20.42,4.98l-5.7 22.56z"/>
   <path id="_12" class="fil13" d="M3723.1 1349.08c0,1.9 0,3.8 0,5.23 0,8.54 2.37,15.2 7.59,19.94 5.23,4.5 12.35,6.88 21.37,6.88 4.99,0 10.45,-1.19 16.86,-4.03 6.41,-2.61 11.39,-5.46 14.95,-8.78l-3.32 30.38c-9.98,4.28 -21.85,6.65 -36.09,6.65 -15.2,0 -27.54,-4.98 -37.04,-14.48 -9.5,-9.74 -14.24,-23.03 -14.24,-39.89 0,-21.37 6.65,-38.93 20.42,-53.18 13.76,-14.25 31.81,-21.37 53.89,-21.37 13.06,0 23.74,2.85 31.81,8.31 8.06,5.46 12.11,13.54 12.11,23.75 0,14.01 -5.93,24.93 -18.04,33 -12.11,7.83 -27.07,11.87 -44.88,11.87 -8.54,0 -17.09,-1.42 -25.4,-4.28zm5.7 -21.84c4.98,1.42 10.44,2.13 16.38,2.13 10.44,0 19.23,-1.66 26.59,-4.75 7.36,-3.32 10.92,-7.83 10.92,-14.01 0,-6.64 -7.36,-9.97 -22.07,-9.97 -5.7,0 -11.63,2.61 -17.8,7.59 -5.94,4.99 -10.69,11.4 -14.01,19z"/>
   <path id="_13" class="fil13" d="M3925.66 1349.08c0,1.9 0,3.8 0,5.23 0,8.54 2.37,15.2 7.59,19.94 5.23,4.5 12.35,6.88 21.37,6.88 4.99,0 10.45,-1.19 16.86,-4.03 6.41,-2.61 11.39,-5.46 14.95,-8.78l-3.32 30.38c-9.98,4.28 -21.85,6.65 -36.09,6.65 -15.2,0 -27.54,-4.98 -37.04,-14.48 -9.5,-9.74 -14.24,-23.03 -14.24,-39.89 0,-21.37 6.65,-38.93 20.42,-53.18 13.76,-14.25 31.81,-21.37 53.89,-21.37 13.06,0 23.74,2.85 31.81,8.31 8.06,5.46 12.11,13.54 12.11,23.75 0,14.01 -5.93,24.93 -18.04,33 -12.11,7.83 -27.07,11.87 -44.88,11.87 -8.54,0 -17.09,-1.42 -25.4,-4.28zm5.7 -21.84c4.98,1.42 10.44,2.13 16.38,2.13 10.44,0 19.23,-1.66 26.59,-4.75 7.36,-3.32 10.92,-7.83 10.92,-14.01 0,-6.64 -7.36,-9.97 -22.07,-9.97 -5.7,0 -11.63,2.61 -17.8,7.59 -5.94,4.99 -10.69,11.4 -14.01,19z"/>
   <path id="_14" class="fil13" d="M4131.45 1358.34c-0.47,3.09 -0.71,6.17 -0.71,9.73 0,16.86 1.42,28.5 4.03,34.9l-18.28 0c-5.23,0 -9.26,-4.03 -11.87,-12.35 -9.98,9.74 -22.32,14.72 -37.04,14.72 -13.53,0 -23.98,-3.8 -31.34,-11.4 -7.36,-7.59 -10.92,-18.04 -10.92,-31.58 0,-23.74 7.12,-43.92 21.37,-60.77 14.24,-16.62 32.29,-25.17 53.89,-25.17 20.89,0 36.09,1.9 45.35,5.93l-14.49 75.98zm-33.47 -58.16c-12.82,0 -23.27,6.17 -31.11,18.51 -7.59,12.59 -11.39,26.83 -11.39,42.98 0,13.29 6.41,19.94 19.7,19.94 8.32,0 15.44,-4.98 21.85,-15.43 6.17,-10.21 11.63,-31.58 16.62,-63.63 -5.46,-1.67 -10.68,-2.37 -15.67,-2.37z"/>
   <path id="_15" class="fil13" d="M4249.41 1312.76c-9.26,-8.07 -17.8,-12.11 -25.41,-12.11 -4.75,0 -9.02,0.95 -12.58,3.33 -3.33,2.14 -5.23,4.98 -5.23,8.78 0,4.51 4.28,9.02 12.59,13.3 8.31,4.27 14.72,7.59 19.23,10.2 4.51,2.37 8.31,5.7 11.16,9.98 2.85,4.51 4.27,9.26 4.27,14.95 0,13.54 -5.22,24.46 -15.43,32.29 -10.2,7.84 -23.27,11.87 -39.17,11.87 -13.54,0 -26.83,-3.8 -39.89,-11.63l15.2 -26.11c9.73,9.02 19.23,13.53 28.49,13.53 5.93,0 10.68,-1.42 14.49,-4.27 3.8,-3.09 5.69,-6.89 5.69,-12.11 0,-4.03 -3.56,-8.06 -10.68,-11.87 -7.36,-3.8 -13.76,-7.12 -19.46,-10.45 -5.46,-3.08 -9.74,-6.88 -12.59,-11.39 -2.85,-4.51 -4.28,-9.5 -4.28,-14.96 0,-12.11 4.75,-21.6 14.24,-28.97 9.74,-7.12 21.61,-10.68 35.62,-10.68 9.5,0 21.84,3.33 37.27,9.74l-13.53 26.59z"/>
   <path id="_16" class="fil13" d="M4338.68 1415.32c-11.63,23.98 -33.95,36.08 -66.95,36.32l0 -28.01c21.85,0 35.85,-7.12 42.02,-21.13l5.93 -14.01c-10.45,-2.85 -17.8,-14.01 -21.37,-33.24l-14.72 -76.45 30.39 0c9.02,54.37 14.96,82.86 17.33,85.24l39.89 -85.24 32.76 0 -65.29 136.52z"/>
   <path id="_17" class="fil13" d="M4579.98 1255.54c-6.41,-2.62 -11.63,-4.04 -16.15,-4.04 -11.16,0 -18.76,9.02 -23.03,27.3l28.5 0 -2.85 23.27 -29.2 0 -18.51 108.74c-2.14,11.87 -7.6,21.6 -16.38,29.2 -8.79,7.59 -19.24,11.63 -31.11,11.63l-6.17 -19.23c5.46,-1.19 10.45,-4.03 14.72,-8.31 4.51,-4.28 7.13,-9.02 8.07,-14.48l19.47 -107.55 -17.57 0 3.8 -23.27 17.33 0c7.84,-33.95 25.88,-50.8 54.37,-50.8 7.84,0 14.72,1.67 20.42,4.98l-5.7 22.56z"/>
   <path id="_18" class="fil13" d="M4577.88 1356.44c0,-22.32 6.89,-41.31 20.66,-56.74 13.53,-15.43 30.86,-23.27 51.76,-23.27 16.14,0 28.49,4.28 37.03,12.59 8.79,8.31 13.06,19.94 13.06,35.37 0,22.8 -6.89,42.02 -20.41,57.69 -13.54,15.43 -30.86,23.27 -52.24,23.27 -15.67,0 -28.01,-4.28 -36.8,-12.59 -8.54,-8.54 -13.06,-20.41 -13.06,-36.32zm30.15 -1.42c0,17.8 7.59,26.59 22.79,26.59 12.11,0 21.6,-5.46 28.73,-16.62 7.12,-11.16 10.44,-24.46 10.44,-39.89 0,-16.62 -7.59,-24.93 -22.79,-24.93 -11.87,0 -21.37,5.46 -28.49,16.37 -7.12,11.16 -10.68,23.98 -10.68,38.46z"/>
   <path id="_19" class="fil13" d="M4805.52 1308.24c-6.89,-4.98 -12.82,-7.59 -18.05,-7.59 -7.59,0 -14.48,3.33 -20.65,9.73 -6.18,6.65 -10.21,14.01 -11.87,22.55l-13.06 70.04 -28.97 0 23.02 -124.17 29.2 0 -1.89 10.68c10.2,-8.54 21.6,-13.06 33.95,-13.06 3.32,0 8.78,0.72 17.09,2.37l-8.78 29.44z"/>
   <path id="_20" class="fil13" d="M4996.91 1358.34c-0.47,3.09 -0.71,6.17 -0.71,9.73 0,16.86 1.42,28.5 4.03,34.9l-18.28 0c-5.23,0 -9.26,-4.03 -11.87,-12.35 -9.98,9.74 -22.32,14.72 -37.04,14.72 -13.53,0 -23.98,-3.8 -31.34,-11.4 -7.36,-7.59 -10.92,-18.04 -10.92,-31.58 0,-23.74 7.12,-43.92 21.37,-60.77 14.24,-16.62 32.29,-25.17 53.89,-25.17 20.89,0 36.09,1.9 45.35,5.93l-14.49 75.98zm-33.47 -58.16c-12.82,0 -23.27,6.17 -31.11,18.51 -7.59,12.59 -11.39,26.83 -11.39,42.98 0,13.29 6.41,19.94 19.7,19.94 8.32,0 15.44,-4.98 21.85,-15.43 6.17,-10.21 11.63,-31.58 16.62,-63.63 -5.46,-1.67 -10.68,-2.37 -15.67,-2.37z"/>
   <path id="_21" class="fil13" d="M5078.54 1393.24c-4.51,7.36 -11.4,10.92 -20.66,10.92 -7.12,0 -12.58,-2.37 -16.62,-6.89 -4.03,-4.51 -5.93,-10.45 -5.93,-17.8 0,-9.26 1.9,-22.79 5.46,-40.6l23.27 -110.87 28.72 0 -23.74 115.62c-3.33,16.38 -5.22,28.02 -5.22,35.14 0,4.51 1.42,8.07 4.27,10.68 2.85,2.62 6.17,3.8 10.45,3.8z"/>
   <path id="_22" class="fil13" d="M5154.48 1393.24c-4.51,7.36 -11.4,10.92 -20.66,10.92 -7.12,0 -12.58,-2.37 -16.62,-6.89 -4.03,-4.51 -5.93,-10.45 -5.93,-17.8 0,-9.26 1.9,-22.79 5.46,-40.6l23.27 -110.87 28.72 0 -23.74 115.62c-3.33,16.38 -5.22,28.02 -5.22,35.14 0,4.51 1.42,8.07 4.27,10.68 2.85,2.62 6.17,3.8 10.45,3.8z"/>
  </g>
 </g>
</svg>
