<?xml version="1.0" encoding="UTF-8"?>
<!DOCTYPE svg PUBLIC "-//W3C//DTD SVG 1.1//EN" "http://www.w3.org/Graphics/SVG/1.1/DTD/svg11.dtd">
<!-- Creator: CorelDRAW -->
<svg xmlns="http://www.w3.org/2000/svg" xml:space="preserve" width="6.62756in" height="6.7708in" version="1.1" style="shape-rendering:geometricPrecision; text-rendering:geometricPrecision; image-rendering:optimizeQuality; fill-rule:evenodd; clip-rule:evenodd"
viewBox="0 0 169.55 173.21"
 xmlns:xlink="http://www.w3.org/1999/xlink"
 xmlns:xodm="http://www.corel.com/coreldraw/odm/2003">
 <defs>
  <style type="text/css">
   <![CDATA[
    .fil17 {fill:none}
    .fil6 {fill:black}
    .fil16 {fill:#101F16}
    .fil8 {fill:#21AD62}
    .fil15 {fill:#2CBD70}
    .fil13 {fill:#39DB84}
    .fil12 {fill:#40DE8A}
    .fil11 {fill:#46D98A}
    .fil9 {fill:#4BE894}
    .fil14 {fill:#4FE394}
    .fil10 {fill:#53F19C}
    .fil7 {fill:#7CFFB0}
    .fil0 {fill:#203026;fill-rule:nonzero}
    .fil1 {fill:#395745;fill-rule:nonzero}
    .fil2 {fill:#5D946E;fill-rule:nonzero}
    .fil5 {fill:#D78B05;fill-rule:nonzero}
    .fil4 {fill:#D9A112;fill-rule:nonzero}
    .fil3 {fill:#EABC25;fill-rule:nonzero}
   ]]>
  </style>
 </defs>
 <g id="Layer_x0020_1">
  <metadata id="CorelCorpID_0Corel-Layer"/>
  <g id="_105553255304672">
   <g>
    <g>
     <path class="fil0" d="M21.58 21.98l-9.59 12.1c-14.51,17.18 -7.75,51.5 14.54,81.7 3.43,4.67 7.26,9.26 11.42,13.66 4.86,5.13 9.92,9.72 15.04,13.69 27.65,21.65 57.45,26.53 71.62,9.79l10.64 -13.42 -113.66 -117.52 0 -0 0 0z"/>
     <path class="fil1" d="M52.98 143.13l8.8 -11.09c-5.13,-4.01 -10.18,-8.59 -15.04,-13.73 -4.16,-4.39 -7.97,-8.96 -11.42,-13.63l-8.8 11.09c3.43,4.67 7.26,9.26 11.42,13.66 4.86,5.13 9.92,9.72 15.04,13.69l0 0 -0 0z"/>
     <path class="fil2" d="M20.81 22.98c-16.76,19.84 -5.15,62.52 25.94,95.34 31.09,32.82 69.89,43.34 86.65,23.5 16.76,-19.84 5.15,-62.52 -25.94,-95.34 -31.09,-32.82 -69.89,-43.34 -86.65,-23.5z"/>
     <path class="fil3" d="M33.21 36.06c-13.08,15.46 -4.02,48.75 20.23,74.34 24.24,25.58 54.5,33.79 67.57,18.32 13.08,-15.46 4.02,-48.75 -20.23,-74.34 -24.24,-25.58 -54.5,-33.79 -67.57,-18.32z"/>
     <path class="fil4" d="M125.67 98.52c-3.15,-14.28 -11.81,-30.33 -24.89,-44.13 -1.43,-1.51 -2.88,-2.96 -4.35,-4.35 1.47,1.39 2.92,2.84 4.35,4.35 13.08,13.8 21.74,29.85 24.89,44.13z"/>
     <path class="fil0" d="M88.11 133.91c13.56,4.6 25.78,3.24 32.89,-5.19 6.02,-7.12 7.35,-18.02 4.66,-30.21 -3.15,-14.28 -11.81,-30.33 -24.89,-44.13 -1.43,-1.51 -2.88,-2.96 -4.35,-4.35 -4.22,-3.99 -8.58,-7.46 -12.96,-10.4 -8.13,-5.45 -16.33,-9.01 -23.87,-10.52 5.65,1.92 11.52,4.86 17.37,8.78 5.89,3.94 11.74,8.88 17.3,14.73 24.24,25.58 33.3,58.87 20.23,74.34 -5.95,7.05 -15.49,9.13 -26.39,6.95l0.01 0.01 0 0z"/>
     <path class="fil5" d="M67.01 109.61l2.63 -3.19c2.08,1.79 4.11,3.35 6.06,4.65 8.47,5.67 15.48,6.58 19.43,1.79l-16.36 -17.31c-1.28,1.56 -3.55,1.08 -5.99,-0.55 -1.21,-0.81 -2.46,-1.9 -3.65,-3.16 -3.32,-3.51 -5.67,-7.87 -4.2,-9.66 0.91,-1.09 2.75,-0.41 5.21,1.24 2.13,1.43 4.72,3.58 7.56,5.92 3.3,2.71 6.92,5.7 10.49,8.09 6.47,4.33 12.79,6.71 16.74,1.93 4.44,-5.37 1.44,-15 -7.6,-26.41l3.17 -3.83 -13.39 -14.07 -3.22 3.9c-1.72,-1.46 -3.39,-2.72 -4.99,-3.79 -7.99,-5.35 -14.32,-5.9 -18.02,-1.41l15.91 16.83c1.13,-1.37 3.06,-0.99 5.18,0.43 1.08,0.72 2.21,1.71 3.32,2.89 2.83,2.99 4.97,6.56 3.71,8.08 -0.82,0.99 -2.58,0.31 -4.96,-1.28 -2.08,-1.39 -4.64,-3.5 -7.47,-5.81 -3.31,-2.7 -6.98,-5.69 -10.61,-8.12 -6.78,-4.54 -13.42,-7.13 -17.42,-2.29 -4.86,5.88 -1.18,16.41 7.79,27.87l-2.66 3.22 13.39 14.07 -0.02 -0.02 0 -0z"/>
     <g id="_105553280201600_0">
      <g id="_105553240688960_1">
       <circle class="fil6" transform="matrix(3.39133 2.99296 -9.39557E-001 2.79382 74.1378 81.9148)" r="13.31"/>
       <path class="fil7" d="M84.77 49.6c22.02,19.43 34.93,49.9 28.83,68.05 -6.1,18.14 -28.9,17.1 -50.93,-2.34 -22.02,-19.43 -34.93,-49.9 -28.83,-68.05 6.1,-18.14 28.9,-17.1 50.93,2.34zm-0.86 2.55c20.31,17.93 32.23,46.04 26.6,62.77 -5.63,16.73 -26.66,15.77 -46.98,-2.16 -20.31,-17.93 -32.22,-46.03 -26.59,-62.76 5.63,-16.73 26.66,-15.77 46.98,2.16l-0.01 -0.01 0 0z"/>
       <path class="fil8" d="M85.89 49.04c22.43,19.79 35.57,50.81 29.35,69.28 -6.22,18.47 -29.43,17.41 -51.85,-2.39 -22.43,-19.79 -35.57,-50.81 -29.35,-69.28 6.22,-18.47 29.43,-17.4 51.85,2.39zm-0.88 2.59c20.69,18.25 32.81,46.87 27.08,63.91 -5.73,17.04 -27.15,16.05 -47.83,-2.19 -20.69,-18.25 -32.81,-46.87 -27.08,-63.91 5.73,-17.04 27.15,-16.05 47.83,2.19z"/>
       <g>
        <path class="fil9" d="M47.29 39.96c1.49,2.18 -0.47,6.15 -1.03,7.13 -1.02,1.77 -2.34,3.39 -3.62,4.83 -3.17,3.59 -6.05,7.79 -6.69,13.02 0.69,5.1 2.25,10.54 4.57,16 1.13,1.77 2.49,3.6 4.1,5.54 1.71,2.05 5.74,6.37 7.9,8.02l0.04 -0.16c-0.62,-1.17 -1.09,-2.74 -1.39,-3.92 -1.12,-4.41 -0.28,-7.78 2.4,-8.88 0.79,-0.32 1.6,-0.54 2.58,-0.4 2.27,0.34 2.66,0.05 5.91,0.99 1.02,0.29 2.03,0.57 3.1,0.82l2.33 0.59c0.06,0.02 0.35,0.08 0.42,0.1 0.21,0.06 0.13,0.04 0.31,0.08 3.06,0.77 5.98,1.13 8.58,0.82 6.81,-0.82 5.19,-7.95 5.6,-9.76 -0.36,-1.07 -2.15,-4.24 -3.12,-5.62l-0.08 0.12c-0.18,0.76 2.47,8.21 -2.2,11.23 -2.42,1.57 -6.48,0.89 -11.34,-3.38 -0.04,0.07 -0.12,0.24 -0.2,0.28 -0.25,0.17 -0.13,0.05 -0.37,0.04 -1.76,2.05 -6.24,0.96 -10.25,-2.27 -5,-4.03 -7.91,-8.63 -9.13,-12.73 -2.65,-8.85 3.55,-11.45 4.07,-16.66 0.17,-1.71 -0.59,-5.06 -2.52,-5.87l0 0 0.01 0.02 -0 0z"/>
        <path class="fil10" d="M52.56 94.34c0.58,-5.84 5.11,-10.63 7.45,-6.92 1.61,2.55 5.42,4.77 7.55,6.12 1.27,0.8 2.51,1.5 3.77,2.41 2.03,1.47 2.33,2.23 3.52,3.87 1.01,-3.19 -5.7,-11.16 -5.96,-14.76 1.18,2.52 0.61,1.84 2.4,5.17 6.19,11.51 18.36,22.63 27.19,22.64 0.69,-0 3.47,0.05 3,-1.67 -0.45,-0.26 -0.4,-0.17 -0.75,-0.16 -0.95,0.03 -0.68,0.18 -2.01,-0.04 -1.06,-0.18 -1.69,-0.28 -2.93,-0.68 -4.87,-1.58 -10.1,-6 -14.11,-11.39 -1.36,-1.83 -4.01,-6.1 -4.38,-7.43 0.93,1.08 2.01,2.74 3.14,4.08 6,7.15 13.1,10.98 18.06,8.85 1.38,-0.59 3.62,-2.1 4.27,-4.03l0.15 -0.49c-1.5,0.72 -1.45,1.48 -4.24,0.67 -5.29,-1.54 -10,-6.77 -12.45,-12.83 -0.32,-0.79 -0.87,-2.35 -1,-3.16 -0.08,-0.45 -0.46,-1.11 -0.74,-2.37 -0.19,-0.84 -0.3,-1.56 -0.43,-2.43 -0.24,-1.6 -0.86,-3.61 -1.65,-5.02 -0.41,1.81 1.21,8.94 -5.6,9.76 -2.6,0.3 -5.52,-0.05 -8.58,-0.82 -0.19,-0.05 -0.11,-0.03 -0.31,-0.08 -0.06,-0.02 -0.35,-0.08 -0.42,-0.1l-2.33 -0.59c-1.07,-0.24 -2.08,-0.52 -3.1,-0.82 -3.25,-0.94 -3.63,-0.65 -5.91,-0.99 -0.98,-0.14 -1.8,0.07 -2.58,0.4 -2.68,1.1 -3.52,4.48 -2.4,8.88 0.3,1.18 0.76,2.75 1.39,3.92l-0 0.01 -0.01 0 0 0z"/>
        <path class="fil8" d="M40.08 37.87c-0.12,0.51 -2.08,1.94 -2.52,2.51 -0.73,0.98 -1.58,1.78 -2.18,2.98 -0.55,1.09 -1.01,2.27 -1.4,3.51 1.59,-4.47 4.79,-7.36 8.17,-9.43 -1.33,-0.51 -0.91,-0.14 -1.71,0.32l-0.37 0.12 0 0 0 0 0 0zm8 61.24c1.61,2.32 3.65,5.04 5.23,6.85l0.22 0.14 -0 -0.07c-1.93,-2.23 -3.75,-4.55 -5.45,-6.92l-0 0 0 -0zm4.62 2.19c-0.06,-0.49 -0.12,-0.94 -0.15,-1.3 -0.21,-2.09 -0.08,-3.67 -0.03,-5.49 -2.17,-1.65 -6.19,-5.98 -7.9,-8.02 -1.61,-1.92 -2.98,-3.77 -4.1,-5.54 2.94,6.94 7.09,13.93 12.19,20.36l0 0 -0.01 -0.01 0 0zm-16.76 -36.36c0.64,-5.24 3.52,-9.44 6.69,-13.02 1.28,-1.45 2.6,-3.06 3.62,-4.83 0.56,-0.97 2.52,-4.95 1.03,-7.13 -0.23,-0.19 -0.51,-0.39 -0.82,-0.58 -4.39,1.76 -7.73,5.29 -9.53,10.62 -1.46,4.34 -1.73,9.45 -0.99,14.96l0 -0.01z"/>
        <path class="fil10" d="M65.67 77.14c4.86,4.26 8.92,4.94 11.34,3.38 4.67,-3.03 2.02,-10.47 2.2,-11.23l0.08 -0.12 -0.53 -0.83c-0.16,3.11 -1.48,3 -3.33,2.87 -2.65,-0.18 -5.83,-3.49 -8.02,-6.31 -0.14,-0.18 -0.35,-0.43 -0.52,-0.67l-5.51 -9.24c-0.4,-0.83 -0.73,-1.59 -1.15,-2.47 -0.4,-0.82 -0.78,-1.73 -1.14,-2.45 -0.1,-0.19 -0.23,-0.45 -0.34,-0.65 -0.07,-0.12 -0.13,-0.25 -0.21,-0.39l-2.37 -3.91c-1.35,-1.98 -2.84,-3.28 -4.54,-4.91 0.49,0.9 3.66,4.08 4.86,9.37 1.23,5.45 0.39,12.29 2.64,18.33 1.36,3.64 3.01,6.02 6.56,9.24l0 0 -0.02 -0 0 -0z"/>
        <path class="fil11" d="M65.12 77.47c0.23,0.01 0.12,0.13 0.37,-0.04 0.07,-0.05 0.16,-0.22 0.19,-0.28 -3.55,-3.22 -5.2,-5.6 -6.56,-9.24 -2.25,-6.05 -1.41,-12.88 -2.64,-18.34 -1.19,-5.29 -4.37,-8.46 -4.86,-9.37l-1.04 -1.05c-0.24,-0.2 -0.6,-0.46 -1,-0.71 -0.53,0.1 -1.04,0.23 -1.54,0.38 1.23,2.17 4.61,5.91 2.02,10.99 -1.69,3.32 -3.77,6.47 -3.15,11.33 0.5,3.91 3.02,8.41 7.53,12.72 4.68,4.48 8.47,4.98 10.68,3.62l0 0 -0 0.01 0 0z"/>
        <path class="fil7" d="M92.68 89.6c-1.07,0.16 -1.74,0.48 -3.48,-0.68 -0.74,-0.48 -1.63,-1.31 -2.26,-2.02 -0.92,-1.03 -1.06,-1.44 -1.71,-2.3 0.13,0.81 0.69,2.37 1,3.16 2.46,6.06 7.16,11.3 12.45,12.83 2.79,0.81 2.75,0.05 4.24,-0.67l-0.15 0.49c1.09,-0.69 1.59,-5.32 1.57,-7 -0.03,-4.43 -2.07,-9.99 -4.87,-14.92 -1.78,-3.15 -3.01,-4.6 -5.31,-7.67l1.76 3.2c0.77,1.41 1.06,2.48 1.53,3.88 1.84,5.42 1.17,14.22 -4.79,11.7l0 0 0.01 -0 -0 0z"/>
        <path class="fil7" d="M50.58 39.15l1.04 1.04c1.71,1.63 3.2,2.93 4.54,4.91l2.37 3.91c0.08,0.14 0.15,0.27 0.21,0.39 0.11,0.2 0.24,0.45 0.34,0.65 0.36,0.71 0.74,1.64 1.14,2.45 0.42,0.87 0.75,1.63 1.15,2.47l5.51 9.24c0.18,0.24 0.38,0.48 0.52,0.67 2.18,2.82 5.36,6.13 8.02,6.31 1.85,0.13 3.17,0.25 3.33,-2.87 -0.33,-0.99 -4.61,-6.91 -5.15,-7.61 -4.78,-6.19 -9,-10.77 -14.8,-15.65 -1.91,-1.61 -6.67,-5.34 -8.22,-5.92l0 0 0 0z"/>
        <path class="fil12" d="M74.85 51.7c-0.73,2.17 -0.67,4.08 0.91,6.78 4.16,7.08 5.86,1.42 15.56,17.74 0.75,1.26 1.18,2.11 1.73,3.37 0.88,2.05 1.64,4.47 1.46,6.67 0.69,-0.16 0.73,-2.32 0.7,-2.92 -0.1,-1.75 -0.16,-1.91 -0.64,-3.66 -0.02,-0.07 -0.1,-0.37 -0.11,-0.39l-0.86 -2.58 -4.67 -8.55c-6.93,-11.42 -11.67,-8.11 -9.36,-14.6 -3.15,-2.28 -2.97,-2.5 -4.71,-1.86l0 0 -0.01 -0.01 0 -0z"/>
        <path class="fil13" d="M94.51 86.26c-0.18,1.81 -0.72,2.73 -1.83,3.34 5.96,2.52 6.63,-6.28 4.79,-11.7 -0.48,-1.4 -0.76,-2.46 -1.53,-3.87l-1.76 -3.2c-4.64,-5.03 -6.67,-7.18 -12.05,-10.75 1.13,1.22 2.13,2.24 2.97,3.37 1.11,1.48 2.86,3.11 3.83,4.71l4.67 8.55 0.86 2.58c0,0.02 0.09,0.33 0.11,0.39 0.48,1.76 0.54,1.91 0.64,3.66 0.04,0.6 -0.01,2.76 -0.7,2.92l0 0 -0.01 0.01 0 0z"/>
        <path class="fil6" d="M73.37 71.51c-0.31,2.7 -0.18,2.58 2.82,5.75 -0.39,-3.07 0.09,-2 -2.82,-5.75z"/>
       </g>
       <path class="fil9" d="M47.29 39.96c1.49,2.18 -0.47,6.15 -1.03,7.13 -1.02,1.77 -2.34,3.39 -3.62,4.83 -3.17,3.59 -6.05,7.79 -6.69,13.02 0.69,5.1 2.25,10.54 4.57,16 1.13,1.77 2.49,3.6 4.1,5.54 1.71,2.05 5.74,6.37 7.9,8.02l0.04 -0.16c-0.62,-1.17 -1.09,-2.74 -1.39,-3.92 -1.12,-4.41 -0.28,-7.78 2.4,-8.88 0.79,-0.32 1.6,-0.54 2.58,-0.4 1.88,0.28 2.47,0.14 4.45,0.61 0.34,-0.14 0.74,-0.24 1.05,-0.38 0.45,-0.22 0.69,-0.52 1.11,-1.02 0.41,-0.49 1,-1.17 1.45,-1.66 0.45,-0.5 0.76,-0.84 1.46,-1.02 0.15,-0.04 0.32,-0.07 0.49,-0.1 -0.16,-0.13 -0.33,-0.28 -0.5,-0.43 -0.04,0.07 -0.12,0.24 -0.2,0.28 -0.25,0.17 -0.13,0.05 -0.37,0.04 -1.76,2.05 -6.24,0.96 -10.25,-2.27 -5,-4.03 -7.91,-8.63 -9.13,-12.73 -2.65,-8.85 3.55,-11.45 4.07,-16.66 0.17,-1.71 -0.59,-5.06 -2.52,-5.87l0 0 0.02 0.03 -0 0z"/>
       <path class="fil10" d="M52.56 94.34c0.58,-5.84 5.11,-10.63 7.45,-6.92 1.61,2.55 5.42,4.77 7.55,6.12 1.27,0.8 2.51,1.5 3.77,2.41 2.03,1.47 2.33,2.23 3.52,3.87 1.01,-3.19 -5.7,-11.16 -5.96,-14.76 1.18,2.52 0.61,1.84 2.4,5.17 6.19,11.51 18.36,22.63 27.19,22.64 0.69,-0 3.47,0.05 3,-1.67 -0.45,-0.26 -0.4,-0.17 -0.75,-0.16 -0.95,0.03 -0.68,0.18 -2.01,-0.04 -1.06,-0.18 -1.69,-0.28 -2.93,-0.68 -4.87,-1.58 -10.1,-6 -14.11,-11.39 -1.36,-1.83 -4.01,-6.1 -4.38,-7.43 0.93,1.08 2.01,2.74 3.14,4.08 6,7.15 13.1,10.98 18.06,8.85 1.38,-0.59 3.62,-2.1 4.27,-4.03l0.15 -0.49c-1.5,0.72 -1.45,1.48 -4.24,0.67 -5.29,-1.54 -10,-6.77 -12.45,-12.83 -0.32,-0.79 -0.87,-2.35 -1,-3.16 -0.08,-0.45 -0.46,-1.11 -0.74,-2.37 -0.19,-0.84 -0.3,-1.56 -0.43,-2.43 -0.24,-1.6 -0.86,-3.61 -1.65,-5.02 -0.41,1.81 1.21,8.94 -5.6,9.76 -2.6,0.3 -5.52,-0.05 -8.58,-0.82 -0.19,-0.05 -0.11,-0.03 -0.31,-0.08 -0.06,-0.02 -0.35,-0.08 -0.42,-0.1l-2.33 -0.59c-1.07,-0.24 -2.08,-0.52 -3.1,-0.82 -3.25,-0.94 -3.63,-0.65 -5.91,-0.99 -0.98,-0.14 -1.8,0.07 -2.58,0.4 -2.68,1.1 -3.52,4.48 -2.4,8.88 0.3,1.18 0.76,2.75 1.39,3.92l-0 0.01 -0.01 0 0 0z"/>
       <path class="fil8" d="M37.83 40.69c-0.73,0.98 -1.84,1.46 -2.44,2.66 -0.55,1.09 -1.01,2.27 -1.4,3.51 1.59,-4.47 5.62,-6.91 9,-8.98 -2.8,-1.07 -3.96,1.22 -5.16,2.83l0 0 -0.01 -0.01 0 0zm10.26 58.42c1.61,2.32 3.65,5.04 5.23,6.85l0.22 0.14 -0 -0.07c-1.93,-2.23 -3.75,-4.55 -5.45,-6.92l-0 0 0 -0zm4.62 2.19c-0.06,-0.49 -0.12,-0.94 -0.15,-1.3 -0.21,-2.09 -0.08,-3.67 -0.03,-5.49 -2.17,-1.65 -6.19,-5.98 -7.9,-8.02 -1.61,-1.92 -2.98,-3.77 -4.1,-5.54 2.94,6.94 7.09,13.93 12.19,20.36l0 0 -0.01 -0.01 0 0zm-16.76 -36.36c0.64,-5.24 3.52,-9.44 6.69,-13.02 1.28,-1.45 2.6,-3.06 3.62,-4.83 0.56,-0.97 2.52,-4.95 1.03,-7.13 -0.23,-0.19 -0.51,-0.39 -0.82,-0.58 -4.39,1.76 -7.73,5.29 -9.53,10.62 -1.46,4.34 -1.73,9.45 -0.99,14.96l0 -0.01z"/>
       <path class="fil10" d="M65.67 77.14c4.86,4.26 8.92,4.94 11.34,3.38 4.67,-3.03 2.02,-10.47 2.2,-11.23l0.08 -0.12 -0.53 -0.83c-0.16,3.11 -1.48,3 -3.33,2.87 -2.65,-0.18 -5.83,-3.49 -8.02,-6.31 -0.14,-0.18 -0.35,-0.43 -0.52,-0.67l-5.51 -9.24c-0.4,-0.83 -0.73,-1.59 -1.15,-2.47 -0.4,-0.82 -0.78,-1.73 -1.14,-2.45 -0.1,-0.19 -0.23,-0.45 -0.34,-0.65 -0.07,-0.12 -0.13,-0.25 -0.21,-0.39l-2.37 -3.91c-1.35,-1.98 -2.84,-3.28 -4.54,-4.91 0.49,0.9 3.66,4.08 4.86,9.37 1.23,5.45 0.39,12.29 2.64,18.33 1.36,3.64 3.01,6.02 6.56,9.24l0 0 -0.02 -0 0 -0z"/>
       <path class="fil14" d="M60.61 81.76c0.41,0.1 0.89,0.23 1.45,0.38 1.02,0.29 2.04,0.58 3.1,0.82l2.33 0.58c0.06,0.02 0.35,0.08 0.42,0.1 0.21,0.06 0.13,0.04 0.31,0.08 3.06,0.77 5.98,1.13 8.58,0.82 6.81,-0.82 5.19,-7.95 5.6,-9.76 -0.36,-1.07 -2.15,-4.24 -3.12,-5.62l-0.08 0.12c-0.18,0.76 2.47,8.21 -2.2,11.23 -2.34,1.51 -6.2,0.93 -10.84,-2.95 -0.17,0.03 -0.34,0.06 -0.49,0.1 -0.7,0.18 -1.02,0.52 -1.46,1.02 -0.45,0.5 -1.03,1.18 -1.45,1.66 -0.41,0.49 -0.66,0.81 -1.11,1.02 -0.31,0.14 -0.71,0.24 -1.05,0.38l0 0 0 -0 0 -0z"/>
       <path class="fil11" d="M65.12 77.47c0.23,0.01 0.12,0.13 0.37,-0.04 0.07,-0.05 0.16,-0.22 0.19,-0.28 -3.55,-3.22 -5.2,-5.6 -6.56,-9.24 -2.25,-6.05 -1.41,-12.88 -2.64,-18.34 -1.19,-5.29 -4.37,-8.46 -4.86,-9.37l-1.04 -1.05c-0.24,-0.2 -0.6,-0.46 -1,-0.71 -0.53,0.1 -1.04,0.23 -1.54,0.38 1.23,2.17 4.61,5.91 2.02,10.99 -1.69,3.32 -3.77,6.47 -3.15,11.33 0.5,3.91 3.02,8.41 7.53,12.72 4.68,4.48 8.47,4.98 10.68,3.62l0 0 -0 0.01 0 0z"/>
       <path class="fil7" d="M92.68 89.6c-1.07,0.16 -1.74,0.48 -3.48,-0.68 -0.74,-0.48 -1.63,-1.31 -2.26,-2.02 -0.92,-1.03 -1.06,-1.44 -1.71,-2.3 0.13,0.81 0.69,2.37 1,3.16 2.46,6.06 7.16,11.3 12.45,12.83 2.79,0.81 2.75,0.05 4.24,-0.67l-0.15 0.49c1.09,-0.69 1.59,-5.32 1.57,-7 -0.03,-4.43 -2.07,-9.99 -4.87,-14.92 -1.78,-3.15 -3.01,-4.6 -5.31,-7.67l1.76 3.2c0.77,1.41 1.06,2.48 1.53,3.88 1.84,5.42 1.17,14.22 -4.79,11.7l0 0 0.01 -0 -0 0z"/>
       <path class="fil7" d="M50.58 39.15l1.04 1.04c1.71,1.63 3.2,2.93 4.54,4.91l2.37 3.91c0.08,0.14 0.15,0.27 0.21,0.39 0.11,0.2 0.24,0.45 0.34,0.65 0.36,0.71 0.74,1.64 1.14,2.45 0.42,0.87 0.75,1.63 1.15,2.47l5.51 9.24c0.18,0.24 0.38,0.48 0.52,0.67 2.18,2.82 5.36,6.13 8.02,6.31 1.85,0.13 3.17,0.25 3.33,-2.87 -0.33,-0.99 -4.61,-6.91 -5.15,-7.61 -4.78,-6.19 -9,-10.77 -14.8,-15.65 -1.91,-1.61 -6.67,-5.34 -8.22,-5.92l0 0 0 0z"/>
       <path class="fil12" d="M74.85 51.7c-0.73,2.17 -0.67,4.08 0.91,6.78 4.16,7.08 5.86,1.42 15.56,17.74 0.75,1.26 1.18,2.11 1.73,3.37 0.88,2.05 1.64,4.47 1.46,6.67 0.69,-0.16 0.73,-2.32 0.7,-2.92 -0.1,-1.75 -0.16,-1.91 -0.64,-3.66 -0.02,-0.07 -0.1,-0.37 -0.11,-0.39l-0.86 -2.58 -4.67 -8.55c-6.93,-11.42 -11.67,-8.11 -9.36,-14.6 -3.15,-2.28 -2.97,-2.5 -4.71,-1.86l0 0 -0.01 -0.01 0 -0z"/>
       <path class="fil13" d="M94.51 86.26c-0.18,1.81 -0.72,2.73 -1.83,3.34 5.96,2.52 6.63,-6.28 4.79,-11.7 -0.48,-1.4 -0.76,-2.46 -1.53,-3.87l-1.76 -3.2c-1.87,-2.03 -3.26,-3.66 -5.29,-5.6 -1.28,-1.22 -5.5,-4.3 -6.66,-5.07 1.13,1.22 2.4,1.89 3.23,3.02 1.11,1.48 2.5,3.38 3.47,4.98l4.67 8.55 0.86 2.58c0,0.02 0.09,0.33 0.11,0.39 0.48,1.76 0.54,1.91 0.64,3.66 0.04,0.6 -0.01,2.76 -0.7,2.92l0 0 -0.01 0.01 0 0z"/>
       <path class="fil6" d="M73.37 71.51c-0.31,2.7 -0.18,2.58 2.82,5.75 -0.39,-3.07 0.09,-2 -2.82,-5.75z"/>
       <path class="fil15" d="M47.29 39.96c1.49,2.18 -0.47,6.15 -1.03,7.13 -1.02,1.77 -2.34,3.39 -3.62,4.83 -3.17,3.59 -6.05,7.79 -6.69,13.02 0.69,5.1 2.25,10.54 4.57,16 1.13,1.77 2.49,3.6 4.1,5.54 1.71,2.05 5.74,6.37 7.9,8.02l0.04 -0.16c-0.62,-1.17 -1.09,-2.74 -1.39,-3.92 -1.12,-4.41 -0.28,-7.78 2.4,-8.88 0.79,-0.32 1.6,-0.54 2.58,-0.4 1.88,0.28 2.47,0.14 4.45,0.61 0.34,-0.14 0.74,-0.24 1.05,-0.38 0.45,-0.22 0.69,-0.52 1.11,-1.02 0.41,-0.49 1,-1.17 1.45,-1.66 0.45,-0.5 0.76,-0.84 1.46,-1.02 0.15,-0.04 0.32,-0.07 0.49,-0.1 -0.16,-0.13 -0.33,-0.28 -0.5,-0.43 -0.04,0.07 -0.12,0.24 -0.2,0.28 -0.25,0.17 -0.13,0.05 -0.37,0.04 -1.76,2.05 -6.24,0.96 -10.25,-2.27 -5,-4.03 -7.91,-8.63 -9.13,-12.73 -2.65,-8.85 3.55,-11.45 4.07,-16.66 0.17,-1.71 -0.59,-5.06 -2.52,-5.87l0 0 0.02 0.03 -0 0z"/>
      </g>
     </g>
    </g>
    <g>
     <path class="fil0" d="M114 82.68l8.22 -1.08c12.05,-1.23 20.56,-15.94 20.93,-34.49 0.06,-2.86 -0.07,-5.83 -0.42,-8.85 -0.41,-3.52 -1.08,-6.91 -1.98,-10.1 -4.82,-17.3 -16.19,-29.28 -27.95,-28.09l-9.12 1.2 10.32 81.4 0 0 0 -0z"/>
     <path class="fil1" d="M140.75 28.17l-7.53 0.99c0.89,3.21 1.57,6.59 1.97,10.11 0.35,3.01 0.48,5.97 0.43,8.84l7.54 -0.99c0.06,-2.86 -0.07,-5.83 -0.42,-8.85 -0.41,-3.52 -1.08,-6.91 -1.98,-10.1l0 0 0 -0z"/>
     <path class="fil2" d="M114.67 82.59c13.93,-1.42 23.11,-20.81 20.51,-43.32 -2.6,-22.51 -16,-39.61 -29.92,-38.19 -13.93,1.42 -23.11,20.81 -20.51,43.32 2.6,22.51 16,39.61 29.92,38.19z"/>
     <path class="fil3" d="M113.63 73.61c10.86,-1.1 18.02,-16.23 15.99,-33.78 -2.03,-17.55 -12.48,-30.88 -23.33,-29.78 -10.86,1.1 -18.02,16.23 -15.99,33.78 2.03,17.55 12.48,30.88 23.33,29.78z"/>
     <path class="fil4" d="M94.18 19.36c-3.39,6.24 -4.97,15 -3.88,24.47 0.12,1.03 0.27,2.06 0.45,3.06 -0.18,-1 -0.33,-2.03 -0.45,-3.06 -1.1,-9.47 0.49,-18.23 3.88,-24.47z"/>
     <path class="fil0" d="M122.36 19.46c-4.38,-6.31 -10.15,-10.01 -16.07,-9.4 -5,0.51 -9.22,3.99 -12.11,9.31 -3.39,6.24 -4.97,15 -3.88,24.47 0.12,1.03 0.27,2.06 0.45,3.06 0.51,2.89 1.25,5.63 2.18,8.2 1.73,4.75 4.11,8.85 6.89,11.98 -1.83,-2.63 -3.4,-5.71 -4.64,-9.13 -1.25,-3.44 -2.16,-7.23 -2.62,-11.25 -2.03,-17.55 5.13,-32.67 15.99,-33.78 4.95,-0.51 9.8,2.01 13.82,6.54l-0 -0 0 0z"/>
     <path class="fil5" d="M123.45 35.46l-2.21 0.25c-0.31,-1.36 -0.67,-2.62 -1.09,-3.76 -1.8,-4.95 -4.55,-7.68 -7.87,-7.31l1.35 11.86c1.08,-0.13 1.91,0.83 2.42,2.25 0.26,0.7 0.44,1.53 0.54,2.39 0.27,2.41 -0.16,4.79 -1.39,4.93 -0.76,0.08 -1.34,-0.8 -1.86,-2.23 -0.45,-1.25 -0.87,-2.91 -1.32,-4.73 -0.53,-2.11 -1.11,-4.43 -1.87,-6.52 -1.37,-3.78 -3.33,-6.81 -6.65,-6.43 -3.72,0.42 -5.63,4.92 -5.5,12.14l-2.66 0.3 1.14 9.67 2.7 -0.3c0.26,1.12 0.57,2.14 0.91,3.08 1.7,4.67 4.27,7.04 7.38,6.69l-1.32 -11.53c-0.95,0.11 -1.66,-0.69 -2.11,-1.93 -0.23,-0.63 -0.39,-1.38 -0.48,-2.18 -0.23,-2.05 0.02,-4.07 1.08,-4.19 0.69,-0.08 1.23,0.77 1.73,2.16 0.44,1.22 0.86,2.85 1.32,4.66 0.54,2.11 1.14,4.45 1.92,6.57 1.44,3.96 3.47,7.18 6.83,6.8 4.08,-0.46 5.99,-5.52 5.91,-12.73l2.23 -0.25 -1.14 -9.67 0.01 0.01 -0 0z"/>
     <g id="_105553280201600_2">
      <g id="_105553240688960_3">
       <circle class="fil6" transform="matrix(-4.79229E-001 -2.24337E+000 1.3419 -6.86772E-001 111.097 43.0217)" r="13.31"/>
       <path class="fil7" d="M95.68 51.05c-3.11,-14.57 1.43,-29.99 10.14,-34.46 8.72,-4.46 18.3,3.73 21.41,18.3 3.11,14.57 -1.43,29.99 -10.14,34.46 -8.72,4.46 -18.3,-3.73 -21.41,-18.3zm1.22 -0.63c-2.87,-13.44 1.32,-27.67 9.36,-31.78 8.04,-4.11 16.88,3.44 19.75,16.89 2.87,13.44 -1.32,27.67 -9.36,31.78 -8.04,4.11 -16.88,-3.44 -19.75,-16.89l0 0z"/>
       <path class="fil8" d="M95 50.86c-3.17,-14.83 1.46,-30.54 10.33,-35.08 8.87,-4.54 18.64,3.8 21.8,18.64 3.17,14.83 -1.46,30.54 -10.33,35.08 -8.87,4.54 -18.63,-3.8 -21.8,-18.64zm1.25 -0.64c-2.92,-13.68 1.34,-28.17 9.53,-32.36 8.19,-4.19 17.19,3.51 20.11,17.19 2.92,13.68 -1.34,28.17 -9.53,32.36 -8.19,4.19 -17.19,-3.51 -20.11,-17.19z"/>
       <g>
        <path class="fil9" d="M108.8 67.38c0.08,-1.3 2.26,-2.06 2.83,-2.22 1.04,-0.29 2.15,-0.42 3.19,-0.5 2.58,-0.21 5.24,-0.74 7.26,-2.41 1.4,-2.07 2.53,-4.58 3.35,-7.35 0.1,-1.03 0.12,-2.15 0.06,-3.4 -0.06,-1.33 -0.37,-4.27 -0.77,-5.61l-0.07 0.04c-0.12,0.64 -0.44,1.37 -0.7,1.89 -0.98,1.98 -2.48,2.91 -4.01,2.38 -0.45,-0.15 -0.88,-0.35 -1.26,-0.74 -0.88,-0.9 -1.14,-0.93 -2.25,-2.39 -0.35,-0.45 -0.69,-0.9 -1.08,-1.36l-0.82 -1.01c-0.02,-0.03 -0.13,-0.15 -0.15,-0.18 -0.07,-0.09 -0.04,-0.06 -0.11,-0.14 -1.08,-1.33 -2.23,-2.46 -3.46,-3.24 -3.24,-2.04 -4.92,1.09 -5.7,1.6 -0.2,0.51 -0.48,2.27 -0.52,3.1l0.08 -0.02c0.33,-0.21 1.67,-3.81 4.71,-3.3 1.58,0.26 3.12,1.9 3.81,5.11 0.04,-0.01 0.13,-0.04 0.18,-0.03 0.17,0.02 0.08,0.03 0.17,0.11 1.45,-0.13 3.04,1.79 3.71,4.33 0.83,3.17 0.57,5.83 -0.27,7.73 -1.8,4.1 -5.37,2.92 -7.34,4.62 -0.64,0.56 -1.43,2.03 -0.86,2.99l0 0 -0 -0.01 0 0z"/>
        <path class="fil10" d="M124.65 45.93c-2.2,1.91 -5.77,2.09 -5.55,-0.06 0.15,-1.47 -0.77,-3.58 -1.25,-4.8 -0.29,-0.73 -0.6,-1.4 -0.84,-2.16 -0.39,-1.23 -0.27,-1.6 -0.24,-2.61 -1.51,0.81 -1.24,5.99 -2.33,7.37 0.33,-1.32 0.35,-0.87 0.68,-2.69 1.15,-6.28 -0.45,-14.47 -4.29,-17.5 -0.3,-0.24 -1.49,-1.21 -1.87,-0.43 0.11,0.25 0.12,0.2 0.28,0.32 0.42,0.31 0.36,0.17 0.86,0.7 0.4,0.43 0.64,0.68 1.05,1.25 1.6,2.24 2.4,5.63 2.35,8.95 -0.02,1.13 -0.29,3.57 -0.57,4.18 -0.05,-0.71 0.04,-1.68 -0.01,-2.55 -0.23,-4.64 -2.04,-8.46 -4.92,-9.38 -0.8,-0.26 -2.28,-0.48 -3.2,-0.01l-0.23 0.12c0.89,0.25 1.13,-0.04 2.07,1.21 1.79,2.37 2.1,5.87 1.14,8.9 -0.12,0.4 -0.41,1.15 -0.62,1.49 -0.11,0.19 -0.17,0.56 -0.47,1.11 -0.2,0.37 -0.39,0.67 -0.62,1.03 -0.43,0.66 -0.83,1.6 -0.96,2.38 0.78,-0.51 2.45,-3.64 5.7,-1.6 1.24,0.78 2.39,1.91 3.46,3.24 0.07,0.08 0.04,0.05 0.11,0.14 0.02,0.03 0.13,0.15 0.15,0.18l0.82 1.01c0.39,0.45 0.73,0.9 1.08,1.36 1.1,1.45 1.37,1.48 2.25,2.39 0.38,0.39 0.81,0.59 1.26,0.74 1.53,0.52 3.03,-0.41 4.01,-2.38 0.26,-0.53 0.58,-1.25 0.7,-1.89l0 -0 0 0 0 0z"/>
        <path class="fil8" d="M111.24 70.6c0.22,-0.14 1.55,0.01 1.94,-0.04 0.65,-0.1 1.28,-0.1 1.94,-0.33 0.6,-0.21 1.2,-0.47 1.78,-0.79 -2.18,1.07 -4.54,1.01 -6.71,0.6 0.41,0.64 0.35,0.36 0.85,0.47l0.2 0.08 0 0 0 0 0 -0zm16.95 -24.86c0.07,-1.39 0.09,-3.07 0.01,-4.27l-0.05 -0.12 -0.02 0.03c0.09,1.47 0.12,2.93 0.07,4.37l0 0 -0 0zm-1.28 -2.37c-0.14,0.2 -0.26,0.38 -0.37,0.52 -0.61,0.83 -1.19,1.35 -1.82,2 0.39,1.34 0.7,4.28 0.77,5.61 0.06,1.25 0.04,2.38 -0.06,3.4 1.03,-3.51 1.56,-7.46 1.48,-11.53l0 0 -0 0.01 0 0zm-4.83 18.88c-2.03,1.67 -4.69,2.2 -7.26,2.41 -1.04,0.09 -2.15,0.21 -3.19,0.5 -0.57,0.16 -2.75,0.92 -2.83,2.22 0.04,0.15 0.09,0.32 0.16,0.49 2.5,0.87 5.14,0.74 7.69,-0.57 2.08,-1.07 3.91,-2.82 5.42,-5.06l-0 0 0 -0z"/>
        <path class="fil10" d="M113.19 47.65c-0.69,-3.21 -2.24,-4.84 -3.81,-5.11 -3.05,-0.51 -4.38,3.09 -4.71,3.3l-0.08 0.02 -0.05 0.48c1.11,-1.07 1.65,-0.57 2.41,0.11 1.09,0.97 1.38,3.26 1.39,5.03 0,0.11 0.01,0.28 0,0.42l-0.68 5.22c-0.1,0.44 -0.21,0.82 -0.32,1.29 -0.1,0.43 -0.24,0.89 -0.32,1.28 -0.02,0.1 -0.05,0.24 -0.07,0.35 -0.01,0.07 -0.03,0.14 -0.04,0.21l-0.27 2.22c-0.07,1.18 0.14,2.16 0.34,3.33 0.09,-0.49 -0.24,-2.73 1.01,-5.05 1.28,-2.39 3.93,-4.57 4.97,-7.53 0.62,-1.78 0.7,-3.2 0.22,-5.59l0 0 0.01 0.01 -0 -0z"/>
        <path class="fil11" d="M113.55 47.72c-0.1,-0.08 -0.01,-0.09 -0.17,-0.11 -0.05,-0.01 -0.14,0.02 -0.18,0.04 0.47,2.38 0.4,3.81 -0.22,5.59 -1.04,2.96 -3.68,5.14 -4.97,7.53 -1.25,2.32 -0.92,4.55 -1.01,5.05l0.1 0.74c0.04,0.15 0.11,0.37 0.2,0.6 0.26,0.14 0.53,0.27 0.8,0.39 0.19,-1.2 -0.04,-3.72 2.79,-4.66 1.85,-0.62 3.8,-1.04 5.15,-3.01 1.09,-1.58 1.49,-4.07 0.96,-7.17 -0.54,-3.22 -2.03,-4.7 -3.45,-4.97l0 0 0 -0 0 0z"/>
        <path class="fil7" d="M105.58 33.89c0.52,0.31 0.92,0.43 1.29,1.44 0.16,0.43 0.27,1.03 0.31,1.5 0.06,0.69 -0.02,0.88 -0.02,1.41 0.21,-0.34 0.49,-1.09 0.62,-1.49 0.95,-3.03 0.65,-6.54 -1.14,-8.9 -0.95,-1.25 -1.18,-0.96 -2.07,-1.21l0.23 -0.12c-0.7,-0.12 -2.47,1.37 -3.02,1.99 -1.46,1.61 -2.43,4.32 -2.86,7.06 -0.27,1.75 -0.22,2.69 -0.25,4.59l0.3 -1.76c0.14,-0.77 0.37,-1.26 0.63,-1.93 1.01,-2.59 4.24,-5.54 5.99,-2.58l0 0 -0 -0 -0 0z"/>
        <path class="fil7" d="M107.09 66.54l-0.11 -0.73c-0.2,-1.17 -0.41,-2.16 -0.34,-3.33l0.27 -2.22c0.01,-0.08 0.02,-0.15 0.04,-0.21 0.02,-0.11 0.04,-0.24 0.07,-0.35 0.08,-0.38 0.22,-0.85 0.32,-1.28 0.11,-0.46 0.22,-0.85 0.32,-1.29l0.68 -5.22c0,-0.15 -0.01,-0.31 -0,-0.42 -0.01,-1.77 -0.29,-4.05 -1.39,-5.03 -0.76,-0.68 -1.3,-1.18 -2.41,-0.11 -0.19,0.47 -0.3,4.08 -0.29,4.51 0.02,3.87 0.33,6.98 1.23,10.73 0.3,1.23 1.12,4.21 1.6,4.96l0 0 -0 0z"/>
        <path class="fil12" d="M100.7 53.69c1.04,-0.53 1.66,-1.24 1.87,-2.76 0.55,-3.98 -2.08,-2.52 -0.86,-11.74 0.09,-0.71 0.19,-1.17 0.37,-1.81 0.3,-1.04 0.78,-2.17 1.59,-2.91 -0.36,-0.18 -1.1,0.59 -1.28,0.82 -0.54,0.67 -0.57,0.75 -0.95,1.54 -0.02,0.03 -0.08,0.17 -0.08,0.18l-0.48 1.23 -0.82 4.69c-0.79,6.5 2.38,6.93 -0.79,8.48 0.61,1.9 0.46,1.92 1.43,2.28l0 0 -0 0.01 -0 -0z"/>
        <path class="fil13" d="M103.67 34.47c0.68,-0.59 1.23,-0.74 1.91,-0.58 -1.76,-2.95 -4.99,-0.01 -5.99,2.58 -0.26,0.67 -0.49,1.15 -0.63,1.92l-0.3 1.76c0.34,3.41 0.51,4.88 1.66,8.01 -0.09,-0.83 -0.18,-1.54 -0.17,-2.23 0.01,-0.92 -0.21,-2.11 -0.1,-3.01l0.82 -4.69 0.48 -1.23c0,-0.01 0.07,-0.15 0.08,-0.18 0.38,-0.8 0.4,-0.87 0.95,-1.54 0.18,-0.23 0.92,-1 1.28,-0.82l0 0 0.01 0 -0 -0z"/>
        <path class="fil6" d="M107.96 47.04c1.03,-0.87 0.94,-0.87 0.69,-3.04 -0.86,1.24 -0.71,0.69 -0.69,3.04z"/>
       </g>
       <path class="fil9" d="M108.8 67.38c0.08,-1.3 2.26,-2.06 2.83,-2.22 1.04,-0.29 2.15,-0.42 3.19,-0.5 2.58,-0.21 5.24,-0.74 7.26,-2.41 1.4,-2.07 2.53,-4.58 3.35,-7.35 0.1,-1.03 0.12,-2.15 0.06,-3.4 -0.06,-1.33 -0.37,-4.27 -0.77,-5.61l-0.07 0.04c-0.12,0.64 -0.44,1.37 -0.7,1.89 -0.98,1.98 -2.48,2.91 -4.01,2.38 -0.45,-0.15 -0.88,-0.35 -1.26,-0.74 -0.73,-0.75 -1.03,-0.9 -1.74,-1.75 -0.2,-0.07 -0.4,-0.17 -0.58,-0.22 -0.27,-0.08 -0.48,-0.05 -0.82,-0.01 -0.34,0.04 -0.83,0.08 -1.19,0.1 -0.36,0.03 -0.61,0.04 -0.98,-0.13 -0.08,-0.04 -0.16,-0.08 -0.25,-0.13 0.03,0.1 0.05,0.21 0.07,0.32 0.04,-0.01 0.13,-0.04 0.18,-0.03 0.17,0.02 0.08,0.03 0.17,0.11 1.45,-0.13 3.04,1.79 3.71,4.33 0.83,3.17 0.57,5.83 -0.27,7.73 -1.8,4.1 -5.37,2.92 -7.34,4.62 -0.64,0.56 -1.43,2.03 -0.86,2.99l0 0 0 -0.02 0 0z"/>
       <path class="fil10" d="M124.65 45.93c-2.2,1.91 -5.77,2.09 -5.55,-0.06 0.15,-1.47 -0.77,-3.58 -1.25,-4.8 -0.29,-0.73 -0.6,-1.4 -0.84,-2.16 -0.39,-1.23 -0.27,-1.6 -0.24,-2.61 -1.51,0.81 -1.24,5.99 -2.33,7.37 0.33,-1.32 0.35,-0.87 0.68,-2.69 1.15,-6.28 -0.45,-14.47 -4.29,-17.5 -0.3,-0.24 -1.49,-1.21 -1.87,-0.43 0.11,0.25 0.12,0.2 0.28,0.32 0.42,0.31 0.36,0.17 0.86,0.7 0.4,0.43 0.64,0.68 1.05,1.25 1.6,2.24 2.4,5.63 2.35,8.95 -0.02,1.13 -0.29,3.57 -0.57,4.18 -0.05,-0.71 0.04,-1.68 -0.01,-2.55 -0.23,-4.64 -2.04,-8.46 -4.92,-9.38 -0.8,-0.26 -2.28,-0.48 -3.2,-0.01l-0.23 0.12c0.89,0.25 1.13,-0.04 2.07,1.21 1.79,2.37 2.1,5.87 1.14,8.9 -0.12,0.4 -0.41,1.15 -0.62,1.49 -0.11,0.19 -0.17,0.56 -0.47,1.11 -0.2,0.37 -0.39,0.67 -0.62,1.03 -0.43,0.66 -0.83,1.6 -0.96,2.38 0.78,-0.51 2.45,-3.64 5.7,-1.6 1.24,0.78 2.39,1.91 3.46,3.24 0.07,0.08 0.04,0.05 0.11,0.14 0.02,0.03 0.13,0.15 0.15,0.18l0.82 1.01c0.39,0.45 0.73,0.9 1.08,1.36 1.1,1.45 1.37,1.48 2.25,2.39 0.38,0.39 0.81,0.59 1.26,0.74 1.53,0.52 3.03,-0.41 4.01,-2.38 0.26,-0.53 0.58,-1.25 0.7,-1.89l0 -0 0 0 0 0z"/>
       <path class="fil8" d="M113.17 70.36c0.65,-0.1 1.29,0.1 1.95,-0.12 0.6,-0.21 1.2,-0.47 1.78,-0.79 -2.18,1.07 -4.75,0.57 -6.92,0.16 0.86,1.34 2.13,0.92 3.19,0.75l0 0 0 0 0 0zm15.02 -24.61c0.07,-1.39 0.09,-3.07 0.01,-4.27l-0.05 -0.12 -0.02 0.03c0.09,1.47 0.12,2.93 0.07,4.37l0 0 -0 0zm-1.28 -2.37c-0.14,0.2 -0.26,0.38 -0.37,0.52 -0.61,0.83 -1.19,1.35 -1.82,2 0.39,1.34 0.7,4.28 0.77,5.61 0.06,1.25 0.04,2.38 -0.06,3.4 1.03,-3.51 1.56,-7.46 1.48,-11.53l0 0 -0 0.01 0 0zm-4.83 18.88c-2.03,1.67 -4.69,2.2 -7.26,2.41 -1.04,0.09 -2.15,0.21 -3.19,0.5 -0.57,0.16 -2.75,0.92 -2.83,2.22 0.04,0.15 0.09,0.32 0.16,0.49 2.5,0.87 5.14,0.74 7.69,-0.57 2.08,-1.07 3.91,-2.82 5.42,-5.06l-0 0 0 -0z"/>
       <path class="fil10" d="M113.19 47.65c-0.69,-3.21 -2.24,-4.84 -3.81,-5.11 -3.05,-0.51 -4.38,3.09 -4.71,3.3l-0.08 0.02 -0.05 0.48c1.11,-1.07 1.65,-0.57 2.41,0.11 1.09,0.97 1.38,3.26 1.39,5.03 0,0.11 0.01,0.28 0,0.42l-0.68 5.22c-0.1,0.44 -0.21,0.82 -0.32,1.29 -0.1,0.43 -0.24,0.89 -0.32,1.28 -0.02,0.1 -0.05,0.24 -0.07,0.35 -0.01,0.07 -0.03,0.14 -0.04,0.21l-0.27 2.22c-0.07,1.18 0.14,2.16 0.34,3.33 0.09,-0.49 -0.24,-2.73 1.01,-5.05 1.28,-2.39 3.93,-4.57 4.97,-7.53 0.62,-1.78 0.7,-3.2 0.22,-5.59l0 0 0.01 0.01 -0 -0z"/>
       <path class="fil14" d="M116.94 47.72c-0.15,-0.18 -0.31,-0.39 -0.51,-0.64 -0.35,-0.45 -0.69,-0.91 -1.08,-1.36l-0.82 -1.01c-0.02,-0.03 -0.13,-0.15 -0.15,-0.18 -0.07,-0.09 -0.04,-0.06 -0.11,-0.14 -1.08,-1.33 -2.23,-2.46 -3.46,-3.24 -3.24,-2.04 -4.92,1.09 -5.7,1.6 -0.2,0.51 -0.48,2.27 -0.52,3.1l0.08 -0.02c0.33,-0.21 1.67,-3.81 4.71,-3.3 1.52,0.26 3.01,1.79 3.74,4.78 0.08,0.05 0.17,0.1 0.25,0.13 0.37,0.17 0.62,0.16 0.98,0.13 0.36,-0.03 0.84,-0.07 1.19,-0.1 0.34,-0.04 0.56,-0.06 0.82,0.01 0.18,0.05 0.39,0.15 0.58,0.22l0 0 0 0 -0 0z"/>
       <path class="fil11" d="M113.55 47.72c-0.1,-0.08 -0.01,-0.09 -0.17,-0.11 -0.05,-0.01 -0.14,0.02 -0.18,0.04 0.47,2.38 0.4,3.81 -0.22,5.59 -1.04,2.96 -3.68,5.14 -4.97,7.53 -1.25,2.32 -0.92,4.55 -1.01,5.05l0.1 0.74c0.04,0.15 0.11,0.37 0.2,0.6 0.26,0.14 0.53,0.27 0.8,0.39 0.19,-1.2 -0.04,-3.72 2.79,-4.66 1.85,-0.62 3.8,-1.04 5.15,-3.01 1.09,-1.58 1.49,-4.07 0.96,-7.17 -0.54,-3.22 -2.03,-4.7 -3.45,-4.97l0 0 0 -0 0 0z"/>
       <path class="fil7" d="M105.58 33.89c0.52,0.31 0.92,0.43 1.29,1.44 0.16,0.43 0.27,1.03 0.31,1.5 0.06,0.69 -0.02,0.88 -0.02,1.41 0.21,-0.34 0.49,-1.09 0.62,-1.49 0.95,-3.03 0.65,-6.54 -1.14,-8.9 -0.95,-1.25 -1.18,-0.96 -2.07,-1.21l0.23 -0.12c-0.7,-0.12 -2.47,1.37 -3.02,1.99 -1.46,1.61 -2.43,4.32 -2.86,7.06 -0.27,1.75 -0.22,2.69 -0.25,4.59l0.3 -1.76c0.14,-0.77 0.37,-1.26 0.63,-1.93 1.01,-2.59 4.24,-5.54 5.99,-2.58l0 0 -0 -0 -0 0z"/>
       <path class="fil7" d="M107.09 66.54l-0.11 -0.73c-0.2,-1.17 -0.41,-2.16 -0.34,-3.33l0.27 -2.22c0.01,-0.08 0.02,-0.15 0.04,-0.21 0.02,-0.11 0.04,-0.24 0.07,-0.35 0.08,-0.38 0.22,-0.85 0.32,-1.28 0.11,-0.46 0.22,-0.85 0.32,-1.29l0.68 -5.22c0,-0.15 -0.01,-0.31 -0,-0.42 -0.01,-1.77 -0.29,-4.05 -1.39,-5.03 -0.76,-0.68 -1.3,-1.18 -2.41,-0.11 -0.19,0.47 -0.3,4.08 -0.29,4.51 0.02,3.87 0.33,6.98 1.23,10.73 0.3,1.23 1.12,4.21 1.6,4.96l0 0 -0 0z"/>
       <path class="fil12" d="M100.7 53.69c1.04,-0.53 1.66,-1.24 1.87,-2.76 0.55,-3.98 -2.08,-2.52 -0.86,-11.74 0.09,-0.71 0.19,-1.17 0.37,-1.81 0.3,-1.04 0.78,-2.17 1.59,-2.91 -0.36,-0.18 -1.1,0.59 -1.28,0.82 -0.54,0.67 -0.57,0.75 -0.95,1.54 -0.02,0.03 -0.08,0.17 -0.08,0.18l-0.48 1.23 -0.82 4.69c-0.79,6.5 2.38,6.93 -0.79,8.48 0.61,1.9 0.46,1.92 1.43,2.28l0 0 -0 0.01 -0 -0z"/>
       <path class="fil13" d="M103.67 34.47c0.68,-0.59 1.23,-0.74 1.91,-0.58 -1.76,-2.95 -4.99,-0.01 -5.99,2.58 -0.26,0.67 -0.49,1.15 -0.63,1.92l-0.3 1.76c0.14,1.37 0.2,2.44 0.44,3.83 0.15,0.88 0.96,3.44 1.21,4.11 -0.09,-0.83 -0.41,-1.5 -0.4,-2.2 0.01,-0.92 0.04,-2.08 0.15,-2.99l0.82 -4.69 0.48 -1.23c0,-0.01 0.07,-0.15 0.08,-0.18 0.38,-0.8 0.4,-0.87 0.95,-1.54 0.18,-0.23 0.92,-1 1.28,-0.82l0 0 0.01 0 -0 0z"/>
       <path class="fil6" d="M107.96 47.04c1.03,-0.87 0.94,-0.87 0.69,-3.04 -0.86,1.24 -0.71,0.69 -0.69,3.04z"/>
       <path class="fil15" d="M108.8 67.38c0.08,-1.3 2.26,-2.06 2.83,-2.22 1.04,-0.29 2.15,-0.42 3.19,-0.5 2.58,-0.21 5.24,-0.74 7.26,-2.41 1.4,-2.07 2.53,-4.58 3.35,-7.35 0.1,-1.03 0.12,-2.15 0.06,-3.4 -0.06,-1.33 -0.37,-4.27 -0.77,-5.61l-0.07 0.04c-0.12,0.64 -0.44,1.37 -0.7,1.89 -0.98,1.98 -2.48,2.91 -4.01,2.38 -0.45,-0.15 -0.88,-0.35 -1.26,-0.74 -0.73,-0.75 -1.03,-0.9 -1.74,-1.75 -0.2,-0.07 -0.4,-0.17 -0.58,-0.22 -0.27,-0.08 -0.48,-0.05 -0.82,-0.01 -0.34,0.04 -0.83,0.08 -1.19,0.1 -0.36,0.03 -0.61,0.04 -0.98,-0.13 -0.08,-0.04 -0.16,-0.08 -0.25,-0.13 0.03,0.1 0.05,0.21 0.07,0.32 0.04,-0.01 0.13,-0.04 0.18,-0.03 0.17,0.02 0.08,0.03 0.17,0.11 1.45,-0.13 3.04,1.79 3.71,4.33 0.83,3.17 0.57,5.83 -0.27,7.73 -1.8,4.1 -5.37,2.92 -7.34,4.62 -0.64,0.56 -1.43,2.03 -0.86,2.99l0 0 0 -0.02 0 0z"/>
      </g>
     </g>
    </g>
    <ellipse class="fil16" cx="101.46" cy="171.93" rx="63.76" ry="1.28"/>
   </g>
   <rect class="fil17" x="-0" y="1.83" width="169.55" height="169.55"/>
  </g>
 </g>
</svg>
