<?xml version="1.0" encoding="UTF-8"?>
<!DOCTYPE svg PUBLIC "-//W3C//DTD SVG 1.1//EN" "http://www.w3.org/Graphics/SVG/1.1/DTD/svg11.dtd">
<!-- Creator: CorelDRAW 2019 (64-Bit) -->
<svg xmlns="http://www.w3.org/2000/svg" xml:space="preserve" width="6.19077in" height="6.88119in" version="1.1" style="shape-rendering:geometricPrecision; text-rendering:geometricPrecision; image-rendering:optimizeQuality; fill-rule:evenodd; clip-rule:evenodd"
viewBox="0 0 6190.77 6881.19"
 xmlns:xlink="http://www.w3.org/1999/xlink"
 xmlns:xodm="http://www.corel.com/coreldraw/odm/2003">
 <defs>
  <style type="text/css">
   <![CDATA[
    .fil2 {fill:none}
    .fil9 {fill:#CCCCCC}
    .fil0 {fill:#E6E6E6}
    .fil3 {fill:#030303}
    .fil13 {fill:#363636}
    .fil11 {fill:#4F4F4F}
    .fil12 {fill:#DBDBDB}
    .fil1 {fill:white}
    .fil14 {fill:url(#id0)}
    .fil7 {fill:url(#id1)}
    .fil6 {fill:url(#id2)}
    .fil10 {fill:url(#id3)}
    .fil4 {fill:url(#id4)}
    .fil15 {fill:url(#id5)}
    .fil8 {fill:url(#id6)}
    .fil5 {fill:url(#id7)}
    .fil16 {fill:url(#id8)}
   ]]>
  </style>
  <linearGradient id="id0" gradientUnits="userSpaceOnUse" x1="586.66" y1="4319.57" x2="533.82" y2="5095.85">
   <stop offset="0" style="stop-opacity:1; stop-color:white"/>
   <stop offset="0.529412" style="stop-opacity:1; stop-color:#E6E6E6"/>
   <stop offset="1" style="stop-opacity:1; stop-color:#CCCCCC"/>
  </linearGradient>
  <linearGradient id="id1" gradientUnits="userSpaceOnUse" xlink:href="#id0" x1="6272.82" y1="-90.12" x2="3264.56" y2="1694.4">
  </linearGradient>
  <linearGradient id="id2" gradientUnits="userSpaceOnUse" xlink:href="#id0" x1="5407.62" y1="3476.87" x2="990.75" y2="5758.46">
  </linearGradient>
  <linearGradient id="id3" gradientUnits="userSpaceOnUse" xlink:href="#id0" x1="5920.76" y1="2242.35" x2="992.82" y2="5282.66">
  </linearGradient>
  <linearGradient id="id4" gradientUnits="userSpaceOnUse" xlink:href="#id0" x1="4068.26" y1="3421.36" x2="-1591.69" y2="6742.55">
  </linearGradient>
  <linearGradient id="id5" gradientUnits="userSpaceOnUse" xlink:href="#id0" x1="1516.93" y1="3071.92" x2="-1510.22" y2="5209.83">
  </linearGradient>
  <linearGradient id="id6" gradientUnits="userSpaceOnUse" xlink:href="#id0" x1="3180.69" y1="316.24" x2="2723.85" y2="2857.61">
  </linearGradient>
  <linearGradient id="id7" gradientUnits="userSpaceOnUse" xlink:href="#id0" x1="4164.68" y1="3930.76" x2="513.93" y2="6004.92">
  </linearGradient>
  <linearGradient id="id8" gradientUnits="userSpaceOnUse" xlink:href="#id0" x1="6632.87" y1="823.65" x2="-8332.06" y2="7208.68">
  </linearGradient>
 </defs>
 <g id="Layer_x0020_1">
  <metadata id="CorelCorpID_0Corel-Layer"/>
  <g id="_2580890325088">
   <path class="fil0" d="M2145.33 1052.47l10.28 6.63 11.21 5.65 11.24 4.48 11.73 3.87 11.94 2.63 12.38 1.81 12.57 0.97 12.85 -0.07 13.08 -0.8 13.23 -1.8 13.35 -2.47 13.4 -3.47 13.57 -4.07 13.7 -4.97 13.87 -5.57 13.78 -6.5 13.74 -7.07 13.69 -8.01 13.65 -8.58 13.49 -9.3 291.99 -208.22 11.89 -0.83 17.8 -1.47 18.74 -1.87 19.98 -2.04 20.8 -1.84 21.8 -1.83 22.72 -1.34 23.51 -0.85 24.3 -0.25 8.82 0.3 -149.22 102.97 -14.91 11.05 -15.83 12.81 -17.19 14.89 -18.94 17.03 -8.33 7.81 -9.92 9.48 -11.11 10.96 -12.07 12.35 -12.74 12.99 -13.35 13.87 -13.54 14.54 -13.53 14.71 -13.03 14.5 -12.9 14.43 -11.76 13.95 -10.9 13.35 -9.6 12.45 -7.83 11.11 -6.24 9.67 -4.05 8.11 12.69 7.06 12.89 5.81 13.02 4.78 13.05 3.62 13.36 2.51 13.2 1.39 13.2 0.46 13.38 -0.37 13.32 -1.35 13.29 -2.27 13.24 -3.22 13.11 -3.97 12.98 -4.65 13.04 -5.46 12.89 -6.16 12.56 -6.8 12.57 -7.34 469.68 -303.95 4.34 0.48 13.59 1.8 13.7 1.7 13.09 2 13.15 2.16 4.88 0.86 -150.26 95.94 -18.5 12.44 -19.04 14.56 -19.81 17.21 -12.93 12.27 -12.66 12.81 -12.32 13.2 -11.89 13.79 -11.45 13.96 -10.89 14.3 -10.2 14.61 -9.51 14.88 -8.99 14.83 -8 15.37 -7.19 15.02 -6.35 15.22 -5.26 15.15 -4.24 14.89 -3.2 15.06 -2.02 14.67 22.48 -6.08 21.91 -6.11 21.47 -6.26 20.89 -5.83 20.31 -6.17 19.65 -6.05 19.22 -6.04 18.65 -6.18 17.98 -6.28 17.67 -6.55 16.9 -6.61 16.12 -7.02 15.92 -7.1 15.13 -7.54 14.84 -7.81 13.89 -8.15 360.22 -215.32 43.04 4.31 574.05 -340.3 -265.74 -27.89 -7.6 -3.42 -8.69 -3.13 -9.14 -3.21 -10.15 -3.31 -10.65 -2.98 -11.19 -3.31 -12 -2.79 -12.5 -2.99 -12.83 -2.85 -13.39 -2.61 -13.7 -2.5 -14.3 -2.41 -14.25 -2.26 -14.91 -1.93 -4.59 -0.63 208.35 -134.45 -7.34 -13.18 -7.21 -13.85 -7.37 -14.82 -7.58 -15.62 -7.5 -16.43 -7.81 -17.2 -8.54 -17.92 -8.48 -19.23 -9.21 -19.48 -9.63 -20.43 -10.37 -21.15 -10.89 -21.96 -11.36 -22.59 -12.46 -23.66 -304.09 212.56 -4.59 -3.74 -18.67 -17.49 -19.77 -20.42 -20.47 -23.68 -21.37 -27.33 -22.63 -31.26 -23.38 -35.39 -24.74 -39.85 -25.75 -44.6 -26.87 -49.43 -352.4 273.03 -8.7 -7.44 -13.52 -12.3 -13.79 -13.01 -14.39 -13.83 -14.28 -14.53 -14.31 -15.13 -14.17 -15.22 -13.99 -15.3 -13.41 -15.35 -12.9 -15.14 -12.01 -15.09 -11.23 -14.17 -10.02 -13.8 -8.8 -12.91 -461.06 386.03 8.08 11.74 9.2 12.55 10.31 12.87 11.02 13.7 11.85 13.76 12.31 13.95 12.84 13.9 13.01 13.82 13.15 13.75 13.11 13.19 13.21 12.57 12.67 11.81 12.41 11.17 11.87 10.02 11.28 9.07 10.24 7.61 15.75 11.09 12.23 7.82 -253.97 192.7 -11.63 8.89 -11.57 9.78 -11.53 10.39 -11.47 10.9 -11.03 11.51 -10.89 11.85 -10.57 12.07 -9.96 12.21 -9.48 12.45 -8.54 12.36 -8.11 12 -7.16 12.03 -6.62 11.54 -5.45 11.08 -4.2 10.54zm1691.48 1093.11l-16.18 4.25 591.44 -220.36 17.58 -4.61 18.13 -2.37 17.69 -0.11 17.37 1.92 16.07 4.1 14.58 5.83 12.88 7.84 10.52 9.91 7.64 11.62 -601.9 217.11 -7.05 -10.61 -9.7 -9.03 -11.87 -7.14 -13.43 -5.29 -14.8 -3.71 -16 -1.72 -16.29 0.15 -16.69 2.21zm-685.22 -1320.62l13.91 1.27 13.98 1.41 5.81 0.65 -11.5 5.48 -14.2 5.94 -14.15 5.04 -14.29 4.3 -14.43 3.48 -14.48 2.43 -14.51 1.44 -14.58 0.35 -14.38 -0.56 -14.37 -1.57 -14.56 -2.81 -14.22 -4.02 -14.18 -5.3 -14.04 -6.43 -7.64 -4.3 5.38 -1.2 10.58 -2.07 11.13 -1.74 11.61 -1.53 12.28 -1.26 12.34 -0.72 12.85 -0.75 13.09 -0.3 13.39 0.04 13.61 0.03 13.7 0.42 13.96 0.5 13.96 0.86 13.95 0.9zm-497.94 -91.94l15.75 1.19 16.57 0.58 17.68 -0.04 19.25 -0.75 20.41 -1.04 6.99 -0.53 -4.77 3.43 -13.49 9.71 -10.83 1.97 -14.42 1.92 -14.27 0.82 -14.01 0.04 -13.7 -1.13 -13.49 -2.04 -13.02 -2.93 -12.79 -4.29 -12.25 -4.96 -12.22 -6.24 -11.2 -7.31 1.39 -3.49 5.28 2.12 13.81 4.56 13.98 3.63 14.41 2.88 14.94 1.9zm769.36 140l36.16 3.63 19.44 1.95 -10.71 3.1 -23.86 6.6 -24.49 6.58 2.22 -16.07 1.23 -5.79zm-342.05 -159.89l-29.13 19.82 3.29 -2.24 25.84 -17.58zm-252.33 -4.57l33.98 -24.25 34.85 -24.88 54.13 -38.63 -88.98 63.51 -33.98 24.25z"/>
   <path class="fil0" d="M4210.4 436.09l-47.56 28.87 -13.31 -31.33 -17.87 3.15 -16.47 2.11 -15.43 1.26 -14.75 0.04 -13.43 -0.63 -12.89 -1.75 -11.99 -2.32 -11.05 -3.61 -10.59 -4.41 -10.01 -5.3 -9.39 -6.22 -8.71 -7.1 -8.73 -7.95 -8.09 -8.87 -7.76 -9.57 -7.68 -10.73 -7.38 -11.47 -7.25 -12.15 -555.99 358.78 6.68 11.06 6.79 10.44 7.07 9.76 7.15 8.7 7.44 8.07 8.04 7.22 8.02 6.45 8.65 5.65 9.21 4.81 9.75 3.98 10.17 3.26 11.02 2.07 11.86 1.55 12.35 0.54 13.56 -0.1 14.19 -1.21 15.15 -2 16.43 -2.94 28.81 67 574.36 -344.07 -15.56 -36.62 25.45 -15.42 3.35 -2.08 0.13 -0.66 -1.62 -0.54 -1.34 -0.72 0.57 -1.49 4.41 -2.95 6.63 -4.32 3.7 -2.63 1.5 -1.69 1.19 -0.95 1.24 -0.97zm263.94 501.4l33.72 2.51 651.71 -331.76 -36.57 -2.89 -36.52 0.18 -36.45 3.15 -36.14 5.36 -36.2 7.62 -35.84 9.5 -35.82 10.94 -35.22 12.11 -35.26 13.35 -34.75 13.82 -34.38 14.21 -34.13 14.35 -33.51 14.04 -33.11 13.7 -32.76 12.7 -32.25 11.61 -31.69 10.13 -31.15 8.72 -30.52 6.52 -29.93 4.11 -29.25 1.59 -28.63 -1.57 -27.92 -4.63 -27.22 -8.02 -26.31 -12.01 -25.63 -16.07 -24.9 -20.36 -23.81 -25.39 -23.07 -30.17 -22.18 -35.57 -21.26 -41.39 -20.1 -47.12 -574.05 340.3 18.54 42.96 19.6 37.72 20.44 32.41 21.26 27.47 21.94 23.11 22.93 18.5 23.61 14.59 24.22 10.89 25.06 7.23 25.7 4.13 26.35 1.33 26.93 -1.55 27.54 -3.87 28.09 -6.06 28.67 -8.07 29.17 -9.37 29.69 -10.72 30.15 -11.73 30.48 -12.63 30.85 -12.94 31.43 -13.24 31.65 -13.11 32 -12.74 32.47 -12.33 32.44 -11.2 33 -10.13 33.01 -8.81 33.35 -7.1 33.3 -5.02 33.59 -3.02 33.65 -0.3z"/>
   <polygon class="fil1" points="6190.77,1864.69 5460.99,2086.26 5435.66,2099.5 6163.33,1879.07 "/>
   <polygon class="fil2" points="6190.77,1864.69 5460.99,2086.26 5435.66,2099.5 6163.33,1879.07 "/>
   <polygon class="fil1" points="6163.33,1879.07 5435.66,2099.5 5411.01,2112.63 6136.63,1893.34 "/>
   <polygon class="fil2" points="6163.33,1879.07 5435.66,2099.5 5411.01,2112.63 6136.63,1893.34 "/>
   <polygon class="fil1" points="6136.63,1893.34 5411.01,2112.63 5386.97,2126.04 6110.59,1907.91 "/>
   <polygon class="fil2" points="6136.63,1893.34 5411.01,2112.63 5386.97,2126.04 6110.59,1907.91 "/>
   <polygon class="fil1" points="6110.59,1907.91 5386.97,2126.04 5363.32,2139.44 6084.96,1922.48 "/>
   <polygon class="fil2" points="6110.59,1907.91 5386.97,2126.04 5363.32,2139.44 6084.96,1922.48 "/>
   <polygon class="fil1" points="6084.96,1922.48 5363.32,2139.44 5340.09,2152.64 6059.79,1936.85 "/>
   <polygon class="fil2" points="6084.96,1922.48 5363.32,2139.44 5340.09,2152.64 6059.79,1936.85 "/>
   <polygon class="fil1" points="6059.79,1936.85 5340.09,2152.64 5317.34,2165.84 6035.15,1951.2 "/>
   <polygon class="fil2" points="6059.79,1936.85 5340.09,2152.64 5317.34,2165.84 6035.15,1951.2 "/>
   <polygon class="fil1" points="6035.15,1951.2 5317.34,2165.84 5294.61,2179 6010.52,1965.51 "/>
   <polygon class="fil2" points="6035.15,1951.2 5317.34,2165.84 5294.61,2179 6010.52,1965.51 "/>
   <polygon class="fil1" points="6010.52,1965.51 5294.61,2179 5272.24,2191.81 5986.28,1979.44 "/>
   <polygon class="fil2" points="6010.52,1965.51 5294.61,2179 5272.24,2191.81 5986.28,1979.44 "/>
   <polygon class="fil1" points="5986.28,1979.44 5272.24,2191.81 5250.15,2204.5 5962.35,1993.25 "/>
   <polygon class="fil2" points="5986.28,1979.44 5272.24,2191.81 5250.15,2204.5 5962.35,1993.25 "/>
   <polygon class="fil1" points="5962.35,1993.25 5250.15,2204.5 5227.94,2216.91 5938.28,2006.75 "/>
   <polygon class="fil2" points="5962.35,1993.25 5250.15,2204.5 5227.94,2216.91 5938.28,2006.75 "/>
   <polygon class="fil1" points="5938.28,2006.75 5227.94,2216.91 5205.74,2228.94 5914.22,2019.83 "/>
   <polygon class="fil2" points="5938.28,2006.75 5227.94,2216.91 5205.74,2228.94 5914.22,2019.83 "/>
   <polygon class="fil1" points="5914.22,2019.83 5205.74,2228.94 5183.53,2240.57 5890.15,2032.48 "/>
   <polygon class="fil2" points="5914.22,2019.83 5205.74,2228.94 5183.53,2240.57 5890.15,2032.48 "/>
   <polygon class="fil1" points="5890.15,2032.48 5183.53,2240.57 5161.17,2251.91 5865.92,2044.81 "/>
   <polygon class="fil2" points="5890.15,2032.48 5183.53,2240.57 5161.17,2251.91 5865.92,2044.81 "/>
   <polygon class="fil1" points="5865.92,2044.81 5161.17,2251.91 5138.53,2262.64 5841.39,2056.47 "/>
   <polygon class="fil2" points="5865.92,2044.81 5161.17,2251.91 5138.53,2262.64 5841.39,2056.47 "/>
   <polygon class="fil1" points="5841.39,2056.47 5138.53,2262.64 5115.62,2273.12 5816.56,2067.85 "/>
   <polygon class="fil2" points="5841.39,2056.47 5138.53,2262.64 5115.62,2273.12 5816.56,2067.85 "/>
   <polygon class="fil1" points="5816.56,2067.85 5115.62,2273.12 5092.5,2282.76 5791.5,2078.33 "/>
   <polygon class="fil2" points="5816.56,2067.85 5115.62,2273.12 5092.5,2282.76 5791.5,2078.33 "/>
   <polygon class="fil1" points="5791.5,2078.33 5092.5,2282.76 5068.85,2292.08 5765.88,2088.45 "/>
   <polygon class="fil2" points="5791.5,2078.33 5092.5,2282.76 5068.85,2292.08 5765.88,2088.45 "/>
   <polygon class="fil1" points="5765.88,2088.45 5068.85,2292.08 5044.64,2300.56 5739.63,2097.65 "/>
   <polygon class="fil2" points="5765.88,2088.45 5068.85,2292.08 5044.64,2300.56 5739.63,2097.65 "/>
   <polygon class="fil1" points="5739.63,2097.65 5044.64,2300.56 5019.97,2308.3 5712.9,2106.04 "/>
   <polygon class="fil2" points="5739.63,2097.65 5044.64,2300.56 5019.97,2308.3 5712.9,2106.04 "/>
   <polygon class="fil3" points="5221.94,2100.85 4567,2304.65 4589.01,2306.09 5245.8,2102.5 "/>
   <polygon class="fil2" points="5221.94,2100.85 4567,2304.65 4589.01,2306.09 5245.8,2102.5 "/>
   <polygon class="fil3" points="5245.8,2102.5 4589.01,2306.09 4611.39,2308.06 5270.07,2104.7 "/>
   <polygon class="fil2" points="5245.8,2102.5 4589.01,2306.09 4611.39,2308.06 5270.07,2104.7 "/>
   <polygon class="fil3" points="5270.07,2104.7 4611.39,2308.06 4633.85,2310.55 5294.42,2107.48 "/>
   <polygon class="fil2" points="5270.07,2104.7 4611.39,2308.06 4633.85,2310.55 5294.42,2107.48 "/>
   <polygon class="fil3" points="5294.42,2107.48 4633.85,2310.55 4656.21,2313.3 5318.66,2110.55 "/>
   <polygon class="fil2" points="5294.42,2107.48 4633.85,2310.55 4656.21,2313.3 5318.66,2110.55 "/>
   <polygon class="fil3" points="5318.66,2110.55 4656.21,2313.3 4677.89,2315.74 5342.15,2113.28 "/>
   <polygon class="fil2" points="5318.66,2110.55 4656.21,2313.3 4677.89,2315.74 5342.15,2113.28 "/>
   <polygon class="fil3" points="5342.15,2113.28 4677.89,2315.74 4698.96,2318.11 5365,2115.93 "/>
   <polygon class="fil2" points="5342.15,2113.28 4677.89,2315.74 4698.96,2318.11 5365,2115.93 "/>
   <polygon class="fil3" points="5365,2115.93 4698.96,2318.11 4719.01,2320.19 5386.73,2118.25 "/>
   <polygon class="fil2" points="5365,2115.93 4698.96,2318.11 4719.01,2320.19 5386.73,2118.25 "/>
   <polygon class="fil3" points="5406.53,2119.79 4737.28,2321.55 4754.04,2321.95 5424.69,2120.27 "/>
   <polygon class="fil2" points="5406.53,2119.79 4737.28,2321.55 4754.04,2321.95 5424.69,2120.27 "/>
   <polygon class="fil3" points="5096.62,2241.16 4451.6,2433.24 4457.48,2456.03 5102.96,2266.1 "/>
   <polygon class="fil2" points="5096.62,2241.16 4451.6,2433.24 4457.48,2456.03 5102.96,2266.1 "/>
   <polygon class="fil3" points="5102.96,2266.1 4457.48,2456.03 4467.19,2481.39 5113.47,2293.85 "/>
   <polygon class="fil2" points="5102.96,2266.1 4457.48,2456.03 4467.19,2481.39 5113.47,2293.85 "/>
   <polygon class="fil3" points="5113.47,2293.85 4467.19,2481.39 4474.59,2495.42 5121.47,2309.21 "/>
   <polygon class="fil2" points="5113.47,2293.85 4467.19,2481.39 4474.59,2495.42 5121.47,2309.21 "/>
   <polygon class="fil3" points="5121.47,2309.21 4474.59,2495.42 4483.68,2507.95 5131.31,2322.92 "/>
   <polygon class="fil2" points="5121.47,2309.21 4474.59,2495.42 4483.68,2507.95 5131.31,2322.92 "/>
   <polygon class="fil3" points="5131.31,2322.92 4483.68,2507.95 4493.97,2518.97 5142.46,2335 "/>
   <polygon class="fil2" points="5131.31,2322.92 4483.68,2507.95 4493.97,2518.97 5142.46,2335 "/>
   <polygon class="fil3" points="5142.46,2335 4493.97,2518.97 4505.77,2528.4 5155.25,2345.34 "/>
   <polygon class="fil2" points="5142.46,2335 4493.97,2518.97 4505.77,2528.4 5155.25,2345.34 "/>
   <polygon class="fil3" points="5155.25,2345.34 4505.77,2528.4 4518.81,2536.5 5169.37,2354.22 "/>
   <polygon class="fil2" points="5155.25,2345.34 4505.77,2528.4 4518.81,2536.5 5169.37,2354.22 "/>
   <polygon class="fil3" points="5169.37,2354.22 4518.81,2536.5 4533.19,2543.03 5184.96,2361.39 "/>
   <polygon class="fil2" points="5169.37,2354.22 4518.81,2536.5 4533.19,2543.03 5184.96,2361.39 "/>
   <polygon class="fil3" points="5184.96,2361.39 4533.19,2543.03 4548.35,2548.03 5201.41,2366.9 "/>
   <polygon class="fil2" points="5184.96,2361.39 4533.19,2543.03 4548.35,2548.03 5201.41,2366.9 "/>
   <polygon class="fil3" points="5201.41,2366.9 4548.35,2548.03 4564.73,2551.98 5219.15,2371.25 "/>
   <polygon class="fil2" points="5201.41,2366.9 4548.35,2548.03 4564.73,2551.98 5219.15,2371.25 "/>
   <polygon class="fil3" points="5219.15,2371.25 4564.73,2551.98 4581.96,2554.57 5237.83,2374.13 "/>
   <polygon class="fil2" points="5219.15,2371.25 4564.73,2551.98 4581.96,2554.57 5237.83,2374.13 "/>
   <polygon class="fil3" points="5237.83,2374.13 4581.96,2554.57 4600.02,2556.23 5257.42,2375.99 "/>
   <polygon class="fil2" points="5237.83,2374.13 4581.96,2554.57 4600.02,2556.23 5257.42,2375.99 "/>
   <polygon class="fil3" points="5257.42,2375.99 4600.02,2556.23 4618.84,2556.55 5277.82,2376.38 "/>
   <polygon class="fil2" points="5257.42,2375.99 4600.02,2556.23 4618.84,2556.55 5277.82,2376.38 "/>
   <polygon class="fil3" points="5277.82,2376.38 4618.84,2556.55 4638.41,2556.19 5299.04,2376.03 "/>
   <polygon class="fil2" points="5277.82,2376.38 4618.84,2556.55 4638.41,2556.19 5299.04,2376.03 "/>
   <polygon class="fil3" points="5299.04,2376.03 4638.41,2556.19 4658.34,2554.54 5320.65,2374.28 "/>
   <polygon class="fil2" points="5299.04,2376.03 4638.41,2556.19 4658.34,2554.54 5320.65,2374.28 "/>
   <polygon class="fil3" points="5320.65,2374.28 4658.34,2554.54 4678.89,2552.22 5342.94,2371.8 "/>
   <polygon class="fil2" points="5320.65,2374.28 4658.34,2554.54 4678.89,2552.22 5342.94,2371.8 "/>
   <polygon class="fil3" points="5342.94,2371.8 4678.89,2552.22 4699.97,2549.1 5365.79,2368.43 "/>
   <polygon class="fil2" points="5342.94,2371.8 4678.89,2552.22 4699.97,2549.1 5365.79,2368.43 "/>
   <polygon class="fil3" points="5365.79,2368.43 4699.97,2549.1 4721.02,2545.06 5388.61,2364.06 "/>
   <polygon class="fil2" points="5365.79,2368.43 4699.97,2549.1 4721.02,2545.06 5388.61,2364.06 "/>
   <polygon class="fil3" points="5388.61,2364.06 4721.02,2545.06 4742.56,2540.43 5411.97,2359.06 "/>
   <polygon class="fil2" points="5388.61,2364.06 4721.02,2545.06 4742.56,2540.43 5411.97,2359.06 "/>
   <polygon class="fil3" points="5411.97,2359.06 4742.56,2540.43 4764.15,2535.2 5435.37,2353.39 "/>
   <polygon class="fil2" points="5411.97,2359.06 4742.56,2540.43 4764.15,2535.2 5435.37,2353.39 "/>
   <path class="fil4" d="M2584.69 5083.47l-440.96 -51.02 5.37 12.56 5.52 12.52 441.92 53.4 -6.01 -13.71 -5.84 -13.74zm-1207.37 1544.39l9.44 11.14 371.18 205.55 -10.29 -12.18 -9.59 -13 -9.08 -13.84 -8.44 -14.34 -8.09 -15.44 -7.63 -15.8 -6.89 -16.61 -6.8 -16.91 -5.99 -17.49 -5.73 -17.82 -5.06 -18.39 -4.98 -18.63 -4.19 -18.81 -3.82 -18.95 -3.58 -19.36 -3.2 -19.5 -2.88 -19.23 -2.3 -19.51 -2.11 -19.41 -1.83 -19.36 -1.04 -19.12 -1.02 -19.08 -0.62 -18.64 -0.44 -18.36 -0.11 -18.08 0.21 -17.8 0.45 -17.28 0.79 -16.64 1.01 -16.07 1.1 -15.48 1.57 -14.89 1.64 -14.31 2.19 -16.45 2.23 -16.28 2.07 -16.2 1.96 -15.9 2 -15.92 1.94 -15.94 2.08 -15.76 1.69 -15.58 1.54 -15.46 1.5 -15.54 1.65 -15.76 1.25 -15.57 1.07 -15.52 1.02 -15.65 0.81 -15.59 0.57 -15.68 0.29 -15.78 0.14 -16.09 -0.02 -16.02 -0.22 -15.93 -0.7 -16.56 -0.8 -16.26 -1.07 -16.83 -1.48 -16.77 -1.74 -16.94 -1.97 -17.41 -2.43 -17.38 -2.59 -17.8 -3.19 -18.09 -3.25 -18.3 -3.84 -18.66 -4.28 -19.07 -5.2 -20.96 -6.86 -24.23 -7.98 -27.47 -9.35 -29.98 -10.48 -32.44 -11.77 -34.8 -12.65 -37.12 -13.75 -38.98 -14.44 -40.56 -15.42 -42.06 -16.01 -43.45 -16.52 -44.55 -17.08 -45.33 -17.54 -45.81 -17.87 -46.53 -18.15 -46.61 -18.34 -46.61 -18.26 -46.44 -18.3 -46 -18.43 -45.35 -17.96 -44.34 -17.89 -43.37 -17.35 -42.1 -17.08 -40.59 -16.26 -38.8 -15.91 -36.71 -330.46 -21.1 14.58 33.47 14.91 35.39 15.66 37.02 15.9 38.39 16.4 39.55 16.46 40.44 16.89 41.36 16.77 41.97 16.74 42.35 16.81 42.51 16.64 42.52 16.39 42.44 16.08 41.8 15.66 41.36 15.16 40.65 14.69 39.64 14.14 38.38 13.25 37.01 12.61 35.57 11.61 33.87 10.79 31.76 9.62 29.62 8.57 27.36 7.33 25.07 6.3 22.11 4.78 19.13 3.93 17.41 3.53 17.02 2.98 16.7 2.93 16.51 2.38 16.24 2.23 15.87 1.81 15.89 1.61 15.45 1.37 15.31 0.99 15.35 0.74 14.84 0.65 15.11 0.21 14.54 0.02 14.61 -0.12 14.69 -0.25 14.4 -0.51 14.3 -0.74 14.22 -0.93 14.28 -0.98 14.17 -1.13 14.2 -1.5 14.38 -1.37 14.18 -1.41 14.1 -1.54 14.21 -1.89 14.38 -1.77 14.55 -1.83 14.53 -1.79 14.51 -1.89 14.78 -2.03 14.85 -2 15 -1.5 13.05 -1.42 13.58 -1 14.13 -0.93 14.67 -0.72 15.18 -0.4 15.78 -0.18 16.24 0.12 16.49 0.41 16.76 0.58 17.02 0.94 17.41 0.96 17.45 1.69 17.67 1.94 17.73 2.12 17.8 2.65 17.56 2.95 17.79 3.3 17.68 3.51 17.3 3.85 17.17 4.57 17.01 4.65 16.79 5.25 16.27 5.5 15.97 6.23 15.44 6.33 15.17 7 14.44 7.42 14.11 7.74 13.11 8.33 12.65 8.8 11.89z"/>
   <path class="fil5" d="M2596.54 5110.93l-441.92 -53.4 5.46 12.28 5.7 12.43 5.67 12 5.74 12.02 5.86 11.95 5.65 11.84 5.93 11.7 5.86 11.94 5.7 11.58 5.78 11.76 5.66 11.87 5.54 11.7 5.46 11.9 5.46 11.91 5.4 11.76 5.14 12.06 5 12.11 4.82 12.2 4.64 12.28 4.52 12.38 4.32 12.82 4.06 12.72 3.62 12.98 3.51 13.2 3.26 13.49 2.88 13.5 2.7 13.97 2.4 14.07 1.95 14.5 1.57 14.9 1.17 20.41 -0.12 20.98 -1.41 21.64 -2.33 22.07 -3.22 22.68 -4.13 22.94 -4.42 23.08 -4.99 23.14 -5.2 23.45 -5.23 23.48 -5.17 23.22 -4.74 23.24 -4.56 22.76 -3.85 22.63 -2.91 22.14 -2.13 21.76 -1.09 20.91 0.21 20.46 1.53 19.47 3.22 18.8 4.89 17.85 6.79 16.89 8.98 15.65 11.03 14.65 13.7 13.14 16.07 12.03 18.65 10.39 21.74 9.06 458.26 140.97 -23.67 -9.87 -20.3 -11.34 -17.5 -13.15 -14.91 -14.36 -12 -16.03 -9.77 -17.12 -7.37 -18.48 -5.31 -19.53 -3.48 -20.57 -1.65 -21.32 -0.21 -22.4 1.2 -22.9 2.33 -23.83 3.19 -24.24 4.22 -24.8 4.99 -24.92 5.18 -25.45 5.65 -25.43 5.72 -25.71 5.69 -25.68 5.46 -25.34 4.83 -25.28 4.52 -25.12 3.54 -24.83 2.55 -24.18 1.56 -23.69 0.15 -22.98 -1.26 -22.34 -1.7 -16.32 -2.11 -15.87 -2.61 -15.41 -2.93 -15.29 -3.11 -14.79 -3.54 -14.77 -3.82 -14.45 -3.94 -14.21 -4.41 -13.92 -4.7 -14.03 -4.91 -13.56 -5.05 -13.44 -5.24 -13.35 -5.43 -13.26 -5.58 -13.2 -5.87 -12.87 -5.94 -13.03 -5.94 -13.04 -6.02 -12.8 -6.15 -12.98 -6.29 -12.88 -6.2 -12.68 -6.38 -13.07 -6.44 -12.81 -6.14 -12.95 -6.38 -13.09 -6.24 -13.16 -6.17 -13.15 -6.2 -13.61 -5.94 -13.45zm-5.59 -318.69l-16.02 10.26 -15.98 10.37 -15.72 10.47 -15.68 10.67 -15.36 10.47 -15.35 10.48 -15.28 10.66 -15.4 10.5 -15.06 10.33 -18.65 12.26 -18.66 11.87 -18.39 10.77 -18.29 10.56 -18.33 10.01 -18.46 9.47 -18.56 9.17 -18.8 8.67 -18.69 8.48 -19.07 8.22 -19.31 7.98 -19.65 7.76 -19.89 7.69 -20.39 7.49 -20.91 7.6 -21.35 7.99 440.96 51.02 23.28 -8.76 22.79 -8.34 22.22 -8.21 21.69 -8.45 21.42 -8.51 21.04 -8.75 20.78 -9.02 20.37 -9.3 20.48 -9.5 20.23 -10.04 20.12 -10.38 19.98 -10.97 19.93 -11.57 20.04 -11.82 20.33 -13 20.32 -13.43 16.4 -11.33 16.78 -11.5 16.65 -11.68 16.72 -11.48 16.73 -11.47 17.08 -11.69 17.13 -11.47 17.41 -11.35 17.44 -11.25 17.7 -11.07 17.88 -10.78 18.16 -10.52 18.48 -10.21 18.66 -9.91 19.18 -9.54 19.25 -8.95 -491.67 -21.79 -17.68 8.17 -17.62 8.71 -17.13 9.04 -16.97 9.31 -16.68 9.61 -16.41 9.84 -16.25 10.11z"/>
   <path class="fil6" d="M2972.57 4745.15l16.78 24.41 17.04 25.45 17.37 25.83 17.33 26.01 17.51 26.13 17.51 26.06 17.21 25.85 16.77 25.26 16.14 24.8 15.81 24 15 23.04 14.4 21.8 13.33 20.65 12.22 19.41 11.28 17.43 9.82 15.87 8.56 13.81 7.22 11.81 5.33 9.3 3.75 7.09 11.62 23.61 10.53 24.17 9.44 23.92 8.79 24.04 7.96 24 7.06 24.13 6.37 24.19 5.84 24.31 5.19 24.19 4.69 24.3 4.13 24.34 3.99 24.41 3.26 24.55 3.31 24.56 2.94 24.69 2.81 24.78 2.6 24.67 2.71 25 2.69 24.84 2.69 24.96 2.83 25.15 3.14 25.12 3.28 25.31 3.64 25.26 3.91 25.5 4.44 25.46 4.92 25.57 5.56 25.8 6 25.8 6.72 25.83 7.53 25.93 8.26 26.17 551.84 136.38 -8.94 -28.59 -8.15 -28.35 -7.27 -28.23 -6.49 -28.2 -6.02 -28.19 -5.31 -27.95 -4.79 -27.83 -4.23 -27.88 -3.92 -27.62 -3.54 -27.67 -3.39 -27.47 -3.04 -27.5 -2.89 -27.3 -2.89 -27.16 -2.92 -27.34 -2.8 -26.98 -3.03 -27.1 -3.18 -26.99 -3.56 -26.86 -3.52 -26.83 -4.31 -26.69 -4.46 -26.63 -5.07 -26.56 -5.62 -26.45 -6.32 -26.59 -6.9 -26.45 -7.64 -26.39 -8.63 -26.24 -9.53 -26.29 -10.24 -26.15 -11.42 -26.43 -12.61 -25.82 -4.06 -7.75 -5.79 -10.17 -7.84 -12.91 -9.28 -15.1 -10.66 -17.35 -12.24 -19.06 -13.26 -21.22 -14.47 -22.59 -15.63 -23.84 -16.29 -25.19 -17.17 -26.24 -17.52 -27.14 -18.21 -27.62 -18.69 -28.27 -19.03 -28.51 -19.01 -28.58 -18.82 -28.45 -18.87 -28.26 -18.52 -27.85 -18.24 -26.71 -17.76 -26.15 -17.15 -25.22 -16.35 -23.92 -15.5 -22.52 -14.35 -20.76 -13.3 -18.99 -12.07 -17.12 -10.81 -14.83 -8.93 -12.39 -7.74 -9.83 -5.65 -7.07 -3.8 -4.23 -503.39 -5.87 3.5 3.87 5.2 6.45 7.12 8.98 8.22 11.33 9.94 13.54 11.1 15.63 12.25 17.35 13.2 18.98 14.26 20.59 15.05 21.85 15.79 23.05 16.35 23.9zm632.62 -410.01l20.7 3.39 572.13 -14.89 -22.49 -3.71 -22.24 -2.99 -21.82 -2.64 -21.46 -1.72 -20.51 -0.96 -20.22 -0.31 -561.9 15.98 18.61 0.27 18.87 0.87 19.76 1.57 20.08 2.41 20.48 2.73z"/>
   <polygon class="fil7" points="5159.78,608.24 4508.06,940 4520.41,941.56 4532.93,943.97 4545.4,946.75 4557.93,950.07 4570.4,954.03 4582.67,958.57 4595.01,963.5 4607.42,969.14 4619.51,975.31 4631.65,981.96 4643.46,989.19 4655.1,996.83 4666.62,1005.07 4677.79,1013.7 4688.74,1023.13 4699.49,1033.04 4709.72,1043.35 4719.78,1054.1 4729.65,1065.33 4738.92,1077.22 4747.92,1089.73 4756.29,1102.54 4764.43,1116.02 4771.96,1129.76 4779.13,1144.02 4785.68,1158.92 4791.85,1174.19 4797.19,1190.02 4802.11,1206.19 4806.42,1223.02 4809.98,1240.18 4812.98,1257.79 4816.39,1287.74 4817.34,1317.48 4816.52,1346.86 4813.56,1376.31 4808.83,1405.02 4802.23,1433.25 4794.14,1460.81 4784.42,1487.65 4773.25,1513.61 4760.9,1538.63 4747.13,1562.39 4732.4,1585.12 4716.49,1606.46 4699.75,1626.35 4682.3,1644.63 4664.06,1661.44 4648.92,1674.06 4633.82,1685.5 4618.82,1695.96 4604.11,1705.38 4589.2,1713.95 4574.78,1721.56 4560.45,1728.14 4546.05,1734.05 5199.96,1476.87 5215.59,1470.46 5231.13,1463.3 5246.79,1455.04 5262.96,1445.72 5278.93,1435.46 5295.21,1424.07 5311.59,1411.6 5328.02,1397.87 5347.82,1379.55 5366.77,1359.62 5384.95,1337.93 5402.22,1314.65 5418.23,1289.86 5433.19,1263.92 5446.6,1236.61 5458.75,1208.27 5469.33,1178.97 5478.13,1148.85 5485.32,1118.01 5490.48,1086.64 5493.73,1054.45 5494.67,1022.33 5493.67,989.81 5490.02,957.04 5486.79,937.78 5482.96,919 5478.3,900.59 5472.99,882.88 5467.22,865.55 5460.56,848.82 5453.48,832.51 5445.72,816.89 5437.57,801.83 5428.76,787.06 5419.7,773.02 5409.97,759.3 5399.93,746.26 5389.24,733.94 5378.35,722.13 5367.27,710.82 5355.63,699.93 5343.77,689.57 5331.67,680.09 5319.19,671.03 5306.57,662.61 5293.77,654.66 5280.61,647.34 5267.51,640.54 5254.06,634.32 5240.69,628.87 5227.37,623.85 5213.86,619.47 5200.27,615.78 5186.75,612.69 5173.17,610 "/>
   <polygon class="fil8" points="3844.38,1378.87 3297.82,1648.37 3272.17,1661.44 3246.87,1675.44 3221.89,1690.48 3197.22,1706.36 3172.85,1723.02 3148.81,1740.72 3125.14,1759.39 3101.53,1778.61 3078.3,1798.81 3055.22,1819.72 3032.11,1841.61 3009.32,1864.12 2986.7,1887.53 2964.04,1911.69 2941.58,1936.75 2921.56,1959.63 2903.39,1981.26 2886.92,2001.56 2871.86,2020.68 2858.55,2038.67 2846.37,2055.38 2835.46,2071.13 2825.81,2085.76 2817.03,2099.43 2809.14,2112.09 2802.18,2123.81 2795.6,2134.8 2793.71,2138.06 2468,2283.78 2434.88,2300.45 2404.75,2318.62 2377.54,2338.65 2352.98,2360.31 2331.12,2383.33 2311.73,2407.55 2294.8,2433.02 2280.34,2459.64 2268.19,2487.22 2258.24,2515.71 2250.3,2544.9 2244.6,2574.76 2240.88,2605.15 2239.03,2635.81 2238.65,2666.77 2240.35,2697.99 2243.37,2729.2 2248.13,2760.35 2254.13,2791.34 2261.61,2822.06 2270.02,2852.3 2279.87,2882.32 2290.71,2911.46 2302.58,2939.97 2315.22,2967.51 2328.72,2994.09 2788.06,2850.49 2773.37,2821.34 2759.63,2791.14 2746.72,2759.87 2734.93,2727.92 2724.22,2694.99 2715.07,2661.84 2706.96,2628.15 2700.44,2594.17 2695.27,2560.03 2692.02,2525.81 2690.18,2491.59 2690.63,2457.66 2692.67,2424.06 2696.75,2390.76 2703,2358.05 2711.68,2326.07 2722.54,2294.86 2735.8,2264.67 2751.59,2235.53 2770.07,2207.66 2784.74,2189.28 3216,2000.21 3224.87,1996.27 3232.97,1992.04 3240.24,1987.3 3246.75,1982.3 3252.85,1976.89 3258.56,1971 3263.87,1964.22 3269.17,1957.02 3274.37,1949.03 3279.77,1940.58 3285.17,1931.22 3291.06,1921.07 3297.39,1910.08 3304.56,1898.07 3312.15,1885.26 3320.74,1871.4 3330.33,1856.45 3340.84,1840.44 3352.74,1823.23 3366.01,1804.96 3380.52,1785.28 3396.93,1764.39 3414.87,1742.19 3434.67,1718.57 3456.49,1693.55 3480.96,1666.18 3505.65,1639.77 3530.29,1614.21 3555.11,1589.63 3580.27,1565.73 3605.41,1542.9 3630.7,1520.85 3656.42,1499.87 3682.19,1479.5 3708.36,1460.19 3734.89,1442.04 3761.74,1424.73 3788.93,1408.35 3816.46,1393.1 "/>
   <path class="fil9" d="M2788.06 2850.49l-459.33 143.6 14.17 25.46 14.63 24.33 8.14 12.45 8.52 12.08 8.63 11.87 8.87 11.51 9.28 11.13 9.43 11.09 9.43 10.7 9.93 10.45 9.77 10.52 10.28 9.92 10.21 9.93 10.41 9.87 10.5 9.57 10.43 9.46 10.77 9.45 10.85 9.1 10.67 9.11 10.94 9 10.98 8.98 10.98 8.97 10.96 8.97 10.9 8.83 10.96 8.96 10.87 8.84 10.94 8.96 10.7 8.85 10.81 9.03 10.59 9.11 10.5 9.16 10.46 9.21 10.2 9.47 10.04 9.52 24.66 23.34 23.16 21.62 21.94 20.31 21.15 18.96 20.5 17.47 20.21 16.07 19.96 15.09 20.07 13.63 20.45 12.68 21.07 11.66 21.89 10.49 23.05 9.73 24.43 8.94 25.89 8.04 27.87 7.3 520.24 -87.4 -30.32 -8.02 -28.16 -8.84 -26.58 -9.81 -25.07 -10.67 -23.81 -11.51 -22.92 -12.79 -22.24 -13.91 -21.83 -14.96 -21.7 -16.55 -21.98 -17.62 -22.29 -19.15 -23 -20.79 -23.87 -22.26 -25.19 -23.72 -26.82 -25.59 -10.93 -10.44 -11.1 -10.38 -11.39 -10.1 -11.42 -10.05 -11.52 -10 -11.76 -9.91 -11.65 -9.71 -11.91 -9.83 -11.82 -9.69 -11.93 -9.83 -11.86 -9.69 -11.93 -9.84 -11.94 -9.85 -11.95 -9.85 -11.91 -9.87 -11.62 -10 -11.81 -9.98 -11.72 -10.38 -11.35 -10.38 -11.43 -10.5 -11.33 -10.83 -11.11 -10.89 -11.18 -10.88 -10.63 -11.55 -10.8 -11.47 -10.26 -11.74 -10.26 -12.17 -10.1 -12.21 -9.65 -12.63 -9.39 -13.02 -9.27 -13.25 -8.86 -13.65 -15.92 -26.69 -15.43 -27.92zm921.79 638.24l-25.11 10.13 -24.9 10.26 -25.03 10.48 -24.89 10.37 -24.63 10.51 569.51 -89.86 26.78 -11.48 27.04 -11.31 27.2 -11.43 27.07 -11.19 27.28 -11.06 27.12 -10.55 -582.5 95.45 -24.96 9.68z"/>
   <path class="fil10" d="M3541.01 3485.9l-520.24 87.4 29.97 6.54 14.26 2.55 14.16 2.75 14.36 2.3 14.5 2.26 14.43 2.06 14.57 1.61 14.76 1.52 14.39 1.17 14.72 1.14 14.92 0.7 14.7 0.58 14.78 0.42 14.95 -0.12 14.91 -0.09 14.98 -0.3 15.08 -0.67 260.29 -40.63 -0 0 -0 0 -0.01 0 -260.28 40.62 14.94 -0.84 15.18 -1.19 15.07 -1.47 15.33 -1.64 15.23 -1.93 15.26 -2.13 149.37 -23.19 -0 0 -14.62 6 -24.72 9.96 -24.8 9.59 -24.77 9.19 -24.74 8.82 -24.89 8.16 -24.89 7.72 -25.04 7.05 -25.01 6.3 -25.06 5.37 -25.33 4.71 541.26 -80.06 27.55 -5.13 27.26 -5.85 27.19 -6.87 27.22 -7.69 27.06 -8.42 27.06 -8.91 26.9 -9.62 26.93 -10.03 26.96 -10.46 26.89 -10.86 26.82 -11.06 26.94 -11.27 27.06 -11.36 -400.83 63.24 -6.65 -0.2 -15.98 -0.65 -16.22 -0.79 -16.02 -1.26 -15.65 -1.3 -16.04 -1.68 -15.84 -1.79 -15.69 -2.26 -15.77 -2.48 -15.61 -2.53 -15.4 -3.02 -15.52 -2.81 -32.59 -7.19zm498.1 1707.15l23.63 3.46 608.57 65.02 -25.63 -3.76 -24.41 -7.49 -23.63 -10.68 -22.63 -13.47 -21.74 -16.11 -20.54 -18.77 -19.7 -20.64 -18.72 -22.57 -17.79 -24.03 -16.73 -25.4 -15.89 -26.24 -14.67 -27.23 -13.89 -27.63 -12.63 -27.63 -11.83 -27.67 -10.76 -27.17 -9.82 -26.79 -8.64 -25.54 -7.95 -24.42 -6.69 -22.97 -5.89 -21.17 -4.83 -19.19 -3.7 -16.65 -2.9 -14.41 -1.52 -11.31 -0.7 -8.1 0.31 -4.84 4.12 -6.3 8.64 -8.24 12.68 -9.18 16 -10.36 18.64 -11.4 20.93 -11.69 22.08 -11.83 22.95 -12.05 23.23 -12 22.63 -11.3 21.59 -10.56 20.06 -9.82 17.56 -8.44 14.48 -6.76 11.07 -5.32 6.92 -3.13 -4.46 -18.49 -6.35 -17.63 -7.8 -17.31 -9.5 -16.5 -11.06 -15.95 -12.33 -15.58 -13.78 -14.7 -15.05 -14.3 -16.12 -13.56 -17.33 -13.04 -18.22 -12.38 -19.24 -11.72 -19.73 -11.07 -20.74 -10.6 -21.2 -9.79 -21.78 -9.14 -21.92 -8.62 -22.57 -7.7 -22.77 -7.25 -23.02 -6.72 -22.75 -5.81 -22.93 -5.14 -22.71 -4.63 -572.13 14.89 20.91 4.24 21.11 4.69 20.95 5.32 21.2 6.14 20.98 6.62 20.79 7.05 20.19 7.88 20.07 8.36 19.53 8.95 19.11 9.69 18.18 10.13 17.73 10.72 16.79 11.33 15.98 11.92 14.86 12.4 13.88 13.08 12.71 13.45 11.37 14.25 10.2 14.59 8.77 15.1 7.2 15.83 5.87 16.12 4.12 16.91 -6.37 2.87 -10.2 4.87 -13.33 6.18 -16.17 7.72 -18.47 8.98 -19.88 9.65 -20.83 10.33 -21.38 10.98 -21.13 11.02 -20.32 10.81 -19.28 10.69 -17.15 10.42 -14.72 9.47 -11.67 8.4 -7.95 7.53 -3.78 5.76 -0.28 4.42 0.65 7.42 1.42 10.35 2.68 13.18 3.43 15.22 4.46 17.56 5.44 19.36 6.18 21.02 7.35 22.33 7.98 23.36 9.07 24.5 9.94 24.85 10.92 25.31 11.66 25.28 12.82 25.28 13.53 24.91 14.67 24.02 15.44 23.25 16.41 21.99 17.27 20.67 18.17 18.89 18.93 17.19 20.05 14.75 20.86 12.34 21.78 9.79 22.5 6.87z"/>
   <polygon class="fil3" points="4371.64,2596.36 3784.06,2759.39 3796.39,2759.43 4385.02,2596.43 "/>
   <polygon class="fil2" points="4371.64,2596.36 3784.06,2759.39 3796.39,2759.43 4385.02,2596.43 "/>
   <polygon class="fil3" points="4385.02,2596.43 3796.39,2759.43 3808.86,2759.8 4398.57,2596.86 "/>
   <polygon class="fil2" points="4385.02,2596.43 3796.39,2759.43 3808.86,2759.8 4398.57,2596.86 "/>
   <polygon class="fil3" points="4398.57,2596.86 3808.86,2759.8 3820.86,2760.33 4411.61,2597.46 "/>
   <polygon class="fil2" points="4398.57,2596.86 3808.86,2759.8 3820.86,2760.33 4411.61,2597.46 "/>
   <polygon class="fil3" points="4411.61,2597.46 3820.86,2760.33 3832.82,2761.3 4424.59,2598.56 "/>
   <polygon class="fil2" points="4411.61,2597.46 3820.86,2760.33 3832.82,2761.3 4424.59,2598.56 "/>
   <polygon class="fil3" points="4424.59,2598.56 3832.82,2761.3 3844.7,2762.07 4437.5,2599.43 "/>
   <polygon class="fil2" points="4424.59,2598.56 3832.82,2761.3 3844.7,2762.07 4437.5,2599.43 "/>
   <polygon class="fil3" points="4437.5,2599.43 3844.7,2762.07 3856.59,2763.26 4450.41,2600.75 "/>
   <polygon class="fil2" points="4437.5,2599.43 3844.7,2762.07 3856.59,2763.26 4450.41,2600.75 "/>
   <polygon class="fil3" points="4450.41,2600.75 3856.59,2763.26 3868.12,2764.44 4462.93,2602.07 "/>
   <polygon class="fil2" points="4450.41,2600.75 3856.59,2763.26 3868.12,2764.44 4462.93,2602.07 "/>
   <polygon class="fil3" points="4462.93,2602.07 3868.12,2764.44 3879.75,2765.9 4475.56,2603.69 "/>
   <polygon class="fil2" points="4462.93,2602.07 3868.12,2764.44 3879.75,2765.9 4475.56,2603.69 "/>
   <polygon class="fil3" points="4475.56,2603.69 3879.75,2765.9 3891.31,2767.22 4488.11,2605.15 "/>
   <polygon class="fil2" points="4475.56,2603.69 3879.75,2765.9 3891.31,2767.22 4488.11,2605.15 "/>
   <polygon class="fil3" points="4488.11,2605.15 3891.31,2767.22 3902.85,2768.55 4500.64,2606.63 "/>
   <polygon class="fil2" points="4488.11,2605.15 3891.31,2767.22 3902.85,2768.55 4500.64,2606.63 "/>
   <polygon class="fil3" points="4500.64,2606.63 3902.85,2768.55 3914.17,2770.2 4512.93,2608.46 "/>
   <polygon class="fil2" points="4500.64,2606.63 3902.85,2768.55 3914.17,2770.2 4512.93,2608.46 "/>
   <polygon class="fil3" points="4512.93,2608.46 3914.17,2770.2 3925.72,2771.87 4525.48,2610.31 "/>
   <polygon class="fil2" points="4512.93,2608.46 3914.17,2770.2 3925.72,2771.87 4525.48,2610.31 "/>
   <polygon class="fil3" points="4525.48,2610.31 3925.72,2771.87 3937.11,2773.26 4537.84,2611.85 "/>
   <polygon class="fil2" points="4525.48,2610.31 3925.72,2771.87 3937.11,2773.26 4537.84,2611.85 "/>
   <polygon class="fil3" points="4537.84,2611.85 3937.11,2773.26 3948.63,2774.98 4550.34,2613.76 "/>
   <polygon class="fil2" points="4537.84,2611.85 3937.11,2773.26 3948.63,2774.98 4550.34,2613.76 "/>
   <polygon class="fil3" points="4550.34,2613.76 3948.63,2774.98 3960.11,2776.49 4562.81,2615.45 "/>
   <polygon class="fil2" points="4550.34,2613.76 3948.63,2774.98 3960.11,2776.49 4562.81,2615.45 "/>
   <polygon class="fil3" points="4562.81,2615.45 3960.11,2776.49 3971.49,2777.89 4575.17,2616.99 "/>
   <polygon class="fil2" points="4562.81,2615.45 3960.11,2776.49 3971.49,2777.89 4575.17,2616.99 "/>
   <polygon class="fil3" points="4575.17,2616.99 3971.49,2777.89 3983.24,2779.33 4587.93,2618.59 "/>
   <polygon class="fil2" points="4575.17,2616.99 3971.49,2777.89 3983.24,2779.33 4587.93,2618.59 "/>
   <polygon class="fil3" points="4587.93,2618.59 3983.24,2779.33 3994.93,2780.58 4600.61,2619.98 "/>
   <polygon class="fil2" points="4587.93,2618.59 3983.24,2779.33 3994.93,2780.58 4600.61,2619.98 "/>
   <polygon class="fil3" points="4600.61,2619.98 3994.93,2780.58 4006.56,2781.64 4613.23,2621.16 "/>
   <polygon class="fil2" points="4600.61,2619.98 3994.93,2780.58 4006.56,2781.64 4613.23,2621.16 "/>
   <polygon class="fil3" points="4613.23,2621.16 4006.56,2781.64 4018.52,2782.75 4626.22,2622.41 "/>
   <polygon class="fil2" points="4613.23,2621.16 4006.56,2781.64 4018.52,2782.75 4626.22,2622.41 "/>
   <polygon class="fil3" points="4626.22,2622.41 4018.52,2782.75 4030.31,2783.78 4639.02,2623.55 "/>
   <polygon class="fil2" points="4626.22,2622.41 4018.52,2782.75 4030.31,2783.78 4639.02,2623.55 "/>
   <polygon class="fil3" points="4639.02,2623.55 4030.31,2783.78 4042.44,2784.44 4652.19,2624.3 "/>
   <polygon class="fil2" points="4639.02,2623.55 4030.31,2783.78 4042.44,2784.44 4652.19,2624.3 "/>
   <polygon class="fil3" points="4652.19,2624.3 4042.44,2784.44 4054.75,2784.99 4665.55,2624.94 "/>
   <polygon class="fil2" points="4652.19,2624.3 4042.44,2784.44 4054.75,2784.99 4665.55,2624.94 "/>
   <polygon class="fil3" points="4665.55,2624.94 4054.75,2784.99 4067.28,2785.28 4679.15,2625.28 "/>
   <polygon class="fil2" points="4665.55,2624.94 4054.75,2784.99 4067.28,2785.28 4679.15,2625.28 "/>
   <polygon class="fil3" points="4679.15,2625.28 4067.28,2785.28 4079.94,2785.34 4692.9,2625.37 "/>
   <polygon class="fil2" points="4679.15,2625.28 4067.28,2785.28 4079.94,2785.34 4692.9,2625.37 "/>
   <polygon class="fil3" points="4692.9,2625.37 4079.94,2785.34 4092.65,2785.17 4706.69,2625.2 "/>
   <polygon class="fil2" points="4692.9,2625.37 4079.94,2785.34 4092.65,2785.17 4706.69,2625.2 "/>
   <polygon class="fil3" points="4706.69,2625.2 4092.65,2785.17 4105.78,2784.78 4720.94,2624.81 "/>
   <polygon class="fil2" points="4706.69,2625.2 4092.65,2785.17 4105.78,2784.78 4720.94,2624.81 "/>
   <polygon class="fil3" points="4720.94,2624.81 4105.78,2784.78 4119,2784.03 4735.3,2624.01 "/>
   <polygon class="fil2" points="4720.94,2624.81 4105.78,2784.78 4119,2784.03 4735.3,2624.01 "/>
   <polygon class="fil3" points="4735.3,2624.01 4119,2784.03 4132.56,2782.89 4750,2622.8 "/>
   <polygon class="fil2" points="4735.3,2624.01 4119,2784.03 4132.56,2782.89 4750,2622.8 "/>
   <polygon class="fil3" points="4750,2622.8 4132.56,2782.89 4146.43,2781.62 4765.06,2621.44 "/>
   <polygon class="fil2" points="4750,2622.8 4132.56,2782.89 4146.43,2781.62 4765.06,2621.44 "/>
   <polygon class="fil3" points="4765.06,2621.44 4146.43,2781.62 4160.3,2779.94 4780.13,2619.64 "/>
   <polygon class="fil2" points="4765.06,2621.44 4146.43,2781.62 4160.3,2779.94 4780.13,2619.64 "/>
   <polygon class="fil3" points="4780.13,2619.64 4160.3,2779.94 4174.69,2777.67 4795.74,2617.17 "/>
   <polygon class="fil2" points="4780.13,2619.64 4160.3,2779.94 4174.69,2777.67 4795.74,2617.17 "/>
   <polygon class="fil3" points="4795.74,2617.17 4174.69,2777.67 4185.49,2775.72 4807.46,2615.07 "/>
   <polygon class="fil2" points="4795.74,2617.17 4174.69,2777.67 4185.49,2775.72 4807.46,2615.07 "/>
   <polygon class="fil3" points="4807.46,2615.07 4185.49,2775.72 4196.67,2773.43 4819.6,2612.59 "/>
   <polygon class="fil2" points="4807.46,2615.07 4185.49,2775.72 4196.67,2773.43 4819.6,2612.59 "/>
   <polygon class="fil3" points="4819.6,2612.59 4196.67,2773.43 4208.65,2770.39 4832.61,2609.28 "/>
   <polygon class="fil2" points="4819.6,2612.59 4196.67,2773.43 4208.65,2770.39 4832.61,2609.28 "/>
   <polygon class="fil3" points="5122.49,2109.55 4475.31,2312.82 4490.28,2308.41 5138.72,2104.78 "/>
   <polygon class="fil2" points="5122.49,2109.55 4475.31,2312.82 4490.28,2308.41 5138.72,2104.78 "/>
   <polygon class="fil3" points="5138.72,2104.78 4490.28,2308.41 4507.2,2305.61 5157.08,2101.75 "/>
   <polygon class="fil2" points="5138.72,2104.78 4490.28,2308.41 4507.2,2305.61 5157.08,2101.75 "/>
   <polygon class="fil3" points="5157.08,2101.75 4507.2,2305.61 4525.78,2304.11 5177.24,2100.16 "/>
   <polygon class="fil2" points="5157.08,2101.75 4507.2,2305.61 4525.78,2304.11 5177.24,2100.16 "/>
   <polygon class="fil3" points="5177.24,2100.16 4525.78,2304.11 4545.85,2303.98 5199,2100.08 "/>
   <polygon class="fil2" points="5177.24,2100.16 4525.78,2304.11 4545.85,2303.98 5199,2100.08 "/>
   <polygon class="fil3" points="5199,2100.08 4545.85,2303.98 4567,2304.65 5221.94,2100.85 "/>
   <polygon class="fil2" points="5199,2100.08 4545.85,2303.98 4567,2304.65 5221.94,2100.85 "/>
   <polygon class="fil1" points="5158.68,2129.24 4508.7,2330.75 4493.9,2336.76 5142.61,2135.77 "/>
   <polygon class="fil2" points="5158.68,2129.24 4508.7,2330.75 4493.9,2336.76 5142.61,2135.77 "/>
   <polygon class="fil1" points="5142.61,2135.77 4493.9,2336.76 4480.72,2344.42 5128.31,2144.11 "/>
   <polygon class="fil2" points="5142.61,2135.77 4493.9,2336.76 4480.72,2344.42 5128.31,2144.11 "/>
   <polygon class="fil1" points="5128.31,2144.11 4480.72,2344.42 4469.49,2354.03 5116.12,2154.59 "/>
   <polygon class="fil2" points="5128.31,2144.11 4480.72,2344.42 4469.49,2354.03 5116.12,2154.59 "/>
   <polygon class="fil11" points="5116.12,2154.59 4469.49,2354.03 4460.35,2365.48 5106.19,2167.09 "/>
   <polygon class="fil2" points="5116.12,2154.59 4469.49,2354.03 4460.35,2365.48 5106.19,2167.09 "/>
   <polygon class="fil3" points="5106.19,2167.09 4460.35,2365.48 4454.04,2379.25 5099.33,2182.13 "/>
   <polygon class="fil2" points="5106.19,2167.09 4460.35,2365.48 4454.04,2379.25 5099.33,2182.13 "/>
   <polygon class="fil3" points="5099.33,2182.13 4454.04,2379.25 4449.88,2394.99 5094.8,2199.33 "/>
   <polygon class="fil2" points="5099.33,2182.13 4454.04,2379.25 4449.88,2394.99 5094.8,2199.33 "/>
   <polygon class="fil3" points="5386.73,2118.25 4719.01,2320.19 4737.28,2321.55 5406.53,2119.79 "/>
   <polygon class="fil2" points="5386.73,2118.25 4719.01,2320.19 4737.28,2321.55 5406.53,2119.79 "/>
   <polygon class="fil3" points="5094.8,2199.33 4449.88,2394.99 4449,2412.85 5093.82,2218.86 "/>
   <polygon class="fil2" points="5094.8,2199.33 4449.88,2394.99 4449,2412.85 5093.82,2218.86 "/>
   <polygon class="fil3" points="5424.69,2120.27 4754.04,2321.95 4768.64,2321.67 5440.53,2119.99 "/>
   <polygon class="fil2" points="5424.69,2120.27 4754.04,2321.95 4768.64,2321.67 5440.53,2119.99 "/>
   <polygon class="fil3" points="5440.53,2119.99 4768.64,2321.67 4789.05,2319.62 5462.65,2117.81 "/>
   <polygon class="fil2" points="5440.53,2119.99 4768.64,2321.67 4789.05,2319.62 5462.65,2117.81 "/>
   <polygon class="fil3" points="5462.65,2117.81 4789.05,2319.62 4809.8,2316.69 5485.14,2114.67 "/>
   <polygon class="fil2" points="5462.65,2117.81 4789.05,2319.62 4809.8,2316.69 5485.14,2114.67 "/>
   <polygon class="fil3" points="5485.14,2114.67 4809.8,2316.69 4830.8,2312.73 5507.91,2110.39 "/>
   <polygon class="fil2" points="5485.14,2114.67 4809.8,2316.69 4830.8,2312.73 5507.91,2110.39 "/>
   <polygon class="fil3" points="5507.91,2110.39 4830.8,2312.73 4852.22,2308 5531.14,2105.28 "/>
   <polygon class="fil2" points="5507.91,2110.39 4830.8,2312.73 4852.22,2308 5531.14,2105.28 "/>
   <polygon class="fil3" points="5531.14,2105.28 4852.22,2308 4873.55,2302.36 5554.26,2099.17 "/>
   <polygon class="fil2" points="5531.14,2105.28 4852.22,2308 4873.55,2302.36 5554.26,2099.17 "/>
   <polygon class="fil3" points="5093.82,2218.86 4449,2412.85 4451.6,2433.24 5096.62,2241.16 "/>
   <polygon class="fil2" points="5093.82,2218.86 4449,2412.85 4451.6,2433.24 5096.62,2241.16 "/>
   <polygon class="fil1" points="6074.22,1736.59 5353.17,1969.3 5334.7,1979.01 6054.22,1747.13 "/>
   <polygon class="fil2" points="6074.22,1736.59 5353.17,1969.3 5334.7,1979.01 6054.22,1747.13 "/>
   <polygon class="fil1" points="6054.22,1747.13 5334.7,1979.01 5316.9,1988.98 6034.93,1757.98 "/>
   <polygon class="fil2" points="6054.22,1747.13 5334.7,1979.01 5316.9,1988.98 6034.93,1757.98 "/>
   <polygon class="fil1" points="6034.93,1757.98 5316.9,1988.98 5300.18,1999.02 6016.81,1768.9 "/>
   <polygon class="fil2" points="6034.93,1757.98 5316.9,1988.98 5300.18,1999.02 6016.81,1768.9 "/>
   <polygon class="fil1" points="6016.81,1768.9 5300.18,1999.02 5283.65,2009.13 5998.91,1779.89 "/>
   <polygon class="fil2" points="6016.81,1768.9 5300.18,1999.02 5283.65,2009.13 5998.91,1779.89 "/>
   <polygon class="fil1" points="5998.91,1779.89 5283.65,2009.13 5267.82,2019.1 5981.74,1790.75 "/>
   <polygon class="fil2" points="5998.91,1779.89 5283.65,2009.13 5267.82,2019.1 5981.74,1790.75 "/>
   <polygon class="fil1" points="5981.74,1790.75 5267.82,2019.1 5252.02,2029.28 5964.62,1801.8 "/>
   <polygon class="fil2" points="5981.74,1790.75 5267.82,2019.1 5252.02,2029.28 5964.62,1801.8 "/>
   <polygon class="fil1" points="5964.62,1801.8 5252.02,2029.28 5236.38,2039.37 5947.67,1812.79 "/>
   <polygon class="fil2" points="5964.62,1801.8 5252.02,2029.28 5236.38,2039.37 5947.67,1812.79 "/>
   <polygon class="fil1" points="5947.67,1812.79 5236.38,2039.37 5220.61,2049.54 5930.58,1823.86 "/>
   <polygon class="fil2" points="5947.67,1812.79 5236.38,2039.37 5220.61,2049.54 5930.58,1823.86 "/>
   <polygon class="fil1" points="5930.58,1823.86 5220.61,2049.54 5204.21,2059.59 5912.8,1834.79 "/>
   <polygon class="fil2" points="5930.58,1823.86 5220.61,2049.54 5204.21,2059.59 5912.8,1834.79 "/>
   <polygon class="fil1" points="5912.8,1834.79 5204.21,2059.59 5187.47,2069.3 5894.66,1845.35 "/>
   <polygon class="fil2" points="5912.8,1834.79 5204.21,2059.59 5187.47,2069.3 5894.66,1845.35 "/>
   <polygon class="fil1" points="5894.66,1845.35 5187.47,2069.3 5169.84,2078.99 5875.56,1855.89 "/>
   <polygon class="fil2" points="5894.66,1845.35 5187.47,2069.3 5169.84,2078.99 5875.56,1855.89 "/>
   <polygon class="fil1" points="5875.56,1855.89 5169.84,2078.99 5151.4,2088.48 5855.57,1866.21 "/>
   <polygon class="fil2" points="5875.56,1855.89 5169.84,2078.99 5151.4,2088.48 5855.57,1866.21 "/>
   <polygon class="fil1" points="5855.57,1866.21 5151.4,2088.48 5131.67,2097.64 5834.19,1876.15 "/>
   <polygon class="fil2" points="5855.57,1866.21 5151.4,2088.48 5131.67,2097.64 5834.19,1876.15 "/>
   <polygon class="fil1" points="5834.19,1876.15 5131.67,2097.64 5110.74,2106.84 5811.51,1886.15 "/>
   <polygon class="fil2" points="5834.19,1876.15 5131.67,2097.64 5110.74,2106.84 5811.51,1886.15 "/>
   <polygon class="fil1" points="5811.51,1886.15 5110.74,2106.84 5088.4,2115.33 5787.29,1895.35 "/>
   <polygon class="fil2" points="5811.51,1886.15 5110.74,2106.84 5088.4,2115.33 5787.29,1895.35 "/>
   <polygon class="fil1" points="5787.29,1895.35 5088.4,2115.33 5064.06,2123.8 5760.91,1904.55 "/>
   <polygon class="fil2" points="5787.29,1895.35 5088.4,2115.33 5064.06,2123.8 5760.91,1904.55 "/>
   <polygon class="fil1" points="4496.44,2056.39 3898.44,2265.63 3911.13,2259.32 4510.23,2049.52 "/>
   <polygon class="fil2" points="4496.44,2056.39 3898.44,2265.63 3911.13,2259.32 4510.23,2049.52 "/>
   <polygon class="fil1" points="4510.23,2049.52 3911.13,2259.32 3922.46,2251.75 4522.55,2041.28 "/>
   <polygon class="fil2" points="4510.23,2049.52 3911.13,2259.32 3922.46,2251.75 4522.55,2041.28 "/>
   <polygon class="fil12" points="4522.55,2041.28 3922.46,2251.75 3932.12,2242.86 4533.05,2031.57 "/>
   <polygon class="fil2" points="4522.55,2041.28 3922.46,2251.75 3932.12,2242.86 4533.05,2031.57 "/>
   <polygon class="fil13" points="4533.05,2031.57 3932.12,2242.86 3939.39,2233.17 4540.95,2020.98 "/>
   <polygon class="fil2" points="4533.05,2031.57 3932.12,2242.86 3939.39,2233.17 4540.95,2020.98 "/>
   <polygon class="fil3" points="4540.95,2020.98 3939.39,2233.17 3944.15,2222.88 4546.13,2009.74 "/>
   <polygon class="fil2" points="4540.95,2020.98 3939.39,2233.17 3944.15,2222.88 4546.13,2009.74 "/>
   <polygon class="fil3" points="4546.13,2009.74 3944.15,2222.88 3947.32,2207.11 4549.6,1992.5 "/>
   <polygon class="fil2" points="4546.13,2009.74 3944.15,2222.88 3947.32,2207.11 4549.6,1992.5 "/>
   <polygon class="fil3" points="4549.6,1992.5 3947.32,2207.11 3946.71,2193.05 4548.95,1977.11 "/>
   <polygon class="fil2" points="4549.6,1992.5 3947.32,2207.11 3946.71,2193.05 4548.95,1977.11 "/>
   <polygon class="fil3" points="4548.95,1977.11 3946.71,2193.05 3942.63,2180.7 4544.53,1963.59 "/>
   <polygon class="fil2" points="4548.95,1977.11 3946.71,2193.05 3942.63,2180.7 4544.53,1963.59 "/>
   <polygon class="fil14" points="-0,4955.41 22.59,4987.98 46.3,5014.69 71.76,5035.92 98.19,5051.93 125.87,5063.25 154.41,5070.02 412.01,5126.01 380.77,5118.58 350.48,5106.17 321.56,5088.62 293.7,5065.34 267.75,5036.03 243.03,5000.28 257.23,4993.72 271.37,4986.54 285.96,4979.35 300.13,4972.35 314.92,4965.11 329.83,4958.21 344.73,4951.32 359.74,4944.58 374.88,4938.22 390.26,4932.37 406.01,4926.81 421.63,4921.95 437.32,4917.74 453.3,4914.19 469.46,4911.43 484.03,4909.65 627.7,4929.62 638.55,4930.82 649.48,4931.35 660.79,4930.81 672.51,4929.26 684.69,4926.79 697.33,4922.89 710.88,4917.63 725.3,4910.94 740.2,4902.37 756.27,4892.11 773.2,4879.94 791.31,4865.57 810.58,4848.88 831.31,4830.11 853.05,4808.87 876.46,4784.99 901.16,4758.32 927.8,4728.65 938.97,4715.79 1260.6,4736.32 1245.53,4701.54 1231.2,4669.18 903.2,4654.01 904.29,4656.45 678.76,4645.86 651.43,4678.58 625.69,4708.16 601.34,4735.19 578.77,4759.49 557.37,4781.25 537.51,4800.59 518.56,4817.7 500.94,4832.9 484.4,4845.99 468.92,4857.07 454.23,4866.41 440.62,4874.22 427.44,4880.31 415.06,4885.11 403.51,4888.65 392.37,4890.89 392.35,4890.89 271.14,4874.29 259.67,4872.91 247.74,4872.18 235.04,4872.13 221.87,4872.74 206.8,4874.57 192.04,4877.08 177.44,4880.31 163.11,4884.13 148.84,4888.56 134.45,4893.62 120.41,4898.93 106.58,4904.72 92.87,4910.86 79.26,4917.13 65.65,4923.41 52.14,4930 39.2,4936.37 25.88,4942.91 12.96,4949.44 "/>
   <polygon class="fil1" points="4455.69,3338.09 3862.17,3437.31 3836.43,3444.56 4427.72,3346 "/>
   <polygon class="fil2" points="4455.69,3338.09 3862.17,3437.31 3836.43,3444.56 4427.72,3346 "/>
   <polygon class="fil1" points="4427.72,3346 3836.43,3444.56 3810.88,3452.27 4399.96,3354.4 "/>
   <polygon class="fil2" points="4427.72,3346 3836.43,3444.56 3810.88,3452.27 4399.96,3354.4 "/>
   <polygon class="fil1" points="4399.96,3354.4 3810.88,3452.27 3785.44,3460.66 4372.32,3363.55 "/>
   <polygon class="fil2" points="4399.96,3354.4 3810.88,3452.27 3785.44,3460.66 4372.32,3363.55 "/>
   <polygon class="fil1" points="4372.32,3363.55 3785.44,3460.66 3760.1,3469.78 4344.8,3373.49 "/>
   <polygon class="fil2" points="4372.32,3363.55 3785.44,3460.66 3760.1,3469.78 4344.8,3373.49 "/>
   <polygon class="fil1" points="4344.8,3373.49 3760.1,3469.78 3734.81,3479.05 4317.31,3383.59 "/>
   <polygon class="fil2" points="4344.8,3373.49 3760.1,3469.78 3734.81,3479.05 4317.31,3383.59 "/>
   <polygon class="fil15" points="1184.02,4568.43 1049.16,4565.81 1058.12,4547.81 1067.93,4525.34 1076.45,4503.02 1083.44,4480.54 1089.36,4457.76 1094.2,4434.99 1097.69,4412.21 1100.34,4388.99 1102.03,4365.58 1102.78,4342.15 1102.96,4318.3 1102.35,4294.23 1101.13,4269.79 1099.29,4244.95 1097.09,4219.88 1094.34,4194.42 1091.58,4168.54 1088.29,4142 1084.87,4115.12 1081.46,4087.8 1078.03,4060.04 1074.47,4031.44 1071.2,4002.57 1068.24,3972.86 1065.2,3942.56 1062.87,3911.46 1060.86,3880.04 1059.35,3847.75 1058.61,3826.22 1058.37,3803.83 1058.24,3780.75 1058.6,3757.25 1059.11,3733.24 1059.89,3708.22 1060.98,3683.06 1062.5,3657.31 1064.07,3631.3 1066.33,3604.76 1068.76,3578.16 1071.28,3551.32 1074.41,3524.35 1077.92,3497.26 1081.7,3470.24 1085.74,3443.34 1090.26,3416.43 1095.13,3390 1100.41,3363.38 1105.87,3337.13 1111.8,3311.5 1118.02,3285.99 1125.01,3261.21 1131.96,3236.85 1139.64,3213.04 1147.3,3189.83 1155.65,3167.46 1164.35,3145.99 1173.41,3125.21 1182.83,3105.33 1192.95,3086.44 1203.21,3068.37 1227.29,3029.94 1251.71,2992.85 1276.65,2957.31 1302.29,2922.94 1327.97,2890.07 1354.45,2858.14 1381.37,2827.54 1409.04,2798.31 1436.98,2770.03 1465.69,2743.17 1495.16,2717 1524.99,2692.2 1555.49,2668.37 1586.7,2645.76 1618.85,2623.81 1651.31,2603 1684.9,2582.95 1718.94,2563.99 1753.85,2545.52 1789.64,2528.13 1413.21,2701.74 1380.44,2717.67 1348.49,2734.56 1317.33,2751.91 1286.59,2770.24 1256.89,2789.26 1227.46,2809.33 1198.91,2829.98 1171,2851.75 1143.71,2874.41 1116.75,2898.3 1090.49,2922.83 1064.94,2948.65 1039.63,2975.31 1015.02,3003.24 990.81,3032.38 967.33,3062.37 943.88,3093.73 921.09,3126.15 898.77,3159.98 876.76,3195.02 867.39,3211.5 858.14,3228.74 849.53,3246.85 841.25,3265.8 833.3,3285.37 825.68,3305.77 818.68,3326.93 811.67,3348.63 805.33,3370.83 798.94,3393.42 793.27,3416.67 787.86,3440.03 782.89,3463.95 778.07,3488.2 773.62,3512.3 769.5,3536.82 765.82,3561.33 762.37,3585.96 759.18,3610.65 756.33,3635.22 754.04,3659.69 751.83,3683.93 749.78,3708.1 748.35,3731.81 746.98,3755.28 745.99,3778.2 745.29,3801 744.84,3822.88 744.52,3844.29 744.65,3865.33 744.89,3885.73 745.56,3905.34 746.97,3934.77 748.83,3963.41 750.96,3991.74 753.76,4019.35 756.48,4046.43 759.49,4072.74 762.76,4098.8 765.91,4124.09 769.05,4148.99 772.18,4173.49 775.2,4197.67 777.75,4221.27 780.28,4244.47 782.3,4267.31 783.99,4289.95 785.12,4312.22 785.69,4334.17 785.55,4355.91 784.87,4377.26 783.34,4398.6 780.93,4419.76 777.74,4440.53 773.32,4461.28 767.91,4482.04 761.54,4502.53 753.76,4522.87 744.79,4543.36 734.57,4563.84 722.78,4584.3 709.82,4604.84 694.96,4625.33 678.76,4645.86 985.87,4660.28 987.73,4657.92 1231.2,4669.18 1217.89,4639.55 1205.43,4612.68 1194.16,4588.92 "/>
   <path class="fil16" d="M243.03 5000.28l24.72 35.75 25.95 29.31 27.86 23.28 28.92 17.55 30.29 12.41 31.24 7.43 32.15 2.66 33.14 -1.9 33.89 -5.84 34.12 -9.68 34.94 -13.02 35.13 -16.34 35.09 -19.31 35.28 -21.57 35.27 -23.91 34.98 -25.92 34.76 -27.28 34.05 -28.71 33.72 -29.77 32.79 -30.21 32.24 -31.02 30.95 -30.8 29.91 -30.56 28.78 -30.21 27.5 -29.03 25.94 -28.05 24.13 -26.77 22.76 -24.85 20.64 -22.79 18.77 -20.21 16.61 -17.7 14.46 -14.8 10.14 20.5 11.27 23.76 12.46 26.87 13.31 29.63 14.33 32.36 15.07 34.78 15.91 36.71 16.26 38.8 17.08 40.59 17.35 42.1 17.89 43.37 17.96 44.34 18.43 45.35 18.3 46 18.26 46.44 18.34 46.61 18.15 46.61 17.87 46.53 17.54 45.81 17.08 45.33 16.52 44.55 16.01 43.45 15.42 42.06 14.44 40.56 13.75 38.98 12.65 37.12 11.77 34.8 10.48 32.44 9.35 29.98 7.98 27.47 6.86 24.23 5.2 20.96 4.28 19.07 3.84 18.66 3.25 18.3 3.19 18.09 2.59 17.8 2.43 17.38 1.97 17.41 1.74 16.94 1.48 16.77 1.07 16.83 0.8 16.26 0.7 16.56 0.22 15.93 0.02 16.02 -0.14 16.09 -0.29 15.78 -0.57 15.68 -0.81 15.59 -1.02 15.65 -1.07 15.52 -1.25 15.57 -1.65 15.76 -1.5 15.54 -1.54 15.46 -1.69 15.58 -2.08 15.76 -1.94 15.94 -2 15.92 -1.96 15.9 -2.07 16.2 -2.23 16.28 -2.19 16.45 -1.64 14.31 -1.57 14.89 -1.1 15.48 -1.01 16.07 -0.79 16.64 -0.45 17.28 -0.21 17.8 0.11 18.08 0.44 18.36 0.62 18.64 1.02 19.08 1.04 19.12 1.83 19.36 2.11 19.41 2.3 19.51 2.88 19.23 3.2 19.5 3.58 19.36 3.82 18.95 4.19 18.81 4.98 18.63 5.06 18.39 5.73 17.82 5.99 17.49 6.8 16.91 6.89 16.61 7.63 15.8 8.09 15.44 8.44 14.34 9.08 13.84 9.59 13 10.29 12.18 13.88 5.41 14.85 4.69 15.19 4.52 15.67 4.09 16.12 3.63 16.98 3.2 16.98 2.81 17.79 2.6 17.91 1.91 18.4 1.66 18.62 1.12 18.85 0.81 19.23 0.19 19.65 -0.21 19.52 -0.59 19.86 -1.18 19.88 -1.64 20.04 -2.09 20.18 -2.41 20.07 -2.94 20.06 -3.41 20.24 -4.07 20.01 -4.44 19.96 -5 20.07 -5.71 19.52 -5.84 19.57 -6.72 19.34 -7.23 19.17 -7.54 18.64 -8.18 18.6 -8.74 18.08 -9.33 39.28 -22.68 32.33 -22.17 25.57 -21.94 19.6 -21.76 14.22 -21.78 8.57 -21.95 4.02 -21.95 -0.66 -22.42 -4.96 -22.8 -8.26 -23.46 -11.72 -24.06 -14.64 -24.74 -17.04 -25.83 -18.98 -26.61 -21.06 -27.91 -22.27 -29.2 -22.78 -30.7 -23.76 -31.88 -23.62 -33.45 -23.37 -35.23 -22.47 -37 -21.71 -39.07 -20.02 -40.99 -18.01 -43.22 -15.77 -45.4 -12.98 -47.78 -10.07 -50.32 -6.35 -52.95 -2.56 -55.61 2.02 -58.31 6.48 -61.27 11.83 -64.23 3.7 -16.71 3.83 -16.1 4.22 -16.09 4.04 -15.96 4.32 -15.96 4.38 -15.74 4.46 -15.58 4.73 -15.48 4.8 -15.74 4.82 -15.31 4.89 -15.55 4.96 -15.39 5.24 -15.72 4.98 -15.44 5.25 -15.71 5.24 -15.72 5.26 -15.76 5.24 -16.13 5.34 -16 5.47 -16.25 5.26 -16.59 5.48 -16.63 5.3 -17.02 5.47 -17.06 5.29 -17.45 5.34 -17.86 5.11 -17.95 5.24 -18.49 5.09 -18.8 5.22 -19.05 4.99 -19.56 5.09 -19.85 14.16 -6.53 15.37 -6.67 16.51 -6.97 16.99 -7.25 17.97 -7.48 18.51 -7.73 19.2 -8.06 19.81 -8.15 20.19 -8.11 20.52 -8.3 20.85 -8.6 21.32 -8.44 21.31 -8.87 21.57 -8.8 21.38 -8.67 21.43 -8.93 21.32 -8.83 20.98 -8.96 21.1 -8.78 20.48 -9.05 20.15 -8.56 19.77 -8.72 19.16 -8.71 18.4 -8.5 17.77 -8.44 17.17 -8.39 16.03 -8 15.34 -8.15 14.32 -7.61 13.25 -7.58 12.13 -7.39 11.09 -7.17 13.52 -9.33 13.52 -9.76 13.7 -9.85 13.7 -9.84 13.53 -10.19 13.39 -10.5 13.45 -10.35 13.54 -10.57 13.29 -10.69 13.48 -10.78 13.37 -10.91 13.46 -10.77 13.17 -10.82 13.39 -10.93 13.35 -10.9 13.3 -11.11 13.18 -10.83 13.41 -10.74 13.18 -10.82 13.44 -10.74 13.3 -10.44 13.24 -10.66 13.24 -10.22 13.39 -10.3 13.27 -10.05 13.54 -9.93 13.18 -9.81 13.38 -9.24 13.42 -9.25 13.48 -9.1 13.49 -8.67 13.44 -8.65 3.8 4.23 5.65 7.07 7.74 9.83 8.93 12.39 10.81 14.83 12.07 17.12 13.3 18.99 14.35 20.76 15.5 22.52 16.35 23.92 17.15 25.22 17.76 26.15 18.24 26.71 18.52 27.85 18.87 28.26 18.82 28.45 19.01 28.58 19.03 28.51 18.69 28.27 18.21 27.62 17.52 27.14 17.17 26.24 16.29 25.19 15.63 23.84 14.47 22.59 13.26 21.22 12.24 19.06 10.66 17.35 9.28 15.1 7.84 12.91 5.79 10.17 4.06 7.75 12.61 25.82 11.42 26.43 10.24 26.15 9.53 26.29 8.63 26.24 7.64 26.39 6.9 26.45 6.32 26.59 5.62 26.45 5.07 26.56 4.46 26.63 4.31 26.69 3.52 26.83 3.56 26.86 3.18 26.99 3.03 27.1 2.8 26.98 2.92 27.34 2.89 27.16 2.89 27.3 3.04 27.5 3.39 27.47 3.54 27.67 3.92 27.62 4.23 27.88 4.79 27.83 5.31 27.95 6.02 28.19 6.49 28.2 7.27 28.23 8.15 28.35 8.94 28.59 31.84 -0.93 29.87 -0.23 28.45 -0.13 27.01 0.38 26.07 0.65 24.58 0.53 23.37 0.7 22.38 0.34 21.74 0.28 20.77 -0.04 20.35 -0.45 19.66 -1.18 19.06 -1.45 18.75 -2.56 18.54 -3.49 18.44 -4.23 18.31 -5.39 18.34 -6.66 18.6 -7.96 18.96 -9.39 19.15 -10.74 19.64 -12.39 20.3 -14.11 20.85 -16.01 21.86 -17.96 22.74 -20.02 23.46 -22 24.79 -24.46 25.94 -26.89 27.19 -29.13 28.68 -31.67 30.02 -34.51 -2.7 -8.02 -3.96 -9.86 -5.17 -11.68 -6.32 -13.35 -7.57 -14.78 -8.39 -16.2 -9.56 -17.43 -10.25 -18.98 -11.25 -19.93 -11.76 -21.04 -12.74 -21.86 -12.92 -22.77 -13.67 -23.44 -14.11 -24.02 -14.26 -24.38 -14.54 -25.1 -14.91 -25.3 -15.11 -25.46 -14.83 -25.62 -15.14 -25.42 -14.77 -25.49 -14.69 -25.3 -14.45 -24.78 -14.07 -24.41 -13.71 -24 -13.19 -23.24 -12.67 -22.65 -11.93 -21.81 -11.42 -20.67 -10.38 -19.72 -9.54 -18.26 -8.66 -17.3 -11.61 -23.83 -11.52 -24.13 -11.7 -24.05 -11.35 -24.24 -11.04 -24.39 -11.01 -24.41 -10.91 -24.61 -10.81 -24.76 -10.75 -24.77 -10.46 -24.91 -10.43 -24.94 -10.36 -25.22 -10.17 -25.26 -9.95 -25.2 -9.89 -25.47 -9.83 -25.45 -9.65 -25.43 -9.51 -25.63 -9.37 -25.76 -9.36 -25.72 -9.01 -25.95 -9.22 -25.81 -8.68 -26.13 -8.63 -25.92 -8.85 -26.01 -8.31 -26.14 -8.26 -26.13 -8.19 -26.35 -8.18 -26.24 -7.78 -26.37 -7.71 -26.23 -7.79 -26.39 17.47 -1.87 18.19 -1.04 19.23 -0.64 20.22 0.31 20.51 0.96 21.46 1.72 21.82 2.64 22.24 2.99 22.49 3.71 22.71 4.63 22.93 5.14 22.75 5.81 23.02 6.72 22.77 7.25 22.57 7.7 21.92 8.62 21.78 9.14 21.2 9.79 20.74 10.6 19.73 11.07 19.24 11.72 18.22 12.38 17.33 13.04 16.12 13.56 15.05 14.3 13.78 14.7 12.33 15.58 11.06 15.95 9.5 16.5 7.8 17.31 6.35 17.63 4.46 18.49 -6.92 3.13 -11.07 5.32 -14.48 6.76 -17.56 8.44 -20.06 9.82 -21.59 10.56 -22.63 11.3 -23.23 12 -22.95 12.05 -22.08 11.83 -20.93 11.69 -18.64 11.4 -16 10.36 -12.68 9.18 -8.64 8.24 -4.12 6.3 -0.31 4.84 0.7 8.1 1.52 11.31 2.9 14.41 3.7 16.65 4.83 19.19 5.89 21.17 6.69 22.97 7.95 24.42 8.64 25.54 9.82 26.79 10.76 27.17 11.83 27.67 12.63 27.63 13.89 27.63 14.67 27.23 15.89 26.24 16.73 25.4 17.79 24.03 18.72 22.57 19.7 20.64 20.54 18.77 21.74 16.11 22.63 13.47 23.63 10.68 24.41 7.49 25.63 3.76 26.32 0.38 27.49 -3.83 28.48 -8 29.21 -12.64 30.42 -17.74 27.67 -19.8 26.17 -22.73 24.54 -25.41 23.27 -27.82 21.85 -30.14 20.28 -32.24 18.98 -33.83 17.59 -35.61 16.13 -37.07 15.12 -38.44 13.48 -39.43 12.16 -40.19 11.02 -40.89 9.8 -41.31 8.24 -41.76 7.43 -41.78 6.03 -41.72 4.99 -41.39 3.43 -40.87 2.67 -40.29 1.29 -39.2 0.4 -38.21 -0.88 -36.96 -1.86 -35.46 -3.09 -33.72 -3.88 -31.86 -5.16 -29.86 -6.04 -27.62 -6.93 -25.17 -8.14 -22.36 -8.9 -19.53 -9.94 -16.44 -9.74 -12.2 -11.22 -11.13 -13.18 -10.43 -14.39 -9.63 -15.76 -8.99 -16.94 -8.43 -18.07 -7.89 -19.09 -7.84 -19.63 -7.35 -20.83 -7.21 -21.44 -7.17 -21.67 -7.25 -22.33 -7.32 -22.39 -7.54 -22.74 -7.8 -22.57 -8.31 -22.58 -8.69 -22.46 -9.37 -22.12 -9.96 -21.59 -10.66 -21 -11.96 -20.42 -12.44 -19.53 -13.67 -18.53 -15.04 -17.56 -16.09 -16.33 -17.46 -15.18 -18.92 -13.82 -20.51 -12.12 -22.03 -10.41 -23.78 -8.77 -25.65 -6.65 -27.68 -2.51 -12.15 -1.85 -12.11 -1.9 -12.21 -1.5 -12.26 -1.17 -12.37 -1.02 -12.44 -1.03 -12.49 -0.82 -12.54 -0.39 -12.56 -0.43 -12.96 -0.42 -12.54 -0.09 -12.7 -0.3 -12.79 -0.16 -12.85 -0.24 -13.05 -0.18 -12.89 -0.23 -13.02 -0.05 -13.13 -0.5 -13.13 -0.21 -13.07 -0.5 -13.13 -0.65 -13.05 -0.73 -13.25 -1.14 -13.25 -1.12 -13.22 -1.29 -13.19 -1.53 -13.25 -1.81 -13.36 -2.17 -13.38 -2.55 -13.22 -2.62 -13.37 -3.11 -13.19 -27.96 7.9 -27.76 8.4 -27.64 9.15 -27.53 9.94 -27.48 10.11 -27.12 10.55 -27.28 11.06 -27.07 11.19 -27.2 11.43 -27.04 11.31 -26.78 11.48 -27.06 11.36 -26.94 11.27 -26.82 11.06 -26.89 10.86 -26.96 10.46 -26.93 10.03 -26.9 9.62 -27.06 8.91 -27.06 8.42 -27.22 7.69 -27.19 6.87 -27.26 5.85 -27.55 5.13 -27.56 3.89 -27.74 2.93 -27.63 1.88 -28.12 0.39 -28.22 -0.81 -28.46 -2.13 -28.38 -3.89 -28.97 -5.06 -20.88 -5.07 -20.86 -5.93 -20.46 -6.94 -20.4 -7.63 -19.79 -8.5 -19.82 -9.59 -19.29 -10.22 -19.33 -10.85 -18.92 -11.65 -18.99 -12.3 -18.61 -12.88 -18.61 -13.3 -18.44 -13.83 -18.15 -14.59 -18.22 -14.76 -18 -15.07 -18.02 -15.74 -17.89 -15.81 -17.96 -15.98 -17.73 -16.29 -17.79 -16.51 -17.88 -16.67 -17.81 -16.53 -17.81 -16.92 -17.9 -16.7 -17.91 -16.75 -17.98 -16.44 -18.31 -16.56 -18.13 -16.26 -18.21 -15.99 -18.6 -15.83 -18.54 -15.68 -15.17 -11.94 -17.03 -13.22 -18.13 -13.78 -19.19 -14.81 -19.89 -15.3 -20.24 -16.17 -20.17 -16.94 -20 -17.37 -19.32 -18.36 -18.49 -18.76 -17.1 -19.39 -15.62 -19.83 -13.63 -20.57 -11.54 -21.12 -9.02 -21.6 -6.24 -21.85 -9.89 -51.78 -8.36 -48.87 -6.92 -45.59 -5.64 -42.8 -4.49 -39.72 -3.69 -36.94 -2.57 -34.08 -2.54 -31.54 -1.84 -28.72 -1.72 -26.47 -1.86 -23.46 -1.84 -21.54 -2.46 -19.18 -3.07 -16.8 -3.83 -14.75 -4.61 -12.73 -6.2 -10.52 -7.04 -8.69 -8.99 -6.97 -10.65 -4.96 -12.52 -3.51 -14.78 -1.88 -17.23 -0.35 -19.59 1.08 -22.29 2.57 -25.13 3.78 -28.42 5 -31.69 6.26 -35.37 7.06 -38.93 8.2 -42.78 9.08 -46.99 9.87 -46.7 10.11 -45.52 10.46 -44.45 11.05 -43.74 11.35 -42.41 12.02 -41.73 12.58 -40.91 13.24 -40.06 13.74 -38.71 14.4 -38.34 15.31 -37.25 15.89 -36.46 16.38 -35.79 17.39 -34.91 18.46 -34.04 18.96 -33.59 20.04 -32.46 20.81 -32.15 21.95 -31.21 22.61 -30.5 23.82 -29.83 24.8 -29.47 26.17 -28.7 26.86 -27.94 28.29 -27.68 29.22 -26.92 30.6 -26.48 31.94 -25.68 32.86 -25.64 34.37 -24.93 35.54 -24.43 37.1 -24.08 38.43 -10.26 18.07 -10.12 18.89 -9.43 19.87 -9.06 20.78 -8.7 21.46 -8.34 22.38 -7.67 23.21 -7.68 23.81 -6.95 24.36 -6.99 24.78 -6.22 25.52 -5.93 25.63 -5.46 26.25 -5.28 26.62 -4.88 26.43 -4.52 26.91 -4.04 26.9 -3.78 27.02 -3.51 27.1 -3.13 26.96 -2.52 26.84 -2.43 26.6 -2.26 26.53 -1.57 26.02 -1.52 25.74 -1.09 25.17 -0.78 25.02 -0.51 24.01 -0.36 23.5 0.13 23.07 0.24 22.39 0.73 21.54 1.52 32.28 2.01 31.43 2.33 31.09 3.04 30.31 2.96 29.7 3.26 28.88 3.56 28.59 3.43 27.76 3.41 27.32 3.42 26.88 3.3 26.54 2.76 25.89 2.75 25.46 2.2 25.07 1.83 24.84 1.22 24.44 0.61 24.07 -0.18 23.85 -0.75 23.43 -1.69 23.41 -2.65 23.22 -3.49 22.78 -4.85 22.77 -5.92 22.78 -6.98 22.48 -8.52 22.32 -9.81 22.47 -11.19 22.47 -12.91 22.44 -14.18 22.55 -16.26 22.48 -17.72 22.53 -29.9 35.91 -28.17 32.46 -26.65 29.67 -24.7 26.67 -23.41 23.88 -21.74 21.24 -20.74 18.77 -19.27 16.69 -18.1 14.37 -16.94 12.17 -16.07 10.26 -14.9 8.57 -14.42 6.69 -13.56 5.26 -12.64 3.9 -12.18 2.46 -11.72 1.56 -11.31 0.54 -10.93 -0.53 -10.85 -1.2 -10.49 -1.56 -10.61 -2.16 -10.59 -2.59 -10.76 -2.54 -10.87 -2.67 -11.05 -2.64 -11.47 -2.15 -11.98 -2.21 -12.56 -1.51 -13.06 -0.79 -13.9 -0.06 -14.4 0.68 -16.5 2.02 -16.15 2.76 -15.98 3.55 -15.69 4.21 -15.63 4.87 -15.75 5.56 -15.38 5.84 -15.14 6.36 -15 6.74 -14.91 6.89 -14.91 6.9 -14.8 7.24 -14.17 7 -14.59 7.19 -14.14 7.18 -14.2 6.56zm2341.66 83.19l5.84 13.74 6.01 13.71 5.94 13.45 6.2 13.61 6.17 13.15 6.24 13.16 6.38 13.09 6.14 12.95 6.44 12.81 6.38 13.07 6.2 12.68 6.29 12.88 6.15 12.98 6.02 12.8 5.94 13.04 5.94 13.03 5.87 12.87 5.58 13.2 5.43 13.26 5.24 13.35 5.05 13.44 4.91 13.56 4.7 14.03 4.41 13.92 3.94 14.21 3.82 14.45 3.54 14.77 3.11 14.79 2.93 15.29 2.61 15.41 2.11 15.87 1.7 16.32 1.26 22.34 -0.15 22.98 -1.56 23.69 -2.55 24.18 -3.54 24.83 -4.52 25.12 -4.83 25.28 -5.46 25.34 -5.69 25.68 -5.72 25.71 -5.65 25.43 -5.18 25.45 -4.99 24.92 -4.22 24.8 -3.19 24.24 -2.33 23.83 -1.2 22.9 0.21 22.4 1.65 21.32 3.48 20.57 5.31 19.53 7.37 18.48 9.77 17.12 12 16.03 14.91 14.36 17.5 13.15 20.3 11.34 23.67 9.87 26.82 7.95 30.43 6.13 34.06 4.33 37.96 2.27 10.59 0 11.43 -0.41 12.17 -0.76 12.87 -1.06 13.44 -1.64 13.99 -1.85 14.57 -2.33 14.71 -2.63 15.15 -2.87 15.55 -3.42 15.65 -3.72 15.9 -4.08 16.25 -4.2 16.02 -4.71 15.99 -4.74 16.12 -5.38 15.68 -5.4 15.52 -5.74 15.37 -6.06 15.09 -6.16 14.78 -6.42 14.28 -6.57 13.44 -6.99 13.29 -6.89 12.61 -7.45 11.75 -7.4 11.11 -7.46 10.3 -7.92 9.23 -7.83 8.54 -8.09 7.42 -8.22 6.3 -8.24 0.84 -11.14 -0.64 -12.07 -1.8 -12.78 -2.94 -13.46 -4 -14.36 -4.81 -14.82 -5.8 -15.57 -6.53 -16.26 -7.32 -17.1 -7.81 -17.25 -8.37 -18.07 -8.8 -18.91 -9.09 -19.15 -9.25 -19.51 -9.76 -20.12 -9.79 -20.68 -9.77 -21.17 -9.52 -21.44 -9.52 -21.93 -9.24 -22.25 -8.93 -22.61 -8.48 -22.83 -8 -23.31 -7.45 -23.34 -6.54 -23.78 -5.98 -23.88 -5.13 -23.87 -4.1 -24.37 -3.08 -24.49 -2.07 -24.5 -0.85 -24.7 0.49 -24.51 1.19 -20.09 1.31 -19.53 1.84 -19.17 2 -18.82 2.31 -18.55 2.23 -17.89 2.72 -18.13 2.81 -17.55 2.77 -17.52 2.89 -17.35 2.95 -17.24 2.86 -17.33 2.84 -16.95 2.96 -17.2 2.77 -17.1 2.54 -17.23 2.49 -17.2 2.04 -17.8 2.2 -17.45 1.72 -18.08 1.48 -18.14 1.16 -18.43 0.89 -18.91 0.43 -19.12 -0.04 -19.52 -0.63 -20.05 -0.87 -20.56 -1.46 -20.94 -2.16 -21.61 -2.61 -22.06 -3.22 -23.01 -3.98 -23.28 -19.25 8.95 -19.18 9.54 -18.66 9.91 -18.48 10.21 -18.16 10.52 -17.88 10.78 -17.7 11.07 -17.44 11.25 -17.41 11.35 -17.13 11.47 -17.08 11.69 -16.73 11.47 -16.72 11.48 -16.65 11.68 -16.78 11.5 -16.4 11.33 -20.32 13.43 -20.33 13 -20.04 11.82 -19.93 11.57 -19.98 10.97 -20.12 10.38 -20.23 10.04 -20.48 9.5 -20.37 9.3 -20.78 9.02 -21.04 8.75 -21.42 8.51 -21.69 8.45 -22.22 8.21 -22.79 8.34 -23.28 8.76zm680.92 -4711.5l-10.19 -16.76 -10.88 -16.89 -10.96 -17.07 -11.4 -17.12 -11.54 -17.02 -11.75 -16.99 -12.32 -16.94 -12.62 -16.57 -12.74 -16.4 -13.34 -15.91 -13.46 -15.62 -13.66 -15.16 -14.11 -14.3 -14.48 -13.76 -14.71 -13.23 -14.91 -12.34 -15.17 -11.55 -15.54 -10.39 -16.01 -9.56 -16.13 -8.46 -16.44 -7.2 -16.74 -6.07 -17.02 -4.7 -17.22 -3.35 -17.67 -1.86 -17.87 -0.51 -17.95 1.21 -18.51 2.91 -18.63 4.52 -19.11 6.31 -19.07 8.29 -19.44 10.3 8.8 12.91 10.02 13.8 11.23 14.17 12.01 15.09 12.9 15.14 13.41 15.35 13.99 15.3 14.17 15.22 14.31 15.13 14.28 14.53 14.39 13.83 13.79 13.01 13.52 12.3 12.93 11.05 12.28 10 11.15 8.39 17.15 12.23 16.52 10.7 15.81 9.59 15.2 8.15 15.13 7.11 14.89 6.09 15.04 5.05 15.24 4.06 15.69 3.22 16.27 2.15 17.15 1.38 18.05 0.7 19.26 0.04 20.97 -0.74 22.23 -1.05 23.8 -1.72zm2925.16 1492.71l-27.44 14.39 -26.7 14.27 -26.04 14.57 -25.62 14.57 -25.17 14.36 -24.64 14.36 -24.63 14.3 -24.24 13.94 -23.94 13.8 -24.07 13.5 -24.06 13.07 -24.07 12.66 -24.24 12.32 -24.53 11.67 -24.83 11.38 -25.07 10.48 -25.62 10.12 -26.24 9.2 -26.73 8.39 -27.44 7.89 -28.06 6.77 -28.89 5.92 -30.11 4.81 -30.91 4.01 -31.8 2.91 -33.11 1.73 -34.42 0.45 -35.49 -0.47 -36.96 -2.1 -38.44 -3.04 -39.91 -4.66 -41.72 -6.06 -20.54 -2.7 -20.41 -1.35 -20.18 0.03 -19.62 1.37 -18.75 3.02 -17.43 4.67 -16.07 6.53 -14.3 8.34 -12.19 10.48 -9.93 12.5 -6.86 15.04 -4.53 17.21 -0.98 19.53 2.8 22.3 6.35 24.94 10.5 27.75 8 15.36 9.84 13.71 11.15 12.08 12.79 10.34 14.12 8.88 15.59 7.17 16.44 5.51 17.74 4.35 18.68 2.88 19.59 1.86 20.4 0.39 21.21 -0.35 21.62 -1.75 22.28 -2.48 22.85 -3.37 22.82 -4.37 23.36 -5 23.41 -5.67 23.62 -6.57 23.53 -6.76 23.37 -7.49 23.1 -7.78 22.74 -8 22.57 -8.33 21.86 -8.66 21.39 -8.82 20.83 -8.8 19.67 -8.63 19.18 -8.83 18.2 -8.37 17.07 -8.28 15.91 -8.11 15.68 -8.24 16.18 -8.46 16.29 -9.12 16.6 -9.27 16.86 -9.57 16.85 -9.98 16.87 -10.42 17.06 -10.48 17.2 -10.93 17.1 -11.11 16.99 -11.48 16.99 -11.47 16.95 -11.83 16.52 -12.04 16.46 -12.26 16.4 -12.18 15.87 -12.58 15.67 -12.67 15.41 -12.74 14.59 -12.76 14.52 -12.97 13.89 -13.05 13.59 -12.91 12.91 -13.01 12.3 -13.15 11.75 -13.08 10.93 -13.11 10.45 -12.9 9.59 -13.1 8.7 -12.88 7.98 -12.77 7.19 -12.79zm-2771.22 -969.81l24.49 -6.58 23.86 -6.6 23.37 -6.77 22.74 -6.31 22.11 -6.67 21.39 -6.55 20.93 -6.54 20.3 -6.7 19.57 -6.81 19.23 -7.1 18.4 -7.17 17.55 -7.62 17.33 -7.71 16.47 -8.2 16.15 -8.5 15.13 -8.87 14.93 -9.41 14.09 -9.89 13.52 -10.24 12.78 -11.01 12.17 -11.37 11.83 -12.22 10.84 -12.65 10.43 -13.57 9.74 -14.22 8.96 -14.99 8.47 -15.79 8.04 -16.69 7.26 -17.55 6.59 -18.56 5.84 -19.46 5.45 -20.36 -24.74 0.2 -23.24 -0.02 -22.43 -0.13 -21.39 0.04 -20.76 0.57 -20.01 0.87 -19.63 1.76 -19.55 3.01 -18.89 3.93 -19.15 5.34 -19.07 7.42 -19.52 8.8 -19.65 11.22 -20.15 13.54 -20.73 15.87 -21.57 18.78 -14.09 13.39 -13.78 13.98 -13.42 14.4 -12.96 15.07 -12.47 15.24 -11.87 15.61 -11.12 15.97 -10.37 16.26 -9.8 16.22 -8.72 16.81 -7.84 16.43 -6.93 16.67 -5.73 16.58 -4.63 16.3 -3.51 16.48 -2.22 16.07zm-445.97 -66.58l13.82 7.78 14.04 6.43 14.18 5.3 14.22 4.02 14.56 2.81 14.37 1.57 14.38 0.56 14.58 -0.35 14.51 -1.44 14.48 -2.43 14.43 -3.48 14.29 -4.3 14.15 -5.04 14.2 -5.94 14.04 -6.7 13.69 -7.4 13.7 -7.99 13.34 -8.71 13.08 -9.27 13.07 -9.83 12.61 -10.32 12.25 -10.73 11.99 -11.3 11.84 -11.67 11.08 -11.91 10.74 -12.25 10.61 -12.57 9.92 -12.67 9.4 -12.91 9.18 -13.02 8.48 -13.13 8.06 -13.16 63.43 -134.83 0.49 -1.27 0.45 -1.26 0.57 -1.5 0.65 -1.34 0.61 -1.51 0.55 -1.54 0.73 -1.57 0.61 -1.51 -26.44 3.99 -23.79 3.46 -21.4 3.31 -19.81 3.25 -18.05 3.51 -16.67 3.78 -15.79 4.46 -15.06 5.21 -14.68 6.11 -14.3 7.39 -14.89 8.46 -15.29 10.38 -16.25 12.05 -17.25 13.97 -18.73 16.26 -20.65 18.57 -9.07 8.54 -10.81 10.34 -12.11 11.97 -13.16 13.49 -13.9 14.19 -14.55 15.14 -14.77 15.88 -14.75 16.06 -14.21 15.84 -14.06 15.77 -12.83 15.24 -11.88 14.6 -10.48 13.6 -8.55 12.15 -6.81 10.58 -4.42 8.87zm-383.74 -106.88l11.2 7.31 12.22 6.24 12.25 4.96 12.79 4.29 13.02 2.93 13.49 2.04 13.7 1.13 14.01 -0.04 14.27 -0.82 14.42 -1.92 14.56 -2.65 14.62 -3.74 14.79 -4.41 14.94 -5.39 15.12 -6.05 15.03 -7.07 14.98 -7.69 14.93 -8.73 14.89 -9.35 14.7 -10.14 14.63 -10.74 14.37 -11.43 14.35 -12.3 14.14 -12.85 13.84 -13.54 13.32 -14.18 13.15 -14.56 13 -15.3 12.32 -16.02 12.2 -16.27 11.44 -16.94 11.24 -17.5 0.72 -1.18 0.89 -1.2 0.69 -1.36 0.72 -1.18 0.67 -1.3 0.91 -1.26 0.55 -1.06 0.72 -1.18 11.61 -20.83 -19.58 0.77 -18.79 -0.25 -17.81 -0.82 -17.09 -1.17 -16.95 -1.24 -16.38 -1.3 -16.41 -0.8 -16.31 -0.26 -16.54 0.7 -16.97 1.72 -17.5 3.25 -18.13 4.78 -18.99 7.03 -20.32 8.86 -21.44 11.48 -22.71 14.4 -12.65 8.74 -12.69 9.69 -12.63 10.69 -12.57 11.34 -12.52 11.91 -12.04 12.57 -11.88 12.95 -11.55 13.2 -10.87 13.34 -10.35 13.62 -9.33 13.51 -8.85 13.12 -7.81 13.17 -7.23 12.61 -5.96 12.14 -4.59 11.54zm1182.3 -262.39l-20.04 -0.15 -20.08 -0.57 -19.7 -1.18 -19.63 -1.44 -19.09 -1.61 -19.29 -2.04 -18.99 -2.31 -18.82 -2.41 -18.76 -2.64 -18.85 -2.84 -18.69 -2.46 -18.69 -2.94 -18.56 -2.54 -18.61 -2.73 -18.55 -2.58 -19 -2.17 -18.79 -2.05 -19.01 -1.71 -19 -1.56 -19.52 -0.94 -19.38 -0.51 -19.76 -0.4 -19.94 0.52 -20.02 0.81 -20.55 1.61 -20.89 2.18 -21.07 2.87 -21.45 3.74 -21.93 4.3 -22.28 5.27 -22.75 6.15 -23.12 7.16 13.79 1.74 15.29 0.43 16.58 -0.35 18.08 -1.21 19.39 -1.53 20.42 -1.96 21.76 -2.14 22.66 -1.93 23.74 -1.91 24.74 -1.36 25.59 -0.83 26.46 -0.15 27.04 1.04 27.76 1.98 28.39 3.42 28.92 4.63 5.11 8.93 2.85 0.89 0.82 -3.73 -0.74 -5.98 -1.81 -5.09 -2.85 -1.34 -3.21 5.37 -3.42 14.77 -3.23 11.87 -3.86 4.83 -3.89 0 -3.13 -2.91 -1.34 -3.6 1.26 -2.24 4.6 1.6 8.87 7.16 11.04 -2.43 11.52 -2.22 12.12 -1.87 12.63 -1.63 13.36 -1.32 13.43 -0.74 13.99 -0.78 14.24 -0.25 14.57 0.1 14.81 0.09 14.91 0.52 15.2 0.62 15.19 1 15.19 1.06 15.12 1.46 15.21 1.6 15.02 1.75 14.78 2.03 14.91 1.93 14.25 2.26 14.3 2.41 13.7 2.5 13.39 2.61 12.83 2.85 12.5 2.99 12 2.79 11.19 3.31 10.65 2.98 10.15 3.31 9.14 3.21 8.69 3.13 7.6 3.42 265.74 27.89 20.1 47.12 21.26 41.39 22.18 35.57 23.07 30.17 23.81 25.39 24.9 20.36 25.63 16.07 26.31 12.01 27.22 8.02 27.92 4.63 28.63 1.57 29.25 -1.59 29.93 -4.11 30.52 -6.52 31.15 -8.72 31.69 -10.13 32.25 -11.61 32.76 -12.7 33.11 -13.7 33.51 -14.04 34.13 -14.35 34.38 -14.21 34.75 -13.82 35.26 -13.35 35.22 -12.11 35.82 -10.94 35.84 -9.5 36.2 -7.62 36.14 -5.36 36.45 -3.15 36.52 -0.18 36.57 2.89 13.39 1.76 13.59 2.69 13.52 3.09 13.59 3.69 13.52 4.38 13.31 5.02 13.38 5.45 13.45 6.22 13.1 6.81 13.16 7.32 12.8 7.95 12.62 8.42 12.48 9.06 12.1 9.48 11.86 10.35 11.65 10.89 11.08 11.31 10.89 11.8 10.69 12.32 10.04 13.04 9.74 13.72 9.06 14.04 8.8 14.77 8.15 15.06 7.76 15.62 7.07 16.31 6.67 16.73 5.77 17.33 5.31 17.71 4.65 18.41 3.83 18.78 3.24 19.26 3.65 32.76 0.99 32.52 -0.93 32.12 -3.25 32.19 -5.17 31.37 -7.19 30.84 -8.8 30.11 -10.57 29.3 -12.15 28.34 -13.41 27.31 -14.96 25.94 -16.01 24.8 -17.27 23.28 -18.18 21.69 -18.95 19.93 -19.8 18.32 -16.43 13.73 -16.39 12.47 -16.28 11.39 -15.97 10.26 -16.17 9.32 -15.66 8.26 -15.54 7.16 -15.63 6.41 -15.38 5.26 -15.45 4.66 -14.87 3.63 -15.18 2.92 -14.94 2.15 -14.87 1.37 -14.95 0.74 -14.69 0.01 -14.48 -0.5 -14.87 -1.33 -14.45 -1.75 -14.58 -2.06 -14.29 -2.7 -14.53 -3.37 -14.38 -3.4 -14.3 -4.09 -14.37 -4.3 -14.23 -4.51 -14.29 -4.95 -14.26 -4.93 -14.37 -5.12 -14.24 -5.8 -14.39 -5.3 -14.25 -5.8 -11.3 -4.43 -11.44 -4.37 -11.94 -4.59 -12.41 -4.74 -12.84 -4.79 -12.95 -4.98 -13.45 -4.91 -13.61 -4.64 -13.93 -4.94 -14.15 -5.07 -14.35 -4.95 -14.3 -5.01 -14.74 -4.96 -14.71 -4.85 -15.12 -4.85 -14.88 -4.75 -15.11 -4.87 -14.8 -4.57 -15.15 -4.44 -14.9 -4.32 -14.93 -4.35 -14.81 -4.17 -14.91 -3.75 -14.59 -4.08 -14.57 -3.49 -14.15 -3.44 -14.17 -3.04 -13.87 -3.19 -13.6 -2.65 -13.17 -2.45 -13.17 -2.03 -12.57 -2.12 -38.43 -4.95 -37.75 -3.85 -36.79 -2.39 -36.33 -1.37 -35.22 -0.03 -34.79 1 -33.94 2.11 -33.34 3.48 -32.7 4.67 -32.26 5.66 -31.39 6.81 -30.73 7.94 -30.46 9.04 -29.78 10.24 -29.17 11.19 -28.97 12.17 -28.29 13.28 -27.92 14.24 -27.53 15.24 -27.19 16.39 -26.85 17.31 -26.52 18.15 -26.18 19.31 -25.77 20.36 -25.71 20.99 -25.3 22.04 -25.14 22.83 -25.17 23.9 -24.81 24.58 -24.64 25.56 -24.69 26.41 -24.47 27.37 -21.82 25.02 -19.8 23.63 -17.94 22.19 -16.41 20.9 -14.51 19.68 -13.27 18.27 -11.9 17.21 -10.52 16.01 -9.58 14.95 -8.59 13.85 -7.6 12.82 -7.17 12.01 -6.33 10.98 -5.88 10.15 -5.41 9.36 -5.39 8.45 -5.2 7.98 -5.3 7.2 -5.31 6.78 -5.7 5.89 -6.1 5.41 -6.51 5 -7.27 4.73 -8.1 4.23 -8.87 3.94 -10.02 3.63 -11.02 3.21 -12.51 3.26 -13.61 3.08 -15.29 3.05 -16.81 2.85 -18.72 2.85 -49.73 9.06 -45.85 11.33 -42.71 13.93 -39.28 15.94 -36.09 18.17 -32.84 19.84 -29.67 21.88 -26.78 23.67 -23.84 25.18 -21.15 26.5 -18.48 27.87 -15.78 29.14 -13.27 30.19 -10.86 31.21 -8.68 31.97 -6.25 32.72 -4.09 33.3 -2.04 33.6 -0.45 33.93 1.83 34.22 3.26 34.22 5.17 34.14 6.52 33.98 8.12 33.69 9.15 33.15 10.71 32.93 11.78 31.95 12.91 31.27 13.74 30.2 14.69 29.15 15.43 27.92 15.92 26.69 8.86 13.65 9.27 13.25 9.39 13.02 9.65 12.63 10.1 12.21 10.26 12.17 10.26 11.74 10.8 11.47 10.63 11.55 11.18 10.88 11.11 10.89 11.33 10.83 11.43 10.5 11.35 10.38 11.72 10.38 11.81 9.98 11.62 10 11.91 9.87 11.95 9.85 11.94 9.85 11.93 9.84 11.86 9.69 11.93 9.83 11.82 9.69 11.91 9.83 11.65 9.71 11.76 9.91 11.52 10 11.42 10.05 11.39 10.1 11.1 10.38 10.93 10.44 26.82 25.59 25.19 23.72 23.87 22.26 23 20.79 22.29 19.15 21.98 17.62 21.7 16.55 21.83 14.96 22.24 13.91 22.92 12.79 23.81 11.51 25.07 10.67 26.58 9.81 28.16 8.84 30.32 8.02 32.59 7.19 15.52 2.81 15.4 3.02 15.61 2.53 15.77 2.48 15.69 2.26 15.84 1.79 16.04 1.68 15.65 1.3 16.02 1.26 16.22 0.79 15.98 0.65 16.07 0.48 16.26 -0.11 16.21 -0.07 16.29 -0.31 16.39 -0.72 16.24 -0.9 16.5 -1.28 16.38 -1.59 16.67 -1.78 16.56 -2.1 16.58 -2.32 16.67 -2.78 16.72 -3 16.8 -3.26 16.82 -3.7 17.01 -3.76 16.72 -4.28 16.95 -4.39 17.08 -4.82 17.06 -5.04 16.92 -5.62 32.9 -11.57 31.96 -12.83 30.93 -14.15 29.93 -15.41 29.28 -16.31 28.1 -17.61 27.47 -18.52 26.35 -19.66 25.28 -20.66 24.29 -21.57 23.55 -22.27 22.28 -23.16 21.36 -23.93 20.35 -24.89 19.27 -25.35 18.12 -25.69 16.92 -26.57 16.15 -27.02 14.87 -27.46 13.84 -28 12.5 -28.41 11.5 -28.74 10.39 -28.89 9.17 -29.13 7.72 -29.48 6.79 -29.42 5.43 -29.65 4.23 -29.71 2.98 -29.76 1.84 -29.63 0.43 -29.6 -0.89 -29.44 -23.75 -3.73 -21.69 -2.57 -19.9 -1.8 -18.56 -1.35 -17.22 -1.15 -16.1 -1.28 -15.34 -1.41 -14.65 -2.1 -14.35 -3.33 -14.02 -4.3 -14.26 -5.85 -14.48 -7.81 -15.09 -9.98 -15.79 -12.18 -16.8 -14.84 -17.88 -17.8 13.38 0.07 13.55 0.43 13.04 0.61 12.98 1.09 12.91 0.87 12.9 1.31 12.53 1.32 12.62 1.62 12.55 1.46 12.53 1.48 12.3 1.82 12.55 1.85 12.36 1.55 12.5 1.9 12.47 1.69 12.35 1.54 12.76 1.59 12.68 1.39 12.62 1.18 12.99 1.24 12.8 1.15 13.17 0.74 13.36 0.65 13.6 0.34 13.75 0.09 13.79 -0.17 14.25 -0.4 14.36 -0.8 14.7 -1.22 15.06 -1.36 15.06 -1.8 15.61 -2.46 11.73 -2.11 12.13 -2.48 13.01 -3.3 13.15 -3.79 13.85 -4.11 14.02 -4.62 14.63 -5.07 14.61 -5.5 15.05 -5.88 15.09 -6.35 15.15 -6.53 15.55 -6.96 15.26 -7.21 15.35 -7.48 15.18 -7.78 14.94 -7.87 14.77 -8.26 14.65 -8.13 14.37 -8.68 14.01 -8.67 13.48 -8.89 13.12 -8.87 12.44 -9.01 12 -8.98 11.5 -8.98 10.8 -9.03 10.08 -8.93 9.17 -9.13 8.35 -8.75 7.64 -9.03 6.41 -8.66 5.9 -8.45 -9.45 -4.04 -9.25 -3.94 -9.17 -3.37 -8.87 -3.46 -8.78 -3.37 -8.57 -3.83 -8.2 -3.78 -8.23 -4.41 -7.83 -4.81 -7.46 -5.81 -7.22 -6.54 -7.05 -7.64 -6.49 -8.69 -6.28 -10 -5.99 -11.59 -5.59 -13.02 -4.68 -13.24 -3.63 -13.52 -2.87 -13.23 -1.93 -13.28 -0.87 -13.09 -0.14 -12.85 0.87 -12.29 1.55 -12.2 2.38 -11.55 3.35 -10.73 4.09 -10.48 4.89 -9.4 5.7 -8.93 6.4 -7.82 7.19 -6.81 7.85 -5.83 13.65 -6.59 16.23 -4.77 18.36 -3.03 20.16 -1.59 21.76 -0.08 22.93 0.78 23.87 1.64 24.27 2.2 24.35 2.78 24.24 3.07 23.49 2.72 22.85 2.65 21.72 2.32 19.8 1.54 18.17 0.48 15.84 -0.28 22.12 -2.18 22.49 -3.14 22.77 -4.28 23.22 -5.11 23.12 -6.11 23.52 -7.13 23.45 -7.65 23.45 -8.91 23.68 -9.4 23.57 -10.01 23.42 -10.89 23.15 -11.43 23.03 -12.13 22.57 -12.61 22.66 -13.02 22.15 -13.57 21.63 -13.95 21.39 -14.47 20.67 -14.71 20.19 -14.95 19.72 -15.1 18.93 -15.54 18.28 -15.7 17.49 -15.71 16.77 -15.96 15.65 -15.88 15.07 -15.78 14.04 -15.99 13.02 -15.67 11.98 -15.76 10.83 -15.33 9.63 -15.33 -20 10.55 -19.29 10.85 -18.12 10.92 -17.91 10.99 -17.16 10.85 -17.13 11.06 -16.94 10.99 -17.09 11.07 -17.78 10.93 -18.14 10.56 -19.1 10.54 -19.99 10.32 -21.38 9.94 -22.69 10 -24.22 9.2 -26.37 9.2 2.1 -31.06 1.9 -27.32 1.8 -23.96 1.99 -21.08 2.24 -18.7 2.7 -16.69 3.27 -15.33 3.89 -14.39 4.73 -13.74 5.7 -13.76 6.67 -14.25 8.07 -15.06 9.36 -16.64 10.98 -18.21 12.56 -20.55 14.5 -23.45 9.33 -15.63 9.74 -16.2 9.74 -16.64 9.6 -16.95 9.84 -17.67 9.48 -17.69 9.5 -18.11 9.15 -18.36 9.01 -18.31 8.67 -18.56 8.4 -18.44 7.89 -18.61 7.24 -18.33 6.85 -18.28 6.37 -18.12 5.55 -17.76 13.06 -50.18 9.24 -49.52 5.31 -48.28 1.81 -47.4 -1.53 -46.64 -4.72 -45.48 -7.93 -44.24 -10.83 -43.39 -13.42 -42.24 -16.06 -41.09 -18.45 -39.81 -20.78 -38.44 -22.8 -37.33 -24.59 -36.02 -26.55 -34.53 -27.86 -33.18 -29.55 -31.87 -30.55 -30.2 -31.55 -28.78 -32.63 -27.16 -33.44 -25.35 -33.79 -24.24 -34.33 -22.2 -34.35 -20.38 -34.64 -18.61 -34.3 -16.96 -34.21 -15.21 -33.52 -13.05 -33.06 -10.95 -32.12 -9.2 -31.3 -7.13 -29.86 -5.06 -28.55 -3.35 -27.89 -2.25 -26.93 -1.26 -26.33 -0.25 -25.73 0.71 -24.96 1.62 -24.76 2.55 -23.86 3.36 -23.65 3.92 -23.24 4.94 -22.81 5.41 -22.61 5.92 -22.1 6.74 -22.15 7.17 -21.98 7.52 -21.79 7.99 -21.55 8.57 -21.77 8.63 -21.54 9.19 -21.96 9.15 -21.81 9.5 -22.24 9.49 -22.33 9.72 -22.53 9.8 -23.04 9.6 -23.13 9.87 -23.87 9.55 -24.19 9.3 -24.52 9.44 -25.28 8.72 -26.12 8.65 -26.45 8.38 -14.59 -1.3 -12.89 -3.93 -11.24 -6.14 -10.29 -7.59 -9.5 -9.14 -9.67 -10.34 -9.95 -10.65 -10.63 -11.17 -11.95 -11.04 -13.53 -10.54 -15.8 -9.6 -18.45 -8.43 -21.49 -6.92 -24.98 -4.8 -29.1 -2.61 -33.48 0.33 -10.35 0.3 -7.68 0.4 -5.86 0.48 -5.1 0.74 -4.91 1.25 -5.5 1.76 -6.7 2.72 -8.93 4.04 -8.27 3.81 -4.94 2.14 -2.56 1.48 -1.24 0.97 -1.19 0.95 -1.5 1.69 -3.7 2.63 -6.63 4.32 -4.41 2.95 -0.57 1.49 1.34 0.72 1.62 0.54 -0.13 0.66 -3.35 2.08 -8.34 4.05 -15.49 6.26 -6.43 -19.74 -4.19 -18.64 -2.06 -17.5 -0.79 -16.78 0.32 -16.19 0.39 -16.02 0.68 -15.76 -0.28 -15.74 -1.29 -16.17 -2.93 -16.69 -5.36 -17.52 -7.77 -18.59 -11.2 -19.41 -14.96 -21.16 -19.22 -22.66 -23.87 -24.44 -11.11 -10.3 -11.62 -10.09 -12.3 -9.75 -13.09 -9.28 -13.45 -8.67 -14.15 -8.41 -14.56 -7.37 -15.06 -6.74 -15.76 -5.61 -16.1 -4.85 -16.78 -3.53 -17.05 -2.36 -17.45 -0.93 -18.14 0.4 -18.2 2.09 -18.77 3.61 12.46 23.66 11.36 22.59 10.89 21.96 10.37 21.15 9.63 20.43 9.21 19.48 8.48 19.23 8.54 17.92 7.81 17.2 7.5 16.43 7.58 15.62 7.37 14.82 7.21 13.85 7.34 13.18 7.25 12.15 7.38 11.47 7.68 10.73 7.76 9.57 8.09 8.87 8.73 7.95 8.71 7.1 9.39 6.22 10.01 5.3 10.59 4.41 11.05 3.61 11.99 2.32 12.89 1.75 13.43 0.63 14.75 -0.04 15.43 -1.26 16.47 -2.11 17.87 -3.15 31.24 73.5 -14.02 1.68 -15.1 1.16 -15.81 0.35 -16.52 -0.34 -17.02 -0.56 -17.72 -1.12 -17.68 -1.54 -17.99 -1.83 -17.93 -2.09 -17.91 -2.05 -17.5 -2.47 -16.97 -2.28 -16.18 -2.21 -15.81 -2.16 -14.94 -2.17 -13.56 -1.85 -25.17 -3.6 -22.81 -4.82 -20.98 -5.62 -18.81 -6.74 -17 -7.35 -15.39 -8.22 -13.79 -9.18 -12.39 -9.78 -10.9 -10.61 -9.89 -11.05 -8.83 -11.94 -7.8 -12.39 -6.96 -12.76 -6.66 -13.51 -5.57 -13.75 -5.59 -14.41 -5.04 -14.84 -5.06 -15.03 -4.99 -15.29 -5.15 -15.67 -5.23 -15.83 -5.87 -15.94 -6.06 -16.29 -7 -16.15 -7.7 -16.46 -8.33 -16.4 -9.55 -16.31 -10.59 -16.51 -12 -16.33 -13.43 -15.99 -14.72 -16.01 -16.67 -15.81 -12.5 -10.92 -12.81 -10.11 -13.33 -9.52 -13.68 -8.93 -14.15 -8.1 -14.65 -7.24 -15.22 -6.21 -15.73 -5.53 -16.21 -4.31 -16.78 -3.2 -17.51 -2.08 -18.3 -0.9 -18.67 0.53 -19.48 1.5 -20.18 3.28 -21.05 4.67 26.87 49.43 25.75 44.6 24.74 39.85 23.38 35.39 22.63 31.26 21.37 27.33 20.47 23.68 19.77 20.42 18.67 17.49 17.8 14.48 17.17 12.24 16.09 9.7 15.35 7.53 14.8 6.25 13.98 4.3 13.29 3.33 12.67 2.35 12.04 1.75 11.52 1.16 11.02 0.94 10.33 1.24 10 1.37 9.52 2.21 9.09 3.02 8.79 4.24 8.5 5.56 7.85 7.33 7.88 9.21 7.42 11.5 7.41 13.78 7.2 16.62 6.8 19.48zm581.54 1512l4.76 23.95 7.69 20.11 10.2 16.51 12.09 12.97 13.81 9.48 14.96 6.67 15.82 3.84 16.06 1.21 16.32 -0.93 15.93 -3.28 15.1 -5.16 13.79 -6.87 12.31 -8.24 10.5 -9.7 7.9 -10.59 5.18 -11.24 3.47 -17.24 -0.65 -15.39 -4.43 -13.51 -7.64 -11.62 -10.52 -9.91 -12.88 -7.84 -14.58 -5.83 -16.07 -4.1 -17.37 -1.92 -17.69 0.11 -18.13 2.37 -17.58 4.61 -16.77 6.93 -15.68 9.08 -14.19 11.6 -11.74 13.94z"/>
  </g>
 </g>
</svg>
