<?xml version="1.0" encoding="UTF-8"?>
<!DOCTYPE svg PUBLIC "-//W3C//DTD SVG 1.1//EN" "http://www.w3.org/Graphics/SVG/1.1/DTD/svg11.dtd">
<!-- Creator: CorelDRAW 2019 (64-Bit) -->
<svg xmlns="http://www.w3.org/2000/svg" xml:space="preserve" width="3.32298in" height="5.32333in" version="1.1" style="shape-rendering:geometricPrecision; text-rendering:geometricPrecision; image-rendering:optimizeQuality; fill-rule:evenodd; clip-rule:evenodd"
viewBox="0 0 3322.98 5323.33"
 xmlns:xlink="http://www.w3.org/1999/xlink"
 xmlns:xodm="http://www.corel.com/coreldraw/odm/2003">
 <defs>
  <style type="text/css">
   <![CDATA[
    .fil2 {fill:#8198EE;fill-opacity:0.768627}
    .fil0 {fill:#C0CCF6;fill-opacity:0.768627}
    .fil1 {fill:#FEFEFF;fill-opacity:0.768627}
   ]]>
  </style>
 </defs>
 <g id="Layer_x0020_1">
  <metadata id="CorelCorpID_0Corel-Layer"/>
  <g id="_2580899367328">
   <path class="fil0" d="M1661.61 1966.11c140.2,57.69 274.54,123.98 414.75,184.85 138.59,60.17 276.15,122 413.4,184.26 87.74,39.79 806.82,364.88 832.56,367.74l-827.5 -1352.47c-141.49,-225.86 -274.73,-451.22 -415.03,-675.47l-388.22 -632.77c-10.85,-18.63 -13.58,-28.9 -32.74,-41.97l2.79 1965.83z"/>
   <path class="fil1" d="M2.15 2703.05c40.76,-8.72 345.3,-152.38 415.33,-182.05 138.68,-58.78 278.98,-123.01 413.53,-184.38l830.59 -370.51 -2.79 -1965.83 -6.25 -0.28c-2.33,17.13 1.08,4.19 -6.21,19.85l-195.42 318.46c-67.87,111.3 -137.55,223.45 -205.57,336.46 -138.25,229.66 -273.28,448.04 -415.06,675.39l-828.16 1352.89z"/>
   <path class="fil2" d="M1661.57 3676.26c35.02,-11.46 1340.97,-776.64 1470.21,-851.19l158.58 -91.68c29.59,-15.98 31.7,-13.17 32.54,-27.02 0.09,-1.47 0.26,-2.61 -0.57,-3.4 -25.74,-2.86 -744.82,-327.95 -832.56,-367.74 -137.25,-62.25 -274.81,-124.08 -413.4,-184.26 -140.21,-60.87 -274.55,-127.17 -414.75,-184.85l-0.04 1710.14z"/>
   <path class="fil0" d="M2.15 2703.05c-11.17,14.31 23.8,25.61 45.64,38.59 22.53,13.39 44.67,25.18 66.39,37.95 61.04,35.86 364.07,207.52 376.43,223.58 34.04,9.51 119.74,64.05 155.18,85.26l1015.79 587.82 0.04 -1710.14 -830.59 370.51c-134.55,61.37 -274.85,125.6 -413.53,184.38 -70.04,29.67 -374.58,173.33 -415.33,182.05z"/>
   <path class="fil0" d="M1661.91 3986.76l-2.78 1336.57c12.35,-8.89 1.83,2.01 17.36,-14.74l1230.36 -1701.23c138.83,-189 279.02,-384.18 414.42,-574.13 -26,0.68 -367.37,206.57 -418.87,236.17l-1033.04 599.37c-63.65,37.89 -143.38,87.5 -207.44,117.99z"/>
   <path class="fil1" d="M1659.13 5323.33l2.78 -1336.57c-31.09,-13.12 -68.91,-39.64 -104.2,-59.63 -175.7,-99.56 -1521.34,-893.39 -1553.24,-894.04 134.24,188.96 274.77,383.12 411.19,570.37 140.12,192.35 273.86,381.63 414.3,571.93 139.26,188.69 272.42,384.78 413.57,572.91 142.24,189.61 274.97,387.72 415.61,575.04z"/>
  </g>
 </g>
</svg>
