<?xml version="1.0" encoding="UTF-8"?>
<!DOCTYPE svg PUBLIC "-//W3C//DTD SVG 1.1//EN" "http://www.w3.org/Graphics/SVG/1.1/DTD/svg11.dtd">
<!-- Creator: CorelDRAW 2019 (64-Bit) -->
<svg xmlns="http://www.w3.org/2000/svg" xml:space="preserve" width="2.70186in" height="2.70186in" version="1.1" style="shape-rendering:geometricPrecision; text-rendering:geometricPrecision; image-rendering:optimizeQuality; fill-rule:evenodd; clip-rule:evenodd"
viewBox="0 0 2701.86 2701.86"
 xmlns:xlink="http://www.w3.org/1999/xlink"
 xmlns:xodm="http://www.corel.com/coreldraw/odm/2003">
 <defs>
  <style type="text/css">
   <![CDATA[
    .fil3 {fill:#8198EE}
    .fil1 {fill:#C0CCF6}
    .fil2 {fill:#FEFEFF}
    .fil0 {fill:url(#id0)}
   ]]>
  </style>
  <linearGradient id="id0" gradientUnits="userSpaceOnUse" x1="1269.22" y1="-2.7" x2="1283.21" y2="2701.86">
   <stop offset="0" style="stop-opacity:1; stop-color:#617DE8"/>
   <stop offset="1" style="stop-opacity:1; stop-color:#96ABFF"/>
  </linearGradient>
 </defs>
 <g id="Layer_x0020_1">
  <metadata id="CorelCorpID_0Corel-Layer"/>
  <g id="_2580343373488">
   <path class="fil0" d="M-0 1309.93l0 111.08c4.06,9.64 12.89,118.22 16.81,142.41 7.46,45.99 16.77,89.88 28.06,133 41.96,160.3 112.96,304.71 203.54,435.12 32.91,47.37 86.44,110.96 125.94,153.79 7.6,8.24 14.34,12.45 22.05,20.14 19.67,19.59 11.15,14.64 39.9,39.28 57.07,48.91 68.65,60.57 132.43,107.65 67.64,49.92 128.41,80.38 203.13,118.84 232.2,119.51 496.57,124.54 511.36,130.63l135.43 0c26.15,-10.77 359.37,-0.57 697.22,-237.67 79.98,-56.14 88.28,-66.64 152.62,-121.82 26.43,-22.67 24.61,-25.36 38.39,-38.13 8.23,-7.63 13.33,-10.82 20.69,-18.84l72.42 -83.31c107.63,-132.09 191,-288.59 242.73,-456.42 38.38,-124.49 31.95,-144.92 52.42,-257.54 1.19,-18.88 0.54,-54.63 6.73,-69.5l0 -133.03c-5.89,-14.73 -5.88,-61.85 -8.19,-82.39 -19.15,-170.05 -66.47,-325.79 -144.45,-475.26 -66.23,-126.94 -130.12,-210.87 -220.39,-310.09 -7.72,-8.48 -81.33,-81 -91.88,-83.93 -9.8,-14.8 -64.35,-55.42 -79.39,-66.67 -175.23,-131.12 -387.81,-219.85 -607.78,-252.57 -22.63,-3.37 -118.09,-10.2 -128.77,-14.69l-137.84 0c-20.29,8.31 -264.82,6.35 -516.57,133.24 -174.13,87.76 -215,124.36 -338.84,231.21 -24.02,20.72 -59.6,61.94 -79.45,81.52 -78.37,77.35 -179.54,240.62 -225.41,341.78 -52.54,115.88 -92.12,245.22 -109.81,375.79l-13.09 146.39zm2023.1 182.04c-51.43,72.15 -104.68,146.28 -157.41,218.07l-467.33 646.18c-5.9,6.36 -1.91,2.22 -6.59,5.59 -53.42,-71.15 -103.83,-146.39 -157.86,-218.41 -53.61,-71.46 -104.19,-145.94 -157.09,-217.61 -53.34,-72.28 -104.14,-144.18 -157.36,-217.24 -51.81,-71.12 -105.19,-144.87 -156.18,-216.64 12.12,0.25 523.23,301.77 589.97,339.58 13.41,7.59 27.77,17.67 39.58,22.65 24.33,-11.57 54.62,-30.42 78.8,-44.81l392.38 -227.66c19.56,-11.24 149.22,-89.44 159.1,-89.7zm-1075.17 -11.42c-4.69,-6.1 -119.79,-71.3 -142.98,-84.93 -8.25,-4.85 -16.66,-9.33 -25.22,-14.41 -8.3,-4.93 -21.58,-9.22 -17.33,-14.66l314.56 -513.87c53.85,-86.35 105.14,-169.3 157.65,-256.54 25.84,-42.93 52.3,-85.52 78.08,-127.8l74.22 -120.96c2.77,-5.95 1.47,-1.03 2.36,-7.54l2.37 0.11c7.28,4.96 8.31,8.87 12.44,15.94l147.46 240.34c53.29,85.18 103.9,170.78 157.64,256.57l314.31 513.71c0.31,0.3 0.25,0.74 0.22,1.29 -0.32,5.26 -1.12,4.2 -12.36,10.26l-60.23 34.82c-49.09,28.32 -545.13,318.95 -558.43,323.31l-385.83 -223.27c-13.46,-8.06 -46.02,-28.77 -58.94,-32.38z"/>
   <path class="fil1" d="M1392.71 1086.63c53.25,21.91 104.28,47.09 157.54,70.22 52.64,22.85 104.89,46.34 157.02,69.98 33.33,15.11 306.45,138.59 316.23,139.68l-314.31 -513.71c-53.74,-85.79 -104.35,-171.39 -157.64,-256.57l-147.46 -240.34c-4.13,-7.07 -5.16,-10.98 -12.44,-15.94l1.06 746.68z"/>
   <path class="fil2" d="M762.4 1366.55c15.48,-3.31 131.15,-57.88 157.76,-69.15 52.67,-22.33 105.97,-46.72 157.07,-70.03l315.48 -140.73 -1.06 -746.68 -2.37 -0.11c-0.89,6.51 0.41,1.59 -2.36,7.54l-74.22 120.96c-25.78,42.27 -52.24,84.87 -78.08,127.8 -52.51,87.23 -103.8,170.18 -157.65,256.54l-314.56 513.87z"/>
   <path class="fil3" d="M1392.69 1736.2c13.3,-4.35 509.34,-294.99 558.43,-323.31l60.23 -34.82c11.24,-6.07 12.04,-5 12.36,-10.26 0.04,-0.56 0.1,-0.99 -0.22,-1.29 -9.78,-1.08 -282.91,-124.56 -316.23,-139.68 -52.13,-23.65 -104.38,-47.13 -157.02,-69.98 -53.26,-23.12 -104.28,-48.3 -157.54,-70.22l-0.02 649.56z"/>
   <path class="fil1" d="M762.4 1366.55c-4.24,5.44 9.04,9.72 17.33,14.66 8.56,5.09 16.96,9.56 25.22,14.41 23.19,13.62 138.28,78.82 142.98,84.93 12.93,3.61 45.48,24.33 58.94,32.38l385.83 223.27 0.02 -649.56 -315.48 140.73c-51.1,23.31 -104.4,47.7 -157.07,70.03 -26.6,11.27 -142.28,65.83 -157.76,69.15z"/>
   <path class="fil1" d="M1392.82 1854.14l-1.06 507.67c4.69,-3.37 0.7,0.76 6.59,-5.59l467.33 -646.18c52.73,-71.79 105.98,-145.93 157.41,-218.07 -9.88,0.26 -139.54,78.46 -159.1,89.7l-392.38 227.66c-24.18,14.39 -54.46,33.24 -78.8,44.81z"/>
   <path class="fil2" d="M1391.77 2361.81l1.06 -507.67c-11.81,-4.98 -26.17,-15.06 -39.58,-22.65 -66.74,-37.81 -577.85,-339.33 -589.97,-339.58 50.99,71.77 104.37,145.52 156.18,216.64 53.22,73.06 104.02,144.95 157.36,217.24 52.9,71.67 103.48,146.15 157.09,217.61 54.03,72.02 104.44,147.27 157.86,218.41z"/>
  </g>
 </g>
</svg>
