<?xml version="1.0" encoding="UTF-8"?>
<!DOCTYPE svg PUBLIC "-//W3C//DTD SVG 1.1//EN" "http://www.w3.org/Graphics/SVG/1.1/DTD/svg11.dtd">
<!-- Creator: CorelDRAW -->
<svg xmlns="http://www.w3.org/2000/svg" xml:space="preserve" width="1.07346in" height="1.07346in" version="1.1" style="shape-rendering:geometricPrecision; text-rendering:geometricPrecision; image-rendering:optimizeQuality; fill-rule:evenodd; clip-rule:evenodd"
viewBox="0 0 13.32 13.32"
 xmlns:xlink="http://www.w3.org/1999/xlink"
 xmlns:xodm="http://www.corel.com/coreldraw/odm/2003">
 <defs>
  <style type="text/css">
   <![CDATA[
    .fil0 {fill:black}
    .fil1 {fill:#21A860}
    .fil2 {fill:#53F19C}
   ]]>
  </style>
 </defs>
 <g id="Layer_x0020_1">
  <metadata id="CorelCorpID_0Corel-Layer"/>
  <path class="fil0" d="M6.66 0c3.68,0 6.66,2.98 6.66,6.66 0,3.68 -2.98,6.66 -6.66,6.66 -3.68,0 -6.66,-2.98 -6.66,-6.66 0,-3.68 2.98,-6.66 6.66,-6.66zm0 0.66c3.31,0 6,2.69 6,6 0,3.31 -2.69,6 -6,6 -3.31,0 -6,-2.69 -6,-6 0,-3.31 2.69,-6 6,-6z"/>
  <circle class="fil1" cx="6.72" cy="6.6" r="6.1"/>
  <circle class="fil0" cx="6.66" cy="6.66" r="5.74"/>
  <path class="fil2" d="M6.66 12.88c-3.44,0 -6.22,-2.79 -6.22,-6.22 0,-3.44 2.79,-6.22 6.22,-6.22 3.44,0 6.22,2.79 6.22,6.22 0,3.44 -2.79,6.22 -6.22,6.22zm0.14 -0.38c-3.3,0 -5.97,-2.67 -5.97,-5.97 0,-3.3 2.67,-5.97 5.97,-5.97 3.3,0 5.97,2.67 5.97,5.97 0,3.3 -2.67,5.97 -5.97,5.97z"/>
  <polygon class="fil2" points="8.67,9.2 7.61,9.19 7.33,8.92 5.52,7.13 5.33,6.93 3.48,5.09 3.48,6.93 3.48,6.93 3.48,7.41 3.48,9.15 3.48,9.5 3.48,9.84 3.78,9.84 3.97,9.84 5.27,9.84 5.52,9.84 5.53,8.08 7.12,9.64 10.05,9.8 4.63,4.12 5.72,4.11 5.96,4.38 7.5,5.92 8.52,6.94 9.83,8.23 9.8,3.63 9.8,3.47 7.78,3.47 7.78,5.25 6.23,3.68 3.12,3.56 "/>
 </g>
</svg>
