<?xml version="1.0" encoding="UTF-8"?>
<!DOCTYPE svg PUBLIC "-//W3C//DTD SVG 1.1//EN" "http://www.w3.org/Graphics/SVG/1.1/DTD/svg11.dtd">
<!-- Creator: CorelDRAW -->
<svg xmlns="http://www.w3.org/2000/svg" xml:space="preserve" width="0.613213in" height="0.596154in" version="1.1" style="shape-rendering:geometricPrecision; text-rendering:geometricPrecision; image-rendering:optimizeQuality; fill-rule:evenodd; clip-rule:evenodd"
viewBox="0 0 25.37 24.67"
 xmlns:xlink="http://www.w3.org/1999/xlink"
 xmlns:xodm="http://www.corel.com/coreldraw/odm/2003">
 <defs>
  <style type="text/css">
   <![CDATA[
    .fil2 {fill:black}
    .fil4 {fill:#2CBD70}
    .fil0 {fill:#53F19C}
    .fil3 {fill:black;fill-rule:nonzero}
    .fil5 {fill:#2CBD70;fill-rule:nonzero}
    .fil1 {fill:#53F19C;fill-rule:nonzero}
   ]]>
  </style>
 </defs>
 <g id="Layer_x0020_1">
  <metadata id="CorelCorpID_0Corel-Layer"/>
  <g id="_105553278911328">
   <path class="fil0" d="M0.18 3.4c0.13,0.82 0.06,0.75 0.44,1.38l2.98 -1.6c0.78,4.4 1.4,6.95 4.33,11.88 0.52,0.83 1.47,2.36 2.3,3.38l1.34 -1.2c-0.93,-0.76 -4.08,-4.94 -4.81,-8.42 2.48,-0.97 5.09,-0.93 7.37,-0.7l0.74 -1.51c-3.94,-0.32 -5.85,-0.07 -8.47,0.53 -0.66,-1.12 -0.83,-3.03 -0.5,-4.65 7.55,-0.94 8.45,-0.81 15.84,0.57 -0.16,-1.76 0.51,-1.96 -4.59,-2.64 -4.63,-0.61 -13.72,-0.3 -16.96,2.98z"/>
   <path class="fil1" d="M0.36 3.46c0.02,0.12 0.03,0.19 0.04,0.26 0.06,0.4 0.07,0.47 0.28,0.84l3.04 -1.63 0.04 0.23c0.39,2.19 0.74,3.92 1.35,5.72 0.62,1.79 1.5,3.65 2.96,6.11l0.12 0.2c0.51,0.82 1.32,2.1 2.05,3.02l1.07 -0.96c-0.63,-0.6 -1.87,-2.18 -2.94,-4.06 -0.78,-1.37 -1.48,-2.91 -1.78,-4.33l-0.03 -0.14 0.13 -0.05c1.26,-0.49 2.55,-0.73 3.81,-0.81 1.22,-0.08 2.41,-0.02 3.52,0.09l0.58 -1.19c-1.84,-0.14 -3.22,-0.15 -4.46,-0.06 -1.29,0.1 -2.42,0.31 -3.72,0.61l-0.12 0.03 -0.06 -0.11c-0.34,-0.57 -0.55,-1.33 -0.64,-2.16 -0.09,-0.85 -0.05,-1.77 0.12,-2.61l0.02 -0.12 0.12 -0.01c3.78,-0.47 5.9,-0.67 8.01,-0.59 2.06,0.09 4.1,0.45 7.66,1.12 -0.01,-0.12 -0.01,-0.24 -0.02,-0.35 -0.04,-1.14 -0.05,-1.34 -4.42,-1.92 -2.64,-0.35 -6.73,-0.39 -10.36,0.24 -2.65,0.46 -5.04,1.29 -6.4,2.63zm-0.29 0.31c-0.02,-0.11 -0.03,-0.23 -0.05,-0.34l-0.01 -0.08 0.06 -0.06c1.41,-1.43 3.9,-2.3 6.64,-2.78 3.66,-0.64 7.79,-0.6 10.46,-0.24 4.65,0.62 4.66,0.86 4.71,2.24 0.01,0.16 0.01,0.34 0.03,0.55l0.02 0.22 -0.22 -0.04c-3.68,-0.69 -5.75,-1.06 -7.83,-1.15 -2.06,-0.09 -4.14,0.11 -7.83,0.57 -0.14,0.78 -0.18,1.61 -0.09,2.39 0.08,0.73 0.26,1.4 0.54,1.92 1.27,-0.29 2.38,-0.49 3.65,-0.59 1.31,-0.1 2.78,-0.08 4.76,0.08l0.25 0.02 -0.9 1.84 -0.12 -0.01c-1.13,-0.12 -2.34,-0.18 -3.58,-0.1 -1.19,0.08 -2.4,0.3 -3.57,0.74 0.3,1.34 0.96,2.79 1.71,4.09 1.14,1.99 2.46,3.64 3.01,4.09l0.15 0.12 -1.61 1.45 -0.11 -0.13c-0.78,-0.95 -1.65,-2.33 -2.19,-3.19l-0.13 -0.21c-1.47,-2.48 -2.36,-4.36 -2.98,-6.17 -0.6,-1.75 -0.95,-3.44 -1.33,-5.54l-2.92 1.57 -0.08 -0.14c-0.33,-0.56 -0.33,-0.6 -0.41,-1.1z"/>
   <path class="fil2" d="M1.02 6.66c0.26,4.9 6.28,15.24 12.16,17.81 0.48,-0.45 0.75,-0.57 1.23,-1.06 -0.61,-0.32 -2.29,-1.53 -2.78,-1.74 2.53,-2.11 7.7,-6.49 9.64,-13.54l-1.41 -0.49c-0.48,1.63 -3.11,6.83 -5.15,8.31 -3.02,-3.16 -3.21,-4.11 -4.34,-6.32 -0.59,0.1 -1.39,0.12 -1.37,0.48 0.09,1.5 2.9,5.86 4.64,7.15 -0.73,0.88 -2.37,2.52 -3.56,3.01 -4.67,-4.99 -6.23,-9.78 -7.91,-14.52 -0.61,0.36 -0.72,0.38 -1.13,0.91z"/>
   <path class="fil3" d="M1.2 6.71c0.16,2.6 1.93,6.71 4.43,10.37 2.16,3.16 4.86,5.98 7.52,7.19 0.18,-0.17 0.34,-0.29 0.48,-0.4 0.16,-0.13 0.32,-0.25 0.5,-0.42 -0.29,-0.17 -0.68,-0.43 -1.08,-0.7 -0.61,-0.4 -1.23,-0.82 -1.49,-0.92l-0.25 -0.11 0.21 -0.18c1.26,-1.05 3.18,-2.66 5.02,-4.9 1.81,-2.19 3.55,-4.98 4.52,-8.41l-1.1 -0.39c-0.34,1.03 -1.32,3.08 -2.46,4.92 -0.87,1.4 -1.84,2.68 -2.71,3.31l-0.12 0.09 -0.1 -0.11c-2.57,-2.69 -3.11,-3.79 -3.9,-5.42 -0.13,-0.26 -0.26,-0.54 -0.41,-0.83 -0.08,0.01 -0.16,0.02 -0.25,0.03 -0.43,0.06 -0.87,0.12 -0.86,0.25 0.04,0.72 0.76,2.16 1.68,3.59 0.92,1.42 2.04,2.81 2.89,3.44l0.14 0.11 -0.11 0.14c-0.42,0.51 -1.15,1.28 -1.93,1.93 -0.57,0.49 -1.18,0.91 -1.7,1.13l-0.11 0.04 -0.08 -0.08c-4.49,-4.8 -6.12,-9.4 -7.73,-13.95l-0.15 -0.44 -0.04 0.02c-0.39,0.22 -0.52,0.3 -0.83,0.7zm4.16 10.56c-2.55,-3.74 -4.35,-7.95 -4.49,-10.61l0.03 -0.11c0.37,-0.49 0.52,-0.57 0.97,-0.83 0.06,-0.03 0.12,-0.07 0.21,-0.12l0.18 -0.1 0.29 0.82c1.59,4.49 3.19,9.03 7.58,13.75 0.46,-0.21 1,-0.59 1.51,-1.03 0.69,-0.59 1.35,-1.26 1.77,-1.76 -0.86,-0.7 -1.94,-2.05 -2.83,-3.42 -0.95,-1.46 -1.69,-2.97 -1.73,-3.75 -0.03,-0.44 0.57,-0.52 1.15,-0.6 0.12,-0.02 0.24,-0.03 0.36,-0.05l0.12 -0.02 0.06 0.11c0.17,0.34 0.33,0.65 0.47,0.95 0.77,1.58 1.29,2.66 3.74,5.23 0.8,-0.63 1.69,-1.83 2.5,-3.13 1.19,-1.92 2.19,-4.07 2.47,-5.01l0.05 -0.17 1.73 0.6 -0.04 0.15c-0.98,3.56 -2.77,6.43 -4.63,8.69 -1.77,2.14 -3.6,3.72 -4.87,4.78 0.33,0.19 0.82,0.51 1.31,0.83 0.5,0.33 0.99,0.65 1.25,0.79l0.2 0.11 -0.16 0.16c-0.27,0.28 -0.48,0.44 -0.69,0.6 -0.17,0.13 -0.34,0.27 -0.54,0.46l-0.08 0.08 -0.1 -0.04c-2.76,-1.21 -5.55,-4.1 -7.77,-7.35z"/>
   <path class="fil4" d="M23.44 5.3c-4.8,-2.1 -11.19,-2.27 -16.31,-1.45l0.05 1.37c0.01,0.37 -0.05,0.24 0.38,0.18 1.46,-0.22 6.85,-0.66 9.28,-0.02 -0.94,3.06 -1.9,4.46 -3.38,6.81l1.23 1.25c2.17,-3.1 3.16,-4.92 3.89,-7.66l4.42 1.4c-1.69,7.24 -5.74,10.51 -8.84,13.8l1.62 0.69c2.71,-2.67 4.25,-3.97 6.99,-8.67 1.44,-2.94 2.33,-5.69 2.41,-9.1 0.05,-1.84 -0.05,-1.44 -1.58,-1.87l-0.17 3.28z"/>
   <path class="fil5" d="M23.37 5.46c-2.22,-0.97 -4.79,-1.53 -7.41,-1.76 -2.95,-0.26 -5.97,-0.12 -8.65,0.3l0.05 1.22 0 0.06c0.05,-0.01 0.11,-0.03 0.19,-0.04 0.89,-0.14 3.22,-0.35 5.47,-0.36 1.47,-0 2.9,0.08 3.88,0.33l0.17 0.04 -0.05 0.17c-0.87,2.84 -1.76,4.26 -3.06,6.32l-0.27 0.43 1 1.01c1.02,-1.46 1.77,-2.64 2.36,-3.78 0.6,-1.17 1.03,-2.3 1.4,-3.67l0.05 -0.17 4.73 1.5 -0.04 0.15c-1.47,6.33 -4.73,9.64 -7.61,12.56 -0.38,0.39 -0.76,0.77 -1.11,1.13l1.29 0.55c0.22,-0.22 0.42,-0.42 0.62,-0.61 2.28,-2.23 3.78,-3.69 6.26,-7.94 0.71,-1.46 1.29,-2.88 1.7,-4.34 0.41,-1.47 0.65,-2.99 0.69,-4.68 0.03,-1.36 -0.02,-1.37 -0.73,-1.53 -0.15,-0.03 -0.33,-0.07 -0.53,-0.12l-0.17 3.32 -0.22 -0.1zm-7.39 -2.09c2.57,0.23 5.09,0.76 7.3,1.69l0.17 -3.25 0.2 0.06c0.29,0.08 0.52,0.13 0.71,0.18 0.97,0.21 1.04,0.23 1,1.86 -0.04,1.72 -0.29,3.27 -0.71,4.76 -0.42,1.49 -1,2.93 -1.72,4.4l-0.01 0.01c-2.51,4.3 -4.01,5.77 -6.32,8.02 -0.23,0.22 -0.47,0.45 -0.7,0.69l-0.08 0.08 -1.94 -0.82 0.17 -0.18c0.43,-0.45 0.85,-0.88 1.28,-1.31 2.82,-2.87 6.02,-6.11 7.49,-12.25l-4.1 -1.3c-0.36,1.31 -0.79,2.42 -1.38,3.56 -0.61,1.19 -1.41,2.43 -2.5,3.98l-0.12 0.17 -1.47 -1.49 0.07 -0.11c0.12,-0.19 0.23,-0.36 0.34,-0.54 1.26,-1.99 2.13,-3.38 2.97,-6.07 -0.94,-0.21 -2.26,-0.29 -3.62,-0.28 -2.23,0.01 -4.54,0.22 -5.42,0.35 -0.11,0.02 -0.19,0.04 -0.24,0.05 -0.09,0.03 -0.14,0.04 -0.22,0.01l0 -0c-0.12,-0.05 -0.12,-0.12 -0.12,-0.28 -0,-0.03 -0,-0.06 -0,-0.11 0,-0.49 -0.04,-1.02 -0.06,-1.52l0.15 -0.02c2.74,-0.44 5.85,-0.59 8.88,-0.32zm-8.7 1.95l-0.02 -0.01 0 0 0.01 0 0 0c0.02,0.01 0.01,0.01 0.01,-0zm-0.02 -0.01c-0.01,-0 -0.02,-0.01 0,0l-0 -0z"/>
  </g>
 </g>
</svg>
