<?xml version="1.0" encoding="UTF-8"?>
<!DOCTYPE svg PUBLIC "-//W3C//DTD SVG 1.1//EN" "http://www.w3.org/Graphics/SVG/1.1/DTD/svg11.dtd">
<!-- Creator: CorelDRAW -->
<svg xmlns="http://www.w3.org/2000/svg" xml:space="preserve" width="5.069in" height="3.47391in" version="1.1" style="shape-rendering:geometricPrecision; text-rendering:geometricPrecision; image-rendering:optimizeQuality; fill-rule:evenodd; clip-rule:evenodd"
viewBox="0 0 112.45 77.06"
 xmlns:xlink="http://www.w3.org/1999/xlink"
 xmlns:xodm="http://www.corel.com/coreldraw/odm/2003">
 <defs>
  <style type="text/css">
   <![CDATA[
    .fil3 {fill:white;fill-rule:nonzero}
    .fil18 {fill:#BFBDDF;fill-rule:nonzero}
    .fil5 {fill:#B1B3D9;fill-rule:nonzero}
    .fil6 {fill:#979ACC;fill-rule:nonzero}
    .fil22 {fill:#72CBCE;fill-rule:nonzero}
    .fil25 {fill:#5186BA;fill-rule:nonzero}
    .fil24 {fill:#5058A4;fill-rule:nonzero}
    .fil11 {fill:#524B9C;fill-rule:nonzero}
    .fil36 {fill:#4E4695;fill-rule:nonzero}
    .fil21 {fill:#4B4395;fill-rule:nonzero}
    .fil35 {fill:#4B4393;fill-rule:nonzero}
    .fil4 {fill:#3E51A0;fill-rule:nonzero}
    .fil20 {fill:#433F89;fill-rule:nonzero}
    .fil37 {fill:#433F85;fill-rule:nonzero}
    .fil7 {fill:#3A386D;fill-rule:nonzero}
    .fil8 {fill:url(#id0)}
    .fil29 {fill:url(#id1)}
    .fil43 {fill:url(#id2)}
    .fil41 {fill:url(#id3)}
    .fil15 {fill:url(#id4)}
    .fil23 {fill:url(#id5)}
    .fil31 {fill:url(#id6)}
    .fil10 {fill:url(#id7)}
    .fil17 {fill:url(#id8)}
    .fil19 {fill:url(#id9)}
    .fil34 {fill:url(#id10)}
    .fil13 {fill:url(#id11)}
    .fil32 {fill:url(#id12)}
    .fil28 {fill:url(#id13)}
    .fil46 {fill:url(#id14)}
    .fil9 {fill:url(#id15)}
    .fil45 {fill:url(#id16)}
    .fil27 {fill:url(#id17)}
    .fil16 {fill:url(#id18)}
    .fil44 {fill:url(#id19)}
    .fil1 {fill:url(#id20)}
    .fil40 {fill:url(#id21)}
    .fil39 {fill:url(#id22)}
    .fil33 {fill:url(#id23)}
    .fil42 {fill:url(#id24)}
    .fil30 {fill:url(#id25)}
    .fil14 {fill:url(#id26)}
    .fil2 {fill:url(#id27)}
    .fil26 {fill:url(#id28)}
    .fil12 {fill:url(#id29)}
    .fil0 {fill:url(#id30)}
    .fil38 {fill:url(#id31)}
   ]]>
  </style>
  <linearGradient id="id0" gradientUnits="userSpaceOnUse" x1="12.31" y1="21.03" x2="23.76" y2="21.03">
   <stop offset="0" style="stop-opacity:1; stop-color:#C4C1E0"/>
   <stop offset="1" style="stop-opacity:1; stop-color:#E9E7F4"/>
  </linearGradient>
  <linearGradient id="id1" gradientUnits="userSpaceOnUse" x1="66.48" y1="61.49" x2="112.43" y2="61.49">
   <stop offset="0" style="stop-opacity:1; stop-color:#606AAF"/>
   <stop offset="1" style="stop-opacity:1; stop-color:#BFBDDF"/>
  </linearGradient>
  <linearGradient id="id2" gradientUnits="userSpaceOnUse" xlink:href="#id0" x1="22.68" y1="62.57" x2="11.03" y2="62.57">
  </linearGradient>
  <linearGradient id="id3" gradientUnits="userSpaceOnUse" xlink:href="#id1" x1="45.97" y1="61.49" x2="0.01" y2="61.49">
  </linearGradient>
  <linearGradient id="id4" gradientUnits="userSpaceOnUse" xlink:href="#id0" x1="100.14" y1="21.03" x2="88.69" y2="21.03">
  </linearGradient>
  <linearGradient id="id5" gradientUnits="userSpaceOnUse" xlink:href="#id0" x1="69.11" y1="34.9" x2="69.11" y2="17.29">
  </linearGradient>
  <linearGradient id="id6" gradientUnits="userSpaceOnUse" xlink:href="#id0" x1="89.77" y1="62.57" x2="101.42" y2="62.57">
  </linearGradient>
  <linearGradient id="id7" gradientUnits="userSpaceOnUse" xlink:href="#id1" x1="13.17" y1="27.15" x2="18.65" y2="27.15">
  </linearGradient>
  <linearGradient id="id8" gradientUnits="userSpaceOnUse" xlink:href="#id1" x1="99.28" y1="27.15" x2="93.8" y2="27.15">
  </linearGradient>
  <linearGradient id="id9" gradientUnits="userSpaceOnUse" xlink:href="#id0" x1="69.11" y1="49.5" x2="69.11" y2="31.89">
  </linearGradient>
  <linearGradient id="id10" gradientUnits="userSpaceOnUse" x1="61.33" y1="46.4" x2="73.1" y2="46.4">
   <stop offset="0" style="stop-opacity:1; stop-color:#4F4695"/>
   <stop offset="1" style="stop-opacity:1; stop-color:#544996"/>
  </linearGradient>
  <linearGradient id="id11" gradientUnits="userSpaceOnUse" xlink:href="#id1" x1="112.44" y1="26.02" x2="67.28" y2="26.02">
  </linearGradient>
  <linearGradient id="id12" gradientUnits="userSpaceOnUse" xlink:href="#id10" x1="64.35" y1="49.77" x2="110.33" y2="49.77">
  </linearGradient>
  <linearGradient id="id13" gradientUnits="userSpaceOnUse" xlink:href="#id1" x1="62.13" y1="52.11" x2="67.7" y2="52.11">
  </linearGradient>
  <linearGradient id="id14" gradientUnits="userSpaceOnUse" xlink:href="#id10" x1="51.12" y1="46.4" x2="39.35" y2="46.4">
  </linearGradient>
  <linearGradient id="id15" gradientUnits="userSpaceOnUse" xlink:href="#id0" x1="13.19" y1="18.95" x2="45.12" y2="18.95">
  </linearGradient>
  <linearGradient id="id16" gradientUnits="userSpaceOnUse" xlink:href="#id10" x1="51.1" y1="46.4" x2="39.41" y2="46.4">
  </linearGradient>
  <linearGradient id="id17" gradientUnits="userSpaceOnUse" xlink:href="#id0" x1="62.15" y1="43.77" x2="94.66" y2="43.77">
  </linearGradient>
  <linearGradient id="id18" gradientUnits="userSpaceOnUse" xlink:href="#id0" x1="99.26" y1="18.95" x2="67.32" y2="18.95">
  </linearGradient>
  <linearGradient id="id19" gradientUnits="userSpaceOnUse" xlink:href="#id10" x1="48.1" y1="49.77" x2="2.12" y2="49.77">
  </linearGradient>
  <linearGradient id="id20" gradientUnits="userSpaceOnUse" xlink:href="#id1" x1="0.01" y1="26.02" x2="45.17" y2="26.02">
  </linearGradient>
  <linearGradient id="id21" gradientUnits="userSpaceOnUse" xlink:href="#id1" x1="50.32" y1="52.11" x2="44.75" y2="52.11">
  </linearGradient>
  <linearGradient id="id22" gradientUnits="userSpaceOnUse" xlink:href="#id0" x1="50.3" y1="43.77" x2="17.79" y2="43.77">
  </linearGradient>
  <linearGradient id="id23" gradientUnits="userSpaceOnUse" xlink:href="#id10" x1="61.35" y1="46.4" x2="73.04" y2="46.4">
  </linearGradient>
  <linearGradient id="id24" gradientUnits="userSpaceOnUse" xlink:href="#id0" x1="30.5" y1="59.96" x2="-15.31" y2="59.96">
  </linearGradient>
  <linearGradient id="id25" gradientUnits="userSpaceOnUse" xlink:href="#id0" x1="81.95" y1="59.96" x2="127.76" y2="59.96">
  </linearGradient>
  <linearGradient id="id26" gradientUnits="userSpaceOnUse" xlink:href="#id0" x1="97.26" y1="24.51" x2="52.21" y2="24.51">
  </linearGradient>
  <linearGradient id="id27" gradientUnits="userSpaceOnUse" xlink:href="#id0" x1="15.19" y1="24.51" x2="60.24" y2="24.51">
  </linearGradient>
  <radialGradient id="id28" gradientUnits="userSpaceOnUse" gradientTransform="matrix(7.63969 -0 -0 -7.63973E+000 -1500 -426)" cx="225.85" cy="-49.33" r="21.61" fx="225.85" fy="-49.33">
   <stop offset="0" style="stop-opacity:1; stop-color:#72CBCE"/>
   <stop offset="1" style="stop-opacity:1; stop-color:#72CBCE"/>
  </radialGradient>
  <radialGradient id="id29" gradientUnits="userSpaceOnUse" gradientTransform="matrix(19.3598 -0 -0 -1.93598E+001 -4144 -1004)" xlink:href="#id28" cx="225.68" cy="-49.3" r="8.53" fx="225.68" fy="-49.3">
  </radialGradient>
  <radialGradient id="id30" gradientUnits="userSpaceOnUse" gradientTransform="matrix(19.3599 -0 -0 -1.93598E+001 -4142 -1004)" xlink:href="#id28" cx="225.61" cy="-49.3" r="8.53" fx="225.61" fy="-49.3">
  </radialGradient>
  <radialGradient id="id31" gradientUnits="userSpaceOnUse" gradientTransform="matrix(7.63963 -0 -0 -7.63967E+000 -1499 -426)" xlink:href="#id28" cx="225.83" cy="-49.33" r="21.61" fx="225.83" fy="-49.33">
  </radialGradient>
 </defs>
 <g id="Layer_x0020_1">
  <metadata id="CorelCorpID_0Corel-Layer"/>
  <g id="_105553295209024">
   <path class="fil0" d="M17.19 41.32c-0.44,0 -0.87,-0.12 -1.25,-0.33l-14.39 -8.31c-0.23,-0.13 -0.36,-0.37 -0.36,-0.63 0,-0.26 0.14,-0.5 0.36,-0.63l1.31 -0.75 0.29 0.17 -1.45 0.84c-0.14,0.08 -0.22,0.22 -0.22,0.38 0,0.16 0.08,0.3 0.22,0.38l14.39 8.31c0.33,0.19 0.72,0.29 1.11,0.29 0.37,0 0.73,-0.09 1.05,-0.26l-0.06 0.35c-0.31,0.13 -0.65,0.2 -0.99,0.2z"/>
   <path class="fil1" d="M17.1 38.74c-0.16,0 -0.31,-0.03 -0.43,-0.1l-13.52 -7.81 -0.29 -0.17 -2.14 -1.24c-0.08,-0.05 -0.13,-0.11 -0.15,-0.17l-0 0 -0.54 -1.4c0.03,0.05 0.07,0.1 0.14,0.14l0 0c0,0 0,0 0,0 0,0 0,0 0,0 0,0 0,0 0,0l16.35 9.44c0.04,0.02 0.09,0.04 0.14,0.06 0.03,0.07 0.07,0.13 0.13,0.15l-0 0 0.4 0.23c0.04,0.02 0.08,0.04 0.13,0.04 0.06,0 0.13,-0.02 0.2,-0.06l1.34 -0.78 -0.15 0.9 -1.05 0.61c-0.16,0.09 -0.36,0.14 -0.56,0.14zm14.8 -8.36l-0.7 -0.41 3.74 -2.16 0.7 0.41 -3.74 2.16z"/>
   <path class="fil2" d="M16.67 37.51c-0.05,-0.02 -0.1,-0.04 -0.14,-0.06 0.04,0.02 0.09,0.04 0.14,0.06zm-0.03 -0.17c-0.04,-0.01 -0.08,-0.03 -0.11,-0.05l-16.35 -9.44c-0.09,-0.05 -0.14,-0.11 -0.16,-0.18 -0.04,0.12 0.01,0.24 0.15,0.33 -0.07,-0.04 -0.12,-0.09 -0.14,-0.14 -0.07,-0.14 0.01,-0.31 0.22,-0.44l13.41 -7.74 1.23 7.3 -5.5 3.17c-0.06,0.03 -0.09,0.09 -0.09,0.15 0,0.06 0.03,0.12 0.09,0.15l6.74 3.89 0.5 2.99zm-16.46 -9.33c-0,-0 -0,-0 -0,-0 0,0 0,0 0,0zm-0 -0c-0,-0 -0,-0 -0,-0 0,0 0,0 0,0z"/>
   <path class="fil3" d="M44.93 21.43l-27.4 15.82c-0.3,0.17 -0.75,0.19 -1.01,0.04l-16.35 -9.44c-0.09,-0.05 -0.14,-0.11 -0.16,-0.18 -0.04,0.12 0.01,0.25 0.16,0.33l16.35 9.44c0.26,0.15 0.71,0.13 1.01,-0.04l27.4 -15.82c0.2,-0.12 0.28,-0.27 0.23,-0.41 -0.03,0.09 -0.11,0.18 -0.23,0.25z"/>
   <path class="fil4" d="M9.27 33.99l0 -0.3c0,-0.03 0.02,-0.04 0.04,-0.03l1.06 0.61c0.02,0.01 0.04,0.05 0.04,0.07l0 0.3c0,0.03 -0.02,0.04 -0.04,0.03l-1.06 -0.61c-0.02,-0.01 -0.04,-0.05 -0.04,-0.07z"/>
   <path class="fil4" d="M10.86 34.9l0 -0.3c0,-0.03 0.02,-0.04 0.04,-0.03l1.06 0.61c0.02,0.01 0.04,0.05 0.04,0.07l0 0.3c0,0.03 -0.02,0.04 -0.04,0.03l-1.06 -0.61c-0.02,-0.01 -0.04,-0.05 -0.04,-0.07z"/>
   <path class="fil5" d="M9.39 30.16l22.77 -13.14c0.15,-0.09 0.34,-0.09 0.49,0l8.11 4.69c0.12,0.07 0.12,0.24 0,0.3l-22.76 13.14c-0.15,0.09 -0.34,0.09 -0.49,0l-8.12 -4.68c-0.12,-0.07 -0.12,-0.24 0,-0.3z"/>
   <path class="fil6" d="M9.39 30.46l0.08 0.05 22.68 -13.1c0.15,-0.09 0.34,-0.09 0.49,0l8.03 4.64 0.08 -0.05c0.12,-0.07 0.12,-0.24 0,-0.3l-8.11 -4.69c-0.15,-0.09 -0.34,-0.09 -0.49,0l-22.77 13.14c-0.12,0.07 -0.12,0.24 0,0.3z"/>
   <polygon class="fil7" points="33.26,18.2 12.29,30.31 11.25,29.89 32.38,17.69 "/>
   <polygon class="fil7" points="35.42,19.45 16.87,30.16 15.99,29.65 34.54,18.94 "/>
   <polygon class="fil7" points="36.82,20.26 14.98,32.87 14.1,32.36 35.94,19.75 "/>
   <polygon class="fil7" points="38.22,21.07 16.39,33.68 15.51,33.17 37.35,20.56 "/>
   <polygon class="fil7" points="39.63,21.88 17.79,34.49 16.91,33.98 38.75,21.37 "/>
   <polygon class="fil7" points="12.29,30.31 11.41,30.82 10.53,30.31 11.41,29.8 "/>
   <polygon class="fil7" points="17.93,29.54 13.57,32.06 12.69,31.55 17.09,29.01 "/>
   <path class="fil8" d="M17.5 24.27l6.14 -3.54c0.24,-0.14 0.24,-0.36 0,-0.5l-4.2 -2.42c-0.24,-0.14 -0.63,-0.14 -0.87,0l-6.14 3.54c-0.24,0.14 -0.24,0.36 0,0.5l4.2 2.42c0.24,0.14 0.63,0.14 0.87,0z"/>
   <path class="fil6" d="M12.43 21.55l6.14 -3.54c0.24,-0.14 0.63,-0.14 0.87,0l4.2 2.42c0.07,0.04 0.12,0.09 0.15,0.15 0.06,-0.12 0.02,-0.26 -0.15,-0.35l-4.2 -2.42c-0.24,-0.14 -0.63,-0.14 -0.87,0l-6.14 3.54c-0.17,0.1 -0.21,0.23 -0.15,0.35 0.03,-0.05 0.08,-0.11 0.15,-0.15z"/>
   <path class="fil9" d="M17.19 37.89l-0.4 -0.23 0 0c-0.06,-0.02 -0.11,-0.08 -0.13,-0.15 -0.01,-0.02 -0.01,-0.04 -0.02,-0.06l-0.02 -0.11 -3.47 -20.6c-0.04,-0.24 0.13,-0.57 0.36,-0.7l27.68 -15.98c0.07,-0.04 0.14,-0.06 0.19,-0.06 0.05,0 0.09,0.01 0.13,0.04l-0 -0 0.41 0.24c-0.03,-0.02 -0.07,-0.02 -0.1,-0.02 -0.06,0 -0.13,0.02 -0.2,0.06l-27.68 15.98c-0.23,0.13 -0.4,0.47 -0.36,0.7l3.49 20.71c0.02,0.09 0.05,0.15 0.11,0.19z"/>
   <path class="fil10" d="M13.67 16.6l-0.46 -0.2c-0.05,0.12 -0.08,0.24 -0.06,0.34l3.49 20.71c0.02,0.11 0.07,0.18 0.15,0.21l-0 0 0.41 0.24 0.07 -0.38 -0.02 0.01 1.39 -0.8 -4.97 -20.12z"/>
   <path class="fil11" d="M45.2 21.89l-27.68 15.98c-0.21,0.12 -0.4,0.05 -0.43,-0.17l-3.49 -20.71c-0.04,-0.24 0.13,-0.57 0.36,-0.7l27.68 -15.98c0.21,-0.12 0.4,-0.05 0.43,0.17l3.49 20.71c0.04,0.24 -0.13,0.57 -0.36,0.7z"/>
   <path class="fil12" d="M95.26 41.32c-0.34,0 -0.68,-0.07 -0.99,-0.2l-0.06 -0.35c0.32,0.17 0.69,0.26 1.05,0.26 0.39,0 0.77,-0.1 1.1,-0.29l14.39 -8.31c0.14,-0.08 0.22,-0.22 0.22,-0.38 0,-0.16 -0.08,-0.3 -0.22,-0.38l-1.45 -0.84 0.29 -0.17 1.31 0.75c0.23,0.13 0.36,0.36 0.36,0.63 0,0.26 -0.14,0.5 -0.36,0.63l-14.39 8.31c-0.38,0.22 -0.81,0.33 -1.25,0.33z"/>
   <path class="fil13" d="M95.35 38.74c-0.19,0 -0.4,-0.05 -0.56,-0.14l-1.05 -0.61 -0.15 -0.9 1.34 0.78c0.07,0.04 0.14,0.06 0.2,0.06 0.05,0 0.09,-0.01 0.13,-0.04l0.4 -0.23 -0 0c0.06,-0.02 0.11,-0.08 0.13,-0.15 0.05,-0.02 0.1,-0.04 0.14,-0.06l16.35 -9.44c0,-0 0,-0 0,-0 0,0 0,-0 0,-0 0,-0 0,-0 0,-0 0,0 0,-0 0,-0 0,-0 0,-0 0,-0 0,0 0,0 0,0 0.07,-0.04 0.11,-0.09 0.14,-0.14l-0.54 1.4 -0 -0c-0.02,0.06 -0.07,0.12 -0.15,0.17l-2.14 1.24 -0.29 0.17 -13.52 7.81c-0.11,0.07 -0.27,0.1 -0.43,0.1zm-14.8 -8.36l-3.74 -2.16 0.7 -0.41 3.74 2.16 -0.7 0.41z"/>
   <path class="fil14" d="M95.78 37.51c0.05,-0.02 0.1,-0.04 0.14,-0.06 -0.04,0.02 -0.09,0.04 -0.14,0.06zm0.03 -0.17l0.5 -2.99 6.74 -3.89c0.12,-0.07 0.12,-0.24 0,-0.3l-5.5 -3.17 1.23 -7.3 13.41 7.74c0.22,0.13 0.29,0.3 0.22,0.44 -0.03,0.05 -0.07,0.1 -0.14,0.14 0.14,-0.09 0.19,-0.21 0.15,-0.33 -0.02,0.07 -0.07,0.13 -0.16,0.18l-16.35 9.44c-0.03,0.02 -0.07,0.04 -0.11,0.05zm16.46 -9.33c0,-0 0,-0 0,-0 -0,0 -0,0 -0,0zm0 -0c0,-0 0,-0 0,-0 -0,0 -0,0 -0,0zm0 -0c0,-0 0,-0 0,-0 -0,0 -0,0 -0,0z"/>
   <path class="fil3" d="M67.52 21.43l27.4 15.82c0.3,0.17 0.75,0.19 1.01,0.04l16.35 -9.44c0.08,-0.05 0.14,-0.11 0.16,-0.18 0.04,0.12 -0.01,0.25 -0.16,0.33l-16.35 9.44c-0.26,0.15 -0.71,0.13 -1.01,-0.04l-27.4 -15.82c-0.2,-0.12 -0.28,-0.27 -0.23,-0.41 0.03,0.09 0.11,0.18 0.23,0.25z"/>
   <path class="fil4" d="M103.18 33.99l0 -0.3c0,-0.03 -0.02,-0.04 -0.04,-0.03l-1.06 0.61c-0.02,0.01 -0.04,0.05 -0.04,0.07l0 0.3c0,0.03 0.02,0.04 0.04,0.03l1.06 -0.61c0.02,-0.01 0.04,-0.05 0.04,-0.07z"/>
   <path class="fil4" d="M101.59 34.9l0 -0.3c0,-0.03 -0.02,-0.04 -0.04,-0.03l-1.06 0.61c-0.02,0.01 -0.04,0.05 -0.04,0.07l0 0.3c0,0.03 0.02,0.04 0.04,0.03l1.06 -0.61c0.02,-0.01 0.04,-0.05 0.04,-0.07z"/>
   <path class="fil5" d="M103.06 30.16l-22.77 -13.14c-0.15,-0.09 -0.34,-0.09 -0.49,0l-8.11 4.69c-0.12,0.07 -0.12,0.24 0,0.3l22.76 13.14c0.15,0.09 0.34,0.09 0.49,0l8.12 -4.68c0.12,-0.07 0.12,-0.24 0,-0.3z"/>
   <path class="fil6" d="M103.06 30.46l-0.08 0.05 -22.68 -13.1c-0.15,-0.09 -0.34,-0.09 -0.49,0l-8.03 4.64 -0.08 -0.05c-0.12,-0.07 -0.12,-0.24 0,-0.3l8.11 -4.69c0.15,-0.09 0.34,-0.09 0.49,0l22.77 13.14c0.12,0.07 0.12,0.24 0,0.3z"/>
   <polygon class="fil7" points="79.19,18.2 100.16,30.31 101.2,29.89 80.07,17.69 "/>
   <polygon class="fil7" points="77.03,19.45 95.58,30.16 96.46,29.65 77.91,18.94 "/>
   <polygon class="fil7" points="75.63,20.26 97.47,32.87 98.35,32.36 76.51,19.75 "/>
   <polygon class="fil7" points="74.22,21.07 96.06,33.68 96.94,33.17 75.1,20.56 "/>
   <polygon class="fil7" points="72.82,21.88 94.66,34.49 95.54,33.98 73.7,21.37 "/>
   <polygon class="fil7" points="100.16,30.31 101.04,30.82 101.92,30.31 101.04,29.8 "/>
   <polygon class="fil7" points="94.51,29.54 98.88,32.06 99.76,31.55 95.36,29.01 "/>
   <path class="fil15" d="M94.95 24.27l-6.14 -3.54c-0.24,-0.14 -0.24,-0.36 0,-0.5l4.2 -2.42c0.24,-0.14 0.63,-0.14 0.87,0l6.14 3.54c0.24,0.14 0.24,0.36 0,0.5l-4.2 2.42c-0.24,0.14 -0.63,0.14 -0.87,0z"/>
   <path class="fil6" d="M100.02 21.55l-6.14 -3.54c-0.24,-0.14 -0.63,-0.14 -0.87,0l-4.2 2.42c-0.07,0.04 -0.12,0.09 -0.15,0.15 -0.06,-0.12 -0.02,-0.26 0.15,-0.35l4.2 -2.42c0.24,-0.14 0.63,-0.14 0.87,0l6.14 3.54c0.17,0.1 0.21,0.23 0.15,0.35 -0.03,-0.05 -0.08,-0.11 -0.15,-0.15z"/>
   <path class="fil16" d="M95.25 37.89c0.05,-0.04 0.09,-0.1 0.11,-0.19l3.49 -20.71c0.04,-0.24 -0.13,-0.57 -0.36,-0.7l-27.68 -15.98c-0.07,-0.04 -0.14,-0.06 -0.2,-0.06 -0.04,0 -0.07,0.01 -0.1,0.02l0.41 -0.24 -0 0c0.04,-0.02 0.08,-0.04 0.13,-0.04 0.06,0 0.12,0.02 0.19,0.06l27.68 15.98c0.23,0.13 0.4,0.47 0.36,0.7l-3.49 20.71c-0,0.02 -0.01,0.04 -0.02,0.06 -0.03,0.07 -0.07,0.13 -0.13,0.15l0 0 -0.4 0.23z"/>
   <path class="fil17" d="M98.77 16.6l0.46 -0.2c0.05,0.12 0.08,0.24 0.06,0.34l-3.49 20.71c-0.02,0.11 -0.07,0.18 -0.15,0.21l0 0 -0.41 0.24 -0.07 -0.38 0.02 0.01 -1.39 -0.8 4.97 -20.12z"/>
   <path class="fil11" d="M67.25 21.89l27.68 15.98c0.21,0.12 0.4,0.05 0.43,-0.17l3.49 -20.71c0.04,-0.24 -0.13,-0.57 -0.36,-0.7l-27.68 -15.98c-0.21,-0.12 -0.4,-0.05 -0.43,0.17l-3.49 20.71c-0.04,0.24 0.13,0.57 0.36,0.7z"/>
   <polygon class="fil18" points="56.22,46.27 30.45,31.39 56.22,16.52 82,31.39 "/>
   <polygon class="fil11" points="56.22,42.21 37.49,31.39 56.22,20.58 74.96,31.39 "/>
   <polygon class="fil3" points="56.22,21.31 74.32,31.76 74.96,31.39 56.22,20.58 37.49,31.39 38.13,31.76 "/>
   <polygon class="fil19" points="56.22,46.27 56.22,54.71 63.63,50.43 63.13,47.47 60.09,49.23 60.09,47.72 62.9,46.1 62.33,42.75 "/>
   <polygon class="fil7" points="30.45,31.39 30.45,39.83 56.22,54.71 56.22,46.27 "/>
   <polygon class="fil3" points="56.22,45.79 30.87,31.15 30.45,31.39 56.22,46.27 82,31.39 81.58,31.15 "/>
   <polygon class="fil11" points="78.13,37.3 78.13,38.81 60.09,49.23 60.09,47.72 "/>
   <polygon class="fil20" points="56.22,54.71 48.82,50.43 49.28,47.7 54.48,50.7 54.48,48.05 49.69,45.28 50.12,42.75 56.22,46.27 "/>
   <polygon class="fil21" points="54.48,50.7 49.28,47.7 49.69,45.28 54.48,48.05 "/>
   <polygon class="fil22" points="48.7,45.82 44.04,43.13 44.03,43.69 48.7,46.38 "/>
   <polygon class="fil22" points="43.36,42.75 42.1,42.02 42.1,42.57 43.36,43.3 "/>
   <polygon class="fil22" points="37.44,39.33 34.85,37.83 34.85,38.39 37.44,39.89 "/>
   <polygon class="fil22" points="39.8,40.69 37.93,39.61 37.93,40.17 39.8,41.25 "/>
   <polygon class="fil22" points="41.55,41.7 40.29,40.97 40.29,41.53 41.55,42.26 "/>
   <polygon class="fil22" points="56.25,24.29 55.43,23.82 56.25,23.35 57.07,23.82 "/>
   <polygon class="fil22" points="61.16,27.13 60.34,26.65 61.16,26.18 61.98,26.65 "/>
   <polygon class="fil22" points="64.43,29.02 63.62,28.54 64.43,28.07 65.25,28.54 "/>
   <polygon class="fil22" points="66.07,29.96 65.25,29.49 66.07,29.02 66.89,29.49 "/>
   <polygon class="fil22" points="67.71,30.91 66.89,30.43 67.71,29.96 68.53,30.43 "/>
   <polygon class="fil22" points="54.61,25.24 53.79,24.77 54.61,24.3 55.43,24.77 "/>
   <polygon class="fil22" points="56.24,26.19 55.43,25.71 56.24,25.24 57.06,25.71 "/>
   <polygon class="fil22" points="57.88,27.13 57.06,26.66 57.88,26.19 58.7,26.66 "/>
   <polygon class="fil22" points="59.52,28.08 58.7,27.6 59.52,27.13 60.34,27.6 "/>
   <polygon class="fil22" points="61.15,29.02 60.34,28.55 61.15,28.08 61.97,28.55 "/>
   <polygon class="fil22" points="62.79,29.97 61.97,29.49 62.79,29.02 63.61,29.49 "/>
   <polygon class="fil22" points="64.43,30.91 63.61,30.44 64.43,29.97 65.25,30.44 "/>
   <polygon class="fil22" points="66.06,31.86 65.25,31.38 66.06,30.91 66.88,31.38 "/>
   <polygon class="fil22" points="67.7,32.8 66.88,32.33 67.7,31.86 68.52,32.33 "/>
   <polygon class="fil22" points="52.96,26.19 52.15,25.72 52.96,25.24 53.78,25.72 "/>
   <polygon class="fil22" points="54.6,27.13 53.78,26.66 54.6,26.19 55.42,26.66 "/>
   <polygon class="fil22" points="56.24,28.08 55.42,27.61 56.24,27.13 57.06,27.61 "/>
   <polygon class="fil22" points="62.78,31.86 61.97,31.39 62.78,30.91 63.6,31.39 "/>
   <polygon class="fil22" points="64.42,32.8 63.6,32.33 64.42,31.86 65.24,32.33 "/>
   <polygon class="fil22" points="66.06,33.75 65.24,33.28 66.06,32.8 66.88,33.28 "/>
   <polygon class="fil22" points="56.23,29.97 55.41,29.5 56.23,29.03 57.05,29.5 "/>
   <polygon class="fil22" points="57.87,30.92 57.05,30.45 57.87,29.97 58.69,30.45 "/>
   <polygon class="fil22" points="59.5,31.86 58.69,31.39 59.5,30.92 60.32,31.39 "/>
   <polygon class="fil22" points="62.78,33.75 61.96,33.28 62.78,32.81 63.6,33.28 "/>
   <polygon class="fil22" points="64.41,34.7 63.6,34.23 64.41,33.75 65.23,34.23 "/>
   <polygon class="fil22" points="49.68,28.09 48.86,27.61 49.68,27.14 50.5,27.61 "/>
   <polygon class="fil22" points="51.31,29.03 50.5,28.56 51.31,28.09 52.13,28.56 "/>
   <polygon class="fil22" points="52.95,29.98 52.13,29.5 52.95,29.03 53.77,29.5 "/>
   <polygon class="fil22" points="54.59,30.92 53.77,30.45 54.59,29.98 55.41,30.45 "/>
   <polygon class="fil22" points="56.22,31.87 55.41,31.39 56.22,30.92 57.04,31.39 "/>
   <polygon class="fil22" points="57.86,32.81 57.04,32.34 57.86,31.87 58.68,32.34 "/>
   <polygon class="fil22" points="59.5,33.76 58.68,33.28 59.5,32.81 60.32,33.28 "/>
   <polygon class="fil22" points="61.13,34.7 60.32,34.23 61.13,33.76 61.95,34.23 "/>
   <polygon class="fil22" points="62.77,35.65 61.95,35.17 62.77,34.7 63.59,35.17 "/>
   <polygon class="fil22" points="48.03,29.04 47.22,28.56 48.03,28.09 48.85,28.56 "/>
   <polygon class="fil22" points="49.67,29.98 48.85,29.51 49.67,29.04 50.49,29.51 "/>
   <polygon class="fil22" points="52.94,31.87 52.13,31.4 52.94,30.93 53.76,31.4 "/>
   <polygon class="fil22" points="56.22,33.76 55.4,33.29 56.22,32.82 57.04,33.29 "/>
   <polygon class="fil22" points="57.85,34.71 57.04,34.23 57.85,33.76 58.67,34.23 "/>
   <polygon class="fil22" points="59.49,35.65 58.67,35.18 59.49,34.71 60.31,35.18 "/>
   <polygon class="fil22" points="61.13,36.6 60.31,36.12 61.13,35.65 61.95,36.12 "/>
   <polygon class="fil22" points="46.39,29.98 45.57,29.51 46.39,29.04 47.21,29.51 "/>
   <polygon class="fil22" points="48.03,30.93 47.21,30.46 48.03,29.98 48.85,30.46 "/>
   <polygon class="fil22" points="51.3,32.82 50.48,32.35 51.3,31.87 52.12,32.35 "/>
   <polygon class="fil22" points="52.94,33.76 52.12,33.29 52.94,32.82 53.76,33.29 "/>
   <polygon class="fil22" points="57.85,36.6 57.03,36.13 57.85,35.65 58.67,36.13 "/>
   <polygon class="fil22" points="44.75,30.93 43.93,30.46 44.75,29.99 45.57,30.46 "/>
   <polygon class="fil22" points="48.02,32.82 47.2,32.35 48.02,31.88 48.84,32.35 "/>
   <polygon class="fil22" points="49.66,33.77 48.84,33.3 49.66,32.82 50.48,33.3 "/>
   <polygon class="fil22" points="51.29,34.71 50.48,34.24 51.29,33.77 52.11,34.24 "/>
   <polygon class="fil22" points="52.93,35.66 52.11,35.19 52.93,34.71 53.75,35.19 "/>
   <polygon class="fil22" points="54.57,36.6 53.75,36.13 54.57,35.66 55.39,36.13 "/>
   <polygon class="fil22" points="57.84,38.49 57.02,38.02 57.84,37.55 58.66,38.02 "/>
   <polygon class="fil22" points="43.1,31.88 42.29,31.41 43.1,30.94 43.92,31.41 "/>
   <polygon class="fil22" points="46.38,33.77 45.56,33.3 46.38,32.83 47.2,33.3 "/>
   <polygon class="fil22" points="48.01,34.72 47.2,34.24 48.01,33.77 48.83,34.24 "/>
   <polygon class="fil22" points="49.65,35.66 48.83,35.19 49.65,34.72 50.47,35.19 "/>
   <polygon class="fil22" points="51.29,36.61 50.47,36.13 51.29,35.66 52.11,36.13 "/>
   <polygon class="fil22" points="54.56,38.5 53.74,38.02 54.56,37.55 55.38,38.02 "/>
   <polygon class="fil22" points="56.2,39.44 55.38,38.97 56.2,38.5 57.02,38.97 "/>
   <polygon class="fil18" points="56.22,31.67 30.45,16.79 56.22,1.91 82,16.79 "/>
   <polygon class="fil11" points="56.22,27.61 37.49,16.79 56.22,5.98 74.96,16.79 "/>
   <polygon class="fil3" points="56.22,6.71 74.32,17.16 74.96,16.79 56.22,5.98 37.49,16.79 38.13,17.16 "/>
   <polygon class="fil23" points="82,25.23 82,16.79 56.22,31.67 56.22,40.1 76.81,28.22 77.51,27.81 "/>
   <polygon class="fil7" points="30.45,16.79 30.45,25.22 56.22,40.1 56.22,31.67 "/>
   <polygon class="fil3" points="56.22,31.19 30.87,16.55 30.45,16.79 56.22,31.67 82,16.79 81.58,16.55 "/>
   <polygon class="fil11" points="78.13,22.7 78.13,24.21 60.09,34.63 60.09,33.12 "/>
   <path class="fil20" d="M56.22 40.1l-25.77 -14.88 0 -8.43 25.77 14.88 0 8.43zm-24.03 -19.52l0 2.66 22.28 12.86 0 -2.66 -22.28 -12.86z"/>
   <polygon class="fil21" points="54.48,36.1 32.2,23.24 32.2,20.58 54.48,33.44 "/>
   <polygon class="fil22" points="48.7,31.22 44.04,28.53 44.03,29.08 48.7,31.78 "/>
   <polygon class="fil22" points="43.36,28.14 42.1,27.42 42.1,27.97 43.36,28.7 "/>
   <polygon class="fil22" points="37.44,24.73 34.85,23.23 34.85,23.79 37.44,25.28 "/>
   <polygon class="fil22" points="39.8,26.09 37.93,25.01 37.93,25.57 39.8,26.65 "/>
   <polygon class="fil22" points="41.55,27.1 40.29,26.37 40.29,26.93 41.55,27.66 "/>
   <polygon class="fil22" points="56.25,9.69 55.43,9.22 56.25,8.74 57.07,9.22 "/>
   <polygon class="fil24" points="57.89,10.63 57.07,10.16 57.89,9.69 58.71,10.16 "/>
   <polygon class="fil25" points="59.52,11.58 58.71,11.11 59.52,10.63 60.34,11.11 "/>
   <polygon class="fil22" points="61.16,12.52 60.34,12.05 61.16,11.58 61.98,12.05 "/>
   <polygon class="fil25" points="62.8,13.47 61.98,13 62.8,12.52 63.62,13 "/>
   <polygon class="fil22" points="64.43,14.41 63.62,13.94 64.43,13.47 65.25,13.94 "/>
   <polygon class="fil22" points="66.07,15.36 65.25,14.89 66.07,14.41 66.89,14.89 "/>
   <polygon class="fil22" points="67.71,16.3 66.89,15.83 67.71,15.36 68.53,15.83 "/>
   <polygon class="fil24" points="69.34,17.25 68.53,16.78 69.34,16.3 70.16,16.78 "/>
   <polygon class="fil22" points="54.61,10.64 53.79,10.17 54.61,9.69 55.43,10.17 "/>
   <polygon class="fil22" points="56.24,11.58 55.43,11.11 56.24,10.64 57.06,11.11 "/>
   <polygon class="fil22" points="57.88,12.53 57.06,12.06 57.88,11.58 58.7,12.06 "/>
   <polygon class="fil22" points="59.52,13.47 58.7,13 59.52,12.53 60.34,13 "/>
   <polygon class="fil22" points="61.15,14.42 60.34,13.95 61.15,13.47 61.97,13.95 "/>
   <polygon class="fil22" points="62.79,15.36 61.97,14.89 62.79,14.42 63.61,14.89 "/>
   <polygon class="fil22" points="64.43,16.31 63.61,15.84 64.43,15.36 65.25,15.84 "/>
   <polygon class="fil22" points="66.06,17.25 65.25,16.78 66.06,16.31 66.88,16.78 "/>
   <polygon class="fil22" points="67.7,18.2 66.88,17.73 67.7,17.25 68.52,17.73 "/>
   <polygon class="fil22" points="52.96,11.59 52.15,11.11 52.96,10.64 53.78,11.11 "/>
   <polygon class="fil22" points="54.6,12.53 53.78,12.06 54.6,11.59 55.42,12.06 "/>
   <polygon class="fil22" points="56.24,13.48 55.42,13 56.24,12.53 57.06,13 "/>
   <polygon class="fil24" points="57.87,14.42 57.06,13.95 57.87,13.48 58.69,13.95 "/>
   <polygon class="fil25" points="59.51,15.37 58.69,14.89 59.51,14.42 60.33,14.89 "/>
   <polygon class="fil25" points="61.15,16.31 60.33,15.84 61.15,15.37 61.97,15.84 "/>
   <polygon class="fil22" points="62.78,17.26 61.97,16.78 62.78,16.31 63.6,16.78 "/>
   <polygon class="fil22" points="64.42,18.2 63.6,17.73 64.42,17.26 65.24,17.73 "/>
   <polygon class="fil22" points="66.06,19.15 65.24,18.67 66.06,18.2 66.88,18.67 "/>
   <polygon class="fil25" points="51.32,12.54 50.5,12.06 51.32,11.59 52.14,12.06 "/>
   <polygon class="fil25" points="52.96,13.48 52.14,13.01 52.96,12.54 53.78,13.01 "/>
   <polygon class="fil24" points="54.59,14.43 53.78,13.95 54.59,13.48 55.41,13.95 "/>
   <polygon class="fil22" points="56.23,15.37 55.41,14.9 56.23,14.43 57.05,14.9 "/>
   <polygon class="fil22" points="57.87,16.32 57.05,15.84 57.87,15.37 58.69,15.84 "/>
   <polygon class="fil22" points="59.5,17.26 58.69,16.79 59.5,16.32 60.32,16.79 "/>
   <polygon class="fil25" points="61.14,18.21 60.32,17.73 61.14,17.26 61.96,17.73 "/>
   <polygon class="fil22" points="62.78,19.15 61.96,18.68 62.78,18.21 63.6,18.68 "/>
   <polygon class="fil22" points="64.41,20.1 63.6,19.62 64.41,19.15 65.23,19.62 "/>
   <polygon class="fil22" points="49.68,13.48 48.86,13.01 49.68,12.54 50.5,13.01 "/>
   <polygon class="fil22" points="51.31,14.43 50.5,13.96 51.31,13.48 52.13,13.96 "/>
   <polygon class="fil22" points="52.95,15.37 52.13,14.9 52.95,14.43 53.77,14.9 "/>
   <polygon class="fil22" points="54.59,16.32 53.77,15.85 54.59,15.37 55.41,15.85 "/>
   <polygon class="fil22" points="56.22,17.26 55.41,16.79 56.22,16.32 57.04,16.79 "/>
   <polygon class="fil22" points="57.86,18.21 57.04,17.74 57.86,17.26 58.68,17.74 "/>
   <polygon class="fil22" points="59.5,19.15 58.68,18.68 59.5,18.21 60.32,18.68 "/>
   <polygon class="fil22" points="61.13,20.1 60.32,19.63 61.13,19.15 61.95,19.63 "/>
   <polygon class="fil22" points="62.77,21.04 61.95,20.57 62.77,20.1 63.59,20.57 "/>
   <polygon class="fil22" points="48.03,14.43 47.22,13.96 48.03,13.49 48.85,13.96 "/>
   <polygon class="fil22" points="49.67,15.38 48.85,14.91 49.67,14.43 50.49,14.91 "/>
   <polygon class="fil25" points="51.31,16.32 50.49,15.85 51.31,15.38 52.13,15.85 "/>
   <polygon class="fil22" points="52.94,17.27 52.13,16.8 52.94,16.32 53.76,16.8 "/>
   <polygon class="fil24" points="54.58,18.21 53.76,17.74 54.58,17.27 55.4,17.74 "/>
   <polygon class="fil22" points="56.22,19.16 55.4,18.69 56.22,18.21 57.04,18.69 "/>
   <polygon class="fil22" points="57.85,20.1 57.04,19.63 57.85,19.16 58.67,19.63 "/>
   <polygon class="fil22" points="59.49,21.05 58.67,20.58 59.49,20.1 60.31,20.58 "/>
   <polygon class="fil22" points="61.13,21.99 60.31,21.52 61.13,21.05 61.95,21.52 "/>
   <polygon class="fil22" points="46.39,15.38 45.57,14.91 46.39,14.44 47.21,14.91 "/>
   <polygon class="fil22" points="48.03,16.33 47.21,15.85 48.03,15.38 48.85,15.85 "/>
   <polygon class="fil25" points="49.66,17.27 48.85,16.8 49.66,16.33 50.48,16.8 "/>
   <polygon class="fil22" points="51.3,18.22 50.48,17.74 51.3,17.27 52.12,17.74 "/>
   <polygon class="fil22" points="52.94,19.16 52.12,18.69 52.94,18.22 53.76,18.69 "/>
   <polygon class="fil24" points="54.57,20.11 53.76,19.63 54.57,19.16 55.39,19.63 "/>
   <polygon class="fil25" points="56.21,21.05 55.39,20.58 56.21,20.11 57.03,20.58 "/>
   <polygon class="fil22" points="57.85,22 57.03,21.52 57.85,21.05 58.67,21.52 "/>
   <polygon class="fil24" points="59.48,22.94 58.67,22.47 59.48,22 60.3,22.47 "/>
   <polygon class="fil22" points="44.75,16.33 43.93,15.86 44.75,15.39 45.57,15.86 "/>
   <polygon class="fil25" points="46.39,17.28 45.57,16.8 46.38,16.33 47.2,16.8 "/>
   <polygon class="fil22" points="48.02,18.22 47.2,17.75 48.02,17.28 48.84,17.75 "/>
   <polygon class="fil22" points="49.66,19.17 48.84,18.69 49.66,18.22 50.48,18.69 "/>
   <polygon class="fil22" points="51.29,20.11 50.48,19.64 51.29,19.17 52.11,19.64 "/>
   <polygon class="fil22" points="52.93,21.06 52.11,20.58 52.93,20.11 53.75,20.58 "/>
   <polygon class="fil22" points="54.57,22 53.75,21.53 54.57,21.06 55.39,21.53 "/>
   <polygon class="fil25" points="56.2,22.95 55.39,22.47 56.2,22 57.02,22.47 "/>
   <polygon class="fil22" points="57.84,23.89 57.02,23.42 57.84,22.95 58.66,23.42 "/>
   <polygon class="fil22" points="43.1,17.28 42.29,16.81 43.1,16.33 43.92,16.81 "/>
   <polygon class="fil24" points="44.74,18.22 43.92,17.75 44.74,17.28 45.56,17.75 "/>
   <polygon class="fil22" points="46.38,19.17 45.56,18.7 46.38,18.22 47.2,18.7 "/>
   <polygon class="fil22" points="48.01,20.11 47.2,19.64 48.01,19.17 48.83,19.64 "/>
   <polygon class="fil22" points="49.65,21.06 48.83,20.59 49.65,20.11 50.47,20.59 "/>
   <polygon class="fil22" points="51.29,22 50.47,21.53 51.29,21.06 52.11,21.53 "/>
   <polygon class="fil25" points="52.92,22.95 52.11,22.48 52.92,22 53.74,22.48 "/>
   <polygon class="fil22" points="54.56,23.89 53.74,23.42 54.56,22.95 55.38,23.42 "/>
   <polygon class="fil22" points="56.2,24.84 55.38,24.37 56.2,23.89 57.02,24.37 "/>
   <path class="fil26" d="M83.97 77.06c-0.45,0 -0.89,-0.12 -1.27,-0.34l-14.64 -8.45c-0.23,-0.13 -0.37,-0.37 -0.37,-0.64 0,-0.26 0.14,-0.5 0.37,-0.63l26.5 -15.3c0.02,-0.01 0.05,-0.02 0.07,-0.02 0.02,0 0.05,0.01 0.07,0.02l15.84 9.15c0.23,0.13 0.37,0.37 0.37,0.63 0,0.27 -0.14,0.5 -0.37,0.64l-25.3 14.61c-0.38,0.22 -0.82,0.34 -1.27,0.34zm10.65 -25.07l-26.42 15.26c-0.14,0.08 -0.22,0.22 -0.22,0.38 0,0.16 0.08,0.3 0.22,0.38l14.64 8.45c0.34,0.2 0.73,0.3 1.13,0.3 0.39,0 0.79,-0.1 1.13,-0.3l25.3 -14.61c0.14,-0.08 0.22,-0.22 0.22,-0.38 0,-0.16 -0.08,-0.3 -0.22,-0.38l-15.77 -9.1z"/>
   <path class="fil27" d="M62.13 41.52c0,-0 0,-0 0,-0 0,0 0,0 0,0zm28.74 -17.03l-0 0 -0 0 -0 0c-0.06,0 -0.13,0.02 -0.2,0.06l-28.17 16.26c-0.23,0.13 -0.4,0.47 -0.37,0.71 -0.02,-0.1 0.01,-0.23 0.06,-0.34l0.46 0.2 0 0c0.07,-0.13 0.17,-0.25 0.28,-0.32l28.17 -16.26c0.07,-0.04 0.14,-0.06 0.2,-0.06 0.04,0 0.07,0.01 0.11,0.02l-0.42 -0.24 0 0c-0.04,-0.02 -0.08,-0.04 -0.13,-0.04zm-28.74 17.03c0,-0 -0,-0 -0,-0 0,0 0,0 0,0z"/>
   <path class="fil28" d="M66.23 63.05l-0.4 -0.23 0 0c-0.08,-0.03 -0.13,-0.1 -0.15,-0.21l-3.55 -21.08c-0,-0 -0,-0 -0,-0 0,-0 0,-0 0,-0 -0,-0 -0,-0 -0,-0 0,-0 -0,-0 -0,-0 -0.02,-0.1 0.01,-0.23 0.06,-0.34l0.46 0.2c-0.07,0.13 -0.1,0.28 -0.08,0.4l3.55 21.08c0.02,0.09 0.05,0.16 0.11,0.2z"/>
   <path class="fil7" d="M94.73 46.76l-28.17 16.26c-0.22,0.13 -0.4,0.05 -0.44,-0.17l-3.55 -21.08c-0.04,-0.24 0.13,-0.58 0.37,-0.72l28.17 -16.26c0.22,-0.13 0.4,-0.05 0.44,0.17l3.55 21.08c0.04,0.24 -0.13,0.58 -0.37,0.72z"/>
   <path class="fil20" d="M94.08 46l-0.03 -0.17 -15.98 -9.23c-0.12,-0.07 -0.28,-0.1 -0.45,-0.1 -0.2,0 -0.42,0.05 -0.58,0.15l-13.05 7.54 -0.4 -2.36 27.15 -15.68 3.35 19.86z"/>
   <path class="fil29" d="M112.43 56.74l-1.54 0.8 -15.41 -8.9c-0.26,-0.15 -0.71,-0.13 -1.01,0.04l-26.58 15.35c-0.25,-0.14 -1.41,-0.7 -1.41,-0.7l0.56 1.47 0 -0c0.02,0.07 0.07,0.13 0.16,0.17l16.23 9.37c0.26,0.15 0.71,0.13 1.01,-0.04l27.2 -15.71c0.12,-0.07 0.2,-0.16 0.23,-0.24l0 0 0.56 -1.62z"/>
   <path class="fil30" d="M112.2 56.99l-27.88 16.1c-0.31,0.18 -0.77,0.2 -1.03,0.04l-16.64 -9.61c-0.26,-0.15 -0.23,-0.42 0.07,-0.6l27.88 -16.1c0.31,-0.18 0.77,-0.2 1.03,-0.04l16.64 9.61c0.26,0.15 0.23,0.42 -0.07,0.6z"/>
   <path class="fil3" d="M112.2 56.83l-27.88 16.1c-0.31,0.18 -0.77,0.2 -1.03,0.04l-16.64 -9.61c-0.09,-0.05 -0.14,-0.11 -0.16,-0.18 -0.04,0.13 0.01,0.25 0.16,0.34l16.64 9.61c0.26,0.15 0.73,0.13 1.03,-0.04l27.88 -16.1c0.21,-0.12 0.28,-0.28 0.24,-0.42 -0.03,0.09 -0.11,0.18 -0.24,0.25z"/>
   <path class="fil4" d="M75.91 69.61l0 -0.31c0,-0.03 0.02,-0.04 0.04,-0.03l1.08 0.62c0.02,0.01 0.04,0.05 0.04,0.08l0 0.31c0,0.03 -0.02,0.04 -0.04,0.03l-1.08 -0.62c-0.02,-0.01 -0.04,-0.05 -0.04,-0.08z"/>
   <path class="fil4" d="M77.52 70.54l0 -0.31c0,-0.03 0.02,-0.04 0.04,-0.03l1.08 0.62c0.02,0.01 0.04,0.05 0.04,0.08l0 0.31c0,0.03 -0.02,0.04 -0.04,0.03l-1.08 -0.62c-0.02,-0.01 -0.04,-0.05 -0.04,-0.08z"/>
   <path class="fil5" d="M70.99 62.63l23.17 -13.38c0.15,-0.09 0.34,-0.09 0.5,0l8.25 4.77c0.12,0.07 0.12,0.24 -0,0.31l-23.16 13.37c-0.15,0.09 -0.34,0.09 -0.5,0l-8.26 -4.77c-0.12,-0.07 -0.12,-0.24 0,-0.31z"/>
   <path class="fil6" d="M70.99 62.93l0.08 0.05 23.09 -13.33c0.15,-0.09 0.34,-0.09 0.5,0l8.17 4.73 0.08 -0.05c0.12,-0.07 0.12,-0.24 0,-0.31l-8.25 -4.77c-0.15,-0.09 -0.34,-0.09 -0.5,0l-23.17 13.38c-0.12,0.07 -0.12,0.24 0,0.31z"/>
   <polygon class="fil7" points="95.28,50.46 75.15,62.08 74.26,61.56 94.38,49.94 "/>
   <polygon class="fil7" points="97.47,51.73 78.59,62.62 77.7,62.11 96.58,51.21 "/>
   <polygon class="fil7" points="98.9,52.55 76.67,65.38 75.78,64.87 98,52.03 "/>
   <polygon class="fil7" points="100.33,53.38 78.1,66.21 77.21,65.69 99.43,52.86 "/>
   <polygon class="fil7" points="101.76,54.2 79.53,67.03 78.64,66.52 100.86,53.68 "/>
   <polygon class="fil7" points="73.93,62.78 73.04,63.3 72.15,62.78 73.04,62.26 "/>
   <polygon class="fil7" points="77.09,63.49 75.23,64.56 74.34,64.05 76.2,62.98 "/>
   <path class="fil31" d="M95.05 65.86l6.25 -3.61c0.24,-0.14 0.24,-0.37 0,-0.51l-4.27 -2.47c-0.24,-0.14 -0.64,-0.14 -0.88,0l-6.25 3.61c-0.24,0.14 -0.24,0.37 0,0.51l4.27 2.47c0.24,0.14 0.64,0.14 0.88,0z"/>
   <path class="fil6" d="M89.89 63.1l6.25 -3.61c0.24,-0.14 0.64,-0.14 0.88,0l4.27 2.47c0.08,0.04 0.12,0.1 0.15,0.15 0.06,-0.12 0.02,-0.26 -0.15,-0.36l-4.27 -2.47c-0.24,-0.14 -0.64,-0.14 -0.88,0l-6.25 3.61c-0.17,0.1 -0.22,0.24 -0.15,0.36 0.03,-0.06 0.08,-0.11 0.15,-0.15z"/>
   <path class="fil32" d="M65.02 50.33l0.21 1.26 16.69 -9.64c0.08,-0.04 0.16,-0.07 0.25,-0.07 0.09,0 0.17,0.02 0.25,0.07l8.25 4.77c0.06,0.03 0.09,0.09 0.09,0.15 0,0.06 -0.03,0.12 -0.09,0.15l-23.16 13.37c-0.08,0.04 -0.16,0.07 -0.25,0.07 -0.09,0 -0.17,-0.02 -0.25,-0.07l-0.32 -0.19 0.25 1.46 27.13 -15.66 -0.03 -0.17 -15.98 -9.23c-0.12,-0.07 -0.28,-0.1 -0.45,-0.1 -0.2,0 -0.42,0.05 -0.58,0.15l-13.05 7.54 0.17 1.01 3.6 -2.08c0.12,-0.07 0.28,-0.11 0.44,-0.11 0.16,0 0.32,0.04 0.44,0.11l4.27 2.47c0,0 0,0 0,0 0,0 0,0 0,0 0,0 0,0 0,0 0,0 0,0 0,0 0.24,0.14 0.23,0.37 -0.01,0.51l-6.25 3.61c-0.12,0.07 -0.28,0.11 -0.44,0.11 -0.16,0 -0.32,-0.04 -0.44,-0.11l-0.96 -0.55 0.2 1.19z"/>
   <path class="fil33" d="M66.22 49.79l0.01 0 0.01 0c0.16,-0 0.31,-0.04 0.43,-0.11l6.25 -3.61c0.24,-0.14 0.24,-0.36 0.01,-0.51 0.16,0.1 0.21,0.23 0.15,0.35 -0.03,-0.06 -0.08,-0.11 -0.15,-0.15l-4.27 -2.47c-0.12,-0.07 -0.28,-0.11 -0.44,-0.11 -0.16,0 -0.32,0.04 -0.44,0.11l-3.57 2.06 0.64 3.76 0.96 0.55c0.12,0.07 0.28,0.1 0.43,0.11zm6.7 -4.22c-0,-0 -0,-0 -0,-0 0,0 0,0 0,0z"/>
   <path class="fil34" d="M72.92 45.57c-0,-0 -0,-0 -0,-0l-4.27 -2.47c-0.12,-0.07 -0.28,-0.11 -0.44,-0.11 -0.16,0 -0.32,0.04 -0.44,0.11l-3.6 2.08 3.6 -2.08c0.12,-0.07 0.28,-0.11 0.44,-0.11 0.16,0 0.32,0.04 0.44,0.11l4.27 2.47c0,0 0,0 0,0z"/>
   <path class="fil35" d="M73.07 45.93c-0.03,-0.06 -0.08,-0.11 -0.15,-0.15l-4.27 -2.47c-0.12,-0.07 -0.28,-0.11 -0.44,-0.11 -0.16,0 -0.32,0.04 -0.44,0.11l-3.57 2.06 -0.03 -0.19 3.6 -2.08c0.12,-0.07 0.28,-0.11 0.44,-0.11 0.16,0 0.32,0.04 0.44,0.11l4.27 2.47c0,0 0,0 0,0 0,0 0,0 0,0 0,0 0,0 0,0 0,0 0,0 0,0 0.16,0.1 0.21,0.23 0.15,0.35z"/>
   <g>
    <path class="fil36" d="M67.28 60.47c-0.09,0 -0.17,-0.02 -0.25,-0.07l-0.32 -0.19 -0.09 -0.52 -0.01 -0.08 0.31 0.18 1.25 -0.72 -0.8 -0.46 -0.85 0.49 0.76 1.36zm-1 -2.76l0.3 -0.17 -0.37 -0.21 -0.07 -0.4 -0.1 -0.62 19.82 -11.45 -0.8 -0.46 -19.17 11.07 -0.03 -0.16 -0.07 -0.4 18.73 -10.81 -0.8 -0.46 -18.07 10.43 -0.04 -0.24 -0.05 -0.32 17.63 -10.18 -0.8 -0.46 -16.98 9.8 -0.12 -0.71 16.63 -9.6c0.08,-0.04 0.16,-0.07 0.25,-0.07 0.09,0 0.17,0.02 0.25,0.07l8.17 4.73 0.08 -0.05 -23.16 13.37c-0.08,0.04 -0.16,0.07 -0.25,0.07l-1 -2.76zm0 0l0.23 1.34 -0.23 -1.34zm22.25 -11.31l-20.18 11.65 0.8 0.46 20.18 -11.65 -0.8 -0.46zm-2.13 -1.23l-19.18 11.08 0.8 0.46 19.18 -11.08 -0.8 -0.46z"/>
   </g>
   <path class="fil35" d="M65.3 51.95l-0.06 -0.37 0 0 16.69 -9.64c0.08,-0.04 0.16,-0.07 0.25,-0.07 0.09,0 0.17,0.02 0.25,0.07l8.25 4.77c0.06,0.03 0.09,0.09 0.09,0.15 0,0.06 -0.03,0.12 -0.09,0.15l-0.08 0.05 -8.17 -4.73c-0.08,-0.04 -0.16,-0.07 -0.25,-0.07 -0.09,0 -0.17,0.02 -0.25,0.07l-16.63 9.6z"/>
   <polygon class="fil37" points="69.14,58.51 68.34,58.05 88.52,46.4 89.32,46.86 "/>
   <polygon class="fil37" points="68.01,56.71 67.21,56.24 86.4,45.17 87.2,45.63 "/>
   <polygon class="fil37" points="66.21,57.32 66.58,57.53 66.28,57.71 "/>
   <polygon class="fil37" points="66.91,59.79 66.6,59.61 66.51,59.1 67.36,58.61 68.16,59.07 "/>
   <polygon class="fil37" points="66.04,56.31 65.9,55.46 85.06,44.4 85.86,44.86 "/>
   <polygon class="fil37" points="65.66,54.06 83.73,43.63 84.53,44.09 65.8,54.9 "/>
   <polygon class="fil37" points="65.56,53.5 65.42,52.66 82.4,42.86 83.2,43.32 "/>
   <polygon class="fil22" points="73.81,54.1 76,52.83 76.07,53.21 73.87,54.48 "/>
   <polygon class="fil22" points="76.36,52.63 77.55,51.94 77.62,52.32 76.42,53.01 "/>
   <polygon class="fil22" points="79.41,50.86 80.28,50.36 80.34,50.74 79.48,51.24 "/>
   <polygon class="fil22" points="78.78,51.23 79.08,51.06 79.14,51.44 78.85,51.61 "/>
   <polygon class="fil22" points="77.91,51.73 78.45,51.42 78.51,51.8 77.97,52.11 "/>
   <polygon class="fil22" points="75.54,51.18 76.41,50.68 76.47,51.06 75.61,51.56 "/>
   <polygon class="fil22" points="73.51,52.36 75.21,51.38 75.27,51.76 73.58,52.74 "/>
   <polygon class="fil22" points="75.94,46.18 77.64,45.2 77.7,45.58 76.01,46.56 "/>
   <polygon class="fil22" points="75.07,46.68 75.61,46.37 75.67,46.75 75.13,47.06 "/>
   <polygon class="fil22" points="76.23,47.92 77.92,46.94 77.99,47.32 76.29,48.3 "/>
   <polygon class="fil22" points="75.35,48.43 75.89,48.11 75.96,48.5 75.42,48.81 "/>
   <polygon class="fil22" points="74.69,38.65 71.49,40.49 71.43,40.11 74.63,38.26 "/>
   <polygon class="fil22" points="75.82,37.99 75.03,38.45 74.96,38.07 75.75,37.61 "/>
   <polygon class="fil22" points="81.43,37.62 78.24,39.47 78.17,39.09 81.37,37.24 "/>
   <polygon class="fil22" points="82.56,36.97 81.77,37.43 81.71,37.05 82.5,36.59 "/>
   <polygon class="fil22" points="72.51,40.86 71.64,41.36 71.58,40.98 72.44,40.48 "/>
   <polygon class="fil22" points="77.78,39.73 76.91,40.23 76.85,39.85 77.71,39.35 "/>
   <polygon class="fil22" points="74.54,39.69 72.84,40.67 72.78,40.29 74.48,39.31 "/>
   <polygon class="fil22" points="75.41,39.18 74.88,39.49 74.81,39.11 75.35,38.8 "/>
   <polygon class="fil22" points="77.46,38 75.76,38.98 75.7,38.6 77.4,37.62 "/>
   <polygon class="fil22" points="78.33,37.5 77.8,37.81 77.73,37.43 78.27,37.12 "/>
   <polygon class="fil22" points="77.63,38.86 76.76,39.36 76.7,38.98 77.56,38.48 "/>
   <polygon class="fil22" points="79.66,37.69 77.96,38.67 77.9,38.29 79.6,37.31 "/>
   <polygon class="fil22" points="80.53,37.18 80,37.49 79.93,37.11 80.47,36.8 "/>
   <polygon class="fil22" points="73.56,41.21 71.79,42.24 71.72,41.85 73.5,40.83 "/>
   <polygon class="fil22" points="75.18,40.28 73.9,41.02 73.83,40.64 75.11,39.9 "/>
   <polygon class="fil22" points="76.38,39.58 75.51,40.08 75.45,39.7 76.31,39.2 "/>
   <polygon class="fil22" points="84.78,35.7 83.01,36.72 82.94,36.34 84.71,35.31 "/>
   <polygon class="fil22" points="86.39,34.76 85.11,35.5 85.05,35.12 86.33,34.38 "/>
   <polygon class="fil22" points="87.6,34.07 86.73,34.57 86.67,34.19 87.53,33.68 "/>
   <polygon class="fil22" points="84.09,47.21 85.86,46.18 85.92,46.57 84.15,47.59 "/>
   <polygon class="fil22" points="82.47,48.14 83.75,47.4 83.81,47.78 82.53,48.52 "/>
   <polygon class="fil22" points="81.27,48.84 82.13,48.34 82.2,48.72 81.33,49.22 "/>
   <polygon class="fil22" points="83.5,48.51 85.27,47.48 85.33,47.87 83.56,48.89 "/>
   <polygon class="fil22" points="81.88,49.44 83.16,48.7 83.23,49.08 81.95,49.82 "/>
   <polygon class="fil22" points="80.68,50.14 81.55,49.64 81.61,50.02 80.74,50.52 "/>
   <polygon class="fil22" points="76.34,46.9 76.94,46.55 77.01,46.93 76.41,47.28 "/>
   <polygon class="fil22" points="75.22,47.55 76.01,47.09 76.07,47.47 75.28,47.93 "/>
   <polygon class="fil22" points="73.72,42.08 71.95,43.1 71.88,42.72 73.65,41.7 "/>
   <polygon class="fil22" points="75.34,41.14 74.06,41.88 73.99,41.5 75.27,40.76 "/>
   <polygon class="fil22" points="76.54,40.45 75.67,40.95 75.61,40.57 76.47,40.07 "/>
   <polygon class="fil22" points="72.69,43.63 72.09,43.97 72.03,43.59 72.63,43.25 "/>
   <polygon class="fil22" points="73.82,42.98 73.03,43.43 72.96,43.05 73.76,42.59 "/>
   <polygon class="fil22" points="75.43,42.05 74.16,42.78 74.09,42.4 75.37,41.66 "/>
   <polygon class="fil22" points="77.16,49.3 77.76,48.95 77.82,49.33 77.22,49.68 "/>
   <polygon class="fil22" points="76.03,49.95 76.82,49.49 76.89,49.87 76.1,50.33 "/>
   <polygon class="fil22" points="74.42,50.88 75.7,50.14 75.76,50.53 74.49,51.26 "/>
   <polygon class="fil22" points="78.07,47.88 79.34,47.15 79.41,47.53 78.13,48.27 "/>
   <polygon class="fil22" points="75.98,49.02 77.7,48.03 77.77,48.41 76.05,49.4 "/>
   <polygon class="fil22" points="75.11,49.52 75.65,49.21 75.71,49.6 75.18,49.91 "/>
   <polygon class="fil22" points="74.27,50.01 74.81,49.7 74.88,50.08 74.34,50.39 "/>
   <polygon class="fil22" points="74.39,45.09 76.09,44.11 76.15,44.49 74.45,45.47 "/>
   <polygon class="fil22" points="73.52,45.59 74.05,45.28 74.12,45.66 73.58,45.97 "/>
   <polygon class="fil22" points="74.51,44.06 75.1,43.72 75.17,44.1 74.57,44.44 "/>
   <polygon class="fil22" points="76.62,44.76 77.22,44.41 77.28,44.79 76.68,45.14 "/>
   <polygon class="fil22" points="77.47,44.27 78.91,43.44 78.97,43.82 77.54,44.65 "/>
   <polygon class="fil22" points="79.16,43.29 80.02,42.8 80.08,43.18 79.23,43.67 "/>
   <polygon class="fil22" points="73.38,44.71 74.17,44.26 74.23,44.64 73.44,45.09 "/>
   <polygon class="fil22" points="73.3,43.82 73.9,43.47 73.97,43.85 73.37,44.2 "/>
   <polygon class="fil22" points="72.18,44.47 72.97,44.01 73.03,44.39 72.24,44.85 "/>
   <polygon class="fil22" points="75.75,45.26 76.29,44.95 76.35,45.33 75.81,45.64 "/>
   <polygon class="fil22" points="74.91,45.74 75.45,45.43 75.51,45.82 74.98,46.13 "/>
   <polygon class="fil22" points="79.04,50.12 80.87,49.06 80.94,49.45 79.1,50.51 "/>
   <polygon class="fil22" points="76.99,51.31 78.7,50.32 78.77,50.7 77.05,51.69 "/>
   <polygon class="fil22" points="76.11,51.81 76.65,51.5 76.72,51.89 76.18,52.2 "/>
   <polygon class="fil22" points="75.28,52.3 75.81,51.99 75.88,52.37 75.34,52.68 "/>
   <polygon class="fil22" points="74.82,52.56 73.66,53.23 73.72,53.62 74.88,52.95 "/>
   <path class="fil38" d="M28.48 77.06c-0.45,0 -0.89,-0.12 -1.27,-0.34l-25.3 -14.61c-0.23,-0.13 -0.37,-0.37 -0.37,-0.64 0,-0.27 0.14,-0.5 0.37,-0.63l15.84 -9.15c0.02,-0.01 0.05,-0.02 0.07,-0.02 0.02,0 0.05,0.01 0.07,0.02l26.5 15.3c0.23,0.13 0.37,0.37 0.37,0.63 0,0.27 -0.14,0.5 -0.37,0.64l-14.64 8.45c-0.38,0.22 -0.82,0.34 -1.27,0.34zm-10.65 -25.07l-0.05 0.03 -15.72 9.08c-0.14,0.08 -0.22,0.22 -0.22,0.38 0,0.16 0.08,0.3 0.22,0.38l25.3 14.61c0.34,0.2 0.73,0.29 1.13,0.29 0.39,0 0.79,-0.1 1.13,-0.29l14.64 -8.45c0.14,-0.08 0.22,-0.22 0.22,-0.38 0,-0.16 -0.08,-0.3 -0.22,-0.38l-26.42 -15.26z"/>
   <path class="fil39" d="M50.32 41.52c0,-0 0,-0 0,-0 0,0 0,0 0,0zm-28.73 -17.03l-0 0 -0 0 -0 0c-0.05,0 -0.09,0.01 -0.13,0.04l0 -0 -0.42 0.24c0.03,-0.02 0.07,-0.02 0.11,-0.02 0.06,0 0.13,0.02 0.2,0.06l28.17 16.26c0.12,0.07 0.22,0.19 0.29,0.32l0.46 -0.2c0.05,0.12 0.08,0.24 0.06,0.34 0.04,-0.24 -0.14,-0.58 -0.37,-0.71l-17.9 -10.34 -0.16 -0.09 -10.11 -5.84c-0.07,-0.04 -0.14,-0.06 -0.2,-0.06zm28.73 17.03c0,-0 0,-0 0,-0 0,0 -0,0 -0,0z"/>
   <path class="fil40" d="M46.22 63.05c0.06,-0.04 0.1,-0.1 0.11,-0.2l3.55 -21.08c0.02,-0.12 -0.01,-0.26 -0.08,-0.4l0 -0 0.46 -0.2c0.05,0.12 0.08,0.24 0.06,0.34 0,0 -0,0 -0,0 0,0 -0,0 -0,0 0,0 0,0 0,0 -0,0 -0,0 -0,0l-3.55 21.08c-0.02,0.11 -0.07,0.18 -0.15,0.21l0 0 -0.41 0.23z"/>
   <path class="fil7" d="M17.72 46.76l28.17 16.26c0.22,0.13 0.4,0.05 0.44,-0.17l3.55 -21.08c0.04,-0.24 -0.13,-0.58 -0.37,-0.72l-28.17 -16.26c-0.22,-0.13 -0.4,-0.05 -0.44,0.17l-3.55 21.08c-0.04,0.24 0.13,0.58 0.37,0.72z"/>
   <path class="fil20" d="M18.37 46l0 0 3.35 -19.86 27.15 15.68 -0.4 2.36 -13.05 -7.54c-0.17,-0.1 -0.38,-0.15 -0.58,-0.15 -0.17,0 -0.33,0.03 -0.45,0.1l-15.98 9.23 -0.03 0.17z"/>
   <path class="fil41" d="M0.01 56.74l1.54 0.8 15.41 -8.9c0.26,-0.15 0.71,-0.13 1.01,0.04l26.58 15.35c0.25,-0.14 1.41,-0.7 1.41,-0.7l-0.56 1.47 -0 -0c-0.02,0.07 -0.07,0.13 -0.16,0.17l-16.23 9.37c-0.26,0.15 -0.71,0.13 -1.01,-0.04l-27.2 -15.71c-0.12,-0.07 -0.2,-0.16 -0.23,-0.24l-0 0 -0.56 -1.62z"/>
   <path class="fil42" d="M0.25 56.99l27.88 16.1c0.31,0.18 0.77,0.2 1.03,0.04l16.64 -9.61c0.26,-0.15 0.23,-0.42 -0.07,-0.6l-27.88 -16.1c-0.31,-0.18 -0.77,-0.2 -1.03,-0.04l-16.64 9.61c-0.26,0.15 -0.23,0.42 0.07,0.6z"/>
   <path class="fil3" d="M0.25 56.83l27.88 16.1c0.31,0.18 0.77,0.2 1.03,0.04l16.64 -9.61c0.09,-0.05 0.14,-0.11 0.16,-0.18 0.04,0.13 -0.01,0.25 -0.16,0.34l-16.64 9.61c-0.26,0.15 -0.73,0.13 -1.03,-0.04l-27.88 -16.1c-0.21,-0.12 -0.28,-0.28 -0.24,-0.42 0.03,0.09 0.11,0.18 0.24,0.25z"/>
   <path class="fil4" d="M36.54 69.61l0 -0.31c0,-0.03 -0.02,-0.04 -0.04,-0.03l-1.08 0.62c-0.02,0.01 -0.04,0.05 -0.04,0.08l0 0.31c0,0.03 0.02,0.04 0.04,0.03l1.08 -0.62c0.02,-0.01 0.04,-0.05 0.04,-0.08z"/>
   <path class="fil4" d="M34.93 70.54l0 -0.31c0,-0.03 -0.02,-0.04 -0.04,-0.03l-1.08 0.62c-0.02,0.01 -0.04,0.05 -0.04,0.08l0 0.31c0,0.03 0.02,0.04 0.04,0.03l1.08 -0.62c0.02,-0.01 0.04,-0.05 0.04,-0.08z"/>
   <path class="fil5" d="M41.46 62.63l-23.17 -13.38c-0.15,-0.09 -0.34,-0.09 -0.5,0l-8.25 4.77c-0.12,0.07 -0.12,0.24 0,0.31l23.16 13.37c0.15,0.09 0.34,0.09 0.5,0l8.26 -4.77c0.12,-0.07 0.12,-0.24 0,-0.31z"/>
   <path class="fil6" d="M41.46 62.93l-0.08 0.05 -23.09 -13.33c-0.15,-0.09 -0.34,-0.09 -0.5,0l-8.17 4.73 -0.08 -0.05c-0.12,-0.07 -0.12,-0.24 -0,-0.31l8.25 -4.77c0.15,-0.09 0.34,-0.09 0.5,0l23.17 13.38c0.12,0.07 0.12,0.24 0,0.31z"/>
   <polygon class="fil7" points="19.11,51.58 38.72,62.9 39.57,62.36 20.01,51.06 "/>
   <polygon class="fil7" points="17.84,53.38 35.64,63.66 36.25,62.98 18.73,52.86 "/>
   <polygon class="fil7" points="13.55,52.55 35.78,65.38 36.67,64.87 14.45,52.03 "/>
   <polygon class="fil7" points="12.12,53.38 34.35,66.21 35.24,65.69 13.02,52.86 "/>
   <polygon class="fil7" points="10.69,54.2 32.92,67.03 33.81,66.52 11.59,53.68 "/>
   <polygon class="fil7" points="38.51,62.78 39.41,63.3 40.3,62.78 39.41,62.26 "/>
   <polygon class="fil7" points="35.36,63.49 37.22,64.56 38.11,64.05 36.25,62.98 "/>
   <path class="fil43" d="M17.4 65.86l-6.25 -3.61c-0.24,-0.14 -0.24,-0.37 0,-0.51l4.27 -2.47c0.24,-0.14 0.64,-0.14 0.88,0l6.25 3.61c0.24,0.14 0.24,0.37 0,0.51l-4.27 2.47c-0.24,0.14 -0.64,0.14 -0.88,0z"/>
   <path class="fil6" d="M22.56 63.1l-6.25 -3.61c-0.24,-0.14 -0.64,-0.14 -0.88,0l-4.27 2.47c-0.08,0.04 -0.12,0.1 -0.15,0.15 -0.06,-0.12 -0.02,-0.26 0.15,-0.36l4.27 -2.47c0.24,-0.14 0.64,-0.14 0.88,0l6.25 3.61c0.17,0.1 0.22,0.24 0.15,0.36 -0.03,-0.06 -0.08,-0.11 -0.15,-0.15z"/>
   <path class="fil44" d="M48.47 44.18l-0.12 0.73 -0.05 0.27 -3.6 -2.08c-0.12,-0.07 -0.28,-0.11 -0.44,-0.11 -0.16,0 -0.32,0.04 -0.44,0.11l-4.27 2.47c-0,0 -0,0 -0,0 -0,0 -0,0 -0,0 -0.24,0.14 -0.24,0.37 0,0.51l6.25 3.61c0.12,0.07 0.28,0.11 0.44,0.11 0.16,0 0.32,-0.04 0.44,-0.11l0.96 -0.55 -0.16 0.95 -0.26 1.5 -16.69 -9.64c-0.08,-0.04 -0.16,-0.07 -0.25,-0.07 -0.09,0 -0.17,0.02 -0.25,0.07l-8.25 4.77c-0.06,0.03 -0.09,0.09 -0.09,0.15 0,0.06 0.03,0.12 0.09,0.15l23.16 13.37c0.08,0.04 0.16,0.07 0.25,0.07 0.09,0 0.17,-0.02 0.25,-0.07l0.32 -0.19 -0.25 1.46 -27.13 -15.66 0.03 -0.17 15.98 -9.23c0.12,-0.07 0.28,-0.1 0.45,-0.1 0.2,0 0.42,0.05 0.58,0.15l13.05 7.54z"/>
   <path class="fil45" d="M46.22 49.79l0.01 0 0.01 0c0.16,-0 0.31,-0.04 0.43,-0.11l0.96 -0.55 0.64 -3.76 -3.57 -2.06c-0.12,-0.07 -0.28,-0.11 -0.44,-0.11 -0.16,0 -0.32,0.04 -0.44,0.11l-4.27 2.47c-0.08,0.04 -0.12,0.1 -0.15,0.15 -0.06,-0.12 -0.02,-0.26 0.15,-0.36 -0.24,0.14 -0.24,0.37 0,0.51l6.25 3.61c0.12,0.07 0.28,0.1 0.43,0.11z"/>
   <path class="fil46" d="M39.53 45.57c0,-0 0,-0 0,-0l4.27 -2.47c0.12,-0.07 0.28,-0.11 0.44,-0.11 0.16,0 0.32,0.04 0.44,0.11l3.6 2.08 -3.6 -2.08c-0.12,-0.07 -0.28,-0.11 -0.44,-0.11 -0.16,0 -0.32,0.04 -0.44,0.11l-4.27 2.47c-0,0 -0,0 -0,0z"/>
   <path class="fil35" d="M39.38 45.93c-0.06,-0.12 -0.02,-0.26 0.15,-0.36 0,-0 0,-0 0,-0 0,-0 0,-0 0,-0l4.27 -2.47c0.12,-0.07 0.28,-0.11 0.44,-0.11 0.16,0 0.32,0.04 0.44,0.11l3.6 2.08 -0.01 0.03 -0.03 0.16 -3.57 -2.06c-0.12,-0.07 -0.28,-0.11 -0.44,-0.11 -0.16,0 -0.32,0.04 -0.44,0.11l-4.27 2.47c-0.08,0.04 -0.12,0.1 -0.15,0.15z"/>
   <path class="fil36" d="M45.17 60.47c-0.09,0 -0.17,-0.02 -0.25,-0.07l-23.16 -13.37 0.08 0.05 8.17 -4.73c0.08,-0.04 0.16,-0.07 0.25,-0.07 0.09,0 0.17,0.02 0.25,0.07l16.63 9.6 -0.12 0.71 -16.98 -9.8 -0.8 0.46 17.63 10.18 -0.02 0.14 -0.07 0.42 -18.07 -10.43 -0.8 0.46 18.73 10.81 0 0 -0.1 0.56 -19.17 -11.07 -0.8 0.46 19.82 11.45 -0.02 0.12 -0.15 0.89 -0.37 0.21 0.3 0.17 -0.18 1.08 -0.05 0.31 -0.85 -0.49 -0.8 0.46 1.25 0.72 0.31 -0.18 -0 0.03 -0.1 0.57 -0.32 0.19c-0.08,0.04 -0.16,0.07 -0.25,0.07zm-21.25 -14.07l-0.8 0.46 20.18 11.65 0.8 -0.46 -20.18 -11.65zm2.13 -1.23l-0.8 0.46 19.18 11.08 0.8 -0.46 -19.18 -11.08z"/>
   <path class="fil35" d="M47.15 51.95l-16.63 -9.6c-0.08,-0.04 -0.16,-0.07 -0.25,-0.07 -0.09,0 -0.17,0.02 -0.25,0.07l-8.17 4.73 -0.08 -0.05c-0.06,-0.03 -0.09,-0.09 -0.09,-0.15 0,-0.06 0.03,-0.12 0.09,-0.15l8.25 -4.77c0.08,-0.04 0.16,-0.07 0.25,-0.07 0.09,0 0.17,0.02 0.25,0.07l16.69 9.64 -0.03 0.16 -0.03 0.2z"/>
   <polygon class="fil37" points="43.31,58.51 23.13,46.86 23.93,46.4 44.11,58.05 "/>
   <polygon class="fil37" points="44.44,56.71 25.25,45.63 26.05,45.17 45.24,56.24 "/>
   <polygon class="fil37" points="46.17,57.71 45.87,57.53 46.24,57.32 "/>
   <polygon class="fil37" points="45.54,59.79 44.29,59.07 45.09,58.61 45.94,59.1 45.85,59.61 "/>
   <polygon class="fil37" points="46.41,56.31 26.59,44.86 27.39,44.4 46.55,55.46 "/>
   <polygon class="fil37" points="46.65,54.9 27.92,44.09 28.72,43.63 46.79,54.06 "/>
   <polygon class="fil37" points="46.89,53.5 29.25,43.32 30.05,42.86 47.03,52.66 "/>
   <polygon class="fil22" points="27.8,33.5 29.99,34.77 30.06,34.39 27.86,33.12 "/>
   <polygon class="fil22" points="30.35,34.97 31.54,35.66 31.61,35.28 30.41,34.59 "/>
   <polygon class="fil22" points="33.41,36.74 34.27,37.24 34.34,36.86 33.47,36.36 "/>
   <polygon class="fil22" points="32.77,36.37 33.07,36.55 33.13,36.16 32.84,35.99 "/>
   <polygon class="fil22" points="31.9,35.87 32.44,36.18 32.5,35.8 31.96,35.49 "/>
   <polygon class="fil22" points="29.53,36.42 30.4,36.92 30.46,36.54 29.6,36.04 "/>
   <polygon class="fil22" points="27.5,35.24 29.2,36.22 29.26,35.84 27.57,34.86 "/>
   <polygon class="fil22" points="29.93,41.43 31.63,42.41 31.7,42.02 30,41.04 "/>
   <polygon class="fil22" points="29.06,40.92 29.6,41.23 29.66,40.85 29.13,40.54 "/>
   <polygon class="fil22" points="30.22,39.68 31.91,40.66 31.98,40.28 30.28,39.3 "/>
   <polygon class="fil22" points="29.34,39.18 29.88,39.49 29.95,39.11 29.41,38.79 "/>
   <polygon class="fil22" points="28.68,48.96 25.49,47.11 25.42,47.49 28.62,49.34 "/>
   <polygon class="fil22" points="29.81,49.61 29.02,49.15 28.95,49.53 29.74,49.99 "/>
   <polygon class="fil22" points="35.43,49.98 32.23,48.13 32.16,48.51 35.36,50.36 "/>
   <polygon class="fil22" points="36.55,50.63 35.76,50.17 35.7,50.55 36.49,51.01 "/>
   <polygon class="fil22" points="26.5,46.74 25.63,46.24 25.57,46.62 26.43,47.12 "/>
   <polygon class="fil22" points="31.77,47.87 30.9,47.37 30.84,47.75 31.7,48.25 "/>
   <polygon class="fil22" points="28.53,47.91 26.83,46.93 26.77,47.31 28.47,48.29 "/>
   <polygon class="fil22" points="29.4,48.42 28.87,48.11 28.8,48.49 29.34,48.8 "/>
   <polygon class="fil22" points="31.45,49.6 29.75,48.62 29.69,49 31.39,49.98 "/>
   <polygon class="fil22" points="32.32,50.1 31.79,49.79 31.72,50.17 32.26,50.48 "/>
   <polygon class="fil22" points="31.62,48.74 30.75,48.24 30.69,48.62 31.56,49.12 "/>
   <polygon class="fil22" points="33.65,49.91 31.96,48.93 31.89,49.32 33.59,50.3 "/>
   <polygon class="fil22" points="34.53,50.42 33.99,50.11 33.92,50.49 34.46,50.8 "/>
   <polygon class="fil22" points="27.55,46.39 25.78,45.37 25.72,45.75 27.49,46.77 "/>
   <polygon class="fil22" points="29.17,47.32 27.89,46.58 27.82,46.97 29.1,47.71 "/>
   <polygon class="fil22" points="30.37,48.02 29.5,47.52 29.44,47.9 30.31,48.4 "/>
   <polygon class="fil22" points="38.77,51.91 37,50.88 36.93,51.26 38.7,52.29 "/>
   <polygon class="fil22" points="40.39,52.84 39.1,52.1 39.04,52.48 40.32,53.22 "/>
   <polygon class="fil22" points="41.59,53.54 40.72,53.03 40.66,53.42 41.52,53.92 "/>
   <polygon class="fil22" points="38.08,40.39 39.85,41.42 39.91,41.04 38.14,40.01 "/>
   <polygon class="fil22" points="36.46,39.46 37.74,40.2 37.81,39.82 36.52,39.08 "/>
   <polygon class="fil22" points="35.26,38.76 36.12,39.26 36.19,38.88 35.32,38.38 "/>
   <polygon class="fil22" points="37.49,39.09 39.26,40.12 39.32,39.74 37.55,38.71 "/>
   <polygon class="fil22" points="35.87,38.16 37.15,38.9 37.22,38.52 35.94,37.78 "/>
   <polygon class="fil22" points="34.67,37.46 35.54,37.96 35.6,37.58 34.73,37.08 "/>
   <polygon class="fil22" points="30.33,40.7 30.93,41.05 31,40.67 30.4,40.32 "/>
   <polygon class="fil22" points="29.21,40.05 30,40.51 30.06,40.13 29.27,39.67 "/>
   <polygon class="fil22" points="27.71,45.52 25.94,44.5 25.87,44.88 27.65,45.91 "/>
   <polygon class="fil22" points="29.33,46.46 28.05,45.72 27.98,46.1 29.26,46.84 "/>
   <polygon class="fil22" points="30.53,47.15 29.66,46.65 29.6,47.03 30.46,47.53 "/>
   <polygon class="fil22" points="26.68,43.97 26.09,43.63 26.02,44.01 26.62,44.36 "/>
   <polygon class="fil22" points="27.81,44.63 27.02,44.17 26.96,44.55 27.75,45.01 "/>
   <polygon class="fil22" points="29.42,45.56 28.15,44.82 28.08,45.2 29.36,45.94 "/>
   <polygon class="fil22" points="31.15,38.3 31.75,38.65 31.81,38.27 31.21,37.92 "/>
   <polygon class="fil22" points="30.02,37.65 30.81,38.11 30.88,37.73 30.09,37.27 "/>
   <polygon class="fil22" points="28.41,36.72 29.69,37.46 29.75,37.08 28.48,36.34 "/>
   <polygon class="fil22" points="32.06,39.72 33.33,40.45 33.4,40.07 32.12,39.34 "/>
   <polygon class="fil22" points="29.98,38.58 31.69,39.57 31.76,39.19 30.04,38.2 "/>
   <polygon class="fil22" points="29.1,38.08 29.64,38.39 29.7,38.01 29.17,37.7 "/>
   <polygon class="fil22" points="28.26,37.59 28.8,37.9 28.87,37.52 28.33,37.21 "/>
   <polygon class="fil22" points="28.38,42.52 30.08,43.5 30.14,43.11 28.44,42.13 "/>
   <polygon class="fil22" points="27.51,42.01 28.04,42.32 28.11,41.94 27.57,41.63 "/>
   <polygon class="fil22" points="28.5,43.54 29.1,43.89 29.16,43.5 28.56,43.16 "/>
   <polygon class="fil22" points="30.61,42.84 31.21,43.19 31.27,42.81 30.67,42.46 "/>
   <polygon class="fil22" points="31.46,43.33 32.9,44.16 32.96,43.78 31.53,42.95 "/>
   <polygon class="fil22" points="33.15,44.31 34.01,44.8 34.07,44.42 33.22,43.93 "/>
   <polygon class="fil22" points="27.37,42.89 28.16,43.35 28.23,42.96 27.43,42.51 "/>
   <polygon class="fil22" points="27.3,43.78 27.89,44.13 27.96,43.75 27.36,43.4 "/>
   <polygon class="fil22" points="26.17,43.13 26.96,43.59 27.02,43.21 26.23,42.75 "/>
   <polygon class="fil22" points="29.74,42.34 30.28,42.65 30.34,42.27 29.81,41.96 "/>
   <polygon class="fil22" points="28.9,41.86 29.44,42.17 29.51,41.79 28.97,41.47 "/>
   <polygon class="fil22" points="33.03,37.48 34.86,38.54 34.93,38.16 33.1,37.1 "/>
   <polygon class="fil22" points="30.98,36.29 32.7,37.28 32.76,36.9 31.04,35.91 "/>
   <polygon class="fil22" points="30.1,35.79 30.64,36.1 30.71,35.72 30.17,35.4 "/>
   <polygon class="fil22" points="29.27,35.3 29.8,35.61 29.87,35.23 29.33,34.92 "/>
   <polygon class="fil22" points="28.81,35.04 27.65,34.37 27.71,33.99 28.87,34.66 "/>
   <polygon class="fil7" points="17.17,50.46 18.07,50.98 18.96,50.46 18.07,49.94 "/>
   <polygon class="fil7" points="14.98,51.73 16.84,52.8 17.73,52.28 15.87,51.21 "/>
  </g>
 </g>
</svg>
