<svg width="372" height="498" viewBox="0 0 372 498" fill="none" xmlns="http://www.w3.org/2000/svg">
<path d="M4.50256 175.205L5.37692 176.423L4.50256 175.205ZM25.8744 161.719C26.5475 161.236 26.7017 160.299 26.2188 159.626C25.7359 158.953 24.7988 158.798 24.1256 159.281L25.8744 161.719ZM28.5 303.5C29.3284 303.5 30 302.828 30 302C30 301.172 29.3284 300.5 28.5 300.5L28.5 303.5ZM23 456.5C23.8284 456.5 24.5 455.828 24.5 455C24.5 454.172 23.8284 453.5 23 453.5L23 456.5ZM5.37692 176.423L25.8744 161.719L24.1256 159.281L3.62819 173.986L5.37692 176.423ZM0.500001 180.08L0.500006 302L3.50001 302L3.5 180.08L0.500001 180.08ZM0.500006 302L0.500013 449.003L3.50001 449.003L3.50001 302L0.500006 302ZM2.00001 303.5L28.5 303.5L28.5 300.5L2.00001 300.5L2.00001 303.5ZM8.00001 456.5L23 456.5L23 453.5L8.00001 453.5L8.00001 456.5ZM0.500013 449.003C0.500013 453.146 3.85884 456.5 8.00001 456.5L8.00001 453.5C5.51377 453.5 3.50001 451.487 3.50001 449.003L0.500013 449.003ZM3.62819 173.986C1.66453 175.395 0.500001 177.663 0.500001 180.08L3.5 180.08C3.5 178.63 4.19872 177.269 5.37692 176.423L3.62819 173.986Z" fill="#D9113A"/>
<path d="M152.18 438.5C151.833 439.06 151.347 439.493 150.72 439.8C150.107 440.107 149.453 440.26 148.76 440.26C147.333 440.26 146.18 439.78 145.3 438.82C144.42 437.86 143.98 436.667 143.98 435.24C143.98 433.813 144.42 432.627 145.3 431.68C146.193 430.733 147.34 430.26 148.74 430.26C149.473 430.26 150.127 430.42 150.7 430.74C151.287 431.047 151.76 431.447 152.12 431.94H152.16V424.88H154.04V440H152.22V438.5H152.18ZM146.76 432.82C146.213 433.487 145.94 434.293 145.94 435.24C145.94 436.187 146.213 437 146.76 437.68C147.32 438.347 148.093 438.68 149.08 438.68C150.013 438.68 150.78 438.347 151.38 437.68C151.98 437 152.28 436.193 152.28 435.26C152.28 434.327 151.98 433.52 151.38 432.84C150.78 432.16 150.013 431.82 149.08 431.82C148.093 431.82 147.32 432.153 146.76 432.82ZM158.615 434.42H164.255C164.229 433.633 163.989 432.993 163.535 432.5C163.082 431.993 162.435 431.74 161.595 431.74C160.795 431.74 160.115 432 159.555 432.52C158.995 433.04 158.682 433.673 158.615 434.42ZM166.155 435.18C166.155 435.46 166.149 435.673 166.135 435.82H158.615C158.642 436.633 158.955 437.32 159.555 437.88C160.155 438.427 160.869 438.7 161.695 438.7C162.882 438.7 163.802 438.22 164.455 437.26L165.775 438.32C164.775 439.613 163.415 440.26 161.695 440.26C160.242 440.26 159.042 439.8 158.095 438.88C157.162 437.96 156.695 436.76 156.695 435.28C156.695 433.813 157.162 432.613 158.095 431.68C159.029 430.733 160.195 430.26 161.595 430.26C162.995 430.26 164.102 430.707 164.915 431.6C165.742 432.48 166.155 433.673 166.155 435.18ZM170.66 438.58V444.8H168.78V430.52H170.62V432H170.68C171 431.48 171.46 431.06 172.06 430.74C172.66 430.42 173.34 430.26 174.1 430.26C175.487 430.26 176.62 430.74 177.5 431.7C178.393 432.647 178.84 433.827 178.84 435.24C178.84 436.667 178.4 437.86 177.52 438.82C176.64 439.78 175.487 440.26 174.06 440.26C173.38 440.26 172.74 440.113 172.14 439.82C171.54 439.513 171.067 439.1 170.72 438.58H170.66ZM176.06 437.68C176.62 437 176.9 436.187 176.9 435.24C176.9 434.293 176.62 433.487 176.06 432.82C175.5 432.153 174.727 431.82 173.74 431.82C172.807 431.82 172.04 432.16 171.44 432.84C170.84 433.52 170.54 434.327 170.54 435.26C170.54 436.193 170.84 437 171.44 437.68C172.04 438.347 172.807 438.68 173.74 438.68C174.727 438.68 175.5 438.347 176.06 437.68ZM189.596 431.66C190.569 432.593 191.056 433.787 191.056 435.24C191.056 436.693 190.563 437.893 189.576 438.84C188.603 439.787 187.389 440.26 185.936 440.26C184.483 440.26 183.269 439.787 182.296 438.84C181.323 437.893 180.836 436.693 180.836 435.24C180.836 433.787 181.316 432.593 182.276 431.66C183.249 430.727 184.469 430.26 185.936 430.26C187.403 430.26 188.623 430.727 189.596 431.66ZM188.236 437.68C188.809 437 189.096 436.187 189.096 435.24C189.096 434.293 188.809 433.487 188.236 432.82C187.676 432.153 186.909 431.82 185.936 431.82C184.963 431.82 184.189 432.153 183.616 432.82C183.056 433.487 182.776 434.293 182.776 435.24C182.776 436.187 183.056 437 183.616 437.68C184.189 438.347 184.963 438.68 185.936 438.68C186.909 438.68 187.676 438.347 188.236 437.68ZM200.083 431.82L198.783 432.92C198.57 432.573 198.263 432.293 197.863 432.08C197.476 431.853 197.05 431.74 196.583 431.74C196.103 431.74 195.69 431.847 195.343 432.06C194.996 432.26 194.823 432.567 194.823 432.98C194.823 433.353 194.99 433.64 195.323 433.84C195.656 434.04 196.21 434.227 196.983 434.4C199.103 434.867 200.163 435.8 200.163 437.2C200.163 438.24 199.796 439.013 199.063 439.52C198.343 440.013 197.45 440.26 196.383 440.26C195.636 440.26 194.923 440.113 194.243 439.82C193.563 439.527 193.003 439.107 192.563 438.56L193.903 437.42C194.156 437.807 194.51 438.127 194.963 438.38C195.43 438.62 195.916 438.74 196.423 438.74C196.956 438.74 197.403 438.633 197.763 438.42C198.123 438.193 198.303 437.84 198.303 437.36C198.303 436.947 198.11 436.633 197.723 436.42C197.35 436.207 196.716 435.993 195.823 435.78C195.45 435.687 195.123 435.587 194.843 435.48C194.563 435.373 194.276 435.227 193.983 435.04C193.69 434.84 193.463 434.587 193.303 434.28C193.143 433.96 193.063 433.587 193.063 433.16C193.063 432.2 193.41 431.48 194.103 431C194.81 430.507 195.656 430.26 196.643 430.26C197.336 430.26 197.996 430.4 198.623 430.68C199.263 430.947 199.75 431.327 200.083 431.82ZM204.45 430.52V440H202.57V430.52H204.45ZM204.77 427.1C204.77 427.433 204.643 427.72 204.39 427.96C204.15 428.187 203.856 428.3 203.51 428.3C203.163 428.3 202.87 428.187 202.63 427.96C202.39 427.72 202.27 427.433 202.27 427.1C202.27 426.767 202.39 426.48 202.63 426.24C202.87 426 203.163 425.88 203.51 425.88C203.856 425.88 204.15 426 204.39 426.24C204.643 426.467 204.77 426.753 204.77 427.1ZM212.365 430.52V432.06H209.845V437C209.845 437.573 209.952 437.987 210.165 438.24C210.379 438.48 210.719 438.6 211.185 438.6C211.599 438.6 211.965 438.52 212.285 438.36L212.345 439.9C211.865 440.073 211.332 440.16 210.745 440.16C209.852 440.16 209.165 439.913 208.685 439.42C208.219 438.913 207.985 438.173 207.985 437.2V432.06H206.165V430.52H207.985V427.8H209.845V430.52H212.365ZM215.608 434.42H221.248C221.221 433.633 220.981 432.993 220.528 432.5C220.074 431.993 219.428 431.74 218.588 431.74C217.788 431.74 217.108 432 216.548 432.52C215.988 433.04 215.674 433.673 215.608 434.42ZM223.148 435.18C223.148 435.46 223.141 435.673 223.128 435.82H215.608C215.634 436.633 215.948 437.32 216.548 437.88C217.148 438.427 217.861 438.7 218.688 438.7C219.874 438.7 220.794 438.22 221.448 437.26L222.768 438.32C221.768 439.613 220.408 440.26 218.688 440.26C217.234 440.26 216.034 439.8 215.088 438.88C214.154 437.96 213.688 436.76 213.688 435.28C213.688 433.813 214.154 432.613 215.088 431.68C216.021 430.733 217.188 430.26 218.588 430.26C219.988 430.26 221.094 430.707 221.908 431.6C222.734 432.48 223.148 433.673 223.148 435.18ZM233.332 438.5C232.986 439.06 232.499 439.493 231.872 439.8C231.259 440.107 230.606 440.26 229.912 440.26C228.486 440.26 227.332 439.78 226.452 438.82C225.572 437.86 225.132 436.667 225.132 435.24C225.132 433.813 225.572 432.627 226.452 431.68C227.346 430.733 228.492 430.26 229.892 430.26C230.626 430.26 231.279 430.42 231.852 430.74C232.439 431.047 232.912 431.447 233.272 431.94H233.312V424.88H235.192V440H233.372V438.5H233.332ZM227.912 432.82C227.366 433.487 227.092 434.293 227.092 435.24C227.092 436.187 227.366 437 227.912 437.68C228.472 438.347 229.246 438.68 230.232 438.68C231.166 438.68 231.932 438.347 232.532 437.68C233.132 437 233.432 436.193 233.432 435.26C233.432 434.327 233.132 433.52 232.532 432.84C231.932 432.16 231.166 431.82 230.232 431.82C229.246 431.82 228.472 432.153 227.912 432.82ZM245.368 430.52V440H243.488V430.52H245.368ZM245.688 427.1C245.688 427.433 245.561 427.72 245.308 427.96C245.068 428.187 244.774 428.3 244.428 428.3C244.081 428.3 243.788 428.187 243.548 427.96C243.308 427.72 243.188 427.433 243.188 427.1C243.188 426.767 243.308 426.48 243.548 426.24C243.788 426 244.081 425.88 244.428 425.88C244.774 425.88 245.068 426 245.308 426.24C245.561 426.467 245.688 426.753 245.688 427.1ZM248.563 430.52H250.343C250.397 431.16 250.423 431.68 250.423 432.08H250.483C250.723 431.56 251.13 431.127 251.703 430.78C252.277 430.433 252.897 430.26 253.563 430.26C254.723 430.26 255.603 430.62 256.203 431.34C256.803 432.06 257.103 432.987 257.103 434.12V440H255.223V434.74C255.223 432.807 254.503 431.84 253.063 431.84C252.317 431.84 251.703 432.127 251.223 432.7C250.757 433.273 250.523 434.027 250.523 434.96V440H248.643V432.56C248.643 431.747 248.617 431.067 248.563 430.52ZM264.924 430.52V432.06H262.404V437C262.404 437.573 262.511 437.987 262.724 438.24C262.937 438.48 263.277 438.6 263.744 438.6C264.157 438.6 264.524 438.52 264.844 438.36L264.904 439.9C264.424 440.073 263.891 440.16 263.304 440.16C262.411 440.16 261.724 439.913 261.244 439.42C260.777 438.913 260.544 438.173 260.544 437.2V432.06H258.724V430.52H260.544V427.8H262.404V430.52H264.924ZM275.006 431.66C275.979 432.593 276.466 433.787 276.466 435.24C276.466 436.693 275.973 437.893 274.986 438.84C274.013 439.787 272.799 440.26 271.346 440.26C269.893 440.26 268.679 439.787 267.706 438.84C266.733 437.893 266.246 436.693 266.246 435.24C266.246 433.787 266.726 432.593 267.686 431.66C268.659 430.727 269.879 430.26 271.346 430.26C272.813 430.26 274.033 430.727 275.006 431.66ZM273.646 437.68C274.219 437 274.506 436.187 274.506 435.24C274.506 434.293 274.219 433.487 273.646 432.82C273.086 432.153 272.319 431.82 271.346 431.82C270.373 431.82 269.599 432.153 269.026 432.82C268.466 433.487 268.186 434.293 268.186 435.24C268.186 436.187 268.466 437 269.026 437.68C269.599 438.347 270.373 438.68 271.346 438.68C272.319 438.68 273.086 438.347 273.646 437.68ZM286.153 425.84V438.24H292.473V440H284.173V425.84H286.153ZM302.076 431.66C303.05 432.593 303.536 433.787 303.536 435.24C303.536 436.693 303.043 437.893 302.056 438.84C301.083 439.787 299.87 440.26 298.416 440.26C296.963 440.26 295.75 439.787 294.776 438.84C293.803 437.893 293.316 436.693 293.316 435.24C293.316 433.787 293.796 432.593 294.756 431.66C295.73 430.727 296.95 430.26 298.416 430.26C299.883 430.26 301.103 430.727 302.076 431.66ZM300.716 437.68C301.29 437 301.576 436.187 301.576 435.24C301.576 434.293 301.29 433.487 300.716 432.82C300.156 432.153 299.39 431.82 298.416 431.82C297.443 431.82 296.67 432.153 296.096 432.82C295.536 433.487 295.256 434.293 295.256 435.24C295.256 436.187 295.536 437 296.096 437.68C296.67 438.347 297.443 438.68 298.416 438.68C299.39 438.68 300.156 438.347 300.716 437.68ZM310.783 430.52V432.06H308.263V437C308.263 437.573 308.37 437.987 308.583 438.24C308.797 438.48 309.137 438.6 309.603 438.6C310.017 438.6 310.383 438.52 310.703 438.36L310.763 439.9C310.283 440.073 309.75 440.16 309.163 440.16C308.27 440.16 307.583 439.913 307.103 439.42C306.637 438.913 306.403 438.173 306.403 437.2V432.06H304.583V430.52H306.403V427.8H308.263V430.52H310.783ZM317.073 430.52V432.06H314.553V437C314.553 437.573 314.659 437.987 314.873 438.24C315.086 438.48 315.426 438.6 315.893 438.6C316.306 438.6 316.673 438.52 316.993 438.36L317.053 439.9C316.573 440.073 316.039 440.16 315.453 440.16C314.559 440.16 313.873 439.913 313.393 439.42C312.926 438.913 312.693 438.173 312.693 437.2V432.06H310.873V430.52H312.693V427.8H314.553V430.52H317.073ZM320.315 434.42H325.955C325.928 433.633 325.688 432.993 325.235 432.5C324.781 431.993 324.135 431.74 323.295 431.74C322.495 431.74 321.815 432 321.255 432.52C320.695 433.04 320.381 433.673 320.315 434.42ZM327.855 435.18C327.855 435.46 327.848 435.673 327.835 435.82H320.315C320.341 436.633 320.655 437.32 321.255 437.88C321.855 438.427 322.568 438.7 323.395 438.7C324.581 438.7 325.501 438.22 326.155 437.26L327.475 438.32C326.475 439.613 325.115 440.26 323.395 440.26C321.941 440.26 320.741 439.8 319.795 438.88C318.861 437.96 318.395 436.76 318.395 435.28C318.395 433.813 318.861 432.613 319.795 431.68C320.728 430.733 321.895 430.26 323.295 430.26C324.695 430.26 325.801 430.707 326.615 431.6C327.441 432.48 327.855 433.673 327.855 435.18ZM330.479 432.56C330.479 431.747 330.453 431.067 330.399 430.52H332.179C332.233 431.16 332.259 431.693 332.259 432.12H332.319C332.586 431.56 332.979 431.113 333.499 430.78C334.019 430.433 334.593 430.26 335.219 430.26C335.513 430.26 335.759 430.287 335.959 430.34L335.879 432.08C335.613 432.013 335.326 431.98 335.019 431.98C334.166 431.98 333.506 432.273 333.039 432.86C332.586 433.447 332.359 434.167 332.359 435.02V440H330.479V432.56ZM338.385 430.52L341.325 437.96H341.365L343.985 430.52H345.985L341.385 442.24C341.052 443.107 340.639 443.747 340.145 444.16C339.665 444.587 338.985 444.8 338.105 444.8C337.665 444.8 337.252 444.753 336.865 444.66L337.045 443C337.365 443.107 337.679 443.16 337.985 443.16C338.439 443.16 338.792 443.033 339.045 442.78C339.299 442.54 339.532 442.14 339.745 441.58L340.345 440L336.285 430.52H338.385ZM146.5 473.58V479.8H144.62V465.52H146.46V467H146.52C146.84 466.48 147.3 466.06 147.9 465.74C148.5 465.42 149.18 465.26 149.94 465.26C151.327 465.26 152.46 465.74 153.34 466.7C154.233 467.647 154.68 468.827 154.68 470.24C154.68 471.667 154.24 472.86 153.36 473.82C152.48 474.78 151.327 475.26 149.9 475.26C149.22 475.26 148.58 475.113 147.98 474.82C147.38 474.513 146.907 474.1 146.56 473.58H146.5ZM151.9 472.68C152.46 472 152.74 471.187 152.74 470.24C152.74 469.293 152.46 468.487 151.9 467.82C151.34 467.153 150.567 466.82 149.58 466.82C148.647 466.82 147.88 467.16 147.28 467.84C146.68 468.52 146.38 469.327 146.38 470.26C146.38 471.193 146.68 472 147.28 472.68C147.88 473.347 148.647 473.68 149.58 473.68C150.567 473.68 151.34 473.347 151.9 472.68ZM165.436 466.66C166.409 467.593 166.896 468.787 166.896 470.24C166.896 471.693 166.402 472.893 165.416 473.84C164.442 474.787 163.229 475.26 161.776 475.26C160.322 475.26 159.109 474.787 158.136 473.84C157.162 472.893 156.676 471.693 156.676 470.24C156.676 468.787 157.156 467.593 158.116 466.66C159.089 465.727 160.309 465.26 161.776 465.26C163.242 465.26 164.462 465.727 165.436 466.66ZM164.076 472.68C164.649 472 164.936 471.187 164.936 470.24C164.936 469.293 164.649 468.487 164.076 467.82C163.516 467.153 162.749 466.82 161.776 466.82C160.802 466.82 160.029 467.153 159.456 467.82C158.896 468.487 158.616 469.293 158.616 470.24C158.616 471.187 158.896 472 159.456 472.68C160.029 473.347 160.802 473.68 161.776 473.68C162.749 473.68 163.516 473.347 164.076 472.68ZM177.643 466.66C178.616 467.593 179.103 468.787 179.103 470.24C179.103 471.693 178.609 472.893 177.623 473.84C176.649 474.787 175.436 475.26 173.983 475.26C172.529 475.26 171.316 474.787 170.343 473.84C169.369 472.893 168.883 471.693 168.883 470.24C168.883 468.787 169.363 467.593 170.323 466.66C171.296 465.727 172.516 465.26 173.983 465.26C175.449 465.26 176.669 465.727 177.643 466.66ZM176.283 472.68C176.856 472 177.143 471.187 177.143 470.24C177.143 469.293 176.856 468.487 176.283 467.82C175.723 467.153 174.956 466.82 173.983 466.82C173.009 466.82 172.236 467.153 171.663 467.82C171.103 468.487 170.823 469.293 170.823 470.24C170.823 471.187 171.103 472 171.663 472.68C172.236 473.347 173.009 473.68 173.983 473.68C174.956 473.68 175.723 473.347 176.283 472.68ZM183.63 459.88V475H181.75V459.88H183.63Z" fill="white" fill-opacity="0.95"/>
<circle opacity="0.2" cx="68.0046" cy="450.991" r="45" stroke="#DCDDE0" stroke-width="3"/>
<g filter="url(#filter0_d)">
<mask id="path-4-outside-1" maskUnits="userSpaceOnUse" x="19.265" y="409.221" width="54.3723" height="47.7636" fill="black">
<rect fill="white" x="19.265" y="409.221" width="54.3723" height="47.7636"/>
<path d="M24.5893 453.357C24.1908 446.046 25.6454 438.753 28.818 432.155C31.9907 425.557 36.7786 419.867 42.7376 415.613L67.9908 450.991L24.5893 453.357Z"/>
</mask>
<path d="M24.5893 453.357C24.1908 446.046 25.6454 438.753 28.818 432.155C31.9907 425.557 36.7786 419.867 42.7376 415.613L67.9908 450.991L24.5893 453.357Z" stroke="#D9113A" stroke-width="6" mask="url(#path-4-outside-1)"/>
</g>
<circle cx="67.7193" cy="450.707" r="43.4659" fill="#080D17"/>
<path d="M52.7482 458.991V444.941L49.2482 447.816L47.4982 445.741L53.0232 441.291H55.7482V458.991H52.7482ZM68.407 441.291H72.057L67.532 447.841L67.557 447.866C68.0403 447.666 68.6653 447.566 69.432 447.566C70.9986 447.566 72.332 448.116 73.432 449.216C74.532 450.299 75.082 451.641 75.082 453.241C75.082 455.091 74.4653 456.591 73.232 457.741C72.0153 458.874 70.482 459.441 68.632 459.441C66.782 459.441 65.2403 458.858 64.007 457.691C62.7736 456.524 62.157 455.083 62.157 453.366C62.157 452.416 62.2986 451.566 62.582 450.816C62.882 450.049 63.3486 449.158 63.982 448.141L68.407 441.291ZM65.207 453.441C65.207 454.391 65.5153 455.208 66.132 455.891C66.7653 456.558 67.5903 456.891 68.607 456.891C69.6236 456.891 70.4403 456.574 71.057 455.941C71.6903 455.291 72.007 454.441 72.007 453.391C72.007 452.391 71.6986 451.566 71.082 450.916C70.4653 450.266 69.657 449.941 68.657 449.941C67.6403 449.941 66.807 450.266 66.157 450.916C65.5236 451.566 65.207 452.408 65.207 453.441ZM84.8708 458.361C84.3308 457.811 84.0608 457.151 84.0608 456.381C84.0608 455.611 84.3308 454.956 84.8708 454.416C85.4208 453.866 86.0808 453.591 86.8508 453.591C87.6208 453.591 88.2758 453.866 88.8158 454.416C89.3658 454.956 89.6408 455.611 89.6408 456.381C89.6408 457.151 89.3658 457.811 88.8158 458.361C88.2758 458.901 87.6208 459.171 86.8508 459.171C86.0808 459.171 85.4208 458.901 84.8708 458.361ZM87.8108 457.341C88.0708 457.081 88.2008 456.761 88.2008 456.381C88.2008 456.001 88.0708 455.681 87.8108 455.421C87.5508 455.161 87.2308 455.031 86.8508 455.031C86.4708 455.031 86.1508 455.161 85.8908 455.421C85.6308 455.681 85.5008 456.001 85.5008 456.381C85.5008 456.761 85.6308 457.081 85.8908 457.341C86.1508 457.601 86.4708 457.731 86.8508 457.731C87.2308 457.731 87.5508 457.601 87.8108 457.341ZM77.7008 452.961C77.1608 452.411 76.8908 451.751 76.8908 450.981C76.8908 450.211 77.1608 449.556 77.7008 449.016C78.2508 448.466 78.9108 448.191 79.6808 448.191C80.4508 448.191 81.1058 448.466 81.6458 449.016C82.1958 449.556 82.4708 450.211 82.4708 450.981C82.4708 451.751 82.1958 452.411 81.6458 452.961C81.1058 453.501 80.4508 453.771 79.6808 453.771C78.9108 453.771 78.2508 453.501 77.7008 452.961ZM80.6408 451.941C80.9008 451.681 81.0308 451.361 81.0308 450.981C81.0308 450.601 80.9008 450.281 80.6408 450.021C80.3808 449.761 80.0608 449.631 79.6808 449.631C79.3008 449.631 78.9808 449.761 78.7208 450.021C78.4608 450.281 78.3308 450.601 78.3308 450.981C78.3308 451.361 78.4608 451.681 78.7208 451.941C78.9808 452.201 79.3008 452.331 79.6808 452.331C80.0608 452.331 80.3808 452.201 80.6408 451.941ZM79.5158 458.901L85.7558 447.891L87.0008 448.461L80.7608 459.471L79.5158 458.901Z" fill="white" fill-opacity="0.95"/>
<path d="M151.04 262.82L149.74 263.92C149.527 263.573 149.22 263.293 148.82 263.08C148.433 262.853 148.007 262.74 147.54 262.74C147.06 262.74 146.647 262.847 146.3 263.06C145.953 263.26 145.78 263.567 145.78 263.98C145.78 264.353 145.947 264.64 146.28 264.84C146.613 265.04 147.167 265.227 147.94 265.4C150.06 265.867 151.12 266.8 151.12 268.2C151.12 269.24 150.753 270.013 150.02 270.52C149.3 271.013 148.407 271.26 147.34 271.26C146.593 271.26 145.88 271.113 145.2 270.82C144.52 270.527 143.96 270.107 143.52 269.56L144.86 268.42C145.113 268.807 145.467 269.127 145.92 269.38C146.387 269.62 146.873 269.74 147.38 269.74C147.913 269.74 148.36 269.633 148.72 269.42C149.08 269.193 149.26 268.84 149.26 268.36C149.26 267.947 149.067 267.633 148.68 267.42C148.307 267.207 147.673 266.993 146.78 266.78C146.407 266.687 146.08 266.587 145.8 266.48C145.52 266.373 145.233 266.227 144.94 266.04C144.647 265.84 144.42 265.587 144.26 265.28C144.1 264.96 144.02 264.587 144.02 264.16C144.02 263.2 144.367 262.48 145.06 262C145.767 261.507 146.613 261.26 147.6 261.26C148.293 261.26 148.953 261.4 149.58 261.68C150.22 261.947 150.707 262.327 151.04 262.82ZM155.427 262.96H155.467C155.693 262.48 156.08 262.08 156.627 261.76C157.187 261.427 157.8 261.26 158.467 261.26C159.627 261.26 160.507 261.62 161.107 262.34C161.707 263.06 162.007 263.987 162.007 265.12V271H160.127V265.76C160.127 263.827 159.413 262.86 157.987 262.86C157.24 262.86 156.627 263.147 156.147 263.72C155.667 264.293 155.427 265.047 155.427 265.98V271H153.547V255.88H155.427V262.96ZM171.086 265.12V264.86C171.086 264.18 170.873 263.667 170.446 263.32C170.033 262.96 169.466 262.78 168.746 262.78C167.68 262.78 166.78 263.147 166.046 263.88L165.046 262.68C166.033 261.733 167.326 261.26 168.926 261.26C170.233 261.26 171.22 261.607 171.886 262.3C172.553 262.98 172.886 263.873 172.886 264.98V269.12C172.886 269.947 172.933 270.573 173.026 271H171.326C171.22 270.547 171.166 270.093 171.166 269.64H171.106C170.4 270.707 169.34 271.24 167.926 271.24C167.526 271.24 167.133 271.187 166.746 271.08C166.36 270.973 165.993 270.813 165.646 270.6C165.3 270.387 165.02 270.087 164.806 269.7C164.593 269.3 164.486 268.84 164.486 268.32C164.486 267.773 164.613 267.3 164.866 266.9C165.133 266.487 165.466 266.173 165.866 265.96C166.266 265.733 166.773 265.56 167.386 265.44C168.013 265.307 168.6 265.22 169.146 265.18C169.706 265.14 170.353 265.12 171.086 265.12ZM171.086 266.48H170.626C167.813 266.48 166.406 267.08 166.406 268.28C166.406 268.8 166.593 269.18 166.966 269.42C167.34 269.647 167.8 269.76 168.346 269.76C169.2 269.76 169.866 269.507 170.346 269C170.84 268.48 171.086 267.807 171.086 266.98V266.48ZM176.026 263.56C176.026 262.747 176 262.067 175.946 261.52H177.726C177.78 262.16 177.806 262.693 177.806 263.12H177.866C178.133 262.56 178.526 262.113 179.046 261.78C179.566 261.433 180.14 261.26 180.766 261.26C181.06 261.26 181.306 261.287 181.506 261.34L181.426 263.08C181.16 263.013 180.873 262.98 180.566 262.98C179.713 262.98 179.053 263.273 178.586 263.86C178.133 264.447 177.906 265.167 177.906 266.02V271H176.026V263.56ZM184.221 265.42H189.861C189.834 264.633 189.594 263.993 189.141 263.5C188.687 262.993 188.041 262.74 187.201 262.74C186.401 262.74 185.721 263 185.161 263.52C184.601 264.04 184.287 264.673 184.221 265.42ZM191.761 266.18C191.761 266.46 191.754 266.673 191.741 266.82H184.221C184.247 267.633 184.561 268.32 185.161 268.88C185.761 269.427 186.474 269.7 187.301 269.7C188.487 269.7 189.407 269.22 190.061 268.26L191.381 269.32C190.381 270.613 189.021 271.26 187.301 271.26C185.847 271.26 184.647 270.8 183.701 269.88C182.767 268.96 182.301 267.76 182.301 266.28C182.301 264.813 182.767 263.613 183.701 262.68C184.634 261.733 185.801 261.26 187.201 261.26C188.601 261.26 189.707 261.707 190.521 262.6C191.347 263.48 191.761 264.673 191.761 266.18ZM201.946 269.5C201.599 270.06 201.112 270.493 200.486 270.8C199.872 271.107 199.219 271.26 198.526 271.26C197.099 271.26 195.946 270.78 195.066 269.82C194.186 268.86 193.746 267.667 193.746 266.24C193.746 264.813 194.186 263.627 195.066 262.68C195.959 261.733 197.106 261.26 198.506 261.26C199.239 261.26 199.892 261.42 200.466 261.74C201.052 262.047 201.526 262.447 201.886 262.94H201.926V255.88H203.806V271H201.986V269.5H201.946ZM196.526 263.82C195.979 264.487 195.706 265.293 195.706 266.24C195.706 267.187 195.979 268 196.526 268.68C197.086 269.347 197.859 269.68 198.846 269.68C199.779 269.68 200.546 269.347 201.146 268.68C201.746 268 202.046 267.193 202.046 266.26C202.046 265.327 201.746 264.52 201.146 263.84C200.546 263.16 199.779 262.82 198.846 262.82C197.859 262.82 197.086 263.153 196.526 263.82ZM216.721 261.52V263.06H214.201V268C214.201 268.573 214.308 268.987 214.521 269.24C214.734 269.48 215.074 269.6 215.541 269.6C215.954 269.6 216.321 269.52 216.641 269.36L216.701 270.9C216.221 271.073 215.688 271.16 215.101 271.16C214.208 271.16 213.521 270.913 213.041 270.42C212.574 269.913 212.341 269.173 212.341 268.2V263.06H210.521V261.52H212.341V258.8H214.201V261.52H216.721ZM226.803 262.66C227.776 263.593 228.263 264.787 228.263 266.24C228.263 267.693 227.77 268.893 226.783 269.84C225.81 270.787 224.596 271.26 223.143 271.26C221.69 271.26 220.476 270.787 219.503 269.84C218.53 268.893 218.043 267.693 218.043 266.24C218.043 264.787 218.523 263.593 219.483 262.66C220.456 261.727 221.676 261.26 223.143 261.26C224.61 261.26 225.83 261.727 226.803 262.66ZM225.443 268.68C226.016 268 226.303 267.187 226.303 266.24C226.303 265.293 226.016 264.487 225.443 263.82C224.883 263.153 224.116 262.82 223.143 262.82C222.17 262.82 221.396 263.153 220.823 263.82C220.263 264.487 219.983 265.293 219.983 266.24C219.983 267.187 220.263 268 220.823 268.68C221.396 269.347 222.17 269.68 223.143 269.68C224.116 269.68 224.883 269.347 225.443 268.68ZM244.33 271H242.55C242.497 270.36 242.47 269.84 242.47 269.44H242.43C242.177 269.96 241.763 270.393 241.19 270.74C240.617 271.087 239.997 271.26 239.33 271.26C238.17 271.26 237.29 270.9 236.69 270.18C236.09 269.46 235.79 268.533 235.79 267.4V261.52H237.67V266.76C237.67 268.707 238.39 269.68 239.83 269.68C240.59 269.68 241.203 269.393 241.67 268.82C242.137 268.247 242.37 267.493 242.37 266.56V261.52H244.25V268.96C244.25 269.773 244.277 270.453 244.33 271ZM253.931 262.82L252.631 263.92C252.417 263.573 252.111 263.293 251.711 263.08C251.324 262.853 250.897 262.74 250.431 262.74C249.951 262.74 249.537 262.847 249.191 263.06C248.844 263.26 248.671 263.567 248.671 263.98C248.671 264.353 248.837 264.64 249.171 264.84C249.504 265.04 250.057 265.227 250.831 265.4C252.951 265.867 254.011 266.8 254.011 268.2C254.011 269.24 253.644 270.013 252.911 270.52C252.191 271.013 251.297 271.26 250.231 271.26C249.484 271.26 248.771 271.113 248.091 270.82C247.411 270.527 246.851 270.107 246.411 269.56L247.751 268.42C248.004 268.807 248.357 269.127 248.811 269.38C249.277 269.62 249.764 269.74 250.271 269.74C250.804 269.74 251.251 269.633 251.611 269.42C251.971 269.193 252.151 268.84 252.151 268.36C252.151 267.947 251.957 267.633 251.571 267.42C251.197 267.207 250.564 266.993 249.671 266.78C249.297 266.687 248.971 266.587 248.691 266.48C248.411 266.373 248.124 266.227 247.831 266.04C247.537 265.84 247.311 265.587 247.151 265.28C246.991 264.96 246.911 264.587 246.911 264.16C246.911 263.2 247.257 262.48 247.951 262C248.657 261.507 249.504 261.26 250.491 261.26C251.184 261.26 251.844 261.4 252.471 261.68C253.111 261.947 253.597 262.327 253.931 262.82ZM257.697 265.42H263.337C263.311 264.633 263.071 263.993 262.617 263.5C262.164 262.993 261.517 262.74 260.677 262.74C259.877 262.74 259.197 263 258.637 263.52C258.077 264.04 257.764 264.673 257.697 265.42ZM265.237 266.18C265.237 266.46 265.231 266.673 265.217 266.82H257.697C257.724 267.633 258.037 268.32 258.637 268.88C259.237 269.427 259.951 269.7 260.777 269.7C261.964 269.7 262.884 269.22 263.537 268.26L264.857 269.32C263.857 270.613 262.497 271.26 260.777 271.26C259.324 271.26 258.124 270.8 257.177 269.88C256.244 268.96 255.777 267.76 255.777 266.28C255.777 264.813 256.244 263.613 257.177 262.68C258.111 261.733 259.277 261.26 260.677 261.26C262.077 261.26 263.184 261.707 263.997 262.6C264.824 263.48 265.237 264.673 265.237 266.18ZM267.862 263.56C267.862 262.747 267.836 262.067 267.782 261.52H269.562C269.616 262.16 269.642 262.693 269.642 263.12H269.702C269.969 262.56 270.362 262.113 270.882 261.78C271.402 261.433 271.976 261.26 272.602 261.26C272.896 261.26 273.142 261.287 273.342 261.34L273.262 263.08C272.996 263.013 272.709 262.98 272.402 262.98C271.549 262.98 270.889 263.273 270.422 263.86C269.969 264.447 269.742 265.167 269.742 266.02V271H267.862V263.56ZM281.528 262.82L280.228 263.92C280.015 263.573 279.708 263.293 279.308 263.08C278.922 262.853 278.495 262.74 278.028 262.74C277.548 262.74 277.135 262.847 276.788 263.06C276.442 263.26 276.268 263.567 276.268 263.98C276.268 264.353 276.435 264.64 276.768 264.84C277.102 265.04 277.655 265.227 278.428 265.4C280.548 265.867 281.608 266.8 281.608 268.2C281.608 269.24 281.242 270.013 280.508 270.52C279.788 271.013 278.895 271.26 277.828 271.26C277.082 271.26 276.368 271.113 275.688 270.82C275.008 270.527 274.448 270.107 274.008 269.56L275.348 268.42C275.602 268.807 275.955 269.127 276.408 269.38C276.875 269.62 277.362 269.74 277.868 269.74C278.402 269.74 278.848 269.633 279.208 269.42C279.568 269.193 279.748 268.84 279.748 268.36C279.748 267.947 279.555 267.633 279.168 267.42C278.795 267.207 278.162 266.993 277.268 266.78C276.895 266.687 276.568 266.587 276.288 266.48C276.008 266.373 275.722 266.227 275.428 266.04C275.135 265.84 274.908 265.587 274.748 265.28C274.588 264.96 274.508 264.587 274.508 264.16C274.508 263.2 274.855 262.48 275.548 262C276.255 261.507 277.102 261.26 278.088 261.26C278.782 261.26 279.442 261.4 280.068 261.68C280.708 261.947 281.195 262.327 281.528 262.82ZM146.06 296C145.607 297.4 145.38 298.813 145.38 300.24C145.38 301.667 145.607 303.08 146.06 304.48C146.527 305.88 147.16 307.14 147.96 308.26L146.6 309.14C145.693 307.927 144.98 306.547 144.46 305C143.94 303.453 143.68 301.867 143.68 300.24C143.68 298.613 143.94 297.027 144.46 295.48C144.98 293.933 145.693 292.553 146.6 291.34L147.96 292.22C147.16 293.34 146.527 294.6 146.06 296ZM156.829 300.12V299.86C156.829 299.18 156.615 298.667 156.189 298.32C155.775 297.96 155.209 297.78 154.489 297.78C153.422 297.78 152.522 298.147 151.789 298.88L150.789 297.68C151.775 296.733 153.069 296.26 154.669 296.26C155.975 296.26 156.962 296.607 157.629 297.3C158.295 297.98 158.629 298.873 158.629 299.98V304.12C158.629 304.947 158.675 305.573 158.769 306H157.069C156.962 305.547 156.909 305.093 156.909 304.64H156.849C156.142 305.707 155.082 306.24 153.669 306.24C153.269 306.24 152.875 306.187 152.489 306.08C152.102 305.973 151.735 305.813 151.389 305.6C151.042 305.387 150.762 305.087 150.549 304.7C150.335 304.3 150.229 303.84 150.229 303.32C150.229 302.773 150.355 302.3 150.609 301.9C150.875 301.487 151.209 301.173 151.609 300.96C152.009 300.733 152.515 300.56 153.129 300.44C153.755 300.307 154.342 300.22 154.889 300.18C155.449 300.14 156.095 300.12 156.829 300.12ZM156.829 301.48H156.369C153.555 301.48 152.149 302.08 152.149 303.28C152.149 303.8 152.335 304.18 152.709 304.42C153.082 304.647 153.542 304.76 154.089 304.76C154.942 304.76 155.609 304.507 156.089 304C156.582 303.48 156.829 302.807 156.829 301.98V301.48ZM163.668 296.52V306H161.788V296.52H163.668ZM163.988 293.1C163.988 293.433 163.862 293.72 163.608 293.96C163.368 294.187 163.075 294.3 162.728 294.3C162.382 294.3 162.088 294.187 161.848 293.96C161.608 293.72 161.488 293.433 161.488 293.1C161.488 292.767 161.608 292.48 161.848 292.24C162.088 292 162.382 291.88 162.728 291.88C163.075 291.88 163.368 292 163.608 292.24C163.862 292.467 163.988 292.753 163.988 293.1ZM166.944 298.56C166.944 297.747 166.918 297.067 166.864 296.52H168.644C168.698 297.16 168.724 297.693 168.724 298.12H168.784C169.051 297.56 169.444 297.113 169.964 296.78C170.484 296.433 171.058 296.26 171.684 296.26C171.978 296.26 172.224 296.287 172.424 296.34L172.344 298.08C172.078 298.013 171.791 297.98 171.484 297.98C170.631 297.98 169.971 298.273 169.504 298.86C169.051 299.447 168.824 300.167 168.824 301.02V306H166.944V298.56ZM181.399 304.5C181.052 305.06 180.565 305.493 179.939 305.8C179.325 306.107 178.672 306.26 177.979 306.26C176.552 306.26 175.399 305.78 174.519 304.82C173.639 303.86 173.199 302.667 173.199 301.24C173.199 299.813 173.639 298.627 174.519 297.68C175.412 296.733 176.559 296.26 177.959 296.26C178.692 296.26 179.345 296.42 179.919 296.74C180.505 297.047 180.979 297.447 181.339 297.94H181.379V290.88H183.259V306H181.439V304.5H181.399ZM175.979 298.82C175.432 299.487 175.159 300.293 175.159 301.24C175.159 302.187 175.432 303 175.979 303.68C176.539 304.347 177.312 304.68 178.299 304.68C179.232 304.68 179.999 304.347 180.599 303.68C181.199 303 181.499 302.193 181.499 301.26C181.499 300.327 181.199 299.52 180.599 298.84C179.999 298.16 179.232 297.82 178.299 297.82C177.312 297.82 176.539 298.153 175.979 298.82ZM186.534 298.56C186.534 297.747 186.507 297.067 186.454 296.52H188.234C188.287 297.16 188.314 297.693 188.314 298.12H188.374C188.641 297.56 189.034 297.113 189.554 296.78C190.074 296.433 190.647 296.26 191.274 296.26C191.567 296.26 191.814 296.287 192.014 296.34L191.934 298.08C191.667 298.013 191.381 297.98 191.074 297.98C190.221 297.98 189.561 298.273 189.094 298.86C188.641 299.447 188.414 300.167 188.414 301.02V306H186.534V298.56ZM201.569 297.66C202.542 298.593 203.029 299.787 203.029 301.24C203.029 302.693 202.535 303.893 201.549 304.84C200.575 305.787 199.362 306.26 197.909 306.26C196.455 306.26 195.242 305.787 194.269 304.84C193.295 303.893 192.809 302.693 192.809 301.24C192.809 299.787 193.289 298.593 194.249 297.66C195.222 296.727 196.442 296.26 197.909 296.26C199.375 296.26 200.595 296.727 201.569 297.66ZM200.209 303.68C200.782 303 201.069 302.187 201.069 301.24C201.069 300.293 200.782 299.487 200.209 298.82C199.649 298.153 198.882 297.82 197.909 297.82C196.935 297.82 196.162 298.153 195.589 298.82C195.029 299.487 194.749 300.293 194.749 301.24C194.749 302.187 195.029 303 195.589 303.68C196.162 304.347 196.935 304.68 197.909 304.68C198.882 304.68 199.649 304.347 200.209 303.68ZM207.516 304.58V310.8H205.636V296.52H207.476V298H207.536C207.856 297.48 208.316 297.06 208.916 296.74C209.516 296.42 210.196 296.26 210.956 296.26C212.342 296.26 213.476 296.74 214.356 297.7C215.249 298.647 215.696 299.827 215.696 301.24C215.696 302.667 215.256 303.86 214.376 304.82C213.496 305.78 212.342 306.26 210.916 306.26C210.236 306.26 209.596 306.113 208.996 305.82C208.396 305.513 207.922 305.1 207.576 304.58H207.516ZM212.916 303.68C213.476 303 213.756 302.187 213.756 301.24C213.756 300.293 213.476 299.487 212.916 298.82C212.356 298.153 211.582 297.82 210.596 297.82C209.662 297.82 208.896 298.16 208.296 298.84C207.696 299.52 207.396 300.327 207.396 301.26C207.396 302.193 207.696 303 208.296 303.68C208.896 304.347 209.662 304.68 210.596 304.68C211.582 304.68 212.356 304.347 212.916 303.68ZM219.911 304.48C220.378 303.08 220.611 301.667 220.611 300.24C220.611 298.813 220.378 297.4 219.911 296C219.458 294.6 218.831 293.34 218.031 292.22L219.391 291.34C220.298 292.553 221.011 293.933 221.531 295.48C222.051 297.027 222.311 298.613 222.311 300.24C222.311 301.867 222.051 303.453 221.531 305C221.011 306.547 220.298 307.927 219.391 309.14L218.031 308.26C218.831 307.14 219.458 305.88 219.911 304.48ZM234.08 296.52V298.06H231.88V306H230V298.06H228.12V296.52H230V294.54C230 293.353 230.287 292.407 230.86 291.7C231.433 290.993 232.327 290.64 233.54 290.64C233.993 290.64 234.387 290.687 234.72 290.78L234.5 292.4C234.18 292.307 233.867 292.26 233.56 292.26C232.44 292.26 231.88 293.02 231.88 294.54V296.52H234.08ZM243.951 297.66C244.925 298.593 245.411 299.787 245.411 301.24C245.411 302.693 244.918 303.893 243.931 304.84C242.958 305.787 241.745 306.26 240.291 306.26C238.838 306.26 237.625 305.787 236.651 304.84C235.678 303.893 235.191 302.693 235.191 301.24C235.191 299.787 235.671 298.593 236.631 297.66C237.605 296.727 238.825 296.26 240.291 296.26C241.758 296.26 242.978 296.727 243.951 297.66ZM242.591 303.68C243.165 303 243.451 302.187 243.451 301.24C243.451 300.293 243.165 299.487 242.591 298.82C242.031 298.153 241.265 297.82 240.291 297.82C239.318 297.82 238.545 298.153 237.971 298.82C237.411 299.487 237.131 300.293 237.131 301.24C237.131 302.187 237.411 303 237.971 303.68C238.545 304.347 239.318 304.68 240.291 304.68C241.265 304.68 242.031 304.347 242.591 303.68ZM248.018 298.56C248.018 297.747 247.992 297.067 247.938 296.52H249.718C249.772 297.16 249.798 297.693 249.798 298.12H249.858C250.125 297.56 250.518 297.113 251.038 296.78C251.558 296.433 252.132 296.26 252.758 296.26C253.052 296.26 253.298 296.287 253.498 296.34L253.418 298.08C253.152 298.013 252.865 297.98 252.558 297.98C251.705 297.98 251.045 298.273 250.578 298.86C250.125 299.447 249.898 300.167 249.898 301.02V306H248.018V298.56ZM266.685 297.82L265.385 298.92C265.171 298.573 264.865 298.293 264.465 298.08C264.078 297.853 263.651 297.74 263.185 297.74C262.705 297.74 262.291 297.847 261.945 298.06C261.598 298.26 261.425 298.567 261.425 298.98C261.425 299.353 261.591 299.64 261.925 299.84C262.258 300.04 262.811 300.227 263.585 300.4C265.705 300.867 266.765 301.8 266.765 303.2C266.765 304.24 266.398 305.013 265.665 305.52C264.945 306.013 264.051 306.26 262.985 306.26C262.238 306.26 261.525 306.113 260.845 305.82C260.165 305.527 259.605 305.107 259.165 304.56L260.505 303.42C260.758 303.807 261.111 304.127 261.565 304.38C262.031 304.62 262.518 304.74 263.025 304.74C263.558 304.74 264.005 304.633 264.365 304.42C264.725 304.193 264.905 303.84 264.905 303.36C264.905 302.947 264.711 302.633 264.325 302.42C263.951 302.207 263.318 301.993 262.425 301.78C262.051 301.687 261.725 301.587 261.445 301.48C261.165 301.373 260.878 301.227 260.585 301.04C260.291 300.84 260.065 300.587 259.905 300.28C259.745 299.96 259.665 299.587 259.665 299.16C259.665 298.2 260.011 297.48 260.705 297C261.411 296.507 262.258 296.26 263.245 296.26C263.938 296.26 264.598 296.4 265.225 296.68C265.865 296.947 266.351 297.327 266.685 297.82ZM273.791 296.52V298.06H271.271V303C271.271 303.573 271.378 303.987 271.591 304.24C271.805 304.48 272.145 304.6 272.611 304.6C273.025 304.6 273.391 304.52 273.711 304.36L273.771 305.9C273.291 306.073 272.758 306.16 272.171 306.16C271.278 306.16 270.591 305.913 270.111 305.42C269.645 304.913 269.411 304.173 269.411 303.2V298.06H267.591V296.52H269.411V293.8H271.271V296.52H273.791ZM281.633 300.12V299.86C281.633 299.18 281.42 298.667 280.993 298.32C280.58 297.96 280.013 297.78 279.293 297.78C278.227 297.78 277.327 298.147 276.593 298.88L275.593 297.68C276.58 296.733 277.873 296.26 279.473 296.26C280.78 296.26 281.767 296.607 282.433 297.3C283.1 297.98 283.433 298.873 283.433 299.98V304.12C283.433 304.947 283.48 305.573 283.573 306H281.873C281.767 305.547 281.713 305.093 281.713 304.64H281.653C280.947 305.707 279.887 306.24 278.473 306.24C278.073 306.24 277.68 306.187 277.293 306.08C276.907 305.973 276.54 305.813 276.193 305.6C275.847 305.387 275.567 305.087 275.353 304.7C275.14 304.3 275.033 303.84 275.033 303.32C275.033 302.773 275.16 302.3 275.413 301.9C275.68 301.487 276.013 301.173 276.413 300.96C276.813 300.733 277.32 300.56 277.933 300.44C278.56 300.307 279.147 300.22 279.693 300.18C280.253 300.14 280.9 300.12 281.633 300.12ZM281.633 301.48H281.173C278.36 301.48 276.953 302.08 276.953 303.28C276.953 303.8 277.14 304.18 277.513 304.42C277.887 304.647 278.347 304.76 278.893 304.76C279.747 304.76 280.413 304.507 280.893 304C281.387 303.48 281.633 302.807 281.633 301.98V301.48ZM288.493 290.88V300.64H288.553L292.533 296.52H295.053L290.613 300.82L295.433 306H292.833L288.553 301.08H288.493V306H286.613V290.88H288.493ZM299.02 296.52V306H297.14V296.52H299.02ZM299.34 293.1C299.34 293.433 299.213 293.72 298.96 293.96C298.72 294.187 298.427 294.3 298.08 294.3C297.733 294.3 297.44 294.187 297.2 293.96C296.96 293.72 296.84 293.433 296.84 293.1C296.84 292.767 296.96 292.48 297.2 292.24C297.44 292 297.733 291.88 298.08 291.88C298.427 291.88 298.72 292 298.96 292.24C299.213 292.467 299.34 292.753 299.34 293.1ZM302.216 296.52H303.996C304.049 297.16 304.076 297.68 304.076 298.08H304.136C304.376 297.56 304.782 297.127 305.356 296.78C305.929 296.433 306.549 296.26 307.216 296.26C308.376 296.26 309.256 296.62 309.856 297.34C310.456 298.06 310.756 298.987 310.756 300.12V306H308.876V300.74C308.876 298.807 308.156 297.84 306.716 297.84C305.969 297.84 305.356 298.127 304.876 298.7C304.409 299.273 304.176 300.027 304.176 300.96V306H302.296V298.56C302.296 297.747 302.269 297.067 302.216 296.52ZM313.476 309.08L314.676 307.62C315.09 308.087 315.61 308.46 316.236 308.74C316.863 309.02 317.496 309.16 318.136 309.16C320.363 309.16 321.476 307.993 321.476 305.66V304.44H321.436C321.09 304.96 320.616 305.367 320.016 305.66C319.416 305.94 318.776 306.08 318.096 306.08C316.67 306.08 315.516 305.613 314.636 304.68C313.756 303.747 313.316 302.587 313.316 301.2C313.316 299.8 313.756 298.627 314.636 297.68C315.516 296.733 316.663 296.26 318.076 296.26C318.783 296.26 319.443 296.413 320.056 296.72C320.67 297.027 321.15 297.467 321.496 298.04H321.536V296.52H323.356V305.52C323.356 306.24 323.263 306.9 323.076 307.5C322.903 308.113 322.616 308.673 322.216 309.18C321.83 309.687 321.283 310.08 320.576 310.36C319.883 310.653 319.063 310.8 318.116 310.8C317.29 310.8 316.456 310.647 315.616 310.34C314.776 310.033 314.063 309.613 313.476 309.08ZM315.256 301.16C315.256 302.08 315.543 302.867 316.116 303.52C316.69 304.173 317.45 304.5 318.396 304.5C319.356 304.5 320.13 304.187 320.716 303.56C321.316 302.92 321.616 302.12 321.616 301.16C321.616 300.24 321.31 299.453 320.696 298.8C320.096 298.147 319.33 297.82 318.396 297.82C317.436 297.82 316.67 298.14 316.096 298.78C315.536 299.42 315.256 300.213 315.256 301.16ZM145.28 331.52L148.22 338.96H148.26L150.88 331.52H152.88L148.28 343.24C147.947 344.107 147.533 344.747 147.04 345.16C146.56 345.587 145.88 345.8 145 345.8C144.56 345.8 144.147 345.753 143.76 345.66L143.94 344C144.26 344.107 144.573 344.16 144.88 344.16C145.333 344.16 145.687 344.033 145.94 343.78C146.193 343.54 146.427 343.14 146.64 342.58L147.24 341L143.18 331.52H145.28ZM162.838 332.66C163.811 333.593 164.298 334.787 164.298 336.24C164.298 337.693 163.805 338.893 162.818 339.84C161.845 340.787 160.631 341.26 159.178 341.26C157.725 341.26 156.511 340.787 155.538 339.84C154.565 338.893 154.078 337.693 154.078 336.24C154.078 334.787 154.558 333.593 155.518 332.66C156.491 331.727 157.711 331.26 159.178 331.26C160.645 331.26 161.865 331.727 162.838 332.66ZM161.478 338.68C162.051 338 162.338 337.187 162.338 336.24C162.338 335.293 162.051 334.487 161.478 333.82C160.918 333.153 160.151 332.82 159.178 332.82C158.205 332.82 157.431 333.153 156.858 333.82C156.298 334.487 156.018 335.293 156.018 336.24C156.018 337.187 156.298 338 156.858 338.68C157.431 339.347 158.205 339.68 159.178 339.68C160.151 339.68 160.918 339.347 161.478 338.68ZM175.365 341H173.585C173.532 340.36 173.505 339.84 173.505 339.44H173.465C173.212 339.96 172.798 340.393 172.225 340.74C171.652 341.087 171.032 341.26 170.365 341.26C169.205 341.26 168.325 340.9 167.725 340.18C167.125 339.46 166.825 338.533 166.825 337.4V331.52H168.705V336.76C168.705 338.707 169.425 339.68 170.865 339.68C171.625 339.68 172.238 339.393 172.705 338.82C173.172 338.247 173.405 337.493 173.405 336.56V331.52H175.285V338.96C175.285 339.773 175.312 340.453 175.365 341ZM178.546 333.56C178.546 332.747 178.519 332.067 178.466 331.52H180.246C180.299 332.16 180.326 332.693 180.326 333.12H180.386C180.652 332.56 181.046 332.113 181.566 331.78C182.086 331.433 182.659 331.26 183.286 331.26C183.579 331.26 183.826 331.287 184.026 331.34L183.946 333.08C183.679 333.013 183.392 332.98 183.086 332.98C182.232 332.98 181.572 333.273 181.106 333.86C180.652 334.447 180.426 335.167 180.426 336.02V341H178.546V333.56ZM191.278 326.84L194.398 338.12H194.438L197.758 326.84H199.938L203.238 338.12H203.278L206.398 326.84H208.498L204.338 341H202.278L198.838 329.62H198.798L195.358 341H193.298L189.138 326.84H191.278ZM212.403 326.84V341H210.423V326.84H212.403ZM218.433 326.84L225.833 338.16H225.873V326.84H227.853V341H225.353L217.873 329.44H217.833V341H215.853V326.84H218.433ZM233.282 334.7V341H231.302V326.84H235.842C237.335 326.84 238.549 327.153 239.482 327.78C240.415 328.407 240.882 329.4 240.882 330.76C240.882 331.773 240.569 332.607 239.942 333.26C239.315 333.913 238.482 334.327 237.442 334.5L241.402 341H239.002L235.402 334.7H233.282ZM233.282 328.52V333.04H235.562C237.775 333.04 238.882 332.28 238.882 330.76C238.882 329.267 237.822 328.52 235.702 328.52H233.282ZM253.127 331.52V333.06H250.607V338C250.607 338.573 250.714 338.987 250.927 339.24C251.141 339.48 251.481 339.6 251.947 339.6C252.361 339.6 252.727 339.52 253.047 339.36L253.107 340.9C252.627 341.073 252.094 341.16 251.507 341.16C250.614 341.16 249.927 340.913 249.447 340.42C248.981 339.913 248.747 339.173 248.747 338.2V333.06H246.927V331.52H248.747V328.8H250.607V331.52H253.127ZM263.209 332.66C264.183 333.593 264.669 334.787 264.669 336.24C264.669 337.693 264.176 338.893 263.189 339.84C262.216 340.787 261.003 341.26 259.549 341.26C258.096 341.26 256.883 340.787 255.909 339.84C254.936 338.893 254.449 337.693 254.449 336.24C254.449 334.787 254.929 333.593 255.889 332.66C256.863 331.727 258.083 331.26 259.549 331.26C261.016 331.26 262.236 331.727 263.209 332.66ZM261.849 338.68C262.423 338 262.709 337.187 262.709 336.24C262.709 335.293 262.423 334.487 261.849 333.82C261.289 333.153 260.523 332.82 259.549 332.82C258.576 332.82 257.803 333.153 257.229 333.82C256.669 334.487 256.389 335.293 256.389 336.24C256.389 337.187 256.669 338 257.229 338.68C257.803 339.347 258.576 339.68 259.549 339.68C260.523 339.68 261.289 339.347 261.849 338.68ZM269.196 325.88V335.64H269.256L273.236 331.52H275.756L271.316 335.82L276.136 341H273.536L269.256 336.08H269.196V341H267.316V325.88H269.196ZM278.772 335.42H284.412C284.385 334.633 284.145 333.993 283.692 333.5C283.238 332.993 282.592 332.74 281.752 332.74C280.952 332.74 280.272 333 279.712 333.52C279.152 334.04 278.838 334.673 278.772 335.42ZM286.312 336.18C286.312 336.46 286.305 336.673 286.292 336.82H278.772C278.798 337.633 279.112 338.32 279.712 338.88C280.312 339.427 281.025 339.7 281.852 339.7C283.038 339.7 283.958 339.22 284.612 338.26L285.932 339.32C284.932 340.613 283.572 341.26 281.852 341.26C280.398 341.26 279.198 340.8 278.252 339.88C277.318 338.96 276.852 337.76 276.852 336.28C276.852 334.813 277.318 333.613 278.252 332.68C279.185 331.733 280.352 331.26 281.752 331.26C283.152 331.26 284.258 331.707 285.072 332.6C285.898 333.48 286.312 334.673 286.312 336.18ZM288.856 331.52H290.636C290.69 332.16 290.716 332.68 290.716 333.08H290.776C291.016 332.56 291.423 332.127 291.996 331.78C292.57 331.433 293.19 331.26 293.856 331.26C295.016 331.26 295.896 331.62 296.496 332.34C297.096 333.06 297.396 333.987 297.396 335.12V341H295.516V335.74C295.516 333.807 294.796 332.84 293.356 332.84C292.61 332.84 291.996 333.127 291.516 333.7C291.05 334.273 290.816 335.027 290.816 335.96V341H288.936V333.56C288.936 332.747 288.91 332.067 288.856 331.52ZM306.997 332.82L305.697 333.92C305.484 333.573 305.177 333.293 304.777 333.08C304.39 332.853 303.964 332.74 303.497 332.74C303.017 332.74 302.604 332.847 302.257 333.06C301.91 333.26 301.737 333.567 301.737 333.98C301.737 334.353 301.904 334.64 302.237 334.84C302.57 335.04 303.124 335.227 303.897 335.4C306.017 335.867 307.077 336.8 307.077 338.2C307.077 339.24 306.71 340.013 305.977 340.52C305.257 341.013 304.364 341.26 303.297 341.26C302.55 341.26 301.837 341.113 301.157 340.82C300.477 340.527 299.917 340.107 299.477 339.56L300.817 338.42C301.07 338.807 301.424 339.127 301.877 339.38C302.344 339.62 302.83 339.74 303.337 339.74C303.87 339.74 304.317 339.633 304.677 339.42C305.037 339.193 305.217 338.84 305.217 338.36C305.217 337.947 305.024 337.633 304.637 337.42C304.264 337.207 303.63 336.993 302.737 336.78C302.364 336.687 302.037 336.587 301.757 336.48C301.477 336.373 301.19 336.227 300.897 336.04C300.604 335.84 300.377 335.587 300.217 335.28C300.057 334.96 299.977 334.587 299.977 334.16C299.977 333.2 300.324 332.48 301.017 332C301.724 331.507 302.57 331.26 303.557 331.26C304.25 331.26 304.91 331.4 305.537 331.68C306.177 331.947 306.664 332.327 306.997 332.82Z" fill="white" fill-opacity="0.95"/>
<circle opacity="0.2" cx="68.0046" cy="298.991" r="45" stroke="#DCDDE0" stroke-width="3"/>
<g filter="url(#filter1_d)">
<mask id="path-9-outside-2" maskUnits="userSpaceOnUse" x="20.0017" y="251.004" width="95.6536" height="87.9118" fill="black">
<rect fill="white" x="20.0017" y="251.004" width="95.6536" height="87.9118"/>
<path d="M24.5468 300.372C24.3142 293.054 25.9338 285.796 29.2552 279.272C32.5767 272.747 37.4925 267.167 43.5463 263.05C49.6002 258.932 56.596 256.411 63.8847 255.719C71.1733 255.028 78.5185 256.188 85.2388 259.094C91.959 261.999 97.8366 266.554 102.326 272.338C106.815 278.121 109.771 284.945 110.919 292.176C112.067 299.407 111.37 306.81 108.892 313.7C106.415 320.589 102.237 326.741 96.747 331.585L67.9908 298.991L24.5468 300.372Z"/>
</mask>
<path d="M24.5468 300.372C24.3142 293.054 25.9338 285.796 29.2552 279.272C32.5767 272.747 37.4925 267.167 43.5463 263.05C49.6002 258.932 56.596 256.411 63.8847 255.719C71.1733 255.028 78.5185 256.188 85.2388 259.094C91.959 261.999 97.8366 266.554 102.326 272.338C106.815 278.121 109.771 284.945 110.919 292.176C112.067 299.407 111.37 306.81 108.892 313.7C106.415 320.589 102.237 326.741 96.747 331.585L67.9908 298.991L24.5468 300.372Z" stroke="#D9113A" stroke-width="6" mask="url(#path-9-outside-2)"/>
</g>
<circle cx="67.7193" cy="298.707" r="43.4659" fill="#080D17"/>
<path d="M53.1482 289.291H56.7982L52.2732 295.841L52.2982 295.866C52.7815 295.666 53.4065 295.566 54.1732 295.566C55.7398 295.566 57.0732 296.116 58.1732 297.216C59.2732 298.299 59.8232 299.641 59.8232 301.241C59.8232 303.091 59.2065 304.591 57.9732 305.741C56.7565 306.874 55.2232 307.441 53.3732 307.441C51.5232 307.441 49.9815 306.858 48.7482 305.691C47.5148 304.524 46.8982 303.083 46.8982 301.366C46.8982 300.416 47.0398 299.566 47.3232 298.816C47.6232 298.049 48.0898 297.158 48.7232 296.141L53.1482 289.291ZM49.9482 301.441C49.9482 302.391 50.2565 303.208 50.8732 303.891C51.5065 304.558 52.3315 304.891 53.3482 304.891C54.3648 304.891 55.1815 304.574 55.7982 303.941C56.4315 303.291 56.7482 302.441 56.7482 301.391C56.7482 300.391 56.4398 299.566 55.8232 298.916C55.2065 298.266 54.3982 297.941 53.3982 297.941C52.3815 297.941 51.5482 298.266 50.8982 298.916C50.2648 299.566 49.9482 300.408 49.9482 301.441ZM69.732 306.991V303.316H61.557V300.666L69.082 289.291H72.682V300.741H75.157V303.316H72.682V306.991H69.732ZM69.732 300.741V292.816H69.682L64.657 300.741H69.732ZM84.8707 306.361C84.3307 305.811 84.0607 305.151 84.0607 304.381C84.0607 303.611 84.3307 302.956 84.8707 302.416C85.4207 301.866 86.0807 301.591 86.8507 301.591C87.6207 301.591 88.2757 301.866 88.8157 302.416C89.3657 302.956 89.6407 303.611 89.6407 304.381C89.6407 305.151 89.3657 305.811 88.8157 306.361C88.2757 306.901 87.6207 307.171 86.8507 307.171C86.0807 307.171 85.4207 306.901 84.8707 306.361ZM87.8107 305.341C88.0707 305.081 88.2007 304.761 88.2007 304.381C88.2007 304.001 88.0707 303.681 87.8107 303.421C87.5507 303.161 87.2307 303.031 86.8507 303.031C86.4707 303.031 86.1507 303.161 85.8907 303.421C85.6307 303.681 85.5007 304.001 85.5007 304.381C85.5007 304.761 85.6307 305.081 85.8907 305.341C86.1507 305.601 86.4707 305.731 86.8507 305.731C87.2307 305.731 87.5507 305.601 87.8107 305.341ZM77.7007 300.961C77.1607 300.411 76.8907 299.751 76.8907 298.981C76.8907 298.211 77.1607 297.556 77.7007 297.016C78.2507 296.466 78.9107 296.191 79.6807 296.191C80.4507 296.191 81.1057 296.466 81.6457 297.016C82.1957 297.556 82.4707 298.211 82.4707 298.981C82.4707 299.751 82.1957 300.411 81.6457 300.961C81.1057 301.501 80.4507 301.771 79.6807 301.771C78.9107 301.771 78.2507 301.501 77.7007 300.961ZM80.6407 299.941C80.9007 299.681 81.0307 299.361 81.0307 298.981C81.0307 298.601 80.9007 298.281 80.6407 298.021C80.3807 297.761 80.0607 297.631 79.6807 297.631C79.3007 297.631 78.9807 297.761 78.7207 298.021C78.4607 298.281 78.3307 298.601 78.3307 298.981C78.3307 299.361 78.4607 299.681 78.7207 299.941C78.9807 300.201 79.3007 300.331 79.6807 300.331C80.0607 300.331 80.3807 300.201 80.6407 299.941ZM79.5157 306.901L85.7557 295.891L87.0007 296.461L80.7607 307.471L79.5157 306.901Z" fill="white" fill-opacity="0.95"/>
<path d="M152.76 128.66C153.733 129.593 154.22 130.787 154.22 132.24C154.22 133.693 153.727 134.893 152.74 135.84C151.767 136.787 150.553 137.26 149.1 137.26C147.647 137.26 146.433 136.787 145.46 135.84C144.487 134.893 144 133.693 144 132.24C144 130.787 144.48 129.593 145.44 128.66C146.413 127.727 147.633 127.26 149.1 127.26C150.567 127.26 151.787 127.727 152.76 128.66ZM151.4 134.68C151.973 134 152.26 133.187 152.26 132.24C152.26 131.293 151.973 130.487 151.4 129.82C150.84 129.153 150.073 128.82 149.1 128.82C148.127 128.82 147.353 129.153 146.78 129.82C146.22 130.487 145.94 131.293 145.94 132.24C145.94 133.187 146.22 134 146.78 134.68C147.353 135.347 148.127 135.68 149.1 135.68C150.073 135.68 150.84 135.347 151.4 134.68ZM161.287 127.52V129.06H159.087V137H157.207V129.06H155.327V127.52H157.207V125.54C157.207 124.353 157.494 123.407 158.067 122.7C158.64 121.993 159.534 121.64 160.747 121.64C161.2 121.64 161.594 121.687 161.927 121.78L161.707 123.4C161.387 123.307 161.074 123.26 160.767 123.26C159.647 123.26 159.087 124.02 159.087 125.54V127.52H161.287ZM168.607 137V122.84H173.467C174.413 122.84 175.32 122.98 176.187 123.26C177.067 123.527 177.88 123.933 178.627 124.48C179.373 125.027 179.973 125.773 180.427 126.72C180.88 127.653 181.107 128.72 181.107 129.92C181.107 131.08 180.88 132.127 180.427 133.06C179.973 133.993 179.373 134.74 178.627 135.3C177.893 135.847 177.08 136.267 176.187 136.56C175.307 136.853 174.4 137 173.467 137H168.607ZM170.587 124.56V135.26H173.067C174.813 135.26 176.233 134.787 177.327 133.84C178.433 132.88 178.987 131.573 178.987 129.92C178.987 128.213 178.44 126.893 177.347 125.96C176.253 125.027 174.827 124.56 173.067 124.56H170.587ZM189.622 131.12V130.86C189.622 130.18 189.408 129.667 188.982 129.32C188.568 128.96 188.002 128.78 187.282 128.78C186.215 128.78 185.315 129.147 184.582 129.88L183.582 128.68C184.568 127.733 185.862 127.26 187.462 127.26C188.768 127.26 189.755 127.607 190.422 128.3C191.088 128.98 191.422 129.873 191.422 130.98V135.12C191.422 135.947 191.468 136.573 191.562 137H189.862C189.755 136.547 189.702 136.093 189.702 135.64H189.642C188.935 136.707 187.875 137.24 186.462 137.24C186.062 137.24 185.668 137.187 185.282 137.08C184.895 136.973 184.528 136.813 184.182 136.6C183.835 136.387 183.555 136.087 183.342 135.7C183.128 135.3 183.022 134.84 183.022 134.32C183.022 133.773 183.148 133.3 183.402 132.9C183.668 132.487 184.002 132.173 184.402 131.96C184.802 131.733 185.308 131.56 185.922 131.44C186.548 131.307 187.135 131.22 187.682 131.18C188.242 131.14 188.888 131.12 189.622 131.12ZM189.622 132.48H189.162C186.348 132.48 184.942 133.08 184.942 134.28C184.942 134.8 185.128 135.18 185.502 135.42C185.875 135.647 186.335 135.76 186.882 135.76C187.735 135.76 188.402 135.507 188.882 135C189.375 134.48 189.622 133.807 189.622 132.98V132.48ZM196.461 127.52V137H194.581V127.52H196.461ZM196.781 124.1C196.781 124.433 196.655 124.72 196.401 124.96C196.161 125.187 195.868 125.3 195.521 125.3C195.175 125.3 194.881 125.187 194.641 124.96C194.401 124.72 194.281 124.433 194.281 124.1C194.281 123.767 194.401 123.48 194.641 123.24C194.881 123 195.175 122.88 195.521 122.88C195.868 122.88 196.161 123 196.401 123.24C196.655 123.467 196.781 123.753 196.781 124.1ZM201.657 121.88V137H199.777V121.88H201.657ZM205.593 127.52L208.533 134.96H208.573L211.193 127.52H213.193L208.592 139.24C208.259 140.107 207.846 140.747 207.353 141.16C206.873 141.587 206.193 141.8 205.313 141.8C204.873 141.8 204.459 141.753 204.073 141.66L204.253 140C204.573 140.107 204.886 140.16 205.193 140.16C205.646 140.16 205.999 140.033 206.252 139.78C206.506 139.54 206.739 139.14 206.953 138.58L207.553 137L203.493 127.52H205.593ZM220.011 129.56C220.011 128.747 219.984 128.067 219.931 127.52H221.711C221.764 128.16 221.791 128.693 221.791 129.12H221.851C222.117 128.56 222.511 128.113 223.031 127.78C223.551 127.433 224.124 127.26 224.751 127.26C225.044 127.26 225.291 127.287 225.491 127.34L225.411 129.08C225.144 129.013 224.857 128.98 224.551 128.98C223.697 128.98 223.037 129.273 222.571 129.86C222.117 130.447 221.891 131.167 221.891 132.02V137H220.011V129.56ZM228.205 131.42H233.845C233.818 130.633 233.578 129.993 233.125 129.5C232.672 128.993 232.025 128.74 231.185 128.74C230.385 128.74 229.705 129 229.145 129.52C228.585 130.04 228.272 130.673 228.205 131.42ZM235.745 132.18C235.745 132.46 235.738 132.673 235.725 132.82H228.205C228.232 133.633 228.545 134.32 229.145 134.88C229.745 135.427 230.458 135.7 231.285 135.7C232.472 135.7 233.392 135.22 234.045 134.26L235.365 135.32C234.365 136.613 233.005 137.26 231.285 137.26C229.832 137.26 228.632 136.8 227.685 135.88C226.752 134.96 226.285 133.76 226.285 132.28C226.285 130.813 226.752 129.613 227.685 128.68C228.618 127.733 229.785 127.26 231.185 127.26C232.585 127.26 233.692 127.707 234.505 128.6C235.332 129.48 235.745 130.673 235.745 132.18ZM246.63 127.52L242.83 137H240.79L236.93 127.52H239.01L241.79 134.98H241.83L244.63 127.52H246.63ZM249.748 131.42H255.388C255.361 130.633 255.121 129.993 254.668 129.5C254.215 128.993 253.568 128.74 252.728 128.74C251.928 128.74 251.248 129 250.688 129.52C250.128 130.04 249.815 130.673 249.748 131.42ZM257.288 132.18C257.288 132.46 257.281 132.673 257.268 132.82H249.748C249.775 133.633 250.088 134.32 250.688 134.88C251.288 135.427 252.001 135.7 252.828 135.7C254.015 135.7 254.935 135.22 255.588 134.26L256.908 135.32C255.908 136.613 254.548 137.26 252.828 137.26C251.375 137.26 250.175 136.8 249.228 135.88C248.295 134.96 247.828 133.76 247.828 132.28C247.828 130.813 248.295 129.613 249.228 128.68C250.161 127.733 251.328 127.26 252.728 127.26C254.128 127.26 255.235 127.707 256.048 128.6C256.875 129.48 257.288 130.673 257.288 132.18ZM259.833 127.52H261.613C261.666 128.16 261.693 128.68 261.693 129.08H261.753C261.993 128.56 262.4 128.127 262.973 127.78C263.546 127.433 264.166 127.26 264.833 127.26C265.993 127.26 266.873 127.62 267.473 128.34C268.073 129.06 268.373 129.987 268.373 131.12V137H266.493V131.74C266.493 129.807 265.773 128.84 264.333 128.84C263.586 128.84 262.973 129.127 262.493 129.7C262.026 130.273 261.793 131.027 261.793 131.96V137H259.913V129.56C259.913 128.747 259.886 128.067 259.833 127.52ZM280.014 137H278.234C278.18 136.36 278.154 135.84 278.154 135.44H278.114C277.86 135.96 277.447 136.393 276.874 136.74C276.3 137.087 275.68 137.26 275.014 137.26C273.854 137.26 272.974 136.9 272.374 136.18C271.774 135.46 271.474 134.533 271.474 133.4V127.52H273.354V132.76C273.354 134.707 274.074 135.68 275.514 135.68C276.274 135.68 276.887 135.393 277.354 134.82C277.82 134.247 278.054 133.493 278.054 132.56V127.52H279.934V134.96C279.934 135.773 279.96 136.453 280.014 137ZM284.494 131.42H290.134C290.108 130.633 289.868 129.993 289.414 129.5C288.961 128.993 288.314 128.74 287.474 128.74C286.674 128.74 285.994 129 285.434 129.52C284.874 130.04 284.561 130.673 284.494 131.42ZM292.034 132.18C292.034 132.46 292.028 132.673 292.014 132.82H284.494C284.521 133.633 284.834 134.32 285.434 134.88C286.034 135.427 286.748 135.7 287.574 135.7C288.761 135.7 289.681 135.22 290.334 134.26L291.654 135.32C290.654 136.613 289.294 137.26 287.574 137.26C286.121 137.26 284.921 136.8 283.974 135.88C283.041 134.96 282.574 133.76 282.574 132.28C282.574 130.813 283.041 129.613 283.974 128.68C284.908 127.733 286.074 127.26 287.474 127.26C288.874 127.26 289.981 127.707 290.794 128.6C291.621 129.48 292.034 130.673 292.034 132.18ZM301.079 128.82L299.779 129.92C299.566 129.573 299.259 129.293 298.859 129.08C298.472 128.853 298.046 128.74 297.579 128.74C297.099 128.74 296.686 128.847 296.339 129.06C295.992 129.26 295.819 129.567 295.819 129.98C295.819 130.353 295.986 130.64 296.319 130.84C296.652 131.04 297.206 131.227 297.979 131.4C300.099 131.867 301.159 132.8 301.159 134.2C301.159 135.24 300.792 136.013 300.059 136.52C299.339 137.013 298.446 137.26 297.379 137.26C296.632 137.26 295.919 137.113 295.239 136.82C294.559 136.527 293.999 136.107 293.559 135.56L294.899 134.42C295.152 134.807 295.506 135.127 295.959 135.38C296.426 135.62 296.912 135.74 297.419 135.74C297.952 135.74 298.399 135.633 298.759 135.42C299.119 135.193 299.299 134.84 299.299 134.36C299.299 133.947 299.106 133.633 298.719 133.42C298.346 133.207 297.712 132.993 296.819 132.78C296.446 132.687 296.119 132.587 295.839 132.48C295.559 132.373 295.272 132.227 294.979 132.04C294.686 131.84 294.459 131.587 294.299 131.28C294.139 130.96 294.059 130.587 294.059 130.16C294.059 129.2 294.406 128.48 295.099 128C295.806 127.507 296.652 127.26 297.639 127.26C298.332 127.26 298.992 127.4 299.619 127.68C300.259 127.947 300.746 128.327 301.079 128.82ZM314.446 131.12V130.86C314.446 130.18 314.232 129.667 313.806 129.32C313.392 128.96 312.826 128.78 312.106 128.78C311.039 128.78 310.139 129.147 309.406 129.88L308.406 128.68C309.392 127.733 310.686 127.26 312.286 127.26C313.592 127.26 314.579 127.607 315.246 128.3C315.912 128.98 316.246 129.873 316.246 130.98V135.12C316.246 135.947 316.292 136.573 316.386 137H314.686C314.579 136.547 314.526 136.093 314.526 135.64H314.466C313.759 136.707 312.699 137.24 311.286 137.24C310.886 137.24 310.492 137.187 310.106 137.08C309.719 136.973 309.352 136.813 309.006 136.6C308.659 136.387 308.379 136.087 308.166 135.7C307.952 135.3 307.846 134.84 307.846 134.32C307.846 133.773 307.972 133.3 308.226 132.9C308.492 132.487 308.826 132.173 309.226 131.96C309.626 131.733 310.132 131.56 310.746 131.44C311.372 131.307 311.959 131.22 312.506 131.18C313.066 131.14 313.712 131.12 314.446 131.12ZM314.446 132.48H313.986C311.172 132.48 309.766 133.08 309.766 134.28C309.766 134.8 309.952 135.18 310.326 135.42C310.699 135.647 311.159 135.76 311.706 135.76C312.559 135.76 313.226 135.507 313.706 135C314.199 134.48 314.446 133.807 314.446 132.98V132.48ZM319.386 129.56C319.386 128.747 319.359 128.067 319.306 127.52H321.086C321.139 128.16 321.166 128.693 321.166 129.12H321.226C321.492 128.56 321.886 128.113 322.406 127.78C322.926 127.433 323.499 127.26 324.126 127.26C324.419 127.26 324.666 127.287 324.866 127.34L324.786 129.08C324.519 129.013 324.232 128.98 323.926 128.98C323.072 128.98 322.412 129.273 321.946 129.86C321.492 130.447 321.266 131.167 321.266 132.02V137H319.386V129.56ZM327.58 131.42H333.22C333.193 130.633 332.953 129.993 332.5 129.5C332.047 128.993 331.4 128.74 330.56 128.74C329.76 128.74 329.08 129 328.52 129.52C327.96 130.04 327.647 130.673 327.58 131.42ZM335.12 132.18C335.12 132.46 335.113 132.673 335.1 132.82H327.58C327.607 133.633 327.92 134.32 328.52 134.88C329.12 135.427 329.833 135.7 330.66 135.7C331.847 135.7 332.767 135.22 333.42 134.26L334.74 135.32C333.74 136.613 332.38 137.26 330.66 137.26C329.207 137.26 328.007 136.8 327.06 135.88C326.127 134.96 325.66 133.76 325.66 132.28C325.66 130.813 326.127 129.613 327.06 128.68C327.993 127.733 329.16 127.26 330.56 127.26C331.96 127.26 333.067 127.707 333.88 128.6C334.707 129.48 335.12 130.673 335.12 132.18ZM151.04 163.82L149.74 164.92C149.527 164.573 149.22 164.293 148.82 164.08C148.433 163.853 148.007 163.74 147.54 163.74C147.06 163.74 146.647 163.847 146.3 164.06C145.953 164.26 145.78 164.567 145.78 164.98C145.78 165.353 145.947 165.64 146.28 165.84C146.613 166.04 147.167 166.227 147.94 166.4C150.06 166.867 151.12 167.8 151.12 169.2C151.12 170.24 150.753 171.013 150.02 171.52C149.3 172.013 148.407 172.26 147.34 172.26C146.593 172.26 145.88 172.113 145.2 171.82C144.52 171.527 143.96 171.107 143.52 170.56L144.86 169.42C145.113 169.807 145.467 170.127 145.92 170.38C146.387 170.62 146.873 170.74 147.38 170.74C147.913 170.74 148.36 170.633 148.72 170.42C149.08 170.193 149.26 169.84 149.26 169.36C149.26 168.947 149.067 168.633 148.68 168.42C148.307 168.207 147.673 167.993 146.78 167.78C146.407 167.687 146.08 167.587 145.8 167.48C145.52 167.373 145.233 167.227 144.94 167.04C144.647 166.84 144.42 166.587 144.26 166.28C144.1 165.96 144.02 165.587 144.02 165.16C144.02 164.2 144.367 163.48 145.06 163C145.767 162.507 146.613 162.26 147.6 162.26C148.293 162.26 148.953 162.4 149.58 162.68C150.22 162.947 150.707 163.327 151.04 163.82ZM155.427 163.96H155.467C155.693 163.48 156.08 163.08 156.627 162.76C157.187 162.427 157.8 162.26 158.467 162.26C159.627 162.26 160.507 162.62 161.107 163.34C161.707 164.06 162.007 164.987 162.007 166.12V172H160.127V166.76C160.127 164.827 159.413 163.86 157.987 163.86C157.24 163.86 156.627 164.147 156.147 164.72C155.667 165.293 155.427 166.047 155.427 166.98V172H153.547V156.88H155.427V163.96ZM171.086 166.12V165.86C171.086 165.18 170.873 164.667 170.446 164.32C170.033 163.96 169.466 163.78 168.746 163.78C167.68 163.78 166.78 164.147 166.046 164.88L165.046 163.68C166.033 162.733 167.326 162.26 168.926 162.26C170.233 162.26 171.22 162.607 171.886 163.3C172.553 163.98 172.886 164.873 172.886 165.98V170.12C172.886 170.947 172.933 171.573 173.026 172H171.326C171.22 171.547 171.166 171.093 171.166 170.64H171.106C170.4 171.707 169.34 172.24 167.926 172.24C167.526 172.24 167.133 172.187 166.746 172.08C166.36 171.973 165.993 171.813 165.646 171.6C165.3 171.387 165.02 171.087 164.806 170.7C164.593 170.3 164.486 169.84 164.486 169.32C164.486 168.773 164.613 168.3 164.866 167.9C165.133 167.487 165.466 167.173 165.866 166.96C166.266 166.733 166.773 166.56 167.386 166.44C168.013 166.307 168.6 166.22 169.146 166.18C169.706 166.14 170.353 166.12 171.086 166.12ZM171.086 167.48H170.626C167.813 167.48 166.406 168.08 166.406 169.28C166.406 169.8 166.593 170.18 166.966 170.42C167.34 170.647 167.8 170.76 168.346 170.76C169.2 170.76 169.866 170.507 170.346 170C170.84 169.48 171.086 168.807 171.086 167.98V167.48ZM176.026 164.56C176.026 163.747 176 163.067 175.946 162.52H177.726C177.78 163.16 177.806 163.693 177.806 164.12H177.866C178.133 163.56 178.526 163.113 179.046 162.78C179.566 162.433 180.14 162.26 180.766 162.26C181.06 162.26 181.306 162.287 181.506 162.34L181.426 164.08C181.16 164.013 180.873 163.98 180.566 163.98C179.713 163.98 179.053 164.273 178.586 164.86C178.133 165.447 177.906 166.167 177.906 167.02V172H176.026V164.56ZM184.221 166.42H189.861C189.834 165.633 189.594 164.993 189.141 164.5C188.687 163.993 188.041 163.74 187.201 163.74C186.401 163.74 185.721 164 185.161 164.52C184.601 165.04 184.287 165.673 184.221 166.42ZM191.761 167.18C191.761 167.46 191.754 167.673 191.741 167.82H184.221C184.247 168.633 184.561 169.32 185.161 169.88C185.761 170.427 186.474 170.7 187.301 170.7C188.487 170.7 189.407 170.22 190.061 169.26L191.381 170.32C190.381 171.613 189.021 172.26 187.301 172.26C185.847 172.26 184.647 171.8 183.701 170.88C182.767 169.96 182.301 168.76 182.301 167.28C182.301 165.813 182.767 164.613 183.701 163.68C184.634 162.733 185.801 162.26 187.201 162.26C188.601 162.26 189.707 162.707 190.521 163.6C191.347 164.48 191.761 165.673 191.761 167.18ZM201.946 170.5C201.599 171.06 201.112 171.493 200.486 171.8C199.872 172.107 199.219 172.26 198.526 172.26C197.099 172.26 195.946 171.78 195.066 170.82C194.186 169.86 193.746 168.667 193.746 167.24C193.746 165.813 194.186 164.627 195.066 163.68C195.959 162.733 197.106 162.26 198.506 162.26C199.239 162.26 199.892 162.42 200.466 162.74C201.052 163.047 201.526 163.447 201.886 163.94H201.926V156.88H203.806V172H201.986V170.5H201.946ZM196.526 164.82C195.979 165.487 195.706 166.293 195.706 167.24C195.706 168.187 195.979 169 196.526 169.68C197.086 170.347 197.859 170.68 198.846 170.68C199.779 170.68 200.546 170.347 201.146 169.68C201.746 169 202.046 168.193 202.046 167.26C202.046 166.327 201.746 165.52 201.146 164.84C200.546 164.16 199.779 163.82 198.846 163.82C197.859 163.82 197.086 164.153 196.526 164.82ZM213.981 162.52V172H212.101V162.52H213.981ZM214.301 159.1C214.301 159.433 214.174 159.72 213.921 159.96C213.681 160.187 213.388 160.3 213.041 160.3C212.694 160.3 212.401 160.187 212.161 159.96C211.921 159.72 211.801 159.433 211.801 159.1C211.801 158.767 211.921 158.48 212.161 158.24C212.401 158 212.694 157.88 213.041 157.88C213.388 157.88 213.681 158 213.921 158.24C214.174 158.467 214.301 158.753 214.301 159.1ZM217.177 162.52H218.957C219.01 163.16 219.037 163.68 219.037 164.08H219.097C219.337 163.56 219.743 163.127 220.317 162.78C220.89 162.433 221.51 162.26 222.177 162.26C223.337 162.26 224.217 162.62 224.817 163.34C225.417 164.06 225.717 164.987 225.717 166.12V172H223.837V166.74C223.837 164.807 223.117 163.84 221.677 163.84C220.93 163.84 220.317 164.127 219.837 164.7C219.37 165.273 219.137 166.027 219.137 166.96V172H217.257V164.56C217.257 163.747 217.23 163.067 217.177 162.52ZM239.797 166.12V165.86C239.797 165.18 239.584 164.667 239.157 164.32C238.744 163.96 238.177 163.78 237.457 163.78C236.391 163.78 235.491 164.147 234.757 164.88L233.757 163.68C234.744 162.733 236.037 162.26 237.637 162.26C238.944 162.26 239.931 162.607 240.597 163.3C241.264 163.98 241.597 164.873 241.597 165.98V170.12C241.597 170.947 241.644 171.573 241.737 172H240.037C239.931 171.547 239.877 171.093 239.877 170.64H239.817C239.111 171.707 238.051 172.24 236.637 172.24C236.237 172.24 235.844 172.187 235.457 172.08C235.071 171.973 234.704 171.813 234.357 171.6C234.011 171.387 233.731 171.087 233.517 170.7C233.304 170.3 233.197 169.84 233.197 169.32C233.197 168.773 233.324 168.3 233.577 167.9C233.844 167.487 234.177 167.173 234.577 166.96C234.977 166.733 235.484 166.56 236.097 166.44C236.724 166.307 237.311 166.22 237.857 166.18C238.417 166.14 239.064 166.12 239.797 166.12ZM239.797 167.48H239.337C236.524 167.48 235.117 168.08 235.117 169.28C235.117 169.8 235.304 170.18 235.677 170.42C236.051 170.647 236.511 170.76 237.057 170.76C237.911 170.76 238.577 170.507 239.057 170C239.551 169.48 239.797 168.807 239.797 167.98V167.48ZM246.637 162.52V172H244.757V162.52H246.637ZM246.957 159.1C246.957 159.433 246.831 159.72 246.577 159.96C246.337 160.187 246.044 160.3 245.697 160.3C245.351 160.3 245.057 160.187 244.817 159.96C244.577 159.72 244.457 159.433 244.457 159.1C244.457 158.767 244.577 158.48 244.817 158.24C245.057 158 245.351 157.88 245.697 157.88C246.044 157.88 246.337 158 246.577 158.24C246.831 158.467 246.957 158.753 246.957 159.1ZM249.913 164.56C249.913 163.747 249.886 163.067 249.833 162.52H251.613C251.666 163.16 251.693 163.693 251.693 164.12H251.753C252.02 163.56 252.413 163.113 252.933 162.78C253.453 162.433 254.026 162.26 254.653 162.26C254.946 162.26 255.193 162.287 255.393 162.34L255.313 164.08C255.046 164.013 254.76 163.98 254.453 163.98C253.6 163.98 252.94 164.273 252.473 164.86C252.02 165.447 251.793 166.167 251.793 167.02V172H249.913V164.56ZM264.368 170.5C264.021 171.06 263.534 171.493 262.908 171.8C262.294 172.107 261.641 172.26 260.948 172.26C259.521 172.26 258.368 171.78 257.488 170.82C256.608 169.86 256.168 168.667 256.168 167.24C256.168 165.813 256.608 164.627 257.488 163.68C258.381 162.733 259.528 162.26 260.928 162.26C261.661 162.26 262.314 162.42 262.888 162.74C263.474 163.047 263.948 163.447 264.308 163.94H264.348V156.88H266.228V172H264.408V170.5H264.368ZM258.948 164.82C258.401 165.487 258.127 166.293 258.127 167.24C258.127 168.187 258.401 169 258.948 169.68C259.508 170.347 260.281 170.68 261.268 170.68C262.201 170.68 262.968 170.347 263.568 169.68C264.168 169 264.468 168.193 264.468 167.26C264.468 166.327 264.168 165.52 263.568 164.84C262.968 164.16 262.201 163.82 261.268 163.82C260.281 163.82 259.508 164.153 258.948 164.82ZM269.503 164.56C269.503 163.747 269.476 163.067 269.423 162.52H271.203C271.256 163.16 271.283 163.693 271.283 164.12H271.343C271.609 163.56 272.003 163.113 272.523 162.78C273.043 162.433 273.616 162.26 274.243 162.26C274.536 162.26 274.783 162.287 274.983 162.34L274.903 164.08C274.636 164.013 274.349 163.98 274.043 163.98C273.189 163.98 272.529 164.273 272.063 164.86C271.609 165.447 271.383 166.167 271.383 167.02V172H269.503V164.56ZM284.537 163.66C285.511 164.593 285.997 165.787 285.997 167.24C285.997 168.693 285.504 169.893 284.517 170.84C283.544 171.787 282.331 172.26 280.877 172.26C279.424 172.26 278.211 171.787 277.237 170.84C276.264 169.893 275.777 168.693 275.777 167.24C275.777 165.787 276.257 164.593 277.217 163.66C278.191 162.727 279.411 162.26 280.877 162.26C282.344 162.26 283.564 162.727 284.537 163.66ZM283.177 169.68C283.751 169 284.037 168.187 284.037 167.24C284.037 166.293 283.751 165.487 283.177 164.82C282.617 164.153 281.851 163.82 280.877 163.82C279.904 163.82 279.131 164.153 278.557 164.82C277.997 165.487 277.717 166.293 277.717 167.24C277.717 168.187 277.997 169 278.557 169.68C279.131 170.347 279.904 170.68 280.877 170.68C281.851 170.68 282.617 170.347 283.177 169.68ZM290.484 170.58V176.8H288.604V162.52H290.444V164H290.504C290.824 163.48 291.284 163.06 291.884 162.74C292.484 162.42 293.164 162.26 293.924 162.26C295.311 162.26 296.444 162.74 297.324 163.7C298.218 164.647 298.664 165.827 298.664 167.24C298.664 168.667 298.224 169.86 297.344 170.82C296.464 171.78 295.311 172.26 293.884 172.26C293.204 172.26 292.564 172.113 291.964 171.82C291.364 171.513 290.891 171.1 290.544 170.58H290.484ZM295.884 169.68C296.444 169 296.724 168.187 296.724 167.24C296.724 166.293 296.444 165.487 295.884 164.82C295.324 164.153 294.551 163.82 293.564 163.82C292.631 163.82 291.864 164.16 291.264 164.84C290.664 165.52 290.364 166.327 290.364 167.26C290.364 168.193 290.664 169 291.264 169.68C291.864 170.347 292.631 170.68 293.564 170.68C294.551 170.68 295.324 170.347 295.884 169.68Z" fill="white" fill-opacity="0.95"/>
<circle opacity="0.2" cx="68.0036" cy="146.989" r="45" stroke="#DCDDE0" stroke-width="3"/>
<g filter="url(#filter2_d)">
<mask id="path-14-outside-3" maskUnits="userSpaceOnUse" x="10.5996" y="89.6181" width="114.694" height="114.694" fill="black">
<rect fill="white" x="10.5996" y="89.6181" width="114.694" height="114.694"/>
<path d="M26.1439 158.749C23.6603 149.912 24.0381 140.516 27.2229 131.907C30.4078 123.298 36.2363 115.919 43.8731 110.826C51.5099 105.733 60.5628 103.189 69.7345 103.558C78.9062 103.926 87.7258 107.189 94.9291 112.879C102.132 118.568 107.35 126.391 109.833 135.228C112.317 144.065 111.939 153.461 108.754 162.07C105.569 170.679 99.7409 178.058 92.1041 183.151C84.4673 188.244 75.4143 190.788 66.2426 190.419L67.9886 146.989L26.1439 158.749Z"/>
</mask>
<path d="M26.1439 158.749C23.6603 149.912 24.0381 140.516 27.2229 131.907C30.4078 123.298 36.2363 115.919 43.8731 110.826C51.5099 105.733 60.5628 103.189 69.7345 103.558C78.9062 103.926 87.7258 107.189 94.9291 112.879C102.132 118.568 107.35 126.391 109.833 135.228C112.317 144.065 111.939 153.461 108.754 162.07C105.569 170.679 99.7409 178.058 92.1041 183.151C84.4673 188.244 75.4143 190.788 66.2426 190.419L67.9886 146.989L26.1439 158.749Z" stroke="#D9113A" stroke-width="6" mask="url(#path-14-outside-3)"/>
</g>
<circle cx="67.7198" cy="146.705" r="43.4659" fill="#080D17"/>
<path d="M53.3972 136.839C54.9972 136.839 56.3305 137.272 57.3972 138.139C58.4638 139.005 58.9972 140.172 58.9972 141.639C58.9972 142.639 58.7472 143.489 58.2472 144.189C57.7472 144.889 57.0805 145.372 56.2472 145.639V145.689C57.1972 145.922 57.9888 146.43 58.6222 147.214C59.2555 147.997 59.5722 148.922 59.5722 149.989C59.5722 151.689 58.9805 153.022 57.7972 153.989C56.6305 154.955 55.1638 155.439 53.3972 155.439C51.6305 155.439 50.1555 154.955 48.9722 153.989C47.8055 153.022 47.2222 151.689 47.2222 149.989C47.2222 148.905 47.5388 147.98 48.1722 147.214C48.8222 146.43 49.6138 145.922 50.5472 145.689V145.639C48.7138 144.972 47.7972 143.68 47.7972 141.764C47.7972 140.297 48.3305 139.114 49.3972 138.214C50.4805 137.297 51.8138 136.839 53.3972 136.839ZM53.3972 139.314C52.6472 139.314 52.0305 139.547 51.5472 140.014C51.0805 140.464 50.8472 141.064 50.8472 141.814C50.8472 142.547 51.0805 143.164 51.5472 143.664C52.0138 144.147 52.6305 144.389 53.3972 144.389C54.1138 144.389 54.7222 144.139 55.2222 143.639C55.7222 143.139 55.9722 142.53 55.9722 141.814C55.9722 141.08 55.7138 140.48 55.1972 140.014C54.6972 139.547 54.0972 139.314 53.3972 139.314ZM53.3972 146.939C52.5305 146.939 51.7972 147.222 51.1972 147.789C50.6138 148.355 50.3222 149.08 50.3222 149.964C50.3222 150.864 50.6055 151.58 51.1722 152.114C51.7555 152.647 52.4972 152.914 53.3972 152.914C54.2805 152.914 55.0055 152.647 55.5722 152.114C56.1555 151.58 56.4472 150.864 56.4472 149.964C56.4472 149.097 56.1472 148.38 55.5472 147.814C54.9638 147.23 54.2472 146.939 53.3972 146.939ZM73.2809 139.314C74.3643 140.964 74.9059 143.239 74.9059 146.139C74.9059 149.039 74.3643 151.314 73.2809 152.964C72.1976 154.614 70.6643 155.439 68.6809 155.439C66.6809 155.439 65.1309 154.614 64.0309 152.964C62.9476 151.314 62.4059 149.039 62.4059 146.139C62.4059 143.239 62.9476 140.964 64.0309 139.314C65.1309 137.664 66.6809 136.839 68.6809 136.839C70.6643 136.839 72.1976 137.664 73.2809 139.314ZM71.7059 148.264C71.7893 147.58 71.8309 146.872 71.8309 146.139C71.8309 145.405 71.7893 144.697 71.7059 144.014C71.6226 143.314 71.4726 142.589 71.2559 141.839C71.0559 141.089 70.7309 140.489 70.2809 140.039C69.8476 139.572 69.3143 139.339 68.6809 139.339C68.0476 139.339 67.5059 139.572 67.0559 140.039C66.6059 140.489 66.2726 141.089 66.0559 141.839C65.8393 142.589 65.6893 143.314 65.6059 144.014C65.5226 144.697 65.4809 145.405 65.4809 146.139C65.4809 146.855 65.5226 147.564 65.6059 148.264C65.6893 148.964 65.8393 149.689 66.0559 150.439C66.2726 151.172 66.6059 151.764 67.0559 152.214C67.5059 152.664 68.0476 152.889 68.6809 152.889C69.3143 152.889 69.8476 152.664 70.2809 152.214C70.7309 151.764 71.0559 151.164 71.2559 150.414C71.4726 149.664 71.6226 148.947 71.7059 148.264ZM84.8697 154.359C84.3297 153.809 84.0597 153.149 84.0597 152.379C84.0597 151.609 84.3297 150.954 84.8697 150.414C85.4197 149.864 86.0797 149.589 86.8497 149.589C87.6197 149.589 88.2747 149.864 88.8147 150.414C89.3647 150.954 89.6397 151.609 89.6397 152.379C89.6397 153.149 89.3647 153.809 88.8147 154.359C88.2747 154.899 87.6197 155.169 86.8497 155.169C86.0797 155.169 85.4197 154.899 84.8697 154.359ZM87.8097 153.339C88.0697 153.079 88.1997 152.759 88.1997 152.379C88.1997 151.999 88.0697 151.679 87.8097 151.419C87.5497 151.159 87.2297 151.029 86.8497 151.029C86.4697 151.029 86.1497 151.159 85.8897 151.419C85.6297 151.679 85.4997 151.999 85.4997 152.379C85.4997 152.759 85.6297 153.079 85.8897 153.339C86.1497 153.599 86.4697 153.729 86.8497 153.729C87.2297 153.729 87.5497 153.599 87.8097 153.339ZM77.6997 148.959C77.1597 148.409 76.8897 147.749 76.8897 146.979C76.8897 146.209 77.1597 145.554 77.6997 145.014C78.2497 144.464 78.9097 144.189 79.6797 144.189C80.4497 144.189 81.1047 144.464 81.6447 145.014C82.1947 145.554 82.4697 146.209 82.4697 146.979C82.4697 147.749 82.1947 148.409 81.6447 148.959C81.1047 149.499 80.4497 149.769 79.6797 149.769C78.9097 149.769 78.2497 149.499 77.6997 148.959ZM80.6397 147.939C80.8997 147.679 81.0297 147.359 81.0297 146.979C81.0297 146.599 80.8997 146.279 80.6397 146.019C80.3797 145.759 80.0597 145.629 79.6797 145.629C79.2997 145.629 78.9797 145.759 78.7197 146.019C78.4597 146.279 78.3297 146.599 78.3297 146.979C78.3297 147.359 78.4597 147.679 78.7197 147.939C78.9797 148.199 79.2997 148.329 79.6797 148.329C80.0597 148.329 80.3797 148.199 80.6397 147.939ZM79.5147 154.899L85.7547 143.889L86.9997 144.459L80.7597 155.469L79.5147 154.899Z" fill="white" fill-opacity="0.95"/>
<path d="M12.9578 26V8.3H16.1078V15.45H24.3828V8.3H27.5328V26H24.3828V18.15H16.1078V26H12.9578ZM30.5893 19.95C30.5893 18.1 31.2143 16.5917 32.4643 15.425C33.7143 14.2417 35.2643 13.65 37.1143 13.65C38.9643 13.65 40.5143 14.2417 41.7643 15.425C43.0143 16.5917 43.6393 18.1 43.6393 19.95C43.6393 21.8167 43.0059 23.35 41.7393 24.55C40.4893 25.75 38.9476 26.35 37.1143 26.35C35.2809 26.35 33.7309 25.75 32.4643 24.55C31.2143 23.35 30.5893 21.8167 30.5893 19.95ZM34.5393 17.25C33.9393 18.0167 33.6393 18.9167 33.6393 19.95C33.6393 20.9833 33.9393 21.8917 34.5393 22.675C35.1393 23.4583 35.9976 23.85 37.1143 23.85C38.2309 23.85 39.0893 23.4583 39.6893 22.675C40.2893 21.8917 40.5893 20.9833 40.5893 19.95C40.5893 18.9167 40.2893 18.0167 39.6893 17.25C39.0893 16.4833 38.2309 16.1 37.1143 16.1C35.9976 16.1 35.1393 16.4833 34.5393 17.25ZM49.023 26L44.848 14H48.098L50.598 22.6H50.648L53.223 14H56.423L59.023 22.6H59.073L61.623 14H64.748L60.598 26H57.548L54.823 17.6H54.773L52.073 26H49.023ZM72.1908 19.95C72.1908 18.1 72.8158 16.5917 74.0658 15.425C75.3158 14.2417 76.8658 13.65 78.7158 13.65C80.5658 13.65 82.1158 14.2417 83.3658 15.425C84.6158 16.5917 85.2408 18.1 85.2408 19.95C85.2408 21.8167 84.6075 23.35 83.3408 24.55C82.0908 25.75 80.5492 26.35 78.7158 26.35C76.8825 26.35 75.3325 25.75 74.0658 24.55C72.8158 23.35 72.1908 21.8167 72.1908 19.95ZM76.1408 17.25C75.5408 18.0167 75.2408 18.9167 75.2408 19.95C75.2408 20.9833 75.5408 21.8917 76.1408 22.675C76.7408 23.4583 77.5992 23.85 78.7158 23.85C79.8325 23.85 80.6908 23.4583 81.2908 22.675C81.8908 21.8917 82.1908 20.9833 82.1908 19.95C82.1908 18.9167 81.8908 18.0167 81.2908 17.25C80.6908 16.4833 79.8325 16.1 78.7158 16.1C77.5992 16.1 76.7408 16.4833 76.1408 17.25ZM99.0996 14V26H96.2496V24.075H96.1996C95.9163 24.7083 95.4329 25.25 94.7496 25.7C94.0829 26.1333 93.3246 26.35 92.4746 26.35C91.0079 26.35 89.8996 25.8833 89.1496 24.95C88.4163 24 88.0496 22.85 88.0496 21.5V14H91.0496V20.65C91.0496 22.7833 91.7996 23.85 93.2996 23.85C94.1996 23.85 94.8913 23.5333 95.3746 22.9C95.8579 22.25 96.0996 21.4833 96.0996 20.6V14H99.0996ZM102.7 26V14H105.575V16H105.625C105.959 15.2833 106.434 14.7167 107.05 14.3C107.667 13.8667 108.359 13.65 109.125 13.65C109.409 13.65 109.65 13.675 109.85 13.725V16.475C109.517 16.3917 109.209 16.35 108.925 16.35C108.409 16.35 107.95 16.4333 107.55 16.6C107.15 16.7667 106.834 16.975 106.6 17.225C106.384 17.475 106.2 17.7583 106.05 18.075C105.917 18.375 105.825 18.65 105.775 18.9C105.725 19.15 105.7 19.375 105.7 19.575V26H102.7ZM125.507 26V24.475H125.432C125.132 25.0083 124.64 25.45 123.957 25.8C123.29 26.1333 122.54 26.3 121.707 26.3C120.557 26.3 119.515 26 118.582 25.4C117.665 24.7833 117.207 23.8417 117.207 22.575C117.207 21.8917 117.374 21.3 117.707 20.8C118.057 20.2833 118.49 19.8833 119.007 19.6C119.524 19.3167 120.165 19.0917 120.932 18.925C121.715 18.7417 122.449 18.625 123.132 18.575C123.832 18.525 124.607 18.5 125.457 18.5V18.2C125.457 17.5 125.199 16.9583 124.682 16.575C124.165 16.1917 123.507 16 122.707 16C121.44 16 120.349 16.4583 119.432 17.375L117.882 15.55C119.249 14.2833 120.94 13.65 122.957 13.65C123.99 13.65 124.865 13.8 125.582 14.1C126.315 14.3833 126.874 14.7833 127.257 15.3C127.64 15.8 127.907 16.3333 128.057 16.9C128.224 17.45 128.307 18.05 128.307 18.7V26H125.507ZM125.457 20.95V20.525H124.782C121.732 20.525 120.207 21.1917 120.207 22.525C120.207 23.0583 120.407 23.4417 120.807 23.675C121.224 23.9083 121.724 24.025 122.307 24.025C123.324 24.025 124.099 23.7583 124.632 23.225C125.182 22.675 125.457 21.9167 125.457 20.95ZM131.852 26V14H134.852V26H131.852ZM131.977 11.2C131.61 10.8333 131.427 10.4083 131.427 9.925C131.427 9.44167 131.61 9.025 131.977 8.675C132.344 8.30833 132.794 8.125 133.327 8.125C133.877 8.125 134.335 8.3 134.702 8.65C135.085 8.98333 135.277 9.40833 135.277 9.925C135.277 10.4417 135.085 10.875 134.702 11.225C134.335 11.5583 133.877 11.725 133.327 11.725C132.794 11.725 132.344 11.55 131.977 11.2ZM138.491 26V14H141.366V16H141.416C141.75 15.2833 142.225 14.7167 142.841 14.3C143.458 13.8667 144.15 13.65 144.916 13.65C145.2 13.65 145.441 13.675 145.641 13.725V16.475C145.308 16.3917 145 16.35 144.716 16.35C144.2 16.35 143.741 16.4333 143.341 16.6C142.941 16.7667 142.625 16.975 142.391 17.225C142.175 17.475 141.991 17.7583 141.841 18.075C141.708 18.375 141.616 18.65 141.566 18.9C141.516 19.15 141.491 19.375 141.491 19.575V26H138.491ZM159.358 7.1V26H156.508V24.2H156.458C156.058 24.8833 155.483 25.4167 154.733 25.8C153.983 26.1667 153.183 26.35 152.333 26.35C150.55 26.35 149.117 25.7333 148.033 24.5C146.967 23.2667 146.433 21.75 146.433 19.95C146.433 18.15 146.975 16.65 148.058 15.45C149.158 14.25 150.558 13.65 152.258 13.65C153.942 13.65 155.283 14.275 156.283 15.525H156.358V7.1H159.358ZM150.383 17.25C149.783 18.0167 149.483 18.9167 149.483 19.95C149.483 20.9833 149.783 21.8917 150.383 22.675C151 23.4583 151.85 23.85 152.933 23.85C153.983 23.85 154.833 23.4583 155.483 22.675C156.133 21.8917 156.458 21 156.458 20C156.458 19 156.133 18.1 155.483 17.3C154.833 16.5 153.983 16.1 152.933 16.1C151.85 16.1 151 16.4833 150.383 17.25ZM163.003 26V14H165.878V16H165.928C166.261 15.2833 166.736 14.7167 167.353 14.3C167.97 13.8667 168.661 13.65 169.428 13.65C169.711 13.65 169.953 13.675 170.153 13.725V16.475C169.82 16.3917 169.511 16.35 169.228 16.35C168.711 16.35 168.253 16.4333 167.853 16.6C167.453 16.7667 167.136 16.975 166.903 17.225C166.686 17.475 166.503 17.7583 166.353 18.075C166.22 18.375 166.128 18.65 166.078 18.9C166.028 19.15 166.003 19.375 166.003 19.575V26H163.003ZM170.97 19.95C170.97 18.1 171.595 16.5917 172.845 15.425C174.095 14.2417 175.645 13.65 177.495 13.65C179.345 13.65 180.895 14.2417 182.145 15.425C183.395 16.5917 184.02 18.1 184.02 19.95C184.02 21.8167 183.387 23.35 182.12 24.55C180.87 25.75 179.328 26.35 177.495 26.35C175.662 26.35 174.112 25.75 172.845 24.55C171.595 23.35 170.97 21.8167 170.97 19.95ZM174.92 17.25C174.32 18.0167 174.02 18.9167 174.02 19.95C174.02 20.9833 174.32 21.8917 174.92 22.675C175.52 23.4583 176.378 23.85 177.495 23.85C178.612 23.85 179.47 23.4583 180.07 22.675C180.67 21.8917 180.97 20.9833 180.97 19.95C180.97 18.9167 180.67 18.0167 180.07 17.25C179.47 16.4833 178.612 16.1 177.495 16.1C176.378 16.1 175.52 16.4833 174.92 17.25ZM186.929 14H189.804V15.675H189.879C190.229 15.125 190.754 14.65 191.454 14.25C192.171 13.85 193.029 13.65 194.029 13.65C195.729 13.65 197.121 14.25 198.204 15.45C199.304 16.65 199.854 18.15 199.854 19.95C199.854 21.75 199.312 23.2667 198.229 24.5C197.162 25.7333 195.737 26.35 193.954 26.35C193.121 26.35 192.346 26.175 191.629 25.825C190.912 25.475 190.362 25 189.979 24.4H189.929V32H186.929V14ZM195.879 22.675C196.496 21.8917 196.804 20.9833 196.804 19.95C196.804 18.9167 196.496 18.0167 195.879 17.25C195.279 16.4833 194.437 16.1 193.354 16.1C192.304 16.1 191.454 16.5 190.804 17.3C190.154 18.1 189.829 19 189.829 20C189.829 21 190.154 21.8917 190.804 22.675C191.454 23.4583 192.304 23.85 193.354 23.85C194.437 23.85 195.279 23.4583 195.879 22.675ZM211.274 15.475L209.324 17.2C209.041 16.8333 208.666 16.525 208.199 16.275C207.733 16.025 207.233 15.9 206.699 15.9C206.166 15.9 205.708 16.0083 205.324 16.225C204.958 16.4417 204.774 16.7667 204.774 17.2C204.774 17.6167 204.966 17.925 205.349 18.125C205.733 18.325 206.408 18.5417 207.374 18.775C207.891 18.8917 208.349 19.0333 208.749 19.2C209.149 19.35 209.549 19.5583 209.949 19.825C210.366 20.0917 210.683 20.4417 210.899 20.875C211.133 21.3083 211.249 21.8 211.249 22.35C211.249 23.7167 210.774 24.725 209.824 25.375C208.891 26.025 207.699 26.35 206.249 26.35C205.299 26.35 204.383 26.175 203.499 25.825C202.616 25.475 201.891 24.9917 201.324 24.375L203.299 22.525C204.066 23.525 205.091 24.025 206.374 24.025C206.891 24.025 207.341 23.9083 207.724 23.675C208.108 23.4417 208.299 23.0833 208.299 22.6C208.299 22.1333 208.091 21.7917 207.674 21.575C207.274 21.3417 206.566 21.1083 205.549 20.875C204.466 20.6083 203.599 20.2333 202.949 19.75C202.316 19.25 201.999 18.4917 201.999 17.475C201.999 16.225 202.466 15.275 203.399 14.625C204.333 13.975 205.458 13.65 206.774 13.65C207.674 13.65 208.533 13.8083 209.349 14.125C210.166 14.4417 210.808 14.8917 211.274 15.475ZM222.583 26L218.408 14H221.658L224.158 22.6H224.208L226.783 14H229.983L232.583 22.6H232.633L235.183 14H238.308L234.158 26H231.108L228.383 17.6H228.333L225.633 26H222.583ZM239.5 19.95C239.5 18.1 240.125 16.5917 241.375 15.425C242.625 14.2417 244.175 13.65 246.025 13.65C247.875 13.65 249.425 14.2417 250.675 15.425C251.925 16.5917 252.55 18.1 252.55 19.95C252.55 21.8167 251.917 23.35 250.65 24.55C249.4 25.75 247.859 26.35 246.025 26.35C244.192 26.35 242.642 25.75 241.375 24.55C240.125 23.35 239.5 21.8167 239.5 19.95ZM243.45 17.25C242.85 18.0167 242.55 18.9167 242.55 19.95C242.55 20.9833 242.85 21.8917 243.45 22.675C244.05 23.4583 244.909 23.85 246.025 23.85C247.142 23.85 248 23.4583 248.6 22.675C249.2 21.8917 249.5 20.9833 249.5 19.95C249.5 18.9167 249.2 18.0167 248.6 17.25C248 16.4833 247.142 16.1 246.025 16.1C244.909 16.1 244.05 16.4833 243.45 17.25ZM255.459 26V14H258.334V16H258.384C258.718 15.2833 259.193 14.7167 259.809 14.3C260.426 13.8667 261.118 13.65 261.884 13.65C262.168 13.65 262.409 13.675 262.609 13.725V16.475C262.276 16.3917 261.968 16.35 261.684 16.35C261.168 16.35 260.709 16.4333 260.309 16.6C259.909 16.7667 259.593 16.975 259.359 17.225C259.143 17.475 258.959 17.7583 258.809 18.075C258.676 18.375 258.584 18.65 258.534 18.9C258.484 19.15 258.459 19.375 258.459 19.575V26H255.459ZM264.616 26V7.1H267.616V19.05H267.691L272.241 14H276.091L270.891 19.425L276.416 26H272.441L267.691 19.85H267.616V26H264.616ZM284.54 20.775H281.59V19.825C281.59 19.025 281.707 18.3667 281.94 17.85C282.173 17.3333 282.607 16.775 283.24 16.175L284.365 15.1C285.132 14.4 285.515 13.6583 285.515 12.875C285.515 12.2083 285.298 11.6583 284.865 11.225C284.448 10.7917 283.882 10.575 283.165 10.575C282.415 10.575 281.807 10.8333 281.34 11.35C280.89 11.85 280.648 12.4583 280.615 13.175L277.54 12.9C277.723 11.3333 278.348 10.1 279.415 9.2C280.482 8.3 281.798 7.85 283.365 7.85C284.882 7.85 286.148 8.275 287.165 9.125C288.182 9.975 288.69 11.1583 288.69 12.675C288.69 13.6417 288.498 14.425 288.115 15.025C287.732 15.625 287.09 16.3167 286.19 17.1C285.507 17.7 285.057 18.1833 284.84 18.55C284.64 18.9 284.54 19.425 284.54 20.125V20.775ZM281.69 25.6C281.29 25.2333 281.09 24.7833 281.09 24.25C281.09 23.7167 281.282 23.2583 281.665 22.875C282.065 22.4917 282.54 22.3 283.09 22.3C283.64 22.3 284.107 22.4833 284.49 22.85C284.89 23.2167 285.09 23.6667 285.09 24.2C285.09 24.7333 284.89 25.1917 284.49 25.575C284.107 25.9583 283.64 26.15 283.09 26.15C282.557 26.15 282.09 25.9667 281.69 25.6Z" fill="white" fill-opacity="0.95"/>
<defs>
<filter id="filter0_d" x="1.52489" y="397.429" width="92.0781" height="85.0868" filterUnits="userSpaceOnUse" color-interpolation-filters="sRGB">
<feFlood flood-opacity="0" result="BackgroundImageFix"/>
<feColorMatrix in="SourceAlpha" type="matrix" values="0 0 0 0 0 0 0 0 0 0 0 0 0 0 0 0 0 0 127 0"/>
<feOffset dy="6"/>
<feGaussianBlur stdDeviation="10"/>
<feColorMatrix type="matrix" values="0 0 0 0 0.85098 0 0 0 0 0.0666667 0 0 0 0 0.227451 0 0 0 1 0"/>
<feBlend mode="normal" in2="BackgroundImageFix" result="effect1_dropShadow"/>
<feBlend mode="normal" in="SourceGraphic" in2="effect1_dropShadow" result="shape"/>
</filter>
<filter id="filter1_d" x="1.52484" y="238.525" width="132.932" height="123.294" filterUnits="userSpaceOnUse" color-interpolation-filters="sRGB">
<feFlood flood-opacity="0" result="BackgroundImageFix"/>
<feColorMatrix in="SourceAlpha" type="matrix" values="0 0 0 0 0 0 0 0 0 0 0 0 0 0 0 0 0 0 127 0"/>
<feOffset dy="6"/>
<feGaussianBlur stdDeviation="10"/>
<feColorMatrix type="matrix" values="0 0 0 0 0.85098 0 0 0 0 0.0666667 0 0 0 0 0.227451 0 0 0 1 0"/>
<feBlend mode="normal" in2="BackgroundImageFix" result="effect1_dropShadow"/>
<feBlend mode="normal" in="SourceGraphic" in2="effect1_dropShadow" result="shape"/>
</filter>
<filter id="filter2_d" x="1.52267" y="86.5227" width="132.932" height="132.932" filterUnits="userSpaceOnUse" color-interpolation-filters="sRGB">
<feFlood flood-opacity="0" result="BackgroundImageFix"/>
<feColorMatrix in="SourceAlpha" type="matrix" values="0 0 0 0 0 0 0 0 0 0 0 0 0 0 0 0 0 0 127 0"/>
<feOffset dy="6"/>
<feGaussianBlur stdDeviation="10"/>
<feColorMatrix type="matrix" values="0 0 0 0 0.85098 0 0 0 0 0.0666667 0 0 0 0 0.227451 0 0 0 1 0"/>
<feBlend mode="normal" in2="BackgroundImageFix" result="effect1_dropShadow"/>
<feBlend mode="normal" in="SourceGraphic" in2="effect1_dropShadow" result="shape"/>
</filter>
</defs>
</svg>
