<?xml version="1.0" encoding="UTF-8"?>
<!DOCTYPE svg PUBLIC "-//W3C//DTD SVG 1.1//EN" "http://www.w3.org/Graphics/SVG/1.1/DTD/svg11.dtd">
<!-- Creator: CorelDRAW -->
<svg xmlns="http://www.w3.org/2000/svg" xml:space="preserve" width="19.2094in" height="19.8324in" version="1.1" style="shape-rendering:geometricPrecision; text-rendering:geometricPrecision; image-rendering:optimizeQuality; fill-rule:evenodd; clip-rule:evenodd"
viewBox="0 0 998.4 1030.78"
 xmlns:xlink="http://www.w3.org/1999/xlink"
 xmlns:xodm="http://www.corel.com/coreldraw/odm/2003">
 <defs>
  <style type="text/css">
   <![CDATA[
    .fil1 {fill:#21AD62}
    .fil0 {fill:#46D98A;fill-rule:nonzero;fill-opacity:0.701961}
   ]]>
  </style>
 </defs>
 <g id="Layer_x0020_1">
  <metadata id="CorelCorpID_0Corel-Layer"/>
  <g id="_105553262875040">
   <g id="_2426447392832">
    <path id="Ellipse_x0020_11" class="fil0" d="M687.99 344c0,-189.99 -154.01,-344 -344,-344 -189.99,0 -344,154.01 -344,344 0,189.99 154.01,344 344,344 189.99,0 344,-154.01 344,-344z"/>
    <path id="Union_6" class="fil1" d="M386.23 289.69l325.9 0c26.66,0 48.28,21.61 48.28,48.28l0 333.39c-68.43,20.04 -120.38,78.09 -130.85,149.43l-243.34 0c-26.66,0 -48.28,-21.61 -48.28,-48.28l0 -434.53c0,-26.67 21.62,-48.28 48.28,-48.28l0 -0zm241.43 555.23l-241.43 0c-40,0 -72.42,-32.47 -72.42,-72.42l0 -434.53c0,-39.95 32.42,-72.42 72.42,-72.42l325.9 0c40,0 72.42,32.47 72.42,72.42l0 328.07c9.28,-1.45 18.78,-2.18 28.46,-2.18 102.38,0 185.39,82.2 185.39,183.47 0,101.39 -83,183.47 -185.39,183.47 -102.38,0 -185.38,-82.07 -185.38,-183.47 0,-0.84 0,-1.56 0.01,-2.41l0.01 0.01zm-217.28 -422.45c0,-6.64 5.41,-12.08 12.08,-12.08l265.54 0c6.67,0 12.08,5.43 12.08,12.08 0,6.64 -5.41,12.08 -12.08,12.08l-265.54 0c-6.67,0 -12.08,-5.43 -12.08,-12.08zm0 132.77c0,-6.64 5.41,-12.08 12.08,-12.08l265.54 0c6.67,0 12.08,5.43 12.08,12.08 0,6.64 -5.41,12.08 -12.08,12.08l-265.54 0c-6.67,0 -12.08,-5.43 -12.08,-12.08zm12.08 120.7c-6.67,0 -12.08,5.43 -12.08,12.08 0,6.64 5.41,12.08 12.08,12.08l180.2 0c6.67,0 12.08,-5.43 12.08,-12.08 0,-6.64 -5.41,-12.08 -12.08,-12.08l-180.2 0zm390.57 9.65c-90.59,0 -163.65,72.66 -163.65,161.74 0,89.2 73.06,161.74 163.65,161.74 90.59,0 163.66,-72.54 163.66,-161.74 0,-89.07 -73.06,-161.74 -163.66,-161.74zm83.14 98.98c4.36,4.23 4.54,11.1 0.41,15.45l-104.05 109.72c-2.04,2.05 -4.9,3.39 -7.88,3.39 -2.98,0 -5.83,-1.33 -7.88,-3.39l-47.29 -49.98c-4.12,-4.35 -3.93,-11.22 0.41,-15.33 4.36,-4.1 11.24,-3.99 15.36,0.49l39.4 41.52 96.17 -101.39c4.12,-4.35 10.99,-4.59 15.36,-0.49l-0 0.01z"/>
   </g>
  </g>
 </g>
</svg>
