<?xml version="1.0" encoding="UTF-8"?>
<!DOCTYPE svg PUBLIC "-//W3C//DTD SVG 1.1//EN" "http://www.w3.org/Graphics/SVG/1.1/DTD/svg11.dtd">
<!-- Creator: CorelDRAW -->
<svg xmlns="http://www.w3.org/2000/svg" xml:space="preserve" width="19.6573in" height="16.7027in" version="1.1" style="shape-rendering:geometricPrecision; text-rendering:geometricPrecision; image-rendering:optimizeQuality; fill-rule:evenodd; clip-rule:evenodd"
viewBox="0 0 938.77 797.67"
 xmlns:xlink="http://www.w3.org/1999/xlink"
 xmlns:xodm="http://www.corel.com/coreldraw/odm/2003">
 <defs>
  <style type="text/css">
   <![CDATA[
    .str0 {stroke:#21AD62;stroke-width:0.99;stroke-miterlimit:2.61313}
    .str1 {stroke:#21AD62;stroke-width:0.99;stroke-linecap:round;stroke-miterlimit:2.61313}
    .fil1 {fill:none;fill-rule:nonzero}
    .fil3 {fill:#21AD62}
    .fil2 {fill:#21AD62;fill-rule:nonzero}
    .fil0 {fill:#46D98A;fill-rule:nonzero;fill-opacity:0.701961}
   ]]>
  </style>
 </defs>
 <g id="Layer_x0020_1">
  <metadata id="CorelCorpID_0Corel-Layer"/>
  <g id="_105553262805952">
   <g id="_2461201144640">
    <path id="Ellipse_x0020_12" class="fil0" d="M561.66 280.83c0,-155.1 -125.73,-280.83 -280.83,-280.83 -155.1,0 -280.83,125.73 -280.83,280.83 0,155.1 125.73,280.83 280.83,280.83 155.1,0 280.83,-125.73 280.83,-280.83z"/>
    <path class="fil1 str0" d="M381.13 521.55l50.14 0c5.54,0 10.02,4.5 10.02,10.03l0 90.27c0,5.54 -4.5,10.03 -10.03,10.03l-50.15 0c-5.55,0 -10.03,-4.5 -10.03,-10.03l0 -90.27c0,-5.54 4.49,-10.03 10.02,-10.03l0.02 0z"/>
    <path class="fil1 str0" d="M511.52 451.35l50.14 0c5.54,0 10.02,4.5 10.02,10.03l0 160.47c0,5.54 -4.5,10.03 -10.03,10.03l-50.14 0c-5.55,0 -10.03,-4.5 -10.03,-10.03l0 -160.47c0,-5.54 4.49,-10.03 10.02,-10.03l0.02 0z"/>
    <path class="fil1 str0" d="M641.9 381.13l50.14 0c5.54,0 10.02,4.5 10.02,10.03l0 230.68c0,5.54 -4.5,10.03 -10.03,10.03l-50.14 0c-5.55,0 -10.03,-4.5 -10.03,-10.03l0 -230.68c0,-5.54 4.49,-10.03 10.02,-10.03l0.02 0z"/>
    <line id="Line_x0020_37" class="fil1 str1" x1="341" y1="672" x2="732.17" y2= "672" />
    <path id="Rectangle_x0020_145" class="fil1 str0" d="M220.64 351.04c0,-27.68 22.46,-50.14 50.14,-50.14l551.65 0c27.68,0 50.14,22.46 50.14,50.14l0 361.08 -651.94 0 0 -361.08z"/>
    <path id="Vector_x0020_6" class="fil2" d="M225.66 712.12l0 -10.03 -4.21 0 -2.91 2.91 7.12 7.13zm641.91 0l7.12 -7.13 -2.91 -2.91 -4.21 0 0 10.03zm58.17 58.47l7.12 -7.13 -7.12 7.13zm-707.21 -65.6l-58.18 58.47 14.24 14.14 58.18 -58.38 -14.24 -14.24 0 0zm-43.94 92.68l744.02 0 0 -20.06 -744.02 0 0 20.06zm758.26 -34.2l-58.18 -58.47 -14.24 14.24 58.18 58.38 14.24 -14.14 0 -0zm-65.29 -61.38l-641.91 0 0 20.06 641.91 0 0 -20.06zm51.05 95.59c17.85,0 26.88,-21.57 14.24,-34.2l-14.24 14.14 0 20.06zm-758.26 -34.2c-12.64,12.64 -3.61,34.2 14.24,34.2l0 -20.06 0 0 -14.24 -14.14z"/>
   </g>
  </g>
  <path class="fil3" d="M872.58 702.88l0 -351.84c0,-27.68 -22.46,-50.14 -50.14,-50.14l-261.48 0c-6.62,93.73 -59.23,174.75 -135.4,220.65l5.71 0c5.54,0 10.02,4.5 10.02,10.03l0 90.27c0,5.54 -4.5,10.03 -10.03,10.03l-50.15 0c-5.55,0 -10.03,-4.5 -10.03,-10.03l0 -75.01c-28.32,9.61 -58.68,14.82 -90.25,14.82 -20.66,0 -40.8,-2.23 -60.19,-6.46l0 147.7 0.81 -0.81 4.21 0 641.91 0 4.21 0 0.8 0.8zm-170.51 -311.72l0 230.68c0,5.54 -4.5,10.03 -10.03,10.03l-50.14 0c-5.55,0 -10.03,-4.5 -10.03,-10.03l0 -230.68c0,-5.54 4.49,-10.03 10.02,-10.03l0.02 0 50.14 0c5.54,0 10.02,4.5 10.02,10.03zm-140.4 60.18c5.54,0 10.02,4.5 10.02,10.03l0 160.47c0,5.54 -4.5,10.03 -10.03,10.03l-50.14 0c-5.55,0 -10.03,-4.5 -10.03,-10.03l0 -160.47c0,-5.54 4.49,-10.03 10.02,-10.03l0.02 0 50.14 0z"/>
 </g>
</svg>
