<?xml version="1.0" encoding="UTF-8"?>
<!DOCTYPE svg PUBLIC "-//W3C//DTD SVG 1.1//EN" "http://www.w3.org/Graphics/SVG/1.1/DTD/svg11.dtd">
<!-- Creator: CorelDRAW -->
<svg xmlns="http://www.w3.org/2000/svg" xml:space="preserve" width="16.2614in" height="17.4651in" version="1.1" style="shape-rendering:geometricPrecision; text-rendering:geometricPrecision; image-rendering:optimizeQuality; fill-rule:evenodd; clip-rule:evenodd"
viewBox="0 0 917.98 985.92"
 xmlns:xlink="http://www.w3.org/1999/xlink"
 xmlns:xodm="http://www.corel.com/coreldraw/odm/2003">
 <defs>
  <style type="text/css">
   <![CDATA[
    .fil1 {fill:#21AD62;fill-rule:nonzero}
    .fil0 {fill:#46D98A;fill-rule:nonzero;fill-opacity:0.701961}
   ]]>
  </style>
 </defs>
 <g id="Layer_x0020_1">
  <metadata id="CorelCorpID_0Corel-Layer"/>
  <g id="_105553262880736">
   <g id="_2426402769248">
    <path id="Ellipse_x0020_10" class="fil0" d="M657.28 328.64c0,-181.5 -147.15,-328.64 -328.64,-328.64 -181.5,0 -328.64,147.15 -328.64,328.64 0,181.5 147.15,328.64 328.64,328.64 181.5,0 328.64,-147.15 328.64,-328.64z"/>
    <path id="Vector_56" class="fil1" d="M866.56 713.94l-3.57 0c-10.92,0 -21.38,3.41 -30.22,9.86l-15.49 11.22c-9.59,-13.03 -24.94,-21.07 -41.38,-21.07l-3.57 0c-10.92,0 -21.39,3.41 -30.22,9.86l-111.14 80.8 -18.98 0c-6.27,0 -11.34,5.1 -11.34,11.34 0,6.23 5.07,11.32 11.34,11.32l113.32 0c2.39,0 4.73,-0.79 6.67,-2.15l114.13 -82.96c4.95,-3.62 10.78,-5.55 16.9,-5.55l3.57 0c15.84,0 28.74,12.91 28.74,28.79 0,7.59 -2.99,14.85 -8.41,20.29l-109.04 109.02c-14.99,14.96 -34.89,23.23 -56.08,23.23l-223.1 0c-2.24,0 -4.43,0.69 -6.29,1.93l-68 45.33c-5.21,3.41 -6.61,10.54 -3.14,15.75 2.18,3.18 5.78,4.98 9.44,4.98 2.15,0 4.34,-0.57 6.28,-1.93l65.13 -43.4 219.68 0c27.24,0 52.85,-10.65 72.11,-29.92l109.04 -109.02c9.71,-9.63 15.05,-22.55 15.05,-36.26 0,-28.45 -23.04,-51.45 -51.39,-51.45l-0.02 -0.01zm-144.95 90.66l-52.12 0 85.93 -62.45c4.95,-3.62 10.79,-5.55 16.9,-5.55l3.57 0c9.17,0 17.57,4.65 22.92,11.78l-77.2 56.21z"/>
    <path id="Vector_57" class="fil1" d="M526.97 770.61c15.62,0 28.33,12.7 28.33,28.33 0,15.63 -12.71,28.33 -28.33,28.33l-85 0c-6.27,0 -11.34,5.1 -11.34,11.34 0,6.23 5.07,11.34 11.34,11.34l85 0c28.11,0 50.99,-22.89 50.99,-50.99 0,-28.1 -22.88,-50.99 -50.99,-50.99l-107.66 0c-2.11,0 -4.15,0.57 -5.94,1.7l-147.33 90.66c-5.33,3.29 -6.99,10.19 -3.71,15.53 2.13,3.51 5.84,5.44 9.65,5.44 2.03,0 4.07,-0.57 5.93,-1.7l144.59 -88.96 104.45 0 0.02 -0.01z"/>
    <path id="Vector_58" class="fil1" d="M589.3 419.3l45.33 0c18.74,0 34,15.3 34,34 0,6.23 5.07,11.34 11.34,11.34 6.27,0 11.34,-5.1 11.34,-11.34 0,-31.28 -25.41,-56.66 -56.66,-56.66l-11.34 0 0 -34c0,-6.23 -5.07,-11.34 -11.34,-11.34 -6.27,0 -11.34,5.1 -11.34,11.34l0 34 -11.32 0c-31.25,0 -56.67,25.38 -56.67,56.66 0,31.28 25.43,56.66 56.67,56.66l45.33 0c18.74,0 34,15.3 34,34 0,18.69 -15.25,34 -34,34l-45.33 0c-18.74,0 -34,-15.3 -34,-34 0,-6.23 -5.07,-11.34 -11.34,-11.34 -6.27,0 -11.34,5.1 -11.34,11.34 0,31.28 25.43,56.66 56.67,56.66l11.32 0 0 34c0,6.23 5.07,11.34 11.34,11.34 6.27,0 11.34,-5.1 11.34,-11.34l0 -34 11.34 0c31.25,0 56.66,-25.38 56.66,-56.66 0,-31.28 -25.41,-56.67 -56.66,-56.67l-45.33 0c-18.74,0 -34,-15.3 -34,-34 0,-18.7 15.25,-34 34,-34l-0.01 0.01z"/>
    <path id="Vector_59" class="fil1" d="M611.96 713.94c49.28,0 95.73,-16.32 134.33,-47.14 4.88,-3.97 5.68,-11.1 1.77,-15.97 -3.91,-4.87 -11.04,-5.67 -15.94,-1.7 -34.53,27.54 -76.07,42.16 -120.16,42.16 -106.24,0 -192.65,-86.47 -192.65,-192.65 0,-106.18 86.43,-192.65 192.65,-192.65 106.24,0 192.65,86.47 192.65,192.65 0,44.08 -14.59,85.68 -42.22,120.13 -3.91,4.87 -3.1,12.01 1.77,15.98 4.91,3.85 12.03,3.06 15.94,-1.82 30.89,-38.52 47.18,-84.99 47.18,-134.3 0,-118.76 -96.59,-215.33 -215.33,-215.33 -118.73,0 -215.33,96.56 -215.33,215.33 0,118.77 96.59,215.33 215.33,215.33l0 -0.03z"/>
   </g>
  </g>
 </g>
</svg>
