<?xml version="1.0" encoding="UTF-8"?>
<!DOCTYPE svg PUBLIC "-//W3C//DTD SVG 1.1//EN" "http://www.w3.org/Graphics/SVG/1.1/DTD/svg11.dtd">
<!-- Creator: CorelDRAW -->
<svg xmlns="http://www.w3.org/2000/svg" xml:space="preserve" width="4.22667in" height="4.22667in" version="1.1" style="shape-rendering:geometricPrecision; text-rendering:geometricPrecision; image-rendering:optimizeQuality; fill-rule:evenodd; clip-rule:evenodd"
viewBox="0 0 68.25 68.25"
 xmlns:xlink="http://www.w3.org/1999/xlink"
 xmlns:xodm="http://www.corel.com/coreldraw/odm/2003">
 <defs>
  <style type="text/css">
   <![CDATA[
    .str0 {stroke:#212528;stroke-width:0.9;stroke-miterlimit:2.61313}
    .fil0 {fill:none}
    .fil1 {fill:#239e54}
    .fil2 {fill:url(#id0)}
    .fil3 {fill:url(#id1)}
   ]]>
  </style>
  <linearGradient id="id0" gradientUnits="userSpaceOnUse" x1="33.62" y1="8.06" x2="18.74" y2="53.27">
   <stop offset="0" style="stop-opacity:1; stop-color:#BCAAEB"/>
   <stop offset="1" style="stop-opacity:1; stop-color:#200D32"/>
  </linearGradient>
  <linearGradient id="id1" gradientUnits="userSpaceOnUse" xlink:href="#id0" x1="50.23" y1="36.05" x2="42.66" y2="57.16">
  </linearGradient>
 </defs>
 <g id="Layer_x0020_1">
  <metadata id="CorelCorpID_0Corel-Layer"/>
  <g id="_105553530554656">
   <rect class="fil0" x="0" y="0" width="68.25" height="68.25"/>
   <g>
    <path class="fil1" d="M66.32 66.67c-4.89,0.14 -41.09,-0.41 -42.2,0.28 0.94,0.74 38.27,0.41 42.83,0.31 0.09,-4.54 0.42,-47.32 -0.31,-48.21 -0.96,1.29 -0.21,42.22 -0.31,47.62z"/>
   </g>
   <g>
    <g>
     <path class="fil0 str0" d="M8.42 18.81c-0.4,0.09 -1.18,0.55 -1.5,0.76 -1.18,0.76 -2.45,2.77 -2.45,4.33l0 21.18c0,1.51 0.97,3.13 1.76,3.89 1.04,0.99 2.53,1.67 4.07,1.67l27.33 0 0.64 -1.06 -0.43 -0.96c-0.09,-0.2 -0.32,-0.76 -0.34,-1l-1.8 -0.44c-0.42,-0.11 -1.25,-0.23 -1.25,-0.99l0 -2.4c0.08,-0.92 0.49,-0.88 2.17,-1.3 0.26,-0.07 0.64,-0.19 0.89,-0.21 0.04,-0.54 0.71,-1.74 0.76,-1.96l-1.08 -1.79c-0.44,-0.73 -0.33,-1.08 0.23,-1.64l1.22 -1.22c0.58,-0.58 0.93,-0.62 1.64,-0.19l1.76 1.06c0.2,-0.05 1.43,-0.72 1.96,-0.76 0.02,-0.25 0.15,-0.66 0.22,-0.93 0.08,-0.32 0.14,-0.57 0.22,-0.88 0.07,-0.27 0.12,-0.66 0.29,-0.86 0.17,-0.2 0.35,-0.39 0.7,-0.39l2.48 0c0.35,0 0.57,0.21 0.72,0.42 0.14,0.18 0.68,2.34 0.71,2.63 0.54,0.04 1.75,0.71 1.96,0.76l1.38 -0.83 0 -11.82c0,-1.12 -0.75,-2.6 -1.3,-3.22 -0.36,-0.41 -0.71,-0.82 -1.15,-1.11 -0.33,-0.21 -1.11,-0.66 -1.5,-0.76 0,-2.93 0.53,-6.21 -2.32,-7.75 -0.31,-0.17 -0.44,-0.29 -0.82,-0.4 -0.37,-0.11 -0.62,-0.21 -1,-0.23 -1.68,-0.08 -5.77,0 -7.63,0 -1.81,0 -5.9,0.08 -7.54,0 -0.92,-0.04 -7.85,-4.05 -8.56,-4.05l-7.81 0c-1.25,0 -2.4,0.55 -3.04,1.2 -0.75,0.76 -1.36,1.57 -1.48,2.75 -0.26,2.47 -0.09,5.8 -0.09,8.48zm4.14 17.89c0,-1.48 0.89,-2.17 2.35,-2.17l15.25 0c3.31,0 2.8,3.95 0.56,3.95l-16.38 0c-0.95,0 -1.79,-0.85 -1.79,-1.79zm0 -8c0,-1.3 0.75,-2.17 1.88,-2.17l10.17 0c2.49,0 2.49,3.95 0,3.95l-10.17 0c-0.94,0 -1.88,-0.84 -1.88,-1.79zm0 -17.8c0,-0.3 0.34,-0.47 0.66,-0.47l6.59 0c0.37,0 2.05,0.93 2.45,1.13l4.77 2.39c1.54,0.77 1.06,0.53 3.14,0.53 2.04,0 13.31,-0.14 14.31,0.09 0.2,0.87 0.09,2.86 0.09,3.86l-32.01 0 0 -7.53z"/>
     <path class="fil0 str0" d="M36.15 46.01l0 -2.07c0.07,-0.79 0.43,-0.76 1.87,-1.12 0.23,-0.06 0.55,-0.16 0.76,-0.18 0.04,-0.46 0.61,-1.5 0.66,-1.68l-0.93 -1.54c-0.38,-0.63 -0.29,-0.93 0.2,-1.41l1.05 -1.05c0.5,-0.5 0.8,-0.53 1.42,-0.16l1.51 0.91c0.17,-0.04 1.23,-0.62 1.68,-0.66 0.02,-0.21 0.13,-0.57 0.19,-0.8 0.07,-0.27 0.12,-0.49 0.19,-0.76 0.06,-0.23 0.11,-0.56 0.25,-0.74 0.14,-0.17 0.3,-0.34 0.61,-0.34l2.14 0c0.3,0 0.49,0.18 0.62,0.36 0.12,0.15 0.59,2.01 0.61,2.27 0.46,0.04 1.5,0.62 1.68,0.66l1.54 -0.93c0.37,-0.22 0.32,-0.22 0.76,-0.22 0.33,0 0.88,0.65 1.16,0.93 0.79,0.79 1.26,1.02 0.7,1.95l-0.91 1.51c0.04,0.17 0.62,1.23 0.66,1.68 0.21,0.02 0.57,0.13 0.8,0.19 0.77,0.19 1.83,0.28 1.83,1.04l0 2.14c0,0.3 -0.18,0.49 -0.36,0.62 -0.15,0.12 -2.01,0.59 -2.27,0.61 -0.02,0.19 -0.22,0.71 -0.3,0.89 -0.06,0.14 -0.11,0.26 -0.18,0.4 -0.07,0.14 -0.14,0.25 -0.18,0.4l0.93 1.54c0.38,0.63 0.29,0.93 -0.2,1.41l-1.05 1.05c-0.5,0.5 -0.8,0.53 -1.42,0.16 -0.18,-0.11 -0.33,-0.2 -0.51,-0.31 -0.34,-0.2 -0.69,-0.39 -1,-0.6 -0.19,0.04 -1.22,0.62 -1.68,0.66 -0.02,0.28 -0.49,2.12 -0.63,2.29 -0.14,0.17 -0.3,0.34 -0.61,0.34l-2.14 0c-0.3,0 -0.49,-0.18 -0.62,-0.36 -0.14,-0.18 -0.36,-1.22 -0.43,-1.5 -0.06,-0.23 -0.16,-0.55 -0.18,-0.76 -0.18,-0.01 -0.73,-0.22 -0.89,-0.3l-0.79 -0.36 -1.54 0.93c-0.63,0.38 -0.93,0.29 -1.41,-0.2l-1.05 -1.05c-0.5,-0.5 -0.53,-0.8 -0.16,-1.42l0.91 -1.51 -0.37 -0.82c-0.08,-0.17 -0.27,-0.66 -0.29,-0.86l-1.55 -0.38c-0.36,-0.09 -1.08,-0.2 -1.08,-0.85zm7.23 -1.07c0,-1.51 1.1,-2.85 2.56,-3.2 0.69,-0.17 1.44,-0.09 2.07,0.21 1.62,0.76 2.41,2.69 1.64,4.33 -0.44,0.94 -1.24,1.61 -2.26,1.85 -1.73,0.41 -3.5,-0.69 -3.93,-2.47 -0.04,-0.16 -0.09,-0.56 -0.09,-0.73z"/>
    </g>
    <g>
     <path class="fil2" d="M9.88 20.03c-0.4,0.09 -1.18,0.55 -1.5,0.76 -1.18,0.76 -2.45,2.77 -2.45,4.33l0 21.18c0,1.51 0.97,3.13 1.76,3.89 1.04,0.99 2.53,1.67 4.07,1.67l27.33 0 0.64 -1.06 -0.43 -0.96c-0.09,-0.2 -0.32,-0.76 -0.34,-1l-1.8 -0.44c-0.42,-0.11 -1.25,-0.23 -1.25,-0.99l0 -2.4c0.08,-0.92 0.49,-0.88 2.17,-1.3 0.26,-0.07 0.64,-0.19 0.89,-0.21 0.04,-0.54 0.71,-1.74 0.76,-1.96l-1.08 -1.79c-0.44,-0.73 -0.33,-1.08 0.23,-1.64l1.22 -1.22c0.58,-0.58 0.93,-0.62 1.64,-0.19l1.76 1.06c0.2,-0.05 1.43,-0.72 1.96,-0.76 0.02,-0.25 0.15,-0.66 0.22,-0.93 0.08,-0.32 0.14,-0.57 0.22,-0.88 0.07,-0.27 0.12,-0.66 0.29,-0.86 0.17,-0.2 0.35,-0.39 0.7,-0.39l2.48 0c0.35,0 0.57,0.21 0.72,0.42 0.14,0.18 0.68,2.34 0.71,2.63 0.54,0.04 1.75,0.71 1.96,0.76l1.38 -0.83 0 -11.82c0,-1.12 -0.75,-2.6 -1.3,-3.22 -0.36,-0.41 -0.71,-0.82 -1.15,-1.11 -0.33,-0.21 -1.11,-0.66 -1.5,-0.76 0,-2.93 0.53,-6.21 -2.32,-7.75 -0.31,-0.17 -0.44,-0.29 -0.82,-0.4 -0.37,-0.11 -0.62,-0.21 -1,-0.23 -1.68,-0.08 -5.77,0 -7.63,0 -1.81,0 -5.9,0.08 -7.54,0 -0.92,-0.04 -7.85,-4.05 -8.56,-4.05l-7.81 0c-1.25,0 -2.4,0.55 -3.04,1.2 -0.75,0.76 -1.36,1.57 -1.48,2.75 -0.26,2.47 -0.09,5.8 -0.09,8.48zm4.14 17.89c0,-1.48 0.89,-2.17 2.35,-2.17l15.25 0c3.31,0 2.8,3.95 0.56,3.95l-16.38 0c-0.95,0 -1.79,-0.85 -1.79,-1.79zm0 -8c0,-1.3 0.75,-2.17 1.88,-2.17l10.17 0c2.49,0 2.49,3.95 0,3.95l-10.17 0c-0.94,0 -1.88,-0.84 -1.88,-1.79zm0 -17.8c0,-0.3 0.34,-0.47 0.66,-0.47l6.59 0c0.37,0 2.05,0.93 2.45,1.13l4.77 2.39c1.54,0.77 1.06,0.53 3.14,0.53 2.04,0 13.31,-0.14 14.31,0.09 0.2,0.87 0.09,2.86 0.09,3.86l-32.01 0 0 -7.53z"/>
     <path class="fil3" d="M37.61 47.23l0 -2.07c0.07,-0.79 0.43,-0.76 1.87,-1.12 0.23,-0.06 0.55,-0.16 0.76,-0.18 0.04,-0.46 0.61,-1.5 0.66,-1.68l-0.93 -1.54c-0.38,-0.63 -0.29,-0.93 0.2,-1.41l1.05 -1.05c0.5,-0.5 0.8,-0.53 1.42,-0.16l1.51 0.91c0.17,-0.04 1.23,-0.62 1.68,-0.66 0.02,-0.21 0.13,-0.57 0.19,-0.8 0.07,-0.27 0.12,-0.49 0.19,-0.76 0.06,-0.23 0.11,-0.56 0.25,-0.74 0.14,-0.17 0.3,-0.34 0.61,-0.34l2.14 0c0.3,0 0.49,0.18 0.62,0.36 0.12,0.15 0.59,2.01 0.61,2.27 0.46,0.04 1.5,0.62 1.68,0.66l1.54 -0.93c0.37,-0.22 0.32,-0.22 0.76,-0.22 0.33,0 0.88,0.65 1.16,0.93 0.79,0.79 1.26,1.02 0.7,1.95l-0.91 1.51c0.04,0.17 0.62,1.23 0.66,1.68 0.21,0.02 0.57,0.13 0.8,0.19 0.77,0.19 1.83,0.28 1.83,1.04l0 2.14c0,0.3 -0.18,0.49 -0.36,0.62 -0.15,0.12 -2.01,0.59 -2.27,0.61 -0.02,0.19 -0.22,0.71 -0.3,0.89 -0.06,0.14 -0.11,0.26 -0.18,0.4 -0.07,0.14 -0.14,0.25 -0.18,0.4l0.93 1.54c0.38,0.63 0.29,0.93 -0.2,1.41l-1.05 1.05c-0.5,0.5 -0.8,0.53 -1.42,0.16 -0.18,-0.11 -0.33,-0.2 -0.51,-0.31 -0.34,-0.2 -0.69,-0.39 -1,-0.6 -0.19,0.04 -1.22,0.62 -1.68,0.66 -0.02,0.28 -0.49,2.12 -0.63,2.29 -0.14,0.17 -0.3,0.34 -0.61,0.34l-2.14 0c-0.3,0 -0.49,-0.18 -0.62,-0.36 -0.14,-0.18 -0.36,-1.22 -0.43,-1.5 -0.06,-0.23 -0.16,-0.55 -0.18,-0.76 -0.18,-0.01 -0.73,-0.22 -0.89,-0.3l-0.79 -0.36 -1.54 0.93c-0.63,0.38 -0.93,0.29 -1.41,-0.2l-1.05 -1.05c-0.5,-0.5 -0.53,-0.8 -0.16,-1.42l0.91 -1.51 -0.37 -0.82c-0.08,-0.17 -0.27,-0.66 -0.29,-0.86l-1.55 -0.38c-0.36,-0.09 -1.08,-0.2 -1.08,-0.85zm7.23 -1.07c0,-1.51 1.1,-2.85 2.56,-3.2 0.69,-0.16 1.44,-0.09 2.07,0.21 1.62,0.76 2.41,2.69 1.64,4.33 -0.44,0.94 -1.24,1.61 -2.26,1.85 -1.73,0.41 -3.5,-0.69 -3.93,-2.47 -0.04,-0.16 -0.09,-0.56 -0.09,-0.73z"/>
    </g>
   </g>
  </g>
 </g>
</svg>
