<?xml version="1.0" encoding="UTF-8"?>
<!DOCTYPE svg PUBLIC "-//W3C//DTD SVG 1.1//EN" "http://www.w3.org/Graphics/SVG/1.1/DTD/svg11.dtd">
<!-- Creator: CorelDRAW -->
<svg xmlns="http://www.w3.org/2000/svg" xml:space="preserve" width="42.2226mm" height="40.101mm" version="1.1" style="shape-rendering:geometricPrecision; text-rendering:geometricPrecision; image-rendering:optimizeQuality; fill-rule:evenodd; clip-rule:evenodd"
viewBox="0 0 1295.02 1229.95"
 xmlns:xlink="http://www.w3.org/1999/xlink"
 xmlns:xodm="http://www.corel.com/coreldraw/odm/2003">
 <defs>
  <style type="text/css">
   <![CDATA[
    .fil0 {fill:#239E54}
   ]]>
  </style>
 </defs>
 <g id="Layer_x0020_1">
  <metadata id="CorelCorpID_0Corel-Layer"/>
  <g id="_105553135017056">
   <path class="fil0" d="M720.19 511.01l0.57 -111.04 -275 0.3 -0.47 829.56 274.23 0.13c15.55,-303.97 -64.24,-616.73 141.31,-629.58 142.04,-8.88 151.44,113.29 151.11,242.05 -0.33,122.64 -6.86,267.32 1.96,387.43l273.47 -0.83c8.6,-188.82 25.45,-567.83 -53.73,-704.98 -43.92,-76.07 -119.05,-135.45 -242.6,-142.9 -60.85,-3.67 -122.41,10.05 -167.6,34.67 -42.04,22.9 -41.8,29.86 -74.49,65.5l-28.75 29.71z"/>
   <polygon class="fil0" points="17.1,1229.85 292.56,1229.14 293.74,403.67 17.83,399.65 "/>
   <path class="fil0" d="M116.91 6.47c-202.27,52.88 -121.71,327.82 86.32,275.65 181.62,-45.55 114.39,-328.12 -86.32,-275.65z"/>
  </g>
 </g>
</svg>
