<?xml version="1.0" encoding="UTF-8"?>
<!DOCTYPE svg PUBLIC "-//W3C//DTD SVG 1.1//EN" "http://www.w3.org/Graphics/SVG/1.1/DTD/svg11.dtd">
<!-- Creator: CorelDRAW -->
<svg xmlns="http://www.w3.org/2000/svg" xml:space="preserve" width="1.59451in" height="1.59451in" version="1.1" style="shape-rendering:geometricPrecision; text-rendering:geometricPrecision; image-rendering:optimizeQuality; fill-rule:evenodd; clip-rule:evenodd"
viewBox="0 0 34.14 34.14"
 xmlns:xlink="http://www.w3.org/1999/xlink"
 xmlns:xodm="http://www.corel.com/coreldraw/odm/2003">
 <defs>
  <style type="text/css">
   <![CDATA[
    .fil1 {fill:black}
    .fil3 {fill:#21AD62}
    .fil10 {fill:#2CBD70}
    .fil8 {fill:#39DB84}
    .fil7 {fill:#40DE8A}
    .fil6 {fill:#46D98A}
    .fil4 {fill:#4BE894}
    .fil9 {fill:#4FE394}
    .fil5 {fill:#53F19C}
    .fil2 {fill:#7CFFB0}
    .fil0 {fill:white}
   ]]>
  </style>
 </defs>
 <g id="Layer_x0020_1">
  <metadata id="CorelCorpID_0Corel-Layer"/>
  <circle class="fil0" transform="matrix(-7.52328E-001 0.00350389 -3.50389E-003 -7.52328E-001 17.0695 17.0695)" r="22.69"/>
  <g id="_105553158011776">
   <g id="_105553240688960">
    <circle class="fil1" cx="16.79" cy="17.04" r="11.91"/>
    <path class="fil2" d="M16.74 6.74c5.81,0 10.53,4.71 10.53,10.53 0,5.81 -4.71,10.53 -10.53,10.53 -5.81,0 -10.53,-4.71 -10.53,-10.53 0,-5.81 4.71,-10.53 10.53,-10.53zm0 0.82c5.36,0 9.71,4.35 9.71,9.71 0,5.36 -4.35,9.71 -9.71,9.71 -5.36,0 -9.71,-4.35 -9.71,-9.71 0,-5.36 4.35,-9.71 9.71,-9.71z"/>
    <path class="fil3" d="M16.93 6.36c5.92,0 10.72,4.8 10.72,10.72 0,5.92 -4.8,10.72 -10.72,10.72 -5.92,0 -10.72,-4.8 -10.72,-10.72 0,-5.92 4.8,-10.72 10.72,-10.72zm0 0.83c5.46,0 9.89,4.43 9.89,9.89 0,5.46 -4.43,9.89 -9.89,9.89 -5.46,0 -9.89,-4.43 -9.89,-9.89 0,-5.46 4.43,-9.89 9.89,-9.89z"/>
    <g>
     <path class="fil4" d="M8.45 12.53c0.45,0.21 0.33,1.62 0.28,1.99 -0.09,0.66 -0.24,1.35 -0.41,1.98 -0.4,1.58 -0.7,3.24 -0.47,4.68 0.49,1.11 1.18,2.11 2.03,2.96 0.35,0.19 0.75,0.35 1.21,0.47 0.49,0.13 1.6,0.32 2.16,0.26l-0 -0.05c-0.21,-0.15 -0.41,-0.44 -0.55,-0.67 -0.53,-0.84 -0.59,-1.86 -0.12,-2.72 0.14,-0.25 0.29,-0.48 0.5,-0.66 0.49,-0.41 0.55,-0.57 1.27,-1.04 0.23,-0.15 0.45,-0.3 0.69,-0.47l0.51 -0.36c0.01,-0.01 0.08,-0.06 0.09,-0.07 0.05,-0.03 0.03,-0.02 0.07,-0.05 0.68,-0.48 1.29,-1.02 1.8,-1.67 1.33,-1.69 0.51,-3.1 0.47,-3.63 -0.15,-0.19 -0.73,-0.58 -1.02,-0.71l-0.01 0.05c0.01,0.23 1.06,1.49 0.32,3.26 -0.39,0.91 -1.26,1.63 -2.54,1.64 -0,0.03 -0.01,0.09 -0.02,0.11 -0.04,0.1 -0.02,0.04 -0.07,0.09 -0.22,0.89 -1.2,1.6 -2.24,1.67 -1.29,0.09 -2.2,-0.41 -2.73,-1.15 -1.15,-1.61 -0.06,-3.6 -0.31,-5 -0.08,-0.46 -0.47,-1.12 -0.92,-0.9l0 0z"/>
     <path class="fil5" d="M13.24 24.82c-0.28,-1.57 0.31,-3.74 1.04,-3.33 0.5,0.28 1.43,-0 1.96,-0.14 0.31,-0.08 0.61,-0.18 0.93,-0.23 0.51,-0.08 0.63,0.04 0.98,0.19 -0.01,-1.01 -1.92,-1.51 -2.22,-2.35 0.41,0.36 0.25,0.32 0.84,0.75 2.05,1.5 5.29,1.59 7.09,-0.34 0.14,-0.15 0.71,-0.74 0.5,-1.07 -0.11,0.03 -0.09,0.05 -0.16,0.12 -0.19,0.21 -0.13,0.19 -0.41,0.43 -0.23,0.19 -0.36,0.3 -0.64,0.47 -1.1,0.67 -2.47,0.72 -3.65,0.26 -0.4,-0.16 -1.23,-0.63 -1.4,-0.88 0.26,0.06 0.6,0.24 0.92,0.32 1.71,0.46 3.42,-0.14 4.28,-1.75 0.24,-0.45 0.59,-1.31 0.59,-1.93l-0 -0.15c-0.26,0.5 -0.19,0.68 -0.82,1.09 -1.18,0.77 -2.5,0.51 -3.41,-0.46 -0.12,-0.13 -0.34,-0.39 -0.42,-0.56 -0.05,-0.09 -0.17,-0.18 -0.31,-0.42 -0.1,-0.17 -0.17,-0.32 -0.25,-0.51 -0.16,-0.34 -0.42,-0.7 -0.68,-0.88 0.04,0.54 0.86,1.94 -0.47,3.63 -0.51,0.64 -1.13,1.19 -1.8,1.67 -0.04,0.03 -0.02,0.02 -0.07,0.05 -0.01,0.01 -0.08,0.06 -0.09,0.07l-0.51 0.36c-0.23,0.17 -0.46,0.33 -0.69,0.47 -0.73,0.48 -0.78,0.63 -1.27,1.04 -0.21,0.18 -0.36,0.41 -0.5,0.66 -0.47,0.86 -0.41,1.87 0.12,2.72 0.14,0.23 0.34,0.51 0.55,0.67l-0 0z"/>
     <path class="fil3" d="M6.84 13.59c0.01,0.15 -0.29,0.93 -0.34,1.17 -0.08,0.4 -0.2,0.78 -0.24,1.21 -0.04,0.39 -0.05,0.78 -0.04,1.17 0.02,-1.45 0.47,-2.86 1.02,-4.11 -0.31,0.16 -0.19,0.16 -0.33,0.45l-0.07 0.11 -0 -0zm5.82 13.39c0.49,0.22 1.09,0.45 1.53,0.55l0.05 -0.01 -0 -0.02c-0.55,-0.13 -1.07,-0.31 -1.58,-0.52zm1.09 -0.47c-0.05,-0.11 -0.09,-0.21 -0.12,-0.29 -0.19,-0.47 -0.27,-0.89 -0.38,-1.35 -0.55,0.06 -1.67,-0.13 -2.16,-0.26 -0.46,-0.12 -0.86,-0.28 -1.21,-0.47 1.07,1.07 2.4,1.89 3.88,2.37l-0 0zm-5.9 -5.33c-0.23,-1.43 0.07,-3.1 0.47,-4.68 0.16,-0.64 0.32,-1.32 0.41,-1.98 0.05,-0.36 0.17,-1.77 -0.28,-1.99 -0.06,0 -0.13,0.02 -0.21,0.04 -0.77,1.39 -1.21,2.99 -1.21,4.7 0,1.39 0.29,2.71 0.82,3.91z"/>
     <path class="fil5" d="M14.74 17.71c1.28,-0.01 2.15,-0.72 2.54,-1.64 0.74,-1.77 -0.31,-3.03 -0.32,-3.26l0.01 -0.05 -0.16 -0.09c0.18,0.8 -0.1,1.06 -0.48,1.43 -0.55,0.53 -1.43,0.41 -2.06,0.19 -0.04,-0.01 -0.1,-0.03 -0.15,-0.05l-1.75 -1.08c-0.14,-0.12 -0.26,-0.24 -0.4,-0.36 -0.14,-0.12 -0.28,-0.26 -0.4,-0.36 -0.03,-0.03 -0.08,-0.06 -0.11,-0.09 -0.02,-0.02 -0.04,-0.03 -0.07,-0.05l-0.75 -0.45c-0.41,-0.2 -0.8,-0.19 -1.26,-0.22 0.16,0.12 1.03,0.21 1.63,1.26 0.62,1.08 0.92,2.95 1.79,3.96 0.53,0.6 1.02,0.83 1.97,0.85l0 0z"/>
     <path class="fil6" d="M14.64 17.91c0.05,-0.05 0.03,0.01 0.07,-0.09 0.01,-0.03 0.02,-0.09 0.02,-0.11 -0.94,-0.02 -1.44,-0.25 -1.97,-0.85 -0.87,-1 -1.17,-2.88 -1.79,-3.96 -0.61,-1.05 -1.47,-1.14 -1.63,-1.26l-0.28 -0.03c-0.06,0 -0.15,0.02 -0.25,0.04 -0.1,0.14 -0.2,0.28 -0.29,0.43 0.4,0.27 1.34,0.46 1.16,2.27 -0.12,1.19 -0.32,2.42 0.13,3.49 0.37,0.86 1.19,1.42 2.4,1.5 1.26,0.09 2.07,-0.62 2.42,-1.43l-0 0z"/>
     <path class="fil2" d="M21.08 14.9c-0.21,0.27 -0.32,0.5 -0.76,0.59 -0.18,0.04 -0.42,0.03 -0.6,-0.01 -0.26,-0.05 -0.31,-0.12 -0.51,-0.2 0.08,0.17 0.3,0.44 0.42,0.56 0.91,0.96 2.23,1.23 3.41,0.46 0.62,-0.41 0.56,-0.59 0.82,-1.09l0 0.15c0.17,-0.41 -0.04,-1.66 -0.16,-2.07 -0.31,-1.09 -1.11,-2.01 -2.01,-2.62 -0.58,-0.39 -0.93,-0.48 -1.6,-0.74l0.58 0.41c0.25,0.18 0.38,0.38 0.58,0.62 0.75,0.94 1.21,3.26 -0.17,3.94l0 -0z"/>
     <path class="fil2" d="M9.06 11.62l0.28 0.03c0.46,0.03 0.85,0.03 1.26,0.22l0.75 0.45c0.03,0.02 0.05,0.03 0.07,0.05 0.04,0.03 0.08,0.06 0.11,0.09 0.12,0.1 0.26,0.24 0.4,0.36 0.15,0.12 0.27,0.24 0.4,0.36l1.75 1.08c0.05,0.02 0.11,0.04 0.15,0.05 0.64,0.22 1.51,0.34 2.06,-0.19 0.38,-0.37 0.66,-0.63 0.48,-1.43 -0.13,-0.17 -1.41,-0.7 -1.57,-0.76 -1.4,-0.49 -2.57,-0.7 -4.08,-0.64 -0.5,0.02 -1.72,0.13 -2.08,0.33l-0 0z"/>
     <path class="fil7" d="M14.86 9.42c0,0.7 0.14,1.16 0.65,1.48 1.33,0.84 1.29,-0.93 4.38,0.99 0.24,0.15 0.38,0.26 0.58,0.46 0.32,0.31 0.64,0.75 0.75,1.33 0.13,-0.19 -0.01,-0.73 -0.06,-0.87 -0.14,-0.41 -0.16,-0.44 -0.38,-0.77 -0.01,-0.01 -0.05,-0.07 -0.05,-0.07l-0.35 -0.45 -1.54 -1.09c-2.19,-1.31 -2.93,0.54 -2.91,-1.56 -0.8,0.12 -0.78,0.03 -1.09,0.57l0 -0z"/>
     <path class="fil8" d="M21.23 13.68c0.09,0.49 0.04,0.83 -0.14,1.22 1.39,-0.68 0.92,-3 0.17,-3.94 -0.19,-0.24 -0.32,-0.44 -0.58,-0.62l-0.58 -0.41c-1.29,-0.23 -1.85,-0.32 -3.19,-0.03 0.31,0.06 0.59,0.09 0.83,0.19 0.33,0.13 0.8,0.14 1.1,0.33l1.54 1.09 0.35 0.45c0,0 0.04,0.06 0.05,0.07 0.22,0.33 0.24,0.35 0.38,0.77 0.05,0.14 0.19,0.68 0.06,0.87l0 0z"/>
     <path class="fil1" d="M15.92 14.64c0.12,0.73 0.14,0.68 0.97,0.81 -0.29,-0.67 -0.12,-0.51 -0.97,-0.81z"/>
    </g>
    <path class="fil4" d="M8.45 12.53c0.45,0.21 0.33,1.62 0.28,1.99 -0.09,0.66 -0.24,1.35 -0.41,1.98 -0.4,1.58 -0.7,3.24 -0.47,4.68 0.49,1.11 1.18,2.11 2.03,2.96 0.35,0.19 0.75,0.35 1.21,0.47 0.49,0.13 1.6,0.32 2.16,0.26l-0 -0.05c-0.21,-0.15 -0.41,-0.44 -0.55,-0.67 -0.53,-0.84 -0.59,-1.86 -0.12,-2.72 0.14,-0.25 0.29,-0.48 0.5,-0.66 0.4,-0.34 0.51,-0.5 0.95,-0.82 0.06,-0.11 0.13,-0.22 0.19,-0.32 0.08,-0.15 0.1,-0.28 0.16,-0.49 0.05,-0.21 0.12,-0.51 0.18,-0.73 0.06,-0.22 0.1,-0.37 0.23,-0.57 0.03,-0.04 0.06,-0.09 0.09,-0.13 -0.04,0 -0.09,0 -0.13,0 -0,0.03 -0.01,0.09 -0.02,0.11 -0.04,0.1 -0.02,0.04 -0.07,0.09 -0.22,0.89 -1.2,1.6 -2.24,1.67 -1.29,0.09 -2.2,-0.41 -2.73,-1.15 -1.15,-1.61 -0.06,-3.6 -0.31,-5 -0.08,-0.46 -0.47,-1.12 -0.92,-0.9l0 0z"/>
    <path class="fil5" d="M13.24 24.82c-0.28,-1.57 0.31,-3.74 1.04,-3.33 0.5,0.28 1.43,-0 1.96,-0.14 0.31,-0.08 0.61,-0.18 0.93,-0.23 0.51,-0.08 0.63,0.04 0.98,0.19 -0.01,-1.01 -1.92,-1.51 -2.22,-2.35 0.41,0.36 0.25,0.32 0.84,0.75 2.05,1.5 5.29,1.59 7.09,-0.34 0.14,-0.15 0.71,-0.74 0.5,-1.07 -0.11,0.03 -0.09,0.05 -0.16,0.12 -0.19,0.21 -0.13,0.19 -0.41,0.43 -0.23,0.19 -0.36,0.3 -0.64,0.47 -1.1,0.67 -2.47,0.72 -3.65,0.26 -0.4,-0.16 -1.23,-0.63 -1.4,-0.88 0.26,0.06 0.6,0.24 0.92,0.32 1.71,0.46 3.42,-0.14 4.28,-1.75 0.24,-0.45 0.59,-1.31 0.59,-1.93l-0 -0.15c-0.26,0.5 -0.19,0.68 -0.82,1.09 -1.18,0.77 -2.5,0.51 -3.41,-0.46 -0.12,-0.13 -0.34,-0.39 -0.42,-0.56 -0.05,-0.09 -0.17,-0.18 -0.31,-0.42 -0.1,-0.17 -0.17,-0.32 -0.25,-0.51 -0.16,-0.34 -0.42,-0.7 -0.68,-0.88 0.04,0.54 0.86,1.94 -0.47,3.63 -0.51,0.64 -1.13,1.19 -1.8,1.67 -0.04,0.03 -0.02,0.02 -0.07,0.05 -0.01,0.01 -0.08,0.06 -0.09,0.07l-0.51 0.36c-0.23,0.17 -0.46,0.33 -0.69,0.47 -0.73,0.48 -0.78,0.63 -1.27,1.04 -0.21,0.18 -0.36,0.41 -0.5,0.66 -0.47,0.86 -0.41,1.87 0.12,2.72 0.14,0.23 0.34,0.51 0.55,0.67l-0 0z"/>
    <path class="fil3" d="M6.57 14.78c-0.08,0.4 -0.28,0.76 -0.32,1.19 -0.04,0.39 -0.05,0.78 -0.04,1.17 0.02,-1.45 0.67,-2.93 1.22,-4.18 -0.64,0.35 -0.72,1.17 -0.86,1.82l0 0zm6.09 12.2c0.49,0.22 1.09,0.45 1.53,0.55l0.05 -0.01 -0 -0.02c-0.55,-0.13 -1.07,-0.31 -1.58,-0.52zm1.09 -0.47c-0.05,-0.11 -0.09,-0.21 -0.12,-0.29 -0.19,-0.47 -0.27,-0.89 -0.38,-1.35 -0.55,0.06 -1.67,-0.13 -2.16,-0.26 -0.46,-0.12 -0.86,-0.28 -1.21,-0.47 1.07,1.07 2.4,1.89 3.88,2.37l-0 0zm-5.9 -5.33c-0.23,-1.43 0.07,-3.1 0.47,-4.68 0.16,-0.64 0.32,-1.32 0.41,-1.98 0.05,-0.36 0.17,-1.77 -0.28,-1.99 -0.06,0 -0.13,0.02 -0.21,0.04 -0.77,1.39 -1.21,2.99 -1.21,4.7 0,1.39 0.29,2.71 0.82,3.91z"/>
    <path class="fil5" d="M14.74 17.71c1.28,-0.01 2.15,-0.72 2.54,-1.64 0.74,-1.77 -0.31,-3.03 -0.32,-3.26l0.01 -0.05 -0.16 -0.09c0.18,0.8 -0.1,1.06 -0.48,1.43 -0.55,0.53 -1.43,0.41 -2.06,0.19 -0.04,-0.01 -0.1,-0.03 -0.15,-0.05l-1.75 -1.08c-0.14,-0.12 -0.26,-0.24 -0.4,-0.36 -0.14,-0.12 -0.28,-0.26 -0.4,-0.36 -0.03,-0.03 -0.08,-0.06 -0.11,-0.09 -0.02,-0.02 -0.04,-0.03 -0.07,-0.05l-0.75 -0.45c-0.41,-0.2 -0.8,-0.19 -1.26,-0.22 0.16,0.12 1.03,0.21 1.63,1.26 0.62,1.08 0.92,2.95 1.79,3.96 0.53,0.6 1.02,0.83 1.97,0.85l0 0z"/>
    <path class="fil9" d="M14.02 19.95c0.09,-0.07 0.2,-0.14 0.32,-0.22 0.23,-0.15 0.45,-0.3 0.69,-0.47l0.51 -0.36c0.01,-0.01 0.08,-0.06 0.09,-0.07 0.05,-0.03 0.03,-0.02 0.07,-0.05 0.68,-0.48 1.29,-1.02 1.8,-1.67 1.33,-1.69 0.51,-3.1 0.47,-3.63 -0.15,-0.19 -0.73,-0.58 -1.02,-0.71l-0.01 0.05c0.01,0.23 1.06,1.49 0.32,3.26 -0.37,0.88 -1.2,1.58 -2.41,1.63 -0.03,0.05 -0.07,0.09 -0.09,0.13 -0.13,0.2 -0.17,0.35 -0.23,0.57 -0.06,0.22 -0.13,0.52 -0.18,0.73 -0.05,0.21 -0.08,0.34 -0.16,0.49 -0.05,0.1 -0.13,0.21 -0.19,0.32l0 -0z"/>
    <path class="fil6" d="M14.64 17.91c0.05,-0.05 0.03,0.01 0.07,-0.09 0.01,-0.03 0.02,-0.09 0.02,-0.11 -0.94,-0.02 -1.44,-0.25 -1.97,-0.85 -0.87,-1 -1.17,-2.88 -1.79,-3.96 -0.61,-1.05 -1.47,-1.14 -1.63,-1.26l-0.28 -0.03c-0.06,0 -0.15,0.02 -0.25,0.04 -0.1,0.14 -0.2,0.28 -0.29,0.43 0.4,0.27 1.34,0.46 1.16,2.27 -0.12,1.19 -0.32,2.42 0.13,3.49 0.37,0.86 1.19,1.42 2.4,1.5 1.26,0.09 2.07,-0.62 2.42,-1.43l-0 0z"/>
    <path class="fil2" d="M21.08 14.9c-0.21,0.27 -0.32,0.5 -0.76,0.59 -0.18,0.04 -0.42,0.03 -0.6,-0.01 -0.26,-0.05 -0.31,-0.12 -0.51,-0.2 0.08,0.17 0.3,0.44 0.42,0.56 0.91,0.96 2.23,1.23 3.41,0.46 0.62,-0.41 0.56,-0.59 0.82,-1.09l0 0.15c0.17,-0.41 -0.04,-1.66 -0.16,-2.07 -0.31,-1.09 -1.11,-2.01 -2.01,-2.62 -0.58,-0.39 -0.93,-0.48 -1.6,-0.74l0.58 0.41c0.25,0.18 0.38,0.38 0.58,0.62 0.75,0.94 1.21,3.26 -0.17,3.94l0 -0z"/>
    <path class="fil2" d="M9.06 11.62l0.28 0.03c0.46,0.03 0.85,0.03 1.26,0.22l0.75 0.45c0.03,0.02 0.05,0.03 0.07,0.05 0.04,0.03 0.08,0.06 0.11,0.09 0.12,0.1 0.26,0.24 0.4,0.36 0.15,0.12 0.27,0.24 0.4,0.36l1.75 1.08c0.05,0.02 0.11,0.04 0.15,0.05 0.64,0.22 1.51,0.34 2.06,-0.19 0.38,-0.37 0.66,-0.63 0.48,-1.43 -0.13,-0.17 -1.41,-0.7 -1.57,-0.76 -1.4,-0.49 -2.57,-0.7 -4.08,-0.64 -0.5,0.02 -1.72,0.13 -2.08,0.33l-0 0z"/>
    <path class="fil7" d="M14.86 9.42c0,0.7 0.14,1.16 0.65,1.48 1.33,0.84 1.29,-0.93 4.38,0.99 0.24,0.15 0.38,0.26 0.58,0.46 0.32,0.31 0.64,0.75 0.75,1.33 0.13,-0.19 -0.01,-0.73 -0.06,-0.87 -0.14,-0.41 -0.16,-0.44 -0.38,-0.77 -0.01,-0.01 -0.05,-0.07 -0.05,-0.07l-0.35 -0.45 -1.54 -1.09c-2.19,-1.31 -2.93,0.54 -2.91,-1.56 -0.8,0.12 -0.78,0.03 -1.09,0.57l0 -0z"/>
    <path class="fil8" d="M21.23 13.68c0.09,0.49 0.04,0.83 -0.14,1.22 1.39,-0.68 0.92,-3 0.17,-3.94 -0.19,-0.24 -0.32,-0.44 -0.58,-0.62l-0.58 -0.41c-0.52,-0.09 -0.91,-0.19 -1.46,-0.23 -0.34,-0.02 -1.41,0.14 -1.7,0.2 0.31,0.06 0.62,-0.06 0.86,0.04 0.33,0.13 0.74,0.29 1.05,0.47l1.54 1.09 0.35 0.45c0,0 0.04,0.06 0.05,0.07 0.22,0.33 0.24,0.35 0.38,0.77 0.05,0.14 0.19,0.68 0.06,0.87l-0 0z"/>
    <path class="fil1" d="M15.92 14.64c0.12,0.73 0.14,0.68 0.97,0.81 -0.29,-0.67 -0.12,-0.51 -0.97,-0.81z"/>
    <path class="fil10" d="M8.45 12.53c0.45,0.21 0.33,1.62 0.28,1.99 -0.09,0.66 -0.24,1.35 -0.41,1.98 -0.4,1.58 -0.7,3.24 -0.47,4.68 0.49,1.11 1.18,2.11 2.03,2.96 0.35,0.19 0.75,0.35 1.21,0.47 0.49,0.13 1.6,0.32 2.16,0.26l-0 -0.05c-0.21,-0.15 -0.41,-0.44 -0.55,-0.67 -0.53,-0.84 -0.59,-1.86 -0.12,-2.72 0.14,-0.25 0.29,-0.48 0.5,-0.66 0.4,-0.34 0.51,-0.5 0.95,-0.82 0.06,-0.11 0.13,-0.22 0.19,-0.32 0.08,-0.15 0.1,-0.28 0.16,-0.49 0.05,-0.21 0.12,-0.51 0.18,-0.73 0.06,-0.22 0.1,-0.37 0.23,-0.57 0.03,-0.04 0.06,-0.09 0.09,-0.13 -0.04,0 -0.09,0 -0.13,0 -0,0.03 -0.01,0.09 -0.02,0.11 -0.04,0.1 -0.02,0.04 -0.07,0.09 -0.22,0.89 -1.2,1.6 -2.24,1.67 -1.29,0.09 -2.2,-0.41 -2.73,-1.15 -1.15,-1.61 -0.06,-3.6 -0.31,-5 -0.08,-0.46 -0.47,-1.12 -0.92,-0.9l0 0z"/>
   </g>
  </g>
 </g>
</svg>
