<?xml version="1.0" encoding="UTF-8"?>
<!DOCTYPE svg PUBLIC "-//W3C//DTD SVG 1.1//EN" "http://www.w3.org/Graphics/SVG/1.1/DTD/svg11.dtd">
<!-- Creator: CorelDRAW -->
<svg xmlns="http://www.w3.org/2000/svg" xml:space="preserve" width="12.6189in" height="11.0592in" version="1.1" style="shape-rendering:geometricPrecision; text-rendering:geometricPrecision; image-rendering:optimizeQuality; fill-rule:evenodd; clip-rule:evenodd"
viewBox="0 0 2351.72 2061.05"
 xmlns:xlink="http://www.w3.org/1999/xlink"
 xmlns:xodm="http://www.corel.com/coreldraw/odm/2003">
 <defs>
  <style type="text/css">
   <![CDATA[
    .str0 {stroke:#229E54;stroke-width:7.76;stroke-miterlimit:2.61313}
    .fil2 {fill:none}
    .fil1 {fill:#DAEDE2;fill-rule:nonzero}
    .fil0 {fill:#E1F2E8;fill-rule:nonzero}
   ]]>
  </style>
   <clipPath id="id0">
    <path d="M-0 0l2351.72 0 0 2061.05 -2351.72 0 0 -2061.05z"/>
   </clipPath>
       <mask id="id1">
  <linearGradient id="id2" gradientUnits="userSpaceOnUse" x1="791.84" y1="176.69" x2="209.15" y2="142.13">
   <stop offset="0" style="stop-opacity:1; stop-color:white"/>
   <stop offset="0.368627" style="stop-opacity:0.501961; stop-color:white"/>
   <stop offset="1" style="stop-opacity:0; stop-color:white"/>
  </linearGradient>
        <rect style="fill:url(#id2)" x="-482.45" y="-499.93" width="1311.62" height="1311.62"/>
       </mask>
       <mask id="id3">
  <linearGradient id="id4" gradientUnits="userSpaceOnUse" x1="791.84" y1="176.69" x2="209.15" y2="142.13">
   <stop offset="0" style="stop-opacity:1; stop-color:white"/>
   <stop offset="0.368627" style="stop-opacity:0.501961; stop-color:white"/>
   <stop offset="1" style="stop-opacity:0; stop-color:white"/>
  </linearGradient>
        <rect style="fill:url(#id4)" x="-320.31" y="-337.79" width="987.34" height="987.34"/>
       </mask>
       <mask id="id5">
  <linearGradient id="id6" gradientUnits="userSpaceOnUse" x1="1491.45" y1="176.69" x2="2074.14" y2="142.13">
   <stop offset="0" style="stop-opacity:1; stop-color:white"/>
   <stop offset="0.368627" style="stop-opacity:0.501961; stop-color:white"/>
   <stop offset="1" style="stop-opacity:0; stop-color:white"/>
  </linearGradient>
        <rect style="fill:url(#id6)" x="1454.12" y="-499.93" width="1311.62" height="1311.62"/>
       </mask>
       <mask id="id7">
  <linearGradient id="id8" gradientUnits="userSpaceOnUse" x1="1491.45" y1="176.69" x2="2074.14" y2="142.13">
   <stop offset="0" style="stop-opacity:1; stop-color:white"/>
   <stop offset="0.368627" style="stop-opacity:0.501961; stop-color:white"/>
   <stop offset="1" style="stop-opacity:0; stop-color:white"/>
  </linearGradient>
        <rect style="fill:url(#id8)" x="1616.27" y="-337.79" width="987.34" height="987.34"/>
       </mask>
       <mask id="id9">
  <linearGradient id="id10" gradientUnits="userSpaceOnUse" x1="791.84" y1="1770.16" x2="209.15" y2="1735.59">
   <stop offset="0" style="stop-opacity:1; stop-color:white"/>
   <stop offset="0.368627" style="stop-opacity:0.501961; stop-color:white"/>
   <stop offset="1" style="stop-opacity:0; stop-color:white"/>
  </linearGradient>
        <rect style="fill:url(#id10)" x="-482.45" y="1093.53" width="1311.62" height="1311.62"/>
       </mask>
       <mask id="id11">
  <linearGradient id="id12" gradientUnits="userSpaceOnUse" x1="791.84" y1="1770.16" x2="209.15" y2="1735.59">
   <stop offset="0" style="stop-opacity:1; stop-color:white"/>
   <stop offset="0.368627" style="stop-opacity:0.501961; stop-color:white"/>
   <stop offset="1" style="stop-opacity:0; stop-color:white"/>
  </linearGradient>
        <rect style="fill:url(#id12)" x="-320.31" y="1255.67" width="987.34" height="987.33"/>
       </mask>
       <mask id="id13">
  <linearGradient id="id14" gradientUnits="userSpaceOnUse" x1="1491.45" y1="1770.16" x2="2074.14" y2="1735.59">
   <stop offset="0" style="stop-opacity:1; stop-color:white"/>
   <stop offset="0.368627" style="stop-opacity:0.501961; stop-color:white"/>
   <stop offset="1" style="stop-opacity:0; stop-color:white"/>
  </linearGradient>
        <rect style="fill:url(#id14)" x="1454.12" y="1093.53" width="1311.62" height="1311.62"/>
       </mask>
       <mask id="id15">
  <linearGradient id="id16" gradientUnits="userSpaceOnUse" x1="1491.45" y1="1770.16" x2="2074.14" y2="1735.59">
   <stop offset="0" style="stop-opacity:1; stop-color:white"/>
   <stop offset="0.368627" style="stop-opacity:0.501961; stop-color:white"/>
   <stop offset="1" style="stop-opacity:0; stop-color:white"/>
  </linearGradient>
        <rect style="fill:url(#id16)" x="1616.27" y="1255.67" width="987.34" height="987.33"/>
       </mask>
       <mask id="id17">
  <linearGradient id="id18" gradientUnits="userSpaceOnUse" x1="1145.56" y1="1884.82" x2="1180.12" y2="2467.51">
   <stop offset="0" style="stop-opacity:1; stop-color:white"/>
   <stop offset="0.368627" style="stop-opacity:0.501961; stop-color:white"/>
   <stop offset="1" style="stop-opacity:0; stop-color:white"/>
  </linearGradient>
        <rect style="fill:url(#id18)" x="510.56" y="1847.49" width="1311.62" height="1311.62"/>
       </mask>
       <mask id="id19">
  <linearGradient id="id20" gradientUnits="userSpaceOnUse" x1="1145.56" y1="1884.82" x2="1180.12" y2="2467.51">
   <stop offset="0" style="stop-opacity:1; stop-color:white"/>
   <stop offset="0.368627" style="stop-opacity:0.501961; stop-color:white"/>
   <stop offset="1" style="stop-opacity:0; stop-color:white"/>
  </linearGradient>
        <rect style="fill:url(#id20)" x="672.7" y="2009.63" width="987.33" height="987.34"/>
       </mask>
       <mask id="id21">
  <linearGradient id="id22" gradientUnits="userSpaceOnUse" x1="1145.56" y1="55.22" x2="1180.12" y2="-527.47">
   <stop offset="0" style="stop-opacity:1; stop-color:white"/>
   <stop offset="0.368627" style="stop-opacity:0.501961; stop-color:white"/>
   <stop offset="1" style="stop-opacity:0; stop-color:white"/>
  </linearGradient>
        <rect style="fill:url(#id22)" x="510.56" y="-1219.07" width="1311.62" height="1311.62"/>
       </mask>
       <mask id="id23">
  <linearGradient id="id24" gradientUnits="userSpaceOnUse" x1="1145.56" y1="55.22" x2="1180.12" y2="-527.47">
   <stop offset="0" style="stop-opacity:1; stop-color:white"/>
   <stop offset="0.368627" style="stop-opacity:0.501961; stop-color:white"/>
   <stop offset="1" style="stop-opacity:0; stop-color:white"/>
  </linearGradient>
        <rect style="fill:url(#id24)" x="672.7" y="-1056.93" width="987.33" height="987.34"/>
       </mask>
 </defs>
 <g id="Layer_x0020_1">
  <metadata id="CorelCorpID_0Corel-Layer"/>
  <g>
  </g>
  <g style="clip-path:url(#id0)">
   <g>
    <g id="_105553155096288">
     <g>
      <path class="fil0" style="mask:url(#id1)" d="M-440.16 53.42l511.05 -511.05c28.2,-28.2 65.34,-42.3 102.46,-42.3 37.12,0 74.26,14.1 102.46,42.3l511.06 511.05c28.2,28.2 42.3,65.34 42.3,102.46 0,37.12 -14.1,74.26 -42.3,102.46l-511.05 511.05c-28.2,28.2 -65.34,42.3 -102.46,42.3 -37.12,0 -74.26,-14.1 -102.46,-42.3l-511.05 -511.05c-28.2,-28.2 -42.3,-65.34 -42.3,-102.46 0,-37.12 14.1,-74.26 42.3,-102.46zm548.3 -453.63l-490.88 490.88c-17.91,17.91 -26.87,41.55 -26.87,65.21 0,23.66 8.96,47.3 26.87,65.21l490.88 490.88c17.91,17.91 41.55,26.87 65.21,26.87 23.66,0 47.3,-8.96 65.21,-26.87l490.88 -490.88c17.91,-17.91 26.87,-41.55 26.87,-65.21 0,-23.66 -8.96,-47.3 -26.87,-65.21l-490.88 -490.88c-17.91,-17.91 -41.55,-26.87 -65.21,-26.87 -23.66,0 -47.3,8.96 -65.21,26.87z"/>
      <path class="fil0" style="mask:url(#id3)" d="M-292.11 87.53l397.12 -397.12c18.8,-18.8 43.58,-28.2 68.35,-28.2 24.77,0 49.55,9.4 68.35,28.2l397.12 397.12c18.8,18.8 28.2,43.58 28.2,68.35 0,24.77 -9.4,49.55 -28.2,68.35l-397.12 397.12c-18.8,18.8 -43.58,28.2 -68.35,28.2 -24.77,0 -49.55,-9.4 -68.35,-28.2l-397.12 -397.12c-18.8,-18.8 -28.2,-43.58 -28.2,-68.35 0,-24.77 9.4,-49.55 28.2,-68.35zm401.44 -392.8l-397.12 397.12c-17.6,17.6 -26.41,40.81 -26.41,64.03 0,23.21 8.8,46.42 26.41,64.03l397.12 397.12c17.6,17.6 40.81,26.41 64.03,26.41 23.21,0 46.42,-8.8 64.03,-26.41l397.12 -397.12c17.6,-17.6 26.41,-40.81 26.41,-64.03 0,-23.21 -8.8,-46.42 -26.41,-64.03l-397.12 -397.12c-17.6,-17.6 -40.81,-26.41 -64.03,-26.41 -23.21,0 -46.42,8.8 -64.03,26.41z"/>
     </g>
     <g>
      <path class="fil0" style="mask:url(#id5)" d="M2723.45 53.42l-511.05 -511.05c-28.2,-28.2 -65.34,-42.3 -102.46,-42.3 -37.12,0 -74.26,14.1 -102.46,42.3l-511.06 511.05c-28.2,28.2 -42.3,65.34 -42.3,102.46 0,37.12 14.1,74.26 42.3,102.46l511.05 511.05c28.2,28.2 65.34,42.3 102.46,42.3 37.12,0 74.26,-14.1 102.46,-42.3l511.05 -511.05c28.2,-28.2 42.3,-65.34 42.3,-102.46 0,-37.12 -14.1,-74.26 -42.3,-102.46zm-548.3 -453.63l490.88 490.88c17.91,17.91 26.87,41.55 26.87,65.21 0,23.66 -8.96,47.3 -26.87,65.21l-490.88 490.88c-17.91,17.91 -41.55,26.87 -65.21,26.87 -23.66,0 -47.3,-8.96 -65.21,-26.87l-490.88 -490.88c-17.91,-17.91 -26.87,-41.55 -26.87,-65.21 0,-23.66 8.96,-47.3 26.87,-65.21l490.88 -490.88c17.91,-17.91 41.55,-26.87 65.21,-26.87 23.66,0 47.3,8.96 65.21,26.87z"/>
      <path class="fil0" style="mask:url(#id7)" d="M2575.4 87.53l-397.12 -397.12c-18.8,-18.8 -43.58,-28.2 -68.35,-28.2 -24.77,0 -49.55,9.4 -68.35,28.2l-397.12 397.12c-18.8,18.8 -28.2,43.58 -28.2,68.35 0,24.77 9.4,49.55 28.2,68.35l397.12 397.12c18.8,18.8 43.58,28.2 68.35,28.2 24.77,0 49.55,-9.4 68.35,-28.2l397.12 -397.12c18.8,-18.8 28.2,-43.58 28.2,-68.35 0,-24.77 -9.4,-49.55 -28.2,-68.35zm-401.44 -392.8l397.12 397.12c17.6,17.6 26.41,40.81 26.41,64.03 0,23.21 -8.8,46.42 -26.41,64.03l-397.12 397.12c-17.6,17.6 -40.81,26.41 -64.03,26.41 -23.21,0 -46.42,-8.8 -64.03,-26.41l-397.12 -397.12c-17.6,-17.6 -26.41,-40.81 -26.41,-64.03 0,-23.21 8.8,-46.42 26.41,-64.03l397.12 -397.12c17.6,-17.6 40.81,-26.41 64.03,-26.41 23.21,0 46.42,8.8 64.03,26.41z"/>
     </g>
     <g>
      <path class="fil0" style="mask:url(#id9)" d="M-440.16 1646.88l511.05 -511.05c28.2,-28.2 65.34,-42.3 102.46,-42.3 37.12,0 74.26,14.1 102.46,42.3l511.06 511.05c28.2,28.2 42.3,65.34 42.3,102.46 0,37.12 -14.1,74.26 -42.3,102.46l-511.05 511.05c-28.2,28.2 -65.34,42.3 -102.46,42.3 -37.12,0 -74.26,-14.1 -102.46,-42.3l-511.05 -511.05c-28.2,-28.2 -42.3,-65.34 -42.3,-102.46 0,-37.12 14.1,-74.26 42.3,-102.46zm548.3 -453.63l-490.88 490.88c-17.91,17.91 -26.87,41.55 -26.87,65.21 0,23.66 8.96,47.3 26.87,65.21l490.88 490.88c17.91,17.91 41.55,26.87 65.21,26.87 23.66,0 47.3,-8.96 65.21,-26.87l490.88 -490.88c17.91,-17.91 26.87,-41.55 26.87,-65.21 0,-23.66 -8.96,-47.3 -26.87,-65.21l-490.88 -490.88c-17.91,-17.91 -41.55,-26.87 -65.21,-26.87 -23.66,0 -47.3,8.96 -65.21,26.87z"/>
      <path class="fil0" style="mask:url(#id11)" d="M-292.11 1680.99l397.12 -397.12c18.8,-18.8 43.58,-28.2 68.35,-28.2 24.77,0 49.55,9.4 68.35,28.2l397.12 397.12c18.8,18.8 28.2,43.58 28.2,68.35 0,24.77 -9.4,49.55 -28.2,68.35l-397.12 397.12c-18.8,18.8 -43.58,28.2 -68.35,28.2 -24.77,0 -49.55,-9.4 -68.35,-28.2l-397.12 -397.12c-18.8,-18.8 -28.2,-43.58 -28.2,-68.35 0,-24.77 9.4,-49.55 28.2,-68.35zm401.44 -392.8l-397.12 397.12c-17.6,17.6 -26.41,40.81 -26.41,64.03 0,23.21 8.8,46.42 26.41,64.03l397.12 397.12c17.6,17.6 40.81,26.41 64.03,26.41 23.21,0 46.42,-8.8 64.03,-26.41l397.12 -397.12c17.6,-17.6 26.41,-40.81 26.41,-64.03 0,-23.21 -8.8,-46.42 -26.41,-64.03l-397.12 -397.12c-17.6,-17.6 -40.81,-26.41 -64.03,-26.41 -23.21,0 -46.42,8.8 -64.03,26.41z"/>
     </g>
     <g>
      <path class="fil0" style="mask:url(#id13)" d="M2723.45 1646.88l-511.05 -511.05c-28.2,-28.2 -65.34,-42.3 -102.46,-42.3 -37.12,0 -74.26,14.1 -102.46,42.3l-511.06 511.05c-28.2,28.2 -42.3,65.34 -42.3,102.46 0,37.12 14.1,74.26 42.3,102.46l511.05 511.05c28.2,28.2 65.34,42.3 102.46,42.3 37.12,0 74.26,-14.1 102.46,-42.3l511.05 -511.05c28.2,-28.2 42.3,-65.34 42.3,-102.46 0,-37.12 -14.1,-74.26 -42.3,-102.46zm-548.3 -453.63l490.88 490.88c17.91,17.91 26.87,41.55 26.87,65.21 0,23.66 -8.96,47.3 -26.87,65.21l-490.88 490.88c-17.91,17.91 -41.55,26.87 -65.21,26.87 -23.66,0 -47.3,-8.96 -65.21,-26.87l-490.88 -490.88c-17.91,-17.91 -26.87,-41.55 -26.87,-65.21 0,-23.66 8.96,-47.3 26.87,-65.21l490.88 -490.88c17.91,-17.91 41.55,-26.87 65.21,-26.87 23.66,0 47.3,8.96 65.21,26.87z"/>
      <path class="fil0" style="mask:url(#id15)" d="M2575.4 1680.99l-397.12 -397.12c-18.8,-18.8 -43.58,-28.2 -68.35,-28.2 -24.77,0 -49.55,9.4 -68.35,28.2l-397.12 397.12c-18.8,18.8 -28.2,43.58 -28.2,68.35 0,24.77 9.4,49.55 28.2,68.35l397.12 397.12c18.8,18.8 43.58,28.2 68.35,28.2 24.77,0 49.55,-9.4 68.35,-28.2l397.12 -397.12c18.8,-18.8 28.2,-43.58 28.2,-68.35 0,-24.77 -9.4,-49.55 -28.2,-68.35zm-401.44 -392.8l397.12 397.12c17.6,17.6 26.41,40.81 26.41,64.03 0,23.21 -8.8,46.42 -26.41,64.03l-397.12 397.12c-17.6,17.6 -40.81,26.41 -64.03,26.41 -23.21,0 -46.42,-8.8 -64.03,-26.41l-397.12 -397.12c-17.6,-17.6 -26.41,-40.81 -26.41,-64.03 0,-23.21 8.8,-46.42 26.41,-64.03l397.12 -397.12c17.6,-17.6 40.81,-26.41 64.03,-26.41 23.21,0 46.42,8.8 64.03,26.41z"/>
     </g>
     <g>
      <path class="fil0" style="mask:url(#id17)" d="M1268.83 3116.81l511.05 -511.05c28.2,-28.2 42.3,-65.34 42.3,-102.46 0,-37.12 -14.1,-74.26 -42.3,-102.46l-511.05 -511.06c-28.2,-28.2 -65.34,-42.3 -102.46,-42.3 -37.12,0 -74.26,14.1 -102.46,42.3l-511.05 511.05c-28.2,28.2 -42.3,65.34 -42.3,102.46 0,37.12 14.1,74.26 42.3,102.46l511.05 511.05c28.2,28.2 65.34,42.3 102.46,42.3 37.12,0 74.26,-14.1 102.46,-42.3zm453.63 -548.3l-490.88 490.88c-17.91,17.91 -41.55,26.87 -65.21,26.87 -23.66,0 -47.3,-8.96 -65.21,-26.87l-490.88 -490.88c-17.91,-17.91 -26.87,-41.55 -26.87,-65.21 0,-23.66 8.96,-47.3 26.87,-65.21l490.88 -490.88c17.91,-17.91 41.55,-26.87 65.21,-26.87 23.66,0 47.3,8.96 65.21,26.87l490.88 490.88c17.91,17.91 26.87,41.55 26.87,65.21 0,23.66 -8.96,47.3 -26.87,65.21z"/>
      <path class="fil0" style="mask:url(#id19)" d="M1234.72 2968.77l397.12 -397.12c18.8,-18.8 28.2,-43.58 28.2,-68.35 0,-24.77 -9.4,-49.55 -28.2,-68.35l-397.12 -397.12c-18.8,-18.8 -43.58,-28.2 -68.35,-28.2 -24.77,0 -49.55,9.4 -68.35,28.2l-397.12 397.12c-18.8,18.8 -28.2,43.58 -28.2,68.35 0,24.77 9.4,49.55 28.2,68.35l397.12 397.12c18.8,18.8 43.58,28.2 68.35,28.2 24.77,0 49.55,-9.4 68.35,-28.2zm392.8 -401.44l-397.12 397.12c-17.6,17.6 -40.81,26.41 -64.03,26.41 -23.21,0 -46.42,-8.8 -64.03,-26.41l-397.12 -397.12c-17.6,-17.6 -26.41,-40.81 -26.41,-64.03 0,-23.21 8.8,-46.42 26.41,-64.03l397.12 -397.12c17.6,-17.6 40.81,-26.41 64.03,-26.41 23.21,0 46.42,8.8 64.03,26.41l397.12 397.12c17.6,17.6 26.41,40.81 26.41,64.03 0,23.21 -8.8,46.42 -26.41,64.03z"/>
     </g>
     <g>
      <path class="fil0" style="mask:url(#id21)" d="M1268.83 -1176.78l511.05 511.05c28.2,28.2 42.3,65.34 42.3,102.46 0,37.12 -14.1,74.26 -42.3,102.46l-511.05 511.06c-28.2,28.2 -65.34,42.3 -102.46,42.3 -37.12,0 -74.26,-14.1 -102.46,-42.3l-511.05 -511.05c-28.2,-28.2 -42.3,-65.34 -42.3,-102.46 0,-37.12 14.1,-74.26 42.3,-102.46l511.05 -511.05c28.2,-28.2 65.34,-42.3 102.46,-42.3 37.12,0 74.26,14.1 102.46,42.3zm453.63 548.3l-490.88 -490.88c-17.91,-17.91 -41.55,-26.87 -65.21,-26.87 -23.66,0 -47.3,8.96 -65.21,26.87l-490.88 490.88c-17.91,17.91 -26.87,41.55 -26.87,65.21 0,23.66 8.96,47.3 26.87,65.21l490.88 490.88c17.91,17.91 41.55,26.87 65.21,26.87 23.66,0 47.3,-8.96 65.21,-26.87l490.88 -490.88c17.91,-17.91 26.87,-41.55 26.87,-65.21 0,-23.66 -8.96,-47.3 -26.87,-65.21z"/>
      <path class="fil0" style="mask:url(#id23)" d="M1234.72 -1028.73l397.12 397.12c18.8,18.8 28.2,43.58 28.2,68.35 0,24.77 -9.4,49.55 -28.2,68.35l-397.12 397.12c-18.8,18.8 -43.58,28.2 -68.35,28.2 -24.77,0 -49.55,-9.4 -68.35,-28.2l-397.12 -397.12c-18.8,-18.8 -28.2,-43.58 -28.2,-68.35 0,-24.77 9.4,-49.55 28.2,-68.35l397.12 -397.12c18.8,-18.8 43.58,-28.2 68.35,-28.2 24.77,0 49.55,9.4 68.35,28.2zm392.8 401.44l-397.12 -397.12c-17.6,-17.6 -40.81,-26.41 -64.03,-26.41 -23.21,0 -46.42,8.8 -64.03,26.41l-397.12 397.12c-17.6,17.6 -26.41,40.81 -26.41,64.03 0,23.21 8.8,46.42 26.41,64.03l397.12 397.12c17.6,17.6 40.81,26.41 64.03,26.41 23.21,0 46.42,-8.8 64.03,-26.41l397.12 -397.12c17.6,-17.6 26.41,-40.81 26.41,-64.03 0,-23.21 -8.8,-46.42 -26.41,-64.03z"/>
     </g>
    </g>
    <path class="fil1" d="M533.78 844.35l511.05 -511.05c28.2,-28.2 65.34,-42.3 102.46,-42.3 37.12,0 74.26,14.1 102.46,42.29l511.06 511.05c28.2,28.2 42.3,65.34 42.3,102.46 0,37.12 -14.1,74.26 -42.3,102.46l-511.05 511.05c-28.2,28.2 -65.34,42.3 -102.46,42.3 -37.12,0 -74.26,-14.1 -102.46,-42.3l-511.05 -511.05c-28.2,-28.2 -42.3,-65.34 -42.3,-102.46 0,-37.12 14.1,-74.26 42.3,-102.46zm548.5 -451.97l-489.42 489.42c-17.86,17.86 -26.79,41.43 -26.79,65.02 0,23.59 8.93,47.16 26.79,65.01l489.41 489.42c17.86,17.86 41.43,26.79 65.02,26.79 23.59,0 47.16,-8.93 65.02,-26.79l489.42 -489.42c17.86,-17.86 26.79,-41.43 26.79,-65.01 0,-23.59 -8.93,-47.16 -26.79,-65.02l-489.42 -489.41c-17.86,-17.86 -41.43,-26.79 -65.02,-26.79 -23.59,0 -47.16,8.93 -65.02,26.79z"/>
    <rect class="fil2 str0" transform="matrix(0.541087 -5.41087E-001 0.541087 0.541087 484.803 946.812)" width="1224.36" height="1224.36" rx="153.05" ry="153.05"/>
   </g>
  </g>
  <polygon class="fil2" points="-0,0 2351.72,0 2351.72,2061.05 -0,2061.05 "/>
 </g>
</svg>
