<?xml version="1.0" encoding="UTF-8"?>
<!DOCTYPE svg PUBLIC "-//W3C//DTD SVG 1.1//EN" "http://www.w3.org/Graphics/SVG/1.1/DTD/svg11.dtd">
<!-- Creator: CorelDRAW -->
<svg xmlns="http://www.w3.org/2000/svg" xml:space="preserve" width="21.7912in" height="15.5881in" version="1.1" style="shape-rendering:geometricPrecision; text-rendering:geometricPrecision; image-rendering:optimizeQuality; fill-rule:evenodd; clip-rule:evenodd"
viewBox="0 0 8070.6 5773.22"
 xmlns:xlink="http://www.w3.org/1999/xlink"
 xmlns:xodm="http://www.corel.com/coreldraw/odm/2003">
 <defs>
  <style type="text/css">
   <![CDATA[
    .fil0 {fill:#E1F2E8;fill-rule:nonzero}
   ]]>
  </style>
      <mask id="id0">
  <linearGradient id="id1" gradientUnits="userSpaceOnUse" x1="5048.83" y1="4538.24" x2="1374.41" y2="4442.61">
   <stop offset="0" style="stop-opacity:1; stop-color:white"/>
   <stop offset="0.368627" style="stop-opacity:0.501961; stop-color:white"/>
   <stop offset="1" style="stop-opacity:0; stop-color:white"/>
  </linearGradient>
       <rect style="fill:url(#id1)" width="2606.56" height="2606.56"/>
      </mask>
      <mask id="id2">
  <linearGradient id="id3" gradientUnits="userSpaceOnUse" x1="5048.83" y1="4538.24" x2="1374.41" y2="4442.61">
   <stop offset="0" style="stop-opacity:1; stop-color:white"/>
   <stop offset="0.368627" style="stop-opacity:0.501961; stop-color:white"/>
   <stop offset="1" style="stop-opacity:0; stop-color:white"/>
  </linearGradient>
       <rect style="fill:url(#id3)" x="322.22" y="322.22" width="1962.11" height="1962.11"/>
      </mask>
      <mask id="id4">
  <linearGradient id="id5" gradientUnits="userSpaceOnUse" x1="5048.83" y1="4538.24" x2="1374.41" y2="4442.61">
   <stop offset="0" style="stop-opacity:1; stop-color:white"/>
   <stop offset="0.368627" style="stop-opacity:0.501961; stop-color:white"/>
   <stop offset="1" style="stop-opacity:0; stop-color:white"/>
  </linearGradient>
       <rect style="fill:url(#id5)" y="3166.66" width="2606.56" height="2606.56"/>
      </mask>
      <mask id="id6">
  <linearGradient id="id7" gradientUnits="userSpaceOnUse" x1="5048.83" y1="4538.24" x2="1374.41" y2="4442.61">
   <stop offset="0" style="stop-opacity:1; stop-color:white"/>
   <stop offset="0.368627" style="stop-opacity:0.501961; stop-color:white"/>
   <stop offset="1" style="stop-opacity:0; stop-color:white"/>
  </linearGradient>
       <rect style="fill:url(#id7)" x="322.22" y="3488.89" width="1962.11" height="1962.11"/>
      </mask>
      <mask id="id8">
  <linearGradient id="id9" gradientUnits="userSpaceOnUse" x1="2958.6" y1="4174.72" x2="6696.19" y2="4442.61">
   <stop offset="0" style="stop-opacity:1; stop-color:white"/>
   <stop offset="0.368627" style="stop-opacity:0.501961; stop-color:white"/>
   <stop offset="1" style="stop-opacity:0; stop-color:white"/>
  </linearGradient>
       <rect style="fill:url(#id9)" x="5464.04" width="2606.56" height="2606.56"/>
      </mask>
      <mask id="id10">
  <linearGradient id="id11" gradientUnits="userSpaceOnUse" x1="2958.6" y1="4174.72" x2="6696.19" y2="4442.61">
   <stop offset="0" style="stop-opacity:1; stop-color:white"/>
   <stop offset="0.368627" style="stop-opacity:0.501961; stop-color:white"/>
   <stop offset="1" style="stop-opacity:0; stop-color:white"/>
  </linearGradient>
       <rect style="fill:url(#id11)" x="5786.26" y="322.22" width="1962.11" height="1962.11"/>
      </mask>
      <mask id="id12">
  <linearGradient id="id13" gradientUnits="userSpaceOnUse" x1="2958.6" y1="4174.72" x2="6696.19" y2="4442.61">
   <stop offset="0" style="stop-opacity:1; stop-color:white"/>
   <stop offset="0.368627" style="stop-opacity:0.501961; stop-color:white"/>
   <stop offset="1" style="stop-opacity:0; stop-color:white"/>
  </linearGradient>
       <rect style="fill:url(#id13)" x="5464.04" y="3166.66" width="2606.56" height="2606.56"/>
      </mask>
      <mask id="id14">
  <linearGradient id="id15" gradientUnits="userSpaceOnUse" x1="2958.6" y1="4174.72" x2="6696.19" y2="4442.61">
   <stop offset="0" style="stop-opacity:1; stop-color:white"/>
   <stop offset="0.368627" style="stop-opacity:0.501961; stop-color:white"/>
   <stop offset="1" style="stop-opacity:0; stop-color:white"/>
  </linearGradient>
       <rect style="fill:url(#id15)" x="5786.26" y="3488.89" width="1962.11" height="1962.11"/>
      </mask>
 </defs>
 <g id="Layer_x0020_1">
  <metadata id="CorelCorpID_0Corel-Layer"/>
  <g id="_105553155686752">
   <g>
    <g>
     <path class="fil0" style="mask:url(#id0)" d="M84.05 1099.66l1015.61 -1015.6c56.04,-56.04 129.84,-84.06 203.62,-84.06 73.77,0 147.58,28.02 203.61,84.05l1015.61 1015.61c56.04,56.03 84.06,129.85 84.06,203.62 0,73.77 -28.02,147.58 -84.06,203.62l-1015.61 1015.6c-56.03,56.04 -129.85,84.06 -203.61,84.06 -73.77,0 -147.58,-28.02 -203.62,-84.06l-1015.61 -1015.6c-56.03,-56.04 -84.05,-129.85 -84.05,-203.62 0,-73.77 28.02,-147.58 84.05,-203.62zm1089.64 -901.49l-975.51 975.51c-35.6,35.6 -53.39,82.58 -53.39,129.59 0,47.02 17.8,93.99 53.39,129.59l975.51 975.51c35.6,35.6 82.58,53.39 129.59,53.39 47.01,0 93.99,-17.8 129.59,-53.39l975.51 -975.51c35.6,-35.6 53.39,-82.58 53.39,-129.59 0,-47.02 -17.8,-94 -53.39,-129.59l-975.51 -975.51c-35.6,-35.6 -82.58,-53.39 -129.59,-53.39 -47.02,0 -94,17.8 -129.59,53.39z"/>
     <path class="fil0" style="mask:url(#id2)" d="M378.26 1167.45l789.19 -789.19c37.36,-37.36 86.6,-56.04 135.83,-56.04 49.23,0 98.47,18.68 135.83,56.04l789.19 789.19c37.36,37.36 56.04,86.6 56.04,135.83 0,49.23 -18.68,98.47 -56.04,135.83l-789.19 789.19c-37.36,37.36 -86.6,56.04 -135.83,56.04 -49.23,0 -98.47,-18.68 -135.83,-56.04l-789.19 -789.19c-37.36,-37.36 -56.04,-86.6 -56.04,-135.83 0,-49.23 18.68,-98.47 56.04,-135.83zm797.78 -780.61l-789.19 789.19c-34.98,34.98 -52.48,81.11 -52.48,127.24 0,46.13 17.49,92.25 52.48,127.24l789.19 789.2c34.98,34.98 81.11,52.48 127.24,52.48 46.13,0 92.25,-17.49 127.24,-52.48l789.19 -789.19c34.98,-34.98 52.48,-81.11 52.48,-127.24 0,-46.13 -17.49,-92.26 -52.48,-127.24l-789.19 -789.19c-34.98,-34.98 -81.11,-52.48 -127.24,-52.48 -46.13,0 -92.26,17.49 -127.24,52.48z"/>
    </g>
    <g>
     <path class="fil0" style="mask:url(#id4)" d="M84.05 4266.33l1015.61 -1015.6c56.04,-56.04 129.84,-84.06 203.62,-84.06 73.77,0 147.58,28.02 203.61,84.05l1015.61 1015.61c56.04,56.03 84.06,129.85 84.06,203.62 0,73.77 -28.02,147.58 -84.06,203.62l-1015.61 1015.6c-56.03,56.04 -129.85,84.06 -203.61,84.06 -73.77,0 -147.58,-28.02 -203.62,-84.06l-1015.61 -1015.6c-56.03,-56.04 -84.05,-129.85 -84.05,-203.62 0,-73.77 28.02,-147.58 84.05,-203.62zm1089.64 -901.49l-975.51 975.51c-35.6,35.6 -53.39,82.58 -53.39,129.59 0,47.02 17.8,93.99 53.39,129.59l975.51 975.51c35.6,35.6 82.58,53.39 129.59,53.39 47.01,0 93.99,-17.8 129.59,-53.39l975.51 -975.51c35.6,-35.6 53.39,-82.58 53.39,-129.59 0,-47.02 -17.8,-94 -53.39,-129.59l-975.51 -975.51c-35.6,-35.6 -82.58,-53.39 -129.59,-53.39 -47.02,0 -94,17.8 -129.59,53.39z"/>
     <path class="fil0" style="mask:url(#id6)" d="M378.26 4334.12l789.19 -789.19c37.36,-37.36 86.6,-56.04 135.83,-56.04 49.23,0 98.47,18.68 135.83,56.04l789.19 789.19c37.36,37.36 56.04,86.6 56.04,135.83 0,49.23 -18.68,98.47 -56.04,135.83l-789.19 789.19c-37.36,37.36 -86.6,56.04 -135.83,56.04 -49.23,0 -98.47,-18.68 -135.83,-56.04l-789.19 -789.19c-37.36,-37.36 -56.04,-86.6 -56.04,-135.83 0,-49.23 18.68,-98.47 56.04,-135.83zm797.78 -780.61l-789.19 789.19c-34.98,34.98 -52.48,81.11 -52.48,127.24 0,46.13 17.49,92.25 52.48,127.24l789.19 789.2c34.98,34.98 81.11,52.48 127.24,52.48 46.13,0 92.25,-17.49 127.24,-52.48l789.19 -789.19c34.98,-34.98 52.48,-81.11 52.48,-127.24 0,-46.13 -17.49,-92.26 -52.48,-127.24l-789.19 -789.19c-34.98,-34.98 -81.11,-52.48 -127.24,-52.48 -46.13,0 -92.26,17.49 -127.24,52.48z"/>
    </g>
   </g>
   <g>
    <g>
     <path class="fil0" style="mask:url(#id8)" d="M7986.55 1099.66l-1015.61 -1015.6c-56.04,-56.04 -129.84,-84.06 -203.62,-84.06 -73.77,0 -147.58,28.02 -203.61,84.05l-1015.61 1015.61c-56.04,56.03 -84.06,129.85 -84.06,203.62 0,73.77 28.02,147.58 84.06,203.62l1015.61 1015.6c56.03,56.04 129.85,84.06 203.61,84.06 73.77,0 147.58,-28.02 203.62,-84.06l1015.61 -1015.6c56.03,-56.04 84.05,-129.85 84.05,-203.62 0,-73.77 -28.02,-147.58 -84.05,-203.62zm-1089.64 -901.49l975.51 975.51c35.6,35.6 53.39,82.58 53.39,129.59 0,47.02 -17.8,93.99 -53.39,129.59l-975.51 975.51c-35.6,35.6 -82.58,53.39 -129.59,53.39 -47.01,0 -93.99,-17.8 -129.59,-53.39l-975.51 -975.51c-35.6,-35.6 -53.39,-82.58 -53.39,-129.59 0,-47.02 17.8,-94 53.39,-129.59l975.51 -975.51c35.6,-35.6 82.58,-53.39 129.59,-53.39 47.02,0 94,17.8 129.59,53.39z"/>
     <path class="fil0" style="mask:url(#id10)" d="M7692.34 1167.45l-789.19 -789.19c-37.36,-37.36 -86.6,-56.04 -135.83,-56.04 -49.23,0 -98.47,18.68 -135.83,56.04l-789.19 789.19c-37.36,37.36 -56.04,86.6 -56.04,135.83 0,49.23 18.68,98.47 56.04,135.83l789.19 789.19c37.36,37.36 86.6,56.04 135.83,56.04 49.23,0 98.47,-18.68 135.83,-56.04l789.19 -789.19c37.36,-37.36 56.04,-86.6 56.04,-135.83 0,-49.23 -18.68,-98.47 -56.04,-135.83zm-797.78 -780.61l789.19 789.19c34.98,34.98 52.48,81.11 52.48,127.24 0,46.13 -17.49,92.25 -52.48,127.24l-789.19 789.2c-34.98,34.98 -81.11,52.48 -127.24,52.48 -46.13,0 -92.25,-17.49 -127.24,-52.48l-789.19 -789.19c-34.98,-34.98 -52.48,-81.11 -52.48,-127.24 0,-46.13 17.49,-92.26 52.48,-127.24l789.19 -789.19c34.98,-34.98 81.11,-52.48 127.24,-52.48 46.13,0 92.26,17.49 127.24,52.48z"/>
    </g>
    <g>
     <path class="fil0" style="mask:url(#id12)" d="M7986.55 4266.33l-1015.61 -1015.6c-56.04,-56.04 -129.84,-84.06 -203.62,-84.06 -73.77,0 -147.58,28.02 -203.61,84.05l-1015.61 1015.61c-56.04,56.03 -84.06,129.85 -84.06,203.62 0,73.77 28.02,147.58 84.06,203.62l1015.61 1015.6c56.03,56.04 129.85,84.06 203.61,84.06 73.77,0 147.58,-28.02 203.62,-84.06l1015.61 -1015.6c56.03,-56.04 84.05,-129.85 84.05,-203.62 0,-73.77 -28.02,-147.58 -84.05,-203.62zm-1089.64 -901.49l975.51 975.51c35.6,35.6 53.39,82.58 53.39,129.59 0,47.02 -17.8,93.99 -53.39,129.59l-975.51 975.51c-35.6,35.6 -82.58,53.39 -129.59,53.39 -47.01,0 -93.99,-17.8 -129.59,-53.39l-975.51 -975.51c-35.6,-35.6 -53.39,-82.58 -53.39,-129.59 0,-47.02 17.8,-94 53.39,-129.59l975.51 -975.51c35.6,-35.6 82.58,-53.39 129.59,-53.39 47.02,0 94,17.8 129.59,53.39z"/>
     <path class="fil0" style="mask:url(#id14)" d="M7692.34 4334.12l-789.19 -789.19c-37.36,-37.36 -86.6,-56.04 -135.83,-56.04 -49.23,0 -98.47,18.68 -135.83,56.04l-789.19 789.19c-37.36,37.36 -56.04,86.6 -56.04,135.83 0,49.23 18.68,98.47 56.04,135.83l789.19 789.19c37.36,37.36 86.6,56.04 135.83,56.04 49.23,0 98.47,-18.68 135.83,-56.04l789.19 -789.19c37.36,-37.36 56.04,-86.6 56.04,-135.83 0,-49.23 -18.68,-98.47 -56.04,-135.83zm-797.78 -780.61l789.19 789.19c34.98,34.98 52.48,81.11 52.48,127.24 0,46.13 -17.49,92.25 -52.48,127.24l-789.19 789.2c-34.98,34.98 -81.11,52.48 -127.24,52.48 -46.13,0 -92.25,-17.49 -127.24,-52.48l-789.19 -789.19c-34.98,-34.98 -52.48,-81.11 -52.48,-127.24 0,-46.13 17.49,-92.26 52.48,-127.24l789.19 -789.19c34.98,-34.98 81.11,-52.48 127.24,-52.48 46.13,0 92.26,17.49 127.24,52.48z"/>
    </g>
   </g>
  </g>
 </g>
</svg>
