<?xml version="1.0" encoding="UTF-8"?>
<!DOCTYPE svg PUBLIC "-//W3C//DTD SVG 1.1//EN" "http://www.w3.org/Graphics/SVG/1.1/DTD/svg11.dtd">
<!-- Creator: CorelDRAW -->
<svg xmlns="http://www.w3.org/2000/svg" xml:space="preserve" width="1.59451in" height="1.59451in" version="1.1" style="shape-rendering:geometricPrecision; text-rendering:geometricPrecision; image-rendering:optimizeQuality; fill-rule:evenodd; clip-rule:evenodd"
viewBox="0 0 32.45 32.45"
 xmlns:xlink="http://www.w3.org/1999/xlink"
 xmlns:xodm="http://www.corel.com/coreldraw/odm/2003">
 <defs>
  <style type="text/css">
   <![CDATA[
    .fil2 {fill:black}
    .fil15 {fill:#2BCE6C}
    .fil5 {fill:#2CC268}
    .fil12 {fill:#32B566}
    .fil3 {fill:#33DC76}
    .fil8 {fill:#33E57A}
    .fil10 {fill:#33E67A}
    .fil11 {fill:#35D775}
    .fil14 {fill:#36AB65}
    .fil16 {fill:#36BD6C}
    .fil13 {fill:#37975D}
    .fil4 {fill:#3A9960}
    .fil7 {fill:#53F19C}
    .fil6 {fill:#7CFFB0}
    .fil9 {fill:#FBFFD3}
    .fil1 {fill:white}
    .fil0 {fill:white}
    .fil22 {fill:#2CC268;fill-rule:nonzero}
    .fil18 {fill:#32B566;fill-rule:nonzero}
    .fil17 {fill:#33DC76;fill-rule:nonzero}
    .fil21 {fill:#37975D;fill-rule:nonzero}
    .fil20 {fill:#3A9960;fill-rule:nonzero}
    .fil19 {fill:#53F19C;fill-rule:nonzero}
   ]]>
  </style>
 </defs>
 <g id="Layer_x0020_1">
  <metadata id="CorelCorpID_0Corel-Layer"/>
  <circle class="fil0" transform="matrix(-7.52328E-001 0.00350389 -3.50389E-003 -7.52328E-001 16.2226 16.2226)" r="21.56"/>
  <g id="_105553158029280">
   <g id="_2463886574656">
    <g>
     <circle class="fil1" cx="16.1" cy="16.64" r="13.5"/>
     <circle class="fil2" cx="16.1" cy="16.64" r="11.18"/>
    </g>
    <g>
     <g>
      <polygon id="Vector_99" class="fil3" points="13.21,5.62 13.38,5.6 13.55,5.58 13.72,5.57 13.9,5.57 14.08,5.57 14.26,5.57 14.44,5.58 14.62,5.59 14.8,5.6 14.98,5.62 15.16,5.64 15.34,5.66 15.52,5.69 15.7,5.72 15.88,5.76 16.06,5.8 16.24,5.84 16.42,5.88 16.59,5.93 16.76,5.98 16.94,6.03 17.1,6.09 17.27,6.14 17.43,6.2 17.59,6.26 17.75,6.32 17.9,6.39 18.05,6.45 18.2,6.52 18.34,6.59 18.48,6.66 18.61,6.73 18.68,6.77 18.75,6.81 18.82,6.85 18.89,6.89 18.95,6.93 19.02,6.97 19.08,7.01 19.15,7.05 19.21,7.09 19.28,7.13 19.34,7.17 19.4,7.21 19.47,7.26 19.53,7.3 19.59,7.34 19.65,7.38 19.71,7.43 19.77,7.47 19.83,7.51 19.88,7.56 19.94,7.6 20,7.65 20.05,7.69 20.11,7.73 20.16,7.78 20.22,7.82 20.27,7.87 20.32,7.91 20.37,7.96 20.42,8 20.47,8.05 20.52,8.1 20.58,8.15 20.63,8.2 20.68,8.25 20.73,8.3 20.78,8.35 20.83,8.39 20.88,8.44 20.92,8.48 20.96,8.52 21,8.56 21.04,8.61 21.08,8.65 21.12,8.69 21.16,8.73 21.2,8.77 21.23,8.81 21.27,8.86 21.3,8.9 21.34,8.94 21.38,8.98 21.41,9.02 21.45,9.07 21.48,9.12 21.52,9.16 21.56,9.21 21.59,9.25 21.63,9.3 21.67,9.35 21.71,9.41 21.75,9.46 21.79,9.52 21.83,9.58 21.84,9.59 21.86,9.61 21.87,9.62 21.88,9.64 21.89,9.66 21.89,9.67 21.9,9.69 21.92,9.7 21.98,9.83 22.15,10.02 22.31,10.21 22.46,10.4 22.62,10.6 22.76,10.8 22.91,11 23.04,11.21 23.18,11.42 23.31,11.63 23.43,11.85 23.55,12.07 23.66,12.29 23.76,12.52 23.86,12.75 23.96,12.98 24.05,13.22 24.13,13.45 24.21,13.69 24.28,13.93 24.34,14.18 24.4,14.43 24.45,14.68 24.49,14.93 24.53,15.19 24.56,15.45 24.59,15.71 24.6,15.97 24.61,16.24 24.61,16.5 24.61,16.78 24.59,17.05 24.57,17.32 24.54,17.65 24.49,17.98 24.43,18.31 24.37,18.63 24.29,18.95 24.2,19.27 24.1,19.58 24,19.89 23.88,20.19 23.75,20.49 23.62,20.78 23.47,21.07 23.32,21.35 23.16,21.63 22.99,21.9 22.81,22.17 22.63,22.42 22.43,22.68 22.23,22.92 22.02,23.16 21.81,23.39 21.59,23.62 21.36,23.84 21.12,24.05 20.88,24.25 20.63,24.44 20.38,24.63 20.11,24.81 19.85,24.98 19.58,25.13 19.3,25.29 19.02,25.43 18.96,25.45 18.9,25.48 18.85,25.51 18.79,25.54 18.74,25.56 18.68,25.58 18.62,25.61 18.57,25.63 18.51,25.66 18.46,25.68 18.4,25.7 18.35,25.73 18.29,25.75 18.23,25.77 18.18,25.79 18.12,25.81 18.07,25.83 18.01,25.85 17.95,25.87 17.89,25.89 17.83,25.91 17.78,25.93 17.72,25.95 17.66,25.97 17.6,25.99 17.54,26.01 17.47,26.03 17.41,26.05 17.35,26.07 17.29,26.09 17.22,26.11 17.16,26.12 17.03,26.16 16.9,26.19 16.76,26.22 16.63,26.26 16.49,26.28 16.35,26.31 16.21,26.33 16.07,26.35 15.93,26.37 15.79,26.39 15.65,26.4 15.5,26.41 15.36,26.42 15.21,26.43 15.06,26.44 14.91,26.44 14.77,26.44 14.62,26.44 14.47,26.44 14.32,26.44 14.17,26.43 14.02,26.42 13.88,26.41 13.73,26.4 13.58,26.39 13.43,26.37 13.29,26.35 13.14,26.33 13,26.31 12.85,26.28 12.71,26.25 12.57,26.22 12.4,26.18 12.23,26.14 12.06,26.1 11.9,26.05 11.74,26.01 11.58,25.95 11.43,25.9 11.27,25.85 11.12,25.79 10.97,25.73 10.82,25.67 10.68,25.6 10.54,25.54 10.39,25.47 10.26,25.4 10.12,25.33 9.98,25.26 9.85,25.18 9.72,25.1 9.58,25.02 9.46,24.94 9.33,24.85 9.2,24.77 9.08,24.68 8.95,24.59 8.83,24.5 8.71,24.4 8.59,24.3 8.47,24.21 8.35,24.11 8.23,24 8.12,23.9 8.1,23.88 8.08,23.86 8.05,23.84 8.03,23.82 8.01,23.8 7.99,23.78 7.97,23.76 7.95,23.74 7.92,23.72 7.9,23.7 7.88,23.68 7.86,23.66 7.84,23.64 7.82,23.62 7.8,23.6 7.78,23.58 7.75,23.55 7.72,23.51 7.68,23.48 7.65,23.44 7.61,23.4 7.58,23.36 7.54,23.32 7.5,23.27 7.46,23.23 7.42,23.18 7.38,23.14 7.34,23.09 7.3,23.04 7.26,22.99 7.22,22.94 7.18,22.89 7.14,22.84 7.1,22.79 7.06,22.74 7.02,22.69 6.99,22.64 6.95,22.59 6.91,22.55 6.88,22.5 6.84,22.45 6.81,22.41 6.78,22.36 6.75,22.32 6.72,22.28 6.69,22.24 6.66,22.2 6.64,22.17 6.62,22.14 6.61,22.12 6.59,22.09 6.58,22.07 6.57,22.05 6.55,22.03 6.54,22 6.52,21.98 6.51,21.96 6.49,21.94 6.48,21.92 6.46,21.89 6.45,21.87 6.43,21.85 6.41,21.83 6.39,21.81 6.26,21.68 6.22,21.62 6.17,21.56 6.13,21.51 6.09,21.46 6.06,21.41 6.02,21.36 5.98,21.31 5.95,21.27 5.91,21.22 5.87,21.17 5.84,21.11 5.8,21.06 5.76,21.01 5.72,20.95 5.67,20.88 5.63,20.81 4.99,19.73 5.35,20.85 5.38,20.92 5.41,20.99 5.43,21.05 5.46,21.12 5.49,21.18 5.51,21.24 5.53,21.3 5.56,21.35 5.58,21.41 5.6,21.46 5.63,21.52 5.65,21.57 5.67,21.62 5.69,21.67 5.72,21.72 5.74,21.77 5.76,21.82 5.79,21.88 5.81,21.93 5.84,21.98 5.87,22.03 5.89,22.09 5.92,22.14 5.95,22.2 5.98,22.26 6.02,22.31 6.05,22.37 6.09,22.44 6.13,22.5 6.16,22.57 6.21,22.63 6.25,22.71 6.26,22.73 6.28,22.75 6.29,22.77 6.3,22.8 6.32,22.82 6.34,22.85 6.35,22.88 6.37,22.9 6.38,22.93 6.4,22.96 6.41,22.98 6.43,23 6.45,23.03 6.46,23.05 6.47,23.06 6.49,23.08 6.5,23.08 6.53,23.1 6.56,23.13 6.6,23.16 6.64,23.21 6.69,23.25 6.75,23.3 6.8,23.36 6.85,23.41 6.9,23.47 6.96,23.52 7,23.57 7.04,23.61 7.08,23.65 7.11,23.68 7.13,23.7 7.17,23.74 7.22,23.78 7.26,23.82 7.3,23.86 7.35,23.9 7.39,23.95 7.44,23.99 7.48,24.03 7.53,24.06 7.57,24.1 7.62,24.14 7.66,24.18 7.71,24.22 7.76,24.26 7.8,24.3 7.85,24.34 8.01,24.46 8.18,24.58 8.34,24.7 8.5,24.82 8.67,24.93 8.84,25.04 9.01,25.14 9.18,25.25 9.35,25.35 9.53,25.45 9.7,25.54 9.88,25.63 10.06,25.72 10.24,25.81 10.43,25.89 10.61,25.96 10.8,26.04 10.99,26.11 11.18,26.18 11.37,26.25 11.56,26.31 11.76,26.36 11.96,26.42 12.16,26.47 12.36,26.52 12.57,26.56 12.77,26.6 12.98,26.64 13.19,26.67 13.4,26.7 13.62,26.73 13.84,26.75 14.04,26.77 14.25,26.78 14.45,26.79 14.66,26.8 14.87,26.8 15.08,26.8 15.29,26.79 15.5,26.78 15.71,26.77 15.92,26.75 16.12,26.73 16.33,26.71 16.54,26.68 16.75,26.65 16.96,26.61 17.17,26.58 17.37,26.53 17.58,26.49 17.78,26.44 17.98,26.39 18.18,26.33 18.38,26.27 18.58,26.21 18.77,26.14 18.97,26.07 19.16,26 19.34,25.92 19.53,25.84 19.71,25.76 19.89,25.67 20.07,25.58 20.24,25.49 20.32,25.45 20.38,25.41 20.45,25.37 20.52,25.34 20.59,25.3 20.66,25.26 20.72,25.22 20.79,25.18 20.86,25.14 20.92,25.1 20.99,25.07 21.05,25.03 21.11,24.99 21.18,24.94 21.24,24.9 21.3,24.86 21.37,24.82 21.43,24.78 21.49,24.74 21.55,24.7 21.61,24.66 21.67,24.61 21.73,24.57 21.79,24.53 21.85,24.49 21.91,24.44 21.97,24.39 22.03,24.35 22.09,24.3 22.15,24.26 22.21,24.21 22.27,24.16 22.35,24.09 22.42,24.03 22.5,23.96 22.58,23.89 22.66,23.82 22.74,23.75 22.82,23.68 22.9,23.61 22.97,23.53 23.05,23.46 23.13,23.38 23.21,23.3 23.29,23.22 23.36,23.14 23.44,23.06 23.52,22.98 23.59,22.9 23.67,22.81 23.74,22.73 23.81,22.65 23.88,22.56 23.95,22.48 24.02,22.39 24.09,22.31 24.16,22.22 24.22,22.14 24.29,22.05 24.35,21.97 24.41,21.88 24.47,21.79 24.53,21.71 24.58,21.62 24.65,21.51 24.73,21.4 24.8,21.28 24.87,21.17 24.93,21.05 25,20.94 25.07,20.82 25.13,20.71 25.19,20.59 25.26,20.47 25.32,20.35 25.38,20.24 25.44,20.12 25.49,20 25.55,19.88 25.6,19.76 25.66,19.64 25.71,19.51 25.76,19.39 25.81,19.26 25.86,19.13 25.91,19 25.95,18.87 26,18.74 26.04,18.6 26.08,18.47 26.12,18.33 26.16,18.19 26.2,18.04 26.24,17.9 26.27,17.75 26.3,17.6 26.34,17.44 26.37,17.29 26.4,17.13 26.42,16.98 26.45,16.82 26.47,16.67 26.49,16.51 26.51,16.36 26.52,16.2 26.54,16.05 26.55,15.89 26.56,15.74 26.56,15.59 26.57,15.43 26.57,15.28 26.57,15.13 26.57,14.97 26.57,14.82 26.56,14.67 26.56,14.52 26.55,14.37 26.54,14.22 26.52,14.07 26.51,13.92 26.49,13.77 26.47,13.62 26.45,13.47 26.43,13.33 26.41,13.18 26.38,13.03 26.35,12.89 26.32,12.74 26.3,12.63 26.27,12.51 26.25,12.4 26.22,12.29 26.19,12.18 26.16,12.07 26.13,11.97 26.1,11.86 26.07,11.76 26.04,11.65 26,11.55 25.97,11.45 25.93,11.34 25.89,11.24 25.86,11.14 25.82,11.04 25.78,10.94 25.74,10.84 25.7,10.75 25.65,10.65 25.61,10.55 25.57,10.45 25.52,10.35 25.48,10.26 25.43,10.16 25.38,10.06 25.33,9.97 25.28,9.87 25.23,9.77 25.18,9.67 25.12,9.57 25.07,9.48 25.06,9.46 25.04,9.43 25.03,9.41 25.01,9.38 24.99,9.35 24.97,9.32 24.95,9.29 24.93,9.26 24.91,9.23 24.9,9.2 24.88,9.17 24.87,9.15 24.86,9.12 24.85,9.1 24.85,9.08 24.85,9.07 23.89,8.07 23.87,8.05 23.84,8.02 23.82,8 23.79,7.97 23.76,7.95 23.73,7.92 23.69,7.89 23.66,7.86 23.62,7.83 23.59,7.8 23.55,7.77 23.51,7.73 23.47,7.7 23.43,7.67 23.39,7.64 23.35,7.61 23.31,7.57 23.27,7.54 23.23,7.51 23.18,7.48 23.15,7.45 23.11,7.42 23.07,7.39 23.03,7.36 22.99,7.33 22.96,7.3 22.92,7.28 22.89,7.25 22.86,7.23 22.82,7.21 22.8,7.19 22.77,7.17 22.69,7.12 22.61,7.07 22.53,7.02 22.46,6.97 22.37,6.92 22.3,6.87 22.21,6.82 22.13,6.77 22.05,6.72 21.97,6.67 21.89,6.63 21.81,6.58 21.72,6.53 21.64,6.48 21.56,6.44 21.47,6.4 21.39,6.35 21.3,6.31 21.22,6.26 21.13,6.22 21.05,6.18 20.96,6.14 20.87,6.1 20.79,6.07 20.7,6.03 20.61,5.99 20.52,5.96 20.43,5.92 20.34,5.89 20.25,5.86 20.16,5.83 20.07,5.8 19.99,5.77 19.91,5.74 19.82,5.72 19.74,5.69 19.66,5.67 19.57,5.64 19.49,5.62 19.41,5.6 19.33,5.57 19.25,5.55 19.16,5.53 19.08,5.51 19,5.49 18.92,5.47 18.84,5.45 18.76,5.43 18.68,5.41 18.6,5.4 18.52,5.38 18.44,5.36 18.35,5.35 18.27,5.33 18.19,5.32 18.11,5.3 18.03,5.29 17.95,5.28 17.87,5.27 17.79,5.26 17.71,5.24 17.62,5.23 17.54,5.22 17.46,5.21 16.94,5.17 16.9,5.17 16.86,5.17 16.82,5.17 16.78,5.16 16.74,5.16 16.7,5.16 16.66,5.16 16.62,5.16 16.58,5.16 16.54,5.16 16.5,5.16 16.46,5.16 16.42,5.16 16.38,5.16 16.34,5.16 16.3,5.16 16.26,5.16 16.22,5.16 16.18,5.16 16.14,5.16 16.1,5.16 16.05,5.16 16.01,5.16 15.97,5.16 15.93,5.17 15.89,5.17 15.85,5.17 15.8,5.17 15.76,5.17 15.72,5.18 15.68,5.18 15.63,5.18 15.58,5.18 15.53,5.19 15.48,5.19 15.43,5.19 15.37,5.2 15.32,5.2 15.27,5.21 15.22,5.21 15.16,5.22 15.11,5.22 15.06,5.23 15,5.23 14.95,5.24 14.9,5.24 14.84,5.25 14.79,5.26 14.74,5.27 14.68,5.27 14.63,5.28 14.58,5.29 14.52,5.3 14.47,5.3 14.42,5.31 14.37,5.32 14.32,5.33 14.26,5.34 14.21,5.35 14.16,5.36 14.11,5.37 14.06,5.38 14.01,5.39 13.96,5.4 13.93,5.4 13.9,5.41 13.86,5.42 13.81,5.43 13.75,5.44 13.7,5.45 13.64,5.46 13.58,5.48 13.52,5.49 13.46,5.51 13.4,5.53 13.35,5.55 13.3,5.56 13.26,5.58 13.23,5.6 "/>
      <polygon id="Vector_100" class="fil4" points="6.49,23.07 6.55,23.18 6.62,23.28 6.69,23.38 6.76,23.49 6.84,23.59 6.92,23.7 7,23.8 7.08,23.9 7.16,24.01 7.25,24.11 7.34,24.21 7.43,24.31 7.52,24.41 7.61,24.51 7.7,24.61 7.8,24.71 7.9,24.8 7.99,24.9 8.09,25 8.19,25.09 8.29,25.18 8.39,25.27 8.49,25.36 8.59,25.45 8.69,25.53 8.79,25.62 8.9,25.7 9,25.78 9.1,25.86 9.2,25.93 9.3,26.01 9.4,26.08 9.51,26.15 9.63,26.23 9.74,26.3 9.85,26.38 9.97,26.45 10.09,26.52 10.21,26.59 10.33,26.66 10.45,26.73 10.58,26.8 10.7,26.87 10.83,26.93 10.96,26.99 11.09,27.06 11.22,27.12 11.36,27.18 11.49,27.24 11.63,27.3 11.77,27.35 11.92,27.41 12.06,27.46 12.21,27.51 12.35,27.56 12.5,27.61 12.65,27.65 12.81,27.69 12.96,27.74 13.12,27.78 13.28,27.81 13.44,27.85 13.6,27.88 13.77,27.91 13.82,27.92 13.86,27.93 13.91,27.94 13.96,27.95 14.01,27.95 14.06,27.96 14.11,27.97 14.16,27.98 14.21,27.99 14.26,28 14.31,28.01 14.36,28.01 14.41,28.03 14.46,28.03 14.52,28.04 14.57,28.05 15.19,28.11 15.36,28.12 15.53,28.12 15.7,28.12 15.87,28.12 16.04,28.12 16.2,28.12 16.37,28.11 16.53,28.1 16.69,28.09 16.86,28.08 17.01,28.06 17.17,28.05 17.33,28.03 17.49,28 17.64,27.98 17.8,27.96 17.96,27.93 18.11,27.9 18.27,27.87 18.42,27.83 18.58,27.8 18.73,27.76 18.89,27.72 19.04,27.67 19.2,27.63 19.35,27.58 19.51,27.53 19.67,27.48 19.83,27.42 19.99,27.37 20.15,27.31 20.31,27.25 20.45,27.19 20.59,27.13 20.74,27.07 20.88,27.01 21.02,26.94 21.16,26.87 21.31,26.79 21.45,26.71 21.59,26.64 21.73,26.56 21.87,26.47 22.01,26.38 22.15,26.3 22.28,26.2 22.42,26.11 22.55,26.02 22.69,25.92 22.82,25.83 22.95,25.73 23.08,25.62 23.21,25.52 23.34,25.42 23.46,25.31 23.58,25.21 23.7,25.1 23.82,24.99 23.94,24.88 24.06,24.77 24.17,24.66 24.28,24.55 24.39,24.44 24.49,24.33 24.52,24.3 24.54,24.28 24.56,24.25 24.58,24.23 24.61,24.2 24.63,24.18 24.65,24.15 24.67,24.13 24.69,24.11 24.71,24.08 24.74,24.06 24.76,24.03 24.78,24.01 24.8,23.98 24.82,23.96 24.84,23.93 24.88,23.88 24.92,23.83 24.96,23.79 25,23.74 25.03,23.7 25.07,23.65 25.1,23.61 25.13,23.57 25.16,23.54 25.19,23.5 25.22,23.46 25.25,23.42 25.28,23.38 25.31,23.34 25.33,23.31 25.36,23.27 25.39,23.23 25.41,23.2 25.44,23.16 25.47,23.12 25.49,23.08 25.52,23.04 25.55,23 25.58,22.95 25.61,22.91 25.64,22.86 25.67,22.82 25.7,22.77 25.73,22.72 25.77,22.67 25.8,22.61 25.83,22.56 25.98,22.32 26.13,22.08 26.26,21.83 26.39,21.58 26.51,21.32 26.63,21.07 26.74,20.81 26.84,20.54 26.94,20.28 27.03,20.01 27.11,19.74 27.18,19.47 27.25,19.19 27.32,18.92 27.37,18.64 27.42,18.37 27.46,18.09 27.5,17.81 27.53,17.52 27.55,17.24 27.57,16.96 27.58,16.68 27.58,16.4 27.58,16.12 27.57,15.84 27.55,15.56 27.53,15.28 27.5,15 27.46,14.72 27.42,14.45 27.36,14.17 27.31,13.9 27.28,13.77 27.24,13.63 27.21,13.5 27.17,13.36 27.13,13.23 27.09,13.1 27.05,12.97 27.01,12.84 26.97,12.71 26.92,12.58 26.87,12.45 26.82,12.32 26.77,12.19 26.72,12.06 26.66,11.94 26.61,11.81 26.55,11.69 26.49,11.56 26.43,11.44 26.37,11.32 26.31,11.19 26.24,11.07 26.18,10.95 26.11,10.83 26.04,10.71 25.97,10.59 25.9,10.48 25.83,10.36 25.75,10.24 25.68,10.13 25.6,10.01 25.52,9.9 25.5,9.87 25.48,9.85 25.46,9.82 25.44,9.8 25.42,9.78 25.4,9.75 25.39,9.73 25.37,9.7 24.85,9.07 24.85,9.08 24.85,9.1 24.86,9.12 24.87,9.14 24.88,9.17 24.9,9.2 24.91,9.23 24.93,9.26 24.95,9.29 24.97,9.32 24.99,9.35 25.01,9.38 25.02,9.4 25.04,9.43 25.06,9.45 25.07,9.47 25.12,9.57 25.18,9.67 25.23,9.77 25.28,9.86 25.33,9.96 25.38,10.06 25.43,10.16 25.47,10.25 25.52,10.35 25.57,10.45 25.61,10.55 25.65,10.65 25.7,10.74 25.74,10.84 25.78,10.94 25.82,11.04 25.86,11.14 25.89,11.24 25.93,11.34 25.97,11.44 26,11.54 26.04,11.65 26.07,11.75 26.1,11.86 26.13,11.96 26.16,12.07 26.19,12.18 26.22,12.29 26.25,12.4 26.27,12.51 26.3,12.62 26.32,12.74 26.35,12.88 26.38,13.03 26.41,13.17 26.43,13.32 26.45,13.47 26.47,13.62 26.49,13.77 26.51,13.92 26.52,14.07 26.54,14.21 26.55,14.37 26.56,14.52 26.56,14.67 26.57,14.82 26.57,14.97 26.57,15.12 26.57,15.28 26.57,15.43 26.56,15.58 26.56,15.73 26.55,15.89 26.54,16.05 26.52,16.2 26.51,16.35 26.49,16.51 26.47,16.66 26.45,16.82 26.42,16.97 26.4,17.13 26.37,17.29 26.34,17.44 26.3,17.6 26.27,17.75 26.24,17.9 26.2,18.04 26.16,18.18 26.12,18.33 26.08,18.46 26.04,18.6 26,18.73 25.95,18.87 25.91,19 25.86,19.13 25.81,19.26 25.76,19.39 25.71,19.51 25.66,19.63 25.6,19.76 25.55,19.88 25.49,20 25.44,20.12 25.38,20.24 25.32,20.35 25.26,20.47 25.19,20.59 25.13,20.7 25.07,20.82 25,20.93 24.93,21.05 24.86,21.16 24.8,21.28 24.73,21.39 24.65,21.51 24.58,21.62 24.53,21.71 24.47,21.79 24.41,21.88 24.35,21.96 24.29,22.05 24.22,22.13 24.16,22.22 24.09,22.3 24.02,22.39 23.95,22.48 23.88,22.56 23.81,22.64 23.74,22.73 23.67,22.81 23.59,22.89 23.52,22.98 23.44,23.06 23.36,23.14 23.29,23.22 23.21,23.3 23.13,23.37 23.05,23.45 22.97,23.53 22.9,23.6 22.82,23.68 22.74,23.75 22.66,23.82 22.58,23.89 22.5,23.96 22.42,24.03 22.35,24.09 22.27,24.16 22.21,24.21 22.15,24.25 22.09,24.3 22.03,24.35 21.97,24.39 21.91,24.44 21.85,24.48 21.79,24.53 21.73,24.57 21.67,24.61 21.61,24.65 21.55,24.7 21.49,24.74 21.43,24.78 21.36,24.82 21.3,24.86 21.24,24.9 21.18,24.94 21.11,24.98 21.05,25.02 20.99,25.06 20.92,25.1 20.86,25.14 20.79,25.18 20.72,25.22 20.66,25.26 20.59,25.3 20.52,25.33 20.45,25.37 20.38,25.41 20.31,25.45 20.24,25.49 20.07,25.58 19.89,25.67 19.71,25.76 19.53,25.84 19.34,25.92 19.16,26 18.96,26.07 18.77,26.14 18.58,26.2 18.38,26.27 18.18,26.33 17.98,26.38 17.78,26.43 17.57,26.49 17.37,26.53 17.16,26.57 16.96,26.61 16.75,26.64 16.54,26.68 16.33,26.7 16.12,26.73 15.91,26.75 15.7,26.77 15.5,26.78 15.29,26.79 15.08,26.79 14.87,26.8 14.66,26.79 14.45,26.79 14.25,26.78 14.04,26.77 13.84,26.75 13.62,26.72 13.4,26.7 13.19,26.67 12.98,26.64 12.77,26.6 12.57,26.56 12.36,26.52 12.16,26.47 11.96,26.41 11.76,26.36 11.56,26.3 11.37,26.24 11.18,26.18 10.99,26.11 10.8,26.04 10.61,25.96 10.43,25.88 10.24,25.8 10.06,25.72 9.88,25.63 9.7,25.54 9.53,25.44 9.35,25.35 9.18,25.25 9.01,25.14 8.84,25.04 8.67,24.93 8.5,24.81 8.34,24.7 8.18,24.58 8.01,24.46 7.85,24.34 7.8,24.3 7.76,24.26 7.71,24.22 7.66,24.18 7.62,24.14 7.57,24.1 7.53,24.06 7.48,24.02 7.44,23.98 7.39,23.94 7.35,23.9 7.3,23.86 7.26,23.82 7.22,23.78 7.17,23.74 7.13,23.7 7.11,23.68 7.08,23.65 7.04,23.61 7,23.57 6.96,23.52 6.9,23.47 6.85,23.41 6.8,23.35 6.74,23.3 6.69,23.25 6.64,23.2 6.6,23.16 6.56,23.12 6.53,23.1 6.5,23.08 "/>
      <polygon id="Vector_101" class="fil4" points="13.2,5.62 13.18,5.61 13.15,5.61 13.1,5.62 13.06,5.63 13.01,5.64 12.95,5.65 12.89,5.67 12.82,5.69 12.75,5.72 12.67,5.74 12.6,5.77 12.52,5.8 12.44,5.83 12.35,5.86 12.27,5.89 12.18,5.92 12.1,5.96 12.02,5.99 11.93,6.02 11.85,6.06 11.78,6.09 11.7,6.13 11.62,6.16 11.55,6.19 11.49,6.21 11.43,6.24 11.37,6.27 11.32,6.29 11.27,6.31 11.23,6.33 11.2,6.35 11.18,6.36 11.13,6.38 11.07,6.41 11.02,6.44 10.96,6.47 10.91,6.5 10.85,6.53 10.79,6.56 10.74,6.59 10.68,6.62 10.62,6.66 10.56,6.69 10.5,6.72 10.44,6.76 10.38,6.8 10.32,6.83 10.26,6.87 10.2,6.9 10.14,6.94 10.08,6.97 10.02,7.01 9.97,7.05 9.91,7.09 9.85,7.12 9.8,7.16 9.74,7.19 9.69,7.23 9.64,7.27 9.59,7.3 9.54,7.34 9.49,7.38 9.45,7.41 9.4,7.45 8.05,8.61 7.93,8.72 7.81,8.84 7.69,8.96 7.58,9.09 7.46,9.22 7.34,9.36 7.23,9.5 7.12,9.65 7.01,9.79 6.9,9.95 6.79,10.1 6.68,10.26 6.57,10.42 6.47,10.57 6.37,10.74 6.27,10.9 6.17,11.07 6.08,11.23 5.99,11.4 5.9,11.57 5.82,11.74 5.73,11.9 5.66,12.07 5.58,12.24 5.51,12.4 5.44,12.57 5.37,12.73 5.31,12.89 5.26,13.05 5.21,13.21 5.16,13.36 5.11,13.51 4.81,14.76 4.81,14.78 4.8,14.8 4.8,14.82 4.8,14.84 4.79,14.86 4.79,14.88 4.79,14.9 4.79,14.92 4.79,14.93 4.78,14.95 4.78,14.97 4.78,15 4.78,15.02 4.77,15.04 4.77,15.06 4.76,15.07 4.76,15.09 4.76,15.1 4.75,15.12 4.75,15.13 4.75,15.15 4.74,15.17 4.74,15.18 4.74,15.2 4.73,15.22 4.73,15.25 4.73,15.27 4.72,15.29 4.72,15.31 4.72,15.33 4.71,15.35 4.71,15.38 4.65,15.97 4.64,15.99 4.64,16.02 4.64,16.04 4.64,16.05 4.64,16.07 4.64,16.09 4.64,16.1 4.64,16.12 4.64,16.15 4.64,16.19 4.64,16.23 4.64,16.28 4.64,16.32 4.64,16.37 4.64,16.41 4.64,16.45 4.64,16.5 4.63,16.54 4.63,16.59 4.63,16.63 4.63,16.67 4.62,16.71 4.62,16.75 4.62,16.79 4.62,16.83 4.61,16.87 4.61,16.9 4.61,16.94 4.62,16.98 4.62,17.03 4.62,17.07 4.62,17.11 4.62,17.15 4.63,17.19 4.63,17.23 4.63,17.27 4.63,17.32 4.63,17.36 4.64,17.39 4.64,17.43 4.64,17.48 4.64,17.54 4.64,17.6 4.65,17.67 4.65,17.73 4.66,17.8 4.67,17.87 4.67,17.95 4.68,18.02 4.69,18.1 4.7,18.18 4.71,18.26 4.72,18.34 4.73,18.42 4.74,18.5 4.75,18.58 4.77,18.66 4.78,18.74 4.79,18.83 4.8,18.91 4.82,18.98 4.83,19.06 4.85,19.14 4.86,19.21 4.88,19.29 4.89,19.36 4.91,19.43 4.93,19.49 4.94,19.55 4.96,19.62 4.97,19.67 4.99,19.73 5.63,20.81 5.67,20.88 5.72,20.94 5.76,21 5.8,21.06 5.83,21.11 5.87,21.17 5.91,21.22 5.94,21.26 5.98,21.31 6.02,21.36 6.05,21.41 6.09,21.46 6.13,21.51 6.17,21.56 6.22,21.62 6.26,21.68 6.39,21.81 6.38,21.78 6.37,21.75 6.36,21.72 6.34,21.68 6.32,21.65 6.31,21.61 6.29,21.58 6.27,21.54 6.25,21.5 6.23,21.46 6.21,21.42 6.19,21.38 6.17,21.34 6.14,21.29 6.12,21.25 6.09,21.2 6.07,21.16 6.05,21.11 6.02,21.06 6,21.01 5.97,20.96 5.95,20.91 5.92,20.85 5.89,20.8 5.87,20.75 5.84,20.69 5.82,20.64 5.79,20.58 5.77,20.52 5.74,20.46 5.72,20.41 5.7,20.34 5.58,20.02 5.47,19.69 5.37,19.36 5.29,19.02 5.22,18.68 5.16,18.35 5.11,18 5.08,17.66 5.06,17.32 5.05,16.97 5.05,16.63 5.06,16.29 5.09,15.94 5.12,15.6 5.17,15.26 5.23,14.92 5.31,14.58 5.39,14.25 5.48,13.91 5.59,13.59 5.71,13.26 5.84,12.94 5.98,12.62 6.13,12.31 6.29,12.01 6.46,11.71 6.65,11.41 6.84,11.12 7.05,10.84 7.26,10.57 7.49,10.3 7.73,10.04 7.77,10.01 7.8,9.97 7.84,9.93 7.87,9.9 7.91,9.86 7.94,9.82 7.98,9.79 8.01,9.75 8.05,9.72 8.08,9.69 8.12,9.65 8.15,9.62 8.18,9.58 8.22,9.55 8.26,9.51 8.29,9.48 8.33,9.45 8.36,9.41 8.4,9.38 8.45,9.34 8.49,9.31 8.53,9.28 8.57,9.25 8.6,9.22 8.64,9.18 8.68,9.15 8.72,9.13 8.75,9.09 8.79,9.06 8.83,9.03 8.87,9 8.92,8.96 8.95,8.93 8.98,8.91 9.01,8.88 9.05,8.85 9.08,8.82 9.12,8.8 9.16,8.77 9.2,8.74 9.25,8.71 9.29,8.68 9.34,8.65 9.38,8.62 9.43,8.59 9.48,8.55 9.52,8.52 9.57,8.49 9.62,8.46 9.67,8.43 9.72,8.4 9.76,8.37 9.81,8.34 9.86,8.31 9.9,8.29 9.95,8.26 9.99,8.23 10.03,8.21 10.07,8.18 10.11,8.16 10.15,8.14 10.19,8.12 10.22,8.1 10.26,8.08 10.4,8 10.56,7.92 10.71,7.85 10.86,7.77 11.02,7.71 11.17,7.64 11.33,7.58 11.48,7.51 11.64,7.45 11.8,7.4 11.96,7.34 12.12,7.29 12.29,7.24 12.45,7.2 12.62,7.15 12.78,7.11 12.95,7.08 13.12,7.04 13.28,7.01 13.45,6.98 13.62,6.96 13.8,6.93 13.97,6.92 14.14,6.9 14.31,6.89 14.49,6.88 14.66,6.87 14.84,6.86 15.02,6.86 15.2,6.87 15.37,6.87 15.55,6.88 15.77,6.89 15.99,6.91 16.21,6.94 16.42,6.97 16.64,7 16.85,7.04 17.06,7.08 17.27,7.13 17.48,7.18 17.68,7.24 17.89,7.3 18.09,7.37 18.29,7.43 18.49,7.51 18.69,7.59 18.88,7.67 19.08,7.76 19.27,7.85 19.45,7.94 19.64,8.04 19.82,8.15 20.01,8.25 20.18,8.37 20.36,8.48 20.53,8.6 20.71,8.72 20.87,8.85 21.04,8.98 21.2,9.12 21.36,9.25 21.52,9.39 21.68,9.54 21.7,9.56 21.72,9.58 21.73,9.59 21.75,9.61 21.77,9.63 21.79,9.65 21.8,9.67 21.82,9.69 21.84,9.7 21.86,9.72 21.88,9.74 21.9,9.76 21.92,9.77 21.94,9.79 21.96,9.81 21.98,9.83 21.91,9.7 21.9,9.68 21.89,9.67 21.88,9.65 21.87,9.64 21.86,9.62 21.85,9.6 21.84,9.59 21.83,9.57 21.79,9.52 21.75,9.46 21.71,9.41 21.67,9.35 21.63,9.3 21.59,9.25 21.55,9.21 21.52,9.16 21.48,9.11 21.45,9.07 21.41,9.02 21.38,8.98 21.34,8.94 21.3,8.9 21.27,8.86 21.23,8.81 21.2,8.77 21.16,8.73 21.12,8.69 21.08,8.65 21.04,8.61 21,8.56 20.96,8.52 20.92,8.48 20.87,8.43 20.83,8.39 20.78,8.34 20.73,8.29 20.68,8.25 20.63,8.2 20.58,8.15 20.52,8.1 20.47,8.05 20.42,8 20.37,7.96 20.32,7.91 20.27,7.87 20.21,7.82 20.16,7.77 20.11,7.73 20.05,7.69 20,7.64 19.94,7.6 19.88,7.55 19.82,7.51 19.77,7.47 19.71,7.42 19.65,7.38 19.59,7.34 19.53,7.3 19.46,7.25 19.4,7.21 19.34,7.17 19.28,7.13 19.21,7.09 19.15,7.05 19.08,7.01 19.02,6.97 18.95,6.93 18.88,6.89 18.82,6.85 18.75,6.81 18.68,6.77 18.61,6.73 18.48,6.66 18.34,6.59 18.2,6.52 18.05,6.45 17.9,6.39 17.75,6.32 17.59,6.26 17.43,6.2 17.27,6.14 17.1,6.08 16.93,6.03 16.76,5.98 16.59,5.93 16.42,5.88 16.24,5.84 16.06,5.8 15.88,5.76 15.7,5.72 15.52,5.69 15.34,5.66 15.16,5.64 14.98,5.62 14.8,5.6 14.62,5.58 14.44,5.57 14.26,5.57 14.08,5.57 13.9,5.57 13.72,5.57 13.55,5.58 13.38,5.6 "/>
      <polygon id="Vector_102" class="fil3" points="7.92,10.66 9.59,12.96 9.02,15.11 10.82,18.13 12.63,20.46 15.37,20.35 13.73,17.48 13.93,15.84 15.18,17.29 15.94,15.35 18.26,15.43 16.85,14.53 20.09,15.6 21.75,13.58 22.5,13.33 22.52,12.65 21.43,10.03 19.47,9.28 19.03,10.1 20.49,10.79 21.12,12.48 19.84,13.45 17.48,10.72 14.37,9.67 13.38,9.9 11.29,9.08 "/>
      <polygon id="Vector_103" class="fil5" points="19.84,13.45 18.45,11.76 18.15,12.76 16.83,13.11 14.65,13.36 15.94,15.34 18.26,15.43 16.85,14.53 20.09,15.59 "/>
      <polygon id="Vector_104" class="fil6" points="19.47,9.28 19.03,10.1 20.49,10.79 21.43,10.03 "/>
      <polygon id="Vector_105" class="fil7" points="21.12,12.48 20.49,10.79 21.4,10.06 22.52,12.65 "/>
      <polygon id="Vector_106" class="fil8" points="19.84,13.45 20.09,15.6 22.52,12.65 21.12,12.48 "/>
      <polygon id="Vector_107" class="fil9" points="22.5,13.33 19.22,13.82 18.68,13.48 17.89,14.21 19.12,14.45 "/>
      <polygon id="Vector_108" class="fil7" points="18.15,12.76 18.68,13.48 17.84,14.27 16.72,14.05 16.83,13.11 "/>
      <polygon id="Vector_109" class="fil10" points="17.52,10.7 16.02,11.76 16.83,13.11 18.15,12.76 18.45,11.76 "/>
      <polygon id="Vector_110" class="fil11" points="15.76,10.14 14.74,10.7 13.97,11.32 16.02,11.76 17.48,10.72 "/>
      <polygon id="Vector_111" class="fil5" points="13.49,12.55 14.65,13.37 16.83,13.11 16.02,11.76 13.97,11.32 "/>
      <polygon id="Vector_112" class="fil8" points="14.74,10.7 11.63,10.16 13.97,11.33 "/>
      <polygon id="Vector_113" class="fil12" points="15.76,10.14 14.37,9.67 13.38,9.9 13.71,10.52 14.78,10.68 "/>
      <polygon id="Vector_114" class="fil12" points="11.63,10.16 11.02,12.48 13.49,12.55 13.97,11.33 "/>
      <polygon id="Vector_115" class="fil13" points="15.94,15.35 14.12,13.74 14.65,13.37 "/>
      <polygon id="Vector_116" class="fil14" points="13.49,12.55 14.12,13.74 14.65,13.37 "/>
      <polygon id="Vector_117" class="fil15" points="15.94,15.35 15.18,17.29 11.02,12.48 13.49,12.55 14.12,13.74 "/>
      <polygon id="Vector_118" class="fil4" points="11.29,9.08 12.2,10.25 11.63,10.16 11.4,11.06 7.92,10.66 "/>
      <polygon id="Vector_119" class="fil14" points="13.39,9.9 11.29,9.08 12.2,10.25 13.71,10.52 "/>
      <polygon id="Vector_120" class="fil12" points="11.95,13.56 9.59,12.96 7.92,10.67 11.4,11.06 11.02,12.48 "/>
      <polygon id="Vector_121" class="fil14" points="13.93,15.84 9.02,15.11 9.6,12.95 11.95,13.55 "/>
      <polygon id="Vector_122" class="fil13" points="10.82,18.13 9.02,15.11 13.93,15.84 "/>
      <polygon id="Vector_123" class="fil16" points="13.73,17.48 10.82,18.13 13.93,15.84 "/>
      <polygon id="Vector_124" class="fil8" points="12.63,20.46 10.82,18.13 13.73,17.48 "/>
      <polygon id="Vector_125" class="fil12" points="15.37,20.35 12.63,20.46 13.73,17.48 "/>
      <polygon id="Vector_126" class="fil2" points="17.34,11.94 16.72,11.75 16.81,12.07 17.08,12.14 "/>
      <polygon id="Vector_127" class="fil17" points="9.03,12.65 8.17,12.65 8.17,13.51 9.03,13.51 "/>
      <polygon id="Vector_128" class="fil18" points="7.25,12.24 6.71,12.24 6.71,12.78 7.25,12.78 "/>
      <polygon id="Vector_129" class="fil17" points="7.91,11.37 7.49,11.37 7.49,11.8 7.91,11.8 "/>
      <polygon id="Vector_130" class="fil18" points="6.77,13.3 6.22,13.3 6.22,13.83 6.77,13.83 "/>
      <polygon id="Vector_131" class="fil18" points="8.06,14.05 7.63,14.05 7.63,14.48 8.06,14.48 "/>
      <polygon id="Vector_132" class="fil17" points="7.69,13.34 7.48,13.34 7.48,13.55 7.69,13.55 "/>
      <polygon id="Vector_133" class="fil17" points="8.71,14.23 8.5,14.23 8.5,14.43 8.71,14.43 "/>
      <polygon id="Vector_134" class="fil19" points="7.25,14.47 6.38,14.47 6.38,15.32 7.25,15.32 "/>
      <polygon id="Vector_135" class="fil20" points="6.15,15.36 5.94,15.36 5.94,15.57 6.15,15.57 "/>
      <polygon id="Vector_136" class="fil18" points="8.69,15.33 8.26,15.33 8.26,15.76 8.69,15.76 "/>
      <polygon id="Vector_137" class="fil17" points="7.82,15.97 7.39,15.97 7.39,16.4 7.82,16.4 "/>
      <polygon id="Vector_138" class="fil18" points="8,16.87 7.57,16.87 7.57,17.3 8,17.3 "/>
      <polygon id="Vector_139" class="fil18" points="9.55,16.53 8.69,16.53 8.69,17.38 9.55,17.38 "/>
      <polygon id="Vector_140" class="fil17" points="6.62,16.47 6.41,16.47 6.41,16.67 6.62,16.67 "/>
      <polygon id="Vector_141" class="fil21" points="7.8,18.01 7.37,18.01 7.37,18.43 7.8,18.43 "/>
      <polygon id="Vector_142" class="fil18" points="9.3,17.81 8.87,17.81 8.87,18.23 9.3,18.23 "/>
      <polygon id="Vector_143" class="fil20" points="10.34,18.25 10.13,18.25 10.13,18.45 10.34,18.45 "/>
      <polygon id="Vector_144" class="fil20" points="9.36,18.86 9.15,18.86 9.15,19.06 9.36,19.06 "/>
      <polygon id="Vector_145" class="fil20" points="8.31,19.1 8.1,19.1 8.1,19.3 8.31,19.3 "/>
      <polygon id="Vector_146" class="fil21" points="9.32,19.38 8.9,19.38 8.9,19.8 9.32,19.8 "/>
      <polygon id="Vector_147" class="fil21" points="10.58,19.26 10.15,19.26 10.15,19.69 10.58,19.69 "/>
      <polygon id="Vector_148" class="fil21" points="10.16,20.01 9.73,20.01 9.73,20.44 10.16,20.44 "/>
      <polygon id="Vector_149" class="fil17" points="9.01,20.09 8.58,20.09 8.58,20.51 9.01,20.51 "/>
      <polygon id="Vector_150" class="fil17" points="10.62,20.93 10.41,20.93 10.41,21.14 10.62,21.14 "/>
      <polygon id="Vector_151" class="fil17" points="10.19,21.16 9.77,21.16 9.77,21.58 10.19,21.58 "/>
      <polygon id="Vector_152" class="fil17" points="11.11,22.14 10.9,22.14 10.9,22.35 11.11,22.35 "/>
      <polygon id="Vector_153" class="fil21" points="11.46,19.95 10.92,19.95 10.92,20.49 11.46,20.49 "/>
      <polygon id="Vector_154" class="fil21" points="12.8,20.9 11.93,20.9 11.93,21.75 12.8,21.75 "/>
      <polygon id="Vector_155" class="fil17" points="11.58,21.32 11.15,21.32 11.15,21.74 11.58,21.74 "/>
      <polygon id="Vector_156" class="fil17" points="11.92,21.82 11.72,21.82 11.72,22.03 11.92,22.03 "/>
      <polygon id="Vector_157" class="fil17" points="11.93,22.4 11.51,22.4 11.51,22.82 11.93,22.82 "/>
      <polygon id="Vector_158" class="fil17" points="13.14,22.94 12.72,22.94 12.72,23.36 13.14,23.36 "/>
      <polygon id="Vector_159" class="fil17" points="13.98,22.39 13.43,22.39 13.43,22.93 13.98,22.93 "/>
      <polygon id="Vector_160" class="fil21" points="13.7,20.93 13.27,20.93 13.27,21.35 13.7,21.35 "/>
      <polygon id="Vector_161" class="fil22" points="16.03,21.03 15.16,21.03 15.16,21.89 16.03,21.89 "/>
      <polygon id="Vector_162" class="fil17" points="13.93,21.92 13.72,21.92 13.72,22.12 13.93,22.12 "/>
      <polygon id="Vector_163" class="fil17" points="14.65,21.27 14.44,21.27 14.44,21.48 14.65,21.48 "/>
      <polygon id="Vector_164" class="fil17" points="14.84,22.68 14.41,22.68 14.41,23.1 14.84,23.1 "/>
      <polygon id="Vector_165" class="fil17" points="12.57,22.6 12.36,22.6 12.36,22.81 12.57,22.81 "/>
      <polygon id="Vector_166" class="fil20" points="14.42,23.43 14.21,23.43 14.21,23.63 14.42,23.63 "/>
      <polygon id="Vector_167" class="fil17" points="16.5,21.66 16.29,21.66 16.29,21.87 16.5,21.87 "/>
      <polygon id="Vector_168" class="fil17" points="17.93,23.99 17.72,23.99 17.72,24.2 17.93,24.2 "/>
      <polygon id="Vector_169" class="fil17" points="18.44,22.91 18.23,22.91 18.23,23.12 18.44,23.12 "/>
      <polygon id="Vector_170" class="fil19" points="19.13,23.09 18.92,23.09 18.92,23.3 19.13,23.3 "/>
      <polygon id="Vector_171" class="fil21" points="19.88,23.62 19.67,23.62 19.67,23.82 19.88,23.82 "/>
      <polygon id="Vector_172" class="fil19" points="22.14,22.19 21.93,22.19 21.93,22.39 22.14,22.39 "/>
      <polygon id="Vector_173" class="fil21" points="20.63,23.32 20.42,23.32 20.42,23.53 20.63,23.53 "/>
      <polygon id="Vector_174" class="fil17" points="16.29,22.72 15.75,22.72 15.75,23.26 16.29,23.26 "/>
      <polygon id="Vector_175" class="fil17" points="17.6,23.25 17.06,23.25 17.06,23.79 17.6,23.79 "/>
      <polygon id="Vector_176" class="fil17" points="17.49,22.34 17.06,22.34 17.06,22.76 17.49,22.76 "/>
      <polygon id="Vector_177" class="fil17" points="16.8,23.75 16.37,23.75 16.37,24.17 16.8,24.17 "/>
      <polygon id="Vector_178" class="fil17" points="15.95,23.5 15.52,23.5 15.52,23.92 15.95,23.92 "/>
      <polygon id="Vector_179" class="fil17" points="18.93,23.67 18.5,23.67 18.5,24.09 18.93,24.09 "/>
      <polygon id="Vector_180" class="fil19" points="20.09,22.89 19.67,22.89 19.67,23.31 20.09,23.31 "/>
      <polygon id="Vector_181" class="fil19" points="21.45,22.6 21.02,22.6 21.02,23.02 21.45,23.02 "/>
     </g>
    </g>
   </g>
  </g>
 </g>
</svg>
