<?xml version="1.0" encoding="UTF-8"?>
<!DOCTYPE svg PUBLIC "-//W3C//DTD SVG 1.1//EN" "http://www.w3.org/Graphics/SVG/1.1/DTD/svg11.dtd">
<!-- Creator: CorelDRAW -->
<svg xmlns="http://www.w3.org/2000/svg" xml:space="preserve" width="2.72307in" height="0.756268in" version="1.1" style="shape-rendering:geometricPrecision; text-rendering:geometricPrecision; image-rendering:optimizeQuality; fill-rule:evenodd; clip-rule:evenodd"
viewBox="0 0 329.16 91.42"
 xmlns:xlink="http://www.w3.org/1999/xlink"
 xmlns:xodm="http://www.corel.com/coreldraw/odm/2003">
 <defs>
  <style type="text/css">
   <![CDATA[
    .str0 {stroke:white;stroke-width:0.74;stroke-linecap:round;stroke-linejoin:round;stroke-miterlimit:2.61313}
    .fil2 {fill:none}
    .fil1 {fill:white}
    .fil3 {fill:black}
    .fil5 {fill:#21AD62}
    .fil12 {fill:#2CBD70}
    .fil10 {fill:#39DB84}
    .fil9 {fill:#40DE8A}
    .fil8 {fill:#46D98A}
    .fil6 {fill:#4BE894}
    .fil11 {fill:#4FE394}
    .fil7 {fill:#53F19C}
    .fil4 {fill:#7CFFB0}
    .fil0 {fill:white;fill-rule:nonzero}
   ]]>
  </style>
 </defs>
 <g id="Layer_x0020_2">
  <metadata id="CorelCorpID_0Corel-Layer"/>
  <g id="_105553125056064">
   <path id="Vector_15" class="fil0" d="M282.66 63.32l0.53 -3.97c1.9,2.31 5.41,4.78 10.47,4.78 5.94,0 13.3,-2.92 13.3,-10.97 0,-12.18 -19.83,-10.92 -19.83,-16.26 0,-1.81 2,-2.72 3.46,-2.72 3.51,0 6.43,2.16 6.43,5.99l9.01 0 0 -12.99 -8.62 0 -0.49 4.33c-2,-3.88 -6.28,-5.28 -10.47,-5.28 -4.92,0 -11.93,3.47 -11.93,11.12 0,13.19 19.24,11.48 19.24,15.55 0,2.16 -2.48,2.56 -4.24,2.56 -2.1,-0.1 -6.33,-0.8 -6.33,-5.18l-9.3 0 0 13.03 8.77 0 -0 -0 0 0zm-30.98 -27.73l3.31 11.17 -6.58 0 3.26 -11.17 0 0zm21.53 20.94l-3.51 0 -8.87 -29.39 -19.24 0 0 6.69 2.04 0 -6.77 22.7 -3.41 0 0 6.79 15.93 0 0 -6.79 -3.9 0 1.07 -3.52 10.28 0 1.07 3.52 -4.77 0 0 6.79 20.07 0 0 -6.79zm-59.19 -22.7c2.92,0 4.58,1.56 4.58,4.63 0,2.72 -1.9,4.18 -4.82,4.18l-2.24 0 0 -8.81 2.48 0 0 0 0 -0zm-15.64 0.05l2.83 0 0 22.55 -2.83 0 0 6.9 16.17 0 0 -6.85 -3.02 0 0 -8c4.48,0 5.02,1.16 5.02,5.84 0,6.04 3.17,9.61 9.74,9.61 5.55,0 7.31,-3.98 7.31,-8.3l0 -2.87 -3.36 0 0 1.71c0,1.06 -0.39,1.66 -1.17,1.66 -0.93,0 -1.22,-1.31 -1.22,-3.52 0,-3.72 -3.12,-6.85 -6.58,-7.35 4.14,-0.6 7.26,-3.47 7.26,-7.5 0,-5.89 -2.24,-10.67 -13.88,-10.67l-16.27 0 0 6.79 -0 0 -0 0zm-18.27 22.24c-3.22,0 -5.55,-4.28 -5.55,-11.07 0,-6.44 2.09,-10.97 5.16,-10.92 3.85,0 5.51,5.03 5.51,11.27 0,6.39 -1.95,10.72 -5.12,10.72zm0 8.1c11.3,0 17.63,-7.15 17.63,-18.82 0,-11.63 -5.7,-19.28 -17.98,-19.28 -10.38,0 -17.58,7.7 -17.58,18.87 0,12.98 7.45,19.23 17.93,19.23zm-30.15 -0.91l10.04 0 0 -12.93 2 0 0 -5.54 -16.61 0 0 5.54 3.07 0 0 2.16c-0.73,1.36 -1.95,2.52 -4.82,2.52 -4.34,0 -6.87,-4.23 -6.87,-9.51 0,-5.18 2.83,-9.71 6.87,-9.71 2.97,0 5.55,2.37 5.7,6.6l8.97 0 0 -15.25 -7.45 0 -1.07 3.73c-0.78,-0.8 -2.48,-4.33 -9.79,-4.33 -7.79,0 -15.39,7.75 -15.39,19.03 0,11.17 6.97,18.22 15.74,18.22 3.85,0 6.97,-1.81 8.08,-3.73l1.56 3.22 -0 -0 -0 -0zm-56.22 -29.39l3.17 0 0 22.45 -3.17 0 0 6.94 30.2 0 0 -11.68 -8.67 0 0 4.83 -7.99 0 0 -8.45 9.5 0 0 -6.9 -9.5 0 0 -7.15 8.04 0 0 4.63 8.67 0 0 -11.43 -30.2 0 0 6.74 -0.05 0 0 0 0 -0z"/>
   <path id="Vector_16" class="fil1" d="M174.81 15.36c4.43,2.06 17.25,2.92 25.19,12.68 4.19,5.13 6.87,13.89 3.41,21.74 -1.27,-15.4 -9.6,-24.16 -28.6,-34.43l0 0 0 -0z"/>
   <path id="Vector_20" class="fil2 str0" d="M320.12 26.73c4.78,0 8.67,4.03 8.67,8.96 0,4.93 -3.9,8.96 -8.67,8.96 -4.77,0 -8.67,-4.03 -8.67,-8.96 0,-4.98 3.9,-8.96 8.67,-8.96z"/>
   <path id="Vector_21" class="fil0" d="M318.27 34.69l1.36 0c0.15,0 0.44,-0.05 0.83,-0.15 0.2,-0.05 0.39,-0.15 0.54,-0.35 0.15,-0.2 0.19,-0.4 0.19,-0.61 0,-0.35 -0.1,-0.6 -0.34,-0.8 -0.19,-0.2 -0.58,-0.3 -1.17,-0.3l-1.41 0 0 2.22 -0 0 0 -0zm-3.22 6.29l0 -10.67 5.31 0c0.97,0 1.75,0.1 2.24,0.25 0.54,0.15 0.93,0.5 1.27,0.96 0.34,0.45 0.49,1.06 0.49,1.71 0,0.6 -0.15,1.11 -0.39,1.51 -0.24,0.45 -0.58,0.76 -1.02,1.06 -0.29,0.15 -0.63,0.3 -1.12,0.4 0.39,0.15 0.63,0.25 0.83,0.4 0.1,0.1 0.29,0.25 0.49,0.55 0.24,0.3 0.39,0.5 0.44,0.65l1.56 3.07 -3.61 0 -1.71 -3.27c-0.19,-0.4 -0.39,-0.7 -0.58,-0.8 -0.24,-0.15 -0.49,-0.25 -0.78,-0.25l-0.29 0 0 4.33 -3.12 0 0 0.1 0 -0 -0 0z"/>
   <circle class="fil3" cx="45.71" cy="45.71" r="45.71"/>
   <path class="fil4" d="M45.52 6.18c22.3,0 40.38,18.08 40.38,40.38 0,22.3 -18.08,40.38 -40.38,40.38 -22.3,0 -40.38,-18.08 -40.38,-40.38 0,-22.3 18.08,-40.38 40.38,-40.38zm0 3.13c20.57,0 37.25,16.68 37.25,37.25 0,20.57 -16.68,37.25 -37.25,37.25 -20.57,0 -37.25,-16.68 -37.25,-37.25 0,-20.57 16.68,-37.25 37.25,-37.25z"/>
   <path class="fil5" d="M46.26 4.71c22.71,0 41.12,18.41 41.12,41.12 0,22.71 -18.41,41.12 -41.12,41.12 -22.71,0 -41.12,-18.41 -41.12,-41.12 0,-22.71 18.41,-41.12 41.12,-41.12zm0 3.19c20.95,0 37.93,16.98 37.93,37.93 0,20.95 -16.98,37.93 -37.93,37.93 -20.95,0 -37.93,-16.98 -37.93,-37.93 0,-20.95 16.98,-37.93 37.93,-37.93z"/>
   <path class="fil6" d="M13.72 28.4c1.74,0.82 1.25,6.22 1.07,7.62 -0.34,2.54 -0.94,5.17 -1.56,7.61 -1.54,6.05 -2.69,12.45 -1.81,17.94 1.88,4.26 4.53,8.1 7.77,11.35 1.35,0.73 2.89,1.34 4.66,1.82 1.88,0.51 6.15,1.24 8.28,1l-0.01 -0.19c-0.79,-0.59 -1.57,-1.69 -2.11,-2.55 -2.03,-3.24 -2.26,-7.14 -0.45,-10.43 0.53,-0.96 1.11,-1.85 1.91,-2.54 1.87,-1.58 2.09,-2.17 4.88,-4 0.87,-0.57 1.74,-1.15 2.63,-1.82l1.97 -1.39c0.05,-0.04 0.3,-0.22 0.35,-0.26 0.18,-0.12 0.11,-0.07 0.27,-0.18 2.59,-1.84 4.97,-3.93 6.92,-6.4 5.1,-6.47 1.97,-11.88 1.81,-13.93 -0.57,-0.71 -2.79,-2.22 -3.91,-2.72l-0.03 0.18c0.06,0.87 4.08,5.72 1.23,12.49 -1.48,3.51 -4.83,6.26 -9.74,6.28 -0.01,0.1 -0.04,0.33 -0.08,0.43 -0.15,0.37 -0.09,0.16 -0.27,0.35 -0.84,3.42 -4.62,6.13 -8.59,6.42 -4.96,0.36 -8.44,-1.56 -10.48,-4.42 -4.39,-6.17 -0.23,-13.82 -1.19,-19.2 -0.32,-1.76 -1.79,-4.3 -3.51,-3.46l0 0z"/>
   <path class="fil7" d="M32.12 75.54c-1.08,-6.02 1.2,-14.35 4,-12.78 1.93,1.08 5.48,-0.02 7.5,-0.52 1.21,-0.3 2.35,-0.69 3.57,-0.87 1.97,-0.3 2.41,0.16 3.77,0.72 -0.05,-3.87 -7.38,-5.81 -8.53,-9.01 1.59,1.4 0.96,1.24 3.23,2.9 7.85,5.74 20.28,6.09 27.18,-1.29 0.54,-0.58 2.72,-2.85 1.91,-4.1 -0.42,0.13 -0.36,0.18 -0.63,0.48 -0.73,0.82 -0.48,0.74 -1.57,1.64 -0.87,0.71 -1.4,1.15 -2.47,1.81 -4.22,2.58 -9.46,2.76 -14.01,1 -1.54,-0.6 -4.73,-2.43 -5.37,-3.38 1.01,0.24 2.3,0.91 3.52,1.24 6.56,1.76 13.12,-0.55 16.43,-6.72 0.92,-1.71 2.28,-5.02 2.28,-7.39l-0.01 -0.59c-0.98,1.94 -0.75,2.62 -3.14,4.19 -4.53,2.97 -9.58,1.94 -13.09,-1.75 -0.46,-0.48 -1.3,-1.5 -1.62,-2.15 -0.18,-0.35 -0.65,-0.68 -1.2,-1.62 -0.37,-0.64 -0.64,-1.23 -0.97,-1.94 -0.61,-1.31 -1.63,-2.69 -2.61,-3.38 0.16,2.05 3.29,7.46 -1.81,13.93 -1.95,2.47 -4.32,4.56 -6.92,6.4 -0.16,0.11 -0.09,0.06 -0.27,0.18 -0.06,0.04 -0.3,0.22 -0.35,0.26l-1.97 1.39c-0.89,0.67 -1.76,1.25 -2.63,1.82 -2.78,1.83 -3.01,2.43 -4.88,4 -0.81,0.68 -1.38,1.57 -1.91,2.54 -1.81,3.29 -1.57,7.19 0.45,10.43 0.54,0.87 1.32,1.96 2.11,2.55l-0 0z"/>
   <path class="fil5" d="M7.55 32.44c0.04,0.58 -1.12,3.57 -1.31,4.49 -0.32,1.54 -0.77,3.01 -0.92,4.64 -0.14,1.5 -0.2,3 -0.17,4.49 0.07,-5.56 1.81,-10.98 3.91,-15.78 -1.17,0.63 -0.74,0.62 -1.25,1.74l-0.26 0.42zm22.34 51.36c1.87,0.85 4.18,1.72 5.88,2.11l0.21 -0.06 -0.02 -0.06c-2.09,-0.51 -4.12,-1.18 -6.07,-2l0 -0zm4.18 -1.79c-0.18,-0.41 -0.34,-0.79 -0.46,-1.1 -0.71,-1.8 -1.03,-3.42 -1.47,-5.18 -2.13,0.24 -6.4,-0.49 -8.28,-1 -1.77,-0.48 -3.31,-1.09 -4.66,-1.82 4.12,4.11 9.2,7.27 14.87,9.1zm-22.64 -20.45c-0.88,-5.49 0.27,-11.9 1.81,-17.94 0.62,-2.44 1.22,-5.07 1.56,-7.61 0.18,-1.39 0.67,-6.8 -1.07,-7.62 -0.23,0.01 -0.5,0.06 -0.8,0.14 -2.96,5.34 -4.65,11.49 -4.65,18.03 0,5.34 1.13,10.42 3.15,15.01l0 0z"/>
   <path class="fil7" d="M37.85 48.27c4.91,-0.02 8.26,-2.77 9.74,-6.28 2.85,-6.77 -1.18,-11.62 -1.23,-12.49l0.03 -0.18 -0.63 -0.34c0.69,3.09 -0.37,4.08 -1.85,5.5 -2.12,2.05 -5.47,1.57 -7.92,0.73 -0.16,-0.05 -0.38,-0.12 -0.58,-0.2l-6.73 -4.15c-0.53,-0.46 -0.99,-0.9 -1.55,-1.38 -0.53,-0.45 -1.06,-1 -1.53,-1.37 -0.13,-0.1 -0.3,-0.23 -0.43,-0.33 -0.09,-0.06 -0.17,-0.12 -0.27,-0.2l-2.88 -1.72c-1.57,-0.75 -3.08,-0.74 -4.84,-0.86 0.62,0.45 3.93,0.8 6.25,4.82 2.39,4.14 3.53,11.32 6.87,15.17 2.02,2.32 3.93,3.19 7.55,3.27l0 -0z"/>
   <path class="fil8" d="M37.5 49.05c0.18,-0.18 0.12,0.03 0.27,-0.35 0.04,-0.1 0.07,-0.33 0.08,-0.43 -3.62,-0.09 -5.53,-0.96 -7.55,-3.27 -3.35,-3.85 -4.48,-11.03 -6.87,-15.17 -2.32,-4.02 -5.63,-4.37 -6.25,-4.82l-1.09 -0.12c-0.24,0.01 -0.59,0.07 -0.96,0.16 -0.38,0.54 -0.75,1.09 -1.1,1.65 1.53,1.03 5.15,1.75 4.46,8.73 -0.45,4.57 -1.25,9.28 0.51,13.38 1.41,3.29 4.57,5.43 9.22,5.75 4.83,0.33 7.92,-2.38 9.29,-5.5l-0 0z"/>
   <path class="fil4" d="M62.2 37.48c-0.79,1.05 -1.23,1.91 -2.9,2.27 -0.7,0.16 -1.61,0.12 -2.29,-0.02 -0.99,-0.21 -1.21,-0.47 -1.94,-0.75 0.32,0.65 1.16,1.67 1.62,2.15 3.51,3.69 8.56,4.72 13.09,1.75 2.39,-1.57 2.16,-2.25 3.14,-4.19l0.01 0.59c0.67,-1.56 -0.16,-6.37 -0.6,-7.95 -1.19,-4.18 -4.24,-7.73 -7.72,-10.07 -2.22,-1.49 -3.56,-1.83 -6.15,-2.83l2.21 1.56c0.97,0.69 1.47,1.46 2.21,2.39 2.86,3.6 4.65,12.5 -0.67,15.1l0 0z"/>
   <path class="fil4" d="M16.08 24.88l1.09 0.12c1.76,0.12 3.27,0.11 4.84,0.86l2.88 1.72c0.1,0.07 0.18,0.13 0.27,0.2 0.14,0.1 0.31,0.23 0.43,0.33 0.47,0.38 1.01,0.93 1.53,1.37 0.56,0.48 1.02,0.92 1.55,1.38l6.73 4.15c0.2,0.07 0.43,0.14 0.58,0.2 2.44,0.84 5.8,1.32 7.92,-0.73 1.48,-1.43 2.54,-2.41 1.85,-5.5 -0.52,-0.66 -5.41,-2.69 -6.03,-2.9 -5.36,-1.86 -9.86,-2.68 -15.67,-2.45 -1.91,0.08 -6.61,0.51 -7.97,1.26l0 -0z"/>
   <path class="fil9" d="M38.33 16.47c0,2.67 0.55,4.43 2.49,5.66 5.11,3.23 4.95,-3.56 16.81,3.8 0.92,0.57 1.47,1.01 2.23,1.76 1.22,1.2 2.45,2.87 2.89,5.1 0.5,-0.73 -0.04,-2.82 -0.22,-3.36 -0.54,-1.58 -0.63,-1.68 -1.46,-2.94 -0.03,-0.05 -0.18,-0.27 -0.19,-0.29l-1.35 -1.72 -5.89 -4.2c-8.41,-5.03 -11.24,2.08 -11.15,-6 -3.06,0.47 -2.98,0.12 -4.17,2.18l-0 0z"/>
   <path class="fil10" d="M62.76 32.79c0.33,1.86 0.16,3.19 -0.55,4.69 5.32,-2.6 3.53,-11.5 0.67,-15.1 -0.74,-0.93 -1.24,-1.7 -2.21,-2.39l-2.21 -1.56c-4.94,-0.9 -7.09,-1.22 -12.23,-0.11 1.2,0.21 2.26,0.35 3.2,0.71 1.25,0.48 3.05,0.55 4.23,1.26l5.89 4.2 1.35 1.72c0.01,0.02 0.15,0.23 0.19,0.29 0.83,1.27 0.92,1.36 1.46,2.94 0.18,0.54 0.72,2.62 0.22,3.36l0 0z"/>
   <path class="fil3" d="M42.37 36.49c0.47,2.81 0.53,2.6 3.71,3.09 -1.1,-2.58 -0.45,-1.97 -3.71,-3.09z"/>
   <path class="fil6" d="M13.72 28.4c1.74,0.82 1.25,6.23 1.07,7.62 -0.34,2.54 -0.94,5.17 -1.56,7.61 -1.54,6.05 -2.69,12.45 -1.81,17.94 1.88,4.26 4.53,8.1 7.77,11.35 1.35,0.73 2.89,1.34 4.66,1.82 1.88,0.51 6.15,1.24 8.28,1l-0.01 -0.19c-0.79,-0.59 -1.57,-1.69 -2.11,-2.55 -2.03,-3.24 -2.26,-7.14 -0.45,-10.43 0.53,-0.96 1.11,-1.85 1.91,-2.54 1.54,-1.31 1.96,-1.94 3.64,-3.15 0.23,-0.42 0.51,-0.84 0.71,-1.24 0.29,-0.58 0.4,-1.08 0.6,-1.89 0.2,-0.81 0.48,-1.94 0.7,-2.8 0.22,-0.85 0.37,-1.43 0.87,-2.19 0.11,-0.16 0.23,-0.33 0.36,-0.5 -0.16,0.01 -0.33,0.01 -0.5,0.01 -0.01,0.1 -0.04,0.33 -0.08,0.43 -0.15,0.37 -0.09,0.16 -0.27,0.35 -0.84,3.42 -4.62,6.13 -8.59,6.42 -4.96,0.36 -8.44,-1.56 -10.48,-4.42 -4.39,-6.17 -0.23,-13.82 -1.19,-19.2 -0.32,-1.76 -1.79,-4.3 -3.51,-3.46l0 0z"/>
   <path class="fil7" d="M32.12 75.54c-1.08,-6.02 1.2,-14.35 4,-12.78 1.93,1.08 5.48,-0.02 7.5,-0.52 1.21,-0.3 2.35,-0.69 3.57,-0.87 1.97,-0.3 2.41,0.16 3.77,0.72 -0.05,-3.87 -7.38,-5.81 -8.53,-9.01 1.59,1.4 0.96,1.24 3.23,2.9 7.85,5.74 20.28,6.09 27.18,-1.29 0.54,-0.58 2.72,-2.85 1.91,-4.1 -0.42,0.13 -0.36,0.18 -0.63,0.48 -0.73,0.82 -0.48,0.74 -1.57,1.64 -0.87,0.71 -1.4,1.15 -2.47,1.81 -4.22,2.58 -9.46,2.76 -14.01,1 -1.54,-0.6 -4.73,-2.43 -5.37,-3.38 1.01,0.24 2.3,0.91 3.52,1.24 6.56,1.76 13.12,-0.55 16.43,-6.72 0.92,-1.71 2.28,-5.02 2.28,-7.39l-0.01 -0.59c-0.98,1.94 -0.75,2.62 -3.14,4.19 -4.53,2.97 -9.58,1.94 -13.09,-1.75 -0.46,-0.48 -1.3,-1.5 -1.62,-2.15 -0.18,-0.35 -0.65,-0.68 -1.2,-1.62 -0.37,-0.64 -0.64,-1.23 -0.97,-1.94 -0.61,-1.31 -1.63,-2.69 -2.61,-3.38 0.16,2.05 3.29,7.46 -1.81,13.93 -1.95,2.47 -4.32,4.56 -6.92,6.4 -0.16,0.11 -0.09,0.06 -0.27,0.18 -0.06,0.04 -0.3,0.22 -0.35,0.26l-1.97 1.39c-0.89,0.67 -1.76,1.25 -2.63,1.82 -2.78,1.83 -3.01,2.43 -4.88,4 -0.81,0.68 -1.38,1.57 -1.91,2.54 -1.81,3.29 -1.57,7.19 0.45,10.43 0.54,0.87 1.32,1.96 2.11,2.55l-0 0z"/>
   <path class="fil5" d="M6.53 37.01c-0.32,1.54 -1.06,2.93 -1.21,4.56 -0.14,1.5 -0.2,3 -0.17,4.49 0.07,-5.56 2.57,-11.25 4.67,-16.05 -2.46,1.33 -2.77,4.47 -3.29,6.99zm23.36 46.79c1.87,0.85 4.18,1.72 5.88,2.11l0.21 -0.06 -0.02 -0.06c-2.09,-0.51 -4.12,-1.18 -6.07,-2l0 -0zm4.18 -1.79c-0.18,-0.41 -0.34,-0.79 -0.46,-1.1 -0.71,-1.8 -1.03,-3.42 -1.47,-5.18 -2.13,0.24 -6.4,-0.49 -8.28,-1 -1.77,-0.48 -3.31,-1.09 -4.66,-1.82 4.12,4.11 9.2,7.27 14.87,9.1zm-22.64 -20.45c-0.88,-5.49 0.27,-11.9 1.81,-17.94 0.62,-2.44 1.22,-5.07 1.56,-7.61 0.18,-1.39 0.67,-6.8 -1.07,-7.62 -0.23,0.01 -0.5,0.06 -0.8,0.14 -2.96,5.34 -4.65,11.49 -4.65,18.03 0,5.34 1.13,10.42 3.15,15.01l0 0z"/>
   <path class="fil7" d="M37.85 48.27c4.91,-0.02 8.26,-2.77 9.74,-6.28 2.85,-6.77 -1.18,-11.62 -1.23,-12.49l0.03 -0.18 -0.63 -0.34c0.69,3.09 -0.37,4.08 -1.85,5.5 -2.12,2.05 -5.47,1.57 -7.92,0.73 -0.16,-0.05 -0.38,-0.12 -0.58,-0.2l-6.73 -4.15c-0.53,-0.46 -0.99,-0.9 -1.55,-1.38 -0.53,-0.45 -1.06,-1 -1.53,-1.37 -0.13,-0.1 -0.3,-0.23 -0.43,-0.33 -0.09,-0.06 -0.17,-0.12 -0.27,-0.2l-2.88 -1.72c-1.57,-0.75 -3.08,-0.74 -4.84,-0.86 0.62,0.45 3.93,0.8 6.25,4.82 2.39,4.14 3.53,11.32 6.87,15.17 2.02,2.32 3.93,3.19 7.55,3.27l0 -0z"/>
   <path class="fil11" d="M35.11 56.87c0.35,-0.25 0.76,-0.53 1.24,-0.85 0.87,-0.57 1.74,-1.15 2.63,-1.82l1.97 -1.39c0.05,-0.04 0.3,-0.22 0.35,-0.26 0.18,-0.12 0.11,-0.07 0.27,-0.18 2.59,-1.84 4.97,-3.93 6.92,-6.4 5.1,-6.47 1.97,-11.88 1.81,-13.93 -0.57,-0.71 -2.79,-2.22 -3.91,-2.72l-0.03 0.18c0.06,0.87 4.08,5.72 1.23,12.49 -1.43,3.39 -4.6,6.07 -9.24,6.27 -0.13,0.17 -0.25,0.34 -0.36,0.5 -0.5,0.76 -0.65,1.34 -0.87,2.19 -0.22,0.85 -0.5,1.98 -0.7,2.8 -0.2,0.81 -0.3,1.31 -0.6,1.89 -0.2,0.39 -0.48,0.82 -0.71,1.24l-0 -0z"/>
   <path class="fil8" d="M37.5 49.05c0.18,-0.18 0.12,0.03 0.27,-0.35 0.04,-0.1 0.07,-0.33 0.08,-0.43 -3.62,-0.09 -5.53,-0.96 -7.55,-3.27 -3.35,-3.85 -4.48,-11.03 -6.87,-15.17 -2.32,-4.02 -5.63,-4.37 -6.25,-4.82l-1.09 -0.12c-0.24,0.01 -0.59,0.07 -0.96,0.16 -0.38,0.54 -0.75,1.09 -1.1,1.65 1.53,1.03 5.15,1.75 4.46,8.73 -0.45,4.57 -1.25,9.28 0.51,13.38 1.41,3.29 4.57,5.43 9.22,5.75 4.83,0.33 7.92,-2.38 9.29,-5.5l-0 0z"/>
   <path class="fil4" d="M62.2 37.48c-0.79,1.05 -1.23,1.91 -2.9,2.27 -0.7,0.16 -1.61,0.12 -2.29,-0.02 -0.99,-0.21 -1.21,-0.47 -1.94,-0.75 0.32,0.65 1.16,1.67 1.62,2.15 3.51,3.69 8.56,4.72 13.09,1.75 2.39,-1.57 2.16,-2.25 3.14,-4.19l0.01 0.59c0.67,-1.56 -0.16,-6.37 -0.6,-7.95 -1.19,-4.18 -4.24,-7.73 -7.72,-10.07 -2.22,-1.49 -3.56,-1.83 -6.15,-2.83l2.21 1.56c0.97,0.69 1.47,1.46 2.21,2.39 2.86,3.6 4.65,12.5 -0.67,15.1l0 0z"/>
   <path class="fil4" d="M16.08 24.88l1.09 0.12c1.76,0.12 3.27,0.11 4.84,0.86l2.88 1.72c0.1,0.07 0.18,0.13 0.27,0.2 0.14,0.1 0.31,0.23 0.43,0.33 0.47,0.38 1.01,0.93 1.53,1.37 0.56,0.48 1.02,0.92 1.55,1.38l6.73 4.15c0.2,0.07 0.43,0.14 0.58,0.2 2.44,0.84 5.8,1.32 7.92,-0.73 1.48,-1.43 2.54,-2.41 1.85,-5.5 -0.52,-0.66 -5.41,-2.69 -6.03,-2.9 -5.36,-1.86 -9.86,-2.68 -15.67,-2.45 -1.91,0.08 -6.61,0.51 -7.97,1.26l0 -0z"/>
   <path class="fil9" d="M38.33 16.47c0,2.67 0.55,4.43 2.49,5.66 5.11,3.23 4.95,-3.56 16.81,3.8 0.92,0.57 1.47,1.01 2.23,1.76 1.22,1.2 2.45,2.87 2.89,5.1 0.5,-0.73 -0.04,-2.82 -0.22,-3.36 -0.54,-1.58 -0.63,-1.68 -1.46,-2.94 -0.03,-0.05 -0.18,-0.27 -0.19,-0.29l-1.35 -1.72 -5.89 -4.2c-8.41,-5.03 -11.24,2.08 -11.15,-6 -3.06,0.47 -2.98,0.12 -4.17,2.18l-0 0z"/>
   <path class="fil10" d="M62.76 32.79c0.33,1.86 0.16,3.19 -0.55,4.69 5.32,-2.6 3.53,-11.5 0.67,-15.1 -0.74,-0.93 -1.24,-1.7 -2.21,-2.39l-2.21 -1.56c-1.99,-0.36 -3.5,-0.74 -5.6,-0.88 -1.32,-0.09 -5.43,0.53 -6.54,0.77 1.2,0.21 2.37,-0.21 3.32,0.15 1.25,0.48 2.84,1.12 4.01,1.82l5.89 4.2 1.35 1.72c0.01,0.02 0.15,0.23 0.19,0.29 0.83,1.27 0.92,1.36 1.46,2.94 0.18,0.54 0.72,2.62 0.22,3.36l0 0z"/>
   <path class="fil3" d="M42.37 36.49c0.47,2.81 0.53,2.6 3.71,3.09 -1.1,-2.58 -0.45,-1.97 -3.71,-3.09z"/>
   <path class="fil12" d="M13.72 28.4c1.74,0.82 1.25,6.23 1.07,7.62 -0.34,2.54 -0.94,5.17 -1.56,7.61 -1.54,6.05 -2.69,12.45 -1.81,17.94 1.88,4.26 4.53,8.1 7.77,11.35 1.35,0.73 2.89,1.34 4.66,1.82 1.88,0.51 6.15,1.24 8.28,1l-0.01 -0.19c-0.79,-0.59 -1.57,-1.69 -2.11,-2.55 -2.03,-3.24 -2.26,-7.14 -0.45,-10.43 0.53,-0.96 1.11,-1.85 1.91,-2.54 1.54,-1.31 1.96,-1.94 3.64,-3.15 0.23,-0.42 0.51,-0.84 0.71,-1.24 0.29,-0.58 0.4,-1.08 0.6,-1.89 0.2,-0.81 0.48,-1.94 0.7,-2.8 0.22,-0.85 0.37,-1.43 0.87,-2.19 0.11,-0.16 0.23,-0.33 0.36,-0.5 -0.16,0.01 -0.33,0.01 -0.5,0.01 -0.01,0.1 -0.04,0.33 -0.08,0.43 -0.15,0.37 -0.09,0.16 -0.27,0.35 -0.84,3.42 -4.62,6.13 -8.59,6.42 -4.96,0.36 -8.44,-1.56 -10.48,-4.42 -4.39,-6.17 -0.23,-13.82 -1.19,-19.2 -0.32,-1.76 -1.79,-4.3 -3.51,-3.46l0 0z"/>
   <path class="fil0" d="M136.37 81.18c0,-0.29 0.1,-0.56 0.31,-0.76 0.21,-0.21 0.47,-0.32 0.76,-0.32 0.31,0 0.56,0.11 0.76,0.32 0.21,0.21 0.32,0.47 0.32,0.76 0,0.31 -0.11,0.56 -0.32,0.76 -0.21,0.21 -0.46,0.32 -0.76,0.32 -0.29,0 -0.56,-0.11 -0.76,-0.32 -0.21,-0.21 -0.31,-0.46 -0.31,-0.76z"/>
   <path id="_1" class="fil0" d="M141.48 81.18c0,-0.29 0.1,-0.56 0.31,-0.76 0.21,-0.21 0.47,-0.32 0.76,-0.32 0.31,0 0.56,0.11 0.76,0.32 0.21,0.21 0.32,0.47 0.32,0.76 0,0.31 -0.11,0.56 -0.32,0.76 -0.21,0.21 -0.46,0.32 -0.76,0.32 -0.29,0 -0.56,-0.11 -0.76,-0.32 -0.21,-0.21 -0.31,-0.46 -0.31,-0.76z"/>
   <path id="_2" class="fil0" d="M146.58 81.18c0,-0.29 0.1,-0.56 0.31,-0.76 0.21,-0.21 0.47,-0.32 0.76,-0.32 0.31,0 0.56,0.11 0.76,0.32 0.21,0.21 0.32,0.47 0.32,0.76 0,0.31 -0.11,0.56 -0.32,0.76 -0.21,0.21 -0.46,0.32 -0.76,0.32 -0.29,0 -0.56,-0.11 -0.76,-0.32 -0.21,-0.21 -0.31,-0.46 -0.31,-0.76z"/>
   <polygon id="_3" class="fil0" points="158.7,82.12 158.59,76.75 155.57,82.26 154.95,82.26 153.98,76.69 151.89,82.12 150.18,82.12 153.88,72.19 154.86,72.19 155.86,78.48 159.16,72.19 160.17,72.19 160.45,82.12 "/>
   <path id="_4" class="fil0" d="M167.92 79.51c-0.03,0.18 -0.04,0.36 -0.04,0.57 0,0.99 0.08,1.67 0.24,2.04l-1.07 0c-0.31,0 -0.54,-0.24 -0.69,-0.72 -0.58,0.57 -1.31,0.86 -2.17,0.86 -0.79,0 -1.4,-0.22 -1.83,-0.67 -0.43,-0.44 -0.64,-1.06 -0.64,-1.85 0,-1.39 0.42,-2.57 1.25,-3.56 0.83,-0.97 1.89,-1.47 3.15,-1.47 1.22,0 2.11,0.11 2.65,0.35l-0.85 4.45 -0 0zm-1.96 -3.4c-0.75,0 -1.36,0.36 -1.82,1.08 -0.44,0.74 -0.67,1.57 -0.67,2.52 0,0.78 0.38,1.17 1.15,1.17 0.49,0 0.9,-0.29 1.28,-0.9 0.36,-0.6 0.68,-1.85 0.97,-3.72 -0.32,-0.1 -0.62,-0.14 -0.92,-0.14z"/>
   <path id="_5" class="fil0" d="M174.64 82.12l-2.31 -2.99 -0.28 0.24 -0.49 2.75 -1.71 0 1.78 -10.24 1.67 0 -0.88 5.39 1.29 -1.11c0.86,-0.76 1.45,-1.35 1.74,-1.74l1.18 1.03c-0.19,0.24 -1.19,1.15 -3,2.74l3 3.93 -2 0 0 -0z"/>
   <path id="_6" class="fil0" d="M179.15 72.52c0,-0.31 0.1,-0.56 0.32,-0.75 0.21,-0.21 0.47,-0.31 0.78,-0.31 0.31,0 0.57,0.1 0.78,0.31 0.22,0.19 0.33,0.44 0.33,0.75 0,0.31 -0.11,0.56 -0.33,0.75 -0.21,0.21 -0.47,0.31 -0.78,0.31 -0.31,0 -0.56,-0.1 -0.78,-0.29 -0.21,-0.21 -0.32,-0.46 -0.32,-0.76l0 -0zm0.5 9.6l-1.72 0 1.1 -5.91 -0.93 0 0.29 -1.36 2.63 0 -1.36 7.27z"/>
   <path id="_7" class="fil0" d="M187.91 82.12l-1.75 0 0.79 -4.24c0.07,-0.33 0.1,-0.63 0.1,-0.85 0,-0.61 -0.36,-0.9 -1.07,-0.9 -0.6,0 -1.15,0.25 -1.63,0.76l-0.97 5.23 -1.71 0 1.03 -5.45c0.01,-0.1 0.03,-0.22 0.03,-0.39 0,-0.4 -0.07,-0.83 -0.2,-1.29l1.65 -0.31 0.17 0.81c0.6,-0.51 1.33,-0.78 2.24,-0.78 1.5,0 2.24,0.71 2.24,2.1 0,0.25 -0.03,0.54 -0.1,0.89l-0.82 4.42 0 -0z"/>
   <path id="_8" class="fil0" d="M196.06 76.12c0.1,0.22 0.15,0.5 0.15,0.81 0,0.71 -0.15,1.32 -0.46,1.83 -0.31,0.51 -0.82,0.95 -1.51,1.26 -0.69,0.32 -1.08,0.53 -1.15,0.65 0.31,-0.07 0.54,-0.1 0.72,-0.1 0.5,0 0.93,0.15 1.29,0.47 0.36,0.31 0.54,0.7 0.54,1.18 0,0.88 -0.32,1.56 -0.93,2.03 -0.63,0.47 -1.51,0.71 -2.68,0.71 -0.44,0 -0.92,-0.08 -1.45,-0.25 -0.53,-0.18 -0.95,-0.39 -1.28,-0.64l0.74 -1.29c0.65,0.47 1.32,0.69 2.01,0.69 1.26,0 1.89,-0.33 1.89,-1.01 0,-0.15 -0.07,-0.26 -0.19,-0.36 -0.13,-0.1 -0.32,-0.17 -0.58,-0.22l-1.29 -0.22c-0.49,-0.15 -0.74,-0.43 -0.74,-0.85 0,-0.24 0.21,-0.47 0.6,-0.72 -0.49,-0.14 -0.89,-0.4 -1.19,-0.79 -0.31,-0.39 -0.46,-0.82 -0.46,-1.29 0,-0.97 0.32,-1.76 0.96,-2.38 0.65,-0.61 1.49,-0.92 2.5,-0.92 0.63,0 1.15,0.14 1.57,0.4l0.64 -0.69 1 1 -0.69 0.69 0 -0zm-4.25 1.74c0,0.36 0.08,0.67 0.24,0.89 0.17,0.24 0.39,0.35 0.68,0.35 0.49,0 0.9,-0.2 1.22,-0.58 0.33,-0.4 0.5,-0.89 0.5,-1.45 0,-0.64 -0.33,-0.96 -1,-0.96 -0.5,0 -0.9,0.17 -1.19,0.49 -0.31,0.33 -0.44,0.75 -0.44,1.26l0 0z"/>
   <path id="_9" class="fil0" d="M204.17 81.55c-0.26,0.43 -0.67,0.64 -1.21,0.64 -0.42,0 -0.74,-0.14 -0.97,-0.4 -0.24,-0.26 -0.35,-0.61 -0.35,-1.04 0,-0.54 0.11,-1.33 0.32,-2.38l1.36 -6.49 1.68 0 -1.39 6.77c-0.2,0.96 -0.31,1.64 -0.31,2.06 0,0.26 0.08,0.47 0.25,0.63 0.17,0.15 0.36,0.22 0.61,0.22l-0 0z"/>
   <path id="_10" class="fil0" d="M207.57 72.52c0,-0.31 0.1,-0.56 0.32,-0.75 0.21,-0.21 0.47,-0.31 0.78,-0.31 0.31,0 0.57,0.1 0.78,0.31 0.22,0.19 0.33,0.44 0.33,0.75 0,0.31 -0.11,0.56 -0.33,0.75 -0.21,0.21 -0.47,0.31 -0.78,0.31 -0.31,0 -0.56,-0.1 -0.78,-0.29 -0.21,-0.21 -0.32,-0.46 -0.32,-0.76l0 -0zm0.5 9.6l-1.72 0 1.1 -5.91 -0.93 0 0.29 -1.36 2.63 0 -1.36 7.27z"/>
   <path id="_11" class="fil0" d="M216.22 73.49c-0.38,-0.15 -0.68,-0.24 -0.95,-0.24 -0.65,0 -1.1,0.53 -1.35,1.6l1.67 0 -0.17 1.36 -1.71 0 -1.08 6.37c-0.13,0.69 -0.44,1.26 -0.96,1.71 -0.51,0.44 -1.13,0.68 -1.82,0.68l-0.36 -1.13c0.32,-0.07 0.61,-0.24 0.86,-0.49 0.26,-0.25 0.42,-0.53 0.47,-0.85l1.14 -6.3 -1.03 0 0.22 -1.36 1.01 0c0.46,-1.99 1.51,-2.97 3.18,-2.97 0.46,0 0.86,0.1 1.2,0.29l-0.33 1.32 -0 -0z"/>
   <path id="_12" class="fil0" d="M217.93 78.97c0,0.11 0,0.22 0,0.31 0,0.5 0.14,0.89 0.44,1.17 0.31,0.26 0.72,0.4 1.25,0.4 0.29,0 0.61,-0.07 0.99,-0.24 0.38,-0.15 0.67,-0.32 0.88,-0.51l-0.19 1.78c-0.58,0.25 -1.28,0.39 -2.11,0.39 -0.89,0 -1.61,-0.29 -2.17,-0.85 -0.56,-0.57 -0.83,-1.35 -0.83,-2.34 0,-1.25 0.39,-2.28 1.2,-3.11 0.81,-0.83 1.86,-1.25 3.15,-1.25 0.76,0 1.39,0.17 1.86,0.49 0.47,0.32 0.71,0.79 0.71,1.39 0,0.82 -0.35,1.46 -1.06,1.93 -0.71,0.46 -1.58,0.69 -2.63,0.69 -0.5,0 -1,-0.08 -1.49,-0.25l-0 0zm0.33 -1.28c0.29,0.08 0.61,0.12 0.96,0.12 0.61,0 1.13,-0.1 1.56,-0.28 0.43,-0.19 0.64,-0.46 0.64,-0.82 0,-0.39 -0.43,-0.58 -1.29,-0.58 -0.33,0 -0.68,0.15 -1.04,0.44 -0.35,0.29 -0.63,0.67 -0.82,1.11l-0 0z"/>
   <path id="_13" class="fil0" d="M229.79 78.97c0,0.11 0,0.22 0,0.31 0,0.5 0.14,0.89 0.44,1.17 0.31,0.26 0.72,0.4 1.25,0.4 0.29,0 0.61,-0.07 0.99,-0.24 0.38,-0.15 0.67,-0.32 0.88,-0.51l-0.19 1.78c-0.58,0.25 -1.28,0.39 -2.11,0.39 -0.89,0 -1.61,-0.29 -2.17,-0.85 -0.56,-0.57 -0.83,-1.35 -0.83,-2.34 0,-1.25 0.39,-2.28 1.2,-3.11 0.81,-0.83 1.86,-1.25 3.15,-1.25 0.76,0 1.39,0.17 1.86,0.49 0.47,0.32 0.71,0.79 0.71,1.39 0,0.82 -0.35,1.46 -1.06,1.93 -0.71,0.46 -1.58,0.69 -2.63,0.69 -0.5,0 -1,-0.08 -1.49,-0.25l-0 0zm0.33 -1.28c0.29,0.08 0.61,0.12 0.96,0.12 0.61,0 1.13,-0.1 1.56,-0.28 0.43,-0.19 0.64,-0.46 0.64,-0.82 0,-0.39 -0.43,-0.58 -1.29,-0.58 -0.33,0 -0.68,0.15 -1.04,0.44 -0.35,0.29 -0.63,0.67 -0.82,1.11l-0 0z"/>
   <path id="_14" class="fil0" d="M241.84 79.51c-0.03,0.18 -0.04,0.36 -0.04,0.57 0,0.99 0.08,1.67 0.24,2.04l-1.07 0c-0.31,0 -0.54,-0.24 -0.69,-0.72 -0.58,0.57 -1.31,0.86 -2.17,0.86 -0.79,0 -1.4,-0.22 -1.83,-0.67 -0.43,-0.44 -0.64,-1.06 -0.64,-1.85 0,-1.39 0.42,-2.57 1.25,-3.56 0.83,-0.97 1.89,-1.47 3.15,-1.47 1.22,0 2.11,0.11 2.65,0.35l-0.85 4.45 -0 0zm-1.96 -3.4c-0.75,0 -1.36,0.36 -1.82,1.08 -0.44,0.74 -0.67,1.57 -0.67,2.52 0,0.78 0.38,1.17 1.15,1.17 0.49,0 0.9,-0.29 1.28,-0.9 0.36,-0.6 0.68,-1.85 0.97,-3.72 -0.32,-0.1 -0.63,-0.14 -0.92,-0.14z"/>
   <path id="_15" class="fil0" d="M248.74 76.84c-0.54,-0.47 -1.04,-0.71 -1.49,-0.71 -0.28,0 -0.53,0.06 -0.74,0.2 -0.2,0.13 -0.31,0.29 -0.31,0.51 0,0.26 0.25,0.53 0.74,0.78 0.49,0.25 0.86,0.44 1.13,0.6 0.26,0.14 0.49,0.33 0.65,0.58 0.17,0.26 0.25,0.54 0.25,0.88 0,0.79 -0.31,1.43 -0.9,1.89 -0.6,0.46 -1.36,0.69 -2.29,0.69 -0.79,0 -1.57,-0.22 -2.34,-0.68l0.89 -1.53c0.57,0.53 1.13,0.79 1.67,0.79 0.35,0 0.63,-0.08 0.85,-0.25 0.22,-0.18 0.33,-0.4 0.33,-0.71 0,-0.24 -0.21,-0.47 -0.63,-0.69 -0.43,-0.22 -0.81,-0.42 -1.14,-0.61 -0.32,-0.18 -0.57,-0.4 -0.74,-0.67 -0.17,-0.26 -0.25,-0.56 -0.25,-0.88 0,-0.71 0.28,-1.26 0.83,-1.7 0.57,-0.42 1.26,-0.63 2.08,-0.63 0.56,0 1.28,0.2 2.18,0.57l-0.79 1.56 0 -0z"/>
   <path id="_16" class="fil0" d="M253.97 82.85c-0.68,1.4 -1.99,2.11 -3.92,2.13l0 -1.64c1.28,0 2.1,-0.42 2.46,-1.24l0.35 -0.82c-0.61,-0.17 -1.04,-0.82 -1.25,-1.95l-0.86 -4.47 1.78 0c0.53,3.18 0.88,4.85 1.01,4.99l2.34 -4.99 1.92 0 -3.82 7.99 0 0z"/>
   <path id="_17" class="fil0" d="M268.09 73.49c-0.38,-0.15 -0.68,-0.24 -0.95,-0.24 -0.65,0 -1.1,0.53 -1.35,1.6l1.67 0 -0.17 1.36 -1.71 0 -1.08 6.37c-0.13,0.69 -0.44,1.26 -0.96,1.71 -0.51,0.44 -1.13,0.68 -1.82,0.68l-0.36 -1.13c0.32,-0.07 0.61,-0.24 0.86,-0.49 0.26,-0.25 0.42,-0.53 0.47,-0.85l1.14 -6.3 -1.03 0 0.22 -1.36 1.01 0c0.46,-1.99 1.51,-2.97 3.18,-2.97 0.46,0 0.86,0.1 1.2,0.29l-0.33 1.32 -0 -0z"/>
   <path id="_18" class="fil0" d="M267.97 79.4c0,-1.31 0.4,-2.42 1.21,-3.32 0.79,-0.9 1.81,-1.36 3.03,-1.36 0.94,0 1.67,0.25 2.17,0.74 0.51,0.49 0.76,1.17 0.76,2.07 0,1.33 -0.4,2.46 -1.19,3.38 -0.79,0.9 -1.81,1.36 -3.06,1.36 -0.92,0 -1.64,-0.25 -2.15,-0.74 -0.5,-0.5 -0.76,-1.19 -0.76,-2.13l-0 -0zm1.76 -0.08c0,1.04 0.44,1.56 1.33,1.56 0.71,0 1.26,-0.32 1.68,-0.97 0.42,-0.65 0.61,-1.43 0.61,-2.34 0,-0.97 -0.44,-1.46 -1.33,-1.46 -0.69,0 -1.25,0.32 -1.67,0.96 -0.42,0.65 -0.63,1.4 -0.63,2.25l0 0z"/>
   <path id="_19" class="fil0" d="M281.3 76.58c-0.4,-0.29 -0.75,-0.44 -1.06,-0.44 -0.44,0 -0.85,0.2 -1.21,0.57 -0.36,0.39 -0.6,0.82 -0.69,1.32l-0.76 4.1 -1.7 0 1.35 -7.27 1.71 0 -0.11 0.63c0.6,-0.5 1.26,-0.76 1.99,-0.76 0.19,0 0.51,0.04 1,0.14l-0.51 1.72z"/>
   <path id="_20" class="fil0" d="M292.5 79.51c-0.03,0.18 -0.04,0.36 -0.04,0.57 0,0.99 0.08,1.67 0.24,2.04l-1.07 0c-0.31,0 -0.54,-0.24 -0.69,-0.72 -0.58,0.57 -1.31,0.86 -2.17,0.86 -0.79,0 -1.4,-0.22 -1.83,-0.67 -0.43,-0.44 -0.64,-1.06 -0.64,-1.85 0,-1.39 0.42,-2.57 1.25,-3.56 0.83,-0.97 1.89,-1.47 3.15,-1.47 1.22,0 2.11,0.11 2.65,0.35l-0.85 4.45 -0 0zm-1.96 -3.4c-0.75,0 -1.36,0.36 -1.82,1.08 -0.44,0.74 -0.67,1.57 -0.67,2.52 0,0.78 0.38,1.17 1.15,1.17 0.49,0 0.9,-0.29 1.28,-0.9 0.36,-0.6 0.68,-1.85 0.97,-3.72 -0.32,-0.1 -0.63,-0.14 -0.92,-0.14z"/>
   <path id="_21" class="fil0" d="M297.28 81.55c-0.26,0.43 -0.67,0.64 -1.21,0.64 -0.42,0 -0.74,-0.14 -0.97,-0.4 -0.24,-0.26 -0.35,-0.61 -0.35,-1.04 0,-0.54 0.11,-1.33 0.32,-2.38l1.36 -6.49 1.68 0 -1.39 6.77c-0.2,0.96 -0.31,1.64 -0.31,2.06 0,0.26 0.08,0.47 0.25,0.63 0.17,0.15 0.36,0.22 0.61,0.22l-0 0z"/>
   <path id="_22" class="fil0" d="M301.72 81.55c-0.26,0.43 -0.67,0.64 -1.21,0.64 -0.42,0 -0.74,-0.14 -0.97,-0.4 -0.24,-0.26 -0.35,-0.61 -0.35,-1.04 0,-0.54 0.11,-1.33 0.32,-2.38l1.36 -6.49 1.68 0 -1.39 6.77c-0.2,0.96 -0.31,1.64 -0.31,2.06 0,0.26 0.08,0.47 0.25,0.63 0.17,0.15 0.36,0.22 0.61,0.22l-0 0z"/>
  </g>
 </g>
</svg>
