<?xml version="1.0" encoding="UTF-8"?>
<!DOCTYPE svg PUBLIC "-//W3C//DTD SVG 1.1//EN" "http://www.w3.org/Graphics/SVG/1.1/DTD/svg11.dtd">
<!-- Creator: CorelDRAW 2019 (64-Bit) -->
<svg xmlns="http://www.w3.org/2000/svg" xml:space="preserve" width="3.125in" height="3.125in" version="1.1" style="shape-rendering:geometricPrecision; text-rendering:geometricPrecision; image-rendering:optimizeQuality; fill-rule:evenodd; clip-rule:evenodd"
viewBox="0 0 3125 3125"
 xmlns:xlink="http://www.w3.org/1999/xlink"
 xmlns:xodm="http://www.corel.com/coreldraw/odm/2003">
 <defs>
  <style type="text/css">
   <![CDATA[
    .fil1 {fill:#FEFDFF}
    .fil0 {fill:url(#id0)}
   ]]>
  </style>
  <linearGradient id="id0" gradientUnits="userSpaceOnUse" x1="1562.5" y1="0" x2="1556.46" y2="3125">
   <stop offset="0" style="stop-opacity:1; stop-color:#8E58E8"/>
   <stop offset="1" style="stop-opacity:1; stop-color:#B361FF"/>
  </linearGradient>
 </defs>
 <g id="Layer_x0020_1">
  <metadata id="CorelCorpID_0Corel-Layer"/>
  <g id="_2579969078304">
   <path class="fil0" d="M-0 1403.93l0 302.56c26.82,65.4 36.85,205.22 60.28,288.24 50.14,177.61 131.98,341.44 237.3,485.16 112.55,153.57 78.81,92.57 170.43,191.09 178.36,191.78 423.99,331.82 684.24,399.43 75.06,19.5 255.94,38.43 301.54,54.59l205.33 0c130.37,-43.14 246.52,-0.11 566.09,-148.81 332.65,-154.78 582.88,-399.43 742.13,-731.91 154.86,-323.32 111.83,-442.34 157.65,-573.46l0 -225.63c-57.91,-149.66 0.21,-362.37 -292.06,-792.01 -44.52,-65.44 -110.77,-146.7 -155.41,-191.88 -411.22,-416.28 -824.17,-403.42 -960.2,-461.3l-309.69 0c-132.07,56.19 -393.41,25.5 -762.81,297.35l-275.35 252.67c-361.93,449.12 -300.13,685.14 -369.5,853.91z"/>
   <path class="fil1" d="M1657.09 1791.12c-71.47,25.03 -131.47,81.4 -199.06,106.95 1.04,302.54 -54.69,221.89 424.24,496.9 167.38,96.11 155.72,79.34 319.36,-12.96 459.25,-259.04 402.79,-188.48 402.77,-507 -0,-121.59 34.93,-335.41 -46.48,-405.06 -54.54,-46.67 -215.56,-125.5 -288.71,-169.16 -84.42,-50.38 -206.84,-150.34 -313.51,-94.78 -95.59,49.79 -190.66,117.26 -287.82,170.91 -110.52,61.03 -512.11,325.5 -609.22,304.06 -29.28,-6.46 -277.98,-150.23 -295.02,-166.93 -51.71,-50.69 -57.48,-318.33 -31.92,-407.72 20.35,-71.2 196.22,-149.5 269.71,-188.43 124.32,-65.84 222.68,23.02 321.52,78.05 161.85,90.1 144.03,103.59 139.53,320.89 54.5,-16.77 144.62,-79.1 202.65,-110.73 9.78,-205.89 25.63,-235.8 -122.13,-318.49 -101.17,-56.61 -195.97,-111.17 -290.09,-168.18 -219.73,-133.07 -200.31,-48.61 -610.33,173.26 -141.08,76.34 -122.02,50.91 -121.96,315.66 0.09,461.66 -69.39,371.95 319.46,590.3 91.39,51.31 211.99,161.92 327.67,105.04 157.12,-77.26 403.97,-240.25 570.76,-332.12 70.81,-39 228.52,-152.36 313.8,-139.18 36.1,5.58 270.02,139.45 296.78,162.51 54.7,47.13 46.11,98.28 45.61,182.8 -1.63,276.33 41.68,234.4 -283.75,417.27 -144.5,81.2 -425.5,-139.61 -443.02,-183.1 -20.37,-50.59 -11.41,-160.5 -10.82,-220.74z"/>
  </g>
 </g>
</svg>
