<?xml version="1.0" encoding="UTF-8"?>
<!DOCTYPE svg PUBLIC "-//W3C//DTD SVG 1.1//EN" "http://www.w3.org/Graphics/SVG/1.1/DTD/svg11.dtd">
<!-- Creator: CorelDRAW -->
<svg xmlns="http://www.w3.org/2000/svg" xml:space="preserve" width="0.952819in" height="0.952819in" version="1.1" style="shape-rendering:geometricPrecision; text-rendering:geometricPrecision; image-rendering:optimizeQuality; fill-rule:evenodd; clip-rule:evenodd"
viewBox="0 0 4.32 4.32"
 xmlns:xlink="http://www.w3.org/1999/xlink"
 xmlns:xodm="http://www.corel.com/coreldraw/odm/2003">
 <defs>
  <style type="text/css">
   <![CDATA[
    .fil5 {fill:none}
    .fil2 {fill:#201D30}
    .fil3 {fill:url(#id0)}
    .fil4 {fill:url(#id1)}
    .fil1 {fill:url(#id2)}
    .fil0 {fill:url(#id3)}
   ]]>
  </style>
  <linearGradient id="id0" gradientUnits="userSpaceOnUse" x1="3.39" y1="3" x2="3.88" y2="3.67">
   <stop offset="0" style="stop-opacity:1; stop-color:#7A5FC0"/>
   <stop offset="1" style="stop-opacity:1; stop-color:#1D0A2D"/>
  </linearGradient>
  <linearGradient id="id1" gradientUnits="userSpaceOnUse" xlink:href="#id0" x1="0.36" y1="3" x2="0.85" y2="3.67">
  </linearGradient>
  <linearGradient id="id2" gradientUnits="userSpaceOnUse" xlink:href="#id0" x1="1.83" y1="3.09" x2="2.35" y2="4.1">
  </linearGradient>
  <linearGradient id="id3" gradientUnits="userSpaceOnUse" xlink:href="#id0" x1="1.59" y1="0.4" x2="2.6" y2="1.52">
  </linearGradient>
 </defs>
 <g id="Layer_x0020_1">
  <metadata id="CorelCorpID_0Corel-Layer"/>
  <g id="_105553459539456">
   <g>
    <path class="fil0" d="M1.78 0.82l-0.16 -0.07c-0.08,-0.03 -0.19,-0.11 -0.27,-0.03 -0.06,0.07 -0.04,0.12 -0.02,0.2 0.01,0.03 0.02,0.08 0.02,0.11 0.01,0.08 0.03,0.15 0.04,0.23 0.01,0.07 0.04,0.29 0.07,0.33 0.02,0.02 0.05,0.05 0.09,0.05l1.21 0c0.08,0 0.11,-0.09 0.12,-0.15 0.02,-0.09 0.13,-0.64 0.13,-0.69 0,-0.06 -0.06,-0.12 -0.14,-0.12 -0.05,0 -0.19,0.07 -0.25,0.1 -0.03,0.01 -0.06,0.03 -0.08,0.04 -0.01,-0.02 -0.02,-0.05 -0.04,-0.07l-0.21 -0.35c-0.06,-0.1 -0.06,-0.11 -0.16,-0.11 -0.07,0 -0.11,0.1 -0.15,0.17l-0.2 0.35z"/>
    <path class="fil1" d="M1.22 3.69c0,0.14 -0.03,0.34 0.14,0.34l1.61 0c0.17,0 0.14,-0.21 0.14,-0.34 0,-0.29 -0.21,-0.51 -0.45,-0.51l-0.99 0c-0.12,0 -0.26,0.07 -0.32,0.15 -0.07,0.09 -0.12,0.2 -0.12,0.36z"/>
    <path class="fil2" d="M1.65 2.38l0 0.06c0,0.24 0.24,0.48 0.48,0.48l0.06 0c0.24,0 0.48,-0.24 0.48,-0.48l0 -0.06c0,-0.24 -0.24,-0.48 -0.48,-0.48l-0.06 0c-0.24,0 -0.48,0.24 -0.48,0.48z"/>
    <path class="fil3" d="M3.16 3.02c0.02,0.06 0.28,0.2 0.28,0.66l0.65 0c0.05,0 0.11,-0.06 0.11,-0.11 0,-0.17 -0,-0.32 -0.15,-0.45 -0.19,-0.16 -0.42,-0.12 -0.7,-0.12 -0.05,0 -0.06,0 -0.1,0.01 -0.04,0 -0.06,0.01 -0.09,0.02z"/>
    <path class="fil4" d="M0.12 3.45l0 0.13c0,0.05 0.06,0.11 0.11,0.11l0.65 0c0,-0.47 0.26,-0.6 0.28,-0.66 -0.05,-0 -0.09,-0.02 -0.19,-0.02 -0.28,0 -0.51,-0.04 -0.7,0.12 -0.07,0.06 -0.15,0.19 -0.15,0.32z"/>
    <path class="fil2" d="M3.18 2.47c0,0.17 0.06,0.28 0.21,0.35 0.26,0.11 0.56,-0.15 0.45,-0.45 -0.04,-0.1 -0.16,-0.21 -0.29,-0.21 -0.11,0 -0.19,0.02 -0.27,0.1 -0.04,0.04 -0.1,0.13 -0.1,0.21z"/>
    <path class="fil2" d="M1.14 2.52c0,-0.11 -0.02,-0.19 -0.09,-0.27 -0.23,-0.24 -0.65,-0.03 -0.58,0.32 0.02,0.08 0.05,0.12 0.09,0.16 0.04,0.04 0.08,0.07 0.16,0.09 0.08,0.02 0.14,0.01 0.21,-0.01 0.1,-0.04 0.21,-0.16 0.21,-0.29z"/>
   </g>
   <rect class="fil5" width="4.32" height="4.32"/>
  </g>
 </g>
</svg>
