<?xml version="1.0" encoding="UTF-8"?>
<!DOCTYPE svg PUBLIC "-//W3C//DTD SVG 1.1//EN" "http://www.w3.org/Graphics/SVG/1.1/DTD/svg11.dtd">
<!-- Creator: CorelDRAW -->
<svg xmlns="http://www.w3.org/2000/svg" xml:space="preserve" width="4.22667in" height="4.22667in" version="1.1" style="shape-rendering:geometricPrecision; text-rendering:geometricPrecision; image-rendering:optimizeQuality; fill-rule:evenodd; clip-rule:evenodd"
viewBox="0 0 65.09 65.09"
 xmlns:xlink="http://www.w3.org/1999/xlink"
 xmlns:xodm="http://www.corel.com/coreldraw/odm/2003">
 <defs>
  <style type="text/css">
   <![CDATA[
    .str0 {stroke:#212528;stroke-width:0.86;stroke-miterlimit:2.61313}
    .fil0 {fill:none}
    .fil13 {fill:#7A5FC0}
    .fil3 {fill:url(#id0)}
    .fil4 {fill:url(#id1)}
    .fil5 {fill:url(#id2)}
    .fil9 {fill:url(#id3)}
    .fil7 {fill:url(#id4)}
    .fil12 {fill:url(#id5)}
    .fil6 {fill:url(#id6)}
    .fil8 {fill:url(#id7)}
    .fil1 {fill:url(#id8)}
    .fil10 {fill:url(#id9)}
    .fil11 {fill:url(#id10)}
    .fil2 {fill:url(#id11)}
   ]]>
  </style>
  <linearGradient id="id0" gradientUnits="userSpaceOnUse" x1="45.31" y1="32.78" x2="39.96" y2="47.74">
   <stop offset="0" style="stop-opacity:1; stop-color:#BCAAEB"/>
   <stop offset="1" style="stop-opacity:1; stop-color:#200D32"/>
  </linearGradient>
  <linearGradient id="id1" gradientUnits="userSpaceOnUse" xlink:href="#id0" x1="46.03" y1="29.21" x2="38" y2="51.61">
  </linearGradient>
  <linearGradient id="id2" gradientUnits="userSpaceOnUse" xlink:href="#id0" x1="58.86" y1="47.6" x2="54.84" y2="58.81">
  </linearGradient>
  <linearGradient id="id3" gradientUnits="userSpaceOnUse" xlink:href="#id0" x1="42.86" y1="22.62" x2="38.96" y2="25.62">
  </linearGradient>
  <linearGradient id="id4" gradientUnits="userSpaceOnUse" xlink:href="#id0" x1="58.91" y1="44.5" x2="58.11" y2="48.55">
  </linearGradient>
  <linearGradient id="id5" gradientUnits="userSpaceOnUse" xlink:href="#id0" x1="49.44" y1="24.74" x2="47.26" y2="27.7">
  </linearGradient>
  <linearGradient id="id6" gradientUnits="userSpaceOnUse" xlink:href="#id0" x1="58.51" y1="28.51" x2="52.99" y2="29.91">
  </linearGradient>
  <linearGradient id="id7" gradientUnits="userSpaceOnUse" xlink:href="#id0" x1="28.04" y1="33.96" x2="24.01" y2="36.92">
  </linearGradient>
  <linearGradient id="id8" gradientUnits="userSpaceOnUse" xlink:href="#id0" x1="35.59" y1="12.3" x2="28.94" y2="44.64">
  </linearGradient>
  <linearGradient id="id9" gradientUnits="userSpaceOnUse" xlink:href="#id0" x1="35.44" y1="28.26" x2="31.49" y2="31.25">
  </linearGradient>
  <linearGradient id="id10" gradientUnits="userSpaceOnUse" xlink:href="#id0" x1="20.22" y1="34.87" x2="17.07" y2="37.8">
  </linearGradient>
  <linearGradient id="id11" gradientUnits="userSpaceOnUse" xlink:href="#id0" x1="26.89" y1="44.09" x2="24.46" y2="60.59">
  </linearGradient>
 </defs>
 <g id="Layer_x0020_1">
  <metadata id="CorelCorpID_0Corel-Layer"/>
  <g id="_105553529513568">
   <rect class="fil0" x="-0" y="-0" width="65.09" height="65.09"/>
   <g>
    <g>
     <path class="fil0 str0" d="M19.73 14.14l1.76 0 0 1.76 -1.76 0 0 -1.76zm-3.72 0l1.86 0 0 1.76 -1.86 0 0 -1.76zm-3.72 0l1.86 0 0 1.76 -1.86 0 0 -1.76zm-2.79 -0.31l0 28.11 20.77 0c-0.31,-1.34 -0.03,-1.86 -0.52,-1.86l-18.4 0 0 -1.86 3.72 0 0 -6.2c0,-1.66 1.61,-1.24 4.13,-1.24 0.58,0 1.34,0.2 1.34,0.72l0 6.72 1.96 0 0 -8.27c0,-1.43 2.19,-1.03 4.13,-1.03 0.58,0 1.34,0.2 1.34,0.72l0 8.58 1.96 0 0 -13.95c0,-0.5 0.33,-0.83 0.83,-0.83 5.05,0 4.65,-0.43 4.65,2.07 -0,1 0,2 0,3 0.48,-0.13 1.24,-0.87 1.96,-1.03l-0 -7.75c-0,-2.28 -0.25,-1.86 4.65,-1.86 0.95,0 0.83,1.01 0.83,1.96l-0.01 5.59c-0.01,0.77 -0.39,0.87 1.97,0.92l0 -3.93c0,-0.5 0.33,-0.83 0.83,-0.83 5.52,0 4.65,-0.87 4.65,4.75 0,1.31 -0.2,2.02 0.33,2.46 0.26,0.21 0.52,0.35 0.77,0.57 0.3,0.25 0.44,0.48 0.75,0.69l0.02 -13c0.07,-0.57 0.21,-1.06 0.91,-1.06l3.93 0c0.44,0 0.72,0.64 0.72,1.14l0 21.08 1.86 0 0 1.86 -3.82 0c0,0.82 -0.19,1.21 -0.21,1.86l5.89 0 0 -28.11c0,-0.85 -0.86,-1.65 -2.07,-1.65l-47.85 0c-0.58,0 -1.09,0.16 -1.42,0.44 -0.25,0.21 -0.64,0.8 -0.64,1.22z"/>
     <path class="fil0 str0" d="M9.5 45.76c0,2.28 3.15,1.76 4.44,1.76l15.5 0c3.19,-0 2.47,0.4 1.1,5.03 -0.21,0.72 -1.16,3.7 -1.2,4.17l-3.31 -0.01c-0.98,-0.02 -0.82,-0.19 -0.82,1.66 0,0.24 0.07,0.31 0.31,0.31l19.95 0c0.47,0 0.31,-0.53 0.31,-1.65 0,-0.5 -0.91,-0.31 -1.86,-0.31 -0.76,0 -1.52,0 -2.27,0 -0.05,-0.55 -0.54,-1.93 -0.71,-2.49 -0.25,-0.82 -0.54,-1.61 -0.74,-2.47 -0.7,-0.02 -2.63,-0.78 -3.16,-1.08 -0.99,-0.55 -1.73,-1.01 -2.6,-1.74 -1.16,-0.98 -3.16,-3.49 -3.54,-5.14l-21.39 0 0 1.96z"/>
     <path class="fil0 str0" d="M39.16 39.15l-1.76 0c0,-1.21 0.35,-2.4 1.06,-3.28 0.7,-0.86 1.2,-1.33 2.24,-1.79 0.6,-0.27 1.35,-0.44 2.18,-0.51l0 1.86c-0.7,0 -1.09,0.09 -1.66,0.4 -1.19,0.65 -2.02,1.74 -2.06,3.32zm-3.72 0c0,5.4 5.78,9.06 10.58,6.75 1.08,-0.52 1.85,-1.06 2.58,-1.97 4.06,-5.04 0.73,-12.23 -5.92,-12.23 -3.91,0 -7.23,3.5 -7.23,7.44z"/>
     <path class="fil0 str0" d="M43.5 48.35c-2.24,0 -4.1,-0.29 -5.97,-1.68 -0.86,-0.64 -1.6,-1.34 -2.21,-2.23 -0.32,-0.46 -0.56,-0.96 -0.81,-1.46 -2.19,-4.4 -0,-10.34 4.72,-12.33 3.61,-1.53 7.39,-0.67 10.22,1.94 3.43,3.17 3.71,9.41 0.18,12.9 -1.56,1.54 -3.66,2.87 -6.12,2.87zm-0.83 1.96c3.71,0 5.61,-1.13 8.02,-3.14 0.27,-0.22 0.32,-0.39 0.58,-0.66 0.25,-0.25 0.41,-0.45 0.61,-0.73 1.11,-1.51 2.15,-3.86 2.15,-5.91 0,-2.3 -0.03,-3.48 -1.1,-5.62 -0.33,-0.65 -0.56,-1.09 -0.96,-1.62 -2.33,-3.08 -5.3,-4.65 -9.41,-4.65 -3.22,0 -5.98,1.7 -7.62,3.33 -1.97,1.95 -3.24,5.06 -3.24,7.83 0,3.27 1.55,6.35 3.96,8.45 1.84,1.6 4.4,2.71 7.01,2.71z"/>
     <path class="fil0 str0" d="M51.23 49.36c0.49,0.34 5.74,5.69 6.61,6.56 0.7,0.7 2.27,2.86 3.93,1.3 0.63,-0.59 0.64,-1.04 0.64,-1.71l0 -0.03c0,-0.85 -1.32,-1.89 -1.83,-2.4 -0.86,-0.86 -6.08,-6.18 -6.54,-6.49l-2.82 2.77z"/>
     <path class="fil0 str0" d="M54.05 32.33c0,0.44 1.76,2.94 1.76,5.89l0.1 -20.46 -1.86 0 0 14.57z"/>
     <path class="fil0 str0" d="M54.77 44.42c0,0.28 2.82,3.1 3.1,3.1 3.59,0 3.62,-0.22 3.62,-3.72l-6.51 0c-0.07,0.28 -0.21,0.42 -0.21,0.62z"/>
     <polygon class="fil0 str0" points="24.28,38.22 26.24,38.22 26.24,30.78 24.28,30.78 "/>
     <path class="fil0 str0" d="M39.16 26.75c0.59,-0.14 1.27,-0.4 1.96,-0.41l0 -6.72 -1.96 0 0 7.13z"/>
     <path class="fil0 str0" d="M31.72 32.43c0.37,-0.14 0.53,-0.68 0.96,-1.21 0.33,-0.41 1,-1.07 1,-1.27l0 -4.75 -1.96 0 0 7.23z"/>
     <polygon class="fil0 str0" points="16.94,38.22 18.8,38.22 18.8,32.64 16.94,32.64 "/>
     <path class="fil0 str0" d="M46.61 26.75c0.31,0.07 0.68,0.2 0.94,0.3 0.44,0.16 0.48,0.31 1.02,0.32l0 -4.03 -1.96 0 0 3.41z"/>
    </g>
    <g>
     <path class="fil1" d="M20.65 14.92l1.76 0 0 1.76 -1.76 0 0 -1.76zm-3.72 0l1.86 0 0 1.76 -1.86 0 0 -1.76zm-3.72 0l1.86 0 0 1.76 -1.86 0 0 -1.76zm-2.79 -0.31l0 28.11 20.77 0c-0.31,-1.34 -0.03,-1.86 -0.52,-1.86l-18.4 0 0 -1.86 3.72 0 0 -6.2c0,-1.66 1.61,-1.24 4.13,-1.24 0.58,0 1.34,0.2 1.34,0.72l0 6.72 1.96 0 0 -8.27c0,-1.43 2.19,-1.03 4.13,-1.03 0.58,0 1.34,0.2 1.34,0.72l0 8.58 1.96 0 0 -13.95c0,-0.5 0.33,-0.83 0.83,-0.83 5.05,0 4.65,-0.43 4.65,2.07 -0,1 0,2 0,3 0.48,-0.13 1.24,-0.87 1.96,-1.03l-0 -7.75c-0,-2.28 -0.25,-1.86 4.65,-1.86 0.95,0 0.83,1.01 0.83,1.96l-0.01 5.59c-0.01,0.77 -0.39,0.87 1.97,0.92l0 -3.93c0,-0.5 0.33,-0.83 0.83,-0.83 5.52,0 4.65,-0.87 4.65,4.75 0,1.31 -0.2,2.02 0.33,2.46 0.26,0.21 0.52,0.35 0.77,0.57 0.3,0.25 0.44,0.48 0.75,0.69l0.02 -13c0.07,-0.57 0.21,-1.06 0.91,-1.06l3.93 0c0.44,0 0.72,0.64 0.72,1.14l0 21.08 1.86 0 0 1.86 -3.82 0c0,0.82 -0.19,1.21 -0.21,1.86l5.89 0 0 -28.11c0,-0.85 -0.86,-1.65 -2.07,-1.65l-47.85 0c-0.58,0 -1.09,0.16 -1.42,0.44 -0.25,0.21 -0.64,0.8 -0.64,1.22z"/>
     <path class="fil2" d="M10.42 46.55c0,2.28 3.15,1.76 4.44,1.76l15.5 0c3.19,-0 2.47,0.4 1.1,5.03 -0.21,0.72 -1.16,3.7 -1.2,4.17l-3.31 -0.01c-0.98,-0.02 -0.82,-0.19 -0.82,1.66 0,0.24 0.07,0.31 0.31,0.31l19.95 0c0.47,0 0.31,-0.53 0.31,-1.65 0,-0.5 -0.91,-0.31 -1.86,-0.31 -0.76,0 -1.52,0 -2.27,0 -0.05,-0.55 -0.54,-1.93 -0.71,-2.49 -0.25,-0.82 -0.54,-1.61 -0.74,-2.47 -0.7,-0.02 -2.63,-0.78 -3.16,-1.08 -0.99,-0.55 -1.73,-1.01 -2.6,-1.74 -1.16,-0.98 -3.16,-3.49 -3.54,-5.14l-21.39 0 0 1.96z"/>
     <path class="fil3" d="M40.08 39.94l-1.76 0c0,-1.21 0.35,-2.4 1.06,-3.28 0.7,-0.86 1.2,-1.33 2.24,-1.79 0.6,-0.27 1.35,-0.44 2.18,-0.51l0 1.86c-0.7,0 -1.09,0.09 -1.66,0.4 -1.19,0.65 -2.02,1.74 -2.06,3.32zm-3.72 0c0,5.4 5.78,9.06 10.58,6.75 1.08,-0.52 1.85,-1.06 2.58,-1.97 4.06,-5.04 0.73,-12.23 -5.92,-12.23 -3.91,0 -7.23,3.5 -7.23,7.44z"/>
     <path class="fil4" d="M44.42 49.14c-2.24,0 -4.1,-0.29 -5.97,-1.68 -0.86,-0.64 -1.6,-1.34 -2.21,-2.23 -0.32,-0.46 -0.56,-0.96 -0.81,-1.46 -2.19,-4.4 -0,-10.34 4.72,-12.33 3.61,-1.53 7.39,-0.67 10.22,1.94 3.43,3.17 3.71,9.41 0.18,12.9 -1.56,1.54 -3.66,2.87 -6.12,2.87zm-0.83 1.96c3.71,0 5.61,-1.13 8.02,-3.14 0.27,-0.22 0.32,-0.39 0.58,-0.66 0.25,-0.25 0.41,-0.45 0.61,-0.73 1.11,-1.51 2.15,-3.86 2.15,-5.91 0,-2.3 -0.03,-3.48 -1.1,-5.62 -0.33,-0.65 -0.56,-1.09 -0.96,-1.62 -2.33,-3.08 -5.3,-4.65 -9.41,-4.65 -3.22,0 -5.98,1.7 -7.62,3.33 -1.97,1.95 -3.24,5.06 -3.24,7.83 0,3.27 1.55,6.35 3.96,8.45 1.84,1.6 4.4,2.71 7.01,2.71z"/>
     <path class="fil5" d="M52.15 50.14c0.49,0.34 5.74,5.69 6.61,6.56 0.7,0.7 2.27,2.86 3.93,1.3 0.63,-0.59 0.64,-1.04 0.64,-1.71l0 -0.03c0,-0.85 -1.32,-1.89 -1.83,-2.4 -0.86,-0.86 -6.08,-6.18 -6.54,-6.49l-2.82 2.77z"/>
     <path class="fil6" d="M54.97 33.12c0,0.44 1.76,2.94 1.76,5.89l0.1 -20.46 -1.86 0 0 14.57z"/>
     <path class="fil7" d="M55.69 45.21c0,0.28 2.82,3.1 3.1,3.1 3.59,0 3.62,-0.22 3.62,-3.72l-6.51 0c-0.07,0.28 -0.21,0.42 -0.21,0.62z"/>
     <polygon class="fil8" points="25.2,39.01 27.16,39.01 27.16,31.56 25.2,31.56 "/>
     <path class="fil9" d="M40.08 27.53c0.59,-0.14 1.27,-0.4 1.96,-0.41l0 -6.72 -1.96 0 0 7.13z"/>
     <path class="fil10" d="M32.64 33.22c0.37,-0.14 0.53,-0.68 0.96,-1.21 0.33,-0.41 1,-1.07 1,-1.27l0 -4.75 -1.96 0 0 7.24z"/>
     <polygon class="fil11" points="17.86,39.01 19.72,39.01 19.72,33.43 17.86,33.43 "/>
     <path class="fil12" d="M47.52 27.53c0.31,0.07 0.68,0.2 0.94,0.3 0.44,0.16 0.48,0.31 1.02,0.32l0 -4.03 -1.96 0 0 3.41z"/>
    </g>
   </g>
   <path class="fil13" d="M2.73 1.5c4.66,-0.13 39.19,0.39 40.25,-0.27 -0.9,-0.7 -36.5,-0.39 -40.85,-0.29 -0.09,4.33 -0.4,45.13 0.3,45.98 0.92,-1.23 0.2,-40.26 0.3,-45.42z"/>
  </g>
 </g>
</svg>
