<?xml version="1.0" encoding="UTF-8"?>
<!DOCTYPE svg PUBLIC "-//W3C//DTD SVG 1.0//EN" "http://www.w3.org/TR/2001/REC-SVG-20010904/DTD/svg10.dtd">
<!-- Creator: CorelDRAW 2019 (64-Bit) -->
<svg xmlns="http://www.w3.org/2000/svg" xml:space="preserve" width="1.3838in" height="1.3838in" version="1.0" style="shape-rendering:geometricPrecision; text-rendering:geometricPrecision; image-rendering:optimizeQuality; fill-rule:evenodd; clip-rule:evenodd"
viewBox="0 0 1383.8 1383.8"
 xmlns:xlink="http://www.w3.org/1999/xlink"
 xmlns:xodm="http://www.corel.com/coreldraw/odm/2003">
 <defs>
  <style type="text/css">
   <![CDATA[
    .fil0 {fill:#02965C}
    .fil2 {fill:white}
    .fil1 {fill:white;fill-rule:nonzero}
   ]]>
  </style>
 </defs>
 <g id="Layer_x0020_1">
  <metadata id="CorelCorpID_0Corel-Layer"/>
  <g id="_2190167124928">
   <circle class="fil0" cx="691.9" cy="691.9" r="691.9"/>
   <path class="fil1" d="M691.68 135.44c9.35,0 18.69,0.24 28.03,0.68 16.13,0.7 20.54,-22.63 4.03,-27.34 -0.93,-0.22 -1.81,-0.36 -2.78,-0.41 -19.43,-0.93 -38.8,-0.95 -58.23,0.01 -14.89,0.65 -18.48,21.87 -3.65,27.06 1.81,0.52 3.12,0.76 5.06,0.68 9.19,-0.46 18.35,-0.65 27.55,-0.69zm-163.85 24.58c16.04,-5.1 11,-29.34 -6.36,-26.98 -0.64,0.12 -1.27,0.25 -1.89,0.45 -18.59,5.7 -36.8,12.41 -54.72,19.93 -15.63,6.7 -7.86,30.8 9.49,26.07l1.33 -0.49c17.07,-7.17 34.44,-13.56 52.15,-18.98zm-171.9 88.25c13.18,-10.25 0.41,-30.98 -14.89,-23.33 -0.7,0.37 -1.39,0.8 -2,1.28 -15.51,11.79 -30.26,24.2 -44.56,37.43 -10.94,10.3 -0.07,28.22 14.15,23.24 2.02,-0.81 3.15,-1.47 4.78,-2.91 13.65,-12.62 27.72,-24.46 42.52,-35.72zm-131.52 141.68c8.98,-14.21 -10.34,-29.25 -21.94,-16.88 -0.53,0.64 -0.99,1.17 -1.45,1.89 -10.57,16.39 -20.2,33.06 -29.15,50.39 -4.67,9.34 1.96,20.22 12.44,20.22 5.11,0 10,-2.99 12.29,-7.56 8.52,-16.52 17.73,-32.44 27.81,-48.06zm-75.13 178.06c3.63,-15.96 -19.25,-24.22 -26.35,-8.43 -0.32,0.8 -0.56,1.52 -0.75,2.35 -4.32,18.96 -7.63,38.1 -10.05,57.39 -1.88,14.43 17.71,21.89 25.81,8.63 0.99,-1.89 1.5,-3.22 1.77,-5.31 2.28,-18.34 5.46,-36.62 9.57,-54.64zm-9.57 193.09c-2.13,-16.36 -26.12,-15.96 -27.63,0.6 -0.05,1.02 -0.07,1.88 0.07,2.9 2.33,19.22 5.75,38.52 10.06,57.39 1.11,4.89 4.81,8.76 9.59,10.19 10.27,2.93 19.84,-6.05 17.48,-16.44 -4.1,-17.96 -7.34,-36.35 -9.56,-54.64zm56.88 184.65c-8.6,-15.64 -32.09,-4.49 -24.89,12.33 8.66,17.32 18.89,34.57 29.39,50.85 8.24,13.04 29.51,4.37 24.91,-11.72 -0.42,-1.26 -0.89,-2.26 -1.6,-3.39 -10.07,-15.6 -19.31,-31.56 -27.81,-48.07zm116.8 154.03c-7.19,-6.35 -17.7,-4.24 -22,4.35 -2.51,5.3 -1.26,12.16 3.19,16.09 14.32,13.25 29.05,25.6 44.56,37.43 11.98,9.31 28.82,-5.47 19.79,-19.02 -0.9,-1.24 -1.78,-2.17 -3.02,-3.13 -14.8,-11.24 -28.89,-23.1 -42.52,-35.72zm162.26 104.99c-14.02,-6.01 -26.58,12.69 -14.23,23.49 1.11,0.91 2.21,1.58 3.57,2.16 17.98,7.52 36.09,14.17 54.72,19.91 14.28,4.54 25.08,-14.69 12.2,-24.53 -1.43,-0.95 -2.46,-1.52 -4.12,-2.04 -17.79,-5.52 -34.98,-11.8 -52.15,-18.99zm188.46 42.89c-16.13,-0.7 -20.54,22.63 -4.03,27.34 0.93,0.22 1.81,0.36 2.78,0.41 19.43,0.93 38.76,0.94 58.19,-0.01 14.89,-0.65 18.48,-21.87 3.65,-27.06 -1.81,-0.52 -3.12,-0.76 -5.06,-0.68 -18.53,0.9 -37.01,0.89 -55.54,0zm191.84 -23.9c-16.04,5.1 -11,29.34 6.36,26.98 0.64,-0.12 1.27,-0.25 1.89,-0.45 18.59,-5.69 36.79,-12.42 54.72,-19.92 15.63,-6.7 7.86,-30.8 -9.49,-26.07l-1.33 0.49c-17.08,7.16 -34.44,13.56 -52.15,18.98zm171.9 -88.24c-13.18,10.25 -0.41,30.98 14.89,23.33 0.7,-0.37 1.39,-0.8 2,-1.28 15.5,-11.78 30.28,-24.2 44.56,-37.44 10.94,-10.3 0.07,-28.22 -14.15,-23.24 -2.02,0.81 -3.15,1.47 -4.78,2.91 -13.63,12.63 -27.74,24.48 -42.53,35.72zm131.53 -141.68c-8.98,14.21 10.34,29.25 21.94,16.88 0.53,-0.64 0.99,-1.17 1.45,-1.89 10.57,-16.38 20.2,-33.06 29.15,-50.39 4.67,-9.34 -1.96,-20.22 -12.44,-20.22 -5.11,0 -10,2.99 -12.29,7.56 -8.52,16.52 -17.73,32.44 -27.81,48.06zm75.14 -178.06c-3.63,15.96 19.25,24.22 26.35,8.43 0.32,-0.8 0.56,-1.52 0.75,-2.35 4.29,-19 7.65,-38.07 10.05,-57.39 1.88,-14.43 -17.71,-21.89 -25.81,-8.63 -0.99,1.89 -1.5,3.22 -1.77,5.31 -2.26,18.37 -5.49,36.59 -9.57,54.64zm9.57 -193.09c2.13,16.36 26.12,15.96 27.63,-0.6 0.05,-1.02 0.07,-1.88 -0.07,-2.9 -2.36,-19.25 -5.75,-38.48 -10.06,-57.39 -1.11,-4.89 -4.81,-8.76 -9.59,-10.19 -10.27,-2.93 -19.84,6.05 -17.48,16.44 4.1,17.99 7.31,36.32 9.56,54.64zm-56.88 -184.65c8.6,15.64 32.09,4.49 24.89,-12.33 -8.67,-17.33 -18.89,-34.57 -29.39,-50.86 -8.24,-13.04 -29.51,-4.37 -24.91,11.72 0.42,1.26 0.89,2.26 1.6,3.39 10.07,15.6 19.31,31.56 27.81,48.07zm-116.8 -154.04c7.19,6.35 17.7,4.24 22,-4.35 2.51,-5.3 1.26,-12.16 -3.19,-16.09 -14.3,-13.24 -29.06,-25.62 -44.56,-37.43 -11.98,-9.31 -28.82,5.47 -19.79,19.02 0.9,1.24 1.78,2.17 3.02,3.13 14.79,11.22 28.9,23.11 42.52,35.72zm-162.26 -105c14.02,6.01 26.58,-12.69 14.23,-23.49 -1.11,-0.91 -2.21,-1.58 -3.57,-2.16 -17.98,-7.53 -36.09,-14.17 -54.72,-19.91 -14.28,-4.54 -25.08,14.69 -12.2,24.53 1.43,0.95 2.46,1.52 4.12,2.04 17.79,5.54 34.97,11.8 52.15,18.99z"/>
   <path class="fil2" d="M469.26 427.43l134.43 0 80.16 133.93 94.65 0 0 -133.93 136.06 0 0 133.93 101.17 0 0 94.94 -101.17 0 0 71.2 101.17 0 0 94.94 -101.17 0 0 133.93 -136.06 0 -80.15 -133.93 -93.67 0 0 133.93 -135.41 0 0 -133.93 -101.17 0 0 -94.94 101.17 0 0 -71.2 -101.17 0 0 -94.94 101.17 0 0 -133.93zm271.41 228.87l37.81 63.18 0 -63.18 -37.81 0zm-99.15 71.2l-36.85 -61.58 0 61.58 36.85 0z"/>
  </g>
 </g>
</svg>
