<?xml version="1.0" encoding="UTF-8"?>
<!DOCTYPE svg PUBLIC "-//W3C//DTD SVG 1.1//EN" "http://www.w3.org/Graphics/SVG/1.1/DTD/svg11.dtd">
<!-- Creator: CorelDRAW -->
<svg xmlns="http://www.w3.org/2000/svg" xml:space="preserve" width="0.839591in" height="0.839591in" version="1.1" style="shape-rendering:geometricPrecision; text-rendering:geometricPrecision; image-rendering:optimizeQuality; fill-rule:evenodd; clip-rule:evenodd"
viewBox="0 0 329.42 329.42"
 xmlns:xlink="http://www.w3.org/1999/xlink"
 xmlns:xodm="http://www.corel.com/coreldraw/odm/2003">
 <defs>
  <style type="text/css">
   <![CDATA[
    .fil0 {fill:none}
    .fil3 {fill:#BABABA}
    .fil4 {fill:#E8E8E8}
    .fil5 {fill:#EBEBEB}
    .fil1 {fill:whitesmoke}
    .fil2 {fill:white}
   ]]>
  </style>
 </defs>
 <g id="Layer_x0020_1">
  <metadata id="CorelCorpID_0Corel-Layer"/>
  <g id="_105553288365024">
   <rect class="fil0" width="329.42" height="329.42"/>
   <g>
    <path class="fil1" d="M54.86 167.97c2.61,-1.85 2.9,-1.31 7.16,-1.28 2.72,0.02 5.43,0.05 8.15,0.05 4.21,0 45.53,0.83 47.46,-0.16 0.57,-10.8 -11.09,-28.25 10.52,-59.38 5.2,-7.49 10.55,-8.81 13.1,-13.42l-96.13 0.06c0.05,14.25 0.03,28.1 0.02,41.94 -0.01,13.3 1.46,25.8 9.71,32.2z"/>
    <path class="fil2" d="M167.01 99.59c25.19,-6.53 50.68,9.18 57.26,35.21 3.7,14.63 -0.33,28.55 -7.42,38.55 -15.31,21.6 -44.99,26.36 -66.26,11.8 -31.77,-21.74 -26.67,-74.41 16.41,-85.57zm1.99 -13.06c-29.99,4.56 -56.15,32.9 -50.62,68.55 7.47,48.12 64.93,68.25 102.26,32.93 12.26,-11.6 19.03,-29.99 16.62,-50.81 -3.44,-29.71 -33.33,-55.98 -68.26,-50.67z"/>
    <path class="fil3" d="M275.46 261.07c1.6,-3.42 14.94,-16.06 17.37,-17.61 9.06,8.77 -4.88,26.91 -17.37,17.61zm-19.68 -54.79c3.37,1.56 28.65,28.77 35,34.03 -1.38,2.38 -15.79,17.13 -19.09,18.45 -2.96,-4.45 -12.47,-12.88 -16.89,-17.35 -3.95,-3.99 -15.23,-14.05 -17.26,-18.02 -2.01,-1.02 -1.04,0.87 -1.82,-2.51 0.46,-0.35 1.96,-1.2 2.57,-1.71l4.37 -4.67c4.58,-3.79 8.47,-9.42 11.57,-10.71l1.56 2.49zm-9.18 -9.21l4.66 4.51 -17.92 17.69c-3.05,-2.03 -2.63,-1.5 -4.23,-4.39l17.49 -17.8zm-19.8 -6.1c2.34,1.04 1.12,0.2 3.17,2.26l7.79 8.41 -4.43 4.38 -10.01 -10.6c-0.06,-0.28 -0.28,-0.31 -0.42,-0.47l-2.74 -2.32c1.22,-1.93 2.93,-3.36 4.97,-4.38l1.67 2.72zm-57.8 -104.44c34.94,-5.32 64.83,20.95 68.26,50.67 2.41,20.82 -4.36,39.21 -16.62,50.81 -37.33,35.32 -94.79,15.19 -102.26,-32.93 -5.53,-35.65 20.63,-63.98 50.62,-68.55zm-51.38 80.05l6.35 12.44c-10.36,1.35 -29,0.24 -40.29,0.26 -8.56,0.02 -16.77,-1.26 -23.74,-6.23 -1.53,-1.09 -4.19,-3.98 -5.09,-5.08 -8.26,-6.4 -9.72,-18.9 -9.71,-32.2 0.01,-13.84 0.04,-27.68 -0.02,-41.94l96.13 -0.06c-2.55,4.61 -7.9,5.93 -13.1,13.42 -21.61,31.13 -9.95,48.58 -10.52,59.38zm45.02 -105.5l45.25 0.13 -0.15 29.03c-32.75,-16.75 -56.14,0.12 -62.72,0.94 -9.5,1.2 -62.45,-0.52 -79.86,0.18l0.44 -19.4c12.12,0.21 90.32,0.88 96.78,-0.44l0.27 -10.46zm-2.9 8.15l-96.1 -0.01c-0.62,1.25 -0.34,0.07 -0.87,2.15 -0.27,1.05 -0.24,1.05 -0.32,2.22l0.07 17.55c-6.86,-0.14 -15.57,-1.04 -20.03,1.62 -1.65,6.84 -0.52,34.04 -0.53,43.01 -0.01,13.55 2.09,26.91 9.55,33.96 8.37,7.92 15.6,12.42 31.25,12.4 66.42,-0.09 31.6,-3.62 59.53,15.84 14.94,10.41 34.6,13.24 52.71,8.55 9.66,-2.49 15.63,-6.88 22.08,-11.28 1.69,0.85 13.28,12.19 14.18,13.58 -2.29,2.43 -4.16,3.3 -5.81,6.29 0.94,2.84 40.78,42.61 45.79,46.82 18.33,15.43 35.61,-9.89 22.87,-21.97 -5.51,-5.23 -10.36,-10.62 -15.77,-15.8 -5.43,-5.21 -27.63,-28.49 -31.51,-30.7 -2.31,2.06 -3.99,3.97 -6.31,5.73l-13.65 -12.72c3.72,-8.79 14.04,-17.17 14.02,-40.77 -0.02,-15.22 -5.37,-27.92 -13.29,-38.45 -4.23,-5.63 -10.08,-11.96 -16.83,-14.69l0.04 -29.91c-0.2,-4.66 -0.82,-4.41 -5.45,-4.41 -51.94,0 -45.62,-3.08 -45.64,10.99z"/>
    <path class="fil2" d="M182.79 155.6c7.5,-2.59 7.56,7.13 -0.46,4.51l0.46 -4.51zm3.35 -4.6c-4.07,1.25 -4.35,-2.46 -3.42,-5.31 1.9,-5.85 9.51,-4.75 5.96,-12.93 -7.68,-1.39 -9.07,4.12 -11,-3.13 11.92,-8.76 26.12,3.27 13.8,14.76 -2.18,2.04 -1.37,1.05 -2.75,3.57 -1.48,2.7 0.34,2.14 -2.58,3.03zm13.1 -8.9c4.14,-3.33 9.61,-2.27 16.41,-2.13 -0.06,-26.35 0.92,-14.15 -5.75,-26.06l-51.88 -0.05 0 60.03 55.44 -0.24c2.5,-5.07 2.27,-1.76 2.19,-11.74 -0.03,-4.19 0.1,-8.37 -0.16,-12.55 -8.63,0.23 -17.36,2.77 -16.26,-7.27z"/>
    <path class="fil4" d="M162.38 71.53c-6.46,1.32 -84.66,0.65 -96.78,0.44l-0.44 19.4c17.41,-0.7 70.36,1.01 79.86,-0.18 6.58,-0.83 29.97,-17.7 62.72,-0.94l0.15 -29.03 -45.25 -0.13 -0.27 10.46z"/>
    <path class="fil1" d="M77.7 313.49c4.59,6.1 65.37,6.35 76.3,6.35 29.07,0 54.14,-0.49 82.3,-5.24 -2.82,-4.62 -11.98,-4.45 -17.39,-4.88 -25,-1.97 -129.15,-5.72 -141.2,3.76z"/>
    <path class="fil3" d="M218.5 149.6l3.89 -0.12c-0.2,5.4 -1.49,10.85 -3.97,14.67l0.09 -14.55zm4.21 -2.83c-6.49,-0.15 -2.98,0.62 -4.25,-1.99 2.08,-2.6 -2.45,-1.62 3.16,-2.22 0.48,0.79 0.55,0.68 1.01,2.26 0.14,0.47 0.07,1.31 0.08,1.96zm-9.99 0.11l-11.07 -0.85c0.75,-4.52 1.54,-3.46 6.42,-3.5 0.46,-0 4.57,-0.05 4.65,-0.04 3.08,0.56 1.84,-0.33 2.94,2.29 -1.08,2.38 0.03,1.58 -2.94,2.1zm-13.47 -4.78c-1.1,10.04 7.63,7.49 16.26,7.27 0.25,4.18 0.12,8.36 0.16,12.55 0.08,9.98 0.31,6.67 -2.19,11.74l-55.44 0.24 0 -60.03 51.88 0.05c6.67,11.91 5.69,-0.28 5.75,26.06 -6.8,-0.13 -12.27,-1.2 -16.41,2.13zm19.1 -14.37c2.45,2.34 2.72,4.29 1.24,7.13 1.93,2.32 2.42,1.61 2.46,5l-3.56 -0.15 -0.13 -11.98zm-62.7 48.6l54.56 -0.11c-7.64,11.36 -32.09,19.62 -48.74,11.12 -29.81,-9.17 -38.06,-52.42 -15.03,-73.56 6.01,-5.52 14.81,-11.1 26.5,-12.27 11.42,-1.78 23.79,2.21 31.2,8.13l1.66 1.67 -50.21 -0.11 0.06 65.13zm11.37 -76.74c-43.08,11.16 -48.18,63.83 -16.41,85.57 21.27,14.56 50.95,9.79 66.26,-11.8 7.09,-10 11.11,-23.92 7.42,-38.55 -6.58,-26.04 -32.07,-41.74 -57.26,-35.21z"/>
    <path class="fil1" d="M161.46 187.34c16.64,8.5 41.09,0.24 48.74,-11.12l-54.56 0.11 -0.67 -2.64c-1.31,-9.31 1.71,-52.32 -0.96,-61.83 -0.85,2.29 -3.53,5.19 -5.38,7.72 -1.85,2.54 -3.7,5.52 -5.18,9.26 -7.33,18.59 -3.65,38.23 10.75,50.92 2.23,1.96 1.47,1.59 3.52,3.69 2.07,2.12 2.24,1.44 3.74,3.89z"/>
    <path class="fil2" d="M250.48 223.13c4.02,4.67 23.67,21.91 24.01,25.95 -3.4,0.63 -2.87,0.16 -4.69,-1.9l-10.78 -10.87c-1.8,-2.05 -5.08,-5.36 -7.15,-7.28 -9.29,-8.62 -5.11,-10.23 -1.38,-5.89zm7.76 -0.48c-9.45,-9.29 -5.37,-7.01 -4.84,-7.71 1.46,-0.1 18.22,16.8 21.34,20.06 5.99,6.23 5.65,4.12 5.86,7.59 -3,1.01 -1.84,0.89 -4.39,-1.84l-17.98 -18.09zm-20.71 0.75c2.03,3.97 13.32,14.03 17.26,18.02 4.42,4.46 13.93,12.9 16.89,17.35 3.3,-1.32 17.71,-16.07 19.09,-18.45 -6.35,-5.26 -31.63,-32.48 -35,-34.03 -1.79,1.24 -6.93,6.89 -8.82,8.92 -1.88,2.02 -2.75,2.31 -4.59,4.41 -2.18,2.48 -1.49,2.33 -4.83,3.78z"/>
    <path class="fil4" d="M54.86 167.97c0.9,1.1 3.56,3.99 5.09,5.08 6.97,4.97 15.18,6.24 23.74,6.23 11.29,-0.02 29.93,1.09 40.29,-0.26l-6.35 -12.44c-1.93,1 -43.25,0.16 -47.46,0.16 -2.72,0 -5.43,-0.03 -8.15,-0.05 -4.26,-0.03 -4.54,-0.57 -7.16,1.28z"/>
    <path class="fil4" d="M161.46 187.34c-1.49,-2.45 -1.67,-1.77 -3.74,-3.89 -2.05,-2.1 -1.29,-1.73 -3.52,-3.69 -14.41,-12.69 -18.09,-32.33 -10.75,-50.92 1.47,-3.73 3.33,-6.72 5.18,-9.26 1.84,-2.53 4.53,-5.43 5.38,-7.72 2.68,9.52 -0.35,52.52 0.96,61.83l0.67 2.64 -0.06 -65.13 50.21 0.11 -1.66 -1.67c-1.61,1.47 0.5,0.47 -2.44,0.9l-44.99 -0.03c0.25,-0.17 0.57,-0.32 0.78,-0.44 0.2,-0.11 0.51,-0.29 0.76,-0.42l14.68 -8.14c-11.69,1.16 -20.48,6.74 -26.5,12.27 -23.03,21.15 -14.78,64.39 15.03,73.56z"/>
    <path class="fil1" d="M30.9 55.2l0.33 10.8c2.89,0.86 8.19,4.28 9.33,4.33 2.06,0.08 6.1,-3.51 9.53,-4.18l-0.29 -12c-4.01,-0.84 -5.08,-2.9 -9.39,-4.58l-9.51 5.64z"/>
    <path class="fil1" d="M204.13 109.63c-7.42,-5.91 -19.79,-9.9 -31.2,-8.13l-14.68 8.14c-0.24,0.13 -0.55,0.31 -0.76,0.42 -0.21,0.11 -0.53,0.27 -0.78,0.44l44.99 0.03c2.94,-0.44 0.83,0.57 2.44,-0.9z"/>
    <path class="fil2" d="M275.46 261.07c12.49,9.3 26.42,-8.84 17.37,-17.61 -2.43,1.55 -15.77,14.19 -17.37,17.61z"/>
    <path class="fil1" d="M177.67 129.63c1.93,7.25 3.33,1.74 11,3.13 3.56,8.18 -4.06,7.09 -5.96,12.93 -0.93,2.85 -0.64,6.56 3.42,5.31 2.92,-0.9 1.1,-0.34 2.58,-3.03 1.38,-2.52 0.57,-1.54 2.75,-3.57 12.32,-11.49 -1.87,-23.52 -13.8,-14.76z"/>
    <path class="fil1" d="M283.46 178.55c6.55,-3.04 9.99,7.08 4.57,9.4 -7.58,3.25 -10.09,-6.83 -4.57,-9.4zm-0.23 -4.27c-11.15,2.6 -8.2,21.24 4.77,18.11 10.87,-2.63 8.29,-21.16 -4.77,-18.11z"/>
    <path class="fil2" d="M229.1 214.87c1.6,2.9 1.18,2.37 4.23,4.39l17.92 -17.69 -4.66 -4.51 -17.49 17.8z"/>
    <path class="fil3" d="M274.49 249.07c-0.34,-4.03 -19.98,-21.27 -24.01,-25.95 -3.73,-4.33 -7.91,-2.73 1.38,5.89 2.07,1.92 5.35,5.24 7.15,7.28l10.78 10.87c1.82,2.06 1.29,2.53 4.69,1.9z"/>
    <path class="fil3" d="M253.4 214.93c-0.53,0.7 -4.6,-1.58 4.84,7.71l17.98 18.09c2.55,2.73 1.39,2.85 4.39,1.84 -0.21,-3.47 0.12,-1.35 -5.86,-7.59 -3.13,-3.25 -19.89,-20.15 -21.34,-20.06z"/>
    <path class="fil2" d="M222.91 194.94c0.13,0.16 0.35,0.2 0.42,0.47l10.01 10.6 4.43 -4.38 -7.79 -8.41c-2.05,-2.06 -0.83,-1.21 -3.17,-2.26 -2.24,2.01 -1.96,1.7 -3.9,3.97z"/>
    <path class="fil2" d="M283.46 178.55c-5.53,2.57 -3.02,12.65 4.57,9.4 5.42,-2.32 1.98,-12.44 -4.57,-9.4z"/>
    <path class="fil1" d="M237.54 223.4c3.34,-1.45 2.65,-1.29 4.83,-3.78 1.84,-2.1 2.71,-2.39 4.59,-4.41 1.89,-2.03 7.03,-7.68 8.82,-8.92l-1.56 -2.49c-3.1,1.29 -6.99,6.92 -11.57,10.71l-4.37 4.67c-0.6,0.51 -2.11,1.37 -2.57,1.71 0.78,3.38 -0.19,1.49 1.82,2.51z"/>
    <path class="fil1" d="M258.75 135.72c-4.18,-0.06 -2.97,-0.95 -5.16,1.85l4.89 1.8c0.02,0.16 0.36,2.43 0.39,2.5l1.04 1.74c0.08,0.11 0.3,0.32 0.47,0.45 2.86,-1.48 1.89,0.7 1.82,-4.88 3.96,-0.2 2.53,0.63 5.13,-1.6 -2.27,-2.75 -0.73,-1.79 -4.98,-2.01 -0.23,-4.48 0.76,-2.8 -1.96,-4.99 -2.4,2.41 -1.48,0.91 -1.63,5.15z"/>
    <path class="fil5" d="M201.64 146.03l11.07 0.85c2.96,-0.51 1.85,0.29 2.94,-2.1 -1.09,-2.62 0.15,-1.73 -2.94,-2.29 -0.08,-0.01 -4.19,0.03 -4.65,0.04 -4.88,0.04 -5.67,-1.02 -6.42,3.5z"/>
    <path class="fil1" d="M251.29 174.5c4.42,-1.87 6.8,-2.86 8.85,-6.02 -4,-0.83 -5.2,-2.58 -9.07,-4.25l0.22 10.27z"/>
    <path class="fil1" d="M56.09 14.06c1.08,1.85 2.31,2.8 4.15,4.64l4.72 -4.64 -4.46 -4.02c-0.13,-0.1 -0.38,-0.31 -0.56,-0.46 -1.78,3.66 -0.6,1.85 -3.85,4.48z"/>
    <path class="fil1" d="M218.41 164.15c2.48,-3.82 3.77,-9.28 3.97,-14.67l-3.89 0.12 -0.09 14.55z"/>
    <path class="fil1" d="M182.79 155.6l-0.46 4.51c8.02,2.62 7.96,-7.09 0.46,-4.51z"/>
    <path class="fil1" d="M218.47 139.71l3.56 0.15c-0.04,-3.39 -0.52,-2.68 -2.46,-5 1.48,-2.84 1.21,-4.79 -1.24,-7.13l0.13 11.98z"/>
    <path class="fil1" d="M222.91 194.94c1.94,-2.28 1.66,-1.96 3.9,-3.97l-1.67 -2.72c-2.03,1.01 -3.74,2.44 -4.97,4.38l2.74 2.32z"/>
    <path class="fil1" d="M75.21 44.28l0.06 -4.42c-7.11,0.31 -5.21,4.3 -3.18,4.95 3.32,1.06 2.99,-0.47 3.12,-0.52z"/>
    <path class="fil1" d="M218.45 144.78c1.27,2.61 -2.24,1.84 4.25,1.99 -0,-0.64 0.06,-1.49 -0.08,-1.96 -0.46,-1.57 -0.53,-1.46 -1.01,-2.26 -5.62,0.6 -1.08,-0.38 -3.16,2.22z"/>
   </g>
  </g>
 </g>
</svg>
