<?xml version="1.0" encoding="UTF-8"?>
<!DOCTYPE svg PUBLIC "-//W3C//DTD SVG 1.1//EN" "http://www.w3.org/Graphics/SVG/1.1/DTD/svg11.dtd">
<!-- Creator: CorelDRAW -->
<svg xmlns="http://www.w3.org/2000/svg" xml:space="preserve" width="1.3533in" height="1.32069in" version="1.1" style="shape-rendering:geometricPrecision; text-rendering:geometricPrecision; image-rendering:optimizeQuality; fill-rule:evenodd; clip-rule:evenodd"
viewBox="0 0 458.73 447.67"
 xmlns:xlink="http://www.w3.org/1999/xlink"
 xmlns:xodm="http://www.corel.com/coreldraw/odm/2003">
 <defs>
  <style type="text/css">
   <![CDATA[
    .fil2 {fill:none}
    .fil3 {fill:black}
    .fil0 {fill:#E6E6E6}
    .fil4 {fill:black;fill-rule:nonzero}
    .fil1 {fill:black;fill-opacity:0.188235}
   ]]>
  </style>
   <clipPath id="id0">
    <path d="M-0 0l458.73 0 0 447.67 -458.73 0 0 -447.67z"/>
   </clipPath>
 </defs>
 <g id="Layer_x0020_1">
  <metadata id="CorelCorpID_0Corel-Layer"/>
  <polygon class="fil0" points="-0,0 458.73,0 458.73,447.67 -0,447.67 "/>
  <g style="clip-path:url(#id0)">
   <g id="_105553290311040">
    <g>
     <path id="_1" class="fil1" d="M91.64 428.33c2.76,3.41 12.23,11.85 13.65,15l1.28 1.86c-2.18,0.06 -1.85,-0.54 -3.68,0.98l-1.12 1.78c-1.02,-3.07 0.57,-0.82 -1.82,-1.99l-4.17 -2.04c-0.14,-0.08 -0.31,-0.19 -0.46,-0.26 -0.94,-0.43 -2.37,-0.5 -3.11,-0.34 -1.97,0.42 -0.35,1.07 -6.44,1.02l-38.1 -0.02 -0.7 3.23 -4.7 -5.29 0.05 3.61c-2.84,-1.69 -3.26,-3.52 -5.3,-5.51 -2.97,-2.89 -2.58,-2.93 -4.88,-6.23l1.08 0.02c0.05,-0.01 0.25,-0.01 0.29,-0.02 0.05,-0.01 0.22,-0.05 0.26,-0.07l1.19 -1.87c0.05,-0.32 0.17,-0.42 0.27,-0.62 5.4,2.44 15.86,-0.61 16.15,3.75 -0.29,-2.82 -2.01,-2.78 -2.75,-5.73 6.2,-0.09 3.63,1.43 6.66,3.27 3.64,-0.2 8.17,-0.7 11.32,0.55 2.85,1.13 0.38,1.54 3.24,0.76 2.83,-0.77 1.23,-1.05 5.19,-0.89 0.02,4.97 0.94,1.48 -1.34,3.46 1.9,-0.06 1.75,-0.3 3.37,-0.73l-0.58 -4.17c5.71,-0.13 4.81,2.68 8.26,1.71 -1.61,-2.76 -1.37,-0.79 -2.79,-3.71 4.07,0.15 3.59,0.05 4.85,1.91l0.44 0.96c3.24,0.19 3.27,-0.35 5.02,0.84 0,-0 -0.95,-0.49 1.09,-0.4 -3.06,-2.12 -1.08,-2.44 -6.61,-4.63l0.98 -1.9c0.01,-0.14 0.03,-0.22 0.08,-0.32 1.1,1.53 1.97,2.46 3.82,2z"/>
     <path class="fil1" d="M325.87 407.98c0.79,1.46 1.08,-0.05 -0.67,1.27 -2.25,1.69 -4.4,1.73 -6.6,1.3 -0.02,0.06 -4.47,1.45 1.86,1.67 -0.54,0.01 -0.23,-0.26 -1.03,0.47l-1.84 2.07c-0.01,4.29 1.03,6.19 0.52,9.82 -1.14,8.15 -0.1,4.52 0.16,9.1 0.21,3.88 -1.15,4.06 -0.41,9.1 0.52,3.48 0.42,5.97 0.42,9.62l-18.33 0 -0.1 -3.18 2.38 -1.16c0,-6.96 0.2,-14.05 0.1,-20.99 -0.05,-3.49 0.04,-6.73 0.05,-10.19 0.02,-7.28 -2.86,-5.02 -1.78,-6.53 1.94,-2.75 2.29,0.73 5.79,0.36 -3.09,-1.13 -2.63,-5.76 -4.46,-6.13 -1.3,-0.26 0.5,-0.07 -1.95,0.72 -0.24,-2.77 0.19,-1.09 -0.76,-2.83l3.92 -3.33c0.11,-0.27 0.42,-0.13 0.64,-0.16 1.87,0.29 7.17,7.18 8.76,8.38 4.73,3.57 8.75,1.24 13.32,0.64z"/>
     <path class="fil1" d="M446.92 338.75c-1.47,-1.12 -1.9,-0.54 -2.83,-5.42 -0.91,-4.79 -0.25,-96.43 -0.14,-99.53 -3.04,-1.06 -0.31,0.02 -1.61,-1.18l1.46 -0.27c-2.76,-2.87 -1.22,-1.77 -2.08,-4.1 2.14,-1.45 0.15,-0.56 2.57,-0.6 1.41,-0.43 3.08,-1.06 5.16,-1.08l-0.26 1.39c-1.32,3.48 -1.23,1.03 -1.23,6.68l1.84 0c0.13,9.83 0.91,86.81 0.22,96.19 -0.57,7.65 -1.99,5.25 -3.09,7.93z"/>
     <path class="fil1" d="M167.68 406.22c0.66,1.27 3.11,2.45 4.51,3.83 1.66,1.62 2.92,3 4.53,4.67 2.93,3.05 5.95,5.9 8.5,9.01 -1.78,1.3 -1.4,-0.53 -0.41,4.78l-1.28 13.7c-0.08,3.65 0.39,5.88 0.57,8.74 0.89,0.37 -0.07,2.04 1.33,-0.51l0 1.96 -6.8 0c-1.89,-2.49 -6,-6.75 -8.44,-9.14 -2.36,-2.31 -6.81,-6.47 -8.17,-8.97 3.79,1.09 1.39,1.12 2.79,-0.06 2.12,-1.79 0.54,-1.32 0.38,-2.25l-0.52 -6.87c-0.02,-0.13 -0.07,-0.33 -0.09,-0.46l-0.43 -4.79c-0.01,-2.98 0.12,-5.67 0.58,-7.96l-3.97 -0.04c0.03,0.09 0.11,0.22 0.14,0.23l2.62 -0.33c0.3,-1.58 0.57,-2.41 -0.11,-3.46 -0.96,-1.46 -2.19,-1.07 -1.96,-2.87l6.23 0.78z"/>
     <path class="fil1" d="M331.83 452.4l-13.55 0c0,-3.66 0.1,-6.14 -0.42,-9.62 -0.75,-5.04 0.62,-5.22 0.41,-9.1 -0.25,-4.59 -1.29,-0.95 -0.16,-9.1 0.5,-3.62 -0.54,-5.53 -0.52,-9.82l1.84 -2.07c0.79,-0.73 0.48,-0.46 1.03,-0.47 -6.33,-0.22 -1.88,-1.61 -1.86,-1.67 2.2,0.43 4.35,0.39 6.6,-1.3 1.75,-1.32 1.45,0.19 0.67,-1.27 1.86,-4.42 7.13,-6.35 12.98,-5.49 -1.6,1.69 0.38,0.13 -1.73,1.02 -4.18,1.77 3.8,-1.24 -1.19,0.36 -2.39,0.77 -0.77,-1.12 -2.09,0.74 -2.77,-0.56 -0.4,-0.7 -1.25,0.48 -0.03,0.05 -0.14,0.25 -0.18,0.3l-0.53 4.52c0.62,3.23 0.38,10.37 0.41,14.24 0.06,7.55 0.74,22.27 -0.46,28.23z"/>
     <path class="fil1" d="M442.33 232.61c-1.65,0.38 -1.02,-0.04 -1.9,0.92 -1.37,1.51 -1.18,4.31 -1.58,6.1l-0.75 4.23c-0.24,5.93 -0.52,59.03 0.28,63.04 -0.07,0.03 -0.21,-0.05 -0.23,-0.05l-1.93 0.05c0.89,3.56 1.77,3.1 1.71,7.51l-0.84 -1.74 -1.23 1.56c-0.01,0.31 -0.04,0.44 -0.04,0.75 0.04,5.73 0.49,2.56 1.53,3.93 1.5,1.98 -0.46,1.99 -0.46,7.18 0,1.43 4.15,7.96 5.72,9.69l1.64 1.56c-5.22,-4.51 -9.67,-11.84 -14.82,-15.24 -1.06,-0.16 -0.88,0.16 -0.62,-0.9 1.88,-0.18 1.91,-0.02 3.16,-2.85 0.88,-2 1.27,-4.11 1.06,-6.37 -0.44,-4.91 -3.38,-7.25 -4.86,-9.73 1.31,-0.46 1.77,0.99 0.01,-1.5 4.64,-1.55 -1.14,1.21 1.85,-1.09 0.16,-0.12 0.59,-0.48 0.71,-0.61l0.35 -13.86c-0.24,-0.14 -0.56,2.02 -0.62,-2.48 0.91,-1.43 0.94,-2.7 2.36,-3.88 -0.9,-1.72 -1.23,-0.44 -1.51,-3.67l0.13 -39.91c4.19,-0.03 3.86,-1.08 4.52,-2.4 0.43,-0.4 2.19,-1.38 2.94,-2.02 1.87,-1.59 0.18,-0.9 2.81,-2.59 0.85,2.33 -0.68,1.23 2.08,4.1l-1.46 0.27z"/>
     <path class="fil1" d="M454.98 228.47l0 118.61c-1.51,-0.59 -0.94,-0.38 -1.97,-1.21 -0.2,-0.16 -1.55,-1.57 -1.75,-1.81 -1.26,-1.52 -1.53,-2.75 -3.55,-3.61 -0.4,-0.71 -0.65,-1.22 -0.79,-1.7 1.1,-2.68 2.52,-0.28 3.09,-7.93 0.7,-9.38 -0.09,-86.36 -0.22,-96.19l-1.84 0c0,-5.65 -0.09,-3.2 1.23,-6.68l0.26 -1.39c-2.08,0.02 -3.75,0.65 -5.16,1.08 2.81,-3.04 7.68,-0.82 10.7,0.83z"/>
     <path class="fil1" d="M295.6 390.53c1.51,0.21 1.18,-0.26 1.18,1.23l-2.88 1.72c-0.76,0.77 -1.47,-1.91 -1.54,3.91l-1.41 -0.11c-0.09,0.01 -0.36,0.05 -0.54,0.11 0.36,3.91 -0.13,5.41 3.27,5.79l0 49.22 -7 0 -1.34 -2.51c1.47,-1.05 1.36,-0.9 0.12,-3.19 -1.85,-3.41 -3.07,-0.69 -2.67,-5.32 0.14,-1.64 -0.73,-1.57 -0.65,-2.01 1.77,-3.03 0.77,-3.83 0.34,-6.77l-0.45 -6.61c0.54,-1.91 2.07,-4.06 2.24,-6.88 0.21,-3.63 -1.09,-5.01 -1.52,-7.68 0.33,-3.62 -0.17,-2.53 -2.23,-5.55 2.34,2.73 -0.1,1.07 4.43,1.29 -0.05,-0.7 -0.55,-3.44 -0.55,-3.44 -0.13,-3.57 1.27,-1.07 -0.97,-5.61 -0.99,-2 -0.84,0.49 -0.86,-3.41 3.91,-0.97 1.47,-0.51 4.37,1.44 -0.28,-3.06 -1.3,-1.19 -1.43,-5.99 8.96,-0.08 6.86,1.58 10.09,0.38z"/>
     <path class="fil1" d="M446.92 338.75c0.14,0.48 0.39,0.99 0.79,1.7l-2.66 -1.82c-0.24,-0.96 0.64,-0.14 -0.8,-1.28l-1.64 -1.56c-1.57,-1.73 -5.72,-8.26 -5.72,-9.69 0,-5.19 1.96,-5.19 0.46,-7.18 -1.04,-1.37 -1.49,1.8 -1.53,-3.93 -0,-0.3 0.03,-0.43 0.04,-0.75l1.23 -1.56 0.84 1.74c0.06,-4.42 -0.82,-3.95 -1.71,-7.51l1.93 -0.05c0.03,0 0.16,0.08 0.23,0.05 -0.8,-4 -0.52,-57.11 -0.28,-63.04l0.75 -4.23c0.4,-1.79 0.2,-4.6 1.58,-6.1 0.87,-0.96 0.25,-0.53 1.9,-0.92 1.31,1.2 -1.43,0.12 1.61,1.18 -0.11,3.11 -0.77,94.74 0.14,99.53 0.93,4.88 1.37,4.3 2.83,5.42z"/>
     <path class="fil1" d="M25.77 394.63c1.78,0.33 5.92,4.76 7.17,6.77 2.05,1.92 3.07,3.07 4.85,4.95 1.58,1.67 2.85,2.94 4.47,4.62 2.71,2.79 6.76,6.32 8.44,9.7 -0.22,-0.08 -1.65,-0.38 -1.84,-0.38 -0.15,-0 -0.38,-0.01 -0.55,0.01 -2.31,0.14 -0.52,0.73 -3.83,0.46 -2.03,-0.16 -2.03,-0.73 -5.05,0.46 -0.12,0.05 -0.3,0.17 -0.41,0.21 -2.32,0.94 -2.04,-1.15 -5.89,-1.61 -2.46,-0.29 -5.69,-0.05 -8.31,-0.24 -0.11,0.15 -0.19,0.24 -0.24,0.5l-1.67 2.13c-1.13,0.65 0.72,0.67 -1.84,0.47 -1.87,-0.15 -0.29,1.85 -4.48,-3.74 -0.39,-0.52 -0.45,-0.66 -0.97,-1.23 -0.1,-0.11 -0.24,-0.26 -0.34,-0.35l-3.71 -3.92c-2.96,-3.74 -3.21,-2.02 -5.19,-5.35 -0.83,-1.41 -1.01,-1.81 -1.69,-3.13 2.39,0.7 0.88,0.28 2.24,-0.12l4.04 -2.35 0.69 2.02c3.58,0.31 11.05,1.96 14.55,0.13 0.1,-3.13 -1.02,-3.13 -2.74,-4.48l0.24 -3.09c2.67,3.34 4.01,1.06 0.21,-2.28 -1.2,-1.06 -1.19,-0.9 -2.09,-2.03 1.47,1.66 1.55,1.68 3.94,1.89z"/>
     <path class="fil1" d="M418.59 310.7c-4.15,-1.1 -1,-0.2 -2.27,0.17 -0.04,0.16 -0,0.26 -0,0.5l-0.44 21.99c-0.06,0.23 -0.5,1.34 -0.54,1.55 -0.29,1.74 0.05,1.4 0.75,3.42 -0.17,-0.16 -0.74,-0.61 -0.87,-0.67 -2.13,-1.03 -2.31,-0.47 -3.02,-0.72 -0.28,-1.38 -0.03,-1.71 1.24,-2.81l-2.08 0.6c-5.74,-5.51 -11,-12.1 -16.57,-17.17 2.85,-0.88 0.63,0.14 2.54,0.35 4.05,0.45 -2.47,2.49 1.14,-0.09 3.53,-2.52 -1.79,-6.11 -1.99,-10.87 -0.05,-1.33 0.08,-3.04 0.06,-4.44 -0.11,-8.47 -1.65,-5.24 0.98,-6.69l-2.09 -0.39c0.25,-0.13 3.2,-0.05 3.45,-0.09 3.25,-0.49 1.52,0.81 2.1,-1.25 5.25,1.81 6.47,3.87 9.48,7.23 0.51,0.57 0.48,0.56 1.03,1.15 0.1,0.11 0.24,0.26 0.35,0.37 2.59,2.73 5.25,4.68 6.74,7.83z"/>
     <path class="fil1" d="M50.7 420.66c1.72,0.56 1.4,0.7 2.98,2.33 0.93,0.95 1.44,1.47 2.42,2.53 1.66,1.79 2.9,3.46 6.1,4.29 3.36,1.8 7.88,0.33 10.64,-2.13 2.68,-2.02 4.59,-4.68 10.11,-4.32 1.69,0.11 4.02,0.8 5.36,1.69 2.2,1.45 1.56,1.84 3.32,3.29 -1.86,0.47 -2.72,-0.47 -3.82,-2 -0.05,0.09 -0.07,0.18 -0.08,0.32l-0.98 1.9c5.53,2.19 3.55,2.51 6.61,4.63 -2.04,-0.1 -1.09,0.39 -1.09,0.4 -1.75,-1.19 -1.78,-0.65 -5.02,-0.84l-0.44 -0.96c-1.26,-1.86 -0.78,-1.76 -4.85,-1.91 1.43,2.92 1.19,0.95 2.79,3.71 -3.45,0.96 -2.55,-1.84 -8.26,-1.71l0.58 4.17c-1.62,0.44 -1.47,0.67 -3.37,0.73 2.28,-1.98 1.36,1.51 1.34,-3.46 -3.96,-0.17 -2.36,0.11 -5.19,0.89 -2.85,0.78 -0.38,0.37 -3.24,-0.76 -3.15,-1.26 -7.69,-0.76 -11.32,-0.55 -3.03,-1.84 -0.46,-3.35 -6.66,-3.27 0.75,2.95 2.46,2.91 2.75,5.73 -0.28,-4.36 -10.75,-1.31 -16.15,-3.75 -0.1,0.2 -0.22,0.3 -0.27,0.62l-1.19 1.87c-0.04,0.02 -0.21,0.06 -0.26,0.07 -0.05,0.01 -0.24,0.01 -0.29,0.02l-1.08 -0.02c-3.63,-0.04 -3.75,-3.54 -5.56,-5.27 -0.91,-0.87 -4.25,-2.36 -5.51,-6.2 2.56,0.2 0.71,0.18 1.84,-0.47l1.67 -2.13c0.05,-0.26 0.13,-0.35 0.24,-0.5 2.62,0.19 5.85,-0.05 8.31,0.24 3.85,0.46 3.57,2.55 5.89,1.61 0.11,-0.04 0.29,-0.16 0.41,-0.21 3.02,-1.19 3.02,-0.62 5.05,-0.46 3.32,0.27 1.52,-0.31 3.83,-0.46 0.16,-0.01 0.39,-0.01 0.55,-0.01 0.19,0 1.62,0.3 1.84,0.38z"/>
     <path class="fil1" d="M114.64 452.4l-70.82 0 -0.34 -2.77 -1.17 -3.75 -0.05 -3.61 4.7 5.29 0.7 -3.23 38.1 0.02c6.08,0.05 4.47,-0.61 6.44,-1.02 0.75,-0.16 2.18,-0.09 3.11,0.34 0.15,0.07 0.32,0.18 0.46,0.26l4.17 2.04c2.39,1.17 0.8,-1.07 1.82,1.99l1.12 -1.78c1.83,-1.53 1.5,-0.93 3.68,-0.98l-1.28 -1.86 9.35 9.07z"/>
     <path class="fil1" d="M303.78 398.96c-0.22,0.03 -0.53,-0.11 -0.64,0.16l-3.92 3.33c0.95,1.75 0.52,0.07 0.76,2.83 2.45,-0.79 0.65,-0.98 1.95,-0.72 1.83,0.37 1.37,5 4.46,6.13 -3.5,0.37 -3.84,-3.1 -5.79,-0.36 -1.07,1.51 1.81,-0.74 1.78,6.53 -0.01,3.45 -0.11,6.7 -0.05,10.19 0.11,6.94 -0.1,14.04 -0.1,20.99l-2.38 1.16 0.1 3.18 -6.27 0 0 -49.22c-3.4,-0.38 -2.91,-1.88 -3.27,-5.79 0.17,-0.06 0.44,-0.1 0.54,-0.11l1.41 0.11c0.07,-5.82 0.78,-3.14 1.54,-3.91l2.88 -1.72c1.32,0.17 0.69,-0.17 1.92,1.01 0.38,0.36 0.99,1.31 1.63,1.96 2.28,2.34 2.14,1.05 3.46,4.23z"/>
     <path class="fil1" d="M358.07 422.47l0.54 1.68 -3.64 0.82 2.25 1.61c2.93,2.56 0.89,0.35 4.02,1.3 0.05,0.02 1.77,1.09 2.1,1.36 -0.61,2.04 0.17,0.25 -0.71,1l-1.63 1c2.26,1.31 0.53,-1.02 2.02,3.79l-2.76 1.45c1.12,1.51 1.24,0.95 1.67,2.38 0.32,1.07 0.26,3.62 0.27,4.87 0.05,5.18 0.43,3.74 1,6.11 0.25,1.06 0.25,1.44 0.29,2.57l-16.47 0c0.01,-5.54 0.12,-11.09 0.13,-16.65 0,-1.2 0.11,-8.11 -0.09,-8.7 -0.69,-1.99 0.86,-1.75 -2.78,-1.96 -3.96,-0.22 -1.93,0.41 -2.14,0.92 1.71,-2.77 1.08,2.72 2.08,-4.02 -2.6,-1.14 -1.12,0.03 -2.9,-1.69 4.53,-4.93 16.34,-3.06 16.75,2.16z"/>
     <path class="fil1" d="M245.77 417.6l0.58 0.54 7.07 6.94c1.79,3.02 4.51,5.05 7.32,8 -0.92,2.96 -0.67,1.22 -0.35,1.93 -0.31,0.29 -0.16,2.35 -3.39,-0.72l2.56 9.41c-2,1.97 -2.35,0.52 -2.1,2.72 0.49,4.31 1.96,-2.8 1.96,5.97l-20.42 0 1.38 -1.18c0.13,-0.12 0.3,-0.25 0.42,-0.37 2.53,-2.57 1.09,-25.13 1.68,-33.19 3.92,-0.67 -2.69,-1.6 0.53,0.46l2.28 -0.21c0.07,-0.23 0.32,-0.2 0.49,-0.3z"/>
     <path class="fil1" d="M245.77 417.6c-0.17,0.09 -0.42,0.07 -0.49,0.3l-2.28 0.21c-3.22,-2.06 3.4,-1.13 -0.53,-0.46 -0.59,8.06 0.86,30.62 -1.68,33.19 -0.12,0.12 -0.29,0.25 -0.42,0.37l-1.38 1.18 -7.53 0 -0.26 -40.84c0,-0.08 1.39,-5.58 -2.19,-6.72 0.65,-0.77 0.49,-0.71 0.94,-1.2 0.1,-0.1 0.32,-0.3 0.4,-0.39l0.93 -0.78 14.47 15.13z"/>
     <path class="fil1" d="M444.25 337.35c1.45,1.14 0.56,0.32 0.8,1.28l-0.1 29.93c0.29,1.92 -0.43,2.08 2,2.81 -0.59,1.13 0.61,0.27 -1.42,0.47 -1.33,-0.04 -6.62,-5.95 -8.02,-7.51l-10.08 -11.28c1.21,-0.49 2.19,-1.11 3.17,-0.35l2.22 3.42c-0.83,-2.47 -1.75,-4.19 -1.1,-7.02l0.3 -0.9c0.64,-2.46 0.4,-6.36 0.39,-9.45 -0.03,-20.37 -0.88,-8.8 -2.98,-16.65 5.15,3.41 9.6,10.73 14.82,15.24z"/>
     <path class="fil1" d="M375.29 439.35c2.46,0.51 2.55,2.4 7.53,1.85 3.67,-0.41 4.9,-1.69 7.13,-3.63 0.9,0.84 1.45,0.91 1.5,2.36 0.07,2.28 -0.5,1.17 -2.19,3.06 0.1,2.69 -0.18,3.23 0.62,5.6 0.69,2.05 0.84,-0.9 0.84,3.81l-27.22 0c-0.04,-1.13 -0.03,-1.51 -0.29,-2.57 -0.57,-2.37 -0.96,-0.93 -1,-6.11 -0.01,-1.25 0.05,-3.8 -0.27,-4.87 -0.43,-1.43 -0.55,-0.87 -1.67,-2.38l2.76 -1.45c-1.48,-4.81 0.24,-2.48 -2.02,-3.79l1.63 -1c0.88,-0.74 0.1,1.05 0.71,-1 -0.33,-0.27 -2.05,-1.35 -2.1,-1.36 -3.13,-0.94 -1.09,1.27 -4.02,-1.3l-2.25 -1.61 3.64 -0.82 -0.54 -1.68c3.34,1.88 5.56,4.79 8.88,8.33 2.17,2.32 5.93,7.03 8.34,8.55z"/>
     <path class="fil1" d="M414.36 375.21l1.71 2.76c1.96,2.12 4.83,4.28 5.88,6.7 0.47,1.65 0.58,0.13 0.29,2.57l-1.31 0.73c0.81,2.59 0.21,0.02 2.05,1.45 -0.95,3.11 -1.1,9.66 -0.77,13.36 0.22,2.46 0.62,5.71 0.29,8.42 -0.23,1.92 -0.38,2.44 -2.49,4.77 -1.19,-1.01 -0.18,-0.39 -1.16,-1.02 -1.24,-0.8 -0.46,-0.54 -1.61,-0.73 -1,-2.35 -0.49,-1.46 -2.22,-3.32 -0.75,-0.81 -1.26,-1.26 -2.09,-2.1 -1.62,-1.64 -2.81,-2.72 -4.02,-4.52 1.55,-2.1 -0.08,-4.79 0.47,-7.4l-0.11 -22.01c1.49,0.63 2.31,0.87 3.34,1.77l-0.33 -2.15c0.99,0.5 0.97,0.32 2.08,0.73z"/>
     <path class="fil1" d="M438.34 400.71l1.23 0.56 -1.38 3.93c2.77,-0.18 2.09,-0.11 4.19,1.2l-2.07 0.64 -2.06 1.29c2.38,0.93 1.42,0.36 1.4,9.31 -0.01,4.1 -0.02,8.2 0.03,12.31 0.2,15.49 1.01,10.56 1.31,15.92 0.11,1.98 0.04,4.5 0.04,6.52l-13.92 0 -4.91 -1.29 2.79 -1.04c3.36,-1.04 6.16,-1.78 7.07,-5.82 1.58,-3.03 3.34,-7.51 1.33,-11.39l2.07 -2.46 -2 -3.46c-0.13,-0.13 -0.31,-0.27 -0.44,-0.38 -1.83,-1.56 1.87,0.71 -1.72,-0.93l0.38 -2.86c-0.03,-0.03 -0.14,-0.16 -0.17,-0.2l-2.15 -1.29c2,-1.12 3.23,-3.15 3.37,-5.75l-0.42 -8.83c0.01,-4.83 -0.7,-3.9 2.58,-4.25l-2.4 -1.58c-1.29,-1.08 -0.32,0.65 -1.05,-1.31 1.95,-2.45 0.8,-1.61 3.87,-1.68l3.02 2.84z"/>
     <path class="fil1" d="M449.03 452.4l-8 0c-0,-2.02 0.07,-4.55 -0.04,-6.52 -0.3,-5.35 -1.11,-0.43 -1.31,-15.92 -0.05,-4.1 -0.04,-8.2 -0.03,-12.31 0.02,-8.96 0.98,-8.39 -1.4,-9.31l2.06 -1.29c1.86,-0.3 2.24,-0.44 3.6,-0.97l0.93 1.02c4.69,4.32 5.52,-0.52 4.89,-0.33l-0.28 1.48c2.09,1.63 -0.75,3.69 2.08,5.07 -3.28,0.9 -1.66,0.7 -2.49,2.17l0 36.92z"/>
     <path class="fil1" d="M224.46 396.51c0.04,0.24 -0.02,3.35 0.3,1.76 0.02,-0.11 0.31,0.35 0.43,0.55 1.05,0.17 -0.17,1.13 1.62,3.13 -2.01,0.69 -0.95,0.41 -1.76,1.22 0.25,12.06 3.52,3.98 1.96,11.17 -0.24,-2.02 -0.55,-2.38 -1.98,-3.66l-0.04 19.56c0.03,1.15 0.25,1.97 0.3,4.06l1.68 0c-0.15,2.1 -0.37,3.3 -1.33,5.21 -0.28,0.55 -0.28,0.62 -0.73,1.13l-0.5 0.45c-0.1,0.08 -1.04,0.42 -1.09,0.45 2.4,1.84 2.26,5.36 2.26,10.86l-6.64 0 0.53 -4.58c-0.15,-0.19 -0.42,-0.41 -0.57,-0.58 -0.17,-0.19 -0.47,-0.39 -0.65,-0.63l0.64 0.59c0.59,-2.32 4.09,-1.49 0.74,-2.05 -0.74,1.43 -3.96,4.22 -4.85,0.88 3.37,-1.81 3.87,-1.31 6.14,-4.55 6.41,-9.15 -0.35,-16.76 -6.46,-22.2l2.4 0.54 -1.15 -3.42c-0.04,-0.21 -0.03,-0.4 -0.06,-0.6l-0.19 -1.57c-0.02,-0.13 -0.07,-0.33 -0.09,-0.47 -0.65,-4.27 0.41,-7.24 -1.45,-16.48 1.37,-2.07 8.51,-3.04 10.56,-0.77z"/>
     <path class="fil1" d="M193.78 431.94c0.81,1.81 9.87,11.14 11.71,12.93l0.18 0.9c-0.7,1.85 -0.93,1.21 -1.94,2.28 4.61,-0.17 0.76,-0.13 4.3,1.45l0.02 2.89 -22.63 0 0 -1.96c-1.4,2.55 -0.44,0.88 -1.33,0.51 -0.18,-2.87 -0.64,-5.09 -0.57,-8.74l1.28 -13.7c-1,-5.31 -1.38,-3.47 0.41,-4.78 2.97,3.08 5.42,6.47 8.56,8.2z"/>
     <path class="fil1" d="M407.75 213.73l-1.53 0.93c-2.82,2.72 -1.76,14.61 -1.57,19.12 0.08,1.96 -0.29,0.76 -3.25,1.34 -0.05,0.01 -0.26,0.03 -0.35,0.11 2.54,2.4 1.5,3.68 1.5,3.69 -0.44,1.8 1.2,0.17 -0.41,1.52 -6,-3.21 -5.71,-5.41 -7.61,-7.21 -1.98,-1.87 -2.18,-0.64 -2.45,-2.54 -0.13,-1.86 -0.09,-2.06 0.08,-3.22 0.03,-0.17 0.48,-1.39 0.49,-1.47 0.1,-2.08 1.92,2.07 -0.52,-0.5 -0.93,-0.98 -0.54,1.32 -0.83,-1.12 2.24,-2.48 1.95,-0.88 2.1,-1.32 0.06,-0.2 0.32,-0.07 0.47,-0.13 -2.06,-2.97 -0.04,-1.28 -3.5,-4.6 2.45,-1.17 0.52,-2.03 2.32,-0.47l-2.07 0c0.08,-0.31 0.19,-0.59 0.29,-0.9l1.12 -4.14c0.88,1.11 0.9,0.58 -0.02,-0.05l-4.05 0.24c0.62,-2.31 0.26,-3.05 0.19,-3.27 8.22,-7.78 15.79,-1.94 19.63,3.99z"/>
     <path class="fil1" d="M344.03 405.84c-3.51,-1.26 -0.3,-0.36 -3.28,-1.7l-0.49 1.37c-0.08,0.21 -0.16,0.42 -0.24,0.65 -0.09,0.23 -0.37,0.93 -0.45,1.14 -0.99,2.79 -0.17,1.53 -0.15,6.74 6.41,0.93 -1.58,0.02 4.12,-1.01 2.11,-0.38 1.04,0.06 1.21,0.1 3.23,0.72 -1.58,0.99 0.85,0.25l-6.46 5.01c0.16,0.17 0.5,0.58 0.58,0.68l0.77 1.01c-2.06,4.71 -6.51,9.72 -1.44,16.7 1.54,2.11 3.22,2.98 4.19,6.52 1.08,3.96 0.2,5.57 -0.64,9.11l-10.77 0c1.2,-5.96 0.52,-20.68 0.46,-28.23 -0.03,-3.88 0.21,-11.01 -0.41,-14.24l0.53 -4.52c0.04,-0.06 0.14,-0.25 0.18,-0.3 0.84,-1.18 -1.52,-1.04 1.25,-0.48 1.32,-1.86 -0.3,0.03 2.09,-0.74 5,-1.61 -2.98,1.41 1.19,-0.36 2.11,-0.89 0.13,0.67 1.73,-1.02 3.03,1.38 3.12,1.35 5.19,3.35z"/>
     <path class="fil1" d="M418.81 225.17c-2.51,0.07 -1.27,0.42 -3.28,-1.51l1.2 3.38c0.02,0.12 0.06,0.31 0.06,0.42l-0.15 0.77c-1.35,5.33 -1.01,8.77 -0.85,15.09 0.02,0.73 -0.06,2.47 -0.13,2.61l-1.42 0.9c1.27,1.4 1.65,1.19 1.35,4.62 -0.34,3.87 1.5,-1.53 -0.66,3.1 -3.59,-1.77 -0.43,0.21 -2.48,-2.41 -1.38,-1.75 0.1,-1.79 -2.46,-1.7 -1.14,-1.31 -1.37,-1.42 -2.26,-2.73 -0.96,-1.4 -0.65,-1.27 -1.67,-2.56 -1.63,-2.07 -2.63,-2.33 -3.91,-4.7 1.61,-1.35 -0.03,0.28 0.41,-1.52 0,-0.01 1.04,-1.29 -1.5,-3.69 0.09,-0.08 0.3,-0.1 0.35,-0.11 2.96,-0.58 3.34,0.63 3.25,-1.34 -0.19,-4.51 -1.25,-16.4 1.57,-19.12l1.53 -0.93 11.06 11.44z"/>
     <path class="fil1" d="M412.29 374.48l0.33 2.15c-1.03,-0.89 -1.85,-1.13 -3.34,-1.77l0.11 22.01c-0.55,2.61 1.09,5.3 -0.47,7.4l-11.05 -11.05 0.96 -2.72c0.55,-1.49 -0.65,-0.19 0.65,-3.7 -0.6,0.91 0.04,0.41 -0.77,1.1 -1.31,1.13 0.06,0.41 -2.22,1.4 0.42,-2.45 0.13,-5.73 2.04,-9.69 -3.95,0.91 -0.23,-1.69 -5.84,-0.52 1.53,-3.89 2.06,-2.99 2.69,-3.21l1.45 -4.67c0.33,-0.86 -0.51,-0.1 1.02,-1.04 4.59,-2.79 11.75,-1.24 14.43,4.3z"/>
     <path class="fil1" d="M435.97 232.84c-0.66,1.31 -0.33,2.36 -4.52,2.4l-0.13 39.91c0.28,3.23 0.62,1.95 1.51,3.67 -1.41,1.18 -1.45,2.45 -2.36,3.88 -2.05,-0.89 -0.31,-0.05 -1.58,-1.48 -6.03,-6.79 0.07,-3.84 -3.57,-5.46 0.75,-5.26 0.51,-7.05 -1.49,-11.31 1.58,-0.95 1.49,-0.54 2.12,-0.43 -1.46,-5.98 -1.58,0.06 -2.75,-5.6 -0.7,-3.36 -0.61,-16.45 0.62,-21.46l-2.2 -0.96c0.52,-3.18 0.74,0.24 0.25,-3.67 4.21,0.17 2.4,1.54 3.35,-0.74 4.9,1.71 5.17,2.22 10.75,1.24z"/>
     <path class="fil1" d="M435.32 397.87c-3.07,0.07 -1.92,-0.76 -3.87,1.68 0.74,1.96 -0.23,0.23 1.05,1.31l2.4 1.58c-3.27,0.35 -2.56,-0.58 -2.58,4.25l0.42 8.83c-0.14,2.6 -1.37,4.63 -3.37,5.75l2.15 1.29c0.04,0.03 0.15,0.16 0.17,0.2l-0.38 2.86c3.58,1.64 -0.11,-0.63 1.72,0.93 0.13,0.11 0.31,0.25 0.44,0.38l2 3.46 -2.07 2.46c-2.07,-7.11 -9.44,-11.67 -13.39,-16.88 2.11,-2.33 2.26,-2.85 2.49,-4.77 0.33,-2.71 -0.07,-5.97 -0.29,-8.42 -0.33,-3.7 -0.18,-10.25 0.77,-13.36 -1.84,-1.43 -1.24,1.14 -2.05,-1.45l1.31 -0.73c0.29,-2.44 0.17,-0.92 -0.29,-2.57 3.65,1.95 9.82,9.97 13.37,13.2z"/>
     <path class="fil1" d="M454.98 452.4l-5.95 0 0 -36.92c0.83,-1.47 -0.78,-1.27 2.49,-2.17 -2.83,-1.38 0.01,-3.44 -2.08,-5.07l0.28 -1.48c0.63,-0.2 -0.2,4.65 -4.89,0.33l-0.93 -1.02c-1.36,0.53 -1.74,0.66 -3.6,0.97l2.07 -0.64c-2.1,-1.31 -1.41,-1.38 -4.19,-1.2l1.38 -3.93c2.88,1.66 5.11,2.28 8.75,1.48 4.6,-1.02 3.8,-2.52 6.66,-4.22l0 53.87z"/>
     <path class="fil1" d="M447.71 340.45c2.02,0.86 2.29,2.08 3.55,3.61 0.19,0.23 1.55,1.65 1.75,1.81 1.03,0.83 0.46,0.63 1.97,1.21l0 34.9c-2.88,-1.24 -7.6,-7.25 -9.45,-10.13 2.03,-0.2 0.82,0.66 1.42,-0.47 -2.42,-0.73 -1.71,-0.89 -2,-2.81l0.1 -29.93 2.66 1.82z"/>
     <path class="fil1" d="M400.99 294.11c-0.58,2.06 1.15,0.75 -2.1,1.25 -0.25,0.04 -3.21,-0.04 -3.45,0.09l2.09 0.39c-2.62,1.44 -1.09,-1.79 -0.98,6.69 0.02,1.4 -0.12,3.11 -0.06,4.44 0.19,4.76 5.52,8.35 1.99,10.87 -3.61,2.58 2.91,0.53 -1.14,0.09 -1.91,-0.21 0.31,-1.23 -2.54,-0.35 5.57,5.07 10.83,11.66 16.57,17.17l10.9 12.22c0.56,0.37 -0.13,-0.11 0.98,1.11 0.07,0.08 0.23,0.24 0.31,0.33l3.44 4.13c0.08,-0.13 0.29,0.35 0.44,0.52l10.08 11.28c1.4,1.56 6.69,7.47 8.02,7.51 1.85,2.88 6.56,8.89 9.45,10.13l0 0.99 -7.23 -7.4 -15.08 -15.58c-1.24,-0.86 0.11,-0.21 -1.21,-0.63 -1.27,-2.93 -11.22,-12.59 -14.71,-16.14l-2.54 -1.98c-1.87,-3.45 -18.61,-19.97 -22.43,-23.94 -3.2,-3.33 -8.59,-8.64 -5.14,-16.68 1.71,-3.99 8.56,-9.51 14.35,-6.51z"/>
     <path class="fil1" d="M231.3 402.48l-0.93 0.78c-0.08,0.09 -0.3,0.28 -0.4,0.39 -0.45,0.49 -0.29,0.42 -0.94,1.2 3.57,1.13 2.19,6.63 2.19,6.72l0.26 40.84 -5.91 0c0,-5.49 0.14,-9.02 -2.26,-10.86 0.06,-0.03 0.99,-0.37 1.09,-0.45l0.5 -0.45c0.45,-0.52 0.45,-0.58 0.73,-1.13 0.96,-1.91 1.18,-3.11 1.33,-5.21l-1.68 0c-0.04,-2.09 -0.26,-2.9 -0.3,-4.06l0.04 -19.56c1.43,1.28 1.74,1.65 1.98,3.66 1.56,-7.19 -1.71,0.89 -1.96,-11.17 0.81,-0.81 -0.25,-0.53 1.76,-1.22 -1.79,-1.99 -0.57,-2.95 -1.62,-3.13 -0.12,-0.2 -0.41,-0.66 -0.43,-0.55 -0.33,1.59 -0.26,-1.53 -0.3,-1.76 3.39,1.49 4.99,3.8 6.84,5.96z"/>
     <path class="fil1" d="M428.82 321.2c-0.25,1.06 -0.44,0.74 0.62,0.9 2.1,7.85 2.95,-3.72 2.98,16.65 0,3.09 0.25,6.99 -0.39,9.45l-0.3 0.9c-0.64,2.83 0.27,4.55 1.1,7.02l-2.22 -3.42c-0.98,-0.76 -1.96,-0.14 -3.17,0.35 -0.15,-0.17 -0.36,-0.65 -0.44,-0.52l-3.44 -4.13c-0.08,-0.09 -0.23,-0.25 -0.31,-0.33 -1.11,-1.23 -0.42,-0.74 -0.98,-1.11 1.01,-3.56 -0.02,-10.84 -0.16,-14.86 -0.16,-4.4 0.68,-9.57 0.49,-15.06 0.15,0.15 0.32,0.23 0.41,0.5 0.63,1.88 2.54,0.4 2.54,0.4 1.68,0.32 -0.42,-1.34 1.91,1.05 1.25,1.28 0.86,1.08 1.35,2.22z"/>
     <path class="fil1" d="M-3.57 376.72c5.55,-0.42 3.32,2.15 8.3,0.39 0.62,-4.41 -0.75,0.95 -0.26,-2.97l0.4 -1.25c0.63,4.56 -0.28,2.86 3.61,3.72 1.57,0.27 0.27,-0.37 1.94,1.08 0.38,0.33 1.28,1.39 1.71,1.86 1.33,1.45 1.91,1.99 3.29,3.65 -2.12,-1 -1.7,-0.75 -3.08,-0.37l-1.22 0.39c-0.31,0.04 -4.29,-0.47 -4.43,-0.52 0.28,2.86 0.8,2.97 1.3,4.81 -0.66,0.32 -0.94,0.38 -1.86,0.89l-1.32 -1.83c-0.63,-0.95 -0.95,-1.51 -1.42,-2.18 -4,2.42 2.45,1.96 -10.41,1.96 -1.76,-3.03 1.01,-1.32 -2.08,-3.44l-2.32 3.55c-0.08,-0.02 -0.3,-0.06 -0.39,-0.09 -3.69,-1.26 -0.31,-1.72 -5.07,-2.28 -0.58,-0.35 -0.1,0.13 -0.99,-0.8 -0.2,-0.21 -0.69,-0.78 -0.88,-1.12 -1.08,-1.81 -0.83,-1.54 -1.29,-3.59 2.1,-0.91 1.25,0.1 1.25,-4.32 5.15,2.07 0.39,-3.55 6.81,-3.03 0.16,0.01 0.51,0.4 0.63,0.19 0.12,-0.21 0.43,0.13 0.63,0.23 0.04,0.18 0.01,0.44 -0.02,0.55 -0.64,3.19 -1.28,1.67 -2.79,4.08 1.43,1.04 1.9,0.72 3.17,-0.36l1.96 -2.02c1.8,0.93 3.61,2.81 4.85,2.84z"/>
     <path class="fil1" d="M162.03 434.29c-3.15,-1.85 -7,-6.43 -9.27,-9.88 -2.53,-3.76 -2.55,-7.72 -0.9,-11.84l1.03 -2.82c2.38,-1.49 4.29,-3.61 8.56,-4.31 -0.22,1.8 1.01,1.41 1.96,2.87 0.69,1.05 0.42,1.88 0.11,3.46l-2.62 0.33c-0.03,-0.01 -0.12,-0.14 -0.14,-0.23l3.97 0.04c-0.46,2.29 -0.6,4.98 -0.58,7.96l0.43 4.79c0.02,0.13 0.08,0.33 0.09,0.46l0.52 6.87c0.16,0.93 1.73,0.46 -0.38,2.25 -1.39,1.18 1,1.14 -2.79,0.06z"/>
     <path class="fil1" d="M23.71 397.05l-0.24 3.09c1.71,1.35 2.84,1.35 2.74,4.48 -3.5,1.84 -10.96,0.18 -14.55,-0.13l-0.69 -2.02 -4.04 2.35c-1.36,0.4 0.15,0.81 -2.24,0.12l-3.64 -4.31c-1.65,-1.79 -0.68,-1.39 -3.48,-3.01 -1.78,-1.03 -2.27,0.12 -0.9,-4.37 0.02,-0.07 0.05,-0.28 0.08,-0.35l0.6 -1.1c1.51,-1.6 0.36,-0.53 2.54,-1.65 1.46,2.54 -2.23,4.92 1.99,2.92 0.24,-0.11 0.5,-0.25 0.71,-0.36 0.23,-0.11 0.49,-0.29 0.75,-0.39 1.11,3.47 0.59,2.54 5.54,2.44 3.92,-0.07 4.24,-0.64 6.99,-1.57 -0.29,-0.34 -2.28,-1.28 -1.13,-4.5l3.71 3.04c0.49,1.36 -1.31,4.13 5.25,5.31z"/>
     <path class="fil1" d="M1.67 438.48c1.07,2.42 1.43,2.41 3.25,4.29 1.22,1.25 1.92,2.02 3.14,3.28 2.16,2.22 4.11,4.21 6.1,6.35l-33.48 0c-0.99,-1.85 -2.03,-3.08 -2.95,-5.55 1.67,-1.57 1.99,-1.33 1.2,-4.5l2.65 3.22c1.09,-1.03 -1.26,-0.42 2.36,-0.75 2.98,-0.27 5.8,0.82 8.29,-0.74 3.11,4.69 -0.23,1.48 4.61,3.99l1.08 -1.81c-3.17,-2.03 -1.76,-2.38 -3.54,-4.47l2.83 -0c5.11,-0.61 3.3,-0.77 0.33,-4.13 1.72,0.57 0.45,0.36 1.13,-0.86 1.25,0.74 0.71,0.56 1.76,1.16 1.42,0.81 -0.16,0.19 1.22,0.54z"/>
     <path class="fil1" d="M418.81 225.17l6.71 6.1 -0.3 0.33c-0.95,2.28 0.86,0.9 -3.35,0.74 0.5,3.91 0.28,0.5 -0.25,3.67l2.2 0.96c-1.23,5 -1.32,18.09 -0.62,21.46 1.17,5.66 1.29,-0.38 2.75,5.6 -0.64,-0.1 -0.55,-0.52 -2.12,0.43 -2.11,-4.19 -2.54,-2.01 -4.76,-4.7l-4.16 -5.22c2.16,-4.62 0.32,0.77 0.66,-3.1 0.3,-3.44 -0.08,-3.22 -1.35,-4.62l1.42 -0.9c0.07,-0.14 0.15,-1.88 0.13,-2.61 -0.16,-6.32 -0.5,-9.76 0.85,-15.09l0.15 -0.77c-0,-0.11 -0.04,-0.3 -0.06,-0.42l-1.2 -3.38c2.02,1.94 0.77,1.58 3.28,1.51z"/>
     <path class="fil1" d="M425.55 317.93c-0.01,0 -1.92,1.49 -2.54,-0.4 -0.09,-0.26 -0.26,-0.35 -0.41,-0.5 0.19,5.49 -0.65,10.66 -0.49,15.06 0.15,4.02 1.18,11.3 0.16,14.86l-10.9 -12.22 2.08 -0.6c-1.26,1.09 -1.51,1.43 -1.24,2.81 0.71,0.25 0.88,-0.31 3.02,0.72 0.13,0.06 0.7,0.51 0.87,0.67 -0.7,-2.02 -1.04,-1.68 -0.75,-3.42 0.04,-0.21 0.48,-1.32 0.54,-1.55l0.44 -21.99c0,-0.24 -0.03,-0.34 0,-0.5 1.26,-0.37 -1.88,-1.27 2.27,-0.17 1.51,0.3 0.1,-0.54 1.96,1.06 0.58,0.5 1.09,1.19 1.7,1.84 1.84,1.98 2.2,1.83 3.31,4.33z"/>
     <path class="fil1" d="M347.02 452.4l-4.42 0c0.84,-3.54 1.73,-5.15 0.64,-9.11 -0.97,-3.54 -2.65,-4.4 -4.19,-6.52 -5.08,-6.98 -0.62,-11.99 1.44,-16.7l0.82 0.24c1.77,1.72 0.3,0.55 2.9,1.69 -1,6.74 -0.36,1.24 -2.08,4.02 0.21,-0.51 -1.81,-1.14 2.14,-0.92 3.64,0.2 2.09,-0.03 2.78,1.96 0.21,0.59 0.09,7.5 0.09,8.7 -0.01,5.56 -0.12,11.11 -0.13,16.65z"/>
     <path class="fil1" d="M410.13 441.81c-4.7,1.08 -4.45,-1.37 -4.93,3.23 -0.76,7.21 1.9,1.89 2.02,7.36l-10.32 0c0,-4.13 -0.85,-4.5 -1.08,-8.68 -0.44,-7.99 -0.14,-6.66 2.95,-7.46 -0.22,-0.06 -0.53,-0.09 -0.67,-0.11l-1.02 -0.19c-4.27,-1.04 3.9,1.74 3.9,-1.53 4.65,1 7.59,4.37 9.14,7.39z"/>
     <path class="fil1" d="M272.77 445.61l-4.06 2.17c-0.04,0.01 -0.23,0.04 -0.28,0.05l-0.82 0.08c-0.15,0.02 -0.83,0.02 -1.03,0.14 0.17,3.37 -0.46,2.41 1.18,4.34l-8.35 0c0,-8.77 -1.47,-1.66 -1.96,-5.97 -0.25,-2.2 0.1,-0.75 2.1,-2.72l-2.56 -9.41c3.23,3.07 3.07,1.01 3.39,0.72 -0.31,-0.71 -0.57,1.03 0.35,-1.93l12.03 12.52z"/>
     <path class="fil1" d="M3.62 371.48c-3.68,-0.57 -1.57,-1.73 -7.11,-4.15 -1.55,-0.68 -3.18,-1.75 -4.71,-0.82l0.12 1.13c0.04,0.12 0.09,0.37 0.14,0.49 0.48,1.14 1.15,1.14 1.82,1.75 -0.08,0.06 -1.3,0.79 -1.36,0.84 -1.56,1.44 -0.62,-0.24 -1.63,2.06l4.1 1.9c1.58,0.92 0.2,-0.35 1.43,2.05 -1.24,-0.03 -3.05,-1.91 -4.85,-2.84l-1.96 2.02c-1.27,1.08 -1.73,1.4 -3.17,0.36 1.51,-2.4 2.15,-0.89 2.79,-4.08 0.02,-0.11 0.06,-0.37 0.02,-0.55 -0.2,-0.1 -0.51,-0.44 -0.63,-0.23 -0.12,0.21 -0.46,-0.18 -0.63,-0.19 -6.42,-0.52 -1.66,5.1 -6.81,3.03 0,4.42 0.86,3.41 -1.25,4.32 -2.63,-7.53 3.23,-13.57 8.43,-14.9 7.63,-1.94 13.45,3.87 15.24,7.81z"/>
     <path class="fil1" d="M430.47 282.7c0.07,4.5 0.38,2.34 0.62,2.48 -3.67,0.32 -0.7,-0.01 -5.86,2.61l-1.79 1.01c0.83,1.94 1.63,3.96 3.26,3.62 -1.88,5.76 1.24,-1.55 -1.56,0.89 -1.12,0.97 -1.13,-3.3 -0.86,2.19 1.39,-1.83 2.95,-0.38 3.35,0.18 1.44,2.02 0.26,1.71 0.55,5.06 1.75,2.49 1.3,1.04 -0.01,1.5 -2.02,-1.32 -8.62,-7.37 -9.07,-12.21 -0.63,-6.72 3.55,-10.01 6.22,-14.26 3.64,1.62 -2.46,-1.33 3.57,5.46 1.27,1.43 -0.47,0.59 1.58,1.48z"/>
     <path class="fil1" d="M344.03 405.84l1.06 0.24c2.52,5.12 13.19,14.14 16.98,18.23 1.25,1.35 1.08,1.78 2.67,3.25 1.02,1.18 1.77,1.45 2.85,2.56 0.85,0.87 1.5,1.88 2.6,3.08 2.35,2.56 3.61,3.49 5.09,6.15 -2.41,-1.52 -6.17,-6.23 -8.34,-8.55 -3.32,-3.54 -5.53,-6.45 -8.88,-8.33 -0.41,-5.22 -12.23,-7.09 -16.75,-2.16l-0.82 -0.24 -0.77 -1.01c-0.08,-0.1 -0.42,-0.51 -0.58,-0.68l6.46 -5.01c-2.43,0.74 2.38,0.47 -0.85,-0.25 -0.17,-0.04 0.9,-0.48 -1.21,-0.1 -5.7,1.04 2.28,1.95 -4.12,1.01 -0.01,-5.21 -0.83,-3.95 0.15,-6.74 0.07,-0.21 0.36,-0.9 0.45,-1.14 0.08,-0.22 0.16,-0.43 0.24,-0.65l0.49 -1.37c2.98,1.33 -0.23,0.44 3.28,1.7z"/>
     <path class="fil1" d="M432.06 444.24c-0.92,4.04 -3.71,4.78 -7.07,5.82l-2.79 1.04 4.91 1.29 -19.89 0c-0.13,-5.47 -2.79,-0.15 -2.02,-7.36 0.49,-4.6 0.24,-2.14 4.93,-3.23 1.08,0.37 -0.03,-0.23 1.16,0.62 5.87,4.18 8.32,12.21 20.77,1.81z"/>
     <path class="fil1" d="M72.09 402.35l-0.52 2.45c-2.18,-1.53 1.07,-0.67 0.23,9.63l-0.67 5.35c-0.5,1.79 -0.84,-0.4 -0.19,1.24l0 0.45c-1.66,1.56 -2.32,1.74 -4.53,1.8 -1.6,-2.61 -1.31,0.83 -0.17,-1.04 0.67,-1.09 -0.34,-0.36 1.24,-0.59 -2.62,-0.98 -1.86,-1.7 -3.32,-1.23 2.45,-2.08 -0.24,2.14 0.91,-1.44 1.37,-4.27 -1,-14.15 1.14,-18.87l-2.75 0.03 -1.28 -0.68 5.53 0.64 4.39 2.28z"/>
     <path class="fil1" d="M-2.78 441.77l-2.83 0c1.78,2.09 0.38,2.45 3.54,4.47l-1.08 1.81c-4.84,-2.51 -1.51,0.71 -4.61,-3.99 -2.49,1.55 -5.31,0.47 -8.29,0.74 -3.62,0.33 -1.27,-0.28 -2.36,0.75l-2.65 -3.22c0.79,3.18 0.48,2.93 -1.2,4.5 -0.59,-3.57 -0.97,-5 0.87,-7.63 2.18,1.78 -0.05,0.09 2.59,-1.77 0.08,2.3 0.06,1.52 3.38,1.54 8.78,0.05 5.51,-0.83 7.48,-1.99 0.12,-0.07 0.3,-0.2 0.43,-0.25 1.96,-0.76 2.54,0.52 4.85,0.98l-0.11 4.04z"/>
     <path class="fil1" d="M295.6 390.53c-3.23,1.2 -1.13,-0.46 -10.09,-0.38 0.13,4.8 1.15,2.94 1.43,5.99 -2.9,-1.96 -0.46,-2.42 -4.37,-1.44 0.02,3.9 -0.12,1.41 0.86,3.41 2.24,4.54 0.84,2.04 0.97,5.61 0,0 0.5,2.74 0.55,3.44 -4.53,-0.22 -2.09,1.44 -4.43,-1.29 2.06,3.02 2.56,1.93 2.23,5.55 -0.17,-0.12 -0.4,-0.53 -0.47,-0.39 -0.07,0.13 -8.85,-7.79 -2.79,-16.92 2.89,-4.36 9.61,-8.22 16.1,-3.58z"/>
     <path class="fil1" d="M-5.65 432.31c2.25,1.53 3.37,2.34 4.33,4.47 -0.68,1.22 0.59,1.42 -1.13,0.86 2.96,3.36 4.78,3.52 -0.33,4.13l0.11 -4.04c-2.31,-0.45 -2.89,-1.73 -4.85,-0.98 -0.13,0.05 -0.31,0.18 -0.43,0.25 -1.97,1.16 1.29,2.04 -7.48,1.99 -3.31,-0.02 -3.3,0.76 -3.38,-1.54 -2.65,1.86 -0.41,3.55 -2.59,1.77 0.67,-6.09 8.93,-10.19 15.75,-6.9z"/>
     <path class="fil1" d="M214.44 419.28c-2.02,-2.48 -4.41,-3.87 -5.55,-7.05 -1.28,-3.58 -0.49,-6.98 0.31,-10.26 1.98,-3.16 1.72,-3.19 4.7,-4.69 1.86,9.24 0.8,12.21 1.45,16.48 0.02,0.13 0.07,0.33 0.09,0.47l0.19 1.57c0.03,0.2 0.02,0.39 0.06,0.6l1.15 3.42 -2.4 -0.54z"/>
     <path class="fil1" d="M400.99 434.42c-0.01,3.27 -8.17,0.49 -3.9,1.53l1.02 0.19c0.13,0.03 0.45,0.05 0.67,0.11 -3.09,0.81 -3.39,-0.53 -2.95,7.46 0.23,4.18 1.08,4.55 1.08,8.68l-6.18 0c-0.01,-4.7 -0.15,-1.75 -0.84,-3.81 -0.8,-2.38 -0.52,-2.91 -0.62,-5.6 1.69,-1.89 2.26,-0.78 2.19,-3.06 -0.05,-1.45 -0.6,-1.52 -1.5,-2.36 3.21,-2.73 4.91,-3.89 10.59,-3.48l0.45 0.33z"/>
     <path class="fil1" d="M3.62 371.48c1.85,0.41 -0.58,-0.9 2.06,0.79 0.87,1.55 0.33,0.44 1.26,1.8 1.16,1.71 0.55,0.29 1.53,2.54 -3.89,-0.86 -2.97,0.85 -3.61,-3.72l-0.4 1.25c-0.49,3.92 0.89,-1.45 0.26,2.97 -4.98,1.76 -2.75,-0.81 -8.3,-0.39 -1.23,-2.4 0.15,-1.13 -1.43,-2.05l-4.1 -1.9c1,-2.3 0.07,-0.62 1.63,-2.06 0.06,-0.05 1.28,-0.78 1.36,-0.84 -0.67,-0.62 -1.34,-0.61 -1.82,-1.75 -0.05,-0.12 -0.11,-0.37 -0.14,-0.49l-0.12 -1.13c1.53,-0.93 3.15,0.14 4.71,0.82 5.54,2.42 3.43,3.58 7.11,4.15z"/>
     <path class="fil1" d="M392.08 230.7c-1.27,-0.69 -1.02,-0.29 -1.73,-1.11 -1.79,-3.76 -4.52,-3.24 -5.49,-9.24 -0.72,-4.4 0.58,-8.1 3.27,-10.62 0.08,0.23 0.43,0.96 -0.19,3.27l4.05 -0.24c0.91,0.62 0.9,1.15 0.02,0.05l-1.12 4.14c-0.09,0.31 -0.21,0.59 -0.29,0.9l2.07 0c-1.81,-1.56 0.13,-0.69 -2.32,0.47 3.47,3.32 1.44,1.62 3.5,4.6 -0.15,0.05 -0.41,-0.07 -0.47,0.13 -0.14,0.45 0.14,-1.16 -2.1,1.32 0.29,2.44 -0.1,0.14 0.83,1.12 2.43,2.57 0.62,-1.58 0.52,0.5 -0,0.09 -0.46,1.3 -0.49,1.47 -0.17,1.16 -0.21,1.37 -0.08,3.22z"/>
     <path class="fil1" d="M390.28 354.83c-0.1,-0.16 -0.12,-0.51 -0.18,-0.55 -3.65,-2.35 0.19,-0.56 -1.51,0.52l1.5 16.28c-2.59,0.74 -5.16,2.27 -8.51,1.48l-0.1 -0.09c2.18,-0.42 3.49,-1.09 4.96,-1.8l-1.77 -1.62c-0.07,-0.68 -1.45,0.02 0.64,-0.62 -1.39,-9.49 0.31,-15.35 0.52,-19.32 0.01,-0.17 0.04,-0.27 0.11,-0.38 2.66,0.33 1.22,-0.11 2.44,1.19 -0.59,1.21 0.02,0.3 0.84,1.8 0.61,1.11 0.2,0.11 0.7,1.45 0,0.01 0.33,1.57 0.35,1.66z"/>
     <path class="fil1" d="M435.49 201.52c-1.12,2.69 -0.9,6.86 -0.88,9.83 0.07,8.32 -1.37,5.29 -0.66,7.74 0.65,2.24 1.4,1.54 1.48,1.59 -0.07,0.05 -0.84,0.86 -0.87,1.09 -1.61,2.62 -5.12,2.53 -8.08,1.68l1.15 0.04c3.31,-0.4 3.14,-0.66 3.26,-4.1 0.09,-2.41 -0.05,-5.54 -0.08,-8.04l-0.39 -9.63c-0.07,-1.82 -1.65,-0.43 0.71,-1.66 3.15,-0.08 3.93,1.02 4.35,1.47z"/>
     <path class="fil1" d="M285.35 449.89c-0.97,-1.35 -14.04,-12.72 -5.13,-22.46 1.37,-1.49 0.23,-0.52 1.82,-1.44l0.45 6.61c0.43,2.94 1.43,3.74 -0.34,6.77 -0.08,0.44 0.79,0.37 0.65,2.01 -0.41,4.63 0.82,1.92 2.67,5.32 1.24,2.29 1.35,2.14 -0.12,3.19z"/>
     <path class="fil1" d="M381.49 372.47c0.84,-1.36 -1.3,-0.84 1.51,-1.2 -2.38,-1.92 -1.5,-8.17 -1.39,-15.2 0.07,-4.63 0.49,-3.57 1.04,-5.74l-2.66 -1.61c2.62,-0.45 3.55,-0.82 5.97,0.01 -0.07,0.11 -0.1,0.21 -0.11,0.38 -0.21,3.98 -1.91,9.84 -0.52,19.32 -2.09,0.64 -0.71,-0.06 -0.64,0.62l1.77 1.62c-1.47,0.71 -2.78,1.38 -4.96,1.8z"/>
     <path class="fil1" d="M66.41 423.27c-1.16,1.15 -2.59,0.7 -4.62,0.64l-0.98 -0.62c0.77,-1.06 1.01,-0.61 2.35,-1.72 -2.49,-1.02 -0.96,1.99 -0.93,-10.43 0.01,-2.49 -0,-4.69 -0.16,-7.16 -0.17,-2.64 -0.71,-1.74 1.38,-3.85l2.75 -0.03c-2.14,4.72 0.22,14.6 -1.14,18.87 -1.15,3.58 1.54,-0.64 -0.91,1.44 1.46,-0.47 0.7,0.25 3.32,1.23 -1.58,0.23 -0.57,-0.51 -1.24,0.59 -1.14,1.87 -1.43,-1.57 0.17,1.04z"/>
     <path class="fil1" d="M397.86 393.22c-0.9,-1.06 -1.09,-1.34 -1.92,-2.18 -0.08,-0.08 -1.06,-0.99 -1.07,-1 -0.92,-0.74 -0.41,-0.39 -1.11,-0.74 -4.53,-7.37 -2.85,-14.36 3.07,-18.09l-1.45 4.67c-0.64,0.22 -1.16,-0.68 -2.69,3.21 5.61,-1.18 1.89,1.43 5.84,0.52 -1.91,3.96 -1.63,7.24 -2.04,9.69 2.28,-0.99 0.91,-0.27 2.22,-1.4 0.8,-0.69 0.17,-0.19 0.77,-1.1 -1.3,3.51 -0.1,2.21 -0.65,3.7l-0.96 2.72z"/>
     <path class="fil1" d="M427.65 223.48c-0.17,-5.71 -0.18,-7.43 -0.13,-13.6 0.04,-4.56 0.46,-8.87 -1.61,-9.86 1.79,-0.84 3.67,-1.13 5.24,0.03 -2.36,1.23 -0.78,-0.15 -0.71,1.66l0.39 9.63c0.03,2.49 0.17,5.63 0.08,8.04 -0.12,3.44 0.05,3.7 -3.26,4.1z"/>
     <path class="fil1" d="M218.92 452.4l-10.86 0 -0.02 -2.89c-3.54,-1.59 0.31,-1.62 -4.3,-1.45 1.01,-1.08 1.24,-0.43 1.94,-2.28l-0.18 -0.9c4.11,1.15 4.5,1.72 9.27,1.17 0.89,3.34 4.11,0.56 4.85,-0.88 3.34,0.56 -0.16,-0.28 -0.74,2.05l-0.64 -0.59c0.18,0.24 0.48,0.44 0.65,0.63 0.15,0.17 0.42,0.39 0.57,0.58l-0.53 4.58z"/>
     <path class="fil1" d="M427.65 223.48l-1.15 -0.04c-2.08,-0.42 -3.13,-1.1 -4.86,-2.21l3.46 0.13c-0.1,-1.4 -0.36,-2.29 -0.46,-3.19 -0.24,-2.17 -0.2,0.74 -0.04,-2 0.62,-11.09 -1.38,-8.78 0.46,-14.44l-1.53 -0.57c0.06,-0.08 0.82,-1.17 1.16,-1.57l1.23 0.43c2.07,0.99 1.65,5.31 1.61,9.86 -0.05,6.17 -0.04,7.89 0.13,13.6z"/>
     <path class="fil1" d="M428.19 300.75c-0.29,-3.35 0.89,-3.04 -0.55,-5.06 -0.4,-0.56 -1.97,-2.01 -3.35,-0.18 -0.27,-5.49 -0.26,-1.22 0.86,-2.19 2.8,-2.44 -0.32,4.87 1.56,-0.89 -1.63,0.34 -2.43,-1.69 -3.26,-3.62l1.79 -1.01c5.16,-2.61 2.19,-2.29 5.86,-2.61l-0.35 13.86c-0.12,0.13 -0.55,0.49 -0.71,0.61 -2.99,2.3 2.79,-0.46 -1.85,1.09z"/>
     <path class="fil1" d="M63.45 400.13c-2.09,2.11 -1.55,1.21 -1.38,3.85 0.15,2.47 0.16,4.67 0.16,7.16 -0.03,12.42 -1.55,9.41 0.93,10.43 -1.34,1.11 -1.58,0.66 -2.35,1.72l-2.86 -1.26 2.08 -0.7c-0.93,-3.77 -1.63,-15.19 -0.03,-18.86l-2.29 -0.75c1.77,-1.9 2,-1.87 4.45,-2.26l1.28 0.68z"/>
     <path class="fil1" d="M392.88 352.67c1.13,2.81 2.52,3.62 2.47,7.8 -0.05,3.85 -1.29,5.99 -2.67,8.68 -1.2,-0.15 -0.78,-0.21 -1.92,0.4 -0.3,-2.4 0.18,-3.84 0.21,-6.23 0.05,-3.27 -0.52,-6.07 0.87,-7.76l-1.57 -0.72c-0.02,-0.09 -0.35,-1.65 -0.35,-1.66 -0.49,-1.34 -0.08,-0.34 -0.7,-1.45 -0.83,-1.5 -1.43,-0.59 -0.84,-1.8 2.04,0.23 0.27,-0.66 2.53,0.8 1.2,0.78 1.01,0.81 1.96,1.96z"/>
     <path class="fil1" d="M376.16 370.66c-0.37,-1.01 -0.23,-0.69 -1.12,-1.39l0.66 -0.94c0.06,-0.11 0.2,-0.31 0.25,-0.44 0.58,-1.34 0.12,-2.68 0.25,-4.85 -2.39,2.27 -1.04,1.34 -0.37,-2.95 0.43,-2.73 0.19,-4.68 0.81,-7.38 -2.71,1.93 -1.29,1.98 -2.54,1.14 1.02,-2.77 1.95,-2.17 3.42,-4.34 0.13,0.2 0.32,0.23 0.37,0.6 0.18,1.15 1.19,-0.23 1.07,6l0.56 13.91c-0.16,0.92 1.97,-0.1 -0.23,0.16 -1.4,0.17 0.34,-0.24 -1.19,-0.01l-1.96 0.5z"/>
     <path class="fil1" d="M381.49 372.47l0.1 0.09 -5.43 -1.91 1.96 -0.5c1.53,-0.22 -0.21,0.18 1.19,0.01 2.2,-0.26 0.07,0.76 0.23,-0.16l-0.56 -13.91c0.12,-6.23 -0.89,-4.84 -1.07,-6 -0.06,-0.36 -0.25,-0.4 -0.37,-0.6l2.46 -0.78 2.66 1.61c-0.55,2.17 -0.96,1.11 -1.04,5.74 -0.11,7.03 -0.99,13.28 1.39,15.2 -2.81,0.36 -0.68,-0.15 -1.51,1.2z"/>
     <path class="fil1" d="M57.95 422.02c-1.82,-1.34 -3.24,-2.53 -4.22,-4.94l2.39 1.5c0.42,-2.16 0.67,-4.9 0.64,-7.43l-0.13 -3.44c-0.01,-0.21 -0.05,-1.18 -0.11,-1.48 -0.04,-0.24 -0.45,-1.39 -0.64,-1.77l-2.13 1.29c1.39,-2.5 1.45,-3.48 3.96,-4.06l2.29 0.75c-1.6,3.68 -0.91,15.09 0.03,18.86l-2.08 0.7z"/>
     <path class="fil1" d="M420.9 219.72c-3.87,-2.1 -5.12,-10.88 -1.52,-14.12 -0.37,-1.24 0.6,-1.22 2.66,-1.94l-0.07 13.99c-0.08,1.16 0.58,1.14 -1.06,2.06z"/>
     <path class="fil1" d="M421.63 221.24l-0.73 -1.51c1.64,-0.92 0.97,-0.91 1.06,-2.06l0.07 -13.99c-2.06,0.72 -3.03,0.7 -2.66,1.94 0.35,-1.33 0.03,-1.15 1.3,-2.56 0.97,-1.08 1.2,-1.17 2.84,-1.88l1.53 0.57c-1.84,5.66 0.16,3.35 -0.46,14.44 -0.15,2.74 -0.2,-0.17 0.04,2 0.1,0.89 0.36,1.79 0.46,3.19l-3.46 -0.13z"/>
     <path class="fil1" d="M74.89 416.23c-0.65,2.65 -2.28,4.05 -3.96,4.79 -0.64,-1.64 -0.31,0.55 0.19,-1.24l0.67 -5.35c0.84,-10.3 -2.41,-11.16 -0.23,-9.63l0.52 -2.45c2.9,3.78 5.18,7.73 2.8,13.87z"/>
     <path class="fil1" d="M279.03 452.4l-11.26 0c-1.64,-1.93 -1.01,-0.97 -1.18,-4.34 0.2,-0.13 0.88,-0.12 1.03,-0.14l0.82 -0.08c0.05,-0.01 0.24,-0.04 0.28,-0.05l4.06 -2.17 6.26 6.79z"/>
     <path class="fil1" d="M375.03 369.26c-1.22,-1.6 -2.75,-3.6 -3.14,-6.63 -0.44,-3.35 -0.06,-6.67 2.21,-8.79 1.25,0.84 -0.17,0.79 2.54,-1.14 -0.62,2.7 -0.38,4.65 -0.81,7.38 -0.67,4.28 -2.02,5.21 0.37,2.95 -0.13,2.17 0.32,3.52 -0.25,4.85 -0.05,0.12 -0.19,0.33 -0.25,0.44l-0.66 0.94z"/>
     <path class="fil1" d="M440.74 209.9c0.01,5.73 -1.3,11.22 -6.17,11.86 0.03,-0.23 0.8,-1.04 0.87,-1.09 1.43,-2.56 1.22,-2.61 1.45,-5.71 0.24,-3.3 -0.31,-6.81 0.54,-9.92l0.96 -0.21c0.8,0.34 0.26,-0.29 1.05,1.08 0.22,0.38 0.49,1.14 0.63,1.53 0.16,0.44 0.62,2.23 0.67,2.47z"/>
     <path class="fil1" d="M53.73 417.09c-2.04,-2.97 -1.94,-8 0.03,-11.32l2.13 -1.29c0.19,0.37 0.6,1.53 0.64,1.77 0.05,0.3 0.1,1.28 0.11,1.48l0.13 3.44c0.03,2.52 -0.22,5.27 -0.64,7.43l-2.39 -1.5z"/>
     <path class="fil1" d="M438.39 204.83l-0.96 0.21c-0.85,3.12 -0.3,6.62 -0.54,9.92 -0.23,3.1 -0.02,3.15 -1.45,5.71 -0.09,-0.05 -0.83,0.65 -1.48,-1.59 -0.72,-2.45 0.73,0.58 0.66,-7.74 -0.03,-2.97 -0.24,-7.14 0.88,-9.83l2.89 3.31z"/>
     <path class="fil1" d="M390.28 354.83l1.57 0.72c-1.39,1.69 -0.82,4.49 -0.87,7.76 -0.04,2.4 -0.51,3.84 -0.21,6.23l-0.67 1.54 -1.5 -16.28c1.7,-1.08 -2.14,-2.87 1.51,-0.52 0.06,0.04 0.08,0.38 0.18,0.55z"/>
    </g>
    <g>
     <path class="fil1" d="M45.62 2.65l0.72 0c1,2.22 3.38,4.02 5.26,5.96 1.96,2.02 3.62,4.02 5.85,5.61l0.35 0.55c-0.18,0.08 -0.49,-0.05 -0.56,0.16 -0.07,0.2 -0.44,0.14 -0.53,0.15l-3.21 -0.22c-2.42,-1.13 -2.46,-2.95 -2.63,-3.14 -0.09,-0.1 -0.66,-0.42 -0.9,-0.49l-0.07 -1.95c-1.95,-2.89 -1.47,0.67 -3.99,-1.03l-1.27 -1.42c-0.14,-0.18 -0.29,-0.46 -0.4,-0.62 -0.11,-0.17 -0.24,-0.45 -0.39,-0.65l2.44 3.08c3.09,3.82 1.72,17.38 1.72,25.4 0,10.51 0.29,21.46 -0.07,31.92l0.57 1.13c0,0.07 -0.07,0.29 -0.07,0.37l-0.19 0.96c-0.21,7.19 1.31,-2.65 0.64,3.99l-1.04 4.72 -6.3 -6.16c-1.24,-1.2 -1.7,-1.48 -2.71,-2.52 -0.91,-0.94 -0.43,-0.27 -1.02,-1.17 -0.9,-1.37 -0.52,-0.51 -0.8,-1.85 0.53,-5.71 -2.03,-3.2 -3.6,-6.36 -1.17,-2.35 0.2,-59.46 -0.29,-62.63l-0.28 -1.28c-0.13,-0.56 -0.56,-2.1 -0.56,-2.12l1.38 -0.03c-1.36,2.21 -1.14,0.52 -0.56,3.8 2.04,0.65 -0.87,0.02 2.07,0.15 0.22,0.01 0.8,0 0.97,0.01 0.08,0 0.28,-0.01 0.35,0 0.06,0.01 0.24,0 0.29,0.01 0.13,0.02 0.43,0.1 0.55,0.16l0.62 0.4c2.53,2.09 0.58,3.48 3.59,4.55l4.12 0.57z"/>
     <path class="fil1" d="M-25.44 2.88c2.64,5.49 6.74,6.63 9.56,11.09 -2.06,1.59 -0.4,-0.44 -0.22,1.83 0.34,4.34 -0.85,-0.99 -1.01,7.21l-0.1 37.66c0,0.01 0.12,3.79 0.12,3.79 -0.7,2.93 1.51,1.51 -2.18,2.01 1.34,1.31 -1.95,1.1 2.87,1.35l-1.07 0.61c-7,3.06 -5,0.11 -5.07,4.11 -0.37,1.17 0.24,0.42 -1.38,1.75 -0.94,0.77 -1.76,1.2 -2.97,1.65 -2.97,1.11 -5.32,0.96 -8.5,0.45l0 -1.34c1.69,-0.3 5.77,-0.49 6.73,-1.83 0.07,-0.09 0.14,-0.33 0.18,-0.43 0.04,-0.11 0.03,-0.36 0.05,-0.47 0.59,-2.97 -2.01,-1.01 1.78,-2.79l-4.18 -0.24c1.02,-7.73 0.26,-41.24 0.27,-53.5 0,-3.76 0.48,-7.69 -0.47,-10.93l-2.08 -4.26c0.58,1.24 -0.03,0.13 0.97,1.33l1.24 1.37c0.13,0.14 0.46,0.69 0.56,0.54 0.1,-0.16 0.37,0.39 0.59,0.55 0.07,-5.99 0.04,-0.89 -1.1,-3.66 -0.17,-0.42 -3.49,-1.29 -0.39,-1.86 1.72,0.93 1.23,0.82 2.89,2.32 1.79,1.61 0.44,1.56 2.91,1.68z"/>
     <path class="fil1" d="M89.82 19.21c0.07,0.15 0.2,0.35 0.26,0.42 0.05,0.08 0.2,0.33 0.27,0.42l7.52 7.63c1.61,1.59 2.58,2.63 4.2,4.23 1.82,1.82 2.72,2.13 3.01,3.99 -0.33,2.3 0.55,1.19 -1.4,2.17 -2.35,-1.46 -1.9,-2.33 -3.29,-4.04 -0.57,3.88 0.64,1.45 1.1,6.04 0.62,6.09 -0.89,20.66 0.57,25.45 0.07,0.22 0.39,0.95 0.47,1.19 -4.42,0.01 -0.09,-0.36 -1.45,1.45l-22.79 -22.83 0.98 -0.93c0.1,-0.12 0.3,-0.31 0.4,-0.43l0.9 -2.54c0.95,-5.98 -0.38,-5.88 -0.54,-10.43 -0.43,-12.44 -1.04,-13.23 2.25,-14.51l-0.77 -4.12c2.63,1.17 2.6,1.52 4.57,3.57 1.5,1.56 2.03,2.22 3.75,3.28z"/>
     <path class="fil1" d="M30.35 -12.61c-0.13,0.15 -0.46,0.03 -0.54,0.24 -0.07,0.2 -0.42,0.19 -0.52,0.19 -0.06,0 -1.36,-0.1 -1.44,-0.13 -1.37,-0.68 -1.15,-1.32 -2.4,-2.78 0.05,2.57 0.04,4.75 2.88,6.56l-0.65 -0.02c-2.03,0.61 -2.13,-3.37 -2.21,9.9l0.08 45.69c-1.45,0.57 0.6,-0.38 -1.77,0.95 -0.23,0.13 -0.45,0.25 -0.68,0.38l-1.48 0.85c0.13,-3.96 2.57,1.12 2.58,1.17l-0.68 2.4c-2.21,-1.84 -5.37,-4.02 -6.05,-6.75 -1.23,-2.04 0.08,-0.56 -1.96,-2.08 0.11,-3.39 -0.6,-9.85 -0.6,-14.5 0,-5.57 0,-11.15 0,-16.72 0,-10.89 0,-21.78 0,-32.67l9.86 0c0.96,3.27 3.72,5.58 5.59,7.31z"/>
     <path class="fil1" d="M79.36 -8.44c1.16,-2.86 1.15,-0.54 1.41,-0.39 -2.47,2.96 -6.66,10.24 -2.82,15.65l1.03 2.46c-0.69,2.35 -0.79,0.56 0.3,3.48 -0.24,-0.18 -0.43,-0.48 -0.62,-0.66l-1.69 -1.43c-2.55,-1.51 1.48,-1.46 -1.39,-0.13 -0.12,2.08 2.72,3.08 0.76,6l-2.87 -6.05 0.81 15.96c-2.57,1.25 1.6,0.65 -1.13,-0.5 -3.53,-1.48 2.22,-2.36 -0.82,-0.26 0.61,3.14 1.67,3.1 0.93,5.2l-2.3 4.08c-0.06,-0.13 -0.22,0.39 -0.34,0.59 0.43,-3.88 1.04,-11.42 -4.1,-12.23l-2.59 -2.44c-2.32,-2.17 -3.98,-4.09 -6.11,-6.11l-0.35 -0.55 2.92 -1.57c-0.12,-0.29 -0.3,-0.58 -0.43,-0.83l-0.78 -1.45c-1.77,-3.21 -0.36,-1.97 -0.03,-6.62 0.76,-10.83 -1.86,-8.33 1.86,-21.02l2.55 1.8c4.88,4.08 5.48,8.15 15.82,7.02z"/>
     <path class="fil1" d="M30.35 -12.61l2.39 2.55c4.59,3.48 8.43,8.73 12.88,12.71l-4.12 -0.57c-3.01,-1.07 -1.06,-2.46 -3.59,-4.55l-0.62 -0.4c-0.12,-0.06 -0.42,-0.14 -0.55,-0.16 -0.05,-0.01 -0.23,-0.01 -0.29,-0.01 -0.07,-0.01 -0.27,0 -0.35,0 -0.17,-0.01 -0.75,0 -0.97,-0.01 -2.94,-0.13 -0.03,0.5 -2.07,-0.15 -0.58,-3.28 -0.8,-1.59 0.56,-3.8l-1.38 0.03c0.01,0.02 0.44,1.56 0.56,2.12l0.28 1.28c0.49,3.17 -0.88,60.28 0.29,62.63 1.57,3.16 4.13,0.66 3.6,6.36 -3.44,-1.51 -5.05,-4.42 -7.88,-6.7 -1.96,-2.04 -4.14,-3.88 -5.59,-5.91l0.68 -2.4c-0.01,-0.06 -2.44,-5.13 -2.58,-1.17l1.48 -0.85c0.23,-0.13 0.45,-0.25 0.68,-0.38 2.37,-1.33 0.32,-0.38 1.77,-0.95l-0.08 -45.69c0.08,-13.27 0.18,-9.29 2.21,-9.9l0.65 0.02c-2.84,-1.82 -2.83,-3.99 -2.88,-6.56 1.25,1.45 1.03,2.1 2.4,2.78 0.08,0.04 1.38,0.13 1.44,0.13 0.1,-0.01 0.45,0 0.52,-0.19 0.08,-0.21 0.41,-0.09 0.54,-0.24z"/>
     <path class="fil1" d="M0.33 28.98c-2.21,-1.1 -2.25,-1.73 -4.19,-2.73 -2.24,-4.33 -6.95,-6.1 -9.06,-10.3l1.66 -1.31c-1.43,0.88 2.4,1.62 -1.17,0.1 -2.69,-1.15 -0.68,-3.48 -3.04,-6l-1.23 -0.95c-2.01,-1.27 0.3,-0.86 -2.73,-1.11 3.03,-3.45 2.87,-0.95 3.48,-2.68 0.07,-0.22 0.34,-0.1 0.5,-0.18l0 -23.73 13.61 0 -0.06 31.22c-0.02,6.81 1.91,3.87 3.08,6.77 -1.67,3.84 0.09,-0.71 -2.17,2.5 -2.74,3.9 -0.07,5.74 -0.07,5.75 1.23,2.22 0.61,-2.04 1.39,2.67z"/>
     <path class="fil1" d="M49.96 11.23c1.06,0.4 0.31,0.22 1.01,1.38 3.09,5.03 2.18,0.9 2.45,6.17 0.12,2.42 -0.21,-0 0.51,2.79 0.94,3.62 0.68,4.44 3.51,5.37l-1.29 3.52c-0.18,1.03 -0.14,3.18 -0.12,4.31 0.13,10.3 -1.11,37.18 0.99,44.48 0.9,3.13 -0.72,3.97 1.39,5.93 0.71,0.66 -1.38,0.47 2.6,1.4l-0.53 0.37c-3.97,-0.05 -5.27,-2.18 -7.5,-4.69 -0.57,-1.81 0.44,-0.04 -0.72,-1.38 -1.33,-1.55 0.17,-0.05 -1.65,-1.33 -2,-1.4 -1.26,-0.54 -2.8,-2.41l1.04 -4.72c0.68,-6.64 -0.84,3.2 -0.64,-3.99l0.19 -0.96c0,-0.08 0.07,-0.3 0.07,-0.37l-0.57 -1.13c0.37,-10.46 0.07,-21.41 0.07,-31.92 0,-8.02 1.38,-21.58 -1.72,-25.4l-2.44 -3.08c0.15,0.21 0.28,0.49 0.39,0.65 0.11,0.16 0.26,0.44 0.4,0.62l1.27 1.42c2.52,1.7 2.04,-1.86 3.99,1.03l0.07 1.95z"/>
     <path class="fil1" d="M105.07 35.9c2.29,1.08 0.25,0.1 2.24,1.29 1.49,0.89 -0.15,0.08 1.33,0.82 1.78,2.99 8.03,7.12 8.57,10.07l-0.5 2c-1.4,3.47 -1.08,0.56 -1.99,2.95 1.6,3 0.59,9.56 0.66,13.71 0.08,4.92 1.49,5.18 0.26,9.99 -0.04,0.15 -0.11,0.38 -0.15,0.5l-2.63 1.99c-1.14,-0.42 -0.09,0.18 -1.29,-0.71 -0.9,-0.67 -0.8,-0.68 -1.56,-1.43 -1.47,-1.45 -1.22,-1.71 -3.2,-2.44 -1.36,-2.78 -3.32,-4.23 -5.74,-6.48 1.36,-1.81 -2.97,-1.44 1.45,-1.45 -0.08,-0.24 -0.4,-0.97 -0.47,-1.19 -1.46,-4.79 0.05,-19.35 -0.57,-25.45 -0.47,-4.58 -1.68,-2.15 -1.1,-6.04 1.39,1.71 0.94,2.58 3.29,4.04 1.95,-0.98 1.06,0.13 1.4,-2.17z"/>
     <path class="fil1" d="M131.62 16.3c3.91,-2.21 0.67,-1.82 0.51,-3.19 -0.2,-1.71 0.35,-1.38 0.77,-2.38 1.36,-3.22 0.53,-4.76 0.18,-8.14 -0.7,-6.84 0.7,-14.84 -0.14,-15.7 1.81,-1.64 0.37,-0.67 2.61,-1.49 0.51,0.22 15.75,13.29 16.44,19.98 1.02,9.96 -8.59,16.72 -17.12,13.47 -2.75,-1.04 -3.02,-2.27 -3.26,-2.54z"/>
     <path class="fil1" d="M6.54 35.15c-2.83,-1.17 -2.03,-1.5 -4.34,-2.79 -1.05,-1.86 -0.25,-0.21 -0.95,-1.45 -1.13,-2 -0.41,-0.16 -0.92,-1.92 -0.79,-4.71 -0.17,-0.45 -1.39,-2.67 -0,-0 -2.67,-1.85 0.07,-5.75 2.26,-3.21 0.49,1.34 2.17,-2.5 -1.17,-2.9 -3.1,0.04 -3.08,-6.77l0.06 -31.22 9.46 0 -0.05 49.39c0.2,0.07 -0.13,-0.08 -0.18,0.13 -0.05,0.2 -0.43,0.12 -0.49,0.15 -0.05,0.03 -0.33,0.14 -0.39,0.17l-0.38 1.17c0.44,4.68 -0.34,-3.74 0.23,1.28 0.31,2.84 0.81,-2.88 0.2,2.76z"/>
     <path class="fil1" d="M0.33 28.98c0.51,1.76 -0.21,-0.08 0.92,1.92 0.7,1.24 -0.1,-0.4 0.95,1.45l1.55 1.88c2.37,2.51 1.17,-0.42 2.83,3.48 0.63,1.49 -0.24,7.6 -0.22,10.76l-0.06 18.31c-0.09,5.97 -0.16,3.94 1.08,4.78 0.09,3.95 -2.66,1.83 3.04,2.53l-2.26 1.07c-0.16,0.08 -0.36,0.19 -0.52,0.27l-0.97 0.49c-3.12,1.5 -2.27,-0.48 -3.3,2.13l-0.76 -0.38c-3.29,-0.94 -7.53,-4.47 -8.36,-6.46 0,-2.06 -0.38,-1.53 1.49,-1.11 0.23,1.35 0.07,0.76 1.54,1.68 0.04,-0.17 0.08,-0.64 0.09,-0.53l-0.06 -5.32c-1.83,-4.28 -1.03,1.39 -1.55,-2.27 0,-9.95 -0.44,-22.96 0.49,-31.08 0.27,0.38 0.86,1.08 1.25,1.35l3.58 1.62c-1.25,-3.92 -3.33,-3.85 -4.58,-6.28 -1.27,-2.48 0.93,-0.02 -0.81,-2.77l0.44 -0.25c1.94,1 1.98,1.63 4.19,2.73z"/>
     <path class="fil1" d="M57.79 14.77c2.12,2.02 3.79,3.94 6.11,6.11l-1.36 0.88c-0.16,0.05 -1.2,-0.36 -1.41,-0.5 -2.12,2.24 0.98,0.55 -0.91,0.1 -4.76,-1.14 -3.55,0.12 -3.65,-3.29 2.41,2.03 1.09,2.95 0.98,3.81l-0.15 0.91c0,0 1.21,2.34 1.31,2.49 2.52,4.09 1.44,15.83 1.03,17.86 0.69,0.06 0.13,0.07 0.72,-0.23l2.2 -1.29c-2.6,5.24 -1.43,2.46 -0.15,3.42 -1.65,9.91 2.55,13.46 6.92,17.57 -0.2,0.11 -0.54,-0.04 -0.65,0.24 -0,0.01 -4.42,1.67 -5.12,3.09 -0.52,3.83 -0.25,6.18 -0.04,9.88 -1.24,0.94 -3.44,0.76 -4.75,2.28 3.01,1.37 0.92,1.3 3.55,0.19 0.18,-0.07 0.46,-0.23 0.61,-0.31 0.16,-0.07 0.41,-0.24 0.63,-0.33 0.11,4.8 -1.14,3.82 2.43,5.78 -4.04,1.29 -3.49,0.04 -5.06,3.13 -3.98,-0.93 -1.89,-0.73 -2.6,-1.4 -2.1,-1.96 -0.48,-2.8 -1.39,-5.93 -2.1,-7.3 -0.86,-34.18 -0.99,-44.48 -0.01,-1.12 -0.06,-3.28 0.12,-4.31l1.29 -3.52c-2.83,-0.93 -2.57,-1.74 -3.51,-5.37 -0.72,-2.8 -0.39,-0.37 -0.51,-2.79 -0.27,-5.27 0.63,-1.13 -2.45,-6.17 -0.71,-1.15 0.05,-0.97 -1.01,-1.38 0.24,0.08 0.81,0.39 0.9,0.49 0.17,0.19 0.21,2.01 2.63,3.14l3.21 0.22c0.09,-0.02 0.46,0.05 0.53,-0.15 0.07,-0.21 0.38,-0.09 0.56,-0.16z"/>
     <path class="fil1" d="M15.5 43.98l-8.96 -8.83c0.61,-5.64 0.12,0.07 -0.2,-2.76 -0.56,-5.02 0.22,3.4 -0.23,-1.28l0.38 -1.17c0.05,-0.04 0.33,-0.14 0.39,-0.17 0.06,-0.04 0.44,0.04 0.49,-0.15 0.06,-0.22 0.38,-0.06 0.18,-0.13l0.05 -49.39 7.28 0c0,10.89 0,21.78 0,32.67 0,5.57 0,11.15 0,16.72 -0,4.65 0.71,11.11 0.6,14.5z"/>
     <path class="fil1" d="M-12.92 15.95c2.11,4.2 6.81,5.97 9.06,10.3l-0.44 0.25c-2.86,0.7 -0.79,0.64 -1.44,2.3l-2.91 -0.66c-0.16,-0.09 -0.35,-0.2 -0.51,-0.3l-1.08 -0.88c-0.15,-0.12 -0.35,-0.37 -0.55,-0.52 2.85,4.63 1.53,5.7 1.73,11.36l0.6 22.13c0.03,3.8 0.24,3.13 -1.41,5.37l-1.2 2.79c-5.49,-3.21 -1.53,0.22 -5.32,-0.26 -4.82,-0.25 -1.53,-0.03 -2.87,-1.35 3.68,-0.51 1.47,0.92 2.18,-2.01 0,-0.01 -0.12,-3.78 -0.12,-3.79l0.1 -37.66c0.16,-8.2 1.35,-2.87 1.01,-7.21 -0.18,-2.27 -1.85,-0.24 0.22,-1.83 1.23,0.76 1.67,1.28 2.95,1.98z"/>
     <path class="fil1" d="M-31.24 -1.12c-3.1,0.57 0.22,1.43 0.39,1.86 1.14,2.77 1.17,-2.33 1.1,3.66 -0.21,-0.16 -0.48,-0.71 -0.59,-0.55 -0.1,0.15 -0.42,-0.4 -0.56,-0.54l-1.24 -1.37c-1,-1.2 -0.39,-0.09 -0.97,-1.33l2.08 4.26c0.95,3.24 0.47,7.18 0.47,10.93 -0,12.26 0.76,45.77 -0.27,53.5l4.18 0.24c-3.78,1.78 -1.19,-0.18 -1.78,2.79 -0.02,0.11 -0.01,0.37 -0.05,0.47 -0.04,0.1 -0.11,0.34 -0.18,0.43 -0.96,1.35 -5.05,1.53 -6.73,1.83l0 -80.91 4.14 4.73z"/>
     <path class="fil1" d="M136.18 67.1c-0.02,5.89 0.44,-0.51 0.65,4.59l0.05 0.92c0.64,6.35 -0.5,-0.81 -0.16,5.94 0.39,7.75 -2.31,-0.01 -1.26,6.47l1.65 8.32c0,-0.07 0.06,0.19 0.01,0.25 -2.43,0.12 -4.18,0.19 -6.92,1.79 -3.95,-1.93 -5.86,-3.31 -7.45,-6.29 0.74,-0.3 -1.79,0.77 1.34,-0.5l1.35 -0.62c0,-4.75 0.24,-9.62 0.29,-14.44 0.1,-10.13 -1.17,-7.55 -3.36,-11.4 1.91,-0.25 3.13,-0.88 4.87,-1.52 -2.56,-1.48 -1.71,-0.49 -0.93,-3.45 2.55,1.12 1.43,0.47 3.49,2.46 0.91,0.88 1.31,1.37 2.23,2.28 1.98,1.95 3.87,3.28 4.16,5.17z"/>
     <path class="fil1" d="M126.3 57.18c-0.78,2.96 -1.63,1.97 0.93,3.45 -1.74,0.64 -2.96,1.27 -4.87,1.52 2.18,3.84 3.45,1.27 3.36,11.4 -0.05,4.82 -0.29,9.69 -0.29,14.44l-1.35 0.62c-3.14,1.27 -0.61,0.19 -1.34,0.5 -3.23,-1.16 -5.6,-6.09 -9.52,-8.02 -0.08,-1.25 0.31,-0.32 -0.36,-1.85l2.63 -1.99c0.03,-0.12 0.11,-0.36 0.15,-0.5 1.23,-4.81 -0.18,-5.08 -0.26,-9.99 -0.07,-4.15 0.94,-10.71 -0.66,-13.71 0.91,-2.38 0.58,0.52 1.99,-2.95l0.5 -2c2.41,1.13 1.08,0.3 3.05,2.08 2,1.8 5.62,4.82 6.03,7.02z"/>
     <path class="fil1" d="M60.98 -17.26c-3.72,12.69 -1.11,10.19 -1.86,21.02 -0.32,4.66 -1.74,3.41 0.03,6.62l0.78 1.45c0.13,0.25 0.31,0.54 0.43,0.83l-2.92 1.57c-2.24,-1.59 -3.89,-3.58 -5.85,-5.61 -1.87,-1.94 -4.25,-3.74 -5.26,-5.96 0.83,-2.51 0.84,-0.69 -1.83,-4.1 3.9,1.71 1.95,2.84 3.92,-0.22 -1.61,-0.55 -2.35,0.97 -1.91,-3.7 0.32,-3.4 -0.14,0.07 0.57,-1.88 0.73,-1.99 0.11,1.26 0.93,-2.22 0.45,-1.88 0.16,-8.12 0.16,-10.46l10.91 0c0.61,0.45 0.86,0.51 1.42,1.31 1.17,1.67 0.18,-0.76 0.48,1.35z"/>
     <path class="fil1" d="M120.74 5.78c-2.36,-0.38 -7.39,-6.58 -9.62,-8.69 -2.09,-2.49 -4.86,-4.74 -7.25,-7.5l1.29 -2.7c0.97,-0.22 2.07,-0.7 3.35,-1.12 0.18,-6.87 -0.15,-2.45 -1.51,-5.69l17.22 0c-0.17,3.74 -0.28,2.59 -0.2,6.09l-0.33 18.37c-1.35,1.83 -0.42,0.74 -2.94,1.24z"/>
     <path class="fil1" d="M6.54 35.15l8.96 8.83c2.05,1.51 0.73,0.04 1.96,2.08 -0.5,2.87 -1.23,0.34 0.48,3.18 -1.18,0.7 -1.39,0.31 -2.48,-0.83 0.23,2.63 -0.62,1.31 -0.57,3.65 0,0.14 0.22,1.03 0.24,1.16 0.71,4.44 -1.32,-2.82 0.12,1.34l-0.52 9.87c-1.3,3.67 -0.31,-0.23 0.26,2.63 0.38,1.88 -0.86,1.61 -0.97,1.39 0.9,1.16 0.51,-0.03 1.51,2.48l0.34 1.55c-0.01,2.43 -2.23,0.92 -1.1,4.16 -2.98,1.29 -8.01,3.13 -11.4,1.43 1.03,-2.61 0.18,-0.63 3.3,-2.13l0.97 -0.49c0.16,-0.08 0.37,-0.19 0.52,-0.27l2.26 -1.07c-5.7,-0.7 -2.95,1.41 -3.04,-2.53 -1.24,-0.84 -1.17,1.19 -1.08,-4.78l0.06 -18.31c-0.02,-3.16 0.85,-9.27 0.22,-10.76 -1.66,-3.9 -0.47,-0.97 -2.83,-3.48l-1.55 -1.88c2.31,1.29 1.51,1.62 4.34,2.79z"/>
     <path class="fil1" d="M135.55 -14.6c-2.24,0.83 -0.81,-0.15 -2.61,1.49 0.84,0.86 -0.57,8.86 0.14,15.7 0.35,3.38 1.18,4.92 -0.18,8.14 -0.42,1 -0.98,0.67 -0.77,2.38 0.16,1.37 3.4,0.98 -0.51,3.19 -2.45,-1.23 -4.14,-2.61 -5.8,-4.45 -1.03,-1.14 -1.24,-1.51 -2.48,-2.76 -2.18,-2.18 -1.17,-0.31 -2.6,-3.31 2.52,-0.49 1.59,0.6 2.94,-1.24l0.33 -18.37c-0.08,-3.5 0.03,-2.35 0.2,-6.09l9.6 0 1.75 5.31z"/>
     <path class="fil1" d="M23.51 52.8c1.46,2.04 3.64,3.87 5.59,5.91 -0.32,2.86 -0.91,0.7 1.14,2.67 -0.18,0.1 -0.48,0.18 -0.6,0.2 -0.1,0.02 -0.43,0.14 -0.54,0.16l-1.03 -0.18c-0.01,-0.07 -0.06,-0.14 -0.02,-0.18l-0.93 1.56c-1.25,2.13 -1,-0.94 -1.13,2.24 3.62,0.2 0.93,0.15 4.24,1.51l-1.67 3.2c-0.01,-0.12 -0.04,0.31 -0.11,0.46 -5.01,-2.18 -2.67,-0.18 -8.36,-0.6 1.45,1.87 -1.89,3.41 1.86,1.2 -1.47,1.47 -2.53,1.5 -4.16,2.6 -0.2,0.13 -1.61,1.24 -1.71,1.34 -1.72,1.62 -0.91,0.2 -1.32,1.73 -1.13,-3.23 1.08,-1.73 1.1,-4.16l-0.34 -1.55c-1,-2.52 -0.6,-1.33 -1.51,-2.48 0.11,0.22 1.35,0.49 0.97,-1.39 -0.58,-2.86 -1.56,1.04 -0.26,-2.63l0.52 -9.87c-1.44,-4.16 0.59,3.1 -0.12,-1.34 -0.02,-0.13 -0.23,-1.02 -0.24,-1.16 -0.05,-2.34 0.81,-1.02 0.57,-3.65 1.09,1.14 1.3,1.53 2.48,0.83 -1.71,-2.83 -0.98,-0.31 -0.48,-3.18 0.68,2.73 3.83,4.91 6.05,6.75z"/>
     <path class="fil1" d="M81.49 12.36l0.77 4.12c-3.29,1.28 -2.68,2.08 -2.25,14.51 0.16,4.55 1.49,4.45 0.54,10.43l-0.9 2.54c-0.1,0.13 -0.29,0.32 -0.4,0.43l-0.98 0.93 -9.08 -9.08c-1.39,-6.59 1.22,-5.21 -2.7,-12.93 5.13,0.81 4.53,8.35 4.1,12.23 0.12,-0.2 0.28,-0.72 0.34,-0.59l2.3 -4.08c0.74,-2.1 -0.31,-2.07 -0.93,-5.2 3.04,-2.1 -2.71,-1.21 0.82,0.26 2.73,1.15 -1.44,1.75 1.13,0.5l-0.81 -15.96 2.87 6.05c1.96,-2.92 -0.88,-3.92 -0.76,-6 2.87,-1.33 -1.16,-1.38 1.39,0.13l1.69 1.43c0.2,0.18 0.38,0.48 0.62,0.66 -1.09,-2.91 -0.99,-1.13 -0.3,-3.48 1.32,0.95 0.98,0.39 1.73,1.33 1.1,1.38 0.61,0.27 0.78,1.75z"/>
     <path class="fil1" d="M-5.75 71.22c-8.36,-3.05 -9.55,-2.79 -16.78,1.32 0.08,-4 -1.93,-1.05 5.07,-4.11l1.07 -0.61c3.79,0.48 -0.17,-2.95 5.32,0.26l1.2 -2.79c1.65,-2.24 1.44,-1.57 1.41,-5.37l-0.6 -22.13c-0.2,-5.66 1.12,-6.73 -1.73,-11.36 0.2,0.16 0.4,0.4 0.55,0.52l1.08 0.88c0.15,0.1 0.35,0.22 0.51,0.3l2.91 0.66c0.66,-1.66 -1.42,-1.6 1.44,-2.3 1.74,2.75 -0.46,0.28 0.81,2.77 1.25,2.43 3.33,2.35 4.58,6.28l-3.58 -1.62c-0.4,-0.26 -0.98,-0.97 -1.25,-1.35 -0.92,8.13 -0.49,21.14 -0.49,31.08 0.52,3.66 -0.28,-2.01 1.55,2.27l0.06 5.32c-0.01,-0.11 -0.05,0.36 -0.09,0.53 -1.47,-0.92 -1.31,-0.33 -1.54,-1.68 -1.88,-0.42 -1.49,-0.95 -1.49,1.11z"/>
     <path class="fil1" d="M-12.92 15.95c-1.28,-0.69 -1.72,-1.21 -2.95,-1.98 -2.83,-4.46 -6.92,-5.6 -9.56,-11.09 3.76,0.54 -0.44,2.67 2.21,-0.76 -1.29,-0.59 -1.23,-0.53 -1.09,-1.68 0.01,-0.09 0.05,-0.34 0.06,-0.43 0.02,-0.1 0.05,-0.35 0.08,-0.45 0.02,-0.1 0.06,-0.33 0.09,-0.43l0.32 -0.78c1.5,-3.74 0.41,-11.78 0.41,-18.27l7.9 0 0 23.73c-0.15,0.09 -0.42,-0.04 -0.5,0.18 -0.61,1.73 -0.45,-0.77 -3.48,2.68 3.03,0.25 0.72,-0.16 2.73,1.11l1.23 0.95c2.36,2.52 0.35,4.85 3.04,6 3.56,1.52 -0.26,0.78 1.17,-0.1l-1.66 1.31z"/>
     <path class="fil1" d="M-25.44 2.88c-2.47,-0.12 -1.12,-0.07 -2.91,-1.68 -1.67,-1.5 -1.17,-1.39 -2.89,-2.32l-4.14 -4.73 0 -14.07 12.03 0c0,6.48 1.09,14.52 -0.41,18.27l-0.32 0.78c-0.03,0.1 -0.07,0.34 -0.09,0.43 -0.03,0.1 -0.06,0.35 -0.08,0.45 -0.01,0.09 -0.05,0.34 -0.06,0.43 -0.14,1.15 -0.21,1.09 1.09,1.68 -2.65,3.42 1.55,1.3 -2.21,0.76z"/>
     <path class="fil1" d="M144.49 73.9c1,4.49 5.06,9.62 0.52,15.93 -3.37,4.69 -7.38,6.4 -14.83,5.56 2.75,-1.61 4.5,-1.67 6.92,-1.79 0.05,-0.07 -0.01,-0.32 -0.01,-0.25l-1.65 -8.32c-1.04,-6.48 1.65,1.28 1.26,-6.47 -0.34,-6.75 0.8,0.41 0.16,-5.94l-0.05 -0.92c-0.21,-5.1 -0.67,1.3 -0.65,-4.59 2.49,1.13 2.68,1.6 4.51,3.6 1.49,1.63 1.63,2 3.8,3.2z"/>
     <path class="fil1" d="M46.33 2.65l-0.72 0c-4.45,-3.98 -8.29,-9.23 -12.88,-12.71 1.81,-0.6 -3.6,-3.04 2.54,0.01l-1.52 -2.37c0.22,-0.07 0.48,-0.19 0.65,-0.25 0.17,-0.06 0.45,-0.17 0.66,-0.24 0.2,-0.07 0.43,-0.16 0.64,-0.23l2.55 -0.71c-0.07,-5.18 -0.74,-3.83 -1.69,-6.07l11.58 0c0,2.33 0.28,8.57 -0.16,10.46 -0.82,3.48 -0.2,0.23 -0.93,2.22 -0.72,1.96 -0.25,-1.52 -0.57,1.88 -0.44,4.67 0.3,3.16 1.91,3.7 -1.97,3.06 -0.02,1.93 -3.92,0.22 2.67,3.4 2.67,1.58 1.83,4.1z"/>
     <path class="fil1" d="M74.88 67.47l-0.23 1.2c-0.09,0.07 -0.28,0.06 -0.32,0.07 -0.05,0.02 -0.28,0.07 -0.34,0.1l-2.29 2.71c-1.26,4.23 0.44,4.3 1.02,5.24 -0.04,0.03 -1.43,1.04 -1.69,1.25 -2.28,1.86 -1.7,1.21 -1.67,5.97l3.24 0.56 -2.18 2.06c-2.44,1.64 -7.21,2.83 -9.96,0.29l0.53 -0.37c1.57,-3.09 1.02,-1.84 5.06,-3.13 -3.57,-1.96 -2.32,-0.98 -2.43,-5.78 -0.21,0.1 -0.47,0.26 -0.63,0.33 -0.15,0.07 -0.43,0.23 -0.61,0.31 -2.63,1.11 -0.54,1.18 -3.55,-0.19 1.31,-1.52 3.51,-1.33 4.75,-2.28 -0.21,-3.7 -0.49,-6.05 0.04,-9.88 0.71,-1.42 5.12,-3.08 5.12,-3.09 0.11,-0.27 0.45,-0.13 0.65,-0.24 1.56,1.7 3.79,4.29 5.47,4.85z"/>
     <path class="fil1" d="M70.24 96.27c-5.59,1.74 -11.4,3.32 -15.57,-1.59l3.93 0.78 -1.65 -3.31c-0.17,-0.19 -1.35,-1 -1.49,-1.11l-1.08 -0.77c0.13,-0.05 0.34,-0.12 0.41,-0.14l4.74 -0.91 -6.55 -6.98c2.23,2.5 3.53,4.64 7.5,4.69 2.75,2.54 7.53,1.35 9.96,-0.29l2.18 -2.06c1.37,-0.3 2.58,-1.9 2.62,-2.06 0.1,-0.37 0.34,-0.42 0.52,-0.6 0.76,11.24 -4.57,11.27 -5.53,14.36z"/>
     <path class="fil1" d="M47.81 77.13c1.54,1.87 0.8,1 2.8,2.41 1.82,1.28 0.31,-0.22 1.65,1.33 1.15,1.34 0.15,-0.42 0.72,1.38l6.55 6.98 -4.74 0.91c-0.06,0.02 -0.27,0.09 -0.41,0.14l1.08 0.77c0.14,0.11 1.31,0.92 1.49,1.11l1.65 3.31 -3.93 -0.78 -0.71 0.31c-1.12,-2.4 -0.3,-1.12 -2.1,-3.12 -3.56,-3.97 -10.91,-9.39 -12.95,-13.44 1.91,-3.64 -1.26,-0.48 0.18,-3.1 2.86,2.27 2.69,-0.37 1.64,4.02l3.01 -2.26c-1.31,-1.31 -2.25,-3.93 -2.22,-6.13l6.3 6.16z"/>
     <path class="fil1" d="M63.9 20.88l2.59 2.44c3.92,7.72 1.31,6.33 2.7,12.93 -2.21,2.19 -5.18,5.92 -6.71,8.8 -1.28,-0.96 -2.45,1.82 0.15,-3.42l-2.2 1.29c-0.6,0.29 -0.03,0.28 -0.72,0.23 0.42,-2.03 1.49,-13.77 -1.03,-17.86 -0.09,-0.15 -1.31,-2.49 -1.31,-2.49l0.15 -0.91c0.11,-0.86 1.43,-1.78 -0.98,-3.81 0.1,3.41 -1.11,2.16 3.65,3.29 1.89,0.45 -1.2,2.14 0.91,-0.1 0.22,0.13 1.26,0.55 1.41,0.5l1.36 -0.88z"/>
     <path class="fil1" d="M36.98 65.42c0.28,1.34 -0.1,0.48 0.8,1.85 0.59,0.9 0.11,0.23 1.02,1.17 1.01,1.04 1.47,1.32 2.71,2.52 -0.03,2.2 0.92,4.81 2.22,6.13l-3.01 2.26c1.04,-4.39 1.22,-1.76 -1.64,-4.02 -1.43,2.63 1.73,-0.54 -0.18,3.1 -2.84,-0.85 -3.07,-3.12 -6.45,-5.08 -3.44,-2 -6.65,-2.02 -10.51,-2.4 -3.75,2.21 -0.41,0.67 -1.86,-1.2 5.69,0.42 3.35,-1.58 8.36,0.6 0.06,-0.14 0.09,-0.57 0.11,-0.46l1.67 -3.2c-3.31,-1.35 -0.62,-1.3 -4.24,-1.51 0.13,-3.18 -0.12,-0.11 1.13,-2.24l0.93 -1.56c-0.04,0.04 0.01,0.12 0.02,0.18l1.03 0.18c0.11,-0.02 0.44,-0.14 0.54,-0.16 0.11,-0.03 0.42,-0.1 0.6,-0.2 -2.05,-1.97 -1.46,0.18 -1.14,-2.67 2.83,2.28 4.44,5.2 7.88,6.7z"/>
     <path class="fil1" d="M-4.43 87.59c-1.46,1.94 -0.67,-0.84 0.69,3.6 0.78,2.53 -0.35,8.2 -1.03,11.23 2.94,4.51 0.71,-1.13 -0.31,5.89l0.02 0.68c-2.67,2.15 -3.34,1.84 -7.63,1.92 0.73,-1.16 -1,-0.59 1.03,-0.94l2.83 -1.26c0.02,-0.13 0.13,-0.48 0.16,-0.64l-0.02 -20.29c-0.04,-0.8 3.17,0.31 -1.18,-1.49l2.11 -0.17c2.86,0.14 1.73,-0.52 3.34,1.47z"/>
     <path class="fil1" d="M79.36 -8.44c-10.34,1.13 -10.94,-2.95 -15.82,-7.02l-2.55 -1.8c-0.3,-2.1 0.69,0.33 -0.48,-1.35 -0.56,-0.8 -0.81,-0.86 -1.42,-1.31l12.69 0c1.56,4.04 0.18,-0 3.52,2.28 -0.1,4.67 -0.31,1.15 -0.96,2.67 -0.74,1.73 -0.25,0.8 -0.35,2.02 -0,0.05 0.01,0.26 -0.01,0.31l-1.24 1.93c-0.97,1.92 -1.67,-2.66 -0.21,0.94 2.28,0.75 1.07,-0.02 3,0.25 0.29,0.04 1.24,0.17 1.53,0.24l2.3 0.85z"/>
     <path class="fil1" d="M-11.67 109.98c-1.75,-2.27 -1.03,-7.16 -1.04,-10.6l0.02 -9.13c0.33,-2.21 0.19,-1.61 0.86,-2.69 -0.23,0.09 -0.15,0.06 -0.82,-0.36l-2.09 -1.54c2.54,-0.61 5.16,-1.27 6.97,0.47l-2.11 0.17c4.35,1.79 1.14,0.68 1.18,1.49l0.02 20.29c-0.02,0.16 -0.14,0.51 -0.16,0.64l-2.83 1.26z"/>
     <path class="fil1" d="M100.12 -13.96c-3.44,-1.34 -5.75,-2.12 -9.78,-1.12 -1.44,0.36 -2.52,0.9 -3.64,1.74 -3.27,2.46 0.16,1.83 -3.55,2.3 -2.14,-3.82 0.06,3.42 0.15,-1.05 0.03,-1.86 0.27,-1.25 -4.54,-1.56 0.96,-2.8 1.99,-0.88 2.39,-2.22 0.07,-0.25 0.37,-0.14 0.53,-0.25l-2.93 -3.8 14.43 0c-0.48,1.24 -0.87,1.86 1.45,2.31 4.08,0.79 2.28,0.48 3.73,-1.04l0.67 1.76c1.52,2.47 2.21,-0.96 1.09,2.94z"/>
     <path class="fil1" d="M-2.34 87.47c8.94,12.88 1.29,20.88 -2.72,21.54l-0.02 -0.68c1.02,-7.02 3.24,-1.38 0.31,-5.89 0.68,-3.03 1.81,-8.7 1.03,-11.23 -1.36,-4.44 -2.15,-1.66 -0.69,-3.6l2.09 -0.13z"/>
     <path class="fil1" d="M156.1 43.9c-2.94,-0.86 -2.44,-0.37 -4.41,-2.33l0.47 -0.32c1.13,1.82 -1.02,0.83 3.13,1.34 0.05,-4.12 -0.17,-8.2 -0.13,-12.36 0.04,-4.06 -0.65,-8.99 -0.44,-9.89l2.84 -1.27c2.51,4.34 0.79,-0.95 0.93,11.14l0 11c0.31,1.91 -0.57,0.31 0.82,1.86 -2.46,1.28 -1.51,0.2 -3.22,0.82z"/>
     <path class="fil1" d="M-11.67 109.98c-2.03,0.35 -0.3,-0.22 -1.03,0.94l-3.6 -0.67 0.33 -10.11c0.09,-3.55 -0.09,-7.18 0.38,-10.64 -0.14,-0.13 -0.38,-0.27 -0.46,-0.34 -3.22,-2.86 -0.1,1.77 -1.47,-1.73 1.32,-1.83 0.76,-1.14 2.76,-1.77l2.09 1.54c0.67,0.42 0.59,0.45 0.82,0.36 -0.67,1.08 -0.53,0.48 -0.86,2.69l-0.02 9.13c0.02,3.43 -0.71,8.32 1.04,10.6z"/>
     <path class="fil1" d="M163.89 44.17c-2.46,0.92 -5.34,1.26 -7.79,-0.27 1.71,-0.62 0.76,0.45 3.22,-0.82 -1.4,-1.55 -0.51,0.05 -0.82,-1.86l0 -11c-0.14,-12.09 1.58,-6.8 -0.93,-11.14l5.35 -0.42 0 1.11 -2.27 0.41c2.88,1.58 1.33,-0.3 1.08,3.41l-0.18 15.8c-0.31,5.77 0.15,4.97 2.35,4.78z"/>
     <path class="fil1" d="M165.79 42.83l-1.9 1.34c-2.2,0.19 -2.66,0.99 -2.35,-4.78l0.18 -15.8c0.25,-3.72 1.8,-1.84 -1.08,-3.41l2.27 -0.41c2.12,-0.14 1.17,-0.48 2.5,0.77 -1.14,9.1 -0.24,10.49 -0.23,17.75 0,0.14 0,0.37 0,0.51 -0.1,4.69 -1.11,2.01 0.62,4.04z"/>
     <path class="fil1" d="M32.74 -10.06l-2.39 -2.55c-1.87,-1.73 -4.63,-4.04 -5.59,-7.31l11.83 0c0.94,2.25 1.62,0.9 1.69,6.07l-2.55 0.71c-0.21,0.07 -0.44,0.16 -0.64,0.23 -0.21,0.07 -0.49,0.18 -0.66,0.24 -0.17,0.06 -0.43,0.18 -0.65,0.25l1.52 2.37c-6.15,-3.05 -0.74,-0.61 -2.54,-0.01z"/>
     <path class="fil1" d="M76.52 71.86c1.69,5.9 -0.29,6.27 -0.76,10.05 -0.19,0.19 -0.42,0.23 -0.52,0.6 -0.04,0.16 -1.25,1.76 -2.62,2.06l-3.24 -0.56c-0.04,-4.76 -0.62,-4.11 1.67,-5.97 0.26,-0.21 1.65,-1.22 1.69,-1.25 -0.59,-0.94 -2.28,-1.01 -1.02,-5.24l2.29 -2.71c0.05,-0.03 0.29,-0.08 0.34,-0.1 0.04,-0.02 0.23,-0.01 0.32,-0.07 0.74,0.67 0.64,0.19 1.31,1.44 0.39,0.73 0.32,0.76 0.57,1.75z"/>
     <path class="fil1" d="M83.15 -11.04l-2.38 2.2c-0.25,-0.15 -0.24,-2.47 -1.41,0.39l-2.3 -0.85c-0.29,-0.07 -1.24,-0.2 -1.53,-0.24 -1.93,-0.27 -0.73,0.5 -3,-0.25 -1.46,-3.6 -0.76,0.98 0.21,-0.94l1.24 -1.93c0.01,-0.05 0,-0.26 0.01,-0.31 0.1,-1.22 -0.38,-0.29 0.35,-2.02 0.65,-1.51 0.86,2 0.96,-2.67 -3.34,-2.28 -1.96,1.77 -3.52,-2.28l6.97 0 2.93 3.8c-0.16,0.11 -0.46,0.01 -0.53,0.25 -0.41,1.33 -1.44,-0.58 -2.39,2.22 4.81,0.31 4.58,-0.3 4.54,1.56 -0.08,4.48 -2.29,-2.77 -0.15,1.05z"/>
     <path class="fil1" d="M103.87 -10.41c-2.27,-2.54 -0.35,-1.5 -3.75,-3.55 1.12,-3.89 0.42,-0.47 -1.09,-2.94l-0.67 -1.76c-1.45,1.53 0.35,1.84 -3.73,1.04 -2.32,-0.45 -1.93,-1.07 -1.45,-2.31l13.81 0c1.36,3.24 1.69,-1.18 1.51,5.69 -1.27,0.43 -2.38,0.9 -3.35,1.12l-1.29 2.7z"/>
     <path class="fil1" d="M152.16 41.25c0.78,-2.68 -0.24,-4.64 -0.48,-8 -0.29,-4.04 0.49,-6.63 0.53,-9.79l-2.6 2.57 0.17 -0.86c0.9,-3.15 1.4,-3.37 4.96,-4.83 -0.21,0.9 0.48,5.83 0.44,9.89 -0.04,4.15 0.17,8.24 0.13,12.36 -4.16,-0.51 -2,0.48 -3.13,-1.34z"/>
     <path class="fil1" d="M171.91 36.32c-0.56,2.03 -0.18,1.63 -1.27,3.17 -1.36,1.92 -1.26,1.31 -2.48,1.77 -0.9,-1.14 -0.14,0.39 0.16,-1.68 0.27,-1.88 0.32,-0.27 -0.42,-0.99l-0.05 -11.44c-0.01,-1.17 -0.26,-2.5 0.79,-3.96 2.25,1.15 3.32,2.17 4.06,5.71 0.54,2.59 0.71,5.61 -0.79,7.43z"/>
     <path class="fil1" d="M-21.46 104.85c-0.66,-0.64 -0.47,-0.41 -1.17,-1.39 -0.31,-0.43 -0.8,-1.35 -0.94,-1.57 -0.43,-4.93 -0.21,-9.61 3.16,-12.45l1.57 0.83c-0.46,5.42 0.51,16.34 0.94,16.72l-3.56 -2.14z"/>
     <path class="fil1" d="M-16.29 110.26c-0.36,-0.27 -1.79,-1.33 -1.94,-1.42 -1.4,-0.83 -0.72,-0.52 -1.82,-0.79 -0.76,-1.96 -0.76,-1.53 -1.41,-3.2l3.56 2.14c-0.43,-0.38 -1.4,-11.3 -0.94,-16.72l-1.57 -0.83c1.63,-2.49 -0.32,-1.1 2.92,-2.01 1.37,3.51 -1.75,-1.12 1.47,1.73 0.08,0.07 0.32,0.22 0.46,0.34 -0.47,3.46 -0.29,7.09 -0.38,10.64l-0.33 10.11z"/>
     <path class="fil1" d="M168.65 23.18c-1.05,1.46 -0.8,2.8 -0.79,3.96l0.05 11.44c0.73,0.72 0.69,-0.89 0.42,0.99 -0.3,2.07 -1.06,0.55 -0.16,1.68l0.1 1.25c-1.63,0.82 -0.82,0.54 -2.47,0.32 -1.73,-2.03 -0.71,0.65 -0.62,-4.04 0,-0.13 0,-0.37 0,-0.51 -0,-7.26 -0.91,-8.65 0.23,-17.75l2.41 0.41 0.83 2.24z"/>
     <path class="fil1" d="M152.16 41.25l-0.47 0.32c-2.3,-1.61 -2.48,-1.73 -3.45,-4.44 -1.51,-4.06 -2.04,-9.48 1.53,-11.95l-0.17 0.86 2.6 -2.57c-0.04,3.16 -0.82,5.75 -0.53,9.79 0.24,3.36 1.26,5.32 0.48,8z"/>
    </g>
   </g>
  </g>
  <polygon class="fil2" points="-0,0 458.73,0 458.73,447.67 -0,447.67 "/>
  <g id="_105553290204960">
   <path class="fil3" d="M103.47 151.34l-4.78 0.12c-0.91,0 -1.33,-0.12 -2.21,-0.12 -0.42,-1.79 -0.12,-5.22 -0.12,-7.11 1.14,-0.27 5.31,-0.12 6.76,-0.12 0.46,0 0.47,0.64 0.47,1.05 0,2.2 -0.12,3.98 -0.12,6.18zm7.81 -14.57l-6.64 0c0,-0.66 -0.12,-0.81 -0.12,-1.51l0 -4.19c0,-0.71 0.12,-0.85 0.12,-1.52 0.67,0 0.81,-0.12 1.52,-0.12l4.66 0c0.4,0 0.45,0.09 0.82,0.12 0.21,0.9 0.21,5.52 0.04,6.57 -0.06,0.38 0.01,0.65 -0.39,0.65zm-22.96 -13.63c0,-0.75 0.07,-1.18 0.11,-1.75 0.15,-1.96 -1.19,-1.51 6.76,-1.51 0.65,0 0.42,0.78 0.48,1.38 0.14,1.41 0.1,2.86 0.1,4.33 0,0.71 -0.12,0.85 -0.12,1.52 -0.81,0 -1.14,0.12 -1.98,0.12 -1.56,0 -2.71,0.04 -4.22,-0.1 -0.85,-0.08 -1.04,0.25 -1.04,-0.71 -0.01,-1.24 -0.1,-2.04 -0.1,-3.28zm14.45 -11.54l6.06 0c0.4,0 0.45,0.09 0.82,0.12l0.12 5.71c0,0.49 -0,1.4 -0.47,1.4l-6.41 0c-0.82,0 -0.31,-1.8 -0.55,-3.53 -0.11,-0.8 0.03,-1.34 0.08,-1.96 0.05,-0.63 -0.23,-1.74 0.35,-1.74zm12.24 -12.59c0,-0.31 0.06,-0.32 0.12,-0.58l6.99 0 0 4.9c0,0.91 0.12,1.33 0.12,2.21 -0.66,0 -0.81,0.12 -1.51,0.12l-3.5 0c-0.91,0 -1.33,-0.12 -2.21,-0.12l0 -6.53zm-12.7 -1.63c0,-0.91 0.12,-1.37 0.12,-2.33l2.91 -0.12c1.59,0 2.74,0.12 4.31,0.12l0.12 5.01c0,0.84 -0.12,1.17 -0.12,1.98 -1.53,0.36 -5.32,0 -7.11,0 -0.12,-1.48 -0.23,-3.06 -0.23,-4.66zm-6.67 1.17l-7.2 0 0 -6.99c1.88,-0.44 5.33,-0.16 7.23,0 0.2,2.95 0.07,4 -0.03,6.99zm-17.45 -19.81l0.67 9.82c0.33,2.64 0.42,6.4 0.8,8.99l0.52 6.01c0.19,4.04 0.73,7.92 1.04,11.89 0.08,1.08 0.12,2.07 0.22,3.04l0.53 5.99c0.28,1.92 0.53,6.54 0.76,8.92 0.19,1.97 0.35,4.04 0.57,5.95l0.49 6.04c0.05,1.09 0.15,2.06 0.23,3.04 0.29,3.84 1.27,12.12 1.29,15.03l1.05 12c0.86,0 1.37,0.12 2.33,0.12 1.79,-0 6.02,0.16 7.23,-0.12 0.22,-0.83 -0.07,-1.18 -0.28,-2.51l-1.91 -14.75c-0.17,-1.54 -0.12,-1.5 1.03,-1.5l16.78 0c0,2.98 -0.19,2.88 -0.67,5.63l-2.13 13.49c0.78,0 1.06,0.11 1.74,0.12l5.71 -0c0.1,-0.45 0.19,-0.64 0.23,-1.17 0.08,-1.04 0.42,-2.5 0.6,-3.6l2.31 -14.71c0.18,-1.64 0.5,-3.18 0.74,-4.85l1.9 -12.2c0.14,-0.99 0.31,-1.49 0.47,-2.45l4.56 -29.35c0.32,-2.22 0.94,-5.25 1.18,-7.21 0.24,-2.02 0.25,-1.96 0.25,-3.94 0,-2.16 -2.07,-4.14 -3.63,-4.76 -2.5,-1.01 -5.4,-1.84 -7.75,-2.74 -0.55,-0.21 -0.97,-0.38 -1.52,-0.58 -1.05,-0.37 -2.11,-0.74 -3.09,-1.1l-12.5 -4.4c-1.07,-0.35 -2.05,-0.73 -3.08,-1.11l-9.38 -3.32c-1.1,-0.37 -2.02,-0.72 -3.07,-1.13 -1.79,-0.7 -3.82,-1.55 -5.35,-0.39 -0.42,0.32 -0.86,1.13 -0.86,1.82z"/>
   <path class="fil3" d="M63.61 163.93l-5.36 -0.12c-1.83,0.01 -1.4,0.83 -1.4,-5.59 0,-0.71 0.12,-0.85 0.12,-1.52l6.99 0c0,1.61 0.22,5.42 0.04,6.57 -0.06,0.38 0.01,0.65 -0.39,0.65zm-0.35 -11.54c-0.36,0.03 -0.41,0.12 -0.82,0.12l-5.24 0c-0.59,0 -0.52,-0.11 -1.05,-0.12 0,-1.04 -0.12,-1.62 -0.12,-2.68l0 -3.84c0,-0.36 0.11,-0.7 0.47,-0.7l5.24 0c0.71,0 0.85,0.12 1.51,0.12l0.24 3.5 -0.24 3.61zm-13.75 -18.06l6.41 0c0.27,0 0.35,0.08 0.35,0.35l0 6.76c-1.51,0 -6.07,0.15 -7.23,-0.12 0,-1.24 0,-2.49 0,-3.73 0,-0.8 -0.3,-3.26 0.47,-3.26zm15.03 -4.55l-6.29 0c-0.41,0 -0.47,-0.52 -0.47,-0.93l0 -5.24c0,-0.59 0.1,-0.52 0.12,-1.05 0.96,0 1.46,-0.12 2.45,-0.12l3.73 0c0.4,0 0.45,0.09 0.82,0.12 0,0.81 0.12,1.14 0.12,1.98 0,1.13 0.05,3.45 -0.07,4.47 -0.05,0.42 0.06,0.77 -0.39,0.77zm-18.29 -8.16l0.12 -3.03c1.15,-0.27 5.62,-0.12 7.11,-0.12l0 6.88c0,0.27 -0.08,0.35 -0.35,0.35l-6.76 0c0,-1.5 -0.12,-2.57 -0.12,-4.08zm2.68 54.77c2.11,0 3.82,0.12 5.94,0.12 2.05,0 14.99,0.1 16.35,-0.08 0.52,-0.07 1.07,-0.03 1.6,-0.03 1.7,0.01 1.4,0.51 1.4,-3.03l0.01 -6.07c-0.01,-0.71 -0.13,-1.13 -0.12,-1.98l-0.11 -10.14c0,-0.84 -0.12,-1.16 -0.12,-1.98 0.01,-1.15 0.12,-3.11 -0.03,-4.17l-0.43 -20.19c0,-1.44 -0.01,-2.81 -0.11,-4.08 -0.1,-1.18 -0.01,-2.85 -0,-4.07 0,-0.84 -0.12,-1.17 -0.12,-1.98 0.01,-3.46 -0.23,-6.97 -0.23,-10.14l-25.17 0c-1.89,0 -3.45,0.13 -5.24,0.12 -1.65,-0.01 -2.69,0.68 -3.42,2.05 -0.8,1.5 0.47,7.35 0.79,9.44l4.41 28.21c0.22,1.51 0.51,3.06 0.76,4.6l2.23 14.08c0.27,1.61 1.11,8.34 1.63,9.32z"/>
   <path class="fil3" d="M130.15 158.8l0 -5.59 7.23 0.12 0 6.18c0,0.4 -0.09,0.45 -0.12,0.82 -0.37,0.03 -0.42,0.12 -0.82,0.12l-5.83 0c-0.47,0 -0.47,-0.96 -0.47,-1.63zm3.61 -18.18c1.02,0 5.97,-0.08 6.76,0.12 0.51,0.13 0.31,0.12 0.39,0.77 0.25,2.04 -0,4.44 -0.16,6.33 -1.12,0.26 -5,0.12 -6.41,0.12 -1.16,0 -0.58,-1.25 -0.7,-3.5 -0.04,-0.76 -0.19,-0.98 -0.05,-1.91 0.11,-0.73 0.01,-1.26 0.17,-1.93zm-2.68 -9.09c0,-1.48 -0.09,-3.29 0.23,-4.66l6.99 0 0 7.23c-1.36,0 -4.65,0.23 -5.99,0.05 -1.02,-0.13 -1.23,0.54 -1.23,-2.61zm-11.77 44.52l16.08 0c0.4,0 0.38,-0.38 0.68,-1.18l4.55 -13.17c1.22,-3.68 10.85,-31.27 10.85,-32.5 0,-0.83 -0.43,-1.7 -0.78,-2.25 -0.8,-1.29 -2.42,-1.95 -3.86,-2.32 -0.78,-0.2 -1.72,-0.42 -2.49,-0.66 -0.42,-0.13 -0.72,-0.25 -1.15,-0.37l-3.72 -0.94c-3.08,-0.9 -6.76,-1.75 -9.67,-2.68 -0.29,-0.09 -0.83,-0.29 -1.17,-0.36 -0.51,-0.11 -0.5,0.07 -0.65,0.67 -0.22,0.92 -0.28,1.74 -0.45,2.7l-8.51 51.86c-0.04,0.31 -0.32,1.2 0.27,1.2z"/>
   <path class="fil3" d="M57.67 106.13c2.8,0 15.12,-0.13 16.93,0.08 1.62,0.19 0.77,-0.13 1.04,1.87 0.06,0.44 0.09,0.81 0.09,1.43l0.24 11.42c0.05,1.8 -0.18,4.23 0.01,5.93 0.19,1.67 -0.1,4.04 0.13,5.7 0.11,0.8 0.09,1.85 0.08,2.83 -0.01,0.98 0.12,1.7 0.12,2.79 -0,4.79 0.25,9.52 0.23,14.45 -0,1.06 0.12,1.69 0.12,2.8 -0,0.97 0,1.94 0,2.91 0,1.1 0.12,1.77 0.12,2.8l-0.01 4.32c0.02,0.6 0.12,0.72 0.13,1.39 0,1.19 -0.11,5.04 0.17,5.77 0.14,0.37 0.49,0.41 0.86,0.54l5.3 2.05c0.39,0.16 0.77,0.46 0.75,-0.16 -0.03,-0.8 -0.64,-5.09 -0.68,-6.69 -0.06,-2.4 -0.95,-10.44 -1.26,-13.42 -0.28,-2.68 -0.38,-5.67 -0.68,-8.06l-0.6 -5.34c-0.05,-0.46 0.01,-0.92 -0.02,-1.38 -0.03,-0.36 -0.12,-0.91 -0.18,-1.34 -0.34,-2.47 -0.39,-5.86 -0.7,-8.04 -0.24,-1.71 -0.42,-3.57 -0.52,-5.31 -0.17,-3.04 -0.71,-7.69 -1.03,-10.74 -0.1,-0.94 -0.11,-1.88 -0.22,-2.69l-0.73 -8.01c-0.07,-1.75 -0.39,-3.7 -0.56,-5.38 -0.1,-0.93 -0.14,-1.84 -0.23,-2.68 -0.11,-0.99 -0.06,-1.76 -0.2,-2.71l-0.51 -5.44c-0.1,-1.16 -0.63,-6.92 -0.98,-7.75 -1.15,-2.68 -4.15,-0.17 -5.48,0.84l-9.74 7.39c-1.01,0.78 -2.05,1.83 -2.6,3.11 -1.08,2.54 -0.61,1.56 -0.85,3.35 -0.22,1.59 1.44,10 1.47,11.37z"/>
   <path class="fil3" d="M27.84 125.47c0,1.18 0.25,2.92 0.49,3.94 0.27,1.18 0.66,2.32 0.9,3.53 0.89,4.37 2.08,8.26 2.93,12.57 0.14,0.72 0.27,1.1 0.47,1.74l5.58 23.2c0.55,2.12 -0.09,2.23 1.7,2.73 0.56,0.16 1.15,0.35 1.64,0.57l3.96 1.53c0.9,0.3 0.74,0.32 0.42,-2.07 -0.36,-2.68 -0.87,-5.1 -1.18,-7.68l-1.62 -11.67c-0.2,-1.37 -0.42,-2.55 -0.6,-3.83 -0.38,-2.66 -0.66,-5.25 -1.1,-7.87 -0.2,-1.21 -0.4,-2.51 -0.56,-3.87 -0.07,-0.65 -0.16,-1.26 -0.24,-1.97 -0.19,-1.57 -0.7,-3.93 -0.9,-5.74 -0.4,-3.64 -1.27,-8.16 -1.65,-11.63 -0.15,-1.36 -0.59,-4.33 -0.97,-5.67 -0.86,-3.03 -2.98,-0.09 -3.9,1.14 -1.39,1.86 -3.54,4.5 -4.44,6.51 -0.48,1.06 -0.93,3.02 -0.93,4.54z"/>
  </g>
  <path class="fil4" d="M167.17 281.7c0,-24.78 4.69,-45.88 13.73,-64.29 9.38,-18.08 22.77,-32.15 40.18,-42.19 17.41,-10.05 38.17,-15.07 61.95,-15.07 23.78,0 44.54,5.02 61.95,15.07 17.41,10.05 30.81,24.11 40.18,42.19 9.71,18.42 14.4,39.51 14.4,63.96 0,24.78 -4.69,46.21 -14.4,64.29 -9.37,18.42 -22.77,32.48 -40.18,42.53 -17.41,10.38 -38.17,15.4 -61.95,15.4 -23.77,0 -44.54,-5.02 -61.95,-15.4 -17.08,-10.05 -30.47,-24.11 -39.85,-42.53 -9.37,-18.08 -14.06,-39.51 -14.06,-63.96zm54.58 0c0,24.44 5.02,43.53 15.4,57.26 10.04,13.73 25.45,20.43 45.87,20.43 20.09,0 35.5,-6.7 45.88,-20.76 10.72,-13.73 15.74,-32.48 15.74,-56.93 0,-24.44 -5.02,-43.53 -15.74,-56.93 -10.38,-13.73 -25.78,-20.43 -45.88,-20.43 -20.43,0 -35.83,6.7 -45.87,20.09 -10.38,13.73 -15.4,32.82 -15.4,57.26z"/>
 </g>
</svg>
