<?xml version="1.0" encoding="UTF-8"?>
<!DOCTYPE svg PUBLIC "-//W3C//DTD SVG 1.1//EN" "http://www.w3.org/Graphics/SVG/1.1/DTD/svg11.dtd">
<!-- Creator: CorelDRAW -->
<svg xmlns="http://www.w3.org/2000/svg" xml:space="preserve" width="0.952819in" height="0.952819in" version="1.1" style="shape-rendering:geometricPrecision; text-rendering:geometricPrecision; image-rendering:optimizeQuality; fill-rule:evenodd; clip-rule:evenodd"
viewBox="0 0 4.32 4.32"
 xmlns:xlink="http://www.w3.org/1999/xlink"
 xmlns:xodm="http://www.corel.com/coreldraw/odm/2003">
 <defs>
  <style type="text/css">
   <![CDATA[
    .fil4 {fill:none}
    .fil1 {fill:#72bf91}
    .fil3 {fill:url(#id0)}
    .fil0 {fill:url(#id1)}
    .fil2 {fill:url(#id2)}
   ]]>
  </style>
  <linearGradient id="id0" gradientUnits="userSpaceOnUse" x1="1.5" y1="3.5" x2="2.04" y2="3.98">
   <stop offset="0" style="stop-opacity:1; stop-color:#239e54"/>
   <stop offset="1" style="stop-opacity:1; stop-color:#0a2f18"/>
  </linearGradient>
  <linearGradient id="id1" gradientUnits="userSpaceOnUse" xlink:href="#id0" x1="1.07" y1="0.72" x2="2.81" y2="3.08">
  </linearGradient>
  <linearGradient id="id2" gradientUnits="userSpaceOnUse" xlink:href="#id0" x1="2.71" y1="3.5" x2="3.26" y2="3.98">
  </linearGradient>
 </defs>
 <g id="Layer_x0020_1">
  <metadata id="CorelCorpID_0Corel-Layer"/>
  <g id="_105553459269440">
   <g>
    <path class="fil0" d="M0.21 0.81c0,0.27 0.4,0.05 0.51,0.19 0.04,0.05 0.19,0.8 0.21,0.91l0.16 0.73c0.04,0.17 0.06,0.36 0.21,0.45 0.04,0.03 0.11,0.06 0.17,0.06l1.86 0c0.1,0 0.18,-0.05 0.24,-0.1l0.01 -0.01c0,-0 0.01,-0.01 0.01,-0.02 0.01,-0.01 0.01,-0.02 0.03,-0.03 0.06,-0.09 0.19,-0.59 0.22,-0.7l0.1 -0.36 -0.14 0.09c-0.23,0.14 -0.51,0.19 -0.77,0.13 -0.13,-0.03 -0.26,-0.08 -0.37,-0.15 -0.21,-0.14 -0.37,-0.34 -0.45,-0.58 -0.01,-0.05 -0.04,-0.16 -0.04,-0.21l-1.15 0c-0.01,-0.09 -0.05,-0.26 -0.1,-0.33 -0.04,-0.07 -0.16,-0.16 -0.28,-0.16l-0.34 0c-0.05,0 -0.11,0.06 -0.11,0.11z"/>
    <path class="fil1" d="M2.4 1.03c0,0.15 0.01,0.27 0.08,0.4 0.14,0.28 0.42,0.49 0.74,0.49 0.26,0 0.46,-0.07 0.64,-0.25 0.07,-0.07 0.12,-0.14 0.17,-0.24 0.05,-0.09 0.07,-0.19 0.08,-0.28l0 -0.15c-0.03,-0.28 -0.19,-0.56 -0.48,-0.7 -0.09,-0.05 -0.19,-0.07 -0.29,-0.08l-0.14 0c-0.2,0.02 -0.39,0.1 -0.54,0.25 -0.14,0.14 -0.25,0.35 -0.25,0.57z"/>
    <path class="fil2" d="M2.65 3.71c0,0.08 -0,0.12 0.04,0.19 0.04,0.07 0.09,0.13 0.17,0.17 0.04,0.02 0.08,0.03 0.12,0.04l0.08 0c0.18,-0.02 0.33,-0.17 0.33,-0.34 0,-0.11 -0.02,-0.2 -0.1,-0.29 -0.24,-0.24 -0.63,-0.05 -0.63,0.23z"/>
    <path class="fil3" d="M1.43 3.71c0,0.11 0.02,0.2 0.1,0.29 0.06,0.06 0.15,0.1 0.23,0.1l0.06 0c0.12,-0.01 0.24,-0.08 0.3,-0.2 0.12,-0.25 -0.08,-0.53 -0.3,-0.53 -0.11,0 -0.2,0.02 -0.29,0.1 -0.05,0.05 -0.1,0.15 -0.1,0.23z"/>
   </g>
   <rect class="fil4" width="4.32" height="4.32"/>
  </g>
 </g>
</svg>
