<?xml version="1.0" encoding="UTF-8"?>
<!DOCTYPE svg PUBLIC "-//W3C//DTD SVG 1.1//EN" "http://www.w3.org/Graphics/SVG/1.1/DTD/svg11.dtd">
<!-- Creator: CorelDRAW -->
<svg xmlns="http://www.w3.org/2000/svg" xml:space="preserve" width="5.985in" height="8.11879in" version="1.1" style="shape-rendering:geometricPrecision; text-rendering:geometricPrecision; image-rendering:optimizeQuality; fill-rule:evenodd; clip-rule:evenodd"
viewBox="0 0 4809.19 6523.77"
 xmlns:xlink="http://www.w3.org/1999/xlink"
 xmlns:xodm="http://www.corel.com/coreldraw/odm/2003">
 <defs>
  <style type="text/css">
   <![CDATA[
    .fil1 {fill:none}
    .fil0 {fill:#25282E}
   ]]>
  </style>
   <clipPath id="id0">
    <path d="M-0 0l4809.19 0 0 6523.77 -4809.19 0 0 -6523.77z"/>
   </clipPath>
 </defs>
 <g id="Layer_x0020_1">
  <metadata id="CorelCorpID_0Corel-Layer"/>
  <g>
  </g>
  <g style="clip-path:url(#id0)">
   <g>
    <g id="_105553181336704">
     <g filter="url(#filter0_d_2_1065)">
      <path class="fil0" d="M30.39 152.22c-30.39,59.64 -30.39,137.71 -30.39,293.85l0 6077.7 139.4 0c0,-69.29 56.17,-125.46 125.46,-125.46 69.29,0 125.46,56.17 125.46,125.46l111.51 0c0,-69.29 56.17,-125.46 125.46,-125.46 69.29,0 125.45,56.17 125.45,125.46l111.52 0c0,-69.29 56.17,-125.46 125.46,-125.46 69.29,0 125.45,56.17 125.45,125.46l111.51 0c0,-69.29 56.17,-125.46 125.46,-125.46 69.29,0 125.46,56.17 125.46,125.46l111.52 0c0,-69.29 56.16,-125.46 125.45,-125.46 69.29,0 125.46,56.17 125.46,125.46l111.51 0c0,-69.29 56.17,-125.46 125.45,-125.46 69.29,0 125.46,56.17 125.46,125.46l111.52 0c0,-69.29 56.17,-125.46 125.46,-125.46 69.29,0 125.45,56.17 125.45,125.46l111.51 0c0,-69.29 56.17,-125.46 125.46,-125.46 69.29,0 125.45,56.17 125.45,125.46l111.52 0c0,-69.29 56.17,-125.46 125.46,-125.46 69.29,0 125.46,56.17 125.46,125.46l111.51 0c0,-69.29 56.17,-125.46 125.45,-125.46 69.29,0 125.46,56.17 125.46,125.46l111.52 0c0,-69.29 56.16,-125.46 125.45,-125.46 69.29,0 125.46,56.17 125.46,125.46l111.51 0c0,-69.29 56.17,-125.46 125.46,-125.46 69.29,0 125.45,56.17 125.45,125.46l111.52 0c0,-69.29 56.17,-125.46 125.46,-125.46 69.29,0 125.45,56.17 125.45,125.46l69.7 0 0 -6077.7c0,-156.14 0,-234.21 -30.39,-293.85 -26.73,-52.46 -69.38,-95.11 -121.83,-121.84 -59.64,-30.39 -137.71,-30.39 -293.85,-30.39l-3917.05 0c-156.14,0 -234.21,0 -293.85,30.39 -52.46,26.73 -95.11,69.38 -121.84,121.84z"/>
     </g>
    </g>
   </g>
  </g>
  <polygon class="fil1" points="-0,0 4809.19,0 4809.19,6523.77 -0,6523.77 "/>
 </g>
</svg>
