<?xml version="1.0" encoding="UTF-8"?>
<!DOCTYPE svg PUBLIC "-//W3C//DTD SVG 1.1//EN" "http://www.w3.org/Graphics/SVG/1.1/DTD/svg11.dtd">
<!-- Creator: CorelDRAW -->
<svg xmlns="http://www.w3.org/2000/svg" xml:space="preserve" width="5.985in" height="8.11879in" version="1.1" style="shape-rendering:geometricPrecision; text-rendering:geometricPrecision; image-rendering:optimizeQuality; fill-rule:evenodd; clip-rule:evenodd"
viewBox="0 0 1490.56 2021.97"
 xmlns:xlink="http://www.w3.org/1999/xlink"
 xmlns:xodm="http://www.corel.com/coreldraw/odm/2003">
 <defs>
  <style type="text/css">
   <![CDATA[
    .fil1 {fill:none}
    .fil0 {fill:white}
   ]]>
  </style>
   <clipPath id="id0">
    <path d="M-0 0l1490.56 0 0 2021.97 -1490.56 0 0 -2021.97z"/>
   </clipPath>
 </defs>
 <g id="Layer_x0020_1">
  <metadata id="CorelCorpID_0Corel-Layer"/>
  <g>
  </g>
  <g style="clip-path:url(#id0)">
   <g>
    <g id="_105553180862912">
     <g filter="url(#filter0_d_2_1065)">
      <path class="fil0" d="M9.42 47.18c-9.42,18.48 -9.42,42.68 -9.42,91.07l0 1883.72 43.2 0c0,-21.48 17.41,-38.88 38.88,-38.88 21.48,0 38.88,17.41 38.88,38.88l34.56 0c0,-21.48 17.41,-38.88 38.89,-38.88 21.48,0 38.88,17.41 38.88,38.88l34.56 0c0,-21.48 17.41,-38.88 38.88,-38.88 21.48,0 38.88,17.41 38.88,38.88l34.56 0c0,-21.48 17.41,-38.88 38.89,-38.88 21.48,0 38.88,17.41 38.88,38.88l34.56 0c0,-21.48 17.41,-38.88 38.88,-38.88 21.48,0 38.89,17.41 38.89,38.88l34.56 0c0,-21.48 17.41,-38.88 38.88,-38.88 21.48,0 38.88,17.41 38.88,38.88l34.56 0c0,-21.48 17.41,-38.88 38.88,-38.88 21.48,0 38.88,17.41 38.88,38.88l34.56 0c0,-21.48 17.41,-38.88 38.89,-38.88 21.48,0 38.88,17.41 38.88,38.88l34.56 0c0,-21.48 17.41,-38.88 38.88,-38.88 21.48,0 38.89,17.41 38.89,38.88l34.56 0c0,-21.48 17.41,-38.88 38.88,-38.88 21.48,0 38.88,17.41 38.88,38.88l34.56 0c0,-21.48 17.41,-38.88 38.88,-38.88 21.48,0 38.89,17.41 38.89,38.88l34.56 0c0,-21.48 17.41,-38.88 38.89,-38.88 21.48,0 38.88,17.41 38.88,38.88l34.56 0c0,-21.48 17.41,-38.88 38.88,-38.88 21.48,0 38.88,17.41 38.88,38.88l21.6 0 0 -1883.72c0,-48.39 0,-72.59 -9.42,-91.07 -8.28,-16.26 -21.5,-29.48 -37.76,-37.76 -18.48,-9.42 -42.68,-9.42 -91.07,-9.42l-1214.05 0c-48.39,0 -72.59,0 -91.08,9.42 -16.26,8.29 -29.48,21.5 -37.76,37.76z"/>
     </g>
    </g>
   </g>
  </g>
  <polygon class="fil1" points="-0,0 1490.56,0 1490.56,2021.97 -0,2021.97 "/>
 </g>
</svg>
