<?xml version="1.0" encoding="UTF-8"?>
<!DOCTYPE svg PUBLIC "-//W3C//DTD SVG 1.1//EN" "http://www.w3.org/Graphics/SVG/1.1/DTD/svg11.dtd">
<!-- Creator: CorelDRAW -->
<svg xmlns="http://www.w3.org/2000/svg" xml:space="preserve" width="22.9783in" height="5.77546in" version="1.1" style="shape-rendering:geometricPrecision; text-rendering:geometricPrecision; image-rendering:optimizeQuality; fill-rule:evenodd; clip-rule:evenodd"
viewBox="0 0 3908.36 982.34"
 xmlns:xlink="http://www.w3.org/1999/xlink"
 xmlns:xodm="http://www.corel.com/coreldraw/odm/2003">
 <defs>
  <style type="text/css">
   <![CDATA[
    .fil0 {fill:url(#id0);fill-rule:nonzero}
   ]]>
  </style>
  <linearGradient id="id0" gradientUnits="userSpaceOnUse" x1="142.52" y1="924.3" x2="3866.67" y2="40.21">
   <stop offset="0" style="stop-opacity:1; stop-color:#229E54"/>
   <stop offset="1" style="stop-opacity:1; stop-color:#76C495"/>
  </linearGradient>
 </defs>
 <g id="Layer_x0020_1">
  <metadata id="CorelCorpID_0Corel-Layer"/>
  <polygon class="fil0" points="6.79,851.45 212.27,931.15 377.01,963.51 605.87,962.03 654.72,850.83 718.04,851.94 753.33,797.74 778.16,797.74 796.75,761.67 862.52,762.34 898.11,709.6 943.13,711.35 1041.2,656.67 1045.78,655.49 1174.52,655.77 1314.1,619.51 1381.86,576.46 1386.99,575.02 1461.89,575.7 1578.15,462.44 1607.72,425.34 1634.93,370.93 1639.36,366.57 1656.58,358.55 1679.01,316.92 1775.32,307.69 1835.62,287.29 1868.68,260.05 1870.27,258.98 1915.21,235.29 1984.03,185.71 1984.14,185.6 2071.92,124.42 2076.27,122.79 2173.15,111.87 2175,111.87 2285.39,121.71 2288.41,122.48 2359.39,154.14 2456.81,121.79 2463.38,122.01 2536.72,152.54 2665.25,122.97 2666.61,122.74 2784.39,113.41 3023.77,0.74 3029.49,0 3166.88,25.55 3169.86,26.62 3316.81,110.71 3437.46,146.16 3796.5,66.84 3901.72,26.91 3908.36,44.55 3802.61,84.68 3801.32,85.05 3439.13,165.07 3434.44,164.92 3310.38,128.47 3308.35,127.62 3161.82,43.77 3029.07,19.08 2790.84,131.21 2787.55,132.1 2668.7,141.52 2537.98,171.6 2532.26,171.12 2459.35,140.77 2361.83,173.16 2355.03,172.83 2282.15,140.32 2174.4,130.71 2080.76,141.27 1994.92,201.1 1994.91,201.08 1925.6,251.01 1924.49,251.71 1879.86,275.24 1846.22,302.96 1843.27,304.62 1780.39,325.88 1778.25,326.33 1690.85,334.7 1671.69,370.27 1667.37,374.36 1650.27,382.33 1624.07,434.73 1623.03,436.39 1592.57,474.61 1591.76,475.49 1472.26,591.9 1465.62,594.56 1389.67,593.87 1323.03,636.21 1320.34,637.36 1178.1,674.3 1175.74,674.59 1048.22,674.32 949.98,729.1 945.07,730.28 907.9,728.83 872.53,781.27 808.19,780.61 789.64,816.64 763.5,816.64 728.15,870.94 666.94,869.87 618.21,980.77 376.02,982.34 374.18,982.19 207.95,949.54 206.36,949.06 -0,869.02 "/>
 </g>
</svg>
