<?xml version="1.0" encoding="UTF-8"?>
<!DOCTYPE svg PUBLIC "-//W3C//DTD SVG 1.1//EN" "http://www.w3.org/Graphics/SVG/1.1/DTD/svg11.dtd">
<!-- Creator: CorelDRAW -->
<svg xmlns="http://www.w3.org/2000/svg" xml:space="preserve" width="1.3533in" height="1.32069in" version="1.1" style="shape-rendering:geometricPrecision; text-rendering:geometricPrecision; image-rendering:optimizeQuality; fill-rule:evenodd; clip-rule:evenodd"
viewBox="0 0 458.73 447.67"
 xmlns:xlink="http://www.w3.org/1999/xlink"
 xmlns:xodm="http://www.corel.com/coreldraw/odm/2003">
 <defs>
  <style type="text/css">
   <![CDATA[
    .fil2 {fill:none}
    .fil0 {fill:#231F20}
    .fil4 {fill:white}
    .fil3 {fill:white;fill-rule:nonzero}
    .fil1 {fill:black;fill-opacity:0.141176}
   ]]>
  </style>
   <clipPath id="id0">
    <path d="M-0 0l458.73 0 0 447.67 -458.73 0 0 -447.67z"/>
   </clipPath>
 </defs>
 <g id="Layer_x0020_1">
  <metadata id="CorelCorpID_0Corel-Layer"/>
  <polygon class="fil0" points="-0,0 458.73,0 458.73,447.67 -0,447.67 "/>
  <g style="clip-path:url(#id0)">
   <g id="_105553225992864">
    <path id="_1" class="fil1" d="M420.42 -414.52c197.86,0 358.25,160.39 358.25,358.25 0,197.86 -160.39,358.25 -358.25,358.25 -197.86,0 -358.25,-160.39 -358.25,-358.25 0,-197.86 160.39,-358.25 358.25,-358.25z"/>
   </g>
  </g>
  <polygon class="fil2" points="-0,0 458.73,0 458.73,447.67 -0,447.67 "/>
  <path class="fil3" d="M203.16 394.53l0 -230.75 104.74 0c25.86,0 45.82,6.22 60.23,18.66 14.07,12.11 21.27,29.46 21.27,51.39 0,14.4 -3.27,26.84 -9.82,37.31 -6.22,10.15 -15.38,18 -27.49,23.57 -11.78,5.56 -26.19,8.51 -42.55,8.51l3.93 -7.2 13.42 0c9.49,0 17.68,2.29 25.2,7.53 7.2,4.91 13.42,12.44 18,21.93l34.37 69.06 -56.3 0 -35.68 -74.3c-2.62,-6.22 -6.87,-10.47 -12.44,-12.44 -5.24,-2.29 -11.78,-3.27 -18.98,-3.27l-26.84 0 0 90.01 -51.06 0zm51.06 -126.67l44.84 0c13.42,0 23.57,-2.95 30.44,-8.18 7.2,-5.56 10.47,-13.75 10.47,-24.22 0,-10.8 -3.27,-18.66 -10.47,-24.22 -6.87,-5.24 -17.02,-7.86 -30.44,-7.86l-44.84 0 0 64.48z"/>
  <g id="_105553226079648">
   <path class="fil4" d="M109.28 139.02l-4.78 0.12c-0.91,0 -1.33,-0.12 -2.21,-0.12 -0.42,-1.79 -0.12,-5.22 -0.12,-7.11 1.14,-0.27 5.31,-0.12 6.76,-0.12 0.46,0 0.47,0.64 0.47,1.05 0,2.2 -0.12,3.98 -0.12,6.18zm7.81 -14.57l-6.64 0c0,-0.66 -0.12,-0.81 -0.12,-1.51l0 -4.19c0,-0.71 0.12,-0.85 0.12,-1.52 0.67,0 0.81,-0.12 1.52,-0.12l4.66 0c0.4,0 0.45,0.09 0.82,0.12 0.21,0.9 0.21,5.52 0.04,6.57 -0.06,0.38 0.01,0.65 -0.39,0.65zm-22.96 -13.63c0,-0.75 0.07,-1.18 0.11,-1.75 0.15,-1.96 -1.19,-1.51 6.76,-1.51 0.65,0 0.42,0.78 0.48,1.38 0.14,1.41 0.1,2.86 0.1,4.33 0,0.71 -0.12,0.85 -0.12,1.52 -0.81,0 -1.14,0.12 -1.98,0.12 -1.56,0 -2.71,0.04 -4.22,-0.1 -0.85,-0.08 -1.04,0.25 -1.04,-0.71 -0.01,-1.24 -0.1,-2.04 -0.1,-3.28zm14.45 -11.54l6.06 0c0.4,0 0.45,0.09 0.82,0.12l0.12 5.71c0,0.49 -0,1.4 -0.47,1.4l-6.41 0c-0.82,0 -0.31,-1.8 -0.55,-3.53 -0.11,-0.8 0.03,-1.34 0.08,-1.96 0.05,-0.63 -0.23,-1.74 0.35,-1.74zm12.24 -12.59c0,-0.31 0.06,-0.32 0.12,-0.58l6.99 0 0 4.9c0,0.91 0.12,1.33 0.12,2.21 -0.66,0 -0.81,0.12 -1.51,0.12l-3.5 0c-0.91,0 -1.33,-0.12 -2.21,-0.12l0 -6.53zm-12.7 -1.63c0,-0.91 0.12,-1.37 0.12,-2.33l2.91 -0.12c1.59,0 2.74,0.12 4.31,0.12l0.12 5.01c0,0.84 -0.12,1.17 -0.12,1.98 -1.53,0.36 -5.32,0 -7.11,0 -0.12,-1.48 -0.23,-3.06 -0.23,-4.66zm-6.67 1.17l-7.2 0 0 -6.99c1.88,-0.44 5.33,-0.16 7.23,0 0.2,2.95 0.07,4 -0.03,6.99zm-17.45 -19.81l0.67 9.82c0.33,2.64 0.42,6.4 0.8,8.99l0.52 6.01c0.19,4.04 0.73,7.92 1.04,11.89 0.08,1.08 0.12,2.07 0.22,3.04l0.53 5.99c0.28,1.92 0.53,6.54 0.76,8.92 0.19,1.97 0.35,4.04 0.57,5.95l0.49 6.04c0.05,1.09 0.15,2.06 0.23,3.04 0.29,3.84 1.27,12.12 1.29,15.03l1.05 12c0.86,0 1.37,0.12 2.33,0.12 1.79,-0 6.02,0.16 7.23,-0.12 0.22,-0.83 -0.07,-1.18 -0.28,-2.51l-1.91 -14.75c-0.17,-1.54 -0.12,-1.5 1.03,-1.5l16.78 0c0,2.98 -0.19,2.88 -0.67,5.63l-2.13 13.49c0.78,0 1.06,0.11 1.74,0.12l5.71 -0c0.1,-0.45 0.19,-0.64 0.23,-1.17 0.08,-1.04 0.42,-2.5 0.6,-3.6l2.31 -14.71c0.18,-1.64 0.5,-3.18 0.74,-4.85l1.9 -12.2c0.14,-0.99 0.31,-1.49 0.47,-2.45l4.56 -29.35c0.32,-2.22 0.94,-5.25 1.18,-7.21 0.24,-2.02 0.25,-1.96 0.25,-3.94 0,-2.16 -2.07,-4.14 -3.63,-4.76 -2.5,-1.01 -5.4,-1.84 -7.75,-2.74 -0.55,-0.21 -0.97,-0.38 -1.52,-0.58 -1.05,-0.37 -2.11,-0.74 -3.09,-1.1l-12.5 -4.4c-1.07,-0.35 -2.05,-0.73 -3.08,-1.11l-9.38 -3.32c-1.1,-0.37 -2.02,-0.72 -3.07,-1.13 -1.79,-0.7 -3.82,-1.55 -5.35,-0.39 -0.42,0.32 -0.86,1.13 -0.86,1.82z"/>
   <path class="fil4" d="M69.42 151.61l-5.36 -0.12c-1.83,0.01 -1.4,0.83 -1.4,-5.59 0,-0.71 0.12,-0.85 0.12,-1.52l6.99 0c0,1.61 0.22,5.42 0.04,6.57 -0.06,0.38 0.01,0.65 -0.39,0.65zm-0.35 -11.54c-0.36,0.03 -0.41,0.12 -0.82,0.12l-5.24 0c-0.59,0 -0.52,-0.11 -1.05,-0.12 0,-1.04 -0.12,-1.62 -0.12,-2.68l0 -3.84c0,-0.36 0.11,-0.7 0.47,-0.7l5.24 0c0.71,0 0.85,0.12 1.51,0.12l0.24 3.5 -0.24 3.61zm-13.75 -18.06l6.41 0c0.27,0 0.35,0.08 0.35,0.35l0 6.76c-1.51,0 -6.07,0.15 -7.23,-0.12 0,-1.24 0,-2.49 0,-3.73 0,-0.8 -0.3,-3.26 0.47,-3.26zm15.03 -4.55l-6.29 0c-0.41,0 -0.47,-0.52 -0.47,-0.93l0 -5.24c0,-0.59 0.1,-0.52 0.12,-1.05 0.96,0 1.46,-0.12 2.45,-0.12l3.73 0c0.4,0 0.45,0.09 0.82,0.12 0,0.81 0.12,1.14 0.12,1.98 0,1.13 0.05,3.45 -0.07,4.47 -0.05,0.42 0.06,0.77 -0.39,0.77zm-18.29 -8.16l0.12 -3.03c1.15,-0.27 5.62,-0.12 7.11,-0.12l0 6.88c0,0.27 -0.08,0.35 -0.35,0.35l-6.76 0c0,-1.5 -0.12,-2.57 -0.12,-4.08zm2.68 54.77c2.11,0 3.82,0.12 5.94,0.12 2.05,0 14.99,0.1 16.35,-0.08 0.52,-0.07 1.07,-0.03 1.6,-0.03 1.7,0.01 1.4,0.51 1.4,-3.03l0.01 -6.07c-0.01,-0.71 -0.13,-1.13 -0.12,-1.98l-0.11 -10.14c0,-0.84 -0.12,-1.16 -0.12,-1.98 0.01,-1.15 0.12,-3.11 -0.03,-4.17l-0.43 -20.19c0,-1.44 -0.01,-2.81 -0.11,-4.08 -0.1,-1.18 -0.01,-2.85 -0,-4.07 0,-0.84 -0.12,-1.17 -0.12,-1.98 0.01,-3.46 -0.23,-6.97 -0.23,-10.14l-25.17 0c-1.89,0 -3.45,0.13 -5.24,0.12 -1.65,-0.01 -2.69,0.68 -3.42,2.05 -0.8,1.5 0.47,7.35 0.79,9.44l4.41 28.21c0.22,1.51 0.51,3.06 0.76,4.6l2.23 14.08c0.27,1.61 1.11,8.34 1.63,9.32z"/>
   <path class="fil4" d="M135.96 146.48l0 -5.59 7.23 0.12 0 6.18c0,0.4 -0.09,0.45 -0.12,0.82 -0.37,0.03 -0.42,0.12 -0.82,0.12l-5.83 0c-0.47,0 -0.47,-0.96 -0.47,-1.63zm3.61 -18.18c1.02,0 5.97,-0.08 6.76,0.12 0.51,0.13 0.31,0.12 0.39,0.77 0.25,2.04 -0,4.44 -0.16,6.33 -1.12,0.26 -5,0.12 -6.41,0.12 -1.16,0 -0.58,-1.25 -0.7,-3.5 -0.04,-0.76 -0.19,-0.98 -0.05,-1.91 0.11,-0.73 0.01,-1.26 0.17,-1.93zm-2.68 -9.09c0,-1.48 -0.09,-3.29 0.23,-4.66l6.99 0 0 7.23c-1.36,0 -4.65,0.23 -5.99,0.05 -1.02,-0.13 -1.23,0.54 -1.23,-2.61zm-11.77 44.52l16.08 0c0.4,0 0.38,-0.38 0.68,-1.18l4.55 -13.17c1.22,-3.68 10.85,-31.27 10.85,-32.5 0,-0.83 -0.43,-1.7 -0.78,-2.25 -0.8,-1.29 -2.42,-1.95 -3.86,-2.32 -0.78,-0.2 -1.72,-0.42 -2.49,-0.66 -0.42,-0.13 -0.72,-0.25 -1.15,-0.37l-3.72 -0.94c-3.08,-0.9 -6.76,-1.75 -9.67,-2.68 -0.29,-0.09 -0.83,-0.29 -1.17,-0.36 -0.51,-0.11 -0.5,0.07 -0.65,0.67 -0.22,0.92 -0.28,1.74 -0.45,2.7l-8.51 51.86c-0.04,0.31 -0.32,1.2 0.27,1.2z"/>
   <path class="fil4" d="M63.48 93.81c2.8,0 15.12,-0.13 16.93,0.08 1.62,0.19 0.77,-0.13 1.04,1.87 0.06,0.44 0.09,0.81 0.09,1.43l0.24 11.42c0.05,1.8 -0.18,4.23 0.01,5.93 0.19,1.67 -0.1,4.04 0.13,5.7 0.11,0.8 0.09,1.85 0.08,2.83 -0.01,0.98 0.12,1.7 0.12,2.79 -0,4.79 0.25,9.52 0.23,14.45 -0,1.06 0.12,1.69 0.12,2.8 -0,0.97 0,1.94 0,2.91 0,1.1 0.12,1.77 0.12,2.8l-0.01 4.32c0.02,0.6 0.12,0.72 0.13,1.39 0,1.19 -0.11,5.04 0.17,5.77 0.14,0.37 0.49,0.41 0.86,0.54l5.3 2.05c0.39,0.16 0.77,0.46 0.75,-0.16 -0.03,-0.8 -0.64,-5.09 -0.68,-6.69 -0.06,-2.4 -0.95,-10.44 -1.26,-13.42 -0.28,-2.68 -0.38,-5.67 -0.68,-8.06l-0.6 -5.34c-0.05,-0.46 0.01,-0.92 -0.02,-1.38 -0.03,-0.36 -0.12,-0.91 -0.18,-1.34 -0.34,-2.47 -0.39,-5.86 -0.7,-8.04 -0.24,-1.71 -0.42,-3.57 -0.52,-5.31 -0.17,-3.04 -0.71,-7.69 -1.03,-10.74 -0.1,-0.94 -0.11,-1.88 -0.22,-2.69l-0.73 -8.01c-0.07,-1.75 -0.39,-3.7 -0.56,-5.38 -0.1,-0.93 -0.14,-1.84 -0.23,-2.68 -0.11,-0.99 -0.06,-1.76 -0.2,-2.71l-0.51 -5.44c-0.1,-1.16 -0.63,-6.92 -0.98,-7.75 -1.15,-2.68 -4.15,-0.17 -5.48,0.84l-9.74 7.39c-1.01,0.78 -2.05,1.83 -2.6,3.11 -1.08,2.54 -0.61,1.56 -0.85,3.35 -0.22,1.59 1.44,10 1.47,11.37z"/>
   <path class="fil4" d="M33.65 113.15c0,1.18 0.25,2.92 0.49,3.94 0.27,1.18 0.66,2.32 0.9,3.53 0.89,4.37 2.08,8.26 2.93,12.57 0.14,0.72 0.27,1.1 0.47,1.74l5.58 23.2c0.55,2.12 -0.09,2.23 1.7,2.73 0.56,0.16 1.15,0.35 1.64,0.57l3.96 1.53c0.9,0.3 0.74,0.32 0.42,-2.07 -0.36,-2.68 -0.87,-5.1 -1.18,-7.68l-1.62 -11.67c-0.2,-1.37 -0.42,-2.55 -0.6,-3.83 -0.38,-2.66 -0.66,-5.25 -1.1,-7.87 -0.2,-1.21 -0.4,-2.51 -0.56,-3.87 -0.07,-0.65 -0.16,-1.26 -0.24,-1.97 -0.19,-1.57 -0.7,-3.93 -0.9,-5.74 -0.4,-3.64 -1.27,-8.16 -1.65,-11.63 -0.15,-1.36 -0.59,-4.33 -0.97,-5.67 -0.86,-3.03 -2.98,-0.09 -3.9,1.14 -1.39,1.86 -3.54,4.5 -4.44,6.51 -0.48,1.06 -0.93,3.02 -0.93,4.54z"/>
  </g>
 </g>
</svg>
