<?xml version="1.0" encoding="UTF-8"?>
<!DOCTYPE svg PUBLIC "-//W3C//DTD SVG 1.1//EN" "http://www.w3.org/Graphics/SVG/1.1/DTD/svg11.dtd">
<!-- Creator: CorelDRAW -->
<svg xmlns="http://www.w3.org/2000/svg" xml:space="preserve" width="4.69294in" height="0.667276in" version="1.1" style="shape-rendering:geometricPrecision; text-rendering:geometricPrecision; image-rendering:optimizeQuality; fill-rule:evenodd; clip-rule:evenodd"
viewBox="0 0 2071.92 294.6"
 xmlns:xlink="http://www.w3.org/1999/xlink"
 xmlns:xodm="http://www.corel.com/coreldraw/odm/2003">
 <defs>
  <style type="text/css">
   <![CDATA[
    .fil1 {fill:black}
    .fil0 {fill:#2E444F;fill-rule:nonzero}
   ]]>
  </style>
 </defs>
 <g id="Layer_x0020_1">
  <metadata id="CorelCorpID_0Corel-Layer"/>
  <path class="fil0" d="M436.87 285.67l0 -184.5 76.42 0c19.63,0 34.81,4.71 45.54,13.87 10.73,9.16 16.22,22.24 16.22,38.73 0,10.99 -2.36,20.15 -7.33,28 -4.97,7.59 -11.78,13.61 -20.41,17.53 -8.9,4.19 -19.1,6.02 -30.88,6.02l4.45 -3.66 6.28 0c7.07,0 13.61,1.83 19.1,5.49 5.76,3.4 10.21,9.16 13.87,17.27l26.17 61.24 -26.95 0 -25.39 -60.71c-2.88,-7.59 -7.33,-12.3 -12.82,-14.65 -5.76,-2.09 -12.82,-3.4 -21.46,-3.4l-38.47 0 0 78.77 -24.34 0zm24.34 -97.61l48.41 0c13.61,0 23.81,-2.88 30.62,-8.64 7.07,-5.76 10.73,-14.13 10.73,-25.12 0,-10.73 -3.66,-19.1 -10.73,-24.86 -6.8,-5.76 -17.01,-8.37 -30.62,-8.37l-48.41 0 0 66.99z"/>
  <path id="_1" class="fil0" d="M662.89 288.02c-15.7,0 -27.74,-4.19 -35.59,-12.82 -8.11,-8.64 -12.04,-21.72 -12.04,-39.52l0 -81.65 23.81 0 0 80.87c0,11.78 2.36,20.15 7.07,25.65 4.71,5.24 12.04,8.11 21.98,8.11 10.73,0 19.63,-3.66 26.43,-10.99 6.8,-7.07 9.94,-16.75 9.94,-28.79l0 -74.85 23.81 0 0 131.63 -23.03 0 0 -29.05 3.4 0c-3.66,9.94 -9.68,17.8 -17.53,23.29 -8.11,5.49 -17.53,8.11 -28.26,8.11z"/>
  <path id="_2" class="fil0" d="M768.27 285.67l0 -100.49c0,-5.23 -0.26,-10.2 -0.52,-15.44 -0.26,-5.23 -0.78,-10.47 -1.57,-15.7l23.03 0 2.62 28.26 -3.14 0c3.4,-9.68 9.16,-17.27 16.75,-22.51 7.59,-5.5 16.75,-8.11 27.48,-8.11 10.73,0 19.89,2.62 26.69,7.85 6.8,4.97 11.51,13.08 14.13,24.08l-3.93 0c3.4,-9.94 9.16,-17.53 17.53,-23.29 8.37,-5.76 18.06,-8.64 29.31,-8.64 14.39,0 25.39,4.19 32.71,12.56 7.33,8.37 10.99,21.72 10.99,39.52l0 81.91 -23.81 0 0 -80.6c0,-12.04 -2.09,-20.67 -6.28,-26.17 -4.19,-5.23 -10.73,-7.85 -19.89,-7.85 -10.73,0 -18.84,3.66 -25.12,10.73 -6.02,7.33 -9.16,17.01 -9.16,29.57l0 74.32 -23.81 0 0 -80.6c0,-12.04 -2.09,-20.67 -6.28,-26.17 -3.93,-5.23 -10.73,-7.85 -19.89,-7.85 -10.47,0 -18.84,3.66 -24.86,10.73 -6.02,7.33 -9.16,17.01 -9.16,29.57l0 74.32 -23.81 0z"/>
  <path id="_3" class="fil0" d="M1046.19 288.02c-15.7,0 -27.74,-4.19 -35.59,-12.82 -8.11,-8.64 -12.04,-21.72 -12.04,-39.52l0 -81.65 23.81 0 0 80.87c0,11.78 2.36,20.15 7.07,25.65 4.71,5.24 12.04,8.11 21.98,8.11 10.73,0 19.63,-3.66 26.43,-10.99 6.8,-7.07 9.94,-16.75 9.94,-28.79l0 -74.85 23.81 0 0 131.63 -23.03 0 0 -29.05 3.4 0c-3.66,9.94 -9.68,17.8 -17.53,23.29 -8.11,5.49 -17.53,8.11 -28.26,8.11z"/>
  <polygon id="_4" class="fil0" points="1151.57,285.67 1151.57,93.06 1175.38,93.06 1175.38,212.13 1175.91,212.13 1235.31,154.03 1264.88,154.03 1194.23,223.12 1194.49,211.87 1271.16,285.67 1240.81,285.67 1175.91,224.43 1175.38,224.43 1175.38,285.67 "/>
  <polygon id="_5" class="fil0" points="1319.71,285.67 1270.51,154.03 1295.37,154.03 1335.15,266.82 1328.34,266.82 1369.17,154.03 1388.54,154.03 1429.1,266.82 1422.56,266.82 1462.6,154.03 1486.41,154.03 1436.95,285.67 1414.44,285.67 1372.57,171.04 1384.09,171.04 1342.48,285.67 "/>
  <path id="_6" class="fil0" d="M1512.14 285.67l0 -99.44c0,-5.24 -0.26,-10.73 -0.52,-16.23 -0.26,-5.5 -0.52,-10.73 -1.31,-15.96l23.03 0 2.88 32.97 -3.92 0.26c1.57,-8.11 4.71,-14.65 8.9,-19.89 4.45,-5.49 9.68,-9.42 15.44,-11.78 6.02,-2.62 12.3,-3.92 18.84,-3.92 2.62,0 4.97,0 7.07,0.26 1.83,0.26 3.93,0.79 5.76,1.31l-0.52 21.2c-2.62,-1.05 -4.97,-1.83 -7.33,-2.09 -2.09,-0.26 -4.71,-0.26 -7.85,-0.26 -7.59,0 -14.13,1.83 -19.63,5.24 -5.5,3.66 -9.68,8.11 -12.56,13.87 -2.88,5.76 -4.45,12.04 -4.45,18.58l0 75.89 -23.81 0z"/>
  <path id="_7" class="fil0" d="M1655.99 288.02c-15.7,0 -27.74,-4.19 -35.59,-12.82 -8.11,-8.64 -12.04,-21.72 -12.04,-39.52l0 -81.65 23.81 0 0 80.87c0,11.78 2.36,20.15 7.07,25.65 4.71,5.24 12.04,8.11 21.98,8.11 10.73,0 19.63,-3.66 26.43,-10.99 6.8,-7.07 9.94,-16.75 9.94,-28.79l0 -74.85 23.81 0 0 131.63 -23.03 0 0 -29.05 3.4 0c-3.66,9.94 -9.68,17.8 -17.53,23.29 -8.11,5.49 -17.53,8.11 -28.26,8.11z"/>
  <path id="_8" class="fil0" d="M1805.86 288.02c-10.73,0 -20.41,-1.31 -29.57,-4.19 -9.16,-2.88 -16.75,-6.8 -22.77,-12.04l7.59 -16.49c6.54,4.97 13.61,8.64 21.2,10.99 7.85,2.62 15.7,3.92 24.08,3.92 9.94,0 17.53,-1.83 22.51,-5.5 5.23,-3.66 7.85,-8.64 7.85,-14.65 0,-4.97 -1.83,-8.9 -4.97,-11.78 -3.14,-2.88 -8.64,-5.23 -15.7,-6.54l-24.86 -4.97c-11.25,-2.62 -19.63,-6.8 -25.38,-12.56 -5.5,-6.02 -8.37,-13.35 -8.37,-22.77 0,-7.59 2.09,-14.66 6.28,-20.41 4.19,-6.02 10.2,-10.73 17.8,-14.13 7.85,-3.66 17.01,-5.23 27.48,-5.23 9.68,0 18.58,1.31 26.96,4.19 8.11,2.88 14.92,7.07 20.41,12.3l-7.85 15.96c-5.5,-4.71 -11.52,-8.37 -18.32,-10.99 -6.54,-2.36 -13.61,-3.66 -20.41,-3.66 -10.21,0 -17.53,1.83 -22.51,5.76 -4.97,3.92 -7.33,9.16 -7.33,15.44 0,4.71 1.57,8.64 4.45,11.52 3.14,3.14 7.85,5.49 14.39,7.07l24.86 4.97c11.78,2.62 20.41,6.54 26.43,12.04 6.02,5.5 8.9,12.82 8.9,22.25 0,8.11 -2.36,15.18 -6.54,21.2 -4.45,5.76 -10.73,10.47 -18.58,13.61 -8.11,3.14 -17.27,4.71 -28,4.71z"/>
  <path id="_9" class="fil0" d="M1891.52 285.67l0 -192.61 23.81 0 0 89.5 -3.4 0c3.92,-9.94 9.94,-17.8 18.58,-23.03 8.64,-5.24 18.58,-7.85 29.57,-7.85 15.96,0 27.48,4.19 35.07,12.82 7.85,8.64 11.51,21.46 11.51,38.73l0 82.43 -23.81 0 0 -81.13c0,-11.78 -2.36,-20.15 -6.8,-25.65 -4.71,-5.23 -12.04,-7.85 -22.24,-7.85 -11.52,0 -20.94,3.4 -28,10.73 -6.8,7.07 -10.47,16.49 -10.47,28.53l0 75.37 -23.81 0z"/>
  <path id="_10" class="fil0" d="M2045.79 285.67l0 -131.63 23.81 0 0 131.63 -23.81 0zm-2.09 -160.42l0 -25.65 28.26 0 0 25.65 -28.26 0z"/>
  <g id="_105553290252512">
   <path class="fil1" d="M222.37 220.51l-14.05 0.34c-2.69,0 -3.9,-0.34 -6.51,-0.34 -1.23,-5.26 -0.34,-15.34 -0.34,-20.9 3.34,-0.78 15.6,-0.34 19.87,-0.34 1.35,0 1.37,1.87 1.37,3.08 0,6.46 -0.34,11.72 -0.34,18.16zm22.96 -42.83l-19.53 0c0,-1.96 -0.34,-2.37 -0.34,-4.45l0 -12.34c0,-2.08 0.34,-2.5 0.34,-4.45 1.95,0 2.37,-0.34 4.45,-0.34l13.71 0c1.18,0 1.33,0.25 2.4,0.34 0.62,2.64 0.61,16.24 0.13,19.32 -0.17,1.11 0.03,1.92 -1.16,1.92zm-67.5 -40.09c0,-2.22 0.19,-3.46 0.33,-5.16 0.44,-5.75 -3.5,-4.44 19.89,-4.44 1.9,0 1.24,2.29 1.42,4.06 0.42,4.13 0.29,8.41 0.29,12.73 0,2.09 -0.34,2.5 -0.34,4.45 -2.39,0 -3.34,0.34 -5.82,0.34 -4.59,0 -7.96,0.12 -12.4,-0.28 -2.51,-0.23 -3.04,0.74 -3.06,-2.08 -0.02,-3.65 -0.3,-6.01 -0.3,-9.63zm42.49 -33.92l17.82 0c1.18,0 1.33,0.25 2.4,0.34l0.34 16.79c0,1.45 -0.01,4.11 -1.37,4.11l-18.85 0c-2.43,0 -0.92,-5.3 -1.62,-10.37 -0.33,-2.37 0.08,-3.93 0.23,-5.75 0.15,-1.84 -0.68,-5.12 1.05,-5.12zm35.98 -37.01c0,-0.92 0.17,-0.94 0.34,-1.71l20.56 0 0 14.39c0,2.69 0.34,3.9 0.34,6.51 -1.96,0 -2.37,0.34 -4.45,0.34l-10.28 0c-2.69,0 -3.9,-0.34 -6.51,-0.34l0 -19.19zm-37.35 -4.8c0,-2.67 0.34,-4.04 0.34,-6.85l8.57 -0.34c4.66,0 8.05,0.34 12.68,0.34l0.34 14.73c0,2.48 -0.34,3.43 -0.34,5.82 -4.5,1.05 -15.65,0 -20.9,0 -0.36,-4.34 -0.68,-9 -0.68,-13.71zm-19.61 3.42l-21.16 0 0 -20.56c5.53,-1.29 15.67,-0.46 21.24,0 0.58,8.68 0.22,11.75 -0.08,20.55zm-51.31 -58.24l1.96 28.88c0.99,7.77 1.25,18.81 2.35,26.43l1.52 17.67c0.57,11.88 2.15,23.3 3.06,34.97 0.25,3.18 0.35,6.09 0.65,8.94l1.57 17.62c0.83,5.64 1.55,19.25 2.22,26.22 0.56,5.78 1.05,11.89 1.68,17.5l1.43 17.76c0.16,3.21 0.44,6.04 0.66,8.93 0.86,11.3 3.73,35.63 3.78,44.19l3.09 35.28c2.54,0 4.04,0.35 6.85,0.34 5.27,-0.01 17.7,0.48 21.24,-0.34 0.65,-2.44 -0.21,-3.48 -0.83,-7.39l-5.62 -43.38c-0.49,-4.54 -0.35,-4.4 3.03,-4.4l49.34 0c0,8.77 -0.55,8.46 -1.96,16.54l-6.26 39.65c2.3,0 3.13,0.33 5.13,0.36l16.8 -0.01c0.3,-1.31 0.56,-1.87 0.68,-3.43 0.24,-3.07 1.23,-7.36 1.76,-10.57l6.78 -43.24c0.52,-4.81 1.46,-9.35 2.18,-14.27l5.58 -35.88c0.42,-2.9 0.91,-4.37 1.37,-7.19l13.41 -86.3c0.94,-6.52 2.78,-15.44 3.47,-21.2 0.71,-5.93 0.75,-5.75 0.75,-11.59 0,-6.36 -6.1,-12.17 -10.66,-14.01 -7.34,-2.96 -15.88,-5.4 -22.77,-8.07 -1.61,-0.62 -2.84,-1.12 -4.47,-1.7 -3.09,-1.1 -6.2,-2.17 -9.09,-3.25l-36.74 -12.94c-3.14,-1.04 -6.03,-2.14 -9.07,-3.27l-27.59 -9.76c-3.23,-1.08 -5.94,-2.11 -9.02,-3.31 -5.26,-2.07 -11.22,-4.56 -15.74,-1.14 -1.24,0.94 -2.52,3.32 -2.52,5.36z"/>
   <path class="fil1" d="M105.19 257.51l-15.76 -0.34c-5.38,0.03 -4.11,2.44 -4.11,-16.45 0,-2.09 0.34,-2.5 0.34,-4.45l20.56 0c0,4.73 0.65,15.93 0.13,19.32 -0.17,1.11 0.03,1.92 -1.16,1.92zm-1.03 -33.92c-1.07,0.09 -1.22,0.34 -2.4,0.34l-15.42 0c-1.72,0 -1.53,-0.31 -3.08,-0.34 0,-3.06 -0.34,-4.76 -0.34,-7.88l0 -11.31c0,-1.05 0.32,-2.06 1.37,-2.06l15.42 0c2.08,0 2.5,0.34 4.45,0.34l0.71 10.28 -0.71 10.62zm-40.43 -53.11l18.85 0c0.79,0 1.03,0.24 1.03,1.03l0 19.87c-4.43,0 -17.85,0.45 -21.24,-0.34 0,-3.66 0,-7.31 0,-10.96 0,-2.37 -0.88,-9.59 1.37,-9.59zm44.2 -13.36l-18.5 0c-1.2,0 -1.37,-1.52 -1.37,-2.74l0 -15.42c0,-1.72 0.31,-1.53 0.34,-3.08 2.83,0 4.29,-0.34 7.19,-0.34l10.96 0c1.18,0 1.33,0.25 2.4,0.34 0,2.39 0.34,3.34 0.34,5.82 0,3.32 0.16,10.14 -0.22,13.14 -0.16,1.22 0.18,2.28 -1.15,2.28zm-53.79 -23.99l0.34 -8.91c3.38,-0.79 16.51,-0.34 20.9,-0.34l0 20.21c0,0.79 -0.24,1.03 -1.03,1.03l-19.87 0c0,-4.4 -0.34,-7.55 -0.34,-11.99zm7.88 161.04c6.22,0 11.24,0.34 17.47,0.34 6.02,0 44.07,0.3 48.06,-0.25 1.52,-0.21 3.15,-0.1 4.71,-0.09 5.01,0.03 4.11,1.51 4.11,-8.91l0.01 -17.83c-0.03,-2.08 -0.37,-3.32 -0.36,-5.81l-0.34 -29.81c0.01,-2.48 -0.37,-3.42 -0.35,-5.81 0.01,-3.38 0.34,-9.15 -0.09,-12.25l-1.28 -59.37c0,-4.23 -0.02,-8.27 -0.33,-12.01 -0.29,-3.47 -0.03,-8.37 -0.01,-11.98 0.02,-2.49 -0.37,-3.42 -0.35,-5.81 0.04,-10.16 -0.68,-20.48 -0.68,-29.82l-74.01 0c-5.56,0 -10.14,0.37 -15.42,0.34 -4.86,-0.03 -7.9,1.99 -10.07,6.04 -2.36,4.41 1.39,21.61 2.33,27.74l12.98 82.96c0.64,4.43 1.5,9.01 2.24,13.52l6.56 41.41c0.79,4.73 3.26,24.51 4.8,27.41z"/>
   <path class="fil1" d="M300.83 242.44l0 -16.45 21.24 0.34 0 18.16c0,1.18 -0.25,1.33 -0.34,2.4 -1.07,0.09 -1.22,0.34 -2.4,0.34l-17.13 0c-1.39,0 -1.37,-2.82 -1.37,-4.8zm10.62 -53.45c3.01,0 17.57,-0.24 19.87,0.35 1.5,0.38 0.92,0.35 1.16,2.27 0.74,5.98 -0,13.05 -0.47,18.63 -3.31,0.77 -14.69,0.34 -18.85,0.34 -3.41,0 -1.7,-3.68 -2.05,-10.28 -0.12,-2.24 -0.56,-2.89 -0.15,-5.62 0.33,-2.15 0.03,-3.71 0.49,-5.68zm-7.88 -26.72c0,-4.36 -0.25,-9.68 0.69,-13.71l20.56 0 0 21.24c-4,0 -13.66,0.68 -17.63,0.15 -2.99,-0.4 -3.62,1.58 -3.62,-7.69zm-34.61 130.88l47.28 0c1.18,0 1.13,-1.12 2,-3.48l13.37 -38.71c3.59,-10.83 31.91,-91.95 31.91,-95.55 0,-2.44 -1.26,-4.99 -2.28,-6.63 -2.35,-3.79 -7.11,-5.73 -11.35,-6.81 -2.29,-0.58 -5.06,-1.24 -7.31,-1.94 -1.23,-0.38 -2.13,-0.75 -3.38,-1.08l-10.93 -2.78c-9.05,-2.65 -19.89,-5.15 -28.43,-7.88 -0.84,-0.27 -2.45,-0.85 -3.43,-1.06 -1.49,-0.31 -1.48,0.2 -1.91,1.97 -0.66,2.69 -0.83,5.1 -1.31,7.94l-25.02 152.47c-0.13,0.9 -0.94,3.53 0.79,3.53z"/>
   <path class="fil1" d="M87.71 87.57c8.22,0 44.45,-0.38 49.79,0.24 4.77,0.55 2.27,-0.39 3.07,5.49 0.18,1.31 0.26,2.39 0.25,4.2l0.7 33.57c0.16,5.29 -0.52,12.45 0.04,17.44 0.55,4.92 -0.28,11.87 0.39,16.75 0.32,2.35 0.26,5.44 0.25,8.32 -0.02,2.88 0.35,5 0.35,8.22 -0,14.09 0.74,27.98 0.68,42.49 -0.01,3.13 0.35,4.98 0.34,8.22 -0,2.85 0,5.71 0,8.57 -0,3.24 0.36,5.21 0.35,8.22l-0.01 12.69c0.05,1.75 0.36,2.11 0.37,4.09 0.01,3.5 -0.34,14.81 0.5,16.98 0.42,1.1 1.45,1.21 2.52,1.59l15.59 6.02c1.14,0.47 2.28,1.35 2.22,-0.46 -0.07,-2.35 -1.87,-14.96 -1.98,-19.67 -0.18,-7.06 -2.79,-30.69 -3.71,-39.46 -0.82,-7.87 -1.11,-16.68 -2.01,-23.69l-1.76 -15.71c-0.15,-1.34 0.04,-2.7 -0.07,-4.04 -0.08,-1.05 -0.35,-2.67 -0.52,-3.93 -1,-7.26 -1.14,-17.22 -2.05,-23.65 -0.71,-5.03 -1.25,-10.5 -1.53,-15.6 -0.5,-8.95 -2.08,-22.61 -3.02,-31.58 -0.29,-2.75 -0.33,-5.53 -0.64,-7.92l-2.15 -23.54c-0.22,-5.14 -1.14,-10.87 -1.66,-15.82 -0.28,-2.73 -0.43,-5.42 -0.69,-7.88 -0.31,-2.9 -0.18,-5.16 -0.59,-7.97l-1.48 -15.99c-0.29,-3.41 -1.85,-20.35 -2.9,-22.8 -3.38,-7.89 -12.19,-0.5 -16.13,2.47l-28.64 21.73c-2.98,2.31 -6.02,5.37 -7.64,9.15 -3.18,7.47 -1.79,4.6 -2.51,9.85 -0.64,4.66 4.23,29.41 4.32,33.42z"/>
   <path class="fil1" d="M-0 144.44c0,3.47 0.74,8.59 1.44,11.58 0.81,3.47 1.93,6.83 2.65,10.37 2.63,12.83 6.12,24.28 8.62,36.95 0.42,2.11 0.79,3.22 1.39,5.12l16.41 68.22c1.61,6.23 -0.28,6.56 4.99,8.03 1.65,0.46 3.37,1.03 4.83,1.68l11.65 4.49c2.66,0.88 2.18,0.94 1.24,-6.08 -1.05,-7.87 -2.56,-14.99 -3.47,-22.57l-4.76 -34.3c-0.58,-4.02 -1.22,-7.49 -1.76,-11.26 -1.11,-7.83 -1.94,-15.43 -3.24,-23.14 -0.6,-3.56 -1.19,-7.39 -1.65,-11.38 -0.22,-1.9 -0.47,-3.71 -0.72,-5.79 -0.55,-4.62 -2.07,-11.55 -2.65,-16.88 -1.18,-10.71 -3.72,-24 -4.85,-34.21 -0.44,-3.99 -1.73,-12.74 -2.85,-16.68 -2.53,-8.91 -8.77,-0.27 -11.47,3.34 -4.1,5.47 -10.42,13.23 -13.07,19.14 -1.39,3.11 -2.74,8.88 -2.74,13.36z"/>
  </g>
 </g>
</svg>
