<?xml version="1.0" encoding="UTF-8"?>
<!DOCTYPE svg PUBLIC "-//W3C//DTD SVG 1.1//EN" "http://www.w3.org/Graphics/SVG/1.1/DTD/svg11.dtd">
<!-- Creator: CorelDRAW -->
<svg xmlns="http://www.w3.org/2000/svg" xml:space="preserve" width="2.39816in" height="2.503in" version="1.1" style="shape-rendering:geometricPrecision; text-rendering:geometricPrecision; image-rendering:optimizeQuality; fill-rule:evenodd; clip-rule:evenodd"
viewBox="0 0 337.13 351.87"
 xmlns:xlink="http://www.w3.org/1999/xlink"
 xmlns:xodm="http://www.corel.com/coreldraw/odm/2003">
 <defs>
  <style type="text/css">
   <![CDATA[
    .fil2 {fill:#167844}
    .fil3 {fill:#445964}
    .fil1 {fill:#64B088}
    .fil0 {fill:#90D5B0}
   ]]>
  </style>
 </defs>
 <g id="Layer_x0020_1">
  <metadata id="CorelCorpID_0Corel-Layer"/>
  <g id="_105553427813216">
   <path class="fil0" d="M18.66 240.09c5.77,6.69 46.69,46.8 54.12,54.23l33.66 33.68c5.04,5.06 11.13,9.38 19.05,7.7 4.22,-0.9 6.44,-2.55 9.34,-4.44 1.07,-3.42 13.39,-14.37 16.67,-17.66l69.41 -69.41c5.71,-5.71 49.97,-50.64 52.71,-52.06 0.11,-0.09 0.27,-0.38 0.31,-0.28l5.7 -5.76c6.41,-6.41 15.03,-13.46 17.64,-20.84 2.81,-7.94 -0.98,-37.45 -0.98,-48.09l-0.76 -10.62c0.17,-4.17 -0.17,-5.95 -0.51,-9.03 -0.35,-3.08 0.14,-6.23 -0.29,-9.33 -0.61,-4.48 -0.26,-13.46 -1.54,-17.37 -2.07,0.94 -3.96,-0.75 -6.96,-1.65 -8.01,-2.43 -52.41,-3.86 -59.78,-3.78 0.49,4.75 1.66,9.19 2.98,13 3.81,-1.57 8.94,-2.01 13.45,-0.88 4.34,1.09 7.28,3.09 9.97,5.84 5.83,5.96 7.91,13.12 4.86,23.22 -1.28,3.99 -3.13,7.23 -6.77,9.05 -6.69,4.99 -14.79,6.66 -23.38,2.65 -6.95,-3.25 -11.48,-10.19 -12.05,-18.81 -0.44,-6.81 2.37,-10.55 4.93,-14.88 -3.4,-11.54 -4.81,-14.28 -4.55,-28.17 -1.55,2.58 -1,5.15 -0.51,8.38 -21.1,-0.91 -24.26,-3.57 -36.61,8.79l-70.1 70.1c-15.75,15.75 -30.99,30.99 -46.73,46.73l-35.06 35.03c-9.63,9.69 -4.96,8.2 -8.23,14.69z"/>
   <path class="fil1" d="M18.66 240.09c3.27,-6.49 -1.4,-4.99 8.23,-14.69l35.06 -35.03c15.75,-15.75 30.99,-30.99 46.73,-46.73l70.1 -70.1c12.34,-12.36 15.51,-9.7 36.61,-8.79 -0.49,-3.23 -1.04,-5.8 0.51,-8.38 0.29,-7.17 2.09,-11.03 3.52,-17.19 -12.87,0 -40.81,-4.46 -50.73,0.21 -7.04,3.31 -22.51,20.38 -28.9,26.77l-124.39 124.39c-9.57,9.57 -16.32,13.12 -15.29,25.93 0.66,8.14 12.77,18.45 18.55,23.61z"/>
   <path class="fil2" d="M134.82 331.25l31.98 17.47c2.77,1.67 3.84,2.49 7.32,3 0.43,0.06 0.84,0.11 1.26,0.15l4.04 0c12.79,-1.35 16.8,-15.89 24.76,-29.58l27.81 -51.91c1.43,-2.39 2.09,-3.69 3.37,-6.25 7.7,-15.46 20.37,-36.36 27.96,-51.76 1.25,-2.54 2.25,-4.15 3.65,-6.66l6.65 -13.59c-2.74,1.42 -47,46.35 -52.71,52.06l-69.41 69.41c-3.29,3.29 -15.6,14.24 -16.67,17.66z"/>
   <path class="fil3" d="M219.41 39.17c-1.42,6.16 -3.23,10.02 -3.52,17.19 -0.27,13.89 1.15,16.62 4.55,28.17 5.06,12.12 18.44,27.25 30.5,31.04 3.65,-1.82 5.5,-5.06 6.77,-9.05 -9.74,-2.44 -21.13,-14.07 -25.8,-22.89 -1.02,-1.93 -1.39,-3.61 -2.48,-5.28 -1.32,-3.81 -2.49,-8.25 -2.98,-13 -0.77,-7.33 0.32,-20.17 4.55,-25.29 16.12,-35.58 60.5,-36.32 80.95,-14.48 5.03,5.38 9.2,12.22 11.59,19.33 5.57,16.57 1.47,35.29 -9.58,48.35 -5.15,6.08 -11.12,9.62 -18.43,13.26l0.76 10.62c7.08,1.05 22.61,-12.3 28.38,-20.04 30.2,-40.48 1.4,-93.31 -42.96,-97.11l-10.28 0c-3.43,0.29 -6.93,0.87 -10.48,1.77 -19.83,5.05 -34.02,19.15 -41.56,37.4z"/>
   <path class="fil1" d="M226.46 65.35c7.37,-0.08 51.77,1.36 59.78,3.78 2.99,0.91 4.89,2.59 6.96,1.65 -2.67,-12.43 -10.4,-21.29 -20.25,-26.13 -4.95,-2.44 -11.75,-4.17 -19.24,-4.12 -7.83,0.05 -14.52,-1.37 -22.69,-0.48 -4.23,5.13 -5.32,17.97 -4.55,25.29z"/>
  </g>
 </g>
</svg>
