<svg width="16" height="16" viewBox="0 0 16 16" fill="none" xmlns="http://www.w3.org/2000/svg">
<path d="M10.5752 4.74606C10.1475 2.02722 9.07829 0.102649 7.88689 0.102649C6.66494 0.102649 5.62628 2.02722 5.16805 4.74606H10.5752ZM4.95421 7.67874C4.95421 8.38136 4.98475 9.02288 5.04585 9.63386H10.6974C10.7585 9.02288 10.789 8.38136 10.789 7.67874C10.789 7.00667 10.7585 6.36514 10.6974 5.72362H5.04585C4.98475 6.36514 4.95421 7.00667 4.95421 7.67874ZM14.852 4.74606C13.9966 2.69929 12.2248 1.08021 10.0253 0.438685C10.789 1.47734 11.2778 3.03533 11.5527 4.74606H14.852ZM5.71792 0.438685C3.51841 1.08021 1.74659 2.69929 0.891222 4.74606H4.19049C4.46543 3.03533 4.95421 1.47734 5.71792 0.438685ZM15.188 5.72362H11.6749C11.736 6.36514 11.7971 7.03721 11.7971 7.67874C11.7971 8.35081 11.736 8.99233 11.6749 9.63386H15.188C15.3408 9.02288 15.4324 8.38136 15.4324 7.67874C15.4324 7.00667 15.3408 6.36514 15.188 5.72362ZM3.97665 7.67874C3.97665 7.03721 4.00719 6.36514 4.06829 5.72362H0.555186C0.402443 6.36514 0.310796 7.00667 0.310796 7.67874C0.310796 8.38136 0.402443 9.02288 0.555186 9.63386H4.06829C4.00719 8.99233 3.97665 8.35081 3.97665 7.67874ZM5.16805 10.6114C5.62628 13.3608 6.66494 15.2548 7.88689 15.2548C9.07829 15.2548 10.1475 13.3608 10.5752 10.6114H5.16805ZM10.0253 14.9493C12.2248 14.3078 13.9966 12.6887 14.852 10.6114H11.5527C11.3083 12.3527 10.789 13.9107 10.0253 14.9493ZM0.891222 10.6114C1.74659 12.6887 3.51841 14.3078 5.71792 14.9493C4.95421 13.9107 4.46543 12.3527 4.19049 10.6114H0.891222Z" fill="#FC8042"/>
</svg>
