<svg width="15" height="14" viewBox="0 0 15 14" fill="none" xmlns="http://www.w3.org/2000/svg">
<path d="M14.6508 0.461225C14.4108 0.257705 14.0338 0.228585 13.6441 0.385065H13.6434C13.2335 0.549545 2.0399 5.35082 1.58422 5.54698C1.50134 5.57578 0.777499 5.84586 0.852059 6.44746C0.918619 6.98986 1.50038 7.2145 1.57142 7.24042L4.41718 8.21482C4.60598 8.8433 5.30198 11.162 5.4559 11.6574C5.5519 11.9662 5.70838 12.3719 5.98262 12.4555C6.22326 12.5483 6.46262 12.4635 6.6175 12.3419L8.35734 10.7281L11.166 12.9185L11.2329 12.9585C11.4236 13.043 11.6063 13.0852 11.7807 13.0852C11.9154 13.0852 12.0447 13.0599 12.1682 13.0094C12.589 12.8366 12.7573 12.4356 12.7749 12.3902L14.8729 1.48555C15.0009 0.903145 14.8229 0.606825 14.6508 0.461225ZM6.92694 8.60458L5.96694 11.1646L5.00694 7.96458L12.3669 2.52458L6.92694 8.60458Z" fill="#5631FB"/>
</svg>
