<svg width="15" height="12" viewBox="0 0 15 12" fill="none" xmlns="http://www.w3.org/2000/svg">
<path d="M12.72 2.13818C12.72 2.13818 11.1917 0.942181 9.38668 0.804848L9.22401 1.13018C10.856 1.52951 11.6047 2.10185 12.3867 2.80485C11.0383 2.11651 9.70701 1.47151 7.38668 1.47151C5.06634 1.47151 3.73501 2.11651 2.38668 2.80485C3.16868 2.10185 4.05934 1.46651 5.54934 1.13018L5.38668 0.804848C3.49301 0.983848 2.05334 2.13818 2.05334 2.13818C2.05334 2.13818 0.346345 4.61318 0.0533447 9.47151C1.77401 11.4558 4.38668 11.4715 4.38668 11.4715L4.93301 10.7432C4.00568 10.4208 2.95834 9.84518 2.05334 8.80485C3.13268 9.62151 4.76168 10.4715 7.38668 10.4715C10.0117 10.4715 11.6407 9.62151 12.72 8.80485C11.815 9.84518 10.7677 10.4208 9.84034 10.7432L10.3867 11.4715C10.3867 11.4715 12.9993 11.4558 14.72 9.47151C14.427 4.61318 12.72 2.13818 12.72 2.13818ZM5.22001 8.13818C4.57568 8.13818 4.05334 7.54118 4.05334 6.80485C4.05334 6.06851 4.57568 5.47151 5.22001 5.47151C5.86434 5.47151 6.38668 6.06851 6.38668 6.80485C6.38668 7.54118 5.86434 8.13818 5.22001 8.13818ZM9.55334 8.13818C8.90901 8.13818 8.38668 7.54118 8.38668 6.80485C8.38668 6.06851 8.90901 5.47151 9.55334 5.47151C10.1977 5.47151 10.72 6.06851 10.72 6.80485C10.72 7.54118 10.1977 8.13818 9.55334 8.13818Z" fill="#8C9EFF"/>
</svg>
