<?xml version="1.0" encoding="UTF-8"?>
<!DOCTYPE svg PUBLIC "-//W3C//DTD SVG 1.1//EN" "http://www.w3.org/Graphics/SVG/1.1/DTD/svg11.dtd">
<!-- Creator: CorelDRAW -->
<svg xmlns="http://www.w3.org/2000/svg" xml:space="preserve" width="2.67612in" height="2.67613in" version="1.1" style="shape-rendering:geometricPrecision; text-rendering:geometricPrecision; image-rendering:optimizeQuality; fill-rule:evenodd; clip-rule:evenodd"
viewBox="0 0 30.01 30.01"
 xmlns:xlink="http://www.w3.org/1999/xlink"
 xmlns:xodm="http://www.corel.com/coreldraw/odm/2003">
 <defs>
  <style type="text/css">
   <![CDATA[
    .fil0 {fill:none}
    .fil3 {fill:#56525D;fill-rule:nonzero}
    .fil2 {fill:white;fill-rule:nonzero;fill-opacity:0.870588}
    .fil1 {fill:url(#id0);fill-rule:nonzero}
   ]]>
  </style>
  <linearGradient id="id0" gradientUnits="userSpaceOnUse" x1="-19.89" y1="8.11" x2="25.16" y2="26.38">
   <stop offset="0" style="stop-opacity:1; stop-color:#203026"/>
   <stop offset="0.509804" style="stop-opacity:1; stop-color:#395745"/>
   <stop offset="0.690196" style="stop-opacity:1; stop-color:#5D946E"/>
   <stop offset="1" style="stop-opacity:1; stop-color:#4FE394"/>
  </linearGradient>
 </defs>
 <g id="Layer_x0020_1">
  <metadata id="CorelCorpID_0Corel-Layer"/>
  <g id="_105553261261152">
   <rect class="fil0" x="-0" y="-0" width="30.01" height="30.01"/>
   <g>
    <path class="fil1" d="M26.05 18.38l0 5.02c0,0.19 0,0.36 0,0.53 -0.52,2.9 -5.24,5.16 -11.01,5.16 -5.77,0 -10.48,-2.25 -10.99,-5.16 -0.01,-0.18 -0.01,-0.35 0,-0.53l0 -5.16c0,-0.94 0.55,-1.72 1.22,-1.72 0.17,-0 0.33,0.05 0.47,0.14 2.88,1.68 6.16,2.55 9.49,2.5 3.2,0.02 6.34,-0.79 9.13,-2.35 0.14,-0.09 0.31,-0.14 0.47,-0.14 0.66,0 1.22,0.78 1.22,1.72z"/>
    <path class="fil2" d="M16.99 21.92l-4 0c-0.48,0 -0.88,0.39 -0.88,0.88 0,0.48 0.39,0.88 0.88,0.88l4 0c0.48,0 0.88,-0.39 0.88,-0.88 0,-0.48 -0.39,-0.88 -0.88,-0.88z"/>
    <path class="fil2" d="M15.01 0.93c-6.29,0 -11.05,2.25 -11.05,5.3 0.05,0.91 0.45,1.76 1.12,2.37 0.46,0.44 0.98,0.82 1.54,1.12 2.6,1.28 5.48,1.9 8.38,1.8 2.92,0.1 5.82,-0.52 8.44,-1.81 0.56,-0.3 1.08,-0.68 1.54,-1.12 0.67,-0.61 1.08,-1.47 1.12,-2.37 -0.07,-3.01 -4.83,-5.29 -11.1,-5.29zm6.47 7.67c-2.07,0.77 -4.26,1.15 -6.47,1.12 -2.2,0.02 -4.39,-0.36 -6.46,-1.12 -0.71,-0.26 -1.38,-0.64 -1.97,-1.12 -0.2,-0.15 -0.37,-0.33 -0.49,-0.55 -0.12,-0.21 -0.2,-0.45 -0.23,-0.7 0,-1.63 3.91,-3.45 9.14,-3.45 5.23,0 9.16,1.82 9.16,3.45 -0.03,0.25 -0.1,0.48 -0.23,0.7 -0.12,0.22 -0.29,0.4 -0.49,0.55 -0.6,0.48 -1.27,0.86 -1.99,1.12l0.02 0z"/>
    <path class="fil3" d="M24.97 8.6c-0.46,0.44 -0.98,0.82 -1.54,1.12 0.2,0.15 0.37,0.33 0.49,0.55 0.12,0.21 0.2,0.45 0.23,0.7 0,1.63 -3.91,3.45 -9.16,3.45 -5.24,0 -9.14,-1.83 -9.14,-3.46 0.03,-0.25 0.1,-0.48 0.23,-0.7 0.12,-0.21 0.29,-0.4 0.49,-0.55 -0.56,-0.3 -1.08,-0.68 -1.54,-1.12 -0.34,0.3 -0.61,0.66 -0.8,1.07 -0.19,0.41 -0.3,0.85 -0.32,1.29 0,3.01 4.76,5.3 11.04,5.3 6.29,0 11.06,-2.25 11.06,-5.3 -0.02,-0.89 -0.39,-1.73 -1.03,-2.35l0 0z"/>
   </g>
  </g>
 </g>
</svg>
