<?xml version="1.0" encoding="UTF-8"?>
<!DOCTYPE svg PUBLIC "-//W3C//DTD SVG 1.1//EN" "http://www.w3.org/Graphics/SVG/1.1/DTD/svg11.dtd">
<!-- Creator: CorelDRAW 2019 (64-Bit) -->
<svg xmlns="http://www.w3.org/2000/svg" xml:space="preserve" width="11.9754in" height="17.4996in" version="1.1" style="shape-rendering:geometricPrecision; text-rendering:geometricPrecision; image-rendering:optimizeQuality; fill-rule:evenodd; clip-rule:evenodd"
viewBox="0 0 11975.35 17499.6"
 xmlns:xlink="http://www.w3.org/1999/xlink"
 xmlns:xodm="http://www.corel.com/coreldraw/odm/2003">
 <defs>
  <style type="text/css">
   <![CDATA[
    .fil0 {fill:#33DC76;fill-opacity:0.070588}
   ]]>
  </style>
 </defs>
 <g id="Layer_x0020_1">
  <metadata id="CorelCorpID_0Corel-Layer"/>
  <g id="_2579872620624">
   <path class="fil0" d="M-0 8681.28c101.11,215.38 196.11,432.47 283.24,651.46 1049.86,2638.57 864.77,5031.01 -283.24,6781.96l0 -7433.43z"/>
   <path class="fil0" d="M-0 5374.6c1064.57,1209.04 1922.33,2548.43 2483.24,3958.14 1363,3425.55 645.24,6436.65 -1560.26,8166.87l-922.98 0 0 -12125z"/>
   <path class="fil0" d="M-0 3289c2086.15,1659.02 3774.22,3759.14 4683.24,6043.74 1363.13,3425.88 644.81,6436.89 -1561.3,8166.87l-3121.94 0 0 -14210.61z"/>
   <path class="fil0" d="M-0 1789.54c3077.19,1781.59 5671.84,4498.64 6883.24,7543.2 1362.95,3425.43 645.43,6436.58 -1559.85,8166.87l-5323.4 0 0 -15710.06z"/>
   <path class="fil0" d="M-0 711.71c4004.03,1620.67 7591.83,4872.74 9083.24,8621.03 1362.95,3425.43 645.43,6436.58 -1559.85,8166.87l-7523.4 0 0 -16787.89z"/>
   <path class="fil0" d="M-0 0c4839.98,1173.75 9522.5,4907.55 11283.24,9332.74 1362.95,3425.43 645.43,6436.58 -1559.85,8166.87l-9723.4 0 0 -17499.6z"/>
  </g>
 </g>
</svg>
