<?xml version="1.0" encoding="UTF-8"?>
<!DOCTYPE svg PUBLIC "-//W3C//DTD SVG 1.1//EN" "http://www.w3.org/Graphics/SVG/1.1/DTD/svg11.dtd">
<!-- Creator: CorelDRAW -->
<svg xmlns="http://www.w3.org/2000/svg" xml:space="preserve" width="0.709764in" height="0.86487in" version="1.1" style="shape-rendering:geometricPrecision; text-rendering:geometricPrecision; image-rendering:optimizeQuality; fill-rule:evenodd; clip-rule:evenodd"
viewBox="0 0 4.48 5.46"
 xmlns:xlink="http://www.w3.org/1999/xlink"
 xmlns:xodm="http://www.corel.com/coreldraw/odm/2003">
 <defs>
  <style type="text/css">
   <![CDATA[
    .fil0 {fill:#72bf91}
    .fil1 {fill:url(#id0)}
   ]]>
  </style>
  <linearGradient id="id0" gradientUnits="userSpaceOnUse" x1="0.13" y1="1.27" x2="4.02" y2="4.1">
   <stop offset="0" style="stop-opacity:1; stop-color:#239e54"/>
   <stop offset="1" style="stop-opacity:1; stop-color:#0a2f18"/>
  </linearGradient>
 </defs>
 <g id="Layer_x0020_1">
  <metadata id="CorelCorpID_0Corel-Layer"/>
  <g id="_105553326629856">
   <path class="fil0" d="M0.66 2.51c0,0.21 -0.01,0.54 0.03,0.73 0.02,0.11 0.1,0.28 0.16,0.37 0.11,0.18 0.23,0.31 0.39,0.46 0.26,0.23 0.53,0.39 0.84,0.53 0.08,0.04 0.12,0.06 0.15,0.06l0.03 0c0.03,-0.01 0.07,-0.03 0.15,-0.06 0.11,-0.05 0.13,-0.06 0.22,-0.11 0.37,-0.18 0.77,-0.5 1,-0.85 0.23,-0.36 0.21,-0.72 0.21,-1.17 0,-0.27 -0.02,-0.53 -0.02,-0.79 0,-0.08 -0.01,-0.12 -0.01,-0.2 0,-0.25 -0.03,-0.2 -0.36,-0.25 -0.22,-0.03 -0.46,-0.1 -0.65,-0.17 -0.14,-0.05 -0.29,-0.12 -0.42,-0.2 -0.07,-0.04 -0.11,-0.06 -0.14,-0.07l-0.03 0c-0.03,0.01 -0.07,0.03 -0.13,0.07 -0.05,0.03 -0.09,0.05 -0.13,0.07 -0.31,0.16 -0.76,0.25 -1.13,0.3 -0.19,0.03 -0.15,0.15 -0.15,0.46l-0.02 0.8z"/>
   <path class="fil1" d="M2.23 0.37l0.05 0.03c0.54,0.28 0.91,0.43 1.55,0.54 0.07,0.01 0.2,0.04 0.28,0.04 0,0.07 0,0.15 -0,0.22 -0,0.09 0.01,0.13 0.01,0.21 -0,0.07 -0,0.15 -0,0.22 -0,0.09 0.01,0.14 0.01,0.22 -0,0.13 -0.01,0.32 0,0.45 0.01,0.13 -0,0.76 -0.02,0.87 -0.02,0.16 -0.04,0.24 -0.09,0.37l-0.25 0.43c-0.13,0.17 -0.29,0.32 -0.45,0.46 -0.17,0.14 -0.35,0.25 -0.54,0.37 -0.1,0.06 -0.41,0.23 -0.52,0.27 -0.05,0.02 -0.04,0.02 -0.08,-0 -0.18,-0.09 -0.26,-0.12 -0.46,-0.24 -0.45,-0.26 -0.94,-0.63 -1.19,-1.08 -0.12,-0.22 -0.19,-0.38 -0.19,-0.72 0,-0.16 -0.01,-0.29 -0.01,-0.45 0,-0.16 0.01,-0.29 0.01,-0.45 -0,-0.31 0.01,-0.59 0.01,-0.9 -0,-0.08 0.01,-0.12 0.01,-0.21 -0,-0.12 0.02,-0.08 0.14,-0.1 0.52,-0.09 1.27,-0.26 1.72,-0.56zm-0.03 -0.37l0.04 0c0.04,0.01 0.1,0.04 0.2,0.09 0.18,0.1 0.39,0.2 0.59,0.28 0.26,0.1 0.6,0.2 0.91,0.24 0.47,0.06 0.51,-0 0.51,0.35 -0,0.1 0.01,0.17 0.01,0.28 -0,0.38 0.02,0.74 0.02,1.12 0,0.64 0.03,1.15 -0.3,1.66 -0.32,0.49 -0.89,0.94 -1.41,1.2 -0.13,0.06 -0.15,0.09 -0.31,0.15 -0.12,0.05 -0.16,0.08 -0.21,0.09l-0.04 0c-0.04,-0.01 -0.1,-0.03 -0.21,-0.09 -0.44,-0.21 -0.82,-0.43 -1.19,-0.76 -0.22,-0.2 -0.4,-0.39 -0.55,-0.65 -0.08,-0.13 -0.19,-0.37 -0.22,-0.52 -0.05,-0.27 -0.04,-0.74 -0.04,-1.04l0.02 -1.13c0,-0.44 -0.07,-0.62 0.21,-0.66 0.51,-0.07 1.15,-0.2 1.6,-0.42 0.07,-0.03 0.12,-0.06 0.19,-0.1 0.1,-0.06 0.14,-0.09 0.19,-0.1z"/>
  </g>
 </g>
</svg>
