<?xml version="1.0" encoding="UTF-8"?>
<!DOCTYPE svg PUBLIC "-//W3C//DTD SVG 1.1//EN" "http://www.w3.org/Graphics/SVG/1.1/DTD/svg11.dtd">
<!-- Creator: CorelDRAW -->
<svg xmlns="http://www.w3.org/2000/svg" xml:space="preserve" width="7.11111in" height="5.46638in" version="1.1" style="shape-rendering:geometricPrecision; text-rendering:geometricPrecision; image-rendering:optimizeQuality; fill-rule:evenodd; clip-rule:evenodd"
viewBox="0 0 160.49 123.37"
 xmlns:xlink="http://www.w3.org/1999/xlink"
 xmlns:xodm="http://www.corel.com/coreldraw/odm/2003">
 <defs>
  <style type="text/css">
   <![CDATA[
    .fil0 {fill:#C3C0C9}
   ]]>
  </style>
 </defs>
 <g id="Layer_x0020_1">
  <metadata id="CorelCorpID_0Corel-Layer"/>
  <g id="_105553262033856">
   <path class="fil0" d="M85.26 62.01l19.75 0c0,2.88 -1.96,8.73 -2.78,11.01 -1.19,3.32 -2.74,6.62 -4.41,9.38 -4.8,7.96 -6.02,8.9 -12.32,15.27 -1.22,1.23 -2.42,2.03 -3.76,3.14 -8.81,7.29 -23.44,12.61 -35.66,12.61 1.55,2.12 11.21,5.98 14.07,6.94 18.02,6.01 40.03,2.93 54.94,-8.14 3.48,-2.58 5.18,-3.86 8.34,-7.02 9.76,-9.76 15.68,-21.79 17.62,-35.67l0.64 -7.51 18.81 0c-0.31,-1.17 -8.22,-9.2 -9.64,-10.73l-12.06 -13.33c-4.62,-4.67 -10.35,-11.63 -14.58,-15.82 -2.15,-2.13 -1.15,-2.29 -2.9,-2.43 -0.3,1.13 -7.28,8.67 -8.87,10.56l-25.06 28.85c-0.73,0.73 -1.84,1.88 -2.12,2.9z"/>
   <path class="fil0" d="M18.81 61.69l-18.81 0c1.24,1.86 10.23,10.96 11.91,13.17l17.15 18.59c0.97,1.16 1.29,1.58 2.37,2.65 1.67,1.66 5.77,6.8 7.44,7.92 0.45,-0.67 1.5,-1.94 2.12,-2.59l5.65 -6.58c0.46,-0.52 0.78,-0.73 1.24,-1.27 0.49,-0.58 0.44,-0.65 0.96,-1.23 0.5,-0.56 0.69,-0.66 1.19,-1.31l16.19 -18.6c0.52,-0.59 0.47,-0.65 0.96,-1.24 1.41,-1.66 7.74,-8.3 8.06,-9.5l-19.75 0c0,-2.96 1.8,-8.7 2.73,-11.06 1.6,-4.05 3.32,-7.93 5.67,-11.57 7.42,-11.46 15.42,-18.2 27.75,-23.97 5.26,-2.46 15.24,-5.12 22.78,-5.12l-3.24 -2.09c-18.41,-9.88 -39.29,-10.67 -58.1,-1.26 -3.54,1.77 -8.58,5.13 -11.74,7.69 -6.67,5.4 -13.36,14.11 -16.79,22.08 -1.59,3.7 -3.03,7.27 -3.98,11.38 -0.67,2.92 -1.41,6.99 -1.43,10.17 -0.01,1.76 -0.32,1.99 -0.32,3.75z"/>
  </g>
 </g>
</svg>
