<?xml version="1.0" encoding="UTF-8"?>
<!DOCTYPE svg PUBLIC "-//W3C//DTD SVG 1.1//EN" "http://www.w3.org/Graphics/SVG/1.1/DTD/svg11.dtd">
<!-- Creator: CorelDRAW -->
<svg xmlns="http://www.w3.org/2000/svg" xml:space="preserve" width="0.952819in" height="0.952819in" version="1.1" style="shape-rendering:geometricPrecision; text-rendering:geometricPrecision; image-rendering:optimizeQuality; fill-rule:evenodd; clip-rule:evenodd"
viewBox="0 0 4.43 4.43"
 xmlns:xlink="http://www.w3.org/1999/xlink"
 xmlns:xodm="http://www.corel.com/coreldraw/odm/2003">
 <defs>
  <style type="text/css">
   <![CDATA[
    .fil3 {fill:none}
    .fil0 {fill:#201D30}
    .fil2 {fill:url(#id0)}
    .fil1 {fill:url(#id1)}
   ]]>
  </style>
  <linearGradient id="id0" gradientUnits="userSpaceOnUse" x1="1.91" y1="2.56" x2="2.91" y2="0.36">
   <stop offset="0" style="stop-opacity:1; stop-color:#7A5FC0"/>
   <stop offset="1" style="stop-opacity:1; stop-color:#1D0A2D"/>
  </linearGradient>
  <linearGradient id="id1" gradientUnits="userSpaceOnUse" xlink:href="#id0" x1="1.45" y1="4.22" x2="2.45" y2="2.02">
  </linearGradient>
 </defs>
 <g id="Layer_x0020_1">
  <metadata id="CorelCorpID_0Corel-Layer"/>
  <g id="_105553456208192">
   <g>
    <circle class="fil0" cx="2.24" cy="2.19" r="0.97"/>
    <path class="fil1" d="M0.31 3.59c0.04,0 0.12,-0.03 0.14,-0.04 0.04,-0.03 0.07,-0.06 0.1,-0.1 0.03,-0.05 0.08,-0.25 0.08,-0.3 0.03,0.02 0.04,0.05 0.06,0.08 0.01,0.02 0.02,0.03 0.03,0.04 0.01,0.02 0.02,0.03 0.03,0.04 0.14,0.18 0.27,0.31 0.47,0.44 0.31,0.19 0.59,0.28 1.04,0.28 0.58,0 1.1,-0.31 1.43,-0.75 0.09,-0.12 0.24,-0.36 0.24,-0.54 0,-0.06 -0.05,-0.14 -0.08,-0.17 -0.11,-0.1 -0.28,-0.09 -0.38,0 -0.04,0.04 -0.07,0.12 -0.1,0.18 -0.05,0.12 -0.17,0.28 -0.26,0.36 -0.01,0.01 -0.02,0.02 -0.04,0.03 -0.03,0.03 -0.04,0.04 -0.07,0.06 -0.47,0.39 -1.21,0.35 -1.65,-0.06 -0.02,-0.02 -0.02,-0.02 -0.04,-0.03 -0.04,-0.03 -0.15,-0.18 -0.18,-0.23 -0.03,-0.05 -0.08,-0.13 -0.09,-0.19 0.12,0.03 0.46,0.14 0.55,0.14 0.29,0 0.38,-0.43 0.07,-0.54l-0.36 -0.1c-0.12,-0.03 -0.23,-0.06 -0.35,-0.09 -0.2,-0.05 -0.42,-0.16 -0.55,-0.03 -0.12,0.11 -0.13,0.28 -0.18,0.49 -0.01,0.05 -0.18,0.65 -0.18,0.71 0,0.12 0.05,0.23 0.16,0.27 0.02,0.01 0.08,0.03 0.11,0.03z"/>
    <path class="fil2" d="M3.39 1.71c-0.04,-0.01 -0.08,-0.02 -0.13,-0.03 -0.08,-0.02 -0.35,-0.1 -0.42,-0.1 -0.3,0 -0.39,0.44 -0.08,0.54l0.36 0.1c0.12,0.03 0.23,0.06 0.35,0.09 0.06,0.01 0.12,0.03 0.17,0.05 0.03,0.01 0.06,0.01 0.09,0.02 0.17,0.05 0.32,0 0.38,-0.17l0.19 -0.7c0.05,-0.2 0.17,-0.45 0.01,-0.58 -0.15,-0.13 -0.35,-0.08 -0.43,0.07 -0.02,0.04 -0.03,0.09 -0.05,0.14 -0.01,0.05 -0.04,0.11 -0.04,0.16 -0.02,-0.02 -0.08,-0.12 -0.13,-0.17 -0.02,-0.03 -0.04,-0.06 -0.07,-0.09 -0.13,-0.14 -0.24,-0.25 -0.41,-0.35 -0.68,-0.41 -1.48,-0.38 -2.11,0.1 -0.14,0.11 -0.25,0.22 -0.36,0.37 -0.08,0.1 -0.24,0.36 -0.24,0.52 0,0.25 0.36,0.37 0.51,0.12 0.02,-0.03 0.03,-0.07 0.05,-0.11 0.18,-0.38 0.55,-0.66 0.97,-0.72 0.05,-0.01 0.09,-0 0.14,-0.01 0.07,-0.01 0.07,0 0.14,0 0.17,0 0.37,0.07 0.49,0.13 0.08,0.04 0.21,0.13 0.27,0.19l0.04 0.04c0,0 0,0 0,0 0.09,0.08 0.25,0.3 0.27,0.41z"/>
   </g>
   <rect class="fil3" width="4.43" height="4.43"/>
  </g>
 </g>
</svg>
