<?xml version="1.0" encoding="UTF-8"?>
<!DOCTYPE svg PUBLIC "-//W3C//DTD SVG 1.1//EN" "http://www.w3.org/Graphics/SVG/1.1/DTD/svg11.dtd">
<!-- Creator: CorelDRAW 2019 (64-Bit) -->
<svg xmlns="http://www.w3.org/2000/svg" xml:space="preserve" width="2.11116in" height="2.11116in" version="1.1" style="shape-rendering:geometricPrecision; text-rendering:geometricPrecision; image-rendering:optimizeQuality; fill-rule:evenodd; clip-rule:evenodd"
viewBox="0 0 2111.16 2111.16"
 xmlns:xlink="http://www.w3.org/1999/xlink"
 xmlns:xodm="http://www.corel.com/coreldraw/odm/2003">
 <defs>
  <style type="text/css">
   <![CDATA[
    .fil2 {fill:#B0D8C9}
    .fil0 {fill:#EFEFEA}
    .fil1 {fill:url(#id0)}
   ]]>
  </style>
  <linearGradient id="id0" gradientUnits="userSpaceOnUse" x1="1015.58" y1="678.69" x2="1065.16" y2="2420.2">
   <stop offset="0" style="stop-opacity:1; stop-color:#1BA179"/>
   <stop offset="1" style="stop-opacity:1; stop-color:#00E39F"/>
  </linearGradient>
 </defs>
 <g id="Layer_x0020_1">
  <metadata id="CorelCorpID_0Corel-Layer"/>
  <g id="_2579856399072">
   <path class="fil0" d="M842.72 901.17c-107.15,-11.49 -785.53,64.67 -781.26,228.55 3.41,130.63 425.2,193.74 551.15,207.81l230.86 20.86 0.58 732.56 152.02 20.21 132.89 0 120.38 -18.19 0.74 -735.43c158.54,-7.85 310.35,-23.54 461.97,-53.85 429.75,-85.91 471.97,-252.97 -3.99,-352.6 -144.19,-30.19 -306.23,-45.93 -458.96,-52.78l-0.76 -235.26 554.55 0 -0.33 -354.91 0.02 -10.9 -15.27 -0.59 -1463.33 0.03 -27.85 0.65c-8.63,38.31 -4.22,303.31 -4.22,363.81 63.49,0 532.04,-3.98 553.87,2.7 7.52,25.18 3.15,164.07 3.4,210.33 0.13,23.78 -0.33,22.01 -6.47,26.98zm406.82 39.44l-0.63 269.73c-145.17,20.63 -260.02,15.29 -403.07,0.45 -12.46,-53 2.02,-201.13 -3.01,-268.19 -80.3,-7.15 -344.93,28.66 -432.93,44.59 -89.38,16.19 -377.72,84.18 -205.54,173.39 288.87,149.67 1443.38,148.81 1710.72,-4.2 158.72,-90.85 -141.99,-156 -224,-171 -142.49,-26.05 -292.94,-38.99 -441.54,-44.78z"/>
   <path class="fil1" d="M1249.35 2092.97c205.22,-34.57 463.91,-172.89 592.43,-333.71 9.32,-11.66 17.49,-18.63 26.89,-30.83 9.65,-12.54 15.98,-19.54 25.55,-32.17 89,-117.3 150.46,-243.82 186.76,-390.39 14.55,-58.76 29.97,-198.45 30.18,-199.1l0 -134.78 -6.22 -29.69c-24.41,-236.24 -135.69,-469.28 -302.37,-634.15l0.33 354.91 -554.55 0 0.76 235.26c152.72,6.85 314.76,22.59 458.96,52.78 475.96,99.63 433.74,266.69 3.99,352.6 -151.62,30.31 -303.43,46 -461.97,53.85l-0.74 735.43zm0.19 -1152.36l-0.63 269.73c-145.17,20.63 -260.02,15.29 -403.07,0.45 -12.46,-53 2.02,-201.13 -3.01,-268.19 -80.3,-7.15 -344.93,28.66 -432.93,44.59 -89.38,16.19 -377.72,84.18 -205.54,173.39 288.87,149.67 1443.38,148.81 1710.72,-4.2 158.72,-90.85 -141.99,-156 -224,-171 -142.49,-26.05 -292.94,-38.99 -441.54,-44.78zm-1249.54 59.89l0 106.38c4.78,15.09 7.37,76.55 10.62,98.59 13.35,90.64 39.61,189.4 76.44,270.2 119.5,262.25 305.26,446.98 580.52,561.72 57.26,23.86 116.02,36.26 176.49,53.57l-0.58 -732.56 -230.86 -20.86c-125.95,-14.08 -547.75,-77.18 -551.15,-207.81 -4.27,-163.88 674.11,-240.04 781.26,-228.55l0 -236.7 -554.35 -1.15 -0.32 -330.68c-53.28,38.14 -165.2,219.01 -193.47,285.56 -39.89,93.89 -66.77,172.76 -82.49,276.67 -3.56,23.55 -7.29,90.76 -12.09,105.63zm323.99 -703.8l1463.33 -0.03c-29.16,-48.38 -218.4,-166.98 -277.08,-194.49 -85.19,-39.93 -173.28,-69.1 -268.88,-85.94 -31.98,-5.63 -79.38,-4.5 -105.55,-16.23l-160.45 0c-11.22,5.03 -137.77,20.46 -199.76,37.41 -137.26,37.54 -282.18,111.2 -388.2,201.48 -19.87,16.92 -51.69,38.62 -63.41,57.81z"/>
   <path class="fil2" d="M288.05 332.64l0.32 330.68 554.35 1.15 0 236.7c6.15,-4.97 6.6,-3.2 6.47,-26.98 -0.25,-46.27 4.11,-185.15 -3.4,-210.33 -21.83,-6.68 -490.38,-2.7 -553.87,-2.7 0,-60.5 -4.41,-325.5 4.22,-363.82 -10.87,7.91 -4.39,-10.89 -7.58,15.81 -0.45,3.76 0,13.71 -0.51,19.48z"/>
  </g>
 </g>
</svg>
