<?xml version="1.0" encoding="UTF-8"?>
<!DOCTYPE svg PUBLIC "-//W3C//DTD SVG 1.1//EN" "http://www.w3.org/Graphics/SVG/1.1/DTD/svg11.dtd">
<!-- Creator: CorelDRAW -->
<svg xmlns="http://www.w3.org/2000/svg" xml:space="preserve" width="26.6706in" height="5.76157in" version="1.1" style="shape-rendering:geometricPrecision; text-rendering:geometricPrecision; image-rendering:optimizeQuality; fill-rule:evenodd; clip-rule:evenodd"
viewBox="0 0 2914.26 629.56"
 xmlns:xlink="http://www.w3.org/1999/xlink"
 xmlns:xodm="http://www.corel.com/coreldraw/odm/2003">
 <defs>
  <style type="text/css">
   <![CDATA[
    .str0 {stroke:#229E54;stroke-width:0.28;stroke-linecap:round;stroke-linejoin:round;stroke-miterlimit:2.61313;stroke-opacity:0.301961}
    .fil0 {fill:none}
   ]]>
  </style>
 </defs>
 <g id="Layer_x0020_1">
  <metadata id="CorelCorpID_0Corel-Layer"/>
  <g id="_105553224640160">
   <path class="fil0 str0" d="M2914.12 627.19c-81.83,-28.6 -207.27,-347.39 -729.22,-478.54 -565.67,-142.14 -1239.51,553.95 -2184.77,474.58"/>
   <path class="fil0 str0" d="M2914.12 613.04c-86.26,-17.86 -217.04,-318.51 -746.42,-455.11 -570.52,-147.21 -1227.11,535.57 -2167.56,449.37"/>
   <path class="fil0 str0" d="M2914.12 597.08c-90.41,-4.81 -225.32,-288.63 -764.36,-431.34 -575.2,-152.28 -1214.4,517.3 -2149.62,424.07"/>
   <path class="fil0 str0" d="M2914.12 582.2c-94.84,4.77 -235.66,-258.97 -781.63,-407.05 -580.07,-157.34 -1201.86,498.63 -2132.36,398.52"/>
   <path class="fil0 str0" d="M2914.12 566.62c-99.05,17.59 -244.38,-227.76 -800.23,-382.13 -584.54,-162.33 -1188.88,479.79 -2113.75,372.93"/>
   <path class="fil0 str0" d="M2914.12 551.06c-103.5,26.2 -255.28,-197.39 -817.54,-357.02 -589.46,-167.35 -1176.18,460.77 -2096.44,347.01"/>
   <path class="fil0 str0" d="M2914.12 534.04c-107.73,37.19 -264.79,-166.01 -835.57,-331.89 -593.71,-172.55 -1163.46,443.04 -2078.41,322.4"/>
   <path class="fil0 str0" d="M2914.12 518.22c-112.21,45.06 -276.2,-135.18 -853.56,-306.41 -598.68,-177.55 -1150.53,422.82 -2060.43,296.18"/>
   <path class="fil0 str0" d="M2914.12 502.24c-116.56,52.52 -287.18,-104.47 -870.94,-280.69 -604.07,-182.35 -1137.63,403.25 -2043.05,269.68"/>
   <path class="fil0 str0" d="M2914.12 484.51c-120.73,61.99 -297.3,-72.27 -888.95,-254.59 -608.33,-187.46 -1124.86,384.88 -2025.03,244.41"/>
   <path class="fil0 str0" d="M2914.12 468.2c-125.22,69.17 -308.85,-41.53 -906.05,-229.63 -613.1,-193.1 -1112.71,367.54 -2007.93,220.19"/>
   <path class="fil0 str0" d="M2914.12 450.72c-129.23,77.75 -319.12,-8.56 -924.82,-202.29 -617.85,-197.62 -1098.81,347.26 -1989.16,193.13"/>
   <path class="fil0 str0" d="M2914.12 433.95c-133.59,83.89 -330.93,22.14 -941.64,-176.7 -622.66,-202.73 -1086.06,328.09 -1972.34,166.92"/>
   <path class="fil0 str0" d="M2914.12 415.96c-137.98,91.91 -341.61,55.28 -960.13,-149.91 -627.11,-208.04 -1072.89,309.95 -1953.85,142.08"/>
   <path class="fil0 str0" d="M2914.12 399.42c-142.25,98.17 -353.78,86.32 -977.93,-124.36 -632,-213.33 -1060.58,290.87 -1936.05,116.95"/>
   <path class="fil0 str0" d="M2914.12 382.72c-146.61,104.1 -365.46,117.54 -995.12,-98.48 -637.27,-218.63 -1047.79,272.21 -1918.86,91.31"/>
   <path class="fil0 str0" d="M2914.12 364.47c-150.73,110.42 -376.18,150.14 -1013.29,-71.32 -641.91,-223.12 -1033.93,251.96 -1900.7,64.27"/>
   <path class="fil0 str0" d="M2914.12 348.2c-154.69,115.76 -387.99,180.83 -1030.7,-45.58 -647.14,-227.98 -1020.85,232.36 -1883.29,37.95"/>
   <path class="fil0 str0" d="M2914.12 329.24c-159.2,122.59 -399.74,215.41 -1049.03,-17.88 -651.28,-233.99 -1007.8,215.18 -1864.96,13.51"/>
   <path class="fil0 str0" d="M2914.12 312.93c-163.07,127.42 -411.53,245.75 -1066.07,7.77 -656.32,-238.63 -994.84,195.16 -1847.92,-13.18"/>
   <path class="fil0 str0" d="M2914.12 294.87c-167.35,133.07 -422.99,279.6 -1085.38,35.34 -660.8,-243.67 -981.26,175.49 -1828.6,-38.58"/>
   <path class="fil0 str0" d="M2914.12 277.5c-171.65,137.9 -434.97,310.27 -1102.33,60.88 -666.35,-249.01 -968.31,156.43 -1811.65,-64.72"/>
   <path class="fil0 str0" d="M2914.12 261.16c-175.54,142.59 -446.91,340.9 -1119.62,86.68 -671.57,-253.78 -955,136.95 -1794.36,-90.91"/>
   <path class="fil0 str0" d="M2914.12 241.99c-179.8,147.74 -458.73,374.89 -1137.65,114.42 -675.83,-259.28 -941.55,118.44 -1776.33,-116.74"/>
   <path class="fil0 str0" d="M2914.12 225.62c-183.84,152.66 -471.17,406.86 -1155.14,140.77 -680.71,-264.82 -928.64,99.32 -1758.84,-142.74"/>
   <path class="fil0 str0" d="M2914.12 207.42c-187.84,156.68 -482.5,439.9 -1173.72,168.16 -685.56,-269.51 -914.76,79.77 -1740.27,-168.82"/>
   <path class="fil0 str0" d="M2914.12 190.03c-192.11,161.17 -494.8,470.33 -1190.32,193.69 -690.58,-274.68 -901.58,60.53 -1723.67,-195.15"/>
   <path class="fil0 str0" d="M2914.12 173.62c-196.07,165.47 -507.15,501.26 -1208.32,219.36 -695.7,-279.7 -888.41,40.54 -1705.66,-220.81"/>
   <path class="fil0 str0" d="M2914.12 155.41c-200.08,169.01 -518.46,534.53 -1226.89,246.77 -700.77,-284.64 -874.85,21.16 -1687.1,-246.65"/>
   <path class="fil0 str0" d="M2914.12 137.96c-204.15,173.79 -531.2,566.34 -1243.81,273.17 -705.62,-290.29 -861.55,1.97 -1670.17,-273.21"/>
   <path class="fil0 str0" d="M2913.13 120.54c-208.17,177.44 -542.84,598.01 -1261.15,299.52 -710.37,-295.19 -847.46,-17.47 -1651.84,-299.2"/>
   <path class="fil0 str0" d="M2913.36 102.93c-212.21,182.04 -555.23,629.87 -1278.25,325.96 -715.6,-300.79 -834.06,-36.76 -1634.97,-325.79"/>
   <path class="fil0 str0" d="M2911.14 86.54c-216.44,186.53 -567.99,661.53 -1294.9,352.41 -719.86,-306.13 -819.97,-56.22 -1616.1,-352.05"/>
   <path class="fil0 str0" d="M2910.86 70.36c-220.56,190.49 -579.94,691.29 -1311.7,377.44 -725.21,-311.05 -806.62,-75.78 -1599.02,-378.13"/>
   <path class="fil0 str0" d="M2911.09 52.75c-224.98,194.93 -592.77,722.88 -1329.71,403.56 -730.38,-316.48 -793.37,-95.68 -1581.24,-404.19"/>
   <path class="fil0 str0" d="M2908.89 36.36c-228.85,199.42 -604.77,754.41 -1346.15,429.84 -735.26,-321.89 -779.07,-115.24 -1562.6,-430.59"/>
   <path class="fil0 str0" d="M2909.1 18.76c-233.18,203.81 -617.33,785.7 -1363.32,456.07 -740.47,-327.19 -765.44,-134.85 -1545.64,-457.32"/>
   <path class="fil0 str0" d="M2906.9 2.37c-236.88,207.78 -628.99,815.24 -1379.29,480.98 -745.33,-332.04 -751.08,-154.32 -1527.47,-483.21"/>
  </g>
 </g>
</svg>
