<?xml version="1.0" encoding="UTF-8"?>
<!DOCTYPE svg PUBLIC "-//W3C//DTD SVG 1.1//EN" "http://www.w3.org/Graphics/SVG/1.1/DTD/svg11.dtd">
<!-- Creator: CorelDRAW -->
<svg xmlns="http://www.w3.org/2000/svg" xml:space="preserve" width="51.6874mm" height="42.1045mm" version="1.1" style="shape-rendering:geometricPrecision; text-rendering:geometricPrecision; image-rendering:optimizeQuality; fill-rule:evenodd; clip-rule:evenodd"
viewBox="0 0 263.29 214.47"
 xmlns:xlink="http://www.w3.org/1999/xlink"
 xmlns:xodm="http://www.corel.com/coreldraw/odm/2003">
 <defs>
  <style type="text/css">
   <![CDATA[
    .fil0 {fill:white}
   ]]>
  </style>
 </defs>
 <g id="Layer_x0020_1">
  <metadata id="CorelCorpID_0Corel-Layer"/>
  <path class="fil0" d="M128.13 51.07c0,6.43 -0.3,8.89 1.17,15.21 -15.4,0 -36.1,-5.88 -50.81,-11.79 -20.26,-8.15 -35.05,-18.78 -50.26,-33.99 -3.44,-3.44 -8.58,-9.83 -10.68,-10.39 -0.47,2.03 -1.56,3.68 -2.43,5.77 -9.68,23.37 -2.43,50.03 15.63,63.53 0.69,0.51 0.72,0.52 1.33,1.01 0.49,0.39 0.9,0.75 1.27,1.07 -4.98,0 -8.59,-0.8 -12.52,-2.11 -4.19,-1.4 -8.63,-3.69 -10.89,-3.74 0,2.42 0.73,8.27 1.2,10.5 4.47,20.96 19.56,37.9 40.34,42.75 -4.19,2.66 -18.47,1.17 -22.23,1.17 0.56,2.41 1.93,5.47 2.93,7.61 7.39,15.94 26.4,29.84 46.22,29.84 -1.25,3.46 -16.18,11.02 -19.5,12.68 -12.25,6.15 -30.49,10.13 -46.62,10.13 -4.95,0 -7.44,-0.58 -12.29,-0.58 3.56,4.85 27.41,14.5 34.16,16.75 22.86,7.62 51.51,10.29 76.18,5.83 25.08,-4.54 50.9,-14.72 69.72,-31.5l6.34 -5.36c5.79,-4.48 19.73,-22.02 23.39,-27.51 0.93,-1.39 1.32,-2.18 2.25,-3.6 3.65,-5.55 9.18,-16.14 11.72,-22.22 10.94,-26.28 9.74,-30.41 13.05,-54.82 1.06,-7.85 -1.58,-12.31 1.73,-15.24 1.07,-0.94 2.08,-1.58 3.29,-2.56 5.63,-4.52 9.56,-8.77 14.03,-14.05 2.14,-2.53 6.62,-7.07 7.43,-10.12l-29.25 8.19c8.83,-7.68 14.01,-10.06 20.48,-24.57 0.68,-1.52 1.05,-3.22 1.76,-4.68 -2.54,0.21 -23.54,12.29 -33.93,12.29 -1.46,0 -2.61,-1.76 -3.76,-2.68 -1.47,-1.18 -2.1,-1.71 -3.59,-2.85 -15.96,-12.11 -39.46,-14.74 -56.83,-5.41 -4.06,2.18 -11.39,7.17 -14.69,10.47 -8.12,8.12 -15.34,22.91 -15.34,34.98z"/>
 </g>
</svg>
