<?xml version="1.0" encoding="UTF-8"?>
<!DOCTYPE svg PUBLIC "-//W3C//DTD SVG 1.1//EN" "http://www.w3.org/Graphics/SVG/1.1/DTD/svg11.dtd">
<!-- Creator: CorelDRAW 2019 (64-Bit) -->
<svg xmlns="http://www.w3.org/2000/svg" xml:space="preserve" width="2.54013in" height="2.54013in" version="1.1" style="shape-rendering:geometricPrecision; text-rendering:geometricPrecision; image-rendering:optimizeQuality; fill-rule:evenodd; clip-rule:evenodd"
viewBox="0 0 2540.13 2540.13"
 xmlns:xlink="http://www.w3.org/1999/xlink"
 xmlns:xodm="http://www.corel.com/coreldraw/odm/2003">
 <defs>
  <style type="text/css">
   <![CDATA[
    .fil0 {fill:#FF007A}
    .fil2 {fill:#FFDFEB}
    .fil1 {fill:white}
   ]]>
  </style>
 </defs>
 <g id="Layer_x0020_1">
  <metadata id="CorelCorpID_0Corel-Layer"/>
  <g id="_2580325607168">
   <path class="fil0" d="M-0 1193l0 154.13c15.32,42.24 24.37,183.06 42.39,246.96 22.87,81.09 48.31,153.2 82.63,222.25 172.18,346.54 435.16,571.86 812.57,678.51 67.23,19 215.77,30.5 255.62,45.29l153.71 0c108.5,-40.26 462.29,-11.94 823.03,-370.2 90.9,-90.27 174.24,-211.22 245.24,-353.51 116.3,-233.08 96.55,-391.98 124.94,-469.02l0 -154.41c-14.28,-39.35 -25.11,-183.03 -42.71,-246.7 -124.31,-449.76 -445.41,-774.6 -894.78,-901.02 -67.1,-18.88 -213.98,-29.79 -255.72,-45.28l-153.71 0c-100.95,37.46 -473.82,16.89 -823.07,370.11 -358.26,362.33 -325.59,700.11 -370.14,822.89z"/>
   <path class="fil1" d="M999.28 993.47c-30.67,34.05 -31.92,33.67 -90.34,34.24 -25.2,-37.24 -48.61,-65.26 -73,-102.8l-53.6 -80.9c-39.35,-53.7 24.43,27.83 -10.56,-13.79 -10.79,-12.83 -8.79,-10.36 -19.54,-20.19 26.93,76.68 90.44,140.54 107.88,217.31 -15.53,29.54 -33.63,46.81 -44.28,82.23 -10.85,36.06 -10.22,66.02 -21.28,102.38 -44.46,146.15 -181.13,181.78 -144.75,340.23 8.29,36.11 65.08,139.24 84.01,159.39 137,-35.01 313.79,-124.54 141.39,-238.47 -68.78,-45.46 -86.01,-88.13 -42.61,-178.26 38.04,-79.01 29.72,-135.71 57.43,-200.76 68.11,-17.7 198.48,-37.18 150.31,-134.91l-301.3 -331.78c-48.9,-48.4 -95.92,-125.22 -156.15,-163.67 62.26,94.42 401.61,474.34 416.39,529.74z"/>
   <path class="fil1" d="M1812.95 1463.05c62.39,-107.2 40.13,-251.72 -95.91,-324.52 -121.56,-65.05 -238.67,-34.46 -360.29,-109.25 -4.68,143.02 95.22,191.71 209.29,238.17 199.92,81.43 195.69,73 246.91,195.59z"/>
   <path class="fil1" d="M1756.98 1113.6c-15.07,-74.23 -38.86,-123.21 -86.13,-160.42 -27.43,52.01 -5.79,73.4 -67.74,76.67 -27.92,-59.22 48.81,-117.35 -38.56,-167.44 -49.73,-28.51 -128.75,-50.61 -198.17,-51.05 -160.69,-1.03 -80.39,24.31 -182.41,-64.61 -42.16,-36.74 -109.68,-68.52 -183.08,-61.96 220.15,-1.61 219.35,329.89 534.55,354.22 131.91,10.19 152.51,-1.93 221.54,74.6z"/>
   <path class="fil1" d="M1522.31 1298.27c-66.59,164.98 235.54,302.66 130.73,493.62 88.98,-19.43 177.89,-169.25 127.62,-298.44 -34.11,-87.65 -135.33,-146.42 -221.15,-186.76 -35.09,-16.5 -13.13,-16.78 -37.2,-8.43z"/>
   <path class="fil1" d="M916.01 1693.43c35.85,17.04 72.63,11.31 109.37,36.17 27.88,18.87 51.24,51 75.28,70.86 140.11,115.78 204.81,-101.77 94.85,-103.1 -24.88,-0.3 -31.35,8.65 -43.02,30.06 73.05,-54.79 106.31,29.02 59.53,61.55 -53.61,37.28 -104.3,-17.65 -88.42,-78.16 66.31,-95.08 158.97,-0.33 192.09,66.58 48.84,98.69 64.35,166.24 211.68,118.19 -27.56,-12.43 -67.43,3.67 -105.79,-20.01 -27.11,-16.74 -37.26,-54.98 -43.41,-93.43 -56.15,-350.84 -402.27,-169.49 -462.15,-88.71z"/>
   <path class="fil1" d="M1161.17 980.75c-67.36,-186.98 -58.44,-236.72 -172.35,-258.24 -1.38,94.96 18.59,172.35 89.23,231.21 26.4,22 38.45,28.06 83.13,27.03z"/>
   <path class="fil1" d="M1122.17 1530.82c51.54,-5.61 246.19,-28.24 283.15,-46.81 42.04,-21.12 63.46,-44.37 77.3,-91.37 14.81,-50.34 5.16,-99.48 -27.24,-126.6 27.3,250.63 -167.66,168.61 -333.2,264.79z"/>
   <path class="fil2" d="M1038.53 1196.74c54.48,12.38 84.83,-0.36 124.3,-21.47 2.33,-78.15 -17.71,-90.37 -98.54,-77.07 -30.45,32.39 -39.74,44.48 -25.76,98.55z"/>
  </g>
 </g>
</svg>
