<?xml version="1.0" encoding="UTF-8"?>
<!DOCTYPE svg PUBLIC "-//W3C//DTD SVG 1.1//EN" "http://www.w3.org/Graphics/SVG/1.1/DTD/svg11.dtd">
<!-- Creator: CorelDRAW -->
<svg xmlns="http://www.w3.org/2000/svg" xml:space="preserve" width="2.64922in" height="1.79197in" version="1.1" style="shape-rendering:geometricPrecision; text-rendering:geometricPrecision; image-rendering:optimizeQuality; fill-rule:evenodd; clip-rule:evenodd"
viewBox="0 0 24.02 16.25"
 xmlns:xlink="http://www.w3.org/1999/xlink"
 xmlns:xodm="http://www.corel.com/coreldraw/odm/2003">
 <defs>
  <style type="text/css">
   <![CDATA[
    .fil0 {fill:#050709}
    .fil1 {fill:#F5C529}
   ]]>
  </style>
 </defs>
 <g id="Layer_x0020_1">
  <metadata id="CorelCorpID_0Corel-Layer"/>
  <g id="_105553196355328">
   <path class="fil0" d="M6.66 11.55l2.11 -3.6 -2.4 -4.22 5.89 -0.02 -0.87 1.62 4.3 0.01c0.19,-0.57 1.14,-2.07 1.51,-2.71 0.37,-0.62 1.3,-2.1 1.46,-2.64l-18.67 -0c0.22,0.64 6.46,11.38 6.66,11.54z"/>
   <path class="fil1" d="M14.74 16.22l2.33 -4c0.55,-0.97 6.91,-11.71 6.95,-12.22l-4.13 0 -7.08 12.18c-0.33,0.61 -0,0.81 0.69,2.03 0.27,0.47 0.97,1.78 1.24,2.01z"/>
   <path class="fil0" d="M9.3 16.25c0.39,-0.43 2.45,-4.11 2.91,-4.91l2.83 -4.97 -6.03 -0.05c0.85,2.12 1.63,0.46 -1.05,4.98 -1.16,1.95 -0.82,0.83 1.35,4.96z"/>
  </g>
 </g>
</svg>
