<?xml version="1.0" encoding="UTF-8"?>
<!DOCTYPE svg PUBLIC "-//W3C//DTD SVG 1.1//EN" "http://www.w3.org/Graphics/SVG/1.1/DTD/svg11.dtd">
<!-- Creator: CorelDRAW -->
<svg xmlns="http://www.w3.org/2000/svg" xml:space="preserve" width="4.22667in" height="4.22667in" version="1.1" style="shape-rendering:geometricPrecision; text-rendering:geometricPrecision; image-rendering:optimizeQuality; fill-rule:evenodd; clip-rule:evenodd"
viewBox="0 0 76.74 76.74"
 xmlns:xlink="http://www.w3.org/1999/xlink"
 xmlns:xodm="http://www.corel.com/coreldraw/odm/2003">
 <defs>
  <style type="text/css">
   <![CDATA[
    .str0 {stroke:#212528;stroke-width:1.01;stroke-miterlimit:2.61313}
    .fil0 {fill:none}
    .fil1 {fill:#7A5FC0}
    .fil2 {fill:url(#id0)}
    .fil3 {fill:url(#id1)}
   ]]>
  </style>
  <linearGradient id="id0" gradientUnits="userSpaceOnUse" x1="36.4" y1="5.75" x2="20.21" y2="54.59">
   <stop offset="0" style="stop-opacity:1; stop-color:#BCAAEB"/>
   <stop offset="1" style="stop-opacity:1; stop-color:#200D32"/>
  </linearGradient>
  <linearGradient id="id1" gradientUnits="userSpaceOnUse" xlink:href="#id0" x1="49.82" y1="28.87" x2="48.01" y2="39.01">
  </linearGradient>
 </defs>
 <g id="Layer_x0020_1">
  <metadata id="CorelCorpID_0Corel-Layer"/>
  <g id="_105553528869728">
   <rect class="fil0" x="0" y="0" width="76.74" height="76.74"/>
   <g>
    <path class="fil1" d="M74.57 74.96c-5.5,0.16 -46.2,-0.46 -47.45,0.32 1.06,0.83 43.04,0.46 48.15,0.35 0.1,-5.11 0.47,-53.21 -0.35,-54.21 -1.08,1.45 -0.24,47.47 -0.35,53.55z"/>
   </g>
   <g>
    <g>
     <path class="fil0 str0" d="M5.01 16.77l0 29.89c0,1.36 0.74,2.47 1.68,3.3 1,0.88 2.1,1.16 3.92,1.16l40.68 0c3.4,0 5.5,-1.84 5.5,-5.29l0 -6.54 -15.57 0c-3.14,0 -4.57,-2.08 -4.57,-5.09 0,-2.08 -0.26,-6.05 0.48,-7.61 1.39,-2.91 4.13,-2.35 7.2,-2.35l11.11 0c0.52,0 1.35,0.17 1.35,-0.31l0 -6.33c0,-2.84 -1.8,-5.19 -4.67,-5.19l-3.22 0c-0.02,-0.77 -0.85,-5.55 -1.02,-5.83 -0.98,-1.63 -3.4,-0.03 -5.21,0.12 -0.4,-0.76 -1.14,-2.88 -1.83,-3.26 -1.06,-0.58 -2.04,0.25 -3.61,1.04l-10.07 5.29c-0.46,0.23 -0.69,0.4 -1.14,0.62l-3.35 1.73c-0.66,0.37 -0.46,0.28 -1.49,0.27 -2.28,-0.01 -4.57,-0 -6.85,-0 -3.04,0 -6.58,-0.71 -8.41,1.87 -0.4,0.57 -0.93,1.53 -0.93,2.49zm34.98 -10.7l-10.59 5.59 13.29 -0.03 -2.7 -5.56zm6.04 2.38l-1.38 0.32 1.4 2.91 0.5 0.02 -0.51 -3.25z"/>
     <path class="fil0 str0" d="M39.57 29.01l0 5.6c0,1.14 0.5,1.76 1.66,1.76l15.46 0c0.78,0 1.45,-0.51 1.45,-1.25l0 -6.85c0,-0.57 -0.55,-1.14 -1.14,-1.14l-16.4 0c-0.28,0 -0.7,0.41 -0.82,0.64 -0.18,0.34 -0.22,0.74 -0.22,1.23z"/>
    </g>
    <g>
     <path class="fil2" d="M6.54 18.74l0 29.89c0,1.36 0.74,2.47 1.68,3.3 1,0.88 2.1,1.16 3.92,1.16l40.68 0c3.4,0 5.5,-1.84 5.5,-5.29l0 -6.54 -15.57 0c-3.14,0 -4.57,-2.08 -4.57,-5.09 0,-2.08 -0.26,-6.05 0.48,-7.61 1.39,-2.91 4.13,-2.35 7.2,-2.35l11.11 0c0.52,0 1.35,0.17 1.35,-0.31l0 -6.33c0,-2.84 -1.8,-5.19 -4.67,-5.19l-3.22 0c-0.02,-0.77 -0.85,-5.55 -1.02,-5.83 -0.98,-1.63 -3.4,-0.03 -5.21,0.12 -0.4,-0.76 -1.14,-2.88 -1.83,-3.26 -1.06,-0.58 -2.04,0.25 -3.61,1.04l-10.07 5.29c-0.46,0.23 -0.69,0.4 -1.14,0.62l-3.35 1.73c-0.66,0.37 -0.46,0.28 -1.49,0.27 -2.28,-0.01 -4.57,-0 -6.85,-0 -3.04,0 -6.58,-0.71 -8.41,1.87 -0.4,0.57 -0.93,1.53 -0.93,2.49zm34.98 -10.7l-10.59 5.59 13.29 -0.03 -2.7 -5.56zm6.04 2.38l-1.38 0.32 1.4 2.91 0.5 0.02 -0.51 -3.25z"/>
     <path class="fil3" d="M41.1 30.99l0 5.6c0,1.14 0.5,1.76 1.66,1.76l15.46 0c0.78,0 1.45,-0.51 1.45,-1.25l0 -6.85c0,-0.57 -0.55,-1.14 -1.14,-1.14l-16.4 0c-0.28,0 -0.7,0.41 -0.82,0.64 -0.18,0.34 -0.22,0.74 -0.22,1.23z"/>
    </g>
   </g>
  </g>
 </g>
</svg>
