<?xml version="1.0" encoding="UTF-8"?>
<!DOCTYPE svg PUBLIC "-//W3C//DTD SVG 1.1//EN" "http://www.w3.org/Graphics/SVG/1.1/DTD/svg11.dtd">
<!-- Creator: CorelDRAW 2019 (64-Bit) -->
<svg xmlns="http://www.w3.org/2000/svg" xml:space="preserve" width="2.45399in" height="2.45399in" version="1.1" style="shape-rendering:geometricPrecision; text-rendering:geometricPrecision; image-rendering:optimizeQuality; fill-rule:evenodd; clip-rule:evenodd"
viewBox="0 0 2453.99 2453.99"
 xmlns:xlink="http://www.w3.org/1999/xlink"
 xmlns:xodm="http://www.corel.com/coreldraw/odm/2003">
 <defs>
  <style type="text/css">
   <![CDATA[
    .fil1 {fill:#272037}
    .fil3 {fill:#595462}
    .fil4 {fill:#C07534}
    .fil2 {fill:#EE9141}
    .fil0 {fill:white}
   ]]>
  </style>
 </defs>
 <g id="Layer_x0020_1">
  <metadata id="CorelCorpID_0Corel-Layer"/>
  <g id="_2580316264192">
   <path class="fil0" d="M516.33 2000c3.04,-4.75 61.39,-63.13 66.76,-66.95l60.54 50.33c165.55,127.8 366.45,198.64 582.15,199.2 131.79,0.34 263.74,-28.5 371.53,-74.88 90.2,-38.8 139.35,-70.02 211.59,-123.36 11.19,-8.26 20.79,-16.57 31.27,-25.16l30.07 -26.22c5.61,4.37 11.28,10.44 16.74,15.65 5.85,5.58 12.22,10.99 17.56,16.8l34.26 34.59c-4.31,6.12 -40.83,36.02 -49.16,43.03 -40.39,34 -82.57,61.06 -127.21,88.72 -12.83,7.95 -26.32,14.67 -40,22.56 -25.37,14.64 -55.76,27.37 -83.9,40.04 -120.85,54.42 -274.74,83.53 -410.31,83.78 -151.15,0.27 -286.14,-31.93 -410.69,-83.39 -81.05,-33.48 -184.2,-94.1 -251.35,-151.09 -5.32,-4.51 -11.06,-9.34 -16.83,-13.86l-33.02 -29.8zm729.06 -1203.66l0.33 -190.1 118.75 0.17 0.02 193.46c63.28,9.26 100.35,10.79 161.48,36.13 46.68,19.35 85.78,51.43 106.11,92.69 22.73,46.15 29.1,111.37 12.29,167.2 -12.52,41.56 -40.84,75.33 -76.65,96.38 -5.15,3.02 -11.71,6.21 -16.43,9.35 12.61,6.17 46.39,8.58 89.57,37.29 25.14,16.71 45.52,37.89 60.43,68.44 29.98,61.43 25.84,151.42 3.01,216.57 -21.91,62.53 -65.02,102.24 -126.16,130.29 -60.41,27.71 -140.94,37.11 -214.31,42.17 -2.22,8.47 -0.71,172.3 -0.71,195.8l-118.83 0.1 0 -194.27 -94.59 0 -0.18 195 -118.54 0.17c-0.56,-27.45 1.88,-187.41 -0.76,-198.11l-237.42 -0 22.2 -141.45c26.57,-2.04 88.37,5.41 108.14,-4.7 30.72,-15.72 23.09,-53.22 23.09,-91.24l0 -455.22c0,-22.41 1.13,-30.19 -9.64,-47 -6.63,-10.34 -18.04,-20.28 -32.87,-24.82 -19.51,-5.98 -86.25,-2.55 -111.11,-2.36l0.01 -126.89 241.74 0 -1.19 -194.9 117.39 -0.02 0.31 189.93 94.52 -0.05zm-724.81 1075.43c-10.62,7.55 -24.17,24.2 -33.28,33.94l-16.66 16.44c-5.66,6.06 -11.19,11.63 -16.42,17.63 -4.16,-2.44 -24.82,-26.31 -29.37,-32.13 -29.25,-37.39 -52,-62.49 -79.2,-106.06 -37.82,-60.58 -56.77,-94.7 -86.13,-161.76 -111.14,-253.75 -112.04,-568.52 -0.38,-822.42 13.07,-29.71 25.76,-55.38 40.07,-83.85 21.04,-41.85 66.9,-112.31 97.55,-150.32l27.57 -33.76c4.74,-6.07 25.35,-30.11 29.88,-32.81l66.05 66.03c-1.39,4.19 -31.98,38.76 -37.74,45.81 -42.89,52.47 -67.69,93.37 -99.97,151.59 -70.13,126.46 -111.19,292.11 -111.29,446.88 -0.09,134.92 28.61,260.41 75.24,371.3 19.63,46.67 49.74,105.25 77.22,146.1 15.71,23.36 29.93,44.44 46.28,65.36l37.52 45.94c4.62,5.82 9.8,8.81 13.06,16.09zm1413.33 -1288.69c2.94,-5.47 27.54,-28.54 33.91,-34.91 10.57,-10.57 24.36,-22.88 33.45,-33.78 10.58,9.92 20.65,23.26 29.53,32.74 4.7,5.02 9.24,10.98 13.89,16.78 64.45,80.38 108.42,154.41 150.67,250.57 51.76,117.82 83.82,266.2 83.7,411.29 -0.12,148.08 -32.04,290.02 -84.02,410.96 -12.78,29.74 -25.4,55.98 -40.15,83.76 -18.9,35.59 -47.27,82.86 -70.87,114.44 -9.31,12.46 -16.76,22.7 -26.27,35.06l-56.68 66.72 -66.88 -66.75c2.73,-4.9 20.73,-23.63 25.84,-30.14 67.44,-85.87 99.4,-132 148.06,-242.16 46.69,-105.71 75.55,-241.78 75.43,-371.87 -0.13,-135.04 -28.8,-261.13 -75.6,-371.7 -34.49,-81.49 -90.25,-176.21 -148.32,-241.85l-25.68 -29.13zm-1418.57 -128.76c1.9,-3.57 28.02,-26.38 32.81,-30.1l33.95 -27.42c82.3,-62.18 138.11,-95.69 234.08,-137.7 252.82,-110.67 569.86,-111.57 822.43,0.43 82.7,36.67 126.3,61.19 198.79,111.65 11.59,8.07 24,17.04 35.19,26.17l33.78 27.57c6.2,4.89 10.41,8.91 16.35,14.3 4.22,3.83 12.79,10.45 15.73,14.8 -9.21,9.01 -61.8,63.44 -67.27,66.24l-15.24 -13.02c-72.69,-61.04 -99.12,-79.08 -181.5,-125.22 -23.73,-13.29 -50.08,-25.06 -75.72,-35.94 -109.78,-46.56 -237.72,-75.39 -371.71,-75.15 -230.02,0.42 -458.98,85.94 -628.28,236.95l-14.67 12.39c-6.61,-3.9 -53.28,-52.85 -68.71,-65.97zm681.77 -358.19c-161.99,4.56 -328.61,46.29 -455.28,109.46 -15.61,7.78 -32.01,15.15 -46.7,23.32 -15.73,8.74 -30.72,17.29 -45.48,25.68 -36.93,20.99 -132.49,88.13 -163.83,118.37l-89.45 87.2 -49.45 57.29c-20.76,26.51 -39.97,52.18 -59.7,81.43 -125.11,185.45 -196.89,421.05 -189.7,658.59 5.05,166.87 46.57,322.83 109.22,454.89 15.43,32.53 32.36,62.4 49.22,91.83 8.32,14.52 18.06,30.15 26.88,43.08 22.49,32.95 35.54,51.43 59.3,81.78 17.93,22.91 32.86,38.34 48.97,57.78l17.08 18.51c5.09,5.69 11.71,13.19 17.64,17.94l17.78 17.78c88.07,83.39 198.89,165.2 340.56,225.09 221.86,93.8 479.44,119.25 722.01,55.95 61.35,-16.01 152.9,-46.22 207.37,-74.87 15.68,-8.24 31.55,-15.04 46.5,-23.44 15.67,-8.8 30.7,-17.13 45.48,-25.68 30.8,-17.83 57.66,-37.1 85.04,-56.05 14.51,-10.04 26.48,-19.71 39.83,-30.11l85.18 -74.35 76.6 -82.91c74.15,-91.35 126.32,-169.44 175.35,-284.73 59.43,-139.71 95.62,-303.67 90.3,-474.73 -6.44,-207 -62.77,-383.38 -158.42,-546.77 -19.53,-33.35 -87.53,-133.05 -118.39,-163.83l-33.69 -37.5c-3.29,-3.72 -4.44,-4.94 -8.73,-8.42 -3.56,-2.88 -5.89,-5.78 -9.18,-9.22l-17.47 -18.11c-5.81,-6.03 -12.31,-10.3 -18.24,-16.15 -3.77,-3.72 -4.64,-5.25 -8.71,-8.44l-28.89 -25.09c-91.57,-74.04 -168.91,-126.18 -284.76,-175.33 -140.55,-59.63 -302.14,-95.1 -474.21,-90.26z"/>
   <path class="fil1" d="M1197.11 96.13c172.07,-4.84 333.65,30.63 474.21,90.26 115.85,49.15 193.19,101.29 284.76,175.33l28.89 25.09c4.07,3.19 4.94,4.72 8.71,8.44 5.93,5.85 12.44,10.12 18.24,16.15l17.47 18.11c3.29,3.44 5.63,6.33 9.18,9.22 4.29,3.48 5.44,4.7 8.73,8.42l33.69 37.5c30.86,30.78 98.86,130.47 118.39,163.83 95.65,163.39 151.98,339.77 158.42,546.77 5.32,171.06 -30.87,335.01 -90.3,474.73 -49.04,115.29 -101.2,193.39 -175.35,284.73l-76.6 82.91 -85.18 74.35c-13.35,10.41 -25.32,20.07 -39.83,30.11 -27.37,18.94 -54.23,38.22 -85.04,56.05 -14.78,8.55 -29.81,16.88 -45.48,25.68 -14.94,8.4 -30.82,15.19 -46.5,23.44 -54.47,28.65 -146.02,58.86 -207.37,74.87 -242.57,63.3 -500.15,37.85 -722.01,-55.95 -141.67,-59.9 -252.49,-141.7 -340.56,-225.09l-17.78 -17.78c-5.93,-4.75 -12.54,-12.25 -17.64,-17.94l-17.08 -18.51c-16.11,-19.44 -31.04,-34.87 -48.97,-57.78 -23.76,-30.35 -36.81,-48.83 -59.3,-81.78 -8.82,-12.93 -18.56,-28.56 -26.88,-43.08 -16.86,-29.43 -33.79,-59.3 -49.22,-91.83 -62.65,-132.06 -104.17,-288.02 -109.22,-454.89 -7.19,-237.54 64.59,-473.14 189.7,-658.59 19.73,-29.25 38.93,-54.92 59.7,-81.43l49.45 -57.29 89.45 -87.2c31.34,-30.24 126.91,-97.39 163.83,-118.37 14.76,-8.39 29.75,-16.93 45.48,-25.68 14.69,-8.17 31.09,-15.54 46.7,-23.32 126.67,-63.17 293.3,-104.9 455.28,-109.46zm-1197.11 1093.94l0 69.26c2.26,8.11 3.15,56.65 4.29,70.33 18.03,217.67 94.4,423.02 216.47,599.26l90.21 114.76c3.89,4.09 5.42,5.67 8.76,9.63 14.81,17.49 39.88,39.9 54.9,56.72 9.17,10.27 56.88,50.78 68.89,61.2l30.51 24.68c22.65,17.89 62.36,46.19 86.87,61.6 15.09,9.49 30.07,18.45 45.66,27.97 30.69,18.73 62.92,34.27 97.07,51.37 59.3,29.7 152.58,62.17 218.34,78.65 61.58,15.44 124.84,26.89 188.88,32.98 13.18,1.25 61.5,2.48 68.95,5.51l85.24 0c5.17,-1.75 57.59,-3.68 68.84,-4.66 147.7,-12.9 279.13,-50.43 412.36,-110.49 87.32,-39.36 200.78,-111.49 272.24,-174.33l39.74 -35.11c6.01,-6.57 13.07,-10.95 19.31,-17.52l37.3 -37.51c77.58,-85.94 115.75,-134.23 175.22,-234.62 87.93,-148.41 145.57,-335.82 159.75,-511.4 1.1,-13.63 1.92,-61.91 4.19,-70.2l0 -78.34c-2.61,-6.4 -4.37,-57.32 -5.55,-69.64 -6.48,-67.64 -16.97,-122.74 -32.92,-188.19 -33.04,-135.53 -86.35,-245.48 -156.58,-358.82 -19.09,-30.8 -53.96,-78.37 -77.19,-106.86 -5.68,-6.96 -10.58,-13.46 -16.64,-20.17l-70.68 -76.58c-3.59,-3.59 -6.31,-6.17 -9.96,-9.68 -3.31,-3.18 -5.44,-6.44 -8.81,-9.57l-99.3 -84.78c-65.06,-51.15 -152.58,-104.33 -228.45,-139.59 -127.18,-59.1 -262.96,-97.19 -404.77,-110.42 -12.4,-1.16 -62.62,-2.95 -68.93,-5.51l-83.02 0c-6.04,1.91 -58.01,3.52 -70.12,4.56 -63.07,5.42 -130.99,16.5 -191.28,31.95 -111.51,28.59 -222.33,72.43 -318.53,129.33 -48,28.39 -133.87,84.94 -174.52,122.45 -3.58,3.3 -6.39,5.5 -10.52,9.08l-48.53 43.54c-3.39,3.15 -5.5,6.33 -8.81,9.57 -3.39,3.33 -5.98,5.72 -9.33,9.08l-19.24 18.78c-25.12,26.7 -46.17,51.58 -69.75,79.95l-47.33 63.13c-10.48,15.51 -20.11,29.27 -30.02,44.84 -106.3,167.05 -171.33,354.8 -188.67,554.83 -1.03,11.94 -2.64,63.05 -4.55,68.99z"/>
   <path class="fil2" d="M1223.32 1291.95c111.26,-0.9 273.19,13.61 262.38,142.39 -10.71,127.62 -218.96,121.35 -332.35,120.08l-0 -261.35 69.98 -1.13zm-69.61 -355.43c55.73,-3.63 132.59,-2.89 183.94,11.76 51.59,14.72 92.73,44.37 93.46,105.71 0.72,61.06 -42.01,92.17 -93.02,106.22 -52.67,14.51 -126.91,17.16 -184.52,13.63l0.14 -237.32zm210.78 -136.65c-3.13,-6.02 -0.97,-170.03 -0.68,-192.14l-117.28 0 0.01 178.78c0.04,5.53 0.68,6.68 -1.14,9.83l-94.52 0.05 -0.31 -189.93 -117.39 0.02 1.19 194.9 -241.74 0 -0.01 126.89c24.87,-0.19 91.6,-3.62 111.11,2.36 14.83,4.55 26.24,14.48 32.87,24.82 10.78,16.8 9.64,24.58 9.64,47l0 455.22c0,38.02 7.62,75.52 -23.09,91.24 -19.77,10.12 -81.57,2.66 -108.14,4.7l-22.2 141.45 237.42 0c2.64,10.7 0.2,170.66 0.76,198.11l118.54 -0.17 0.18 -195 94.59 0 0 194.27 118.83 -0.1c0,-23.49 -1.51,-187.32 0.71,-195.8 73.37,-5.06 153.9,-14.45 214.31,-42.17 61.14,-28.05 104.25,-67.76 126.16,-130.29 22.83,-65.15 26.96,-155.13 -3.01,-216.57 -14.91,-30.56 -35.29,-51.74 -60.43,-68.44 -43.19,-28.7 -76.96,-31.12 -89.57,-37.29 4.72,-3.14 11.28,-6.32 16.43,-9.35 35.81,-21.05 64.13,-54.82 76.65,-96.38 16.81,-55.83 10.44,-121.05 -12.29,-167.2 -20.33,-41.26 -59.43,-73.35 -106.11,-92.69 -61.13,-25.34 -98.19,-26.87 -161.48,-36.13z"/>
   <path class="fil3" d="M520.58 1871.77c-3.25,-7.28 -8.44,-10.27 -13.06,-16.09l-37.52 -45.94c-16.35,-20.93 -30.57,-42 -46.28,-65.36 -27.48,-40.85 -57.6,-99.43 -77.22,-146.1 -46.63,-110.89 -75.33,-236.38 -75.24,-371.3 0.11,-154.77 41.16,-320.42 111.29,-446.88 32.28,-58.21 57.08,-99.11 99.97,-151.59 5.76,-7.06 36.35,-41.62 37.74,-45.81l-66.05 -66.03c-4.53,2.7 -25.13,26.74 -29.88,32.81l-27.57 33.76c-30.65,38.01 -76.52,108.47 -97.55,150.32 -14.31,28.47 -27,54.14 -40.07,83.85 -111.66,253.9 -110.76,568.67 0.38,822.42 29.37,67.06 48.32,101.18 86.13,161.76 27.2,43.57 49.95,68.67 79.2,106.06 4.55,5.81 25.21,29.69 29.37,32.13 5.23,-5.99 10.76,-11.57 16.42,-17.63l16.66 -16.44c9.12,-9.75 22.67,-26.4 33.28,-33.94z"/>
   <path class="fil3" d="M515.34 454.32c15.43,13.12 62.1,62.07 68.71,65.97l14.67 -12.39c169.29,-151.02 398.26,-236.54 628.28,-236.95 134,-0.24 261.94,28.58 371.71,75.15 25.64,10.87 51.99,22.65 75.72,35.94 82.37,46.14 108.81,64.18 181.5,125.22l15.24 13.02c5.47,-2.8 58.06,-57.23 67.27,-66.24 -2.94,-4.35 -11.51,-10.97 -15.73,-14.8 -5.95,-5.39 -10.15,-9.41 -16.35,-14.3l-33.78 -27.57c-11.19,-9.13 -23.59,-18.11 -35.19,-26.17 -72.49,-50.47 -116.09,-74.98 -198.79,-111.65 -252.56,-112 -569.6,-111.11 -822.43,-0.43 -95.96,42.01 -151.78,75.52 -234.08,137.7l-33.95 27.42c-4.8,3.72 -30.91,26.54 -32.81,30.1z"/>
   <path class="fil3" d="M549.34 2029.8c5.78,4.52 11.51,9.35 16.83,13.86 67.16,56.99 170.31,117.61 251.35,151.09 124.55,51.46 259.54,83.67 410.69,83.39 135.58,-0.24 289.46,-29.35 410.31,-83.78 28.15,-12.67 58.54,-25.41 83.9,-40.04 13.68,-7.89 27.17,-14.61 40,-22.56 44.64,-27.66 86.83,-54.72 127.21,-88.72 8.33,-7.01 44.85,-36.91 49.16,-43.03l-34.26 -34.59c-5.34,-5.81 -11.71,-11.22 -17.56,-16.8 -5.45,-5.2 -11.13,-11.27 -16.74,-15.65l-30.07 26.22c-10.48,8.59 -20.08,16.9 -31.27,25.16 -72.25,53.34 -121.39,84.56 -211.59,123.36 -107.8,46.38 -239.74,75.22 -371.53,74.88 -215.7,-0.56 -416.6,-71.39 -582.15,-199.2l-60.54 -50.33c-5.37,3.81 -63.72,62.2 -66.76,66.95l33.02 29.8z"/>
   <path class="fil3" d="M1933.9 583.08l25.68 29.13c58.07,65.64 113.83,160.37 148.32,241.85 46.8,110.56 75.47,236.66 75.6,371.7 0.12,130.1 -28.73,266.16 -75.43,371.87 -48.65,110.16 -80.61,156.29 -148.06,242.16 -5.11,6.51 -23.11,25.24 -25.84,30.14l66.88 66.75 56.68 -66.72c9.51,-12.35 16.96,-22.6 26.27,-35.06 23.6,-31.58 51.97,-78.85 70.87,-114.44 14.75,-27.78 27.37,-54.02 40.15,-83.76 51.97,-120.94 83.89,-262.88 84.02,-410.96 0.12,-145.09 -31.94,-293.47 -83.7,-411.29 -42.25,-96.17 -86.22,-170.19 -150.67,-250.57 -4.65,-5.8 -9.19,-11.76 -13.89,-16.78 -8.88,-9.47 -18.95,-22.82 -29.53,-32.74 -9.09,10.9 -22.89,23.21 -33.45,33.78 -6.37,6.37 -30.96,29.44 -33.91,34.91z"/>
   <path class="fil0" d="M1153.34 1293.08l0 261.35c113.39,1.27 321.64,7.54 332.35,-120.08 10.81,-128.79 -151.13,-143.29 -262.38,-142.39l-69.98 1.13z"/>
   <path class="fil0" d="M1153.71 936.53l-0.14 237.32c57.61,3.53 131.85,0.87 184.52,-13.63 51.01,-14.05 93.74,-45.16 93.02,-106.22 -0.73,-61.34 -41.87,-90.99 -93.46,-105.71 -51.35,-14.65 -128.21,-15.39 -183.94,-11.76z"/>
   <path class="fil4" d="M1245.39 796.34c1.82,-3.15 1.19,-4.3 1.14,-9.83l-0.01 -178.78 117.28 0c-0.29,22.11 -2.45,186.13 0.68,192.14l-0.02 -193.46 -118.75 -0.17 -0.33 190.1z"/>
  </g>
 </g>
</svg>
