<?xml version="1.0" encoding="UTF-8"?>
<!DOCTYPE svg PUBLIC "-//W3C//DTD SVG 1.1//EN" "http://www.w3.org/Graphics/SVG/1.1/DTD/svg11.dtd">
<!-- Creator: CorelDRAW 2019 (64-Bit) -->
<svg xmlns="http://www.w3.org/2000/svg" xml:space="preserve" width="2.51508in" height="2.51508in" version="1.1" style="shape-rendering:geometricPrecision; text-rendering:geometricPrecision; image-rendering:optimizeQuality; fill-rule:evenodd; clip-rule:evenodd"
viewBox="0 0 2515.09 2515.09"
 xmlns:xlink="http://www.w3.org/1999/xlink"
 xmlns:xodm="http://www.corel.com/coreldraw/odm/2003">
 <defs>
  <style type="text/css">
   <![CDATA[
    .fil2 {fill:#FEFEFF}
    .fil1 {fill:white}
    .fil0 {fill:url(#id0)}
   ]]>
  </style>
  <linearGradient id="id0" gradientUnits="userSpaceOnUse" x1="1272.64" y1="430.02" x2="1258.64" y2="2425.69">
   <stop offset="0" style="stop-opacity:1; stop-color:#0069E0"/>
   <stop offset="1" style="stop-opacity:1; stop-color:#63A4FF"/>
  </linearGradient>
 </defs>
 <g id="Layer_x0020_1">
  <metadata id="CorelCorpID_0Corel-Layer"/>
  <g id="_2580329118608">
   <path class="fil0" d="M1205.73 741.45l113.74 0 0.19 1046.27 -113.83 0 -0.09 -1046.27zm1306.6 581.89c3.5,-6.93 0.3,-21.73 2.75,-29.16l0 -30.35 0 -42.93c-1.73,-5.18 -3.2,-54.33 -4.09,-65.23 -19.28,-235.21 -105.68,-466.7 -246.88,-651.93 -10.48,-13.74 -34.35,-44.94 -45.72,-57.4 -3.68,-4.03 -12.8,-16.6 -16.78,-17.91 -2.78,-6.25 -34.55,-39.59 -39.72,-45.07l-52.85 -51.49 -79.15 -66.76c-183.53,-144.86 -419.64,-239.28 -657.92,-260.01 -12.99,-1.13 -71.48,-3.11 -77.75,-5.11l-73.37 0c-6.02,1.92 -59.72,3.57 -72.03,4.64 -67.11,5.81 -131.46,16.8 -196.09,32.54 -67.01,16.32 -165.52,49.7 -225.63,79.99 -17.42,8.78 -34.25,15.86 -51.37,25.35 -57.57,31.89 -86.45,48.03 -142.24,86.66 -16.47,11.41 -70.47,52.35 -86.52,66.89l-20.72 18.23c-6.38,5.69 -14.32,11.8 -20.22,17.56 -3.97,3.88 -5.44,5.91 -9.46,9.36l-75.85 77.58c-3.84,3.76 -5.06,6.2 -8.92,9.95 -5.96,5.79 -11.17,13.22 -17.4,20.31 -6.17,7.04 -11.16,13.54 -17.56,21.44 -23.1,28.51 -61.01,80.37 -79.48,110.4 -56.44,91.78 -87.42,152.66 -125.57,256.73 -27.67,75.5 -48.09,164.26 -59.75,244.87 -3.3,22.83 -5.68,45.86 -7.68,69.22 -1.06,12.46 -2.33,63.67 -4.37,70.3l0 73.37c2.06,6.29 2.04,35.54 2.69,45.17 10.4,155.24 43.82,282.52 104.2,425 31.61,74.6 68.06,133.82 111.57,200.31 18.84,28.8 73.08,99.56 94.65,121.62 2.26,2.31 3.16,3.82 5.14,6.24 2.19,2.67 3.76,3.75 6.13,6.39l35.3 37.67c5,4.04 36.02,36.5 48.4,47.15l79.29 66.61c8.85,6.92 17.64,13.07 27.27,20.52 6.04,4.67 23.64,17.68 29.87,20.4 1.68,3.58 26.83,18.97 31.83,22.24 11.31,7.41 23.31,14.87 34.99,21.63 83.58,48.34 132.23,73.22 229.15,107.87 102.22,36.54 215.33,59.51 325.3,67.54 10.44,0.76 46.47,1.11 52.75,3.33l78 0 103.62 -8.01c32.98,-3.76 65.55,-8.57 97.38,-14.88 113.32,-22.45 234.07,-62.33 333.69,-115.23 51.57,-27.39 77.01,-42.82 123.31,-72.8 2.96,-1.92 14.86,-8.93 16.04,-11.64 8.09,-3.48 38.58,-26.63 47.15,-33.34 18.06,-14.16 48.46,-37.57 65.32,-52.92l90.8 -87.76c3.59,-4.24 6.15,-6.07 9.97,-10.11 30.22,-31.97 85.97,-102.72 105.57,-132.15 49.35,-74.08 74.63,-113.56 114.88,-202.05 28.48,-62.62 55.02,-137.79 72.13,-205.8 2.39,-9.47 4.72,-23.1 7.82,-31.68 2.59,-16.29 7.07,-34.21 10.1,-50.81 3.19,-17.47 5.94,-34.27 8.45,-51.98 2.53,-17.88 13.48,-97.9 9.56,-110.57zm-1129.34 -56.36c4.46,1.62 27.11,20.25 32.8,24.72 11.13,8.75 21.95,17.54 32.08,26.61 25.08,20.9 77.45,67.47 98.73,91.56 14.79,16.74 44.37,47.68 51.63,65.23 4.73,3.06 13.11,22.61 16.69,29.94 3.5,7.15 10.9,29.7 15.33,34 -0.03,4.26 11.66,38.35 13.92,47.38 4.39,17.49 7.66,34.94 9.6,53.43 10.54,100.33 -26.58,214.96 -83.3,289.04 -12.6,16.46 -28.98,35.88 -43.94,49.11 -28.91,25.56 -53.94,45.02 -92.67,63.31 -63.06,29.78 -127.4,43.6 -206.52,43.63 -84.89,0.04 -133.24,-21.56 -191.28,-57.66 -25.65,-15.95 -50.1,-37.17 -68.64,-55.84 -97.97,-98.68 -130.68,-237.64 -94.7,-376.93 4.54,-17.6 24.26,-82.43 31.88,-93 -1.63,-2.19 0.15,-3.46 -9.31,-1.33 -24.39,5.49 -124.76,25.2 -135.02,25.83l-28.21 -114.05 353.71 -83.76 32.12 169.54 8.37 44.39 28.98 153.32c-15.81,1.76 -36.15,6.92 -52.13,10.11 -11.84,2.36 -42.97,10 -53.07,9.78 -3.06,-7.54 -27.62,-129.72 -32.28,-151.34l-3.13 -15.59c-0.15,-0.54 -0.92,-2.65 -1.1,-3 -1.3,-2.5 -0.26,-1.01 -1.98,-2.8 -3.22,15.15 -43.09,67.94 -35.45,163.67 6.09,76.25 40.59,137.3 89.23,184.89 21.27,20.81 39.48,38.72 73.65,52.09 25.49,9.97 52.56,14.67 80.74,19.8 31.95,5.81 61.32,5.74 93.37,0.09 109.32,-19.3 180.08,-93.28 211.39,-189.66 16.4,-50.49 18.2,-123.15 1.37,-174.33 -12.26,-37.28 -30.71,-67.54 -54.24,-96.67l-20.37 -23.69c-1.98,-2.28 -1.61,-1.39 -2.16,-3.23 -3.78,-1.91 -2.41,-1.07 -5.49,-4.22 -1.64,-1.67 -2.55,-2.78 -4.22,-4.53 -15.08,-15.84 -32.82,-30.71 -49.07,-45.26 -3.59,-3.21 -19.11,-14.78 -20.03,-17.52 -0.54,-1.59 10.76,-127.67 12.72,-137.05zm-296.15 -205.03c1.15,4.49 41.15,35.95 46.06,39.8 5.6,4.39 11.01,8.03 15.44,12.44l-9.51 137.83 -132.09 -105.85c-4.09,-4.18 -8.42,-6.95 -12.81,-11.12 -19.56,-18.57 -40.18,-39.84 -58.18,-61.25 -19.99,-23.76 -23.16,-31.5 -37.22,-58.38 -36.96,-70.63 -52,-156.63 -38.73,-237.37 11.52,-70.11 44.83,-147.3 86.74,-199.96 16.71,-21 38.43,-42.79 59.06,-59.15 78.73,-62.4 164.19,-84.1 267.03,-88.92 43.05,-0.77 72.33,1.27 110.43,14.12 30.53,10.31 60.13,24.53 84.48,40.01 73.91,46.99 131.95,111.48 161.7,195.57 1.07,3.03 2.62,7.83 4.02,12.23 28.72,89.72 20.61,179.87 -6.67,268.13 -4.8,15.55 -12.54,33.08 -16.09,47.85l144.21 -31.88 30.96 113.99 -351.79 93.33 -78.38 -364.64 104.68 -24.22 40.68 171.49c5.94,-4.43 14.3,-27.88 16.69,-34.47 35.94,-99.29 16.55,-196.77 -45.65,-278.17 -1.95,-2.56 -3.17,-4.64 -5.54,-7.09 -32.79,-34.05 -62.61,-65.23 -112.11,-80.26 -55.22,-16.76 -120.28,-23.22 -178.17,-8.7 -78.27,19.63 -136.56,70.28 -170.28,136.58 -9.59,18.86 -23.35,52.77 -27,76.12 -15.24,97.5 -0.98,166.13 56.96,239.01 4.08,5.13 7.74,8.77 11.53,13.59 4.09,5.21 8.19,8.89 12.63,13.78 6.76,7.44 18.27,19.72 26.93,25.55z"/>
   <path class="fil1" d="M1086.85 1061.95c-8.66,-5.83 -20.17,-18.11 -26.93,-25.55 -4.44,-4.89 -8.55,-8.57 -12.63,-13.78 -3.78,-4.82 -7.45,-8.46 -11.53,-13.59 -57.94,-72.88 -72.19,-141.51 -56.96,-239.01 3.65,-23.35 17.41,-57.26 27,-76.12 33.73,-66.3 92.02,-116.94 170.28,-136.58 57.89,-14.52 122.95,-8.06 178.17,8.7 49.5,15.02 79.32,46.21 112.11,80.26 2.36,2.46 3.58,4.54 5.54,7.09 62.2,81.4 81.59,178.88 45.65,278.17 -2.39,6.59 -10.75,30.04 -16.69,34.47l-40.68 -171.49 -104.68 24.22 78.38 364.64 351.79 -93.33 -30.96 -113.99 -144.21 31.88c3.54,-14.77 11.28,-32.3 16.09,-47.85 27.28,-88.26 35.39,-178.42 6.67,-268.13 -1.41,-4.39 -2.95,-9.2 -4.02,-12.23 -29.75,-84.08 -87.79,-148.58 -161.7,-195.57 -24.35,-15.48 -53.95,-29.7 -84.48,-40.01 -38.09,-12.85 -67.37,-14.89 -110.43,-14.12 -102.84,4.82 -188.3,26.52 -267.03,88.92 -20.63,16.35 -42.35,38.15 -59.06,59.15 -41.91,52.66 -75.22,129.85 -86.74,199.96 -13.27,80.74 1.77,166.74 38.73,237.37 14.07,26.88 17.24,34.62 37.22,58.38 18,21.41 38.63,42.68 58.18,61.25 4.39,4.17 8.72,6.94 12.81,11.12l132.09 105.85 9.51 -137.83c-4.43,-4.42 -9.84,-8.06 -15.44,-12.44 -4.91,-3.85 -44.91,-35.31 -46.06,-39.8z"/>
   <path class="fil1" d="M1011.55 1542.6c4.55,-0.8 44.85,0.4 57.36,0.4 13.5,0 46.2,1.58 57.35,-0.89l-8.37 -44.39c-5.84,-4.21 -15.19,-2.5 -26.35,-2.5l-184.86 0 -1.59 5.02c-0.09,-0.18 -0.33,0.83 -0.49,1.25 -7.62,10.57 -27.33,75.41 -31.88,93 -35.97,139.29 -3.27,278.26 94.7,376.93 18.54,18.67 42.99,39.89 68.64,55.84 58.04,36.1 106.39,57.69 191.28,57.66 79.12,-0.04 143.46,-13.86 206.52,-43.63 38.73,-18.28 63.76,-37.74 92.67,-63.31 14.96,-13.23 31.33,-32.65 43.94,-49.11 56.72,-74.08 93.84,-188.72 83.3,-289.04 -1.94,-18.49 -5.21,-35.94 -9.6,-53.43 -2.26,-9.03 -13.95,-43.12 -13.92,-47.38 -4.43,-4.3 -11.84,-26.85 -15.33,-34 -3.57,-7.32 -11.96,-26.88 -16.69,-29.94 -5.87,-4.3 -7.21,-2.53 -18.76,-2.5l-113.18 0c-13.85,-0.03 -15.7,-2.23 -17.21,2.97 0.54,1.84 0.17,0.95 2.16,3.23l20.37 23.69c23.53,29.13 41.98,59.38 54.24,96.67 16.83,51.18 15.03,123.84 -1.37,174.33 -31.31,96.37 -102.06,170.35 -211.39,189.66 -32.04,5.65 -61.41,5.72 -93.37,-0.09 -28.19,-5.12 -55.26,-9.82 -80.74,-19.8 -34.17,-13.37 -52.39,-31.27 -73.65,-52.09 -48.63,-47.59 -83.14,-108.64 -89.23,-184.89 -7.64,-95.73 32.22,-148.52 35.45,-163.67z"/>
   <polygon class="fil1" points="1205.83,1787.72 1319.66,1787.72 1319.48,741.45 1205.73,741.45 "/>
   <path class="fil2" d="M904.62 1501.5c0.16,-0.42 0.4,-1.43 0.49,-1.25l1.59 -5.02 184.86 0c11.16,0 20.51,-1.71 26.35,2.5l-32.12 -169.54 -353.71 83.76 28.21 114.05c10.27,-0.62 110.64,-20.33 135.02,-25.83 9.45,-2.13 7.67,-0.86 9.31,1.33z"/>
   <path class="fil2" d="M1449.08 1475.56c1.51,-5.2 3.35,-3 17.21,-2.97l113.18 0c11.55,-0.02 12.89,-1.79 18.76,2.5 -7.26,-17.55 -36.84,-48.49 -51.63,-65.23 -21.28,-24.09 -73.65,-70.66 -98.73,-91.56 -10.13,-9.06 -20.95,-17.86 -32.08,-26.61 -5.69,-4.47 -28.34,-23.09 -32.8,-24.72 -1.95,9.37 -13.26,135.45 -12.72,137.05 0.92,2.73 16.44,14.31 20.03,17.52 16.25,14.55 33.99,29.42 49.07,45.26 1.67,1.75 2.58,2.86 4.22,4.53 3.07,3.15 1.7,2.31 5.49,4.22z"/>
   <path class="fil2" d="M1126.27 1542.11c-11.15,2.47 -43.86,0.89 -57.35,0.89 -12.51,0 -52.81,-1.2 -57.36,-0.4 1.72,1.78 0.69,0.3 1.98,2.8 0.18,0.35 0.95,2.47 1.1,3l3.13 15.59c4.67,21.61 29.22,143.8 32.28,151.34 10.09,0.22 41.22,-7.41 53.07,-9.78 15.98,-3.19 36.32,-8.36 52.13,-10.11l-28.98 -153.32z"/>
  </g>
 </g>
</svg>
