<?xml version="1.0" encoding="UTF-8"?>
<!DOCTYPE svg PUBLIC "-//W3C//DTD SVG 1.1//EN" "http://www.w3.org/Graphics/SVG/1.1/DTD/svg11.dtd">
<!-- Creator: CorelDRAW -->
<svg xmlns="http://www.w3.org/2000/svg" xml:space="preserve" width="16.0908in" height="5.38137in" version="1.1" style="shape-rendering:geometricPrecision; text-rendering:geometricPrecision; image-rendering:optimizeQuality; fill-rule:evenodd; clip-rule:evenodd"
viewBox="0 0 1806.91 604.3"
 xmlns:xlink="http://www.w3.org/1999/xlink"
 xmlns:xodm="http://www.corel.com/coreldraw/odm/2003">
 <defs>
  <style type="text/css">
   <![CDATA[
    .fil1 {fill:none}
    .fil0 {fill:white}
   ]]>
  </style>
   <clipPath id="id0">
    <path d="M-0 0l1806.91 0 0 604.3 -1806.91 0 0 -604.3z"/>
   </clipPath>
 </defs>
 <g id="Layer_x0020_1">
  <metadata id="CorelCorpID_0Corel-Layer"/>
  <g>
  </g>
  <g style="clip-path:url(#id0)">
   <g>
    <g id="_105553185325248">
     <g id="_105553191750848">
      <path class="fil0" d="M551.77 376.3c-13.6,0 -20.01,-4.35 -20.01,-19.43l0 -93.59c0,-14.12 7.71,-13.54 21.77,-13.54 13.5,0 27.86,8.39 35.92,18.82 23.61,30.61 14.69,107.72 -37.68,107.72l0 0.01zm-68.27 -134.79c0,10.89 -0.72,5 9.8,8.44 3.7,1.21 5.66,2.35 6.9,6.04 2.45,7.23 0.94,31.69 0.94,42.61l0 48.85c0,19.35 3.72,30.09 -19.43,30.61 -0.94,4.02 -0.59,3.42 -0.59,8.24 8.73,0 15.35,0.59 24.13,0.59 25.02,0 40.7,0.61 65.76,-3.69 37.84,-6.49 64.9,-35.13 64.9,-72.82 0,-16.9 -2.52,-26.49 -9.96,-38.89 -12.86,-21.39 -34.48,-27.76 -58.41,-30.46 -31,-3.49 -51.54,-1.12 -79.99,-1.33 -2.19,-0.02 -4.07,-0.45 -4.07,1.82l0.02 0.01z"/>
      <path class="fil0" d="M1225.7 376.3c-16.03,0 -20.36,-5.45 -20.64,-21.78 -0.06,-3.24 0.67,-4.91 0.64,-8.82 -0.08,-13.24 -0.42,-85.87 0.2,-88.67 1.78,-8 13.88,-7.28 19.8,-7.28 14.91,0 28.82,7.68 37.43,19.08 7.47,9.89 13.03,27.35 12.15,43.5 -0.94,17.11 -2.79,29.29 -12.49,43.95 -8.1,12.25 -21.96,20.01 -37.08,20.01l-0.01 0.01zm-68.86 -135.96c0,8.79 -0.94,7.46 6.92,8.98 9.49,1.84 11.33,4.49 11.33,18.69l0 91.82c0,6.02 -0.83,11.81 -4.25,14.59 -2.57,2.08 -11,3.67 -15.76,3.67l0 8.24c4.11,0 5.74,0.59 10.01,0.59l33.57 0.02c3.03,-0.03 3.24,-0.47 5.85,-0.62 20.61,-1.12 24.51,1.2 47.21,-4.58 33.28,-8.47 58.14,-36.58 58.14,-72.53 0,-35.51 -21.68,-59.71 -53.41,-66.07 -24.84,-4.99 -67.21,-3.37 -94.33,-3.37 -2.96,0 -2.63,0.52 -5.3,0.59l0.02 0z"/>
      <path class="fil0" d="M322.22 241.52c0,4.92 0.35,3.62 0.59,6.48 6.22,1.44 13.56,2.25 17.76,7.55 3.68,4.64 5.19,11.94 5.19,20.11l0 46.5c0.02,4.66 -0.62,6.92 -0.61,11.17 0.01,3.31 0.28,7.96 -0.07,11.11 -0.69,6.13 -0.58,23.93 -5.44,29.29 -1.93,2.12 -4.95,2.45 -8.02,3.17 -7.98,1.87 -7.06,1.3 -7.06,9.42l55.32 0c0,-9.17 0.88,-7.89 -7.49,-8.99 -12.5,-1.64 -13.22,-8.25 -14.39,-18.57 -2.08,-18.34 -1.66,-44.46 -1.66,-64.26 0,-6.48 0.59,-10.66 0.59,-17.07 3.38,2.27 27.58,31.43 30.61,35.31l24.29 29.27c2.21,2.48 3.96,4.81 6.14,7.4l24.23 29.33c5.19,6.5 6.39,9.93 17.73,9.93 2.9,0 1.52,-4.5 1.85,-7.57 1.41,-13.03 -0.14,-63.21 -0.1,-80.74 0,-3.64 0.62,-4.56 0.63,-8.2 0.01,-8.53 -0.2,-35.33 5.41,-39.91 2.91,-2.38 9.25,-3.86 13.99,-4.25l0 -8.24 -53.56 0c-2.8,0 -1.44,2.79 -1.25,5.35 0.32,4.21 -0.01,3.23 4.07,3.6 17.87,1.65 19.05,10.47 18.94,27.55l0.6 61.2c-3.79,-1.02 -8.75,-7.91 -11.52,-11.44l-29.51 -34.06c-1.18,-1.4 -1.34,-1.81 -2.67,-3.21l-40.29 -46.24c-1.04,-1.27 -1.32,-2.76 -3.12,-2.76l-39.44 0c-1.35,0 -1.77,0.41 -1.77,1.77l0.05 0.01z"/>
      <path class="fil0" d="M996.15 240.34c0,4.7 -0.33,3.73 0.59,7.65 3.28,0.77 7.24,1.22 10.1,2.27 10.71,3.91 12.86,13.2 12.86,25.39 0,17.28 1.2,78.56 -3.29,93.24 -2.13,6.96 -10.46,9.18 -17.31,9.18l0 8.24 55.32 0c0,-13.05 0.46,-5.89 -12,-9.77 -4.29,-1.33 -6.83,-3.43 -8.26,-7.64 -1.39,-4.06 -2.71,-15.68 -2.72,-20.24 0,-2.53 0.2,-5.73 -0.07,-8.18 -1.03,-9.13 -0.51,-50.09 -0.51,-62.48 4.11,2.75 17.43,18.95 21.32,23.41 14.69,16.84 35.4,42.24 49.45,59.44l21.36 26.32c2.15,2.43 1.71,1.48 11.47,1.48 2.41,0 1.16,-0.95 1.17,-7.65l0 -70.63c0,-8.51 0.79,-50.07 4.61,-56 2.85,-4.42 7.59,-5.8 14.8,-5.8 0.69,-1.43 2.92,-8.83 -0.59,-8.83l-53.56 0 0 8.24c2.48,0.2 5.72,1.26 8.33,1.68 6.19,1 10.86,2.02 12.83,8.36 0.94,3.01 0.9,5.56 1.39,9.21l1.59 56.09c0,5.73 -0.59,9.08 -0.59,14.71 -3.69,-2.47 -6.26,-6.25 -8.69,-8.97l-13.83 -15.6c-1.95,-2.05 -3.46,-4.24 -5.32,-6.45l-43.83 -50.35c-1.4,-1.41 -1.48,-1.79 -2.67,-3.21l-8.2 -9.45c-2.11,-2.29 -3.42,-4.26 -7.51,-4.26l-32.96 0c-2.96,0 -2.63,0.52 -5.3,0.59l0.03 0.03z"/>
      <path class="fil0" d="M1428.16 240.34l0 7.65c19.48,4.54 23.54,6.77 23.54,32.38 0,28.48 0.56,51.16 -1.78,79.44 -2.03,24.55 -19.4,13.94 -19.4,20.02 0,4.63 -0.64,6.48 1.76,6.48l54.15 0c0,-13.46 -0.25,-5.8 -12.3,-10.06 -3.71,-1.32 -6.99,-3.59 -8.4,-7.49 -2.41,-6.71 -2.85,-21.46 -2.84,-28.94 0.02,-11.04 -0.59,-20.78 -0.59,-31.19 0,-11.1 0.59,-20.13 0.59,-31.19 5.08,3.41 8.82,9.86 12.51,13.98 11.3,12.62 24.94,30.58 36.49,43.56 9.22,10.34 20.72,25.47 30.02,35.91 2.2,2.47 3.94,5.01 6.17,7.37 1.38,1.44 1.73,1.93 2.92,3.55 4.74,6.37 4.6,6.89 16.65,6.89l-0.01 -90.66 1.61 -28.41c1.81,-13.64 -0.56,-20.03 18.41,-21.61l0 -8.24 -54.74 0 0 8.83c6.52,0 13.92,1.16 17.76,4.6 1.4,1.25 3.02,4.14 3.65,6.35 0.92,3.23 0.77,5.74 1.3,9.31l1.42 55.67c0,5.35 -0.59,8.28 -0.59,13.54 -3.64,-2.45 -6.25,-6.2 -8.69,-8.97l-27.66 -31.19c-1.4,-1.4 -1.48,-1.79 -2.67,-3.21l-43.71 -50.45c-2,-2.58 -2.99,-4.46 -7.31,-4.46l-32.96 0c-2.96,0 -2.63,0.52 -5.3,0.59l-0 -0.05z"/>
      <path class="fil0" d="M819.58 318.04c-1.87,0 -10.04,-0.88 -10.89,-1.47 -3.01,-2.1 -0.87,-42.36 -0.88,-45.61 -0.06,-13.92 -2.34,-21.78 10.01,-21.78 9.95,0 16.67,3.7 21.03,9.58 2.3,3.1 3.85,6.01 5.09,10.21 0.54,1.85 1.2,4.69 1.4,6.25 2.3,17.9 -3.33,42.82 -25.75,42.82l-0 0zm-59.45 -76.52c0,13.02 1.6,3.36 12.77,10.18 5.91,3.61 3.98,12.36 4.4,17.96 1.29,17.32 0.48,60.25 0.48,80.16 0,23.22 -1.05,25.68 -12.52,27.49 -6.76,1.07 -6.89,0 -6.89,8.99l70.63 0c0,-9.76 0.89,-7.55 -9.69,-9.15 -4.4,-0.67 -6.68,-1.23 -8.7,-4.24 -5.35,-7.95 -2.8,-37.18 -2.8,-46.65 11.03,0 20.9,8.61 45.33,-3.53 4.39,-2.18 11.01,-6.89 14.05,-10.67 1.31,-1.62 2.38,-2.76 3.7,-4.54 17.61,-23.77 7.41,-66.87 -40.14,-67.18 -3.34,-0.02 -4.07,-0.62 -7.61,-0.62 -11.38,-0.01 -20.98,-0.51 -32.4,-0.58 -5.51,-0.03 -9.8,0.6 -15.88,0.6 -5.55,0 -14.71,-1.16 -14.71,1.77l-0.01 -0z"/>
      <path class="fil0" d="M640.06 240.34l0 7.65c13.53,3.15 18.24,0.29 18.24,20.6l0 85.93c0,16.83 -0.64,23.54 -21.19,23.54l-0.59 8.24 114.19 0c2.04,0 1.67,-1.22 2.19,-3.11l3.45 -14.2c1.26,-5.69 3.19,-14.16 3.19,-20.35 -3.17,-0.07 -4.81,-1.17 -8.24,-1.17 -0.89,3.8 -8.58,17.42 -11.03,20.16 -8.12,9.13 -17.12,8.68 -29.58,8.68 -29.86,0 -19.54,-11.78 -21.94,-29.26 -1.34,-9.79 0.16,-20.86 0.16,-29.59 2.66,-0.06 2.34,-0.59 5.3,-0.59 8.16,0 22.05,-0.78 27.81,2.8 4.31,2.67 5.91,9.24 6.33,14.27 7.02,0 8.83,1.5 8.83,-1.17l0 -44.14c-9.83,0 -8.44,-0.97 -10.25,5.64 -2.14,7.82 -5.25,10.84 -16.23,10.84l-21.77 0c0,-4.29 -0.55,-6.39 -0.62,-10 -0.08,-4.34 0.64,-6.19 0.63,-10.6l-0.6 -25.31c0,-9.68 5.47,-9.42 16.48,-9.42 17.11,0 26.18,1.48 31.12,13.62 0.82,2.03 1.25,3.35 2.09,5.56 0.73,1.93 1.68,3.7 2.11,5.55 6.67,0 8.01,1 8.33,-2.31l-1.25 -21.24c0.03,-4.14 -0.6,-6.11 -0.6,-10.58 -4.76,0 -7.03,-0.62 -11.77,-0.6l-52.39 -0.59c-5.51,-0.01 -8.62,0.6 -14.12,0.59l-21.21 -0.01c-3.37,-0.01 -4.48,0.54 -7.05,0.6l-0.02 0.01z"/>
      <path class="fil0" d="M882.55 248.58c11.29,0 17.66,2.82 17.66,13.54l0 100.65c0,6.43 -1.6,10.45 -6.16,12.67 -1.84,0.89 -5.37,1.76 -7.46,1.96 -8.42,0.8 -7.57,-1.39 -7.57,8.91l114.19 0c2.03,0 1.69,-1.43 2.05,-3.24l3 -12.88c2.48,-9.81 3.18,-12.04 3.18,-22.13 -3.58,0 -4.3,-0.59 -7.65,-0.59 -0.37,1.4 -1.75,3.61 -2.61,5.04 -2.92,4.91 -5.7,12.2 -8.72,15.42 -7.69,8.21 -16.61,8.38 -28.11,8.38 -6.58,0 -14.16,-0.25 -18.46,-2.73 -5.03,-2.9 -5.09,-9.45 -5.09,-16.11l0 -38.84c0,-1.35 0.41,-1.77 1.77,-1.77 7.55,0 26.83,-0.85 31.9,2.82 5.37,3.88 4.95,12.25 6.35,13.66 1.22,1.22 6.34,0.59 8.24,0.59l0 -45.32 -8.24 0c-0.59,2.52 -1.18,4.9 -2.17,7.24 -5.81,13.86 -22.54,9.24 -37.85,9.24l0 -49.45c0,-3.21 1.92,-4.58 4.92,-5.09 10.04,-1.7 29.15,-1.43 36.56,4.22 2.8,2.13 4.64,5.73 6.04,9.27 4.73,11.97 2.38,10.44 10.76,10.44 2.63,0 1.13,-1.57 1.18,-7.66 0.03,-4.14 -0.62,-5.61 -0.61,-9.4 0.01,-4.1 -0.5,-6.13 -0.59,-9.42 -0.08,-2.7 1.17,-8.26 -1.75,-8.26l-104.77 0 0 8.83 -0.02 -0.01z"/>
      <path class="fil0" d="M1314.57 244.46l0 4.12c11.61,0 17.66,3.06 17.66,15.31l0 97.12c0,24.07 -21.19,12.17 -21.19,18.84l0 6.48 115.36 0c0.79,-9.44 7.06,-21.07 7.06,-38.25 -3.58,0 -4.3,-0.59 -7.65,-0.59 -11.54,21.82 -11.46,28.83 -39.44,28.83 -5.27,0 -13.74,-0.39 -17.44,-1.97 -4.84,-2.06 -6.1,-7.28 -6.1,-13.91l0 -43.56 21.77 0c13.32,0 15.07,5.47 17.27,14.51 0.5,2.05 0.35,2.72 4.76,2.76l4.46 -0.21 0 -45.32c-13.89,0 -5.99,-0.23 -11.78,10 -5.69,10.04 -22.97,6.48 -36.48,6.48 0,-14.41 -1.24,-25.41 -0.03,-40.06 0.18,-2.23 -0.06,-4.78 0.01,-7.05 0.09,-3 0.61,-3.23 0.61,-6.45 7.42,-1.73 13.93,-1.17 21.77,-1.17 17.08,0 20.98,4.15 25.39,15.22 4.11,10.31 2.71,8.91 11.69,8.91 0,-11.27 -1.77,-26.53 -1.77,-34.14l-77.13 0.02c-3.24,0 -3.79,-0.46 -6.45,-0.61l-21.22 0.01c-3.15,0.64 -1.15,1.5 -1.15,4.69l0.02 0z"/>
      <path class="fil0" d="M1586.49 279.18c10.39,0 7.74,1.88 11.55,-9.65 7.17,-21.74 14.53,-19.2 39.66,-19.2l0 110.07c0,5.63 -0.8,11.06 -5.18,14.24 -2.55,1.85 -11.43,3.42 -16.01,3.42l0 8.24 73.58 0c0,-3.72 0.32,-5.12 -1.17,-8.24 -8.12,-1.9 -20.6,1.56 -20.6,-15.31l0 -112.42c9.22,0 18.68,-0.83 27.31,2.11 3.95,1.34 5.87,3.09 7.91,6.23 2.23,3.43 2.71,5.72 4.01,10.12 3.35,11.38 2.76,9.79 11.39,9.79l-0.59 -16.48c-0.14,-2.58 -0.53,-2.46 -0.61,-5.28 -0.06,-1.92 0.12,-4.01 0.02,-5.91 -0.14,-2.58 -0.53,-2.46 -0.61,-5.28l-0.58 -11.2c-14.91,0 2.97,5.3 -30.61,5.3 -11.13,0 -20.44,0.59 -31.78,0.59 -11.7,0 -21.69,-0.59 -32.96,-0.59 -6.26,0 -19.14,1.17 -22.89,-1.83 -0.85,-0.68 0.06,0.14 -0.88,-0.89 -2.78,-3.03 -2.52,-2.58 -8.01,-2.58l-2.94 44.73 -0.02 0.02z"/>
      <path class="fil0" d="M203.92 260.36c0,6.62 4.69,15.33 -7.06,23.54 -1.38,0.96 -1.95,1 -2.94,2.35 -1.38,-0.92 -2.56,-1.51 -4.02,-2.46 -9.89,-6.44 -13.62,-13.44 -34.24,-13.44 -11.73,0 -32.1,6.69 -37.08,14.12 9.27,0 17.44,-1.26 25.65,0.24 30.1,5.52 5.26,40.97 -2.35,52.5 -3.32,5.03 -18.74,24.28 -23.46,28.92l-10 11.19c-3.29,3.56 -7.64,7.01 -10.54,10.65 -3.61,4.54 -9.21,8.61 -9.92,11.27l47.93 -22.11 12.8 -7.8c2.15,-1.35 3.81,-2.54 6,-4.01 4.25,-2.84 7.72,-5.25 11.89,-8.12l13.95 -10.77c1.27,-1.08 1.62,-1.12 2.92,-2.37l20.04 -20.58c18.09,-22.48 31.24,-45.69 34.96,-75.68 0.82,-6.62 0.76,-12.53 0.76,-19.84 -5.47,4.01 -4.42,16.99 -29.22,29.64 -2.23,1.14 -4.02,1.74 -6.09,2.74l0 0.01z"/>
      <path class="fil0" d="M253.36 243.29c0,2.96 0.53,2.64 0.59,5.3 6.51,0 15.21,1.52 17.11,8.19 1.86,6.52 1.13,84.1 1.13,94.22 0,14.85 0.65,22.7 -8.74,25.39 -2.11,0.61 -7.36,1.68 -10.1,1.68l0 8.24 67.69 0 0 -8.24c-7.06,0 -15.64,-1.44 -17.7,-8.79 -1.87,-6.69 -1.14,-86.22 -1.14,-96.57 0,-25.87 4.22,-21.31 18.84,-24.72l0 -8.24 -67.69 0 0 3.53 0.01 -0.01z"/>
      <path class="fil0" d="M190.97 258c26.61,0 22.47,-35.31 2.94,-35.31 -21.03,0 -25.5,24.04 -10.28,33.23 2.31,1.4 3.86,2.08 7.33,2.08z"/>
      <path class="fil0" d="M1089.14 207.38l2.94 15.88c0.68,2.93 0.68,2.34 2.94,3.53 0.82,-3.07 1.38,-0.47 3.25,-10.29 0.56,-2.96 -0.35,-1.93 1.46,-3.25 0,5.65 1.26,11.22 4.7,13.54 2.73,-5.16 4.7,-12.69 4.7,-20.6 -2.8,0.24 -2.14,0.24 -3.28,6.13 -0.42,2.12 -0.97,6.36 -2.01,8 -1.47,-6.32 -0.74,-11.47 -4.7,-14.12 -2.21,1.48 -2.2,2.19 -2.71,5.53 -0.51,3.4 -0.77,4.66 -1.41,7.41l-1.17 0c-0.09,-4.02 -1.04,-10.89 -4.12,-12.95 -0.01,0.01 -0.59,1.09 -0.59,1.17l-0.01 0.02z"/>
      <path class="fil0" d="M917.87 212.67l0.59 13.54c3.69,-0.3 2.36,-2.46 2.36,-12.36l1.41 3.29c0.45,1.39 0.64,2.17 1.18,3.53 1.08,2.74 1.74,4.1 3.88,5.54l4.7 -12.36c0,2.35 -0.07,4.76 -0.03,7.1 0.05,2.74 0.2,4.11 1.79,5.27 1.53,-3.2 1.53,-16.1 0.68,-18.34 -0.86,-2.27 -0.28,-1.61 -3.03,-1.67l-4.7 14.71c-0.53,-2.28 -1.75,-4.02 -2.57,-6.85 -0.83,-2.85 -1.5,-5.13 -2.14,-7.86l-2.94 0c-0.52,2.22 -1.17,3.68 -1.17,6.48l0.01 0z"/>
      <path class="fil0" d="M1225.1 217.97c0,5.83 -2.78,8.12 2.36,8.24l0 -12.36c2.53,2.91 1.59,6.83 5.3,12.36 1.93,-1.3 2.53,-2.82 3.29,-5.54 0.7,-2.52 0.83,-4.21 2.59,-6.24 0,3.79 -1.73,10.68 2.36,11.77 0.06,-2.66 0.59,-2.34 0.59,-5.3l0 -8.24c0,-3.27 -0.59,-3.49 -0.59,-6.48 -7.84,0.65 -3.07,12 -8.83,13.54 -0.19,-2.28 -1.43,-5.48 -2.1,-7.91 -0.87,-3.18 -0.85,-5.34 -4.38,-5.63 -0.38,1.65 -1.09,3.54 -1.18,5.34 -0.12,2.72 0.59,3.21 0.59,6.44l0 0.01z"/>
      <path class="fil0" d="M1262.18 217.39c0,5.46 0.03,3.91 1.17,8.83l1.17 0c0,-5.2 0.59,-8.16 0.59,-12.95 2.75,3.17 2.45,3.07 4.32,6.87 1.33,2.72 2.15,5.79 5.69,6.08 0.06,-2.66 0.59,-2.34 0.59,-5.3l0 -9.42c0,-2.96 -0.53,-2.64 -0.59,-5.3 -3.21,0.74 -2.45,1.12 -2.38,5.27 0.05,2.56 0.02,5.12 0.02,7.67 -2.05,-1.38 -2.97,-4.24 -4.46,-6.72 -0.99,-1.65 -1.23,-2.53 -1.9,-3.99 -0.97,-2.17 -0.85,-2.17 -3.65,-2.23 0,4.49 -0.59,6.57 -0.59,11.18l0.01 0.02z"/>
      <path class="fil0" d="M1587.08 209.14l0.26 14.45c0.68,3.35 -0.24,1.92 1.5,2.62 0.74,-1.56 1.17,-9.68 1.17,-12.36 3.38,2.48 4.64,11.24 8.83,12.36 1.34,-2.79 3.59,-18.74 -1.17,-20.01 0,4.55 -0.59,7.8 -0.59,12.95 -1.52,-1.75 -2.76,-5.14 -3.93,-7.25 -1.31,-2.37 -2.73,-5.05 -5.49,-5.7 -0.3,1.32 -0.59,1.35 -0.59,2.94z"/>
      <path class="fil0" d="M1058.53 210.32l0 10.59c0,2.96 0.53,2.64 0.59,5.3 3.41,-2.49 1.77,-8.45 1.77,-13.54 0.32,0.36 0.65,0.71 1.06,1.29 0.67,0.94 0.51,0.71 1.11,1.84 1.53,2.9 4.06,9.56 7.25,10.41 2.01,-3.8 1.17,-8.98 1.17,-15.31 0,-2.45 -0.36,-3.68 -1.77,-4.7 -1.47,3.07 -1.17,8.37 -1.17,12.95 -0.67,-0.77 -0.27,-0.19 -0.98,-1.38l-2.96 -5.88c-1.31,-2.37 -2.73,-5.05 -5.49,-5.7 -0.16,1.84 -0.59,2.09 -0.59,4.12l0.01 0z"/>
      <path class="fil0" d="M1540.59 223.86l-4.7 0 0 -6.48 6.48 0.59c0.27,1.14 1.91,5.89 -1.77,5.89zm-1.77 -8.83l-2.36 0 0 -6.48 2.94 0c2.98,0 3.54,1.04 3.23,3.1 -0.39,2.56 -1.23,3.37 -3.81,3.37zm-5.3 11.18c1.23,0.1 8.51,1.92 11.34,-2.25 1.79,-2.64 0.26,-5.71 -1.92,-7.17 0.96,-1.43 2.19,-2.17 2.55,-4.39 0.25,-1.51 -0.65,-4.12 -1.38,-5.62 -4.3,-1 -5.47,-0.59 -10.59,-0.59l0 20.01 -0 0z"/>
      <path class="fil0" d="M1042.05 223.86l-2.94 0 0 -15.31c7.41,0 7.65,0.81 7.65,9.42 0,3.51 -1.2,5.89 -4.7,5.89l0 -0zm-5.89 -16.48c0,24.83 -2.46,18.84 10.01,18.84 1.3,-2.44 3.53,-5.67 3.53,-9.42 0,-2.68 -1.17,-7.19 -2.47,-8.71 -1.39,-1.64 -11.07,-4.6 -11.07,-0.71l-0 0z"/>
      <path class="fil0" d="M1519.39 223.86l-5.89 0c1.25,-2.23 0.59,-12.16 0.59,-15.31 3.26,0 3.91,0.53 6.48,0.59 0.53,6.34 3.12,6.58 -1.17,14.71l0 0.01zm-8.24 -16.48l0 18.84 8.83 0c4.04,0 10.13,-20.6 -5.3,-20.6 -2.38,0 -3.53,-0.33 -3.53,1.77l0 -0.01z"/>
      <path class="fil0" d="M1494.09 221.5c0,2.71 0.25,4.14 2.36,4.7 0,-2.36 0.02,-4.72 -0.01,-7.07 -0.03,-3.16 -0.64,-4.54 1.18,-5.88 0.2,0.87 7.36,17.32 8.77,11.22 0.89,-3.86 0.65,-12.17 0.65,-16.52 0,-1.78 -0.69,-1.62 -2.36,-1.77 0,4.63 0.29,9.17 -0.59,12.95 -2.15,-2.47 -2.66,-4.13 -4.12,-7.06 -2.1,-4.23 -2.11,-5.8 -5.89,-5.89l0 15.31 0 0z"/>
      <path class="fil0" d="M998.7 215.64l-6.08 -0.01c0.88,-3.8 0.59,-2.5 0.59,-7.06l5.89 0.59 -0.39 6.49 0 0zm-8.44 -8.26l0 18.84 2.36 0 0 -7.65c7.49,0 3.28,4.44 7.68,7.15 0.16,0.1 0.53,1.55 1.27,-0.17 0.25,-0.59 -0.01,-1.3 -0.43,-2.46 -0.68,-1.94 -1.26,-3.01 -2.06,-4.52 2.94,-4.4 4.41,-6.25 1.17,-12.36 -8.13,0 -10.01,-1.34 -10.01,1.17l0.01 0z"/>
      <path class="fil0" d="M1375.78 224.45c-6.27,0 -5.3,-3.58 -5.3,-10.59 0,-8.48 8.83,-7.14 8.83,-0.59 0,3.1 -0.07,11.18 -3.53,11.18zm-8.24 -7.65c0,6.18 3.94,13.26 10.6,9.43 4.92,-2.82 7.37,-20.61 -4.13,-20.61 -4.66,0 -6.48,6.42 -6.48,11.18z"/>
      <path class="fil0" d="M1317.52 226.21c1.34,-2.79 1.17,-5.62 1.17,-8.83 7.43,0 7.06,-0.62 7.11,3.49 0.03,3.09 -0.02,2.89 0.54,5.35 2.25,-0.6 1.35,-0.05 1.97,-2.14 0.61,-2.06 0.38,-9.95 0.38,-12.57 0,-2.88 -0.62,-4.14 -2.36,-5.3 -0.94,4.02 -0.59,3.42 -0.59,8.24l-7.06 0c0,-3.99 0.64,-7.45 -2.36,-8.24 -1.69,3.53 -0.99,11.51 -0.51,15.82 0.24,2.11 0.26,3.15 1.69,4.2l-0 0z"/>
      <path class="fil0" d="M1195.68 215.03c-1.73,0.41 -4.61,1.03 -6.48,1.17 1.13,-2.01 0.59,-5.31 0.59,-7.65l5.3 0.59c0.98,2.04 1.58,3.67 0.59,5.89l0 -0zm-9.42 -2.36c0,9.4 -0.6,5.93 1.17,13.54l1.77 -7.65c8.54,0 2.7,7.1 9.42,7.65 -5.99,-12.48 0,-7.22 0,-14.71 0,-3.38 -1.62,-2.56 -2.36,-5.3l-9.42 0c0,2.98 -0.59,3.2 -0.59,6.48z"/>
      <path class="fil0" d="M1254.53 224.45l-4.7 0c-0.28,-1.18 -7.12,-16.48 3.53,-16.48 2.85,0 5.38,10.2 1.17,16.48zm-9.42 -10.01c0,8.42 -0.01,12.36 8.83,12.36 6.19,0 8.37,-21.19 -1.17,-21.19 -5.46,0 -7.65,3.35 -7.65,8.83l-0.01 -0.01z"/>
      <path class="fil0" d="M940.83 217.97c0,-9.61 2.22,-10.01 5.89,-10.01 4.63,0 5.02,16.48 -0.59,16.48 -3.46,0 -5.3,-3.19 -5.3,-6.48l0 0zm-2.36 -2.94c0,6.54 0.33,11.78 8.24,11.78 8.68,0 6.95,-21.19 1.17,-21.19l-4.7 0c-2.59,0 -4.7,6.59 -4.7,9.42l0 -0.01z"/>
      <path class="fil0" d="M1483.5 210.91c1.78,1.31 2.36,4.63 2.36,7.65l-4.12 0c0.6,-2.56 1.69,-4.58 1.77,-7.65l-0.01 0zm-5.89 15.31c2.97,-0.69 2.82,-1.68 3.53,-4.7l5.89 0c0.58,2.45 0.62,4.1 2.94,4.7 1.12,-4.68 -0.05,-4.2 -2,-12.13 -0.42,-1.7 -0.77,-3.62 -1.33,-5.14 -0.87,-2.35 -1.23,-2.32 -3.14,-3.33 -2.75,5.19 -5.89,14.61 -5.89,20.6l-0.01 0z"/>
      <path class="fil0" d="M1135.64 215.03c-2.59,0.06 -2.75,0.59 -5.89,0.59 0,-5.46 0.32,-3.85 0.59,-7.06 3.14,0 3.29,0.53 5.89,0.59 0,3.14 -0.52,3.27 -0.59,5.89zm-8.83 2.36c0,9.16 -0.71,8.74 2.94,8.83l0 -7.65c8.19,0 9.42,-2.65 9.42,-8.83 0,-3.45 -6.27,-4.12 -10.01,-4.12 -2.55,0 -1.64,2.44 -1.95,5.12 -0.23,1.99 -0.41,3.77 -0.41,6.66l0 -0.01z"/>
      <path class="fil0" d="M1555.3 226.81c5.34,0 5.08,-1.46 5.76,-3.07 1.3,-3.07 3.09,-16.43 -1.06,-17.54l-1.06 16.01c-0.78,1.67 0.44,0.44 -1.44,1.5 -6.62,3.75 -4.91,-7.85 -5.14,-12.22 -0.12,-2.27 -0.59,-2.88 -0.59,-5.29 -3.64,0.97 -2.8,8.33 -2.46,11.29 0.54,4.85 0.95,9.31 5.99,9.31l0 0.01z"/>
      <path class="fil0" d="M1215.11 211.5c0.25,2.98 1.52,4.08 1.77,7.06l-4.12 0c0.21,-2.56 0.7,-5.85 2.36,-7.06l-0.01 0zm-7.06 14.71c2.3,-0.19 3.24,-1.17 3.53,-4.7l6.48 0c0,3.1 -0.02,4.46 2.94,4.7 0,-4.91 -2.68,-18.06 -6.48,-20.6 -2.56,2.22 -2.52,4.87 -3.87,9.67 -0.82,2.92 -2.54,8.14 -2.61,10.93l-0 0z"/>
      <path class="fil0" d="M1026.76 210.91c0.05,1.94 1.14,6.35 1.77,7.65l-4.7 0c1.25,-2.61 0.78,-6.07 2.94,-7.65l-0.01 0zm-7.06 12.95c0,1.34 0.2,0.69 0.59,2.36l1.17 0c0.52,-2.25 1.24,-2.46 1.77,-4.7l5.89 0c1.33,2.78 -0.54,4.37 3.53,4.7 0,-6.6 -3.54,-16.17 -5.89,-20.6 -3.15,2.11 -3.29,3.68 -4.37,8 -0.39,1.58 -2.7,9.86 -2.7,10.24l0 0z"/>
      <path class="fil0" d="M1147.42 211.5c0.07,2.94 1.12,4.12 1.17,7.06l-4.12 0c0.53,-2.27 1.31,-5.87 2.94,-7.06zm-7.06 13.54c0,1.07 -0.03,0.07 0.59,1.17 1.88,-0.5 0.99,0.05 1.91,-1.62 0.2,-0.38 0.86,-2.3 1.04,-3.08l5.89 0c0.68,2.92 0.15,3.96 2.94,4.7 1.24,-2.57 -1.15,-7.96 -1.9,-11.06 -1.13,-4.68 -0.78,-7.01 -4.58,-9.54 -2.37,4.48 -5.89,14.95 -5.89,19.43l0 -0z"/>
      <path class="fil0" d="M897.86 208.55c0,19.96 -1.16,18.24 7.06,18.24 2.18,0 2.66,-0.58 3.53,-1.77 -0.89,-0.43 -6.31,-1.06 -7.65,-1.17l0 -6.48 5.3 0c2.25,0 0.21,0.18 1.77,-0.59 -0.7,-2.99 0.18,-2.36 -7.06,-2.36l0 -5.89 7.65 0c-0.09,-4.06 -0.5,-2.94 -10.01,-2.94 -0.3,1.32 -0.59,1.35 -0.59,2.94l-0.01 0.01z"/>
      <path class="fil0" d="M1447.59 211.5l1.42 3.28c0.52,1.56 0.79,2.08 0.92,3.78l-4.12 0c0.55,-2.37 1.22,-4.69 1.77,-7.06l0 0zm-1.17 10.01l4.7 0c0.07,2.94 0.56,4.07 2.94,4.7 0.56,-1.18 -2.1,-17.67 -6.48,-20.6 -2.02,3.01 -7.45,19.6 -5.62,20.33 2.62,1.04 1.68,-4.43 4.44,-4.43l-0 0z"/>
      <path class="fil0" d="M1359.3 215.62l-3.53 0 0 -7.06c6.35,0 5.37,-0.38 5.97,2.28 0.18,0.8 0.44,2.73 0.51,3.61 -2.49,0.67 -1.03,1.17 -2.94,1.17l0 0zm-6.48 -9.42c0,6.41 -0.99,15.49 1.17,20.01 2.14,-1.57 1.77,-4.05 1.77,-7.65 4.3,-1 8.35,0.03 9.23,-4.92 0.28,-1.62 -0.3,-4.41 -1.12,-5.54 -2.76,-3.84 -8.55,-2.15 -11.06,-1.9l0 -0.01z"/>
      <path class="fil0" d="M1279.25 215.03c0,5.22 2.81,11.78 4.7,11.78 3.58,0 4.3,-0.59 7.65,-0.59l0.59 -10.59 -5.3 0c0.99,3.7 3.62,0.88 1.77,8.83 -8.39,1.95 -7.54,-10.02 -4.12,-16.48 2.8,0 5.12,0.35 7.06,-0.59 -3.71,-5.07 -12.36,-1.65 -12.36,7.65l0.01 -0.01z"/>
      <path class="fil0" d="M1165.66 215.03l-5.89 0.59 0 -7.06c1.4,0 9.39,-1.34 5.89,6.48zm-8.83 -8.83l0 16.48c0,2.18 0.58,2.66 1.76,3.53 0.38,-1.65 0.77,-1.78 1.03,-3.09 0.28,-1.47 0.15,-3.06 0.15,-4.56 4.44,-1.04 8.4,0.2 9.22,-4.92 1.71,-10.74 -11.53,-7.46 -12.16,-7.43l0.01 -0.01z"/>
      <path class="fil0" d="M1701.85 206.21l0 18.84c0,2.46 2.04,1.77 7.06,1.77 2.18,0 2.66,-0.58 3.53,-1.77l-7.64 -1.31 -0.02 -6.35c3.47,0 5.14,0.44 5.89,-2.36l-5.87 -0.7 -0.01 -5.78c3.81,0 5.08,0.47 7.65,-1.77 -2.09,-0.17 -4.64,-1.17 -6.48,-1.17 -2.13,0 -1.41,0.52 -4.12,0.59l0 0.01z"/>
      <path class="fil0" d="M1172.14 206.21l0 20.01 8.83 0.59c2.25,0 0.21,0.18 1.77,-0.59 -0.98,-2.45 -4.26,-1.76 -8.24,-1.76 0,-3.58 0.59,-4.3 0.59,-7.65l5.89 0 0 -2.36 -5.89 0 0 -5.89c3.24,0 6.05,0.43 7.65,-1.77 -4.29,-2.06 -7.41,-0.92 -10.59,-0.59l-0.01 0z"/>
      <path class="fil0" d="M1653.59 206.21l0 20.01c2.52,0.21 8.97,2.13 10.01,-1.76 -3.58,0 -4.72,-0.59 -7.65,-0.59 0,-4.92 0.35,-3.62 0.59,-6.48 3.14,0 3.29,-0.53 5.89,-0.59l0 -1.77c-2.99,0 -3.2,-0.59 -6.48,-0.59 0,-4.44 0.37,-3.29 0.59,-5.89 3.86,0 5.34,0.59 7.06,-1.77 -9.51,-2.21 -5.16,-0.71 -10.01,-0.59l-0 0z"/>
      <path class="fil0" d="M1075.6 206.21l-0.06 16.53c-0.03,4.59 -0.41,4.07 5.93,4.07 2.45,0 3.68,-0.36 4.7,-1.77 -2.61,-0.06 -4.16,-0.59 -7.65,-0.59 -2.2,-4.58 -0.67,-4.28 -0.59,-7.65 4.56,0 4.43,0.43 6.48,-0.59 -1.21,-2.28 1.11,-1.77 -6.48,-1.77 0.95,-1.68 0.59,-2.98 0.59,-5.89 4.4,0 5.93,0.58 7.65,-1.77 -2.68,-0.62 -6.7,-2.1 -10.59,-0.59l0.01 0.01z"/>
      <path class="fil0" d="M1632.41 211.5c0,8.88 10.67,1.92 8.24,12.36 -2.43,0.56 -6.51,0.35 -8.24,1.17 2.94,4.39 11.18,1.91 11.18,-3.53 0,-9.65 -8.24,-3.46 -8.24,-11.18 0,-1.81 1.73,-2.36 3.53,-2.36 3.14,0 1.97,2.02 4.12,-1.17 -4.61,-2.44 -10.59,-2.39 -10.59,4.7l-0 -0z"/>
      <path class="fil0" d="M1006.16 226.21c3.27,0.27 8.96,2.14 10.01,-1.76 -3.56,0 -4.99,-0.37 -7.65,-0.59l0 -6.48c3.26,0 3.91,-0.53 6.48,-0.59l0 -1.77 -6.48 -0.59 0 -5.89c4.4,0 5.93,0.58 7.65,-1.77 -4.26,-0.99 -3.25,-1.17 -8.24,-1.17 -2.05,0 -1.81,1.44 -1.83,3.46l0.07 17.14 -0.01 0z"/>
      <path class="fil0" d="M1565.31 210.32c0,8.28 6.8,4.78 8.48,9.83 0.64,1.91 0.5,0.67 -1.42,4.3 -3.58,0 -5.7,-0.56 -6.48,2.36 2.38,0 5.2,0.29 7.33,-0.32 1.66,-0.47 3.85,-2.46 3.85,-3.8 0,-10.2 -8.79,-5.39 -9.42,-12.95 1.14,-0.6 2.14,-1.17 3.78,-1.52 2.37,-0.5 2.5,0.1 4.47,-0.83 -2.65,-3.62 -10.59,-1.56 -10.59,2.94l0 -0z"/>
      <path class="fil0" d="M1617.69 213.86c8.09,5.41 8.83,3.33 8.83,8.24 0,4.67 -5.39,-0.14 -8.24,4.12 4.33,2.08 11.18,0.61 11.18,-4.7 0,-9.03 -8.83,-2.58 -8.83,-12.36 1.4,-0.33 2.5,-0.82 3.69,-1.02 2.5,-0.41 2.5,0.23 4.55,-0.76 -1.49,-2.02 -3.65,-1.77 -6.48,-1.77 -5.44,0 -3.06,4.81 -4.7,8.24l0 0.02z"/>
      <path class="fil0" d="M955.54 210.32c0,8.75 7.17,4.08 8.83,11.18 -0.65,5.09 -7.05,0.86 -8.24,5.3 6.55,0 9.3,0.58 10.4,-3.15 0.24,-0.79 0.63,-3.54 0.6,-3.87 -0.47,-4.6 -9.23,-4.82 -9.23,-8.87 0,-3.7 5.71,-2.31 8.24,-3.53 -2.28,-3.11 -10.59,-2.34 -10.59,2.94l-0.01 -0.01z"/>
      <path class="fil0" d="M1120.34 220.92c0,1.59 -0.28,1.62 -0.59,2.94 -4.32,1 -6.49,-0.26 -7.65,2.94 9.15,0 10.59,0.92 10.59,-6.48 0,-5.76 -6.2,-4.92 -8.83,-8.83 0.42,-1.81 0.91,-2.27 1.77,-3.53 2.74,0 4.55,0.34 6.48,-0.59 -3.1,-4.23 -13.45,-1.14 -9.62,6.67 1.55,3.15 7.86,3.28 7.86,6.87l-0.01 0z"/>
      <path class="fil0" d="M880.79 215.62l0.59 10.59 1.77 0 0 -9.42 8.24 0c0,4.92 -0.37,4.73 0.59,8.83l1.77 0c0,-3.75 -0.62,-4.92 -0.6,-8.81 0.01,-3.34 0.01,-6.68 0.01,-10.02 -1.27,1.84 -1.77,5.05 -1.77,7.65l-7.65 0c0,-4.82 0.35,-4.22 -0.59,-8.24l-1.17 0c-0.28,3.37 -1.17,5.28 -1.17,9.42l-0.01 -0.01z"/>
      <path class="fil0" d="M1332.23 226.81l7.95 -0.29c2.78,-0.63 1.39,0.24 2.64,-1.48 -3.37,0 -4.47,-0.59 -8.24,-0.59l0 -7.65 6.48 -0.59c-1.21,-2.28 1.11,-1.77 -6.48,-1.77 0,-3.14 0.53,-3.29 0.59,-5.89 3.01,0 5.51,0.36 7.06,-1.77 -2.06,-1.16 -7.43,-0.59 -10.01,-0.59l0 20.6 0 0.01z"/>
      <path class="fil0" d="M1604.15 206.21l0 19.43c3.85,0 5.72,0.59 10.01,0.59 -1.73,-2.36 -3.2,-1.76 -7.06,-1.76 -2.2,-4.58 -0.67,-4.28 -0.59,-7.65 4.56,0 4.43,0.43 6.48,-0.59 -1.43,-2.7 0.29,-1.16 -1.82,-1.71 -0.56,-0.15 -3.29,-0.06 -4.07,-0.06l0 -5.89c2.71,0 3.97,0.29 5.91,-0.56 0.86,-0.38 1.18,-0.71 1.75,-1.2 -2.68,-0.62 -6.7,-2.1 -10.59,-0.59l-0.01 -0.01z"/>
      <path class="fil0" d="M1425.23 216.21c0,3.53 0.96,7.76 3.76,9.78 2.92,2.11 6.57,1.49 9.19,0.23 -0.65,-1.53 -0.62,-0.26 0,-1.76l-7.65 0c-2.75,-4.11 -2.36,-5.83 -2.36,-11.18 0,-5.38 5.13,-4.88 9.42,-5.89 -2.7,-3.68 -12.36,-2.57 -12.36,8.83l0 -0.01z"/>
      <path class="fil0" d="M1667.72 207.97c0,18.9 -1.9,18.84 6.48,18.84 2.39,0 3.05,-0.54 3.53,-2.36 -3.21,-0.27 -1.6,-0.59 -7.06,-0.59l0.6 -10.01c0.01,-2.43 -0.98,-5.27 -1.18,-7.65 -1.66,0.14 -2.36,-0.01 -2.36,1.77l0 -0.01z"/>
      <path class="fil0" d="M1385.2 222.09l0 4.12c4.2,0 6.13,0.59 10.59,0.59 -2.39,-3.56 -2.78,-2.94 -7.65,-2.94l0 -13.54c0,-2.14 -0.7,-2.06 -1.17,-4.12 -3.5,2.56 -1.77,10.73 -1.77,15.9z"/>
      <path class="fil0" d="M1301.62 206.79c1.04,1.42 1.17,1.57 3.53,1.77 0,4.28 0.38,14.26 1.17,17.66 4.05,-1.08 1.5,-8.13 1.77,-10.59l0.7 -7.05c2.25,-0.21 2.38,-0.36 3.42,-1.78 -3.34,-1.6 -7.28,-1.65 -10.59,0l-0 0z"/>
      <path class="fil0" d="M1687.73 207.38c5.85,1.37 4.12,2.96 4.12,18.84 3.28,-0.07 2.99,0.81 2.94,-7.06 -0.02,-3.53 0,-7.06 0,-10.59 1.84,-0.43 2.79,-0.6 4.12,-1.77 -3.2,-0.74 -8.83,-2.62 -11.18,0.59l-0 0z"/>
      <path class="fil0" d="M870.78 219.15c0,3.44 0.08,5.54 2.36,7.06l0.59 -17.07c1.97,-0.46 3.09,-0.95 4.12,-2.36 -2.66,-1.27 -14.42,-2.31 -10.69,1.14 2,1.84 2.44,-0.74 3.94,1.52 0.56,0.85 -0.32,7.54 -0.32,9.7l0.01 -0z"/>
      <path class="fil0" d="M970.25 208.55c2.46,-0.06 2.81,-0.94 3.68,0.44 0.88,1.38 0.44,15.02 0.44,17.23 2.89,-0.68 2.4,0.24 2.36,-7.06 -0.02,-3.33 0,-6.68 0,-10.01 1.4,-0.73 2.4,-1.37 4.12,-1.77 -1.47,-2.01 0.47,-0.58 -2.17,-1.37l-7.25 -0.41c-2.3,0 -1.34,1.02 -1.17,2.94l-0 0z"/>
      <path class="fil0" d="M1405.22 206.79l4.11 2.38 0.01 17.05c5.14,-1.38 1.95,-10.47 2.36,-14.67 0.56,-5.76 3.05,-1.35 4.12,-5.35 -2.44,-0.06 -2.56,-0.69 -5.05,-0.38 -1.88,0.24 -3.85,0.82 -5.54,0.97l0 0z"/>
      <path class="fil0" d="M1458.18 221.5l0 4.7c3.85,0 5.72,0.59 10.01,0.59 -0.55,-2.36 -0.34,-2.94 -7.06,-2.94 -1.47,-9.98 -0.36,-5.16 -0.01,-11.24 0.15,-2.46 -0.7,-4.42 -1.17,-6.42l-1.77 15.31 0.01 0z"/>
      <path class="fil0" d="M1580.61 209.14c0,7.07 -1.24,14.67 2.36,17.07 0.89,-10.75 0.89,-9.26 0,-20.01l-1.77 0c-0.3,1.32 -0.59,1.35 -0.59,2.94z"/>
      <path class="fil0" d="M1681.84 210.32l0 14.12c0,2.25 -0.18,0.21 0.59,1.76 3.19,-2.14 2.36,-7.74 2.36,-12.95 0,-3.14 -0.53,-5.73 -2.36,-7.06 -0.16,1.84 -0.59,2.09 -0.59,4.12l0 0.01z"/>
      <path class="fil0" d="M1421.1 226.21c1.23,-2.55 0.28,-7.54 0.83,-10.94 0.52,-3.21 1.3,-8.19 -2.01,-9.07 -0.36,4.33 -1.41,5.72 -0.74,10.14 0.41,2.73 -0.19,7.1 0.36,8.48 0.91,2.27 -0.16,0.76 1.56,1.38l0 0.01z"/>
      <path class="fil0" d="M1398.74 214.44c0,3.75 -0.26,9.86 2.36,11.77 0.36,-1.56 0.52,-1.92 0.78,-3.96l-0.41 -14.64c-0.99,-2.34 0.3,-0.73 -1.55,-1.41 -0.79,1.64 -1.17,5.65 -1.17,8.24l-0.01 0.01z"/>
     </g>
    </g>
   </g>
  </g>
  <polygon class="fil1" points="-0,0 1806.91,0 1806.91,604.3 -0,604.3 "/>
 </g>
</svg>
