<?xml version="1.0" encoding="UTF-8"?>
<!DOCTYPE svg PUBLIC "-//W3C//DTD SVG 1.1//EN" "http://www.w3.org/Graphics/SVG/1.1/DTD/svg11.dtd">
<!-- Creator: CorelDRAW -->
<svg xmlns="http://www.w3.org/2000/svg" xml:space="preserve" width="16.0908in" height="5.38137in" version="1.1" style="shape-rendering:geometricPrecision; text-rendering:geometricPrecision; image-rendering:optimizeQuality; fill-rule:evenodd; clip-rule:evenodd"
viewBox="0 0 13304.57 4449.54"
 xmlns:xlink="http://www.w3.org/1999/xlink"
 xmlns:xodm="http://www.corel.com/coreldraw/odm/2003">
 <defs>
  <style type="text/css">
   <![CDATA[
    .fil2 {fill:none}
    .fil1 {fill:#B3B3B3}
    .fil0 {fill:white}
   ]]>
  </style>
   <clipPath id="id0">
    <path d="M-0 0l13304.57 0 0 4449.54 -13304.57 0 0 -4449.54z"/>
   </clipPath>
 </defs>
 <g id="Layer_x0020_1">
  <metadata id="CorelCorpID_0Corel-Layer"/>
  <g>
  </g>
  <g style="clip-path:url(#id0)">
   <g>
    <g id="_105553259039680">
     <path class="fil0" d="M1475.01 1803.25c-2.56,16.86 4.59,-1.49 -7.26,19.2 -3.52,6.19 -6.72,9.71 -12.05,16.86l-153.42 214.76c-3.31,16.96 -62.41,96.55 -78.63,119.81 -17.92,25.71 -62.52,101.46 -84.18,114.69 -3.63,22.19 -138.8,210.6 -151.07,217.64 -3.84,26.57 -29.77,49.93 -45.98,74.68 -15.26,23.15 -31.47,52.07 -51.1,67.85 -5.76,21.12 -74.15,114.79 -92.82,141.15 -17.18,24.32 -32.22,48.12 -49.5,71.91 -15.9,21.87 -33.71,45.98 -45.77,69.24l346.41 196.63c9.07,-17.92 74.58,-111.7 86.95,-117.78 9.92,-26.57 61.56,-94.74 84.82,-126.96 4.16,-5.65 10.46,-14.62 14.72,-20.06 2.35,-2.99 4.91,-6.19 7.47,-8.85 9.07,-9.81 4.48,-4.38 7.58,-6.83 5.65,-14.83 118,-182.97 133.25,-187.98 14.19,-33.29 54.41,-82.9 77.13,-114.16l228.63 -325.18c0.75,1.18 1.49,2.99 1.81,3.95 10.67,32.75 3.73,534.93 5.01,576.01l0.64 7.47 512.53 -2.13c6.4,-23.79 41.39,-70.84 58.25,-86.42l138.91 -203.99c0.53,-0.53 2.03,-2.03 2.45,-2.45 0.43,-0.43 1.6,-1.6 2.45,-2.35 3.09,-6.51 135.39,-208.58 155.77,-225.86 11.42,-24.22 34.03,-53.66 49.18,-75.43 9.71,-13.87 15.15,-21.23 23.9,-33.82l19.31 -26.14c8.32,-8.85 4.69,-4.59 7.68,-6.72 10.24,-28.49 29.02,-46.3 46.3,-72.97 10.88,-16.86 32.86,-54.2 47.48,-63.27 12.91,-28.91 24.96,-42.67 44.81,-69.99 13.97,-19.31 28.59,-54.62 47.05,-62.94 12.27,-28.7 34.03,-55.58 52.07,-80.87 9.18,-12.91 16.75,-23.15 26.14,-37.45 7.26,-11.09 14.62,-26.89 25.93,-32.01 13.87,-32.11 45.13,-71.16 66.36,-101.14 12.27,-17.28 59.85,-83.32 65.61,-101.25l-6.08 -4.91c-6.83,-5.01 -3.41,-2.67 -9.92,-6.93 -8.11,-5.34 -10.99,-7.26 -21.66,-13.01 -49.08,-26.78 -264.48,-152.99 -296.8,-163.98 -24.43,0 -30.83,22.19 -41.39,37.77 -12.91,18.99 -22.19,31.9 -33.29,47.69 -21.76,30.73 -45.66,67.11 -67.53,93.03 -16.75,27.31 -102.21,153.63 -121.31,164.19 -3.84,23.36 -92.28,140.08 -113.3,168.89l-23.79 26.89c-3.84,18.14 -101.35,148.29 -120.66,175.71 -18.99,26.89 -110.32,165.15 -127.06,174.43l-9.07 16.86 -1.81 -261.71 0.11 -160.03 -0.21 -164.09 -93.67 -2.88 -221.38 0 -193.53 0.53 -112.55 154.81 0.1 -0.11z"/>
     <path class="fil0" d="M9874.22 2751.6c-64.23,0 -121.41,11.42 -121.41,-109.89l0 -399.01c82.04,0 176.46,-2.67 238.77,61.99 96.87,100.5 102.53,446.92 -117.36,446.92l-0 0zm-80.98 -566.73l-40.43 0 0 -364.34c0,-67.53 25.61,-86.74 92.5,-86.74 102.95,0 138.48,53.34 157.58,137.42 18.46,81.51 10.77,206.66 -37.55,260.1 -29.23,32.43 -110.1,53.56 -171.98,53.56l-0.11 0zm-456.84 -474.23c0,56.54 150.32,-51.64 150.32,173.47l0 722.81c0,225.11 -150.32,116.93 -150.32,173.47l0 28.91 595.64 0c87.06,0 201.43,-33.29 257.01,-66.79 194.39,-117.36 195.88,-315.8 85.67,-426.33 -49.82,-49.93 -151.18,-106.79 -221.27,-108.29l0 -17.39c98.79,-8.22 237.06,-100.29 237.06,-231.3 0,-211.78 -210.82,-277.6 -387.49,-277.6l-566.73 0 0 28.91 0.11 0.1z"/>
     <path class="fil0" d="M6277.24 1739.56c108.08,2.45 134.64,111.17 176.78,216.47l263.41 725.48c15.68,47.05 39.47,99.97 51.42,151.07l28.91 0 223.08 -615.38c10.46,-26.99 17.71,-70.09 37.13,-84.28 1.92,22.62 120.56,316.54 132.19,347.8 11.31,30.62 20.91,52.7 31.9,83.75l96.13 268.21 28.91 0c27.63,-118.74 159.07,-464.95 200.25,-586.14l103.81 -289.44c18.35,-47.37 31.36,-100.93 52.7,-143.92 19.53,-39.26 67.11,-72.12 123.23,-73.4l0 -34.67 -335.42 0 0 34.67c168.03,0 119.92,110.42 68.6,247.83l-154.59 417.9c-10.46,28.91 -22.3,54.84 -29.55,86.1 -8,-9.28 -5.65,-6.51 -10.88,-18.03l-56.33 -146.05c-10.99,-31.05 -20.59,-53.13 -31.9,-83.75 -21.66,-58.68 -161.1,-395.92 -161.1,-434.54 0,-71.38 41.82,-69.35 121.41,-69.35l0 -34.67 -451.08 0 0 34.67c145.52,0 139.23,68.81 205.7,233.75 22.94,56.97 22.3,47.05 0,104.98l-115.65 306.51c-9.28,24.43 -29.87,84.71 -43.85,100.71l-226.39 -594.78c-40.33,-99.65 -53.66,-151.18 81.83,-151.18l0 -34.67 -410.53 0 0 34.67 -0.11 -0.32z"/>
     <path class="fil0" d="M10556.59 1861.08c0,186.81 -12.91,161.95 52.07,161.95 15.79,-189.8 112.66,-283.36 318.04,-283.36l0 896.39c0,187.66 -161.95,93.89 -161.95,144.56l0 28.91 601.4 0c0,-94.42 -41.72,-13.44 -125.04,-65.83 -32.22,-20.27 -42.67,-70.2 -42.67,-119.28l0 -884.76c355.06,0 284,283.36 335.42,283.36l34.67 0 0 -341.19 -1006.17 0c0,66.68 -5.76,111.92 -5.76,179.24l0 0z"/>
     <path class="fil0" d="M11557 2254.33c0,239.94 112.66,437.74 335.42,537.71 211.99,95.06 476.15,65.08 646.21,-105.51 24.65,-24.75 71.16,-65.61 88.23,-91.11l-52.07 -40.43c-39.69,26.57 -73.51,82.79 -147.02,130.48 -157.15,101.99 -402.21,119.28 -504.63,-86.1 -91.97,-184.46 -82.36,-517.01 -9.28,-705.42 37.23,-96.23 96.13,-158.86 215.19,-172.3 121.94,-13.76 209.96,39.37 273.87,103.17 48.33,48.33 85.35,110.21 119.7,169.42 33.39,57.61 9.28,57.61 75.43,57.61l0 -393.25 -52.07 0c-10.77,128.98 -150.96,53.24 -220.42,29.66 -215.83,-73.3 -447.98,-10.88 -602.15,142.43 -45.34,45.13 -91.86,112.34 -117.57,177.32 -29.02,73.3 -48.65,163.66 -48.65,246.34l-0.21 0z"/>
     <path class="fil0" d="M3940.99 1722.28c0,34.67 49.08,4.27 96.13,36.91 14.08,9.71 65.83,57.19 65.83,72.97l0 792.26c0,200.14 -161.95,116.82 -161.95,167.71l0 17.39 399.01 0c0,-82.9 -112.13,13.01 -146.05,-125.78 -19.53,-79.8 -10.13,-649.94 -10.13,-758.98 14.62,9.81 33.18,37.34 45.45,52.81l93.24 114.9c15.15,19.42 31.05,38.41 46.3,57.82l508.05 631.16c42.25,51.85 33.61,51.21 70.2,51.21l0 -861.61c0,-50.78 6.19,-143.17 23.15,-173.47 19.53,-34.89 84.07,-57.82 138.8,-57.82l0 -34.67 -399.01 0c0,55.8 9.71,23.26 84.28,48.76 35.42,12.05 48.12,23.47 59.74,55.9 31.15,87.48 17.92,579.1 17.92,693.36 -140.29,-161.42 -338.31,-425.04 -481.27,-600.12 -27.74,-33.93 -53.45,-66.15 -79.59,-99.65 -11.52,-14.72 -67.96,-98.26 -86.74,-98.26l-283.36 0 0 17.39 -0 -0.21z"/>
     <path class="fil0" d="M5242.15 1739.56c85.99,0 144.56,20.27 144.56,115.65l0 798.02c0,92.18 -39.58,121.41 -144.56,121.41l0 34.67 907.91 0 52.7 -207.51c5.65,-18.99 16.11,-51.96 16.64,-75.85 -69.03,0 -35.31,-6.61 -90.58,82.9 -98.69,159.71 -283.9,131.12 -487.67,131.12 -62.63,0 -80.98,-18.35 -80.98,-80.98l0 -393.25c375.11,0 393.14,-36.91 439.45,161.95l40.43 0 0 -393.25 -40.43 0c-45.98,197.27 -67,161.95 -439.45,161.95l0 -370.1c0,-48.65 21.55,-57.82 69.35,-57.82 86.31,0 326.46,-8.54 388.66,27.74 48.44,28.16 62.52,102.31 73.93,151.6l46.3 0 -5.76 -242.93 -890.52 0 0 34.67 0 0.01z"/>
     <path class="fil0" d="M8179.8 1965.1c0,54.73 4.05,85.46 32.75,134.96 8.85,15.26 18.56,25.93 29.13,40.22 41.08,55.8 135.17,107.97 195.88,145.31 56.76,34.89 113.62,69.35 164.41,107.43 84.6,63.59 109.89,96.98 109.89,202.39 0,201.32 -332.01,264.48 -487.67,-15.47 -10.24,-18.46 -18.56,-36.17 -27.1,-53.77 -26.57,-54.41 -4.69,-52.17 -63.48,-52.17 0.53,26.03 8.54,62.84 12.59,91.54l31.69 228.52c3.95,33.07 -4.59,38.51 30.94,38.51 48.01,0 -23.15,-86.1 119.06,-43.85l60.81 20.06c251.57,77.99 496.63,-52.49 496.63,-271.09 0,-104.13 -23.69,-153.2 -93.99,-224.05 -42.25,-42.57 -114.48,-91.54 -166.54,-122.58 -30.83,-18.35 -57.19,-36.27 -88.87,-55.69 -91.43,-56.01 -205.7,-114.37 -205.7,-233.75 0,-97.73 81.83,-150.32 167.71,-150.32 45.13,0 83.32,15.68 115.75,28.81 104.45,42.14 182.76,164.94 190.76,260.32 69.99,0 40.22,10.03 28.7,-161.74l-16.64 -156.83c-1.6,-34.89 5.34,-40.01 -29.34,-40.01 -35.21,0 0.75,52.07 -69.35,52.07 -61.13,0 -267.15,-135.49 -452.57,27.42 -19.31,16.96 -48.12,59 -59.74,84.82 -16.11,35.74 -25.5,69.67 -25.5,119.06l-0.2 -0.11z"/>
     <g>
      <path class="fil1" d="M679.44 2051.83l0 137.84 0 171.45 0 138.8 0 159.18 0 95.7c0,31.69 0.11,63.37 0,95.17 -0.11,43.63 -11.09,72.12 23.69,80.98 12.05,-23.36 29.87,-47.37 45.77,-69.24 17.28,-23.79 32.32,-47.58 49.5,-71.91 18.56,-26.35 87.06,-119.92 92.82,-141.15 19.63,-15.68 35.95,-44.7 51.1,-67.85 16.22,-24.65 42.04,-48.01 45.98,-74.68 12.16,-7.04 147.44,-195.45 151.07,-217.64 21.66,-13.12 66.25,-88.98 84.18,-114.69 16.22,-23.26 75.32,-102.85 78.63,-119.81l153.42 -214.76c5.34,-7.15 8.54,-10.67 12.05,-16.86 11.84,-20.7 4.69,-2.35 7.26,-19.2l112.55 -154.81 193.53 -0.53 221.38 0 93.67 2.88 0.21 164.09 -0.11 160.03 1.28 188.73 -0.64 10.13c-1.28,21.02 -8.85,45.98 10.13,45.98 16.75,-9.28 108.08,-147.55 127.06,-174.43 19.31,-27.42 116.82,-157.58 120.66,-175.71l23.79 -26.89c21.02,-28.81 109.46,-145.52 113.3,-168.89 18.99,-10.56 104.55,-136.99 121.31,-164.19 21.87,-25.93 45.88,-62.31 67.53,-93.03 11.2,-15.79 20.38,-28.7 33.29,-47.69 10.56,-15.58 16.96,-37.77 41.39,-37.77 -11.52,-12.7 -25.07,-16.64 -40.43,-25.28 -18.56,-15.47 -52.7,-30.62 -77.03,-44.17 -21.45,-11.95 -57.4,-37.23 -79.16,-42.35 -4.8,-4.16 -9.5,-8.43 -16.11,-12.8l-128.45 -73.93c-24,-12.7 -54.94,-34.67 -81.83,-40.43 -9.92,-15.9 -10.46,-10.99 -29.66,-21.45 -15.15,-8.32 -20.7,-12.27 -36.81,-21.02 -22.08,-12.05 -49.93,-33.07 -73.19,-38.51 -11.74,-13.23 -119.7,-72.55 -129.09,-75.21 -21.76,-15.04 -70.52,-46.73 -96.02,-52.07 -8.11,-14.3 -64.12,-43.31 -72.65,-42.67l-323.16 183.18c-28.59,16 -54.3,29.02 -81.62,45.55 -143.82,86.84 -335.75,189.8 -486.6,276.75l-324.12 184.78 0 54.94 0 93.35 0 137.2 0 139.66 0 95.27 0.11 0zm653.46 1237.58l133.04 76.5c17.18,12.16 52.38,33.93 75.21,39.15 9.39,12.91 37.45,25.82 52.38,34.35 15.79,9.07 40.54,25.5 57.5,28.59 17.82,16.75 74.25,48.33 92.5,52.6 12.27,16.75 98.05,58.78 122.58,74.15 42.78,26.78 35.1,14.19 127.81,-37.77l946.85 -539.31c28.7,-16.54 54.84,-31.9 84.6,-48.44 31.69,-17.6 60.6,-31.47 88.55,-50.25l0 -117.25 0 -97.3 0 -167.18 0 -48.86 0 -126.85 0 -81.62 0 -137.95 0 -117.14 0 -70.63 0 -113.73 0 -94.74 0 -90.26c0,-26.03 -0.21,-52.17 0.21,-78.2 0.53,-38.19 6.72,-49.93 -24.22,-57.61 -5.76,17.92 -53.34,83.86 -65.61,101.25 -21.34,30.09 -52.49,69.03 -66.36,101.14 -11.31,5.12 -18.67,20.91 -25.93,32.01 -9.39,14.3 -16.96,24.54 -26.14,37.45 -17.92,25.39 -39.69,52.28 -52.07,80.87 -18.46,8.43 -33.07,43.74 -47.05,62.94 -19.74,27.31 -31.79,41.18 -44.81,69.99 -14.62,9.07 -36.59,46.41 -47.48,63.27 -17.28,26.67 -36.17,44.49 -46.3,72.97 -2.99,2.13 0.64,-2.13 -7.68,6.72l-19.31 26.14c-8.75,12.59 -14.19,19.95 -23.9,33.82 -15.15,21.76 -37.77,51.1 -49.18,75.43 -20.38,17.28 -152.67,219.35 -155.77,225.86 -0.85,0.75 -2.03,1.92 -2.45,2.35 -0.43,0.43 -1.92,1.92 -2.45,2.45l-138.91 203.99c-16.86,15.58 -51.85,62.63 -58.25,86.42l-512.53 2.13 -0.64 -7.47c-1.28,-41.18 5.65,-543.26 -5.01,-576.01 -0.32,-0.96 -0.96,-2.77 -1.81,-3.95l-228.63 325.18c-22.73,31.26 -62.94,80.87 -77.13,114.16 -15.26,4.91 -127.6,173.16 -133.25,187.98 -3.09,2.35 1.49,-2.99 -7.58,6.83 -2.56,2.67 -5.12,5.97 -7.47,8.85 -4.27,5.44 -10.67,14.4 -14.72,20.06 -23.36,32.22 -74.89,100.39 -84.82,126.96 -12.38,6.08 -77.78,99.86 -86.95,117.78 8.54,7.47 2.56,2.45 13.44,9.71 4.59,2.99 10.24,6.4 14.4,8.96 10.13,6.08 18.35,9.39 26.24,16.11 14.83,7.04 24.65,12.48 40.22,21.34 15.68,8.96 20.27,14.19 38.62,20.27 14.4,10.46 75,46.84 92.5,50.89 3.63,3.09 7.04,6.4 12.7,10.46 11.74,8.32 0.11,1.07 14.3,8.85 11.63,6.51 20.59,9.92 30.83,15.36l-0.1 0.22zm765.06 -1073.28l0.11 20.38 9.07 -16.86 -9.18 -3.52z"/>
     </g>
    </g>
   </g>
  </g>
  <polygon class="fil2" points="-0,0 13304.57,0 13304.57,4449.54 -0,4449.54 "/>
 </g>
</svg>
