<?xml version="1.0" encoding="UTF-8"?>
<!DOCTYPE svg PUBLIC "-//W3C//DTD SVG 1.1//EN" "http://www.w3.org/Graphics/SVG/1.1/DTD/svg11.dtd">
<!-- Creator: CorelDRAW -->
<svg xmlns="http://www.w3.org/2000/svg" xml:space="preserve" width="16.0908in" height="5.38137in" version="1.1" style="shape-rendering:geometricPrecision; text-rendering:geometricPrecision; image-rendering:optimizeQuality; fill-rule:evenodd; clip-rule:evenodd"
viewBox="0 0 3247.7 1086.15"
 xmlns:xlink="http://www.w3.org/1999/xlink"
 xmlns:xodm="http://www.corel.com/coreldraw/odm/2003">
 <defs>
  <style type="text/css">
   <![CDATA[
    .fil1 {fill:none}
    .fil0 {fill:white}
   ]]>
  </style>
   <clipPath id="id0">
    <path d="M-0 0l3247.7 0 0 1086.15 -3247.7 0 0 -1086.15z"/>
   </clipPath>
 </defs>
 <g id="Layer_x0020_1">
  <metadata id="CorelCorpID_0Corel-Layer"/>
  <g>
  </g>
  <g style="clip-path:url(#id0)">
   <g>
    <g id="_105553185041344">
     <g id="_105553191226304">
      <path class="fil0" d="M468.19 684.26l108.95 0c0.98,-4.17 1.79,-4.77 3.59,-8.52l74.26 -231.08c4.33,-13.62 7.72,-27.39 12.08,-40.38l13.64 -40.17c0.19,0.27 0.43,0.39 0.49,0.84l50.62 156.53 -64.57 0c-3.36,6.36 -25.85,82.51 -28.25,92.81 35.86,0 71.76,0.19 107.62,0 16.78,-0.09 14.66,-6.66 24.77,29.02l12.88 40.93 114.33 0 -19 -56.33c-6.33,-18.99 -12.61,-37.83 -19.17,-57.5l-104.24 -314.09c-3.11,-9.35 -7.41,-20.1 -9.59,-29.42l-127.79 0c-0.49,5.93 -15.27,47.82 -18.32,57.01 -6.55,19.67 -12.84,38.51 -19.17,57.5 -12.75,38.27 -25.26,75.72 -38.01,113.99 -2.39,7.14 -74.96,219.99 -75.15,228.84l0.03 0.02z"/>
      <polygon class="fil0" points="411.7,860.46 1316.96,860.46 1316.96,748.81 411.7,748.81 "/>
      <path class="fil0" d="M913.43 226.9l0 457.34 108.95 0 0 -364.53c29.75,0 77.93,-3.35 100.53,15.15 32.15,26.33 32.36,84.88 -4.98,108.64 -7.38,4.7 -18.65,8.85 -28.65,10.35 -24.21,3.62 -30.57,-2.02 -30.57,9.78 0,17.54 -1.76,71.39 1.35,84.74 26.89,2.68 24.9,2.16 54.39,-2.1 13.16,-1.91 22.25,-4.37 33.56,-8.14 22.21,-7.37 39.59,-15.61 56.76,-27.99 32.88,-23.7 54.37,-75.57 54.37,-115.12 0,-38.96 -3.94,-65.96 -23.66,-96.05 -21.55,-32.91 -52.64,-53.88 -91.21,-63.49 -58.36,-14.53 -166.89,-8.6 -230.84,-8.6l0 0.01z"/>
      <path class="fil0" d="M2072.93 400.42c17.73,1.48 27.79,8.18 34.98,22.86 6.55,13.37 11.8,25.58 17.67,40.17 14.85,36.92 55.36,147.09 69.58,190.03 2.51,7.54 4.54,14.56 7.47,22.13l15.58 43.61 8.06 0c1.26,-5.38 2.71,-7.65 4.55,-12.94l41.96 -115.43c3.54,-9.16 5.66,-16.62 9.2,-25.76 2.28,-5.91 15.59,-47.39 19.61,-50.34 0.49,5.93 7.17,20.22 9.22,25.76 15.05,40.73 34.33,86.06 48.8,126.07 3.02,8.36 6,17.8 9.06,25.93 3.31,8.82 5.57,19.06 9.61,26.71l8.06 0 95.99 -275.26c7.49,-22.04 14.72,-41.1 43.91,-43.54l0 -9.41 -98.19 0 0 9.41c8.52,0 17.95,1.42 23.84,4.42 25.13,12.81 -0.74,60.26 -12.56,94.29l-27.26 73.63c-2.89,8.7 -6.11,15.71 -9.09,24.55 -1.63,4.86 -2.92,7.99 -4.33,11.81 -1.72,4.65 -2.13,7.93 -5.59,11.9l-10.75 -29.6c-19.31,-48.56 -37.86,-100.47 -57.28,-148.53 -13.01,-32.21 -8.09,-42.47 29.01,-42.47l0 -9.41 -130.47 0 0 9.41c27.38,0 36.08,9.95 44.01,29.97 2.92,7.4 20.56,50.5 20.56,54.77 0,4.68 -49.02,125.46 -49.78,134.51 -3.59,-2.62 -5.01,-9.07 -6.74,-13.43l-51.11 -133.17c-4,-10.08 -7.28,-19.68 -11.52,-30.18 -11.03,-27.27 -12.41,-42.47 24.98,-42.47l0 -9.41 -121.06 0 0 9.41 0 -0z"/>
      <path class="fil0" d="M1392.29 396.39c0,8.21 17.79,0.89 29.96,11.74 3.65,3.25 6.52,6.61 10.06,10.11 3.65,3.62 8.4,6.54 8.4,13.12l0 199.07c0,17.91 -0.84,41.52 -5.89,54.65 -5.47,14.25 -29.79,19.05 -42.54,19.33 0,6.55 -0.9,9.41 4.03,9.41l111.65 0 0 -9.41c-27.99,-2.33 -37.86,-8.06 -42.99,-31 -5.17,-23.2 -2.76,-187.87 -2.76,-219.19 4.88,3.28 51.61,62.76 53.99,65.74 4.52,5.71 8.89,10.7 13.28,16.32 4.31,5.53 8.51,10.78 13.15,16.45l106.99 132.43c3.39,4.21 25.35,29.82 26.47,34.05l10.76 0 0 -271.72c0,-13.36 3.22,-28.8 10.38,-35.35 6.7,-6.12 23.04,-11.72 35.35,-11.72l0 -9.41 -115.68 0 0 9.41c19.45,0 37.04,5.44 42.78,24.47 5.31,17.62 4.3,40.32 4.3,62.95 0,45.29 0,90.57 0,135.85 -4.17,-2.79 -89.64,-111.11 -93.12,-115.37 -16.01,-19.58 -30.45,-38.88 -46.46,-58.46l-34.7 -43.31c-3.22,-4.09 -10.24,-11.46 -11.34,-15.56l-86.09 0 0 5.38 0 0.02z"/>
      <path class="fil0" d="M1771.62 400.42c31.02,0 43.05,10.14 43.05,41.7l0 223.3c0,12.66 -1.85,25.05 -9.93,30.43 -5.91,3.94 -23.92,8.38 -33.11,8.58l0 9.41 264.99 0c0.18,-7.74 19.11,-73.02 21.52,-83.39l-14.79 0c-2.98,12.81 -20.83,39.74 -33.86,48.2 -27.87,18.13 -77.23,15.02 -112.77,15.02 -6.76,0 -15.12,-0.41 -21.21,-1.65 -6.34,-1.29 -9.72,-6.24 -9.72,-14.48l0 -122.41 84.74 0c13.82,0 25.29,3.66 31,12.04 4.31,6.33 10.47,23.36 10.7,33.69l13.44 0 0 -113 -13.44 0c-0.22,9.75 -6.02,32.28 -15.68,39.47 -14.62,10.87 -87.53,7.6 -110.76,7.6l0 -117.03c0,-7.23 11.24,-8.06 18.83,-8.06 28.65,0 86.89,-1.79 109.74,5.94 9.04,3.07 13.27,9.58 17.18,17.79 2.98,6.24 7.59,19.02 7.59,27.38l13.44 0 -1.35 -69.95 -259.61 0 0 9.41 0.03 0z"/>
      <path class="fil0" d="M2629.82 462.31c0,19.02 -0.39,28.04 9.95,45.2 7.71,12.78 18.19,21.92 29.81,30.71 14.02,10.6 54.61,34 74.86,47.55 21.33,14.27 41.42,29.71 41.42,62.15 0,23.51 -12.6,39.24 -31.37,48 -29.66,13.86 -68.26,1.11 -90.04,-20.77 -14.32,-14.38 -31.44,-40.02 -35.98,-59.53l-12.11 0 10.84 79.29c3.66,26.38 0.36,24.28 12.04,24.28 7.74,0 0.96,-14.35 15.06,-15.91 5.94,-0.65 19.11,4.09 24.47,5.97 43.11,15.11 87.19,18.68 124.28,-11.89 35.04,-28.89 43,-76.29 19.7,-111.9 -9.26,-14.16 -27.6,-29.14 -41.99,-38.72 -22.29,-14.82 -65.49,-39.55 -82.54,-53.32 -17.98,-14.54 -27.67,-29.87 -23.84,-53.84 7.47,-46.56 92.07,-52.19 127.18,17.73 15.12,30.09 1.82,30.5 23.3,30.5 0,-13.74 -10.76,-89.19 -10.76,-103.57 -14.62,0 -10.06,-0.4 -12.2,3.94l-1.1 2.94c-13.44,29.62 -56.62,-26.22 -121.05,0.02 -26.9,10.95 -49.94,41.53 -49.94,71.12l-0 0.03z"/>
     </g>
    </g>
   </g>
  </g>
  <polygon class="fil1" points="-0,0 3247.7,0 3247.7,1086.15 -0,1086.15 "/>
 </g>
</svg>
