<?xml version="1.0" encoding="UTF-8"?>
<!DOCTYPE svg PUBLIC "-//W3C//DTD SVG 1.1//EN" "http://www.w3.org/Graphics/SVG/1.1/DTD/svg11.dtd">
<!-- Creator: CorelDRAW -->
<svg xmlns="http://www.w3.org/2000/svg" xml:space="preserve" width="13.5476in" height="9.09593in" version="1.1" style="shape-rendering:geometricPrecision; text-rendering:geometricPrecision; image-rendering:optimizeQuality; fill-rule:evenodd; clip-rule:evenodd"
viewBox="0 0 2724.7 1829.38"
 xmlns:xlink="http://www.w3.org/1999/xlink"
 xmlns:xodm="http://www.corel.com/coreldraw/odm/2003">
 <defs>
  <style type="text/css">
   <![CDATA[
    .str0 {stroke:#229E54;stroke-width:0.52;stroke-linecap:round;stroke-linejoin:round;stroke-miterlimit:2.61313;stroke-opacity:0.301961}
    .fil0 {fill:none}
   ]]>
  </style>
 </defs>
 <g id="Layer_x0020_1">
  <metadata id="CorelCorpID_0Corel-Layer"/>
  <g id="_105553223316416">
   <path class="fil0 str0" d="M2569.67 1829.11c-30.74,-164.64 -107.41,-349.27 -271.24,-543.81 -356.67,-423.54 -1332.43,-444.72 -2298.17,-644.46"/>
   <path class="fil0 str0" d="M2541.18 1829.11c-36.98,-163.32 -117.74,-348.39 -281.55,-546.55 -355.65,-430.22 -1312.02,-454.88 -2259.37,-657.27"/>
   <path class="fil0 str0" d="M2514.68 1829.11c-43.01,-162.56 -127.86,-348.95 -292.48,-551.8 -354.72,-437.09 -1292.65,-464.84 -2221.93,-670.13"/>
   <path class="fil0 str0" d="M2486.38 1829.11c-49.49,-161.13 -138.64,-347.91 -303.27,-554.43 -353.77,-443.79 -1272.1,-475.11 -2182.85,-683.2"/>
   <path class="fil0 str0" d="M2456.62 1829.11c-55.89,-159.96 -149.34,-347.54 -314.36,-558.29 -352.43,-450.11 -1250.48,-485.1 -2142,-695.61"/>
   <path class="fil0 str0" d="M2428.48 1829.11c-62.61,-158.43 -160.54,-346.33 -325.59,-560.79 -351.58,-456.82 -1229.81,-495.48 -2102.63,-708.95"/>
   <path class="fil0 str0" d="M2401.88 1829.11c-69.1,-157.41 -171.41,-346.44 -337.04,-565.72 -350,-463.39 -1209.71,-505.04 -2064.58,-720.97"/>
   <path class="fil0 str0" d="M2373.45 1829.11c-76.14,-155.91 -183.23,-345.36 -349.09,-568.65 -349.24,-470.17 -1188.31,-515.99 -2024.09,-734.91"/>
   <path class="fil0 str0" d="M2345.93 1829.11c-83.22,-154.22 -195.19,-343.88 -361.36,-570.95 -349.05,-476.99 -1167.7,-526.66 -1984.31,-748.72"/>
   <path class="fil0 str0" d="M2319.94 1829.11c-90.25,-152.93 -207.04,-343.53 -373.84,-575.55 -347.62,-483.55 -1147.43,-536.51 -1945.85,-761.38"/>
   <path class="fil0 str0" d="M2293.85 1829.11c-97.25,-151.42 -218.68,-342.59 -385.37,-579.01 -345.94,-490.63 -1127.43,-546.49 -1908.22,-773.52"/>
   <path class="fil0 str0" d="M2265.77 1829.11c-104.86,-149.77 -231.69,-341.43 -399.2,-582.34 -345.45,-496.83 -1105.49,-556.75 -1866.31,-786.96"/>
   <path class="fil0 str0" d="M2241.13 1829.11c-112.33,-148.02 -244.3,-340.05 -412.07,-585.34 -344.71,-503.99 -1085.89,-567.33 -1828.79,-801.2"/>
   <path class="fil0 str0" d="M2215.01 1829.11c-120.05,-146.42 -257.4,-339.23 -425.76,-589.81 -343.05,-510.57 -1064.68,-577.05 -1788.99,-813.07"/>
   <path class="fil0 str0" d="M2189.39 1829.11c-127.86,-144.75 -270.63,-338.09 -439.31,-593.4 -341.88,-517.46 -1043.95,-587.73 -1749.81,-826.23"/>
   <path class="fil0 str0" d="M2164.32 1829.11c-135.72,-142.82 -283.93,-336.4 -452.86,-596.25 -341.09,-524.68 -1023.73,-598.22 -1711.19,-839.54"/>
   <path class="fil0 str0" d="M2140.89 1829.11c-144.25,-140.87 -298.77,-335.02 -468.96,-600.29 -340.89,-531.35 -1003.19,-608.59 -1671.67,-853.87"/>
   <path class="fil0 str0" d="M2116.19 1829.11c-152.51,-138.87 -312.92,-333.15 -483.65,-602.97 -340.6,-538.27 -982.68,-619.24 -1632.28,-867.78"/>
   <path class="fil0 str0" d="M2091.65 1829.11c-161.27,-136.77 -327.74,-331.67 -498.6,-607.36 -337.88,-545.14 -961.27,-628.74 -1592.79,-879.05"/>
   <path class="fil0 str0" d="M2068.57 1829.11c-169.89,-134.59 -342.63,-329.51 -514.19,-609.88 -337.81,-552.07 -941.2,-639.54 -1554.12,-893.74"/>
   <path class="fil0 str0" d="M2043.72 1829.11c-179.26,-132.36 -358.89,-327.76 -531.43,-614.12 -336.34,-558.23 -918.61,-649.68 -1512.03,-905.92"/>
   <path class="fil0 str0" d="M2024.51 1829.11c-188.73,-130.03 -375.36,-325.75 -548.88,-618.06 -336.25,-566.43 -899.75,-660.73 -1475.37,-920.81"/>
   <path class="fil0 str0" d="M2002.12 1829.11c-197.97,-127.62 -391.41,-323.32 -565.7,-620.66 -336.09,-573.39 -879.3,-671.23 -1436.16,-934.66"/>
   <path class="fil0 str0" d="M1982.6 1829.11c-208.5,-124.85 -409.76,-320.82 -584.96,-625.01 -334.41,-580.62 -858.62,-681.26 -1397.38,-947.88"/>
   <path class="fil0 str0" d="M1958.2 1829.11c-217.84,-122.25 -425.74,-317.98 -600.88,-627.11 -332.92,-587.6 -837.08,-691.86 -1357.05,-961.12"/>
   <path class="fil0 str0" d="M1938.98 1829.11c-228.93,-119.29 -445.42,-315.14 -622.21,-631.14 -332.41,-594.17 -815.79,-701.93 -1316.51,-974.15"/>
   <path class="fil0 str0" d="M1924.02 1829.11c-240.16,-116.21 -465.29,-311.96 -643.36,-634.83 -332.35,-602.59 -796.99,-712.92 -1280.39,-989.86"/>
   <path class="fil0 str0" d="M1904.68 1829.11c-251.15,-113.3 -484.72,-308.99 -663.92,-638.27 -331.84,-609.74 -775.86,-723.86 -1240.5,-1003.8"/>
   <path class="fil0 str0" d="M1888.34 1829.11c-263.58,-109.75 -507.05,-305.19 -688.12,-642.27 -331.22,-616.56 -754.56,-734.18 -1199.95,-1016.81"/>
   <path class="fil0 str0" d="M1872.33 1829.11c-275.58,-106.23 -528.2,-301.24 -709.98,-645.21 -330.31,-625.03 -734.42,-745.26 -1162.09,-1032.2"/>
   <path class="fil0 str0" d="M1859.98 1829.11c-289.47,-102.12 -553.44,-296.61 -737.43,-649.36 -329.81,-632.32 -713.34,-755.52 -1122.29,-1045.99"/>
   <path class="fil0 str0" d="M1847.12 1829.11c-302.65,-98.1 -577.01,-291.93 -762.18,-652.39 -329.46,-641.33 -693.45,-766.96 -1084.67,-1062.07"/>
   <path class="fil0 str0" d="M1833.48 1829.11c-317.59,-93.4 -604.1,-286.16 -790.89,-655.56 -327.59,-647.85 -670.53,-777.01 -1042.33,-1074.7"/>
   <path class="fil0 str0" d="M1824.92 1829.11c-332.39,-88.78 -631.23,-280.52 -820.25,-658.75 -327.98,-656.28 -650.66,-788.25 -1004.4,-1090.44"/>
   <path class="fil0 str0" d="M1820.98 1829.11c-349.58,-83.42 -663.02,-273.93 -854.68,-662.96 -327.83,-665.41 -630.24,-800.08 -966.04,-1106.84"/>
   <path class="fil0 str0" d="M1815.36 1829.11c-367.6,-77.37 -696.57,-266.04 -890.84,-666.14 -326.71,-672.89 -607.78,-810.64 -924.25,-1120.48"/>
   <path class="fil0 str0" d="M1819.52 1829.11c-387.82,-70.51 -734.71,-256.87 -932.4,-669.51 -327.24,-683.05 -587.91,-822.59 -886.85,-1138.53"/>
   <path class="fil0 str0" d="M2724.44 1822.41c-20.17,2.32 -40.45,4.55 -60.82,6.7m-827.36 0c-413.55,-61.43 -784.65,-244.36 -988.04,-674.04 -327.67,-692.19 -567.08,-833.63 -847.95,-1154.81"/>
  </g>
 </g>
</svg>
