<?xml version="1.0" encoding="UTF-8"?>
<!DOCTYPE svg PUBLIC "-//W3C//DTD SVG 1.1//EN" "http://www.w3.org/Graphics/SVG/1.1/DTD/svg11.dtd">
<!-- Creator: CorelDRAW -->
<svg xmlns="http://www.w3.org/2000/svg" xml:space="preserve" width="3.96817in" height="4.12454in" version="1.1" style="shape-rendering:geometricPrecision; text-rendering:geometricPrecision; image-rendering:optimizeQuality; fill-rule:evenodd; clip-rule:evenodd"
viewBox="0 0 69.63 72.37"
 xmlns:xlink="http://www.w3.org/1999/xlink"
 xmlns:xodm="http://www.corel.com/coreldraw/odm/2003">
 <defs>
  <style type="text/css">
   <![CDATA[
    .str0 {stroke:#212528;stroke-width:0.97;stroke-miterlimit:2.61313}
    .fil1 {fill:none}
    .fil0 {fill:#239e54}
    .fil3 {fill:url(#id0)}
    .fil2 {fill:url(#id1)}
    .fil4 {fill:url(#id2)}
   ]]>
  </style>
  <linearGradient id="id0" gradientUnits="userSpaceOnUse" x1="56.97" y1="41.44" x2="45.64" y2="73.1">
   <stop offset="0" style="stop-opacity:1; stop-color:#BCAAEB"/>
   <stop offset="1" style="stop-opacity:1; stop-color:#200D32"/>
  </linearGradient>
  <linearGradient id="id1" gradientUnits="userSpaceOnUse" xlink:href="#id0" x1="49.04" y1="17.05" x2="25.31" y2="62.85">
  </linearGradient>
  <linearGradient id="id2" gradientUnits="userSpaceOnUse" xlink:href="#id0" x1="29.43" y1="16.55" x2="27.04" y2="23.24">
  </linearGradient>
 </defs>
 <g id="Layer_x0020_1">
  <metadata id="CorelCorpID_0Corel-Layer"/>
  <g id="_105553459254592">
   <path class="fil0" d="M0.85 0.82c5.31,-0.15 44.65,0.44 45.86,-0.31 -1.02,-0.8 -41.59,-0.44 -46.54,-0.33 -0.1,4.94 -0.45,51.42 0.34,52.39 1.04,-1.41 0.23,-45.87 0.34,-51.75z"/>
   <g>
    <path class="fil1 str0" d="M28.92 31.59l13.81 0 0 3.95 -13.81 0 0 -3.95zm5.92 -8.26c0,1.51 -0.83,2.34 -2.34,2.34l-11.47 0 0 35.76c0,0.53 0.39,0.99 0.7,1.27 0.48,0.42 0.77,0.47 1.63,0.46l12.58 -0c-0.71,-1.06 -1.29,-2.18 -1.8,-3.5 -0.38,-1 -1.04,-3.13 -1.04,-4.39l-4.19 0 0 -3.95 4.19 0c0.25,-3.02 1.5,-4.96 1.73,-5.92l-5.92 0 0 -3.95 8.51 0c0.3,0 1.61,-1.46 2.54,-2.15 1.04,-0.78 1.7,-1.2 2.89,-1.8 3.89,-1.95 8.15,-2.37 12.45,-1.23 0.45,0.12 0.78,0.27 1.23,0.37l-0.01 -23.17c-0.09,-0.7 -0.92,-1.61 -1.72,-1.61l-19.97 0 0 11.47z"/>
    <path class="fil1 str0" d="M49.76 57.72c-1.66,0 -1.74,-0.57 -3.17,-2 -0.59,-0.59 -1.86,-1.72 -2.25,-2.31l2.68 -2.74 2.47 2.4 4.93 -4.87 2.71 2.65 -5.3 5.37c-0.48,0.48 -1.24,1.51 -2.07,1.51zm-12.95 -4.32c0,1.97 0.62,4.26 1.27,5.63 0.11,0.22 0.16,0.37 0.27,0.59l0.97 1.62c0.76,1.14 2.31,2.7 3.45,3.45 3.79,2.51 8.04,3.29 12.58,1.7 0.58,-0.2 1.38,-0.54 1.87,-0.84l1.78 -1.06 6.57 6.5 2.84 -2.78 -6.6 -6.53c0.12,-0.39 0.24,-0.4 0.53,-0.89 3.52,-5.81 2.78,-12.59 -1.76,-17.12 -5.57,-5.55 -14.17,-5.65 -19.6,-0.19 -2.56,2.57 -4.16,6.05 -4.16,9.89z"/>
    <polygon class="fil1 str0" points="24.21,21.69 30.9,21.72 30.9,15.06 "/>
   </g>
   <g>
    <path class="fil2" d="M30.14 32.95l13.81 0 0 3.95 -13.81 0 0 -3.95zm5.92 -8.26c0,1.51 -0.83,2.34 -2.34,2.34l-11.47 0 0 35.76c0,0.53 0.39,0.99 0.7,1.27 0.48,0.42 0.77,0.47 1.63,0.46l12.58 -0c-0.71,-1.06 -1.29,-2.18 -1.8,-3.5 -0.38,-1 -1.04,-3.13 -1.04,-4.39l-4.19 0 0 -3.95 4.19 0c0.25,-3.02 1.5,-4.96 1.73,-5.92l-5.92 0 0 -3.95 8.51 0c0.3,0 1.61,-1.46 2.54,-2.15 1.04,-0.78 1.7,-1.2 2.89,-1.8 3.89,-1.95 8.15,-2.37 12.45,-1.23 0.45,0.12 0.78,0.27 1.23,0.37l-0.01 -23.17c-0.09,-0.7 -0.92,-1.61 -1.72,-1.61l-19.97 0 0 11.47z"/>
    <path class="fil3" d="M50.98 59.08c-1.66,0 -1.74,-0.57 -3.17,-2 -0.59,-0.59 -1.86,-1.72 -2.25,-2.31l2.68 -2.74 2.47 2.4 4.93 -4.87 2.71 2.65 -5.3 5.37c-0.48,0.48 -1.24,1.51 -2.07,1.51zm-12.95 -4.32c0,1.97 0.62,4.26 1.27,5.63 0.11,0.22 0.16,0.37 0.27,0.59l0.97 1.62c0.76,1.14 2.31,2.7 3.45,3.45 3.79,2.51 8.04,3.29 12.58,1.7 0.58,-0.2 1.38,-0.54 1.87,-0.84l1.78 -1.06 6.57 6.5 2.84 -2.78 -6.6 -6.53c0.12,-0.39 0.24,-0.4 0.53,-0.89 3.52,-5.81 2.78,-12.59 -1.76,-17.12 -5.57,-5.55 -14.17,-5.65 -19.6,-0.19 -2.56,2.57 -4.16,6.05 -4.16,9.89z"/>
    <polygon class="fil4" points="25.43,23.05 32.11,23.08 32.11,16.42 "/>
   </g>
  </g>
 </g>
</svg>
