<?xml version="1.0" encoding="UTF-8"?>
<!DOCTYPE svg PUBLIC "-//W3C//DTD SVG 1.1//EN" "http://www.w3.org/Graphics/SVG/1.1/DTD/svg11.dtd">
<!-- Creator: CorelDRAW -->
<svg xmlns="http://www.w3.org/2000/svg" xml:space="preserve" width="43.614mm" height="43.614mm" version="1.1" style="shape-rendering:geometricPrecision; text-rendering:geometricPrecision; image-rendering:optimizeQuality; fill-rule:evenodd; clip-rule:evenodd"
viewBox="0 0 8594.55 8594.55"
 xmlns:xlink="http://www.w3.org/1999/xlink"
 xmlns:xodm="http://www.corel.com/coreldraw/odm/2003">
 <defs>
  <style type="text/css">
   <![CDATA[
    .str0 {stroke:#CDF1DC;stroke-width:48.59;stroke-miterlimit:22.9256;stroke-opacity:0.301961}
    .str3 {stroke:black;stroke-width:48.59;stroke-miterlimit:22.9256}
    .str1 {stroke:#CDF1DC;stroke-width:48.59;stroke-miterlimit:22.9256}
    .str2 {stroke:#E4A788;stroke-width:97.21;stroke-linecap:round;stroke-linejoin:round;stroke-miterlimit:22.9256}
    .fil6 {fill:none}
    .fil1 {fill:none;fill-rule:nonzero}
    .fil0 {fill:none;fill-rule:nonzero}
    .fil5 {fill:#55BC7E;fill-rule:nonzero}
    .fil4 {fill:white;fill-rule:nonzero}
    .fil2 {fill:#C4C4C4;fill-rule:nonzero;fill-opacity:0.000000}
    .fil3 {fill:#E4A788}
   ]]>
  </style>
   <clipPath id="id0">
    <path d="M-0 0l8594.55 0 0 8594.55 -8594.55 0 0 -8594.55z"/>
   </clipPath>
      <clipPath id="id1" style="clip-rule:nonzero">
       <path d="M8594.55 3261.85c-557.32,-1255.11 -1814.6,-2130.78 -3276.15,-2130.78 -1978.5,0 -3583,1604.5 -3583,3583.01 0,1978.5 1604.5,3583 3583,3583 1461.55,0 2718.83,-875.65 3276.15,-2130.77l0 -2904.46z"/>
      </clipPath>
      <clipPath id="id2" style="clip-rule:nonzero">
       <path d="M-0 0l8594.55 0 0 8594.55 -8594.55 0 0 -8594.55z"/>
      </clipPath>
      <clipPath id="id3" style="clip-rule:nonzero">
       <path d="M8594.55 3261.85c-557.32,-1255.11 -1814.6,-2130.78 -3276.15,-2130.78 -1978.5,0 -3583,1604.5 -3583,3583.01 0,1978.5 1604.5,3583 3583,3583 1461.55,0 2718.83,-875.65 3276.15,-2130.77l0 -2904.46z"/>
      </clipPath>
      <clipPath id="id4" style="clip-rule:nonzero">
       <path d="M-0 0l8594.55 0 0 8594.55 -8594.55 0 0 -8594.55z"/>
      </clipPath>
      <clipPath id="id5" style="clip-rule:nonzero">
       <path d="M-0 3751.54l465.67 0 0 -465.65 -465.67 0 0 465.65z"/>
      </clipPath>
      <clipPath id="id6" style="clip-rule:nonzero">
       <path d="M-0 0l8594.55 0 0 8594.55 -8594.55 0 0 -8594.55z"/>
      </clipPath>
 </defs>
 <g id="Layer_x0020_1">
  <metadata id="CorelCorpID_0Corel-Layer"/>
  <g>
  </g>
  <g style="clip-path:url(#id0)">
   <g>
    <g id="_105553245681920">
     <g>
      <path class="fil0 str0" d="M2101.92 6390.27c0,-346.45 -280.87,-627.34 -627.36,-627.34 -346.47,0 -627.36,280.89 -627.36,627.34 0,346.51 280.89,627.36 627.36,627.36 346.49,0 627.36,-280.85 627.36,-627.36z"/>
      <path class="fil1 str1" d="M1946.69 6377.38c0,253.12 -210.89,459.19 -472.13,459.19 -261.24,0 -472.12,-206.07 -472.12,-459.19 0,-253.16 210.87,-459.23 472.12,-459.23 261.24,0 472.13,206.07 472.13,459.23z"/>
     </g>
     <g style="clip-path:url(#id1)">
      <polygon class="fil2" points="1735.4,1131.06 8901.41,1131.06 8901.41,8297.07 1735.4,8297.07 "/>
     </g>
     <g style="clip-path:url(#id2)">
     </g>
     <g style="clip-path:url(#id3)">
      <g>
       <path id="_1" class="fil3" d="M1509.81 1001.71l-59.04 0 0 59.04c32.48,0 59.04,-26.6 59.04,-59.04zm531.31 59.04c32.44,0 59,-26.6 59,-59.04l-118.06 0c0,32.44 26.56,59.04 59.06,59.04zm649.33 -59.04c0,32.44 -26.56,59.04 -59.02,59.04 -32.5,0 -59.06,-26.6 -59.06,-59.04l118.08 0zm531.29 59.04c32.46,0 59,-26.6 59,-59.04l-118.04 0c0,32.44 26.56,59.04 59.04,59.04zm649.39 -59.04c0,32.44 -26.54,59.04 -59.04,59.04 -32.46,0 -59.02,-26.6 -59.02,-59.04l118.06 0zm531.31 59.04c32.46,0 59.02,-26.6 59.02,-59.04l-118.08 0c0,32.44 26.56,59.04 59.06,59.04zm649.35 -59.04c0,32.44 -26.56,59.04 -59.04,59.04 -32.5,0 -59.04,-26.6 -59.04,-59.04l118.08 0zm531.29 59.04c32.46,0 59.02,-26.6 59.02,-59.04l-118.06 0c0,32.44 26.56,59.04 59.04,59.04zm649.39 -59.04c0,32.44 -26.62,59.04 -59.02,59.04 -32.48,0 -59.1,-26.6 -59.1,-59.04l118.12 0zm531.29 59.04c32.46,0 59.02,-26.6 59.02,-59.04l-118.06 0c0,32.44 26.56,59.04 59.04,59.04zm649.33 -59.04c0,32.44 -26.54,59.04 -59,59.04 -32.5,0 -59.04,-26.6 -59.04,-59.04l118.04 0zm531.33 59.04c32.46,0 59,-26.6 59,-59.04l-118.04 0c0,32.44 26.54,59.04 59.04,59.04zm590.33 -59.04l0 59.04c-32.5,0 -59.06,-26.6 -59.06,-59.04l59.06 0zm-7024.95 590.31c0,-32.44 -26.56,-59.02 -59.04,-59.02l0 118.08c32.48,0 59.04,-26.56 59.04,-59.06zm590.31 0c0,32.61 -26.41,59.06 -59,59.06 -32.61,0 -59.06,-26.45 -59.06,-59.06 0,-32.57 26.45,-59.02 59.06,-59.02 32.59,0 59,26.45 59,59.02zm531.31 59.06c32.55,0 59.02,-26.45 59.02,-59.06 0,-32.57 -26.47,-59.02 -59.02,-59.02 -32.61,0 -59.06,26.45 -59.06,59.02 0,32.61 26.45,59.06 59.06,59.06zm649.31 -59.06c0,32.61 -26.43,59.06 -59,59.06 -32.59,0 -59.04,-26.45 -59.04,-59.06 0,-32.57 26.45,-59.02 59.04,-59.02 32.57,0 59,26.45 59,59.02zm531.35 59.06c32.59,0 59.04,-26.45 59.04,-59.06 0,-32.57 -26.45,-59.02 -59.04,-59.02 -32.61,0 -59.02,26.45 -59.02,59.02 0,32.61 26.41,59.06 59.02,59.06zm649.37 -59.06c0,32.61 -26.43,59.06 -59.02,59.06 -32.59,0 -59.06,-26.45 -59.06,-59.06 0,-32.57 26.47,-59.02 59.06,-59.02 32.59,0 59.02,26.45 59.02,59.02zm531.29 59.06c32.59,0 59.04,-26.45 59.04,-59.06 0,-32.57 -26.45,-59.02 -59.04,-59.02 -32.61,0 -59.04,26.45 -59.04,59.02 0,32.61 26.43,59.06 59.04,59.06zm649.35 -59.06c0,32.61 -26.43,59.06 -59.02,59.06 -32.61,0 -59.04,-26.45 -59.04,-59.06 0,-32.57 26.43,-59.02 59.04,-59.02 32.59,0 59.02,26.45 59.02,59.02zm531.35 59.06c32.57,0 59.02,-26.45 59.02,-59.06 0,-32.57 -26.45,-59.02 -59.02,-59.02 -32.65,0 -59.1,26.45 -59.1,59.02 0,32.61 26.45,59.06 59.1,59.06zm649.33 -59.06c0,32.61 -26.43,59.06 -59.02,59.06 -32.61,0 -59.04,-26.45 -59.04,-59.06 0,-32.57 26.43,-59.02 59.04,-59.02 32.59,0 59.02,26.45 59.02,59.02zm531.31 59.06c32.57,0 59,-26.45 59,-59.06 0,-32.57 -26.43,-59.02 -59,-59.02 -32.61,0 -59.04,26.45 -59.04,59.02 0,32.61 26.43,59.06 59.04,59.06zm649.33 -59.06c0,32.61 -26.43,59.06 -59,59.06 -32.59,0 -59.04,-26.45 -59.04,-59.06 0,-32.57 26.45,-59.02 59.04,-59.02 32.57,0 59,26.45 59,59.02zm472.27 0c0,32.5 26.56,59.06 59.06,59.06l0 -118.08c-32.5,0 -59.06,26.58 -59.06,59.02zm-7024.94 531.33c32.48,0 59.04,26.54 59.04,59 0,32.5 -26.56,59.04 -59.04,59.04l0 -118.04zm590.35 118.04c32.59,0 59,-26.43 59,-59.04 0,-32.55 -26.41,-59 -59,-59 -32.61,0 -59.06,26.45 -59.06,59 0,32.61 26.45,59.04 59.06,59.04zm649.33 -59.04c0,32.61 -26.47,59.04 -59.02,59.04 -32.61,0 -59.06,-26.43 -59.06,-59.04 0,-32.55 26.45,-59 59.06,-59 32.55,0 59.02,26.45 59.02,59zm531.29 59.04c32.57,0 59,-26.43 59,-59.04 0,-32.55 -26.43,-59 -59,-59 -32.59,0 -59.04,26.45 -59.04,59 0,32.61 26.45,59.04 59.04,59.04zm649.39 -59.04c0,32.61 -26.45,59.04 -59.04,59.04 -32.61,0 -59.02,-26.43 -59.02,-59.04 0,-32.55 26.41,-59 59.02,-59 32.59,0 59.04,26.45 59.04,59zm531.31 59.04c32.59,0 59.02,-26.43 59.02,-59.04 0,-32.55 -26.43,-59 -59.02,-59 -32.59,0 -59.06,26.45 -59.06,59 0,32.61 26.47,59.04 59.06,59.04zm649.35 -59.04c0,32.61 -26.45,59.04 -59.04,59.04 -32.61,0 -59.04,-26.43 -59.04,-59.04 0,-32.55 26.43,-59 59.04,-59 32.59,0 59.04,26.45 59.04,59zm531.29 59.04c32.59,0 59.02,-26.43 59.02,-59.04 0,-32.55 -26.43,-59 -59.02,-59 -32.61,0 -59.04,26.45 -59.04,59 0,32.61 26.43,59.04 59.04,59.04zm649.39 -59.04c0,32.61 -26.45,59.04 -59.02,59.04 -32.65,0 -59.1,-26.43 -59.1,-59.04 0,-32.55 26.45,-59 59.1,-59 32.57,0 59.02,26.45 59.02,59zm531.29 59.04c32.59,0 59.02,-26.43 59.02,-59.04 0,-32.55 -26.43,-59 -59.02,-59 -32.61,0 -59.04,26.45 -59.04,59 0,32.61 26.43,59.04 59.04,59.04zm649.33 -59.04c0,32.61 -26.43,59.04 -59,59.04 -32.61,0 -59.04,-26.43 -59.04,-59.04 0,-32.55 26.43,-59 59.04,-59 32.57,0 59,26.45 59,59zm531.33 59.04c32.57,0 59,-26.43 59,-59.04 0,-32.55 -26.43,-59 -59,-59 -32.59,0 -59.04,26.45 -59.04,59 0,32.61 26.45,59.04 59.04,59.04zm590.33 0c-32.5,0 -59.06,-26.54 -59.06,-59.04 0,-32.46 26.56,-59 59.06,-59l0 118.04zm-7024.95 531.29c0,-32.46 -26.56,-59.02 -59.04,-59.02l0 118.06c32.48,0 59.04,-26.54 59.04,-59.04zm590.31 0c0,32.61 -26.41,59.04 -59,59.04 -32.61,0 -59.06,-26.43 -59.06,-59.04 0,-32.59 26.45,-59.02 59.06,-59.02 32.59,0 59,26.43 59,59.02zm531.31 59.04c32.55,0 59.02,-26.43 59.02,-59.04 0,-32.59 -26.47,-59.02 -59.02,-59.02 -32.61,0 -59.06,26.43 -59.06,59.02 0,32.61 26.45,59.04 59.06,59.04zm649.31 -59.04c0,32.61 -26.43,59.04 -59,59.04 -32.59,0 -59.04,-26.43 -59.04,-59.04 0,-32.59 26.45,-59.02 59.04,-59.02 32.57,0 59,26.43 59,59.02zm531.35 59.04c32.59,0 59.04,-26.43 59.04,-59.04 0,-32.59 -26.45,-59.02 -59.04,-59.02 -32.61,0 -59.02,26.43 -59.02,59.02 0,32.61 26.41,59.04 59.02,59.04zm649.37 -59.04c0,32.61 -26.43,59.04 -59.02,59.04 -32.59,0 -59.06,-26.43 -59.06,-59.04 0,-32.59 26.47,-59.02 59.06,-59.02 32.59,0 59.02,26.43 59.02,59.02zm531.29 59.04c32.59,0 59.04,-26.43 59.04,-59.04 0,-32.59 -26.45,-59.02 -59.04,-59.02 -32.61,0 -59.04,26.43 -59.04,59.02 0,32.61 26.43,59.04 59.04,59.04zm649.35 -59.04c0,32.61 -26.43,59.04 -59.02,59.04 -32.61,0 -59.04,-26.43 -59.04,-59.04 0,-32.59 26.43,-59.02 59.04,-59.02 32.59,0 59.02,26.43 59.02,59.02zm531.35 59.04c32.57,0 59.02,-26.43 59.02,-59.04 0,-32.59 -26.45,-59.02 -59.02,-59.02 -32.65,0 -59.1,26.43 -59.1,59.02 0,32.61 26.45,59.04 59.1,59.04zm649.33 -59.04c0,32.61 -26.43,59.04 -59.02,59.04 -32.61,0 -59.04,-26.43 -59.04,-59.04 0,-32.59 26.43,-59.02 59.04,-59.02 32.59,0 59.02,26.43 59.02,59.02zm531.31 59.04c32.57,0 59,-26.43 59,-59.04 0,-32.59 -26.43,-59.02 -59,-59.02 -32.61,0 -59.04,26.43 -59.04,59.02 0,32.61 26.43,59.04 59.04,59.04zm649.33 -59.04c0,32.61 -26.43,59.04 -59,59.04 -32.59,0 -59.04,-26.43 -59.04,-59.04 0,-32.59 26.45,-59.02 59.04,-59.02 32.57,0 59,26.43 59,59.02zm472.27 0c0,32.5 26.56,59.04 59.06,59.04l0 -118.06c-32.5,0 -59.06,26.56 -59.06,59.02zm-7024.94 531.29c32.48,0 59.04,26.58 59.04,59.04 0,32.48 -26.56,59.06 -59.04,59.06l0 -118.1zm590.35 118.1c32.59,0 59,-26.45 59,-59.06 0,-32.63 -26.41,-59.04 -59,-59.04 -32.61,0 -59.06,26.41 -59.06,59.04 0,32.61 26.45,59.06 59.06,59.06zm649.33 -59.06c0,32.61 -26.47,59.06 -59.02,59.06 -32.61,0 -59.06,-26.45 -59.06,-59.06 0,-32.63 26.45,-59.04 59.06,-59.04 32.55,0 59.02,26.41 59.02,59.04zm531.29 59.06c32.57,0 59,-26.45 59,-59.06 0,-32.63 -26.43,-59.04 -59,-59.04 -32.59,0 -59.04,26.41 -59.04,59.04 0,32.61 26.45,59.06 59.04,59.06zm649.39 -59.06c0,32.61 -26.45,59.06 -59.04,59.06 -32.61,0 -59.02,-26.45 -59.02,-59.06 0,-32.63 26.41,-59.04 59.02,-59.04 32.59,0 59.04,26.41 59.04,59.04zm531.31 59.06c32.59,0 59.02,-26.45 59.02,-59.06 0,-32.63 -26.43,-59.04 -59.02,-59.04 -32.59,0 -59.06,26.41 -59.06,59.04 0,32.61 26.47,59.06 59.06,59.06zm649.35 -59.06c0,32.61 -26.45,59.06 -59.04,59.06 -32.61,0 -59.04,-26.45 -59.04,-59.06 0,-32.63 26.43,-59.04 59.04,-59.04 32.59,0 59.04,26.41 59.04,59.04zm531.29 59.06c32.59,0 59.02,-26.45 59.02,-59.06 0,-32.63 -26.43,-59.04 -59.02,-59.04 -32.61,0 -59.04,26.41 -59.04,59.04 0,32.61 26.43,59.06 59.04,59.06zm649.39 -59.06c0,32.61 -26.45,59.06 -59.02,59.06 -32.65,0 -59.1,-26.45 -59.1,-59.06 0,-32.63 26.45,-59.04 59.1,-59.04 32.57,0 59.02,26.41 59.02,59.04zm531.29 59.06c32.59,0 59.02,-26.45 59.02,-59.06 0,-32.63 -26.43,-59.04 -59.02,-59.04 -32.61,0 -59.04,26.41 -59.04,59.04 0,32.61 26.43,59.06 59.04,59.06zm649.33 -59.06c0,32.61 -26.43,59.06 -59,59.06 -32.61,0 -59.04,-26.45 -59.04,-59.06 0,-32.63 26.43,-59.04 59.04,-59.04 32.57,0 59,26.41 59,59.04zm531.33 59.06c32.57,0 59,-26.45 59,-59.06 0,-32.63 -26.43,-59.04 -59,-59.04 -32.59,0 -59.04,26.41 -59.04,59.04 0,32.61 26.45,59.06 59.04,59.06zm590.33 0c-32.5,0 -59.06,-26.58 -59.06,-59.06 0,-32.46 26.56,-59.04 59.06,-59.04l0 118.1zm-7024.95 531.25c0,-32.48 -26.56,-59.02 -59.04,-59.02l0 118.08c32.48,0 59.04,-26.56 59.04,-59.06zm590.31 0c0,32.65 -26.41,59.06 -59,59.06 -32.61,0 -59.06,-26.41 -59.06,-59.06 0,-32.61 26.45,-59.02 59.06,-59.02 32.59,0 59,26.41 59,59.02zm531.31 59.06c32.55,0 59.02,-26.41 59.02,-59.06 0,-32.61 -26.47,-59.02 -59.02,-59.02 -32.61,0 -59.06,26.41 -59.06,59.02 0,32.65 26.45,59.06 59.06,59.06zm649.31 -59.06c0,32.65 -26.43,59.06 -59,59.06 -32.59,0 -59.04,-26.41 -59.04,-59.06 0,-32.61 26.45,-59.02 59.04,-59.02 32.57,0 59,26.41 59,59.02zm531.35 59.06c32.59,0 59.04,-26.41 59.04,-59.06 0,-32.61 -26.45,-59.02 -59.04,-59.02 -32.61,0 -59.02,26.41 -59.02,59.02 0,32.65 26.41,59.06 59.02,59.06zm649.37 -59.06c0,32.65 -26.43,59.06 -59.02,59.06 -32.59,0 -59.06,-26.41 -59.06,-59.06 0,-32.61 26.47,-59.02 59.06,-59.02 32.59,0 59.02,26.41 59.02,59.02zm531.29 59.06c32.59,0 59.04,-26.41 59.04,-59.06 0,-32.61 -26.45,-59.02 -59.04,-59.02 -32.61,0 -59.04,26.41 -59.04,59.02 0,32.65 26.43,59.06 59.04,59.06zm649.35 -59.06c0,32.65 -26.43,59.06 -59.02,59.06 -32.61,0 -59.04,-26.41 -59.04,-59.06 0,-32.61 26.43,-59.02 59.04,-59.02 32.59,0 59.02,26.41 59.02,59.02zm531.35 59.06c32.57,0 59.02,-26.41 59.02,-59.06 0,-32.61 -26.45,-59.02 -59.02,-59.02 -32.65,0 -59.1,26.41 -59.1,59.02 0,32.65 26.45,59.06 59.1,59.06zm649.33 -59.06c0,32.65 -26.43,59.06 -59.02,59.06 -32.61,0 -59.04,-26.41 -59.04,-59.06 0,-32.61 26.43,-59.02 59.04,-59.02 32.59,0 59.02,26.41 59.02,59.02zm531.31 59.06c32.57,0 59,-26.41 59,-59.06 0,-32.61 -26.43,-59.02 -59,-59.02 -32.61,0 -59.04,26.41 -59.04,59.02 0,32.65 26.43,59.06 59.04,59.06zm649.33 -59.06c0,32.65 -26.43,59.06 -59,59.06 -32.59,0 -59.04,-26.41 -59.04,-59.06 0,-32.61 26.45,-59.02 59.04,-59.02 32.57,0 59,26.41 59,59.02zm472.27 0c0,32.5 26.56,59.06 59.06,59.06l0 -118.08c-32.5,0 -59.06,26.54 -59.06,59.02zm-7024.94 531.35c32.48,0 59.04,26.54 59.04,59.02 0,32.46 -26.56,59.02 -59.04,59.02l0 -118.04zm590.35 118.04c32.59,0 59,-26.41 59,-59.02 0,-32.63 -26.41,-59.02 -59,-59.02 -32.61,0 -59.06,26.39 -59.06,59.02 0,32.61 26.45,59.02 59.06,59.02zm649.33 -59.02c0,32.61 -26.47,59.02 -59.02,59.02 -32.61,0 -59.06,-26.41 -59.06,-59.02 0,-32.63 26.45,-59.02 59.06,-59.02 32.55,0 59.02,26.39 59.02,59.02zm531.29 59.02c32.57,0 59,-26.41 59,-59.02 0,-32.63 -26.43,-59.02 -59,-59.02 -32.59,0 -59.04,26.39 -59.04,59.02 0,32.61 26.45,59.02 59.04,59.02zm649.39 -59.02c0,32.61 -26.45,59.02 -59.04,59.02 -32.61,0 -59.02,-26.41 -59.02,-59.02 0,-32.63 26.41,-59.02 59.02,-59.02 32.59,0 59.04,26.39 59.04,59.02zm531.31 59.02c32.59,0 59.02,-26.41 59.02,-59.02 0,-32.63 -26.43,-59.02 -59.02,-59.02 -32.59,0 -59.06,26.39 -59.06,59.02 0,32.61 26.47,59.02 59.06,59.02zm649.35 -59.02c0,32.61 -26.45,59.02 -59.04,59.02 -32.61,0 -59.04,-26.41 -59.04,-59.02 0,-32.63 26.43,-59.02 59.04,-59.02 32.59,0 59.04,26.39 59.04,59.02zm531.29 59.02c32.59,0 59.02,-26.41 59.02,-59.02 0,-32.63 -26.43,-59.02 -59.02,-59.02 -32.61,0 -59.04,26.39 -59.04,59.02 0,32.61 26.43,59.02 59.04,59.02zm649.39 -59.02c0,32.61 -26.45,59.02 -59.02,59.02 -32.65,0 -59.1,-26.41 -59.1,-59.02 0,-32.63 26.45,-59.02 59.1,-59.02 32.57,0 59.02,26.39 59.02,59.02zm531.29 59.02c32.59,0 59.02,-26.41 59.02,-59.02 0,-32.63 -26.43,-59.02 -59.02,-59.02 -32.61,0 -59.04,26.39 -59.04,59.02 0,32.61 26.43,59.02 59.04,59.02zm649.33 -59.02c0,32.61 -26.43,59.02 -59,59.02 -32.61,0 -59.04,-26.41 -59.04,-59.02 0,-32.63 26.43,-59.02 59.04,-59.02 32.57,0 59,26.39 59,59.02zm531.33 59.02c32.57,0 59,-26.41 59,-59.02 0,-32.63 -26.43,-59.02 -59,-59.02 -32.59,0 -59.04,26.39 -59.04,59.02 0,32.61 26.45,59.02 59.04,59.02zm590.33 0c-32.5,0 -59.06,-26.56 -59.06,-59.02 0,-32.48 26.56,-59.02 59.06,-59.02l0 118.04zm-7024.95 531.31c0,-32.48 -26.56,-59.04 -59.04,-59.04l0 118.06c32.48,0 59.04,-26.54 59.04,-59.02zm590.31 0c0,32.59 -26.41,59.02 -59,59.02 -32.61,0 -59.06,-26.43 -59.06,-59.02 0,-32.59 26.45,-59.04 59.06,-59.04 32.59,0 59,26.45 59,59.04zm531.31 59.02c32.55,0 59.02,-26.43 59.02,-59.02 0,-32.59 -26.47,-59.04 -59.02,-59.04 -32.61,0 -59.06,26.45 -59.06,59.04 0,32.59 26.45,59.02 59.06,59.02zm649.31 -59.02c0,32.59 -26.43,59.02 -59,59.02 -32.59,0 -59.04,-26.43 -59.04,-59.02 0,-32.59 26.45,-59.04 59.04,-59.04 32.57,0 59,26.45 59,59.04zm531.35 59.02c32.59,0 59.04,-26.43 59.04,-59.02 0,-32.59 -26.45,-59.04 -59.04,-59.04 -32.61,0 -59.02,26.45 -59.02,59.04 0,32.59 26.41,59.02 59.02,59.02zm649.37 -59.02c0,32.59 -26.43,59.02 -59.02,59.02 -32.59,0 -59.06,-26.43 -59.06,-59.02 0,-32.59 26.47,-59.04 59.06,-59.04 32.59,0 59.02,26.45 59.02,59.04zm531.29 59.02c32.59,0 59.04,-26.43 59.04,-59.02 0,-32.59 -26.45,-59.04 -59.04,-59.04 -32.61,0 -59.04,26.45 -59.04,59.04 0,32.59 26.43,59.02 59.04,59.02zm649.35 -59.02c0,32.59 -26.43,59.02 -59.02,59.02 -32.61,0 -59.04,-26.43 -59.04,-59.02 0,-32.59 26.43,-59.04 59.04,-59.04 32.59,0 59.02,26.45 59.02,59.04zm531.35 59.02c32.57,0 59.02,-26.43 59.02,-59.02 0,-32.59 -26.45,-59.04 -59.02,-59.04 -32.65,0 -59.1,26.45 -59.1,59.04 0,32.59 26.45,59.02 59.1,59.02zm649.33 -59.02c0,32.59 -26.43,59.02 -59.02,59.02 -32.61,0 -59.04,-26.43 -59.04,-59.02 0,-32.59 26.43,-59.04 59.04,-59.04 32.59,0 59.02,26.45 59.02,59.04zm531.31 59.02c32.57,0 59,-26.43 59,-59.02 0,-32.59 -26.43,-59.04 -59,-59.04 -32.61,0 -59.04,26.45 -59.04,59.04 0,32.59 26.43,59.02 59.04,59.02zm649.33 -59.02c0,32.59 -26.43,59.02 -59,59.02 -32.59,0 -59.04,-26.43 -59.04,-59.02 0,-32.59 26.45,-59.04 59.04,-59.04 32.57,0 59,26.45 59,59.04zm472.27 0c0,32.48 26.56,59.02 59.06,59.02l0 -118.06c-32.5,0 -59.06,26.56 -59.06,59.04zm-7024.94 531.31c32.48,0 59.04,26.56 59.04,59 0,32.5 -26.56,59.06 -59.04,59.06l0 -118.06zm590.35 118.06c32.59,0 59,-26.47 59,-59.06 0,-32.59 -26.41,-59 -59,-59 -32.61,0 -59.06,26.41 -59.06,59 0,32.59 26.45,59.06 59.06,59.06zm649.33 -59.06c0,32.59 -26.47,59.06 -59.02,59.06 -32.61,0 -59.06,-26.47 -59.06,-59.06 0,-32.59 26.45,-59 59.06,-59 32.55,0 59.02,26.41 59.02,59zm531.29 59.06c32.57,0 59,-26.47 59,-59.06 0,-32.59 -26.43,-59 -59,-59 -32.59,0 -59.04,26.41 -59.04,59 0,32.59 26.45,59.06 59.04,59.06zm649.39 -59.06c0,32.59 -26.45,59.06 -59.04,59.06 -32.61,0 -59.02,-26.47 -59.02,-59.06 0,-32.59 26.41,-59 59.02,-59 32.59,0 59.04,26.41 59.04,59zm531.31 59.06c32.59,0 59.02,-26.47 59.02,-59.06 0,-32.59 -26.43,-59 -59.02,-59 -32.59,0 -59.06,26.41 -59.06,59 0,32.59 26.47,59.06 59.06,59.06zm649.35 -59.06c0,32.59 -26.45,59.06 -59.04,59.06 -32.61,0 -59.04,-26.47 -59.04,-59.06 0,-32.59 26.43,-59 59.04,-59 32.59,0 59.04,26.41 59.04,59zm531.29 59.06c32.59,0 59.02,-26.47 59.02,-59.06 0,-32.59 -26.43,-59 -59.02,-59 -32.61,0 -59.04,26.41 -59.04,59 0,32.59 26.43,59.06 59.04,59.06zm649.39 -59.06c0,32.59 -26.45,59.06 -59.02,59.06 -32.65,0 -59.1,-26.47 -59.1,-59.06 0,-32.59 26.45,-59 59.1,-59 32.57,0 59.02,26.41 59.02,59zm531.29 59.06c32.59,0 59.02,-26.47 59.02,-59.06 0,-32.59 -26.43,-59 -59.02,-59 -32.61,0 -59.04,26.41 -59.04,59 0,32.59 26.43,59.06 59.04,59.06zm649.33 -59.06c0,32.59 -26.43,59.06 -59,59.06 -32.61,0 -59.04,-26.47 -59.04,-59.06 0,-32.59 26.43,-59 59.04,-59 32.57,0 59,26.41 59,59zm531.33 59.06c32.57,0 59,-26.47 59,-59.06 0,-32.59 -26.43,-59 -59,-59 -32.59,0 -59.04,26.41 -59.04,59 0,32.59 26.45,59.06 59.04,59.06zm590.33 0c-32.5,0 -59.06,-26.56 -59.06,-59.06 0,-32.44 26.56,-59 59.06,-59l0 118.06zm-7024.95 531.25c0,-32.44 -26.56,-59.02 -59.04,-59.02l0 118.08c32.48,0 59.04,-26.54 59.04,-59.06zm590.31 0c0,32.61 -26.41,59.06 -59,59.06 -32.61,0 -59.06,-26.45 -59.06,-59.06 0,-32.57 26.45,-59.02 59.06,-59.02 32.59,0 59,26.45 59,59.02zm531.31 59.06c32.55,0 59.02,-26.45 59.02,-59.06 0,-32.57 -26.47,-59.02 -59.02,-59.02 -32.61,0 -59.06,26.45 -59.06,59.02 0,32.61 26.45,59.06 59.06,59.06zm649.31 -59.06c0,32.61 -26.43,59.06 -59,59.06 -32.59,0 -59.04,-26.45 -59.04,-59.06 0,-32.57 26.45,-59.02 59.04,-59.02 32.57,0 59,26.45 59,59.02zm531.35 59.06c32.59,0 59.04,-26.45 59.04,-59.06 0,-32.57 -26.45,-59.02 -59.04,-59.02 -32.61,0 -59.02,26.45 -59.02,59.02 0,32.61 26.41,59.06 59.02,59.06zm649.37 -59.06c0,32.61 -26.43,59.06 -59.02,59.06 -32.59,0 -59.06,-26.45 -59.06,-59.06 0,-32.57 26.47,-59.02 59.06,-59.02 32.59,0 59.02,26.45 59.02,59.02zm531.29 59.06c32.59,0 59.04,-26.45 59.04,-59.06 0,-32.57 -26.45,-59.02 -59.04,-59.02 -32.61,0 -59.04,26.45 -59.04,59.02 0,32.61 26.43,59.06 59.04,59.06zm649.35 -59.06c0,32.61 -26.43,59.06 -59.02,59.06 -32.61,0 -59.04,-26.45 -59.04,-59.06 0,-32.57 26.43,-59.02 59.04,-59.02 32.59,0 59.02,26.45 59.02,59.02zm531.35 59.06c32.57,0 59.02,-26.45 59.02,-59.06 0,-32.57 -26.45,-59.02 -59.02,-59.02 -32.65,0 -59.1,26.45 -59.1,59.02 0,32.61 26.45,59.06 59.1,59.06zm649.33 -59.06c0,32.61 -26.43,59.06 -59.02,59.06 -32.61,0 -59.04,-26.45 -59.04,-59.06 0,-32.57 26.43,-59.02 59.04,-59.02 32.59,0 59.02,26.45 59.02,59.02zm531.31 59.06c32.57,0 59,-26.45 59,-59.06 0,-32.57 -26.43,-59.02 -59,-59.02 -32.61,0 -59.04,26.45 -59.04,59.02 0,32.61 26.43,59.06 59.04,59.06zm649.33 -59.06c0,32.61 -26.43,59.06 -59,59.06 -32.59,0 -59.04,-26.45 -59.04,-59.06 0,-32.57 26.45,-59.02 59.04,-59.02 32.57,0 59,26.45 59,59.02zm472.27 0c0,32.51 26.56,59.06 59.06,59.06l0 -118.08c-32.5,0 -59.06,26.58 -59.06,59.02zm-7024.94 531.31c32.48,0 59.04,26.56 59.04,59.04 0,32.48 -26.56,59.04 -59.04,59.04l0 -118.08zm590.35 118.08c32.59,0 59,-26.41 59,-59.04 0,-32.59 -26.41,-59.04 -59,-59.04 -32.61,0 -59.06,26.45 -59.06,59.04 0,32.63 26.45,59.04 59.06,59.04zm649.33 -59.04c0,32.63 -26.47,59.04 -59.02,59.04 -32.61,0 -59.06,-26.41 -59.06,-59.04 0,-32.59 26.45,-59.04 59.06,-59.04 32.55,0 59.02,26.45 59.02,59.04zm531.29 59.04c32.57,0 59,-26.41 59,-59.04 0,-32.59 -26.43,-59.04 -59,-59.04 -32.59,0 -59.04,26.45 -59.04,59.04 0,32.63 26.45,59.04 59.04,59.04zm649.39 -59.04c0,32.63 -26.45,59.04 -59.04,59.04 -32.61,0 -59.02,-26.41 -59.02,-59.04 0,-32.59 26.41,-59.04 59.02,-59.04 32.59,0 59.04,26.45 59.04,59.04zm531.31 59.04c32.59,0 59.02,-26.41 59.02,-59.04 0,-32.59 -26.43,-59.04 -59.02,-59.04 -32.59,0 -59.06,26.45 -59.06,59.04 0,32.63 26.47,59.04 59.06,59.04zm649.35 -59.04c0,32.63 -26.45,59.04 -59.04,59.04 -32.61,0 -59.04,-26.41 -59.04,-59.04 0,-32.59 26.43,-59.04 59.04,-59.04 32.59,0 59.04,26.45 59.04,59.04zm531.29 59.04c32.59,0 59.02,-26.41 59.02,-59.04 0,-32.59 -26.43,-59.04 -59.02,-59.04 -32.61,0 -59.04,26.45 -59.04,59.04 0,32.63 26.43,59.04 59.04,59.04zm649.39 -59.04c0,32.63 -26.45,59.04 -59.02,59.04 -32.65,0 -59.1,-26.41 -59.1,-59.04 0,-32.59 26.45,-59.04 59.1,-59.04 32.57,0 59.02,26.45 59.02,59.04zm531.29 59.04c32.59,0 59.02,-26.41 59.02,-59.04 0,-32.59 -26.43,-59.04 -59.02,-59.04 -32.61,0 -59.04,26.45 -59.04,59.04 0,32.63 26.43,59.04 59.04,59.04zm649.33 -59.04c0,32.63 -26.43,59.04 -59,59.04 -32.61,0 -59.04,-26.41 -59.04,-59.04 0,-32.59 26.43,-59.04 59.04,-59.04 32.57,0 59,26.45 59,59.04zm531.33 59.04c32.57,0 59,-26.41 59,-59.04 0,-32.59 -26.43,-59.04 -59,-59.04 -32.59,0 -59.04,26.45 -59.04,59.04 0,32.63 26.45,59.04 59.04,59.04zm590.33 0c-32.5,0 -59.06,-26.56 -59.06,-59.04 0,-32.48 26.56,-59.04 59.06,-59.04l0 118.08zm-7024.95 531.29c0,-32.44 -26.56,-59.06 -59.04,-59.06l0 118.14c32.48,0 59.04,-26.62 59.04,-59.08zm590.31 0c0,32.63 -26.41,59.08 -59,59.08 -32.61,0 -59.06,-26.45 -59.06,-59.08 0,-32.59 26.45,-59.06 59.06,-59.06 32.59,0 59,26.47 59,59.06zm531.31 59.08c32.55,0 59.02,-26.45 59.02,-59.08 0,-32.59 -26.47,-59.06 -59.02,-59.06 -32.61,0 -59.06,26.47 -59.06,59.06 0,32.63 26.45,59.08 59.06,59.08zm649.31 -59.08c0,32.63 -26.43,59.08 -59,59.08 -32.59,0 -59.04,-26.45 -59.04,-59.08 0,-32.59 26.45,-59.06 59.04,-59.06 32.57,0 59,26.47 59,59.06zm531.35 59.08c32.59,0 59.04,-26.45 59.04,-59.08 0,-32.59 -26.45,-59.06 -59.04,-59.06 -32.61,0 -59.02,26.47 -59.02,59.06 0,32.63 26.41,59.08 59.02,59.08zm649.37 -59.08c0,32.63 -26.43,59.08 -59.02,59.08 -32.59,0 -59.06,-26.45 -59.06,-59.08 0,-32.59 26.47,-59.06 59.06,-59.06 32.59,0 59.02,26.47 59.02,59.06zm531.29 59.08c32.59,0 59.04,-26.45 59.04,-59.08 0,-32.59 -26.45,-59.06 -59.04,-59.06 -32.61,0 -59.04,26.47 -59.04,59.06 0,32.63 26.43,59.08 59.04,59.08zm649.35 -59.08c0,32.63 -26.43,59.08 -59.02,59.08 -32.61,0 -59.04,-26.45 -59.04,-59.08 0,-32.59 26.43,-59.06 59.04,-59.06 32.59,0 59.02,26.47 59.02,59.06zm531.35 59.08c32.57,0 59.02,-26.45 59.02,-59.08 0,-32.59 -26.45,-59.06 -59.02,-59.06 -32.65,0 -59.1,26.47 -59.1,59.06 0,32.63 26.45,59.08 59.1,59.08zm649.33 -59.08c0,32.63 -26.43,59.08 -59.02,59.08 -32.61,0 -59.04,-26.45 -59.04,-59.08 0,-32.59 26.43,-59.06 59.04,-59.06 32.59,0 59.02,26.47 59.02,59.06zm531.31 59.08c32.57,0 59,-26.45 59,-59.08 0,-32.59 -26.43,-59.06 -59,-59.06 -32.61,0 -59.04,26.47 -59.04,59.06 0,32.63 26.43,59.08 59.04,59.08zm649.33 -59.08c0,32.63 -26.43,59.08 -59,59.08 -32.59,0 -59.04,-26.45 -59.04,-59.08 0,-32.59 26.45,-59.06 59.04,-59.06 32.57,0 59,26.47 59,59.06zm472.27 0c0,32.46 26.56,59.08 59.06,59.08l0 -118.14c-32.5,0 -59.06,26.62 -59.06,59.06zm-7024.94 590.35l0 -59.02c32.48,0 59.04,26.58 59.04,59.02l-59.04 0zm590.35 -59.02c-32.5,0 -59.06,26.58 -59.06,59.02l118.06 0c0,-32.44 -26.56,-59.02 -59,-59.02zm531.25 59.02c0,-32.44 26.56,-59.02 59.06,-59.02 32.46,0 59.02,26.58 59.02,59.02l-118.08 0zm649.37 -59.02c-32.48,0 -59.04,26.58 -59.04,59.02l118.04 0c0,-32.44 -26.54,-59.02 -59,-59.02zm531.33 59.02c0,-32.44 26.56,-59.02 59.02,-59.02 32.5,0 59.04,26.58 59.04,59.02l-118.06 0zm649.37 -59.02c-32.5,0 -59.06,26.58 -59.06,59.02l118.08 0c0,-32.44 -26.56,-59.02 -59.02,-59.02zm531.27 59.02c0,-32.44 26.54,-59.02 59.04,-59.02 32.48,0 59.04,26.58 59.04,59.02l-118.08 0zm649.37 -59.02c-32.48,0 -59.04,26.58 -59.04,59.02l118.06 0c0,-32.44 -26.56,-59.02 -59.02,-59.02zm531.27 59.02c0,-32.44 26.62,-59.02 59.1,-59.02 32.4,0 59.02,26.58 59.02,59.02l-118.12 0zm649.41 -59.02c-32.48,0 -59.04,26.58 -59.04,59.02l118.06 0c0,-32.44 -26.56,-59.02 -59.02,-59.02zm531.29 59.02c0,-32.44 26.54,-59.02 59.04,-59.02 32.46,0 59,26.58 59,59.02l-118.04 0zm649.37 -59.02c-32.5,0 -59.04,26.58 -59.04,59.02l118.04 0c0,-32.44 -26.54,-59.02 -59,-59.02zm531.27 59.02c0,-32.44 26.56,-59.02 59.06,-59.02l0 59.02 -59.06 0z"/>
      </g>
     </g>
     <g style="clip-path:url(#id4)">
      <path class="fil1" d="M8901.41 4714.08c0,-1978.52 -1604.5,-3583.01 -3583.01,-3583.01 -1978.5,0 -3583,1604.5 -3583,3583.01 0,1978.5 1604.5,3583 3583,3583 1978.52,0 3583.01,-1604.5 3583.01,-3583z"/>
      <g>
      </g>
     </g>
     <g style="clip-path:url(#id5)">
      <g>
       <line class="fil1 str2" x1="408.29" y1="3682.75" x2="57.32" y2= "3354.7" />
       <line class="fil1 str2" x1="68.77" y1="3694.2" x2="396.82" y2= "3343.25" />
      </g>
     </g>
     <g style="clip-path:url(#id6)">
      <polygon class="fil1" points="-0,3751.54 465.67,3751.54 465.67,3285.89 -0,3285.89 "/>
      <circle class="fil4" cx="6853.26" cy="7308.56" r="927.47"/>
      <path class="fil5" d="M7209.17 6959.16c0,-56.71 -88.34,-100.2 -205.24,-100.2 -116.9,0 -205.28,43.49 -205.28,100.2 0,1.91 0,2.84 0,4.73 0,0.97 0,2.84 0,3.8l0 160.7c0,10.37 8.57,18.88 19.02,18.88 10.44,0 19,-8.51 19,-18.88l0 -8.53c36.12,25.52 96.95,40.67 167.26,40.67 70.33,0 131.14,-16.08 167.22,-40.67l0 42.55c0,26.47 -63.63,62.39 -167.22,62.39l-9.5 0c-10.44,0 -19.98,0 -30.43,-1.91 -10.44,-0.91 -19.94,5.68 -21.85,16.06 -0.97,10.42 5.71,19.86 16.16,21.76 9.54,0.95 19.02,1.89 29.46,1.89l15.21 0c70.31,0 131.12,-16.06 167.26,-40.61l0 42.49c0,26.48 -63.69,62.41 -167.26,62.41l-8.55 0c-10.44,0 -19.98,0 -30.43,-1.89 -10.44,-0.93 -19.94,5.7 -21.85,16.06 -0.97,10.4 5.71,19.84 16.16,21.78 9.54,0.91 19.02,1.87 29.46,1.87l15.21 0c70.31,0 131.12,-16.06 167.26,-40.63l0 42.55c0,26.45 -63.69,62.37 -167.26,62.37l-8.55 0c-10.44,0 -19.98,0 -30.43,-1.87 -10.44,-0.97 -19.94,5.66 -21.85,16.06 -0.97,10.37 5.71,19.84 16.16,21.72 9.54,0.97 19.02,1.87 29.46,1.87l15.21 0c70.31,0 131.12,-16.06 167.26,-40.61l0 42.55c0,26.48 -63.69,62.37 -167.26,62.37l-8.55 0c-10.44,0 -19.98,0 -30.43,-1.87 -10.44,-0.97 -19.94,5.66 -21.85,16.06 -0.97,10.4 5.71,19.86 16.16,21.74 9.54,0.97 19.02,1.91 29.46,1.91l15.21 0c116.88,0 205.26,-43.49 205.26,-100.2l0 -500.98c0,-0.97 0,-2.84 0,-3.8 0.93,-1.89 0.93,-2.82 0.93,-4.73zm-205.24 -62.37c103.59,0 167.22,35.94 167.22,62.37 0,26.48 -63.63,62.41 -167.22,62.41 -103.57,0 -167.26,-35.92 -167.26,-62.41 0,-26.43 63.69,-62.37 167.26,-62.37zm0 225.89c-103.57,0 -167.26,-35.88 -167.26,-62.37l0 -41.58c36.12,25.52 96.95,40.63 167.26,40.63 70.33,0 131.14,-16.08 167.22,-40.63l0 41.58c0,25.52 -63.63,62.37 -167.22,62.37z"/>
      <path class="fil5" d="M6710.72 7184.34c-116.9,0 -205.3,43.12 -205.3,99.46 0,1.87 0,2.78 0,4.65 0,0.97 0,2.84 0,3.74l0 295.55c0,56.28 88.4,99.42 205.3,99.42 116.9,0 205.24,-43.14 205.24,-99.42l0 -295.55c0,-0.91 0,-2.78 0,-3.74 0,-1.87 0,-2.78 0,-4.65 0,-57.25 -88.34,-99.46 -205.24,-99.46zm167.22 301.15c0,26.23 -63.65,61.92 -167.22,61.92 -103.57,0 -167.22,-35.69 -167.22,-61.92l0 -43.18c36.1,25.32 96.91,40.36 167.22,40.36 70.31,0 131.12,-15.94 167.22,-40.36l0 43.18zm0 -101.33c0,26.29 -63.65,61.9 -167.22,61.9 -103.57,0 -167.22,-35.61 -167.22,-61.9l0 -41.3c36.1,25.36 96.91,40.36 167.22,40.36 70.31,0 131.12,-15.94 167.22,-40.36l0 41.3zm-167.22 -162.32c103.57,0 167.22,35.69 167.22,61.96 0,26.27 -63.65,61.9 -167.22,61.9 -103.57,0 -167.22,-35.63 -167.22,-61.9 0,-26.27 63.65,-61.96 167.22,-61.96zm0 426.89c-103.57,0 -167.22,-35.67 -167.22,-61.96l0 -42.19c36.1,25.34 96.91,40.32 167.22,40.32 70.31,0 131.12,-15.94 167.22,-40.32l0 42.19c0,26.29 -63.65,61.96 -167.22,61.96z"/>
      <circle class="fil1 str3" transform="matrix(0.264258 0.753465 -7.53465E-001 0.264258 6840.24 7321.63)" r="957.3"/>
      <circle class="fil1 str3" transform="matrix(0.264258 0.753465 -7.53465E-001 0.264258 6856.39 7327.88)" r="957.3"/>
     </g>
     <g id="_105553245674464" filter="url(#filter0_d_313:72)">
      <circle class="fil5" cx="1474.51" cy="6390.28" r="232.82"/>
     </g>
    </g>
   </g>
  </g>
  <polygon class="fil6" points="-0,0 8594.55,0 8594.55,8594.55 -0,8594.55 "/>
 </g>
</svg>
