<?xml version="1.0" encoding="UTF-8"?>
<!DOCTYPE svg PUBLIC "-//W3C//DTD SVG 1.1//EN" "http://www.w3.org/Graphics/SVG/1.1/DTD/svg11.dtd">
<!-- Creator: CorelDRAW -->
<svg xmlns="http://www.w3.org/2000/svg" xml:space="preserve" width="1.04054in" height="1.04054in" version="1.1" style="shape-rendering:geometricPrecision; text-rendering:geometricPrecision; image-rendering:optimizeQuality; fill-rule:evenodd; clip-rule:evenodd"
viewBox="0 0 821.07 821.07"
 xmlns:xlink="http://www.w3.org/1999/xlink"
 xmlns:xodm="http://www.corel.com/coreldraw/odm/2003">
 <defs>
  <style type="text/css">
   <![CDATA[
    .fil0 {fill:black}
    .fil2 {fill:#21AD62}
    .fil9 {fill:#2CBD70}
    .fil7 {fill:#39DB84}
    .fil6 {fill:#40DE8A}
    .fil5 {fill:#46D98A}
    .fil3 {fill:#4BE894}
    .fil8 {fill:#4FE394}
    .fil4 {fill:#53F19C}
    .fil1 {fill:#7CFFB0}
   ]]>
  </style>
 </defs>
 <g id="Layer_x0020_1">
  <metadata id="CorelCorpID_0Corel-Layer"/>
  <g id="_105553240688960">
   <circle class="fil0" cx="410.54" cy="410.54" r="410.54"/>
   <path class="fil1" d="M408.87 55.53c200.31,0 362.7,162.39 362.7,362.69 0,200.31 -162.39,362.69 -362.7,362.69 -200.3,0 -362.69,-162.39 -362.69,-362.69 0,-200.3 162.39,-362.69 362.69,-362.69zm0 28.13c184.77,0 334.57,149.8 334.57,334.56 0,184.77 -149.8,334.56 -334.57,334.56 -184.76,0 -334.56,-149.8 -334.56,-334.56 0,-184.77 149.8,-334.56 334.56,-334.56z"/>
   <path class="fil2" d="M415.48 42.32c203.95,0 369.3,165.34 369.3,369.29 0,203.96 -165.34,369.3 -369.3,369.3 -203.95,0 -369.29,-165.34 -369.29,-369.3 0,-203.95 165.34,-369.29 369.29,-369.29zm0 28.64c188.13,0 340.66,152.52 340.66,340.65 0,188.14 -152.53,340.66 -340.66,340.66 -188.13,0 -340.65,-152.52 -340.65,-340.66 0,-188.13 152.52,-340.65 340.65,-340.65z"/>
   <g>
    <path class="fil3" d="M123.24 255.08c15.59,7.36 11.25,55.91 9.59,68.42 -3.01,22.77 -8.43,46.41 -14.01,68.35 -13.8,54.3 -24.12,111.79 -16.22,161.14 16.86,38.26 40.66,72.77 69.83,101.91 12.08,6.53 25.94,12.03 41.83,16.31 16.86,4.55 55.23,11.14 74.35,8.96l-0.08 -1.68c-7.13,-5.3 -14.1,-15.15 -18.98,-22.94 -18.22,-29.11 -20.34,-64.17 -4.09,-93.67 4.75,-8.65 9.94,-16.64 17.18,-22.78 16.76,-14.18 18.79,-19.5 43.79,-35.97 7.8,-5.13 15.61,-10.33 23.64,-16.34l17.72 -12.51c0.48,-0.36 2.67,-1.98 3.17,-2.31 1.58,-1.09 0.98,-0.6 2.42,-1.62 23.3,-16.49 44.62,-35.3 62.13,-57.48 45.79,-58.12 17.65,-106.71 16.23,-125.14 -5.1,-6.38 -25.05,-19.95 -35.14,-24.44l-0.24 1.64c0.5,7.8 36.68,51.35 11.06,112.17 -13.27,31.53 -43.36,56.21 -87.47,56.42 -0.12,0.89 -0.34,2.96 -0.72,3.89 -1.34,3.35 -0.81,1.46 -2.45,3.11 -7.57,30.68 -41.5,55.08 -77.19,57.69 -44.58,3.26 -75.8,-14 -94.09,-39.68 -39.47,-55.39 -2.08,-124.11 -10.73,-172.42 -2.83,-15.84 -16.11,-38.6 -31.54,-31.03z"/>
    <path class="fil4" d="M288.53 678.5c-9.71,-54.12 10.74,-128.86 35.89,-114.82 17.31,9.67 49.26,-0.14 67.4,-4.68 10.83,-2.72 21.13,-6.16 32.1,-7.82 17.7,-2.67 21.62,1.43 33.84,6.51 -0.47,-34.74 -66.32,-52.17 -76.59,-80.93 14.27,12.58 8.59,11.1 29.01,26.01 70.52,51.53 182.16,54.7 244.15,-11.56 4.83,-5.19 24.46,-25.58 17.15,-36.8 -3.75,1.17 -3.26,1.6 -5.65,4.29 -6.57,7.35 -4.31,6.68 -14.14,14.77 -7.8,6.4 -12.53,10.33 -22.21,16.25 -37.88,23.18 -84.99,24.81 -125.83,8.96 -13.84,-5.37 -42.48,-21.84 -48.25,-30.33 9.06,2.18 20.61,8.18 31.63,11.14 58.91,15.8 117.79,-4.96 147.54,-60.35 8.26,-15.38 20.47,-45.1 20.47,-66.35l-0.11 -5.26c-8.79,17.38 -6.71,23.5 -28.18,37.59 -40.71,26.69 -86.08,17.45 -117.58,-15.71 -4.12,-4.32 -11.68,-13.48 -14.52,-19.32 -1.65,-3.19 -5.82,-6.09 -10.75,-14.56 -3.33,-5.73 -5.8,-11.09 -8.74,-17.43 -5.45,-11.76 -14.59,-24.2 -23.42,-30.4 1.43,18.44 29.56,67.02 -16.23,125.14 -17.51,22.18 -38.83,41 -62.13,57.48 -1.44,1.03 -0.85,0.54 -2.42,1.62 -0.5,0.33 -2.69,1.96 -3.17,2.31l-17.72 12.51c-8.03,6.01 -15.84,11.21 -23.64,16.34 -25.01,16.46 -27.03,21.79 -43.79,35.97 -7.24,6.14 -12.43,14.13 -17.18,22.78 -16.25,29.5 -14.14,64.56 4.09,93.67 4.88,7.79 11.85,17.64 18.98,22.94z"/>
    <path class="fil2" d="M67.78 291.41c0.39,5.25 -10.07,32.11 -11.76,40.31 -2.85,13.88 -6.88,27.02 -8.27,41.69 -1.26,13.44 -1.75,26.93 -1.52,40.36 0.6,-49.96 16.23,-98.58 35.09,-141.73 -10.51,5.66 -6.68,5.55 -11.24,15.6l-2.3 3.77zm200.62 461.28c16.76,7.6 37.53,15.46 52.85,18.99l1.85 -0.5 -0.17 -0.54c-18.8,-4.58 -37.01,-10.58 -54.53,-17.95zm37.56 -16.06c-1.61,-3.7 -3.02,-7.13 -4.12,-9.92 -6.38,-16.2 -9.25,-30.67 -13.23,-46.53 -19.12,2.18 -57.49,-4.41 -74.35,-8.96 -15.89,-4.28 -29.75,-9.78 -41.83,-16.31 36.99,36.95 82.59,65.27 133.54,81.72zm-203.36 -183.63c-7.9,-49.35 2.42,-106.84 16.22,-161.14 5.57,-21.95 11,-45.58 14.01,-68.35 1.66,-12.51 6,-61.07 -9.59,-68.42 -2.05,0.09 -4.5,0.53 -7.17,1.21 -26.59,47.98 -41.75,103.18 -41.75,161.93 0,47.96 10.11,93.54 28.28,134.77z"/>
    <path class="fil4" d="M339.95 433.52c44.12,-0.21 74.2,-24.89 87.47,-56.42 25.61,-60.82 -10.57,-104.38 -11.06,-112.17l0.24 -1.64 -5.67 -3.05c6.23,27.73 -3.34,36.6 -16.6,49.42 -19.04,18.39 -49.17,14.09 -71.1,6.52 -1.41,-0.49 -3.43,-1.09 -5.24,-1.76l-60.41 -37.26c-4.77,-4.12 -8.89,-8.11 -13.92,-12.4 -4.73,-4.03 -9.55,-8.96 -13.78,-12.35 -1.14,-0.93 -2.67,-2.06 -3.89,-2.96 -0.77,-0.55 -1.5,-1.09 -2.41,-1.75l-25.88 -15.43c-14.14,-6.76 -27.64,-6.61 -43.47,-7.71 5.56,4.03 35.32,7.18 56.17,43.29 21.47,37.18 31.67,101.7 61.74,136.28 18.11,20.8 35.31,28.62 67.8,29.39z"/>
    <path class="fil5" d="M336.78 440.51c1.62,-1.66 1.11,0.25 2.46,-3.12 0.37,-0.91 0.59,-2.98 0.71,-3.87 -32.48,-0.77 -49.68,-8.59 -67.79,-29.39 -30.09,-34.57 -40.27,-99.1 -61.75,-136.28 -20.86,-36.11 -50.61,-39.25 -56.17,-43.28l-9.78 -1.09c-2.13,0.07 -5.28,0.61 -8.66,1.42 -3.44,4.84 -6.73,9.79 -9.91,14.82 13.72,9.24 46.27,15.7 40.07,78.38 -4.06,41.05 -11.18,83.39 4.6,120.14 12.69,29.56 41.05,48.81 82.8,51.68 43.39,2.99 71.16,-21.34 83.43,-49.41z"/>
    <path class="fil1" d="M558.67 336.64c-7.13,9.4 -11.07,17.13 -26.02,20.4 -6.3,1.39 -14.49,1.08 -20.59,-0.19 -8.89,-1.85 -10.85,-4.24 -17.42,-6.75 2.84,5.84 10.4,14.99 14.52,19.32 31.5,33.16 76.87,42.4 117.58,15.71 21.46,-14.09 19.38,-20.21 28.18,-37.59l0.11 5.26c6.03,-14.01 -1.39,-57.18 -5.43,-71.41 -10.65,-37.51 -38.12,-69.41 -69.36,-90.45 -19.9,-13.4 -31.96,-16.48 -55.28,-25.44l19.86 14.05c8.7,6.19 13.24,13.14 19.87,21.48 25.69,32.32 41.75,112.27 -6.02,135.61z"/>
    <path class="fil1" d="M144.46 223.47l9.78 1.08c15.83,1.1 29.33,0.95 43.47,7.71l25.88 15.43c0.9,0.66 1.64,1.2 2.41,1.75 1.21,0.91 2.75,2.03 3.89,2.96 4.23,3.39 9.05,8.32 13.78,12.35 5.03,4.29 9.15,8.28 13.92,12.4l60.41 37.26c1.81,0.67 3.83,1.26 5.24,1.76 21.94,7.58 52.06,11.87 71.1,-6.52 13.26,-12.82 22.83,-21.69 16.6,-49.42 -4.63,-5.91 -48.61,-24.15 -54.12,-26.06 -48.13,-16.73 -88.57,-24.06 -140.75,-22.01 -17.18,0.7 -59.33,4.59 -71.59,11.3z"/>
    <path class="fil6" d="M344.29 147.93c0,23.96 4.93,39.82 22.37,50.85 45.88,28.99 44.48,-31.97 150.97,34.14 8.25,5.12 13.24,9.1 20.03,15.78 11,10.82 22.03,25.77 25.98,45.82 4.5,-6.6 -0.36,-25.3 -2,-30.13 -4.85,-14.2 -5.64,-15.05 -13.13,-26.42 -0.3,-0.47 -1.58,-2.43 -1.67,-2.57l-12.1 -15.43 -52.92 -37.7c-75.51,-45.19 -100.93,18.66 -100.12,-53.91 -27.47,4.24 -26.74,1.05 -37.42,19.59z"/>
    <path class="fil7" d="M563.65 294.5c2.96,16.74 1.39,28.64 -4.97,42.14 47.77,-23.34 31.71,-103.3 6.01,-135.62 -6.62,-8.33 -11.17,-15.29 -19.85,-21.47l-19.87 -14.05c-44.38,-8.06 -63.72,-10.99 -109.86,-0.95 10.79,1.91 20.26,3.12 28.75,6.4 11.26,4.33 27.42,4.97 37.97,11.29l52.92 37.7 12.1 15.43c0.1,0.14 1.37,2.11 1.67,2.57 7.49,11.37 8.28,12.22 13.13,26.42 1.65,4.83 6.5,23.53 2,30.13z"/>
    <path class="fil0" d="M380.59 327.73c4.22,25.25 4.8,23.34 33.35,27.78 -9.9,-23.19 -4.05,-17.73 -33.35,-27.78z"/>
   </g>
   <path class="fil3" d="M123.24 255.08c15.59,7.36 11.25,55.91 9.59,68.42 -3.01,22.77 -8.43,46.41 -14,68.35 -13.8,54.3 -24.12,111.79 -16.23,161.14 16.86,38.26 40.66,72.77 69.83,101.91 12.08,6.53 25.94,12.03 41.83,16.31 16.86,4.55 55.24,11.14 74.35,8.96l-0.08 -1.68c-7.13,-5.3 -14.1,-15.15 -18.98,-22.94 -18.23,-29.11 -20.34,-64.17 -4.09,-93.67 4.75,-8.65 9.94,-16.64 17.18,-22.77 13.86,-11.72 17.65,-17.4 32.68,-28.32 2.07,-3.75 4.63,-7.59 6.42,-11.1 2.63,-5.17 3.61,-9.66 5.37,-16.97 1.76,-7.32 4.29,-17.46 6.26,-25.12 1.96,-7.66 3.36,-12.83 7.84,-19.66 0.96,-1.45 2.05,-2.98 3.23,-4.53 -1.48,0.07 -2.97,0.11 -4.49,0.11 -0.12,0.89 -0.34,2.96 -0.72,3.89 -1.34,3.35 -0.82,1.46 -2.45,3.11 -7.57,30.68 -41.5,55.08 -77.19,57.69 -44.58,3.26 -75.8,-14 -94.09,-39.68 -39.47,-55.39 -2.08,-124.11 -10.73,-172.42 -2.83,-15.84 -16.11,-38.6 -31.54,-31.03z"/>
   <path class="fil4" d="M288.53 678.5c-9.71,-54.12 10.74,-128.86 35.89,-114.82 17.31,9.67 49.26,-0.14 67.4,-4.68 10.83,-2.72 21.13,-6.16 32.1,-7.82 17.7,-2.67 21.62,1.43 33.84,6.51 -0.47,-34.74 -66.32,-52.17 -76.59,-80.93 14.27,12.58 8.59,11.1 29.01,26.01 70.52,51.53 182.16,54.7 244.15,-11.56 4.83,-5.19 24.46,-25.58 17.15,-36.8 -3.75,1.17 -3.26,1.6 -5.65,4.29 -6.57,7.35 -4.31,6.68 -14.14,14.77 -7.8,6.4 -12.53,10.33 -22.21,16.25 -37.88,23.18 -84.99,24.81 -125.83,8.96 -13.84,-5.37 -42.48,-21.84 -48.25,-30.33 9.06,2.18 20.61,8.18 31.63,11.14 58.91,15.8 117.79,-4.96 147.54,-60.35 8.26,-15.38 20.47,-45.1 20.47,-66.35l-0.11 -5.26c-8.79,17.38 -6.71,23.5 -28.18,37.59 -40.71,26.69 -86.08,17.45 -117.58,-15.71 -4.12,-4.32 -11.68,-13.48 -14.52,-19.32 -1.65,-3.19 -5.82,-6.09 -10.75,-14.56 -3.33,-5.73 -5.8,-11.09 -8.74,-17.43 -5.45,-11.76 -14.59,-24.2 -23.42,-30.4 1.43,18.44 29.56,67.02 -16.23,125.14 -17.51,22.18 -38.83,41 -62.13,57.48 -1.44,1.03 -0.85,0.54 -2.42,1.62 -0.5,0.33 -2.69,1.96 -3.17,2.31l-17.72 12.51c-8.03,6.01 -15.84,11.21 -23.64,16.34 -25.01,16.46 -27.03,21.79 -43.79,35.97 -7.24,6.14 -12.43,14.13 -17.18,22.78 -16.25,29.5 -14.14,64.56 4.09,93.67 4.88,7.79 11.85,17.64 18.98,22.94z"/>
   <path class="fil2" d="M58.63 332.42c-2.85,13.88 -9.49,26.32 -10.88,40.99 -1.26,13.44 -1.75,26.93 -1.52,40.36 0.6,-49.96 23.09,-101.01 41.95,-144.17 -22.12,11.92 -24.89,40.15 -29.55,62.81zm209.77 420.27c16.76,7.6 37.53,15.46 52.85,18.99l1.85 -0.5 -0.17 -0.54c-18.8,-4.58 -37.01,-10.58 -54.53,-17.95zm37.56 -16.06c-1.61,-3.7 -3.02,-7.13 -4.12,-9.92 -6.38,-16.2 -9.25,-30.67 -13.23,-46.53 -19.12,2.18 -57.49,-4.41 -74.35,-8.96 -15.89,-4.28 -29.75,-9.78 -41.83,-16.31 36.99,36.95 82.59,65.27 133.54,81.72zm-203.36 -183.63c-7.9,-49.35 2.42,-106.84 16.22,-161.14 5.57,-21.95 11,-45.58 14.01,-68.35 1.66,-12.51 6,-61.07 -9.59,-68.42 -2.05,0.09 -4.5,0.53 -7.17,1.21 -26.59,47.98 -41.75,103.18 -41.75,161.93 0,47.96 10.11,93.54 28.28,134.77z"/>
   <path class="fil4" d="M339.95 433.52c44.12,-0.21 74.2,-24.89 87.47,-56.42 25.61,-60.82 -10.57,-104.38 -11.06,-112.17l0.24 -1.64 -5.67 -3.05c6.23,27.73 -3.34,36.6 -16.6,49.42 -19.04,18.39 -49.17,14.09 -71.1,6.52 -1.41,-0.49 -3.43,-1.09 -5.24,-1.76l-60.41 -37.26c-4.77,-4.12 -8.89,-8.11 -13.92,-12.4 -4.73,-4.03 -9.55,-8.96 -13.78,-12.35 -1.14,-0.93 -2.67,-2.06 -3.89,-2.96 -0.77,-0.55 -1.5,-1.09 -2.41,-1.75l-25.88 -15.43c-14.14,-6.76 -27.64,-6.61 -43.47,-7.71 5.56,4.03 35.32,7.18 56.17,43.29 21.47,37.18 31.67,101.7 61.74,136.28 18.11,20.8 35.31,28.62 67.8,29.39z"/>
   <path class="fil8" d="M315.33 510.79c3.14,-2.28 6.78,-4.8 11.1,-7.65 7.8,-5.13 15.62,-10.33 23.64,-16.34l17.72 -12.51c0.48,-0.36 2.67,-1.98 3.17,-2.31 1.58,-1.09 0.98,-0.6 2.42,-1.62 23.3,-16.49 44.62,-35.31 62.13,-57.48 45.79,-58.12 17.65,-106.71 16.23,-125.14 -5.1,-6.38 -25.05,-19.95 -35.14,-24.44l-0.24 1.64c0.5,7.8 36.68,51.35 11.06,112.17 -12.82,30.45 -41.32,54.5 -82.99,56.3 -1.18,1.55 -2.27,3.08 -3.23,4.53 -4.49,6.83 -5.88,12 -7.84,19.66 -1.96,7.66 -4.5,17.8 -6.26,25.12 -1.76,7.32 -2.73,11.81 -5.37,16.97 -1.79,3.52 -4.35,7.35 -6.42,11.1z"/>
   <path class="fil5" d="M336.78 440.51c1.62,-1.66 1.11,0.25 2.46,-3.12 0.37,-0.91 0.59,-2.98 0.71,-3.87 -32.48,-0.77 -49.68,-8.59 -67.79,-29.39 -30.09,-34.57 -40.27,-99.1 -61.75,-136.28 -20.86,-36.11 -50.61,-39.25 -56.17,-43.28l-9.78 -1.09c-2.13,0.07 -5.28,0.61 -8.66,1.42 -3.44,4.84 -6.73,9.79 -9.91,14.82 13.72,9.24 46.27,15.7 40.07,78.38 -4.06,41.05 -11.18,83.39 4.6,120.14 12.69,29.56 41.05,48.81 82.8,51.68 43.39,2.99 71.16,-21.34 83.43,-49.41z"/>
   <path class="fil1" d="M558.67 336.64c-7.13,9.4 -11.07,17.13 -26.02,20.4 -6.3,1.39 -14.49,1.08 -20.59,-0.19 -8.89,-1.85 -10.85,-4.24 -17.42,-6.75 2.84,5.84 10.4,14.99 14.52,19.32 31.5,33.16 76.87,42.4 117.58,15.71 21.46,-14.09 19.38,-20.21 28.18,-37.59l0.11 5.26c6.03,-14.01 -1.39,-57.18 -5.43,-71.41 -10.65,-37.51 -38.12,-69.41 -69.36,-90.45 -19.9,-13.4 -31.96,-16.48 -55.28,-25.44l19.86 14.05c8.7,6.19 13.24,13.14 19.87,21.48 25.69,32.32 41.75,112.27 -6.02,135.61z"/>
   <path class="fil1" d="M144.46 223.47l9.78 1.08c15.83,1.1 29.33,0.95 43.47,7.71l25.88 15.43c0.9,0.66 1.64,1.2 2.41,1.75 1.21,0.91 2.75,2.03 3.89,2.96 4.23,3.39 9.05,8.32 13.78,12.35 5.03,4.29 9.15,8.28 13.92,12.4l60.41 37.26c1.81,0.67 3.83,1.26 5.24,1.76 21.94,7.58 52.06,11.87 71.1,-6.52 13.26,-12.82 22.83,-21.69 16.6,-49.42 -4.63,-5.91 -48.61,-24.15 -54.12,-26.06 -48.13,-16.73 -88.57,-24.06 -140.75,-22.01 -17.18,0.7 -59.33,4.59 -71.59,11.3z"/>
   <path class="fil6" d="M344.29 147.93c0,23.96 4.93,39.82 22.37,50.85 45.88,28.99 44.48,-31.97 150.97,34.14 8.25,5.12 13.24,9.1 20.03,15.78 11,10.82 22.03,25.77 25.98,45.82 4.5,-6.6 -0.36,-25.3 -2,-30.13 -4.85,-14.2 -5.64,-15.05 -13.13,-26.42 -0.3,-0.47 -1.58,-2.43 -1.67,-2.57l-12.1 -15.43 -52.92 -37.7c-75.51,-45.19 -100.93,18.66 -100.12,-53.91 -27.47,4.24 -26.74,1.05 -37.42,19.59z"/>
   <path class="fil7" d="M563.65 294.5c2.96,16.74 1.39,28.64 -4.97,42.14 47.77,-23.34 31.71,-103.3 6.01,-135.62 -6.62,-8.33 -11.17,-15.29 -19.85,-21.47l-19.87 -14.05c-17.88,-3.25 -31.47,-6.68 -50.26,-7.9 -11.86,-0.78 -48.73,4.72 -58.7,6.89 10.78,1.91 21.3,-1.9 29.79,1.39 11.26,4.33 25.48,10.04 36.03,16.36l52.92 37.7 12.1 15.43c0.1,0.14 1.37,2.11 1.67,2.57 7.49,11.37 8.28,12.22 13.13,26.42 1.65,4.83 6.5,23.53 2,30.13z"/>
   <path class="fil0" d="M380.59 327.73c4.22,25.25 4.8,23.34 33.35,27.78 -9.9,-23.19 -4.05,-17.73 -33.35,-27.78z"/>
   <path class="fil9" d="M123.24 255.08c15.59,7.36 11.25,55.91 9.59,68.42 -3.01,22.77 -8.43,46.41 -14,68.35 -13.8,54.3 -24.12,111.79 -16.23,161.14 16.86,38.26 40.66,72.77 69.83,101.91 12.08,6.53 25.94,12.03 41.83,16.31 16.86,4.55 55.24,11.14 74.35,8.96l-0.08 -1.68c-7.13,-5.3 -14.1,-15.15 -18.98,-22.94 -18.23,-29.11 -20.34,-64.17 -4.09,-93.67 4.75,-8.65 9.94,-16.64 17.18,-22.77 13.86,-11.72 17.65,-17.4 32.68,-28.32 2.07,-3.75 4.63,-7.59 6.42,-11.1 2.63,-5.17 3.61,-9.66 5.37,-16.97 1.76,-7.32 4.29,-17.46 6.26,-25.12 1.96,-7.66 3.36,-12.83 7.84,-19.66 0.96,-1.45 2.05,-2.98 3.23,-4.53 -1.48,0.07 -2.97,0.11 -4.49,0.11 -0.12,0.89 -0.34,2.96 -0.72,3.89 -1.34,3.35 -0.82,1.46 -2.45,3.11 -7.57,30.68 -41.5,55.08 -77.19,57.69 -44.58,3.26 -75.8,-14 -94.09,-39.68 -39.47,-55.39 -2.08,-124.11 -10.73,-172.42 -2.83,-15.84 -16.11,-38.6 -31.54,-31.03z"/>
  </g>
 </g>
</svg>
