<svg width="84" height="84" viewBox="0 0 84 84" fill="none" xmlns="http://www.w3.org/2000/svg">
<path d="M41.1363 82.2838C63.6242 82.2838 81.8545 64.3693 81.8545 42.2685C81.8545 20.1678 63.6242 2.25159 41.1363 2.25159C18.6466 2.25159 0.417969 20.1678 0.417969 42.2685C0.417969 64.3693 18.6466 82.2838 41.1363 82.2838Z" fill="black"/>
<path fill-rule="evenodd" clip-rule="evenodd" d="M31.2765 1.67019L31.8986 1.60081L32.5276 1.54629L33.1652 1.50995L33.8061 1.48847L34.4539 1.48186L35.1051 1.49178L35.7614 1.5149L36.4178 1.5529L37.0775 1.60577L37.739 1.67019L38.4004 1.74949L39.0619 1.84035L39.7217 1.94278L40.3797 2.05842L41.0343 2.18563L41.6872 2.32274L42.335 2.47308L42.976 2.63002L43.6135 2.79853L44.2425 2.97694L44.8646 3.16362L45.4765 3.36021L46.0816 3.56341L46.6747 3.77652L47.2592 3.99624L47.8301 4.22257L48.3907 4.4555L48.936 4.69505L49.4692 4.93955L49.9871 5.19065L50.4879 5.44506L50.9733 5.70774L51.2263 5.84651L51.4741 5.98693L51.722 6.129L51.9681 6.27273L52.2108 6.4148L52.4518 6.56018L52.6911 6.70556L52.9269 6.85424L53.1628 7.00127L53.3953 7.14995L53.6277 7.30029L53.855 7.45062L54.0824 7.60261L54.3063 7.75459L54.5285 7.90823L54.7472 8.06352L54.9643 8.21881L55.1797 8.3741L55.3933 8.53104L55.6035 8.68964L55.8121 8.84823L56.0155 9.00848L56.2206 9.16872L56.4205 9.32897L56.6188 9.49087L56.8137 9.65276L57.0068 9.81631L57.1982 9.98152L57.3828 10.1451L57.5691 10.3103L57.752 10.4771L57.9315 10.6423L58.1366 10.834L58.3331 11.019L58.5229 11.1991L58.7057 11.3742L58.8818 11.5443L59.0527 11.7112L59.2185 11.8731L59.3775 12.0333L59.533 12.1903L59.6851 12.3439L59.8321 12.4975L59.974 12.6479L60.1158 12.7982L60.2526 12.9469L60.3876 13.0956L60.5226 13.2459L60.6525 13.3929L60.7841 13.5449L60.914 13.6969L61.0422 13.8522L61.1738 14.0075L61.302 14.1677L61.4319 14.3296L61.5652 14.4948L61.6968 14.665L61.8336 14.8401L61.9703 15.0202L62.1122 15.2052L62.2558 15.3952L62.4028 15.5918L62.5532 15.795L62.707 16.0048L62.7497 16.0626L62.789 16.1171L62.8249 16.1749L62.8625 16.2295L62.8967 16.2856L62.9343 16.3418L62.9702 16.3996L63.0061 16.4591L63.2488 16.9283L63.8521 17.6039L64.4401 18.2928L65.0093 18.9949L65.5648 19.7086L66.1015 20.4339L66.6211 21.1707L67.1236 21.9207L67.6073 22.6823L68.0722 23.4571L68.52 24.2401L68.9473 25.0364L69.3524 25.8442L69.7403 26.662L70.1061 27.4896L70.4514 28.3289L70.7761 29.178L71.0769 30.0387L71.3555 30.9093L71.6119 31.7882L71.8461 32.677L72.0546 33.5773L72.2409 34.486L72.4016 35.4028L72.54 36.3296L72.6511 37.2647L72.7366 38.2096L72.7964 39.1612L72.8289 40.1227L72.8374 41.0924L72.8152 42.0671L72.7673 43.0533L72.6904 44.0446L72.5605 45.2505L72.3913 46.4449L72.1828 47.6278L71.9367 48.7974L71.6529 49.9538L71.335 51.097L70.9795 52.2254L70.5881 53.3372L70.1625 54.4341L69.7045 55.5129L69.2122 56.5735L68.6875 57.6159L68.132 58.6402L67.544 59.643L66.9253 60.6259L66.2792 61.5841L65.6024 62.5241L64.8965 63.4393L64.1649 64.3314L63.4061 65.197L62.6198 66.0379L61.8097 66.854L60.9739 67.6404L60.1141 68.402L59.2305 69.1338L58.3246 69.8376L57.3965 70.5116L56.4479 71.1542L55.4788 71.7671L54.4874 72.3453L53.479 72.8938L52.4518 73.4059L52.2415 73.5051L52.0364 73.6025L51.8331 73.6967L51.6279 73.7909L51.4246 73.8817L51.2212 73.9709L51.0178 74.0601L50.8161 74.1477L50.6127 74.232L50.411 74.3162L50.2093 74.3972L50.0059 74.4798L49.8025 74.5591L49.5974 74.6384L49.3923 74.7177L49.1872 74.7936L48.9804 74.868L48.7736 74.944L48.5651 75.0183L48.3548 75.091L48.1412 75.1637L47.9275 75.2347L47.7122 75.3058L47.4951 75.3768L47.2763 75.4462L47.0541 75.5156L46.8302 75.5866L46.6012 75.6543L46.3739 75.7221L46.1414 75.7898L45.9055 75.8592L45.6663 75.9269L45.1979 76.0558L44.7194 76.1747L44.2357 76.2887L43.7468 76.3945L43.2494 76.4936L42.7469 76.5844L42.2393 76.6687L41.7283 76.743L41.2104 76.8124L40.6891 76.8735L40.166 76.9264L39.6362 76.9727L39.1063 77.0107L38.5731 77.042L38.0364 77.0652L37.498 77.08L36.9596 77.0866L36.4195 77.0883L35.8794 77.08L35.3376 77.0652L34.7974 77.042L34.2556 77.0123L33.7172 76.9743L33.1788 76.9281L32.6421 76.8752L32.1055 76.8141L31.5739 76.7447L31.044 76.6687L30.5176 76.5828L29.9946 76.4919L29.475 76.3912L28.9588 76.2838L28.3367 76.1417L27.7214 75.993L27.1163 75.8344L26.5232 75.6676L25.9352 75.4941L25.3592 75.3107L24.7918 75.1191L24.2295 74.9209L23.6791 74.7143L23.1356 74.4996L22.5972 74.2766L22.069 74.0453L21.5477 73.8074L21.035 73.5612L20.5273 73.3085L20.0265 73.0475L19.5326 72.7782L19.0437 72.5006L18.5635 72.2165L18.0866 71.9257L17.6166 71.6267L17.1499 71.3211L16.6885 71.0089L16.2338 70.6867L15.7826 70.3596L15.3365 70.0259L14.8955 69.6839L14.458 69.3354L14.0238 68.9802L13.5914 68.6184L13.1658 68.25L12.7402 67.8733L12.6633 67.8039L12.5847 67.7312L12.5061 67.6602L12.4274 67.5875L12.3471 67.5148L12.2702 67.4405L12.1916 67.3662L12.1129 67.2935L12.0343 67.2175L11.9574 67.1431L11.8805 67.0688L11.8053 66.9961L11.7284 66.9201L11.6532 66.8474L11.5797 66.7731L11.5062 66.702L11.3968 66.5881L11.2806 66.4675L11.1592 66.3402L11.0344 66.2048L10.9045 66.0627L10.7712 65.9157L10.6362 65.7637L10.4977 65.6051L10.3559 65.4432L10.2123 65.2763L10.0687 65.1062L9.92174 64.9344L9.77475 64.7576L9.62776 64.5808L9.47906 64.4024L9.33207 64.2207L9.18507 64.0406L9.0415 63.8589L8.89622 63.6772L8.75436 63.4988L8.61591 63.3204L8.47917 63.1436L8.34415 62.9701L8.21596 62.7967L8.08948 62.6315L7.96641 62.4663L7.85019 62.306L7.73909 62.1507L7.63312 62.002L7.53228 61.8567L7.43827 61.7179L7.3511 61.5874L7.29641 61.5048L7.24342 61.4205L7.19044 61.3379L7.13916 61.2537L7.08788 61.1711L7.03661 61.0885L6.98362 61.0042L6.93406 60.9233L6.87936 60.8407L6.82467 60.7614L6.76997 60.6821L6.71357 60.6011L6.65375 60.5235L6.59222 60.4475L6.52727 60.3715L6.46061 60.2955L5.98032 59.8379L5.81453 59.6215L5.65899 59.4166L5.50858 59.2217L5.36501 59.035L5.22486 58.8549L5.08983 58.6798L4.95822 58.5047L4.8249 58.3329L4.69329 58.1561L4.55998 57.9761L4.42666 57.7894L4.2865 57.5944L4.14293 57.3896L3.99423 57.1732L3.83869 56.9402L3.67461 56.6924L1.3501 52.7689L2.65251 56.8395L2.75848 57.0906L2.86103 57.3334L2.96016 57.568L3.05588 57.796L3.14818 58.0174L3.23876 58.2321L3.32593 58.4419L3.41139 58.6468L3.49514 58.8483L3.5789 59.0433L3.66094 59.2382L3.74298 59.4282L3.82673 59.6149L3.90877 59.8015L3.99252 59.9882L4.07798 60.1749L4.16344 60.3599L4.25232 60.545L4.34291 60.7333L4.43862 60.9233L4.53605 61.1149L4.63689 61.3098L4.74115 61.5081L4.85054 61.7113L4.96506 61.9178L5.0847 62.1309L5.20947 62.3473L5.34108 62.572L5.47782 62.8033L5.6231 63.0428L5.77351 63.289L5.93417 63.545L5.97861 63.6194L6.02818 63.702L6.07946 63.7879L6.13415 63.8787L6.18885 63.9729L6.24354 64.0704L6.30165 64.1678L6.35977 64.2653L6.41788 64.3611L6.47599 64.4536L6.53239 64.5445L6.59051 64.6288L6.6452 64.7081L6.69819 64.7791L6.75117 64.8419L6.79903 64.8964L6.85714 64.9146L6.94773 64.974L7.06567 65.0715L7.20924 65.197L7.37332 65.3507L7.55108 65.5241L7.73909 65.7125L7.93394 65.9091L8.12879 66.109L8.32022 66.3072L8.50481 66.4988L8.67573 66.6773L8.82956 66.8375L8.96288 66.9746L9.06885 67.082L9.14234 67.1547L9.29959 67.3034L9.45684 67.4504L9.61579 67.5974L9.77475 67.7428L9.9337 67.8898L10.0944 68.0352L10.255 68.179L10.4174 68.326L10.5815 68.4681L10.7473 68.6118L10.9131 68.7555L11.0823 68.8976L11.2515 69.038L11.4258 69.1784L11.6002 69.3205L11.7762 69.4593L12.3608 69.9086L12.9504 70.3464L13.547 70.7743L14.1469 71.1939L14.7536 71.6003L15.3673 71.9968L15.9843 72.3817L16.6098 72.7567L17.2388 73.1201L17.8747 73.472L18.5173 73.814L19.1651 74.1427L19.8214 74.4616L20.4812 74.7689L21.1495 75.0629L21.8246 75.3454L22.5049 75.618L23.1937 75.8774L23.8876 76.1252L24.5884 76.3598L25.296 76.5828L26.0122 76.7942L26.7351 76.9925L27.465 77.1759L28.2016 77.3493L28.9469 77.5096L29.6972 77.6566L30.4578 77.7904L31.2235 77.9127L31.9995 78.02L32.7823 78.1142L33.572 78.1952L34.3172 78.2563L35.0658 78.3058L35.8195 78.3405L36.575 78.3604L37.3339 78.3686L38.0928 78.3604L38.8568 78.3405L39.6191 78.3075L40.3831 78.2596L41.1471 78.1985L41.9094 78.1241L42.6717 78.0382L43.4323 77.9358L44.1912 77.8235L44.9484 77.6962L45.7004 77.5575L46.4508 77.4038L47.196 77.2403L47.9378 77.0619L48.6744 76.8719L49.4043 76.6687L50.1273 76.4539L50.8468 76.2259L51.5562 75.9864L52.2586 75.7336L52.9526 75.4693L53.6397 75.1934L54.3165 74.9043L54.9831 74.6053L55.6394 74.2931L56.2855 73.9693L56.9196 73.6339L57.176 73.4935L57.4307 73.3547L57.6819 73.2143L57.9315 73.0739L58.1793 72.9351L58.4237 72.7947L58.6664 72.6559L58.9074 72.5139L59.1467 72.3734L59.386 72.233L59.6202 72.0893L59.8543 71.9472L60.0868 71.8035L60.3175 71.6581L60.5483 71.5127L60.7756 71.3657L61.0012 71.2203L61.2285 71.07L61.4524 70.9197L61.6763 70.7693L61.8985 70.6157L62.119 70.462L62.3395 70.3051L62.56 70.1482L62.7788 69.9863L62.9975 69.826L63.2146 69.6625L63.4317 69.4973L63.6488 69.3288L63.8658 69.1586L64.0812 68.9868L64.2965 68.8117L64.5786 68.5787L64.8623 68.3425L65.146 68.0997L65.4332 67.8502L65.7186 67.5974L66.0057 67.3397L66.2946 67.0754L66.58 66.8094L66.8672 66.5385L67.1526 66.2626L67.4398 65.9834L67.7235 65.7009L68.0055 65.4151L68.2858 65.126L68.5644 64.8336L68.8413 64.5379L69.1165 64.2405L69.3883 63.9415L69.6549 63.6408L69.9198 63.3369L70.1796 63.0312L70.4377 62.724L70.6907 62.4167L70.9368 62.1061L71.1812 61.7972L71.4188 61.4883L71.6512 61.1777L71.8786 60.8671L72.099 60.5565L72.3127 60.2459L72.5212 59.937L72.7229 59.6281L72.9861 59.2134L73.2476 58.7988L73.504 58.3858L73.7553 57.9695L74.0031 57.5564L74.2475 57.1418L74.4868 56.7238L74.7227 56.3059L74.9534 55.8863L75.179 55.4633L75.4012 55.0404L75.6183 54.6142L75.8319 54.1847L76.0422 53.7535L76.2456 53.3157L76.4455 52.8763L76.6421 52.4319L76.8335 51.9825L77.0198 51.5299L77.1993 51.0706L77.3771 50.6064L77.548 50.1372L77.7155 49.6614L77.8796 49.179L78.0368 48.6917L78.1889 48.1961L78.3359 47.6922L78.4795 47.1817L78.6179 46.663L78.7513 46.1377L78.8794 45.6024L79.0008 45.0589L79.1204 44.4923L79.2315 43.9273L79.3358 43.3639L79.4315 42.8006L79.5204 42.2372L79.599 41.6739L79.6708 41.1139L79.7358 40.5538L79.7922 39.9938L79.84 39.4338L79.8827 38.8754L79.9152 38.3186L79.9426 37.7636L79.9614 37.2085L79.9716 36.6534L79.9767 36.1016L79.9716 35.5499L79.9614 34.9997L79.9426 34.4529L79.9169 33.9044L79.8845 33.3593L79.8451 32.8141L79.799 32.2706L79.7443 31.7304L79.6845 31.1918L79.6161 30.6516L79.5426 30.1164L79.4606 29.5811L79.3734 29.0492L79.2777 28.5189L79.1751 27.9886L79.0675 27.4632L78.9786 27.0469L78.8846 26.6372L78.7889 26.2325L78.688 25.8327L78.5855 25.4362L78.4778 25.0447L78.3684 24.6564L78.2556 24.2732L78.1394 23.8932L78.0197 23.5149L77.8949 23.1415L77.7685 22.7698L77.6386 22.4031L77.5052 22.0363L77.3685 21.6745L77.2284 21.3111L77.0848 20.9526L76.9361 20.5958L76.7857 20.2389L76.6318 19.8837L76.4729 19.5302L76.3105 19.1767L76.1464 18.8231L75.9772 18.4713L75.8046 18.1194L75.6285 17.7675L75.4491 17.4156L75.2662 17.0637L75.0799 16.7102L74.8885 16.3567L74.6953 16.0015L74.4971 15.6446L74.4526 15.5687L74.3979 15.4828L74.3381 15.3886L74.2731 15.2878L74.2031 15.1837L74.1313 15.0747L74.0612 14.964L73.9911 14.8533L73.9262 14.7459L73.8646 14.6402L73.81 14.5411L73.7672 14.4469L73.7313 14.3627L73.7091 14.285L73.7023 14.2206L73.7091 14.1677L70.2087 10.5465L70.1249 10.4672L70.036 10.3813L69.9386 10.2937L69.8344 10.1996L69.7233 10.1021L69.6087 10.0013L69.4857 9.89561L69.3592 9.78823L69.2276 9.67755L69.0926 9.56521L68.9541 9.45122L68.8123 9.33558L68.6687 9.21828L68.5217 9.09934L68.3747 8.9837L68.226 8.86475L68.0773 8.74746L67.9286 8.63181L67.7799 8.51617L67.6312 8.40218L67.4859 8.28985L67.3441 8.18081L67.2022 8.07508L67.0637 7.97266L66.9287 7.87189L66.7971 7.77607L66.6706 7.68355L66.5476 7.59765L66.4313 7.51505L66.3219 7.4374L66.216 7.36637L66.1203 7.30359L65.8348 7.11526L65.5494 6.93023L65.2622 6.74686L64.9734 6.56348L64.6828 6.38176L64.3923 6.20169L64.0983 6.02162L63.8043 5.8432L63.5069 5.66809L63.2112 5.49132L62.9104 5.31786L62.6113 5.1477L62.3087 4.97919L62.0045 4.81234L61.7003 4.64879L61.3943 4.48524L61.0867 4.32665L60.7773 4.1697L60.4662 4.01607L60.1534 3.86408L59.8389 3.71705L59.5262 3.57167L59.21 3.4296L58.8903 3.29083L58.5707 3.15536L58.2494 3.0232L57.9281 2.89434L57.6033 2.77044L57.2786 2.64984L56.9521 2.53255L56.6239 2.42021L56.2941 2.31283L55.9881 2.21536L55.6839 2.11954L55.3796 2.02703L55.0788 1.93452L54.778 1.84531L54.4772 1.75775L54.1764 1.67185L53.8773 1.58759L53.5799 1.50664L53.2825 1.42735L52.9851 1.34805L52.6877 1.27206L52.3937 1.19937L52.0963 1.12833L51.8006 1.05895L51.5066 0.991213L51.2109 0.925132L50.9169 0.862355L50.6212 0.802883L50.3272 0.74341L50.0333 0.685589L49.7393 0.631072L49.4436 0.578208L49.1496 0.528647L48.8556 0.480738L48.5582 0.434482L48.2642 0.389877L47.9668 0.348577L47.6711 0.31058L47.3737 0.274236L47.0746 0.239543L46.7772 0.206503L44.8869 0.0578208L44.7433 0.0495607L44.598 0.0429526L44.4527 0.0363445L44.3091 0.0297364L44.1622 0.0247803L44.0186 0.0198243L43.8733 0.0165202L43.7263 0.0115642L43.581 0.00991213L43.434 0.00660809L43.287 0.00330404H43.1401L42.9931 0.00165202L42.8461 0H42.6974L42.5487 0.00165202L42.4 0.00330404L42.2513 0.00495607L42.1009 0.00660809L41.9522 0.00991213L41.8018 0.0115642L41.6513 0.0165202L41.5009 0.0214763L41.3488 0.0264324L41.1984 0.0313884L41.0463 0.0379965L40.8925 0.0429526L40.7403 0.0512127L40.5882 0.0594728L40.4327 0.0677329L40.2789 0.077645L40.125 0.0859051L39.937 0.0991213L39.749 0.110685L39.561 0.125554L39.3696 0.13877L39.1798 0.153638L38.9884 0.170158L38.7953 0.186678L38.6021 0.203199L38.409 0.221371L38.2141 0.239543L38.0193 0.259367L37.8262 0.279192L37.6313 0.300668L37.4365 0.322144L37.2416 0.345273L37.0468 0.368401L36.8519 0.393181L36.6588 0.417962L36.4639 0.442742L36.2725 0.470826L36.0793 0.498911L35.8879 0.526995L35.6965 0.556731L35.5068 0.58812L35.3188 0.619508L35.1307 0.650897L34.9444 0.685589L34.7581 0.720282L34.5753 0.754974L34.3907 0.792971L34.2095 0.829315L34.0317 0.868964L33.9326 0.888788L33.8027 0.91522L33.6472 0.946609L33.4677 0.981301L33.2711 1.0226L33.0626 1.06721L32.8438 1.11511L32.6233 1.16633L32.4029 1.2225L32.1892 1.28032L31.9841 1.34144L31.7961 1.40257L31.6252 1.46865L31.4799 1.53473L31.362 1.60246L31.2765 1.67019Z" fill="#33DC76"/>
<path fill-rule="evenodd" clip-rule="evenodd" d="M6.8457 64.8996L7.08328 65.2713L7.33112 65.6463L7.5875 66.0197L7.85413 66.3963L8.12931 66.7697L8.41133 67.1447L8.70531 67.5197L9.00271 67.8914L9.31037 68.2631L9.62315 68.6348L9.94107 69.0032L10.2675 69.37L10.5991 69.7334L10.9358 70.0952L11.2777 70.452L11.6246 70.8072L11.975 71.1575L12.3288 71.5044L12.6878 71.848L13.0467 72.185L13.4107 72.5187L13.7765 72.8458L14.144 73.168L14.5132 73.4835L14.8824 73.7941L15.2533 74.0981L15.6242 74.3938L15.9951 74.6845L16.366 74.9654L16.7334 75.2396L17.1026 75.5056L17.4684 75.7649L17.87 76.0375L18.2768 76.3101L18.6888 76.581L19.1075 76.8487L19.5314 77.113L19.9604 77.3724L20.3962 77.6301L20.8372 77.8845L21.285 78.1339L21.738 78.3801L22.1977 78.6229L22.6644 78.8608L23.1361 79.0938L23.6164 79.3218L24.1001 79.5464L24.5906 79.7645L25.088 79.9776L25.5939 80.1858L26.105 80.389L26.6229 80.5839L27.1476 80.7739L27.6774 80.9589L28.2158 81.1373L28.7611 81.3075L29.3131 81.471L29.8738 81.628L30.4395 81.7783L31.0121 81.9204L31.5932 82.0558L32.1812 82.1831L32.7777 82.302L33.381 82.4127L33.5503 82.4424L33.7229 82.4738L33.8989 82.5052L34.0733 82.5366L34.251 82.568L34.4305 82.601L34.61 82.6324L34.7911 82.6654L34.974 82.6968L35.1586 82.7282L35.3432 82.7596L35.5295 82.791L35.7158 82.8207L35.9055 82.8505L36.0953 82.8786L36.285 82.9066L38.5326 83.1247L39.1701 83.1478L39.7974 83.1627L40.4212 83.171H41.0348L41.6467 83.1644L42.2484 83.1495L42.8483 83.1264L43.4431 83.0966L44.0311 83.0586L44.6173 83.0124L45.1985 82.9595L45.7779 82.8984L46.3522 82.8273L46.9248 82.7513L47.4939 82.6654L48.0631 82.5729L48.6305 82.4722L49.1963 82.3631L49.7603 82.2475L50.3243 82.1236L50.8901 81.9914L51.4541 81.851L52.0199 81.7023L52.5856 81.5454L53.1531 81.3818L53.724 81.21L54.2965 81.0283L54.8708 80.8416L55.4485 80.645L56.0297 80.4402L56.6142 80.2287L57.2022 80.0073L57.7218 79.8041L58.2414 79.5894L58.761 79.3631L59.2806 79.1268L59.8002 78.879L60.318 78.6213L60.8359 78.3553L61.3504 78.0761L61.8649 77.792L62.3742 77.4963L62.8836 77.1923L63.3912 76.8817L63.8937 76.5612L64.3928 76.2341L64.8885 75.8988L65.3824 75.5584L65.8695 75.2115L66.3515 74.8563L66.8284 74.4962L67.3018 74.1311L67.7685 73.761L68.2299 73.3844L68.6846 73.0044L69.1324 72.6195L69.5751 72.2313L70.0092 71.8381L70.4348 71.4449L70.8536 71.0451L71.2655 70.6437L71.6671 70.2406L72.0603 69.8358L72.4448 69.4294L72.5303 69.3386L72.614 69.2477L72.6961 69.1585L72.7781 69.0693L72.8584 68.9834L72.9371 68.8942L73.0174 68.8083L73.0943 68.7207L73.1729 68.6348L73.2516 68.5456L73.3302 68.4564L73.4071 68.3672L73.4857 68.2763L73.5643 68.1838L73.643 68.0897L73.725 67.9938L73.872 67.8154L74.0139 67.642L74.1523 67.4751L74.2856 67.3132L74.4121 67.1563L74.5352 67.001L74.6548 66.8539L74.7693 66.7069L74.8821 66.5648L74.9915 66.4228L75.0975 66.284L75.2018 66.1469L75.306 66.0114L75.4069 65.8759L75.506 65.7405L75.6051 65.605L75.7043 65.4679L75.8 65.3308L75.8991 65.192L75.9965 65.0499L76.0957 64.9062L76.1965 64.7608L76.2991 64.6105L76.4016 64.4569L76.5076 64.2966L76.6153 64.1347L76.7264 63.9662L76.8409 63.7911L76.9588 63.611L77.0802 63.4243L77.205 63.2294L77.3348 63.0279L77.8767 62.1605L78.3946 61.2784L78.8868 60.383L79.3568 59.476L79.8029 58.5575L80.2251 57.6257L80.6216 56.6824L80.996 55.7309L81.3463 54.7694L81.6728 53.7997L81.9736 52.8217L82.2505 51.8371L82.5035 50.8458L82.7325 49.848L82.9376 48.8453L83.1188 47.8392L83.2743 46.8298L83.4059 45.8138L83.5136 44.7978L83.5974 43.7802L83.6555 42.7609L83.6914 41.7416L83.7016 40.7223L83.688 39.703L83.6503 38.687L83.5871 37.6726L83.4999 36.6616L83.3888 35.6539L83.2538 34.6511L83.0914 33.6533L82.9086 32.6604L82.6983 31.6741L82.5855 31.1868L82.4642 30.7011L82.3394 30.2171L82.2061 29.7347L82.0676 29.2539L81.9223 28.7748L81.7719 28.2991L81.6147 27.8249L81.4506 27.3524L81.2814 26.8833L81.1071 26.4157L80.9259 25.9499L80.7396 25.4873L80.5482 25.0264L80.3499 24.5688L80.1465 24.1128L79.938 23.6602L79.7243 23.2092L79.5038 22.7615L79.2799 22.3154L79.0492 21.8727L78.8167 21.4332L78.5757 20.9955L78.3313 20.561L78.0818 20.1298L77.8271 19.7003L77.569 19.2741L77.3041 18.8528L77.0357 18.4332L76.764 18.0152L76.4854 17.6022L76.2034 17.1925L76.1299 17.0901L76.0547 16.9976L75.9829 16.9117L75.9094 16.8274L75.8393 16.7448L75.7675 16.6589L75.6957 16.5647L75.6239 16.464L73.7541 14.171L73.7472 14.2222L73.7541 14.2866L73.7763 14.3626L73.8105 14.4485L73.8566 14.5427L73.9096 14.6418L73.9711 14.7475L74.0361 14.8549L74.1062 14.9672L74.1762 15.0763L74.248 15.1836L74.3181 15.2894L74.3831 15.3902L74.4446 15.4843L74.4976 15.5702L74.542 15.6462L74.7403 16.0014L74.9334 16.3566L75.1249 16.7118L75.3112 17.0637L75.4958 17.4172L75.6735 17.7691L75.8513 18.1209L76.0222 18.4728L76.1914 18.8247L76.3572 19.1782L76.5179 19.5318L76.6768 19.8853L76.8306 20.2405L76.9811 20.5957L77.1298 20.9542L77.2733 21.3143L77.4118 21.6744L77.5502 22.0379L77.6835 22.403L77.8151 22.7714L77.9416 23.1431L78.063 23.5181L78.1826 23.8931L78.3005 24.2747L78.4151 24.6596L78.5227 25.0462L78.6304 25.4377L78.733 25.8342L78.8321 26.2357L78.9295 26.6388L79.0235 27.0501L79.1141 27.4648L79.2218 27.9918L79.3226 28.5204L79.4184 29.0507L79.5055 29.5843L79.5876 30.1179L79.6611 30.6548L79.7294 31.1917L79.791 31.732L79.844 32.2738L79.8901 32.8157L79.9294 33.3608L79.9636 33.906L79.9875 34.4528L80.0063 35.0013L80.0166 35.5514L80.02 36.1032L80.0166 36.6566L80.0063 37.2101L79.9875 37.7635L79.9602 38.3202L79.926 38.8786L79.8867 39.437L79.8354 39.9954L79.7807 40.5538L79.7175 41.1154L79.644 41.6771L79.5637 42.2388L79.4765 42.8022L79.3808 43.3655L79.2765 43.9305L79.1654 44.4955L79.044 45.0605L78.9227 45.604L78.7962 46.1392L78.6612 46.6662L78.5245 47.185L78.3826 47.6938L78.2339 48.1977L78.0818 48.6933L77.9228 49.1823L77.7604 49.663L77.5946 50.1388L77.422 50.6096L77.246 51.0738L77.0648 51.5314L76.8785 51.9841L76.6871 52.4334L76.4922 52.8778L76.2905 53.3173L76.0871 53.7534L75.8786 54.1862L75.665 54.6158L75.4462 55.042L75.224 55.4666L74.9984 55.8878L74.7676 56.3091L74.5318 56.7254L74.2925 57.1417L74.0481 57.5564L73.8002 57.9727L73.5473 58.3873L73.2926 58.8003L73.0328 59.215L72.7679 59.6297L72.5662 59.9386L72.3594 60.2475L72.144 60.5581L71.9218 60.8687L71.6962 61.1792L71.4637 61.4898L71.2262 61.8004L70.9835 62.1093L70.7356 62.4183L70.4827 62.7255L70.2263 63.0328L69.9648 63.3368L69.6998 63.6408L69.4332 63.9431L69.1615 64.2421L68.888 64.5395L68.6111 64.8352L68.3325 65.1259L68.0505 65.4167L67.7667 65.7025L67.4847 65.985L67.1993 66.2642L66.9121 66.5384L66.625 66.811L66.3379 67.0786L66.0524 67.3413L65.7653 67.599L65.4781 67.8534L65.1927 68.0996L64.9073 68.3441L64.6252 68.582L64.3432 68.8132L64.1261 68.9884L63.9108 69.1602L63.6937 69.3303L63.4767 69.4988L63.2613 69.664L63.0425 69.8276L62.8237 69.9895L62.605 70.1481L62.3845 70.3067L62.164 70.4636L61.9435 70.6172L61.7213 70.7709L61.4974 70.9212L61.2735 71.0716L61.0479 71.2202L60.8205 71.3689L60.5915 71.5159L60.3642 71.6613L60.1317 71.8051L59.901 71.9488L59.6651 72.0909L59.431 72.2329L59.1934 72.375L58.9524 72.5171L58.7131 72.6558L58.4704 72.7979L58.2243 72.9367L57.9764 73.0755L57.7269 73.2159L57.4756 73.3546L57.2227 73.4951L56.9646 73.6355L56.3305 73.9709L55.6844 74.2946L55.0281 74.6069L54.3598 74.9075L53.6829 75.1967L52.9993 75.4725L52.3036 75.7352L51.6011 75.988L50.8901 76.2275L50.1739 76.4555L49.4492 76.6719L48.7194 76.8735L47.9827 77.0651L47.241 77.2419L46.4957 77.4071L45.7471 77.559L44.9934 77.6995L44.2362 77.825L43.4773 77.9374L42.7167 78.0398L41.9544 78.1257L41.1921 78.2L40.4264 78.2612L39.6641 78.3091L38.9001 78.3421L38.1395 78.3636L37.3789 78.3702L36.62 78.3636L35.8645 78.3421L35.1125 78.3074L34.3621 78.2595L33.6169 78.1967L32.8273 78.1158L32.0445 78.0216L31.2702 77.9142L30.501 77.792L29.7439 77.6582L28.9901 77.5111L28.2466 77.3509L27.5082 77.1791L26.7801 76.9941L26.0571 76.7958L25.3427 76.5843L24.6334 76.3613L23.9326 76.1267L23.2369 75.8789L22.5498 75.6196L21.8696 75.3486L21.1944 75.0645L20.5279 74.7704L19.8664 74.4632L19.2118 74.146L18.564 73.8139L17.9213 73.4736L17.2838 73.1217L16.6531 72.7583L16.0309 72.3833L15.4105 71.9983L14.8003 71.6002L14.1918 71.1938L13.5902 70.7758L12.9971 70.348L12.4057 69.9102L11.8212 69.4608L11.6451 69.3204L11.4691 69.18L11.2982 69.0396L11.1273 68.8975L10.9597 68.7554L10.7922 68.6133L10.6265 68.4713L10.4641 68.3259L10.3017 68.1822L10.1393 68.0368L9.97867 67.8898L9.81971 67.746L9.66076 67.599L9.5018 67.452L9.34455 67.3033L9.18731 67.1563L9.11381 67.0836L9.00784 66.9762L8.87452 66.8407L8.7207 66.6788L8.54978 66.5004L8.36518 66.3104L8.17375 66.1105L7.9789 65.9106L7.78576 65.7124L7.59604 65.5257L7.41829 65.3539L7.2542 65.2003L7.11063 65.0731L6.99269 64.9772L6.90211 64.9178L6.8457 64.8996Z" fill="#3A9960"/>
<path fill-rule="evenodd" clip-rule="evenodd" d="M31.2972 1.66916L31.2015 1.65925L31.0801 1.66255L30.9331 1.68073L30.7622 1.71211L30.5708 1.75341L30.3605 1.80958L30.1315 1.87401L29.8888 1.94835L29.6307 2.03261L29.3589 2.12347L29.0786 2.22259L28.7898 2.32667L28.4941 2.4357L28.1916 2.54804L27.8873 2.66533L27.5797 2.78593L27.2737 2.90653L26.9695 3.02878L26.6704 3.15268L26.3764 3.27327L26.0875 3.39552L25.8089 3.51117L25.5406 3.62516L25.2842 3.73584L25.0449 3.83992L24.821 3.93739L24.6142 4.0299L24.4279 4.11415L24.2604 4.1885L24.1185 4.25458L24.0006 4.30909L23.9117 4.35535L23.7237 4.44786L23.5323 4.54698L23.3357 4.64776L23.134 4.75184L22.9306 4.85922L22.7255 4.9699L22.5153 5.08389L22.3034 5.19788L22.0897 5.31683L21.8744 5.43577L21.659 5.55802L21.4402 5.68192L21.2214 5.80748L21.0027 5.93303L20.7839 6.06189L20.5668 6.19075L20.3497 6.32291L20.1344 6.45507L19.919 6.58558L19.7071 6.71939L19.4969 6.85321L19.29 6.98537L19.0849 7.12083L18.885 7.25465L18.6867 7.38681L18.4936 7.52062L18.3055 7.65444L18.1209 7.78495L17.9432 7.91546L17.7689 8.04762L17.6031 8.17648L17.4407 8.30368L12.5028 12.4932L12.0738 12.9046L11.6431 13.3341L11.2158 13.7818L10.7902 14.246L10.3663 14.7284L9.94584 15.224L9.5305 15.7361L9.11859 16.2598L8.7118 16.7967L8.31013 17.3435L7.91189 17.9019L7.52219 18.4702L7.13762 19.0451L6.76331 19.6283L6.39412 20.2181L6.03519 20.8128L5.68309 21.4125L5.34125 22.0155L5.00967 22.6201L4.68834 23.2247L4.37726 23.8327L4.07644 24.439L3.79101 25.042L3.51583 25.645L3.25261 26.243L3.00307 26.8377L2.76891 27.4242L2.54842 28.0074L2.34161 28.5823L2.15188 29.1472L1.97755 29.704L1.81859 30.2508L0.709318 34.7773L0.693936 34.85L0.68368 34.9211L0.670007 34.9921L0.661461 35.0631L0.651206 35.1342L0.644369 35.2052L0.635823 35.2763L0.628986 35.3473L0.622149 35.4183L0.613603 35.4894L0.605057 35.5604L0.596511 35.6314L0.584547 35.7025L0.572582 35.7752L0.557199 35.8479L0.540107 35.9189L0.528143 35.9684L0.517888 36.0197L0.504214 36.0758L0.49225 36.132L0.481995 36.1931L0.47003 36.2576L0.456357 36.322L0.442683 36.3914L0.430719 36.4624L0.418754 36.5351L0.40679 36.6094L0.393116 36.6871L0.381152 36.7664L0.369187 36.8473L0.357223 36.9283L0.343549 37.0125L0.111098 39.1717L0.10597 39.2477L0.104261 39.3237L0.102552 39.3931L0.0991336 39.4608V39.5236V39.5847V39.6409L0.100843 39.6921L0.10597 39.8325L0.10768 39.9763V40.1266L0.10597 40.2802L0.102552 40.4355L0.0974244 40.5925L0.0905876 40.7527L0.0837508 40.913L0.076914 41.0732L0.0666588 41.2318L0.0581128 41.392L0.0478576 41.5473L0.0393116 41.6993L0.0290564 41.8496L0.0205104 41.995L0.0119644 42.1354L0.0051276 42.2693L0.0017092 42.4047L0 42.5468L0.0017092 42.6922L0.0051276 42.8392L0.0102552 42.9879L0.0153828 43.1382L0.0222196 43.2902L0.0307656 43.4405L0.0393116 43.5909L0.0478576 43.7412L0.0564036 43.8882L0.0632404 44.0336L0.0700772 44.1757L0.076914 44.3145L0.0803324 44.4483L0.08546 44.6449L0.0974244 44.8547L0.109389 45.076L0.124772 45.3073L0.143573 45.5469L0.164083 45.798L0.188012 46.0573L0.21365 46.3233L0.242707 46.5943L0.271763 46.8734L0.305947 47.1559L0.34184 47.445L0.377733 47.7342L0.418754 48.0282L0.459775 48.3223L0.502505 48.6163L0.546944 48.912L0.594802 49.2061L0.64266 49.4985L0.692226 49.7876L0.743502 50.0767L0.794778 50.3576L0.849473 50.6368L0.904167 50.9077L0.958862 51.172L1.01527 51.4297L1.07338 51.6792L1.13149 51.9187L1.19131 52.1484L1.25114 52.3681L1.31096 52.5746L1.37078 52.7695L3.69529 56.6898L3.85938 56.9392L4.01491 57.1722L4.16361 57.3886L4.30719 57.5934L4.44563 57.7884L4.58237 57.975L4.71398 58.1551L4.84558 58.3319L4.97719 58.5053L5.11051 58.6788L5.24725 58.8539L5.38569 59.034L5.53097 59.2207L5.67967 59.4156L5.83521 59.6205L6.001 59.8369L6.48129 60.2945L6.43856 60.1904L6.39241 60.0814L6.34284 59.969L6.28644 59.8517L6.22833 59.7295L6.1668 59.6039L6.10014 59.4734L6.03177 59.338L5.95998 59.1975L5.88649 59.0538L5.80957 58.9084L5.73095 58.7564L5.64891 58.6012L5.56516 58.4426L5.4797 58.279L5.39424 58.1122L5.30536 57.942L5.21648 57.7702L5.12589 57.5918L5.03531 57.4117L4.94301 57.2283L4.85071 57.0416L4.75671 56.85L4.66441 56.6567L4.57211 56.4601L4.47811 56.2602L4.38752 56.0587L4.29693 55.8522L4.20463 55.644L4.11576 55.4326L4.02859 55.2195L3.94142 55.003L3.50044 53.8252L3.10733 52.6324L2.75865 51.4297L2.45441 50.2138L2.19632 48.993L1.98267 47.7606L1.81346 46.5249L1.6904 45.2826L1.61007 44.0386L1.57246 42.793L1.5793 41.5457L1.62887 40.3001L1.72117 39.0544L1.8579 37.8154L2.03566 36.5797L2.25615 35.3506L2.51936 34.1281L2.8236 32.9172L3.17057 31.7161L3.55685 30.5267L3.98586 29.3521L4.45589 28.1907L4.96523 27.0459L5.51559 25.9192L6.10527 24.8107L6.73596 23.722L7.40597 22.6581L8.11529 21.614L8.86392 20.5964L9.65186 19.6052L10.4774 18.6404L11.344 17.7053L11.4773 17.5666L11.6106 17.4295L11.7405 17.2956L11.8704 17.1635L11.9969 17.0346L12.1251 16.9074L12.2498 16.7802L12.3763 16.6563L12.5011 16.5308L12.6276 16.4069L12.7541 16.283L12.8805 16.159L13.007 16.0351L13.1352 15.9096L13.2634 15.784L13.3933 15.6568L13.5232 15.5362L13.6616 15.4156L13.8069 15.295L13.9573 15.1744L14.106 15.0571L14.2547 14.9399L14.3983 14.8242L14.5333 14.7119L14.6803 14.5863L14.8154 14.4756L14.9418 14.3699L15.0683 14.2675L15.1999 14.1601L15.3401 14.0461L15.4956 13.9156L15.6751 13.7653L15.7793 13.6777L15.8939 13.5852L16.0152 13.4894L16.1434 13.3919L16.2784 13.2895L16.4203 13.1871L16.5673 13.0813L16.7194 12.9756L16.8766 12.8649L17.0373 12.7559L17.2031 12.6435L17.3706 12.5312L17.5415 12.4189L17.7124 12.3082L17.8868 12.1942L18.0611 12.0819L18.2355 11.9728L18.4115 11.8621L18.5859 11.7531L18.7568 11.6457L18.9277 11.5416L19.0986 11.4392L19.2644 11.3384L19.4268 11.241L19.5857 11.1468L19.7413 11.0543L19.8917 10.9684L20.0353 10.8841L20.1737 10.8048L20.307 10.7305L20.4335 10.6611L20.5497 10.5967L21.095 10.3059L21.6453 10.0251L22.1991 9.75251L22.7563 9.48983L23.3186 9.23708L23.8844 8.99258L24.4535 8.75799L25.0295 8.53331L25.6055 8.31855L26.1884 8.1137L26.7729 7.91711L27.3626 7.73374L27.9574 7.55697L28.5522 7.39177L29.1521 7.23648L29.7555 7.0911L30.364 6.95728L30.9741 6.83338L31.5877 6.72105L32.2048 6.61697L32.8269 6.52611L33.4491 6.44351L34.0763 6.37412L34.7053 6.313L35.3394 6.26509L35.9753 6.22709L36.6145 6.20231L37.2555 6.18579L37.9015 6.18414L38.5493 6.19075L39.1988 6.21057L39.8517 6.24196L40.6499 6.29482L41.4447 6.36586L42.2361 6.45507L43.0206 6.5608L43.8017 6.68305L44.576 6.82182L45.3451 6.97876L46.1091 7.15057L46.8663 7.3389L47.6166 7.5454L48.3618 7.76678L49.1002 8.00301L49.8317 8.25577L50.5547 8.52505L51.2726 8.8092L51.9819 9.10822L52.6844 9.4221L53.3783 9.75251L54.0654 10.0978L54.7423 10.4579L55.4123 10.8313L56.0738 11.2195L56.725 11.6226L57.3676 12.0422L58.0017 12.4717L58.6256 12.9178L59.2392 13.377L59.8443 13.8512L60.4391 14.3352L61.0219 14.8358L61.5962 15.3479L62.1568 15.8749L62.2303 15.9459L62.3021 16.0153L62.3705 16.0831L62.4354 16.1491L62.5021 16.2152L62.5653 16.2813L62.6302 16.3457L62.6935 16.4102L62.7584 16.4729L62.8234 16.5374L62.8918 16.6018L62.9618 16.6646L63.0319 16.7306L63.1088 16.7951L63.1857 16.8612L63.2695 16.9289L63.0268 16.4581L62.9909 16.3986L62.9533 16.3408L62.9191 16.2846L62.8832 16.2284L62.8456 16.1739L62.808 16.1177L62.7687 16.0616L62.7294 16.0054L62.5738 15.794L62.4217 15.5924L62.2747 15.3942L62.1312 15.2042L61.991 15.0192L61.8543 14.8407L61.7175 14.6656L61.5859 14.4955L61.4543 14.3286L61.3227 14.1667L61.1928 14.0081L61.0629 13.8512L60.9347 13.6959L60.8031 13.5439L60.6732 13.3936L60.5416 13.2449L60.41 13.0945L60.275 12.9459L60.1365 12.7972L59.9964 12.6468L59.8528 12.4965L59.7058 12.3445L59.5537 12.1892L59.3981 12.0323L59.2375 11.8721L59.0734 11.7102L58.9025 11.545L58.7264 11.3731L58.5418 11.198L58.3538 11.018L58.1573 10.8329L57.9522 10.6413L57.7727 10.4761L57.5915 10.3092L57.4052 10.144L57.2172 9.98049L57.0275 9.81528L56.8343 9.65339L56.6378 9.48983L56.4412 9.32959L56.2395 9.16769L56.0379 9.00744L55.8328 8.8472L55.6225 8.69026L55.414 8.53166L55.2004 8.37472L54.9867 8.21943L54.7679 8.06249L54.5491 7.90885L54.327 7.75521L54.103 7.60323L53.8757 7.44959L53.6484 7.29925L53.4159 7.14892L53.1835 7.00189L52.9493 6.85321L52.7118 6.70453L52.4725 6.5608L52.2315 6.41542L51.9871 6.2717L51.7426 6.12797L51.4948 5.9859L51.2453 5.84713L50.994 5.7067L50.5086 5.44568L50.0061 5.18962L49.4899 4.94017L48.9584 4.69401L48.4114 4.45447L47.8525 4.22154L47.2799 3.99521L46.6971 3.77549L46.1023 3.56238L45.4989 3.35918L44.8853 3.16424L44.2632 2.97591L43.6325 2.79749L42.9984 2.63064L42.3557 2.47039L41.7079 2.32171L41.0567 2.18459L40.4004 2.05739L39.744 1.94175L39.0826 1.83932L38.4211 1.74846L37.7614 1.66916L37.0999 1.60473L36.4385 1.55352L35.7804 1.51552L35.1258 1.49074L34.4746 1.48248L33.8268 1.48744L33.1858 1.50892L32.5483 1.54526L31.9193 1.59978L31.2972 1.66916Z" fill="#3A9960"/>
<path fill-rule="evenodd" clip-rule="evenodd" d="M6.11523 43.2094L6.17506 43.5712L6.26735 43.8884L6.39554 44.166L6.55279 44.4038L6.73909 44.607L6.95103 44.7755L7.1869 44.911L7.4467 45.0151L7.72701 45.0911L8.0227 45.139L8.3372 45.1638H8.66536L9.00378 45.1406L9.35246 45.101L9.70968 45.0432L10.072 44.9688L10.4378 44.8829L10.8036 44.7838L11.171 44.6748L11.5334 44.5591L11.894 44.4352L12.2444 44.308L12.5863 44.1792L12.9179 44.0487L13.2358 43.9231L13.5383 43.7992L13.822 43.6786L14.0887 43.5679L14.3314 43.4655L14.5501 43.3763L14.7433 43.2986L14.9091 43.2359L14.9142 43.4308L14.9159 43.6555V43.9082L14.9125 44.1858L14.9074 44.4881L14.8988 44.8119L14.8903 45.1539L14.8766 45.514L14.8629 45.8907L14.8458 46.2805L14.8287 46.682L14.8082 47.0917L14.7877 47.5113L14.7638 47.9359L14.7382 48.3637L14.7125 48.7933L14.6852 49.2228L14.6561 49.6507L14.6271 50.0719L14.5963 50.4882L14.5638 50.8963L14.5313 51.2944L14.4989 51.6793L14.4647 52.0494L14.4305 52.4046L14.3946 52.7416L14.3604 53.0571L14.3245 53.3495L14.2886 53.6188L14.251 53.8633L14.2168 54.0781L14.181 54.2615L14.1451 54.4267L14.1075 54.5869L14.0664 54.7422L14.0254 54.8958L13.981 55.0445L13.9365 55.1899L13.8887 55.3336L13.8408 55.4724L13.7913 55.6095L13.7383 55.745L13.6853 55.8755L13.6306 56.0076L13.5742 56.1332L13.5161 56.2588L13.4563 56.3843L13.3964 56.5066L13.3349 56.6272L13.2717 56.7461L13.2067 56.865L13.1418 56.9823L13.0751 57.0996L13.005 57.2169L12.9367 57.3326L12.8683 57.4482L12.7982 57.5639L12.7247 57.6795L12.6512 57.7968L12.5777 57.9141L12.5042 58.0314L12.429 58.1503L12.3521 58.2693L12.2752 58.3899L12.2102 58.4956L12.1436 58.6063L12.0786 58.7236L12.012 58.8458L11.9453 58.973L11.8787 59.1068L11.812 59.2456L11.7471 59.3877L11.6838 59.5331L11.6206 59.6817L11.559 59.8354L11.4975 59.989L11.4411 60.1476L11.3864 60.3079L11.3334 60.4698L11.2856 60.6317L11.2394 60.7969L11.1967 60.9621L11.1574 61.1256L11.1215 61.2892L11.0924 61.4544L11.0651 61.6179L11.0446 61.7798L11.0275 61.9401L11.0189 62.0987L11.0121 62.2556L11.0138 62.4092L11.0206 62.5612L11.0343 62.7066L11.0548 62.8503L11.0822 62.9891L11.1181 63.1246L11.2069 63.2204L11.3061 63.3145L11.4086 63.4087L11.5163 63.5012L11.6291 63.5921L11.7505 63.6829L11.8735 63.7705L12.0034 63.8597L12.1367 63.944L12.2752 64.0282L12.4171 64.1092L12.5623 64.1885L12.7127 64.2645L12.8683 64.3388L13.0238 64.4098L13.1845 64.4776L13.3469 64.542L13.5127 64.6031L13.6802 64.6626L13.8494 64.7171L14.0203 64.7683L14.1946 64.8146L14.369 64.8575L14.545 64.8955L14.7245 64.9286L14.9005 64.9583L15.08 64.9814L15.2595 64.9996L15.4389 65.0145L15.6167 65.0227L15.7961 65.026L15.9739 65.0227L16.3687 64.9963L16.7072 64.9467L16.9909 64.8724L17.2267 64.7766L17.4199 64.6593L17.5686 64.5189L17.6814 64.3603L17.7583 64.1802L17.8027 63.9803L17.8233 63.7622L17.8181 63.526L17.7925 63.2732L17.7515 63.0023L17.6985 62.7182L17.6335 62.4158L17.5635 62.0987L17.4951 61.7682L17.4233 61.4246L17.3584 61.0694L17.302 60.701L17.2592 60.3227L17.2302 59.9312L17.2216 59.5314L17.237 59.1217L17.278 58.7037L17.3498 58.2775L17.4541 57.843L17.5976 57.402L17.7805 56.9543L18.0096 56.5033L18.2847 56.0456L18.6129 55.5847L18.7035 55.4674L18.7924 55.3551L18.8847 55.2444L18.9753 55.1337L19.0676 55.0247L19.1599 54.9173L19.2522 54.8116L19.3462 54.7075L19.4419 54.6018L19.5359 54.4994L19.6316 54.3953L19.7273 54.2928L19.8264 54.1888L19.9222 54.0863L20.0213 53.9823L20.1204 53.8782L20.2196 53.7741L20.3204 53.6667L20.4212 53.561L20.5238 53.4536L20.6263 53.3429L20.7306 53.2322L20.8349 53.1183L20.9408 53.0043L21.0468 52.887L21.1545 52.7664L21.2605 52.6441L21.3699 52.5186L21.4792 52.3897L21.5903 52.2592L21.7014 52.1237L21.8142 51.9866L21.951 51.9883L22.098 51.9932L22.2552 51.9998L22.4176 52.0064L22.5885 52.0147L22.7646 52.023L22.9474 52.0312L23.1355 52.0411L23.3269 52.0527L23.5217 52.0643L23.72 52.0742L23.9217 52.0874L24.1251 52.0973L24.3302 52.1089L24.5336 52.1204L24.7387 52.1303L24.9421 52.1403L25.1438 52.1485L25.3455 52.1584L25.5437 52.1634L25.7369 52.1716L25.9283 52.1766L26.1146 52.1799L26.2941 52.1816H26.4684L26.6376 52.1799L26.7966 52.1766L26.9504 52.17L27.094 52.1634L27.229 52.1535L27.3538 52.1403L27.47 52.1254L27.6136 52.1023L27.7588 52.0758L27.9058 52.0494L28.0528 52.023L28.1998 51.9932L28.3468 51.9602L28.4938 51.9288L28.6425 51.8958L28.7895 51.8611L28.9382 51.8264L29.0869 51.79L29.2356 51.7553L29.3826 51.719L29.5313 51.6827L29.68 51.6463L29.8287 51.6083L29.9757 51.572L30.1244 51.5373L30.2714 51.5009L30.4201 51.4662L30.5671 51.4332L30.7141 51.3985L30.8593 51.3671L31.0063 51.3357L31.1516 51.306L31.2986 51.2779L31.4422 51.2498L31.5857 51.2267L31.7293 51.2036L31.8729 51.1821L32.0148 51.1639L32.1566 51.1457L32.172 51.1937L32.1925 51.2713L32.2199 51.3787L32.2472 51.5108L32.2814 51.6694L32.3173 51.8512L32.3566 52.0527L32.3976 52.2724L32.4421 52.5103L32.4882 52.7631L32.5361 53.029L32.5856 53.3049L32.6369 53.5874L32.6865 53.8798L32.7377 54.1772L32.7873 54.4762L32.8386 54.7769L32.8899 55.0776L32.9394 55.3749L32.9873 55.6657L33.0317 55.9498L33.0762 56.2257L33.1172 56.49L33.1582 56.7411L33.1941 56.9774L33.2249 57.1988L33.2556 57.3986L33.2796 57.5787L33.3001 57.7357L33.3172 57.8695L33.3274 57.9736L33.3325 58.0512L33.3411 58.3073L33.3377 58.5633L33.3257 58.8128L33.3069 59.0606L33.2813 59.3051L33.2471 59.5463L33.2061 59.7858L33.1599 60.0237L33.1086 60.2583L33.0522 60.4912L32.9907 60.7225L32.9275 60.9538L32.8574 61.1834L32.7873 61.4131L32.7138 61.6427L32.6386 61.8723L32.5617 62.1003L32.4848 62.3316L32.4079 62.5612L32.331 62.7925L32.254 63.0254L32.1805 63.26L32.107 63.4963L32.037 63.7342L31.9686 63.9753L31.9054 64.2182L31.8455 64.4643L31.7908 64.7155L31.7396 64.9682L31.6951 65.2243L31.6575 65.4853L31.6251 65.7513L31.8917 65.8702L32.1395 65.9875L32.3754 66.0998L32.5976 66.2105L32.8112 66.3196L33.0129 66.422L33.2044 66.5211L33.3889 66.6136L33.5684 66.7028L33.741 66.7854L33.912 66.8631L34.0795 66.9325L34.2435 66.9969L34.4093 67.0514L34.5768 67.0977L34.7461 67.1373L34.9187 67.1671L35.0964 67.1869L35.281 67.1968H35.4742L35.6742 67.1869L35.8844 67.1654L36.1066 67.1324L36.3407 67.0861L36.5903 67.0283L36.8552 66.9572L37.1338 66.873L37.4329 66.7739L37.7508 66.6599L38.0875 66.5327L38.4465 66.3906L38.8276 66.2304L38.8345 66.1544L38.8379 66.0585V65.9429L38.8345 65.8091L38.8259 65.6588L38.8157 65.4936L38.8003 65.3135L38.7849 65.1185L38.7644 64.912L38.7439 64.694L38.7182 64.466L38.6943 64.2298L38.667 63.9853L38.6379 63.7342L38.6088 63.4797L38.5798 63.2187L38.549 62.9544L38.5166 62.6884L38.4875 62.4224L38.455 62.1565L38.426 61.8922L38.3969 61.6295L38.3679 61.3718L38.3405 61.119L38.3149 60.8712L38.2909 60.6317L38.2687 60.3987L38.2499 60.1757L38.2311 59.9642L38.2174 59.7643L38.2055 59.5793L38.1969 59.4059L38.1884 59.168L38.1815 58.9284L38.173 58.6889L38.1679 58.4493L38.1662 58.2098L38.1645 57.9702V57.7291L38.1662 57.4879L38.1679 57.2467L38.173 57.0055L38.1781 56.7643L38.185 56.5214L38.1935 56.2786L38.2038 56.0374L38.2157 55.7945L38.2277 55.5517L38.2414 55.3105L38.2568 55.0676L38.2738 54.8248L38.2909 54.582L38.3114 54.3391L38.3302 54.0963L38.3542 53.8534L38.3781 53.6122L38.4003 53.3694L38.4277 53.1282L38.455 52.887L38.4841 52.6441L38.5131 52.4029L38.5456 52.1617L38.5781 51.9222L38.6106 51.681L38.7627 51.7322L38.9182 51.7933L39.0806 51.8611L39.2481 51.9404L39.4156 52.0263L39.5882 52.1221L39.7608 52.2262L39.9352 52.3352L40.1095 52.4508L40.2822 52.5747L40.4548 52.7036L40.624 52.8374L40.7915 52.9795L40.9556 53.1249L41.1162 53.2736L41.2684 53.4272L41.4171 53.5841L41.5589 53.7444L41.694 53.9096L41.8187 54.0748L41.9367 54.2433L42.0443 54.4134L42.1418 54.5853L42.2272 54.7571L42.3007 54.9305L42.3623 55.1023L42.4084 55.2758L42.4426 55.4476L42.4614 55.6178L42.4631 55.7879L42.4511 55.9548L42.4204 56.1216L42.3503 56.12H42.2375L42.0905 56.1183H41.911L41.7059 56.12L41.4854 56.1216L41.253 56.1249L41.0137 56.1315L40.7761 56.1398L40.5471 56.1497L40.3283 56.1629L40.13 56.1828L39.9574 56.2042L39.8173 56.229L39.7147 56.2621L39.6566 56.2967L39.6361 56.3347L39.6121 56.4025L39.5831 56.4999L39.554 56.6272L39.5233 56.7758L39.4925 56.9493L39.4635 57.1426L39.4344 57.354L39.4105 57.582L39.3882 57.8216L39.3712 58.076L39.3609 58.337L39.3575 58.6063L39.3609 58.8789L39.3746 59.1564L39.3968 59.4339L39.4327 59.7082L39.4788 59.9791L39.5387 60.2434L39.6121 60.4995L39.701 60.744L39.8036 60.9769L39.9266 61.1933L40.0668 61.3916L40.2258 61.5717L40.4035 61.7286L40.6052 61.8608L40.8257 61.9681L41.0718 62.0458L41.3419 62.0937L41.6358 62.1069L41.9589 62.0838L42.2665 62.0326L42.5725 61.9516L42.875 61.8426L43.1758 61.7088L43.4732 61.5502L43.7655 61.3685L44.0527 61.1686L44.3347 60.9488L44.6099 60.711L44.8816 60.4582L45.1431 60.1906L45.3961 59.9114L45.6422 59.6223L45.8798 59.3249L46.1054 59.0176L46.3242 58.707L46.531 58.3915L46.7276 58.0743L46.9087 57.7555L47.0814 57.4383L47.2386 57.1244L47.3839 56.8155L47.5138 56.5115L47.63 56.2158L47.7291 55.93L47.8146 55.6558L47.8813 55.3931L47.9325 55.1453L47.9667 54.914L47.9804 54.7009L47.977 54.5076L47.953 54.3358L47.9154 54.1987L47.8608 54.0649L47.7873 53.9294L47.7001 53.7956L47.5992 53.6618L47.4864 53.528L47.3617 53.3941L47.2284 53.257L47.0882 53.1216L46.9378 52.9828L46.7822 52.8424L46.625 52.7003L46.4626 52.5549L46.3003 52.4079L46.1362 52.2576L45.9755 52.1039L45.8165 51.947L45.661 51.7851L45.5106 51.6199L45.367 51.4514L45.2337 51.2746L45.1072 51.0962L44.9927 50.9112L44.8919 50.7195L44.803 50.5229L44.7295 50.3197L44.6714 50.1099L44.6304 49.8919L44.6099 49.6688V49.4376L44.6304 49.198L44.6765 48.9502L44.7004 48.8428L44.7295 48.7387L44.7586 48.633L44.791 48.5289L44.8269 48.4249L44.8645 48.3208L44.9021 48.2167L44.9414 48.1126L44.9842 48.0102L45.0286 47.9045L45.0713 47.8021L45.1175 47.6996L45.1619 47.5956L45.2081 47.4915L45.2542 47.3857L45.3004 47.2817L45.3465 47.1759L45.3944 47.0702L45.4388 46.9628L45.485 46.8571L45.5294 46.7497L45.5721 46.6423L45.6149 46.5333L45.6542 46.4226L45.6935 46.3119L45.7311 46.2012L45.767 46.0889L45.8012 45.9749L45.8319 45.8593L45.8593 45.7436L45.8866 45.6263L45.9088 45.509L45.6439 45.4677L45.379 45.4314L45.1124 45.4017L44.844 45.3785L44.5757 45.3571L44.309 45.3405L44.039 45.3273L43.7706 45.3158L43.5006 45.3058L43.2322 45.2959L42.9656 45.2877L42.6973 45.2778L42.4306 45.2679L42.1657 45.2563L41.9008 45.2431L41.6376 45.2266L41.376 45.2067L41.1162 45.1836L40.8582 45.1539L40.6018 45.1208L40.3471 45.0812L40.0959 45.0349L39.848 44.9804L39.6002 44.9193L39.3575 44.8482L39.1165 44.7689L38.8806 44.6814L38.6465 44.5806L38.4157 44.4699L38.1884 44.3477L37.9679 44.2122L37.7474 44.0652L37.5936 43.9479L37.4432 43.824L37.2996 43.6935L37.1594 43.558L37.0278 43.4176L36.8996 43.2689L36.7783 43.1169L36.6587 42.96L36.5458 42.7981L36.4347 42.6312L36.3288 42.4611L36.2245 42.2876L36.1237 42.1108L36.028 41.9291L35.9322 41.7457L35.8399 41.5607L35.7494 41.3707L35.6605 41.1807L35.5716 40.9891L35.4861 40.7958L35.4007 40.6009L35.3152 40.4043L35.2298 40.2094L35.146 40.0111L35.0605 39.8145L34.9751 39.6179L34.8879 39.423L34.799 39.2264L34.7102 39.0331L34.6196 38.8415L34.5256 38.6499L34.4316 38.4599L34.3512 38.3112L34.2606 38.146L34.1632 37.9725L34.0607 37.7875L33.9547 37.5959L33.8487 37.396L33.7462 37.1911L33.647 36.983L33.5565 36.7699L33.4744 36.5567L33.406 36.3436L33.3513 36.1322L33.3155 35.9224L33.2984 35.7159L33.3035 35.5143L33.3325 35.321L33.4402 34.8799L33.5496 34.4669L33.659 34.0853L33.7684 33.7301L33.8761 33.403L33.9803 33.1007L34.0829 32.8248L34.1769 32.5688L34.2658 32.3375L34.3478 32.1244L34.4179 31.9344L34.4811 31.7593L34.5307 31.6007L34.5666 31.4586L34.5888 31.3297L34.5974 31.2141L34.5854 31.11L34.5598 31.0175L34.5119 30.9316L34.4435 30.8556L34.3546 30.7846L34.2418 30.7185L34.1034 30.6557L33.941 30.5962L33.7513 30.5384L33.5342 30.4806L33.2864 30.4211L33.0078 30.36L32.6967 30.2923L32.3532 30.2212L31.9754 30.1436L31.5618 30.0577L31.1499 29.9751L30.7465 29.8991L30.35 29.8314L29.9586 29.7686L29.5757 29.7157L29.1963 29.6695L28.822 29.6315L28.4528 29.6001L28.0921 29.5786L27.7315 29.5654L27.3777 29.5604L27.029 29.5621L26.682 29.5736L26.3385 29.5968L26.0001 29.6265L25.6617 29.6662L25.3301 29.7157L24.9968 29.7752L24.6686 29.8429L24.3422 29.9222L24.0174 30.0114L23.6909 30.1122L23.3679 30.2212L23.0466 30.3435L22.7235 30.474L22.4022 30.6177L22.0792 30.773L21.7595 30.9382L21.4348 31.115L21.1118 31.3033L20.787 31.5049L20.4606 31.718L20.3153 31.822L20.1683 31.9327L20.023 32.0533L19.8777 32.1822L19.7324 32.3176L19.5872 32.4614L19.4436 32.6134L19.2983 32.7703L19.1564 32.9339L19.0129 33.1007L18.8727 33.2758L18.7343 33.4526L18.5975 33.636L18.4608 33.8226L18.3275 34.0093L18.1959 34.201L18.0677 34.3942L17.9412 34.5892L17.8164 34.7858L17.6951 34.9824L17.5788 35.1806L17.4643 35.3772L17.3515 35.5738L17.2455 35.7687L17.1413 35.962L17.0422 36.152L16.9464 36.342L16.8559 36.5254L16.7687 36.7054L16.6866 36.8838L16.608 37.0573L16.5362 37.2258L16.432 37.4802L16.3345 37.7297L16.2405 37.9775L16.1551 38.222L16.0713 38.4615L15.9927 38.6961L15.9175 38.929L15.844 39.1554L15.7722 39.3784L15.7021 39.5981L15.6321 39.8145L15.5603 40.0243L15.4902 40.2308L15.4167 40.4324L15.3415 40.6306L15.2629 40.8239L15.1808 41.0122L15.0937 41.1956L15.0031 41.374L14.9057 41.5491L14.8014 41.7193L14.692 41.8829L14.5724 42.0415L14.4442 42.1967L14.3091 42.3454L14.1622 42.4875L14.0049 42.6263L13.8374 42.7601L13.6562 42.8873L13.4648 43.0112L13.258 43.1268L13.0392 43.2375L12.6786 43.4077L12.3436 43.558L12.0308 43.6918L11.7436 43.8091L11.477 43.9099L11.2326 43.9958L11.0053 44.0668L10.7967 44.1263L10.6053 44.1726L10.431 44.2056L10.2703 44.2271L10.125 44.2403H9.98999L9.86693 44.232L9.75583 44.2172L9.65328 44.1924L9.55757 44.1626L9.46869 44.1263L9.38665 44.0834L9.30802 44.0354L9.23282 43.9859L9.15932 43.9314L9.08754 43.8735L9.01404 43.8157L8.94054 43.7562L8.86534 43.6968L8.78501 43.639L8.70126 43.5795L8.61067 43.5233L8.51324 43.4705L8.40727 43.4209L8.29447 43.3746L8.16115 43.3317L8.02783 43.2953L7.8928 43.2656L7.75778 43.2425L7.62104 43.2243L7.48089 43.2111L7.34244 43.2012L7.204 43.1962L7.06555 43.1946H6.9271H6.78866L6.65021 43.1979L6.5169 43.2012L6.38016 43.2045L6.24684 43.2094H6.11523Z" fill="#33DC76"/>
<path fill-rule="evenodd" clip-rule="evenodd" d="M50.6913 20.17L50.5238 20.1006L50.358 20.028L50.1974 19.952L50.0384 19.8743L49.8846 19.7967L49.7308 19.7157L49.5804 19.6331L49.4317 19.5505L49.2847 19.4663L49.1377 19.3804L48.9907 19.2978L48.8454 19.2119L48.7001 19.1293L48.5548 19.045L48.4096 18.9624L48.2591 18.8814L48.1104 18.8022L47.9583 18.7245L47.8062 18.6485L47.6473 18.5758L47.4883 18.5064L47.3259 18.4371L47.1584 18.3743L46.9892 18.3132L46.8132 18.257L46.632 18.2041L46.4474 18.1562L46.256 18.1133L46.0594 18.0736L45.856 18.0406L45.6458 18.0125L45.4287 17.991L45.5364 18.0505L45.6612 18.105L45.7996 18.1579L45.9534 18.2091L46.1192 18.2619L46.2953 18.3148L46.4833 18.371L46.6781 18.4321L46.8815 18.4965L47.0918 18.5692L47.3071 18.6485L47.5276 18.7361L47.7481 18.8352L47.972 18.9442L48.1959 19.0665L48.4198 19.2003L48.4301 19.2878L48.4506 19.3044L48.4711 19.2779L48.4865 19.2284L48.4899 19.1821L48.4711 19.1623L48.4249 19.1937L48.3429 19.2978L48.2728 19.3804L48.2233 19.4051L48.1908 19.3919L48.1754 19.3589L48.1771 19.3258L48.1959 19.3126L48.2284 19.3407L48.2762 19.4266L48.3771 19.4448L48.4813 19.4663L48.589 19.4927L48.7001 19.5224L48.8163 19.5571L48.9309 19.5968L49.0505 19.6381L49.1702 19.6843L49.2915 19.7339L49.4146 19.7851L49.5376 19.8396L49.6624 19.8958L49.7855 19.9553L49.9085 20.0147L50.0299 20.0775L50.1512 20.1419L50.2709 20.2064L50.3871 20.2725L50.505 20.3385L50.6161 20.4046L50.7272 20.4723L50.8332 20.5384L50.9358 20.6045L51.0332 20.6706L51.1272 20.7367L51.2178 20.7994L51.2998 20.8639L51.3784 20.9233L51.4519 20.9845L51.5169 21.0406L51.5784 21.0952L51.6297 21.148L53.7696 22.278L53.7679 22.7207L53.797 23.1222L53.8551 23.4807L53.9405 23.7995L54.0499 24.0837L54.1867 24.3315L54.3456 24.5479L54.5251 24.7346L54.7268 24.8932L54.9472 25.027L55.1848 25.1393L55.4395 25.2285L55.7096 25.2996L55.9933 25.3541L56.2907 25.3937L56.5983 25.4235L56.9163 25.4433L57.2427 25.4565L57.576 25.4631L57.9144 25.4681L58.2597 25.473L58.6066 25.4796L58.9553 25.4912L59.3074 25.5077L59.6544 25.5341L60.0031 25.5721L60.3466 25.6217L60.6867 25.6878L61.0183 25.772L61.3448 25.8745L61.661 26.0017L61.9669 26.1536L62.0763 26.2148L62.184 26.2842L62.29 26.3568L62.3942 26.4345L62.4951 26.5171L62.5925 26.6046L62.6882 26.6955L62.7822 26.793L62.8711 26.8938L62.9583 26.9995L63.0403 27.1085L63.1189 27.2209L63.1941 27.3381L63.2642 27.4571L63.3292 27.5826L63.3907 27.7115L63.4454 27.842L63.4967 27.9758L63.5445 28.1129L63.5838 28.2534L63.618 28.3987L63.6454 28.5441L63.6676 28.6945L63.683 28.8448L63.6932 28.9984L63.6949 29.1554L63.6915 29.314L63.6778 29.4742L63.659 29.6361L63.6317 29.8013L63.5958 29.9665L63.5531 30.1334L63.4642 30.4109L63.3531 30.6769L63.2266 30.9329L63.0796 31.1808L62.919 31.4153L62.7429 31.6384L62.5549 31.8498L62.3549 32.0481L62.1447 32.2331L61.9276 32.4049L61.702 32.5602L61.4713 32.7023L61.2354 32.8278L60.9978 32.9369L60.7602 33.0294L60.521 33.1054L60.3278 33.1566L60.1398 33.1979L59.9569 33.2309L59.7809 33.2557L59.6065 33.2722L59.4407 33.2821L59.2801 33.2838L59.1211 33.2788L58.969 33.2656L58.8186 33.2474L58.6767 33.2227L58.5349 33.1913L58.3981 33.1549L58.2648 33.112L58.1332 33.0641L58.0067 33.0112L57.8837 32.955L57.7606 32.8906L57.6427 32.8245L57.5247 32.7551L57.4119 32.6824L57.2991 32.6031L57.188 32.5238L57.0803 32.4396L56.9727 32.3537L56.8667 32.2661L56.7624 32.1753L56.6582 32.0844L56.5539 31.9919L56.4531 31.8944L56.3488 31.8003L56.248 31.7028L56.1676 31.6268L56.0856 31.5508L56.0001 31.4715L55.9112 31.3889L55.8189 31.3047L55.7266 31.2187L55.6292 31.1312L55.5301 31.0453L55.4292 30.9561L55.3267 30.8652L55.2224 30.7744L55.1182 30.6835L55.0105 30.591L54.9028 30.5001L54.7917 30.4076L54.6823 30.3167L54.5712 30.2242L54.4618 30.135L54.349 30.0458L54.2379 29.9583L54.1268 29.8707L54.0157 29.7848L53.9029 29.7022L53.7935 29.6179L53.6824 29.5386L53.5748 29.461L53.4654 29.3867L53.3594 29.3123L53.2534 29.2429L53.1509 29.1768L53.0466 29.1141L52.9475 29.0529L52.6398 28.8778L52.3339 28.7143L52.0314 28.5656L51.7288 28.4268L51.4314 28.3029L51.134 28.1889L50.84 28.0865L50.5461 27.9973L50.2538 27.9197L49.9615 27.8519L49.6727 27.7958L49.3855 27.7512L49.0967 27.7165L48.8095 27.6933L48.5241 27.6801L48.2369 27.6752L47.9515 27.6818L47.6661 27.6966L47.3806 27.7214L47.0935 27.7561L46.8063 27.7991L46.5192 27.8503L46.2303 27.9114L45.9415 27.9824L45.6509 28.0584L45.3603 28.1443L45.0681 28.2368L44.7724 28.3376L44.4767 28.445L44.1793 28.5606L43.8785 28.6829L43.5759 28.8134L43.3042 28.934L43.0546 29.0513L42.8256 29.1636L42.6137 29.271L42.4222 29.3751L42.2462 29.4726L42.0855 29.5667L41.9402 29.6559L41.8069 29.7402L41.6856 29.8195L41.5762 29.8938L41.4736 29.9632L41.3813 30.0276L41.2959 30.0871L41.2172 30.1416L41.142 30.1895L41.0702 30.2341L41.0002 30.2721L40.9318 30.3068L40.8634 30.3333L40.7934 30.3547L40.7216 30.3713L40.6447 30.3828L40.5626 30.3878H40.4754L40.3797 30.3812L40.2772 30.368L40.1627 30.3498L40.0396 30.3267L39.9029 30.2969L39.7542 30.2606L39.5901 30.2176L39.1491 30.1152L38.7321 30.0442L38.3321 30.0045L37.9527 29.9929L37.592 30.0095L37.2519 30.0508L36.9306 30.1185L36.6263 30.211L36.3409 30.325L36.0725 30.4588L35.8213 30.6125L35.5871 30.7859L35.3701 30.9759L35.1684 31.1824L34.9821 31.4021L34.8129 31.6367L34.659 31.8829L34.5206 32.1389L34.3941 32.4032L34.2847 32.6775L34.1873 32.9567L34.1053 33.2425L34.0352 33.5316L33.9788 33.824L33.9326 34.1164L33.9002 34.4121L33.8796 34.7045L33.8711 34.9953L33.8728 35.2811L33.8865 35.5619L33.9104 35.8361L33.9429 36.1021L33.9651 36.2409L33.9924 36.378L34.0215 36.5135L34.054 36.6473L34.0916 36.7795L34.1309 36.9116L34.1719 37.0405L34.2181 37.1693L34.2625 37.2982L34.3138 37.4237L34.3651 37.5493L34.418 37.6749L34.4727 37.7988L34.5274 37.921L34.5855 38.0449L34.6454 38.1655L34.7035 38.2861L34.765 38.4067L34.8265 38.5273L34.8881 38.6479L34.9496 38.7685L35.0111 38.8874L35.0727 39.008L35.1342 39.127L35.1957 39.2476L35.2555 39.3665L35.3154 39.4871L35.3735 39.6077L35.4299 39.7283L35.4863 39.8489L35.5393 39.9712L35.5906 40.0934L35.717 40.3924L35.8367 40.6716L35.9512 40.9343L36.064 41.1821L36.1768 41.415L36.293 41.6347L36.411 41.8446L36.5357 42.0428L36.6673 42.2344L36.8092 42.4195L36.963 42.5979L37.1305 42.7746L37.3134 42.9498L37.5134 43.1232L37.7339 43.2983L37.9766 43.4751L38.0945 43.5544L38.2108 43.6353L38.3304 43.713L38.4518 43.7906L38.5731 43.8666L38.6979 43.9393L38.8244 44.012L38.9491 44.0797L39.0773 44.1491L39.2089 44.2152L39.3388 44.2796L39.4704 44.3424L39.6055 44.4019L39.7405 44.4614L39.8772 44.5192L40.0157 44.5737L40.1541 44.6266L40.296 44.6778L40.4378 44.7257L40.5831 44.7736L40.7284 44.8182L40.8754 44.8611L41.0241 44.9008L41.1745 44.9388L41.3266 44.9751L41.4805 45.0082L41.636 45.0412L41.7915 45.0693L41.9488 45.0974L42.1094 45.1222L42.2701 45.1453L42.4325 45.1635L42.7504 45.1932L43.0649 45.2097L43.376 45.2114L43.6836 45.1998L43.9896 45.1783L44.2904 45.142L44.5895 45.0957L44.8835 45.0363L45.1723 44.9652L45.4561 44.8826L45.7364 44.7918L46.0098 44.6893L46.2782 44.577L46.5414 44.4531L46.7978 44.3209L47.0456 44.1822L47.2866 44.0318L47.5225 43.8749L47.7498 43.7097L47.9703 43.5362L48.1805 43.3545L48.3839 43.1662L48.5788 42.9729L48.7634 42.773L48.9377 42.5648L49.1035 42.3534L49.259 42.1353L49.4043 41.9123L49.5393 41.6843L49.6641 41.453L49.7769 41.2168L49.8778 40.9772L49.6897 40.8599L49.5154 40.7592L49.353 40.6716L49.2009 40.5923L49.0591 40.5196L48.9274 40.4502L48.8027 40.3825L48.6864 40.3115L48.5771 40.2322L48.4745 40.1463L48.3754 40.0472L48.2814 39.9315L48.1908 39.796L48.1019 39.6408L48.0147 39.4607L47.9293 39.2525L48.0421 39.3021L48.1549 39.355L48.2626 39.4078L48.3685 39.464L48.4745 39.5185L48.5788 39.5763L48.6796 39.6325L48.7805 39.692L48.8813 39.7498L48.9821 39.8076L49.0796 39.8671L49.1787 39.9282L49.2778 39.986L49.377 40.0472L49.4761 40.1066L49.5752 40.1644L49.6778 40.2239L49.7803 40.2817L49.8829 40.3379L49.9889 40.3957L50.0931 40.4519L50.2025 40.5064L50.3136 40.5609L50.4281 40.6138L50.5444 40.665L50.6623 40.7146L50.7853 40.7641L50.9101 40.8104L51.04 40.855L51.1733 40.8996L51.3084 40.9409L51.4502 40.9789L51.5579 41.0053L51.6707 41.0301L51.7938 41.0516L51.9203 41.0698L52.0536 41.0879L52.1903 41.1028L52.3339 41.116L52.4792 41.1259L52.6296 41.1342L52.7817 41.1391L52.9355 41.1424L53.0945 41.1441L53.2517 41.1424L53.4107 41.1391L53.5696 41.1325L53.7269 41.1243L53.8841 41.1127L54.0397 41.1011L54.1952 41.0846L54.3473 41.0665L54.496 41.045L54.6413 41.0218L54.7815 40.9954L54.9182 40.9673L55.0498 40.9376L55.1763 40.9046L55.2959 40.8699L55.4087 40.8302L55.513 40.7906L55.6121 40.746L55.6993 40.6997L55.7813 40.6534L55.7147 40.5857L55.6497 40.5196L55.5831 40.4585L55.5198 40.3974L55.4566 40.3379L55.3968 40.2751L55.3404 40.214L55.2857 40.1479L55.2361 40.0802L55.1934 40.0059L55.1558 39.9266L55.1233 39.839L55.0994 39.7448L55.0823 39.6408L55.0737 39.5251V39.3996L55.0823 39.2757L55.1011 39.1534L55.125 39.0361L55.1575 38.9221L55.1985 38.8131L55.2447 38.709L55.2976 38.6132L55.3557 38.5207L55.419 38.4364L55.4874 38.3621L55.5609 38.2927L55.6378 38.2349L55.7198 38.1837L55.8036 38.144L55.8907 38.1159L55.9796 38.0978L56.1215 38.0945L56.2787 38.1159L56.4479 38.1589L56.6274 38.22L56.8154 38.2993L57.0103 38.3902L57.2102 38.4909L57.4119 38.5983L57.6119 38.7107L57.8102 38.8247L58.0033 38.9337L58.1913 39.0394L58.3708 39.1385L58.5366 39.2244L58.6921 39.2955L58.8306 39.3517L59.0305 39.4161L59.2373 39.4739L59.451 39.5235L59.6715 39.5681L59.8954 39.6044L60.1261 39.6341L60.3586 39.6589L60.5962 39.6738L60.8372 39.6854L61.0799 39.692L61.3243 39.6903L61.5687 39.6837L61.8148 39.6705L62.0592 39.6523L62.3054 39.6308L62.5498 39.6028L62.7908 39.5697L63.0318 39.5317L63.2676 39.4888L63.5001 39.4425L63.7291 39.393L63.953 39.3368L64.1718 39.2773L64.3837 39.2145L64.5906 39.1468L64.7871 39.0758L64.9785 39.0031L65.1614 38.9254L65.3341 38.8461L65.4981 38.7619L65.6503 38.6776L65.7921 38.5884L65.5768 38.6L65.3665 38.6165L65.1666 38.638L64.9683 38.6611L64.7769 38.6859L64.5854 38.7123L64.3957 38.7388L64.2043 38.7652L64.0077 38.7883L63.8095 38.8065L63.6026 38.8214L63.389 38.8313L63.1651 38.8329L62.9292 38.8296L62.6831 38.8147L62.4182 38.7916L62.5515 38.5471L62.6694 38.3324L62.7737 38.144L62.8694 37.9805L62.9583 37.8367L63.0437 37.7112L63.1292 37.5989L63.2164 37.4964L63.3087 37.4023L63.4095 37.3114L63.5206 37.2205L63.6471 37.128L63.7907 37.0273L63.9547 36.9199L64.141 36.7993L64.3547 36.6622L64.4948 36.5696L64.6401 36.4738L64.7871 36.3747L64.9341 36.2723L65.0862 36.1649L65.2349 36.0559L65.3853 35.9435L65.534 35.8279L65.681 35.7122L65.8263 35.5933L65.9682 35.4744L66.1066 35.3521L66.2382 35.2299L66.3664 35.106L66.4895 34.9821L66.604 34.8582L66.9048 34.498L67.1697 34.1296L67.3954 33.7563L67.5868 33.3779L67.7457 32.993L67.8722 32.6064L67.9662 32.2182L68.0312 31.8267L68.0688 31.4352L68.079 31.0436L68.0637 30.6538L68.0226 30.2672L67.9594 29.8823L67.8756 29.5023L67.7697 29.1273L67.6466 28.7589L67.5047 28.3954L67.3475 28.0419L67.1766 27.6966L66.9903 27.3613L66.7903 27.0375L66.5835 26.7219L66.3647 26.4213L66.1391 26.1355L65.9049 25.8629L65.6674 25.6052L65.4247 25.3623L65.1802 25.1393L64.9324 24.9345L64.6863 24.7478L64.4402 24.5809L64.1992 24.4355L63.9633 24.3083L63.7291 24.1927L63.5001 24.0886L63.2728 23.9945L63.0472 23.9102L62.825 23.8359L62.601 23.7698L62.3823 23.7136L62.1635 23.6624L61.9447 23.6211L61.7276 23.5848L61.5106 23.5534L61.2952 23.5302L61.0781 23.5104L60.8611 23.4939L60.644 23.4823L60.4269 23.4757L60.2082 23.4691L59.9894 23.4675L59.7672 23.4642H59.545L59.3194 23.4625H59.0921H58.863L58.6306 23.4592L58.3964 23.4576L58.1571 23.4509L57.9161 23.441L57.6717 23.4311L57.4239 23.4129L57.1692 23.3915L56.9128 23.3667L56.7932 23.3056L56.6975 23.2296L56.624 23.142L56.5642 23.0462L56.5163 22.9405L56.4719 22.8248L56.4257 22.7059L56.3761 22.5803L56.3146 22.4515L56.2377 22.321L56.1386 22.1904L56.0121 22.0599L55.8548 21.9311L55.66 21.8072L55.4224 21.6866L55.137 21.5742L55.0481 21.5412L54.9814 21.5181L54.9302 21.5016L54.884 21.49L54.8379 21.4834L54.7849 21.4784L54.7182 21.4768L54.6276 21.4784L54.5439 21.4801H54.4943L54.467 21.4834L54.4533 21.4867L54.4396 21.49L54.4208 21.4983L54.3798 21.5065L54.308 21.5181L54.2602 21.5263L54.2499 21.5362L54.2584 21.5462L54.2704 21.5561L54.267 21.561L54.2311 21.566L54.1456 21.5693L53.9918 21.566L54.0089 21.3876L54.0414 21.2257L54.0875 21.0803L54.1422 20.9448L54.2037 20.8176L54.2653 20.6921L54.3285 20.5698L54.3832 20.4443L54.4311 20.3121L54.467 20.17L54.4858 20.0131L54.4875 19.8396L54.4635 19.648L54.414 19.4299L54.3336 19.1854L54.2208 18.9112L54.1644 18.7922L54.1029 18.6733L54.0345 18.5543L53.9576 18.4371L53.8756 18.3231L53.7867 18.2091L53.691 18.1017L53.5884 17.9976L53.4756 17.9001L53.3577 17.8076L53.2295 17.7234L53.0945 17.6474L52.9509 17.5813L52.7971 17.5235L52.6364 17.4789L52.4655 17.4442L52.4843 17.6722L52.498 17.8886L52.5099 18.0984L52.5202 18.2999L52.527 18.4932L52.5339 18.6782L52.5356 18.8583L52.5424 19.0285L52.5458 19.1904L52.5492 19.3457L52.5561 19.4943L52.5646 19.6364L52.5749 19.7702L52.5886 19.8991L52.6056 20.0197L52.6262 20.1353L52.6518 20.246L52.6826 20.3484L52.7185 20.4459L52.7629 20.5384L52.8107 20.6243L52.8672 20.7053L52.9321 20.7813L53.0056 20.8523L53.0859 20.9184L53.1782 20.9779L53.2808 21.0357L53.3919 21.0869L53.5166 21.1365L53.6517 21.1794L53.7987 21.2191L53.961 21.2554L53.9576 21.9443L53.8329 21.9096L53.7012 21.8667L53.5662 21.8154L53.4278 21.756L53.2859 21.6932L53.1406 21.6238L52.997 21.5511L52.8518 21.4751L52.7082 21.3975L52.5646 21.3198L52.4262 21.2405L52.2912 21.1645L52.163 21.0919L52.0382 21.0208L51.9203 20.9531L51.8126 20.892L51.6143 20.778L51.44 20.6623L51.2844 20.5467L51.1511 20.4294L51.0349 20.3138L50.9358 20.1965L50.8537 20.0775L50.7853 19.9586L50.7324 19.838L50.6896 19.7174L50.6589 19.5935L50.6384 19.4696L50.6264 19.3457L50.6196 19.2168L50.623 19.0896L50.6281 18.9574L50.6401 18.8236L50.652 18.6882L50.6657 18.551L50.6794 18.4106L50.693 18.2685L50.7016 18.1232L50.7101 17.9745V17.8242L50.705 17.6689L50.6948 17.5119L50.6742 17.3517L50.6452 17.1865L50.6042 17.018L50.5495 16.8478L50.4845 16.6727L50.4025 16.4926L50.3375 16.3654L50.2675 16.2432L50.1905 16.1242L50.1085 16.0086L50.0196 15.8979L49.9239 15.7922L49.8196 15.693L49.7085 15.5972L49.5889 15.5097L49.4607 15.4287L49.3223 15.3544L49.1736 15.2866L49.0163 15.2288L48.8488 15.176L48.6694 15.1347L48.4779 15.1016L48.5224 15.5774L48.5753 16.0119L48.6369 16.4067L48.7035 16.7619L48.7787 17.0824L48.8574 17.3682L48.9428 17.6226L49.0334 17.8489L49.1257 18.0488L49.2214 18.2223L49.3206 18.3759L49.4197 18.5064L49.5205 18.6171L49.6214 18.7162L49.7222 18.7972L49.8214 18.8682L49.9188 18.9294L50.0128 18.9839L50.1051 19.0318L50.194 19.0764L50.276 19.121L50.3546 19.1656L50.4264 19.2152L50.4914 19.2697L50.5495 19.3325L50.6008 19.4051L50.6401 19.4894L50.6725 19.5885L50.693 19.7042L50.705 19.838V19.9933L50.6913 20.17Z" fill="#33DC76"/>
<path fill-rule="evenodd" clip-rule="evenodd" d="M24.1063 52.396L24.1029 52.5265L24.1011 52.657L24.0994 52.7858V52.9163L24.1011 53.0435L24.1029 53.1707L24.1063 53.298L24.108 53.4235L24.1131 53.5491L24.1165 53.6763L24.1199 53.8002L24.1234 53.9257L24.1251 54.0513L24.1268 54.1752V54.3007V54.4263V54.5502L24.1234 54.6757L24.1182 54.8013L24.1114 54.9268L24.1029 55.0524L24.0926 55.178L24.0789 55.3068L24.0635 55.434L24.043 55.5612L24.0208 55.6901L23.9952 55.8206L23.9661 55.9495L23.9336 56.0816L23.8978 56.2138L23.8567 56.3476L23.8106 56.4831L23.7388 56.6648L23.6533 56.8465L23.5542 57.0282L23.4448 57.2099L23.3252 57.3933L23.197 57.575L23.0654 57.7568L22.9286 57.9368L22.7885 58.1186L22.6483 58.3003L22.5099 58.4803L22.3749 58.6621L22.2432 58.8405L22.1185 59.0206L22.004 59.2006L21.898 59.3807L21.804 59.5575L21.7237 59.7359L21.6587 59.911L21.6108 60.0878L21.5818 60.2629L21.5732 60.438L21.5886 60.6115L21.6262 60.7849L21.6929 60.9567L21.7852 61.1285L21.9065 61.297L22.0604 61.4672L22.2467 61.6341L22.4689 61.8009L22.727 61.9678L23.0244 62.133L23.1098 62.1743L23.2038 62.2156L23.3047 62.2569L23.4123 62.2982L23.5269 62.3378L23.6465 62.3775L23.773 62.4155L23.9012 62.4518L24.0345 62.4882L24.1729 62.5212L24.3131 62.5526L24.4567 62.5823L24.6037 62.6121L24.7506 62.6368L24.8976 62.6616L25.048 62.6814L25.195 62.6996L25.342 62.7145L25.489 62.726L25.6343 62.736L25.7779 62.7426L25.918 62.7459L26.0531 62.7426L26.1864 62.7393L26.3163 62.7293L26.4393 62.7161L26.5573 62.6996L26.6701 62.6765L26.7743 62.6501L26.8735 62.6187L26.9641 62.5823L27.0461 62.541L27.094 62.4551L27.1333 62.356L27.1657 62.247L27.1914 62.128L27.2119 61.9975L27.2273 61.8604L27.2375 61.7134L27.2444 61.5581L27.2478 61.3929V61.2244L27.2461 61.0476L27.2444 60.8626L27.241 60.6742L27.2375 60.4826L27.2324 60.2844L27.229 60.0812L27.2273 59.8747L27.229 59.6665L27.2324 59.455L27.2392 59.2419L27.2495 59.0272L27.2649 58.8124L27.2854 58.596L27.311 58.3812L27.3452 58.1665L27.3845 57.9533L27.4307 57.7435L27.4871 57.5337L27.552 57.3272L27.6255 57.124L27.7093 56.9241L27.8033 56.7309L27.887 56.5756L27.9691 56.4252L28.0545 56.2799L28.14 56.1378L28.2272 55.999L28.3109 55.8652L28.3998 55.7314L28.487 55.6025L28.5741 55.4737L28.6613 55.3465L28.7485 55.2209L28.8356 55.0937L28.9211 54.9698L29.0083 54.8442L29.0937 54.7187L29.1775 54.5915L29.2612 54.4643L29.3433 54.3305L29.4253 54.2L29.5056 54.0628L29.5843 53.9241L29.6612 53.782L29.7381 53.635L29.8116 53.4846L29.8834 53.3293L29.9517 53.1674L30.0201 53.0006L30.0851 52.8288L30.1466 52.6487L30.2064 52.4637L30.2645 52.2687L30.3175 52.0688L30.1278 52.0672L29.9364 52.0705L29.7483 52.0788L29.5603 52.0903L29.374 52.1052L29.1894 52.1234L29.0048 52.1448L28.822 52.168L28.6391 52.1927L28.4579 52.2192L28.2767 52.2473L28.099 52.2754L27.9212 52.3034L27.7435 52.3332L27.5657 52.3613L27.3914 52.3893L27.1777 52.4191L26.9658 52.4455L26.7607 52.4637L26.5573 52.4802L26.3556 52.4918L26.1556 52.4984L25.9556 52.5017L25.7557 52.5L25.5574 52.4967L25.3574 52.4901L25.1557 52.4802L24.9523 52.467L24.7472 52.4521L24.5387 52.4339L24.3251 52.4141L24.1063 52.396Z" fill="#33DC76"/>
<path fill-rule="evenodd" clip-rule="evenodd" d="M66.3454 40.0682L66.0497 40.0831L65.7608 40.0996L65.4771 40.1211L65.1968 40.1442L64.9216 40.1673L64.6516 40.1921L64.3815 40.2169L64.1166 40.24L63.8551 40.2631L63.5936 40.2829L63.3338 40.2995L63.0757 40.3127L62.8176 40.3226L62.5595 40.3259H62.2997L62.0416 40.3176L61.7801 40.3044L61.5169 40.2813L61.252 40.2499L60.9836 40.2119L60.7136 40.1624L60.4401 40.1029L60.1598 40.0302L59.8761 39.9476L59.5889 39.8534L59.2949 39.7444L58.9941 39.6205L58.6882 39.485L58.3754 39.3314L58.054 39.1645L57.7259 38.9795L57.3875 38.7763L57.22 38.6788L57.049 38.5929L56.8747 38.5186L56.7004 38.4575L56.5277 38.4129L56.3602 38.3864L56.1979 38.3798L56.044 38.3947L55.9005 38.4343L55.7688 38.4988L55.6543 38.5946L55.5518 38.7168L55.4714 38.8705L55.4133 39.0605L55.3757 39.2851L55.3638 39.5478L55.3757 39.7014L55.4099 39.8485L55.4612 39.9872L55.533 40.1177L55.6219 40.2416L55.7295 40.3573L55.8509 40.463L55.9876 40.5638L56.138 40.6563L56.3004 40.7439L56.4747 40.8232L56.6593 40.8992L56.8525 40.9652L57.0542 41.028L57.2644 41.0858L57.478 41.1354L57.6985 41.1816L57.9224 41.2229L58.1515 41.2576L58.3805 41.2907L58.6112 41.3171L58.8403 41.3402L59.0676 41.3601L59.2949 41.3766L59.5171 41.3881L59.7359 41.3964L59.9496 41.403L60.1529 41.4063H60.3529H60.5426L60.7221 41.403L60.8913 41.3964L61.0588 41.3881L61.2315 41.3799L61.4075 41.3667L61.587 41.3535L61.7698 41.3386L61.9544 41.3204L62.1407 41.2989L62.3288 41.2775L62.5202 41.2527L62.7116 41.2263L62.903 41.1965L63.0945 41.1668L63.2876 41.1337L63.4773 41.0974L63.6671 41.0594L63.8568 41.0214L64.0431 40.9784L64.2277 40.9338L64.4106 40.8876L64.5866 40.838L64.7627 40.7868L64.9336 40.7323L65.1011 40.6778L65.2635 40.62L65.4207 40.5588L65.5728 40.4961L65.7181 40.43L65.8583 40.3639L65.9916 40.2929L66.1163 40.2202L66.2343 40.1458L66.3454 40.0682Z" fill="#33DC76"/>
<path fill-rule="evenodd" clip-rule="evenodd" d="M46.1694 22.4003L46.3968 22.4317L46.619 22.4614L46.8377 22.4878L47.0497 22.5159L47.2582 22.539L47.4599 22.5605L47.6581 22.5803L47.8513 22.5969L48.0393 22.6101L48.2256 22.62L48.4051 22.6266H48.5794L48.752 22.6249L48.9195 22.6167L49.0853 22.6051L49.2443 22.5869L49.4032 22.5638L49.5571 22.5341L49.7075 22.4994L49.8545 22.4564L49.998 22.4085L50.1416 22.3524L50.2784 22.2896L50.4151 22.2185L50.5484 22.1392L50.6783 22.0517L50.8065 21.9559L50.9347 21.8518L51.0595 21.7378L51.1825 21.6139L51.3022 21.4801L51.4218 21.338L51.2133 21.2554L51.0184 21.1761L50.8304 21.0985L50.651 21.0258L50.4749 20.9597L50.304 20.8986L50.1331 20.8457L49.9587 20.8028L49.7861 20.7697L49.6066 20.7466L49.4203 20.74L49.2255 20.7433L49.0204 20.7648L48.8033 20.8028L48.5726 20.8573L48.3247 20.9316L48.1589 20.9894L47.9932 21.0522L47.8291 21.12L47.6667 21.1943L47.5077 21.2719L47.3522 21.3545L47.2018 21.4421L47.0565 21.5346L46.9164 21.6288L46.783 21.7312L46.6583 21.8336L46.5403 21.941L46.4327 22.0517L46.3352 22.164L46.2463 22.2813L46.1694 22.4003Z" fill="#33DC76"/>
<path fill-rule="evenodd" clip-rule="evenodd" d="M42.7275 20.3678L42.813 20.4752L42.9053 20.5727L43.0027 20.6619L43.1053 20.7412L43.2147 20.8122L43.3275 20.8733L43.4437 20.9262L43.5651 20.9725L43.6898 21.0105L43.818 21.0402L43.9496 21.0617L44.0829 21.0765L44.218 21.0848L44.3564 21.0864L44.4966 21.0815L44.6367 21.0699L44.7786 21.0534L44.9204 21.0303L45.0623 21.0022L45.2059 20.9692L45.3477 20.9312L45.4879 20.8882L45.6281 20.8403L45.7682 20.7891L45.9032 20.7329L46.0366 20.6734L46.1699 20.6107L46.2981 20.5446L46.4228 20.4752L46.5459 20.4042L46.6638 20.3298L46.7784 20.2538L47.7936 19.4096L47.8022 19.4014L47.8107 19.3931L47.821 19.3832L47.8312 19.375L47.8415 19.365L47.8517 19.3551L47.8637 19.3452L47.874 19.3353L47.6398 19.2775L47.4296 19.2246L47.2398 19.1784L47.0638 19.1371L46.9014 19.104L46.7493 19.0776L46.6023 19.0594L46.4587 19.0495L46.3152 19.0479L46.1699 19.0578L46.016 19.0743L45.852 19.104L45.6742 19.1437L45.4811 19.1949L45.2674 19.2593L45.0298 19.3353L44.9239 19.3716L44.7974 19.4163L44.6538 19.4691L44.4966 19.5302L44.3308 19.5947L44.1564 19.6641L43.977 19.7384L43.7975 19.8144L43.6232 19.8904L43.4505 19.9664L43.2899 20.0424L43.1395 20.1167L43.0044 20.1877L42.8899 20.2538L42.7959 20.3133L42.7275 20.3678Z" fill="#33DC76"/>
<path fill-rule="evenodd" clip-rule="evenodd" d="M46.7858 17.7797L46.7618 17.6145L46.7328 17.446L46.7037 17.2758L46.6713 17.104L46.6371 16.9322L46.6012 16.7604L46.5602 16.5869L46.5157 16.4151L46.4696 16.2449L46.4166 16.0764L46.3619 15.9096L46.3038 15.746L46.2388 15.5874L46.1687 15.4321L46.0953 15.2802L46.0166 15.1348L45.9329 14.9944L45.8423 14.8622L45.7449 14.735L45.6423 14.616L45.5329 14.5054L45.4167 14.4029L45.2936 14.3104L45.1637 14.2278L45.0253 14.1551L44.88 14.0924L44.7279 14.0428L44.5655 14.0048L44.3963 13.9784L44.2168 13.9651L44.0305 13.9668L43.834 13.9833L43.8596 14.1122L43.8921 14.2526L43.9331 14.3996L43.9776 14.5566L44.0288 14.7168L44.0835 14.8804L44.1433 15.0456L44.2049 15.2108L44.2681 15.376L44.3331 15.5362L44.4014 15.6915L44.4681 15.8385L44.5348 15.979L44.6014 16.1078L44.6664 16.2268L44.7279 16.3292L44.8253 16.4812L44.9227 16.6199L45.0185 16.7472L45.1142 16.8611L45.2133 16.9669L45.3142 17.0643L45.4201 17.1536L45.5312 17.2362L45.6492 17.3138L45.7756 17.3848L45.9124 17.4526L46.0594 17.5186L46.2183 17.5831L46.3944 17.6475L46.5824 17.7136L46.7858 17.7797Z" fill="#33DC76"/>
<path fill-rule="evenodd" clip-rule="evenodd" d="M39.9736 18.2508L40.0386 18.345L40.1155 18.4342L40.1975 18.5135L40.2864 18.5895L40.3821 18.6556L40.4847 18.7167L40.5924 18.7712L40.7069 18.8175L40.8265 18.8588L40.9513 18.8918L41.0795 18.9199L41.2128 18.9397L41.3495 18.9546L41.4914 18.9628L41.6367 18.9661L41.7854 18.9612L41.9358 18.9513L42.0896 18.9331L42.2452 18.91L42.4024 18.8802L42.5614 18.8455L42.7203 18.8042L42.8827 18.7563L43.0451 18.7035L43.2074 18.644L43.3681 18.5779L43.5288 18.5085L43.6911 18.4325L43.8501 18.3483L44.0091 18.2624L44.1646 18.1682L44.3201 18.0691L44.3304 18.0625L44.3423 18.0559L44.3526 18.0476L44.3629 18.041L44.3731 18.0327L44.3851 18.0261L44.3936 18.0195L44.4039 18.0129L44.5748 17.889L44.4107 17.8295L44.2569 17.7651L44.1133 17.699L43.9766 17.633L43.8416 17.5669L43.7117 17.5024L43.58 17.4413L43.4467 17.3852L43.3083 17.3356L43.163 17.2926L43.0075 17.2596L42.8417 17.2365L42.6605 17.2282L42.4622 17.2299L42.2452 17.248L42.0076 17.2844L41.8726 17.3108L41.7341 17.3439L41.5922 17.3852L41.4487 17.4314L41.3034 17.4826L41.1598 17.5404L41.0162 17.6016L40.8744 17.666L40.7376 17.7337L40.6043 17.8048L40.4796 17.8791L40.3599 17.9518L40.2488 18.0278L40.1446 18.1021L40.0523 18.1765L39.9736 18.2508Z" fill="#33DC76"/>
<path fill-rule="evenodd" clip-rule="evenodd" d="M50.0725 34.1908L50.0247 34.399L50.0161 34.5873L50.0418 34.7558L50.0964 34.9028L50.1785 35.0284L50.281 35.1358L50.4007 35.2233L50.5323 35.291L50.6742 35.3423L50.8211 35.3736L50.9681 35.3869L51.11 35.3819L51.245 35.3604L51.3698 35.3208L51.4758 35.2646L51.5612 35.1936L51.6535 35.068L51.7048 34.9425L51.7168 34.8186L51.6945 34.698L51.6416 34.5807L51.5612 34.4716L51.4587 34.3725L51.3373 34.2817L51.1972 34.204L51.0468 34.1412L50.8844 34.095L50.7186 34.0686L50.5511 34.0636L50.3853 34.0801L50.2229 34.1214L50.0725 34.1908Z" fill="#030000"/>
</svg>
