<?xml version="1.0" encoding="UTF-8"?>
<!DOCTYPE svg PUBLIC "-//W3C//DTD SVG 1.1//EN" "http://www.w3.org/Graphics/SVG/1.1/DTD/svg11.dtd">
<!-- Creator: CorelDRAW (Evaluation Version) -->
<svg xmlns="http://www.w3.org/2000/svg" xml:space="preserve" width="5.40522in" height="10.7347in" version="1.1" style="shape-rendering:geometricPrecision; text-rendering:geometricPrecision; image-rendering:optimizeQuality; fill-rule:evenodd; clip-rule:evenodd"
viewBox="0 0 439.73 873.29"
 xmlns:xlink="http://www.w3.org/1999/xlink"
 xmlns:xodm="http://www.corel.com/coreldraw/odm/2003">
 <defs>
  <style type="text/css">
   <![CDATA[
    .fil0 {fill:#229E54;fill-rule:nonzero;fill-opacity:0.039216}
   ]]>
  </style>
 </defs>
 <g id="Layer_x0020_1">
  <metadata id="CorelCorpID_0Corel-Layer"/>
  <g id="_105553242450720">
   <path class="fil0" d="M433.23 730.99l-201.99 -116.74c-7.04,-4.07 -15.72,-4.07 -22.76,0l-201.99 116.74c-8.66,5 -8.66,17.5 0,22.51l201.99 116.74c7.04,4.07 15.72,4.07 22.76,0l201.99 -116.74c8.66,-5 8.66,-17.5 0,-22.51z"/>
   <path class="fil0" d="M433.23 406.62l-201.99 -116.74c-7.04,-4.07 -15.72,-4.07 -22.76,0l-201.99 116.74c-8.66,5 -8.66,17.5 0,22.5l201.99 116.74c7.04,4.07 15.72,4.07 22.76,0l201.99 -116.74c8.66,-5 8.66,-17.5 0,-22.5z"/>
   <path class="fil0" d="M433.23 119.79l-201.99 -116.74c-7.04,-4.07 -15.72,-4.07 -22.76,0l-201.99 116.74c-8.66,5 -8.66,17.5 0,22.51l201.99 116.74c7.04,4.07 15.72,4.07 22.76,0l201.99 -116.74c8.66,-5 8.66,-17.5 0,-22.51z"/>
  </g>
 </g>
</svg>
