<?xml version="1.0" encoding="UTF-8"?>
<!DOCTYPE svg PUBLIC "-//W3C//DTD SVG 1.1//EN" "http://www.w3.org/Graphics/SVG/1.1/DTD/svg11.dtd">
<!-- Creator: CorelDRAW -->
<svg xmlns="http://www.w3.org/2000/svg" xml:space="preserve" width="1.59265in" height="1.31431in" version="1.1" style="shape-rendering:geometricPrecision; text-rendering:geometricPrecision; image-rendering:optimizeQuality; fill-rule:evenodd; clip-rule:evenodd"
viewBox="0 0 37.86 31.24"
 xmlns:xlink="http://www.w3.org/1999/xlink"
 xmlns:xodm="http://www.corel.com/coreldraw/odm/2003">
 <defs>
  <style type="text/css">
   <![CDATA[
    .str0 {stroke:#01233F;stroke-width:0.33;stroke-linejoin:round;stroke-miterlimit:10}
    .str1 {stroke:#01233F;stroke-width:0.33;stroke-linecap:round;stroke-linejoin:round;stroke-miterlimit:10}
    .fil0 {fill:none;fill-rule:nonzero}
    .fil1 {fill:#B3B3B3;fill-rule:nonzero}
   ]]>
  </style>
 </defs>
 <g id="Layer_x0020_1">
  <metadata id="CorelCorpID_0Corel-Layer"/>
  <path class="fil0 str0" d="M37.69 14.83l-18.76 0 -8.51 -14.74m18.76 0l8.51 14.74"/>
  <polygon class="fil0 str0" points="37.69,14.83 18.93,14.83 9.55,31.08 28.31,31.08 "/>
  <polygon class="fil1" points="13.37,5.21 24.48,5.21 30.04,14.83 24.48,24.45 13.37,24.45 7.82,14.83 "/>
  <polyline class="fil0 str0" points="29.18,0.08 37.69,14.83 28.31,31.08 9.55,31.08 0.17,14.83 8.68,0.08 "/>
  <polyline class="fil0 str0" points="27.44,0.08 18.93,14.83 28.31,31.08 37.69,14.83 29.18,0.08 "/>
  <polygon class="fil0 str1" points="18.93,14.83 0.17,14.83 9.55,31.08 28.31,31.08 "/>
 </g>
</svg>
