<?xml version="1.0" encoding="UTF-8"?>
<!DOCTYPE svg PUBLIC "-//W3C//DTD SVG 1.1//EN" "http://www.w3.org/Graphics/SVG/1.1/DTD/svg11.dtd">
<!-- Creator: CorelDRAW (Evaluation Version) -->
<svg xmlns="http://www.w3.org/2000/svg" xml:space="preserve" width="3.35484in" height="2.67169in" version="1.1" style="shape-rendering:geometricPrecision; text-rendering:geometricPrecision; image-rendering:optimizeQuality; fill-rule:evenodd; clip-rule:evenodd"
viewBox="0 0 3338.36 2658.56"
 xmlns:xlink="http://www.w3.org/1999/xlink"
 xmlns:xodm="http://www.corel.com/coreldraw/odm/2003">
 <defs>
  <style type="text/css">
   <![CDATA[
    .str0 {stroke:#02B576;stroke-width:2.99;stroke-miterlimit:10}
    .fil3 {fill:#00DC8F}
    .fil7 {fill:#02B576}
    .fil10 {fill:white;fill-rule:nonzero}
    .fil8 {fill:#3E3E3E;fill-rule:nonzero}
    .fil16 {fill:#02B576;fill-rule:nonzero}
    .fil17 {fill:white;fill-rule:nonzero}
    .fil1 {fill:#00DC8F;fill-opacity:0.149020}
    .fil0 {fill:#02B576;fill-opacity:0.149020}
    .fil6 {fill:#00DC8F;fill-rule:nonzero;fill-opacity:0.149020}
    .fil5 {fill:#02B576;fill-rule:nonzero;fill-opacity:0.149020}
    .fil2 {fill:#00DC8F}
    .fil4 {fill:#02B576}
    .fil14 {fill:url(#id0)}
    .fil13 {fill:url(#id1)}
    .fil15 {fill:url(#id2)}
    .fil9 {fill:url(#id3)}
    .fil11 {fill:url(#id4)}
    .fil12 {fill:url(#id5)}
   ]]>
  </style>
  <linearGradient id="id0" gradientUnits="userSpaceOnUse" x1="2116.38" y1="1117.56" x2="2643.32" y2="1395.02">
   <stop offset="0" style="stop-opacity:1; stop-color:#CDEBEE"/>
   <stop offset="0.0117647" style="stop-opacity:1; stop-color:#CDEBEE"/>
   <stop offset="1" style="stop-opacity:1; stop-color:#B1D5D7"/>
  </linearGradient>
  <linearGradient id="id1" gradientUnits="userSpaceOnUse" xlink:href="#id0" x1="2116.38" y1="980.39" x2="2643.32" y2="1257.83">
  </linearGradient>
  <linearGradient id="id2" gradientUnits="userSpaceOnUse" xlink:href="#id0" x1="2116.38" y1="1254.76" x2="2643.32" y2="1532.19">
  </linearGradient>
  <linearGradient id="id3" gradientUnits="userSpaceOnUse" x1="1928.43" y1="598.41" x2="1800.13" y2="839.33">
   <stop offset="0" style="stop-opacity:1; stop-color:#C1C9D8"/>
   <stop offset="1" style="stop-opacity:1; stop-color:#A9ADBB"/>
  </linearGradient>
  <linearGradient id="id4" gradientUnits="userSpaceOnUse" x1="2468.24" y1="1280.89" x2="2894.66" y2="1338.86">
   <stop offset="0" style="stop-opacity:1; stop-color:#515360"/>
   <stop offset="1" style="stop-opacity:1; stop-color:#3E3E3E"/>
  </linearGradient>
  <linearGradient id="id5" gradientUnits="userSpaceOnUse" xlink:href="#id4" x1="1803.03" y1="992.33" x2="2743.65" y2="1443.83">
  </linearGradient>
 </defs>
 <g id="Layer_x0020_1">
  <metadata id="CorelCorpID_0Corel-Layer"/>
  <g id="_105553172476032">
   <path class="fil0" d="M2645.13 1311.19c424.68,146.74 333.67,569.48 101.02,687.04 -232.65,117.53 -1664.16,321.13 -2128.6,138.75 -464.4,-182.39 149.9,-1026.8 396.9,-1528.26 702.09,-1425.24 1466.86,645.89 1630.68,702.47z"/>
   <path class="fil1" d="M3079.9 711.98c143.3,387.59 -215.53,503.93 -450.99,935.12 -235.51,431.17 -423.27,801.39 -986.73,789.34 -874.77,-18.74 -1305.96,-1107.84 -1254.09,-1451.11 118.76,-785.94 882.63,-135.54 1475.18,-332.61 430.08,-143.05 1073.34,-328.33 1216.64,59.26z"/>
   <path class="fil0" d="M2968.94 1842.04c-10.31,76.41 43.24,146.72 119.67,157.06 76.43,10.33 146.74,-43.25 157.04,-119.68 10.33,-76.4 -43.25,-146.72 -119.64,-157.04 -76.43,-10.33 -146.74,43.24 -157.07,119.67z"/>
   <path class="fil1" d="M201.81 683.32c15.46,-114.36 120.66,-194.54 235.03,-179.09 114.37,15.45 194.56,120.69 179.1,235.04 -15.46,114.36 -120.7,194.54 -235.03,179.09 -114.37,-15.45 -194.56,-120.68 -179.1,-235.04z"/>
   <path class="fil2" d="M0.83 436.62c6.75,-49.96 52.74,-85 102.71,-78.25 49.97,6.75 85.01,52.74 78.26,102.7 -6.75,49.97 -52.74,85.01 -102.71,78.26 -49.97,-6.75 -85.01,-52.74 -78.26,-102.71z"/>
   <path class="fil3" d="M2465.54 2214.24c0,0 6,287.59 -86.1,400 -92.07,112.44 -154.99,-17.81 -95.44,-74.44 59.52,-56.65 130.88,-97.52 181.54,-325.56z"/>
   <path class="fil1" d="M2373.62 2160.2c0,0 -26.43,176.54 -94.47,235.7 -68.08,59.16 -92.97,-27.09 -50.6,-55.54 42.34,-28.45 90.23,-45.96 145.08,-180.16z"/>
   <path class="fil4" d="M901.85 465.99c0,0 -58.46,-281.66 11.51,-409.01 69.98,-127.35 155.63,-10.83 107.44,55.77 -48.16,66.55 -110.81,119.76 -118.95,353.24z"/>
   <path class="fil0" d="M969.63 524.59c0,0 -6.33,-178.4 49.76,-248.97 56.14,-70.62 96.37,9.64 59.94,45.32 -36.47,35.67 -80.34,61.68 -109.7,203.65z"/>
   <path class="fil5" d="M2204.26 478.87c4.1,4.98 11.45,5.66 16.45,1.56 4.94,-4.08 5.64,-11.45 1.57,-16.44 -151.74,-183.64 -273.61,-297.82 -379.69,-364.59 -107.5,-67.63 -198.96,-86.99 -288.52,-80.44 -6.45,0.45 -11.33,6.07 -10.88,12.51 0.45,6.47 6.06,11.31 12.51,10.86 84.9,-6.17 171.81,12.28 274.39,76.87 104.09,65.52 224.15,178.09 374.17,359.69z"/>
   <path class="fil6" d="M1880.83 2506.47c6.18,-1.99 9.58,-8.56 7.59,-14.74 -1.96,-6.18 -8.59,-9.56 -14.73,-7.6 -140.65,45.21 -310.17,39.21 -469.74,-0.6 -171.96,-42.86 -331.95,-124.82 -431.65,-224.25 -4.58,-4.55 -12,-4.52 -16.54,0.03 -4.55,4.58 -4.52,12 0.06,16.51 102.67,102.4 266.71,186.61 442.49,230.48 163.46,40.74 337.56,46.77 482.52,0.15z"/>
   <path class="fil6" d="M3213.25 847.3c-0.54,-6.44 -6.24,-11.2 -12.69,-10.64 -6.42,0.55 -11.18,6.24 -10.64,12.68 8.74,99.33 -27.48,196.59 -82.82,285.02 -55.87,89.4 -131.24,169.75 -199.74,234.42 -4.7,4.45 -4.91,11.86 -0.45,16.56 4.43,4.69 11.87,4.91 16.58,0.44 69.64,-65.78 146.34,-147.63 203.48,-238.99 57.74,-92.3 95.5,-194.32 86.28,-299.49z"/>
   <g>
    <path class="fil7" d="M3050.49 1895.94c-73.14,12.56 -142.6,-36.53 -155.18,-109.66 -12.56,-73.12 36.52,-142.61 109.66,-155.16 73.13,-12.56 142.6,36.52 155.16,109.66 12.58,73.11 -36.52,142.6 -109.64,155.16zm284.38 -139.41l-15.29 -88.94c-0.67,-3.81 -4.28,-6.37 -8.07,-5.7l-46.97 8.07c-3.2,0.54 -6.29,-1.21 -7.57,-4.2 -10.57,-24.83 -24.98,-47.36 -42.34,-67.02 -2.15,-2.43 -2.4,-5.99 -0.52,-8.64l27.52 -38.97c2.23,-3.13 1.48,-7.5 -1.68,-9.74l-73.68 -52.08c-3.17,-2.23 -7.53,-1.48 -9.76,1.68l-27.52 38.95c-1.86,2.65 -5.31,3.63 -8.31,2.4 -24.34,-9.81 -50.38,-15.87 -77.33,-17.55 -3.24,-0.2 -5.92,-2.53 -6.48,-5.75l-8.07 -46.95c-0.64,-3.82 -4.25,-6.37 -8.07,-5.7l-88.91 15.29c-3.82,0.64 -6.37,4.25 -5.72,8.07l8.07 46.95c0.56,3.2 -1.21,6.32 -4.19,7.59 -24.85,10.55 -47.36,24.96 -67.03,42.35 -2.43,2.14 -5.99,2.38 -8.64,0.51l-38.95 -27.53c-3.17,-2.22 -7.53,-1.46 -9.76,1.68l-52.05 73.7c-2.24,3.13 -1.48,7.51 1.66,9.73l38.97 27.52c2.64,1.89 3.61,5.32 2.38,8.34 -9.81,24.31 -15.86,50.37 -17.52,77.3 -0.2,3.24 -2.55,5.95 -5.75,6.48l-46.95 8.07c-3.82,0.64 -6.37,4.28 -5.72,8.07l15.29 88.94c0.64,3.81 4.25,6.36 8.07,5.69l46.95 -8.06c3.22,-0.55 6.31,1.2 7.59,4.2 10.57,24.83 24.96,47.36 42.34,67.01 2.15,2.44 2.4,6 0.51,8.65l-27.52 38.97c-2.23,3.14 -1.47,7.5 1.68,9.74l73.68 52.08c3.17,2.23 7.53,1.48 9.74,-1.68l27.54 -38.94c1.86,-2.65 5.31,-3.63 8.33,-2.41 24.33,9.81 50.37,15.87 77.3,17.54 3.24,0.21 5.94,2.55 6.48,5.75l8.07 46.96c0.67,3.81 4.28,6.36 8.09,5.7l88.91 -15.26c3.82,-0.67 6.37,-4.29 5.73,-8.09l-8.07 -46.96c-0.56,-3.2 1.19,-6.31 4.19,-7.59 24.83,-10.55 47.35,-24.96 67.03,-42.34 2.43,-2.15 6,-2.38 8.64,-0.51l38.95 27.53c3.17,2.21 7.53,1.46 9.76,-1.68l52.06 -73.68c2.23,-3.17 1.48,-7.53 -1.68,-9.76l-38.94 -27.52c-2.65,-1.89 -3.61,-5.31 -2.41,-8.34 9.83,-24.32 15.87,-50.37 17.55,-77.3 0.2,-3.24 2.55,-5.94 5.75,-6.48l46.95 -8.06c3.82,-0.65 6.37,-4.29 5.72,-8.07z"/>
    <path class="fil8" d="M3033.54 2074.17c-4.98,0 -9.38,-3.58 -10.25,-8.65l-3.84 -22.35c-0.32,-1.86 0.92,-3.62 2.78,-3.94 1.86,-0.33 3.62,0.92 3.94,2.78l3.84 22.36c0.34,1.95 2.19,3.26 4.15,2.93l88.92 -15.28c0.94,-0.17 1.77,-0.68 2.32,-1.47 0.55,-0.78 0.77,-1.74 0.61,-2.68l-8.07 -46.96c-0.82,-4.75 1.74,-9.39 6.22,-11.3 24.11,-10.26 46.35,-24.31 66.1,-41.76 3.64,-3.22 8.94,-3.53 12.88,-0.74l38.95 27.52c1.61,1.14 3.85,0.76 5,-0.85l52.07 -73.69c0.56,-0.79 0.77,-1.73 0.61,-2.68 -0.16,-0.95 -0.68,-1.76 -1.46,-2.32l-38.95 -27.52c-3.94,-2.78 -5.41,-7.87 -3.6,-12.38 9.85,-24.43 15.68,-50.1 17.3,-76.25 0.31,-4.85 3.83,-8.81 8.57,-9.63l46.96 -8.07c1.95,-0.33 3.26,-2.19 2.92,-4.14l-15.27 -88.92c-0.16,-0.94 -0.69,-1.77 -1.47,-2.32 -0.78,-0.55 -1.74,-0.76 -2.68,-0.61l-46.95 8.07c-4.75,0.81 -9.39,-1.74 -11.3,-6.22 -10.26,-24.12 -24.31,-46.35 -41.75,-66.1 -3.22,-3.65 -3.53,-8.94 -0.75,-12.87l27.53 -38.95c1.14,-1.61 0.76,-3.86 -0.87,-5.01l-73.68 -52.07c-1.62,-1.14 -3.86,-0.75 -5.01,0.86l-27.52 38.95c-2.78,3.94 -7.88,5.42 -12.38,3.59 -20.3,-8.19 -41.57,-13.62 -63.2,-16.13 -1.86,-0.22 -3.2,-1.91 -2.99,-3.78 0.22,-1.87 1.92,-3.21 3.78,-2.99 22.24,2.59 44.1,8.17 64.96,16.59 1.57,0.63 3.32,0.13 4.27,-1.21l27.52 -38.95c1.61,-2.27 4,-3.78 6.74,-4.26 2.73,-0.47 5.49,0.16 7.76,1.76l73.69 52.08c4.68,3.31 5.8,9.81 2.49,14.5l-27.53 38.95c-0.95,1.34 -0.83,3.17 0.29,4.43 17.94,20.29 32.38,43.15 42.93,67.94 0.67,1.55 2.25,2.44 3.87,2.17l46.96 -8.07c2.74,-0.47 5.5,0.15 7.76,1.76 2.27,1.61 3.78,4 4.25,6.73l15.27 88.92c0.98,5.66 -2.83,11.05 -8.49,12.02l-46.96 8.07c-1.61,0.27 -2.82,1.64 -2.91,3.33 -1.67,26.89 -7.66,53.26 -17.78,78.38 -0.63,1.56 -0.13,3.32 1.21,4.26l38.95 27.53c2.27,1.6 3.78,3.99 4.25,6.73 0.47,2.73 -0.15,5.5 -1.76,7.76l-52.07 73.68c-3.31,4.69 -9.82,5.8 -14.5,2.49l-38.95 -27.53c-1.34,-0.94 -3.16,-0.82 -4.42,0.29 -20.3,17.93 -43.15,32.37 -67.95,42.93 -1.55,0.66 -2.44,2.25 -2.16,3.86l8.06 46.96c0.98,5.66 -2.83,11.04 -8.49,12.02l-88.92 15.28c-0.59,0.1 -1.18,0.15 -1.77,0.15z"/>
    <path class="fil8" d="M3036.35 1894.25c-1.78,0 -3.28,-1.39 -3.4,-3.19 -0.12,-1.88 1.3,-3.5 3.17,-3.62 60.81,-4.04 110.4,-52.97 115.38,-113.8 5.57,-68.25 -45.41,-128.31 -113.66,-133.88 -8.4,-0.69 -16.86,-0.52 -25.15,0.48 -1.86,0.22 -3.57,-1.11 -3.8,-2.97 -0.23,-1.87 1.11,-3.57 2.98,-3.8 8.75,-1.06 17.67,-1.23 26.52,-0.51 72,5.88 125.78,69.24 119.9,141.23 -2.57,31.48 -16.42,60.96 -38.99,83.01 -22.34,21.83 -51.73,34.98 -82.73,37.05 -0.08,0 -0.15,0.01 -0.23,0.01z"/>
    <path class="fil9" d="M2040.71 815.47c-16.31,-28 -55.03,11.26 -67.95,-15.06 -12.94,-26.32 34.11,-94.69 3.6,-113.64 -30.51,-18.96 -27.41,22.07 -52.35,3.41 -24.95,-18.66 41.69,-90.57 -5.73,-119.3 -24.48,-14.83 -39.07,8.63 -70.37,-6.75 -31.3,-15.38 -32.76,-133.67 -112.79,-105.3 -68.06,24.14 32.35,103.79 25.82,133.29 -6.54,29.51 -47.65,7.91 -47.33,44.56 0.32,36.65 61.68,34.6 57.03,68.28 -4.65,33.68 -39.71,32.39 -34.62,59.94 9.54,51.58 97.84,36.65 100.54,62.57 2.7,25.93 -37.76,11.78 -43.52,53.94 -4.58,33.59 92,66.34 140.07,61.04 48.07,-5.29 107.6,-127 107.6,-127z"/>
    <path class="fil10" d="M1751.11 767.07c-5.09,-27.55 29.97,-26.26 34.62,-59.95 4.64,-33.68 -56.72,-31.62 -57.04,-68.27 -0.32,-36.66 40.79,-15.06 47.33,-44.56 6.53,-29.51 -93.87,-109.15 -25.81,-133.29 10.35,-3.67 19.38,-4.87 27.33,-4.18 -10.71,-4.33 -23.79,-4.67 -40.16,1.14 -68.06,24.14 32.34,103.79 25.81,133.29 -6.53,29.5 -47.65,7.91 -47.33,44.56 0.33,36.66 61.68,34.6 57.04,68.28 -4.65,33.68 -39.71,32.4 -34.62,59.95 5.7,30.8 39.46,37.88 66.33,44.11 -23.81,-5.95 -48.69,-15.04 -53.5,-41.07z"/>
    <path class="fil8" d="M1793.82 810.45c-0.26,0 -0.53,-0.03 -0.8,-0.09 -26.35,-6.28 -54.92,-15.44 -60.35,-44.82 -2.95,-15.96 6.31,-23.74 15.25,-31.27 8.47,-7.13 17.24,-14.5 19.34,-29.76 2.01,-14.51 -10.45,-21.48 -24.88,-29.55 -15,-8.39 -32,-17.9 -32.18,-38.23 -0.2,-22.27 14.31,-25.94 25.97,-28.88 10.12,-2.55 18.85,-4.76 21.44,-16.45 2.03,-9.16 -9.68,-26.65 -21.01,-43.56 -15.89,-23.73 -33.9,-50.62 -27.18,-70.89 3.13,-9.47 11.4,-16.64 24.57,-21.32 24.82,-8.8 44.73,-5.03 60.89,11.54 13.63,13.98 22.42,35.07 30.17,53.68 7.61,18.27 14.8,35.52 24.36,40.22 4.78,2.35 9.34,3.85 13.95,4.59 1.86,0.3 3.12,2.05 2.82,3.91 -0.3,1.86 -2.06,3.12 -3.91,2.82 -5.28,-0.85 -10.48,-2.55 -15.87,-5.2 -11.87,-5.83 -19.18,-23.39 -27.65,-43.72 -15.43,-37.03 -32.9,-79.01 -82.49,-61.42 -11.24,3.99 -17.91,9.56 -20.38,17.03 -5.66,17.11 11.36,42.53 26.37,64.95 13.24,19.76 24.67,36.83 22.01,48.83 -3.5,15.79 -15.69,18.87 -26.43,21.58 -11.71,2.96 -20.96,5.3 -20.82,22.21 0.14,16.38 14.01,24.13 28.7,32.34 15.21,8.51 30.94,17.31 28.31,36.43 -2.46,17.86 -13.13,26.83 -21.7,34.04 -8.81,7.41 -15.17,12.76 -12.94,24.81 4.69,25.36 29.85,33.38 55.23,39.43 1.83,0.43 2.96,2.27 2.52,4.11 -0.37,1.56 -1.77,2.61 -3.31,2.61z"/>
    <path class="fil8" d="M1878.41 734.26c-1.33,0 -2.61,-0.79 -3.15,-2.1 -36.27,-87.09 -84.84,-181.65 -126.76,-246.79 -1.01,-1.58 -0.56,-3.69 1.02,-4.71 1.58,-1.02 3.69,-0.56 4.71,1.02 42.12,65.46 90.91,160.43 127.32,247.86 0.73,1.74 -0.1,3.73 -1.83,4.46 -0.43,0.18 -0.88,0.26 -1.31,0.26z"/>
    <path class="fil7" d="M1963.93 1278.8c-208.84,-72.95 -252.54,-168.64 -252.54,-168.64l49.75 -38.42c0,0 -61.24,-2.48 -88.28,-18.89 -23.61,-14.33 -67.55,-104.19 -108.97,-196.42 -7.31,-16.3 8.88,-21.92 26.5,-24.88 63.78,-10.73 96.23,-20.03 167.81,10.18 7.98,3.37 12.09,47.81 19.88,51.41 7.79,3.6 41.48,-23.22 49.08,-19.4 146.9,74.04 261.07,232.18 302.68,379.94l-165.89 25.13z"/>
    <path class="fil10" d="M1976.46 1274.95c-186.15,-47.9 -246.29,-171.3 -246.29,-171.3l47.48 -36.68c0,0 -59.68,-2.84 -86.73,-19.25 -23.61,-14.33 -69.11,-103.83 -110.53,-196.06 -3.45,-7.67 -1.7,-13.57 2.91,-17.72 -11.69,3.19 -19.29,11.02 -13.81,23.25 41.43,92.23 85.36,182.09 108.97,196.42 27.04,16.4 88.28,18.89 88.28,18.89l-52.93 40.89c0,0 51.22,113.41 262.41,163.92l0.21 -2.36z"/>
    <path class="fil8" d="M1838.56 1232.33c-0.55,0 -1.11,-0.14 -1.64,-0.42 -51.31,-28.07 -83.5,-59.19 -101.46,-80.37 -19.57,-23.07 -26.88,-39.33 -27.18,-40.02l-1.12 -2.53 47.95 -34.34c-17.32,-1.48 -54.57,-5.43 -78.71,-13.37l-0.37 -0.12 -0.33 -0.21c-32.29,-19.59 -92.4,-154.92 -110.05,-195.93 -6.15,-14.27 -7.43,-21.45 -4.75,-26.48 2.87,-5.38 9.47,-6.59 18.59,-8.29 3.01,-0.56 6.44,-1.19 10.15,-2.05 39.29,-9.03 100.17,-17.59 174.9,12.31l1.51 0.61 0.48 1.55c1.02,3.29 2.1,8.18 3.34,13.84 1.67,7.6 3.55,16.23 5.85,23.36 3.31,10.35 5.85,12.2 6.56,12.52 0.16,0.07 1.73,0.64 7.35,-2.14 4.17,-2.06 9.2,-5.26 14.07,-8.37 11.73,-7.49 21.86,-13.96 28.07,-10.79 4.57,2.33 9.17,4.74 13.65,7.17 1.65,0.89 2.27,2.96 1.37,4.62 -0.89,1.66 -2.96,2.27 -4.62,1.37 -4.42,-2.39 -8.97,-4.78 -13.49,-7.08 -0.06,-0.03 -1.54,-0.72 -7.19,2.06 -4.18,2.05 -9.24,5.28 -14.13,8.4 -11.63,7.42 -21.68,13.84 -27.94,10.96 -7.54,-3.47 -11.64,-19.73 -16.22,-40.62 -1.01,-4.64 -1.92,-8.76 -2.73,-11.74 -72.25,-28.47 -131.17,-20.16 -169.31,-11.39 -3.85,0.89 -7.35,1.54 -10.43,2.11 -7.25,1.35 -12.49,2.32 -13.81,4.8 -1.92,3.59 1.93,13.47 4.99,20.58 45.64,106.04 86.58,179.69 107.01,192.6 30.89,10.04 85.46,13.61 86,13.64l9.54 0.62 -58.73 42.05c2.77,5.33 10.44,18.87 25.16,36.16 17.57,20.65 49.07,51.05 99.31,78.53 1.65,0.9 2.26,2.97 1.36,4.63 -0.62,1.13 -1.79,1.77 -2.99,1.77z"/>
    <path class="fil8" d="M1867.5 1029.43c-0.88,0 -1.75,-0.33 -2.42,-1 -80.6,-80.62 -179.43,-140.77 -302.14,-183.89 -1.77,-0.63 -2.71,-2.58 -2.08,-4.35 0.62,-1.77 2.57,-2.71 4.34,-2.08 59.69,20.97 112.21,45.11 160.56,73.79 53.66,31.83 100.81,68.37 144.14,111.72 1.34,1.32 1.34,3.48 0,4.81 -0.67,0.67 -1.54,1 -2.41,1z"/>
    <path class="fil11" d="M2909.42 287.62l-880.48 0c-28.88,0 -52.29,23.41 -52.29,52.29l0 1882.23c0,28.88 23.41,52.29 52.29,52.29l880.48 0c28.88,0 52.29,-23.41 52.29,-52.29l0 -1882.23c0,-28.88 -23.41,-52.29 -52.29,-52.29z"/>
    <path class="fil8" d="M2029.98 291.03c-27.54,0 -49.93,22.4 -49.93,49.93l0 1880.13c0,27.53 22.39,49.93 49.93,49.93l878.38 0c27.54,0 49.93,-22.39 49.93,-49.93l0 -1880.13c0,-27.53 -22.39,-49.93 -49.93,-49.93l-878.38 0zm878.38 1986.8l-878.38 0c-31.29,0 -56.74,-25.45 -56.74,-56.74l0 -1880.13c0,-31.29 25.45,-56.75 56.74,-56.75l878.38 0c31.29,0 56.75,25.46 56.75,56.75l0 1880.13c0,31.29 -25.45,56.74 -56.75,56.74z"/>
    <path class="fil12" d="M2837.66 287.62l-866.37 0c-32.78,0 -59.35,26.57 -59.35,59.35l0 1868.11c0,32.78 26.57,59.34 59.35,59.34l866.37 0c32.78,0 59.35,-26.57 59.35,-59.34l0 -1868.11c0,-32.78 -26.57,-59.35 -59.35,-59.35z"/>
    <path class="fil10" d="M1912.94 1216.37l0 -754.64c0,-45.74 37.08,-82.82 82.82,-82.82l253.96 0c32.18,0 61.35,17.85 77.14,45.89 16.06,28.51 46.61,47.76 81.67,47.76 35.04,0 65.56,-19.24 81.61,-47.74 15.8,-28.05 44.97,-45.92 77.16,-45.92l253.99 0c45.74,0 82.83,37.08 82.83,82.82l0 1612.89c0,29.38 -23.82,53.2 -53.21,53.2l-884.77 0c-29.38,0 -53.2,-23.82 -53.2,-53.2l0 -858.25z"/>
    <path class="fil8" d="M1969.02 291.03c-29.59,0 -53.67,24.07 -53.67,53.67l0 1872.65c0,29.59 24.08,53.66 53.67,53.66l870.91 0c29.59,0 53.67,-24.07 53.67,-53.66l0 -1872.65c0,-29.59 -24.07,-53.67 -53.67,-53.67l-870.91 0zm870.91 1986.8l-870.91 0c-33.35,0 -60.48,-27.13 -60.48,-60.48l0 -1872.65c0,-33.35 27.13,-60.48 60.48,-60.48l870.91 0c33.35,0 60.48,27.13 60.48,60.48l0 1872.65c0,33.35 -27.13,60.48 -60.48,60.48z"/>
    <path class="fil8" d="M2903.1 535.35c-1.88,0 -3.41,-1.52 -3.41,-3.4l0 -131.18c0,-60.51 -49.28,-109.74 -109.85,-109.74l-764.75 0c-60.51,0 -109.74,49.23 -109.74,109.74l0 104.12c0,1.88 -1.52,3.41 -3.4,3.41 -1.88,0 -3.41,-1.53 -3.41,-3.41l0 -104.12c0,-64.27 52.29,-116.55 116.55,-116.55l764.75 0c64.33,0 116.67,52.29 116.67,116.55l0 131.18c0,1.88 -1.53,3.4 -3.41,3.4z"/>
    <path class="fil8" d="M2849.89 2134.3l-884.77 0c-31.22,0 -56.61,-25.4 -56.61,-56.61l0 -278.27c0,-1.89 1.52,-3.41 3.41,-3.41 1.88,0 3.41,1.52 3.41,3.41l0 278.27c0,27.46 22.34,49.8 49.79,49.8l884.77 0c27.46,0 49.8,-22.34 49.8,-49.8l0 -1612.89c0,-43.79 -35.63,-79.42 -79.42,-79.42l-253.99 0c-30.41,0 -58.84,16.93 -74.19,44.18 -17.19,30.52 -49.6,49.48 -84.58,49.48 -35.01,0 -67.44,-18.97 -84.64,-49.5 -15.33,-27.24 -43.76,-44.15 -74.17,-44.15l-253.96 0c-43.79,0 -79.42,35.62 -79.42,79.42l0 1004.75c0,1.88 -1.53,3.41 -3.41,3.41 -1.89,0 -3.41,-1.53 -3.41,-3.41l0 -1004.75c0,-47.55 38.68,-86.23 86.23,-86.23l253.96 0c32.87,0 63.57,18.25 80.12,47.63 15.98,28.39 46.14,46.03 78.69,46.03 32.52,0 62.66,-17.63 78.64,-46 16.55,-29.39 47.25,-47.65 80.12,-47.65l253.99 0c47.55,0 86.24,38.68 86.24,86.23l0 1612.89c0,31.22 -25.4,56.61 -56.61,56.61z"/>
    <path class="fil10" d="M2774.49 2277.83l-155.3 0c-1.88,0 -3.41,-1.52 -3.41,-3.41 0,-1.88 1.53,-3.41 3.41,-3.41l155.3 0c69.04,0 125.2,-56.16 125.2,-125.19l0 -1744.94c0,-1.88 1.52,-3.41 3.41,-3.41 1.88,0 3.41,1.53 3.41,3.41l0 1744.94c0,72.79 -59.22,132.01 -132.01,132.01z"/>
    <path class="fil8" d="M2404.44 430.82c-15.94,0 -28.91,-12.97 -28.91,-28.91 0,-15.94 12.97,-28.92 28.91,-28.92 1.88,0 3.41,1.53 3.41,3.41 0,1.88 -1.52,3.41 -3.41,3.41 -12.18,0 -22.1,9.92 -22.1,22.1 0,12.18 9.91,22.1 22.1,22.1 12.18,0 22.11,-9.92 22.11,-22.1 0,-1.88 1.52,-3.41 3.4,-3.41 1.88,0 3.41,1.52 3.41,3.41 0,15.94 -12.97,28.91 -28.92,28.91z"/>
    <path class="fil7" d="M2462.48 703.98c0,32.05 -25.99,58.04 -58.05,58.04 -32.05,0 -58.05,-25.98 -58.05,-58.04 0,-32.06 25.99,-58.05 58.05,-58.05 32.06,0 58.05,25.99 58.05,58.05z"/>
    <path class="fil8 str0" d="M2404.44 649.34c-30.13,0 -54.64,24.51 -54.64,54.64 0,30.12 24.51,54.63 54.64,54.63 30.13,0 54.64,-24.51 54.64,-54.63 0,-30.13 -24.51,-54.64 -54.64,-54.64zm0 116.08c-33.88,0 -61.45,-27.56 -61.45,-61.44 0,-33.89 27.57,-61.46 61.45,-61.46 33.89,0 61.46,27.57 61.46,61.46 0,33.88 -27.57,61.44 -61.46,61.44z"/>
    <path class="fil7" d="M2450.85 795.77l-92.83 0c-25.81,0 -46.73,20.92 -46.73,46.73l0 77.96c0,8.92 7.23,16.14 16.15,16.14l153.98 0c8.92,0 16.15,-7.22 16.15,-16.14l0 -77.96c0,-25.81 -20.92,-46.73 -46.73,-46.73z"/>
    <path class="fil8" d="M2358.02 799.18c-23.89,0 -43.32,19.43 -43.32,43.32l0 77.96c0,7.03 5.72,12.74 12.74,12.74l153.98 0c7.03,0 12.74,-5.71 12.74,-12.74l0 -77.96c0,-23.89 -19.43,-43.32 -43.32,-43.32l-92.83 0zm123.41 140.83l-153.98 0c-10.79,0 -19.56,-8.77 -19.56,-19.55l0 -77.96c0,-27.64 22.49,-50.13 50.13,-50.13l92.83 0c27.65,0 50.14,22.49 50.14,50.13l0 77.96c0,10.79 -8.78,19.55 -19.56,19.55z"/>
    <path class="fil8" d="M2404.44 615.25c-100.89,0 -182.97,82.08 -182.97,182.98 0,100.89 82.08,182.97 182.97,182.97 100.9,0 182.98,-82.08 182.98,-182.97 0,-100.9 -82.08,-182.98 -182.98,-182.98zm0 372.77c-50.69,0 -98.35,-19.75 -134.2,-55.59 -35.84,-35.85 -55.58,-83.51 -55.58,-134.2 0,-50.7 19.74,-98.36 55.58,-134.2 35.85,-35.85 83.51,-55.59 134.2,-55.59 50.69,0 98.36,19.74 134.2,55.59 35.85,35.85 55.6,83.5 55.6,134.2 0,50.69 -19.75,98.35 -55.6,134.2 -35.84,35.84 -83.51,55.59 -134.2,55.59z"/>
    <path class="fil7" d="M2755.03 1565.13l-701.18 0c-14.8,0 -26.79,12 -26.79,26.79l0 190.84c0,14.8 11.99,26.79 26.79,26.79l701.18 0c14.8,0 26.79,-12 26.79,-26.79l0 -190.84c0,-14.8 -12,-26.79 -26.79,-26.79z"/>
    <path class="fil8" d="M2728.41 1812.96l-647.96 0c-31.32,0 -56.8,-25.48 -56.8,-56.81l0 -72.81c0,-1.88 1.52,-3.41 3.41,-3.41 1.88,0 3.4,1.53 3.4,3.41l0 72.81c0,27.57 22.42,50 49.99,50l647.96 0c27.56,0 50,-22.43 50,-50l0 -137.62c0,-27.56 -22.43,-49.99 -50,-49.99l-622.31 0c-1.88,0 -3.4,-1.52 -3.4,-3.41 0,-1.88 1.53,-3.41 3.4,-3.41l622.31 0c31.33,0 56.81,25.49 56.81,56.81l0 137.62c0,31.33 -25.48,56.81 -56.81,56.81z"/>
    <path class="fil13" d="M2702.41 1099.25l-595.95 0c-9.09,0 -16.45,7.37 -16.45,16.45l0 32.7c0,9.09 7.37,16.46 16.45,16.46l595.95 0c9.09,0 16.45,-7.37 16.45,-16.46l0 -32.7c0,-9.09 -7.37,-16.45 -16.45,-16.45z"/>
    <path class="fil8" d="M2106.46 1102.66c-7.19,0 -13.05,5.85 -13.05,13.05l0 32.7c0,7.19 5.85,13.05 13.05,13.05l595.95 0c7.19,0 13.05,-5.86 13.05,-13.05l0 -32.7c0,-7.19 -5.85,-13.05 -13.05,-13.05l-595.95 0zm595.95 65.61l-595.95 0c-10.95,0 -19.86,-8.91 -19.86,-19.86l0 -32.7c0,-10.95 8.91,-19.86 19.86,-19.86l595.95 0c10.96,0 19.86,8.91 19.86,19.86l0 32.7c0,10.95 -8.9,19.86 -19.86,19.86z"/>
    <path class="fil14" d="M2106.46 1302.04l595.95 0c9.09,0 16.45,-7.37 16.45,-16.45l0 -32.69c0,-9.09 -7.37,-16.45 -16.45,-16.45l-595.95 0c-9.09,0 -16.45,7.37 -16.45,16.45l0 32.69c0,9.09 7.37,16.45 16.45,16.45z"/>
    <path class="fil8" d="M2106.46 1239.84c-7.19,0 -13.05,5.86 -13.05,13.05l0 32.69c0,7.19 5.85,13.05 13.05,13.05l595.95 0c7.19,0 13.05,-5.86 13.05,-13.05l0 -32.69c0,-7.19 -5.85,-13.05 -13.05,-13.05l-595.95 0zm595.95 65.61l-595.95 0c-10.95,0 -19.86,-8.9 -19.86,-19.86l0 -32.69c0,-10.95 8.91,-19.86 19.86,-19.86l595.95 0c10.96,0 19.86,8.91 19.86,19.86l0 32.69c0,10.96 -8.9,19.86 -19.86,19.86z"/>
    <path class="fil15" d="M2106.46 1439.22l595.95 0c9.09,0 16.45,-7.37 16.45,-16.45l0 -32.7c0,-9.09 -7.37,-16.46 -16.45,-16.46l-595.95 0c-9.09,0 -16.45,7.37 -16.45,16.46l0 32.7c0,9.09 7.37,16.45 16.45,16.45z"/>
    <path class="fil8" d="M2106.46 1377.02c-7.19,0 -13.05,5.86 -13.05,13.05l0 32.7c0,7.19 5.85,13.05 13.05,13.05l595.95 0c7.19,0 13.05,-5.85 13.05,-13.05l0 -32.7c0,-7.19 -5.85,-13.05 -13.05,-13.05l-595.95 0zm595.95 65.61l-595.95 0c-10.95,0 -19.86,-8.91 -19.86,-19.86l0 -32.7c0,-10.95 8.91,-19.86 19.86,-19.86l595.95 0c10.96,0 19.86,8.91 19.86,19.86l0 32.7c0,10.95 -8.9,19.86 -19.86,19.86z"/>
    <path class="fil10" d="M434.69 1731.67c-0.64,0 -1.15,0.24 -1.41,0.38 -0.42,0.24 -1.39,0.96 -1.39,2.42l0 112.4c0,1.45 0.97,2.17 1.39,2.42 0.42,0.24 1.53,0.72 2.79,0l97.34 -56.21c1.26,-0.72 1.39,-1.92 1.39,-2.41 0,-0.49 -0.14,-1.69 -1.39,-2.42l-97.34 -56.2c-0.49,-0.29 -0.96,-0.38 -1.38,-0.38zm-0.02 124.82c-1.65,0 -3.29,-0.43 -4.8,-1.3 -3,-1.74 -4.8,-4.84 -4.8,-8.32l0 -112.4c0,-3.47 1.79,-6.58 4.8,-8.31 3,-1.74 6.59,-1.74 9.6,0l97.34 56.2c3.01,1.73 4.8,4.85 4.8,8.31 0,3.47 -1.79,6.58 -4.8,8.32l-97.34 56.2c-1.5,0.87 -3.15,1.3 -4.8,1.3z"/>
    <path class="fil10" d="M3035.14 1243.05c-0.64,0 -1.15,0.24 -1.41,0.38 -0.42,0.24 -1.39,0.96 -1.39,2.41l0 112.41c0,1.45 0.98,2.17 1.39,2.41 0.42,0.24 1.53,0.73 2.79,0l97.34 -56.2c1.26,-0.72 1.39,-1.93 1.39,-2.42 0,-0.48 -0.14,-1.68 -1.39,-2.41l-97.34 -56.21c-0.49,-0.28 -0.96,-0.38 -1.38,-0.38zm-0.02 124.81c-1.64,0 -3.29,-0.43 -4.8,-1.29 -3.01,-1.74 -4.8,-4.85 -4.8,-8.32l0 -112.41c0,-3.47 1.79,-6.58 4.8,-8.31 3,-1.74 6.59,-1.74 9.6,0l97.34 56.2c3,1.74 4.8,4.85 4.8,8.31 0,3.48 -1.8,6.58 -4.8,8.32l-97.34 56.21c-1.5,0.86 -3.15,1.29 -4.8,1.29z"/>
    <path class="fil10" d="M1794.87 2030.38c-0.42,0 -0.92,0.11 -1.42,0.42l-96.11 58.29c-1.24,0.76 -1.35,1.96 -1.34,2.44 0.01,0.49 0.18,1.68 1.45,2.38l98.53 54.09c1.27,0.71 2.38,0.19 2.79,-0.06 0.42,-0.25 1.37,-0.99 1.34,-2.44l-2.43 -112.38c-0.03,-1.45 -1.02,-2.14 -1.45,-2.38 -0.24,-0.14 -0.73,-0.36 -1.36,-0.36zm2.45 124.79c-1.58,0 -3.17,-0.4 -4.63,-1.2l-98.53 -54.09c-3.04,-1.67 -4.91,-4.73 -4.98,-8.21 -0.08,-3.47 1.65,-6.61 4.62,-8.42l96.11 -58.29c2.97,-1.79 6.56,-1.87 9.6,-0.2 3.04,1.67 4.9,4.74 4.98,8.21l2.43 112.37c0.08,3.48 -1.65,6.62 -4.62,8.42 -1.54,0.93 -3.26,1.4 -4.98,1.4z"/>
    <path class="fil10" d="M1384.53 658.6c-0.2,0 -0.36,0.02 -0.48,0.04 -0.48,0.08 -1.63,0.41 -2.15,1.77l-39.49 105.24c-0.51,1.36 0.14,2.37 0.45,2.74 0.31,0.38 1.18,1.22 2.61,0.98l55.44 -9.21 0.56 3.36 -0.56 -3.36 55.44 -9.21c1.44,-0.24 1.98,-1.31 2.16,-1.76 0.16,-0.45 0.46,-1.63 -0.46,-2.75l-71.38 -86.82c-0.7,-0.84 -1.55,-1.02 -2.14,-1.02zm-39.56 117.63c-2.84,0 -5.51,-1.25 -7.37,-3.51 -2.2,-2.68 -2.79,-6.22 -1.57,-9.48l39.5 -105.23c1.22,-3.25 3.99,-5.53 7.41,-6.1 3.42,-0.57 6.79,0.69 8.99,3.37l71.39 86.82c2.21,2.68 2.79,6.23 1.57,9.48 -1.22,3.25 -3.99,5.53 -7.41,6.1l-110.89 18.42c-0.54,0.08 -1.08,0.13 -1.62,0.13z"/>
    <path class="fil8" d="M1444.85 1254.63c-6.96,0 -12.62,-5.67 -12.62,-12.65 0,-6.96 5.66,-12.64 12.62,-12.64 6.98,0 12.64,5.68 12.64,12.64 0,6.98 -5.66,12.65 -12.64,12.65z"/>
    <path class="fil8" d="M1580.31 1254.63c-6.96,0 -12.62,-5.67 -12.62,-12.65 0,-6.96 5.66,-12.64 12.62,-12.64 6.97,0 12.63,5.68 12.63,12.64 0,6.98 -5.66,12.65 -12.63,12.65z"/>
    <path class="fil8" d="M1715.78 1254.63c-6.97,0 -12.63,-5.67 -12.63,-12.65 0,-6.96 5.66,-12.64 12.63,-12.64 6.97,0 12.63,5.68 12.63,12.64 0,6.98 -5.66,12.65 -12.63,12.65z"/>
    <path class="fil8" d="M1444.85 1388.61c-6.96,0 -12.62,-5.68 -12.62,-12.65 0,-6.96 5.66,-12.64 12.62,-12.64 6.98,0 12.64,5.68 12.64,12.64 0,6.97 -5.66,12.65 -12.64,12.65z"/>
    <path class="fil8" d="M1580.31 1388.61c-6.96,0 -12.62,-5.68 -12.62,-12.65 0,-6.96 5.66,-12.64 12.62,-12.64 6.97,0 12.63,5.68 12.63,12.64 0,6.97 -5.66,12.65 -12.63,12.65z"/>
    <path class="fil8" d="M1715.78 1388.61c-6.97,0 -12.63,-5.68 -12.63,-12.65 0,-6.96 5.66,-12.64 12.63,-12.64 6.97,0 12.63,5.68 12.63,12.64 0,6.97 -5.66,12.65 -12.63,12.65z"/>
    <path class="fil8" d="M1444.85 1522.79c-6.96,0 -12.62,-5.67 -12.62,-12.65 0,-6.96 5.66,-12.64 12.62,-12.64 6.98,0 12.64,5.68 12.64,12.64 0,6.98 -5.66,12.65 -12.64,12.65z"/>
    <path class="fil8" d="M1580.31 1522.79c-6.96,0 -12.62,-5.67 -12.62,-12.65 0,-6.96 5.66,-12.64 12.62,-12.64 6.97,0 12.63,5.68 12.63,12.64 0,6.98 -5.66,12.65 -12.63,12.65z"/>
    <path class="fil8" d="M1715.78 1522.79c-6.97,0 -12.63,-5.67 -12.63,-12.65 0,-6.96 5.66,-12.64 12.63,-12.64 6.97,0 12.63,5.68 12.63,12.64 0,6.98 -5.66,12.65 -12.63,12.65z"/>
    <path class="fil8" d="M968.41 395.2c-0.07,0 -0.15,-0 -0.23,-0.01 -8.3,-0.56 -16.64,-0.9 -24.79,-1.02 -1.88,-0.03 -3.38,-1.57 -3.36,-3.46 0.03,-1.88 1.57,-3.39 3.46,-3.36 8.26,0.12 16.73,0.47 25.14,1.04 1.88,0.13 3.3,1.75 3.17,3.63 -0.12,1.8 -1.62,3.18 -3.4,3.18zm-74.88 1.09c-1.72,0 -3.2,-1.3 -3.38,-3.06 -0.19,-1.87 1.17,-3.55 3.04,-3.74 6.1,-0.63 12.29,-1.12 18.38,-1.47 2.23,-0.13 4.5,-0.24 6.75,-0.33 1.88,-0.09 3.47,1.38 3.55,3.26 0.07,1.88 -1.38,3.47 -3.26,3.55 -2.22,0.09 -4.45,0.2 -6.65,0.33 -5.99,0.34 -12.06,0.83 -18.06,1.45 -0.12,0.01 -0.24,0.02 -0.35,0.02zm124.5 4.72c-0.18,0 -0.37,-0.02 -0.56,-0.05 -8.24,-1.36 -16.51,-2.53 -24.58,-3.47 -1.87,-0.22 -3.2,-1.92 -2.99,-3.78 0.22,-1.87 1.92,-3.21 3.78,-2.99 8.18,0.96 16.55,2.15 24.9,3.52 1.86,0.31 3.11,2.06 2.81,3.91 -0.27,1.67 -1.72,2.86 -3.36,2.86zm-173.78 3.4c-1.56,0 -2.96,-1.07 -3.32,-2.65 -0.42,-1.84 0.73,-3.66 2.57,-4.08 8.18,-1.86 16.49,-3.49 24.72,-4.84 1.86,-0.31 3.61,0.95 3.91,2.81 0.31,1.86 -0.95,3.61 -2.81,3.92 -8.09,1.34 -16.27,2.94 -24.32,4.76 -0.25,0.06 -0.51,0.09 -0.76,0.09zm222.7 6.77c-0.28,0 -0.55,-0.03 -0.83,-0.1 -8.13,-2.03 -16.28,-3.89 -24.23,-5.55 -1.84,-0.38 -3.02,-2.19 -2.63,-4.03 0.38,-1.84 2.19,-3.02 4.03,-2.64 8.03,1.67 16.27,3.56 24.48,5.61 1.83,0.45 2.94,2.3 2.48,4.13 -0.38,1.55 -1.78,2.58 -3.3,2.58zm-270.68 7.14c-1.4,0 -2.71,-0.87 -3.21,-2.27 -0.63,-1.77 0.31,-3.72 2.08,-4.35 7.9,-2.8 15.96,-5.39 23.98,-7.71 1.81,-0.52 3.7,0.52 4.22,2.32 0.52,1.81 -0.52,3.7 -2.33,4.22 -7.89,2.29 -15.83,4.84 -23.6,7.59 -0.38,0.14 -0.76,0.2 -1.14,0.2zm318.7 6.61c-0.34,0 -0.7,-0.05 -1.04,-0.16 -8.01,-2.57 -16.02,-5.01 -23.8,-7.25 -1.81,-0.52 -2.86,-2.41 -2.34,-4.22 0.52,-1.81 2.41,-2.85 4.22,-2.33 7.85,2.25 15.93,4.71 24.01,7.31 1.79,0.58 2.78,2.5 2.2,4.29 -0.47,1.44 -1.8,2.36 -3.25,2.36zm-364.76 12.71c-1.26,0 -2.48,-0.71 -3.07,-1.92 -0.82,-1.69 -0.12,-3.73 1.57,-4.56 7.52,-3.67 15.23,-7.17 22.93,-10.4 1.74,-0.73 3.73,0.09 4.46,1.83 0.73,1.74 -0.09,3.73 -1.83,4.46 -7.58,3.19 -15.18,6.63 -22.58,10.24 -0.48,0.24 -0.99,0.35 -1.49,0.35zm411.9 3.89c-0.4,0 -0.82,-0.07 -1.21,-0.22 -7.89,-3 -15.76,-5.89 -23.38,-8.58 -1.77,-0.63 -2.71,-2.57 -2.08,-4.34 0.62,-1.78 2.57,-2.71 4.34,-2.08 7.67,2.71 15.59,5.61 23.54,8.64 1.76,0.67 2.64,2.64 1.97,4.4 -0.52,1.36 -1.81,2.19 -3.18,2.19zm46.31 18.79c-0.45,0 -0.9,-0.09 -1.34,-0.28 -7.8,-3.34 -15.54,-6.57 -23,-9.6 -1.74,-0.71 -2.58,-2.7 -1.87,-4.44 0.71,-1.74 2.7,-2.58 4.44,-1.87 7.51,3.05 15.28,6.3 23.13,9.65 1.73,0.74 2.53,2.74 1.79,4.47 -0.55,1.29 -1.81,2.07 -3.14,2.07zm-501.81 1.73c-1.12,0 -2.23,-0.56 -2.88,-1.58 -1.01,-1.59 -0.54,-3.69 1.04,-4.7 7.05,-4.49 14.32,-8.83 21.62,-12.92 1.64,-0.92 3.72,-0.33 4.64,1.31 0.92,1.64 0.33,3.72 -1.31,4.64 -7.19,4.02 -14.35,8.3 -21.28,12.72 -0.57,0.36 -1.2,0.53 -1.83,0.53zm547.45 18.65c-0.48,0 -0.96,-0.1 -1.43,-0.32 -7.78,-3.6 -15.42,-7.08 -22.71,-10.34 -1.72,-0.77 -2.48,-2.78 -1.72,-4.5 0.78,-1.72 2.79,-2.49 4.51,-1.72 7.31,3.27 14.97,6.76 22.79,10.37 1.7,0.79 2.44,2.82 1.66,4.52 -0.58,1.25 -1.81,1.98 -3.09,1.98zm-588.01 10.52c-1,0 -1.98,-0.43 -2.65,-1.27 -1.18,-1.46 -0.96,-3.61 0.51,-4.79 6.49,-5.25 13.23,-10.39 20.02,-15.27 1.53,-1.1 3.66,-0.75 4.76,0.78 1.1,1.53 0.75,3.66 -0.78,4.76 -6.69,4.81 -13.32,9.87 -19.71,15.04 -0.63,0.51 -1.39,0.76 -2.14,0.76zm633.19 10.85c-0.49,0 -1,-0.11 -1.47,-0.34 -8.41,-4.03 -15.77,-7.55 -22.55,-10.75 -1.7,-0.81 -2.42,-2.84 -1.62,-4.54 0.81,-1.7 2.84,-2.43 4.54,-1.62 6.78,3.21 14.16,6.73 22.57,10.77 1.7,0.81 2.42,2.85 1.6,4.54 -0.58,1.22 -1.8,1.94 -3.08,1.94zm45.04 21.68c-0.49,0 -1,-0.11 -1.47,-0.34 -7.05,-3.38 -14.1,-6.78 -21.14,-10.17l-1.39 -0.67c-1.7,-0.82 -2.41,-2.86 -1.59,-4.55 0.81,-1.69 2.85,-2.41 4.54,-1.59l1.39 0.67c7.04,3.39 14.08,6.79 21.12,10.17 1.7,0.81 2.41,2.85 1.6,4.55 -0.58,1.22 -1.8,1.94 -3.08,1.94zm-715.2 1.07c-0.86,0 -1.72,-0.33 -2.38,-0.98 -1.35,-1.32 -1.37,-3.47 -0.05,-4.82 5.83,-5.95 11.93,-11.84 18.14,-17.47 1.39,-1.27 3.55,-1.16 4.81,0.23 1.27,1.39 1.16,3.55 -0.23,4.81 -6.11,5.55 -12.11,11.33 -17.85,17.2 -0.67,0.68 -1.55,1.02 -2.44,1.02zm760.37 20.32c-0.48,0 -0.97,-0.1 -1.43,-0.32 -7.14,-3.31 -14.55,-6.79 -22.64,-10.64 -1.7,-0.81 -2.43,-2.84 -1.62,-4.54 0.8,-1.7 2.83,-2.43 4.53,-1.62 8.09,3.84 15.48,7.31 22.6,10.61 1.7,0.8 2.44,2.82 1.66,4.53 -0.58,1.24 -1.81,1.97 -3.1,1.97zm-793.15 17.37c-0.72,0 -1.46,-0.23 -2.07,-0.71 -1.49,-1.15 -1.77,-3.29 -0.63,-4.78 5.09,-6.61 10.46,-13.17 15.96,-19.49 1.24,-1.42 3.39,-1.57 4.81,-0.34 1.42,1.24 1.57,3.39 0.33,4.81 -5.41,6.22 -10.7,12.67 -15.7,19.17 -0.67,0.87 -1.68,1.33 -2.7,1.33zm838.73 3.14c-0.45,0 -0.91,-0.09 -1.35,-0.28 -7.33,-3.17 -15.04,-6.58 -22.91,-10.12 -1.71,-0.78 -2.48,-2.79 -1.7,-4.51 0.77,-1.72 2.79,-2.48 4.51,-1.7 7.84,3.53 15.51,6.92 22.81,10.08 1.73,0.75 2.52,2.75 1.77,4.48 -0.56,1.28 -1.81,2.05 -3.13,2.05zm46.23 18.99c-0.4,0 -0.81,-0.07 -1.23,-0.23 -7.55,-2.92 -15.38,-6.04 -23.28,-9.29 -1.74,-0.72 -2.57,-2.71 -1.86,-4.45 0.72,-1.74 2.71,-2.57 4.45,-1.86 7.85,3.23 15.63,6.33 23.14,9.23 1.76,0.68 2.63,2.65 1.95,4.41 -0.52,1.35 -1.81,2.18 -3.18,2.18zm47.07 16.8c-0.36,0 -0.71,-0.05 -1.06,-0.17 -7.75,-2.53 -15.74,-5.26 -23.73,-8.11 -1.77,-0.63 -2.7,-2.59 -2.06,-4.36 0.63,-1.77 2.58,-2.7 4.36,-2.06 7.93,2.84 15.86,5.55 23.55,8.05 1.79,0.58 2.76,2.51 2.18,4.3 -0.46,1.44 -1.8,2.35 -3.23,2.35zm-960.01 2.46c-0.59,0 -1.18,-0.15 -1.72,-0.47 -1.62,-0.95 -2.16,-3.04 -1.21,-4.66 2.24,-3.81 4.6,-7.67 7.01,-11.47 2.09,-3.29 4.26,-6.6 6.45,-9.85 1.05,-1.56 3.17,-1.97 4.73,-0.91 1.56,1.05 1.97,3.17 0.92,4.73 -2.15,3.19 -4.29,6.45 -6.34,9.68 -2.37,3.74 -4.69,7.53 -6.89,11.27 -0.63,1.08 -1.77,1.68 -2.94,1.68zm1008 11.45c-0.28,0 -0.56,-0.04 -0.84,-0.11 -7.96,-2.01 -16.11,-4.23 -24.23,-6.59 -1.81,-0.52 -2.85,-2.42 -2.32,-4.22 0.53,-1.81 2.41,-2.84 4.22,-2.32 8.04,2.34 16.12,4.53 24,6.52 1.82,0.46 2.92,2.32 2.47,4.14 -0.39,1.54 -1.78,2.57 -3.3,2.57zm-1030.21 33.28c-0.43,0 -0.86,-0.08 -1.28,-0.25 -1.74,-0.71 -2.59,-2.69 -1.88,-4.44 3.08,-7.62 6.58,-15.36 10.39,-23.01 0.84,-1.68 2.88,-2.37 4.57,-1.53 1.68,0.84 2.37,2.89 1.53,4.57 -3.73,7.49 -7.16,15.07 -10.18,22.53 -0.54,1.32 -1.81,2.13 -3.16,2.13zm-14.51 47.75c-0.22,0 -0.45,-0.02 -0.68,-0.07 -1.85,-0.37 -3.04,-2.17 -2.67,-4.01 1.63,-8.09 3.72,-16.34 6.23,-24.54 0.55,-1.8 2.46,-2.81 4.26,-2.26 1.8,0.55 2.81,2.46 2.26,4.25 -2.44,7.98 -4.49,16.02 -6.07,23.88 -0.33,1.62 -1.75,2.74 -3.33,2.74zm161.03 0.89c-0.29,0 -0.59,-0.04 -0.88,-0.12 -7.9,-2.1 -15.92,-3.22 -23.85,-3.33 -1.88,-0.02 -3.39,-1.57 -3.37,-3.44 0.02,-1.87 1.54,-3.37 3.4,-3.37 0.02,0 0.03,0 0.04,0 8.49,0.11 17.08,1.3 25.52,3.56 1.82,0.49 2.9,2.35 2.41,4.17 -0.41,1.52 -1.79,2.53 -3.29,2.53zm-72.81 8.1c-1.26,0 -2.46,-0.7 -3.06,-1.9 -0.83,-1.69 -0.14,-3.73 1.55,-4.57 7.88,-3.88 15.98,-6.87 24.08,-8.86 1.83,-0.45 3.67,0.67 4.12,2.5 0.45,1.83 -0.67,3.67 -2.5,4.12 -7.62,1.87 -15.25,4.69 -22.69,8.35 -0.49,0.24 -1,0.36 -1.5,0.36zm116.44 15.35c-0.8,0 -1.61,-0.28 -2.26,-0.86 -6.01,-5.32 -12.68,-9.96 -19.82,-13.8 -1.66,-0.89 -2.28,-2.96 -1.39,-4.62 0.89,-1.66 2.96,-2.28 4.62,-1.39 7.6,4.09 14.7,9.03 21.1,14.7 1.41,1.25 1.54,3.4 0.29,4.82 -0.67,0.76 -1.61,1.14 -2.55,1.14zm-156.82 13.79c-0.9,0 -1.8,-0.35 -2.46,-1.05 -1.3,-1.36 -1.25,-3.51 0.11,-4.82 6.43,-6.14 12.96,-11.65 19.43,-16.4 1.52,-1.11 3.65,-0.79 4.76,0.73 1.11,1.52 0.79,3.65 -0.73,4.76 -6.23,4.57 -12.54,9.9 -18.75,15.84 -0.66,0.63 -1.5,0.94 -2.35,0.94zm-52.15 11.54c-1.83,0 -3.34,-1.45 -3.4,-3.28 -0.08,-2.24 -0.12,-4.52 -0.12,-6.74 0,-0.76 0,-1.54 0.02,-2.3 0.06,-5.39 0.34,-10.89 0.83,-16.34 0.16,-1.88 1.81,-3.26 3.69,-3.1 1.88,0.17 3.26,1.82 3.09,3.7 -0.47,5.28 -0.74,10.61 -0.8,15.83 -0.01,0.74 -0.01,1.48 -0.01,2.22 0,2.15 0.04,4.33 0.11,6.5 0.07,1.88 -1.4,3.46 -3.28,3.53 -0.04,0 -0.08,0 -0.13,0zm236.8 15.54c-1.41,0 -2.73,-0.89 -3.22,-2.3 -0.68,-1.95 -1.44,-3.91 -2.25,-5.8 -2.32,-5.4 -5.21,-10.65 -8.61,-15.61 -1.07,-1.56 -0.67,-3.67 0.88,-4.73 1.55,-1.07 3.67,-0.68 4.74,0.88 3.65,5.32 6.77,10.97 9.26,16.78 0.87,2.04 1.69,4.14 2.42,6.25 0.62,1.77 -0.32,3.72 -2.1,4.33 -0.37,0.13 -0.75,0.2 -1.12,0.2zm-217.58 10.48c-0.72,0 -1.44,-0.23 -2.06,-0.69 -1.5,-1.14 -1.79,-3.28 -0.65,-4.78 5.47,-7.2 10.66,-13.61 15.86,-19.6 1.23,-1.42 3.39,-1.57 4.81,-0.34 1.42,1.23 1.57,3.38 0.34,4.81 -5.1,5.88 -10.21,12.18 -15.59,19.26 -0.67,0.88 -1.68,1.34 -2.71,1.34zm221.65 38.83c-0.18,0 -0.36,-0.01 -0.54,-0.04 -1.86,-0.29 -3.13,-2.04 -2.84,-3.9 0.85,-5.37 1.28,-10.82 1.28,-16.19 0,-2.64 -0.11,-5.31 -0.31,-7.92 -0.15,-1.88 1.25,-3.51 3.13,-3.67 1.87,-0.15 3.52,1.25 3.67,3.13 0.22,2.79 0.33,5.64 0.33,8.46 0,5.73 -0.46,11.53 -1.36,17.26 -0.27,1.68 -1.72,2.87 -3.36,2.87zm-250.45 2.02c-0.65,0 -1.3,-0.19 -1.88,-0.58 -1.57,-1.04 -1.99,-3.16 -0.95,-4.72 4.58,-6.88 9.34,-13.85 14.16,-20.7 0.35,-0.5 0.81,-0.87 1.32,-1.11 -1.57,-5.83 -2.88,-11.76 -3.89,-17.74 -0.31,-1.86 0.94,-3.61 2.79,-3.93 1.85,-0.31 3.62,0.94 3.93,2.79 1.37,8.09 3.29,16.11 5.71,23.83 0.56,1.8 -0.44,3.71 -2.24,4.27 -1.53,0.49 -3.15,-0.17 -3.94,-1.5 -4.14,5.94 -8.23,11.93 -12.17,17.87 -0.66,0.98 -1.74,1.52 -2.84,1.52zm39.55 27.12c-1.08,0 -2.15,-0.51 -2.81,-1.48 -4.74,-6.88 -9.03,-14.3 -12.75,-22.07 -0.81,-1.7 -0.1,-3.73 1.6,-4.54 1.7,-0.81 3.73,-0.1 4.54,1.6 3.57,7.45 7.68,14.56 12.22,21.16 1.07,1.55 0.67,3.67 -0.87,4.74 -0.59,0.4 -1.27,0.6 -1.93,0.6zm-66.1 15.23c-0.59,0 -1.18,-0.15 -1.72,-0.47 -1.62,-0.96 -2.16,-3.04 -1.21,-4.67 4.2,-7.13 8.58,-14.34 13.03,-21.44 1,-1.6 3.1,-2.08 4.7,-1.08 1.59,1 2.08,3.1 1.08,4.7 -4.42,7.04 -8.77,14.2 -12.93,21.27 -0.63,1.09 -1.77,1.68 -2.94,1.68zm258.25 1.48c-0.69,0 -1.39,-0.21 -1.99,-0.65 -1.53,-1.1 -1.87,-3.23 -0.77,-4.76 4.66,-6.45 8.59,-13.56 11.66,-21.11 0.71,-1.74 2.7,-2.58 4.44,-1.87 1.74,0.71 2.58,2.7 1.87,4.43 -3.28,8.07 -7.47,15.65 -12.45,22.54 -0.67,0.92 -1.71,1.41 -2.76,1.41zm-157.3 18.72c-0.67,0 -1.35,-0.2 -1.94,-0.61 -1.28,-0.89 -2.57,-1.82 -3.82,-2.76 -5.5,-4.14 -10.79,-8.8 -15.69,-13.81 -1.32,-1.34 -1.3,-3.5 0.05,-4.82 1.34,-1.32 3.5,-1.29 4.82,0.05 4.67,4.76 9.69,9.19 14.92,13.12 1.18,0.89 2.39,1.76 3.6,2.61 1.54,1.07 1.93,3.2 0.86,4.75 -0.66,0.95 -1.72,1.46 -2.81,1.46zm119.05 12.54c-1.29,0 -2.53,-0.74 -3.1,-1.99 -0.78,-1.71 -0.02,-3.73 1.69,-4.51 7.19,-3.28 13.88,-7.38 19.91,-12.21l0.55 -0.45c1.46,-1.19 3.6,-0.97 4.8,0.49 1.19,1.46 0.97,3.6 -0.49,4.8l-0.59 0.47c-6.46,5.18 -13.64,9.58 -21.34,13.1 -0.46,0.2 -0.94,0.3 -1.41,0.3zm-73.39 7c-0.24,0 -0.47,-0.02 -0.71,-0.07 -8.38,-1.78 -16.6,-4.37 -24.43,-7.7 -1.73,-0.74 -2.53,-2.74 -1.8,-4.47 0.74,-1.73 2.74,-2.53 4.47,-1.8 7.42,3.16 15.22,5.62 23.17,7.31 1.84,0.39 3.02,2.2 2.62,4.04 -0.34,1.6 -1.76,2.7 -3.33,2.7zm26.55 2.81c-0.6,0 -1.2,0 -1.81,-0.01 -1.88,-0.03 -3.39,-1.57 -3.36,-3.46 0.03,-1.88 1.56,-3.38 3.46,-3.35 8.2,0.11 16.34,-0.61 24.14,-2.15 1.85,-0.36 3.64,0.84 4,2.69 0.36,1.84 -0.84,3.64 -2.68,4 -7.69,1.52 -15.68,2.29 -23.75,2.29zm-197.23 1.24c-0.52,0 -1.05,-0.11 -1.55,-0.37 -1.68,-0.86 -2.34,-2.91 -1.48,-4.58 3.76,-7.37 7.72,-14.83 11.76,-22.17 0.91,-1.65 2.98,-2.25 4.63,-1.34 1.65,0.9 2.25,2.98 1.34,4.63 -4.01,7.29 -7.93,14.68 -11.66,21.99 -0.6,1.18 -1.8,1.85 -3.04,1.85zm-21.27 45.23c-0.45,0 -0.9,-0.09 -1.34,-0.28 -1.73,-0.74 -2.53,-2.75 -1.79,-4.48 3.26,-7.59 6.73,-15.29 10.31,-22.89 0.8,-1.7 2.83,-2.43 4.53,-1.63 1.7,0.8 2.43,2.83 1.63,4.53 -3.55,7.54 -6.99,15.17 -10.22,22.68 -0.55,1.29 -1.81,2.06 -3.13,2.06zm-18.07 46.58c-0.37,0 -0.74,-0.06 -1.11,-0.18 -1.78,-0.62 -2.72,-2.56 -2.11,-4.34 2.7,-7.82 5.61,-15.74 8.65,-23.57 0.68,-1.76 2.66,-2.63 4.41,-1.95 1.75,0.68 2.62,2.66 1.94,4.41 -3.01,7.75 -5.89,15.61 -8.57,23.34 -0.49,1.41 -1.81,2.29 -3.22,2.29zm-14.42 47.84c-0.28,0 -0.56,-0.03 -0.85,-0.11 -1.82,-0.47 -2.92,-2.32 -2.45,-4.15 2.06,-8.01 4.33,-16.15 6.76,-24.2 0.54,-1.79 2.44,-2.82 4.25,-2.27 1.8,0.54 2.82,2.44 2.28,4.24 -2.4,7.96 -4.65,16.01 -6.68,23.93 -0.4,1.54 -1.78,2.56 -3.3,2.56zm-10.27 48.9c-0.18,0 -0.37,-0.02 -0.55,-0.05 -1.86,-0.3 -3.12,-2.05 -2.82,-3.91 1.33,-8.17 2.88,-16.49 4.62,-24.71 0.39,-1.85 2.2,-3.03 4.04,-2.63 1.85,0.38 3.02,2.19 2.63,4.04 -1.71,8.13 -3.24,16.34 -4.56,24.41 -0.27,1.67 -1.72,2.86 -3.36,2.86zm-5.63 49.63c-0.07,0 -0.14,0 -0.22,-0.01 -1.88,-0.11 -3.3,-1.74 -3.19,-3.61 0.52,-8.28 1.27,-16.71 2.22,-25.06 0.21,-1.87 1.9,-3.21 3.77,-3 1.87,0.21 3.21,1.9 3,3.77 -0.94,8.23 -1.67,16.54 -2.19,24.71 -0.11,1.81 -1.61,3.2 -3.4,3.2zm-0.54 49.96c-1.81,0 -3.32,-1.43 -3.4,-3.26 -0.28,-6.6 -0.43,-13.31 -0.43,-19.96 0,-1.74 0.01,-3.47 0.03,-5.21 0.02,-1.88 1.53,-3.41 3.44,-3.37 1.88,0.02 3.39,1.56 3.37,3.45 -0.02,1.71 -0.03,3.42 -0.03,5.13 0,6.55 0.14,13.17 0.42,19.67 0.08,1.88 -1.38,3.47 -3.26,3.55 -0.05,0 -0.1,0 -0.15,0zm5.19 49.69c-1.63,0 -3.08,-1.18 -3.36,-2.84 -1.4,-8.29 -2.55,-16.69 -3.42,-24.98 -0.2,-1.87 1.16,-3.55 3.04,-3.75 1.87,-0.19 3.55,1.16 3.74,3.04 0.85,8.15 1.98,16.41 3.36,24.55 0.31,1.85 -0.94,3.61 -2.79,3.93 -0.19,0.03 -0.38,0.05 -0.57,0.05zm11.37 48.65c-1.47,0 -2.82,-0.95 -3.26,-2.43 -2.4,-8.02 -4.58,-16.22 -6.49,-24.35 -0.43,-1.83 0.71,-3.66 2.54,-4.1 1.83,-0.43 3.67,0.71 4.1,2.55 1.87,8 4.02,16.05 6.38,23.94 0.54,1.8 -0.49,3.7 -2.29,4.24 -0.33,0.1 -0.65,0.14 -0.98,0.14zm17.21 46.9c-1.31,0 -2.56,-0.76 -3.12,-2.04 -3.35,-7.66 -6.51,-15.52 -9.39,-23.38 -0.65,-1.77 0.26,-3.73 2.03,-4.38 1.77,-0.65 3.72,0.26 4.37,2.02 2.84,7.74 5.95,15.47 9.24,23 0.75,1.73 -0.03,3.73 -1.76,4.49 -0.45,0.19 -0.91,0.28 -1.37,0.28zm22.82 44.44c-1.16,0 -2.29,-0.6 -2.93,-1.67 -4.26,-7.16 -8.37,-14.58 -12.2,-22.05 -0.86,-1.67 -0.2,-3.73 1.48,-4.59 1.68,-0.85 3.73,-0.2 4.59,1.48 3.77,7.35 7.8,14.64 12,21.67 0.96,1.62 0.43,3.71 -1.19,4.67 -0.54,0.33 -1.14,0.49 -1.74,0.49zm28.27 41.16c-1.01,0 -2.01,-0.44 -2.68,-1.3 -5.16,-6.53 -10.18,-13.36 -14.95,-20.3 -1.06,-1.56 -0.67,-3.67 0.88,-4.74 1.56,-1.07 3.67,-0.67 4.74,0.88 4.68,6.81 9.61,13.52 14.68,19.94 1.16,1.48 0.91,3.62 -0.56,4.78 -0.63,0.5 -1.37,0.74 -2.11,0.74zm33.58 36.94c-0.84,0 -1.69,-0.31 -2.35,-0.94 -6.02,-5.72 -11.94,-11.8 -17.62,-18.05 -1.27,-1.39 -1.16,-3.55 0.23,-4.81 1.39,-1.26 3.55,-1.16 4.81,0.23 5.57,6.13 11.38,12.09 17.27,17.71 1.36,1.29 1.42,3.45 0.12,4.81 -0.67,0.71 -1.57,1.05 -2.47,1.05zm38.66 31.58c-0.67,0 -1.35,-0.2 -1.94,-0.61 -6.84,-4.74 -13.62,-9.86 -20.16,-15.21 -1.46,-1.19 -1.67,-3.34 -0.48,-4.79 1.19,-1.45 3.34,-1.67 4.8,-0.48 6.4,5.23 13.04,10.23 19.73,14.88 1.54,1.07 1.93,3.19 0.86,4.74 -0.66,0.95 -1.72,1.47 -2.81,1.47zm43.24 24.92c-0.48,0 -0.97,-0.1 -1.44,-0.32 -7.56,-3.54 -15.09,-7.47 -22.41,-11.69 -1.63,-0.94 -2.19,-3.03 -1.25,-4.65 0.94,-1.63 3.02,-2.19 4.65,-1.25 7.14,4.12 14.5,7.96 21.88,11.42 1.71,0.8 2.44,2.82 1.65,4.53 -0.58,1.23 -1.81,1.96 -3.09,1.96zm46.9 17.05c-0.29,0 -0.58,-0.04 -0.88,-0.11 -8.1,-2.14 -16.22,-4.69 -24.11,-7.57 -1.77,-0.64 -2.68,-2.6 -2.04,-4.37 0.64,-1.76 2.6,-2.68 4.36,-2.03 7.71,2.8 15.63,5.28 23.53,7.38 1.82,0.48 2.9,2.35 2.42,4.16 -0.4,1.53 -1.78,2.53 -3.29,2.53z"/>
    <path class="fil10" d="M1747.04 1644.92c-0.16,-0.47 -0.68,-8.58 -0.68,-8.58 0,0 38.93,-52.16 46.95,-61.77 8.02,-9.59 44.85,-53.5 59.8,-67.98 14.95,-14.48 38.79,-46.4 63.07,-58.46 24.28,-12.05 42.9,-21.2 58.17,-23.36 15.27,-2.16 41.49,-4.55 52.03,0 10.54,4.54 15,5.38 14.32,13.36 -0.68,7.97 -12.27,22.42 -20.15,25.79 -7.88,3.36 -42.82,16.37 -53.12,19.21 -10.3,2.85 -8.56,9.88 -8.56,9.88 0,0 15.91,4.83 22.19,14.68 6.29,9.85 5.66,25.03 5.66,25.03 0,0 14.32,6.14 18.89,14.79 4.57,8.65 3.17,22.17 3.17,22.17 0,0 16.93,-0.27 22.3,14.99 5.38,15.25 6.08,25.27 4.79,34.11 -1.3,8.84 -8.69,24.27 -19.32,37.35 -10.62,13.07 -21.03,25.92 -28.73,28.92 -7.69,3 -12.23,0.73 -13.84,0 -1.6,-0.72 -9.91,-9.01 -9.91,-9.01 0,0 -17.74,25.16 -32.08,36.13 -14.35,10.97 -40.63,37.26 -58.41,40.88 -17.78,3.62 -23.04,7.4 -23.04,7.4l-103.49 -115.52z"/>
    <path class="fil8" d="M1149.34 1093.54c17.83,-25.48 20.77,-55.14 19.51,-90.86 48.31,-4.09 72.09,-30.01 69.17,-73.94 48.07,-24.58 51.05,-66.89 39.41,-84.13 -11.64,-17.25 -28.92,-31.73 -61.35,-21.33 -22.99,-48.16 -62.26,-55.87 -94.05,-29.44 -30.93,-5.19 -42.97,-6.29 -42.97,-6.29 0,0 -29.81,-23.61 -69.15,-22.59 -39.34,1.03 -59.8,24.32 -71.45,56.42 -45.64,-19.51 -83.81,3.54 -98.24,28.21 -14.44,24.67 -19.16,56.14 -5.94,77.55 -44.7,42.18 -51.45,55.71 -45.71,89.7 5.74,33.99 23.11,49.58 57.55,55.96 -12.78,46.66 -21.51,60.36 0.64,85.77 22.15,25.41 43.72,28.44 67.56,26.13 19.11,47.11 35.05,53.94 57.82,56.64 22.77,2.69 68.31,-7.32 79.33,-33.13 35.25,9.45 74.75,-11.02 70.58,-79.63 29.19,-35.88 27.31,-35.04 27.31,-35.04z"/>
    <path class="fil10" d="M1279.82 844.61c-11.64,-17.25 -28.91,-31.73 -61.35,-21.33 -23,-48.16 -62.27,-55.87 -94.05,-29.44 -30.93,-5.19 -42.98,-6.29 -42.98,-6.29 0,0 -29.81,-23.61 -69.15,-22.59 -28.52,0.74 -47.11,13.2 -59.62,32.22 11.61,-10.46 28.88,-17.84 49.09,-18.37 39.35,-1.02 74.87,28.87 74.87,28.87 0,0 4.26,-4.22 35.2,0.98 31.79,-26.44 71.05,-18.72 94.05,29.43 32.43,-10.39 49.72,4.09 61.35,21.33 7.6,11.27 8.96,33.23 -4.42,53.97 26.26,-24.16 26.47,-54.77 17,-68.79z"/>
    <path class="fil10" d="M928.25 836.21c2.16,-5.94 4.62,-11.58 7.44,-16.84 -42.55,-15.44 -77.87,5.69 -92.29,28.92 18.85,-16.83 49.62,-27.14 84.85,-12.08z"/>
    <path class="fil10" d="M1124.58 1139.91c1.16,21.72 1.1,40.92 -18.23,54.29 -19.33,13.38 -35.07,19.05 -54.27,12.75 -37.46,39.03 -56.97,35.23 -56.97,35.23 0,0 -6.29,54.64 -11.64,66.12 -5.36,11.48 -17.63,41.23 -17.63,41.23 0,0 50.68,17 86.24,21.09 35.57,4.09 66.4,-4.72 84.36,-5.98 17.95,-1.26 39.92,-9.76 39.92,-9.76 0,0 -3.42,-43.75 -1.84,-56.02 1.57,-12.28 5.94,-36.32 5.94,-36.32 0,0 47.65,-14.44 60.2,-19.43 12.55,-5 39.4,-31.96 45.7,-56.89 6.32,-24.94 13.61,-54.92 9.11,-70.29 22.27,-9.65 29.64,-14.58 25.72,-24.81 -3.92,-10.24 -8.61,-17.29 -23.98,-28 -15.37,-10.71 -16.31,-39.98 -16.31,-39.98 0,0 -19.54,-89.95 -30.7,-100.68 -3.29,1.92 -10.53,7.51 -10.53,7.51 0,0 -5.72,35.32 -13.03,46.82 -7.31,11.49 -26.31,22.48 -54.96,25.92 -6.61,49.49 -8.18,86.05 -38.8,108.72 -30.61,22.66 -8.31,28.48 -8.31,28.48z"/>
    <path class="fil16" d="M1010.97 1366.3l-53.19 -13.99c0,0 -61.5,27.75 -95.81,54.19 -34.31,26.44 -97.89,83.09 -112.68,122.75 -5.05,13.54 -80.62,125.77 -137.23,281.79 -12.81,35.31 -66.02,201.62 -23.12,240.13 41.62,37.35 53.25,43.83 133.51,18 87.56,-28.18 22.26,-302.75 22.26,-302.75 -14.26,103.27 -44.52,501.27 -44.52,501.27l299.67 0 258.48 2.08 54.02 -288.31c0,0 50.36,81.29 103.55,94.5 53.19,13.22 125.67,-22.21 145.12,-39.39 19.46,-17.18 303.41,-257.33 303.41,-257.33l-129.86 -145.84 -223.33 173.07c0,0 -75.99,-186.63 -101.01,-227.21 -25.03,-40.58 -62.52,-111.11 -94.59,-138.13 -32.07,-27.04 -104.42,-79.02 -139.31,-82.94 -48.19,13.14 -62.59,15.97 -87.38,15.97 -24.79,0 -78.01,-7.86 -78.01,-7.86z"/>
    <path class="fil10" d="M1295.26 1453.82c37.84,38.08 69.57,97.56 94.6,138.14 25.02,40.58 139.06,270.3 139.06,270.3l-20.19 -56.94c-13.35,-32.58 -79.28,-196 -101.59,-232.19 -25.02,-40.57 -57.41,-103.03 -89.48,-130.06 -32.07,-27.03 -104.97,-80.76 -139.87,-84.7 -14.94,4.07 -19.32,5.17 -29.08,7.49 37.36,8.19 118.3,59.53 146.55,87.95z"/>
    <path class="fil10" d="M1290.45 1950.34l-59.82 319.22 26.39 0.21 53.27 -291.11c-12.96,-16.34 -19.84,-28.33 -19.84,-28.33z"/>
    <path class="fil8" d="M1257.02 1037.04c1.28,9.35 -2.13,17.55 -7.61,18.3 -5.49,0.76 -10.98,-6.22 -12.26,-15.57 -1.28,-9.35 2.13,-17.55 7.61,-18.3 5.49,-0.75 10.98,6.23 12.26,15.58z"/>
    <path class="fil8" d="M1204.65 1005.46c-0.76,0 -1.52,-0.25 -2.16,-0.77 -1.45,-1.19 -1.67,-3.33 -0.48,-4.79 17.34,-21.2 46.57,-31.68 76.3,-27.34 1.86,0.27 3.16,2 2.89,3.86 -0.27,1.86 -2.01,3.16 -3.87,2.89 -27.37,-4 -54.22,5.55 -70.04,24.9 -0.67,0.83 -1.66,1.25 -2.64,1.25z"/>
    <path class="fil8" d="M1165.48 1266.95c-12.09,0 -29.22,-1.7 -54.31,-7.82 -1.83,-0.45 -2.95,-2.3 -2.5,-4.12 0.44,-1.83 2.28,-2.95 4.11,-2.5 41.62,10.15 60.88,7.53 67.21,6.66 78.73,-10.75 114.34,-56.24 112.06,-143.14l-0.08 -3.17 3.16 -0.32c0.13,-0.02 14.57,-1.57 21.16,-9.75 2.59,-3.2 3.59,-6.94 3.08,-11.44 -0.6,-5.41 -5.5,-9.28 -11.68,-14.18 -3.14,-2.49 -6.39,-5.06 -9.52,-8.19 -8.92,-8.89 -16.18,-17.64 -21.7,-42.27 -1.34,-5.96 -2.65,-12.31 -4.04,-19.05 -5.45,-26.38 -11.62,-56.27 -23.53,-85.28 -0.71,-1.74 0.12,-3.73 1.86,-4.45 1.74,-0.71 3.73,0.12 4.45,1.86 12.14,29.59 18.66,61.14 23.89,86.48 1.39,6.71 2.7,13.04 4.02,18.94 5.12,22.88 11.46,30.57 19.85,38.93 2.86,2.86 5.95,5.3 8.94,7.67 6.84,5.41 13.3,10.53 14.23,18.76 0.71,6.32 -0.82,11.87 -4.57,16.5 -6.3,7.8 -17.27,10.75 -22.64,11.76 0.7,42.17 -7.39,74.33 -24.7,98.27 -19.46,26.91 -49.99,42.87 -93.33,48.8 -4.01,0.54 -9.01,1.03 -15.44,1.03z"/>
    <path class="fil8" d="M960.82 1352.94c-0.92,0 -1.84,-0.36 -2.52,-1.1 -1.27,-1.39 -1.18,-3.55 0.21,-4.81 15.36,-14.11 27.72,-56.32 30.76,-105.05 0.12,-1.88 1.74,-3.3 3.61,-3.19 1.88,0.11 3.31,1.74 3.19,3.61 -2.42,38.85 -12.51,90.87 -32.95,109.65 -0.65,0.6 -1.48,0.89 -2.3,0.89z"/>
    <path class="fil8" d="M1180.01 1359.81c-1.27,0 -2.48,-0.71 -3.07,-1.92 -7.88,-16.17 -9.62,-46.66 -5.28,-93.19 0.17,-1.88 1.84,-3.26 3.7,-3.08 1.88,0.17 3.26,1.83 3.08,3.71 -1.55,16.64 -6.26,67.26 4.63,89.57 0.82,1.7 0.12,3.73 -1.57,4.56 -0.49,0.24 -1,0.35 -1.49,0.35z"/>
    <path class="fil8" d="M1454.66 2083.77c-27.55,0 -53.38,-8.94 -74.84,-25.91 -68.3,-54.02 -135.48,-160.22 -199.68,-315.66 -0.72,-1.74 0.11,-3.73 1.85,-4.45 1.74,-0.72 3.73,0.11 4.45,1.85 63.75,154.36 130.23,259.64 197.61,312.92 40.9,32.34 96.9,32.81 146.18,1.23 90.01,-57.7 303.93,-251.53 329.46,-274.75l-125.48 -140.92 -219.85 173.44c-1.48,1.16 -3.62,0.91 -4.79,-0.57 -1.16,-1.48 -0.92,-3.62 0.57,-4.79l224.89 -177.41 134.23 150.76 -2.48 2.26c-2.36,2.16 -237.05,216.31 -332.85,277.72 -24.08,15.43 -50.74,23.83 -77.09,24.27 -0.72,0.02 -1.45,0.02 -2.16,0.02z"/>
    <path class="fil8" d="M1533.04 1863.6c-1.36,0 -2.64,-0.81 -3.17,-2.15 -0.73,-1.83 -73.19,-184.33 -125.77,-286.76 -70.38,-137.1 -128.18,-169.43 -223.93,-213.97 -39.01,10.28 -75.53,15.49 -108.59,15.49 -0.04,0 -0.07,0 -0.11,0 -40.87,-0.01 -77.8,-7.96 -109.76,-23.62 -1.7,-0.83 -2.39,-2.87 -1.57,-4.56 0.83,-1.69 2.87,-2.39 4.57,-1.56 56.61,27.74 128.91,30.21 214.9,7.35l1.19 -0.32 1.12 0.52c97.77,45.43 156.57,77.94 228.24,217.56 52.73,102.72 125.32,285.52 126.05,287.36 0.69,1.75 -0.17,3.73 -1.92,4.42 -0.41,0.16 -0.84,0.24 -1.25,0.24z"/>
    <path class="fil8" d="M700.2 2271.11c-0.09,0 -0.18,0 -0.28,-0.01 -1.88,-0.15 -3.28,-1.79 -3.12,-3.67 0.3,-3.71 30.3,-372.41 44.53,-501.37 0.2,-1.87 1.89,-3.22 3.76,-3.02 1.87,0.21 3.22,1.9 3.01,3.76 -14.23,128.86 -44.21,497.46 -44.51,501.17 -0.14,1.78 -1.63,3.13 -3.39,3.13z"/>
    <path class="fil8" d="M1258.36 2271.11c-0.2,0 -0.41,-0.02 -0.62,-0.06 -1.85,-0.34 -3.08,-2.12 -2.74,-3.96l51.94 -284.47c0.33,-1.85 2.11,-3.07 3.96,-2.74 1.85,0.34 3.08,2.11 2.74,3.96l-51.94 284.46c-0.3,1.64 -1.73,2.8 -3.35,2.8z"/>
    <path class="fil8" d="M1236.73 1182.87c-15.09,0 -30.07,-4.8 -41.56,-13.86 -1.48,-1.17 -1.74,-3.31 -0.57,-4.79 1.16,-1.48 3.31,-1.73 4.78,-0.57 15.41,12.15 37.86,15.75 57.21,9.17 1.79,-0.6 3.72,0.35 4.33,2.13 0.61,1.78 -0.35,3.72 -2.13,4.33 -7.1,2.42 -14.6,3.59 -22.06,3.59z"/>
    <path class="fil8" d="M660.16 2088.61c-15.71,0 -29.92,-3.05 -42.53,-9.14 -26.66,-12.88 -39.58,-36.15 -45.72,-53.41 -10.63,-29.88 -5.09,-79.03 16.95,-150.28 16.61,-53.74 42.87,-120.39 80.26,-203.76 37.37,-83.31 71.58,-149.31 117.09,-200.64 40.91,-46.14 91.74,-82.33 175.45,-124.9 1.67,-0.85 3.73,-0.18 4.58,1.49 0.85,1.68 0.18,3.73 -1.49,4.59 -154.37,78.51 -205.76,135.73 -289.41,322.25 -37.27,83.11 -63.43,149.49 -79.96,202.97 -21.28,68.83 -27.02,117.94 -17.04,145.98 9.05,25.45 40.39,81.03 135.66,47.72 1.77,-0.62 3.72,0.32 4.34,2.09 0.62,1.78 -0.32,3.72 -2.09,4.34 -20.36,7.12 -39.1,10.68 -56.09,10.68z"/>
    <path class="fil8" d="M984.6 1245.63c-5.41,0 -10.86,-0.47 -16.26,-1.45 -30.71,-5.54 -51.28,-25.79 -56.87,-55.79 -22.71,1.64 -51.68,-6.38 -68.01,-28.53 -10.9,-14.78 -19.89,-41.25 -2.3,-84.13 -12.11,-1.64 -23.22,-6.86 -32.39,-15.24 -9.77,-8.94 -16.92,-21.03 -20.69,-34.97 -4.69,-17.34 -3.67,-36.47 2.85,-53.87 7,-18.67 20.14,-35.07 38.08,-47.59 -12.23,-27.36 -6.89,-59.81 13.97,-83.48 10.92,-12.39 25.11,-21.17 41.04,-25.41 16.38,-4.35 34.36,-3.69 52.2,1.88 4.9,-15.09 12.7,-27.4 23.23,-36.63 10.01,-8.76 22.21,-14.56 36.26,-17.23 35.53,-6.77 72.33,8.25 86.05,26.05 1.15,1.49 0.87,3.63 -0.62,4.78 -1.49,1.14 -3.63,0.87 -4.78,-0.62 -12.54,-16.27 -47.44,-29.61 -79.38,-23.52 -19.38,3.69 -44.68,15.78 -55.24,52.44l-1 3.45 -3.4 -1.18c-34.12,-11.86 -67.48,-4.2 -89.25,20.5 -19.71,22.36 -24.3,53.22 -11.7,78.64l1.34 2.7 -2.51 1.66c-41.57,27.53 -47.83,68.74 -40.55,95.66 7.23,26.74 27.02,44.22 51.65,45.63l4.9 0.28 -1.98 4.5c-14.81,33.59 -14.91,61.82 -0.29,81.65 15.51,21.02 43.81,27.96 64.97,25.5l3.29 -0.38 0.48 3.27c4.24,28.68 23.15,48.09 51.87,53.27 31.57,5.69 66.24,-7.89 78.93,-30.91l1.15 -2.1 2.37 0.38c19.98,3.17 37.86,-0.96 50.36,-11.62 12.57,-10.73 19.21,-27.64 19.21,-48.91 0,-1.88 1.53,-3.41 3.4,-3.41 1.89,0 3.41,1.52 3.41,3.41 0,23.32 -7.47,42.02 -21.61,54.1 -13.54,11.56 -32.48,16.32 -53.53,13.5 -12.64,20.66 -40.08,33.71 -68.64,33.71z"/>
    <path class="fil8" d="M1125.88 1096.95c-1.67,0 -3.13,-1.23 -3.37,-2.92 -0.26,-1.86 1.03,-3.59 2.9,-3.85 11.69,-1.67 22.81,-10.76 30.51,-24.93 6.32,-11.64 13.11,-31.87 9.55,-62.16l-0.46 -3.91 3.94 0.11c20.71,0.56 36.89,-4.81 48.1,-15.97 12.01,-11.96 18.08,-30.8 17.57,-54.49l-0.05 -2.3 2.12 -0.9c37.39,-16.04 48.88,-48.46 40.9,-72.22 -5.99,-17.83 -25.48,-35.55 -60.68,-26.81l-3.1 0.77 -0.96 -3.06c-6.49,-20.53 -20.54,-34.52 -39.58,-39.38 -17.74,-4.54 -36.92,-0.06 -48.87,11.39 -1.36,1.3 -3.51,1.26 -4.82,-0.1 -1.3,-1.36 -1.26,-3.52 0.11,-4.82 13.61,-13.04 35.31,-18.18 55.27,-13.07 20.45,5.23 35.76,19.72 43.38,40.96 15.62,-3.31 30,-1.94 41.73,4.01 11.35,5.75 19.86,15.67 23.99,27.95 8.82,26.26 -3.07,61.76 -42.59,79.73 0.13,24.54 -6.63,44.27 -19.6,57.19 -11.85,11.79 -28.4,17.84 -49.22,17.99 2.78,29.95 -4.22,50.36 -10.73,62.37 -8.74,16.09 -21.69,26.45 -35.53,28.43 -0.17,0.02 -0.33,0.03 -0.49,0.03z"/>
    <path class="fil10" d="M1174.96 1063.55c-7.53,-9.69 -35.77,-15.88 -42.1,-15.44 -24.74,1.74 -43.4,23.2 -41.66,47.94 1.74,24.74 23.2,43.39 47.94,41.67 6.88,-0.49 13.29,-2.49 18.93,-5.67l16.9 -68.49z"/>
    <path class="fil10" d="M1138.57 1069.1c-15.85,-1.86 -26.47,9.75 -25.26,24.44l25.26 -24.44z"/>
    <path class="fil8" d="M1135.96 1141.23c-25.12,0 -46.39,-19.51 -48.16,-44.94 -0.9,-12.88 3.26,-25.33 11.73,-35.07 8.47,-9.75 20.22,-15.61 33.1,-16.51 6.66,-0.46 13.2,0.42 19.45,2.63 1.77,0.62 2.7,2.57 2.07,4.35 -0.62,1.77 -2.57,2.7 -4.34,2.07 -5.36,-1.89 -10.98,-2.65 -16.7,-2.25 -11.06,0.77 -21.15,5.81 -28.43,14.18 -7.27,8.37 -10.84,19.06 -10.07,30.12 1.6,22.82 21.48,40.1 44.29,38.5 6.23,-0.44 12.1,-2.2 17.49,-5.24 1.64,-0.92 3.72,-0.35 4.64,1.3 0.93,1.63 0.35,3.72 -1.29,4.64 -6.28,3.54 -13.12,5.59 -20.36,6.1 -1.14,0.07 -2.28,0.11 -3.41,0.11z"/>
    <path class="fil8" d="M1113.3 1096.95c-1.76,0 -3.24,-1.35 -3.39,-3.13 -0.68,-8.34 2.07,-16.15 7.56,-21.45 5.47,-5.28 13.11,-7.65 21.5,-6.67 1.87,0.22 3.21,1.91 2.99,3.78 -0.22,1.87 -1.9,3.21 -3.78,2.99 -6.33,-0.74 -12,0.96 -15.97,4.79 -4.02,3.87 -6.02,9.7 -5.5,16 0.16,1.87 -1.24,3.52 -3.11,3.67 -0.1,0.01 -0.19,0.01 -0.29,0.01z"/>
    <path class="fil8" d="M1742.37 1645.54c-0.66,0 -1.33,-0.2 -1.92,-0.6 -1.55,-1.06 -1.95,-3.19 -0.89,-4.74 52.14,-76.17 94.22,-121.28 131.92,-158.69 42.8,-42.46 70.29,-54.37 100.78,-59.83 15.78,-2.82 53.96,-8.05 67.76,4.39 3.72,3.35 5.49,7.84 5.11,12.96 -1.67,22.79 -28.44,31 -47.98,37 -3.55,1.1 -6.91,2.13 -9.86,3.16 -25.61,8.97 -50.94,20.16 -62.75,41.12 -0.92,1.64 -3,2.21 -4.64,1.3 -1.64,-0.92 -2.22,-3.01 -1.29,-4.64 12.92,-22.93 39.56,-34.79 66.43,-44.2 3.08,-1.08 6.5,-2.13 10.12,-3.24 18.64,-5.72 41.85,-12.85 43.18,-30.99 0.23,-3.07 -0.69,-5.43 -2.88,-7.4 -7.9,-7.12 -31.65,-8.16 -61.98,-2.73 -29.2,5.23 -55.64,16.74 -97.19,57.96 -37.46,37.17 -79.27,82.01 -131.1,157.71 -0.66,0.96 -1.72,1.48 -2.82,1.48z"/>
    <path class="fil8" d="M1850.52 1766.94c-1.57,0 -2.98,-1.09 -3.33,-2.68 -0.4,-1.84 0.76,-3.65 2.6,-4.06 23.25,-5.1 53.49,-24.61 82.96,-53.53 27.76,-27.25 50.34,-58.28 60.41,-83.02 0.71,-1.75 2.7,-2.58 4.45,-1.88 1.74,0.71 2.57,2.7 1.87,4.44 -21.29,52.33 -95.35,129.04 -148.23,140.63 -0.24,0.06 -0.49,0.08 -0.73,0.08z"/>
    <path class="fil8" d="M1979.76 1690.75c-0.86,0 -1.69,-0.07 -2.5,-0.21 -5.58,-0.99 -9.88,-5.21 -12.77,-12.56 -0.69,-1.75 0.17,-3.73 1.92,-4.42 1.75,-0.69 3.73,0.17 4.42,1.92 1.97,4.99 4.53,7.8 7.61,8.34 5.47,0.97 14.01,-4.58 23.43,-15.2 22.89,-25.81 33.71,-47.71 31.29,-63.32 -2.48,-16.01 -6.76,-25.27 -13.06,-28.31 -5.72,-2.76 -14.04,-0.94 -25.43,5.55 -20.99,11.96 -33.37,23.41 -33.5,23.52 -1.38,1.28 -3.53,1.2 -4.81,-0.18 -1.28,-1.38 -1.21,-3.53 0.17,-4.81 0.52,-0.49 13.04,-12.07 34.77,-24.45 13.48,-7.69 23.87,-9.57 31.76,-5.76 8.6,4.14 13.94,14.76 16.83,33.41 2.78,17.93 -8.3,41.1 -32.92,68.88 -10.37,11.69 -19.51,17.6 -27.22,17.6z"/>
    <path class="fil8" d="M2006.63 1575.88c-0.85,0 -1.71,-0.32 -2.38,-0.96 -1.35,-1.32 -1.38,-3.47 -0.07,-4.82 2.77,-2.85 4.11,-7.14 3.65,-11.76 -0.65,-6.63 -4.8,-13.03 -11.36,-17.56 -8.49,-5.86 -24.65,0.11 -46.73,17.26 -1.49,1.16 -3.64,0.89 -4.78,-0.6 -1.15,-1.48 -0.89,-3.63 0.6,-4.79 25.37,-19.71 43.29,-25.42 54.78,-17.48 8.22,5.68 13.43,13.88 14.28,22.51 0.64,6.62 -1.38,12.89 -5.55,17.18 -0.67,0.68 -1.56,1.03 -2.44,1.03z"/>
    <path class="fil8" d="M1978.92 1539.37c-1.31,0 -2.56,-0.77 -3.12,-2.04 -0.76,-1.73 0.03,-3.74 1.75,-4.49 3.56,-1.56 5.71,-3.83 6.58,-6.96 1.39,-5 -0.67,-12.09 -5.53,-18.96 -6.24,-8.84 -13.68,-11.66 -26.53,-10.09 -1.88,0.22 -3.58,-1.1 -3.8,-2.97 -0.23,-1.87 1.1,-3.57 2.97,-3.79 15.36,-1.89 25.2,1.97 32.93,12.92 6.11,8.66 8.49,17.67 6.53,24.73 -1.41,5.07 -5.01,9 -10.41,11.37 -0.45,0.2 -0.91,0.29 -1.37,0.29z"/>
   </g>
   <path class="fil17" d="M2327.05 1705.35c0.15,3 0.9,5.47 2.1,7.42 2.47,3.52 6.66,5.32 12.81,5.32 2.7,0 5.24,-0.38 7.41,-1.2 4.34,-1.5 6.52,-4.2 6.52,-8.09 0,-2.92 -0.9,-5.01 -2.7,-6.29 -1.87,-1.2 -4.79,-2.25 -8.69,-3.15l-7.34 -1.65c-4.72,-1.05 -8.09,-2.24 -10.04,-3.52 -3.44,-2.25 -5.17,-5.62 -5.17,-10.11 0,-4.8 1.72,-8.76 5.02,-11.84 3.37,-3.15 8.09,-4.64 14.23,-4.64 5.62,0 10.41,1.35 14.31,4.04 3.97,2.7 5.92,7.04 5.92,13.03l-6.82 0c-0.37,-2.85 -1.12,-5.09 -2.32,-6.59 -2.25,-2.84 -5.99,-4.19 -11.31,-4.19 -4.34,0 -7.41,0.9 -9.28,2.7 -1.87,1.8 -2.77,3.89 -2.77,6.29 0,2.62 1.05,4.57 3.22,5.77 1.5,0.75 4.72,1.72 9.81,2.92l7.49 1.72c3.67,0.82 6.44,1.95 8.47,3.37 3.37,2.55 5.09,6.22 5.09,10.93 0,5.99 -2.17,10.26 -6.52,12.81 -4.27,2.55 -9.28,3.82 -15.05,3.82 -6.67,0 -11.91,-1.72 -15.66,-5.09 -3.82,-3.45 -5.69,-8.02 -5.61,-13.78l6.89 0z"/>
   <path id="_1" class="fil17" d="M2377.9 1683.48l0 25.99c0,2.03 0.37,3.67 0.97,4.94 1.2,2.32 3.37,3.52 6.52,3.52 4.65,0 7.72,-2.1 9.36,-6.22 0.9,-2.17 1.42,-5.17 1.42,-8.99l0 -19.25 6.52 0 0 39.17 -6.22 0 0.07 -5.77c-0.82,1.5 -1.87,2.7 -3.15,3.75 -2.55,2.02 -5.54,3.07 -9.14,3.07 -5.62,0 -9.44,-1.87 -11.46,-5.62 -1.05,-1.95 -1.57,-4.64 -1.57,-7.94l0 -26.66 6.67 0z"/>
   <path id="_2" class="fil17" d="M2412.52 1668.72l6.37 0 0 19.55c1.42,-1.95 3.15,-3.37 5.17,-4.34 2.02,-0.98 4.19,-1.5 6.52,-1.5 4.87,0 8.84,1.72 11.83,5.09 3.07,3.29 4.57,8.24 4.57,14.83 0,6.14 -1.5,11.31 -4.49,15.43 -3,4.05 -7.19,6.14 -12.43,6.14 -3,0 -5.54,-0.75 -7.57,-2.17 -1.2,-0.9 -2.55,-2.25 -3.89,-4.12l0 5.02 -6.06 0 0 -53.92zm17.07 49.35c3.6,0 6.22,-1.42 8.02,-4.27 1.72,-2.77 2.62,-6.52 2.62,-11.16 0,-4.12 -0.9,-7.57 -2.62,-10.26 -1.8,-2.7 -4.42,-4.05 -7.79,-4.05 -3,0 -5.69,1.12 -7.94,3.3 -2.24,2.24 -3.37,5.92 -3.37,11.01 0,3.67 0.45,6.66 1.42,8.99 1.72,4.27 4.94,6.44 9.66,6.44z"/>
   <path id="_3" class="fil17" d="M2454.62 1683.48l6.52 0 0 5.54c1.57,-1.87 2.99,-3.29 4.27,-4.19 2.17,-1.5 4.65,-2.25 7.42,-2.25 3.07,0 5.62,0.83 7.49,2.32 1.12,0.9 2.1,2.17 2.92,3.89 1.5,-2.1 3.22,-3.67 5.17,-4.64 2.02,-1.05 4.2,-1.57 6.67,-1.57 5.24,0 8.83,1.95 10.79,5.77 0.97,2.03 1.5,4.8 1.5,8.24l0 26.06 -6.82 0 0 -27.18c0,-2.62 -0.67,-4.42 -1.95,-5.39 -1.35,-0.97 -2.92,-1.5 -4.79,-1.5 -2.62,0 -4.8,0.9 -6.67,2.62 -1.87,1.72 -2.84,4.64 -2.84,8.69l0 22.77 -6.67 0 0 -25.54c0,-2.7 -0.3,-4.64 -0.97,-5.84 -0.98,-1.8 -2.85,-2.77 -5.54,-2.77 -2.55,0 -4.79,0.97 -6.81,2.92 -2.03,1.95 -3.07,5.39 -3.07,10.49l0 20.74 -6.59 0 0 -39.17z"/>
   <path id="_4" class="fil17" d="M2517 1683.63l6.74 0 0 39.02 -6.74 0 0 -39.02zm0 -14.68l6.74 0 0 7.42 -6.74 0 0 -7.42z"/>
   <path id="_5" class="fil17" d="M2534.99 1672.54l6.66 0 0 10.93 6.22 0 0 5.39 -6.22 0 0 25.54c0,1.35 0.45,2.32 1.35,2.77 0.52,0.23 1.42,0.38 2.62,0.38 0.3,0 0.6,0 0.98,0 0.37,0 0.82,-0.07 1.27,-0.07l0 5.17c-0.75,0.22 -1.5,0.38 -2.32,0.45 -0.82,0.15 -1.72,0.15 -2.62,0.15 -3.15,0 -5.17,-0.75 -6.29,-2.32 -1.12,-1.57 -1.65,-3.59 -1.65,-6.14l0 -25.92 -5.32 0 0 -5.39 5.32 0 0 -10.93z"/>
  </g>
 </g>
</svg>
