<?xml version="1.0" encoding="UTF-8"?>
<!DOCTYPE svg PUBLIC "-//W3C//DTD SVG 1.1//EN" "http://www.w3.org/Graphics/SVG/1.1/DTD/svg11.dtd">
<!-- Creator: CorelDRAW -->
<svg xmlns="http://www.w3.org/2000/svg" xml:space="preserve" width="4.22667in" height="4.22667in" version="1.1" style="shape-rendering:geometricPrecision; text-rendering:geometricPrecision; image-rendering:optimizeQuality; fill-rule:evenodd; clip-rule:evenodd"
viewBox="0 0 73.81 73.81"
 xmlns:xlink="http://www.w3.org/1999/xlink"
 xmlns:xodm="http://www.corel.com/coreldraw/odm/2003">
 <defs>
  <style type="text/css">
   <![CDATA[
    .str0 {stroke:#212528;stroke-width:0.97;stroke-miterlimit:2.61313}
    .fil0 {fill:none}
    .fil1 {fill:#239e54}
    .fil2 {fill:url(#id0)}
   ]]>
  </style>
  <linearGradient id="id0" gradientUnits="userSpaceOnUse" x1="36.56" y1="6.84" x2="18.38" y2="57.51">
   <stop offset="0" style="stop-opacity:1; stop-color:#BCAAEB"/>
   <stop offset="1" style="stop-opacity:1; stop-color:#200D32"/>
  </linearGradient>
 </defs>
 <g id="Layer_x0020_1">
  <metadata id="CorelCorpID_0Corel-Layer"/>
  <g id="_105553528731648">
   <rect class="fil0" x="0" y="0" width="73.81" height="73.81"/>
   <g>
    <path class="fil1" d="M71.73 72.11c-5.29,0.15 -44.44,-0.44 -45.64,0.31 1.02,0.8 41.4,0.44 46.32,0.33 0.1,-4.92 0.45,-51.18 -0.34,-52.14 -1.04,1.4 -0.23,45.66 -0.34,51.5z"/>
   </g>
   <g>
    <path class="fil0 str0" d="M24.29 8.31c-0.04,0.02 -2.11,0.61 -3.02,1.02 -1.03,0.46 -1.77,0.86 -2.7,1.35 -0.23,-0.15 -0.31,-0.26 -0.52,-0.47 -0.8,-0.81 -1.43,-1.11 -2.54,-1.11 -1.57,0 -2.81,1.67 -3.67,2.54 -1.21,1.21 -2.54,2.03 -2.54,3.97 0,1.49 1.02,1.93 1.58,2.76 -0.49,0.92 -0.9,1.66 -1.34,2.7 -0.21,0.51 -0.38,0.91 -0.55,1.42l-0.48 1.59c-1.3,0 -2.04,0.05 -2.84,0.62 -0.62,0.45 -1.21,1.21 -1.21,2.24l0 5.13c0,1.03 0.58,1.8 1.21,2.24 0.79,0.56 1.54,0.62 2.84,0.62 0.12,0.25 0.2,0.72 0.28,1 0.11,0.36 0.21,0.67 0.35,1.03 0.86,2.24 0.83,1.91 2.25,0.75 1.49,-1.21 0.69,-0.87 0.11,-2.62 -0.44,-1.31 -0.43,-2.45 0.03,-3.75 0.34,-0.99 1.03,-2.06 1.85,-2.68 0.23,-0.17 0.47,-0.33 0.72,-0.47 1.81,-0.99 0.48,-0.6 1.83,-3.98 0.45,-1.12 0.93,-2.13 1.59,-3.04 2.41,-3.33 5.76,-5.65 9.94,-6.24l2.15 -0.22c0.49,-0.01 0.61,0.07 0.99,0.1 1.19,0.09 1.94,0.15 3.06,0.49 2.06,0.61 4.45,1.77 5.98,3.29 2.14,2.12 3.59,4.18 4.34,7.2 0.09,0.37 0.16,0.58 0.22,0.97 0.06,0.37 0.05,0.67 0.26,0.92 0.18,0.22 0.39,0.3 0.66,0.43 2.64,1.31 3.97,4.81 2.43,7.83 -0.52,1.03 -0.64,0.94 0.69,1.97 0.98,0.76 1.25,1.56 2.26,-1.59 0.13,-0.39 0.25,-1.05 0.41,-1.37 1.24,0 2.02,-0.05 2.78,-0.57 0.57,-0.39 1.27,-1.26 1.27,-2.19l0 -5.33c0,-0.9 -0.66,-1.75 -1.21,-2.15 -0.78,-0.56 -1.55,-0.62 -2.84,-0.62 -0.11,-0.23 -0.14,-0.48 -0.22,-0.77 -0.46,-1.72 -1.35,-3.44 -2.15,-4.95 0.15,-0.23 0.26,-0.31 0.47,-0.52 0.81,-0.8 1.11,-1.43 1.11,-2.54 0,-1.57 -1.67,-2.81 -2.54,-3.67 -1.21,-1.21 -2.03,-2.54 -3.97,-2.54 -1.49,0 -1.93,1.02 -2.76,1.58 -1.52,-0.8 -3.15,-1.65 -4.87,-2.13 -0.32,-0.09 -0.6,-0.12 -0.85,-0.24 0,-1.3 -0.05,-2.04 -0.62,-2.84 -0.45,-0.62 -1.21,-1.21 -2.24,-1.21l-5.13 0c-1.01,0 -1.81,0.6 -2.24,1.21 -0.56,0.78 -0.62,1.55 -0.62,2.84zm-11.94 24.56c0,1.47 0.22,2.64 1.35,3.78 1.82,1.82 4.94,1.82 6.76,0 0.29,-0.29 0.7,-0.88 0.9,-1.27 0.87,-1.78 0.52,-4.08 -0.9,-5.49 -1.41,-1.41 -3.71,-1.77 -5.49,-0.9 -1.45,0.71 -2.63,2.35 -2.63,3.88zm25.25 0c0,1.47 0.22,2.64 1.35,3.78 0.29,0.29 0.88,0.7 1.27,0.9 3.26,1.6 6.84,-1 6.84,-3.88 0,-1.03 0.02,-1.54 -0.46,-2.5 -0.71,-1.45 -2.35,-2.63 -3.88,-2.63 -1.47,0 -2.64,0.22 -3.78,1.35 -0.68,0.68 -1.35,1.96 -1.35,2.99zm-13.41 -3.65l0 0.59c0,2.69 2.54,5.23 5.23,5.23l0.59 0c2.69,0 5.23,-2.54 5.23,-5.23l0 -0.59c0,-2.69 -2.54,-5.23 -5.23,-5.23l-0.59 0c-2.69,0 -5.23,2.54 -5.23,5.23zm-15.39 15.88l0 6.9c0,1.47 1.29,2.76 2.76,2.76l7.1 0c0.36,0 0.55,-0.14 0.63,-0.45 0.08,-0.3 -0.12,-0.58 -0.23,-0.83 -0.24,-0.54 -0.4,-1.19 -0.4,-1.97 0,-2.22 -0.15,-7.67 0.24,-9.62 0.2,-1 0.65,-2 0.65,-2.51 0,-0.93 -1.65,-0.2 -2.37,-0.2 -2.23,0 -3.59,-1.28 -3.85,-1.28 -0.55,0 -1.33,0.82 -1.73,1.13 -1.31,1 -2.8,4.03 -2.8,6.07zm33.54 -5.92c-0.37,0 -0.59,-0.06 -0.97,-0.11 -0.37,-0.06 -1.49,-0.54 -1.49,0.41 0,0.7 0.89,1.78 0.89,5.03l0 7c0,1.79 -0.71,2.23 -0.64,2.73 0.05,0.34 0.27,0.52 0.64,0.52l7.1 0c1.47,0 2.76,-1.29 2.76,-2.76l0 -6.9c0,-2.02 -1.47,-5.02 -2.75,-6.03 -1.93,-1.54 -1.5,-1.33 -2.55,-0.74 -0.55,0.31 -1.21,0.61 -1.85,0.72 -0.27,0.05 -0.94,0.14 -1.14,0.14zm-22.49 4.24l0 8.58c0,1.45 1.31,2.76 2.76,2.76l14.2 0c1.45,0 2.76,-1.31 2.76,-2.76l0 -8.38c0,-2.92 -1.55,-5.44 -3.03,-6.93 -0.53,-0.53 -2.24,-2.12 -3.02,-1.69 -0.3,0.16 -0.45,0.28 -0.76,0.44 -2.42,1.21 -4.56,0.95 -6.81,-0.4 -0.63,-0.38 -1.06,0.09 -1.62,0.46 -2.48,1.65 -4.5,4.92 -4.5,7.93z"/>
    <path class="fil2" d="M26.07 9.9c-0.04,0.02 -2.11,0.61 -3.02,1.02 -1.03,0.46 -1.77,0.86 -2.7,1.35 -0.23,-0.15 -0.31,-0.26 -0.52,-0.47 -0.8,-0.81 -1.43,-1.11 -2.54,-1.11 -1.57,0 -2.81,1.67 -3.67,2.54 -1.21,1.21 -2.54,2.03 -2.54,3.97 0,1.49 1.02,1.93 1.58,2.76 -0.49,0.92 -0.9,1.66 -1.34,2.7 -0.21,0.51 -0.38,0.91 -0.55,1.42l-0.48 1.59c-1.3,0 -2.04,0.05 -2.84,0.62 -0.62,0.45 -1.21,1.21 -1.21,2.24l0 5.13c0,1.03 0.58,1.8 1.21,2.24 0.79,0.56 1.54,0.62 2.84,0.62 0.12,0.25 0.2,0.72 0.28,1 0.11,0.36 0.21,0.67 0.35,1.03 0.86,2.24 0.83,1.91 2.25,0.75 1.49,-1.21 0.69,-0.87 0.11,-2.62 -0.44,-1.31 -0.43,-2.45 0.03,-3.75 0.34,-0.99 1.03,-2.06 1.85,-2.68 0.23,-0.17 0.47,-0.33 0.72,-0.47 1.81,-0.99 0.48,-0.6 1.83,-3.98 0.45,-1.12 0.93,-2.13 1.59,-3.04 2.41,-3.33 5.76,-5.65 9.94,-6.24l2.15 -0.22c0.49,-0.01 0.61,0.07 0.99,0.1 1.19,0.09 1.94,0.15 3.06,0.49 2.06,0.61 4.45,1.77 5.98,3.29 2.14,2.12 3.59,4.18 4.34,7.2 0.09,0.37 0.16,0.58 0.22,0.97 0.06,0.37 0.05,0.67 0.26,0.92 0.18,0.22 0.39,0.3 0.66,0.43 2.64,1.31 3.97,4.81 2.43,7.83 -0.52,1.03 -0.64,0.94 0.69,1.97 0.98,0.76 1.25,1.56 2.26,-1.59 0.13,-0.39 0.25,-1.05 0.41,-1.37 1.24,0 2.02,-0.05 2.78,-0.57 0.57,-0.39 1.26,-1.26 1.26,-2.19l0 -5.33c0,-0.9 -0.66,-1.75 -1.21,-2.15 -0.78,-0.56 -1.55,-0.62 -2.84,-0.62 -0.11,-0.23 -0.14,-0.48 -0.22,-0.77 -0.46,-1.72 -1.35,-3.44 -2.15,-4.95 0.15,-0.23 0.26,-0.31 0.47,-0.52 0.81,-0.8 1.11,-1.43 1.11,-2.54 0,-1.57 -1.67,-2.81 -2.54,-3.67 -1.21,-1.21 -2.03,-2.54 -3.97,-2.54 -1.49,0 -1.93,1.02 -2.76,1.58 -1.52,-0.8 -3.15,-1.65 -4.87,-2.13 -0.32,-0.09 -0.6,-0.12 -0.85,-0.24 0,-1.3 -0.05,-2.04 -0.62,-2.84 -0.45,-0.62 -1.21,-1.21 -2.24,-1.21l-5.13 0c-1.01,0 -1.81,0.6 -2.24,1.21 -0.56,0.78 -0.62,1.55 -0.62,2.84zm-11.94 24.56c0,1.47 0.22,2.64 1.35,3.78 1.82,1.82 4.94,1.82 6.76,0 0.29,-0.29 0.7,-0.88 0.9,-1.27 0.87,-1.78 0.52,-4.08 -0.9,-5.49 -1.41,-1.41 -3.71,-1.77 -5.49,-0.9 -1.45,0.71 -2.63,2.35 -2.63,3.88zm25.25 0c0,1.47 0.22,2.64 1.35,3.78 0.29,0.29 0.88,0.7 1.27,0.9 3.26,1.6 6.84,-1 6.84,-3.88 0,-1.03 0.02,-1.54 -0.46,-2.5 -0.71,-1.45 -2.35,-2.63 -3.88,-2.63 -1.47,0 -2.64,0.22 -3.78,1.35 -0.68,0.68 -1.35,1.96 -1.35,2.99zm-13.41 -3.65l0 0.59c0,2.69 2.54,5.23 5.23,5.23l0.59 0c2.69,0 5.23,-2.54 5.23,-5.23l0 -0.59c0,-2.69 -2.54,-5.23 -5.23,-5.23l-0.59 0c-2.69,0 -5.23,2.54 -5.23,5.23zm-15.39 15.88l0 6.9c0,1.47 1.29,2.76 2.76,2.76l7.1 0c0.36,0 0.55,-0.14 0.63,-0.45 0.08,-0.3 -0.12,-0.58 -0.23,-0.83 -0.24,-0.54 -0.4,-1.19 -0.4,-1.97 0,-2.22 -0.15,-7.67 0.24,-9.62 0.2,-1 0.65,-2 0.65,-2.51 0,-0.93 -1.65,-0.2 -2.37,-0.2 -2.23,0 -3.59,-1.28 -3.85,-1.28 -0.55,0 -1.33,0.82 -1.73,1.13 -1.31,1 -2.8,4.03 -2.8,6.07zm33.54 -5.92c-0.37,0 -0.59,-0.06 -0.97,-0.11 -0.37,-0.06 -1.49,-0.54 -1.49,0.41 0,0.7 0.89,1.78 0.89,5.03l0 7c0,1.79 -0.71,2.23 -0.64,2.73 0.05,0.34 0.27,0.52 0.64,0.52l7.1 0c1.47,0 2.76,-1.29 2.76,-2.76l0 -6.9c0,-2.02 -1.47,-5.02 -2.75,-6.03 -1.93,-1.54 -1.5,-1.33 -2.55,-0.74 -0.55,0.31 -1.21,0.61 -1.85,0.72 -0.27,0.05 -0.94,0.14 -1.14,0.14zm-22.49 4.24l0 8.58c0,1.45 1.31,2.76 2.76,2.76l14.2 0c1.45,0 2.76,-1.31 2.76,-2.76l0 -8.38c0,-2.92 -1.55,-5.44 -3.03,-6.93 -0.53,-0.53 -2.24,-2.12 -3.02,-1.69 -0.3,0.16 -0.45,0.28 -0.76,0.44 -2.42,1.21 -4.56,0.95 -6.81,-0.4 -0.63,-0.38 -1.06,0.09 -1.62,0.46 -2.48,1.65 -4.5,4.92 -4.5,7.93z"/>
   </g>
  </g>
 </g>
</svg>
