<?xml version="1.0" encoding="UTF-8"?>
<!DOCTYPE svg PUBLIC "-//W3C//DTD SVG 1.1//EN" "http://www.w3.org/Graphics/SVG/1.1/DTD/svg11.dtd">
<!-- Creator: CorelDRAW -->
<svg xmlns="http://www.w3.org/2000/svg" xml:space="preserve" width="0.116551in" height="0.116551in" version="1.1" style="shape-rendering:geometricPrecision; text-rendering:geometricPrecision; image-rendering:optimizeQuality; fill-rule:evenodd; clip-rule:evenodd"
viewBox="0 0 1.46 1.46"
 xmlns:xlink="http://www.w3.org/1999/xlink"
 xmlns:xodm="http://www.corel.com/coreldraw/odm/2003">
 <defs>
  <style type="text/css">
   <![CDATA[
    .fil0 {fill:#479F79}
   ]]>
  </style>
 </defs>
 <g id="Layer_x0020_1">
  <metadata id="CorelCorpID_0Corel-Layer"/>
  <path class="fil0" d="M0.73 0c0.28,0 0.51,0.15 0.64,0.38 -0.01,0 -0.03,0.01 -0.04,0.02l-0.66 0.55 -0.32 -0.41c-0.03,-0.04 -0.1,-0.05 -0.14,-0.02 -0.04,0.03 -0.05,0.1 -0.02,0.14l0.38 0.49c0.03,0.04 0.1,0.05 0.14,0.02l0.73 -0.61c0.01,0.06 0.02,0.11 0.02,0.17 0,0.4 -0.33,0.73 -0.73,0.73 -0.4,0 -0.73,-0.33 -0.73,-0.73 0,-0.4 0.33,-0.73 0.73,-0.73z"/>
 </g>
</svg>
