<?xml version="1.0" encoding="UTF-8"?>
<!DOCTYPE svg PUBLIC "-//W3C//DTD SVG 1.1//EN" "http://www.w3.org/Graphics/SVG/1.1/DTD/svg11.dtd">
<!-- Creator: CorelDRAW -->
<svg xmlns="http://www.w3.org/2000/svg" xml:space="preserve" width="42.2226mm" height="40.101mm" version="1.1" style="shape-rendering:geometricPrecision; text-rendering:geometricPrecision; image-rendering:optimizeQuality; fill-rule:evenodd; clip-rule:evenodd"
viewBox="0 0 3647.24 3463.97"
 xmlns:xlink="http://www.w3.org/1999/xlink"
 xmlns:xodm="http://www.corel.com/coreldraw/odm/2003">
 <defs>
  <style type="text/css">
   <![CDATA[
    .fil0 {fill:white}
   ]]>
  </style>
 </defs>
 <g id="Layer_x0020_1">
  <metadata id="CorelCorpID_0Corel-Layer"/>
  <g id="_105553247108416">
   <path class="fil0" d="M2028.31 1439.17l1.61 -312.73 -774.5 0.86 -1.32 2336.32 772.33 0.36c43.79,-856.1 -180.92,-1736.94 397.98,-1773.11 400.04,-25 426.52,319.07 425.57,681.69 -0.92,345.4 -19.31,752.86 5.52,1091.12l770.18 -2.34c24.21,-531.77 71.69,-1599.22 -151.31,-1985.46 -123.71,-214.25 -335.28,-381.48 -683.26,-402.47 -171.38,-10.34 -344.75,28.31 -472.02,97.64 -118.4,64.5 -117.72,84.09 -209.8,184.46l-80.97 83.68z"/>
   <polygon class="fil0" points="48.16,3463.69 823.96,3461.69 827.27,1136.86 50.2,1125.55 "/>
   <path class="fil0" d="M329.27 18.23c-569.68,148.94 -342.77,923.25 243.11,776.32 511.5,-128.28 322.18,-924.1 -243.11,-776.32z"/>
  </g>
 </g>
</svg>
