<?xml version="1.0" encoding="UTF-8"?>
<!DOCTYPE svg PUBLIC "-//W3C//DTD SVG 1.1//EN" "http://www.w3.org/Graphics/SVG/1.1/DTD/svg11.dtd">
<!-- Creator: CorelDRAW -->
<svg xmlns="http://www.w3.org/2000/svg" xml:space="preserve" width="2.47899in" height="2.479in" version="1.1" style="shape-rendering:geometricPrecision; text-rendering:geometricPrecision; image-rendering:optimizeQuality; fill-rule:evenodd; clip-rule:evenodd"
viewBox="0 0 79.25 79.25"
 xmlns:xlink="http://www.w3.org/1999/xlink"
 xmlns:xodm="http://www.corel.com/coreldraw/odm/2003">
 <defs>
  <style type="text/css">
   <![CDATA[
    .fil0 {fill:#46D98A}
   ]]>
  </style>
 </defs>
 <g id="Layer_x0020_1">
  <metadata id="CorelCorpID_0Corel-Layer"/>
  <path class="fil0" d="M77.05 34.28l-32.07 -32.07c-2.94,-2.94 -7.75,-2.94 -10.69,0l-32.07 32.07c-2.94,2.94 -2.94,7.75 0,10.69l32.07 32.07c2.94,2.94 7.75,2.94 10.69,0l32.07 -32.07c2.94,-2.94 2.94,-7.75 0,-10.69zm-2.08 0.3l-30.3 -30.3c-2.78,-2.78 -7.32,-2.78 -10.1,0l-30.3 30.3c-2.78,2.78 -2.78,7.32 0,10.1l30.3 30.3c2.78,2.78 7.32,2.78 10.1,0l30.3 -30.3c2.78,-2.78 2.78,-7.32 0,-10.1z"/>
 </g>
</svg>
