<?xml version="1.0" encoding="UTF-8"?>
<!DOCTYPE svg PUBLIC "-//W3C//DTD SVG 1.1//EN" "http://www.w3.org/Graphics/SVG/1.1/DTD/svg11.dtd">
<!-- Creator: CorelDRAW -->
<svg xmlns="http://www.w3.org/2000/svg" xml:space="preserve" width="4.22667in" height="4.22667in" version="1.1" style="shape-rendering:geometricPrecision; text-rendering:geometricPrecision; image-rendering:optimizeQuality; fill-rule:evenodd; clip-rule:evenodd"
viewBox="0 0 71.09 71.09"
 xmlns:xlink="http://www.w3.org/1999/xlink"
 xmlns:xodm="http://www.corel.com/coreldraw/odm/2003">
 <defs>
  <style type="text/css">
   <![CDATA[
    .str0 {stroke:#212528;stroke-width:0.93;stroke-miterlimit:2.61313}
    .fil0 {fill:none}
    .fil1 {fill:#239e54}
    .fil8 {fill:url(#id0)}
    .fil2 {fill:url(#id1)}
    .fil6 {fill:url(#id2)}
    .fil3 {fill:url(#id3)}
    .fil5 {fill:url(#id4)}
    .fil4 {fill:url(#id5)}
    .fil7 {fill:url(#id6)}
   ]]>
  </style>
  <linearGradient id="id0" gradientUnits="userSpaceOnUse" x1="46.71" y1="12.28" x2="39.66" y2="20.74">
   <stop offset="0" style="stop-opacity:1; stop-color:#BCAAEB"/>
   <stop offset="1" style="stop-opacity:1; stop-color:#200D32"/>
  </linearGradient>
  <linearGradient id="id1" gradientUnits="userSpaceOnUse" xlink:href="#id0" x1="24.08" y1="22.46" x2="5.57" y2="54.97">
  </linearGradient>
  <linearGradient id="id2" gradientUnits="userSpaceOnUse" xlink:href="#id0" x1="41.99" y1="31.62" x2="40.88" y2="41.34">
  </linearGradient>
  <linearGradient id="id3" gradientUnits="userSpaceOnUse" xlink:href="#id0" x1="45.98" y1="4.95" x2="37.53" y2="28.53">
  </linearGradient>
  <linearGradient id="id4" gradientUnits="userSpaceOnUse" xlink:href="#id0" x1="41.98" y1="46.08" x2="40.87" y2="55.8">
  </linearGradient>
  <linearGradient id="id5" gradientUnits="userSpaceOnUse" xlink:href="#id0" x1="41.98" y1="38.85" x2="40.87" y2="48.57">
  </linearGradient>
  <linearGradient id="id6" gradientUnits="userSpaceOnUse" xlink:href="#id0" x1="41.89" y1="25.55" x2="41.04" y2="34.03">
  </linearGradient>
 </defs>
 <g id="Layer_x0020_1">
  <metadata id="CorelCorpID_0Corel-Layer"/>
  <g id="_105553527798400">
   <rect class="fil0" x="0" y="0" width="71.09" height="71.09"/>
   <g>
    <path class="fil1" d="M69.08 69.44c-5.09,0.15 -42.8,-0.42 -43.95,0.29 0.98,0.77 39.87,0.42 44.61,0.32 0.09,-4.73 0.43,-49.29 -0.33,-50.22 -1,1.35 -0.22,43.97 -0.33,49.6z"/>
   </g>
   <g>
    <g>
     <path class="fil0 str0" d="M5.06 42.88l1.81 0c0,1.73 0.25,2.87 0.94,4.26 1.74,3.48 4.96,5.69 9,5.69l0 1.81c-1.67,0 -3.34,-0.45 -4.81,-1.06 -4.06,-1.69 -6.94,-6.2 -6.94,-10.69zm1.92 -1.69c-0.46,-0.11 -1.14,-0.23 -1.69,-0.23 0,-0.89 0.28,-1.19 0.34,-1.92 0.53,0.12 1.25,0.35 1.69,0.56 -0.14,0.29 -0.34,1.13 -0.34,1.58zm-3.73 0.79c0,3.8 0.41,5.66 2.46,8.72 0.51,0.77 0.89,1.12 1.52,1.76 2.27,2.27 5.48,3.98 8.9,3.98 3.95,0 6.26,-0.71 9.2,-3 0.71,-0.55 1.16,-1.27 1.87,-1.74 -0.65,-1.22 -0.45,-3.13 -0.45,-4.97l-0.01 -13.55c-0.06,-0.4 -0.79,-1.37 -1.05,-1.77 -0.39,-0.58 -0.68,-1.08 -1.06,-1.65l-2.15 -3.28c-0.38,-0.58 -0.68,-1.06 -1.06,-1.65l-3.75 -5.74c-0.84,-1.31 -1.51,-0.39 -2.03,0.49l-4.6 7.04c-0.62,0.93 -1.19,1.85 -1.83,2.8 -0.32,0.47 -0.58,0.92 -0.88,1.38 -0.32,0.48 -0.61,0.91 -0.95,1.42 -1.93,2.95 -4.13,5.91 -4.13,9.76z"/>
     <path class="fil0 str0" d="M33.08 15.77c0,-7.71 9.55,-12.2 15.39,-6.36 2.17,2.17 3.16,5.34 2.43,8.36 -0.13,0.55 -0.33,1.15 -0.57,1.68 -0.96,2.05 -2.47,3.56 -4.52,4.52 -2.31,1.08 -5.08,1.08 -7.38,0 -2.59,-1.21 -4.42,-3.41 -5.09,-6.2 -0.11,-0.44 -0.25,-1.53 -0.25,-2.01zm-2.71 -0.68c0,2.29 0.11,3.68 1.13,5.76 1.83,3.73 5.86,6.66 9.94,6.66 2.29,0 3.68,-0.11 5.76,-1.13 0.58,-0.28 1.2,-0.62 1.71,-1 0.3,-0.22 0.47,-0.36 0.75,-0.61 0.93,-0.81 1.25,-1.11 2.03,-2.15 0.41,-0.55 0.75,-1.16 1.05,-1.78 1.53,-3.11 1.53,-7.06 0,-10.17 -1.83,-3.73 -5.86,-6.66 -9.94,-6.66 -2.29,0 -3.68,0.11 -5.76,1.13 -3.73,1.83 -6.66,5.86 -6.66,9.94z"/>
     <path class="fil0 str0" d="M40.99 47.4c4.43,0 7.28,-0.15 11.2,-1.57 1.13,-0.41 2.58,-1.19 3.22,-2.09 0.47,-0.66 0.27,-4.03 0.27,-5.04 -0.92,0.61 -1.6,1.03 -2.71,1.47 -2.3,0.91 -6.31,1.71 -8.82,1.69 -0.79,-0.01 -1.17,0.11 -2.03,0.11 -1.25,0 -2.72,-0.14 -3.94,-0.24 -2.01,-0.16 -4.94,-0.8 -6.82,-1.54 -1.17,-0.46 -1.85,-0.87 -2.79,-1.5 0,4.01 -0.98,5.44 3.4,7.1 2.33,0.88 5.84,1.6 9.02,1.6z"/>
     <path class="fil0 str0" d="M40.99 54.63c4.43,0 7.28,-0.15 11.2,-1.57 1.13,-0.41 2.58,-1.19 3.22,-2.09 0.47,-0.66 0.27,-4.03 0.27,-5.04 -0.92,0.61 -1.6,1.03 -2.71,1.47 -0.97,0.39 -2.06,0.71 -3.21,0.97 -5.6,1.23 -13.08,1.15 -18.4,-0.94 -1.17,-0.46 -1.85,-0.87 -2.79,-1.5 0,4.01 -0.98,5.44 3.4,7.1 2.33,0.88 5.84,1.6 9.02,1.6z"/>
     <path class="fil0 str0" d="M40.99 40.17c4.43,0 7.28,-0.15 11.2,-1.57 1.13,-0.41 2.58,-1.19 3.22,-2.09 0.47,-0.66 0.27,-4.03 0.27,-5.04 -0.92,0.61 -1.6,1.03 -2.71,1.47 -0.97,0.39 -2.06,0.71 -3.21,0.97 -4.06,0.89 -7.45,0.93 -11.58,0.6 -3.32,-0.27 -6.86,-1.2 -9.61,-3.04 0,1.27 -0.27,4.19 0.22,4.97 1.65,2.6 8.89,3.73 12.2,3.73z"/>
     <path class="fil0 str0" d="M28.56 28.31c0,3.35 9.4,4.63 12.43,4.63 3.79,0 5.99,-0.03 9.58,-1.04 0.95,-0.27 2.19,-0.68 3.01,-1.17 2.11,-1.25 3.19,-2.59 0.58,-4.29 -0.38,-0.25 -1.97,-1.06 -2.44,-1.06l-1.9 1.49c-1.57,1.05 -2.79,1.59 -4.7,2.08 -3.06,0.78 -5.75,0.27 -8.56,-0.84 -0.82,-0.32 -1.46,-0.77 -2.15,-1.24l-1.9 -1.49c-0.55,0 -3.95,1.48 -3.95,2.94z"/>
     <path class="fil0 str0" d="M41.21 11.13c0,0.35 -0.22,0.32 -0.51,0.51 -1.8,1.13 -1.72,3.68 0.06,4.69 0.88,0.5 2.26,0.18 2.26,1.24 0,0.82 -1.46,1.49 -1.81,0l-1.81 0c0,1.01 0.43,1.73 1.16,2.23 0.79,0.54 0.65,-0.09 0.65,2.29l1.81 0c0,-3.12 -0.04,-1.37 1.15,-2.69 1.03,-1.15 0.92,-3.27 -0.7,-4.2 -0.88,-0.5 -2.26,-0.18 -2.26,-1.24 0,-0.82 1.46,-1.49 1.81,0l1.81 0c0,-2.27 -1.81,-2.24 -1.81,-2.82l0 -1.69 -1.81 0 0 1.69z"/>
    </g>
    <g>
     <path class="fil2" d="M6.57 43.36l1.81 0c0,1.73 0.25,2.87 0.94,4.26 1.74,3.48 4.96,5.69 9,5.69l0 1.81c-1.67,0 -3.34,-0.45 -4.81,-1.06 -4.06,-1.69 -6.94,-6.2 -6.94,-10.69zm1.92 -1.69c-0.46,-0.11 -1.14,-0.23 -1.69,-0.23 0,-0.89 0.28,-1.19 0.34,-1.92 0.53,0.12 1.25,0.35 1.69,0.56 -0.14,0.29 -0.34,1.13 -0.34,1.58zm-3.73 0.79c0,3.8 0.41,5.66 2.46,8.72 0.51,0.77 0.89,1.12 1.52,1.76 2.27,2.27 5.48,3.98 8.9,3.98 3.95,0 6.26,-0.71 9.2,-3 0.71,-0.55 1.16,-1.27 1.87,-1.74 -0.65,-1.22 -0.45,-3.13 -0.45,-4.97l-0.01 -13.55c-0.06,-0.4 -0.79,-1.37 -1.05,-1.77 -0.39,-0.58 -0.68,-1.08 -1.06,-1.65l-2.15 -3.28c-0.38,-0.58 -0.68,-1.06 -1.06,-1.65l-3.75 -5.74c-0.84,-1.31 -1.51,-0.39 -2.03,0.49l-4.6 7.04c-0.62,0.93 -1.19,1.85 -1.83,2.8 -0.32,0.47 -0.58,0.92 -0.88,1.38 -0.32,0.48 -0.61,0.91 -0.95,1.42 -1.93,2.95 -4.13,5.91 -4.13,9.76z"/>
     <path class="fil3" d="M34.59 16.24c0,-7.71 9.55,-12.2 15.39,-6.36 2.17,2.17 3.16,5.34 2.43,8.36 -0.13,0.55 -0.33,1.15 -0.57,1.68 -0.96,2.05 -2.47,3.56 -4.52,4.52 -2.31,1.08 -5.08,1.08 -7.38,0 -2.59,-1.21 -4.42,-3.41 -5.09,-6.2 -0.11,-0.44 -0.25,-1.53 -0.25,-2.01zm-2.71 -0.68c0,2.29 0.11,3.68 1.13,5.76 1.83,3.73 5.86,6.66 9.94,6.66 2.29,0 3.68,-0.11 5.76,-1.13 0.58,-0.28 1.2,-0.62 1.71,-1 0.3,-0.22 0.47,-0.36 0.75,-0.61 0.93,-0.81 1.25,-1.11 2.03,-2.15 0.41,-0.55 0.75,-1.16 1.05,-1.78 1.53,-3.11 1.53,-7.06 0,-10.17 -1.83,-3.73 -5.86,-6.66 -9.94,-6.66 -2.29,0 -3.68,0.11 -5.76,1.13 -3.73,1.83 -6.66,5.86 -6.66,9.94z"/>
     <path class="fil4" d="M42.49 47.88c4.43,0 7.28,-0.15 11.2,-1.57 1.13,-0.41 2.58,-1.19 3.22,-2.09 0.47,-0.66 0.27,-4.03 0.27,-5.04 -0.92,0.61 -1.6,1.03 -2.71,1.47 -2.3,0.91 -6.31,1.71 -8.82,1.69 -0.79,-0.01 -1.17,0.11 -2.03,0.11 -1.25,0 -2.72,-0.14 -3.94,-0.24 -2.01,-0.16 -4.94,-0.8 -6.82,-1.54 -1.17,-0.46 -1.85,-0.87 -2.79,-1.5 0,4.01 -0.98,5.44 3.4,7.1 2.33,0.88 5.84,1.6 9.02,1.6z"/>
     <path class="fil5" d="M42.49 55.11c4.43,0 7.28,-0.15 11.2,-1.57 1.13,-0.41 2.58,-1.19 3.22,-2.09 0.47,-0.66 0.27,-4.03 0.27,-5.04 -0.92,0.61 -1.6,1.03 -2.71,1.47 -0.97,0.39 -2.06,0.71 -3.21,0.97 -5.6,1.23 -13.08,1.15 -18.4,-0.94 -1.17,-0.46 -1.85,-0.87 -2.79,-1.5 0,4.01 -0.98,5.44 3.4,7.1 2.33,0.88 5.84,1.6 9.02,1.6z"/>
     <path class="fil6" d="M42.49 40.65c4.43,0 7.28,-0.15 11.2,-1.57 1.13,-0.41 2.58,-1.19 3.22,-2.09 0.47,-0.66 0.27,-4.03 0.27,-5.04 -0.92,0.61 -1.6,1.03 -2.71,1.47 -0.97,0.39 -2.06,0.71 -3.21,0.97 -4.06,0.89 -7.45,0.93 -11.58,0.6 -3.32,-0.27 -6.86,-1.2 -9.61,-3.04 0,1.27 -0.27,4.19 0.22,4.97 1.65,2.6 8.89,3.73 12.2,3.73z"/>
     <path class="fil7" d="M30.07 28.78c0,3.35 9.4,4.63 12.43,4.63 3.79,0 5.99,-0.03 9.58,-1.04 0.95,-0.27 2.19,-0.68 3.01,-1.17 2.11,-1.25 3.19,-2.59 0.58,-4.29 -0.38,-0.25 -1.97,-1.06 -2.44,-1.06l-1.9 1.49c-1.57,1.05 -2.79,1.59 -4.7,2.08 -3.06,0.78 -5.75,0.27 -8.56,-0.84 -0.82,-0.32 -1.46,-0.77 -2.15,-1.24l-1.9 -1.49c-0.55,0 -3.95,1.48 -3.95,2.94z"/>
     <path class="fil8" d="M42.72 11.61c0,0.35 -0.22,0.32 -0.51,0.51 -1.8,1.13 -1.72,3.68 0.06,4.69 0.88,0.5 2.26,0.18 2.26,1.24 0,0.82 -1.46,1.49 -1.81,0l-1.81 0c0,1.01 0.43,1.73 1.16,2.23 0.79,0.54 0.65,-0.09 0.65,2.29l1.81 0c0,-3.12 -0.04,-1.37 1.15,-2.69 1.03,-1.15 0.92,-3.27 -0.7,-4.2 -0.88,-0.5 -2.26,-0.18 -2.26,-1.24 0,-0.82 1.46,-1.49 1.81,0l1.81 0c0,-2.27 -1.81,-2.24 -1.81,-2.82l0 -1.69 -1.81 0 0 1.69z"/>
    </g>
   </g>
  </g>
 </g>
</svg>
