<?xml version="1.0" encoding="UTF-8"?>
<!DOCTYPE svg PUBLIC "-//W3C//DTD SVG 1.1//EN" "http://www.w3.org/Graphics/SVG/1.1/DTD/svg11.dtd">
<!-- Creator: CorelDRAW -->
<svg xmlns="http://www.w3.org/2000/svg" xml:space="preserve" width="53.8106mm" height="30.3292mm" version="1.1" style="shape-rendering:geometricPrecision; text-rendering:geometricPrecision; image-rendering:optimizeQuality; fill-rule:evenodd; clip-rule:evenodd"
viewBox="0 0 6538.75 3685.43"
 xmlns:xlink="http://www.w3.org/1999/xlink"
 xmlns:xodm="http://www.corel.com/coreldraw/odm/2003">
 <defs>
  <style type="text/css">
   <![CDATA[
    .fil0 {fill:white}
   ]]>
  </style>
 </defs>
 <g id="Layer_x0020_1">
  <metadata id="CorelCorpID_0Corel-Layer"/>
  <g id="_105553247116192">
   <path class="fil0" d="M1590.47 18.73c-922.91,130.85 -1729.05,966.44 -1570.41,2084.09 130.02,916.06 976.27,1711.75 2055.46,1565.09 908.08,-123.4 1711.02,-990.3 1563.39,-2068.78 -127.25,-929.58 -972.22,-1732.97 -2048.44,-1580.4z"/>
   <path class="fil0" d="M4668.46 125.85c-768.47,172.14 -1052.12,1855.46 -555.72,2907.63 114.02,241.66 394.9,607.06 767.19,528.04 302.12,-64.11 505.73,-386.22 624.5,-679.56 269.69,-666.1 240.22,-1580.39 -66.86,-2232.43 -115.44,-245.11 -387.78,-609.1 -769.11,-523.68z"/>
   <path class="fil0" d="M5894.53 1773.79c0.09,361.33 8.76,608.65 62.22,971.49 184.12,1249.76 582.37,537.01 581.98,-846.92 -0.62,-2206.15 -644.07,-2018.56 -644.2,-124.58z"/>
  </g>
 </g>
</svg>
