<?xml version="1.0" encoding="UTF-8"?>
<!DOCTYPE svg PUBLIC "-//W3C//DTD SVG 1.1//EN" "http://www.w3.org/Graphics/SVG/1.1/DTD/svg11.dtd">
<!-- Creator: CorelDRAW -->
<svg xmlns="http://www.w3.org/2000/svg" xml:space="preserve" width="51.2138mm" height="41.647mm" version="1.1" style="shape-rendering:geometricPrecision; text-rendering:geometricPrecision; image-rendering:optimizeQuality; fill-rule:evenodd; clip-rule:evenodd"
viewBox="0 0 4179.57 3398.82"
 xmlns:xlink="http://www.w3.org/1999/xlink"
 xmlns:xodm="http://www.corel.com/coreldraw/odm/2003">
 <defs>
  <style type="text/css">
   <![CDATA[
    .fil0 {fill:#239E54}
   ]]>
  </style>
 </defs>
 <g id="Layer_x0020_1">
  <metadata id="CorelCorpID_0Corel-Layer"/>
  <g id="_105553147944480">
   <path class="fil0" d="M-0 51.35c0,89.75 155.62,243.62 217.63,317.46l178.82 220.03c58.89,73.42 41.63,162.92 41.25,289.26l-5.18 1771.62c-1.07,97.6 -161.16,284.33 -224.72,366.45 -108.6,140.33 -221.01,254.97 -202.88,382.6l1216.69 -0.24c16.63,-153.38 -138.96,-243.29 -276.94,-420.01 -247.16,-316.58 -231.28,-161.06 -228.48,-491.2 4.03,-474.3 -4.01,-963.81 12.88,-1436.39l1079.93 2346.99c187.74,3.89 131.56,-1.31 237.76,-270.24 40.9,-103.57 81.23,-201.68 122.24,-305.68 110.38,-279.95 645.36,-1663.93 723.59,-1820.3 21.97,172.73 7.29,1605.25 7.17,1898.99 -0.06,139.21 -425.29,330.95 -387.95,498.12l1664.45 -0.12c14.21,-154.9 -24.84,-93.39 -178.54,-269.44 -237,-271.48 -201.62,-22.51 -202.77,-641.93l-4.29 -2007.83c-0.08,-58.5 51.81,-90.08 84.48,-114.77 48.09,-36.34 298.14,-242.65 304.41,-283.85l0 -77.34 -1170.36 -3.53 -818.54 2074.22c-34.02,-38.63 -903.04,-1947.31 -939.83,-2074.1l-1250.83 0 0 51.23z"/>
  </g>
 </g>
</svg>
