<?xml version="1.0" encoding="UTF-8"?>
<!DOCTYPE svg PUBLIC "-//W3C//DTD SVG 1.1//EN" "http://www.w3.org/Graphics/SVG/1.1/DTD/svg11.dtd">
<!-- Creator: CorelDRAW -->
<svg xmlns="http://www.w3.org/2000/svg" xml:space="preserve" width="2.89176in" height="0.781594in" version="1.1" style="shape-rendering:geometricPrecision; text-rendering:geometricPrecision; image-rendering:optimizeQuality; fill-rule:evenodd; clip-rule:evenodd"
viewBox="0 0 786.7 212.63"
 xmlns:xlink="http://www.w3.org/1999/xlink"
 xmlns:xodm="http://www.corel.com/coreldraw/odm/2003">
 <defs>
  <style type="text/css">
   <![CDATA[
    .fil1 {fill:#BABABA}
    .fil0 {fill:black;fill-rule:nonzero}
   ]]>
  </style>
 </defs>
 <g id="Layer_x0020_1">
  <metadata id="CorelCorpID_0Corel-Layer"/>
  <path class="fil0" d="M265.01 119.1c0,-11.93 2.1,-22.25 6.29,-30.96 4.19,-8.71 10.16,-15.48 18.06,-20.16 7.9,-4.68 17.42,-7.09 28.38,-7.09 10.8,0 20.32,2.42 28.22,7.09 7.9,4.68 13.87,11.45 18.22,20.16 4.35,8.71 6.45,18.87 6.45,30.8 0,11.93 -2.1,22.42 -6.45,31.12 -4.35,8.71 -10.48,15.48 -18.38,20.32 -7.9,4.68 -17.25,7.1 -28.06,7.1 -10.97,0 -20.32,-2.42 -28.22,-7.1 -7.9,-4.84 -13.87,-11.61 -18.06,-20.32 -4.35,-8.71 -6.45,-19.03 -6.45,-30.96zm15.8 0c0,14.19 3.23,25.32 9.35,33.22 6.29,8.06 15.48,11.93 27.57,11.93 11.77,0 20.8,-3.87 27.41,-11.93 6.45,-7.9 9.68,-19.03 9.68,-33.22 0,-14.35 -3.22,-25.48 -9.68,-33.22 -6.45,-7.9 -15.48,-11.77 -27.41,-11.77 -12.09,0 -21.29,3.87 -27.57,11.77 -6.13,7.74 -9.35,18.87 -9.35,33.22z"/>
  <path id="_1" class="fil0" d="M389.9 212.63l-3.39 -11.93c5,-1.13 9.19,-2.58 12.58,-4.03 3.39,-1.61 6.13,-3.55 8.39,-6.13 2.26,-2.42 4.19,-5.64 5.97,-9.35l4.03 -9.68 -0.32 6.13 -35.31 -82.72 15.8 0 28.22 69.5 -4.19 0 28.22 -69.5 15.16 0 -37.25 87.4c-2.26,5.32 -4.68,9.67 -7.42,13.22 -2.58,3.55 -5.48,6.45 -8.55,8.71 -3.06,2.26 -6.29,4.03 -10,5.32 -3.71,1.29 -7.58,2.26 -11.93,3.06z"/>
  <path id="_2" class="fil0" d="M478.67 176.03l0 -81.11 14.67 0 0 81.11 -14.67 0zm-1.29 -98.85l0 -15.8 17.42 0 0 15.8 -17.42 0z"/>
  <path id="_3" class="fil0" d="M554.03 212.15c-7.1,0 -13.55,-0.97 -19.51,-2.58 -5.97,-1.77 -11.29,-4.35 -15.96,-7.9l3.87 -10.8c3.22,2.26 6.61,4.03 9.84,5.48 3.22,1.29 6.61,2.42 10,3.06 3.55,0.64 7.26,0.97 10.97,0.97 7.9,0 13.87,-2.1 17.9,-6.13 3.87,-4.03 5.97,-9.84 5.97,-17.42l0 -22.74 1.61 0c-1.77,6.13 -5.32,11.13 -10.64,14.67 -5.32,3.55 -11.45,5.32 -18.71,5.32 -7.26,0 -13.71,-1.61 -19.19,-4.84 -5.32,-3.23 -9.51,-7.9 -12.58,-14.03 -2.9,-6.13 -4.51,-13.22 -4.51,-21.45 0,-8.22 1.61,-15.48 4.51,-21.45 3.06,-5.97 7.26,-10.64 12.58,-14.03 5.48,-3.23 11.93,-4.84 19.19,-4.84 7.26,0 13.55,1.77 18.71,5.32 5.32,3.55 8.87,8.55 10.48,14.67l-1.45 -1.45 1.45 -17.09 14.19 0c-0.32,3.22 -0.64,6.45 -0.81,9.67 -0.32,3.23 -0.48,6.29 -0.48,9.51l0 60.96c0,12.09 -3.06,21.29 -9.35,27.57 -6.45,6.29 -15.8,9.51 -28.06,9.51zm-1.45 -49.67c7.42,0 13.38,-2.58 17.74,-7.58 4.35,-5 6.61,-12.09 6.61,-21.12 0,-9.19 -2.26,-16.29 -6.61,-21.13 -4.35,-5 -10.32,-7.42 -17.74,-7.42 -7.58,0 -13.55,2.42 -17.9,7.42 -4.52,4.84 -6.77,11.93 -6.77,21.13 0,9.03 2.26,16.12 6.77,21.12 4.35,5 10.32,7.58 17.9,7.58z"/>
  <path id="_4" class="fil0" d="M657.99 177.48c-7.26,0 -13.55,-1.77 -18.7,-5.48 -5.32,-3.55 -8.71,-8.55 -10.48,-14.84l1.77 0 0 18.87 -14.67 0 0 -118.68 14.67 0 0 56.12 -1.77 0c1.77,-6.29 5.32,-11.13 10.48,-14.67 5.32,-3.55 11.45,-5.32 18.7,-5.32 7.26,0 13.55,1.61 18.87,5 5.32,3.55 9.51,8.22 12.58,14.51 2.9,6.29 4.35,13.71 4.35,22.58 0,8.71 -1.45,16.13 -4.51,22.41 -2.9,6.29 -7.1,11.13 -12.58,14.51 -5.32,3.39 -11.61,5 -18.71,5zm-3.39 -11.61c7.26,0 13.22,-2.58 17.74,-7.74 4.35,-5 6.61,-12.58 6.61,-22.58 0,-10 -2.26,-17.58 -6.61,-22.74 -4.52,-5.16 -10.48,-7.58 -17.74,-7.58 -7.42,0 -13.22,2.42 -17.58,7.58 -4.52,5 -6.61,12.58 -6.61,22.58 0,10 2.1,17.58 6.61,22.74 4.35,5.16 10.16,7.74 17.58,7.74z"/>
  <path id="_5" class="fil0" d="M747.62 177.48c-7.9,0 -14.84,-1.61 -20.64,-5 -5.81,-3.39 -10.32,-8.39 -13.55,-14.67 -3.22,-6.29 -4.84,-13.71 -4.84,-22.42 0,-8.55 1.61,-16.13 4.84,-22.42 3.23,-6.29 7.74,-10.97 13.55,-14.51 5.81,-3.39 12.74,-5 20.64,-5 7.9,0 14.84,1.61 20.64,5 5.81,3.55 10.48,8.39 13.55,14.51 3.22,6.29 4.84,13.87 4.84,22.42 0,8.71 -1.61,16.13 -4.84,22.42 -3.06,6.29 -7.74,11.29 -13.55,14.67 -5.81,3.39 -12.74,5 -20.64,5zm0 -11.61c7.26,0 13.22,-2.58 17.58,-7.74 4.35,-5.16 6.61,-12.74 6.61,-22.74 0,-10 -2.26,-17.58 -6.61,-22.58 -4.35,-5.16 -10.32,-7.58 -17.58,-7.58 -7.42,0 -13.22,2.42 -17.58,7.58 -4.35,5 -6.61,12.58 -6.61,22.58 0,10 2.26,17.58 6.61,22.74 4.35,5.16 10.16,7.74 17.58,7.74z"/>
  <g id="_105553290242464">
   <path class="fil1" d="M137.02 135.88l-8.66 0.21c-1.66,0 -2.4,-0.21 -4.01,-0.21 -0.76,-3.24 -0.21,-9.46 -0.21,-12.88 2.06,-0.48 9.61,-0.21 12.25,-0.21 0.83,0 0.85,1.15 0.85,1.9 0,3.98 -0.21,7.22 -0.21,11.19zm14.15 -26.39l-12.03 0c0,-1.2 -0.21,-1.46 -0.21,-2.74l0 -7.6c0,-1.28 0.21,-1.54 0.21,-2.74 1.2,0 1.46,-0.21 2.74,-0.21l8.45 0c0.73,0 0.82,0.16 1.48,0.21 0.38,1.63 0.37,10 0.08,11.9 -0.1,0.68 0.02,1.19 -0.71,1.19zm-41.59 -24.7c0,-1.37 0.12,-2.13 0.2,-3.18 0.27,-3.54 -2.16,-2.73 12.26,-2.73 1.17,0 0.77,1.41 0.88,2.5 0.26,2.55 0.18,5.18 0.18,7.84 0,1.29 -0.21,1.54 -0.21,2.75 -1.47,0 -2.06,0.21 -3.59,0.21 -2.83,0 -4.91,0.08 -7.64,-0.17 -1.55,-0.14 -1.87,0.45 -1.89,-1.28 -0.01,-2.25 -0.19,-3.7 -0.19,-5.94zm26.18 -20.9l10.98 0c0.73,0 0.82,0.16 1.48,0.21l0.21 10.35c0,0.89 -0,2.53 -0.84,2.53l-11.61 0c-1.5,0 -0.57,-3.27 -1,-6.39 -0.2,-1.46 0.05,-2.42 0.14,-3.54 0.09,-1.13 -0.42,-3.16 0.64,-3.16zm22.17 -22.8c0,-0.57 0.1,-0.58 0.21,-1.05l12.67 0 0 8.87c0,1.66 0.21,2.4 0.21,4.01 -1.2,0 -1.46,0.21 -2.74,0.21l-6.33 0c-1.66,0 -2.4,-0.21 -4.01,-0.21l0 -11.82zm-23.01 -2.96c0,-1.65 0.21,-2.49 0.21,-4.22l5.28 -0.21c2.87,0 4.96,0.21 7.81,0.21l0.21 9.08c0,1.53 -0.21,2.11 -0.21,3.59 -2.78,0.65 -9.64,0 -12.88,0 -0.22,-2.68 -0.42,-5.54 -0.42,-8.45zm-12.08 2.11l-13.04 0 0 -12.67c3.41,-0.79 9.65,-0.29 13.09,0 0.36,5.35 0.14,7.24 -0.05,12.67zm-31.62 -35.89l1.21 17.8c0.61,4.79 0.77,11.59 1.45,16.29l0.93 10.89c0.35,7.32 1.32,14.35 1.89,21.55 0.15,1.96 0.22,3.75 0.4,5.51l0.97 10.86c0.51,3.48 0.95,11.86 1.37,16.15 0.35,3.56 0.65,7.32 1.04,10.79l0.88 10.94c0.1,1.98 0.27,3.72 0.41,5.5 0.53,6.96 2.3,21.95 2.33,27.23l1.91 21.74c1.57,0 2.49,0.22 4.22,0.21 3.25,-0.01 10.9,0.3 13.09,-0.21 0.4,-1.5 -0.13,-2.14 -0.51,-4.55l-3.46 -26.73c-0.3,-2.8 -0.22,-2.71 1.87,-2.71l30.4 0c0,5.4 -0.34,5.21 -1.21,10.19l-3.86 24.43c1.42,0 1.93,0.2 3.16,0.22l10.35 -0.01c0.19,-0.81 0.34,-1.15 0.42,-2.11 0.15,-1.89 0.76,-4.54 1.09,-6.51l4.18 -26.65c0.32,-2.96 0.9,-5.76 1.34,-8.79l3.44 -22.11c0.26,-1.79 0.56,-2.69 0.85,-4.43l8.26 -53.18c0.58,-4.02 1.71,-9.51 2.14,-13.06 0.44,-3.65 0.46,-3.54 0.46,-7.14 0,-3.92 -3.76,-7.5 -6.57,-8.63 -4.52,-1.82 -9.79,-3.33 -14.03,-4.97 -0.99,-0.38 -1.75,-0.69 -2.75,-1.05 -1.9,-0.68 -3.82,-1.34 -5.6,-2l-22.64 -7.97c-1.93,-0.64 -3.72,-1.32 -5.59,-2.01l-17 -6.01c-1.99,-0.66 -3.66,-1.3 -5.56,-2.04 -3.24,-1.28 -6.91,-2.81 -9.7,-0.7 -0.76,0.58 -1.56,2.05 -1.56,3.3z"/>
   <path class="fil1" d="M64.82 158.68l-9.71 -0.21c-3.31,0.02 -2.53,1.51 -2.53,-10.13 0,-1.29 0.21,-1.54 0.21,-2.75l12.67 0c0,2.91 0.4,9.82 0.08,11.9 -0.1,0.68 0.02,1.19 -0.71,1.19zm-0.63 -20.9c-0.66,0.06 -0.75,0.21 -1.48,0.21l-9.5 0c-1.06,0 -0.95,-0.19 -1.9,-0.21 0,-1.88 -0.21,-2.94 -0.21,-4.86l0 -6.97c0,-0.65 0.19,-1.27 0.84,-1.27l9.5 0c1.28,0 1.54,0.21 2.74,0.21l0.44 6.33 -0.44 6.54zm-24.91 -32.72l11.61 0c0.49,0 0.63,0.15 0.63,0.63l0 12.25c-2.73,0 -11,0.28 -13.09,-0.21 0,-2.25 0,-4.5 0,-6.76 0,-1.46 -0.54,-5.91 0.85,-5.91zm27.24 -8.23l-11.4 0c-0.74,0 -0.85,-0.94 -0.85,-1.69l0 -9.5c0,-1.06 0.19,-0.94 0.21,-1.9 1.75,0 2.65,-0.21 4.43,-0.21l6.76 0c0.73,0 0.82,0.16 1.48,0.21 0,1.47 0.21,2.06 0.21,3.59 0,2.05 0.1,6.25 -0.13,8.1 -0.1,0.75 0.11,1.4 -0.71,1.4zm-33.15 -14.78l0.21 -5.49c2.08,-0.49 10.18,-0.21 12.88,-0.21l0 12.46c0,0.49 -0.15,0.63 -0.63,0.63l-12.25 0c0,-2.71 -0.21,-4.65 -0.21,-7.39zm4.86 99.23c3.83,0 6.93,0.21 10.77,0.21 3.71,0 27.15,0.18 29.62,-0.15 0.94,-0.13 1.94,-0.06 2.9,-0.06 3.09,0.02 2.53,0.93 2.53,-5.49l0.01 -10.99c-0.02,-1.28 -0.23,-2.05 -0.22,-3.58l-0.21 -18.37c0.01,-1.53 -0.22,-2.11 -0.22,-3.58 0.01,-2.08 0.21,-5.64 -0.05,-7.55l-0.79 -36.58c0,-2.61 -0.01,-5.1 -0.2,-7.4 -0.18,-2.14 -0.02,-5.16 -0.01,-7.38 0.01,-1.53 -0.22,-2.11 -0.22,-3.58 0.03,-6.26 -0.42,-12.62 -0.42,-18.37l-45.6 0c-3.43,0 -6.25,0.23 -9.5,0.21 -2.99,-0.02 -4.87,1.23 -6.2,3.72 -1.45,2.72 0.86,13.31 1.44,17.09l8 51.12c0.39,2.73 0.92,5.55 1.38,8.33l4.04 25.51c0.48,2.91 2.01,15.11 2.96,16.89z"/>
   <path class="fil1" d="M185.37 149.39l0 -10.13 13.09 0.21 0 11.19c0,0.73 -0.16,0.82 -0.21,1.48 -0.66,0.05 -0.75,0.21 -1.48,0.21l-10.56 0c-0.86,0 -0.85,-1.74 -0.85,-2.96zm6.55 -32.94c1.85,0 10.83,-0.15 12.24,0.22 0.92,0.24 0.57,0.22 0.71,1.4 0.45,3.69 -0,8.04 -0.29,11.48 -2.04,0.47 -9.05,0.21 -11.61,0.21 -2.1,0 -1.05,-2.27 -1.27,-6.34 -0.07,-1.38 -0.35,-1.78 -0.09,-3.47 0.2,-1.32 0.02,-2.28 0.3,-3.5zm-4.86 -16.47c0,-2.69 -0.16,-5.97 0.42,-8.45l12.67 0 0 13.09c-2.46,0 -8.42,0.42 -10.86,0.09 -1.84,-0.25 -2.23,0.97 -2.23,-4.74zm-21.32 80.65l29.14 0c0.73,0 0.7,-0.69 1.23,-2.14l8.24 -23.85c2.21,-6.67 19.66,-56.66 19.66,-58.88 0,-1.5 -0.78,-3.07 -1.41,-4.08 -1.45,-2.33 -4.38,-3.53 -7,-4.19 -1.41,-0.36 -3.12,-0.76 -4.51,-1.19 -0.76,-0.23 -1.31,-0.46 -2.08,-0.66l-6.73 -1.71c-5.57,-1.64 -12.26,-3.17 -17.52,-4.86 -0.52,-0.17 -1.51,-0.53 -2.11,-0.65 -0.92,-0.19 -0.91,0.12 -1.18,1.21 -0.4,1.66 -0.51,3.14 -0.81,4.89l-15.42 93.95c-0.08,0.55 -0.58,2.17 0.49,2.17z"/>
   <path class="fil1" d="M54.05 53.96c5.06,0 27.39,-0.23 30.68,0.15 2.94,0.34 1.4,-0.24 1.89,3.39 0.11,0.81 0.16,1.47 0.15,2.59l0.43 20.68c0.1,3.26 -0.32,7.67 0.02,10.74 0.34,3.03 -0.17,7.32 0.24,10.32 0.2,1.45 0.16,3.35 0.15,5.13 -0.01,1.77 0.21,3.08 0.21,5.07 -0,8.68 0.45,17.24 0.42,26.18 -0.01,1.93 0.21,3.07 0.21,5.07 -0,1.76 0,3.52 0,5.28 -0,2 0.22,3.21 0.21,5.07l-0.01 7.82c0.03,1.08 0.22,1.3 0.22,2.52 0,2.16 -0.21,9.13 0.31,10.46 0.26,0.68 0.89,0.74 1.55,0.98l9.6 3.71c0.7,0.29 1.4,0.83 1.37,-0.28 -0.05,-1.45 -1.15,-9.22 -1.22,-12.12 -0.11,-4.35 -1.72,-18.91 -2.29,-24.31 -0.51,-4.85 -0.68,-10.28 -1.24,-14.6l-1.09 -9.68c-0.09,-0.82 0.02,-1.66 -0.04,-2.49 -0.05,-0.65 -0.22,-1.65 -0.32,-2.42 -0.61,-4.47 -0.7,-10.61 -1.26,-14.57 -0.44,-3.1 -0.77,-6.47 -0.94,-9.61 -0.31,-5.51 -1.28,-13.93 -1.86,-19.46 -0.18,-1.7 -0.2,-3.41 -0.4,-4.88l-1.33 -14.51c-0.14,-3.17 -0.7,-6.7 -1.02,-9.75 -0.17,-1.68 -0.26,-3.34 -0.42,-4.85 -0.19,-1.79 -0.11,-3.18 -0.37,-4.91l-0.91 -9.85c-0.18,-2.1 -1.14,-12.54 -1.79,-14.05 -2.08,-4.86 -7.51,-0.31 -9.94,1.52l-17.65 13.39c-1.84,1.42 -3.71,3.31 -4.71,5.64 -1.96,4.6 -1.1,2.83 -1.55,6.07 -0.4,2.87 2.61,18.12 2.66,20.59z"/>
   <path class="fil1" d="M-0 89.01c0,2.14 0.45,5.29 0.88,7.14 0.5,2.14 1.19,4.21 1.63,6.39 1.62,7.91 3.77,14.96 5.31,22.77 0.26,1.3 0.49,1.98 0.85,3.16l10.11 42.04c1,3.84 -0.17,4.04 3.07,4.95 1.02,0.28 2.08,0.63 2.98,1.04l7.18 2.77c1.64,0.54 1.34,0.58 0.77,-3.75 -0.65,-4.85 -1.58,-9.24 -2.14,-13.91l-2.93 -21.14c-0.36,-2.47 -0.75,-4.61 -1.08,-6.94 -0.68,-4.82 -1.2,-9.51 -2,-14.26 -0.37,-2.2 -0.73,-4.55 -1.01,-7.01 -0.13,-1.17 -0.29,-2.29 -0.44,-3.57 -0.34,-2.85 -1.27,-7.12 -1.64,-10.4 -0.73,-6.6 -2.3,-14.79 -2.99,-21.08 -0.27,-2.46 -1.06,-7.85 -1.75,-10.28 -1.56,-5.49 -5.4,-0.17 -7.07,2.06 -2.52,3.37 -6.42,8.15 -8.05,11.79 -0.86,1.92 -1.69,5.47 -1.69,8.23z"/>
  </g>
 </g>
</svg>
