<?xml version="1.0" encoding="UTF-8"?>
<!DOCTYPE svg PUBLIC "-//W3C//DTD SVG 1.1//EN" "http://www.w3.org/Graphics/SVG/1.1/DTD/svg11.dtd">
<!-- Creator: CorelDRAW -->
<svg xmlns="http://www.w3.org/2000/svg" xml:space="preserve" width="0.952819in" height="0.952819in" version="1.1" style="shape-rendering:geometricPrecision; text-rendering:geometricPrecision; image-rendering:optimizeQuality; fill-rule:evenodd; clip-rule:evenodd"
viewBox="0 0 4.32 4.32"
 xmlns:xlink="http://www.w3.org/1999/xlink"
 xmlns:xodm="http://www.corel.com/coreldraw/odm/2003">
 <defs>
  <style type="text/css">
   <![CDATA[
    .fil0 {fill:none}
    .fil3 {fill:#72bf91}
    .fil2 {fill:url(#id0)}
    .fil1 {fill:url(#id1)}
    .fil5 {fill:url(#id2)}
    .fil4 {fill:url(#id3)}
   ]]>
  </style>
  <linearGradient id="id0" gradientUnits="userSpaceOnUse" x1="0.56" y1="2.73" x2="1.86" y2="3.7">
   <stop offset="0" style="stop-opacity:1; stop-color:#239e54"/>
   <stop offset="1" style="stop-opacity:1; stop-color:#0a2f18"/>
  </linearGradient>
  <linearGradient id="id1" gradientUnits="userSpaceOnUse" xlink:href="#id0" x1="2.34" y1="2.73" x2="3.65" y2="3.7">
  </linearGradient>
  <linearGradient id="id2" gradientUnits="userSpaceOnUse" xlink:href="#id0" x1="2.81" y1="1.28" x2="3.47" y2="2.37">
  </linearGradient>
  <linearGradient id="id3" gradientUnits="userSpaceOnUse" xlink:href="#id0" x1="0.7" y1="1.27" x2="1.37" y2="2.37">
  </linearGradient>
 </defs>
 <g id="Layer_x0020_1">
  <metadata id="CorelCorpID_0Corel-Layer"/>
  <g id="_105553459228000">
   <rect class="fil0" width="4.32" height="4.32"/>
   <g>
    <path class="fil1" d="M3.55 4.14c0.11,-0.01 0.2,-0.09 0.24,-0.17 0.04,-0.09 0.03,-0.26 0.03,-0.39 0,-0.16 0.01,-1.19 -0,-1.25 -0.03,-0.02 -1.36,-0 -1.53,-0.01l-0 1.82 1.27 0z"/>
    <path class="fil2" d="M2.04 4.14l-0 -1.81c-0.26,0 -0.51,0 -0.77,0 -0.12,0 -0.69,-0.02 -0.77,0.01l0 1.25c0,0.14 -0.01,0.29 0.03,0.39 0.03,0.08 0.13,0.16 0.24,0.17l1.27 0z"/>
    <path class="fil3" d="M2.16 0.93l0 1.4 0.13 -0 -0 -0.82c0.25,-0.01 0.46,-0.04 0.69,-0.1 0.06,-0.02 0.15,-0.06 0.2,-0.07l0.01 -0.01c0,-0 0.01,-0 0.01,-0.01 0.01,-0 0.01,-0.01 0.02,-0.01 0.12,-0.06 0.17,-0.08 0.29,-0.17 0.09,-0.07 0.2,-0.18 0.25,-0.28 0.06,-0.13 0.1,-0.27 0.03,-0.41 -0.1,-0.2 -0.29,-0.27 -0.52,-0.27l-0.15 0c-0.04,0 -0.07,0 -0.1,0.01 -0.08,0.02 -0.22,0.06 -0.29,0.1 -0.2,0.12 -0.33,0.26 -0.46,0.46 -0.02,0.03 -0.03,0.06 -0.05,0.09l-0.03 0.07c-0,0 -0,0 -0,0 -0.01,0.01 -0,0 -0.01,0.01zm0.11 0.32c0.12,-0.4 0.33,-0.75 0.73,-0.82 0.35,-0.06 0.69,0.08 0.41,0.4 -0.16,0.19 -0.43,0.29 -0.68,0.36 -0.11,0.03 -0.34,0.07 -0.46,0.06z"/>
    <path class="fil3" d="M1.14 1.33c0.04,0 0.15,0.05 0.2,0.06 0.24,0.07 0.43,0.09 0.7,0.11l0 0.82 0.12 -0 -0 -1.4c-0.03,-0.05 -0.04,-0.09 -0.09,-0.17 -0.17,-0.29 -0.4,-0.5 -0.74,-0.57 -0.02,-0 -0.05,-0.01 -0.09,-0.01l-0.22 0c-0.07,0 -0.14,0.01 -0.18,0.03 -0.12,0.04 -0.23,0.11 -0.29,0.23 -0.13,0.26 0.06,0.54 0.26,0.7 0.1,0.08 0.18,0.12 0.29,0.17l0.03 0.01c0,0 0,0 0,0 0.01,0.01 0.01,0 0.01,0.01zm0.87 -0.08c-0.12,-0.4 -0.33,-0.75 -0.73,-0.82 -0.35,-0.06 -0.69,0.08 -0.41,0.4 0.16,0.19 0.43,0.29 0.68,0.36 0.11,0.03 0.34,0.07 0.46,0.06z"/>
    <path class="fil4" d="M0.5 2.33c0.08,-0.02 0.64,-0.01 0.77,-0.01 0.26,0 0.51,0 0.77,0l-0 -0 -0 -0.82c-0.26,-0.01 -0.45,-0.04 -0.7,-0.11 -0.05,-0.01 -0.16,-0.06 -0.2,-0.06 -0.17,-0.01 -0.39,-0 -0.57,-0 -0.11,0 -0.17,-0 -0.25,0.04 -0.11,0.06 -0.14,0.15 -0.15,0.25l0 0.18 0 0.28c0,0 0,0.01 0,0.01 0.01,0.1 0.09,0.2 0.2,0.23 0.05,0.02 0.08,0.01 0.13,0.02z"/>
    <path class="fil5" d="M2.28 2.32c0.17,0 1.5,-0.01 1.53,0.01 0.18,0 0.31,-0.1 0.33,-0.25 0,-0 0,-0 0,-0.01l0 -0.4c-0,-0.07 -0.01,-0.13 -0.02,-0.15 -0.07,-0.19 -0.22,-0.19 -0.38,-0.19 -0.19,0 -0.38,-0 -0.57,0 -0.06,0.01 -0.14,0.05 -0.2,0.07 -0.23,0.07 -0.44,0.1 -0.69,0.1l0 0.82z"/>
    <polygon class="fil3" points="2.16,4.14 2.28,4.14 2.28,2.32 2.16,2.32 "/>
    <polygon class="fil3" points="2.04,4.14 2.16,4.14 2.16,2.32 2.03,2.33 2.04,2.33 "/>
   </g>
  </g>
 </g>
</svg>
