<?xml version="1.0" encoding="UTF-8"?>
<!DOCTYPE svg PUBLIC "-//W3C//DTD SVG 1.1//EN" "http://www.w3.org/Graphics/SVG/1.1/DTD/svg11.dtd">
<!-- Creator: CorelDRAW -->
<svg xmlns="http://www.w3.org/2000/svg" xml:space="preserve" width="9.56928in" height="7.61951in" version="1.1" style="shape-rendering:geometricPrecision; text-rendering:geometricPrecision; image-rendering:optimizeQuality; fill-rule:evenodd; clip-rule:evenodd"
viewBox="0 0 655.63 522.04"
 xmlns:xlink="http://www.w3.org/1999/xlink"
 xmlns:xodm="http://www.corel.com/coreldraw/odm/2003">
 <defs>
  <style type="text/css">
   <![CDATA[
    .fil16 {fill:none}
    .fil6 {fill:#AA97D9}
    .fil1 {fill:#2A1F45;fill-rule:nonzero}
    .fil2 {fill:#3C2F5E;fill-rule:nonzero}
    .fil9 {fill:#604B94;fill-rule:nonzero}
    .fil8 {fill:#6B55A3;fill-rule:nonzero}
    .fil3 {fill:#239e54;fill-rule:nonzero}
    .fil4 {fill:#AA97D9;fill-rule:nonzero}
    .fil12 {fill:#EFA82A;fill-rule:nonzero}
    .fil14 {fill:#F98523;fill-rule:nonzero}
    .fil10 {fill:#FDB52B;fill-rule:nonzero}
    .fil15 {fill:white;fill-rule:nonzero}
    .fil11 {fill:#239e54;fill-rule:nonzero}
    .fil13 {fill:#CCCCCC;fill-rule:nonzero}
    .fil0 {fill:#EDEBEB;fill-rule:nonzero}
    .fil5 {fill:url(#id1);fill-rule:nonzero}
    .fil7 {fill:url(#id2);fill-rule:nonzero}
   ]]>
  </style>
   <clipPath id="id0">
    <path d="M-0 0l655.63 0 0 522.04 -655.63 0 0 -522.04z"/>
   </clipPath>
  <linearGradient id="id1" gradientUnits="userSpaceOnUse" x1="326.75" y1="292.19" x2="469.35" y2="327.8">
   <stop offset="0" style="stop-opacity:1; stop-color:black"/>
   <stop offset="1" style="stop-opacity:0; stop-color:black"/>
  </linearGradient>
  <linearGradient id="id2" gradientUnits="userSpaceOnUse" xlink:href="#id1" x1="383.53" y1="259.56" x2="524.71" y2="218.64">
  </linearGradient>
 </defs>
 <g id="Layer_x0020_1">
  <metadata id="CorelCorpID_0Corel-Layer"/>
  <g>
  </g>
  <g style="clip-path:url(#id0)">
   <g>
    <g id="_105553265168448">
     <polygon class="fil0" points="169.25,368.51 278.46,496.53 567.98,434.96 486.87,400.79 291.6,470.89 "/>
     <polygon class="fil1" points="169.25,368.51 190.93,216.11 374.37,206.29 335.39,471.6 289.67,482.12 "/>
     <polygon class="fil2" points="511.07,289.75 478.87,438.59 335.39,471.6 374.37,206.29 "/>
     <polygon class="fil3" points="190.93,216.11 314.23,310.76 289.67,482.12 169.25,368.51 "/>
     <g>
      <path class="fil3" d="M353.49 361.87c24.92,10.56 42.43,-2.66 39.12,-29.52 -3.32,-26.86 -26.21,-57.19 -51.13,-67.75 -24.92,-10.56 -42.43,2.66 -39.12,29.52 3.32,26.86 26.21,57.19 51.13,67.75z"/>
      <path class="fil4" d="M362.89 354.77c24.92,10.56 42.43,-2.66 39.12,-29.52 -3.32,-26.86 -26.21,-57.19 -51.13,-67.75 -24.92,-10.56 -42.43,2.66 -39.12,29.52 3.32,26.86 26.21,57.2 51.13,67.76z"/>
      <path class="fil5" d="M361.46 343.08c18.93,8.02 32.23,-2.02 29.71,-22.42 -2.52,-20.4 -19.9,-43.44 -38.83,-51.46 -18.93,-8.02 -32.23,2.02 -29.71,22.42 2.52,20.4 19.9,43.44 38.83,51.46z"/>
      <g>
       <path class="fil6" d="M341.71 307.6c-0.24,-0.39 -0.62,-1.03 -1.24,-2.12 -0.62,-1.1 -1.47,-2.65 -1.63,-4.42 -0.16,-1.76 0.37,-3.73 1.11,-4.9 0.73,-1.17 1.66,-1.53 2.51,-1.91 0.85,-0.38 1.61,-0.79 1.99,-1.17 0.37,-0.38 0.35,-0.74 0.32,-1.17 -0.03,-0.43 -0.05,-0.93 -0.19,-1.45 -0.14,-0.51 -0.39,-1.04 -0.54,-1.55 -0.15,-0.51 -0.19,-1.01 -0.14,-1.47 0.05,-0.47 0.2,-0.91 0.4,-1.26 0.21,-0.35 0.48,-0.62 0.85,-0.86 0.37,-0.24 0.85,-0.46 1.25,-0.6 0.4,-0.14 0.72,-0.2 1.03,-0.22 0.31,-0.02 0.6,0.01 0.92,0.12 0.32,0.1 0.68,0.28 1.01,0.51 0.33,0.23 0.64,0.51 0.9,0.79 0.26,0.28 0.47,0.55 0.65,0.82 0.19,0.26 0.36,0.52 0.66,0.78 0.3,0.26 0.74,0.53 1.13,0.7 0.39,0.17 0.75,0.24 1.57,-0.02 0.82,-0.26 2.12,-0.85 3.02,-1.19 0.9,-0.34 1.42,-0.42 1.84,-0.44 0.42,-0.02 0.74,0.02 1.2,0.13 0.46,0.11 1.05,0.3 1.59,0.54 0.54,0.24 1.02,0.52 1.5,0.86 0.48,0.34 0.94,0.73 1.3,1.09 0.36,0.36 0.62,0.68 2.88,4.42 2.26,3.73 6.51,10.86 9.21,15.37 2.7,4.51 3.84,6.39 4.46,7.5 0.62,1.11 0.7,1.46 0.71,1.85 0,0.39 -0.08,0.84 -0.2,1.13 -0.12,0.29 -0.28,0.42 -0.52,0.5 -0.24,0.08 -0.56,0.1 -6.48,-2.81 -5.92,-2.91 -17.45,-8.75 -23.56,-11.86 -6.11,-3.11 -6.8,-3.49 -7.35,-3.72 -0.56,-0.23 -0.98,-0.31 -1.35,-0.28 -0.37,0.03 -0.69,0.17 -0.98,0.4 -0.28,0.23 -0.53,0.57 -0.67,1.03 -0.14,0.46 -0.17,1.05 -0.13,1.54 0.03,0.5 0.13,0.9 0.28,1.32 0.15,0.41 0.34,0.83 0.54,1.28 0.21,0.45 0.43,0.94 0.48,1.11 0.05,0.17 -0.06,0.01 -0.3,-0.38l-0 0zm4.13 -19.04c-0.25,-0.73 0.21,-1.17 0.44,-1.37 0.22,-0.2 0.54,-0.39 0.87,-0.52 0.33,-0.12 1.24,-0.13 1.75,0.48 2.07,2.48 3.29,2.14 3.26,2.2 -0.86,1.66 -5.97,3.32 -5.92,3 0.26,-1.76 -0.25,-3.37 -0.4,-3.8l-0 -0z"/>
       <path class="fil6" d="M358.03 308.76c-0.72,3.03 -1.72,7.75 -2.3,10.6 -0.64,3.16 -0.78,4.02 -0.96,4.54 -0.18,0.51 -0.39,0.67 -0.61,0.8 -0.22,0.13 -0.44,0.23 -0.68,0.27 -0.24,0.04 -0.51,0.01 -0.78,-0.08 -0.27,-0.09 -0.55,-0.24 -0.73,-0.35 -0.19,-0.11 -0.28,-0.19 -2.23,-3.46 -1.95,-3.26 -5.76,-9.71 -7.79,-13.3 -0.09,-0.23 -0.25,-0.58 -0.4,-0.9 -0.21,-0.45 -0.4,-0.87 -0.54,-1.28 -0.15,-0.41 -0.24,-0.82 -0.28,-1.32 -0.03,-0.5 -0,-1.08 0.13,-1.54 0.14,-0.46 0.39,-0.79 0.67,-1.03 0.29,-0.23 0.61,-0.37 0.98,-0.4 0.37,-0.03 0.8,0.05 1.35,0.28 0.56,0.23 1.24,0.61 7.35,3.72 1.87,0.95 4.25,2.16 6.82,3.46l0 0z"/>
       <path class="fil6" d="M359.52 287.94c0.31,-0.04 0.75,-0.07 1.31,0.05 0.56,0.12 1.25,0.39 1.81,0.71 0.55,0.32 0.97,0.68 1.29,1.02 0.33,0.34 0.56,0.64 0.79,1.03 0.23,0.38 0.46,0.85 0.53,1.02 0.07,0.17 -0.02,0.05 -0.28,-0.21 -0.26,-0.26 -0.7,-0.66 -1.17,-1.04 -0.47,-0.38 -0.98,-0.74 -1.5,-1.05 -0.52,-0.32 -1.04,-0.59 -1.48,-0.78 -0.43,-0.19 -0.78,-0.3 -1.1,-0.38 -0.32,-0.08 -0.61,-0.14 -0.66,-0.2 -0.05,-0.06 0.14,-0.12 0.45,-0.16l-0 0z"/>
       <path class="fil6" d="M354.1 325.73l0 0c0.72,-0.35 1.71,0.03 2.2,0.86l1.18 1.99c0.49,0.83 0.31,1.79 -0.42,2.14l0 0c-0.72,0.35 -1.71,-0.03 -2.2,-0.86l-1.18 -1.99c-0.49,-0.83 -0.31,-1.79 0.42,-2.14z"/>
       <path class="fil6" d="M357.26 330.12c-0.08,0.14 -0.2,0.25 -0.35,0.32l0 0c-0.58,0.29 -1.45,-0.14 -1.93,-0.95l-0.03 -0.04c0.69,0.71 1.59,1.03 2.25,0.71l0 0c0.02,-0.01 0.04,-0.02 0.06,-0.03l0 0z"/>
      </g>
     </g>
     <g>
      <path class="fil3" d="M441.68 306.34c26.85,-3.4 35.34,-23.63 18.97,-45.18 -16.37,-21.55 -51.41,-36.26 -78.26,-32.86 -26.85,3.4 -35.34,23.63 -18.97,45.18 16.37,21.55 51.41,36.26 78.26,32.86z"/>
      <path class="fil4" d="M446.24 295.48c26.85,-3.4 35.34,-23.63 18.97,-45.18 -16.37,-21.55 -51.41,-36.26 -78.26,-32.86 -26.85,3.4 -35.34,23.63 -18.97,45.18 16.37,21.55 51.41,36.26 78.26,32.86z"/>
      <path class="fil7" d="M439.12 286.09c20.39,-2.58 26.84,-17.95 14.41,-34.32 -12.43,-16.37 -39.05,-27.54 -59.44,-24.96 -20.39,2.59 -26.84,17.95 -14.41,34.32 12.43,16.37 39.05,27.54 59.44,24.96z"/>
      <g>
       <path class="fil6" d="M404.21 265.35c-0.41,-0.22 -1.05,-0.58 -2.14,-1.21 -1.08,-0.64 -2.6,-1.55 -3.63,-3 -1.03,-1.44 -1.55,-3.41 -1.51,-4.79 0.05,-1.38 0.67,-2.16 1.21,-2.92 0.54,-0.76 1,-1.49 1.13,-2.01 0.13,-0.52 -0.07,-0.81 -0.31,-1.17 -0.24,-0.36 -0.51,-0.78 -0.89,-1.15 -0.38,-0.37 -0.86,-0.7 -1.25,-1.07 -0.38,-0.37 -0.67,-0.77 -0.86,-1.2 -0.19,-0.43 -0.29,-0.88 -0.28,-1.29 0,-0.41 0.1,-0.78 0.31,-1.17 0.2,-0.4 0.5,-0.82 0.78,-1.14 0.27,-0.32 0.52,-0.54 0.78,-0.71 0.26,-0.17 0.52,-0.29 0.85,-0.36 0.33,-0.07 0.73,-0.09 1.13,-0.06 0.4,0.03 0.81,0.12 1.17,0.23 0.36,0.11 0.68,0.24 0.97,0.38 0.3,0.13 0.57,0.27 0.96,0.34 0.39,0.07 0.91,0.09 1.34,0.04 0.43,-0.05 0.77,-0.17 1.35,-0.81 0.58,-0.64 1.4,-1.8 2.01,-2.54 0.61,-0.74 1.02,-1.07 1.37,-1.3 0.35,-0.23 0.65,-0.36 1.1,-0.49 0.45,-0.13 1.06,-0.27 1.64,-0.33 0.59,-0.07 1.15,-0.06 1.73,-0.01 0.58,0.05 1.18,0.16 1.67,0.29 0.49,0.13 0.88,0.28 4.71,2.37 3.83,2.09 11.09,6.12 15.69,8.66 4.6,2.54 6.53,3.59 7.62,4.24 1.09,0.65 1.34,0.91 1.54,1.24 0.2,0.34 0.36,0.76 0.4,1.07 0.04,0.31 -0.03,0.51 -0.2,0.69 -0.17,0.19 -0.43,0.37 -7.02,0.83 -6.58,0.46 -19.48,1.21 -26.32,1.6 -6.84,0.38 -7.63,0.4 -8.22,0.48 -0.6,0.08 -1,0.23 -1.31,0.44 -0.31,0.21 -0.52,0.49 -0.64,0.84 -0.13,0.35 -0.18,0.76 -0.07,1.23 0.11,0.47 0.38,0.99 0.66,1.4 0.28,0.41 0.57,0.71 0.9,1 0.33,0.28 0.71,0.55 1.11,0.84 0.41,0.29 0.84,0.6 0.97,0.72 0.13,0.12 -0.05,0.04 -0.46,-0.18l-0 0zm-6 -18.54c-0.58,-0.51 -0.4,-1.12 -0.31,-1.41 0.09,-0.29 0.27,-0.61 0.49,-0.88 0.22,-0.27 1.01,-0.74 1.76,-0.46 3.04,1.1 3.92,0.19 3.92,0.26 0.1,1.87 -3.49,5.87 -3.61,5.57 -0.66,-1.65 -1.91,-2.79 -2.25,-3.08l-0 0z"/>
       <path class="fil6" d="M418.9 258.15c0.9,2.98 2.41,7.56 3.34,10.32 1.03,3.05 1.35,3.87 1.45,4.4 0.11,0.53 -0,0.78 -0.13,1 -0.12,0.22 -0.26,0.42 -0.45,0.57 -0.19,0.15 -0.44,0.26 -0.72,0.32 -0.28,0.06 -0.59,0.07 -0.81,0.07 -0.22,-0 -0.34,-0.02 -3.67,-1.87 -3.33,-1.84 -9.86,-5.5 -13.42,-7.58 -0.2,-0.15 -0.51,-0.37 -0.8,-0.58 -0.41,-0.29 -0.78,-0.55 -1.11,-0.84 -0.33,-0.28 -0.62,-0.59 -0.9,-1 -0.28,-0.41 -0.55,-0.93 -0.66,-1.4 -0.11,-0.47 -0.06,-0.88 0.07,-1.23 0.13,-0.35 0.34,-0.63 0.64,-0.84 0.31,-0.21 0.71,-0.36 1.31,-0.44 0.6,-0.08 1.38,-0.1 8.22,-0.48 2.1,-0.12 4.76,-0.27 7.64,-0.44l0 0z"/>
       <path class="fil6" d="M409.72 239.41c0.25,-0.19 0.61,-0.44 1.16,-0.61 0.55,-0.18 1.28,-0.29 1.92,-0.3 0.64,-0 1.18,0.1 1.63,0.23 0.45,0.13 0.81,0.27 1.2,0.49 0.39,0.22 0.83,0.5 0.97,0.61 0.15,0.11 0.01,0.06 -0.35,-0.04 -0.36,-0.09 -0.94,-0.22 -1.54,-0.31 -0.6,-0.09 -1.22,-0.14 -1.83,-0.16 -0.61,-0.01 -1.2,0.01 -1.67,0.07 -0.47,0.05 -0.82,0.13 -1.14,0.22 -0.32,0.09 -0.6,0.18 -0.67,0.16 -0.07,-0.02 0.06,-0.17 0.31,-0.36l0 0z"/>
       <path class="fil6" d="M424.04 274.8l0 0c0.45,-0.67 1.49,-0.83 2.34,-0.36l2.02 1.12c0.84,0.47 1.17,1.39 0.72,2.06l0 0c-0.45,0.67 -1.49,0.83 -2.34,0.36l-2.02 -1.12c-0.84,-0.47 -1.17,-1.39 -0.72,-2.06z"/>
       <path class="fil6" d="M428.98 277c-0,0.16 -0.05,0.32 -0.14,0.45l0 0c-0.36,0.54 -1.33,0.61 -2.15,0.15l-0.05 -0.03c0.95,0.27 1.89,0.09 2.3,-0.52l0 0c0.01,-0.02 0.02,-0.04 0.04,-0.06l0 0z"/>
      </g>
     </g>
     <polygon class="fil8" points="511.07,289.75 478.87,438.59 289.67,482.12 314.23,310.76 "/>
     <polygon class="fil4" points="301.33,400.78 300.2,408.63 181.12,285.07 182.24,277.21 "/>
     <polygon class="fil4" points="298.84,418.18 297.71,426.03 178.64,302.49 179.76,294.63 "/>
     <polygon class="fil4" points="177.28,312.05 296.34,435.58 295.21,443.44 176.16,319.91 "/>
     <polygon class="fil4" points="169.25,368.51 169.85,364.31 220.48,416.85 "/>
     <polygon class="fil4" points="303.82,383.38 302.7,391.23 183.6,267.65 184.71,259.8 "/>
     <polygon class="fil4" points="311.31,331.17 310.18,339.02 193.96,218.44 227.37,244.08 "/>
     <polygon class="fil4" points="173.69,337.33 174.8,329.47 293.85,452.99 292.72,460.84 "/>
     <polygon class="fil4" points="171.21,354.75 172.33,346.89 291.35,470.39 290.23,478.24 "/>
     <polygon class="fil4" points="313.8,313.77 312.68,321.62 268,275.27 301.41,300.91 "/>
     <polygon class="fil4" points="308.81,348.58 307.69,356.43 188.55,232.82 189.67,224.96 "/>
     <polygon class="fil4" points="306.32,365.98 305.19,373.83 186.07,250.23 187.19,242.38 "/>
     <polygon class="fil9" points="304.81,376.47 432.9,298.09 447.42,296.54 303.66,384.51 "/>
     <polygon class="fil9" points="302.26,394.3 465.09,294.65 479.62,293.1 301.11,402.34 "/>
     <polygon class="fil9" points="299.7,412.13 497.28,291.22 511.07,289.75 510.98,290.17 298.55,420.17 "/>
     <polygon class="fil9" points="297.15,429.95 508.76,300.46 506.93,308.92 296,437.99 "/>
     <polygon class="fil9" points="309.92,340.82 368.51,304.96 383.04,303.41 308.77,348.86 "/>
     <polygon class="fil9" points="350.85,306.85 311.33,331.03 312.48,322.99 336.32,308.4 "/>
     <polygon class="fil9" points="307.37,358.64 400.71,301.53 415.23,299.98 306.22,366.69 "/>
     <polygon class="fil9" points="420.57,452 484.42,412.93 482.59,421.39 439.78,447.58 "/>
     <polygon class="fil9" points="377.98,461.8 488.48,394.19 486.65,402.64 397.2,457.38 "/>
     <polygon class="fil9" points="478.87,438.59 463.16,442.21 480.36,431.68 "/>
     <polygon class="fil9" points="294.59,447.78 504.7,319.21 502.87,327.66 293.44,455.82 "/>
     <polygon class="fil9" points="292.04,465.61 500.64,337.95 498.81,346.41 290.88,473.65 "/>
     <polygon class="fil9" points="335.39,471.6 492.53,375.44 490.7,383.9 354.61,467.18 "/>
     <polygon class="fil9" points="292.81,481.4 496.59,356.7 494.76,365.15 312.02,476.98 "/>
     <polygon class="fil10" points="436.2,297.88 401.5,456.21 373.02,462.42 403.16,300.92 "/>
     <polygon class="fil11" points="436.2,297.88 401.5,456.21 408.59,455.05 "/>
     <polygon class="fil10" points="255.04,264.5 230.16,426.73 212.31,408.03 234.37,249.31 "/>
     <polygon class="fil11" points="255.04,264.5 230.16,426.73 235.67,431.9 "/>
     <polygon class="fil3" points="113.83,345.46 325.09,230.34 337.15,167.12 349.3,103.42 313.66,54.27 128.22,168.43 68.71,293.1 "/>
     <polygon class="fil8" points="113.83,345.46 325.09,230.34 274.7,176.91 68.71,293.1 "/>
     <polygon class="fil4" points="274.7,176.91 313.66,54.27 128.22,168.43 68.71,293.1 "/>
     <polygon class="fil11" points="337.15,167.12 292.85,118.66 96.69,234.71 293.02,122.88 "/>
     <polygon class="fil10" points="292.85,118.66 337.15,167.12 341.77,143.97 300.5,95.5 109.81,205.95 96.69,234.71 "/>
     <polygon class="fil11" points="219.14,112.26 180.69,229.42 227.2,283.71 184.43,227.1 "/>
     <polygon class="fil10" points="227.2,283.71 180.69,229.42 219.14,112.26 189.16,130.72 151.11,246.52 199.03,299.41 "/>
     <path class="fil12" d="M151.62 255.05c0,0 21.32,-3.48 27.63,4.87 2.03,7.93 5.71,33.63 -41.95,58.79 -47.66,25.17 -69.06,-13.72 -69.22,-26.58 6.29,7.97 22.05,18.25 29.1,17.81 -14.22,-11.34 -6.76,-25.96 -6.76,-25.96 0,0 16.01,40.19 41.7,28.94 25.68,-11.25 32,-49.19 19.51,-57.87z"/>
     <path class="fil13" d="M186.11 185.98c0,0 -38.79,28.31 -39.23,44.61 -0.44,16.3 29.95,14.71 33.62,29.4 2.26,9.02 -0.28,17.89 -3.35,22.26 4.19,-9.42 3.24,-19.02 2.22,-21.93 -6.55,-3.97 -11.15,-6 -27.6,-5.06 -0.59,-0.28 -21.05,-20.45 -21.34,-22.05 -0.29,-1.6 3.78,-12.37 3.78,-12.37l20.52 -22.42 15.43 -5.53 15.94 -6.91z"/>
     <path class="fil10" d="M144.04 226.74c-3.57,19.26 30.2,17.13 35.43,33.68 -12.25,-14.34 -51.49,7.51 -61.66,-21.5 -15.39,-43.9 52.94,-45.3 61.38,-56.95 0.72,2.99 1.46,2.62 5.53,4.08 -9.45,8.44 -38.51,28.97 -40.68,40.68z"/>
     <path class="fil13" d="M183.74 184.83c-29.08,12.36 -64.82,-0.25 -84.4,-20.04 38.29,7.94 84.4,20.04 84.4,20.04z"/>
     <path class="fil14" d="M184.27 184.14c0,0 -59.71,27.78 -119.69,-56.39 26.78,-40.6 26.78,-40.6 26.78,-40.6 0,0 26.39,74.91 92.91,96.99z"/>
     <path class="fil13" d="M183.74 184.83c0,0 -32.07,-50.68 -119.33,-56.5 29.12,-4.29 87.85,-10.84 119.33,56.5z"/>
     <path class="fil10" d="M183.74 184.83c0,0 4.58,-62.41 -92.59,-97.63 -16.65,20.05 -26.74,41.13 -26.74,41.13 0,0 80.21,-1.66 119.33,56.5z"/>
     <path class="fil14" d="M205.92 296.24c0,0 -2.4,-11.79 9.83,-21.83 18.85,-15.48 62.16,-22.65 73.36,31.88 10.04,48.91 -54,60.19 -54,60.19 0,0 2.04,-13.54 14.26,-21.69 -18.41,-5.46 -24.02,-16.67 -24.02,-16.67 0,0 21.9,1.19 34.5,-5.68 10.95,-5.97 8.3,-24.02 -4.37,-26.64 -23.48,-4.86 -19,19.87 -19,19.87l-30.57 -19.43z"/>
     <path class="fil13" d="M179.34 179.94c0,0 47.59,4.82 76.71,42.21 23.58,30.28 5.12,89.23 -19.56,93.52 13.45,-14.05 28.01,-50.44 20.15,-71.4 -7.86,-20.96 -22.13,-42.5 -39.3,-48.62 -17.18,-6.11 -37.99,-15.72 -37.99,-15.72z"/>
     <path class="fil10" d="M180.74 185.89c0,0 52.82,17.13 57.36,50.18 4.54,33.05 -21.14,55.79 -31.97,60.61 8.07,17.54 30.35,19 30.35,19 0,0 33.22,-17.84 25.93,-69.3 -7.29,-51.46 -83.07,-66.44 -83.07,-66.44l1.41 5.95z"/>
     <path class="fil13" d="M183.02 185.89c0,0 -16.45,-20.36 -12.85,-45.14 0.87,18.67 8.89,40.06 12.85,45.14z"/>
     <path class="fil13" d="M212.96 114c0,0 -21.54,31.88 -29.11,66.23 -7.28,-14.26 14.56,-63.46 29.11,-66.23z"/>
     <path class="fil14" d="M183.05 185.93c0,0 -43.05,-54.44 28.76,-134.02 48.2,18.17 48.2,18.17 48.2,18.17 0,0 -70.47,43.43 -76.96,115.86z"/>
     <path class="fil13" d="M259.89 69.88c0,0 5.69,82.11 -69.93,113.26 32.17,-61.94 24.09,-100.58 21.25,-131 13.68,1.75 48.68,17.74 48.68,17.74z"/>
     <path class="fil10" d="M183.02 185.89c0,0 64.37,-9.55 76.87,-116.01 -24.64,-12.45 -48.73,-18 -48.73,-18 0,0 22.04,81.39 -28.14,134.01z"/>
     <path class="fil13" d="M181.03 179.5c-8.69,0.12 -7.86,9.17 2.86,8.01 10.72,-1.16 7.86,-8.15 -2.86,-8.01z"/>
     <path class="fil10" d="M181.38 179.5c-7.08,0.12 -6.4,9.17 2.33,8.01 8.73,-1.16 6.4,-8.15 -2.33,-8.01z"/>
     <path class="fil3" d="M562.22 227.11c0.76,0 1.51,-0.01 2.26,-0.04 18.11,-0.59 33.83,-8.73 44.27,-22.93 18.77,-25.53 18.36,-69.71 -12.25,-92.3 -49.41,-36.46 -81.28,-0.27 -112.09,34.74 -22.85,25.96 -44.43,50.46 -72.59,47.67 -27.22,-2.71 -45.56,-14.44 -50.32,-32.19 -3.03,-11.3 0.34,-23.14 8.2,-28.79 5.99,-4.31 13.34,-3.99 20.68,0.89 0.48,0.32 1.1,0.31 1.58,-0.01 8.73,-6.02 15.16,0.61 15.43,0.9 0.53,0.57 1.42,0.59 1.99,0.06 0.57,-0.53 0.59,-1.42 0.06,-1.99 -0.08,-0.09 -7.97,-8.23 -18.28,-1.8 -8.03,-5 -16.4,-5.13 -23.1,-0.32 -8.79,6.32 -12.6,19.39 -9.27,31.8 2.4,8.96 12.36,30.24 52.76,34.26 1.53,0.15 3.06,0.23 4.56,0.23 27.44,0 49.27,-24.81 70.43,-48.84 31.35,-35.62 60.97,-69.27 108.31,-34.33 29.28,21.61 29.64,63.91 11.66,88.37 -7.02,9.54 -20.02,21.07 -42.1,21.79 -20.85,0.69 -44.32,-8.45 -69.78,-27.12 -0.63,-0.46 -1.51,-0.32 -1.97,0.3 -0.46,0.63 -0.32,1.51 0.3,1.97 25.08,18.39 48.38,27.7 69.28,27.7z"/>
     <polygon class="fil3" points="77.7,175.61 50.42,167.39 50.42,179.9 "/>
     <polygon class="fil3" points="146.85,87.73 138.11,77.83 136.37,83.65 "/>
     <path class="fil3" d="M117.08 71.91c0.32,0 0.65,-0.11 0.91,-0.34 0.12,-0.1 11.5,-10.09 3.98,-26.29 -2.05,-4.41 -5.48,-6.51 -9.68,-5.89 -0.85,0.12 -1.7,0.35 -2.54,0.67 -0.48,-1.49 -1.1,-2.88 -1.88,-4.09 -2.8,-4.34 -7.24,-5.87 -12.5,-4.3 -1.77,0.53 -3.35,1.19 -4.74,1.95 -3.16,-4.44 -7.01,-7.57 -7.27,-7.79 -0.6,-0.49 -1.49,-0.39 -1.98,0.21 -0.49,0.6 -0.39,1.49 0.21,1.98 0.06,0.05 3.7,3.02 6.66,7.11 -4.48,3.33 -6.36,7.81 -6.51,11.6 -0.15,3.71 1.36,6.84 3.77,7.78 1.23,0.48 3.7,0.78 6.49,-2.52 2.13,-2.52 3.05,-5.43 2.75,-8.65 -0.24,-2.56 -1.25,-5.08 -2.58,-7.36 1.18,-0.63 2.51,-1.17 4,-1.62 4.07,-1.21 7.21,-0.16 9.33,3.13 0.71,1.1 1.27,2.4 1.68,3.81 -5.57,3.31 -10.29,10.04 -11.05,15.31 -0.55,3.83 0.88,6.74 4.04,8.2 2.46,1.14 4.87,0.54 6.8,-1.68 3.37,-3.88 4.94,-12.87 3.48,-20.33 0.75,-0.31 1.51,-0.53 2.25,-0.63 2.92,-0.43 5.19,1.01 6.71,4.29 6.63,14.29 -3.16,22.88 -3.26,22.97 -0.59,0.5 -0.66,1.39 -0.16,1.98 0.28,0.33 0.67,0.49 1.07,0.49zm-9.24 -27.68l0 0c0.99,6.39 -0.28,13.94 -2.99,17.07 -1.43,1.65 -2.68,1.34 -3.49,0.97 -2.01,-0.93 -2.81,-2.64 -2.43,-5.24 0.61,-4.21 4.48,-9.79 8.92,-12.79zm-18.04 -6.73l0 0c1.12,1.94 1.96,4.03 2.15,6.12 0.23,2.47 -0.45,4.62 -2.09,6.56 -1.21,1.44 -2.42,2.06 -3.32,1.71 -1.07,-0.42 -2.1,-2.28 -1.98,-5.04 0.12,-3.02 1.64,-6.59 5.24,-9.34z"/>
     <path class="fil3" d="M341.86 71.71c0.37,0 0.75,-0.05 1.13,-0.15 3.87,-1 7.64,-6.96 8.5,-13.16 3.45,0.85 6.04,3.96 7.54,9.06 0.22,0.75 1,1.17 1.75,0.95 0.75,-0.22 1.17,-1 0.95,-1.75 -2.42,-8.23 -7.12,-10.51 -10.06,-11.1 -0.04,-4.78 -1.9,-12.03 -11.73,-16.01 -0.72,-0.29 -1.54,0.06 -1.83,0.78 -0.29,0.72 0.05,1.54 0.78,1.83 8.17,3.31 9.86,9.21 9.96,13.21 -4.38,0.25 -8.32,2.98 -10.24,5.96 -1.8,2.81 -1.94,5.81 -0.38,8.23 0.9,1.4 2.18,2.14 3.62,2.14zm6.82 -13.5l0 0c-0.83,5.66 -4.24,10.07 -6.4,10.63 -0.5,0.13 -1.09,0.13 -1.68,-0.79 -1.29,-2 -0.31,-4.11 0.38,-5.19 1.42,-2.21 4.41,-4.33 7.69,-4.65z"/>
     <path class="fil15" d="M64.75 96.89c0,0 -5.39,-3.49 -0.68,-9.78 -6.95,3.71 -10.07,0.1 -10.07,0.1 0,0 4.2,7.5 2.11,10.3 5.15,-3.24 8.65,-0.62 8.65,-0.62z"/>
     <path class="fil3" d="M93.21 184.66c2.64,0 2.64,4.1 0,4.1 -2.64,0 -2.64,-4.1 0,-4.1z"/>
     <path class="fil3" d="M36.16 116.92c2.64,0 2.64,4.1 0,4.1 -2.64,0 -2.64,-4.1 0,-4.1z"/>
     <polygon class="fil15" points="324.55,233.98 316.31,237.34 324.95,236.36 328.58,244.25 327.68,235.74 335.42,232.1 326.69,233.25 323.16,225.2 "/>
     <path class="fil15" d="M301.14 242.98c1.76,0 1.76,2.73 0,2.73 -1.76,0 -1.76,-2.73 0,-2.73z"/>
    </g>
   </g>
  </g>
  <polygon class="fil16" points="-0,0 655.63,0 655.63,522.04 -0,522.04 "/>
 </g>
</svg>
