<?xml version="1.0" encoding="UTF-8"?>
<!DOCTYPE svg PUBLIC "-//W3C//DTD SVG 1.1//EN" "http://www.w3.org/Graphics/SVG/1.1/DTD/svg11.dtd">
<!-- Creator: CorelDRAW -->
<svg xmlns="http://www.w3.org/2000/svg" xml:space="preserve" width="3.54847in" height="1.12976in" version="1.1" style="shape-rendering:geometricPrecision; text-rendering:geometricPrecision; image-rendering:optimizeQuality; fill-rule:evenodd; clip-rule:evenodd"
viewBox="0 0 112.18 35.72"
 xmlns:xlink="http://www.w3.org/1999/xlink"
 xmlns:xodm="http://www.corel.com/coreldraw/odm/2003">
 <defs>
  <style type="text/css">
   <![CDATA[
    .str0 {stroke:#8EE2B0;stroke-width:0.22;stroke-miterlimit:2.61313}
    .str1 {stroke:#EFB90B;stroke-width:0.22;stroke-miterlimit:2.61313}
    .fil6 {fill:#70CF97}
    .fil5 {fill:#A7D9BB}
    .fil7 {fill:#EFB90B}
    .fil9 {fill:#FFFEFE}
    .fil1 {fill:#A7D9BB;fill-rule:nonzero}
    .fil4 {fill:url(#id0)}
    .fil3 {fill:url(#id1)}
    .fil2 {fill:url(#id2)}
    .fil0 {fill:url(#id3)}
    .fil8 {fill:url(#id4)}
   ]]>
  </style>
  <linearGradient id="id0" gradientUnits="userSpaceOnUse" x1="26.75" y1="19.45" x2="28.17" y2="16.14">
   <stop offset="0" style="stop-opacity:1; stop-color:#229E54"/>
   <stop offset="1" style="stop-opacity:1; stop-color:#B4FAD1"/>
  </linearGradient>
  <linearGradient id="id1" gradientUnits="userSpaceOnUse" xlink:href="#id0" x1="17.06" y1="9.99" x2="18.85" y2="5.78">
  </linearGradient>
  <linearGradient id="id2" gradientUnits="userSpaceOnUse" xlink:href="#id0" x1="9.97" y1="26.7" x2="12.37" y2="21.07">
  </linearGradient>
  <linearGradient id="id3" gradientUnits="userSpaceOnUse" x1="25.9" y1="31.43" x2="7.57" y2="1.19">
   <stop offset="0" style="stop-opacity:1; stop-color:#E8FCF0"/>
   <stop offset="1" style="stop-opacity:1; stop-color:white"/>
  </linearGradient>
  <linearGradient id="id4" gradientUnits="userSpaceOnUse" x1="102.37" y1="31.43" x2="84.03" y2="1.19">
   <stop offset="0" style="stop-opacity:1; stop-color:#FAF2D7"/>
   <stop offset="1" style="stop-opacity:1; stop-color:white"/>
  </linearGradient>
 </defs>
 <g id="Layer_x0020_1">
  <metadata id="CorelCorpID_0Corel-Layer"/>
  <g id="_105553133344736">
   <circle class="fil0 str0" cx="17.86" cy="17.86" r="17.75"/>
   <path class="fil1" d="M16.6 7.85c-0.75,0.1 -1.47,0.27 -2.17,0.54l0.15 0.41c0.68,-0.25 1.36,-0.42 2.08,-0.51l-0.06 -0.44zm-4.17 1.55c-0.63,0.41 -1.2,0.9 -1.72,1.44l0.32 0.3c0.49,-0.52 1.05,-0.98 1.64,-1.38l-0.24 -0.37zm-3.06 3.23c-0.38,0.65 -0.68,1.33 -0.91,2.05l0.42 0.13c0.21,-0.68 0.5,-1.34 0.87,-1.96l-0.38 -0.22zm-1.33 4.25c-0.05,0.71 -0.03,1.53 0.09,2.24l0.43 -0.07c-0.11,-0.69 -0.13,-1.45 -0.08,-2.14l-0.44 -0.03zm0.68 4.4c0.28,0.7 0.64,1.35 1.07,1.97l0.36 -0.25c-0.41,-0.59 -0.75,-1.21 -1.02,-1.88l-0.41 0.16zm2.55 3.65c0.56,0.5 1.17,0.94 1.82,1.3l0.21 -0.38c-0.63,-0.35 -1.21,-0.77 -1.74,-1.24l-0.29 0.33zm3.89 2.16c0.72,0.2 1.46,0.33 2.21,0.36l0.02 -0.44c-0.73,-0.04 -1.41,-0.15 -2.11,-0.35l-0.12 0.42zm4.45 0.22c0.74,-0.13 1.46,-0.35 2.15,-0.64l-0.18 -0.4c-0.68,0.28 -1.33,0.48 -2.05,0.62l0.08 0.43zm4.09 -1.76c0.6,-0.43 1.16,-0.97 1.64,-1.52l-0.33 -0.29c-0.46,0.53 -1,1.04 -1.57,1.46l0.26 0.35zm2.9 -3.38c0.35,-0.66 0.61,-1.37 0.8,-2.09l-0.43 -0.11c-0.18,0.69 -0.43,1.36 -0.77,2l0.39 0.2zm1.11 -4.31c0.02,-0.75 -0.05,-1.5 -0.2,-2.23l-0.43 0.09c0.14,0.71 0.2,1.41 0.19,2.13l0.44 0.01zm-0.9 -4.36c-0.32,-0.69 -0.7,-1.32 -1.16,-1.91l-0.35 0.27c0.44,0.57 0.81,1.18 1.11,1.83l0.4 -0.19zm-2.73 -3.52c-0.59,-0.48 -1.2,-0.87 -1.89,-1.21l-0.19 0.39c0.65,0.32 1.24,0.7 1.8,1.16l0.28 -0.34zm-4 -1.96c-0.78,-0.16 -1.42,-0.25 -2.23,-0.25l0 0.44c0.77,0 1.38,0.09 2.13,0.24l0.1 -0.43z"/>
   <circle class="fil2" cx="11.29" cy="24.34" r="3.82"/>
   <circle class="fil3" cx="18.04" cy="8.22" r="2.85"/>
   <circle class="fil4" cx="27.53" cy="18.06" r="2.24"/>
   <path class="fil5" d="M48.01 15.2l3.47 2.07c0.34,0.22 0.3,0.42 0,0.6l-3.47 2.35c-0.26,0.18 -0.58,-0.26 -0.58,-0.58l0 -3.87c0,-0.32 0.3,-0.74 0.58,-0.58z"/>
   <path class="fil6" d="M55.13 15.2l3.47 2.07c0.34,0.22 0.3,0.42 0,0.6l-3.47 2.35c-0.26,0.18 -0.58,-0.26 -0.58,-0.58l0 -3.87c0,-0.32 0.3,-0.74 0.58,-0.58z"/>
   <path class="fil7" d="M62.26 15.2l3.47 2.07c0.34,0.22 0.3,0.42 0,0.6l-3.47 2.35c-0.26,0.18 -0.58,-0.26 -0.58,-0.58l0 -3.87c0,-0.32 0.3,-0.74 0.58,-0.58z"/>
   <circle class="fil8 str1" cx="94.33" cy="17.86" r="17.75"/>
   <g>
    <path class="fil7" d="M86.97 17.46c0,1.38 0.08,2.33 0.69,3.56 0.39,0.79 0.85,1.46 1.45,2.05 1.16,1.16 3.05,2.14 4.81,2.14 1.38,0 2.33,-0.08 3.56,-0.69 0.79,-0.39 1.46,-0.85 2.05,-1.45 1.16,-1.16 2.14,-3.05 2.14,-4.81 0,-1.38 -0.08,-2.33 -0.69,-3.56 -0.39,-0.79 -0.85,-1.46 -1.45,-2.05 -1.16,-1.16 -3.05,-2.14 -4.81,-2.14 -1.38,0 -2.33,0.08 -3.56,0.69 -1.57,0.78 -2.7,1.89 -3.48,3.47 -0.32,0.65 -0.71,1.85 -0.71,2.8z"/>
    <path class="fil9" d="M91.71 16.39l0 1.1 1.63 0.95 0 1.89c0.1,0.07 0.87,0.54 0.94,0.54 0.1,0.01 0.85,-0.45 0.97,-0.54l0.01 -1.89c0.25,-0.13 0.54,-0.32 0.8,-0.46 0.27,-0.16 0.58,-0.32 0.83,-0.49l0.01 -1.1c-0.29,-0.17 -0.62,-0.4 -0.96,-0.56 -0.26,0.13 -1.48,0.9 -1.62,0.91 -0.14,0.01 -1.4,-0.77 -1.65,-0.91 -0.32,0.16 -0.68,0.38 -0.95,0.57z"/>
    <path class="fil9" d="M90.08 20.33l1.26 0.75c0.42,0.24 0.92,0.57 1.34,0.76l0 -1.12c-0.42,-0.12 -1.14,-0.7 -1.64,-0.89l-0 -1.94c-0.25,-0.15 -0.72,-0.44 -0.96,-0.53l-0.01 2.97z"/>
    <path class="fil9" d="M91.74 14.47c0.12,0.13 0.42,0.27 0.6,0.38 0.33,0.21 0.31,0.21 0.64,-0 0.36,-0.23 0.91,-0.57 1.29,-0.74 0.21,0.05 1.08,0.58 1.31,0.72 0.33,0.2 0.31,0.25 0.64,0.04 0.17,-0.11 0.51,-0.27 0.63,-0.4 -0.15,-0.13 -2.47,-1.46 -2.54,-1.46 -0.11,-0.01 -2.39,1.31 -2.57,1.46z"/>
    <path class="fil9" d="M97.57 17.89l-0.01 1.93c-0.5,0.17 -1.2,0.77 -1.64,0.89l-0 1.13c0.43,-0.19 0.92,-0.51 1.3,-0.74l1.28 -0.77 0.01 -2.97c-0.24,0.09 -0.71,0.38 -0.94,0.53z"/>
    <path class="fil9" d="M90.08 15.5l0 1.06c0.33,0.1 0.6,0.38 0.96,0.52l-0 -1.13c0.2,-0.06 0.72,-0.39 0.91,-0.5 -0.09,-0.12 -0.83,-0.55 -0.95,-0.54 -0.11,0.01 -0.87,0.45 -0.93,0.6z"/>
    <path class="fil9" d="M93.34 22.22c0.14,0.11 0.81,0.54 0.94,0.55 0.14,0.01 0.84,-0.44 0.97,-0.55l0 -1.07c-1.35,0.69 -0.58,0.64 -1.9,0.01l-0.02 1.06z"/>
    <path class="fil9" d="M96.64 15.45c1.11,0.69 0.92,0.19 0.92,1.61 0.3,-0.08 0.66,-0.39 0.95,-0.51l-0 -1.15c-0.19,-0.1 -0.84,-0.51 -0.96,-0.5 -0.13,0.01 -0.8,0.44 -0.91,0.54z"/>
    <path class="fil9" d="M95.93 18.81l-0 1.13c0.27,-0.12 0.72,-0.38 0.96,-0.55l-0 -1.09c-0.21,0.12 -0.74,0.46 -0.96,0.52z"/>
    <path class="fil9" d="M93.37 15.44c0.3,0.18 0.59,0.35 0.9,0.52 0.17,-0.04 0.8,-0.42 0.95,-0.53 -0.07,-0.08 -0.82,-0.53 -0.9,-0.53 -0.12,-0.01 -0.86,0.44 -0.95,0.54z"/>
    <path class="fil9" d="M91.71 19.38c0.19,0.14 0.74,0.46 0.95,0.54l-0 -1.11c-0.23,-0.08 -0.7,-0.39 -0.94,-0.51l-0.01 1.08z"/>
   </g>
  </g>
 </g>
</svg>
