<svg width="19" height="16" viewBox="0 0 19 16" fill="none" xmlns="http://www.w3.org/2000/svg">
<path d="M18.3869 2.57903C17.7254 2.87203 17.0139 3.06753 16.2634 3.16003C17.0264 2.70703 17.6134 1.98453 17.8889 1.13103C17.1749 1.54953 16.3839 1.85703 15.5424 2.01903C14.8704 1.30653 13.9119 0.864532 12.8499 0.864532C10.8099 0.864532 9.15638 2.50353 9.15638 4.52453C9.15638 4.81053 9.18988 5.08903 9.25288 5.35953C6.18388 5.20553 3.46188 3.74653 1.64088 1.53253C1.32088 2.07353 1.14088 2.70703 1.14088 3.37553C1.14088 4.64603 1.79138 5.76453 2.78338 6.42353C2.17788 6.40503 1.60788 6.23653 1.10888 5.96653C1.10888 5.97753 1.10888 5.99403 1.10888 6.00953C1.10888 7.78503 2.38238 9.26353 4.07038 9.60003C3.76188 9.68453 3.43588 9.73153 3.09988 9.73153C2.86138 9.73153 2.62888 9.70453 2.40388 9.66403C2.87388 11.115 4.23738 12.1755 5.85288 12.207C4.58888 13.187 2.99688 13.774 1.26588 13.774C0.966876 13.774 0.674376 13.757 0.385376 13.722C2.02088 14.7575 3.96288 15.3645 6.04738 15.3645C12.8399 15.3645 16.5559 9.78653 16.5559 4.94753C16.5559 4.78903 16.5509 4.63103 16.5434 4.47503C17.2684 3.96303 17.8934 3.31703 18.3869 2.57903Z" fill="#03A9F4"/>
</svg>
