<?xml version="1.0" encoding="UTF-8"?>
<!DOCTYPE svg PUBLIC "-//W3C//DTD SVG 1.1//EN" "http://www.w3.org/Graphics/SVG/1.1/DTD/svg11.dtd">
<!-- Creator: CorelDRAW -->
<svg xmlns="http://www.w3.org/2000/svg" xml:space="preserve" width="1.3148in" height="0.938378in" version="1.1" style="shape-rendering:geometricPrecision; text-rendering:geometricPrecision; image-rendering:optimizeQuality; fill-rule:evenodd; clip-rule:evenodd"
viewBox="0 0 45.99 32.83"
 xmlns:xlink="http://www.w3.org/1999/xlink"
 xmlns:xodm="http://www.corel.com/coreldraw/odm/2003">
 <defs>
  <style type="text/css">
   <![CDATA[
    .fil3 {fill:#909294}
    .fil1 {fill:#CCCCCC}
    .fil0 {fill:#E6E6E6}
    .fil4 {fill:white}
    .fil2 {fill:white}
   ]]>
  </style>
 </defs>
 <g id="Layer_x0020_1">
  <metadata id="CorelCorpID_0Corel-Layer"/>
  <g id="_105553137411840">
   <g>
    <path class="fil0" d="M0.3 18.5l0.05 -0.2c0.1,0.63 0.6,1.2 1.11,1.55 0.59,0.41 1.18,0.64 1.88,0.78l0.13 0.01c0.08,0.01 0.16,0.03 0.28,0.05 1.48,0.28 2.99,0.19 4.48,0.19 0.18,0.4 0.31,0.73 0.52,1.12 1.02,1.83 2.49,3.15 4.48,3.92 0.14,0.06 0.46,0.15 0.62,0.19 0.11,0.03 0.21,0.04 0.32,0.07 0.03,0.01 0.16,0.04 0.16,0.04 0.12,0.02 0.16,0.01 0.18,0.01 0.38,0.03 0.71,0.51 0.93,0.74 0.14,0.15 0.31,0.28 0.42,0.4 0.14,0.15 0.22,0.32 0.52,0.28 0.31,-0.04 0.68,-0.53 0.93,-0.77 0.07,-0.06 0.12,-0.14 0.18,-0.2l0.83 -0.57c0.01,-0 0.11,-0.02 0.13,-0.03 0.09,-0.03 0.2,-0.08 0.32,-0.11 0.22,-0.07 0.4,-0.15 0.63,-0.24 1.37,-0.53 2.63,-1.61 3.46,-2.8 0.02,-0.03 0.05,-0.08 0.08,-0.11 0.08,-0.08 0.04,-0.07 0.15,-0.1l0.77 0.98c0.83,0.92 1.93,1.72 3.12,2.17 1.34,0.51 3.09,0.72 4.57,0.42 0.26,-0.05 0.47,-0.1 0.71,-0.15 0.92,-0.21 0.5,-0.56 1.35,0.3 0.1,0.1 0.11,0.15 0.21,0.18l0.1 -0.09c-0.22,-0.27 -0.45,-0.38 -0.62,-0.65 -0.07,-0.1 -0.02,-0.03 -0.06,-0.13 0.2,-0.1 0.31,-0.04 0.54,-0.26 0.05,0.3 -0.1,0.26 0.05,0.49 0.03,0.04 0.2,0.21 0.28,0.3 0.1,-0.06 0.57,-0.5 0.63,-0.62l-0.1 -0.11c-0.14,0.14 -0.35,0.54 -0.56,0.39 -0.28,-0.35 0.21,-0.46 0.16,-0.88 0.01,0.01 0.02,0.01 0.03,0.03 0,0.02 0.04,0.05 0.05,0.06 0.03,0.04 0.05,0.06 0.08,0.08 0.1,-0.14 0.02,-0.08 0.12,-0.15l0.55 -0.41c0,-0 0,-0.02 0,-0.02 0,-0 -0,-0.02 0,-0.02 0.48,0.13 0.13,0.36 -0.07,0.57 -0.05,0.06 -0,0.01 -0.07,0.08 -0.08,0.08 -0,-0.02 -0.08,0.08l0.07 0.11c0.1,-0.05 0.04,-0.02 0.14,-0.1 0.18,-0.15 0.54,-0.42 0.45,-0.68 -0.08,-0.22 -0.21,-0.09 -0.04,-0.33l0.13 0c0.17,0.05 0.09,0.1 0.25,0.21 0.07,-0.04 0.12,-0.07 0.15,-0.17 -0.11,-0.06 -0.22,-0.16 -0.24,-0.31 -0.02,-0.28 0.03,-0.13 0.06,-0.13 0.27,0.01 -0.2,0.09 0.07,0.07 0.05,-0.23 0.03,-0.12 0.1,-0.21 0.28,0.1 0.39,0.26 0.58,0.05l-0.49 -0.34 0.19 -0.03c0.14,-0.04 0.22,-0.3 0.5,0.17 0.13,-0.09 0.05,-0.02 0.16,-0.14 -0.1,-0.09 -0.24,-0.22 -0.32,-0.32 0.06,-0.34 0.22,-0.29 0.35,-0.55 0.26,-0.53 0.33,-0.3 0.88,-1.72 0.23,-0.01 0.34,-0.01 0.56,0.02l1.82 -0.05c1.62,-0.07 3.74,-0.15 4.83,-1.48 0.16,-0.19 0.44,-0.49 0.46,-0.8 0.16,0.14 0.11,-0.04 0.09,0.2 0.51,-0.77 0.39,-3.12 0.18,-4.1 -0.39,-1.86 -1.45,-3.55 -2.88,-4.72 -0.15,-0.13 -0.2,-0.15 -0.33,-0.25 -0.22,-0.17 -0.44,-0.31 -0.7,-0.47 -1.1,-0.66 -2.1,-0.94 -3.54,-1.13 -0.15,-1.21 -0.09,-1.55 -0.56,-2.78 -0.9,-2.35 -2.86,-4.19 -5.25,-4.95 -2.77,-0.88 -5.75,-0.2 -7.87,1.56 -0.86,0.71 -1.55,1.71 -1.63,1.78 -0.39,-0.41 -0.58,-0.92 -1.59,-1.76 -2.23,-1.84 -5,-2.39 -7.86,-1.58 -2.72,0.77 -5.13,3.41 -5.65,6.2 -0.05,0.27 -0.16,1.38 -0.2,1.49 -0.01,0.01 -0.03,0 -0.03,0.02l-0.93 0.15c-4.7,0.95 -7.63,5.55 -6.55,10.03 0.01,0.03 0.02,0.09 0.03,0.12 0.03,0.09 0.02,0.06 0.04,0.11z"/>
    <path class="fil1" d="M0.3 17.45c0.32,1.71 1.56,3.6 2.61,4.54 1.39,1.23 2.62,1.86 4.84,2.15 0.19,1.33 0.04,1.48 0.57,3 1.61,4.64 6.7,6.92 11,5.01 0.8,-0.35 1.49,-0.84 2.12,-1.38 0.32,-0.28 0.57,-0.57 0.87,-0.9 0.28,-0.3 0.48,-0.7 0.75,-1.02l0.74 0.98c2.53,3.24 7.36,4.06 10.97,1.42 1.37,-1 2.37,-2.38 3.01,-4.07 0.25,-0.66 0.43,-1.45 0.52,-2.17 0.05,-0.41 -0.01,-0.81 0.14,-0.87l0.64 -0.11c0.62,-0.11 1.36,-0.33 1.91,-0.6 1.54,-0.76 2.65,-1.7 3.61,-3.22 0.28,-0.44 1.01,-1.82 1.05,-2.45 0.02,-0.25 0.07,-0.06 -0.09,-0.21 -0.02,0.34 -0.31,0.66 -0.46,0.86 -1.1,1.43 -3.21,1.52 -4.83,1.59l-1.82 0.05c-0.22,-0.03 -0.32,-0.04 -0.56,-0.02 -1.28,3.55 -2.13,4.88 -6.3,5.77 -1.48,0.32 -3.23,0.09 -4.57,-0.45 -1.19,-0.48 -2.3,-1.33 -3.12,-2.33l-0.77 -1.05c-0.11,0.03 -0.07,0.02 -0.15,0.11 -0.03,0.03 -0.06,0.09 -0.08,0.12 -3.03,4.65 -6.19,4.65 -9.64,3.22 -1.99,-0.82 -3.46,-2.25 -4.48,-4.21 -0.22,-0.42 -0.34,-0.78 -0.52,-1.2 -1.49,0 -3.01,0.09 -4.48,-0.2 -0.12,-0.02 -0.2,-0.05 -0.28,-0.05l-0.13 -0.01c-0.7,-0.14 -1.29,-0.39 -1.88,-0.83 -0.5,-0.38 -1.01,-0.99 -1.11,-1.67l-0.05 0.21z"/>
   </g>
   <path class="fil2" d="M36.7 17.68c1.29,0 2.71,-0.66 2.68,-1.86 -0.03,-1.27 -1.4,-1.88 -2.68,-1.88 -1.07,0 -2.44,0.71 -2.45,1.87 -0,0.63 0.37,1.06 0.8,1.36 0.35,0.25 1.15,0.51 1.65,0.51z"/>
   <path class="fil2" d="M6.13 16.25c0,1.38 1.3,1.97 2.58,1.97 1.83,0 2.93,-1.24 2.45,-2.37 -0.49,-1.15 -2.15,-1.52 -3.4,-1.21 -0.64,0.16 -1.63,0.86 -1.63,1.61z"/>
   <path class="fil3" d="M22.62 16.81c-2.68,0.22 -3.37,2.08 -2.91,2.62 0.22,0.26 0.71,0.37 1,0.01 0.18,-0.23 0.12,-1.59 3.02,-1.35 0.88,0.07 1.56,0.24 1.84,1.03 0.27,0.76 1.6,0.5 1.13,-0.69 -0.57,-1.44 -2.66,-1.73 -4.08,-1.61z"/>
   <path class="fil3" d="M11.59 12.15c-1.14,0.33 -0.05,2.88 1.28,3.45 1.49,0.64 3.08,-0.07 3.57,-1.84 0.09,-0.33 0.24,-0.91 0.13,-1.24 -0.12,-0.38 -0.62,-0.55 -0.96,-0.32 -0.46,0.31 -0.19,1.41 -0.87,2.04 -0.66,0.62 -1.62,0.18 -1.99,-0.44 -0.42,-0.72 -0.33,-1.9 -1.16,-1.66z"/>
   <path class="fil3" d="M33.91 11.49c-0.81,0.25 -0.23,1.06 -0.93,1.96 -0.5,0.64 -1.5,0.57 -1.99,-0.1 -0.69,-0.94 -0.31,-1.78 -1.05,-1.86 -1.11,-0.13 -0.65,1.31 -0.41,1.87 0.32,0.76 0.74,1.21 1.34,1.52 0.72,0.38 1.63,0.38 2.35,0.01 0.66,-0.34 1.03,-0.89 1.28,-1.63 0.1,-0.3 0.25,-0.91 0.21,-1.24 -0.04,-0.37 -0.38,-0.66 -0.79,-0.53z"/>
   <path class="fil4" d="M32.62 15.76c-0.47,0.91 -1.44,3.55 0.46,3.37 0.94,-0.09 0.73,-1.03 0.48,-1.7 -0.11,-0.29 -0.25,-0.59 -0.42,-0.89l-0.36 -0.62c-0.09,-0.14 -0.04,-0.12 -0.17,-0.17z"/>
  </g>
 </g>
</svg>
