<?xml version="1.0" encoding="UTF-8"?>
<!DOCTYPE svg PUBLIC "-//W3C//DTD SVG 1.1//EN" "http://www.w3.org/Graphics/SVG/1.1/DTD/svg11.dtd">
<!-- Creator: CorelDRAW -->
<svg xmlns="http://www.w3.org/2000/svg" xml:space="preserve" width="1.08398in" height="1.2518in" version="1.1" style="shape-rendering:geometricPrecision; text-rendering:geometricPrecision; image-rendering:optimizeQuality; fill-rule:evenodd; clip-rule:evenodd"
viewBox="0 0 30.9 35.69"
 xmlns:xlink="http://www.w3.org/1999/xlink"
 xmlns:xodm="http://www.corel.com/coreldraw/odm/2003">
 <defs>
  <style type="text/css">
   <![CDATA[
    .fil2 {fill:#909294}
    .fil1 {fill:#CCCCCC}
    .fil0 {fill:#E6E6E6}
    .fil3 {fill:#FEFEFE}
   ]]>
  </style>
 </defs>
 <g id="Layer_x0020_1">
  <metadata id="CorelCorpID_0Corel-Layer"/>
  <g id="_105553209823584">
   <path class="fil0" d="M12.33 34.37c1.26,0.31 2.58,0.58 3.85,0.87 0.57,0.13 1.4,0.37 1.95,0.43 0.8,0.1 1.09,-0.48 1.22,-1.1l1.31 -5.8c0.14,-0.62 0.32,-1.31 0.43,-1.93l-6.73 -1.5 -0.06 0.25c-0.29,-0.07 -0.58,-0.13 -0.87,-0.19 -1.56,-0.31 -3.12,-0.51 -4.33,-0.8 -1.02,-0.24 -1.79,-0.53 -2.36,-0.84 -0.23,-1.53 -0.29,-2.98 -0.33,-3.82 -0.07,-1.46 -0.11,-1.06 -0.29,-0.49 -0.18,0.58 -0.5,1.33 -0.75,1.9 -0.07,0.17 -0.14,0.33 -0.21,0.51 -0.02,-0.05 -0.03,-0.09 -0.05,-0.11 -0.06,-0.06 -0.13,0.17 -0.44,1.48 -0.12,0.49 -0.26,1.14 -0.42,1.83 -0.44,1.75 -0.98,4.08 -1.25,5.39 -0.33,1.59 -0.26,1.68 0.87,1.97 0.67,0.17 1.71,0.41 2.91,0.63 0.21,0.05 0.45,0.11 0.71,0.17 1.28,0.31 3.2,0.75 4.84,1.1l-0.01 0.02z"/>
   <path class="fil0" d="M4.43 24.3c-0.07,0.38 -0.6,2.84 -0.71,3 0.17,0.41 0.35,0.94 0.51,1.39 0.16,0.47 0.35,0.92 0.51,1.39 0.31,0.92 0.76,1.91 1.02,2.84 0.3,-0.01 1.45,0.3 1.81,0.38 0.55,0.13 1.28,0.33 1.82,0.4l2.03 -9.02c-1.08,-0.21 -2.3,-0.51 -3.38,-0.76 -0.57,-0.13 -1.12,-0.25 -1.7,-0.38 -0.47,-0.1 -1.26,-0.24 -1.65,-0.39l-0.26 1.15z"/>
   <path class="fil0" d="M14.65 24.07l0 0.1c0.58,0.09 6.57,1.46 6.67,1.53l0.98 0.2c0.11,-0.21 0.59,-2.5 0.72,-3.06l0.27 -1.03c-0.04,-0.29 0.13,-0.42 -0.03,-0.77 -0.1,-0.22 -0.25,-0.34 -0.51,-0.42 -0.44,-0.12 -1.01,-0.24 -1.46,-0.33l-2.02 -0.47 -3.49 -0.76 -1.12 4.99z"/>
   <path class="fil0" d="M4.39 21.86l0.55 0.13c0.38,0.04 4.29,0.96 5.05,1.12 0.32,0.07 1.48,0.42 1.71,0.3l1.12 -4.99c-0.23,-0.12 -1.41,-0.34 -1.75,-0.42 -0.36,-0.08 -1.47,-0.29 -1.72,-0.41 -0.53,-0.07 -1.16,-0.25 -1.68,-0.37 -0.27,-0.06 -0.55,-0.12 -0.83,-0.19 -0.22,-0.05 -0.64,-0.08 -0.81,-0.22 -0.35,0.04 -0.86,-0.15 -1.07,0.63l-0.96 4.32 0.39 0.09z"/>
   <path class="fil1" d="M0.5 8.43c-0.18,1.07 -0.17,1.71 0.29,2.62 1,1.96 3.65,2.5 5.34,1.18 0.16,-0.12 0.29,-0.25 0.41,-0.38 0.06,-0.07 0.12,-0.11 0.19,-0.2l0.16 -0.26c0.03,-0.12 -0.12,-0.06 0.12,-0.11 0.07,-0.2 0.23,-0.43 0.32,-0.7 0.36,-1.05 0.2,-1.73 -0.11,-2.66l-0.12 -0.12c-0.35,-0.42 0.03,-0.45 -0.98,-1.22 -0.4,-0.3 -0.27,-0.31 -1.02,-0.55 -1.06,-0.33 -2.2,-0.18 -3.02,0.33 -0.61,0.38 -1.01,0.84 -1.33,1.46 -0.05,0.09 -0.11,0.2 -0.14,0.3l-0.09 0.31c-0,-0.01 -0.01,0.02 -0.02,0.03z"/>
   <path class="fil1" d="M21.3 4.26c-0.17,0.76 0.59,1.97 1.15,2.37 2.71,1.95 5,-0.83 4.88,-1.66 0.02,-0.22 0.03,-0.04 0.1,-0.27 0.17,-0.55 -0.06,-1.58 -0.4,-2.11 -1.23,-1.95 -3.7,-1.78 -4.8,-0.66 -0.04,0.04 -0.03,0.03 -0.07,0.1l-0.12 0.2c-0.15,0.15 -0.04,-0.06 -0.19,0.23 -0.1,0.2 -0.11,0.06 -0.24,0.34 0.03,-0.07 -0.29,0.7 -0.29,1.46z"/>
   <path class="fil0" d="M14.77 9.67c-0.32,2.68 2.24,4.37 4.36,3.38 1.12,-0.52 1.26,-1.13 1.46,-1.28 0.21,-0.56 0.42,-0.89 0.4,-1.63 -0.01,-0.31 -0.06,-0.61 -0.14,-0.88 -0.08,-0.27 -0.23,-0.49 -0.31,-0.72 -0.09,-0.09 -0.16,-0.22 -0.24,-0.32 -1.24,-1.51 -3.54,-1.49 -4.72,-0.17 -0.42,0.48 -0.61,0.86 -0.81,1.63z"/>
   <path class="fil1" d="M27.3 14.21c-1.05,0.48 -1.07,0.81 -1.45,1.38 -0.01,0.01 -0.01,0.02 -0.02,0.03 -0.21,0.71 -0.32,1.17 -0.05,1.94 0.22,0.63 0.58,1.02 1.02,1.31 1.14,0.74 2.68,0.42 3.38,-0.4 -0.1,-0.52 -0.02,0.3 0.42,-0.57 0.4,-0.78 0.39,-1.76 -0.03,-2.5 -0.18,-0.32 -0.25,-0.48 -0.6,-0.77 -0.19,-0.16 -0.66,-0.43 -1,-0.49 -0.27,-0.04 -0.13,-0.09 -0.4,-0.08 -0.96,0.04 -0.97,0.01 -1.28,0.14z"/>
   <path class="fil1" d="M10.17 2.49c-0.12,2.42 2.31,3.56 4.02,2.62 0.25,-0.14 0.52,-0.35 0.67,-0.52 0.23,-0.26 0.3,-0.44 0.5,-0.73 0.21,-0.69 0.32,-0.97 0.16,-1.78 -0.22,-0.75 -0.52,-1.13 -0.97,-1.49 -0.47,-0.38 -1.14,-0.64 -1.92,-0.57 -1.35,0.12 -2.32,1.15 -2.46,2.48z"/>
   <path class="fil1" d="M4.7 23.15c0.39,0.14 1.18,0.28 1.65,0.39 0.57,0.13 1.13,0.25 1.7,0.38 1.08,0.25 2.3,0.55 3.38,0.76l0.28 -1.26c-0.23,0.12 -1.39,-0.23 -1.71,-0.3 -0.76,-0.17 -4.66,-1.09 -5.05,-1.12l-0.24 1.16z"/>
   <path class="fil1" d="M14.36 25.36l6.73 1.5 0.24 -1.15c-0.1,-0.07 -6.09,-1.44 -6.67,-1.53l-0 -0.1 -0.3 1.29z"/>
   <path class="fil0" d="M13.79 15.76c-0.13,0.13 -0.42,1.64 -0.51,2.03 -0.03,0.13 -0.05,0.23 -0.08,0.36 -0.02,0.08 -0.07,0.24 -0.03,0.34l1.89 0.43c0.34,0.08 0.42,0.18 0.48,-0.15 0.09,-0.47 0.57,-2.26 0.51,-2.55 -0.08,-0.22 -0.24,-0.27 -0.48,-0.31 -0.23,-0.08 -0.65,-0.15 -0.91,-0.21 -0.31,-0.08 -0.69,-0.24 -0.87,0.06z"/>
   <path class="fil0" d="M26.52 27.32c0.16,0.21 0.48,0.33 0.8,0.45 0.5,0.02 0.87,-0 1.21,-0.26 0.26,-0.19 0.51,-0.5 0.6,-0.9 0.21,-0.94 -0.4,-1.64 -1.12,-1.84l-0.23 -0.03c-0.69,-0.11 -1.27,0.37 -1.49,0.79 -0.36,0.69 -0.15,1.28 0.23,1.77z"/>
   <path class="fil2" d="M-0 10.63c0.09,0.12 0.11,0.42 0.16,0.59 0.92,2.96 4.67,3.27 6.24,1.15 0.11,-0.16 0.21,-0.29 0.31,-0.48 0.06,-0.11 0.25,-0.41 0.17,-0.52l-0.16 0.26c-0.08,0.09 -0.13,0.14 -0.19,0.2 -0.12,0.13 -0.26,0.26 -0.41,0.38 -1.68,1.33 -4.34,0.78 -5.34,-1.18 -0.46,-0.9 -0.47,-1.55 -0.29,-2.62 -0.01,0.01 -0.02,0.02 -0.02,0.02l-0.23 0.42c-0.34,0.88 -0.15,1.17 -0.25,1.76z"/>
   <path class="fil3" d="M16.83 13.98c1.3,0.31 2.58,-0.19 3.31,-1.2l0.41 -0.79c0.04,-0.1 0.08,-0.18 0.04,-0.23 -0.2,0.15 -0.34,0.76 -1.46,1.28 -2.12,0.99 -4.68,-0.7 -4.36,-3.38 -0.05,0.06 -0.03,0.01 -0.09,0.12l-0.15 0.51c-0.06,0.27 -0.08,0.56 -0.06,0.84 0.09,1.33 0.99,2.48 2.36,2.83z"/>
   <path class="fil3" d="M10.76 5.23c0.34,0.41 0.74,0.65 1.29,0.78 0.78,0.19 1.14,0.04 1.8,-0.16 0.2,-0.09 0.4,-0.21 0.55,-0.32 0.21,-0.17 0.29,-0.28 0.44,-0.43 0.19,-0.27 0.55,-0.8 0.53,-1.24 -0.21,0.29 -0.27,0.48 -0.5,0.73 -0.15,0.17 -0.43,0.38 -0.67,0.52 -1.71,0.95 -4.13,-0.2 -4.02,-2.62 -0.28,0.28 -0.18,1.26 -0.1,1.56 0.11,0.45 0.15,0.4 0.28,0.66 0.29,0.58 0.23,0.25 0.41,0.52z"/>
   <path class="fil2" d="M25.31 17.65c0.13,0.56 0.28,0.86 0.56,1.24 0.19,0.26 0.66,0.66 1.12,0.78 0.2,0.16 0.89,0.2 1.19,0.17 0.51,-0.05 0.71,-0.2 1.12,-0.35 0.07,-0.08 0.17,-0.14 0.26,-0.2 0.14,-0.1 0.13,-0.12 0.25,-0.24 0.14,-0.14 0.37,-0.36 0.38,-0.57 -0.7,0.82 -2.25,1.14 -3.38,0.4 -0.44,-0.29 -0.8,-0.69 -1.02,-1.31 -0.27,-0.77 -0.16,-1.23 0.05,-1.94 -0.44,0.64 -0.61,1.06 -0.52,2.02z"/>
   <path class="fil2" d="M21.92 6.59c0.18,0.11 0.57,0.72 1.56,0.99 0.97,0.27 1.41,0.06 2.22,-0.19 0.07,-0.08 0.38,-0.24 0.48,-0.32 0.2,-0.15 0.3,-0.26 0.45,-0.4 0.12,-0.24 0.42,-0.43 0.65,-1.2 0.02,-0.07 0.05,-0.17 0.07,-0.25 0,-0.02 0.02,-0.12 0.02,-0.14 -0.02,-0.26 0.04,0.16 -0.01,-0.06l-0.03 -0.06c0.13,0.84 -2.17,3.61 -4.88,1.66 -0.56,-0.4 -1.31,-1.61 -1.15,-2.37 -0.08,0.1 -0.08,0.18 -0.08,0.31 -0.01,0.92 0.29,1.36 0.7,2.02z"/>
   <path class="fil2" d="M8.4 15.48c0.2,1.42 0.75,1.73 0.94,2.12 0.25,0.12 1.36,0.34 1.72,0.41 0.34,0.07 1.52,0.3 1.75,0.42l-1.12 4.99 -0.28 1.26 -2.03 9.02 2.94 0.67 2.03 -9.01 0.3 -1.29 1.12 -4.99 3.49 0.76c0.27,-0.22 1.65,-0.62 2.09,-2.28 0.14,-0.51 0.16,-0.84 -0.17,-1.14 -0.51,-0.46 -1.68,-0.46 -2.49,-0.43 -0.7,0.03 -1.33,0.11 -2.02,0.2l-0.46 0.07c-0.19,-0 -0.07,0.04 -0.16,-0.05 0.06,0.29 -0.42,2.08 -0.51,2.55 -0.07,0.33 -0.14,0.23 -0.48,0.15l-1.89 -0.43c-0.04,-0.1 0.01,-0.26 0.03,-0.34 0.03,-0.13 0.05,-0.23 0.08,-0.36 0.09,-0.39 0.38,-1.9 0.51,-2.03l-1.44 -0.92c-0.73,-0.44 -2.54,-1.48 -3.38,-1.1 -0.5,0.23 -0.58,1.1 -0.56,1.74z"/>
  </g>
 </g>
</svg>
