<?xml version="1.0" encoding="UTF-8"?>
<!DOCTYPE svg PUBLIC "-//W3C//DTD SVG 1.1//EN" "http://www.w3.org/Graphics/SVG/1.1/DTD/svg11.dtd">
<!-- Creator: CorelDRAW -->
<svg xmlns="http://www.w3.org/2000/svg" xml:space="preserve" width="0.952819in" height="0.952819in" version="1.1" style="shape-rendering:geometricPrecision; text-rendering:geometricPrecision; image-rendering:optimizeQuality; fill-rule:evenodd; clip-rule:evenodd"
viewBox="0 0 4.32 4.32"
 xmlns:xlink="http://www.w3.org/1999/xlink"
 xmlns:xodm="http://www.corel.com/coreldraw/odm/2003">
 <defs>
  <style type="text/css">
   <![CDATA[
    .fil0 {fill:none}
    .fil1 {fill:#201D30}
    .fil2 {fill:url(#id0)}
    .fil4 {fill:url(#id1)}
    .fil3 {fill:url(#id2)}
   ]]>
  </style>
  <linearGradient id="id0" gradientUnits="userSpaceOnUse" x1="1.57" y1="1.47" x2="2.45" y2="3.43">
   <stop offset="0" style="stop-opacity:1; stop-color:#7A5FC0"/>
   <stop offset="1" style="stop-opacity:1; stop-color:#1D0A2D"/>
  </linearGradient>
  <linearGradient id="id1" gradientUnits="userSpaceOnUse" xlink:href="#id0" x1="1.69" y1="2.67" x2="2.33" y2="4.39">
  </linearGradient>
  <linearGradient id="id2" gradientUnits="userSpaceOnUse" xlink:href="#id0" x1="1.69" y1="2.2" x2="2.33" y2="3.92">
  </linearGradient>
 </defs>
 <g id="Layer_x0020_1">
  <metadata id="CorelCorpID_0Corel-Layer"/>
  <g id="_105553462913696">
   <rect class="fil0" width="4.32" height="4.32"/>
   <g>
    <path class="fil1" d="M0.99 1.28c0,0.43 0.23,0.82 0.59,1.03 0.23,0.14 0.55,0.2 0.84,0.13 0.15,-0.04 0.28,-0.09 0.4,-0.18 0.15,-0.1 0.26,-0.22 0.35,-0.38 0.02,-0.04 0.03,-0.06 0.05,-0.1 0.18,-0.37 0.13,-0.81 -0.1,-1.15l-0.16 -0.19c-0.06,-0.05 -0.07,-0.07 -0.16,-0.13 -0.18,-0.11 -0.38,-0.18 -0.59,-0.19l-0.13 0c-0.15,0.01 -0.29,0.04 -0.42,0.11 -0.08,0.04 -0.19,0.11 -0.26,0.17l-0.05 0.05c-0,0 -0,0 -0,0 -0,0 -0,0 -0,0 -0.22,0.22 -0.35,0.5 -0.35,0.82z"/>
    <path class="fil2" d="M0.18 2.1l0.49 0.29c0.4,0.24 0.83,0.48 1.23,0.72l0.25 0.15c0.17,-0.09 0.57,-0.33 0.74,-0.43 0.08,-0.05 0.16,-0.09 0.25,-0.14l0.74 -0.43c0.02,-0.01 0.04,-0.02 0.06,-0.03 0.02,-0.01 0.04,-0.03 0.07,-0.04 0.03,-0.02 0.1,-0.06 0.13,-0.07 -0.02,-0.02 -0.14,-0.09 -0.18,-0.11 -0.05,-0.03 -0.51,-0.31 -0.55,-0.31 -0.01,0.12 -0.15,0.33 -0.22,0.43 -0.06,0.08 -0.1,0.11 -0.16,0.17 -0.2,0.18 -0.53,0.32 -0.81,0.32 -0.26,0 -0.31,-0.01 -0.54,-0.09 -0.26,-0.09 -0.5,-0.31 -0.64,-0.55 -0.01,-0.02 -0.01,-0.02 -0.02,-0.04 -0.01,-0.02 -0.02,-0.03 -0.03,-0.05 -0.02,-0.04 -0.07,-0.15 -0.07,-0.2 -0.03,0 -0.33,0.19 -0.37,0.21 -0.03,0.02 -0.34,0.19 -0.36,0.22z"/>
    <path class="fil3" d="M0.18 2.57c0.03,0.01 0.1,0.05 0.12,0.07l1.35 0.8c0.04,0.02 0.08,0.05 0.12,0.07 0.11,0.07 0.28,0.16 0.38,0.22 0.04,-0.03 0.08,-0.05 0.12,-0.07 0.52,-0.31 1.08,-0.62 1.6,-0.94 0.04,-0.02 0.23,-0.14 0.25,-0.14 -0.02,-0.03 -0.26,-0.16 -0.26,-0.16l-1.48 0.87c-0.26,0.16 -0.19,0.16 -0.46,0 -0.07,-0.04 -0.14,-0.08 -0.21,-0.12l-1.16 -0.68c-0.04,-0.02 -0.07,-0.04 -0.11,-0.06 -0.03,0.01 -0.25,0.13 -0.27,0.16z"/>
    <path class="fil4" d="M0.18 3.04c0.02,0.03 1.51,0.89 1.72,1.02 0.03,0.02 0.24,0.14 0.25,0.14 0.02,0 0.44,-0.25 0.49,-0.28 0.08,-0.05 0.16,-0.09 0.25,-0.14l0.37 -0.22c0.18,-0.1 0.45,-0.27 0.62,-0.36 0.04,-0.02 0.08,-0.05 0.12,-0.07 0.03,-0.02 0.11,-0.06 0.12,-0.08l-0.26 -0.15c-0,0 -0,0 -0,0l-1.59 0.93c-0.16,0.1 -0.11,0.07 -0.34,-0.06l-1.38 -0.81c-0.02,-0.01 -0.03,-0.02 -0.05,-0.03l-0.05 -0.03 -0.26 0.15z"/>
   </g>
  </g>
 </g>
</svg>
