<?xml version="1.0" encoding="UTF-8"?>
<!DOCTYPE svg PUBLIC "-//W3C//DTD SVG 1.1//EN" "http://www.w3.org/Graphics/SVG/1.1/DTD/svg11.dtd">
<!-- Creator: CorelDRAW -->
<svg xmlns="http://www.w3.org/2000/svg" xml:space="preserve" width="16.0908in" height="5.38137in" version="1.1" style="shape-rendering:geometricPrecision; text-rendering:geometricPrecision; image-rendering:optimizeQuality; fill-rule:evenodd; clip-rule:evenodd"
viewBox="0 0 1435.44 480.06"
 xmlns:xlink="http://www.w3.org/1999/xlink"
 xmlns:xodm="http://www.corel.com/coreldraw/odm/2003">
 <defs>
  <style type="text/css">
   <![CDATA[
    .fil1 {fill:none}
    .fil0 {fill:white}
   ]]>
  </style>
   <clipPath id="id0">
    <path d="M-0 0l1435.44 0 0 480.06 -1435.44 0 0 -480.06z"/>
   </clipPath>
 </defs>
 <g id="Layer_x0020_1">
  <metadata id="CorelCorpID_0Corel-Layer"/>
  <g>
  </g>
  <g style="clip-path:url(#id0)">
   <g>
    <g id="_105553185167296">
     <g id="_105553190814688">
      <path class="fil0" d="M383.12 179.61l-72.19 0c-0.48,5.85 -4.79,13.79 -6.71,18.5 -4.6,11.22 -22.94,49.33 -23.08,55.98l67.61 -28.65 -81.35 121.46 6.76 -34.48c0.84,-4.15 2.07,-7.33 2.4,-11.35 -5.71,0.12 -53.37,20.18 -60.73,24.07 0.45,-5.49 2.82,-11.8 4.1,-17.67 1.56,-7.19 2.66,-11.64 4.39,-18.54l17.19 -72.19c2.23,-8.92 7.57,-28.66 7.57,-37.13l-69.9 0c0,-12.61 11.46,-37.17 11.46,-52.71l205.11 0c-0.13,5.8 -10.71,44.57 -12.6,52.71l-0.01 0.02zm-148.62 16.04c-0.96,5.5 -2,13.3 -4.92,16.97 -0.24,3.02 -7.16,31.64 -8.02,33.24 0.24,0.62 0.36,0.68 0.4,2.22 0.1,3.87 -1.69,8.01 -3.65,11.72 -1.81,11.82 -5.27,24.03 -7.73,34.37 -0.53,5.03 -1.39,11.45 -3.92,14.65 -1.05,4.99 -2.61,9.02 -3.89,14.69 -1.21,5.36 -2.97,11.05 -2.99,16.5l1.15 3.51c6.92,-0.59 47.97,-19.71 58.16,-23.57l-1.51 5.17 -19.99 82.51c2.59,-0.94 0.93,-0.24 2.73,-1.86l25.46 -35.27c19.98,-30.2 44.19,-62.04 63.95,-91.89 8.26,-12.49 49.64,-70.27 54.54,-79.52 -4.53,0.38 -50.72,20.07 -59.1,23.41 -5.56,2.21 -15.37,7.4 -21.11,7.54 1.34,-2.79 2.26,-6.44 3.29,-9.32 2.82,-7.9 9.86,-22.43 10.46,-29.65l74.48 0c2.66,-5.54 18.33,-69.05 18.33,-76.77l-147.82 0.59 -14.9 -0.6 -65.31 0.01c-2.89,12.44 -6.74,23.95 -9.65,37.33 -2.37,10.91 -7.81,28.97 -8.69,39.45l69.9 0 0.34 4.58 0.02 -0z"/>
      <path class="fil0" d="M257.58 325.13l1.51 -5.17c-10.19,3.86 -51.24,22.99 -58.16,23.57l-1.15 -3.51c-14.75,0.33 -15.7,5.12 -49.28,3.45 -27.24,-1.36 -73.64,-18.85 -82.94,-48.83 -2.36,-7.6 -3,-13.72 -3,-23.36 4.57,3.07 7.56,7.32 11.74,11.19 12.71,11.78 28.06,19.74 45.55,24.35 16.53,4.35 46.7,7.85 63.74,5.27 8.1,-1.23 12.22,-2.49 21.07,-3.24 2.53,-3.2 3.39,-9.61 3.92,-14.65 -5.41,2.09 -41.56,7.5 -49.66,6.86 -15.81,-1.28 -33.83,-4.69 -46.6,-9.62 -14.49,-5.59 -24.58,-11.61 -34.58,-21.57 -9.82,-9.78 -15.17,-21.63 -15.17,-40.98 6.65,4.45 8.76,10.85 27.97,22.45 15.47,9.35 39.62,15.98 59.08,16.54 21.52,0.63 49.07,0.42 66.68,-8.06 1.97,-3.72 3.76,-7.85 3.65,-11.72 -0.04,-1.54 -0.16,-1.6 -0.4,-2.22 -11.19,1.73 -21.58,10.51 -48.08,10.55 -38.03,0.05 -63.76,-4.96 -91.37,-27.88 -12.45,-10.32 -17.52,-25.29 -17.52,-42.06 3.41,0.91 4.67,2.78 7.55,5.05 16.47,13.06 12.65,15.88 42.43,26.32 24.24,8.49 45.57,10.56 72.34,7.28 16.34,-2.01 28.37,-7.92 42.7,-12.52 2.92,-3.67 3.96,-11.49 4.92,-16.97 -18.29,3.74 -39.72,30.1 -108.52,13.08 -27.93,-6.91 -69.06,-32.11 -60,-70.12 2.11,-8.83 9.79,-20.2 15.8,-25.46 12.56,-10.99 20.65,-15.08 37.13,-21.32 25.73,-9.74 63.43,-8.89 86.5,-1.49 12.82,4.12 35.97,14.19 42.51,23.93l14.9 0.6c-2.3,-6.2 -2.68,-7.51 -10.79,-13.86 -5.17,-4.04 -8.35,-6.43 -13.94,-10.12 -8.86,-5.86 -22.37,-10.93 -34.21,-13.92 -46.6,-11.72 -113.42,-1.67 -141.6,40.73 -12.36,18.6 -9.23,34.64 -9.12,63.07 0.03,8.56 -1.18,14.33 -1.17,24.04 0.02,16.04 0.08,32.11 -0.01,48.14 -0.04,6.33 1.7,38.95 3.51,44.61 1.43,4.44 5.61,11.76 8.43,15.64 34.01,46.79 115.89,53.18 162.63,30.67 18.78,-9.04 26.33,-16.75 31.05,-18.73l-0.04 -0.01z"/>
      <path class="fil0" d="M651.25 211.69l0 74.48c0,4.89 4.4,3.44 14.9,3.44 5.53,0 3.44,-10.09 3.44,-20.63 0,-8.4 0,-16.81 0,-25.21 4.83,3.54 12.94,22.01 17.85,30.28 7.75,13.08 6.72,15.55 21.11,15.55 2.64,0 3.44,-0.79 3.44,-3.44l0 -74.48c0,-4.67 -3.59,-3.44 -12.6,-3.44 -5.56,0 -3.44,10.81 -3.44,21.77 0,8.78 0,17.57 0,26.35 -8.66,-6.34 -24.64,-48.12 -29.79,-48.12 -10.5,0 -14.9,-1.45 -14.9,3.44l-0.01 -0z"/>
      <path class="fil0" d="M1123.34 244.92l-16.04 0 0 -21.77c21.6,0 21.77,-1.08 21.77,16.04 0,2.68 -3.06,5.73 -5.73,5.73l-0 0zm-32.09 -33.23l0 74.48c0,4.99 4.86,3.44 16.04,3.44l0 -29.79c16.9,0 9.33,-1.77 17.94,15.29 1.48,2.93 2.65,5.04 3.78,7.68 3.39,7.91 0.94,6.82 16.09,6.82 7.51,0 -0.91,-13.43 -2.44,-17.05 -1.45,-3.42 -2.72,-4.85 -4.45,-8.15 -1.57,-3.02 -2.97,-6.17 -4.57,-9.18 6.78,-3.59 8.59,-3.72 11.35,-11.57 2.32,-6.57 2.39,-12.45 0.01,-19.27 -6.7,-19.24 -28.84,-16.14 -50.33,-16.14 -2.64,0 -3.44,0.79 -3.44,3.44l0.01 0.01z"/>
      <path class="fil0" d="M1323.86 289.61l17.19 0 0 -34.37 26.35 0 0 30.94c0,4.99 4.86,3.44 16.04,3.44l0 -81.35c-20.57,0 -16.04,-5.85 -16.04,32.09l-26.35 0 0 -32.09 -17.19 0 0 81.35 0 -0.01z"/>
      <path class="fil0" d="M1008.76 244.92c0,65.19 60.73,42.46 60.73,30.93l0 -27.51c0,-5.82 -10.52,-3.44 -26.35,-3.44 -4.89,0 -3.44,4.4 -3.44,14.9l13.75 0c0,10.16 2.13,14.9 -11.46,14.9 -6.66,0 -10.23,-2.61 -12.61,-6.87 -3.43,-6.12 -9.04,-44.7 11.47,-44.7 16.27,0 8.44,13.75 17.19,13.75l11.46 0c-0.9,-40.24 -60.73,-38.09 -60.73,8.02l-0.01 0.01z"/>
      <path class="fil0" d="M807.09 211.69l0 74.48c0,2.64 0.79,3.44 3.44,3.44l43.54 0c4.89,0 3.44,-4.4 3.44,-14.9l-32.09 0 0 -19.48 27.51 0c0,-18.84 4.93,-14.9 -27.51,-14.9l0 -17.19 32.09 0c0,-19.91 7.76,-14.9 -46.98,-14.9 -2.65,0 -3.44,0.79 -3.44,3.44l0 0z"/>
      <path class="fil0" d="M543.54 250.65c0,-37.57 29.79,-32.76 29.79,-8.02 0,9.77 1.01,24.36 -8.32,29.5 -7.71,4.26 -13.58,2.53 -17.72,-5.76 -1.97,-3.94 -3.76,-10.2 -3.76,-15.72zm12.6 -41.25c-7.52,1.73 -6.37,-0.56 -13.1,4.08 -12.96,8.91 -16.97,21.6 -14.72,38.63 1.12,8.49 0.26,18.58 8.03,27.5 11.81,13.53 37.83,13.15 47.5,-4.68 16.81,-30.97 -1.34,-71.6 -27.71,-65.52l0.01 -0z"/>
      <path class="fil0" d="M942.3 289.61l50.42 0 0 -14.9 -33.23 0 0 -19.48 27.51 0c0,-6.54 1.14,-7.93 1.14,-14.9l-28.65 0 0 -17.19 33.23 0 0 -14.9 -50.42 0 0 81.35 0 0z"/>
      <path class="fil0" d="M1195.53 233.46l4.44 11.6c1.31,3.64 3.21,9.3 4.72,12.46l-16.04 0c2.02,-8.67 4.86,-15.4 6.88,-24.07l0 0.01zm-33.23 56.14c25.83,0 12.88,0.77 21.77,-16.04l25.21 0c4.16,17.87 2.75,16.04 18.33,16.04 5.75,0 1.03,-7.77 -2.73,-19.04 -2.59,-7.77 -5.09,-14.07 -7.44,-21.21l-11.16 -32.38c-3.13,-9.98 -1.9,-8.72 -15.35,-8.72 -3.98,0 -3.86,4.56 -4.99,8.76 -1.15,4.26 -1.87,6.8 -3.16,10.59 -4.07,12.05 -20.29,52.65 -20.5,62l0.01 0z"/>
      <path class="fil0" d="M1273.45 247.21l-10.31 0 0 -24.07 11.46 0c8.54,0 12.6,4.24 12.6,12.6 0,8.16 -5.66,11.46 -13.75,11.46l0.01 0.01zm-26.35 -35.52l0 74.48c0,4.99 4.86,3.44 16.04,3.44l0 -27.51c21.09,0 41.25,-2.22 41.25,-27.51 0,-28.73 -30.89,-26.35 -53.86,-26.35 -2.64,0 -3.44,0.79 -3.44,3.44l0.01 0.01z"/>
      <path class="fil0" d="M449.58 242.63c0,59.49 39.79,49.87 51.77,39.16 3.93,-3.51 8.8,-13.68 8.97,-20.82l-17.19 0c-1.62,19.43 -27.51,21.18 -27.51,-11.46 0,-12.65 2.47,-26.35 14.9,-26.35 16.49,0 8.16,16.04 17.19,16.04l9.16 0c8.65,0 -1.96,-31.48 -26.26,-30.76 -17.97,0.54 -31.04,14.94 -31.04,34.2l0.01 0z"/>
      <path class="fil0" d="M729.16 211.69l0 11.46 21.77 0 0 63.02c0,4.67 3.59,3.44 12.6,3.44 2.65,0 3.44,-0.79 3.44,-3.44l0 -63.02 22.91 0c0,-10.5 1.45,-14.9 -3.44,-14.9l-53.86 0c-2.64,0 -3.44,0.79 -3.44,3.44l0.01 0z"/>
      <path class="fil0" d="M875.84 211.69l0 74.48c0,2.64 0.79,3.44 3.44,3.44l44.69 0 0 -14.9 -32.09 0 0 -66.46c-11.19,0 -16.04,-1.55 -16.04,3.44l0 0z"/>
      <path class="fil0" d="M612.28 289.61c11.19,0 16.04,1.55 16.04,-3.44l0 -74.48c0,-4.99 -4.86,-3.44 -16.04,-3.44l0 81.35 0 -0z"/>
     </g>
    </g>
   </g>
  </g>
  <polygon class="fil1" points="-0,0 1435.44,0 1435.44,480.06 -0,480.06 "/>
 </g>
</svg>
