<?xml version="1.0" encoding="UTF-8"?>
<!DOCTYPE svg PUBLIC "-//W3C//DTD SVG 1.1//EN" "http://www.w3.org/Graphics/SVG/1.1/DTD/svg11.dtd">
<!-- Creator: CorelDRAW -->
<svg xmlns="http://www.w3.org/2000/svg" xml:space="preserve" width="16.0908in" height="5.38137in" version="1.1" style="shape-rendering:geometricPrecision; text-rendering:geometricPrecision; image-rendering:optimizeQuality; fill-rule:evenodd; clip-rule:evenodd"
viewBox="0 0 1985.68 664.08"
 xmlns:xlink="http://www.w3.org/1999/xlink"
 xmlns:xodm="http://www.corel.com/coreldraw/odm/2003">
 <defs>
  <style type="text/css">
   <![CDATA[
    .fil1 {fill:none}
    .fil0 {fill:white}
   ]]>
  </style>
   <clipPath id="id0">
    <path d="M-0 0l1985.68 0 0 664.08 -1985.68 0 0 -664.08z"/>
   </clipPath>
 </defs>
 <g id="Layer_x0020_1">
  <metadata id="CorelCorpID_0Corel-Layer"/>
  <g>
  </g>
  <g style="clip-path:url(#id0)">
   <g>
    <g id="_105553185050496">
     <g id="_105553191166112">
      <path class="fil0" d="M1448.03 337.84c0,9.61 2.01,54.91 -5.38,60.28 -8.49,6.17 -24.49,2.85 -34.22,-8.69 -1.61,-1.92 -3.22,-4.58 -4.41,-6.96 -10.81,-21.69 -8.68,-76.09 1.33,-94.25 1.81,-3.28 2.78,-4.25 5.26,-6.74 10.09,-10.1 37.42,-10.83 37.42,10.27 0,8.32 -0.63,15.08 -0.63,22.72 0,7.8 0.63,14.85 0.63,23.36l0 0.02zm-20.2 -130.68c2.66,11.42 14.35,4.89 18.41,18.84 3.36,11.59 0.54,22.23 0.54,34.82l-23.99 -0.63c-15.61,0 -33.33,5.58 -45.21,13.5 -44.58,29.71 -36.98,106 -9.25,133.75 9.11,9.11 24.18,14.99 38.67,14.99 8.23,0 15.58,-2.18 21.55,-4.33 8.69,-3.12 14.34,-8.71 16.95,-8.93 0.54,2.32 3.42,10.74 5.68,10.74 15.7,0 26.73,-4.42 41.67,-4.42 12.53,0 10.15,-0.9 20.9,2.46 3.39,1.07 6.85,1.35 11.31,1.33 4.21,-0.02 8.43,-0.02 12.64,0 5,0.02 7.42,-0.67 11.97,-0.65l44.05 -0.14c1.79,-0.37 2.35,-1.24 4.56,-1.75 -0.2,-2.37 -1.16,-4.21 -2.88,-5.88 -5.6,-5.48 -10.6,1.24 -13.61,-13.61 -1.84,-9.06 -2.44,-23.19 -2.44,-34.17l0 -102.28c-7.5,0 -38.96,3.54 -48.66,4.36 -5.44,0.46 -10.92,1.31 -16.37,1.31 0.4,18.08 17.68,1.64 17.68,29.67l0 89.02c0,4.58 -0.73,9.78 -1.96,13.19 -1.7,4.7 -4.39,6.44 -7.02,8.77 -4.59,4.11 -5.03,2.99 -10.97,0.51 -4.42,-1.84 -4.11,-1.84 -7.13,-4.24 -6.82,-5.43 -10.32,-14.74 -10.81,-25.17 -0.26,-5.46 -0.82,-9.73 -0.65,-15.17l0.65 -15.13c0,-5.75 0.67,-9.33 0.63,-14.51l0.62 -134.48 -50.69 6.13c-3.28,0.43 -5.17,0.57 -8.46,1.01 -1.87,0.25 -6.23,1.02 -8.4,1.07l0.03 0.02z"/>
      <path class="fil0" d="M413.91 210.96c6.3,11.89 3.4,5.43 11.74,7.83 1.89,0.54 4.44,3.39 5.31,4.8 2.91,4.72 3.12,20.73 3.12,27.18 0,3.99 0.68,5.24 0.67,9.44 -0.06,15.07 0.68,92.69 -0.11,99.68 -0.93,8.24 -0.06,17.65 -0.54,26.61 -1.7,32.47 -18.24,19.21 -19.57,35.35l72.7 0.11c2.77,-0.84 6.88,-2.57 9.99,-2.63 -1.21,-4.5 -4.63,-7.39 -8.58,-9.1 -4.56,-1.96 -5.48,-7.01 -5.89,-12.42 -1.28,-16.6 -2.91,-91.59 0.54,-104.16 0.87,-3.14 2.63,-4.52 5.48,-5.88 8.51,-4.05 24.1,-3.19 30.74,3.22 11.63,11.26 8.03,32.19 8.03,50.06 0,4.01 0,8.01 -0.02,12 -0.02,4.49 0.68,6.54 0.65,11.34 -0.05,8.6 -0.68,14.96 -0.63,23.37 0.15,29.34 -14.83,19.27 -15.16,33.46 3.73,0 5.69,0.67 10.1,0.63 22.01,-0.11 34.01,1.1 58.08,-0.02 5.38,-0.25 8.97,-1.52 13.26,-2.52 -0.31,-3.64 -3.28,-6.74 -6.54,-7.98 -4.81,-1.83 -6.87,-0.2 -8.71,-5.8 -4.44,-13.47 -3.05,-52.17 -3.05,-68.29 0,-6.19 0.53,-8.07 0.03,-13.92 -0.68,-8.07 0.53,-18.31 -2.47,-29.1 -10.43,-37.43 -56.43,-39.66 -82.68,-22.52 -1.39,0.91 -3.06,2.12 -4.35,3.23 -1.64,1.41 -2.21,2.43 -3.98,3.6l0 -77.65 -51.74 6.98c-3.59,0.48 -13.98,1.93 -16.44,3.12l0.03 0z"/>
      <path class="fil0" d="M1811.66 274.08c-0.42,-1.78 -3.22,-13.89 -4.42,-13.89 -7.16,0 -22.68,2.3 -31,3.09 -5.23,0.5 -10.07,0.85 -15.45,1.59 -4.9,0.68 -11.25,1.62 -16.06,1.62 0.26,11.91 7.49,10.13 11.4,11.96 5.29,2.46 5.65,9.7 6.65,16.71 1.83,12.73 -0.37,33.4 -0.37,46.47 0,15.55 0.19,31.2 0.03,46.74 -0.08,7.47 -2.44,13.15 -6.47,16.89 -4.13,3.82 -12.33,4.02 -12.5,11.49l9.1 1.64c7.52,1.07 13.35,0.9 20.59,0.88 4.53,-0.02 7.08,0.54 10.7,0.65 7.32,0.22 28.01,-0.59 36.37,-2.18 1.92,-0.36 2.78,-0.84 4.69,-0.99 -0.59,-7.13 -6.5,-8.82 -8.45,-9.87 -7.41,-3.96 -6.08,-40.71 -6.08,-49.48 0,-12.89 -0.62,-23.65 -0.63,-36.61 -0.02,-6.61 0.6,-10.92 0.6,-17.7 0,-5.91 1.48,-11.82 1.92,-17.03 9.99,-0.84 35.19,-12.75 42.32,17.03 0.7,2.92 1.01,5.75 1.53,9.2l0.97 21.76c0.03,4.63 -0.65,6.57 -0.65,10.7 -0.02,7.42 0.22,15.1 -0.51,21.58 -1.11,9.96 2.35,30.74 -4.75,39.44 -3.71,4.56 -10.3,3.12 -10.5,12.24 2.41,0.2 6.59,0.91 8.93,1.18l63.68 -0.53c5.63,0.05 5.1,0.06 8.83,-1.9 -0.73,-8.75 -10.38,-7.95 -13.55,-12.33 -7.77,-10.69 -4.1,-49.78 -4.13,-64.05 -0.03,-31.37 3.99,-67.15 -31.01,-78.84 -14.59,-4.87 -29.11,-3.94 -43.22,1.45 -9.54,3.65 -11.31,6.23 -18.58,11.11l0.01 -0.03z"/>
      <path class="fil0" d="M727.05 309.43c0,21.15 0.36,38.72 8.85,57.43 4.73,10.46 10.56,19.04 18.13,27.32 1.44,1.56 2.21,1.67 3.79,3.16 9.1,8.46 20.77,14.42 33.71,18.7 6.61,2.2 13.86,4.07 21.41,5.1 9.88,1.36 22.01,2.46 31.63,1.38 2.66,-0.29 5.37,0.11 8.03,-0.19 4.75,-0.53 9.75,-1.33 14.57,-1.84 12.89,-1.39 19.77,-5.46 25.92,-6.9 0,-7.24 0.67,-18.41 -0.09,-25.17 -0.51,-4.61 -0.73,-6.95 -0.08,-11.63 0.88,-6.39 -1.35,-24.35 4.93,-33.57 4.64,-6.81 12.81,-3.57 13.53,-12.34 -3.02,-0.71 -2.27,-1.61 -9.19,-2.82 -11.59,-2.01 -28.65,-0.51 -40.08,-0.37 -4.04,0.05 -6.53,0.93 -11.34,0.67 -10.61,-0.6 -12.68,-2.12 -21.47,2.52 0.25,2.89 2.49,5.78 4.41,6.96 4.11,2.52 12.13,-0.05 12.65,22.07 0.34,14.49 0.62,30.04 0.62,45.48 -14.68,3.42 -28.01,0.4 -39.15,-6.95 -20.9,-13.8 -29.67,-48.65 -29.67,-75.76 0,-34.12 2.99,-63.78 23.5,-86.98 10.33,-11.69 24.76,-17.82 42.15,-17.82 10.04,0 23.73,2.75 30.05,6.56 4.39,2.64 6.23,5.21 7.9,10.41 0.85,2.66 1.31,4.27 3.19,6.28 2.55,2.74 3.06,1.76 6.2,3.28 4.18,-7.9 3.5,-23.16 2.64,-32.31 -0.71,-7.53 1.41,-5.86 -19.63,-7.52l-25.46 -0.76c-9.33,1.33 -19.2,-1.33 -41.25,4.22 -15.98,4.02 -25.8,7.44 -38.64,15.65 -11.09,7.08 -19.66,16.83 -26.76,28.15 -8.06,12.82 -15.02,36.74 -15.02,57.59l0 -0.02z"/>
      <path class="fil0" d="M899.4 270.29c0,9.95 6.68,5.78 13.77,12.76 6.36,6.26 5.18,25.04 5.18,33.97 0,24.25 -6.68,71.32 10.26,89.5 5.8,6.23 8.2,7.72 15.84,11.31 13.72,6.44 33.07,5.58 47.43,-0.15 11.32,-4.53 13.64,-9.13 17.4,-11.65l5.06 14.52c5.89,0 38.44,-4.5 47.35,-5.06 4.27,-0.26 12.02,-1.02 15.78,-1.89 -0.05,-2.35 -0.7,-4.97 -1.75,-6.47 -6.31,-8.97 -17.2,9.13 -17.2,-41.52l0.63 -104.8c-6.05,0 -11.04,0.76 -16.94,1.38l-33.55 3.7c-7.38,0.17 -10.21,1.16 -15.16,3.77 0.34,4.07 3.48,6.91 7.02,8.14 5.43,1.86 5.58,1.05 8.35,6.79 2.1,4.36 2.63,14.25 2.94,19.8 0.46,8.57 0.14,60.45 -0.6,69.48 -0.25,3 -0.03,6.98 -0.02,10.09 0.02,4.18 -0.65,5.43 -0.65,9.45 -2.03,0.46 -2.15,0.88 -4.04,1.64 -1.58,0.63 -2.68,0.84 -4.41,1.27 -13.4,3.34 -27.39,2.17 -32.98,-12 -7.08,-17.97 -2.77,-73.03 -2.77,-91.93 0,-7.92 0.26,-15.9 -0.53,-23.46 -0.29,-2.72 -0.73,-6.56 -0.73,-8.74l-34.14 3.73c-4.83,0.56 -31.51,3.62 -31.51,6.37l-0.05 -0z"/>
      <path class="fil0" d="M63.54 265.87c0,27.16 10.21,47.77 30.04,60.87 5,3.29 15,7.33 22.35,7.95l-4.8 2.15c-5.75,2.34 -8.91,5.27 -7.19,12.96 1.86,8.34 8.23,8.86 20.19,8.86l0.63 8.83c0,30.83 -20.09,72.78 -6.96,90.94 1.5,2.07 3.25,3.91 5.68,5.06 9.79,4.58 30.97,0.02 30.97,-19.6 0,-25.15 -6.59,-35.59 -10.66,-59.43 -5.8,-34.05 2.78,-25.06 15.78,-27.63 3.26,-0.65 2.95,-1.28 3.74,-4.45 1.78,-7.19 2.71,-11.08 -2.97,-14.12 -2.18,-1.18 -4.7,-2 -6.53,-3.57 12.7,-1.05 28.25,-12.89 36.47,-22.86 9.05,-10.98 15.3,-29.93 15.3,-44.69 0,-11.8 0.37,-22.38 -6.57,-32.58 -5.77,-8.48 -18.75,-11.85 -27.64,-8.57 -2.09,0.77 -3.68,2.78 -5.09,4.38 -16.44,18.39 6.95,35.73 16.33,27.05 2.37,-2.18 2.77,-5.03 2.77,-7.97 0,-4.76 -6.23,-6.2 -8.83,-10.1 13.36,0 15.78,14.34 15.78,25.88 0,20.03 -14.83,43.85 -32.21,53.02 -2.83,-5.35 -1.42,-9.47 -10.1,-9.47 1.44,-2.13 6.16,-6.2 8.21,-7.58 -2.66,-5.01 -0.71,-2.29 -5.63,-6.36 -1.14,-0.96 -1.47,-0.73 -1.95,-2.47 13.49,-3.14 5.57,-10.86 4.42,-15.78l3.79 -3.79c-1.75,-3.29 -2.57,-4.21 -5.21,-6.79 -2.35,-2.29 -4.25,-3.91 -4.25,-8.37 0,-14.97 11.86,-18.02 5.94,-27.41 -4.75,-7.52 -43.19,-8.55 -43.19,3.42 0,9.92 8.21,11.85 8.21,23.99 0,7.87 -6.85,9.67 -10.1,14.52 2.44,3.65 5.86,4.72 8.21,8.21l-8.83 3.79c1.67,7.19 2.23,6.82 8.21,8.21 -1.1,4.1 -6.19,2.89 -7.58,8.83 3.73,0.87 4.47,2.92 8.21,3.79 -1.67,6.28 -3.39,-0.88 -8.21,8.21 4.02,7.61 6.62,2.63 8.21,9.47 -12.99,-3.03 -21.66,-9.99 -28.69,-19.29 -9.88,-13.09 -12.98,-25.92 -12.98,-43.2 0,-9.84 4.3,-19.57 15.16,-19.57l-0.7 0.57c-5.78,4.9 -5,4.55 -5,12.05 0,8.35 23.36,7.63 23.36,-9.47 0,-17.06 -29.3,-34.05 -42.04,-1.01 -2.3,5.99 -4.05,15.11 -4.05,23.09l-0.02 -0.01z"/>
      <path class="fil0" d="M1643.73 371.94c0,-19.18 14.45,-26.51 32.21,-26.51 3.2,0 1.79,7.46 1.87,13.92 0.05,3.51 0.63,4.02 0.68,7.53l-0.65 17.08c-0.11,3.99 -0.11,5.04 -1.73,7.73 -5.71,9.4 -22.97,7.29 -27.75,-1.61 -2.27,-4.22 -4.61,-11.94 -4.61,-18.11l-0.02 -0.03zm-30.94 -80.81c0,4.27 5,3.91 8.66,3 10.04,-2.49 11.42,-13.1 29.84,-13.1 11.91,0 19.83,5.43 23.82,15.95 6.39,16.83 1.42,28.2 1.42,35.19 -4.63,0 -6.98,0.67 -12,0.62 -7.9,-0.06 -29.67,2.38 -35.86,3.93 -7.32,1.83 -12.75,3.51 -18.25,7.63 -11.79,8.8 -14.74,23.26 -13.49,37.76 1.21,14.03 5.66,27.46 18.35,34.05 18.58,9.65 38.69,5.97 55.08,-4.93 3.36,-2.23 6.64,-5.89 8.71,-6.45 0.7,2.63 3.08,4.02 4.89,5.85 2.03,2.03 3.64,3.87 5.83,5.54 17.87,13.7 57.46,1.41 57.46,-20.85 -22.37,0 -23.36,4.38 -23.36,-30.3 0,-7.19 0.65,-12.2 0.63,-18.93 -0.05,-22.24 3.22,-57.12 -11.82,-72.78 -8.58,-8.94 -24.95,-14.34 -37.43,-14.34 -16.72,0 -28.18,0.87 -43.78,8.63 -8.28,4.11 -18.73,11.71 -18.73,23.57l0.02 -0.02z"/>
      <path class="fil0" d="M1153.19 345.42l3.79 0c0,5.63 0.63,8.79 0.63,14.52l0 25.88c0,11.88 -14.49,14.68 -24.59,9.45 -2.88,-1.48 -4.52,-3.45 -6.14,-6.48 -4.53,-8.46 -9.87,-43.37 26.33,-43.37l-0.02 0zm-61.24 -53.03c6.26,1.45 8.58,5.78 15.31,-1.1 6.02,-6.17 9.13,-10.27 20.05,-10.27 10.13,0 18.64,2.52 23.53,8.04 8.18,9.23 6.78,29.19 6.78,42.46l-14.26 0.9c-15.14,2.29 -33.75,0.36 -51.15,10.72 -22.88,13.63 -18.75,54.73 -4.53,67.78 3.68,3.37 8.62,6.34 14.14,7.95 13.89,4.07 27.97,4.49 40.39,-3.02 5.6,-3.39 10.26,-7.66 15.41,-11.11 2.17,1.45 3.6,3.2 5.32,5.41 7.3,9.47 13.84,11.63 25.62,11.63 15.62,0 37.88,-8.11 37.88,-25.88 -3.5,0 -5.96,-0.51 -10.12,-0.62 -3.47,-0.08 -5.74,-0.65 -10.09,-0.65 -5.89,-12.27 -1.27,-61.39 -1.27,-78.92 0,-26.4 -7.66,-45.29 -30.38,-52.96 -31.86,-10.75 -82.63,1.98 -82.63,29.61l0.02 0.01z"/>
      <path class="fil0" d="M243.47 227.37c0,5.75 -0.26,15.17 4.42,18.31 16.89,-3.93 -12.61,-23.99 56.18,-23.99 0,22.78 0.63,43.5 0.63,66.28l0 89.65c0,28.11 -5.46,27.24 -18.59,33.18 -2.51,1.13 -2.01,2.1 -5.4,2.18 -0.14,1.7 -0.29,1.72 -0.63,3.16 3.56,1.87 6.19,1.28 11.37,1.25 5.1,-0.03 7.52,0.67 12.62,0.63 12.7,-0.06 56.83,2.07 64.16,1.59 6.19,-0.4 7.01,0.54 9.7,-3.5 -5.27,-9.98 -9.1,-4.49 -17.28,-9.23 -4.78,-2.77 -7.35,-11.72 -7.35,-19.18l0 -166.04c11.82,0 20.4,-0.17 32.17,0.65 11.4,0.8 12.25,6.78 16.64,14.93 1.16,2.17 1.59,2.43 2.66,4.92 1.11,2.6 1.44,3.23 4.7,3.5 6.65,-12.56 2.91,-26.99 1.89,-39.13l-166.04 0c-1.24,5.31 -1.89,14.31 -1.89,20.84l0.01 0z"/>
      <path class="fil0" d="M660.14 316.37l-29.03 0c0,-16.4 -0.29,-42.92 17.68,-42.92 6.82,0 11.76,0.03 15.99,7.98 4.73,8.88 3.57,23.54 3.57,34.31 -3.6,0 -4.36,0.63 -8.21,0.63zm-78.28 27.78c0,20.2 3.67,36.81 13.8,50.61 19.63,26.74 54.14,31.69 85.8,24.36 6.78,-1.56 15.02,-5.04 20.57,-8.48 2.55,-1.58 18.25,-14.73 11.15,-14.73 -11.62,0 -17.7,3.16 -27.78,3.16 -16.92,0 -31.68,-0.31 -42.85,-15.24 -11.28,-15.07 -10.81,-32.89 -10.81,-51.68l83.33 0c2.77,0 1.33,-2.26 1.25,-5.66 -0.08,-3.56 -0.25,-4.81 -0.57,-7.66 -0.6,-5.14 -1.3,-10.26 -2.49,-14.56 -2.75,-9.84 -5.35,-15.99 -10.43,-23.67 -20.14,-30.49 -67.7,-27.6 -90.52,-7.67 -7.49,6.54 -13.21,13.29 -17.82,22.58 -7.24,14.6 -12.62,30.5 -12.62,48.62l-0.02 0z"/>
      <path class="fil0" d="M1290.19 277.24c-0.43,-5.24 -1.89,-10.7 -1.89,-16.41 -15.51,0 -50.38,5.68 -63.76,5.68 0,11.76 7.46,10.09 10.95,11.79 4.76,2.3 6.23,9.71 6.68,16.04 1.02,14.25 1.3,29.82 1.3,44.78 0,8.6 -0.65,15.28 -0.63,23.36 0.02,7.15 -0.62,16.27 -1.61,23.02 -0.9,6.09 -2.03,15.38 -4.98,19 -3.88,4.75 -11.74,4.97 -12.34,12.28 3.34,0.28 3.64,1.89 7.58,1.89l76.38 0c3.77,0 3.77,-1.22 6.31,-1.89 -0.67,-2.88 -2.75,-5.78 -5.06,-6.95 -6.65,-3.37 -15.84,3.34 -18.21,-19.68 -1.83,-17.82 -2.91,-62.48 -0.84,-81.42 0.42,-3.82 0.05,-6.48 0.97,-12.92 0.34,-2.32 0.96,-4.36 1.01,-6.56 13.26,-3.09 20.36,-6.11 29.54,7.7 1.56,2.35 3.33,4.73 5.07,6.91 1.19,1.48 5.44,4.93 7.69,4.93 2.07,0 6.08,-6.47 7.08,-8.07 5.58,-8.94 11.86,-23.71 11.86,-34.23 -6.44,-1.5 -10.47,-6.95 -30.3,-6.95 -10.64,0 -22.8,6.95 -29.84,14.35 -1.39,1.45 -1.64,2.34 -2.99,3.33l-0 0.01z"/>
      <path class="fil0" d="M1528.2 228.62c0,13.46 14.56,22.72 25.26,22.72 9.62,0 12.47,-0.26 20.96,-5.55 11.62,-7.22 11.77,-21.81 0.33,-31.52 -16.01,-13.6 -46.54,-0.7 -46.54,14.34l0 0.02z"/>
     </g>
    </g>
   </g>
  </g>
  <polygon class="fil1" points="-0,0 1985.68,0 1985.68,664.08 -0,664.08 "/>
 </g>
</svg>
