<?xml version="1.0" encoding="UTF-8"?>
<!DOCTYPE svg PUBLIC "-//W3C//DTD SVG 1.1//EN" "http://www.w3.org/Graphics/SVG/1.1/DTD/svg11.dtd">
<!-- Creator: CorelDRAW -->
<svg xmlns="http://www.w3.org/2000/svg" xml:space="preserve" width="16.0908in" height="5.38137in" version="1.1" style="shape-rendering:geometricPrecision; text-rendering:geometricPrecision; image-rendering:optimizeQuality; fill-rule:evenodd; clip-rule:evenodd"
viewBox="0 0 8404.26 2810.7"
 xmlns:xlink="http://www.w3.org/1999/xlink"
 xmlns:xodm="http://www.corel.com/coreldraw/odm/2003">
 <defs>
  <style type="text/css">
   <![CDATA[
    .fil1 {fill:none}
    .fil0 {fill:white}
   ]]>
  </style>
   <clipPath id="id0">
    <path d="M-0 0l8404.26 0 0 2810.7 -8404.26 0 0 -2810.7z"/>
   </clipPath>
 </defs>
 <g id="Layer_x0020_1">
  <metadata id="CorelCorpID_0Corel-Layer"/>
  <g>
  </g>
  <g style="clip-path:url(#id0)">
   <g>
    <g id="_105553184972960">
     <g id="_105553190855744">
      <path class="fil0" d="M433.57 1793.36l208.28 0 0 -485.99c7.07,4.72 43.7,52.95 52.24,63.47 40.05,49.46 76.77,96.26 112.82,149.45l83.36 122.38c16.43,24.65 30.8,46.56 49.06,69.19 20.21,24.97 18.3,24.73 42.75,44.66 33.58,27.43 73.68,36.8 122.62,36.8l0 -802.28 -180.02 0 0 488.57c-10.24,-2.74 -22.11,-15.12 -32.67,-23.9 -5.87,-4.84 -9.37,-9.13 -13.61,-14.69l-27.47 -31.68c-4.8,-5.96 -7.78,-9.69 -12.54,-15.72 -43.94,-55.93 -80.9,-116.23 -121.59,-171.56 -23.3,-31.71 -134.21,-188.71 -147.59,-202.13 -11.59,-11.59 -19.05,-18.62 -36,-23.14 -27.51,-7.34 -69.63,-5.76 -99.68,-5.76l0 802.28 0.04 0.04z"/>
      <path class="fil0" d="M3478.21 1250.76l0 542.6 182.56 0 0 -465.43c80.54,0 127.15,-10.28 210.86,-10.28 39.1,0 56.57,23.82 63.24,57.64 10.16,51.68 12.78,260.48 6.59,315.62l-0.48 76.85c0.4,12.94 2.66,12.86 2.66,25.64l180.02 0 0 -465.43c32.04,0 67.68,-0.67 95.87,-4.45 30.45,-4.09 85.03,-5.84 117.58,-5.84 35.33,0 52.08,19.69 59.74,48.27 8.26,30.76 15.64,166.36 12.11,208.76 -4.21,50.93 -2.42,161.52 -2.42,218.72l182.56 0 0 -388.3c0,-133.69 -112.14,-182.56 -231.43,-182.56 -70.34,0 -108.92,1.19 -177.44,12.86 -34.38,5.84 -110.27,23.14 -138.85,23.14 -51.72,0 -84.67,-19.89 -128.3,-28.58 -22.07,-4.37 -48.15,-3.65 -70.42,-6.71 -14.25,-1.98 -25.88,-0.24 -36,1.15 -10.48,1.43 -51.72,0.95 -75.38,4.33l-214.59 19.41c-15,0.2 -21.2,2.66 -38.47,2.66l0 -0.08z"/>
      <path class="fil0" d="M5206.24 1482.18l-334.28 0c0,-58.55 13.06,-117.26 60.57,-150.29 45.13,-31.36 129.41,-27.79 180.65,-13.85 24.02,6.51 37.67,14.92 53.83,31 28.86,28.74 39.18,76.65 39.18,133.1l0.04 0.04zm156.88 180.02c-12.35,-2.86 -45.85,-24.05 -77.52,-24.77 -41.12,-0.91 -53.55,76.21 -231.03,76.21 -40.65,0 -91.22,3.45 -125.91,-18.06 -4.72,-2.94 -14.85,-10.36 -18.58,-14.85 -16.47,-20.01 -35.01,-70.06 -35.53,-93.05l514.3 0 0 -154.3c0,-122.78 -95.78,-179.19 -193.71,-207.41 -134.29,-38.74 -294.11,-7.7 -419.42,44.3 -42,17.43 -69.03,43.86 -80.94,86.18 -4.88,17.31 -3.93,30.09 -6.87,49.74l-1.11 83.8c0.64,11.43 2.54,12.35 2.7,25.6 0.4,32.19 -3.41,83 0.6,112.54 4.76,35.09 6.63,65.06 44.5,94.4 50.57,39.14 69.43,46.13 131.23,66.77 114.09,38.07 356.03,44.18 455.55,-55.61 19.21,-19.25 34.65,-40.97 41.76,-71.37l-0 -0.12z"/>
      <path class="fil0" d="M2886.75 1423.04c0,-68.51 92.25,-113.13 156.88,-113.13 63.75,0 105.39,9.21 137.35,58.07 32.87,50.22 37.31,126.99 37.39,186.29 0.04,32.95 5.72,38.31 0.48,85.15 -6.95,62 21.75,43.9 -28.62,56.21 -104.8,25.6 -134.09,28.34 -242.78,0.99 -11.16,-2.82 -26.79,-4.8 -34.97,-8.73 -5.64,-24.13 -9.53,-98.48 -13.58,-130.4l-12.11 -134.45 -0.04 0zm195.42 383.14c29.77,0 52.52,-2.7 79.71,-2.58 42.99,0.16 89.71,-5.36 118.33,-5.12 17.39,0.16 23.26,-2.5 38.43,-2.7 30.61,-0.36 51.96,-2.46 82.37,-2.46l0 -349.72c0,-69.63 -41.84,-135.32 -95.63,-171.8 -145.64,-98.72 -384.81,-67.84 -524.1,2.06 -38.94,19.57 -64.27,40.81 -75.14,89.39 -9.57,42.59 -4.37,140.68 -4.6,198.68 -0.08,17.03 2.7,22.15 2.74,38.43 0.08,69.47 1.03,122.66 88.01,161.4 81.34,36.2 195.06,44.38 289.9,44.38l0 0.04z"/>
      <path class="fil0" d="M1534.17 1312.49c61.81,0 100.23,11.83 143.38,54.62 56.69,56.25 49.1,126.03 49.5,199.99 0.08,18.86 -2.66,26.79 -2.66,43.62 -0.04,13.85 1.23,32.79 -0.28,46.01 -4.29,37.23 6.15,30.49 -9.25,34.26 -24.97,6.07 -52.52,10.68 -80.03,15.32 -49.9,8.42 -145.21,21.71 -192.21,-6.47 -37.71,-22.63 -52.16,-71.17 -52.52,-114.64 -0.24,-28.3 -4.13,-52.12 -2.5,-82.41 0.71,-13.26 2.66,-21.55 2.58,-38.54 -0.2,-50.45 -3.53,-83.92 45.89,-121.27 23.14,-17.51 66.05,-30.45 98.13,-30.45l-0.04 -0.04zm-77.13 493.73c55.77,0 106.39,0.44 162,-2.54l138.74 -7.82c16.16,-0.2 32.95,0.67 49.06,0.2l97.65 -2.66 0 -347.14c0,-40.93 -23.82,-85.23 -42.16,-109.56 -42.43,-56.29 -124.41,-98.64 -190.78,-115.24 -21.52,-5.36 -40.49,-9.88 -63.83,-13.3 -185.42,-27.11 -396.04,49.14 -417.75,259.01 -9.17,88.76 16,196.14 51.05,249.13 46.6,70.42 128.73,89.95 216.06,89.95l-0.04 -0.05z"/>
      <path class="fil0" d="M6708.01 1489.93c0,87.29 -3.17,176.17 68.79,239.76 47.2,41.72 112.02,56.49 175.22,69.07 65.86,13.14 178.51,8.65 244.09,-0.71 36.92,-5.24 91.06,-15.68 121.83,-35.01 47.08,-29.57 51.33,-21.71 53.59,-51.84 1.07,-14.53 3.85,-34.89 5.04,-48.99 -11.08,-2.58 -22.31,-8.93 -32.99,-13.3 -78.6,-31.8 -67.05,17.47 -131.91,43.82 -54.34,22.07 -164.58,32.47 -224.2,6.27 -51.29,-22.55 -86.62,-88.4 -86.62,-149.93 0,-64.7 6.67,-106.39 34.26,-161.16 8.42,-16.75 22.31,-37.63 34.46,-50.37 12.03,-12.58 34.34,-28.3 52.75,-32.07 38.66,-7.94 115.52,3.37 146.95,13.78 80.03,26.48 80.7,58.75 190.94,38.58 14.01,-2.58 17.62,0.87 13.5,-10.96 -25.88,-74.11 -88.13,-100.99 -158.82,-122.1 -50.89,-15.2 -105.43,-15.12 -159.74,-15.12 -75.14,0 -187.36,30.29 -247.7,66.01 -71.53,42.36 -99.44,129.61 -99.44,214.28l0 -0z"/>
      <path class="fil0" d="M7453.73 1381.91c0,51.37 5.24,71.93 38.5,115.75 18.06,23.78 43.39,42.28 70.3,58.27 51.96,30.92 124.21,51.09 199.79,57.36 -8.22,35.33 -4.01,98.72 -64.66,105.23 -35.57,3.81 -111.39,-24.17 -201.73,-11.63 -14.25,1.98 -32.27,6.39 -44.78,6.67l0 53.99c19.29,4.48 33.98,8.26 52.4,14.45l49.5 17.39c9.45,2.94 17.43,4.37 26.36,7.07 8.22,2.46 16.47,4.41 27.11,6.31 112.3,20.09 251.55,-1.75 330.03,-79.27 90.47,-89.35 -17.9,-218.52 -102.18,-261.75 -89.16,-45.73 -160.21,5.44 -195.82,-102.49 -1.75,-5.24 -2.38,-10.6 -4.84,-15.76 8.46,-5.68 9.69,-8.57 20.84,-12.58 9.25,-3.34 18.02,-4.68 29.06,-6.95 50.22,-10.2 178.67,-6.19 235.51,-6.19l0 -77.13 -72.8 -6.95c-24.57,-4.09 -44.7,-9.09 -68.36,-13.93 -81.69,-16.63 -196.57,-7.62 -266.67,45.01 -25.68,19.29 -57.6,63.24 -57.6,106.98l0.04 0.16z"/>
      <path class="fil0" d="M5543.1 1250.76l-102.85 0 0 77.13 102.85 0 0 465.43 182.56 0 0 -465.43 154.3 0 0 -77.13 -154.3 0c-0.32,-14.73 -4.41,-28.94 -2.18,-48.47 4.25,-37.63 6.79,-160.13 -11,-187.76 -11.43,-17.74 -35.57,-23.46 -63.95,-23.46l-105.43 0 0 259.73 0 -0.04z"/>
      <path class="fil0" d="M2372.46 1240.48c-25.8,0 -45.81,-3.26 -69.35,-5.2 -10.92,-0.91 -21.6,-2.86 -31.2,-4.8 -12.11,-2.42 -18.7,-5.4 -33.15,-5.4l0 568.28 208.28 0 0 -365.16c0,-110.59 142.82,-125.99 231.43,-125.99 0,-36.8 -9.09,-105.43 -56.57,-105.43 -50.41,0 -137.59,43.7 -249.45,43.7z"/>
      <path class="fil0" d="M6098.56 1237.9c-50.22,0 -48.47,1.67 -97.89,-5 -16.2,-2.18 -31.04,-7.86 -46.13,-7.86l0 568.28 182.56 0 0 -367.74c0,-101.54 153.07,-123.41 231.43,-123.41 0,-39.26 -11.79,-105.43 -59.15,-105.43 -52,0 -136.16,41.16 -210.86,41.16l0.04 -0z"/>
      <path class="fil0" d="M6445.7 1793.36l182.56 0 0 -542.6c-27.19,-2.26 -68.04,-4.29 -91.7,-11.16 -27.99,-8.14 -55.97,-14.53 -90.9,-14.53l0 568.28 0.04 0z"/>
      <path class="fil0" d="M1981.61 1793.36l182.56 0 0 -542.6c-103.33,0 -165.61,-25.72 -182.56,-25.72l0 568.28 0 0.04z"/>
      <path class="fil0" d="M1955.89 1091.34c0,32.83 8.22,59.03 29.02,76.41 68.44,57.32 210.15,12.98 210.15,-66.13 0,-49.66 -63.87,-108.01 -125.99,-108.01 -55.77,0 -113.13,42.55 -113.13,97.73l-0.04 0z"/>
      <path class="fil0" d="M6445.7 1016.76l0 156.88c37.43,8.73 133.14,40.85 171.76,2.06 32.99,-33.15 36.52,-110.12 36.52,-158.9 -47.79,0 -71.85,-15.44 -144.02,-15.44 -22.51,0 -45.65,11.08 -64.31,15.44l0.04 -0.04z"/>
     </g>
    </g>
   </g>
  </g>
  <polygon class="fil1" points="-0,0 8404.26,0 8404.26,2810.7 -0,2810.7 "/>
 </g>
</svg>
