<?xml version="1.0" encoding="UTF-8"?>
<!DOCTYPE svg PUBLIC "-//W3C//DTD SVG 1.1//EN" "http://www.w3.org/Graphics/SVG/1.1/DTD/svg11.dtd">
<!-- Creator: CorelDRAW -->
<svg xmlns="http://www.w3.org/2000/svg" xml:space="preserve" width="16.0908in" height="5.38137in" version="1.1" style="shape-rendering:geometricPrecision; text-rendering:geometricPrecision; image-rendering:optimizeQuality; fill-rule:evenodd; clip-rule:evenodd"
viewBox="0 0 1472.5 492.46"
 xmlns:xlink="http://www.w3.org/1999/xlink"
 xmlns:xodm="http://www.corel.com/coreldraw/odm/2003">
 <defs>
  <style type="text/css">
   <![CDATA[
    .fil1 {fill:none}
    .fil0 {fill:white}
   ]]>
  </style>
   <clipPath id="id0">
    <path d="M-0 0l1472.5 0 0 492.46 -1472.5 0 0 -492.46z"/>
   </clipPath>
 </defs>
 <g id="Layer_x0020_1">
  <metadata id="CorelCorpID_0Corel-Layer"/>
  <g>
  </g>
  <g style="clip-path:url(#id0)">
   <g>
    <g id="_105553184741312">
     <g id="_105553191712672">
      <g>
       <path class="fil0" d="M611.17 84.63c-0.35,1.51 -0.67,1.56 -0.67,3.38l0 188.63c0,7.91 32.89,4 38.52,4.04 7.38,0.05 11.36,1.53 12.17,-8.8 0.32,-4.1 -0.37,-6.43 -0.63,-9.48 -0.28,-3.39 0.09,-7.35 -0.01,-10.8l-0.7 -20.26c0,-10.1 -0.05,-20.84 2.19,-30.27 1.51,-6.38 3.85,-13.68 12.01,-13.68 20.91,0 16.9,9.94 16.9,37.18 0,18.03 0,36.06 0,54.09 8.16,3.92 31.19,2.05 39.21,2.03 5.1,-0.01 8.34,-1.36 12.84,-1.36 0,-11.15 0.69,-20.79 0.67,-32.45 -0.01,-6.4 0.7,-10.06 0.68,-16.23 -0.11,-29.67 1.12,-65.63 -20.76,-82.01 -12.76,-9.55 -34.39,-13.31 -49.53,-4.51 -2.22,1.29 -4.4,2.65 -6.65,4.17 -1.83,1.24 -4.79,3.36 -6.9,3.92l0 -68.29c-7.03,0 -45.64,-0.77 -49.35,0.67l0 0.02z"/>
       <path class="fil0" d="M498.27 213.76c0,-14.69 9.14,-27.72 22.98,-27.72 9.85,0 14.64,1.41 21.48,8.27 12.95,12.97 8.2,42.41 -18.13,43.08 -6.19,0.16 -14,-2.19 -18.72,-6.23 -1.62,-1.39 -4.14,-4.88 -5.17,-7 -1.14,-2.38 -2.44,-7.16 -2.44,-10.4l-0 0zm-15.55 61.02l2.74 -0.18 -0.04 2.71c34.19,18.09 55.42,-2.74 62.88,-4.73 0,7.27 0.4,4 1.36,8.11 9.91,0 19.84,0.05 29.76,-0.01 12,-0.06 18.52,4.62 19.57,-9.49 1.4,-18.89 -0.65,-41.1 -0.65,-59.46 0,-19.9 1.63,-39.51 0.68,-59.5 -0.65,-13.83 -6.34,-10.09 -18.26,-10.13 -10.14,-0.04 -20.28,0 -30.42,0 -0.71,1.49 -1.98,6.56 -2.03,8.79 -6.37,-1.48 -4.69,-3.49 -11.29,-6.29 -16.29,-6.91 -27.7,-6.91 -43.66,-1.35 -15.96,5.56 -29.22,18.52 -36.78,33.54 -8.36,16.6 -11.59,37.14 -5.2,58.86 4.15,14.11 19.06,36.79 31.36,39.14l-0.01 0z"/>
       <path class="fil0" d="M295.44 147.51c0,2.09 0.6,2.63 1.47,3.95 3.2,4.88 10.17,22.68 12.96,28.95 6.02,13.51 41.69,97.61 41.69,100.29 0,2.27 -8.32,19.65 -9.91,23.21l-9.7 24.11c3.86,4.44 8.9,3.62 16.24,3.4 3.52,-0.1 4.61,-0.73 8.75,-0.71l14.7 0.31c0.93,-0.04 2.9,-0.24 4.24,-0.3 2.85,-0.12 5.2,-0.43 7.18,-1.62 3.76,-2.26 5.59,-5.92 7.32,-10.26l31.03 -75.78c10.38,-23.16 21.09,-51.43 31.57,-75.26 1.8,-4.08 3.42,-7.94 4.97,-12.6 1.05,-3.15 5.07,-13.1 1.1,-13.1l-48.68 0c-2.29,0 -3.07,3.98 -4.63,8.21 -1.33,3.6 -2.33,6.15 -3.77,9.75 -3.09,7.72 -21.93,53.62 -22.02,57.76l-29.16 -70.9c-0.72,-1.73 -1.47,-2.78 -1.94,-4.82 -9.49,0 -20.94,0.65 -29.25,-0.49 -5.35,-0.74 -8.96,0.54 -13.99,0.51 -6.22,-0.05 -10.16,-1.09 -10.16,5.39l-0 -0.01z"/>
       <path class="fil0" d="M816.02 187.4c13.1,0 17.13,-1.37 25.54,7.59 2.83,3.01 6.23,11.09 6.23,16.75 0,7.9 -3.26,13.5 -7.03,17.99 -11.67,13.94 -39.44,8.08 -43.24,-14.41 -1.05,-6.22 1.59,-13.81 4.56,-18.18 2.08,-3.06 9.43,-9.74 13.92,-9.74l0.01 0zm-66.93 23.67c0,26.74 12.27,50.47 35.17,63.54 27.81,15.87 67.74,11.77 90.41,-10.97 41.34,-41.47 21.15,-110.77 -35.83,-122.72 -2.46,-0.52 -5.26,-1.22 -7.36,-1.43 -8.35,-0.87 -16.94,-0.74 -25.09,1.12 -32.87,7.45 -57.31,34.32 -57.31,70.47l-0.01 -0.01z"/>
       <path class="fil0" d="M949.88 213.76c0,-8.04 -0.09,-13.46 6.72,-20.32 9.86,-9.93 42.63,-10.83 42.63,20.32 0,20.58 -27.91,32.29 -43.18,15.46 -0.55,-0.61 -1.07,-1.17 -1.56,-1.83 -2.29,-3.12 -4.62,-9.15 -4.62,-13.64l0.01 0zm-48.68 -10.81c0,28.74 2.3,45.82 26.28,65 6.19,4.94 10.33,6.82 16.99,10.05 4.85,2.35 15.53,5.42 21.05,6 14.11,1.48 25.57,-0.62 38.36,-5.42 8.5,-3.19 15.14,-8.67 21.83,-13.99 2.16,-1.71 2.3,-2.74 4.11,-4.68 25.45,-27.22 23.6,-73.95 -2.35,-99.39 -1.77,-1.73 -2.89,-2.37 -4.75,-4.04 -1.71,-1.53 -3.16,-2.37 -5.04,-3.75 -3.35,-2.46 -7.26,-4.49 -11.24,-6.34 -7.79,-3.63 -18.01,-6.7 -28.87,-6.97 -6.49,-0.17 -6.25,-1.13 -15.75,0.45 -5.32,0.89 -9.78,1.9 -14,3.58 -6.93,2.77 -11.28,4.94 -17.09,9.27 -14.72,10.99 -29.55,30.83 -29.55,50.23l0.02 0.02z"/>
       <path class="fil0" d="M1068.2 208.35l56.79 0c3.63,0 6.13,-10.04 7.52,-13.43l40.92 -99.03c4.05,-8.02 3.61,-4.65 3.61,-11.94l-56.12 0c-4.15,0 -7.13,9.37 -8.59,13.04l-29.08 70.31c-4.07,10.26 -15.06,32.16 -15.06,41.05z"/>
       <path class="fil0" d="M828.86 368.58c0,-5.02 3.02,-11.54 6.85,-14.11 10.83,-7.29 20.2,7.62 20.2,11.4 0,18.5 -27.04,18.61 -27.04,2.7l-0.01 0.01zm-31.1 -7.44c0,15.32 -0.94,24.53 9.97,35.33 21.4,21.19 37.25,8.33 44.99,7.6 1.32,-0.13 21.36,7.16 30.26,1.72 3.54,-2.17 3.41,-3.98 3.37,-9.49l-0.01 -38.55c-0.01,-11.13 1.24,-11.98 -0.06,-24.27 -0.97,-9.1 -7.57,-6.82 -22.25,-6.82 -6.41,0 -7.57,1.57 -10.14,5.41 -1.54,-1.03 -1.84,-1.71 -3.39,-2.69 -5.52,-3.49 -8.6,-3.59 -14.7,-4.3 -12,-1.4 -25.59,6.53 -31.92,17.15 -3.38,5.69 -6.11,9.82 -6.11,18.9l0 0.01z"/>
       <path class="fil0" d="M925.55 332.08c-1.28,-5.51 -8.33,-4.68 -15.84,-5.81 -3.5,-0.53 -6.37,-0.05 -9.58,0.68 -3.29,0.74 -5.68,2.08 -5.68,5.81l0 73.69c39.5,1.43 31.1,6.92 31.1,-48.68 2.56,-0.68 3.15,-2.31 6.76,-4.73 3.58,0.83 7.75,3.11 8.63,6.25l-0.52 23.49c0,9.07 1.95,19.89 2.03,23.67l29.75 0c3.41,-14.62 4.97,-63.85 -8.97,-75.54 -11.43,-9.58 -26.65,-6.21 -37.68,1.17l0 -0z"/>
       <path class="fil0" d="M745.03 332.08c-3.3,-6.89 -0.23,-5.41 -21.64,-5.41 -7.33,0 -10.14,2.78 -10.14,10.14 0,16.31 -1.26,55.52 2.03,69.63 6.85,0 24.12,1.36 27.88,-1.19 4.09,-2.77 1.19,-17.56 1.19,-26.53 0,-11.58 -0.33,-22.44 8.28,-24.96 2.94,-0.86 3.31,-0.26 6.86,3.06 1.89,1.76 2.3,2.13 2.47,8.35 0.28,10.8 -0.7,20.8 -0.7,33.15 0,8.04 4.41,8.16 11.53,8.76 3.43,0.29 16.86,-0.69 19.57,-1.32l1.36 -39.89c0,-24.87 -6.45,-40.57 -32.45,-40.57 -5.6,0 -9.04,3.41 -11.94,4.96 -1.7,0.91 -2.77,1.07 -4.29,1.8l-0.01 0.01z"/>
       <path class="fil0" d="M1083.08 349.66c4.61,0 4.47,-0.56 8.25,2.57 1.76,1.46 2,1.75 2.57,4.19l-19.61 0c0.38,-4.51 4.38,-6.76 8.79,-6.76l0 -0.01zm35.84 -6.19l-3.17 -0.18 0.46 -2.19c-3.22,-7.33 -11.23,-12.64 -20,-14.72 -15.98,-3.79 -28.49,-0.58 -40.09,8.48 -13.81,10.79 -17.66,36.89 -10.47,51.55 5.76,11.75 17.58,19.71 31.03,21.69 5.04,0.75 11.76,0.89 16.95,0.1 6.48,-0.97 8.45,-1.75 13.34,-4.23 3.49,-1.77 7.65,-4.77 10.08,-7.5 3.47,-3.91 3.91,-6.64 5.24,-12.34 -5.57,-1.3 -8.04,-1.84 -13.04,-3.86 -3.99,-1.6 -8.16,-3.99 -13.08,-1.98 -4.22,1.72 -6.35,5.22 -11.74,5.22 -4.92,0 -9.76,-2.98 -10.14,-7.48 7.66,0 15.33,0.04 22.99,0 17.62,-0.09 31.52,5.61 27.81,-15.65 -2.57,-14.78 -2.32,-8.95 -6.19,-16.9l0.01 0z"/>
       <path class="fil0" d="M620.63 326.66c-14.2,0 -10.14,3.04 -10.14,24.34 3.78,2.54 0.28,2.03 10.14,2.03l0 48.68c0,3.2 2.75,5.41 5.41,5.41 6.8,0 19.68,-0.11 25.01,-1.36 1.6,-6.9 0.67,-42.92 0.67,-52.73l17.58 0c0.48,-5.75 4.44,-15.69 -0.67,-26.37l-16.23 0c0.85,-10.15 11.82,-7.59 18.25,-6.08 1.04,-2.17 2.83,-14.22 2.47,-17.3 -1.52,-12.93 -7.95,-11.1 -20.04,-11.1 -12.37,0 -17.4,3.07 -23.5,9.62 -5.17,5.56 -8.95,14.28 -8.95,24.86l-0.01 0z"/>
       <path class="fil0" d="M976.93 364.53c0,12.69 3.15,22.34 10.82,31.1 16.59,18.96 53.41,14.85 53.41,2.03 0,-31.9 -0.26,-17.58 -19.61,-17.58 -3.99,0 -20.89,-8.21 -8.3,-22.5 11.63,-13.19 27.9,8.28 27.9,-6.58 0,-25.55 -0.64,-25.69 -27.72,-25.69 -17.07,0 -36.51,19.45 -36.51,39.21l0.01 0.02z"/>
       <path class="fil0" d="M1051.3 243.51c0,16.2 -1.92,19.32 9.97,31.28 7.23,7.28 13.56,7.94 23.84,7.94 11.65,0 16.21,-4.43 22.14,-10.31 4.92,-4.89 10.58,-13.19 10.1,-22.68 -0.89,-17.46 -17.52,-33.27 -32.24,-33.27 -10,0 -15.87,1.31 -23.5,8.95 -3.6,3.6 -10.31,11.51 -10.31,18.09l0 0z"/>
       <path class="fil0" d="M677.66 330.72l-0.02 70.99 -0.26 4.73c24.46,0 30.58,9.6 30.46,-22.31 -0.04,-9.6 -0.68,-17.13 -0.68,-27.05 0,-9.47 0,-18.93 0,-28.4l-15.67 -2.64c-1.69,-0.17 -6.63,0.47 -8.4,0.88 -2.6,0.59 -4.53,1.72 -5.44,3.79l0.01 0.01z"/>
       <path class="fil0" d="M677.65 401.71l0.02 -70.99c-1.16,1.36 -0.16,-0.52 -0.7,1.51 -2.22,8.17 -2.42,57.56 -0.65,65.84 0.03,0.15 0.3,1.36 0.39,1.67l0.94 1.97 0 -0z"/>
       <polygon class="fil0" points="485.41,277.31 485.45,274.6 482.71,274.78 482.71,277.31 "/>
       <polygon class="fil0" points="1118.9,343.47 1118.9,340.86 1116.2,341.1 1115.73,343.29 "/>
      </g>
     </g>
    </g>
   </g>
  </g>
  <polygon class="fil1" points="-0,0 1472.5,0 1472.5,492.46 -0,492.46 "/>
 </g>
</svg>
