<?xml version="1.0" encoding="UTF-8"?>
<!DOCTYPE svg PUBLIC "-//W3C//DTD SVG 1.1//EN" "http://www.w3.org/Graphics/SVG/1.1/DTD/svg11.dtd">
<!-- Creator: CorelDRAW 2019 (64-Bit) -->
<svg xmlns="http://www.w3.org/2000/svg" xml:space="preserve" width="7.12595in" height="5.04553in" version="1.1" style="shape-rendering:geometricPrecision; text-rendering:geometricPrecision; image-rendering:optimizeQuality; fill-rule:evenodd; clip-rule:evenodd"
viewBox="0 0 7125.95 5045.53"
 xmlns:xlink="http://www.w3.org/1999/xlink"
 xmlns:xodm="http://www.corel.com/coreldraw/odm/2003">
 <defs>
  <style type="text/css">
   <![CDATA[
    .fil42 {fill:none}
    .fil35 {fill:none;fill-rule:nonzero}
    .fil36 {fill:#CCFFE0}
    .fil0 {fill:white}
    .fil1 {fill:white;fill-rule:nonzero}
    .fil40 {fill:#9CFFC4;fill-rule:nonzero;fill-opacity:0.050980}
    .fil39 {fill:#9CFFC4;fill-rule:nonzero;fill-opacity:0.141176}
    .fil41 {fill:#9CFFC4;fill-rule:nonzero;fill-opacity:0.149020}
    .fil38 {fill:#9CFFC4;fill-rule:nonzero;fill-opacity:0.180392}
    .fil37 {fill:#9CFFC4;fill-rule:nonzero}
    .fil29 {fill:url(#id3);fill-rule:nonzero;fill-opacity:0.050980}
    .fil18 {fill:url(#id4);fill-rule:nonzero;fill-opacity:0.050980}
    .fil7 {fill:url(#id5);fill-rule:nonzero;fill-opacity:0.050980}
    .fil27 {fill:url(#id6);fill-rule:nonzero;fill-opacity:0.501961}
    .fil31 {fill:url(#id7);fill-rule:nonzero;fill-opacity:0.501961}
    .fil12 {fill:url(#id8);fill-rule:nonzero;fill-opacity:0.501961}
    .fil32 {fill:url(#id9);fill-rule:nonzero;fill-opacity:0.501961}
    .fil24 {fill:url(#id10);fill-rule:nonzero;fill-opacity:0.501961}
    .fil13 {fill:url(#id11);fill-rule:nonzero;fill-opacity:0.501961}
    .fil10 {fill:url(#id12);fill-rule:nonzero;fill-opacity:0.501961}
    .fil17 {fill:url(#id13);fill-rule:nonzero;fill-opacity:0.501961}
    .fil19 {fill:url(#id14);fill-rule:nonzero;fill-opacity:0.501961}
    .fil15 {fill:url(#id15);fill-rule:nonzero;fill-opacity:0.501961}
    .fil23 {fill:url(#id16);fill-rule:nonzero;fill-opacity:0.501961}
    .fil16 {fill:url(#id17);fill-rule:nonzero;fill-opacity:0.501961}
    .fil3 {fill:url(#id18);fill-rule:nonzero;fill-opacity:0.501961}
    .fil2 {fill:url(#id19);fill-rule:nonzero;fill-opacity:0.501961}
    .fil21 {fill:url(#id20);fill-rule:nonzero;fill-opacity:0.501961}
    .fil28 {fill:url(#id21);fill-rule:nonzero;fill-opacity:0.501961}
    .fil33 {fill:url(#id22);fill-rule:nonzero;fill-opacity:0.501961}
    .fil8 {fill:url(#id23);fill-rule:nonzero;fill-opacity:0.501961}
    .fil30 {fill:url(#id24);fill-rule:nonzero;fill-opacity:0.501961}
    .fil4 {fill:url(#id25);fill-rule:nonzero;fill-opacity:0.501961}
    .fil25 {fill:url(#id26);fill-rule:nonzero;fill-opacity:0.501961}
    .fil20 {fill:url(#id27);fill-rule:nonzero;fill-opacity:0.501961}
    .fil34 {fill:url(#id28);fill-rule:nonzero;fill-opacity:0.501961}
    .fil9 {fill:url(#id29);fill-rule:nonzero;fill-opacity:0.501961}
    .fil5 {fill:url(#id30);fill-rule:nonzero;fill-opacity:0.501961}
    .fil14 {fill:url(#id31);fill-rule:nonzero;fill-opacity:0.501961}
    .fil26 {fill:url(#id32);fill-rule:nonzero;fill-opacity:0.501961}
    .fil6 {fill:url(#id33);fill-rule:nonzero;fill-opacity:0.501961}
    .fil11 {fill:url(#id34);fill-rule:nonzero;fill-opacity:0.501961}
    .fil22 {fill:url(#id35);fill-rule:nonzero;fill-opacity:0.501961}
   ]]>
  </style>
   <clipPath id="id0">
    <path d="M171.67 0l6782.61 0c94.42,0 171.67,77.25 171.67,171.67l0 4702.2c0,94.42 -77.25,171.67 -171.67,171.67l-6782.61 0c-94.42,0 -171.67,-77.25 -171.67,-171.67l0 -4702.2c0,-94.42 77.25,-171.67 171.67,-171.67z"/>
   </clipPath>
    <clipPath id="id1" style="clip-rule:nonzero">
     <path d="M6954.28 5045.53l-6782.61 0c-75.18,0 -139.46,-48.97 -162.55,-116.58l0 -4577.32 7107.71 0 0 4577.32c-23.09,67.61 -87.37,116.58 -162.55,116.58z"/>
    </clipPath>
    <clipPath id="id2" style="clip-rule:nonzero">
     <path d="M171.67 0l6782.61 0c94.42,0 171.67,77.25 171.67,171.67l0 4702.2c0,94.42 -77.25,171.67 -171.67,171.67l-6782.61 0c-94.42,0 -171.67,-77.25 -171.67,-171.67l0 -4702.2c0,-94.42 77.25,-171.67 171.67,-171.67z"/>
    </clipPath>
  <radialGradient id="id3" gradientUnits="userSpaceOnUse" gradientTransform="matrix(0.999738 -0 -0 0.999738 1 1)" cx="5729.72" cy="4795.18" r="391.8" fx="5729.72" fy="4795.18">
   <stop offset="0" style="stop-opacity:1; stop-color:#F0D1E4"/>
   <stop offset="0.839216" style="stop-opacity:1; stop-color:#786872"/>
   <stop offset="1" style="stop-opacity:1; stop-color:black"/>
   <stop offset="1" style="stop-opacity:1; stop-color:black"/>
  </radialGradient>
  <radialGradient id="id4" gradientUnits="userSpaceOnUse" gradientTransform="matrix(1.03927 -0.0682884 0.0682888 1.03927 -603 377)" xlink:href="#id3" cx="7967.95" cy="4249.12" r="376.08" fx="7967.95" fy="4249.12">
  </radialGradient>
  <radialGradient id="id5" gradientUnits="userSpaceOnUse" gradientTransform="matrix(1.08328 0.146225 -0.146225 1.08328 485 -635)" xlink:href="#id3" cx="1854.28" cy="4369.62" r="360.36" fx="1854.28" fy="4369.62">
  </radialGradient>
  <linearGradient id="id6" gradientUnits="userSpaceOnUse" x1="4169.54" y1="5952.94" x2="2627.88" y2="3353.72">
   <stop offset="0" style="stop-opacity:1; stop-color:#09AB49"/>
   <stop offset="1" style="stop-opacity:1; stop-color:#0AF769"/>
  </linearGradient>
  <linearGradient id="id7" gradientUnits="userSpaceOnUse" x1="136.97" y1="5799.94" x2="-304.49" y2="3410.68">
   <stop offset="0" style="stop-opacity:1; stop-color:#E93B70"/>
   <stop offset="1" style="stop-opacity:1; stop-color:#F0D1E4"/>
  </linearGradient>
  <linearGradient id="id8" gradientUnits="userSpaceOnUse" x1="-245.12" y1="5664.01" x2="-363.17" y2="3234.77">
   <stop offset="0" style="stop-opacity:1; stop-color:#12EE6A"/>
   <stop offset="1" style="stop-opacity:1; stop-color:#CCFFE0"/>
  </linearGradient>
  <linearGradient id="id9" gradientUnits="userSpaceOnUse" x1="3581.68" y1="6846.78" x2="3585.8" y2="4115.12">
   <stop offset="0" style="stop-opacity:1; stop-color:#12EE6A"/>
   <stop offset="1" style="stop-opacity:1; stop-color:white"/>
  </linearGradient>
  <linearGradient id="id10" gradientUnits="userSpaceOnUse" xlink:href="#id8" x1="5935.4" y1="6834.6" x2="4817.88" y2="3100.98">
  </linearGradient>
  <linearGradient id="id11" gradientUnits="userSpaceOnUse" xlink:href="#id8" x1="8279.16" y1="6457.55" x2="6884" y2="2206.49">
  </linearGradient>
  <linearGradient id="id12" gradientUnits="userSpaceOnUse" xlink:href="#id9" x1="-552.99" y1="6729.14" x2="-166.42" y2="2973.29">
  </linearGradient>
  <linearGradient id="id13" gradientUnits="userSpaceOnUse" x1="10633.99" y1="5942.95" x2="8574.32" y2="3225.68">
   <stop offset="0" style="stop-opacity:1; stop-color:#09AB49"/>
   <stop offset="1" style="stop-opacity:1; stop-color:#9CFFC4"/>
  </linearGradient>
  <linearGradient id="id14" gradientUnits="userSpaceOnUse" xlink:href="#id8" x1="7340.18" y1="5662.25" x2="4355.64" y2="2803.87">
  </linearGradient>
  <linearGradient id="id15" gradientUnits="userSpaceOnUse" x1="3491.4" y1="5528.99" x2="2029.84" y2="3794.11">
   <stop offset="0" style="stop-opacity:1; stop-color:#9CFFC4"/>
   <stop offset="1" style="stop-opacity:1; stop-color:white"/>
  </linearGradient>
  <linearGradient id="id16" gradientUnits="userSpaceOnUse" xlink:href="#id8" x1="6098.47" y1="5947.79" x2="5624.64" y2="3568.6">
  </linearGradient>
  <linearGradient id="id17" gradientUnits="userSpaceOnUse" xlink:href="#id6" x1="6487.04" y1="5506.69" x2="4778.27" y2="3014.15">
  </linearGradient>
  <linearGradient id="id18" gradientUnits="userSpaceOnUse" xlink:href="#id15" x1="-3753.22" y1="4712.39" x2="-4538.12" y2="2219.5">
  </linearGradient>
  <linearGradient id="id19" gradientUnits="userSpaceOnUse" xlink:href="#id8" x1="1942.85" y1="6604.09" x2="1141.99" y2="2122.43">
  </linearGradient>
  <linearGradient id="id20" gradientUnits="userSpaceOnUse" xlink:href="#id9" x1="6036.83" y1="6918.31" x2="5735.46" y2="3326.39">
  </linearGradient>
  <linearGradient id="id21" gradientUnits="userSpaceOnUse" xlink:href="#id13" x1="8251.38" y1="6534.27" x2="6469.53" y2="3956.53">
  </linearGradient>
  <linearGradient id="id22" gradientUnits="userSpaceOnUse" xlink:href="#id15" x1="1138.61" y1="5754.23" x2="-121.16" y2="3986.08">
  </linearGradient>
  <linearGradient id="id23" gradientUnits="userSpaceOnUse" xlink:href="#id8" x1="1051.3" y1="5696.12" x2="-1354.75" y2="2039.6">
  </linearGradient>
  <linearGradient id="id24" gradientUnits="userSpaceOnUse" xlink:href="#id8" x1="5042.61" y1="6049.92" x2="2332.75" y2="3457.89">
  </linearGradient>
  <linearGradient id="id25" gradientUnits="userSpaceOnUse" xlink:href="#id15" x1="-2814.35" y1="5295.16" x2="-3889.93" y2="1969">
  </linearGradient>
  <linearGradient id="id26" gradientUnits="userSpaceOnUse" xlink:href="#id15" x1="136.97" y1="5799.94" x2="-945.38" y2="3670.57">
  </linearGradient>
  <linearGradient id="id27" gradientUnits="userSpaceOnUse" xlink:href="#id7" x1="2751.83" y1="5735.37" x2="1454.15" y2="3074.36">
  </linearGradient>
  <linearGradient id="id28" gradientUnits="userSpaceOnUse" xlink:href="#id8" x1="3752.88" y1="6367.61" x2="3436.07" y2="3962.48">
  </linearGradient>
  <linearGradient id="id29" gradientUnits="userSpaceOnUse" xlink:href="#id7" x1="-3879.32" y1="4798.78" x2="-2836.01" y2="1935.86">
  </linearGradient>
  <linearGradient id="id30" gradientUnits="userSpaceOnUse" xlink:href="#id6" x1="204.22" y1="5308.58" x2="-1118.59" y2="2521.98">
  </linearGradient>
  <linearGradient id="id31" gradientUnits="userSpaceOnUse" xlink:href="#id15" x1="2498.19" y1="5686.51" x2="1191.74" y2="3394.57">
  </linearGradient>
  <linearGradient id="id32" gradientUnits="userSpaceOnUse" xlink:href="#id15" x1="1138.61" y1="5754.23" x2="-121.15" y2="3986.08">
  </linearGradient>
  <linearGradient id="id33" gradientUnits="userSpaceOnUse" xlink:href="#id13" x1="4185.66" y1="6564.83" x2="2694.19" y2="3444.42">
  </linearGradient>
  <linearGradient id="id34" gradientUnits="userSpaceOnUse" xlink:href="#id15" x1="-2815.94" y1="5417.27" x2="-3887.65" y2="1925.67">
  </linearGradient>
  <linearGradient id="id35" gradientUnits="userSpaceOnUse" xlink:href="#id15" x1="3506.99" y1="5531.07" x2="2058.04" y2="3791.13">
  </linearGradient>
 </defs>
 <g id="Layer_x0020_1">
  <metadata id="CorelCorpID_0Corel-Layer"/>
  <path class="fil0" d="M171.67 0l6782.61 0c94.42,0 171.67,77.25 171.67,171.67l0 4702.2c0,94.42 -77.25,171.67 -171.67,171.67l-6782.61 0c-94.42,0 -171.67,-77.25 -171.67,-171.67l0 -4702.2c0,-94.42 77.25,-171.67 171.67,-171.67z"/>
  <g style="clip-path:url(#id0)">
   <g id="_1956599816272">
    <polygon id="1" class="fil1" points="7116.83,5045.53 9.12,5045.53 9.12,351.63 7116.83,351.63 "/>
   </g>
   <g style="clip-path:url(#id1)">
    <g>
     <polygon id="2" class="fil2" points="-928.65,3912.73 -152.15,3678.73 257.17,3477.2 928.85,3594.61 1717.2,3841.9 3177.84,4452.77 3935.94,5140.8 3915.66,5385.68 -1851.16,4607.26 "/>
     <polygon class="fil3" points="-2764.3,3631.5 -2978.84,3332.98 -3524.32,2877.47 -3940.55,2907.56 -4056.68,4309.55 -2626.4,4502.61 "/>
     <polygon class="fil4" points="-1336.75,3427.88 -1913.27,3842.64 -2375.47,3912.08 -2824.92,3905.71 -3590.97,4372.41 -4056.68,4309.55 -4021.4,3883.53 -3388.46,3463.81 "/>
     <polygon class="fil5" points="-510.45,3514.83 -685.77,3589.4 -991.6,3671.21 -1133.56,3727.79 -1023.21,3875.25 -1518.64,4115.28 -427.83,4263.34 -58.24,3944.55 66.93,3868.72 649.28,3807.49 "/>
     <polygon class="fil6" points="2354.9,4091.46 2706.4,4344.28 2576.52,4467.95 2255.51,4572.23 2184.41,4764.81 1563.09,5068.12 3337.75,5307.68 3415.3,4371.53 "/>
     <path class="fil7" d="M1930.73 4746.66c-212.12,28.8 -418.31,-116.66 -460.53,-324.89 -42.22,-208.24 95.5,-400.39 307.63,-429.18 212.12,-28.8 418.31,116.66 460.53,324.89 42.22,208.23 -95.51,400.38 -307.63,429.18z"/>
     <polygon class="fil8" points="-1021.1,3982.33 -322.41,3771.78 45.9,3590.45 650.27,3696.09 1359.61,3918.6 2178.27,4260.98 2105.35,5141.32 -1851.16,4607.26 "/>
     <polygon class="fil9" points="-2824.27,4475.9 -2626.4,4502.61 -2757.75,3672.84 "/>
     <polygon class="fil10" points="-2739.49,3452.45 -1336.74,3427.88 -376.26,3807.84 1195.97,4204.58 2190.99,4107.46 2105.35,5141.32 -2824.27,4475.9 "/>
     <polygon class="fil11" points="-1336.74,3427.88 -1913.26,3842.64 -2375.47,3912.08 -2777.1,3906.39 -2739.49,3452.45 "/>
     <polygon class="fil12" points="-367.05,3781.21 -604.72,3882.3 -1019.34,3993.21 -1211.79,4069.92 -1062.19,4269.81 -1733.84,4595.23 -255.04,4795.94 246,4363.77 415.69,4260.97 1205.17,4177.95 "/>
     <polygon class="fil13" points="5169.61,4351.86 5897.14,3965.66 6269.13,3684.75 6945.59,3667.01 7755.66,3754.49 9279.08,4067.58 10124.43,4597.01 10140.61,4843.26 4366.66,5222.66 "/>
     <polygon class="fil14" points="3326.76,4439.54 3072.23,4187.05 2469.81,3845.22 2065.77,3957.93 2158.41,5367.76 3590.47,5273.66 "/>
     <polygon class="fil15" points="4697.68,3953.63 4193.03,4478.77 3749.69,4639.56 3307.68,4722.84 2624.69,5337.12 2158.41,5367.76 2130.26,4939.36 2689.54,4398.08 "/>
     <polygon class="fil16" points="5521.37,3874.96 5360.32,3983.66 5072.25,4125.52 4941.27,4209.78 5071.3,4333.63 4620.48,4669.79 5712.76,4598.82 6028.47,4209.86 6140.13,4109.91 6702.59,3933.29 "/>
     <polygon class="fil17" points="8418.24,3874.23 8800.45,4054.23 8691.21,4202.44 8391.55,4369.56 8350.17,4574.2 7785.13,4998.04 9562,4881.28 9500.14,3939.9 "/>
     <path class="fil18" d="M8098.54 4606.81c-203.91,70.76 -427.7,-32.02 -499.82,-229.56 -72.12,-197.54 34.73,-415.04 238.64,-485.81 203.92,-70.76 427.7,32.03 499.83,229.56 72.12,197.55 -34.73,415.05 -238.65,485.8z"/>
     <polygon class="fil19" points="5089.15,4439.12 5743.78,4091.62 6078.48,3838.86 6687.15,3822.9 7416.04,3901.62 8269.89,4077.1 8328.06,4962.36 4366.66,5222.66 "/>
     <polygon class="fil20" points="3392.35,5286.68 3590.47,5273.66 3339.29,4479.13 "/>
     <polygon class="fil21" points="3324.73,4257.5 4697.68,3953.63 5696.25,4138.02 7297.6,4217.09 8259.75,3922.72 8328.06,4962.36 3392.35,5286.68 "/>
     <polygon class="fil22" points="4697.68,3953.63 4193.03,4478.77 3749.69,4639.56 3354.72,4713.99 3324.73,4257.5 "/>
     <polygon class="fil23" points="5701.36,4109.85 5483.01,4257.2 5092.48,4449.53 4914.92,4563.75 5091.19,4731.66 4480.03,5187.37 5960.81,5091.18 6388.81,4563.86 6540.19,4428.37 7302.71,4188.92 "/>
     <polygon class="fil24" points="2930.66,4714.22 3681.95,4376.55 4071.56,4120.63 4747.72,4147.29 5550.31,4287.7 7049.93,4699.99 7858.74,5283.72 7858.74,5530.5 2072.34,5530.5 "/>
     <polygon class="fil25" points="1086.03,4680.88 848.61,4412.24 269.89,4031.65 -140.67,4117.63 -140.67,5530.5 1294.47,5530.5 "/>
     <polygon class="fil26" points="2485.86,4285.9 1947.86,4776.83 1494.93,4908.2 1048.41,4962.32 326.62,5530.5 -140.67,5530.5 -140.67,5101.17 452.9,4597.73 "/>
     <polygon class="fil27" points="3312.94,4261.4 3145.1,4359.31 2848.35,4481.98 2712.14,4557.47 2833.76,4689.58 2361.87,4995.45 3456.45,4996.26 3796.99,4628.83 3914.96,4536.42 4487.79,4397.06 "/>
     <polygon class="fil28" points="6203.62,4450.61 6573.2,4655.29 6454.48,4796.01 6144.51,4943.13 6089.8,5144.62 5498.19,5530.5 7278.88,5530.5 7278.88,4587.08 "/>
     <path class="fil29" d="M5836.57 5160.66c-208.11,57.24 -424.68,-59.99 -483.69,-261.84 -59.02,-201.85 61.87,-411.87 269.98,-469.11 208.12,-57.24 424.68,60 483.7,261.84 59.01,201.85 -61.87,411.88 -269.98,469.11z"/>
     <polygon class="fil30" points="2844.66,4796.01 3520.66,4492.19 3871.21,4261.92 4479.62,4285.9 5201.78,4412.24 6042.29,4643.32 6042.29,5530.5 2072.35,5530.5 "/>
     <polygon class="fil31" points="1095.93,5530.5 1294.47,5530.5 1095.93,4721.21 "/>
     <polygon class="fil32" points="1095.93,4499.09 2485.86,4285.9 3470.19,4535.36 5062.91,4719.26 6042.29,4488.61 6042.29,5530.5 1095.93,5530.5 "/>
     <polygon class="fil33" points="2485.86,4285.9 1947.87,4776.83 1494.93,4908.2 1095.93,4956.57 1095.93,4499.09 "/>
     <polygon class="fil34" points="3477.13,4507.59 3249.6,4640.31 2847.3,4806.62 2662.63,4908.96 2827.51,5088.06 2187.78,5502.72 3671.68,5503.82 4133.34,5005.7 4293.27,4880.42 5069.86,4691.49 "/>
    </g>
   </g>
   <g style="clip-path:url(#id2)">
    <polygon class="fil35" points="7116.83,5045.53 9.12,5045.53 9.12,351.63 7116.83,351.63 "/>
    <rect class="fil36" x="-109.07" y="-117.26" width="7395.85" height="657.52"/>
    <path class="fil37" d="M107.87 1842.95c0,40.4 -7.14,73.15 -15.94,73.15 -8.8,0 -15.93,-32.75 -15.93,-73.15 0,-40.4 7.13,-73.15 15.93,-73.15 8.8,0 15.94,32.75 15.94,73.15z"/>
    <path class="fil37" d="M91.93 1858.73c-40.78,0 -73.85,-7.07 -73.85,-15.79 0,-8.72 33.06,-15.78 73.85,-15.78 40.78,0 73.85,7.07 73.85,15.78 0,8.72 -33.07,15.79 -73.85,15.79z"/>
    <path class="fil37" d="M895.52 2046.28c0,45.15 -7.97,81.74 -17.81,81.74 -9.83,0 -17.81,-36.59 -17.81,-81.74 0,-45.14 7.98,-81.74 17.81,-81.74 9.84,0 17.81,36.6 17.81,81.74z"/>
    <path class="fil37" d="M877.71 2063.92c-45.58,0 -82.52,-7.9 -82.52,-17.65 0,-9.74 36.94,-17.64 82.52,-17.64 45.57,0 82.52,7.89 82.52,17.64 0,9.74 -36.94,17.65 -82.52,17.65z"/>
    <path class="fil37" d="M230.3 2074.06c0,25.95 -4.58,46.98 -10.23,46.98 -5.66,0 -10.24,-21.03 -10.24,-46.98 0,-25.95 4.58,-46.99 10.24,-46.99 5.65,0 10.23,21.04 10.23,46.99z"/>
    <path class="fil37" d="M220.07 2084.2c-26.2,0 -47.44,-4.54 -47.44,-10.14 0,-5.6 21.24,-10.14 47.44,-10.14 26.19,0 47.43,4.54 47.43,10.14 0,5.59 -21.23,10.14 -47.43,10.14z"/>
    <path class="fil38" d="M689.2 2419.51c0,91.34 -74.76,165.39 -166.96,165.39 -92.21,0 -166.96,-74.05 -166.96,-165.39 0,-91.34 74.75,-165.39 166.96,-165.39 92.21,0 166.96,74.05 166.96,165.39z"/>
    <path class="fil39" d="M1526.41 1206.22c0,205.28 -168,371.7 -375.23,371.7 -207.24,0 -375.23,-166.41 -375.23,-371.7 0,-205.29 167.99,-371.7 375.23,-371.7 207.23,0 375.23,166.42 375.23,371.7z"/>
    <path class="fil40" d="M794.35 1921.43c0,137.39 -112.44,248.78 -251.14,248.78 -138.7,0 -251.14,-111.39 -251.14,-248.78 0,-137.4 112.44,-248.78 251.14,-248.78 138.7,0 251.14,111.38 251.14,248.78z"/>
    <path class="fil40" d="M1454.19 2417.51c-43.22,12.14 -88.19,-12.72 -100.45,-55.54 -12.25,-42.81 12.85,-87.36 56.07,-99.5 43.22,-12.14 88.19,12.73 100.44,55.54 12.26,42.81 -12.85,87.36 -56.07,99.5z"/>
    <path class="fil39" d="M414.9 1400.39c-99.21,27.87 -202.44,-29.21 -230.57,-127.49 -28.13,-98.28 29.49,-200.54 128.7,-228.4 99.21,-27.87 202.44,29.21 230.57,127.49 28.13,98.28 -29.49,200.53 -128.7,228.4z"/>
    <path class="fil37" d="M107.88 1842.95c0,40.4 -7.14,73.15 -15.94,73.15 -8.8,0 -15.93,-32.75 -15.93,-73.15 0,-40.4 7.13,-73.15 15.93,-73.15 8.8,0 15.94,32.75 15.94,73.15z"/>
    <path class="fil37" d="M91.94 1858.73c-40.78,0 -73.85,-7.07 -73.85,-15.79 0,-8.72 33.07,-15.78 73.85,-15.78 40.79,0 73.85,7.07 73.85,15.78 0,8.72 -33.06,15.79 -73.85,15.79z"/>
    <path class="fil38" d="M689.2 2419.51c0,91.34 -74.76,165.39 -166.96,165.39 -92.21,0 -166.96,-74.05 -166.96,-165.39 0,-91.34 74.75,-165.39 166.96,-165.39 92.21,0 166.96,74.05 166.96,165.39z"/>
    <path class="fil39" d="M1526.41 1206.22c0,205.28 -168,371.7 -375.22,371.7 -207.24,0 -375.23,-166.41 -375.23,-371.7 0,-205.29 168,-371.7 375.23,-371.7 207.23,0 375.22,166.42 375.22,371.7z"/>
    <path class="fil40" d="M794.35 1921.43c0,137.39 -112.44,248.78 -251.14,248.78 -138.7,0 -251.14,-111.39 -251.14,-248.78 0,-137.4 112.44,-248.78 251.14,-248.78 138.7,0 251.14,111.38 251.14,248.78z"/>
    <path class="fil40" d="M1454.2 2417.51c-43.22,12.14 -88.19,-12.72 -100.45,-55.54 -12.25,-42.81 12.85,-87.36 56.07,-99.5 43.22,-12.14 88.2,12.73 100.45,55.54 12.25,42.81 -12.85,87.36 -56.07,99.5z"/>
    <path class="fil39" d="M414.9 1400.39c-99.21,27.87 -202.43,-29.21 -230.57,-127.49 -28.13,-98.28 29.48,-200.54 128.7,-228.4 99.21,-27.87 202.44,29.21 230.57,127.49 28.13,98.28 -29.49,200.53 -128.7,228.4z"/>
    <path class="fil37" d="M5543.46 1766.01c33.18,0 60.08,5.75 60.08,12.84 0,7.09 -26.9,12.85 -60.08,12.85 -33.18,0 -60.08,-5.75 -60.08,-12.85 0,-7.09 26.9,-12.84 60.08,-12.84z"/>
    <path class="fil37" d="M5969.24 1625.17c0,-45.15 7.97,-81.75 17.81,-81.75 9.83,0 17.81,36.6 17.81,81.75 0,45.15 -7.97,81.74 -17.81,81.74 -9.83,0 -17.81,-36.59 -17.81,-81.74z"/>
    <path class="fil37" d="M5987.05 1607.52c45.57,0 82.52,7.9 82.52,17.65 0,9.74 -36.94,17.64 -82.52,17.64 -45.57,0 -82.52,-7.9 -82.52,-17.64 0,-9.75 36.94,-17.65 82.52,-17.65z"/>
    <path class="fil40" d="M6101.14 1818.13c0,-44.5 36.42,-80.57 81.34,-80.57 44.93,0 81.35,36.07 81.35,80.57 0,44.5 -36.42,80.58 -81.35,80.58 -44.92,0 -81.34,-36.08 -81.34,-80.58z"/>
    <path class="fil38" d="M6424.12 1829.92c0,-91.34 74.75,-165.39 166.96,-165.39 92.21,0 166.96,74.05 166.96,165.39 0,91.34 -74.75,165.39 -166.96,165.39 -92.21,0 -166.96,-74.05 -166.96,-165.39z"/>
    <path class="fil40" d="M6427.16 1159.85c0,-137.39 112.44,-248.78 251.14,-248.78 138.7,0 251.14,111.39 251.14,248.78 0,137.39 -112.44,248.78 -251.14,248.78 -138.7,0 -251.14,-111.38 -251.14,-248.78z"/>
    <path class="fil41" d="M6583.15 982.53c199.37,-56 406.83,58.7 463.36,256.2 56.54,197.5 -59.26,403 -258.63,459 -199.37,56 -406.83,-58.7 -463.36,-256.2 -56.54,-197.5 59.26,-403 258.63,-459z"/>
    <path class="fil37" d="M5543.46 1766.01c33.18,0 60.07,5.75 60.07,12.84 0,7.09 -26.89,12.85 -60.07,12.85 -33.19,0 -60.08,-5.75 -60.08,-12.85 0,-7.09 26.9,-12.84 60.08,-12.84z"/>
    <path class="fil37" d="M5917.12 1634.54c-7.98,-2.71 -12.59,-5.93 -12.59,-9.37 0,-3.44 4.62,-6.66 12.59,-9.37l0 18.74z"/>
    <path class="fil38" d="M6424.12 1829.92c0,-91.34 74.75,-165.39 166.96,-165.39 92.21,0 166.96,74.05 166.96,165.39 0,91.34 -74.75,165.39 -166.96,165.39 -92.21,0 -166.96,-74.05 -166.96,-165.39z"/>
    <path class="fil40" d="M6427.16 1159.85c0,-137.39 112.44,-248.78 251.14,-248.78 138.7,0 251.14,111.39 251.14,248.78 0,137.39 -112.44,248.78 -251.14,248.78 -138.7,0 -251.14,-111.38 -251.14,-248.78z"/>
    <path class="fil41" d="M6583.14 982.53c199.37,-56 406.83,58.7 463.36,256.2 56.53,197.5 -59.26,403 -258.63,459 -199.37,56 -406.83,-58.7 -463.36,-256.2 -56.54,-197.5 59.26,-403 258.63,-459z"/>
   </g>
  </g>
  <path class="fil42" d="M171.67 0l6782.61 0c94.42,0 171.67,77.25 171.67,171.67l0 4702.2c0,94.42 -77.25,171.67 -171.67,171.67l-6782.61 0c-94.42,0 -171.67,-77.25 -171.67,-171.67l0 -4702.2c0,-94.42 77.25,-171.67 171.67,-171.67z"/>
 </g>
</svg>
