<?xml version="1.0" encoding="UTF-8"?>
<!DOCTYPE svg PUBLIC "-//W3C//DTD SVG 1.1//EN" "http://www.w3.org/Graphics/SVG/1.1/DTD/svg11.dtd">
<!-- Creator: CorelDRAW -->
<svg xmlns="http://www.w3.org/2000/svg" xml:space="preserve" width="0.731465in" height="0.731465in" version="1.1" style="shape-rendering:geometricPrecision; text-rendering:geometricPrecision; image-rendering:optimizeQuality; fill-rule:evenodd; clip-rule:evenodd"
viewBox="0 0 12.92 12.92"
 xmlns:xlink="http://www.w3.org/1999/xlink"
 xmlns:xodm="http://www.corel.com/coreldraw/odm/2003">
 <defs>
  <style type="text/css">
   <![CDATA[
    .fil1 {fill:#239e54}
    .fil0 {fill:#9bcbae}
   ]]>
  </style>
 </defs>
 <g id="Layer_x0020_1">
  <metadata id="CorelCorpID_0Corel-Layer"/>
  <circle class="fil0" cx="6.46" cy="6.46" r="6.46"/>
  <g id="_105553162922016">
   <path class="fil1" d="M8.46 2.97c-0.13,0.02 -0.18,0.1 -0.23,0.17l-4.75 6.33c-0.2,0.26 0,0.47 0.16,0.49l0.82 0c0.12,-0.02 0.18,-0.1 0.23,-0.17l0.53 -0.71c0.24,-0.31 0.47,-0.63 0.71,-0.94l2.81 -3.75c0.23,-0.31 0.47,-0.62 0.7,-0.94 0.06,-0.08 0.11,-0.18 0.06,-0.31 -0.09,-0.25 -0.4,-0.19 -0.64,-0.19 -0.11,0 -0.31,-0.01 -0.41,0z"/>
   <path class="fil1" d="M8.07 6.47c-0.57,0.04 -0.91,0.31 -1.17,0.58 -0.27,0.29 -0.48,0.75 -0.44,1.3 0.04,0.56 0.31,0.91 0.58,1.17 0.29,0.27 0.75,0.48 1.3,0.44 0.57,-0.04 0.91,-0.31 1.17,-0.58 0.27,-0.29 0.48,-0.75 0.44,-1.3 -0.04,-0.56 -0.31,-0.91 -0.58,-1.17 -0.29,-0.27 -0.74,-0.47 -1.3,-0.44zm0.03 1.17c-0.28,0.05 -0.53,0.33 -0.47,0.68 0.05,0.28 0.34,0.53 0.69,0.46 0.27,-0.05 0.52,-0.33 0.46,-0.67 -0.05,-0.28 -0.33,-0.54 -0.68,-0.47z"/>
   <path class="fil1" d="M4.57 2.97c-0.57,0.04 -0.91,0.31 -1.17,0.58 -0.27,0.29 -0.48,0.75 -0.44,1.3 0.04,0.56 0.31,0.91 0.58,1.17 0.29,0.27 0.75,0.48 1.3,0.44 0.57,-0.04 0.91,-0.31 1.17,-0.58 0.27,-0.29 0.48,-0.75 0.44,-1.3 -0.04,-0.56 -0.31,-0.91 -0.58,-1.17 -0.29,-0.27 -0.74,-0.47 -1.3,-0.44zm0.03 1.17c-0.28,0.05 -0.53,0.33 -0.47,0.68 0.05,0.28 0.34,0.53 0.69,0.46 0.27,-0.05 0.52,-0.33 0.46,-0.67 -0.05,-0.28 -0.33,-0.54 -0.68,-0.47z"/>
  </g>
 </g>
</svg>
