<?xml version="1.0" encoding="UTF-8"?>
<!DOCTYPE svg PUBLIC "-//W3C//DTD SVG 1.1//EN" "http://www.w3.org/Graphics/SVG/1.1/DTD/svg11.dtd">
<!-- Creator: CorelDRAW -->
<svg xmlns="http://www.w3.org/2000/svg" xml:space="preserve" width="0.731465in" height="0.731465in" version="1.1" style="shape-rendering:geometricPrecision; text-rendering:geometricPrecision; image-rendering:optimizeQuality; fill-rule:evenodd; clip-rule:evenodd"
viewBox="0 0 37.16 37.16"
 xmlns:xlink="http://www.w3.org/1999/xlink"
 xmlns:xodm="http://www.corel.com/coreldraw/odm/2003">
 <defs>
  <style type="text/css">
   <![CDATA[
    .fil0 {fill:#342845}
    .fil1 {fill:#7A5FC0}
   ]]>
  </style>
 </defs>
 <g id="Layer_x0020_1">
  <metadata id="CorelCorpID_0Corel-Layer"/>
  <g id="_105553164431552">
   <circle class="fil0" cx="18.58" cy="18.58" r="18.58"/>
   <g>
    <path class="fil1" d="M6.97 10.36c0,0.54 0.27,0.82 0.77,1.11 0.37,0.21 0.75,0.35 1.2,0.49 2.14,0.66 6.12,0.63 8.08,-0.49 1.02,-0.58 1.06,-1.39 0.03,-2.01 -1.92,-1.15 -5.99,-1.16 -8.11,-0.51 -0.57,0.17 -1.98,0.68 -1.98,1.41z"/>
    <path class="fil1" d="M13.16 21.97c0,0.53 0.22,0.78 0.74,1.09 2.1,1.27 7.16,1.26 9.31,0.02 1.04,-0.6 1.04,-1.43 0,-2.03 -2.15,-1.24 -7.11,-1.25 -9.28,0 -0.26,0.15 -0.77,0.53 -0.77,0.92z"/>
    <path class="fil1" d="M19.35 15c0,0.54 0.27,0.82 0.77,1.11 2.16,1.24 7.04,1.24 9.25,0.02 1.06,-0.58 1.09,-1.44 0.03,-2.05 -2.16,-1.24 -7.12,-1.24 -9.28,0 -0.26,0.15 -0.77,0.53 -0.77,0.92z"/>
    <path class="fil1" d="M24.33 19.36c1.77,0 3.5,-0.08 5.01,-0.89 0.32,-0.17 0.59,-0.38 0.76,-0.69 0.15,-0.27 0.08,-1.08 0.08,-1.42 -0.07,0.11 -0.05,0.26 -0.32,0.55 -0.43,0.44 -1.27,0.73 -1.86,0.9 -0.53,0.15 -1.75,0.35 -2.36,0.35 -0.37,-0 -0.52,0.05 -0.87,0.05l-1.68 -0.11c-1.12,-0.14 -3.21,-0.46 -3.71,-1.66l-0.03 -0.07c0,0.32 -0,0.65 -0,0.97 -0,0.3 0.03,0.46 0.28,0.74 0.86,0.92 3.48,1.29 4.7,1.29z"/>
    <path class="fil1" d="M18.09 26.32c1.8,0 3.5,-0.08 5.03,-0.87 0.32,-0.17 0.62,-0.39 0.79,-0.71 0.15,-0.27 0.08,-1.08 0.08,-1.42l-0.03 0.07c-0.33,0.82 -1.29,1.14 -2.16,1.37 -0.84,0.23 -2.32,0.4 -3.23,0.4l-1.68 -0.11c-1.11,-0.14 -3.21,-0.46 -3.71,-1.66 -0,-0.01 -0.01,-0.03 -0.01,-0.03 -0,-0.01 -0.01,-0.02 -0.01,-0.03 0,0.84 -0.13,1.26 0.28,1.71 0.11,0.12 0.4,0.32 0.56,0.41 1.06,0.56 2.71,0.89 4.09,0.89z"/>
    <path class="fil1" d="M18 28.64c1.66,0 2.94,-0.01 4.49,-0.59 1.75,-0.65 1.51,-1.12 1.51,-2.41l-0.13 0.3c-0.72,1.24 -4.04,1.54 -5.28,1.54 -1.16,0 -2.29,-0.16 -3.23,-0.4 -0.42,-0.1 -0.94,-0.28 -1.29,-0.49 -0.3,-0.18 -0.55,-0.32 -0.74,-0.62l-0.15 -0.33c0,1.12 -0.18,1.55 0.81,2.09 0.24,0.13 0.45,0.23 0.7,0.32 0.92,0.31 2.12,0.59 3.33,0.59z"/>
    <path class="fil1" d="M11.81 14.71c1.84,0 3.55,-0.05 5.13,-0.87 0.32,-0.17 0.62,-0.39 0.79,-0.71 0.15,-0.27 0.08,-1.08 0.08,-1.42l-0.03 0.07c-0,0.01 -0.02,0.06 -0.03,0.07 -0.17,0.41 -0.41,0.56 -0.8,0.79 -1.79,1.08 -5.69,1.09 -7.78,0.51 -0.61,-0.17 -1.38,-0.44 -1.84,-0.87 -0.15,-0.14 -0.21,-0.25 -0.29,-0.43l-0.06 -0.14c0,0.32 -0,0.65 -0,0.97 -0,0.56 0.33,0.86 0.81,1.13 1,0.55 2.74,0.9 4.03,0.9z"/>
    <path class="fil1" d="M11.91 17.04c1.44,0 3.05,-0.05 4.37,-0.56 0.25,-0.1 0.45,-0.19 0.66,-0.3 0.47,-0.24 0.87,-0.57 0.87,-1.11 0,-0.34 -0,-0.68 -0,-1.02l-0.03 0.07c-0.34,0.83 -1.34,1.17 -2.16,1.37 -2.32,0.57 -5.76,0.58 -7.76,-0.49 -0.42,-0.22 -0.67,-0.44 -0.84,-0.85l-0.03 -0.07c-0,-0.01 -0.01,-0.02 -0.01,-0.03 0,0.32 -0,0.65 -0,0.97 -0,0.81 0.8,1.18 1.54,1.46 0.84,0.32 2.26,0.57 3.4,0.57z"/>
    <path class="fil1" d="M11.91 19.36c1.78,0 3.54,-0.08 5.06,-0.89 1.05,-0.56 0.84,-1.03 0.84,-2.11 -0.01,0.01 -0.01,0.02 -0.01,0.03 -0,0.02 -0.01,0.03 -0.01,0.03 -0.33,0.81 -1.25,1.12 -2.12,1.36 -1.91,0.54 -4.61,0.51 -6.46,0.02 -0.84,-0.22 -1.84,-0.54 -2.19,-1.38l-0.03 -0.07c0,0.32 -0,0.65 -0,0.97 -0,0.56 0.32,0.87 0.84,1.14 1.06,0.56 2.71,0.89 4.09,0.89z"/>
    <path class="fil1" d="M24.62 20.52c-0.27,0 -0.29,-0.05 -0.53,-0.05 0.08,0.28 0.61,0.51 0.63,1.21 1.52,0 2.65,-0.12 3.92,-0.57 1.82,-0.65 1.54,-1.2 1.54,-2.42 -0.12,0.19 -0.09,0.53 -0.89,0.95 -1.24,0.66 -3.16,0.89 -4.67,0.89z"/>
    <path class="fil1" d="M11.91 21.68l0.53 0c0,-0.68 0.55,-0.93 0.63,-1.21 -0.98,0.12 -1.23,0.01 -2.22,-0.05 -0.97,-0.06 -3.16,-0.52 -3.72,-1.41l-0.15 -0.33c0,1.37 -0.26,1.7 1.54,2.42 0.79,0.32 2.27,0.57 3.39,0.57z"/>
    <path class="fil1" d="M11.95 24l0.44 0 0 -1.16c-0.91,0 -2.39,-0.17 -3.23,-0.4 -0.63,-0.17 -1.66,-0.53 -2.03,-1.11l-0.14 -0.3c-0,-0.01 -0.01,-0.02 -0.01,-0.03 0,0.31 -0.06,1.15 0.06,1.39 0.04,0.09 0.15,0.25 0.22,0.32 0.86,0.92 3.48,1.29 4.7,1.29z"/>
    <path class="fil1" d="M24.77 22.84l0 1.16c1.32,0 4.62,-0.25 5.34,-1.58 0.08,-0.15 0.08,-0.19 0.08,-0.4 0,-0.34 -0,-0.68 -0,-1.02l-0.13 0.3c-0.16,0.27 -0.45,0.48 -0.72,0.63 -0.82,0.46 -1.89,0.66 -2.84,0.79l-1.72 0.12z"/>
    <path class="fil1" d="M24.77 25.16l0 1.16c1.46,0 2.67,-0.13 3.91,-0.59 0.63,-0.24 1.51,-0.61 1.51,-1.39 0,-0.34 -0,-0.68 -0,-1.02l-0.03 0.07c-0.09,0.22 -0.11,0.29 -0.3,0.48 -0.43,0.45 -1.26,0.73 -1.86,0.9 -0.88,0.24 -2.13,0.4 -3.23,0.4z"/>
    <path class="fil1" d="M11.81 26.32l0.58 0 0 -1.16c-1.34,0 -4.75,-0.24 -5.39,-1.77 -0,-0.01 -0.01,-0.03 -0.01,-0.03 -0,-0.01 -0.01,-0.02 -0.01,-0.03 0,0.32 -0,0.65 -0,0.97 -0,0.83 0.85,1.2 1.51,1.44 0.84,0.31 2.2,0.59 3.33,0.59z"/>
   </g>
  </g>
 </g>
</svg>
