<?xml version="1.0" encoding="UTF-8"?>
<!DOCTYPE svg PUBLIC "-//W3C//DTD SVG 1.1//EN" "http://www.w3.org/Graphics/SVG/1.1/DTD/svg11.dtd">
<!-- Creator: CorelDRAW -->
<svg xmlns="http://www.w3.org/2000/svg" xml:space="preserve" width="0.731465in" height="0.731465in" version="1.1" style="shape-rendering:geometricPrecision; text-rendering:geometricPrecision; image-rendering:optimizeQuality; fill-rule:evenodd; clip-rule:evenodd"
viewBox="0 0 16.5 16.5"
 xmlns:xlink="http://www.w3.org/1999/xlink"
 xmlns:xodm="http://www.corel.com/coreldraw/odm/2003">
 <defs>
  <style type="text/css">
   <![CDATA[
    .fil0 {fill:#152b1e}
    .fil1 {fill:#239e54}
   ]]>
  </style>
 </defs>
 <g id="Layer_x0020_1">
  <metadata id="CorelCorpID_0Corel-Layer"/>
  <circle class="fil0" cx="8.25" cy="8.25" r="8.25"/>
  <g id="_105553162486592">
   <path class="fil1" d="M4.84 11.37c0,0.71 0.52,1.21 1.23,1.21l4.35 0c0.55,0 0.92,-0.27 1.12,-0.69 0.24,-0.48 0.05,-1.91 -0.22,-2.41 -0.1,-0.17 -0.07,-0.16 -0.2,-0.34 -0.25,-0.37 -0.63,-0.58 -1.14,-0.58 -0.29,0 -1.37,1.36 -3.08,0.22 -0.12,-0.08 -0.29,-0.22 -0.44,-0.22 -0.56,0 -0.95,0.3 -1.2,0.73 -0.35,0.61 -0.44,1.37 -0.44,2.08z"/>
   <path class="fil1" d="M8.14 8.86c0.49,0 0.8,-0.05 1.22,-0.36 0.1,-0.08 0.15,-0.13 0.24,-0.22 0.28,-0.28 0.49,-0.69 0.5,-1.09 0,-0.09 0.02,-0.13 0.02,-0.22 -0.02,-0.28 -0.07,-0.54 -0.17,-0.74 -0.1,-0.19 -0.13,-0.26 -0.27,-0.42 -0.59,-0.67 -1.4,-0.85 -2.2,-0.51 -0.19,0.08 -0.4,0.24 -0.54,0.37 -0.07,0.07 -0.14,0.16 -0.21,0.25 -0.31,0.42 -0.39,0.9 -0.31,1.44 0.11,0.76 0.91,1.49 1.72,1.49z"/>
   <path class="fil1" d="M3.61 8.08c0,0.22 0.04,0.43 0.25,0.58 0.38,0.27 0.79,0.2 1.31,0.2 0.06,0 0.22,-0.21 0.39,-0.32 0.23,-0.15 0.4,-0.22 0.68,-0.27 0.22,-0.04 0.25,0.01 0.22,-0.08 -0.01,-0.02 -0.02,-0.04 -0.03,-0.06 -0.24,-0.36 -0.32,-0.76 -0.32,-1.22 0,-0.11 0.02,-0.13 0.02,-0.24 -0.59,0.14 -0.77,0.18 -1.4,-0.07 -0.35,-0.14 -0.46,-0.3 -0.66,-0.2 -0.38,0.18 -0.44,1.04 -0.44,1.45l0 0.21z"/>
   <path class="fil1" d="M11.02 6.8c-0.27,0 -0.42,-0.06 -0.63,-0.11l0.02 0.38c0,0.25 -0.05,0.47 -0.12,0.66 -0.21,0.6 -0.43,0.48 -0.03,0.55 0.35,0.06 0.55,0.16 0.82,0.36 0.35,0.28 -0.04,0.23 0.99,0.23 0.23,0 0.45,-0.11 0.58,-0.2 0.21,-0.15 0.25,-0.36 0.25,-0.58l0 -0.21c0,-0.4 -0.06,-1.27 -0.44,-1.45 -0.16,-0.08 -0.22,-0.01 -0.34,0.05 -0.11,0.05 -0.2,0.1 -0.32,0.15 -0.23,0.09 -0.45,0.18 -0.77,0.18z"/>
   <path class="fil1" d="M9.79 5.13c0,1.36 1.78,1.74 2.36,0.57 0.16,-0.33 0.16,-0.73 0.01,-1.06 -0.18,-0.39 -0.61,-0.72 -1.05,-0.72l-0.13 0c-0.64,0 -1.2,0.58 -1.2,1.21z"/>
   <path class="fil1" d="M4.22 5.11l0 0.09c0,0.65 0.58,1.2 1.23,1.2 0.7,0 1.25,-0.55 1.25,-1.27 0,-0.64 -0.56,-1.21 -1.2,-1.21 -0.36,0 -0.59,0.07 -0.85,0.29l-0.33 0.42c-0.06,0.14 -0.11,0.29 -0.11,0.48z"/>
  </g>
 </g>
</svg>
