<?xml version="1.0" encoding="UTF-8"?>
<!DOCTYPE svg PUBLIC "-//W3C//DTD SVG 1.1//EN" "http://www.w3.org/Graphics/SVG/1.1/DTD/svg11.dtd">
<!-- Creator: CorelDRAW -->
<svg xmlns="http://www.w3.org/2000/svg" xml:space="preserve" width="0.731465in" height="0.731465in" version="1.1" style="shape-rendering:geometricPrecision; text-rendering:geometricPrecision; image-rendering:optimizeQuality; fill-rule:evenodd; clip-rule:evenodd"
viewBox="0 0 22.94 22.94"
 xmlns:xlink="http://www.w3.org/1999/xlink"
 xmlns:xodm="http://www.corel.com/coreldraw/odm/2003">
 <defs>
  <style type="text/css">
   <![CDATA[
    .fil0 {fill:#342845}
    .fil1 {fill:#7A5FC0}
   ]]>
  </style>
 </defs>
 <g id="Layer_x0020_1">
  <metadata id="CorelCorpID_0Corel-Layer"/>
  <circle class="fil0" cx="11.47" cy="11.47" r="11.47"/>
  <g id="_105553164141056">
   <polygon class="fil1" points="15.61,17.35 17.85,17.36 17.85,8.29 15.62,8.29 "/>
   <polygon class="fil1" points="8.61,17.36 10.85,17.36 10.85,10.36 8.61,10.35 "/>
   <polygon class="fil1" points="12.12,17.35 14.34,17.36 14.34,11.78 12.12,11.79 "/>
   <path class="fil1" d="M16.13 6.67c-0.1,0.13 -0.22,0.24 -0.32,0.36 -0.48,0.56 -1.07,1.17 -1.55,1.71l-0.57 0.64c-0.05,0.06 -0.13,0.15 -0.18,0.18 -0.32,-0.06 -0.46,-0.19 -0.86,0.18 -0.08,-0.01 -0.45,-0.18 -0.56,-0.23l-1.11 -0.48c-0.15,-0.07 -0.41,-0.16 -0.55,-0.24 -0.01,-0.29 -0.04,-0.43 -0.21,-0.59 -0.32,-0.32 -0.84,-0.26 -1.09,0.13 -0.16,0.25 -0.09,0.39 -0.05,0.65 -0.09,0.09 -0.2,0.17 -0.3,0.25l-1.53 1.27c-0.1,0.09 -0.19,0.16 -0.31,0.26 -0.08,0.07 -0.22,0.2 -0.32,0.25 -0.89,-0.43 -1.36,0.52 -0.93,1.04 0.19,0.23 0.58,0.34 0.9,0.15 0.13,-0.08 0.23,-0.19 0.29,-0.35 0.09,-0.24 0.03,-0.33 -0.01,-0.54 0.09,-0.09 0.2,-0.17 0.3,-0.25 0.3,-0.24 2.02,-1.7 2.16,-1.78 0.19,0.06 0.26,0.16 0.54,0.1 0.24,-0.05 0.28,-0.16 0.41,-0.24l2.21 0.95c-0.01,0.61 0.44,0.88 0.86,0.78 0.34,-0.09 0.55,-0.39 0.54,-0.72 -0.01,-0.16 -0.07,-0.22 -0.09,-0.33l2.63 -2.91c0.19,0.06 0.29,0.1 0.52,0.04 0.17,-0.05 0.29,-0.15 0.37,-0.27 0.47,-0.69 -0.43,-1.46 -1.03,-0.94 -0.19,0.17 -0.3,0.42 -0.23,0.69 0.02,0.1 0.06,0.15 0.08,0.23z"/>
   <path class="fil1" d="M5.12 17.36l2.23 0c0.03,-0.14 0.01,-2.78 0.01,-3.17 0,-0.33 0.02,-0.74 -0,-1.06l-2.24 -0c-0.02,0.26 -0,2.7 -0,3.18 0,0.2 -0.03,0.91 0.01,1.05z"/>
   <polygon class="fil1" points="5.12,17.33 7.33,17.33 7.33,13.15 5.12,13.15 "/>
   <path class="fil1" d="M12.12 17.35l-0 -5.56 2.22 -0.01 -0 5.58c0,-0 0.01,-0.02 0.01,-0.01l0.01 -0.14c-0,-0.06 -0,-0.12 -0,-0.18l0 -4.55c0,-0.21 0.02,-0.51 -0,-0.7 -0.09,-0.03 -2.17,-0.03 -2.25,0.01 -0.02,0.45 -0,0.93 -0,1.39l0 3.85c0,0.06 0,0.12 -0,0.18l0 0.12c0.01,0.04 0,0.01 0.02,0.04z"/>
  </g>
 </g>
</svg>
